<?xml version="1.0" encoding="UTF-8"?>
<svg xmlns="http://www.w3.org/2000/svg"
 id="uuid-2bdb1c07-4954-414b-a982-2d2f26649ba6"
     data-name="Layer 8"
     width="73.6654mm"
     height="73.8811mm"
     viewBox="0 0 208.8153 209.4268">
   <defs>
      <style>
      .uuid-2f8dc70e-2e30-49af-a1e0-556c94304acb {
        fill: #FFBF01;
      }

      .uuid-2f8dc70e-2e30-49af-a1e0-556c94304acb, .uuid-d630c07d-285a-416e-a16e-4208ee00e918, .uuid-1517981c-bc67-449d-b7a6-fb2b376ad888, .uuid-fff4e4c8-a3f8-4e58-9c0a-b7a3dbf21301 {
        stroke: #000;
        stroke-miterlimit: 10;
        stroke-width: .5px;
      }

      .uuid-2f8dc70e-2e30-49af-a1e0-556c94304acb, .uuid-1517981c-bc67-449d-b7a6-fb2b376ad888, .uuid-fff4e4c8-a3f8-4e58-9c0a-b7a3dbf21301 {
        stroke-linecap: round;
      }

      .uuid-d630c07d-285a-416e-a16e-4208ee00e918 {
        stroke-linecap: square;
      }

      .uuid-d630c07d-285a-416e-a16e-4208ee00e918, .uuid-1517981c-bc67-449d-b7a6-fb2b376ad888 {
        fill: none;
      }

      .uuid-38b2f0f8-5a87-4ef9-bcd5-1516b0b21f8f {
        font-size: 6.1905px;
      }

      .uuid-38b2f0f8-5a87-4ef9-bcd5-1516b0b21f8f, .uuid-18d109ca-ab51-47b1-9605-9331f7144c3e {
        font-family: ArialMT, Arial;
      }

      .uuid-18d109ca-ab51-47b1-9605-9331f7144c3e {
        font-size: 4.7461px;
      }

      .uuid-fff4e4c8-a3f8-4e58-9c0a-b7a3dbf21301 {
        fill: #01889C;
      }
    </style>
   </defs>
   <line class="uuid-d630c07d-285a-416e-a16e-4208ee00e918"
         x1="151.5134"
         y1="14.8773"
         x2="151.5134"
         y2="162.4364"/>
   <line class="uuid-d630c07d-285a-416e-a16e-4208ee00e918"
         x1="151.5134"
         y1="170.3082"
         x2="151.5134"
         y2="174.587"/>
   <line class="uuid-d630c07d-285a-416e-a16e-4208ee00e918"
         x1="118.3974"
         y1="189.2499"
         x2="118.3974"
         y2="197.396"/>
   <line class="uuid-d630c07d-285a-416e-a16e-4208ee00e918"
         x1="190.6126"
         y1="174.9194"
         x2="190.6126"
         y2="188.4208"/>
   <line class="uuid-d630c07d-285a-416e-a16e-4208ee00e918"
         x1="111.7175"
         y1="149.6139"
         x2="111.7175"
         y2="152.035"/>
   <line class="uuid-d630c07d-285a-416e-a16e-4208ee00e918"
         x1="111.7175"
         y1="80.8686"
         x2="111.7175"
         y2="141.6548"/>
   <line class="uuid-d630c07d-285a-416e-a16e-4208ee00e918"
         x1="19.391"
         y1="139.2006"
         x2="19.391"
         y2="141.6548"/>
   <line class="uuid-d630c07d-285a-416e-a16e-4208ee00e918"
         x1="19.391"
         y1="149.6139"
         x2="19.391"
         y2="152.035"/>
   <line class="uuid-1517981c-bc67-449d-b7a6-fb2b376ad888"
         x1="13.8199"
         y1="4.7568"
         x2="24.9625"
         y2="4.7568"/>
   <line class="uuid-1517981c-bc67-449d-b7a6-fb2b376ad888"
         x1="24.9625"
         y1="4.7568"
         x2="19.391"
         y2="13.5119"/>
   <line class="uuid-1517981c-bc67-449d-b7a6-fb2b376ad888"
         x1="19.391"
         y1="13.5119"
         x2="13.8199"
         y2="4.7568"/>
   <line class="uuid-1517981c-bc67-449d-b7a6-fb2b376ad888"
         x1="106.1464"
         y1="4.7568"
         x2="117.2891"
         y2="4.7568"/>
   <line class="uuid-1517981c-bc67-449d-b7a6-fb2b376ad888"
         x1="117.2891"
         y1="4.7568"
         x2="111.7175"
         y2="13.5119"/>
   <line class="uuid-1517981c-bc67-449d-b7a6-fb2b376ad888"
         x1="111.7175"
         y1="13.5119"
         x2="106.1464"
         y2="4.7568"/>
   <line class="uuid-1517981c-bc67-449d-b7a6-fb2b376ad888"
         x1="194.3839"
         y1="183.0428"
         x2="194.3839"
         y2="194.1854"/>
   <line class="uuid-1517981c-bc67-449d-b7a6-fb2b376ad888"
         x1="194.3839"
         y1="194.1854"
         x2="203.139"
         y2="188.6144"/>
   <line class="uuid-1517981c-bc67-449d-b7a6-fb2b376ad888"
         x1="203.139"
         y1="188.6144"
         x2="194.3839"
         y2="183.0428"/>
   <line class="uuid-d630c07d-285a-416e-a16e-4208ee00e918"
         x1="19.391"
         y1="13.6984"
         x2="19.391"
         y2="17.0799"/>
   <line class="uuid-d630c07d-285a-416e-a16e-4208ee00e918"
         x1="19.391"
         y1="57.7695"
         x2="19.391"
         y2="106.1876"/>
   <line class="uuid-d630c07d-285a-416e-a16e-4208ee00e918"
         x1="19.391"
         y1="178.7032"
         x2="19.391"
         y2="188.6144"/>
   <line class="uuid-d630c07d-285a-416e-a16e-4208ee00e918"
         x1="19.391"
         y1="188.6144"
         x2="125.4493"
         y2="188.6144"/>
   <line class="uuid-d630c07d-285a-416e-a16e-4208ee00e918"
         x1="180.0529"
         y1="188.6144"
         x2="193.8867"
         y2="188.6144"/>
   <line class="uuid-d630c07d-285a-416e-a16e-4208ee00e918"
         x1="111.7175"
         y1="13.6984"
         x2="111.7175"
         y2="17.5413"/>
   <line class="uuid-d630c07d-285a-416e-a16e-4208ee00e918"
         x1="111.7175"
         y1="41.1355"
         x2="111.7175"
         y2="80.8686"/>
   <line class="uuid-d630c07d-285a-416e-a16e-4208ee00e918"
         x1="111.7175"
         y1="179.0876"
         x2="111.7175"
         y2="188.3102"/>
   <text class="uuid-38b2f0f8-5a87-4ef9-bcd5-1516b0b21f8f"
         transform="translate(35.3742 164.053)">
      <tspan x="0" y="0">INV.</tspan>
   </text>
   <text class="uuid-38b2f0f8-5a87-4ef9-bcd5-1516b0b21f8f"
         transform="translate(34.3429 170.9695)">
      <tspan x="0" y="0">SSW</tspan>
   </text>
   <text class="uuid-18d109ca-ab51-47b1-9605-9331f7144c3e"
         transform="translate(23.4284 35.6321)">
      <tspan x="0" y="0">OPEN</tspan>
   </text>
   <text class="uuid-18d109ca-ab51-47b1-9605-9331f7144c3e"
         transform="translate(18.1398 26.4099)">
      <tspan x="0" y="0">CLOSED</tspan>
   </text>
   <path class="uuid-fff4e4c8-a3f8-4e58-9c0a-b7a3dbf21301"
         d="m17.5219,24.6767c0-1.7585-1.4256-3.1835-3.1835-3.1835s-3.1841,1.425-3.1841,3.1835,1.4256,3.1835,3.1841,3.1835,3.1835-1.425,3.1835-3.1835Z"/>
   <path class="uuid-1517981c-bc67-449d-b7a6-fb2b376ad888"
         d="m17.5219,32.6358c0-1.758-1.4256-3.1835-3.1835-3.1835s-3.1841,1.4256-3.1841,3.1835,1.4256,3.1835,3.1841,3.1835,3.1835-1.425,3.1835-3.1835Z"/>
   <path class="uuid-fff4e4c8-a3f8-4e58-9c0a-b7a3dbf21301"
         d="m110.126,24.6551c0-1.7585-1.4256-3.1841-3.1835-3.1841s-3.1841,1.4256-3.1841,3.1841,1.4256,3.1835,3.1841,3.1835,3.1835-1.4256,3.1835-3.1835Z"/>
   <path class="uuid-1517981c-bc67-449d-b7a6-fb2b376ad888"
         d="m110.126,32.6141c0-1.7585-1.4256-3.1835-3.1835-3.1835s-3.1841,1.425-3.1841,3.1835,1.4256,3.1835,3.1841,3.1835,3.1835-1.425,3.1835-3.1835Z"/>
   <line class="uuid-1517981c-bc67-449d-b7a6-fb2b376ad888"
         x1="5.997"
         y1="137.5386"
         x2="35.9289"
         y2="107.5281"/>
   <line class="uuid-1517981c-bc67-449d-b7a6-fb2b376ad888"
         x1="9.8404"
         y1="112.206"
         x2="20.187"
         y2="112.206"/>
   <line class="uuid-1517981c-bc67-449d-b7a6-fb2b376ad888"
         x1="9.8404"
         y1="113.6386"
         x2="12.6622"
         y2="113.6386"/>
   <line class="uuid-1517981c-bc67-449d-b7a6-fb2b376ad888"
         x1="13.6025"
         y1="113.6386"
         x2="16.4243"
         y2="113.6386"/>
   <line class="uuid-1517981c-bc67-449d-b7a6-fb2b376ad888"
         x1="17.3651"
         y1="113.6386"
         x2="20.187"
         y2="113.6386"/>
   <path class="uuid-1517981c-bc67-449d-b7a6-fb2b376ad888"
         d="m26.3556,120.9611c-1.4288,0-2.5871,1.2472-2.5871,2.7855"/>
   <path class="uuid-1517981c-bc67-449d-b7a6-fb2b376ad888"
         d="m28.9421,123.7466c0-1.5384-1.1577-2.7855-2.5865-2.7855"/>
   <path class="uuid-1517981c-bc67-449d-b7a6-fb2b376ad888"
         d="m28.9421,123.7466c0,1.5389,1.1582,2.7861,2.5871,2.7861"/>
   <path class="uuid-1517981c-bc67-449d-b7a6-fb2b376ad888"
         d="m31.5291,126.5327c1.4283,0,2.5865-1.2472,2.5865-2.7861"/>
   <path class="uuid-fff4e4c8-a3f8-4e58-9c0a-b7a3dbf21301"
         d="m22.575,132.8997c0-1.758-1.4256-3.1835-3.1841-3.1835s-3.1835,1.4256-3.1835,3.1835,1.4256,3.1835,3.1835,3.1835,3.1841-1.425,3.1841-3.1835Z"/>
   <circle class="uuid-2f8dc70e-2e30-49af-a1e0-556c94304acb"
           cx="29.7381"
           cy="132.8997"
           r="3.1835"/>
   <line class="uuid-1517981c-bc67-449d-b7a6-fb2b376ad888"
         x1="8.2484"
         y1="138.4713"
         x2="33.7176"
         y2="138.4713"/>
   <path class="uuid-1517981c-bc67-449d-b7a6-fb2b376ad888"
         d="m33.7176,138.4713c1.7585,0,3.1835-1.4256,3.1835-3.1835"/>
   <line class="uuid-1517981c-bc67-449d-b7a6-fb2b376ad888"
         x1="36.9012"
         y1="109.818"
         x2="36.9012"
         y2="135.2878"/>
   <path class="uuid-1517981c-bc67-449d-b7a6-fb2b376ad888"
         d="m36.9012,109.818c0-1.758-1.425-3.1835-3.1835-3.1835"/>
   <line class="uuid-1517981c-bc67-449d-b7a6-fb2b376ad888"
         x1="8.2484"
         y1="106.6344"
         x2="33.7176"
         y2="106.6344"/>
   <path class="uuid-1517981c-bc67-449d-b7a6-fb2b376ad888"
         d="m8.2484,106.6344c-1.7585,0-3.1835,1.4256-3.1835,3.1835"/>
   <line class="uuid-1517981c-bc67-449d-b7a6-fb2b376ad888"
         x1="5.0648"
         y1="109.818"
         x2="5.0648"
         y2="135.2878"/>
   <path class="uuid-1517981c-bc67-449d-b7a6-fb2b376ad888"
         d="m5.0648,135.2878c0,1.758,1.425,3.1835,3.1835,3.1835"/>
   <line class="uuid-1517981c-bc67-449d-b7a6-fb2b376ad888"
         x1="9.0444"
         y1="162.3491"
         x2="15.4114"
         y2="162.3491"/>
   <line class="uuid-1517981c-bc67-449d-b7a6-fb2b376ad888"
         x1="13.0239"
         y1="163.9406"
         x2="15.4114"
         y2="163.9406"/>
   <line class="uuid-1517981c-bc67-449d-b7a6-fb2b376ad888"
         x1="23.6893"
         y1="168.7161"
         x2="30.0564"
         y2="168.7161"/>
   <line class="uuid-1517981c-bc67-449d-b7a6-fb2b376ad888"
         x1="23.6893"
         y1="167.1241"
         x2="26.0769"
         y2="167.1241"/>
   <path class="uuid-fff4e4c8-a3f8-4e58-9c0a-b7a3dbf21301"
         d="m22.575,166.3286c0-1.7585-1.4256-3.1841-3.1841-3.1841s-3.1835,1.4256-3.1835,3.1841,1.4256,3.1835,3.1835,3.1835,3.1841-1.4256,3.1841-3.1835Z"/>
   <line class="uuid-1517981c-bc67-449d-b7a6-fb2b376ad888"
         x1="9.8404"
         y1="178.2672"
         x2="28.9421"
         y2="178.2672"/>
   <path class="uuid-1517981c-bc67-449d-b7a6-fb2b376ad888"
         d="m28.9421,178.2672c1.7585,0,3.1841-1.4256,3.1841-3.1835"/>
   <line class="uuid-1517981c-bc67-449d-b7a6-fb2b376ad888"
         x1="32.1261"
         y1="155.9815"
         x2="32.1261"
         y2="175.0837"/>
   <path class="uuid-1517981c-bc67-449d-b7a6-fb2b376ad888"
         d="m32.1261,155.9815c0-1.7585-1.4256-3.1835-3.1841-3.1835"/>
   <line class="uuid-1517981c-bc67-449d-b7a6-fb2b376ad888"
         x1="9.8404"
         y1="152.798"
         x2="28.9421"
         y2="152.798"/>
   <path class="uuid-1517981c-bc67-449d-b7a6-fb2b376ad888"
         d="m9.8404,152.798c-1.7585,0-3.1841,1.425-3.1841,3.1835"/>
   <line class="uuid-1517981c-bc67-449d-b7a6-fb2b376ad888"
         x1="6.6563"
         y1="155.9815"
         x2="6.6563"
         y2="175.0837"/>
   <path class="uuid-1517981c-bc67-449d-b7a6-fb2b376ad888"
         d="m6.6563,175.0837c0,1.758,1.4256,3.1835,3.1841,3.1835"/>
   <line class="uuid-1517981c-bc67-449d-b7a6-fb2b376ad888"
         x1="14.616"
         y1="172.6957"
         x2="24.4848"
         y2="172.6957"/>
   <path class="uuid-1517981c-bc67-449d-b7a6-fb2b376ad888"
         d="m24.4848,172.6957c1.3187,0,2.388-1.0688,2.388-2.3875"/>
   <line class="uuid-1517981c-bc67-449d-b7a6-fb2b376ad888"
         x1="26.8729"
         y1="160.5976"
         x2="26.8729"
         y2="170.3082"/>
   <path class="uuid-1517981c-bc67-449d-b7a6-fb2b376ad888"
         d="m26.8729,160.5976c0-1.3187-1.0693-2.3875-2.388-2.3875"/>
   <line class="uuid-1517981c-bc67-449d-b7a6-fb2b376ad888"
         x1="14.616"
         y1="158.2101"
         x2="24.4848"
         y2="158.2101"/>
   <path class="uuid-1517981c-bc67-449d-b7a6-fb2b376ad888"
         d="m14.616,158.2101c-1.3187,0-2.3881,1.0688-2.3881,2.3875"/>
   <line class="uuid-1517981c-bc67-449d-b7a6-fb2b376ad888"
         x1="12.2279"
         y1="160.5976"
         x2="12.2279"
         y2="170.3082"/>
   <path class="uuid-1517981c-bc67-449d-b7a6-fb2b376ad888"
         d="m12.2279,170.3082c0,1.3187,1.0693,2.3875,2.3881,2.3875"/>
   <line class="uuid-1517981c-bc67-449d-b7a6-fb2b376ad888"
         x1="9.0444"
         y1="168.7161"
         x2="15.4114"
         y2="168.7161"/>
   <line class="uuid-1517981c-bc67-449d-b7a6-fb2b376ad888"
         x1="9.0444"
         y1="168.7161"
         x2="12.2279"
         y2="162.3491"/>
   <line class="uuid-1517981c-bc67-449d-b7a6-fb2b376ad888"
         x1="12.2279"
         y1="162.3491"
         x2="15.4114"
         y2="168.7161"/>
   <line class="uuid-1517981c-bc67-449d-b7a6-fb2b376ad888"
         x1="23.6893"
         y1="162.3491"
         x2="30.0564"
         y2="162.3491"/>
   <line class="uuid-1517981c-bc67-449d-b7a6-fb2b376ad888"
         x1="30.0564"
         y1="162.3491"
         x2="26.8729"
         y2="168.7161"/>
   <line class="uuid-1517981c-bc67-449d-b7a6-fb2b376ad888"
         x1="26.8729"
         y1="168.7161"
         x2="23.6893"
         y2="162.3491"/>
   <line class="uuid-1517981c-bc67-449d-b7a6-fb2b376ad888"
         x1="101.3709"
         y1="162.3491"
         x2="107.7379"
         y2="162.3491"/>
   <line class="uuid-1517981c-bc67-449d-b7a6-fb2b376ad888"
         x1="105.3504"
         y1="163.9406"
         x2="107.7379"
         y2="163.9406"/>
   <line class="uuid-1517981c-bc67-449d-b7a6-fb2b376ad888"
         x1="116.0159"
         y1="168.7161"
         x2="122.3829"
         y2="168.7161"/>
   <line class="uuid-1517981c-bc67-449d-b7a6-fb2b376ad888"
         x1="116.0159"
         y1="167.1241"
         x2="118.4034"
         y2="167.1241"/>
   <path class="uuid-1517981c-bc67-449d-b7a6-fb2b376ad888"
         d="m114.9016,166.3286c0-1.7585-1.4256-3.1841-3.1841-3.1841s-3.1835,1.4256-3.1835,3.1841,1.4256,3.1835,3.1835,3.1835,3.1841-1.4256,3.1841-3.1835Z"/>
   <line class="uuid-1517981c-bc67-449d-b7a6-fb2b376ad888"
         x1="102.1669"
         y1="178.2672"
         x2="121.2686"
         y2="178.2672"/>
   <path class="uuid-1517981c-bc67-449d-b7a6-fb2b376ad888"
         d="m121.2686,178.2672c1.7585,0,3.1841-1.4256,3.1841-3.1835"/>
   <line class="uuid-1517981c-bc67-449d-b7a6-fb2b376ad888"
         x1="124.4527"
         y1="155.9815"
         x2="124.4527"
         y2="175.0837"/>
   <path class="uuid-1517981c-bc67-449d-b7a6-fb2b376ad888"
         d="m124.4527,155.9815c0-1.7585-1.4256-3.1835-3.1841-3.1835"/>
   <line class="uuid-1517981c-bc67-449d-b7a6-fb2b376ad888"
         x1="102.1669"
         y1="152.798"
         x2="121.2686"
         y2="152.798"/>
   <path class="uuid-1517981c-bc67-449d-b7a6-fb2b376ad888"
         d="m102.1669,152.798c-1.7585,0-3.1841,1.425-3.1841,3.1835"/>
   <line class="uuid-1517981c-bc67-449d-b7a6-fb2b376ad888"
         x1="98.9828"
         y1="155.9815"
         x2="98.9828"
         y2="175.0837"/>
   <path class="uuid-1517981c-bc67-449d-b7a6-fb2b376ad888"
         d="m98.9828,175.0837c0,1.758,1.4256,3.1835,3.1841,3.1835"/>
   <line class="uuid-1517981c-bc67-449d-b7a6-fb2b376ad888"
         x1="106.9425"
         y1="172.6957"
         x2="116.8119"
         y2="172.6957"/>
   <path class="uuid-1517981c-bc67-449d-b7a6-fb2b376ad888"
         d="m116.8119,172.6957c1.3182,0,2.3875-1.0688,2.3875-2.3875"/>
   <line class="uuid-1517981c-bc67-449d-b7a6-fb2b376ad888"
         x1="119.1994"
         y1="160.5976"
         x2="119.1994"
         y2="170.3082"/>
   <path class="uuid-1517981c-bc67-449d-b7a6-fb2b376ad888"
         d="m119.1994,160.5976c0-1.3187-1.0693-2.3875-2.3875-2.3875"/>
   <line class="uuid-1517981c-bc67-449d-b7a6-fb2b376ad888"
         x1="106.9425"
         y1="158.2101"
         x2="116.8119"
         y2="158.2101"/>
   <path class="uuid-1517981c-bc67-449d-b7a6-fb2b376ad888"
         d="m106.9425,158.2101c-1.3187,0-2.388,1.0688-2.388,2.3875"/>
   <line class="uuid-1517981c-bc67-449d-b7a6-fb2b376ad888"
         x1="104.5544"
         y1="160.5976"
         x2="104.5544"
         y2="170.3082"/>
   <path class="uuid-1517981c-bc67-449d-b7a6-fb2b376ad888"
         d="m104.5544,170.3082c0,1.3187,1.0693,2.3875,2.388,2.3875"/>
   <line class="uuid-1517981c-bc67-449d-b7a6-fb2b376ad888"
         x1="101.3709"
         y1="168.7161"
         x2="107.7379"
         y2="168.7161"/>
   <line class="uuid-1517981c-bc67-449d-b7a6-fb2b376ad888"
         x1="101.3709"
         y1="168.7161"
         x2="104.5544"
         y2="162.3491"/>
   <line class="uuid-1517981c-bc67-449d-b7a6-fb2b376ad888"
         x1="104.5544"
         y1="162.3491"
         x2="107.7379"
         y2="168.7161"/>
   <line class="uuid-1517981c-bc67-449d-b7a6-fb2b376ad888"
         x1="116.0159"
         y1="162.3491"
         x2="122.3829"
         y2="162.3491"/>
   <line class="uuid-1517981c-bc67-449d-b7a6-fb2b376ad888"
         x1="122.3829"
         y1="162.3491"
         x2="119.1994"
         y2="168.7161"/>
   <line class="uuid-1517981c-bc67-449d-b7a6-fb2b376ad888"
         x1="119.1994"
         y1="168.7161"
         x2="116.0159"
         y2="162.3491"/>
   <path class="uuid-fff4e4c8-a3f8-4e58-9c0a-b7a3dbf21301"
         d="m173.7992,184.6343c0-1.758-1.425-3.1835-3.1835-3.1835s-3.1835,1.4256-3.1835,3.1835,1.4256,3.1841,3.1835,3.1841,3.1835-1.4256,3.1835-3.1841Z"/>
   <path class="uuid-1517981c-bc67-449d-b7a6-fb2b376ad888"
         d="m173.7992,192.5939c0-1.7585-1.425-3.1841-3.1835-3.1841s-3.1835,1.4256-3.1835,3.1841,1.4256,3.1835,3.1835,3.1835,3.1835-1.4256,3.1835-3.1835Z"/>
   <path class="uuid-fff4e4c8-a3f8-4e58-9c0a-b7a3dbf21301"
         d="m114.9016,145.6344c0-1.758-1.4256-3.1835-3.1841-3.1835s-3.1835,1.4256-3.1835,3.1835,1.4256,3.1841,3.1835,3.1841,3.1841-1.4256,3.1841-3.1841Z"/>
   <path class="uuid-1517981c-bc67-449d-b7a6-fb2b376ad888"
         d="m23.3711,145.6344c0-2.1977-1.7818-3.9795-3.9801-3.9795s-3.9795,1.7818-3.9795,3.9795,1.7818,3.9796,3.9795,3.9796,3.9801-1.7813,3.9801-3.9796Z"/>
   <path class="uuid-fff4e4c8-a3f8-4e58-9c0a-b7a3dbf21301"
         d="m22.575,145.6344c0-1.758-1.4256-3.1835-3.1841-3.1835s-3.1835,1.4256-3.1835,3.1835,1.4256,3.1841,3.1835,3.1841,3.1841-1.4256,3.1841-3.1841Z"/>
   <path class="uuid-1517981c-bc67-449d-b7a6-fb2b376ad888"
         d="m115.6976,145.6344c0-2.1977-1.7818-3.9795-3.9801-3.9795s-3.9796,1.7818-3.9796,3.9795,1.7818,3.9796,3.9796,3.9796,3.9801-1.7813,3.9801-3.9796Z"/>
   <path class="uuid-1517981c-bc67-449d-b7a6-fb2b376ad888"
         d="m155.4935,166.3286c0-2.1983-1.7818-3.9795-3.9801-3.9795s-3.9795,1.7813-3.9795,3.9795,1.7818,3.9796,3.9795,3.9796,3.9801-1.7818,3.9801-3.9796Z"/>
   <path class="uuid-1517981c-bc67-449d-b7a6-fb2b376ad888"
         d="m154.6975,166.3286c0-1.7585-1.4256-3.1841-3.1841-3.1841s-3.1835,1.4256-3.1835,3.1841,1.4256,3.1835,3.1835,3.1835,3.1841-1.4256,3.1841-3.1835Z"/>
   <line class="uuid-d630c07d-285a-416e-a16e-4208ee00e918"
         x1="19.391"
         y1="41.1816"
         x2="19.391"
         y2="46.5612"/>
   <circle class="uuid-1517981c-bc67-449d-b7a6-fb2b376ad888"
           cx="19.391"
           cy="51.9408"
           r="4.6113"/>
   <text class="uuid-18d109ca-ab51-47b1-9605-9331f7144c3e"
         transform="translate(17.736 54.3967)">
      <tspan x="0" y="0">A</tspan>
   </text>
   <line class="uuid-d630c07d-285a-416e-a16e-4208ee00e918"
         x1="19.9972"
         y1="14.7314"
         x2="39.2106"
         y2="14.7314"/>
   <path class="uuid-1517981c-bc67-449d-b7a6-fb2b376ad888"
         d="m49.2015,14.7314c0-2.5464-2.0643-4.6113-4.6107-4.6113s-4.6113,2.0649-4.6113,4.6113,2.0643,4.6112,4.6113,4.6112,4.6107-2.0643,4.6107-4.6112Z"/>
   <text class="uuid-18d109ca-ab51-47b1-9605-9331f7144c3e"
         transform="translate(42.9352 17.1877)">
      <tspan x="0" y="0">V</tspan>
   </text>
   <line class="uuid-d630c07d-285a-416e-a16e-4208ee00e918"
         x1="112.3237"
         y1="15.1707"
         x2="131.5371"
         y2="15.1707"/>
   <path class="uuid-1517981c-bc67-449d-b7a6-fb2b376ad888"
         d="m141.5285,15.1707c0-2.5469-2.0649-4.6113-4.6113-4.6113s-4.6113,2.0643-4.6113,4.6113,2.0643,4.6107,4.6113,4.6107,4.6113-2.0643,4.6113-4.6107Z"/>
   <text class="uuid-18d109ca-ab51-47b1-9605-9331f7144c3e"
         transform="translate(135.2619 17.6262)">
      <tspan x="0" y="0">V</tspan>
   </text>
   <circle class="uuid-1517981c-bc67-449d-b7a6-fb2b376ad888"
           cx="130.6939"
           cy="188.4208"
           r="4.6113"/>
   <text class="uuid-18d109ca-ab51-47b1-9605-9331f7144c3e"
         transform="translate(129.0387 190.8772)">
      <tspan x="0" y="0">A</tspan>
   </text>
   <circle class="uuid-1517981c-bc67-449d-b7a6-fb2b376ad888"
           cx="118.4251"
           cy="202.9801"
           r="4.6113"/>
   <text class="uuid-18d109ca-ab51-47b1-9605-9331f7144c3e"
         transform="translate(116.7697 205.4363)">
      <tspan x="0" y="0">V</tspan>
   </text>
   <line class="uuid-d630c07d-285a-416e-a16e-4208ee00e918"
         x1="152.1858"
         y1="174.587"
         x2="190.6126"
         y2="174.587"/>
   <line class="uuid-d630c07d-285a-416e-a16e-4208ee00e918"
         x1="136.8424"
         y1="188.4208"
         x2="145.296"
         y2="188.4208"/>
   <path class="uuid-1517981c-bc67-449d-b7a6-fb2b376ad888"
         d="m6.1634,36.2504c0,2.5469,2.0649,4.6112,4.6113,4.6112"/>
   <line class="uuid-1517981c-bc67-449d-b7a6-fb2b376ad888"
         x1="10.7747"
         y1="40.8617"
         x2="33.831"
         y2="40.8617"/>
   <path class="uuid-1517981c-bc67-449d-b7a6-fb2b376ad888"
         d="m33.831,40.8617c2.5469,0,4.6113-2.0643,4.6113-4.6112"/>
   <line class="uuid-1517981c-bc67-449d-b7a6-fb2b376ad888"
         x1="38.4422"
         y1="22.4167"
         x2="38.4422"
         y2="36.2504"/>
   <path class="uuid-1517981c-bc67-449d-b7a6-fb2b376ad888"
         d="m38.4422,22.4167c0-2.5464-2.0643-4.6113-4.6113-4.6113"/>
   <line class="uuid-1517981c-bc67-449d-b7a6-fb2b376ad888"
         x1="22.3028"
         y1="17.8054"
         x2="33.831"
         y2="17.8054"/>
   <line class="uuid-1517981c-bc67-449d-b7a6-fb2b376ad888"
         x1="10.7747"
         y1="17.8054"
         x2="22.3028"
         y2="17.8054"/>
   <path class="uuid-1517981c-bc67-449d-b7a6-fb2b376ad888"
         d="m10.7747,17.8054c-2.5464,0-4.6113,2.0649-4.6113,4.6113"/>
   <line class="uuid-1517981c-bc67-449d-b7a6-fb2b376ad888"
         x1="6.1634"
         y1="22.4167"
         x2="6.1634"
         y2="36.2504"/>
   <path class="uuid-1517981c-bc67-449d-b7a6-fb2b376ad888"
         d="m98.4899,36.2504c0,2.5469,2.0649,4.6112,4.6113,4.6112"/>
   <line class="uuid-1517981c-bc67-449d-b7a6-fb2b376ad888"
         x1="103.1012"
         y1="40.8617"
         x2="126.1575"
         y2="40.8617"/>
   <path class="uuid-1517981c-bc67-449d-b7a6-fb2b376ad888"
         d="m126.1575,40.8617c2.5469,0,4.6113-2.0643,4.6113-4.6112"/>
   <line class="uuid-1517981c-bc67-449d-b7a6-fb2b376ad888"
         x1="130.7687"
         y1="22.4167"
         x2="130.7687"
         y2="36.2504"/>
   <path class="uuid-1517981c-bc67-449d-b7a6-fb2b376ad888"
         d="m130.7687,22.4167c0-2.5464-2.0643-4.6113-4.6113-4.6113"/>
   <line class="uuid-1517981c-bc67-449d-b7a6-fb2b376ad888"
         x1="114.6293"
         y1="17.8054"
         x2="126.1575"
         y2="17.8054"/>
   <line class="uuid-1517981c-bc67-449d-b7a6-fb2b376ad888"
         x1="103.1012"
         y1="17.8054"
         x2="114.6293"
         y2="17.8054"/>
   <path class="uuid-1517981c-bc67-449d-b7a6-fb2b376ad888"
         d="m103.1012,17.8054c-2.5464,0-4.6113,2.0649-4.6113,4.6113"/>
   <line class="uuid-1517981c-bc67-449d-b7a6-fb2b376ad888"
         x1="98.4899"
         y1="22.4167"
         x2="98.4899"
         y2="36.2504"/>
   <text class="uuid-18d109ca-ab51-47b1-9605-9331f7144c3e"
         transform="translate(110.7443 26.4099)">
      <tspan x="0" y="0">CLOSED</tspan>
   </text>
   <text class="uuid-18d109ca-ab51-47b1-9605-9331f7144c3e"
         transform="translate(116.0324 35.6321)">
      <tspan x="0" y="0">OPEN</tspan>
   </text>
   <line class="uuid-1517981c-bc67-449d-b7a6-fb2b376ad888"
         x1="146.0373"
         y1="5.5089"
         x2="157.1804"
         y2="5.5089"/>
   <line class="uuid-1517981c-bc67-449d-b7a6-fb2b376ad888"
         x1="157.1804"
         y1="5.5089"
         x2="151.6088"
         y2="14.264"/>
   <line class="uuid-1517981c-bc67-449d-b7a6-fb2b376ad888"
         x1="151.6088"
         y1="14.264"
         x2="146.0373"
         y2="5.5089"/>
   <path class="uuid-1517981c-bc67-449d-b7a6-fb2b376ad888"
         d="m146.0373,195.3377c0,2.5469,2.0643,4.6113,4.6113,4.6113"/>
   <line class="uuid-1517981c-bc67-449d-b7a6-fb2b376ad888"
         x1="150.6485"
         y1="199.9489"
         x2="173.7048"
         y2="199.9489"/>
   <path class="uuid-1517981c-bc67-449d-b7a6-fb2b376ad888"
         d="m173.7048,199.9489c2.5464,0,4.6113-2.0643,4.6113-4.6113"/>
   <line class="uuid-1517981c-bc67-449d-b7a6-fb2b376ad888"
         x1="178.3161"
         y1="181.5039"
         x2="178.3161"
         y2="195.3377"/>
   <path class="uuid-1517981c-bc67-449d-b7a6-fb2b376ad888"
         d="m178.3161,181.5039c0-2.5464-2.0649-4.6113-4.6113-4.6113"/>
   <line class="uuid-1517981c-bc67-449d-b7a6-fb2b376ad888"
         x1="162.1767"
         y1="176.8926"
         x2="173.7048"
         y2="176.8926"/>
   <line class="uuid-1517981c-bc67-449d-b7a6-fb2b376ad888"
         x1="150.6485"
         y1="176.8926"
         x2="162.1767"
         y2="176.8926"/>
   <path class="uuid-1517981c-bc67-449d-b7a6-fb2b376ad888"
         d="m150.6485,176.8926c-2.5469,0-4.6113,2.0649-4.6113,4.6113"/>
   <line class="uuid-1517981c-bc67-449d-b7a6-fb2b376ad888"
         x1="146.0373"
         y1="181.5039"
         x2="146.0373"
         y2="195.3377"/>
   <text class="uuid-18d109ca-ab51-47b1-9605-9331f7144c3e"
         transform="translate(147.3493 187.0906)">
      <tspan x="0" y="0">CLOSED</tspan>
   </text>
   <text class="uuid-18d109ca-ab51-47b1-9605-9331f7144c3e"
         transform="translate(152.5416 195.4885)">
      <tspan x="0" y="0">OPEN</tspan>
   </text>
   <text class="uuid-38b2f0f8-5a87-4ef9-bcd5-1516b0b21f8f"
         transform="translate(126.6662 164.053)">
      <tspan x="0" y="0">BYP.</tspan>
   </text>
   <text class="uuid-38b2f0f8-5a87-4ef9-bcd5-1516b0b21f8f"
         transform="translate(126.6696 170.9695)">
      <tspan x="0" y="0">SSW</tspan>
   </text>
</svg>
