<?xml version="1.0" encoding="UTF-8"?>
<svg xmlns="http://www.w3.org/2000/svg"
 id="uuid-4169a864-39e2-4306-8bb6-fd6e788b4d07"
     data-name="Layer 8"
     width="173mm"
     height="37mm"
     viewBox="0 0 490.3937 104.8819">
   <defs>
      <style>
      .uuid-cb5d2bbc-68d0-455a-9a0b-f37189b587b4, .uuid-416d4315-0bf2-49d3-b8eb-4173e061e4cc {
        font-family: ArialNarrow, Arial;
        font-size: 6.1076px;
      }

      .uuid-1e314b04-0150-44e3-8f01-e8cbe1e4c207 {
        stroke-width: 0px;
      }

      .uuid-67b50779-44c8-4db9-95d9-6e70b70ed747 {
        fill: none;
        stroke: #000;
        stroke-linecap: round;
        stroke-miterlimit: 10;
        stroke-width: .5px;
      }

      .uuid-416d4315-0bf2-49d3-b8eb-4173e061e4cc {
        fill: #fff;
      }
    </style>
   </defs>
   <text class="uuid-416d4315-0bf2-49d3-b8eb-4173e061e4cc"
         transform="translate(261.9379 31.1294)">
      <tspan x="0" y="0">Bypass mains fault</tspan>
   </text>
   <text class="uuid-416d4315-0bf2-49d3-b8eb-4173e061e4cc"
         transform="translate(104.3876 46.501)">
      <tspan x="0" y="0">DC Low warning</tspan>
   </text>
   <text class="uuid-416d4315-0bf2-49d3-b8eb-4173e061e4cc"
         transform="translate(180.8568 31.1294)">
      <tspan x="0" y="0">Inverter fault</tspan>
   </text>
   <text class="uuid-416d4315-0bf2-49d3-b8eb-4173e061e4cc"
         transform="translate(180.8568 46.501)">
      <tspan x="0" y="0">Overload Inv./Bypass</tspan>
   </text>
   <text class="uuid-416d4315-0bf2-49d3-b8eb-4173e061e4cc"
         transform="translate(180.8568 61.8711)">
      <tspan x="0" y="0">Inverter fuse blown</tspan>
   </text>
   <text class="uuid-416d4315-0bf2-49d3-b8eb-4173e061e4cc"
         transform="translate(180.8568 77.2417)">
      <tspan x="0" y="0">Asynchronous</tspan>
   </text>
   <text class="uuid-416d4315-0bf2-49d3-b8eb-4173e061e4cc"
         transform="translate(261.9379 77.2417)">
      <tspan x="0" y="0">INV SSW Inhibited</tspan>
   </text>
   <text class="uuid-416d4315-0bf2-49d3-b8eb-4173e061e4cc"
         transform="translate(261.9379 61.8711)">
      <tspan x="0" y="0">BYP SSW Inhibited</tspan>
   </text>
   <text class="uuid-416d4315-0bf2-49d3-b8eb-4173e061e4cc"
         transform="translate(261.9379 46.501)">
      <tspan x="0" y="0">Manual Bypass ON</tspan>
   </text>
   <text class="uuid-416d4315-0bf2-49d3-b8eb-4173e061e4cc"
         transform="translate(343.018 31.1294)">
      <tspan x="0" y="0">Overtemperature</tspan>
   </text>
   <text class="uuid-416d4315-0bf2-49d3-b8eb-4173e061e4cc"
         transform="translate(343.018 46.501)">
      <tspan x="0" y="0">Fan failure</tspan>
   </text>
   <text class="uuid-416d4315-0bf2-49d3-b8eb-4173e061e4cc"
         transform="translate(343.018 61.8711)">
      <tspan x="0" y="0">Power supply fault</tspan>
   </text>
   <text class="uuid-416d4315-0bf2-49d3-b8eb-4173e061e4cc"
         transform="translate(343.018 77.2417)">
      <tspan x="0" y="0">SBS Controller fault</tspan>
   </text>
   <text class="uuid-416d4315-0bf2-49d3-b8eb-4173e061e4cc"
         transform="translate(424.0985 31.1294)">
      <tspan x="0" y="0">Inverter overvoltage</tspan>
   </text>
   <text class="uuid-416d4315-0bf2-49d3-b8eb-4173e061e4cc"
         transform="translate(424.0985 46.501)">
      <tspan x="0" y="0">Inverter undervoltage</tspan>
   </text>
   <text class="uuid-416d4315-0bf2-49d3-b8eb-4173e061e4cc"
         transform="translate(424.0985 61.8711)">
      <tspan x="0" y="0">DC undervoltage</tspan>
   </text>
   <text class="uuid-416d4315-0bf2-49d3-b8eb-4173e061e4cc"
         transform="translate(424.0985 77.2417)">
      <tspan x="0" y="0">AC ground fault</tspan>
   </text>
   <text class="uuid-416d4315-0bf2-49d3-b8eb-4173e061e4cc"
         transform="translate(23.307 61.8711)">
      <tspan x="0" y="0">DC out of tolerance</tspan>
   </text>
   <rect class="uuid-1e314b04-0150-44e3-8f01-e8cbe1e4c207"
         x="331.8878"
         y="73.5324"
         width="7.6852"
         height="3.074"/>
   <rect class="uuid-67b50779-44c8-4db9-95d9-6e70b70ed747"
         x="331.8878"
         y="73.5324"
         width="7.6852"
         height="3.074"/>
   <line class="uuid-67b50779-44c8-4db9-95d9-6e70b70ed747"
         x1="331.8878"
         y1="73.5324"
         x2="331.8878"
         y2="76.6064"/>
   <line class="uuid-67b50779-44c8-4db9-95d9-6e70b70ed747"
         x1="331.8878"
         y1="73.5324"
         x2="331.8878"
         y2="73.5324"/>
   <line class="uuid-67b50779-44c8-4db9-95d9-6e70b70ed747"
         x1="331.8878"
         y1="73.5324"
         x2="339.573"
         y2="73.5324"/>
   <line class="uuid-67b50779-44c8-4db9-95d9-6e70b70ed747"
         x1="339.573"
         y1="73.5324"
         x2="339.573"
         y2="73.5324"/>
   <line class="uuid-67b50779-44c8-4db9-95d9-6e70b70ed747"
         x1="339.573"
         y1="73.5324"
         x2="339.573"
         y2="76.6064"/>
   <line class="uuid-67b50779-44c8-4db9-95d9-6e70b70ed747"
         x1="339.573"
         y1="76.6064"
         x2="339.573"
         y2="76.6064"/>
   <line class="uuid-67b50779-44c8-4db9-95d9-6e70b70ed747"
         x1="331.8878"
         y1="76.6064"
         x2="339.573"
         y2="76.6064"/>
   <line class="uuid-67b50779-44c8-4db9-95d9-6e70b70ed747"
         x1="331.8878"
         y1="76.6064"
         x2="331.8878"
         y2="76.6064"/>
   <rect class="uuid-1e314b04-0150-44e3-8f01-e8cbe1e4c207"
         x="331.8878"
         y="58.1614"
         width="7.6852"
         height="3.0745"/>
   <rect class="uuid-67b50779-44c8-4db9-95d9-6e70b70ed747"
         x="331.8878"
         y="58.1614"
         width="7.6852"
         height="3.0745"/>
   <line class="uuid-67b50779-44c8-4db9-95d9-6e70b70ed747"
         x1="331.8878"
         y1="58.1614"
         x2="331.8878"
         y2="61.2359"/>
   <line class="uuid-67b50779-44c8-4db9-95d9-6e70b70ed747"
         x1="331.8878"
         y1="58.1614"
         x2="331.8878"
         y2="58.1614"/>
   <line class="uuid-67b50779-44c8-4db9-95d9-6e70b70ed747"
         x1="331.8878"
         y1="58.1614"
         x2="339.573"
         y2="58.1614"/>
   <line class="uuid-67b50779-44c8-4db9-95d9-6e70b70ed747"
         x1="339.573"
         y1="58.1614"
         x2="339.573"
         y2="58.1614"/>
   <line class="uuid-67b50779-44c8-4db9-95d9-6e70b70ed747"
         x1="339.573"
         y1="58.1614"
         x2="339.573"
         y2="61.2359"/>
   <line class="uuid-67b50779-44c8-4db9-95d9-6e70b70ed747"
         x1="339.573"
         y1="61.2359"
         x2="339.573"
         y2="61.2359"/>
   <line class="uuid-67b50779-44c8-4db9-95d9-6e70b70ed747"
         x1="331.8878"
         y1="61.2359"
         x2="339.573"
         y2="61.2359"/>
   <line class="uuid-67b50779-44c8-4db9-95d9-6e70b70ed747"
         x1="331.8878"
         y1="61.2359"
         x2="331.8878"
         y2="61.2359"/>
   <rect class="uuid-1e314b04-0150-44e3-8f01-e8cbe1e4c207"
         x="331.8878"
         y="42.7909"
         width="7.6852"
         height="3.074"/>
   <rect class="uuid-67b50779-44c8-4db9-95d9-6e70b70ed747"
         x="331.8878"
         y="42.7909"
         width="7.6852"
         height="3.074"/>
   <line class="uuid-67b50779-44c8-4db9-95d9-6e70b70ed747"
         x1="331.8878"
         y1="42.7909"
         x2="331.8878"
         y2="45.8649"/>
   <line class="uuid-67b50779-44c8-4db9-95d9-6e70b70ed747"
         x1="331.8878"
         y1="42.7909"
         x2="331.8878"
         y2="42.7909"/>
   <line class="uuid-67b50779-44c8-4db9-95d9-6e70b70ed747"
         x1="331.8878"
         y1="42.7909"
         x2="339.573"
         y2="42.7909"/>
   <line class="uuid-67b50779-44c8-4db9-95d9-6e70b70ed747"
         x1="339.573"
         y1="42.7909"
         x2="339.573"
         y2="42.7909"/>
   <line class="uuid-67b50779-44c8-4db9-95d9-6e70b70ed747"
         x1="339.573"
         y1="42.7909"
         x2="339.573"
         y2="45.8649"/>
   <line class="uuid-67b50779-44c8-4db9-95d9-6e70b70ed747"
         x1="339.573"
         y1="45.8649"
         x2="339.573"
         y2="45.8649"/>
   <line class="uuid-67b50779-44c8-4db9-95d9-6e70b70ed747"
         x1="331.8878"
         y1="45.8649"
         x2="339.573"
         y2="45.8649"/>
   <line class="uuid-67b50779-44c8-4db9-95d9-6e70b70ed747"
         x1="331.8878"
         y1="45.8649"
         x2="331.8878"
         y2="45.8649"/>
   <rect class="uuid-1e314b04-0150-44e3-8f01-e8cbe1e4c207"
         x="331.8878"
         y="27.4198"
         width="7.6852"
         height="3.0745"/>
   <rect class="uuid-67b50779-44c8-4db9-95d9-6e70b70ed747"
         x="331.8878"
         y="27.4198"
         width="7.6852"
         height="3.0745"/>
   <line class="uuid-67b50779-44c8-4db9-95d9-6e70b70ed747"
         x1="331.8878"
         y1="27.4198"
         x2="331.8878"
         y2="30.4944"/>
   <line class="uuid-67b50779-44c8-4db9-95d9-6e70b70ed747"
         x1="331.8878"
         y1="27.4198"
         x2="331.8878"
         y2="27.4198"/>
   <line class="uuid-67b50779-44c8-4db9-95d9-6e70b70ed747"
         x1="331.8878"
         y1="27.4198"
         x2="339.573"
         y2="27.4198"/>
   <line class="uuid-67b50779-44c8-4db9-95d9-6e70b70ed747"
         x1="339.573"
         y1="27.4198"
         x2="339.573"
         y2="27.4198"/>
   <line class="uuid-67b50779-44c8-4db9-95d9-6e70b70ed747"
         x1="339.573"
         y1="27.4198"
         x2="339.573"
         y2="30.4944"/>
   <line class="uuid-67b50779-44c8-4db9-95d9-6e70b70ed747"
         x1="339.573"
         y1="30.4944"
         x2="339.573"
         y2="30.4944"/>
   <line class="uuid-67b50779-44c8-4db9-95d9-6e70b70ed747"
         x1="331.8878"
         y1="30.4944"
         x2="339.573"
         y2="30.4944"/>
   <line class="uuid-67b50779-44c8-4db9-95d9-6e70b70ed747"
         x1="331.8878"
         y1="30.4944"
         x2="331.8878"
         y2="30.4944"/>
   <rect class="uuid-1e314b04-0150-44e3-8f01-e8cbe1e4c207"
         x="412.9681"
         y="73.5324"
         width="7.6852"
         height="3.074"/>
   <rect class="uuid-67b50779-44c8-4db9-95d9-6e70b70ed747"
         x="412.9681"
         y="73.5324"
         width="7.6852"
         height="3.074"/>
   <line class="uuid-67b50779-44c8-4db9-95d9-6e70b70ed747"
         x1="412.9681"
         y1="73.5324"
         x2="412.9681"
         y2="76.6064"/>
   <line class="uuid-67b50779-44c8-4db9-95d9-6e70b70ed747"
         x1="412.9681"
         y1="73.5324"
         x2="412.9681"
         y2="73.5324"/>
   <line class="uuid-67b50779-44c8-4db9-95d9-6e70b70ed747"
         x1="412.9681"
         y1="73.5324"
         x2="420.6534"
         y2="73.5324"/>
   <line class="uuid-67b50779-44c8-4db9-95d9-6e70b70ed747"
         x1="420.6534"
         y1="73.5324"
         x2="420.6534"
         y2="73.5324"/>
   <line class="uuid-67b50779-44c8-4db9-95d9-6e70b70ed747"
         x1="420.6534"
         y1="73.5324"
         x2="420.6534"
         y2="76.6064"/>
   <line class="uuid-67b50779-44c8-4db9-95d9-6e70b70ed747"
         x1="420.6534"
         y1="76.6064"
         x2="420.6534"
         y2="76.6064"/>
   <line class="uuid-67b50779-44c8-4db9-95d9-6e70b70ed747"
         x1="412.9681"
         y1="76.6064"
         x2="420.6534"
         y2="76.6064"/>
   <line class="uuid-67b50779-44c8-4db9-95d9-6e70b70ed747"
         x1="412.9681"
         y1="76.6064"
         x2="412.9681"
         y2="76.6064"/>
   <rect class="uuid-1e314b04-0150-44e3-8f01-e8cbe1e4c207"
         x="412.9681"
         y="58.1614"
         width="7.6852"
         height="3.0745"/>
   <rect class="uuid-67b50779-44c8-4db9-95d9-6e70b70ed747"
         x="412.9681"
         y="58.1614"
         width="7.6852"
         height="3.0745"/>
   <line class="uuid-67b50779-44c8-4db9-95d9-6e70b70ed747"
         x1="412.9681"
         y1="58.1614"
         x2="412.9681"
         y2="61.2359"/>
   <line class="uuid-67b50779-44c8-4db9-95d9-6e70b70ed747"
         x1="412.9681"
         y1="58.1614"
         x2="412.9681"
         y2="58.1614"/>
   <line class="uuid-67b50779-44c8-4db9-95d9-6e70b70ed747"
         x1="412.9681"
         y1="58.1614"
         x2="420.6534"
         y2="58.1614"/>
   <line class="uuid-67b50779-44c8-4db9-95d9-6e70b70ed747"
         x1="420.6534"
         y1="58.1614"
         x2="420.6534"
         y2="58.1614"/>
   <line class="uuid-67b50779-44c8-4db9-95d9-6e70b70ed747"
         x1="420.6534"
         y1="58.1614"
         x2="420.6534"
         y2="61.2359"/>
   <line class="uuid-67b50779-44c8-4db9-95d9-6e70b70ed747"
         x1="420.6534"
         y1="61.2359"
         x2="420.6534"
         y2="61.2359"/>
   <line class="uuid-67b50779-44c8-4db9-95d9-6e70b70ed747"
         x1="412.9681"
         y1="61.2359"
         x2="420.6534"
         y2="61.2359"/>
   <line class="uuid-67b50779-44c8-4db9-95d9-6e70b70ed747"
         x1="412.9681"
         y1="61.2359"
         x2="412.9681"
         y2="61.2359"/>
   <rect class="uuid-1e314b04-0150-44e3-8f01-e8cbe1e4c207"
         x="412.9681"
         y="42.7909"
         width="7.6852"
         height="3.074"/>
   <rect class="uuid-67b50779-44c8-4db9-95d9-6e70b70ed747"
         x="412.9681"
         y="42.7909"
         width="7.6852"
         height="3.074"/>
   <line class="uuid-67b50779-44c8-4db9-95d9-6e70b70ed747"
         x1="412.9681"
         y1="42.7909"
         x2="412.9681"
         y2="45.8649"/>
   <line class="uuid-67b50779-44c8-4db9-95d9-6e70b70ed747"
         x1="412.9681"
         y1="42.7909"
         x2="412.9681"
         y2="42.7909"/>
   <line class="uuid-67b50779-44c8-4db9-95d9-6e70b70ed747"
         x1="412.9681"
         y1="42.7909"
         x2="420.6534"
         y2="42.7909"/>
   <line class="uuid-67b50779-44c8-4db9-95d9-6e70b70ed747"
         x1="420.6534"
         y1="42.7909"
         x2="420.6534"
         y2="42.7909"/>
   <line class="uuid-67b50779-44c8-4db9-95d9-6e70b70ed747"
         x1="420.6534"
         y1="42.7909"
         x2="420.6534"
         y2="45.8649"/>
   <line class="uuid-67b50779-44c8-4db9-95d9-6e70b70ed747"
         x1="420.6534"
         y1="45.8649"
         x2="420.6534"
         y2="45.8649"/>
   <line class="uuid-67b50779-44c8-4db9-95d9-6e70b70ed747"
         x1="412.9681"
         y1="45.8649"
         x2="420.6534"
         y2="45.8649"/>
   <line class="uuid-67b50779-44c8-4db9-95d9-6e70b70ed747"
         x1="412.9681"
         y1="45.8649"
         x2="412.9681"
         y2="45.8649"/>
   <rect class="uuid-1e314b04-0150-44e3-8f01-e8cbe1e4c207"
         x="412.9681"
         y="27.4198"
         width="7.6852"
         height="3.0745"/>
   <rect class="uuid-67b50779-44c8-4db9-95d9-6e70b70ed747"
         x="412.9681"
         y="27.4198"
         width="7.6852"
         height="3.0745"/>
   <line class="uuid-67b50779-44c8-4db9-95d9-6e70b70ed747"
         x1="412.9681"
         y1="27.4198"
         x2="412.9681"
         y2="30.4944"/>
   <line class="uuid-67b50779-44c8-4db9-95d9-6e70b70ed747"
         x1="412.9681"
         y1="27.4198"
         x2="412.9681"
         y2="27.4198"/>
   <line class="uuid-67b50779-44c8-4db9-95d9-6e70b70ed747"
         x1="412.9681"
         y1="27.4198"
         x2="420.6534"
         y2="27.4198"/>
   <line class="uuid-67b50779-44c8-4db9-95d9-6e70b70ed747"
         x1="420.6534"
         y1="27.4198"
         x2="420.6534"
         y2="27.4198"/>
   <line class="uuid-67b50779-44c8-4db9-95d9-6e70b70ed747"
         x1="420.6534"
         y1="27.4198"
         x2="420.6534"
         y2="30.4944"/>
   <line class="uuid-67b50779-44c8-4db9-95d9-6e70b70ed747"
         x1="420.6534"
         y1="30.4944"
         x2="420.6534"
         y2="30.4944"/>
   <line class="uuid-67b50779-44c8-4db9-95d9-6e70b70ed747"
         x1="412.9681"
         y1="30.4944"
         x2="420.6534"
         y2="30.4944"/>
   <line class="uuid-67b50779-44c8-4db9-95d9-6e70b70ed747"
         x1="412.9681"
         y1="30.4944"
         x2="412.9681"
         y2="30.4944"/>
   <path class="uuid-67b50779-44c8-4db9-95d9-6e70b70ed747"
         d="m487.5936,8.4803c0-3.3955-2.7546-6.148-6.1491-6.148"/>
   <path class="uuid-67b50779-44c8-4db9-95d9-6e70b70ed747"
         d="m8.9486,2.3323c-3.3961,0-6.1485,2.7524-6.1485,6.148"/>
   <path class="uuid-67b50779-44c8-4db9-95d9-6e70b70ed747"
         d="m482.6754,102.5496c2.7167,0,4.9182-2.2021,4.9182-4.9187"/>
   <path class="uuid-67b50779-44c8-4db9-95d9-6e70b70ed747"
         d="m2.8001,97.6309c0,2.7167,2.2021,4.9187,4.9187,4.9187"/>
   <line class="uuid-67b50779-44c8-4db9-95d9-6e70b70ed747"
         x1="7.7188"
         y1="102.5496"
         x2="482.6754"
         y2="102.5496"/>
   <line class="uuid-67b50779-44c8-4db9-95d9-6e70b70ed747"
         x1="487.5936"
         y1="8.4803"
         x2="487.5936"
         y2="97.6309"/>
   <line class="uuid-67b50779-44c8-4db9-95d9-6e70b70ed747"
         x1="2.8001"
         y1="8.4803"
         x2="2.8001"
         y2="97.6309"/>
   <line class="uuid-67b50779-44c8-4db9-95d9-6e70b70ed747"
         x1="8.9486"
         y1="2.3323"
         x2="482.6754"
         y2="2.3323"/>
   <text class="uuid-cb5d2bbc-68d0-455a-9a0b-f37189b587b4"
         transform="translate(104.3876 46.501)">
      <tspan x="0" y="0">DC Low warning</tspan>
   </text>
   <text class="uuid-cb5d2bbc-68d0-455a-9a0b-f37189b587b4"
         transform="translate(180.8568 31.1294)">
      <tspan x="0" y="0">Inverter fault</tspan>
   </text>
   <text class="uuid-cb5d2bbc-68d0-455a-9a0b-f37189b587b4"
         transform="translate(180.8568 46.501)">
      <tspan x="0" y="0">Overload Inv./Bypass</tspan>
   </text>
   <text class="uuid-cb5d2bbc-68d0-455a-9a0b-f37189b587b4"
         transform="translate(180.8568 61.8711)">
      <tspan x="0" y="0">Inverter fuse blown</tspan>
   </text>
   <text class="uuid-cb5d2bbc-68d0-455a-9a0b-f37189b587b4"
         transform="translate(261.9379 31.1294)">
      <tspan x="0" y="0">Bypass mains fault</tspan>
   </text>
   <text class="uuid-cb5d2bbc-68d0-455a-9a0b-f37189b587b4"
         transform="translate(261.9379 46.501)">
      <tspan x="0" y="0">Manual Bypass ON</tspan>
   </text>
   <text class="uuid-cb5d2bbc-68d0-455a-9a0b-f37189b587b4"
         transform="translate(261.9379 61.8711)">
      <tspan x="0" y="0">BYP SSW Inhibited</tspan>
   </text>
   <text class="uuid-cb5d2bbc-68d0-455a-9a0b-f37189b587b4"
         transform="translate(261.9379 77.2417)">
      <tspan x="0" y="0">INV SSW Inhibited</tspan>
   </text>
   <text class="uuid-cb5d2bbc-68d0-455a-9a0b-f37189b587b4"
         transform="translate(343.018 31.1294)">
      <tspan x="0" y="0">Overtemperature</tspan>
   </text>
   <text class="uuid-cb5d2bbc-68d0-455a-9a0b-f37189b587b4"
         transform="translate(343.018 46.501)">
      <tspan x="0" y="0">Fan failure</tspan>
   </text>
   <text class="uuid-cb5d2bbc-68d0-455a-9a0b-f37189b587b4"
         transform="translate(343.018 61.8711)">
      <tspan x="0" y="0">Power supply fault</tspan>
   </text>
   <text class="uuid-cb5d2bbc-68d0-455a-9a0b-f37189b587b4"
         transform="translate(343.018 77.2417)">
      <tspan x="0" y="0">SBS Controller fault</tspan>
   </text>
   <text class="uuid-cb5d2bbc-68d0-455a-9a0b-f37189b587b4"
         transform="translate(424.0985 31.1294)">
      <tspan x="0" y="0">Inverter overvoltage</tspan>
   </text>
   <text class="uuid-cb5d2bbc-68d0-455a-9a0b-f37189b587b4"
         transform="translate(424.0985 46.501)">
      <tspan x="0" y="0">Inverter undervoltage</tspan>
   </text>
   <text class="uuid-cb5d2bbc-68d0-455a-9a0b-f37189b587b4"
         transform="translate(424.0985 61.8711)">
      <tspan x="0" y="0">DC undervoltage</tspan>
   </text>
   <text class="uuid-cb5d2bbc-68d0-455a-9a0b-f37189b587b4"
         transform="translate(424.0985 77.2417)">
      <tspan x="0" y="0">AC ground fault</tspan>
   </text>
   <text class="uuid-cb5d2bbc-68d0-455a-9a0b-f37189b587b4"
         transform="translate(180.8568 77.2417)">
      <tspan x="0" y="0">Asynchronous</tspan>
   </text>
   <rect class="uuid-1e314b04-0150-44e3-8f01-e8cbe1e4c207"
         x="12.1761"
         y="27.4198"
         width="7.6858"
         height="3.0745"/>
   <rect class="uuid-67b50779-44c8-4db9-95d9-6e70b70ed747"
         x="12.1761"
         y="27.4198"
         width="7.6858"
         height="3.0745"/>
   <line class="uuid-67b50779-44c8-4db9-95d9-6e70b70ed747"
         x1="12.1761"
         y1="27.4198"
         x2="12.1761"
         y2="30.4944"/>
   <line class="uuid-67b50779-44c8-4db9-95d9-6e70b70ed747"
         x1="12.1761"
         y1="27.4198"
         x2="12.1761"
         y2="27.4198"/>
   <line class="uuid-67b50779-44c8-4db9-95d9-6e70b70ed747"
         x1="12.1761"
         y1="27.4198"
         x2="19.8618"
         y2="27.4198"/>
   <line class="uuid-67b50779-44c8-4db9-95d9-6e70b70ed747"
         x1="19.8618"
         y1="27.4198"
         x2="19.8618"
         y2="27.4198"/>
   <line class="uuid-67b50779-44c8-4db9-95d9-6e70b70ed747"
         x1="19.8618"
         y1="27.4198"
         x2="19.8618"
         y2="30.4944"/>
   <line class="uuid-67b50779-44c8-4db9-95d9-6e70b70ed747"
         x1="19.8618"
         y1="30.4944"
         x2="19.8618"
         y2="30.4944"/>
   <line class="uuid-67b50779-44c8-4db9-95d9-6e70b70ed747"
         x1="12.1761"
         y1="30.4944"
         x2="19.8618"
         y2="30.4944"/>
   <line class="uuid-67b50779-44c8-4db9-95d9-6e70b70ed747"
         x1="12.1761"
         y1="30.4944"
         x2="12.1761"
         y2="30.4944"/>
   <rect class="uuid-1e314b04-0150-44e3-8f01-e8cbe1e4c207"
         x="12.1761"
         y="42.7909"
         width="7.6858"
         height="3.074"/>
   <rect class="uuid-67b50779-44c8-4db9-95d9-6e70b70ed747"
         x="12.1761"
         y="42.7909"
         width="7.6858"
         height="3.074"/>
   <line class="uuid-67b50779-44c8-4db9-95d9-6e70b70ed747"
         x1="12.1761"
         y1="42.7909"
         x2="12.1761"
         y2="45.8649"/>
   <line class="uuid-67b50779-44c8-4db9-95d9-6e70b70ed747"
         x1="12.1761"
         y1="42.7909"
         x2="12.1761"
         y2="42.7909"/>
   <line class="uuid-67b50779-44c8-4db9-95d9-6e70b70ed747"
         x1="12.1761"
         y1="42.7909"
         x2="19.8618"
         y2="42.7909"/>
   <line class="uuid-67b50779-44c8-4db9-95d9-6e70b70ed747"
         x1="19.8618"
         y1="42.7909"
         x2="19.8618"
         y2="42.7909"/>
   <line class="uuid-67b50779-44c8-4db9-95d9-6e70b70ed747"
         x1="19.8618"
         y1="42.7909"
         x2="19.8618"
         y2="45.8649"/>
   <line class="uuid-67b50779-44c8-4db9-95d9-6e70b70ed747"
         x1="19.8618"
         y1="45.8649"
         x2="19.8618"
         y2="45.8649"/>
   <line class="uuid-67b50779-44c8-4db9-95d9-6e70b70ed747"
         x1="12.1761"
         y1="45.8649"
         x2="19.8618"
         y2="45.8649"/>
   <line class="uuid-67b50779-44c8-4db9-95d9-6e70b70ed747"
         x1="12.1761"
         y1="45.8649"
         x2="12.1761"
         y2="45.8649"/>
   <rect class="uuid-1e314b04-0150-44e3-8f01-e8cbe1e4c207"
         x="12.1761"
         y="58.1614"
         width="7.6858"
         height="3.0745"/>
   <rect class="uuid-67b50779-44c8-4db9-95d9-6e70b70ed747"
         x="12.1761"
         y="58.1614"
         width="7.6858"
         height="3.0745"/>
   <line class="uuid-67b50779-44c8-4db9-95d9-6e70b70ed747"
         x1="12.1761"
         y1="58.1614"
         x2="12.1761"
         y2="61.2359"/>
   <line class="uuid-67b50779-44c8-4db9-95d9-6e70b70ed747"
         x1="12.1761"
         y1="58.1614"
         x2="12.1761"
         y2="58.1614"/>
   <line class="uuid-67b50779-44c8-4db9-95d9-6e70b70ed747"
         x1="12.1761"
         y1="58.1614"
         x2="19.8618"
         y2="58.1614"/>
   <line class="uuid-67b50779-44c8-4db9-95d9-6e70b70ed747"
         x1="19.8618"
         y1="58.1614"
         x2="19.8618"
         y2="58.1614"/>
   <line class="uuid-67b50779-44c8-4db9-95d9-6e70b70ed747"
         x1="19.8618"
         y1="58.1614"
         x2="19.8618"
         y2="61.2359"/>
   <line class="uuid-67b50779-44c8-4db9-95d9-6e70b70ed747"
         x1="19.8618"
         y1="61.2359"
         x2="19.8618"
         y2="61.2359"/>
   <line class="uuid-67b50779-44c8-4db9-95d9-6e70b70ed747"
         x1="12.1761"
         y1="61.2359"
         x2="19.8618"
         y2="61.2359"/>
   <line class="uuid-67b50779-44c8-4db9-95d9-6e70b70ed747"
         x1="12.1761"
         y1="61.2359"
         x2="12.1761"
         y2="61.2359"/>
   <rect class="uuid-1e314b04-0150-44e3-8f01-e8cbe1e4c207"
         x="12.1761"
         y="73.5324"
         width="7.6858"
         height="3.074"/>
   <rect class="uuid-67b50779-44c8-4db9-95d9-6e70b70ed747"
         x="12.1761"
         y="73.5324"
         width="7.6858"
         height="3.074"/>
   <line class="uuid-67b50779-44c8-4db9-95d9-6e70b70ed747"
         x1="12.1761"
         y1="73.5324"
         x2="12.1761"
         y2="76.6064"/>
   <line class="uuid-67b50779-44c8-4db9-95d9-6e70b70ed747"
         x1="12.1761"
         y1="73.5324"
         x2="12.1761"
         y2="73.5324"/>
   <line class="uuid-67b50779-44c8-4db9-95d9-6e70b70ed747"
         x1="12.1761"
         y1="73.5324"
         x2="19.8618"
         y2="73.5324"/>
   <line class="uuid-67b50779-44c8-4db9-95d9-6e70b70ed747"
         x1="19.8618"
         y1="73.5324"
         x2="19.8618"
         y2="73.5324"/>
   <line class="uuid-67b50779-44c8-4db9-95d9-6e70b70ed747"
         x1="19.8618"
         y1="73.5324"
         x2="19.8618"
         y2="76.6064"/>
   <line class="uuid-67b50779-44c8-4db9-95d9-6e70b70ed747"
         x1="19.8618"
         y1="76.6064"
         x2="19.8618"
         y2="76.6064"/>
   <line class="uuid-67b50779-44c8-4db9-95d9-6e70b70ed747"
         x1="12.1761"
         y1="76.6064"
         x2="19.8618"
         y2="76.6064"/>
   <line class="uuid-67b50779-44c8-4db9-95d9-6e70b70ed747"
         x1="12.1761"
         y1="76.6064"
         x2="12.1761"
         y2="76.6064"/>
   <rect class="uuid-1e314b04-0150-44e3-8f01-e8cbe1e4c207"
         x="93.257"
         y="73.5324"
         width="7.6852"
         height="3.074"/>
   <rect class="uuid-67b50779-44c8-4db9-95d9-6e70b70ed747"
         x="93.257"
         y="73.5324"
         width="7.6852"
         height="3.074"/>
   <line class="uuid-67b50779-44c8-4db9-95d9-6e70b70ed747"
         x1="93.257"
         y1="73.5324"
         x2="93.257"
         y2="76.6064"/>
   <line class="uuid-67b50779-44c8-4db9-95d9-6e70b70ed747"
         x1="93.257"
         y1="73.5324"
         x2="93.257"
         y2="73.5324"/>
   <line class="uuid-67b50779-44c8-4db9-95d9-6e70b70ed747"
         x1="93.257"
         y1="73.5324"
         x2="100.9422"
         y2="73.5324"/>
   <line class="uuid-67b50779-44c8-4db9-95d9-6e70b70ed747"
         x1="100.9422"
         y1="73.5324"
         x2="100.9422"
         y2="73.5324"/>
   <line class="uuid-67b50779-44c8-4db9-95d9-6e70b70ed747"
         x1="100.9422"
         y1="73.5324"
         x2="100.9422"
         y2="76.6064"/>
   <line class="uuid-67b50779-44c8-4db9-95d9-6e70b70ed747"
         x1="100.9422"
         y1="76.6064"
         x2="100.9422"
         y2="76.6064"/>
   <line class="uuid-67b50779-44c8-4db9-95d9-6e70b70ed747"
         x1="93.257"
         y1="76.6064"
         x2="100.9422"
         y2="76.6064"/>
   <line class="uuid-67b50779-44c8-4db9-95d9-6e70b70ed747"
         x1="93.257"
         y1="76.6064"
         x2="93.257"
         y2="76.6064"/>
   <rect class="uuid-1e314b04-0150-44e3-8f01-e8cbe1e4c207"
         x="93.257"
         y="58.1614"
         width="7.6852"
         height="3.0745"/>
   <rect class="uuid-67b50779-44c8-4db9-95d9-6e70b70ed747"
         x="93.257"
         y="58.1614"
         width="7.6852"
         height="3.0745"/>
   <line class="uuid-67b50779-44c8-4db9-95d9-6e70b70ed747"
         x1="93.257"
         y1="58.1614"
         x2="93.257"
         y2="61.2359"/>
   <line class="uuid-67b50779-44c8-4db9-95d9-6e70b70ed747"
         x1="93.257"
         y1="58.1614"
         x2="93.257"
         y2="58.1614"/>
   <line class="uuid-67b50779-44c8-4db9-95d9-6e70b70ed747"
         x1="93.257"
         y1="58.1614"
         x2="100.9422"
         y2="58.1614"/>
   <line class="uuid-67b50779-44c8-4db9-95d9-6e70b70ed747"
         x1="100.9422"
         y1="58.1614"
         x2="100.9422"
         y2="58.1614"/>
   <line class="uuid-67b50779-44c8-4db9-95d9-6e70b70ed747"
         x1="100.9422"
         y1="58.1614"
         x2="100.9422"
         y2="61.2359"/>
   <line class="uuid-67b50779-44c8-4db9-95d9-6e70b70ed747"
         x1="100.9422"
         y1="61.2359"
         x2="100.9422"
         y2="61.2359"/>
   <line class="uuid-67b50779-44c8-4db9-95d9-6e70b70ed747"
         x1="93.257"
         y1="61.2359"
         x2="100.9422"
         y2="61.2359"/>
   <line class="uuid-67b50779-44c8-4db9-95d9-6e70b70ed747"
         x1="93.257"
         y1="61.2359"
         x2="93.257"
         y2="61.2359"/>
   <rect class="uuid-1e314b04-0150-44e3-8f01-e8cbe1e4c207"
         x="93.257"
         y="42.7909"
         width="7.6852"
         height="3.074"/>
   <rect class="uuid-67b50779-44c8-4db9-95d9-6e70b70ed747"
         x="93.257"
         y="42.7909"
         width="7.6852"
         height="3.074"/>
   <line class="uuid-67b50779-44c8-4db9-95d9-6e70b70ed747"
         x1="93.257"
         y1="42.7909"
         x2="93.257"
         y2="45.8649"/>
   <line class="uuid-67b50779-44c8-4db9-95d9-6e70b70ed747"
         x1="93.257"
         y1="42.7909"
         x2="93.257"
         y2="42.7909"/>
   <line class="uuid-67b50779-44c8-4db9-95d9-6e70b70ed747"
         x1="93.257"
         y1="42.7909"
         x2="100.9422"
         y2="42.7909"/>
   <line class="uuid-67b50779-44c8-4db9-95d9-6e70b70ed747"
         x1="100.9422"
         y1="42.7909"
         x2="100.9422"
         y2="42.7909"/>
   <line class="uuid-67b50779-44c8-4db9-95d9-6e70b70ed747"
         x1="100.9422"
         y1="42.7909"
         x2="100.9422"
         y2="45.8649"/>
   <line class="uuid-67b50779-44c8-4db9-95d9-6e70b70ed747"
         x1="100.9422"
         y1="45.8649"
         x2="100.9422"
         y2="45.8649"/>
   <line class="uuid-67b50779-44c8-4db9-95d9-6e70b70ed747"
         x1="93.257"
         y1="45.8649"
         x2="100.9422"
         y2="45.8649"/>
   <line class="uuid-67b50779-44c8-4db9-95d9-6e70b70ed747"
         x1="93.257"
         y1="45.8649"
         x2="93.257"
         y2="45.8649"/>
   <rect class="uuid-1e314b04-0150-44e3-8f01-e8cbe1e4c207"
         x="93.257"
         y="27.4198"
         width="7.6852"
         height="3.0745"/>
   <rect class="uuid-67b50779-44c8-4db9-95d9-6e70b70ed747"
         x="93.257"
         y="27.4198"
         width="7.6852"
         height="3.0745"/>
   <line class="uuid-67b50779-44c8-4db9-95d9-6e70b70ed747"
         x1="93.257"
         y1="27.4198"
         x2="93.257"
         y2="30.4944"/>
   <line class="uuid-67b50779-44c8-4db9-95d9-6e70b70ed747"
         x1="93.257"
         y1="27.4198"
         x2="93.257"
         y2="27.4198"/>
   <line class="uuid-67b50779-44c8-4db9-95d9-6e70b70ed747"
         x1="93.257"
         y1="27.4198"
         x2="100.9422"
         y2="27.4198"/>
   <line class="uuid-67b50779-44c8-4db9-95d9-6e70b70ed747"
         x1="100.9422"
         y1="27.4198"
         x2="100.9422"
         y2="27.4198"/>
   <line class="uuid-67b50779-44c8-4db9-95d9-6e70b70ed747"
         x1="100.9422"
         y1="27.4198"
         x2="100.9422"
         y2="30.4944"/>
   <line class="uuid-67b50779-44c8-4db9-95d9-6e70b70ed747"
         x1="100.9422"
         y1="30.4944"
         x2="100.9422"
         y2="30.4944"/>
   <line class="uuid-67b50779-44c8-4db9-95d9-6e70b70ed747"
         x1="93.257"
         y1="30.4944"
         x2="100.9422"
         y2="30.4944"/>
   <line class="uuid-67b50779-44c8-4db9-95d9-6e70b70ed747"
         x1="93.257"
         y1="30.4944"
         x2="93.257"
         y2="30.4944"/>
   <rect class="uuid-1e314b04-0150-44e3-8f01-e8cbe1e4c207"
         x="169.7266"
         y="73.5324"
         width="7.6852"
         height="3.074"/>
   <rect class="uuid-67b50779-44c8-4db9-95d9-6e70b70ed747"
         x="169.7266"
         y="73.5324"
         width="7.6852"
         height="3.074"/>
   <line class="uuid-67b50779-44c8-4db9-95d9-6e70b70ed747"
         x1="169.7266"
         y1="73.5324"
         x2="169.7266"
         y2="76.6064"/>
   <line class="uuid-67b50779-44c8-4db9-95d9-6e70b70ed747"
         x1="169.7266"
         y1="73.5324"
         x2="169.7266"
         y2="73.5324"/>
   <line class="uuid-67b50779-44c8-4db9-95d9-6e70b70ed747"
         x1="169.7266"
         y1="73.5324"
         x2="177.4118"
         y2="73.5324"/>
   <line class="uuid-67b50779-44c8-4db9-95d9-6e70b70ed747"
         x1="177.4118"
         y1="73.5324"
         x2="177.4118"
         y2="73.5324"/>
   <line class="uuid-67b50779-44c8-4db9-95d9-6e70b70ed747"
         x1="177.4118"
         y1="73.5324"
         x2="177.4118"
         y2="76.6064"/>
   <line class="uuid-67b50779-44c8-4db9-95d9-6e70b70ed747"
         x1="177.4118"
         y1="76.6064"
         x2="177.4118"
         y2="76.6064"/>
   <line class="uuid-67b50779-44c8-4db9-95d9-6e70b70ed747"
         x1="169.7266"
         y1="76.6064"
         x2="177.4118"
         y2="76.6064"/>
   <line class="uuid-67b50779-44c8-4db9-95d9-6e70b70ed747"
         x1="169.7266"
         y1="76.6064"
         x2="169.7266"
         y2="76.6064"/>
   <rect class="uuid-1e314b04-0150-44e3-8f01-e8cbe1e4c207"
         x="169.7266"
         y="58.1614"
         width="7.6852"
         height="3.0745"/>
   <rect class="uuid-67b50779-44c8-4db9-95d9-6e70b70ed747"
         x="169.7266"
         y="58.1614"
         width="7.6852"
         height="3.0745"/>
   <line class="uuid-67b50779-44c8-4db9-95d9-6e70b70ed747"
         x1="169.7266"
         y1="58.1614"
         x2="169.7266"
         y2="61.2359"/>
   <line class="uuid-67b50779-44c8-4db9-95d9-6e70b70ed747"
         x1="169.7266"
         y1="58.1614"
         x2="169.7266"
         y2="58.1614"/>
   <line class="uuid-67b50779-44c8-4db9-95d9-6e70b70ed747"
         x1="169.7266"
         y1="58.1614"
         x2="177.4118"
         y2="58.1614"/>
   <line class="uuid-67b50779-44c8-4db9-95d9-6e70b70ed747"
         x1="177.4118"
         y1="58.1614"
         x2="177.4118"
         y2="58.1614"/>
   <line class="uuid-67b50779-44c8-4db9-95d9-6e70b70ed747"
         x1="177.4118"
         y1="58.1614"
         x2="177.4118"
         y2="61.2359"/>
   <line class="uuid-67b50779-44c8-4db9-95d9-6e70b70ed747"
         x1="177.4118"
         y1="61.2359"
         x2="177.4118"
         y2="61.2359"/>
   <line class="uuid-67b50779-44c8-4db9-95d9-6e70b70ed747"
         x1="169.7266"
         y1="61.2359"
         x2="177.4118"
         y2="61.2359"/>
   <line class="uuid-67b50779-44c8-4db9-95d9-6e70b70ed747"
         x1="169.7266"
         y1="61.2359"
         x2="169.7266"
         y2="61.2359"/>
   <rect class="uuid-1e314b04-0150-44e3-8f01-e8cbe1e4c207"
         x="169.7266"
         y="42.7909"
         width="7.6852"
         height="3.074"/>
   <rect class="uuid-67b50779-44c8-4db9-95d9-6e70b70ed747"
         x="169.7266"
         y="42.7909"
         width="7.6852"
         height="3.074"/>
   <line class="uuid-67b50779-44c8-4db9-95d9-6e70b70ed747"
         x1="169.7266"
         y1="42.7909"
         x2="169.7266"
         y2="45.8649"/>
   <line class="uuid-67b50779-44c8-4db9-95d9-6e70b70ed747"
         x1="169.7266"
         y1="42.7909"
         x2="169.7266"
         y2="42.7909"/>
   <line class="uuid-67b50779-44c8-4db9-95d9-6e70b70ed747"
         x1="169.7266"
         y1="42.7909"
         x2="177.4118"
         y2="42.7909"/>
   <line class="uuid-67b50779-44c8-4db9-95d9-6e70b70ed747"
         x1="177.4118"
         y1="42.7909"
         x2="177.4118"
         y2="42.7909"/>
   <line class="uuid-67b50779-44c8-4db9-95d9-6e70b70ed747"
         x1="177.4118"
         y1="42.7909"
         x2="177.4118"
         y2="45.8649"/>
   <line class="uuid-67b50779-44c8-4db9-95d9-6e70b70ed747"
         x1="177.4118"
         y1="45.8649"
         x2="177.4118"
         y2="45.8649"/>
   <line class="uuid-67b50779-44c8-4db9-95d9-6e70b70ed747"
         x1="169.7266"
         y1="45.8649"
         x2="177.4118"
         y2="45.8649"/>
   <line class="uuid-67b50779-44c8-4db9-95d9-6e70b70ed747"
         x1="169.7266"
         y1="45.8649"
         x2="169.7266"
         y2="45.8649"/>
   <rect class="uuid-1e314b04-0150-44e3-8f01-e8cbe1e4c207"
         x="169.7266"
         y="27.4198"
         width="7.6852"
         height="3.0745"/>
   <rect class="uuid-67b50779-44c8-4db9-95d9-6e70b70ed747"
         x="169.7266"
         y="27.4198"
         width="7.6852"
         height="3.0745"/>
   <line class="uuid-67b50779-44c8-4db9-95d9-6e70b70ed747"
         x1="169.7266"
         y1="27.4198"
         x2="169.7266"
         y2="30.4944"/>
   <line class="uuid-67b50779-44c8-4db9-95d9-6e70b70ed747"
         x1="169.7266"
         y1="27.4198"
         x2="169.7266"
         y2="27.4198"/>
   <line class="uuid-67b50779-44c8-4db9-95d9-6e70b70ed747"
         x1="169.7266"
         y1="27.4198"
         x2="177.4118"
         y2="27.4198"/>
   <line class="uuid-67b50779-44c8-4db9-95d9-6e70b70ed747"
         x1="177.4118"
         y1="27.4198"
         x2="177.4118"
         y2="27.4198"/>
   <line class="uuid-67b50779-44c8-4db9-95d9-6e70b70ed747"
         x1="177.4118"
         y1="27.4198"
         x2="177.4118"
         y2="30.4944"/>
   <line class="uuid-67b50779-44c8-4db9-95d9-6e70b70ed747"
         x1="177.4118"
         y1="30.4944"
         x2="177.4118"
         y2="30.4944"/>
   <line class="uuid-67b50779-44c8-4db9-95d9-6e70b70ed747"
         x1="169.7266"
         y1="30.4944"
         x2="177.4118"
         y2="30.4944"/>
   <line class="uuid-67b50779-44c8-4db9-95d9-6e70b70ed747"
         x1="169.7266"
         y1="30.4944"
         x2="169.7266"
         y2="30.4944"/>
   <rect class="uuid-1e314b04-0150-44e3-8f01-e8cbe1e4c207"
         x="250.8069"
         y="73.5324"
         width="7.6852"
         height="3.074"/>
   <rect class="uuid-67b50779-44c8-4db9-95d9-6e70b70ed747"
         x="250.8069"
         y="73.5324"
         width="7.6852"
         height="3.074"/>
   <line class="uuid-67b50779-44c8-4db9-95d9-6e70b70ed747"
         x1="250.8069"
         y1="73.5324"
         x2="250.8069"
         y2="76.6064"/>
   <line class="uuid-67b50779-44c8-4db9-95d9-6e70b70ed747"
         x1="250.8069"
         y1="73.5324"
         x2="250.8069"
         y2="73.5324"/>
   <line class="uuid-67b50779-44c8-4db9-95d9-6e70b70ed747"
         x1="250.8069"
         y1="73.5324"
         x2="258.4921"
         y2="73.5324"/>
   <line class="uuid-67b50779-44c8-4db9-95d9-6e70b70ed747"
         x1="258.4921"
         y1="73.5324"
         x2="258.4921"
         y2="73.5324"/>
   <line class="uuid-67b50779-44c8-4db9-95d9-6e70b70ed747"
         x1="258.4921"
         y1="73.5324"
         x2="258.4921"
         y2="76.6064"/>
   <line class="uuid-67b50779-44c8-4db9-95d9-6e70b70ed747"
         x1="258.4921"
         y1="76.6064"
         x2="258.4921"
         y2="76.6064"/>
   <line class="uuid-67b50779-44c8-4db9-95d9-6e70b70ed747"
         x1="250.8069"
         y1="76.6064"
         x2="258.4921"
         y2="76.6064"/>
   <line class="uuid-67b50779-44c8-4db9-95d9-6e70b70ed747"
         x1="250.8069"
         y1="76.6064"
         x2="250.8069"
         y2="76.6064"/>
   <rect class="uuid-1e314b04-0150-44e3-8f01-e8cbe1e4c207"
         x="250.8069"
         y="58.1614"
         width="7.6852"
         height="3.0745"/>
   <rect class="uuid-67b50779-44c8-4db9-95d9-6e70b70ed747"
         x="250.8069"
         y="58.1614"
         width="7.6852"
         height="3.0745"/>
   <line class="uuid-67b50779-44c8-4db9-95d9-6e70b70ed747"
         x1="250.8069"
         y1="58.1614"
         x2="250.8069"
         y2="61.2359"/>
   <line class="uuid-67b50779-44c8-4db9-95d9-6e70b70ed747"
         x1="250.8069"
         y1="58.1614"
         x2="250.8069"
         y2="58.1614"/>
   <line class="uuid-67b50779-44c8-4db9-95d9-6e70b70ed747"
         x1="250.8069"
         y1="58.1614"
         x2="258.4921"
         y2="58.1614"/>
   <line class="uuid-67b50779-44c8-4db9-95d9-6e70b70ed747"
         x1="258.4921"
         y1="58.1614"
         x2="258.4921"
         y2="58.1614"/>
   <line class="uuid-67b50779-44c8-4db9-95d9-6e70b70ed747"
         x1="258.4921"
         y1="58.1614"
         x2="258.4921"
         y2="61.2359"/>
   <line class="uuid-67b50779-44c8-4db9-95d9-6e70b70ed747"
         x1="258.4921"
         y1="61.2359"
         x2="258.4921"
         y2="61.2359"/>
   <line class="uuid-67b50779-44c8-4db9-95d9-6e70b70ed747"
         x1="250.8069"
         y1="61.2359"
         x2="258.4921"
         y2="61.2359"/>
   <line class="uuid-67b50779-44c8-4db9-95d9-6e70b70ed747"
         x1="250.8069"
         y1="61.2359"
         x2="250.8069"
         y2="61.2359"/>
   <rect class="uuid-1e314b04-0150-44e3-8f01-e8cbe1e4c207"
         x="250.8069"
         y="42.7909"
         width="7.6852"
         height="3.074"/>
   <rect class="uuid-67b50779-44c8-4db9-95d9-6e70b70ed747"
         x="250.8069"
         y="42.7909"
         width="7.6852"
         height="3.074"/>
   <line class="uuid-67b50779-44c8-4db9-95d9-6e70b70ed747"
         x1="250.8069"
         y1="42.7909"
         x2="250.8069"
         y2="45.8649"/>
   <line class="uuid-67b50779-44c8-4db9-95d9-6e70b70ed747"
         x1="250.8069"
         y1="42.7909"
         x2="250.8069"
         y2="42.7909"/>
   <line class="uuid-67b50779-44c8-4db9-95d9-6e70b70ed747"
         x1="250.8069"
         y1="42.7909"
         x2="258.4921"
         y2="42.7909"/>
   <line class="uuid-67b50779-44c8-4db9-95d9-6e70b70ed747"
         x1="258.4921"
         y1="42.7909"
         x2="258.4921"
         y2="42.7909"/>
   <line class="uuid-67b50779-44c8-4db9-95d9-6e70b70ed747"
         x1="258.4921"
         y1="42.7909"
         x2="258.4921"
         y2="45.8649"/>
   <line class="uuid-67b50779-44c8-4db9-95d9-6e70b70ed747"
         x1="258.4921"
         y1="45.8649"
         x2="258.4921"
         y2="45.8649"/>
   <line class="uuid-67b50779-44c8-4db9-95d9-6e70b70ed747"
         x1="250.8069"
         y1="45.8649"
         x2="258.4921"
         y2="45.8649"/>
   <line class="uuid-67b50779-44c8-4db9-95d9-6e70b70ed747"
         x1="250.8069"
         y1="45.8649"
         x2="250.8069"
         y2="45.8649"/>
   <rect class="uuid-1e314b04-0150-44e3-8f01-e8cbe1e4c207"
         x="250.8069"
         y="27.4198"
         width="7.6852"
         height="3.0745"/>
   <rect class="uuid-67b50779-44c8-4db9-95d9-6e70b70ed747"
         x="250.8069"
         y="27.4198"
         width="7.6852"
         height="3.0745"/>
   <line class="uuid-67b50779-44c8-4db9-95d9-6e70b70ed747"
         x1="250.8069"
         y1="27.4198"
         x2="250.8069"
         y2="30.4944"/>
   <line class="uuid-67b50779-44c8-4db9-95d9-6e70b70ed747"
         x1="250.8069"
         y1="27.4198"
         x2="250.8069"
         y2="27.4198"/>
   <line class="uuid-67b50779-44c8-4db9-95d9-6e70b70ed747"
         x1="250.8069"
         y1="27.4198"
         x2="258.4921"
         y2="27.4198"/>
   <line class="uuid-67b50779-44c8-4db9-95d9-6e70b70ed747"
         x1="258.4921"
         y1="27.4198"
         x2="258.4921"
         y2="27.4198"/>
   <line class="uuid-67b50779-44c8-4db9-95d9-6e70b70ed747"
         x1="258.4921"
         y1="27.4198"
         x2="258.4921"
         y2="30.4944"/>
   <line class="uuid-67b50779-44c8-4db9-95d9-6e70b70ed747"
         x1="258.4921"
         y1="30.4944"
         x2="258.4921"
         y2="30.4944"/>
   <line class="uuid-67b50779-44c8-4db9-95d9-6e70b70ed747"
         x1="250.8069"
         y1="30.4944"
         x2="258.4921"
         y2="30.4944"/>
   <line class="uuid-67b50779-44c8-4db9-95d9-6e70b70ed747"
         x1="250.8069"
         y1="30.4944"
         x2="250.8069"
         y2="30.4944"/>
   <text class="uuid-cb5d2bbc-68d0-455a-9a0b-f37189b587b4"
         transform="translate(23.307 61.8711)">
      <tspan x="0" y="0">DC out of tolerance</tspan>
   </text>
</svg>
