<?xml version="1.0" encoding="UTF-8"?>
<svg xmlns="http://www.w3.org/2000/svg"
     width="263.26"
     height="113.4"
     viewBox="0 0 263.26 113.4">
   <title>Alarm_Relay_rev1</title>
   <rect x="183.86"
         y="80.94"
         width="19.18"
         height="19.18"
         transform="translate(102.92 283.98) rotate(-90)"
         fill="#fff"
         stroke="#231f20"
         stroke-miterlimit="10"
         stroke-width="1.35"/>
   <text transform="translate(220.54 18.69)"
         font-size="16.24"
         fill="#231f20"
         font-family="ArialMT, Arial">xx1</text>
   <text transform="translate(13.23 46.7)"
         font-size="16.24"
         fill="#231f20"
         font-family="ArialMT, Arial">X017</text>
   <text transform="translate(148.45 52.52)"
         font-size="16.24"
         fill="#231f20"
         font-family="ArialMT, Arial">NC</text>
   <text transform="translate(148 105.96)"
         font-size="16.24"
         fill="#231f20"
         font-family="ArialMT, Arial">NO</text>
   <rect x="183.86"
         y="47.11"
         width="19.18"
         height="19.18"
         transform="translate(136.75 250.15) rotate(-90)"
         fill="#fff"
         stroke="#231f20"
         stroke-miterlimit="10"
         stroke-width="1.35"/>
   <text transform="translate(220.54 52.52)"
         font-size="16.24"
         fill="#231f20"
         font-family="ArialMT, Arial">xx2</text>
   <rect x="183.86"
         y="13.28"
         width="19.18"
         height="19.18"
         transform="translate(170.58 216.31) rotate(-90)"
         fill="#fff"
         stroke="#231f20"
         stroke-miterlimit="10"
         stroke-width="1.35"/>
   <text transform="translate(220.54 86.35)"
         font-size="16.24"
         fill="#231f20"
         font-family="ArialMT, Arial">xx4</text>
   <rect x="62.15"
         y="2.63"
         width="150.73"
         height="108.13"
         fill="none"
         stroke="#000"
         stroke-miterlimit="10"
         stroke-width="1.35"/>
   <line x1="261.11"
         y1="22.87"
         x2="193.45"
         y2="22.87"
         fill="none"
         stroke="#079547"
         stroke-miterlimit="10"
         stroke-width="1.35"/>
   <line x1="261.11"
         y1="56.7"
         x2="193.45"
         y2="56.7"
         fill="none"
         stroke="#079547"
         stroke-miterlimit="10"
         stroke-width="1.35"/>
   <polyline points="183.86 22.87 95.98 22.87 96.06 73.61 119.66 73.61 140.25 58.88"
             fill="none"
             stroke="#000"
             stroke-miterlimit="10"
             stroke-width="1.35"/>
   <polyline points="183.86 56.7 136.49 56.7 136.49 65.11"
             fill="none"
             stroke="#000"
             stroke-miterlimit="10"
             stroke-width="1.35"/>
   <polyline points="183.86 90.53 136.49 90.53 136.49 90.53 136.49 82.11"
             fill="none"
             stroke="#000"
             stroke-miterlimit="10"
             stroke-width="1.35"/>
   <line x1="95.98"
         y1="56.7"
         x2="2.15"
         y2="56.7"
         fill="none"
         stroke="#000"
         stroke-miterlimit="10"
         stroke-width="1.35"/>
   <line x1="2.15"
         y1="56.7"
         x2="30.71"
         y2="56.7"
         fill="none"
         stroke="#000"
         stroke-miterlimit="10"
         stroke-width="1.35"/>
   <polygon points="29.23 61.76 37.99 56.7 29.23 51.64 29.23 61.76"/>
</svg>
