<?xml version="1.0" encoding="UTF-8"?>
<svg xmlns="http://www.w3.org/2000/svg"
 id="Layer_1"
     data-name="Layer 1"
     width="187.5129mm"
     height="38.1795mm"
     viewBox="0 0 531.5326 108.2253">
   <defs>
      <style>
      .cls-1, .cls-3, .cls-4 {
        fill: none;
      }

      .cls-1, .cls-3, .cls-4, .cls-7 {
        stroke: #010101;
        stroke-linecap: round;
        stroke-miterlimit: 10;
      }

      .cls-1 {
        stroke-width: 0.0953px;
      }

      .cls-2 {
        font-size: 9.5986px;
      }

      .cls-2, .cls-6, .cls-8 {
        fill: #010101;
      }

      .cls-2, .cls-5, .cls-6 {
        font-family: ArialMT, Arial;
      }

      .cls-3 {
        stroke-width: 0.1907px;
      }

      .cls-4 {
        stroke-width: 0.2479px;
      }

      .cls-5, .cls-6 {
        font-size: 8px;
      }

      .cls-5 {
        fill: #231f20;
      }

      .cls-7 {
        fill: #fff;
        stroke-width: 0.2748px;
      }
    </style>
   </defs>
   <line class="cls-1"
         x1="228.034"
         y1="94.1521"
         x2="319.551"
         y2="94.1521"/>
   <line class="cls-1"
         x1="319.551"
         y1="94.1521"
         x2="319.551"
         y2="100.8251"/>
   <line class="cls-1"
         x1="232.8"
         y1="105.5911"
         x2="314.784"
         y2="105.5911"/>
   <line class="cls-1"
         x1="228.034"
         y1="94.1521"
         x2="228.034"
         y2="100.8251"/>
   <path class="cls-1" d="M228.034,100.8251a4.7662,4.7662,0,0,0,4.766,4.766"/>
   <path class="cls-1"
         d="M314.784,105.5911a4.7665,4.7665,0,0,0,4.767-4.766v-.016"/>
   <line class="cls-1" x1="5" y1="94.1521" x2="96.517" y2="94.1521"/>
   <line class="cls-1"
         x1="96.517"
         y1="94.1521"
         x2="96.517"
         y2="100.8251"/>
   <line class="cls-1"
         x1="9.766"
         y1="105.5911"
         x2="91.75"
         y2="105.5911"/>
   <line class="cls-1" x1="5" y1="94.1521" x2="5" y2="100.8251"/>
   <path class="cls-1" d="M5,100.8251a4.7662,4.7662,0,0,0,4.766,4.766"/>
   <path class="cls-1" d="M91.75,105.5911a4.7665,4.7665,0,0,0,4.767-4.766v-.015"/>
   <line class="cls-1"
         x1="116.517"
         y1="94.1511"
         x2="208.034"
         y2="94.1511"/>
   <line class="cls-1"
         x1="208.034"
         y1="94.1511"
         x2="208.034"
         y2="100.8241"/>
   <line class="cls-1"
         x1="121.283"
         y1="105.5911"
         x2="203.267"
         y2="105.5911"/>
   <line class="cls-1"
         x1="116.517"
         y1="94.1511"
         x2="116.517"
         y2="100.8241"/>
   <path class="cls-1" d="M116.517,100.8241a4.7665,4.7665,0,0,0,4.766,4.767"/>
   <path class="cls-1"
         d="M203.267,105.5911a4.7667,4.7667,0,0,0,4.767-4.767v-.015"/>
   <text class="cls-2" transform="translate(126.05 15.4908)">V</text>
   <line class="cls-3"
         x1="120.33"
         y1="6.4471"
         x2="204.22"
         y2="6.4471"/>
   <line class="cls-4"
         x1="116.517"
         y1="2.6341"
         x2="208.034"
         y2="2.6341"/>
   <line class="cls-3"
         x1="120.33"
         y1="6.4471"
         x2="120.33"
         y2="90.3381"/>
   <line class="cls-3"
         x1="204.22"
         y1="6.4471"
         x2="204.22"
         y2="90.3381"/>
   <path class="cls-3" d="M193.734,16.2091a66.0262,66.0262,0,0,0-66.026,66.026"/>
   <line class="cls-3"
         x1="193.734"
         y1="13.2471"
         x2="193.734"
         y2="82.2351"/>
   <line class="cls-4"
         x1="208.034"
         y1="2.6341"
         x2="208.034"
         y2="94.1511"/>
   <line class="cls-4"
         x1="116.517"
         y1="2.6341"
         x2="116.517"
         y2="94.1511"/>
   <line class="cls-3"
         x1="120.33"
         y1="90.3381"
         x2="204.22"
         y2="90.3381"/>
   <line class="cls-3"
         x1="124.746"
         y1="82.2351"
         x2="193.734"
         y2="82.2351"/>
   <line class="cls-4"
         x1="116.517"
         y1="94.1511"
         x2="208.034"
         y2="94.1511"/>
   <text class="cls-2" transform="translate(14.5329 15.4908)">A</text>
   <line class="cls-3"
         x1="8.813"
         y1="6.4481"
         x2="92.703"
         y2="6.4481"/>
   <line class="cls-4" x1="5" y1="2.6351" x2="96.517" y2="2.6351"/>
   <line class="cls-3"
         x1="8.813"
         y1="6.4481"
         x2="8.813"
         y2="90.3391"/>
   <line class="cls-3"
         x1="92.703"
         y1="6.4481"
         x2="92.703"
         y2="90.3391"/>
   <path class="cls-3" d="M82.217,16.2091a66.0264,66.0264,0,0,0-66.026,66.027"/>
   <line class="cls-3"
         x1="82.217"
         y1="13.2481"
         x2="82.217"
         y2="82.2361"/>
   <line class="cls-4"
         x1="96.517"
         y1="2.6351"
         x2="96.517"
         y2="94.1521"/>
   <line class="cls-4" x1="5" y1="2.6351" x2="5" y2="94.1521"/>
   <line class="cls-3"
         x1="8.813"
         y1="90.3391"
         x2="92.703"
         y2="90.3391"/>
   <line class="cls-3"
         x1="13.229"
         y1="82.2361"
         x2="82.217"
         y2="82.2361"/>
   <line class="cls-4" x1="5" y1="94.1521" x2="96.517" y2="94.1521"/>
   <text class="cls-2" transform="translate(237.567 15.4908)">Hz</text>
   <line class="cls-3"
         x1="231.847"
         y1="6.4481"
         x2="315.737"
         y2="6.4481"/>
   <line class="cls-4"
         x1="228.034"
         y1="2.6351"
         x2="319.551"
         y2="2.6351"/>
   <line class="cls-3"
         x1="231.847"
         y1="6.4481"
         x2="231.847"
         y2="90.3381"/>
   <line class="cls-3"
         x1="315.737"
         y1="6.4481"
         x2="315.737"
         y2="90.3381"/>
   <path class="cls-3" d="M305.251,16.2091a66.0262,66.0262,0,0,0-66.026,66.026"/>
   <line class="cls-3"
         x1="305.251"
         y1="13.2481"
         x2="305.251"
         y2="82.2351"/>
   <line class="cls-3"
         x1="256.4698"
         y1="33.4549"
         x2="305.251"
         y2="82.2361"/>
   <line class="cls-3"
         x1="144.9528"
         y1="33.4549"
         x2="193.734"
         y2="82.2361"/>
   <line class="cls-3"
         x1="33.4358"
         y1="33.4549"
         x2="82.217"
         y2="82.2361"/>
   <line class="cls-4"
         x1="319.551"
         y1="2.6351"
         x2="319.551"
         y2="94.1521"/>
   <line class="cls-4"
         x1="228.034"
         y1="2.6351"
         x2="228.034"
         y2="94.1521"/>
   <line class="cls-3"
         x1="231.847"
         y1="90.3381"
         x2="315.737"
         y2="90.3381"/>
   <line class="cls-3"
         x1="236.263"
         y1="82.2351"
         x2="305.251"
         y2="82.2351"/>
   <line class="cls-4"
         x1="228.034"
         y1="94.1521"
         x2="319.551"
         y2="94.1521"/>
   <text class="cls-5" transform="translate(249.2423 32.1419)">50</text>
   <g>
      <text class="cls-6" transform="translate(341.6537 20.9471)">L2, L3<tspan x="0" y="9.5996">PH2</tspan>
      </text>
      <text class="cls-6" transform="translate(390.3382 20.9471)">L3, L1<tspan x="6.6797" y="9.5996">PH3</tspan>
      </text>
      <text class="cls-6" transform="translate(341.6537 75.8982)">L1, L2<tspan x="0" y="9.5996">PH1</tspan>
      </text>
      <text class="cls-6">
         <tspan x="396.5843" y="85.4978">OFF</tspan>
      </text>
      <rect class="cls-4"
            x="339.551"
            y="12.6797"
            width="75.3827"
            height="75.3827"
            rx="5.6426"/>
      <circle class="cls-4" cx="377.2424" cy="50.371" r="21.2195"/>
      <ellipse class="cls-7"
               cx="377.2424"
               cy="59.5353"
               rx="9.7338"
               ry="34.1494"/>
      <circle class="cls-8" cx="377.2424" cy="50.371" r="1.9024"/>
      <rect class="cls-8"
            x="376.6943"
            y="25.3859"
            width="1.0961"
            height="13.6034"/>
   </g>
</svg>
