<?xml version="1.0" encoding="UTF-8"?>
<svg xmlns="http://www.w3.org/2000/svg"
     width="180.6693mm"
     height="92mm"
     viewBox="0 0 512.1335 260.7874">
   <defs>
      <style>
      .cls-1 {
        font-family: ArialMT, Arial;
        font-size: 6.2537px;
      }

      .cls-2 {
        fill: #e3e8d6;
      }

      .cls-2, .cls-3 {
        stroke: #000;
        stroke-linecap: round;
        stroke-linejoin: round;
        stroke-width: .3978px;
      }

      .cls-3 {
        fill: none;
      }
    </style>
   </defs>
   <g id="Layer_1" data-name="Layer 1">
      <g id="LINE">
         <line class="cls-3"
               x1="23.7115"
               y1="63.2544"
               x2="23.7115"
               y2="64.9562"/>
      </g>
      <g id="LINE-2" data-name="LINE">
         <line class="cls-3"
               x1="23.7115"
               y1="51.7022"
               x2="23.7115"
               y2="53.3199"/>
      </g>
      <g id="LWPOLYLINE">
         <polygon class="cls-3"
                  points="16.4544 4.2572 30.9686 4.2572 23.7115 15.6612 16.4544 4.2572"/>
      </g>
      <g id="LWPOLYLINE-2" data-name="LWPOLYLINE">
         <polygon class="cls-3"
                  points="29.6727 116.3276 29.6727 130.8418 41.0767 123.5847 29.6727 116.3276"/>
      </g>
      <g id="LWPOLYLINE-3" data-name="LWPOLYLINE">
         <polygon class="cls-3"
                  points="52.9991 116.2239 52.9991 130.7382 41.5951 123.481 52.9991 116.2239"/>
      </g>
      <g id="LWPOLYLINE-4" data-name="LWPOLYLINE">
         <polygon class="cls-3"
                  points="247.645 236.4845 247.645 250.9987 259.049 243.7416 247.645 236.4845"/>
      </g>
      <g id="LINE-3" data-name="LINE">
         <line class="cls-3"
               x1="23.7115"
               y1="15.9039"
               x2="23.7115"
               y2="21.3099"/>
      </g>
      <g id="LINE-4" data-name="LINE">
         <line class="cls-3"
               x1="23.7115"
               y1="107.7016"
               x2="23.7115"
               y2="182.5746"/>
      </g>
      <g id="LINE-5" data-name="LINE">
         <line class="cls-3"
               x1="23.7115"
               y1="192.9419"
               x2="23.7115"
               y2="243.7416"/>
      </g>
      <g id="LINE-6" data-name="LINE">
         <line class="cls-3"
               x1="23.7115"
               y1="243.7416"
               x2="247.645"
               y2="243.7416"/>
      </g>
      <g id="LINE-7" data-name="LINE">
         <line class="cls-3"
               x1="24.501"
               y1="123.481"
               x2="28.7054"
               y2="123.481"/>
      </g>
      <g id="LINE-8" data-name="LINE">
         <line class="cls-3"
               x1="53.5919"
               y1="123.481"
               x2="93.1723"
               y2="123.481"/>
      </g>
      <g id="LINE-9" data-name="LINE">
         <line class="cls-3"
               x1="5.2282"
               y1="105.8861"
               x2="44.2163"
               y2="66.7952"/>
      </g>
      <g id="LINE-10" data-name="LINE">
         <line class="cls-3"
               x1="28.8951"
               y1="87.4029"
               x2="42.3726"
               y2="87.4029"/>
      </g>
      <g id="LINE-11" data-name="LINE">
         <line class="cls-3"
               x1="28.8951"
               y1="89.269"
               x2="32.5708"
               y2="89.269"/>
      </g>
      <g id="LINE-12" data-name="LINE">
         <line class="cls-3"
               x1="33.796"
               y1="89.269"
               x2="37.4717"
               y2="89.269"/>
      </g>
      <g id="LINE-13" data-name="LINE">
         <line class="cls-3"
               x1="38.6969"
               y1="89.269"
               x2="42.3726"
               y2="89.269"/>
      </g>
      <g id="ELLIPSE">
         <path class="cls-3"
               d="M11.5299,72.3703c-1.8609,0-3.3694,1.6246-3.3694,3.6286"/>
      </g>
      <g id="ELLIPSE-2" data-name="ELLIPSE">
         <path class="cls-3" d="M14.8993,75.9989c0-2.004-1.5085-3.6286-3.3694-3.6286"/>
      </g>
      <g id="ELLIPSE-3" data-name="ELLIPSE">
         <path class="cls-3" d="M14.8993,75.9989c0,2.004,1.5085,3.6286,3.3694,3.6286"/>
      </g>
      <g id="ELLIPSE-4" data-name="ELLIPSE">
         <path class="cls-3" d="M18.2687,79.6274c1.8609,0,3.3694-1.6246,3.3694-3.6286"/>
      </g>
      <g id="LWPOLYLINE-5" data-name="LWPOLYLINE">
         <rect class="cls-3"
               x="4.0136"
               y="65.6316"
               width="41.4692"
               height="41.4692"
               rx="4.1469"
               ry="4.1469"/>
      </g>
      <g id="LINE-14" data-name="LINE">
         <line class="cls-3"
               x1="119.0906"
               y1="113.1138"
               x2="119.0906"
               y2="133.8483"/>
      </g>
      <g id="LINE-15" data-name="LINE">
         <line class="cls-3"
               x1="113.9069"
               y1="118.5047"
               x2="113.9069"
               y2="129.7014"/>
      </g>
      <g id="LWPOLYLINE-6" data-name="LWPOLYLINE">
         <rect class="cls-3"
               x="93.1723"
               y="106.8934"
               width="33.1753"
               height="33.1753"
               rx="4.1469"
               ry="4.1469"/>
      </g>
      <g id="LWPOLYLINE-7" data-name="LWPOLYLINE">
         <rect class="cls-3"
               x="9.1973"
               y="21.8816"
               width="29.0284"
               height="29.0284"
               rx="4.1469"
               ry="4.1469"/>
      </g>
      <g id="TEXT">
         <text class="cls-1" transform="translate(24.1156 46.9907)">
            <tspan x="0" y="0">OFF</tspan>
         </text>
      </g>
      <g id="TEXT-2" data-name="TEXT">
         <text class="cls-1" transform="translate(27.2064 30.9741)">
            <tspan x="0" y="0">ON</tspan>
         </text>
      </g>
      <g id="CIRCLE">
         <path class="cls-3"
               d="M18.5278,58.5036c0-2.8628,2.3208-5.1836,5.1836-5.1836s5.1836,2.3208,5.1836,5.1836-2.3208,5.1836-5.1836,5.1836-5.1836-2.3208-5.1836-5.1836h0Z"/>
      </g>
      <g id="CIRCLE-2" data-name="CIRCLE">
         <path class="cls-3"
               d="M18.5278,187.7583c0-2.8628,2.3208-5.1836,5.1836-5.1836s5.1836,2.3208,5.1836,5.1836-2.3208,5.1836-5.1836,5.1836-5.1836-2.3208-5.1836-5.1836h0Z"/>
      </g>
      <g id="CIRCLE-3" data-name="CIRCLE">
         <path class="cls-2"
               d="M19.5646,187.7583c0-2.2903,1.8566-4.1469,4.1469-4.1469s4.1469,1.8566,4.1469,4.1469-1.8566,4.1469-4.1469,4.1469-4.1469-1.8566-4.1469-4.1469h0Z"/>
      </g>
      <g id="CIRCLE-4" data-name="CIRCLE">
         <path class="cls-3"
               d="M33.0421,99.6363c0-2.2903,1.8566-4.1469,4.1469-4.1469s4.1469,1.8566,4.1469,4.1469-1.8566,4.1469-4.1469,4.1469-4.1469-1.8566-4.1469-4.1469h0Z"/>
      </g>
      <g id="CIRCLE-5" data-name="CIRCLE">
         <path class="cls-3"
               d="M100.4294,124.5178c0-2.2903,1.8566-4.1469,4.1469-4.1469s4.1469,1.8566,4.1469,4.1469-1.8566,4.1469-4.1469,4.1469-4.1469-1.8566-4.1469-4.1469h0Z"/>
      </g>
      <g id="CIRCLE-6" data-name="CIRCLE">
         <path class="cls-3"
               d="M12.9827,40.5711c0-2.2903,1.8566-4.1469,4.1469-4.1469s4.1469,1.8566,4.1469,4.1469-1.8566,4.1469-4.1469,4.1469-4.1469-1.8566-4.1469-4.1469h0Z"/>
      </g>
   </g>
   <g id="White">
      <g id="CIRCLE-7" data-name="CIRCLE">
         <path class="cls-2"
               d="M19.5646,58.5036c0-2.2903,1.8566-4.1469,4.1469-4.1469s4.1469,1.8566,4.1469,4.1469-1.8566,4.1469-4.1469,4.1469-4.1469-1.8566-4.1469-4.1469h0Z"/>
      </g>
      <g id="CIRCLE-8" data-name="CIRCLE">
         <path class="cls-2"
               d="M19.5646,99.6363c0-2.2903,1.8566-4.1469,4.1469-4.1469s4.1469,1.8566,4.1469,4.1469-1.8566,4.1469-4.1469,4.1469-4.1469-1.8566-4.1469-4.1469h0Z"/>
      </g>
      <g id="CIRCLE-9" data-name="CIRCLE">
         <path class="cls-2"
               d="M12.9827,30.2039c0-2.2903,1.8566-4.1469,4.1469-4.1469s4.1469,1.8566,4.1469,4.1469-1.8566,4.1469-4.1469,4.1469-4.1469-1.8566-4.1469-4.1469h0Z"/>
      </g>
   </g>
</svg>
