<?xml version="1.0" encoding="UTF-8"?>
<svg xmlns="http://www.w3.org/2000/svg"
     xmlns:xlink="http://www.w3.org/1999/xlink"
     width="95mm"
     height="37mm"
     viewBox="0 0 269.2913 104.8819">
   <defs>
      <style>
      .uuid-39af716d-9a17-41c7-bb0e-cf505948e187 {
        clip-path: url(#uuid-2e22d374-e5ca-4420-94a7-9672175b2940);
      }

      .uuid-7ddaefc0-3359-4fa5-9892-ef43ac93dc63 {
        clip-path: url(#uuid-5eb30b52-c4e3-4416-9a73-acb3348a35d7);
      }

      .uuid-12bac619-8f43-42f0-b8e4-77a4d9e4970c, .uuid-e668152d-7a82-4bbc-b715-651b53f20366 {
        fill: #fff;
      }

      .uuid-26c13cdc-5eea-4a6c-9e58-0ebcb5275453 {
        stroke-width: 1.2522px;
      }

      .uuid-26c13cdc-5eea-4a6c-9e58-0ebcb5275453, .uuid-eea039f9-f683-4c83-9ed4-8ea9669aa739, .uuid-f9ff2d61-3e43-42cb-829c-1dc41ef68e00, .uuid-e2eeb767-fbfb-47e7-a47b-5d4995e1751d, .uuid-1cd36cbf-4964-41e1-a74b-a4f4d42160aa, .uuid-5728069c-116f-4b37-aeb8-abb28c1bd9ba, .uuid-03674999-90e1-4f0d-a925-0cb620e17818, .uuid-c8287953-5cbd-4c2f-9f95-4e90e443e418, .uuid-8b56ee80-e8ff-4b25-bd05-34c8caa75c5b, .uuid-72d4755f-d78d-4db6-9168-a16344017ef9, .uuid-eaccc667-5910-4c07-83a6-529c3ccb05e3 {
        fill: none;
      }

      .uuid-26c13cdc-5eea-4a6c-9e58-0ebcb5275453, .uuid-eea039f9-f683-4c83-9ed4-8ea9669aa739, .uuid-f9ff2d61-3e43-42cb-829c-1dc41ef68e00, .uuid-e2eeb767-fbfb-47e7-a47b-5d4995e1751d, .uuid-1cd36cbf-4964-41e1-a74b-a4f4d42160aa, .uuid-5728069c-116f-4b37-aeb8-abb28c1bd9ba, .uuid-03674999-90e1-4f0d-a925-0cb620e17818, .uuid-8b56ee80-e8ff-4b25-bd05-34c8caa75c5b, .uuid-72d4755f-d78d-4db6-9168-a16344017ef9, .uuid-eaccc667-5910-4c07-83a6-529c3ccb05e3 {
        stroke: #000;
      }

      .uuid-26c13cdc-5eea-4a6c-9e58-0ebcb5275453, .uuid-f9ff2d61-3e43-42cb-829c-1dc41ef68e00, .uuid-e2eeb767-fbfb-47e7-a47b-5d4995e1751d, .uuid-5728069c-116f-4b37-aeb8-abb28c1bd9ba, .uuid-03674999-90e1-4f0d-a925-0cb620e17818 {
        stroke-miterlimit: 3;
      }

      .uuid-211bb059-6cd8-4272-a403-814bb9f505b1 {
        clip-path: url(#uuid-00f3fd83-9283-460b-8fca-706b2cd4ea8e);
      }

      .uuid-e668152d-7a82-4bbc-b715-651b53f20366 {
        fill-rule: evenodd;
      }

      .uuid-7dd7f69b-0aca-4101-99d8-2f9648c83d08, .uuid-15576857-eaad-44cc-bd10-53c8ac125c2d {
        fill: #01889C;
      }

      .uuid-18ed627d-98b4-477f-8e29-e57fb0e636ca {
        clip-path: url(#uuid-5d1268cf-46a2-49d9-ba3d-13bd392f8432);
      }

      .uuid-12c9a9d4-3568-4fc4-955e-408b2f03b7bd {
        clip-path: url(#uuid-657b3cfc-e3ad-44c3-a5f9-9b47096ea6bf);
      }

      .uuid-7730b719-2f53-4847-8df2-0099ba6bd9ab {
        clip-path: url(#uuid-5216ef32-49a2-4001-888d-7d24cb9c951f);
      }

      .uuid-eea039f9-f683-4c83-9ed4-8ea9669aa739, .uuid-e2eeb767-fbfb-47e7-a47b-5d4995e1751d, .uuid-1cd36cbf-4964-41e1-a74b-a4f4d42160aa, .uuid-8b56ee80-e8ff-4b25-bd05-34c8caa75c5b, .uuid-72d4755f-d78d-4db6-9168-a16344017ef9, .uuid-eaccc667-5910-4c07-83a6-529c3ccb05e3 {
        stroke-width: .75px;
      }

      .uuid-eea039f9-f683-4c83-9ed4-8ea9669aa739, .uuid-1cd36cbf-4964-41e1-a74b-a4f4d42160aa, .uuid-8b56ee80-e8ff-4b25-bd05-34c8caa75c5b, .uuid-72d4755f-d78d-4db6-9168-a16344017ef9, .uuid-eaccc667-5910-4c07-83a6-529c3ccb05e3 {
        stroke-miterlimit: 10;
      }

      .uuid-28a5260a-fd78-4d7f-bbd6-c452d413224b {
        clip-path: url(#uuid-95226415-2361-4d1d-ae9e-c6c79d034370);
      }

      .uuid-f9ff2d61-3e43-42cb-829c-1dc41ef68e00 {
        stroke-dasharray: 0 0 2.0034 1.0017;
      }

      .uuid-f9ff2d61-3e43-42cb-829c-1dc41ef68e00, .uuid-03674999-90e1-4f0d-a925-0cb620e17818 {
        stroke-width: .7513px;
      }

      .uuid-98f4c647-0eb4-49da-83e0-9a7a74e0348a {
        clip-path: url(#uuid-bb9bedd3-8024-4b15-ad22-fa12e943b33b);
      }

      .uuid-b462cff3-e133-4fc7-85a2-a4f17e725bd9 {
        clip-path: url(#uuid-33cb16bb-7eeb-4759-86bf-d826648609c1);
      }

      .uuid-1cd36cbf-4964-41e1-a74b-a4f4d42160aa {
        stroke-dasharray: 0 0 5.9636 5.9636;
      }

      .uuid-5728069c-116f-4b37-aeb8-abb28c1bd9ba {
        stroke-width: .7087px;
      }

      .uuid-8b56ee80-e8ff-4b25-bd05-34c8caa75c5b {
        stroke-dasharray: 0 0 6.8059 6.8059;
      }

      .uuid-e84ac34f-e10b-4c25-a70c-330c05158ae3 {
        clip-path: url(#uuid-6a166295-7a7a-4705-a9ba-63fd16bb6879);
      }

      .uuid-8bb252d1-e450-4ec3-b386-6d579b4919ec {
        clip-path: url(#uuid-7a487041-3446-4af1-a7e8-1ad1c4a4f13c);
      }

      .uuid-41297aed-1701-405c-8179-243b0fd2357f {
        clip-path: url(#uuid-574b74ff-06e0-4a38-9b19-fe01fd759bdb);
      }

      .uuid-a887c2e4-0d9b-4858-9b20-46d76e1de52e {
        clip-path: url(#uuid-8cf5551f-ff08-4d22-ad68-cc3bbe7d1c5c);
      }

      .uuid-72d4755f-d78d-4db6-9168-a16344017ef9 {
        stroke-dasharray: 0 0 7.2959 7.2959;
      }

      .uuid-6baad48b-ca1f-401b-8e87-95087b237ae1 {
        clip-path: url(#uuid-53de9c10-ec2a-4129-b8a6-2b7794c2831e);
      }

      .uuid-744a838b-edc9-44b8-be84-14e62ef16bec {
        clip-path: url(#uuid-4d6ca573-983e-4f9f-bc19-d4fa9bccbd01);
      }

      .uuid-eaccc667-5910-4c07-83a6-529c3ccb05e3 {
        stroke-dasharray: 0 0 6 6;
      }

      .uuid-5e61cbd5-27df-4462-b671-47ad170d0fb5 {
        clip-path: url(#uuid-5083bc45-d075-4975-b85c-cadfbe7ecaaa);
      }

      .uuid-c18c621e-b64c-4dee-8311-1898fa9ccfa4 {
        clip-path: url(#uuid-16b09c15-43fd-4781-9ba4-7036d55d8b82);
      }

      .uuid-80fa8490-08cd-47ab-99aa-b050519a2475 {
        clip-path: url(#uuid-e622873f-68ae-4ad3-a2d1-7932bdd396f0);
      }

      .uuid-15576857-eaad-44cc-bd10-53c8ac125c2d {
        font-family: Arial-BoldMT, Arial;
        font-size: 10px;
        font-weight: 700;
      }
    </style>
      <clipPath id="uuid-2e22d374-e5ca-4420-94a7-9672175b2940">
         <rect class="uuid-c8287953-5cbd-4c2f-9f95-4e90e443e418"
               x="191.085"
               y="38.7534"
               width="16.63"
               height="16.2683"/>
      </clipPath>
      <clipPath id="uuid-33cb16bb-7eeb-4759-86bf-d826648609c1">
         <rect class="uuid-c8287953-5cbd-4c2f-9f95-4e90e443e418"
               x="191.085"
               y="38.7537"
               width="16.63"
               height="16.268"/>
      </clipPath>
      <clipPath id="uuid-574b74ff-06e0-4a38-9b19-fe01fd759bdb">
         <rect class="uuid-c8287953-5cbd-4c2f-9f95-4e90e443e418"
               x="107.9488"
               y="26.827"
               width="35.4357"
               height="39.688"/>
      </clipPath>
      <clipPath id="uuid-5216ef32-49a2-4001-888d-7d24cb9c951f">
         <rect class="uuid-c8287953-5cbd-4c2f-9f95-4e90e443e418"
               x="107.9488"
               y="26.827"
               width="35.4357"
               height="39.688"/>
      </clipPath>
      <clipPath id="uuid-bb9bedd3-8024-4b15-ad22-fa12e943b33b">
         <rect class="uuid-c8287953-5cbd-4c2f-9f95-4e90e443e418"
               x="107.9488"
               y="26.827"
               width="35.4357"
               height="39.688"/>
      </clipPath>
      <clipPath id="uuid-5d1268cf-46a2-49d9-ba3d-13bd392f8432">
         <rect class="uuid-c8287953-5cbd-4c2f-9f95-4e90e443e418"
               x="37.9051"
               y="43.6183"
               width="6.125"
               height="6.125"/>
      </clipPath>
      <clipPath id="uuid-5eb30b52-c4e3-4416-9a73-acb3348a35d7">
         <rect class="uuid-c8287953-5cbd-4c2f-9f95-4e90e443e418"
               x="37.9051"
               y="43.6183"
               width="6.125"
               height="6.125"/>
      </clipPath>
      <clipPath id="uuid-8cf5551f-ff08-4d22-ad68-cc3bbe7d1c5c">
         <rect class="uuid-c8287953-5cbd-4c2f-9f95-4e90e443e418"
               x="70.591"
               y="38.5466"
               width="16.63"
               height="16.2683"/>
      </clipPath>
      <clipPath id="uuid-657b3cfc-e3ad-44c3-a5f9-9b47096ea6bf">
         <rect class="uuid-c8287953-5cbd-4c2f-9f95-4e90e443e418"
               x="70.591"
               y="38.5469"
               width="16.63"
               height="16.268"/>
      </clipPath>
      <clipPath id="uuid-95226415-2361-4d1d-ae9e-c6c79d034370">
         <rect class="uuid-c8287953-5cbd-4c2f-9f95-4e90e443e418"
               x="222.9283"
               y="43.5526"
               width="6.125"
               height="6.125"/>
      </clipPath>
      <clipPath id="uuid-00f3fd83-9283-460b-8fca-706b2cd4ea8e">
         <rect class="uuid-c8287953-5cbd-4c2f-9f95-4e90e443e418"
               x="222.9283"
               y="43.5526"
               width="6.125"
               height="6.125"/>
      </clipPath>
      <clipPath id="uuid-5083bc45-d075-4975-b85c-cadfbe7ecaaa">
         <rect class="uuid-c8287953-5cbd-4c2f-9f95-4e90e443e418"
               x="37.9171"
               y="79.3333"
               width="15.6504"
               height="14.7535"/>
      </clipPath>
      <clipPath id="uuid-6a166295-7a7a-4705-a9ba-63fd16bb6879">
         <rect class="uuid-c8287953-5cbd-4c2f-9f95-4e90e443e418"
               x="37.9171"
               y="79.3334"
               width="15.6509"
               height="14.7534"/>
      </clipPath>
      <clipPath id="uuid-16b09c15-43fd-4781-9ba4-7036d55d8b82">
         <rect class="uuid-c8287953-5cbd-4c2f-9f95-4e90e443e418"
               x="37.9171"
               y="79.3334"
               width="15.6509"
               height="14.7534"/>
      </clipPath>
      <clipPath id="uuid-e622873f-68ae-4ad3-a2d1-7932bdd396f0">
         <rect class="uuid-c8287953-5cbd-4c2f-9f95-4e90e443e418"
               x="70.591"
               y="78.5764"
               width="16.63"
               height="16.2683"/>
      </clipPath>
      <clipPath id="uuid-53de9c10-ec2a-4129-b8a6-2b7794c2831e">
         <rect class="uuid-c8287953-5cbd-4c2f-9f95-4e90e443e418"
               x="70.591"
               y="78.5767"
               width="16.63"
               height="16.268"/>
      </clipPath>
      <clipPath id="uuid-4d6ca573-983e-4f9f-bc19-d4fa9bccbd01">
         <rect class="uuid-c8287953-5cbd-4c2f-9f95-4e90e443e418"
               x="164.2417"
               y="40.6674"
               width="12.4579"
               height="12.1509"/>
      </clipPath>
      <clipPath id="uuid-7a487041-3446-4af1-a7e8-1ad1c4a4f13c">
         <rect class="uuid-c8287953-5cbd-4c2f-9f95-4e90e443e418"
               x="164.2417"
               y="40.6673"
               width="12.458"
               height="12.151"/>
      </clipPath>
   </defs>
   <g id="uuid-d79bf554-698f-4f39-8491-c54743faff1a" data-name="Paths">
      <path class="uuid-e2eeb767-fbfb-47e7-a47b-5d4995e1751d"
            d="m225.9908,46.7428H86.2103"/>
      <path class="uuid-e2eeb767-fbfb-47e7-a47b-5d4995e1751d"
            d="m71.3225,46.7428h-29.4537"/>
      <line class="uuid-eaccc667-5910-4c07-83a6-529c3ccb05e3"
            x1="70.6981"
            y1="86.7726"
            x2="53.5675"
            y2="86.7726"/>
      <g>
         <line class="uuid-eea039f9-f683-4c83-9ed4-8ea9669aa739"
               x1="87.221"
               y1="86.7721"
               x2="90.221"
               y2="86.7721"/>
         <line class="uuid-1cd36cbf-4964-41e1-a74b-a4f4d42160aa"
               x1="96.1846"
               y1="86.7721"
               x2="236.3288"
               y2="86.7721"/>
         <polyline class="uuid-eea039f9-f683-4c83-9ed4-8ea9669aa739"
                   points="239.3106 86.7721 242.3106 86.7721 242.3106 83.7721"/>
         <line class="uuid-8b56ee80-e8ff-4b25-bd05-34c8caa75c5b"
               x1="242.3106"
               y1="76.9663"
               x2="242.3106"
               y2="53.1458"/>
         <line class="uuid-eea039f9-f683-4c83-9ed4-8ea9669aa739"
               x1="242.3106"
               y1="49.7429"
               x2="242.3106"
               y2="46.7429"/>
      </g>
      <g>
         <line class="uuid-eea039f9-f683-4c83-9ed4-8ea9669aa739"
               x1="256.2543"
               y1="46.6151"
               x2="253.2543"
               y2="46.6151"/>
         <line class="uuid-72d4755f-d78d-4db6-9168-a16344017ef9"
               x1="245.9585"
               y1="46.6151"
               x2="235.0147"
               y2="46.6151"/>
         <line class="uuid-eea039f9-f683-4c83-9ed4-8ea9669aa739"
               x1="231.3668"
               y1="46.6151"
               x2="228.3668"
               y2="46.6151"/>
      </g>
   </g>
   <g id="uuid-67b59e37-61e8-45a7-85a6-adfd811c3510" data-name="Parts">
      <g id="uuid-79389c3e-4082-4e15-a80f-28ccdb368704" data-name="Artwork 20">
         <g class="uuid-39af716d-9a17-41c7-bb0e-cf505948e187">
            <rect class="uuid-12bac619-8f43-42f0-b8e4-77a4d9e4970c"
                  x="192.103"
                  y="44.3867"
                  width="14.612"
                  height="5.032"/>
            <g class="uuid-b462cff3-e133-4fc7-85a2-a4f17e725bd9">
               <line class="uuid-e2eeb767-fbfb-47e7-a47b-5d4995e1751d"
                     x1="192.0851"
                     y1="53.6649"
                     x2="206.7151"
                     y2="46.8989"/>
               <path d="m206.715,47.9032h0c-.55,0-1-.45-1-1,0-.551.45-1,1-1s1,.449,1,1c0,.55-.45,1-1,1"/>
               <path d="m192.0851,47.9032h0c-.55,0-1-.45-1-1,0-.551.45-1,1-1s1,.449,1,1c0,.55-.45,1-1,1"/>
            </g>
         </g>
      </g>
      <g id="uuid-bf8540ce-1a62-4d9b-8c56-da7d0a3a0c27" data-name="Rectifier">
         <g class="uuid-41297aed-1701-405c-8179-243b0fd2357f">
            <rect class="uuid-12bac619-8f43-42f0-b8e4-77a4d9e4970c"
                  x="108.6584"
                  y="29.6628"
                  width="34.0183"
                  height="34.0183"/>
            <g class="uuid-7730b719-2f53-4847-8df2-0099ba6bd9ab">
               <rect class="uuid-5728069c-116f-4b37-aeb8-abb28c1bd9ba"
                     x="108.6584"
                     y="29.6628"
                     width="34.0183"
                     height="34.0183"/>
               <line class="uuid-5728069c-116f-4b37-aeb8-abb28c1bd9ba"
                     x1="142.674"
                     y1="29.6605"
                     x2="108.6566"
                     y2="63.6788"/>
            </g>
            <line class="uuid-5728069c-116f-4b37-aeb8-abb28c1bd9ba"
                  x1="138.956"
                  y1="56.2369"
                  x2="129.3931"
                  y2="56.2369"/>
            <line class="uuid-5728069c-116f-4b37-aeb8-abb28c1bd9ba"
                  x1="131.6446"
                  y1="58.363"
                  x2="129.3937"
                  y2="58.363"/>
            <line class="uuid-5728069c-116f-4b37-aeb8-abb28c1bd9ba"
                  x1="135.3002"
                  y1="58.363"
                  x2="133.0494"
                  y2="58.363"/>
            <line class="uuid-5728069c-116f-4b37-aeb8-abb28c1bd9ba"
                  x1="138.956"
                  y1="58.363"
                  x2="136.7051"
                  y2="58.363"/>
            <g class="uuid-98f4c647-0eb4-49da-83e0-9a7a74e0348a">
               <path class="uuid-5728069c-116f-4b37-aeb8-abb28c1bd9ba"
                     d="m112.4106,35.5614c.1332-1.1935,1.0858-2.0061,2.1261-2.0061,1.0413,0,1.871.5301,2.1261,2.0061.2551,1.476,1.2322,2.0042,2.1261,2.0042s2.0175-.8297,2.1261-2.0042"/>
            </g>
         </g>
      </g>
      <g id="uuid-674a3887-8338-48a4-bc5a-2866bd910450" data-name="Artwork 13">
         <g class="uuid-18ed627d-98b4-477f-8e29-e57fb0e636ca">
            <g class="uuid-7ddaefc0-3359-4fa5-9892-ef43ac93dc63">
               <path class="uuid-e668152d-7a82-4bbc-b715-651b53f20366"
                     d="m40.9675,44.6812c1.104,0,2,.896,2,2s-.896,2-2,2-2-.896-2-2,.896-2,2-2"/>
               <circle class="uuid-e2eeb767-fbfb-47e7-a47b-5d4995e1751d"
                       cx="40.9675"
                       cy="46.6812"
                       r="2"/>
            </g>
         </g>
      </g>
      <g id="uuid-b19ca91f-dfcb-4b33-85db-274e1f535d70"
         data-name="Artwork 20 no white">
         <g class="uuid-a887c2e4-0d9b-4858-9b20-46d76e1de52e">
            <g class="uuid-12c9a9d4-3568-4fc4-955e-408b2f03b7bd">
               <line class="uuid-e2eeb767-fbfb-47e7-a47b-5d4995e1751d"
                     x1="71.5911"
                     y1="53.4581"
                     x2="86.2211"
                     y2="46.6921"/>
               <path d="m86.221,47.6964h0c-.55,0-1-.45-1-1,0-.551.45-1,1-1s1,.449,1,1c0,.55-.45,1-1,1"/>
               <path d="m71.5911,47.6964h0c-.55,0-1-.45-1-1,0-.551.45-1,1-1s1,.449,1,1c0,.55-.45,1-1,1"/>
            </g>
         </g>
      </g>
      <g id="uuid-e0c562de-6859-4296-9d64-318575ec8598" data-name="Artwork 13">
         <g class="uuid-28a5260a-fd78-4d7f-bbd6-c452d413224b">
            <g class="uuid-211bb059-6cd8-4272-a403-814bb9f505b1">
               <path class="uuid-e668152d-7a82-4bbc-b715-651b53f20366"
                     d="m225.9907,44.6155c1.104,0,2,.896,2,2s-.896,2-2,2-2-.896-2-2,.896-2,2-2"/>
               <circle class="uuid-e2eeb767-fbfb-47e7-a47b-5d4995e1751d"
                       cx="225.9907"
                       cy="46.6155"
                       r="2"/>
            </g>
         </g>
      </g>
      <g id="uuid-e679d837-5779-4d41-b5de-091793a6173c" data-name="Artwork 8">
         <g class="uuid-5e61cbd5-27df-4462-b671-47ad170d0fb5">
            <g class="uuid-e84ac34f-e10b-4c25-a70c-330c05158ae3">
               <line class="uuid-03674999-90e1-4f0d-a925-0cb620e17818"
                     x1="40.5535"
                     y1="94.0947"
                     x2="40.5535"
                     y2="79.3413"/>
               <line class="uuid-26c13cdc-5eea-4a6c-9e58-0ebcb5275453"
                     x1="38.5354"
                     y1="90.9604"
                     x2="38.5354"
                     y2="82.4758"/>
            </g>
            <line class="uuid-f9ff2d61-3e43-42cb-829c-1dc41ef68e00"
                  x1="40.3197"
                  y1="86.7099"
                  x2="51.3006"
                  y2="86.7099"/>
            <g class="uuid-c18c621e-b64c-4dee-8311-1898fa9ccfa4">
               <line class="uuid-03674999-90e1-4f0d-a925-0cb620e17818"
                     x1="53.3186"
                     y1="94.0868"
                     x2="53.3186"
                     y2="79.3334"/>
            </g>
            <line class="uuid-26c13cdc-5eea-4a6c-9e58-0ebcb5275453"
                  x1="51.3005"
                  y1="90.9521"
                  x2="51.3005"
                  y2="82.4675"/>
         </g>
      </g>
      <g id="uuid-7d9037a6-6f32-4d9f-936c-018191522446"
         data-name="Artwork 20 no white">
         <g class="uuid-80fa8490-08cd-47ab-99aa-b050519a2475">
            <g class="uuid-6baad48b-ca1f-401b-8e87-95087b237ae1">
               <line class="uuid-e2eeb767-fbfb-47e7-a47b-5d4995e1751d"
                     x1="71.5911"
                     y1="93.4879"
                     x2="86.2211"
                     y2="86.7219"/>
               <path d="m86.221,87.7262h0c-.55,0-1-.45-1-1,0-.551.45-1,1-1s1,.449,1,1c0,.55-.45,1-1,1"/>
               <path d="m71.5911,87.7262h0c-.55,0-1-.45-1-1,0-.551.45-1,1-1s1,.449,1,1c0,.55-.45,1-1,1"/>
            </g>
         </g>
      </g>
   </g>
   <g id="uuid-e0f9db77-e9dc-498d-8064-d28d2e4b5076" data-name="Text">
      <text class="uuid-15576857-eaad-44cc-bd10-53c8ac125c2d"
            transform="translate(205.4371 34.6145)">
         <tspan x="0" y="0">OUTPUT</tspan>
      </text>
      <text class="uuid-15576857-eaad-44cc-bd10-53c8ac125c2d"
            transform="translate(14.5786 24.6718)">
         <tspan x="0" y="0">RECTIFIER</tspan>
         <tspan x="10.2783" y="12">MAINS</tspan>
      </text>
      <text class="uuid-15576857-eaad-44cc-bd10-53c8ac125c2d"
            transform="translate(98.8751 24.6715)">
         <tspan x="0" y="0">RECTIFIER</tspan>
      </text>
      <g id="uuid-44aa7e86-8a27-4296-ba91-f58388926a4f" data-name="Artwork 30">
         <g class="uuid-744a838b-edc9-44b8-be84-14e62ef16bec">
            <g class="uuid-8bb252d1-e450-4ec3-b386-6d579b4919ec">
               <line class="uuid-e2eeb767-fbfb-47e7-a47b-5d4995e1751d"
                     x1="176.0441"
                     y1="41.0219"
                     x2="176.0441"
                     y2="52.5749"/>
            </g>
            <polygon class="uuid-12bac619-8f43-42f0-b8e4-77a4d9e4970c"
                     points="165.1084 51.8571 175.4034 46.6871 165.1084 41.5191 165.1084 51.8571"/>
            <path d="m165.484,42.1276l9.083,4.56-9.083,4.561v-9.121Zm-.75,10.337l11.506-5.777-11.506-5.776v11.553Z"/>
         </g>
      </g>
      <g>
         <path class="uuid-7dd7f69b-0aca-4101-99d8-2f9648c83d08"
               d="m15.6509,65.2321v-7.1582h5.3076v1.2109h-3.8623v1.5869h3.5938v1.2061h-3.5938v1.9482h3.999v1.2061h-5.4443Z"/>
         <path class="uuid-7dd7f69b-0aca-4101-99d8-2f9648c83d08"
               d="m21.5933,65.2321l2.4463-3.7354-2.2168-3.4229h1.6895l1.4355,2.2998,1.4062-2.2998h1.6748l-2.2266,3.4766,2.4463,3.6816h-1.7432l-1.5869-2.4756-1.5918,2.4756h-1.7334Z"/>
         <path class="uuid-7dd7f69b-0aca-4101-99d8-2f9648c83d08"
               d="m30.6021,65.2321v-5.9473h-2.124v-1.2109h5.6885v1.2109h-2.1191v5.9473h-1.4453Z"/>
         <path class="uuid-7dd7f69b-0aca-4101-99d8-2f9648c83d08"
               d="m35.0991,65.2321v-7.1582h5.3076v1.2109h-3.8623v1.5869h3.5938v1.2061h-3.5938v1.9482h3.999v1.2061h-5.4443Z"/>
         <path class="uuid-7dd7f69b-0aca-4101-99d8-2f9648c83d08"
               d="m41.774,65.2321v-7.1582h3.042c.7651,0,1.3208.0645,1.6675.1929s.624.3574.8325.686.3125.7046.3125,1.1279c0,.5371-.1577.9805-.4736,1.3306s-.7876.5703-1.416.6616c.3125.1821.5703.3823.7739.6006s.4775.6055.8228,1.1621l.874,1.3965h-1.7285l-1.0449-1.5576c-.3711-.5566-.625-.9072-.7617-1.0522s-.2817-.2441-.4346-.2979-.3955-.0806-.7275-.0806h-.293v2.9883h-1.4453Zm1.4453-4.1309h1.0693c.6934,0,1.1265-.0293,1.2988-.0879s.3076-.1597.4053-.3027.1465-.3223.1465-.5371c0-.2407-.0645-.4355-.1929-.5835s-.3101-.2417-.5444-.2808c-.1172-.0161-.4688-.0244-1.0547-.0244h-1.1279v1.8164Z"/>
         <path class="uuid-7dd7f69b-0aca-4101-99d8-2f9648c83d08"
               d="m49.0054,65.2321v-7.1582h1.4062l2.9297,4.7803v-4.7803h1.3428v7.1582h-1.4502l-2.8857-4.668v4.668h-1.3428Z"/>
         <path class="uuid-7dd7f69b-0aca-4101-99d8-2f9648c83d08"
               d="m62.6675,65.2321h-1.5723l-.625-1.626h-2.8613l-.5908,1.626h-1.5332l2.7881-7.1582h1.5283l2.8662,7.1582Zm-2.6611-2.832l-.9863-2.6562-.9668,2.6562h1.9531Z"/>
         <path class="uuid-7dd7f69b-0aca-4101-99d8-2f9648c83d08"
               d="m63.4732,65.2321v-7.0996h1.4453v5.8936h3.5938v1.2061h-5.0391Z"/>
         <path class="uuid-7dd7f69b-0aca-4101-99d8-2f9648c83d08"
               d="m18.9907,70.0739h2.8613c.5664,0,.9888.0234,1.2671.0708s.5273.1455.7471.2954.4028.3491.5493.5981.2197.5283.2197.8374c0,.3354-.0903.6431-.271.9229s-.4258.4897-.7349.6299c.436.127.7715.3433,1.0059.6494s.3516.6655.3516,1.0791c0,.3257-.0757.6421-.2271.9497s-.3579.5532-.6201.7373-.585.2969-.9692.3394c-.2407.0259-.8218.0425-1.7432.0488h-2.4365v-7.1582Zm1.4453,1.1914v1.6553h.9473c.563,0,.9131-.0083,1.0498-.0244.2476-.0293.4419-.1147.5835-.2563s.2124-.3281.2124-.5591c0-.2212-.061-.4014-.1831-.5396s-.3037-.2222-.5444-.2515c-.1431-.0161-.5552-.0244-1.2354-.0244h-.8301Zm0,2.8467v1.9141h1.3379c.521,0,.8511-.0146.9912-.0439.2148-.0391.3896-.1343.5249-.2856s.2026-.354.2026-.6079c0-.2148-.0522-.397-.1562-.5469s-.2549-.2588-.4517-.3271-.624-.1025-1.2817-.1025h-1.167Z"/>
         <path class="uuid-7dd7f69b-0aca-4101-99d8-2f9648c83d08"
               d="m32.6626,77.2321h-1.5723l-.625-1.626h-2.8613l-.5908,1.626h-1.5332l2.7881-7.1582h1.5283l2.8662,7.1582Zm-2.6611-2.832l-.9863-2.6562-.9668,2.6562h1.9531Z"/>
         <path class="uuid-7dd7f69b-0aca-4101-99d8-2f9648c83d08"
               d="m35.0406,77.2321v-5.9473h-2.124v-1.2109h5.6885v1.2109h-2.1191v5.9473h-1.4453Z"/>
         <path class="uuid-7dd7f69b-0aca-4101-99d8-2f9648c83d08"
               d="m41.149,77.2321v-5.9473h-2.124v-1.2109h5.6885v1.2109h-2.1191v5.9473h-1.4453Z"/>
         <path class="uuid-7dd7f69b-0aca-4101-99d8-2f9648c83d08"
               d="m45.646,77.2321v-7.1582h5.3076v1.2109h-3.8623v1.5869h3.5938v1.2061h-3.5938v1.9482h3.999v1.2061h-5.4443Z"/>
         <path class="uuid-7dd7f69b-0aca-4101-99d8-2f9648c83d08"
               d="m52.3208,77.2321v-7.1582h3.042c.7651,0,1.3208.0645,1.6675.1929s.624.3574.8325.686.3125.7046.3125,1.1279c0,.5371-.1577.9805-.4736,1.3306s-.7876.5703-1.416.6616c.3125.1821.5703.3823.7739.6006s.4775.6055.8228,1.1621l.874,1.3965h-1.7285l-1.0449-1.5576c-.3711-.5566-.625-.9072-.7617-1.0522s-.2817-.2441-.4346-.2979-.3955-.0806-.7275-.0806h-.293v2.9883h-1.4453Zm1.4453-4.1309h1.0693c.6934,0,1.1265-.0293,1.2988-.0879s.3076-.1597.4053-.3027.1465-.3223.1465-.5371c0-.2407-.0645-.4355-.1929-.5835s-.3101-.2417-.5444-.2808c-.1172-.0161-.4688-.0244-1.0547-.0244h-1.1279v1.8164Z"/>
         <path class="uuid-7dd7f69b-0aca-4101-99d8-2f9648c83d08"
               d="m61.4175,77.2321v-3.0127l-2.6221-4.1455h1.6943l1.6846,2.832,1.6504-2.832h1.665l-2.6318,4.1553v3.0029h-1.4404Z"/>
      </g>
   </g>
</svg>
