<?xml version="1.0" encoding="UTF-8"?>
<svg xmlns="http://www.w3.org/2000/svg"
     xmlns:xlink="http://www.w3.org/1999/xlink"
     width="95mm"
     height="37mm"
     viewBox="0 0 269.2913 104.8819">
   <defs>
      <style>
      .uuid-95f2a7b4-72c1-4e58-93e3-e734c4169d59 {
        clip-path: url(#uuid-8d2810a3-fd52-46d7-b75c-e07f5512528d);
      }

      .uuid-9a235564-ba0b-4da3-82e6-4951320f4a85 {
        clip-path: url(#uuid-5432cd40-da7b-4b8a-ae84-c4cc5b66e9a0);
      }

      .uuid-2800a9e9-827c-4e95-95f1-ee5bac689049, .uuid-87de3aeb-964e-47fd-94d1-67231e6408aa {
        fill: #fff;
      }

      .uuid-67533158-715d-428e-8654-895df8a22b39 {
        clip-path: url(#uuid-c5ed828f-a3ba-45bc-b649-5d90c7965e5c);
      }

      .uuid-3838a4da-a52c-40f0-a622-93de61c22e4d {
        stroke-width: 1.2522px;
      }

      .uuid-3838a4da-a52c-40f0-a622-93de61c22e4d, .uuid-d34d1c15-c43b-4c73-8749-fd77b2423391, .uuid-108c841c-4d43-4760-a02b-f2d2bce166d4, .uuid-874f1128-ef7d-40fa-adab-3d029e067473, .uuid-b25f0449-611e-456f-8533-607c046a9f4f, .uuid-8cce68cf-cad7-4040-a970-40a09d0ce738, .uuid-a0375999-ce9f-4a1c-a81e-b1e606f6550d, .uuid-56212222-b08c-43a2-8b2d-bb2be48e1cdc, .uuid-2d2694ef-d683-4422-a94c-ea76286d9f57, .uuid-5871fd6c-1d7b-4b1e-b4de-048bc95de49e, .uuid-facb67ea-f0a0-4e57-b2c9-35ca411ce314 {
        fill: none;
      }

      .uuid-3838a4da-a52c-40f0-a622-93de61c22e4d, .uuid-d34d1c15-c43b-4c73-8749-fd77b2423391, .uuid-108c841c-4d43-4760-a02b-f2d2bce166d4, .uuid-874f1128-ef7d-40fa-adab-3d029e067473, .uuid-b25f0449-611e-456f-8533-607c046a9f4f, .uuid-8cce68cf-cad7-4040-a970-40a09d0ce738, .uuid-a0375999-ce9f-4a1c-a81e-b1e606f6550d, .uuid-2d2694ef-d683-4422-a94c-ea76286d9f57, .uuid-5871fd6c-1d7b-4b1e-b4de-048bc95de49e, .uuid-facb67ea-f0a0-4e57-b2c9-35ca411ce314 {
        stroke: #000;
      }

      .uuid-3838a4da-a52c-40f0-a622-93de61c22e4d, .uuid-108c841c-4d43-4760-a02b-f2d2bce166d4, .uuid-874f1128-ef7d-40fa-adab-3d029e067473, .uuid-8cce68cf-cad7-4040-a970-40a09d0ce738, .uuid-a0375999-ce9f-4a1c-a81e-b1e606f6550d {
        stroke-miterlimit: 3;
      }

      .uuid-f9ab4d94-42ba-47e1-ad2f-d0c71d88265a {
        clip-path: url(#uuid-a56aefa6-9f07-4d63-b6fd-684863d3c3b8);
      }

      .uuid-87de3aeb-964e-47fd-94d1-67231e6408aa {
        fill-rule: evenodd;
      }

      .uuid-d7a6f2f8-0512-4d46-a273-4ea9e102a218 {
        clip-path: url(#uuid-6085d4d5-15f3-47b3-a97f-7697575e1424);
      }

      .uuid-c2351d72-e6d3-489f-9ab2-19237c7cf329 {
        fill: #57b959;
      }

      .uuid-3eb308c1-305f-452a-a9d7-fa7cd2cb13a2 {
        clip-path: url(#uuid-b1f06757-9c09-4a23-9fd0-61df9c64529c);
      }

      .uuid-4e5ac10e-bf50-43f0-b2d9-0e0a9b412640 {
        clip-path: url(#uuid-aab08367-871c-4b4d-a9b3-42c63643f165);
      }

      .uuid-1da3b66e-d650-44d3-a13b-ca149302a3eb {
        clip-path: url(#uuid-b1eed2a4-ac65-423d-80f0-bd1587db34d1);
      }

      .uuid-3cd9f144-d5f4-42fc-a435-a85d67573ba4, .uuid-c7d16019-e693-4f19-a29b-145246efaf31 {
        fill: #01889C;
      }

      .uuid-d34d1c15-c43b-4c73-8749-fd77b2423391, .uuid-874f1128-ef7d-40fa-adab-3d029e067473, .uuid-b25f0449-611e-456f-8533-607c046a9f4f, .uuid-2d2694ef-d683-4422-a94c-ea76286d9f57, .uuid-5871fd6c-1d7b-4b1e-b4de-048bc95de49e, .uuid-facb67ea-f0a0-4e57-b2c9-35ca411ce314 {
        stroke-width: .75px;
      }

      .uuid-d34d1c15-c43b-4c73-8749-fd77b2423391, .uuid-b25f0449-611e-456f-8533-607c046a9f4f, .uuid-2d2694ef-d683-4422-a94c-ea76286d9f57, .uuid-5871fd6c-1d7b-4b1e-b4de-048bc95de49e, .uuid-facb67ea-f0a0-4e57-b2c9-35ca411ce314 {
        stroke-miterlimit: 10;
      }

      .uuid-945a36b0-775c-44aa-a3ba-ddec6798a7a1 {
        clip-path: url(#uuid-79f34430-1b3b-4169-9541-a14f1130dcfd);
      }

      .uuid-02579724-94aa-4280-b946-be47415310fc {
        clip-path: url(#uuid-4aed15a1-e23f-47f0-94ba-285b98067216);
      }

      .uuid-57e68205-6fb4-416e-afa7-7bfd9a0986d2 {
        clip-path: url(#uuid-302c82f9-bc82-461f-8694-e202e05909f7);
      }

      .uuid-d5a7f6f6-99a9-4608-a78d-9fac2e012ef1 {
        clip-path: url(#uuid-d8bc136a-f38f-49d2-835b-da15ca6bf9a3);
      }

      .uuid-108c841c-4d43-4760-a02b-f2d2bce166d4 {
        stroke-dasharray: 0 0 2.0034 1.0017;
      }

      .uuid-108c841c-4d43-4760-a02b-f2d2bce166d4, .uuid-a0375999-ce9f-4a1c-a81e-b1e606f6550d {
        stroke-width: .7513px;
      }

      .uuid-40c4399e-a784-4079-a07d-dcfef2023bd9 {
        clip-path: url(#uuid-71be6ebd-bf36-40fc-bbbf-11ed4bea04a7);
      }

      .uuid-b25f0449-611e-456f-8533-607c046a9f4f {
        stroke-dasharray: 0 0 5.9636 5.9636;
      }

      .uuid-8cce68cf-cad7-4040-a970-40a09d0ce738 {
        stroke-width: .7087px;
      }

      .uuid-96c5fec3-227d-4f80-ad61-19f788d6c466 {
        clip-path: url(#uuid-7bc6d609-34f6-4fd3-9c04-ef5cb3a208c3);
      }

      .uuid-cc492906-f1bf-4148-a347-2b58afb5554f {
        clip-path: url(#uuid-20c4fbd1-3925-46b6-9126-ee41ce9065ab);
      }

      .uuid-c33d8482-a1d1-4b16-8763-e743ab26bfb1 {
        clip-path: url(#uuid-8b172cf9-d0a5-4bf3-9611-d9beb02fcbb3);
      }

      .uuid-2d2694ef-d683-4422-a94c-ea76286d9f57 {
        stroke-dasharray: 0 0 6.8059 6.8059;
      }

      .uuid-06d9b3c4-9e0c-4edf-ab33-34e9201f11e3 {
        clip-path: url(#uuid-4ab877de-4957-4587-a3d9-1aeff8a24586);
      }

      .uuid-5871fd6c-1d7b-4b1e-b4de-048bc95de49e {
        stroke-dasharray: 0 0 7.2959 7.2959;
      }

      .uuid-facb67ea-f0a0-4e57-b2c9-35ca411ce314 {
        stroke-dasharray: 0 0 6 6;
      }

      .uuid-84dac547-9513-49ff-b3d0-21c7d16000d5 {
        fill: #c6c6c6;
      }

      .uuid-ca5c8e5d-09eb-4c7c-b11f-543e4bebd983 {
        clip-path: url(#uuid-d5827980-87f1-4f0b-96ef-b1b3fef0cbd9);
      }

      .uuid-c7d16019-e693-4f19-a29b-145246efaf31 {
        font-family: Arial-BoldMT, Arial;
        font-size: 10px;
        font-weight: 700;
      }
    </style>
      <clipPath id="uuid-d5827980-87f1-4f0b-96ef-b1b3fef0cbd9">
         <rect class="uuid-56212222-b08c-43a2-8b2d-bb2be48e1cdc"
               x="164.2417"
               y="40.5397"
               width="12.4579"
               height="12.1509"/>
      </clipPath>
      <clipPath id="uuid-8b172cf9-d0a5-4bf3-9611-d9beb02fcbb3">
         <rect class="uuid-56212222-b08c-43a2-8b2d-bb2be48e1cdc"
               x="164.2417"
               y="40.5396"
               width="12.458"
               height="12.151"/>
      </clipPath>
      <clipPath id="uuid-5432cd40-da7b-4b8a-ae84-c4cc5b66e9a0">
         <rect class="uuid-56212222-b08c-43a2-8b2d-bb2be48e1cdc"
               x="107.9488"
               y="26.827"
               width="35.4357"
               height="39.688"/>
      </clipPath>
      <clipPath id="uuid-20c4fbd1-3925-46b6-9126-ee41ce9065ab">
         <rect class="uuid-56212222-b08c-43a2-8b2d-bb2be48e1cdc"
               x="107.9488"
               y="26.827"
               width="35.4357"
               height="39.688"/>
      </clipPath>
      <clipPath id="uuid-6085d4d5-15f3-47b3-a97f-7697575e1424">
         <rect class="uuid-56212222-b08c-43a2-8b2d-bb2be48e1cdc"
               x="107.9488"
               y="26.827"
               width="35.4357"
               height="39.688"/>
      </clipPath>
      <clipPath id="uuid-79f34430-1b3b-4169-9541-a14f1130dcfd">
         <rect class="uuid-56212222-b08c-43a2-8b2d-bb2be48e1cdc"
               x="37.9051"
               y="43.6183"
               width="6.125"
               height="6.125"/>
      </clipPath>
      <clipPath id="uuid-c5ed828f-a3ba-45bc-b649-5d90c7965e5c">
         <rect class="uuid-56212222-b08c-43a2-8b2d-bb2be48e1cdc"
               x="37.9051"
               y="43.6183"
               width="6.125"
               height="6.125"/>
      </clipPath>
      <clipPath id="uuid-aab08367-871c-4b4d-a9b3-42c63643f165">
         <rect class="uuid-56212222-b08c-43a2-8b2d-bb2be48e1cdc"
               x="70.591"
               y="38.5466"
               width="16.63"
               height="16.2683"/>
      </clipPath>
      <clipPath id="uuid-8d2810a3-fd52-46d7-b75c-e07f5512528d">
         <rect class="uuid-56212222-b08c-43a2-8b2d-bb2be48e1cdc"
               x="70.591"
               y="38.5469"
               width="16.63"
               height="16.268"/>
      </clipPath>
      <clipPath id="uuid-b1f06757-9c09-4a23-9fd0-61df9c64529c">
         <rect class="uuid-56212222-b08c-43a2-8b2d-bb2be48e1cdc"
               x="222.9283"
               y="43.5526"
               width="6.125"
               height="6.125"/>
      </clipPath>
      <clipPath id="uuid-7bc6d609-34f6-4fd3-9c04-ef5cb3a208c3">
         <rect class="uuid-56212222-b08c-43a2-8b2d-bb2be48e1cdc"
               x="222.9283"
               y="43.5526"
               width="6.125"
               height="6.125"/>
      </clipPath>
      <clipPath id="uuid-a56aefa6-9f07-4d63-b6fd-684863d3c3b8">
         <rect class="uuid-56212222-b08c-43a2-8b2d-bb2be48e1cdc"
               x="37.9171"
               y="79.3333"
               width="15.6504"
               height="14.7535"/>
      </clipPath>
      <clipPath id="uuid-4aed15a1-e23f-47f0-94ba-285b98067216">
         <rect class="uuid-56212222-b08c-43a2-8b2d-bb2be48e1cdc"
               x="37.9171"
               y="79.3334"
               width="15.6509"
               height="14.7534"/>
      </clipPath>
      <clipPath id="uuid-4ab877de-4957-4587-a3d9-1aeff8a24586">
         <rect class="uuid-56212222-b08c-43a2-8b2d-bb2be48e1cdc"
               x="37.9171"
               y="79.3334"
               width="15.6509"
               height="14.7534"/>
      </clipPath>
      <clipPath id="uuid-302c82f9-bc82-461f-8694-e202e05909f7">
         <rect class="uuid-56212222-b08c-43a2-8b2d-bb2be48e1cdc"
               x="70.591"
               y="78.5764"
               width="16.63"
               height="16.2683"/>
      </clipPath>
      <clipPath id="uuid-d8bc136a-f38f-49d2-835b-da15ca6bf9a3">
         <rect class="uuid-56212222-b08c-43a2-8b2d-bb2be48e1cdc"
               x="70.591"
               y="78.5767"
               width="16.63"
               height="16.268"/>
      </clipPath>
      <clipPath id="uuid-71be6ebd-bf36-40fc-bbbf-11ed4bea04a7">
         <rect class="uuid-56212222-b08c-43a2-8b2d-bb2be48e1cdc"
               x="191.085"
               y="38.5466"
               width="16.63"
               height="16.2683"/>
      </clipPath>
      <clipPath id="uuid-b1eed2a4-ac65-423d-80f0-bd1587db34d1">
         <rect class="uuid-56212222-b08c-43a2-8b2d-bb2be48e1cdc"
               x="191.085"
               y="38.5469"
               width="16.63"
               height="16.268"/>
      </clipPath>
   </defs>
   <g id="uuid-db668966-c2bb-4cd5-a5fc-dfc03fb18f29" data-name="Paths">
      <g>
         <polygon class="uuid-84dac547-9513-49ff-b3d0-21c7d16000d5"
                  points="44.5324 49.0111 41.1648 49.0111 44.7868 44.4746 48.1543 44.4746 44.5324 49.0111"/>
         <polygon class="uuid-84dac547-9513-49ff-b3d0-21c7d16000d5"
                  points="51.6594 49.0111 48.2918 49.0111 51.9138 44.4746 55.2813 44.4746 51.6594 49.0111"/>
         <polygon class="uuid-84dac547-9513-49ff-b3d0-21c7d16000d5"
                  points="58.7864 49.0111 55.4188 49.0111 59.0408 44.4746 62.4083 44.4746 58.7864 49.0111"/>
         <polygon class="uuid-84dac547-9513-49ff-b3d0-21c7d16000d5"
                  points="65.9134 49.0111 62.5458 49.0111 66.1678 44.4746 69.5354 44.4746 65.9134 49.0111"/>
         <polygon class="uuid-84dac547-9513-49ff-b3d0-21c7d16000d5"
                  points="73.0404 49.0111 69.6728 49.0111 73.2948 44.4746 76.6624 44.4746 73.0404 49.0111"/>
         <polygon class="uuid-84dac547-9513-49ff-b3d0-21c7d16000d5"
                  points="80.1674 49.0111 76.7999 49.0111 80.4218 44.4746 83.7894 44.4746 80.1674 49.0111"/>
         <polygon class="uuid-84dac547-9513-49ff-b3d0-21c7d16000d5"
                  points="87.2944 49.0111 83.9268 49.0111 87.5488 44.4746 90.9164 44.4746 87.2944 49.0111"/>
         <polygon class="uuid-84dac547-9513-49ff-b3d0-21c7d16000d5"
                  points="94.4214 49.0111 91.0539 49.0111 94.6758 44.4746 98.0434 44.4746 94.4214 49.0111"/>
         <polygon class="uuid-84dac547-9513-49ff-b3d0-21c7d16000d5"
                  points="101.5484 49.0111 98.1809 49.0111 101.8028 44.4746 105.1704 44.4746 101.5484 49.0111"/>
         <polygon class="uuid-84dac547-9513-49ff-b3d0-21c7d16000d5"
                  points="108.6754 49.0111 105.3079 49.0111 108.9298 44.4746 112.2974 44.4746 108.6754 49.0111"/>
         <polygon points="112.1431 47.7401 113.8701 46.7428 112.1431 45.7456 112.1431 47.7401"/>
      </g>
      <g>
         <polygon class="uuid-84dac547-9513-49ff-b3d0-21c7d16000d5"
                  points="42.9493 89.0409 39.5817 89.0409 43.2037 84.5044 46.5712 84.5044 42.9493 89.0409"/>
         <polygon class="uuid-84dac547-9513-49ff-b3d0-21c7d16000d5"
                  points="50.9764 89.0409 47.6088 89.0409 51.2308 84.5044 54.5983 84.5044 50.9764 89.0409"/>
         <polygon class="uuid-84dac547-9513-49ff-b3d0-21c7d16000d5"
                  points="59.0035 89.0409 55.6359 89.0409 59.2579 84.5044 62.6254 84.5044 59.0035 89.0409"/>
         <polygon class="uuid-84dac547-9513-49ff-b3d0-21c7d16000d5"
                  points="67.0306 89.0409 63.663 89.0409 67.285 84.5044 70.6525 84.5044 67.0306 89.0409"/>
      </g>
      <g id="uuid-234e2423-7cc6-45c3-afa6-a5effbf28ebe" data-name="Artwork 30">
         <g class="uuid-ca5c8e5d-09eb-4c7c-b11f-543e4bebd983">
            <g class="uuid-c33d8482-a1d1-4b16-8763-e743ab26bfb1">
               <line class="uuid-874f1128-ef7d-40fa-adab-3d029e067473"
                     x1="176.0441"
                     y1="40.8942"
                     x2="176.0441"
                     y2="52.4472"/>
            </g>
            <path d="m165.484,41.9999l9.083,4.56-9.083,4.561v-9.121Zm-.75,10.337l11.506-5.777-11.506-5.776v11.553Z"/>
         </g>
      </g>
   </g>
   <g id="uuid-ec52c731-6b6e-485b-a069-6e28d054f0a5" data-name="Diagrams">
      <path class="uuid-874f1128-ef7d-40fa-adab-3d029e067473"
            d="m71.3225,46.7428h-29.4537"/>
      <g>
         <line class="uuid-d34d1c15-c43b-4c73-8749-fd77b2423391"
               x1="87.221"
               y1="86.7721"
               x2="90.221"
               y2="86.7721"/>
         <line class="uuid-b25f0449-611e-456f-8533-607c046a9f4f"
               x1="96.1846"
               y1="86.7721"
               x2="236.3288"
               y2="86.7721"/>
         <polyline class="uuid-d34d1c15-c43b-4c73-8749-fd77b2423391"
                   points="239.3106 86.7721 242.3106 86.7721 242.3106 83.7721"/>
         <line class="uuid-2d2694ef-d683-4422-a94c-ea76286d9f57"
               x1="242.3106"
               y1="76.9663"
               x2="242.3106"
               y2="53.1458"/>
         <line class="uuid-d34d1c15-c43b-4c73-8749-fd77b2423391"
               x1="242.3106"
               y1="49.7429"
               x2="242.3106"
               y2="46.7429"/>
      </g>
      <g>
         <line class="uuid-d34d1c15-c43b-4c73-8749-fd77b2423391"
               x1="256.2543"
               y1="46.6151"
               x2="253.2543"
               y2="46.6151"/>
         <line class="uuid-5871fd6c-1d7b-4b1e-b4de-048bc95de49e"
               x1="245.9585"
               y1="46.6151"
               x2="235.0147"
               y2="46.6151"/>
         <line class="uuid-d34d1c15-c43b-4c73-8749-fd77b2423391"
               x1="231.3668"
               y1="46.6151"
               x2="228.3668"
               y2="46.6151"/>
      </g>
      <path class="uuid-874f1128-ef7d-40fa-adab-3d029e067473"
            d="m191.8308,46.7428h-105.6205"/>
      <path class="uuid-874f1128-ef7d-40fa-adab-3d029e067473"
            d="m225.9908,46.7428h-19.0836"/>
      <line class="uuid-facb67ea-f0a0-4e57-b2c9-35ca411ce314"
            x1="71.3225"
            y1="86.7726"
            x2="53.2496"
            y2="86.7726"/>
   </g>
   <g id="uuid-a6e5905b-2e2b-42c2-be7e-a254740e211b" data-name="Symbols">
      <g id="uuid-4098034f-7ed8-4159-95c5-8863faf5088f" data-name="Rectifier">
         <g class="uuid-9a235564-ba0b-4da3-82e6-4951320f4a85">
            <rect class="uuid-2800a9e9-827c-4e95-95f1-ee5bac689049"
                  x="108.6584"
                  y="29.6628"
                  width="34.0183"
                  height="34.0183"/>
            <g class="uuid-cc492906-f1bf-4148-a347-2b58afb5554f">
               <rect class="uuid-8cce68cf-cad7-4040-a970-40a09d0ce738"
                     x="108.6584"
                     y="29.6628"
                     width="34.0183"
                     height="34.0183"/>
               <line class="uuid-8cce68cf-cad7-4040-a970-40a09d0ce738"
                     x1="142.674"
                     y1="29.6605"
                     x2="108.6566"
                     y2="63.6788"/>
            </g>
            <line class="uuid-8cce68cf-cad7-4040-a970-40a09d0ce738"
                  x1="138.956"
                  y1="56.2369"
                  x2="129.3931"
                  y2="56.2369"/>
            <line class="uuid-8cce68cf-cad7-4040-a970-40a09d0ce738"
                  x1="131.6446"
                  y1="58.363"
                  x2="129.3937"
                  y2="58.363"/>
            <line class="uuid-8cce68cf-cad7-4040-a970-40a09d0ce738"
                  x1="135.3002"
                  y1="58.363"
                  x2="133.0494"
                  y2="58.363"/>
            <line class="uuid-8cce68cf-cad7-4040-a970-40a09d0ce738"
                  x1="138.956"
                  y1="58.363"
                  x2="136.7051"
                  y2="58.363"/>
            <g class="uuid-d7a6f2f8-0512-4d46-a273-4ea9e102a218">
               <path class="uuid-8cce68cf-cad7-4040-a970-40a09d0ce738"
                     d="m112.4106,35.5614c.1332-1.1935,1.0858-2.0061,2.1261-2.0061,1.0413,0,1.871.5301,2.1261,2.0061.2551,1.476,1.2322,2.0042,2.1261,2.0042s2.0175-.8297,2.1261-2.0042"/>
            </g>
         </g>
      </g>
      <g id="uuid-78cd84ff-d726-4952-b0f6-6be17bb13008" data-name="Artwork 13">
         <g class="uuid-945a36b0-775c-44aa-a3ba-ddec6798a7a1">
            <g class="uuid-67533158-715d-428e-8654-895df8a22b39">
               <path class="uuid-87de3aeb-964e-47fd-94d1-67231e6408aa"
                     d="m40.9675,44.6812c1.104,0,2,.896,2,2s-.896,2-2,2-2-.896-2-2,.896-2,2-2"/>
               <circle class="uuid-874f1128-ef7d-40fa-adab-3d029e067473"
                       cx="40.9675"
                       cy="46.6812"
                       r="2"/>
            </g>
         </g>
      </g>
      <g id="uuid-73f5b58b-71ae-41fe-b478-100f54d0c0c9"
         data-name="Artwork 20 no white">
         <g class="uuid-4e5ac10e-bf50-43f0-b2d9-0e0a9b412640">
            <g class="uuid-95f2a7b4-72c1-4e58-93e3-e734c4169d59">
               <line class="uuid-874f1128-ef7d-40fa-adab-3d029e067473"
                     x1="71.5911"
                     y1="53.4581"
                     x2="86.2211"
                     y2="46.6921"/>
               <path d="m86.221,47.6964h0c-.55,0-1-.45-1-1,0-.551.45-1,1-1s1,.449,1,1c0,.55-.45,1-1,1"/>
               <path d="m71.5911,47.6964h0c-.55,0-1-.45-1-1,0-.551.45-1,1-1s1,.449,1,1c0,.55-.45,1-1,1"/>
            </g>
         </g>
      </g>
      <g id="uuid-4d35869c-1c65-4aaf-92bf-3563e11b09e6" data-name="Artwork 13">
         <g class="uuid-3eb308c1-305f-452a-a9d7-fa7cd2cb13a2">
            <g class="uuid-96c5fec3-227d-4f80-ad61-19f788d6c466">
               <path class="uuid-87de3aeb-964e-47fd-94d1-67231e6408aa"
                     d="m225.9907,44.6155c1.104,0,2,.896,2,2s-.896,2-2,2-2-.896-2-2,.896-2,2-2"/>
               <circle class="uuid-874f1128-ef7d-40fa-adab-3d029e067473"
                       cx="225.9907"
                       cy="46.6155"
                       r="2"/>
            </g>
         </g>
      </g>
      <g id="uuid-ed75737b-781a-4c79-b155-a8a7be4fc046" data-name="Artwork 8">
         <g class="uuid-f9ab4d94-42ba-47e1-ad2f-d0c71d88265a">
            <g class="uuid-02579724-94aa-4280-b946-be47415310fc">
               <line class="uuid-a0375999-ce9f-4a1c-a81e-b1e606f6550d"
                     x1="40.5535"
                     y1="94.0947"
                     x2="40.5535"
                     y2="79.3413"/>
               <line class="uuid-3838a4da-a52c-40f0-a622-93de61c22e4d"
                     x1="38.5354"
                     y1="90.9604"
                     x2="38.5354"
                     y2="82.4758"/>
            </g>
            <line class="uuid-108c841c-4d43-4760-a02b-f2d2bce166d4"
                  x1="40.3197"
                  y1="86.7099"
                  x2="51.3006"
                  y2="86.7099"/>
            <g class="uuid-06d9b3c4-9e0c-4edf-ab33-34e9201f11e3">
               <line class="uuid-a0375999-ce9f-4a1c-a81e-b1e606f6550d"
                     x1="53.3186"
                     y1="94.0868"
                     x2="53.3186"
                     y2="79.3334"/>
            </g>
            <line class="uuid-3838a4da-a52c-40f0-a622-93de61c22e4d"
                  x1="51.3005"
                  y1="90.9521"
                  x2="51.3005"
                  y2="82.4675"/>
         </g>
      </g>
      <g id="uuid-57b23bfd-c779-4c74-a523-5d98e803d59b"
         data-name="Artwork 20 no white">
         <g class="uuid-57e68205-6fb4-416e-afa7-7bfd9a0986d2">
            <g class="uuid-d5a7f6f6-99a9-4608-a78d-9fac2e012ef1">
               <line class="uuid-874f1128-ef7d-40fa-adab-3d029e067473"
                     x1="71.5911"
                     y1="93.4879"
                     x2="86.2211"
                     y2="86.7219"/>
               <path d="m86.221,87.7262h0c-.55,0-1-.45-1-1,0-.551.45-1,1-1s1,.449,1,1c0,.55-.45,1-1,1"/>
               <path d="m71.5911,87.7262h0c-.55,0-1-.45-1-1,0-.551.45-1,1-1s1,.449,1,1c0,.55-.45,1-1,1"/>
            </g>
         </g>
      </g>
      <text class="uuid-c7d16019-e693-4f19-a29b-145246efaf31"
            transform="translate(205.4371 34.6145)">
         <tspan x="0" y="0">OUTPUT</tspan>
      </text>
      <text class="uuid-c7d16019-e693-4f19-a29b-145246efaf31"
            transform="translate(14.5786 24.6718)">
         <tspan x="0" y="0">RECTIFIER</tspan>
         <tspan x="10.2783" y="12">MAINS</tspan>
      </text>
      <text class="uuid-c7d16019-e693-4f19-a29b-145246efaf31"
            transform="translate(98.8751 24.6715)">
         <tspan x="0" y="0">RECTIFIER</tspan>
      </text>
      <g>
         <path class="uuid-3cd9f144-d5f4-42fc-a435-a85d67573ba4"
               d="m15.6509,65.232v-7.1582h5.3076v1.2109h-3.8623v1.5869h3.5938v1.2061h-3.5938v1.9482h3.999v1.2061h-5.4443Z"/>
         <path class="uuid-3cd9f144-d5f4-42fc-a435-a85d67573ba4"
               d="m21.5933,65.232l2.4463-3.7354-2.2168-3.4229h1.6895l1.4355,2.2998,1.4062-2.2998h1.6748l-2.2266,3.4766,2.4463,3.6816h-1.7432l-1.5869-2.4756-1.5918,2.4756h-1.7334Z"/>
         <path class="uuid-3cd9f144-d5f4-42fc-a435-a85d67573ba4"
               d="m30.6021,65.232v-5.9473h-2.124v-1.2109h5.6885v1.2109h-2.1191v5.9473h-1.4453Z"/>
         <path class="uuid-3cd9f144-d5f4-42fc-a435-a85d67573ba4"
               d="m35.0992,65.232v-7.1582h5.3076v1.2109h-3.8623v1.5869h3.5938v1.2061h-3.5938v1.9482h3.999v1.2061h-5.4443Z"/>
         <path class="uuid-3cd9f144-d5f4-42fc-a435-a85d67573ba4"
               d="m41.774,65.232v-7.1582h3.042c.7646,0,1.3203.0645,1.667.1934.3467.1279.624.3574.833.6855.208.3291.3125.7051.3125,1.1279,0,.5371-.1582.9805-.4736,1.3311-.3164.3496-.7881.5703-1.416.6611.3125.1826.5703.3828.7734.6006.2041.2188.4775.6055.8232,1.1621l.874,1.3965h-1.7285l-1.0449-1.5576c-.3711-.5566-.625-.9072-.7617-1.0518-.1367-.1455-.2822-.2441-.4346-.2979-.1533-.0537-.3955-.0811-.7275-.0811h-.293v2.9883h-1.4453Zm1.4453-4.1309h1.0693c.6934,0,1.126-.0293,1.2988-.0879.1719-.0586.3076-.1592.4053-.3027.0977-.1426.1465-.3223.1465-.5371,0-.2402-.0645-.4355-.1934-.583-.1279-.1484-.3096-.2422-.5439-.2812-.1172-.0156-.4688-.0244-1.0547-.0244h-1.1279v1.8164Z"/>
         <path class="uuid-3cd9f144-d5f4-42fc-a435-a85d67573ba4"
               d="m49.0054,65.232v-7.1582h1.4062l2.9297,4.7803v-4.7803h1.3428v7.1582h-1.4502l-2.8857-4.668v4.668h-1.3428Z"/>
         <path class="uuid-3cd9f144-d5f4-42fc-a435-a85d67573ba4"
               d="m62.6675,65.232h-1.5723l-.625-1.626h-2.8613l-.5908,1.626h-1.5332l2.7881-7.1582h1.5283l2.8662,7.1582Zm-2.6611-2.832l-.9863-2.6562-.9668,2.6562h1.9531Z"/>
         <path class="uuid-3cd9f144-d5f4-42fc-a435-a85d67573ba4"
               d="m63.4732,65.232v-7.0996h1.4453v5.8936h3.5938v1.2061h-5.0391Z"/>
         <path class="uuid-3cd9f144-d5f4-42fc-a435-a85d67573ba4"
               d="m18.9908,70.0738h2.8613c.5664,0,.9883.0234,1.2666.0713.2783.0469.5273.1455.7471.2949.2197.1504.4033.3496.5498.5986s.2197.5283.2197.8369c0,.3359-.0908.6436-.2715.9229-.1807.2803-.4258.4902-.7344.6299.4355.127.7715.3438,1.0059.6494.2344.3066.3516.666.3516,1.0791,0,.3262-.0762.6426-.2275.9502s-.3574.5527-.6201.7373c-.2617.1836-.585.2969-.9688.3389-.2412.0264-.8223.043-1.7432.0488h-2.4365v-7.1582Zm1.4453,1.1914v1.6553h.9473c.5625,0,.9131-.0078,1.0498-.0244.2471-.0293.4414-.1143.583-.2559s.2129-.3281.2129-.5596c0-.2207-.0615-.4014-.1836-.5391-.1221-.1387-.3037-.2227-.5439-.252-.1436-.0156-.5557-.0244-1.2354-.0244h-.8301Zm0,2.8467v1.9141h1.3379c.5205,0,.8506-.0146.9912-.0439.2148-.0391.3896-.1338.5244-.2852.1357-.1514.2031-.3545.2031-.6084,0-.2148-.0527-.3965-.1562-.5469-.1045-.1494-.2549-.2588-.4521-.3271-.1963-.0684-.624-.1025-1.2812-.1025h-1.167Z"/>
         <path class="uuid-3cd9f144-d5f4-42fc-a435-a85d67573ba4"
               d="m32.6626,77.232h-1.5723l-.625-1.626h-2.8613l-.5908,1.626h-1.5332l2.7881-7.1582h1.5283l2.8662,7.1582Zm-2.6611-2.832l-.9863-2.6562-.9668,2.6562h1.9531Z"/>
         <path class="uuid-3cd9f144-d5f4-42fc-a435-a85d67573ba4"
               d="m35.0406,77.232v-5.9473h-2.124v-1.2109h5.6885v1.2109h-2.1191v5.9473h-1.4453Z"/>
         <path class="uuid-3cd9f144-d5f4-42fc-a435-a85d67573ba4"
               d="m41.149,77.232v-5.9473h-2.124v-1.2109h5.6885v1.2109h-2.1191v5.9473h-1.4453Z"/>
         <path class="uuid-3cd9f144-d5f4-42fc-a435-a85d67573ba4"
               d="m45.646,77.232v-7.1582h5.3076v1.2109h-3.8623v1.5869h3.5938v1.2061h-3.5938v1.9482h3.999v1.2061h-5.4443Z"/>
         <path class="uuid-3cd9f144-d5f4-42fc-a435-a85d67573ba4"
               d="m52.3209,77.232v-7.1582h3.042c.7646,0,1.3203.0645,1.667.1934.3467.1279.624.3574.833.6855.208.3291.3125.7051.3125,1.1279,0,.5371-.1582.9805-.4736,1.3311-.3164.3496-.7881.5703-1.416.6611.3125.1826.5703.3828.7734.6006.2041.2188.4775.6055.8232,1.1621l.874,1.3965h-1.7285l-1.0449-1.5576c-.3711-.5566-.625-.9072-.7617-1.0518-.1367-.1455-.2822-.2441-.4346-.2979-.1533-.0537-.3955-.0811-.7275-.0811h-.293v2.9883h-1.4453Zm1.4453-4.1309h1.0693c.6934,0,1.126-.0293,1.2988-.0879.1719-.0586.3076-.1592.4053-.3027.0977-.1426.1465-.3223.1465-.5371,0-.2402-.0645-.4355-.1934-.583-.1279-.1484-.3096-.2422-.5439-.2812-.1172-.0156-.4688-.0244-1.0547-.0244h-1.1279v1.8164Z"/>
         <path class="uuid-3cd9f144-d5f4-42fc-a435-a85d67573ba4"
               d="m61.4175,77.232v-3.0127l-2.6221-4.1455h1.6943l1.6846,2.832,1.6504-2.832h1.665l-2.6318,4.1553v3.0029h-1.4404Z"/>
      </g>
      <g id="uuid-46c9a6e4-78f7-41b3-8a93-a1fdbb8f0c05"
         data-name="Artwork 20 no white">
         <g class="uuid-40c4399e-a784-4079-a07d-dcfef2023bd9">
            <g class="uuid-1da3b66e-d650-44d3-a13b-ca149302a3eb">
               <line class="uuid-874f1128-ef7d-40fa-adab-3d029e067473"
                     x1="192.0851"
                     y1="53.4581"
                     x2="206.7151"
                     y2="46.6921"/>
               <path d="m206.715,47.6964h0c-.55,0-1-.45-1-1,0-.551.45-1,1-1s1,.449,1,1c0,.55-.45,1-1,1"/>
               <path d="m192.0851,47.6964h0c-.55,0-1-.45-1-1,0-.551.45-1,1-1s1,.449,1,1c0,.55-.45,1-1,1"/>
            </g>
         </g>
      </g>
      <path class="uuid-c2351d72-e6d3-489f-9ab2-19237c7cf329"
            d="m193.5261,61.1121l-1.1797-.9141c.375-.4219.7656-.8252,1.1719-1.2109.1611-.1562.2627-.2549.3047-.2969-.1299-.0205-.5029-.1064-1.1172-.2578-.4424-.1094-.7344-.1895-.875-.2422l.4609-1.375c.6826.2764,1.292.5811,1.8281.9141-.125-.8486-.1875-1.541-.1875-2.0781h1.3906c0,.3809-.0703,1.0781-.2109,2.0938.1045-.041.3281-.1426.6719-.3047.4688-.2129.9014-.3955,1.2969-.5469l.4141,1.4141c-.5781.1309-1.2471.2578-2.0078.3828l.9375,1.0547c.1875.2139.3359.3887.4453.5234l-1.1953.7891-1.0547-1.7422c-.3174.5625-.6826,1.1621-1.0938,1.7969Z"/>
   </g>
</svg>
