<?xml version="1.0" encoding="UTF-8"?>
<svg xmlns="http://www.w3.org/2000/svg"
 id="Layer_4"
     data-name="Layer 4"
     width="180.6693mm"
     height="92mm"
     viewBox="0 0 512.1335 260.7874">
   <defs>
      <style>
      .cls-1 {
        font-size: 12.0345px;
      }

      .cls-1, .cls-2 {
        font-family: ArialMT, Arial;
      }

      .cls-3 {
        fill: #3c57a6;
        stroke-width: .25px;
      }

      .cls-3, .cls-4, .cls-5 {
        stroke: #000;
        stroke-linecap: round;
        stroke-linejoin: round;
      }

      .cls-2 {
        font-size: 6.2537px;
      }

      .cls-4 {
        fill: #e3e8d6;
      }

      .cls-4, .cls-5 {
        stroke-width: .3978px;
      }

      .cls-5 {
        fill: none;
      }
    </style>
   </defs>
   <g id="LINE">
      <line class="cls-5"
            x1="23.5647"
            y1="178.8483"
            x2="23.5647"
            y2="182.0451"/>
   </g>
   <g id="LINE-2" data-name="LINE">
      <line class="cls-5"
            x1="23.5647"
            y1="192.4124"
            x2="23.5647"
            y2="195.566"/>
   </g>
   <g id="LWPOLYLINE">
      <polygon class="cls-5"
               points="16.3076 3.7277 30.8218 3.7277 23.5647 15.1317 16.3076 3.7277"/>
   </g>
   <g id="LWPOLYLINE-2" data-name="LWPOLYLINE">
      <polygon class="cls-5"
               points="247.4982 235.955 247.4982 250.4692 258.9022 243.2121 247.4982 235.955"/>
   </g>
   <g id="LINE-3" data-name="LINE">
      <line class="cls-5"
            x1="23.5647"
            y1="15.3744"
            x2="23.5647"
            y2="20.7804"/>
   </g>
   <g id="LINE-4" data-name="LINE">
      <line class="cls-5"
            x1="23.5647"
            y1="230.3029"
            x2="23.5647"
            y2="243.2121"/>
   </g>
   <g id="LINE-5" data-name="LINE">
      <line class="cls-5"
            x1="23.5647"
            y1="243.2121"
            x2="247.4982"
            y2="243.2121"/>
   </g>
   <g id="LINE-6" data-name="LINE">
      <line class="cls-5"
            x1="6.1182"
            y1="176.6836"
            x2="45.1063"
            y2="137.5927"/>
   </g>
   <g id="LINE-7" data-name="LINE">
      <line class="cls-5"
            x1="11.124"
            y1="143.6861"
            x2="24.6015"
            y2="143.6861"/>
   </g>
   <g id="LINE-8" data-name="LINE">
      <line class="cls-5"
            x1="11.124"
            y1="145.5523"
            x2="14.7996"
            y2="145.5523"/>
   </g>
   <g id="LINE-9" data-name="LINE">
      <line class="cls-5"
            x1="16.0249"
            y1="145.5523"
            x2="19.7006"
            y2="145.5523"/>
   </g>
   <g id="LINE-10" data-name="LINE">
      <line class="cls-5"
            x1="20.9258"
            y1="145.5523"
            x2="24.6015"
            y2="145.5523"/>
   </g>
   <g id="ELLIPSE">
      <path class="cls-5"
            d="M32.6361,155.0902c-1.8609,0-3.3694,1.6246-3.3694,3.6286"/>
   </g>
   <g id="ELLIPSE-2" data-name="ELLIPSE">
      <path class="cls-5" d="M36.0055,158.7187c0-2.004-1.5085-3.6286-3.3694-3.6286"/>
   </g>
   <g id="ELLIPSE-3" data-name="ELLIPSE">
      <path class="cls-5" d="M36.0055,158.7187c0,2.004,1.5085,3.6286,3.3694,3.6286"/>
   </g>
   <g id="ELLIPSE-4" data-name="ELLIPSE">
      <path class="cls-5"
            d="M39.3748,162.3473c1.8609,0,3.3694-1.6246,3.3694-3.6286"/>
   </g>
   <g id="LWPOLYLINE-3" data-name="LWPOLYLINE">
      <rect class="cls-5"
            x="4.9036"
            y="136.429"
            width="41.4692"
            height="41.4692"
            rx="4.1469"
            ry="4.1469"/>
   </g>
   <g id="LINE-11" data-name="LINE">
      <line class="cls-5"
            x1="18.3811"
            y1="209.0001"
            x2="10.0872"
            y2="209.0001"/>
   </g>
   <g id="LINE-12" data-name="LINE">
      <line class="cls-5"
            x1="18.3811"
            y1="211.0735"
            x2="15.2709"
            y2="211.0735"/>
   </g>
   <g id="LINE-13" data-name="LINE">
      <line class="cls-5"
            x1="29.1631"
            y1="217.2939"
            x2="37.4569"
            y2="217.2939"/>
   </g>
   <g id="LINE-14" data-name="LINE">
      <line class="cls-5"
            x1="29.1631"
            y1="215.2205"
            x2="32.2732"
            y2="215.2205"/>
   </g>
   <g id="LWPOLYLINE-4" data-name="LWPOLYLINE">
      <rect class="cls-5"
            x="6.9771"
            y="196.5593"
            width="33.1753"
            height="33.1753"
            rx="4.1469"
            ry="4.1469"/>
   </g>
   <g id="LWPOLYLINE-5" data-name="LWPOLYLINE">
      <rect class="cls-5"
            x="14.2342"
            y="203.6091"
            width="19.0758"
            height="18.8685"
            rx="3.1102"
            ry="3.1102"/>
   </g>
   <g id="LWPOLYLINE-6" data-name="LWPOLYLINE">
      <polygon class="cls-5"
               points="18.3811 217.2939 10.0872 217.2939 14.2342 209.0001 18.3811 217.2939"/>
   </g>
   <g id="LWPOLYLINE-7" data-name="LWPOLYLINE">
      <polygon class="cls-5"
               points="29.1631 209.0001 37.4569 209.0001 33.31 217.2939 29.1631 209.0001"/>
   </g>
   <g id="LWPOLYLINE-8" data-name="LWPOLYLINE">
      <rect class="cls-5"
            x="9.0505"
            y="21.3521"
            width="29.0284"
            height="29.0284"
            rx="4.1469"
            ry="4.1469"/>
   </g>
   <g id="TEXT">
      <text class="cls-1" transform="translate(42.2881 218.0433)">
         <tspan x="0" y="0">EA</tspan>
      </text>
   </g>
   <g id="TEXT-2" data-name="TEXT">
      <text class="cls-2" transform="translate(23.9688 46.4612)">
         <tspan x="0" y="0">OFF</tspan>
      </text>
   </g>
   <g id="TEXT-3" data-name="TEXT">
      <text class="cls-2" transform="translate(27.0596 30.4446)">
         <tspan x="0" y="0">ON</tspan>
      </text>
   </g>
   <g id="CIRCLE">
      <path class="cls-5"
            d="M18.3811,187.2288c0-2.8628,2.3208-5.1836,5.1836-5.1836s5.1836,2.3208,5.1836,5.1836-2.3208,5.1836-5.1836,5.1836-5.1836-2.3208-5.1836-5.1836h0Z"/>
   </g>
   <g id="CIRCLE-2" data-name="CIRCLE">
      <path class="cls-4"
            d="M19.4178,187.2288c0-2.2903,1.8566-4.1469,4.1469-4.1469s4.1469,1.8566,4.1469,4.1469-1.8566,4.1469-4.1469,4.1469-4.1469-1.8566-4.1469-4.1469h0Z"/>
   </g>
   <g id="CIRCLE-3" data-name="CIRCLE">
      <path class="cls-4"
            d="M19.4178,170.6411c0-2.2903,1.8566-4.1469,4.1469-4.1469s4.1469,1.8566,4.1469,4.1469-1.8566,4.1469-4.1469,4.1469-4.1469-1.8566-4.1469-4.1469h0Z"/>
   </g>
   <g id="CIRCLE-4" data-name="CIRCLE">
      <path class="cls-3"
            d="M32.8953,170.6411c0-2.2903,1.8566-4.1469,4.1469-4.1469s4.1469,1.8566,4.1469,4.1469-1.8566,4.1469-4.1469,4.1469-4.1469-1.8566-4.1469-4.1469h0Z"/>
   </g>
   <g id="CIRCLE-5" data-name="CIRCLE">
      <path class="cls-4"
            d="M19.4178,214.1837c0-2.2903,1.8566-4.1469,4.1469-4.1469s4.1469,1.8566,4.1469,4.1469-1.8566,4.1469-4.1469,4.1469-4.1469-1.8566-4.1469-4.1469h0Z"/>
   </g>
   <g id="CIRCLE-6" data-name="CIRCLE">
      <path class="cls-5"
            d="M12.8359,40.0417c0-2.2903,1.8566-4.1469,4.1469-4.1469s4.1469,1.8566,4.1469,4.1469-1.8566,4.1469-4.1469,4.1469-4.1469-1.8566-4.1469-4.1469h0Z"/>
   </g>
   <g id="CIRCLE-7" data-name="CIRCLE">
      <path class="cls-4"
            d="M12.8359,29.6744c0-2.2903,1.8566-4.1469,4.1469-4.1469s4.1469,1.8566,4.1469,4.1469-1.8566,4.1469-4.1469,4.1469-4.1469-1.8566-4.1469-4.1469h0Z"/>
   </g>
   <g id="LINE-15" data-name="LINE">
      <line class="cls-5"
            x1="23.7115"
            y1="50.3805"
            x2="23.7115"
            y2="135.7122"/>
   </g>
</svg>
