<?xml version="1.0" encoding="UTF-8"?>
<svg xmlns="http://www.w3.org/2000/svg"
     xmlns:xlink="http://www.w3.org/1999/xlink"
     width="95mm"
     height="37mm"
     viewBox="0 0 269.2913 104.8819">
   <defs>
      <style>
      .uuid-776429af-f306-4f00-bae3-6a04c2fd4644 {
        clip-path: url(#uuid-e4480558-0a78-44f7-9fba-435ee48a1285);
      }

      .uuid-9c1dec77-938b-4a10-a57f-b2fe88e99152 {
        clip-path: url(#uuid-359396e6-c48c-4c2d-b2b6-c5f1914a4a04);
      }

      .uuid-84afde08-1110-44a2-bb24-9c908f79526c, .uuid-7cadf8f2-2665-4cd2-9f9a-823ed112d923 {
        fill: #fff;
      }

      .uuid-f1bedffc-c137-4e97-9e5e-f3156f14c115 {
        clip-path: url(#uuid-3f03e342-a103-4ca9-bf18-07687bc1b2ed);
      }

      .uuid-340adcba-ce43-4534-a882-2fcbf884292f {
        stroke-width: 1.2522px;
      }

      .uuid-340adcba-ce43-4534-a882-2fcbf884292f, .uuid-b201a20e-c6ec-4c89-8c51-53a42105d124, .uuid-59877f70-7fb4-4a2d-8bcd-4b35775d3ae2, .uuid-a78a081d-18e0-4c6a-9d68-796ce1a23b04, .uuid-54a28257-4097-4798-bd80-6fff4b0714d3, .uuid-1d8331b3-a5ab-4380-a334-3a1b58f017c5, .uuid-07a4ffd7-5347-4c08-b960-0d1d0d12b5bf, .uuid-7fb74e85-5619-422e-aba8-91259707348f, .uuid-bd126f5d-9bbb-432f-b73d-d64040c30b01, .uuid-316ced1a-d963-4b77-af7e-4a73880daa1b, .uuid-254a41ba-6a77-4a33-b894-cf9536b5e215, .uuid-493cf659-ae3a-4397-bb0e-dd2bb0375397 {
        fill: none;
      }

      .uuid-340adcba-ce43-4534-a882-2fcbf884292f, .uuid-b201a20e-c6ec-4c89-8c51-53a42105d124, .uuid-a78a081d-18e0-4c6a-9d68-796ce1a23b04, .uuid-54a28257-4097-4798-bd80-6fff4b0714d3, .uuid-07a4ffd7-5347-4c08-b960-0d1d0d12b5bf, .uuid-7fb74e85-5619-422e-aba8-91259707348f {
        stroke-miterlimit: 3;
      }

      .uuid-340adcba-ce43-4534-a882-2fcbf884292f, .uuid-59877f70-7fb4-4a2d-8bcd-4b35775d3ae2, .uuid-a78a081d-18e0-4c6a-9d68-796ce1a23b04, .uuid-54a28257-4097-4798-bd80-6fff4b0714d3, .uuid-1d8331b3-a5ab-4380-a334-3a1b58f017c5, .uuid-07a4ffd7-5347-4c08-b960-0d1d0d12b5bf, .uuid-7fb74e85-5619-422e-aba8-91259707348f, .uuid-316ced1a-d963-4b77-af7e-4a73880daa1b, .uuid-254a41ba-6a77-4a33-b894-cf9536b5e215, .uuid-493cf659-ae3a-4397-bb0e-dd2bb0375397 {
        stroke: #000;
      }

      .uuid-28f658ef-c87f-4609-ab1c-e4e2b900c51a {
        clip-path: url(#uuid-bd1ed377-4e59-4c0e-989d-c41105feaeae);
      }

      .uuid-9caefef9-9488-4ec3-9cb8-3c0d6ec5a778 {
        clip-path: url(#uuid-fd259f6f-3eb1-4f63-afb9-dbe026fd983d);
      }

      .uuid-b201a20e-c6ec-4c89-8c51-53a42105d124 {
        stroke: #c6c6c6;
        stroke-width: 5px;
      }

      .uuid-7cadf8f2-2665-4cd2-9f9a-823ed112d923 {
        fill-rule: evenodd;
      }

      .uuid-ae8cd06c-8911-40cd-acdc-89d5de1cc585 {
        clip-path: url(#uuid-e8231085-66ba-4443-aaa0-9834dfd4163d);
      }

      .uuid-2a1088dc-f68a-4de9-9d64-edd43de1be19 {
        clip-path: url(#uuid-e1a4e738-f099-4342-b648-53502de33413);
      }

      .uuid-dadd29a9-f1fa-488c-9705-523c351dfe34 {
        fill: #57b959;
      }

      .uuid-66d87a49-d8c0-485e-86e3-64f72f91ed4b {
        clip-path: url(#uuid-668a3600-e4ec-4d55-9d90-6681d6b3ee79);
      }

      .uuid-52e6d5b7-7cb0-4f31-8016-fc7e817a41c3, .uuid-804cc167-9ce1-42dd-bd47-8b8024c36487 {
        fill: #01889C;
      }

      .uuid-30fd0a8f-92cc-4e13-997b-0828d22d7499 {
        clip-path: url(#uuid-4abfe824-773b-4c9f-be1d-0a3af92713b2);
      }

      .uuid-95e5bc30-3d65-4d24-b001-12875ff0d9e2 {
        clip-path: url(#uuid-cba843d1-2306-4121-adc6-053e1894c164);
      }

      .uuid-59877f70-7fb4-4a2d-8bcd-4b35775d3ae2, .uuid-54a28257-4097-4798-bd80-6fff4b0714d3, .uuid-1d8331b3-a5ab-4380-a334-3a1b58f017c5, .uuid-316ced1a-d963-4b77-af7e-4a73880daa1b, .uuid-254a41ba-6a77-4a33-b894-cf9536b5e215, .uuid-493cf659-ae3a-4397-bb0e-dd2bb0375397 {
        stroke-width: .75px;
      }

      .uuid-59877f70-7fb4-4a2d-8bcd-4b35775d3ae2, .uuid-1d8331b3-a5ab-4380-a334-3a1b58f017c5, .uuid-316ced1a-d963-4b77-af7e-4a73880daa1b, .uuid-254a41ba-6a77-4a33-b894-cf9536b5e215, .uuid-493cf659-ae3a-4397-bb0e-dd2bb0375397 {
        stroke-miterlimit: 10;
      }

      .uuid-a78a081d-18e0-4c6a-9d68-796ce1a23b04 {
        stroke-dasharray: 0 0 2.0034 1.0017;
      }

      .uuid-a78a081d-18e0-4c6a-9d68-796ce1a23b04, .uuid-7fb74e85-5619-422e-aba8-91259707348f {
        stroke-width: .7513px;
      }

      .uuid-e624bb43-78db-47e4-8496-a670bc173ad8 {
        clip-path: url(#uuid-c6f1ecc4-49e7-4f24-aea6-c334e6882be7);
      }

      .uuid-49f27b81-b0ec-477c-9ba2-557ef36981eb {
        clip-path: url(#uuid-0aaf566b-a4f2-411d-be07-6ff7079de110);
      }

      .uuid-f89ee774-d74c-4213-a0a6-cb286ae91422 {
        clip-path: url(#uuid-cdb655ca-e9d0-4082-b47e-d473ba982b89);
      }

      .uuid-1d8331b3-a5ab-4380-a334-3a1b58f017c5 {
        stroke-dasharray: 0 0 5.9636 5.9636;
      }

      .uuid-2b423009-0963-4ce6-8988-e3543a42d824 {
        clip-path: url(#uuid-10ba5ce7-90d6-4299-a46e-d3a9ae91e4c8);
      }

      .uuid-6b4b2a07-30a0-4fa0-966e-bb64fe6b99fb {
        clip-path: url(#uuid-333b6b30-d226-4065-9db8-0699cf259718);
      }

      .uuid-07a4ffd7-5347-4c08-b960-0d1d0d12b5bf {
        stroke-width: .7087px;
      }

      .uuid-0838c58a-2a8e-4df2-b54e-0dee68d3b3e9 {
        clip-path: url(#uuid-48ae3ba2-184c-4f50-a725-340b3f5023e6);
      }

      .uuid-316ced1a-d963-4b77-af7e-4a73880daa1b {
        stroke-dasharray: 0 0 6.8059 6.8059;
      }

      .uuid-5f38d53d-0374-403a-978d-063c91b75eb5 {
        clip-path: url(#uuid-26a9a738-14f7-4b5f-8f95-e52a4795c3fe);
      }

      .uuid-254a41ba-6a77-4a33-b894-cf9536b5e215 {
        stroke-dasharray: 0 0 7.2959 7.2959;
      }

      .uuid-493cf659-ae3a-4397-bb0e-dd2bb0375397 {
        stroke-dasharray: 0 0 6 6;
      }

      .uuid-b2248cba-5c31-43c9-8ba6-4db10d32c1c6 {
        fill: #c6c6c6;
      }

      .uuid-045d4cc8-9ef5-4faf-8f4e-fb1756c606fc {
        clip-path: url(#uuid-1a1764a9-1cec-4ac2-ad1b-15a83154ac38);
      }

      .uuid-804cc167-9ce1-42dd-bd47-8b8024c36487 {
        font-family: Arial-BoldMT, Arial;
        font-size: 10px;
        font-weight: 700;
      }
    </style>
      <clipPath id="uuid-e8231085-66ba-4443-aaa0-9834dfd4163d">
         <rect class="uuid-bd126f5d-9bbb-432f-b73d-d64040c30b01"
               x="164.2417"
               y="40.5397"
               width="12.4579"
               height="12.1509"/>
      </clipPath>
      <clipPath id="uuid-10ba5ce7-90d6-4299-a46e-d3a9ae91e4c8">
         <rect class="uuid-bd126f5d-9bbb-432f-b73d-d64040c30b01"
               x="164.2417"
               y="40.5396"
               width="12.458"
               height="12.151"/>
      </clipPath>
      <clipPath id="uuid-cdb655ca-e9d0-4082-b47e-d473ba982b89">
         <rect class="uuid-bd126f5d-9bbb-432f-b73d-d64040c30b01"
               x="107.9488"
               y="26.827"
               width="35.4357"
               height="39.688"/>
      </clipPath>
      <clipPath id="uuid-4abfe824-773b-4c9f-be1d-0a3af92713b2">
         <rect class="uuid-bd126f5d-9bbb-432f-b73d-d64040c30b01"
               x="107.9488"
               y="26.827"
               width="35.4357"
               height="39.688"/>
      </clipPath>
      <clipPath id="uuid-c6f1ecc4-49e7-4f24-aea6-c334e6882be7">
         <rect class="uuid-bd126f5d-9bbb-432f-b73d-d64040c30b01"
               x="107.9488"
               y="26.827"
               width="35.4357"
               height="39.688"/>
      </clipPath>
      <clipPath id="uuid-cba843d1-2306-4121-adc6-053e1894c164">
         <rect class="uuid-bd126f5d-9bbb-432f-b73d-d64040c30b01"
               x="37.9051"
               y="43.6183"
               width="6.125"
               height="6.125"/>
      </clipPath>
      <clipPath id="uuid-359396e6-c48c-4c2d-b2b6-c5f1914a4a04">
         <rect class="uuid-bd126f5d-9bbb-432f-b73d-d64040c30b01"
               x="37.9051"
               y="43.6183"
               width="6.125"
               height="6.125"/>
      </clipPath>
      <clipPath id="uuid-333b6b30-d226-4065-9db8-0699cf259718">
         <rect class="uuid-bd126f5d-9bbb-432f-b73d-d64040c30b01"
               x="70.591"
               y="38.5466"
               width="16.63"
               height="16.2683"/>
      </clipPath>
      <clipPath id="uuid-668a3600-e4ec-4d55-9d90-6681d6b3ee79">
         <rect class="uuid-bd126f5d-9bbb-432f-b73d-d64040c30b01"
               x="70.591"
               y="38.5469"
               width="16.63"
               height="16.268"/>
      </clipPath>
      <clipPath id="uuid-3f03e342-a103-4ca9-bf18-07687bc1b2ed">
         <rect class="uuid-bd126f5d-9bbb-432f-b73d-d64040c30b01"
               x="222.9283"
               y="43.5526"
               width="6.125"
               height="6.125"/>
      </clipPath>
      <clipPath id="uuid-26a9a738-14f7-4b5f-8f95-e52a4795c3fe">
         <rect class="uuid-bd126f5d-9bbb-432f-b73d-d64040c30b01"
               x="222.9283"
               y="43.5526"
               width="6.125"
               height="6.125"/>
      </clipPath>
      <clipPath id="uuid-48ae3ba2-184c-4f50-a725-340b3f5023e6">
         <rect class="uuid-bd126f5d-9bbb-432f-b73d-d64040c30b01"
               x="37.9171"
               y="79.3333"
               width="15.6504"
               height="14.7535"/>
      </clipPath>
      <clipPath id="uuid-1a1764a9-1cec-4ac2-ad1b-15a83154ac38">
         <rect class="uuid-bd126f5d-9bbb-432f-b73d-d64040c30b01"
               x="37.9171"
               y="79.3334"
               width="15.6509"
               height="14.7534"/>
      </clipPath>
      <clipPath id="uuid-e1a4e738-f099-4342-b648-53502de33413">
         <rect class="uuid-bd126f5d-9bbb-432f-b73d-d64040c30b01"
               x="37.9171"
               y="79.3334"
               width="15.6509"
               height="14.7534"/>
      </clipPath>
      <clipPath id="uuid-fd259f6f-3eb1-4f63-afb9-dbe026fd983d">
         <rect class="uuid-bd126f5d-9bbb-432f-b73d-d64040c30b01"
               x="70.591"
               y="78.5764"
               width="16.63"
               height="16.2683"/>
      </clipPath>
      <clipPath id="uuid-bd1ed377-4e59-4c0e-989d-c41105feaeae">
         <rect class="uuid-bd126f5d-9bbb-432f-b73d-d64040c30b01"
               x="70.591"
               y="78.5767"
               width="16.63"
               height="16.268"/>
      </clipPath>
      <clipPath id="uuid-e4480558-0a78-44f7-9fba-435ee48a1285">
         <rect class="uuid-bd126f5d-9bbb-432f-b73d-d64040c30b01"
               x="191.085"
               y="38.5466"
               width="16.63"
               height="16.2683"/>
      </clipPath>
      <clipPath id="uuid-0aaf566b-a4f2-411d-be07-6ff7079de110">
         <rect class="uuid-bd126f5d-9bbb-432f-b73d-d64040c30b01"
               x="191.085"
               y="38.5469"
               width="16.63"
               height="16.268"/>
      </clipPath>
   </defs>
   <g id="uuid-91f3e77d-0aef-4e9f-887f-3049cb265bfc" data-name="Paths">
      <g>
         <polygon class="uuid-b2248cba-5c31-43c9-8ba6-4db10d32c1c6"
                  points="44.5324 49.44 41.1648 49.44 44.7868 44.9035 48.1543 44.9035 44.5324 49.44"/>
         <polygon class="uuid-b2248cba-5c31-43c9-8ba6-4db10d32c1c6"
                  points="51.6594 49.44 48.2918 49.44 51.9138 44.9035 55.2813 44.9035 51.6594 49.44"/>
         <polygon class="uuid-b2248cba-5c31-43c9-8ba6-4db10d32c1c6"
                  points="58.7864 49.44 55.4188 49.44 59.0408 44.9035 62.4083 44.9035 58.7864 49.44"/>
         <polygon class="uuid-b2248cba-5c31-43c9-8ba6-4db10d32c1c6"
                  points="65.9134 49.44 62.5458 49.44 66.1678 44.9035 69.5354 44.9035 65.9134 49.44"/>
         <polygon class="uuid-b2248cba-5c31-43c9-8ba6-4db10d32c1c6"
                  points="73.0404 49.44 69.6728 49.44 73.2948 44.9035 76.6624 44.9035 73.0404 49.44"/>
         <polygon class="uuid-b2248cba-5c31-43c9-8ba6-4db10d32c1c6"
                  points="80.1674 49.44 76.7999 49.44 80.4218 44.9035 83.7894 44.9035 80.1674 49.44"/>
         <polygon class="uuid-b2248cba-5c31-43c9-8ba6-4db10d32c1c6"
                  points="87.2944 49.44 83.9268 49.44 87.5488 44.9035 90.9164 44.9035 87.2944 49.44"/>
         <polygon class="uuid-b2248cba-5c31-43c9-8ba6-4db10d32c1c6"
                  points="94.4214 49.44 91.0539 49.44 94.6758 44.9035 98.0434 44.9035 94.4214 49.44"/>
         <polygon class="uuid-b2248cba-5c31-43c9-8ba6-4db10d32c1c6"
                  points="101.5484 49.44 98.1809 49.44 101.8028 44.9035 105.1704 44.9035 101.5484 49.44"/>
         <polygon class="uuid-b2248cba-5c31-43c9-8ba6-4db10d32c1c6"
                  points="108.6754 49.44 105.3079 49.44 108.9298 44.9035 112.2974 44.9035 108.6754 49.44"/>
         <polygon points="112.1431 48.169 113.8701 47.1717 112.1431 46.1745 112.1431 48.169"/>
      </g>
      <g>
         <polygon class="uuid-b2248cba-5c31-43c9-8ba6-4db10d32c1c6"
                  points="179.7805 49.44 176.413 49.44 180.0349 44.9034 183.4025 44.9034 179.7805 49.44"/>
         <polygon class="uuid-b2248cba-5c31-43c9-8ba6-4db10d32c1c6"
                  points="186.943 49.44 183.5754 49.44 187.1974 44.9034 190.5649 44.9034 186.943 49.44"/>
         <polygon class="uuid-b2248cba-5c31-43c9-8ba6-4db10d32c1c6"
                  points="194.1055 49.44 190.7379 49.44 194.3599 44.9034 197.7274 44.9034 194.1055 49.44"/>
         <polygon class="uuid-b2248cba-5c31-43c9-8ba6-4db10d32c1c6"
                  points="201.268 49.44 197.9004 49.44 201.5223 44.9034 204.8899 44.9034 201.268 49.44"/>
         <polygon class="uuid-b2248cba-5c31-43c9-8ba6-4db10d32c1c6"
                  points="208.4305 49.44 205.0629 49.44 208.6849 44.9034 212.0524 44.9034 208.4305 49.44"/>
         <polygon class="uuid-b2248cba-5c31-43c9-8ba6-4db10d32c1c6"
                  points="215.5929 49.44 212.2254 49.44 215.8473 44.9034 219.2149 44.9034 215.5929 49.44"/>
         <polygon class="uuid-b2248cba-5c31-43c9-8ba6-4db10d32c1c6"
                  points="222.7554 49.44 219.3879 49.44 223.0098 44.9034 226.3774 44.9034 222.7554 49.44"/>
         <polygon class="uuid-b2248cba-5c31-43c9-8ba6-4db10d32c1c6"
                  points="229.9179 49.44 226.5503 49.44 230.1723 44.9034 233.5398 44.9034 229.9179 49.44"/>
         <polygon class="uuid-b2248cba-5c31-43c9-8ba6-4db10d32c1c6"
                  points="237.0804 49.44 233.7128 49.44 237.3348 44.9034 240.7024 44.9034 237.0804 49.44"/>
         <polygon points="240.5835 48.169 242.3105 47.1717 240.5835 46.1745 240.5835 48.169"/>
      </g>
      <g id="uuid-c9490e0e-7401-4a47-a78a-ddc3326539de" data-name="Artwork 30">
         <g class="uuid-ae8cd06c-8911-40cd-acdc-89d5de1cc585">
            <g class="uuid-2b423009-0963-4ce6-8988-e3543a42d824">
               <line class="uuid-54a28257-4097-4798-bd80-6fff4b0714d3"
                     x1="176.0441"
                     y1="40.8942"
                     x2="176.0441"
                     y2="52.4472"/>
            </g>
            <path d="m165.484,41.9999l9.083,4.56-9.083,4.561v-9.121Zm-.75,10.337l11.506-5.777-11.506-5.776v11.553Z"/>
         </g>
      </g>
      <g>
         <polyline class="uuid-b201a20e-c6ec-4c89-8c51-53a42105d124"
                   points="38.8881 86.7726 242.3105 86.7726 242.3105 46.8875 257.1151 46.8875"/>
         <polygon class="uuid-b2248cba-5c31-43c9-8ba6-4db10d32c1c6"
                  points="255.6561 51.8739 264.2913 46.8875 255.6561 41.9012 255.6561 51.8739"/>
      </g>
      <path class="uuid-dadd29a9-f1fa-488c-9705-523c351dfe34"
            d="m193.5261,61.1121l-1.1797-.9141c.375-.4219.7656-.8252,1.1719-1.2109.1611-.1562.2627-.2549.3047-.2969-.1299-.0205-.5029-.1064-1.1172-.2578-.4424-.1094-.7344-.1895-.875-.2422l.4609-1.375c.6826.2764,1.292.5811,1.8281.9141-.125-.8486-.1875-1.541-.1875-2.0781h1.3906c0,.3809-.0703,1.0781-.2109,2.0938.1045-.041.3281-.1426.6719-.3047.4688-.2129.9014-.3955,1.2969-.5469l.4141,1.4141c-.5781.1309-1.2471.2578-2.0078.3828l.9375,1.0547c.1875.2139.3359.3887.4453.5234l-1.1953.7891-1.0547-1.7422c-.3174.5625-.6826,1.1621-1.0938,1.7969Z"/>
   </g>
   <g id="uuid-afaa579b-e150-474e-9b37-9aa820e57388" data-name="Diagrams">
      <path class="uuid-54a28257-4097-4798-bd80-6fff4b0714d3"
            d="m71.3225,46.7428h-29.4537"/>
      <g>
         <line class="uuid-59877f70-7fb4-4a2d-8bcd-4b35775d3ae2"
               x1="87.221"
               y1="86.7721"
               x2="90.221"
               y2="86.7721"/>
         <line class="uuid-1d8331b3-a5ab-4380-a334-3a1b58f017c5"
               x1="96.1846"
               y1="86.7721"
               x2="236.3288"
               y2="86.7721"/>
         <polyline class="uuid-59877f70-7fb4-4a2d-8bcd-4b35775d3ae2"
                   points="239.3106 86.7721 242.3106 86.7721 242.3106 83.7721"/>
         <line class="uuid-316ced1a-d963-4b77-af7e-4a73880daa1b"
               x1="242.3106"
               y1="76.9663"
               x2="242.3106"
               y2="53.1458"/>
         <line class="uuid-59877f70-7fb4-4a2d-8bcd-4b35775d3ae2"
               x1="242.3106"
               y1="49.7429"
               x2="242.3106"
               y2="46.7429"/>
      </g>
      <g>
         <line class="uuid-59877f70-7fb4-4a2d-8bcd-4b35775d3ae2"
               x1="256.2543"
               y1="46.6151"
               x2="253.2543"
               y2="46.6151"/>
         <line class="uuid-254a41ba-6a77-4a33-b894-cf9536b5e215"
               x1="245.9585"
               y1="46.6151"
               x2="235.0147"
               y2="46.6151"/>
         <line class="uuid-59877f70-7fb4-4a2d-8bcd-4b35775d3ae2"
               x1="231.3668"
               y1="46.6151"
               x2="228.3668"
               y2="46.6151"/>
      </g>
      <path class="uuid-54a28257-4097-4798-bd80-6fff4b0714d3"
            d="m191.8308,46.7428h-105.6205"/>
      <path class="uuid-54a28257-4097-4798-bd80-6fff4b0714d3"
            d="m225.9908,46.7428h-19.0836"/>
      <line class="uuid-493cf659-ae3a-4397-bb0e-dd2bb0375397"
            x1="71.3225"
            y1="86.7726"
            x2="53.2496"
            y2="86.7726"/>
   </g>
   <g id="uuid-4b2f4f76-77fb-4531-9de0-40d69ec09ece" data-name="Symbols">
      <g id="uuid-33e971b9-a026-4806-9718-9237b55d512c" data-name="Rectifier">
         <g class="uuid-f89ee774-d74c-4213-a0a6-cb286ae91422">
            <rect class="uuid-84afde08-1110-44a2-bb24-9c908f79526c"
                  x="108.6584"
                  y="29.6628"
                  width="34.0183"
                  height="34.0183"/>
            <g class="uuid-30fd0a8f-92cc-4e13-997b-0828d22d7499">
               <rect class="uuid-07a4ffd7-5347-4c08-b960-0d1d0d12b5bf"
                     x="108.6584"
                     y="29.6628"
                     width="34.0183"
                     height="34.0183"/>
               <line class="uuid-07a4ffd7-5347-4c08-b960-0d1d0d12b5bf"
                     x1="142.674"
                     y1="29.6605"
                     x2="108.6566"
                     y2="63.6788"/>
            </g>
            <line class="uuid-07a4ffd7-5347-4c08-b960-0d1d0d12b5bf"
                  x1="138.956"
                  y1="56.2369"
                  x2="129.3931"
                  y2="56.2369"/>
            <line class="uuid-07a4ffd7-5347-4c08-b960-0d1d0d12b5bf"
                  x1="131.6446"
                  y1="58.363"
                  x2="129.3937"
                  y2="58.363"/>
            <line class="uuid-07a4ffd7-5347-4c08-b960-0d1d0d12b5bf"
                  x1="135.3002"
                  y1="58.363"
                  x2="133.0494"
                  y2="58.363"/>
            <line class="uuid-07a4ffd7-5347-4c08-b960-0d1d0d12b5bf"
                  x1="138.956"
                  y1="58.363"
                  x2="136.7051"
                  y2="58.363"/>
            <g class="uuid-e624bb43-78db-47e4-8496-a670bc173ad8">
               <path class="uuid-07a4ffd7-5347-4c08-b960-0d1d0d12b5bf"
                     d="m112.4106,35.5614c.1332-1.1935,1.0858-2.0061,2.1261-2.0061,1.0413,0,1.871.5301,2.1261,2.0061.2551,1.476,1.2322,2.0042,2.1261,2.0042s2.0175-.8297,2.1261-2.0042"/>
            </g>
         </g>
      </g>
      <g id="uuid-625fd464-1f07-4426-a77b-f36bdc93693d" data-name="Artwork 13">
         <g class="uuid-95e5bc30-3d65-4d24-b001-12875ff0d9e2">
            <g class="uuid-9c1dec77-938b-4a10-a57f-b2fe88e99152">
               <path class="uuid-7cadf8f2-2665-4cd2-9f9a-823ed112d923"
                     d="m40.9675,44.6812c1.104,0,2,.896,2,2s-.896,2-2,2-2-.896-2-2,.896-2,2-2"/>
               <circle class="uuid-54a28257-4097-4798-bd80-6fff4b0714d3"
                       cx="40.9675"
                       cy="46.6812"
                       r="2"/>
            </g>
         </g>
      </g>
      <g id="uuid-02ac493c-0fe2-4751-bb99-bb424fbe5b9a"
         data-name="Artwork 20 no white">
         <g class="uuid-6b4b2a07-30a0-4fa0-966e-bb64fe6b99fb">
            <g class="uuid-66d87a49-d8c0-485e-86e3-64f72f91ed4b">
               <line class="uuid-54a28257-4097-4798-bd80-6fff4b0714d3"
                     x1="71.5911"
                     y1="53.4581"
                     x2="86.2211"
                     y2="46.6921"/>
               <path d="m86.221,47.6964h0c-.55,0-1-.45-1-1,0-.551.45-1,1-1s1,.449,1,1c0,.55-.45,1-1,1"/>
               <path d="m71.5911,47.6964h0c-.55,0-1-.45-1-1,0-.551.45-1,1-1s1,.449,1,1c0,.55-.45,1-1,1"/>
            </g>
         </g>
      </g>
      <g id="uuid-a11fad85-ef84-4304-a62d-a0c0e0a02c8d" data-name="Artwork 13">
         <g class="uuid-f1bedffc-c137-4e97-9e5e-f3156f14c115">
            <g class="uuid-5f38d53d-0374-403a-978d-063c91b75eb5">
               <path class="uuid-7cadf8f2-2665-4cd2-9f9a-823ed112d923"
                     d="m225.9907,44.6155c1.104,0,2,.896,2,2s-.896,2-2,2-2-.896-2-2,.896-2,2-2"/>
               <circle class="uuid-54a28257-4097-4798-bd80-6fff4b0714d3"
                       cx="225.9907"
                       cy="46.6155"
                       r="2"/>
            </g>
         </g>
      </g>
      <g id="uuid-27b4b316-5dfb-44bb-8558-8edc4761d062" data-name="Artwork 8">
         <g class="uuid-0838c58a-2a8e-4df2-b54e-0dee68d3b3e9">
            <g class="uuid-045d4cc8-9ef5-4faf-8f4e-fb1756c606fc">
               <line class="uuid-7fb74e85-5619-422e-aba8-91259707348f"
                     x1="40.5535"
                     y1="94.0947"
                     x2="40.5535"
                     y2="79.3413"/>
               <line class="uuid-340adcba-ce43-4534-a882-2fcbf884292f"
                     x1="38.5354"
                     y1="90.9604"
                     x2="38.5354"
                     y2="82.4758"/>
            </g>
            <line class="uuid-a78a081d-18e0-4c6a-9d68-796ce1a23b04"
                  x1="40.3197"
                  y1="86.7099"
                  x2="51.3006"
                  y2="86.7099"/>
            <g class="uuid-2a1088dc-f68a-4de9-9d64-edd43de1be19">
               <line class="uuid-7fb74e85-5619-422e-aba8-91259707348f"
                     x1="53.3186"
                     y1="94.0868"
                     x2="53.3186"
                     y2="79.3334"/>
            </g>
            <line class="uuid-340adcba-ce43-4534-a882-2fcbf884292f"
                  x1="51.3005"
                  y1="90.9521"
                  x2="51.3005"
                  y2="82.4675"/>
         </g>
      </g>
      <g id="uuid-310f44eb-5c31-401d-8745-4310c8c4b001"
         data-name="Artwork 20 no white">
         <g class="uuid-9caefef9-9488-4ec3-9cb8-3c0d6ec5a778">
            <g class="uuid-28f658ef-c87f-4609-ab1c-e4e2b900c51a">
               <line class="uuid-54a28257-4097-4798-bd80-6fff4b0714d3"
                     x1="71.5911"
                     y1="93.4879"
                     x2="86.2211"
                     y2="86.7219"/>
               <path d="m86.221,87.7262h0c-.55,0-1-.45-1-1,0-.551.45-1,1-1s1,.449,1,1c0,.55-.45,1-1,1"/>
               <path d="m71.5911,87.7262h0c-.55,0-1-.45-1-1,0-.551.45-1,1-1s1,.449,1,1c0,.55-.45,1-1,1"/>
            </g>
         </g>
      </g>
      <text class="uuid-804cc167-9ce1-42dd-bd47-8b8024c36487"
            transform="translate(205.4371 34.6145)">
         <tspan x="0" y="0">OUTPUT</tspan>
      </text>
      <text class="uuid-804cc167-9ce1-42dd-bd47-8b8024c36487"
            transform="translate(14.5786 24.6718)">
         <tspan x="0" y="0">RECTIFIER</tspan>
         <tspan x="10.2783" y="12">MAINS</tspan>
      </text>
      <text class="uuid-804cc167-9ce1-42dd-bd47-8b8024c36487"
            transform="translate(98.8751 24.6715)">
         <tspan x="0" y="0">RECTIFIER</tspan>
      </text>
      <g>
         <path class="uuid-52e6d5b7-7cb0-4f31-8016-fc7e817a41c3"
               d="m15.6509,65.2326v-7.1582h5.3076v1.2109h-3.8623v1.5869h3.5938v1.2061h-3.5938v1.9482h3.999v1.2061h-5.4443Z"/>
         <path class="uuid-52e6d5b7-7cb0-4f31-8016-fc7e817a41c3"
               d="m21.5933,65.2326l2.4463-3.7354-2.2168-3.4229h1.6895l1.4355,2.2998,1.4062-2.2998h1.6748l-2.2266,3.4766,2.4463,3.6816h-1.7432l-1.5869-2.4756-1.5918,2.4756h-1.7334Z"/>
         <path class="uuid-52e6d5b7-7cb0-4f31-8016-fc7e817a41c3"
               d="m30.6021,65.2326v-5.9473h-2.124v-1.2109h5.6885v1.2109h-2.1191v5.9473h-1.4453Z"/>
         <path class="uuid-52e6d5b7-7cb0-4f31-8016-fc7e817a41c3"
               d="m35.0992,65.2326v-7.1582h5.3076v1.2109h-3.8623v1.5869h3.5938v1.2061h-3.5938v1.9482h3.999v1.2061h-5.4443Z"/>
         <path class="uuid-52e6d5b7-7cb0-4f31-8016-fc7e817a41c3"
               d="m41.774,65.2326v-7.1582h3.042c.7646,0,1.3203.0645,1.667.1924.3467.1289.624.3574.833.6865.208.3281.3125.7041.3125,1.1279,0,.5371-.1582.9805-.4736,1.3301-.3164.3506-.7881.5703-1.416.6621.3125.1816.5703.3818.7734.6006.2041.2178.4775.6055.8232,1.1621l.874,1.3965h-1.7285l-1.0449-1.5576c-.3711-.5566-.625-.9072-.7617-1.0527-.1367-.1445-.2822-.2441-.4346-.2979-.1533-.0537-.3955-.0801-.7275-.0801h-.293v2.9883h-1.4453Zm1.4453-4.1309h1.0693c.6934,0,1.126-.0293,1.2988-.0879.1719-.0586.3076-.1602.4053-.3027.0977-.1436.1465-.3223.1465-.5371,0-.2412-.0645-.4355-.1934-.584-.1279-.1475-.3096-.2412-.5439-.2803-.1172-.0166-.4688-.0244-1.0547-.0244h-1.1279v1.8164Z"/>
         <path class="uuid-52e6d5b7-7cb0-4f31-8016-fc7e817a41c3"
               d="m49.0054,65.2326v-7.1582h1.4062l2.9297,4.7803v-4.7803h1.3428v7.1582h-1.4502l-2.8857-4.668v4.668h-1.3428Z"/>
         <path class="uuid-52e6d5b7-7cb0-4f31-8016-fc7e817a41c3"
               d="m62.6675,65.2326h-1.5723l-.625-1.626h-2.8613l-.5908,1.626h-1.5332l2.7881-7.1582h1.5283l2.8662,7.1582Zm-2.6611-2.832l-.9863-2.6562-.9668,2.6562h1.9531Z"/>
         <path class="uuid-52e6d5b7-7cb0-4f31-8016-fc7e817a41c3"
               d="m63.4732,65.2326v-7.0996h1.4453v5.8936h3.5938v1.2061h-5.0391Z"/>
         <path class="uuid-52e6d5b7-7cb0-4f31-8016-fc7e817a41c3"
               d="m18.9908,70.0744h2.8613c.5664,0,.9883.0234,1.2666.0703.2783.0479.5273.1455.7471.2959.2197.1494.4033.3486.5498.5977s.2197.5283.2197.8379c0,.335-.0908.6426-.2715.9229-.1807.2793-.4258.4893-.7344.6299.4355.127.7715.3428,1.0059.6494.2344.3057.3516.665.3516,1.0791,0,.3252-.0762.6416-.2275.9492s-.3574.5537-.6201.7373c-.2617.1846-.585.2969-.9688.3398-.2412.0254-.8223.042-1.7432.0488h-2.4365v-7.1582Zm1.4453,1.1914v1.6553h.9473c.5625,0,.9131-.0088,1.0498-.0244.2471-.0293.4414-.1152.583-.2568s.2129-.3281.2129-.5586c0-.2217-.0615-.4014-.1836-.54-.1221-.1377-.3037-.2217-.5439-.251-.1436-.0166-.5557-.0244-1.2354-.0244h-.8301Zm0,2.8467v1.9141h1.3379c.5205,0,.8506-.0146.9912-.0439.2148-.0391.3896-.1348.5244-.2861.1357-.1514.2031-.3535.2031-.6074,0-.2148-.0527-.3975-.1562-.5469-.1045-.1504-.2549-.2588-.4521-.3271-.1963-.0684-.624-.1025-1.2812-.1025h-1.167Z"/>
         <path class="uuid-52e6d5b7-7cb0-4f31-8016-fc7e817a41c3"
               d="m32.6626,77.2326h-1.5723l-.625-1.626h-2.8613l-.5908,1.626h-1.5332l2.7881-7.1582h1.5283l2.8662,7.1582Zm-2.6611-2.832l-.9863-2.6562-.9668,2.6562h1.9531Z"/>
         <path class="uuid-52e6d5b7-7cb0-4f31-8016-fc7e817a41c3"
               d="m35.0406,77.2326v-5.9473h-2.124v-1.2109h5.6885v1.2109h-2.1191v5.9473h-1.4453Z"/>
         <path class="uuid-52e6d5b7-7cb0-4f31-8016-fc7e817a41c3"
               d="m41.149,77.2326v-5.9473h-2.124v-1.2109h5.6885v1.2109h-2.1191v5.9473h-1.4453Z"/>
         <path class="uuid-52e6d5b7-7cb0-4f31-8016-fc7e817a41c3"
               d="m45.646,77.2326v-7.1582h5.3076v1.2109h-3.8623v1.5869h3.5938v1.2061h-3.5938v1.9482h3.999v1.2061h-5.4443Z"/>
         <path class="uuid-52e6d5b7-7cb0-4f31-8016-fc7e817a41c3"
               d="m52.3209,77.2326v-7.1582h3.042c.7646,0,1.3203.0645,1.667.1924.3467.1289.624.3574.833.6865.208.3281.3125.7041.3125,1.1279,0,.5371-.1582.9805-.4736,1.3301-.3164.3506-.7881.5703-1.416.6621.3125.1816.5703.3818.7734.6006.2041.2178.4775.6055.8232,1.1621l.874,1.3965h-1.7285l-1.0449-1.5576c-.3711-.5566-.625-.9072-.7617-1.0527-.1367-.1445-.2822-.2441-.4346-.2979-.1533-.0537-.3955-.0801-.7275-.0801h-.293v2.9883h-1.4453Zm1.4453-4.1309h1.0693c.6934,0,1.126-.0293,1.2988-.0879.1719-.0586.3076-.1602.4053-.3027.0977-.1436.1465-.3223.1465-.5371,0-.2412-.0645-.4355-.1934-.584-.1279-.1475-.3096-.2412-.5439-.2803-.1172-.0166-.4688-.0244-1.0547-.0244h-1.1279v1.8164Z"/>
         <path class="uuid-52e6d5b7-7cb0-4f31-8016-fc7e817a41c3"
               d="m61.4175,77.2326v-3.0127l-2.6221-4.1455h1.6943l1.6846,2.832,1.6504-2.832h1.665l-2.6318,4.1553v3.0029h-1.4404Z"/>
      </g>
      <g id="uuid-55f986d2-20da-475b-94f2-bf2db56692dd"
         data-name="Artwork 20 no white">
         <g class="uuid-776429af-f306-4f00-bae3-6a04c2fd4644">
            <g class="uuid-49f27b81-b0ec-477c-9ba2-557ef36981eb">
               <line class="uuid-54a28257-4097-4798-bd80-6fff4b0714d3"
                     x1="192.0851"
                     y1="53.4581"
                     x2="206.7151"
                     y2="46.6921"/>
               <path d="m206.715,47.6964h0c-.55,0-1-.45-1-1,0-.551.45-1,1-1s1,.449,1,1c0,.55-.45,1-1,1"/>
               <path d="m192.0851,47.6964h0c-.55,0-1-.45-1-1,0-.551.45-1,1-1s1,.449,1,1c0,.55-.45,1-1,1"/>
            </g>
         </g>
      </g>
   </g>
</svg>
