<?xml version="1.0" encoding="UTF-8"?>
<svg xmlns="http://www.w3.org/2000/svg"
 id="Layer_5"
     data-name="Layer 5"
     width="210mm"
     height="45.6374mm"
     viewBox="0 0 595.2756 129.3659">
   <defs>
      <style>
      .cls-1 {
        font-size: 6.0855px;
      }

      .cls-1, .cls-2, .cls-3, .cls-4, .cls-5, .cls-6, .cls-7, .cls-8, .cls-9, .cls-10, .cls-11 {
        font-family: ArialMT, Arial;
      }

      .cls-12 {
        fill: none;
        stroke: #000;
        stroke-linecap: round;
        stroke-linejoin: round;
        stroke-width: .5011px;
      }

      .cls-2 {
        font-size: 5.8863px;
      }

      .cls-3 {
        font-size: 5.8926px;
      }

      .cls-4 {
        font-size: 5.8897px;
      }

      .cls-5 {
        font-size: 5.9273px;
      }

      .cls-6 {
        font-size: 5.8042px;
      }

      .cls-7 {
        font-size: 5.6997px;
      }

      .cls-8 {
        font-size: 5.8547px;
      }

      .cls-9 {
        font-size: 5.4219px;
      }

      .cls-10 {
        font-size: 5.8744px;
      }

      .cls-11 {
        font-size: 5.626px;
      }
    </style>
   </defs>
   <path class="cls-12"
         d="M4.3867,119.3536c0,3.2865,2.6641,5.9507,5.9507,5.9507"/>
   <path class="cls-12"
         d="M584.9382,125.3043c3.2866,0,5.9507-2.6641,5.9507-5.9507"/>
   <path class="cls-12" d="M11.8242,4.0616c-4.1076,0-7.4375,3.33-7.4375,7.4375"/>
   <path class="cls-12" d="M590.8889,11.4991c0-4.1076-3.33-7.4375-7.4383-7.4375"/>
   <polyline points="111.9613 55.4031 111.9613 51.6839 121.2588 51.6839 121.2588 55.4031 111.9613 55.4031 111.9613 51.6839 121.2588 51.6839 121.2588 55.4031 111.9613 55.4031"/>
   <polyline points="111.9613 36.808 111.9613 33.0888 121.2588 33.0888 121.2588 36.808 111.9613 36.808 111.9613 33.0888 121.2588 33.0888 121.2588 36.808 111.9613 36.808"/>
   <polyline points="206.3335 73.999 206.3335 70.2798 215.6318 70.2798 215.6318 73.999 206.3335 73.999 206.3335 70.2798 215.6318 70.2798 215.6318 73.999 206.3335 73.999"/>
   <polyline points="206.3335 92.594 206.3335 88.8757 215.6318 88.8757 215.6318 92.594 206.3335 92.594 206.3335 88.8757 215.6318 88.8757 215.6318 92.594 206.3335 92.594"/>
   <polyline points="111.9613 73.999 111.9613 70.2798 121.2588 70.2798 121.2588 73.999 111.9613 73.999 111.9613 70.2798 121.2588 70.2798 121.2588 73.999 111.9613 73.999"/>
   <polyline points="111.9613 92.594 111.9613 88.8757 121.2588 88.8757 121.2588 92.594 111.9613 92.594 111.9613 88.8757 121.2588 88.8757 121.2588 92.594 111.9613 92.594"/>
   <polyline points="17.5892 55.4031 17.5892 51.6839 26.8867 51.6839 26.8867 55.4031 17.5892 55.4031 17.5892 51.6839 26.8867 51.6839 26.8867 55.4031 17.5892 55.4031"/>
   <polyline points="17.5892 36.808 17.5892 33.0888 26.8867 33.0888 26.8867 36.808 17.5892 36.808 17.5892 33.0888 26.8867 33.0888 26.8867 36.808 17.5892 36.808"/>
   <polyline points="17.5892 73.999 17.5892 70.2798 26.8867 70.2798 26.8867 73.999 17.5892 73.999 17.5892 70.2798 26.8867 70.2798 26.8867 73.999 17.5892 73.999"/>
   <polyline points="17.5892 92.594 17.5892 88.8757 26.8867 88.8757 26.8867 92.594 17.5892 92.594 17.5892 88.8757 26.8867 88.8757 26.8867 92.594 17.5892 92.594"/>
   <polyline points="489.4507 36.808 489.4507 33.0888 498.7482 33.0888 498.7482 36.808 489.4507 36.808 489.4507 33.0888 498.7482 33.0888 498.7482 36.808 489.4507 36.808"/>
   <polyline points="489.4507 55.4031 489.4507 51.6839 498.7482 51.6839 498.7482 55.4031 489.4507 55.4031 489.4507 51.6839 498.7482 51.6839 498.7482 55.4031 489.4507 55.4031"/>
   <polyline points="395.0777 36.808 395.0777 33.0888 404.3761 33.0888 404.3761 36.808 395.0777 36.808 395.0777 33.0888 404.3761 33.0888 404.3761 36.808 395.0777 36.808"/>
   <polyline points="395.0777 55.4031 395.0777 51.6839 404.3761 51.6839 404.3761 55.4031 395.0777 55.4031 395.0777 51.6839 404.3761 51.6839 404.3761 55.4031 395.0777 55.4031"/>
   <polyline points="489.4507 73.999 489.4507 70.2798 498.7482 70.2798 498.7482 73.999 489.4507 73.999 489.4507 70.2798 498.7482 70.2798 498.7482 73.999 489.4507 73.999"/>
   <polyline points="489.4507 92.594 489.4507 88.8757 498.7482 88.8757 498.7482 92.594 489.4507 92.594 489.4507 88.8757 498.7482 88.8757 498.7482 92.594 489.4507 92.594"/>
   <polyline points="395.0777 73.999 395.0777 70.2798 404.3761 70.2798 404.3761 73.999 395.0777 73.999 395.0777 70.2798 404.3761 70.2798 404.3761 73.999 395.0777 73.999"/>
   <polyline points="395.0777 92.594 395.0777 88.8757 404.3761 88.8757 404.3761 92.594 395.0777 92.594 395.0777 88.8757 404.3761 88.8757 404.3761 92.594 395.0777 92.594"/>
   <polyline points="300.7056 36.808 300.7056 33.0888 310.0039 33.0888 310.0039 36.808 300.7056 36.808 300.7056 33.0888 310.0039 33.0888 310.0039 36.808 300.7056 36.808"/>
   <polyline points="300.7056 55.4031 300.7056 51.6839 310.0039 51.6839 310.0039 55.4031 300.7056 55.4031 300.7056 51.6839 310.0039 51.6839 310.0039 55.4031 300.7056 55.4031"/>
   <polyline points="300.7056 73.999 300.7056 70.2798 310.0039 70.2798 310.0039 73.999 300.7056 73.999 300.7056 70.2798 310.0039 70.2798 310.0039 73.999 300.7056 73.999"/>
   <polyline points="300.7056 92.594 300.7056 88.8757 310.0039 88.8757 310.0039 92.594 300.7056 92.594 300.7056 88.8757 310.0039 88.8757 310.0039 92.594 300.7056 92.594"/>
   <polyline points="206.3335 55.4031 206.3335 51.6839 215.6318 51.6839 215.6318 55.4031 206.3335 55.4031 206.3335 51.6839 215.6318 51.6839 215.6318 55.4031 206.3335 55.4031"/>
   <polyline points="206.3335 36.808 206.3335 33.0888 215.6318 33.0888 215.6318 36.808 206.3335 36.808 206.3335 33.0888 215.6318 33.0888 215.6318 36.808 206.3335 36.808"/>
   <text class="cls-8" transform="translate(406.2354 56.3337) scale(1 1.3311)">
      <tspan x="0" y="0">FAN FAILURE</tspan>
   </text>
   <text class="cls-10" transform="translate(123.1182 56.3337) scale(1 1.3266)">
      <tspan x="0" y="0">DC LOW WARNING</tspan>
   </text>
   <text class="cls-3" transform="translate(217.4902 74.9265) scale(1 1.3225)">
      <tspan x="0" y="0">INVERTER FUSE BLOWN</tspan>
   </text>
   <text class="cls-5" transform="translate(217.4902 56.3337) scale(1 1.3148)">
      <tspan x="0" y="0">OVERLOAD INVERTER</tspan>
   </text>
   <text class="cls-7" transform="translate(217.4902 37.7371) scale(1 1.3672)">
      <tspan x="0" y="0">INVERTER FAULT</tspan>
   </text>
   <text class="cls-6" transform="translate(311.8613 93.5242) scale(1 1.3427)">
      <tspan x="0" y="0">EA INHIBITED</tspan>
   </text>
   <text class="cls-9" transform="translate(406.2354 37.7371) scale(1 1.4373)">
      <tspan x="0" y="0">OVERTEMPERATURE</tspan>
   </text>
   <text class="cls-1" transform="translate(28.7456 74.9265) scale(1 1.2806)">
      <tspan x="0" y="0">DC OUT OF TOLERANCE</tspan>
   </text>
   <text class="cls-11" transform="translate(123.1182 74.9265) scale(1 1.3852)">
      <tspan x="0" y="0">BATTERY DISCONNECTED</tspan>
   </text>
   <text class="cls-2" transform="translate(406.2354 74.9265) scale(1 1.3239)">
      <tspan x="0" y="0">CONTOL POWER FAULT</tspan>
   </text>
   <text class="cls-4" transform="translate(500.6084 37.7371) scale(1 1.3232)">
      <tspan x="0" y="0">OUTPUT BREAKER OPEN</tspan>
   </text>
   <rect class="cls-12"
         x="395.0777"
         y="88.8757"
         width="9.2983"
         height="3.7184"/>
   <rect class="cls-12"
         x="395.0777"
         y="70.2798"
         width="9.2983"
         height="3.7192"/>
   <rect class="cls-12"
         x="395.0777"
         y="51.6839"
         width="9.2983"
         height="3.7192"/>
   <rect class="cls-12"
         x="395.0777"
         y="33.0888"
         width="9.2983"
         height="3.7192"/>
   <rect class="cls-12"
         x="489.4507"
         y="70.2798"
         width="9.2975"
         height="3.7192"/>
   <rect class="cls-12"
         x="489.4507"
         y="88.8757"
         width="9.2975"
         height="3.7184"/>
   <rect class="cls-12"
         x="489.4507"
         y="51.6839"
         width="9.2975"
         height="3.7192"/>
   <rect class="cls-12"
         x="489.4507"
         y="33.0888"
         width="9.2975"
         height="3.7192"/>
   <line class="cls-12"
         x1="590.8889"
         y1="119.3536"
         x2="590.8889"
         y2="11.4991"/>
   <line class="cls-12"
         x1="10.3366"
         y1="125.3043"
         x2="584.9382"
         y2="125.3043"/>
   <line class="cls-12"
         x1="4.3867"
         y1="119.3536"
         x2="4.3867"
         y2="11.4991"/>
   <line class="cls-12"
         x1="10.3366"
         y1="4.0616"
         x2="584.9382"
         y2="4.0616"/>
   <rect class="cls-12"
         x="17.5892"
         y="88.8757"
         width="9.2975"
         height="3.7184"/>
   <rect class="cls-12"
         x="17.5892"
         y="51.6839"
         width="9.2975"
         height="3.7192"/>
   <polyline class="cls-12"
             points="17.5892 36.808 26.8867 36.808 26.8867 33.0888 17.5892 33.0888"/>
   <polyline class="cls-12"
             points="26.8867 73.999 26.8867 70.2798 17.5892 70.2798 17.5892 73.999"/>
   <rect class="cls-12"
         x="111.9613"
         y="51.6839"
         width="9.2975"
         height="3.7192"/>
   <rect class="cls-12"
         x="111.9613"
         y="88.8757"
         width="9.2975"
         height="3.7184"/>
   <polyline class="cls-12"
             points="121.2588 73.999 121.2588 70.2798 111.9613 70.2798 111.9613 73.999"/>
   <polyline class="cls-12"
             points="111.9613 33.0888 111.9613 36.808 121.2588 36.808 121.2588 33.0888"/>
   <rect class="cls-12"
         x="206.3335"
         y="70.2798"
         width="9.2983"
         height="3.7192"/>
   <rect class="cls-12"
         x="206.3335"
         y="33.0888"
         width="9.2983"
         height="3.7192"/>
   <rect class="cls-12"
         x="206.3335"
         y="88.8757"
         width="9.2983"
         height="3.7184"/>
   <rect class="cls-12"
         x="206.3335"
         y="51.6839"
         width="9.2983"
         height="3.7192"/>
   <rect class="cls-12"
         x="300.7056"
         y="88.8757"
         width="9.2983"
         height="3.7184"/>
   <rect class="cls-12"
         x="300.7056"
         y="70.2798"
         width="9.2983"
         height="3.7192"/>
   <rect class="cls-12"
         x="300.7056"
         y="33.0888"
         width="9.2983"
         height="3.7192"/>
   <rect class="cls-12"
         x="300.7056"
         y="51.6839"
         width="9.2983"
         height="3.7192"/>
</svg>
