<?xml version="1.0" encoding="UTF-8"?>
<svg xmlns="http://www.w3.org/2000/svg"
 id="uuid-7ca4376e-f150-44a9-9ad9-526c8924814d"
     data-name="Layer 1"
     width="187.5129mm"
     height="38.1795mm"
     viewBox="0 0 531.5326 108.2253">
   <defs>
      <style>
      .uuid-d6910f75-164d-45c8-bba9-c4779ab6b807 {
        stroke-width: .0953px;
      }

      .uuid-d6910f75-164d-45c8-bba9-c4779ab6b807, .uuid-3467ee86-44ac-4e02-a357-20bc2c693e26, .uuid-7b3d2d4c-dafb-4365-b9bd-1aa0b73f8d02 {
        fill: none;
        stroke: #010101;
        stroke-linecap: round;
        stroke-miterlimit: 10;
      }

      .uuid-0e2fba06-838c-4b4c-b96a-3d239a10b68f {
        fill: #231f20;
        font-size: 8px;
      }

      .uuid-0e2fba06-838c-4b4c-b96a-3d239a10b68f, .uuid-6908d9c7-81ae-4030-9c9f-46c2ea08bcda {
        font-family: ArialMT, Arial;
      }

      .uuid-3467ee86-44ac-4e02-a357-20bc2c693e26 {
        stroke-width: .2479px;
      }

      .uuid-7b3d2d4c-dafb-4365-b9bd-1aa0b73f8d02 {
        stroke-width: .1907px;
      }

      .uuid-6908d9c7-81ae-4030-9c9f-46c2ea08bcda {
        fill: #010101;
        font-size: 9.5986px;
      }
    </style>
   </defs>
   <line class="uuid-d6910f75-164d-45c8-bba9-c4779ab6b807"
         x1="228.034"
         y1="94.1521"
         x2="319.551"
         y2="94.1521"/>
   <line class="uuid-d6910f75-164d-45c8-bba9-c4779ab6b807"
         x1="319.551"
         y1="94.1521"
         x2="319.551"
         y2="100.8251"/>
   <line class="uuid-d6910f75-164d-45c8-bba9-c4779ab6b807"
         x1="232.8"
         y1="105.5911"
         x2="314.784"
         y2="105.5911"/>
   <line class="uuid-d6910f75-164d-45c8-bba9-c4779ab6b807"
         x1="228.034"
         y1="94.1521"
         x2="228.034"
         y2="100.8251"/>
   <path class="uuid-d6910f75-164d-45c8-bba9-c4779ab6b807"
         d="m228.034,100.8251c0,2.632,2.134,4.766,4.766,4.766"/>
   <path class="uuid-d6910f75-164d-45c8-bba9-c4779ab6b807"
         d="m314.784,105.5911c2.633,0,4.767-2.134,4.767-4.766v-.016"/>
   <line class="uuid-d6910f75-164d-45c8-bba9-c4779ab6b807"
         x1="5"
         y1="94.1521"
         x2="96.517"
         y2="94.1521"/>
   <line class="uuid-d6910f75-164d-45c8-bba9-c4779ab6b807"
         x1="96.517"
         y1="94.1521"
         x2="96.517"
         y2="100.8251"/>
   <line class="uuid-d6910f75-164d-45c8-bba9-c4779ab6b807"
         x1="9.766"
         y1="105.5911"
         x2="91.75"
         y2="105.5911"/>
   <line class="uuid-d6910f75-164d-45c8-bba9-c4779ab6b807"
         x1="5"
         y1="94.1521"
         x2="5"
         y2="100.8251"/>
   <path class="uuid-d6910f75-164d-45c8-bba9-c4779ab6b807"
         d="m5,100.8251c0,2.632,2.134,4.766,4.766,4.766"/>
   <path class="uuid-d6910f75-164d-45c8-bba9-c4779ab6b807"
         d="m91.75,105.5911c2.633,0,4.767-2.134,4.767-4.766v-.015"/>
   <line class="uuid-d6910f75-164d-45c8-bba9-c4779ab6b807"
         x1="116.517"
         y1="94.1511"
         x2="208.034"
         y2="94.1511"/>
   <line class="uuid-d6910f75-164d-45c8-bba9-c4779ab6b807"
         x1="208.034"
         y1="94.1511"
         x2="208.034"
         y2="100.8241"/>
   <line class="uuid-d6910f75-164d-45c8-bba9-c4779ab6b807"
         x1="121.283"
         y1="105.5911"
         x2="203.267"
         y2="105.5911"/>
   <line class="uuid-d6910f75-164d-45c8-bba9-c4779ab6b807"
         x1="116.517"
         y1="94.1511"
         x2="116.517"
         y2="100.8241"/>
   <path class="uuid-d6910f75-164d-45c8-bba9-c4779ab6b807"
         d="m116.517,100.8241c0,2.633,2.134,4.767,4.766,4.767"/>
   <path class="uuid-d6910f75-164d-45c8-bba9-c4779ab6b807"
         d="m203.267,105.5911c2.633,0,4.767-2.134,4.767-4.767v-.015"/>
   <text class="uuid-6908d9c7-81ae-4030-9c9f-46c2ea08bcda"
         transform="translate(126.0498 15.4904)">
      <tspan x="0" y="0">V</tspan>
   </text>
   <line class="uuid-7b3d2d4c-dafb-4365-b9bd-1aa0b73f8d02"
         x1="120.33"
         y1="6.4471"
         x2="204.22"
         y2="6.4471"/>
   <line class="uuid-3467ee86-44ac-4e02-a357-20bc2c693e26"
         x1="116.517"
         y1="2.6341"
         x2="208.034"
         y2="2.6341"/>
   <line class="uuid-7b3d2d4c-dafb-4365-b9bd-1aa0b73f8d02"
         x1="120.33"
         y1="6.4471"
         x2="120.33"
         y2="90.3381"/>
   <line class="uuid-7b3d2d4c-dafb-4365-b9bd-1aa0b73f8d02"
         x1="204.22"
         y1="6.4471"
         x2="204.22"
         y2="90.3381"/>
   <path class="uuid-7b3d2d4c-dafb-4365-b9bd-1aa0b73f8d02"
         d="m193.734,16.2091c-36.465,0-66.026,29.561-66.026,66.026"/>
   <line class="uuid-7b3d2d4c-dafb-4365-b9bd-1aa0b73f8d02"
         x1="193.734"
         y1="13.2471"
         x2="193.734"
         y2="82.2351"/>
   <line class="uuid-3467ee86-44ac-4e02-a357-20bc2c693e26"
         x1="208.034"
         y1="2.6341"
         x2="208.034"
         y2="94.1511"/>
   <line class="uuid-3467ee86-44ac-4e02-a357-20bc2c693e26"
         x1="116.517"
         y1="2.6341"
         x2="116.517"
         y2="94.1511"/>
   <line class="uuid-7b3d2d4c-dafb-4365-b9bd-1aa0b73f8d02"
         x1="120.33"
         y1="90.3381"
         x2="204.22"
         y2="90.3381"/>
   <line class="uuid-7b3d2d4c-dafb-4365-b9bd-1aa0b73f8d02"
         x1="124.746"
         y1="82.2351"
         x2="193.734"
         y2="82.2351"/>
   <line class="uuid-3467ee86-44ac-4e02-a357-20bc2c693e26"
         x1="116.517"
         y1="94.1511"
         x2="208.034"
         y2="94.1511"/>
   <text class="uuid-6908d9c7-81ae-4030-9c9f-46c2ea08bcda"
         transform="translate(14.5329 15.4904)">
      <tspan x="0" y="0">A</tspan>
   </text>
   <line class="uuid-7b3d2d4c-dafb-4365-b9bd-1aa0b73f8d02"
         x1="8.813"
         y1="6.4481"
         x2="92.703"
         y2="6.4481"/>
   <line class="uuid-3467ee86-44ac-4e02-a357-20bc2c693e26"
         x1="5"
         y1="2.6351"
         x2="96.517"
         y2="2.6351"/>
   <line class="uuid-7b3d2d4c-dafb-4365-b9bd-1aa0b73f8d02"
         x1="8.813"
         y1="6.4481"
         x2="8.813"
         y2="90.3391"/>
   <line class="uuid-7b3d2d4c-dafb-4365-b9bd-1aa0b73f8d02"
         x1="92.703"
         y1="6.4481"
         x2="92.703"
         y2="90.3391"/>
   <path class="uuid-7b3d2d4c-dafb-4365-b9bd-1aa0b73f8d02"
         d="m82.217,16.2091c-36.465,0-66.026,29.561-66.026,66.027"/>
   <line class="uuid-7b3d2d4c-dafb-4365-b9bd-1aa0b73f8d02"
         x1="82.217"
         y1="13.2481"
         x2="82.217"
         y2="82.2361"/>
   <line class="uuid-3467ee86-44ac-4e02-a357-20bc2c693e26"
         x1="96.517"
         y1="2.6351"
         x2="96.517"
         y2="94.1521"/>
   <line class="uuid-3467ee86-44ac-4e02-a357-20bc2c693e26"
         x1="5"
         y1="2.6351"
         x2="5"
         y2="94.1521"/>
   <line class="uuid-7b3d2d4c-dafb-4365-b9bd-1aa0b73f8d02"
         x1="8.813"
         y1="90.3391"
         x2="92.703"
         y2="90.3391"/>
   <line class="uuid-7b3d2d4c-dafb-4365-b9bd-1aa0b73f8d02"
         x1="13.229"
         y1="82.2361"
         x2="82.217"
         y2="82.2361"/>
   <line class="uuid-3467ee86-44ac-4e02-a357-20bc2c693e26"
         x1="5"
         y1="94.1521"
         x2="96.517"
         y2="94.1521"/>
   <text class="uuid-6908d9c7-81ae-4030-9c9f-46c2ea08bcda"
         transform="translate(237.5669 15.4903)">
      <tspan x="0" y="0">Hz</tspan>
   </text>
   <line class="uuid-7b3d2d4c-dafb-4365-b9bd-1aa0b73f8d02"
         x1="231.847"
         y1="6.4481"
         x2="315.737"
         y2="6.4481"/>
   <line class="uuid-3467ee86-44ac-4e02-a357-20bc2c693e26"
         x1="228.034"
         y1="2.6351"
         x2="319.551"
         y2="2.6351"/>
   <line class="uuid-7b3d2d4c-dafb-4365-b9bd-1aa0b73f8d02"
         x1="231.847"
         y1="6.4481"
         x2="231.847"
         y2="90.3381"/>
   <line class="uuid-7b3d2d4c-dafb-4365-b9bd-1aa0b73f8d02"
         x1="315.737"
         y1="6.4481"
         x2="315.737"
         y2="90.3381"/>
   <path class="uuid-7b3d2d4c-dafb-4365-b9bd-1aa0b73f8d02"
         d="m305.251,16.2091c-36.465,0-66.026,29.561-66.026,66.026"/>
   <line class="uuid-7b3d2d4c-dafb-4365-b9bd-1aa0b73f8d02"
         x1="305.251"
         y1="13.2481"
         x2="305.251"
         y2="82.2351"/>
   <line class="uuid-7b3d2d4c-dafb-4365-b9bd-1aa0b73f8d02"
         x1="256.4698"
         y1="33.4549"
         x2="305.251"
         y2="82.2361"/>
   <line class="uuid-7b3d2d4c-dafb-4365-b9bd-1aa0b73f8d02"
         x1="144.9528"
         y1="33.4549"
         x2="193.734"
         y2="82.2361"/>
   <line class="uuid-7b3d2d4c-dafb-4365-b9bd-1aa0b73f8d02"
         x1="33.4358"
         y1="33.4549"
         x2="82.217"
         y2="82.2361"/>
   <line class="uuid-3467ee86-44ac-4e02-a357-20bc2c693e26"
         x1="319.551"
         y1="2.6351"
         x2="319.551"
         y2="94.1521"/>
   <line class="uuid-3467ee86-44ac-4e02-a357-20bc2c693e26"
         x1="228.034"
         y1="2.6351"
         x2="228.034"
         y2="94.1521"/>
   <line class="uuid-7b3d2d4c-dafb-4365-b9bd-1aa0b73f8d02"
         x1="231.847"
         y1="90.3381"
         x2="315.737"
         y2="90.3381"/>
   <line class="uuid-7b3d2d4c-dafb-4365-b9bd-1aa0b73f8d02"
         x1="236.263"
         y1="82.2351"
         x2="305.251"
         y2="82.2351"/>
   <line class="uuid-3467ee86-44ac-4e02-a357-20bc2c693e26"
         x1="228.034"
         y1="94.1521"
         x2="319.551"
         y2="94.1521"/>
   <text class="uuid-0e2fba06-838c-4b4c-b96a-3d239a10b68f"
         transform="translate(249.2424 32.1421)">
      <tspan x="0" y="0">50</tspan>
   </text>
</svg>
