<?xml version="1.0" encoding="UTF-8"?>
<svg xmlns="http://www.w3.org/2000/svg"
     width="10mm"
     height="10mm"
     viewBox="0 0 28.3465 28.3465">
   <defs>
      <style>
      .cls-1 {
        fill: #3c57a6;
      }

      .cls-1, .cls-2 {
        stroke-width: .25px;
      }

      .cls-1, .cls-2, .cls-3 {
        stroke: #000;
        stroke-linecap: round;
        stroke-linejoin: round;
      }

      .cls-2 {
        fill: none;
      }

      .cls-3 {
        fill: #e3e8d6;
        stroke-width: .3978px;
      }
    </style>
   </defs>
   <g id="Layer_1" data-name="Layer 1">
      <g id="LINE">
         <line class="cls-2"
               x1="1.9068"
               y1="26.4076"
               x2="26.407"
               y2="1.8427"/>
      </g>
      <g id="LINE-2" data-name="LINE">
         <line class="cls-2"
               x1="5.0525"
               y1="5.6719"
               x2="13.5217"
               y2="5.6719"/>
      </g>
      <g id="LINE-3" data-name="LINE">
         <line class="cls-2"
               x1="5.0525"
               y1="6.8446"
               x2="7.3623"
               y2="6.8446"/>
      </g>
      <g id="LINE-4" data-name="LINE">
         <line class="cls-2"
               x1="8.1322"
               y1="6.8446"
               x2="10.442"
               y2="6.8446"/>
      </g>
      <g id="LINE-5" data-name="LINE">
         <line class="cls-2"
               x1="11.2119"
               y1="6.8446"
               x2="13.5217"
               y2="6.8446"/>
      </g>
      <g id="ELLIPSE">
         <path class="cls-2"
               d="M18.5707,12.8382c-1.1694,0-2.1173,1.0209-2.1173,2.2802"/>
      </g>
      <g id="ELLIPSE-2" data-name="ELLIPSE">
         <path class="cls-2" d="M20.6881,15.1184c0-1.2593-.948-2.2802-2.1173-2.2802"/>
      </g>
      <g id="ELLIPSE-3" data-name="ELLIPSE">
         <path class="cls-2" d="M20.6881,15.1184c0,1.2593,.948,2.2802,2.1173,2.2802"/>
      </g>
      <g id="ELLIPSE-4" data-name="ELLIPSE">
         <path class="cls-2" d="M22.8054,17.3986c1.1694,0,2.1173-1.0209,2.1173-2.2802"/>
      </g>
      <g id="LWPOLYLINE">
         <rect class="cls-2"
               x="1.1436"
               y="1.1115"
               width="26.0593"
               height="26.0593"
               rx="2.6059"
               ry="2.6059"/>
      </g>
      <g id="CIRCLE">
         <path class="cls-3"
               d="M10.2643,22.6105c0-1.4392,1.1667-2.6059,2.6059-2.6059s2.6059,1.1667,2.6059,2.6059-1.1667,2.6059-2.6059,2.6059-2.6059-1.1667-2.6059-2.6059h0Z"/>
      </g>
      <g id="CIRCLE-2" data-name="CIRCLE">
         <path class="cls-1"
               d="M18.7336,22.6105c0-1.4392,1.1667-2.6059,2.6059-2.6059s2.6059,1.1667,2.6059,2.6059-1.1667,2.6059-2.6059,2.6059-2.6059-1.1667-2.6059-2.6059h0Z"/>
      </g>
   </g>
   <g id="White"/>
   <g id="Layer_3" data-name="Layer 3"/>
</svg>
