<?xml version="1.0" encoding="UTF-8"?>
<svg xmlns="http://www.w3.org/2000/svg"
     xmlns:xlink="http://www.w3.org/1999/xlink"
     width="95mm"
     height="37mm"
     viewBox="0 0 269.2913 104.8819">
   <defs>
      <style>
      .uuid-6f13cd44-08c1-4111-91b7-6ea15d732c25 {
        clip-path: url(#uuid-6f8e7be2-cc3e-4f93-bc65-8bf770541636);
      }

      .uuid-50c464d6-39b9-40a9-ae80-e1ffaa00ce98 {
        clip-path: url(#uuid-3ee1f15c-5cf9-4653-bdb9-6a771c1c4b92);
      }

      .uuid-def11936-c3e8-45a8-a533-d679b2572408, .uuid-fa9b218f-72d4-4287-a5c2-a464bb542e6d {
        fill: #fff;
      }

      .uuid-349215af-6962-4e3a-890c-1714e38f0a8d {
        clip-path: url(#uuid-380914bb-336f-4abd-b11e-3a1b8aceb336);
      }

      .uuid-1c5d4a25-6e6b-4c30-b2c2-e7fc83a580cb {
        stroke-width: 1.2522px;
      }

      .uuid-1c5d4a25-6e6b-4c30-b2c2-e7fc83a580cb, .uuid-9397df8c-413c-427a-96fb-b89ccba5520f, .uuid-c1b8c3b7-7143-4a64-bd13-db960633540d, .uuid-ba97927d-271b-4c7b-87f4-d1d60b01e44e, .uuid-3755b5c3-cbd8-404c-8ba7-0610f1140439, .uuid-d83356e1-9d18-4200-af01-eb8379f0405c, .uuid-f615af8f-4745-44cc-8028-579fdb47a743, .uuid-e3b52e66-b72d-4e9a-bd98-a8625049b1bd, .uuid-e88bd025-34c7-4453-a706-b1e4d2fef00f, .uuid-796c8684-9a1c-4193-86aa-1006bfebc113, .uuid-dd5adaec-fee1-469f-9a13-83969435c269 {
        fill: none;
      }

      .uuid-1c5d4a25-6e6b-4c30-b2c2-e7fc83a580cb, .uuid-9397df8c-413c-427a-96fb-b89ccba5520f, .uuid-c1b8c3b7-7143-4a64-bd13-db960633540d, .uuid-ba97927d-271b-4c7b-87f4-d1d60b01e44e, .uuid-3755b5c3-cbd8-404c-8ba7-0610f1140439, .uuid-d83356e1-9d18-4200-af01-eb8379f0405c, .uuid-f615af8f-4745-44cc-8028-579fdb47a743, .uuid-e88bd025-34c7-4453-a706-b1e4d2fef00f, .uuid-796c8684-9a1c-4193-86aa-1006bfebc113, .uuid-dd5adaec-fee1-469f-9a13-83969435c269 {
        stroke: #000;
      }

      .uuid-1c5d4a25-6e6b-4c30-b2c2-e7fc83a580cb, .uuid-c1b8c3b7-7143-4a64-bd13-db960633540d, .uuid-ba97927d-271b-4c7b-87f4-d1d60b01e44e, .uuid-d83356e1-9d18-4200-af01-eb8379f0405c, .uuid-f615af8f-4745-44cc-8028-579fdb47a743 {
        stroke-miterlimit: 3;
      }

      .uuid-fa9b218f-72d4-4287-a5c2-a464bb542e6d {
        fill-rule: evenodd;
      }

      .uuid-e1cda4a7-baac-4856-85ab-ff253cc709c4 {
        clip-path: url(#uuid-c08c71c3-c29f-4ac5-8d93-90ff6fefe17f);
      }

      .uuid-3d467ad1-a530-4d36-b0f7-7337e4c6d344 {
        fill: #57b959;
      }

      .uuid-e493f180-66b3-4c3e-907a-c9c304e37748 {
        clip-path: url(#uuid-653b6e1e-d438-4500-985f-9a77929a059e);
      }

      .uuid-7d1e3056-a097-42c4-bb85-cde9e87ce8b0 {
        clip-path: url(#uuid-9a29c6cb-e01b-46b4-bfef-029418dc0df3);
      }

      .uuid-685b1779-ddb8-4452-9b7c-6c9322e25441, .uuid-18c0c56c-805b-4e21-905a-365fb9e5ad38 {
        fill: #01889C;
      }

      .uuid-cc135abc-8583-488a-b6c9-2372868665f2 {
        clip-path: url(#uuid-a0ae8912-4464-40b7-b065-97e432c15cf7);
      }

      .uuid-103e4535-4a8c-476f-aa04-320d763a4b35 {
        clip-path: url(#uuid-47f42fdf-0b4f-4d42-8fb0-fc779e880920);
      }

      .uuid-9397df8c-413c-427a-96fb-b89ccba5520f, .uuid-ba97927d-271b-4c7b-87f4-d1d60b01e44e, .uuid-3755b5c3-cbd8-404c-8ba7-0610f1140439, .uuid-e88bd025-34c7-4453-a706-b1e4d2fef00f, .uuid-796c8684-9a1c-4193-86aa-1006bfebc113, .uuid-dd5adaec-fee1-469f-9a13-83969435c269 {
        stroke-width: .75px;
      }

      .uuid-9397df8c-413c-427a-96fb-b89ccba5520f, .uuid-3755b5c3-cbd8-404c-8ba7-0610f1140439, .uuid-e88bd025-34c7-4453-a706-b1e4d2fef00f, .uuid-796c8684-9a1c-4193-86aa-1006bfebc113, .uuid-dd5adaec-fee1-469f-9a13-83969435c269 {
        stroke-miterlimit: 10;
      }

      .uuid-7e56de0a-7ce9-4b3b-9b56-2197426d6983 {
        clip-path: url(#uuid-effb8181-101e-4bd9-823e-d4cf0582c832);
      }

      .uuid-54cd1cbe-4cfd-4813-97b7-72ab656129c6 {
        clip-path: url(#uuid-c53b2b33-ffc6-454e-919e-68e70834a725);
      }

      .uuid-0214076e-f2f0-47bf-9166-265d33eab1fa {
        clip-path: url(#uuid-4fc07be3-2049-4524-9232-aa0c3f633898);
      }

      .uuid-315829af-82d6-4e38-a039-8d52d61b182b {
        clip-path: url(#uuid-644c4fb9-a9b8-4e40-8741-29a5d00da7a0);
      }

      .uuid-c1b8c3b7-7143-4a64-bd13-db960633540d {
        stroke-dasharray: 0 0 2.0034 1.0017;
      }

      .uuid-c1b8c3b7-7143-4a64-bd13-db960633540d, .uuid-f615af8f-4745-44cc-8028-579fdb47a743 {
        stroke-width: .7513px;
      }

      .uuid-282fa899-0376-4008-b177-2105346f0785 {
        clip-path: url(#uuid-e1df172a-3af4-4648-b839-878943875110);
      }

      .uuid-3755b5c3-cbd8-404c-8ba7-0610f1140439 {
        stroke-dasharray: 0 0 5.9636 5.9636;
      }

      .uuid-d83356e1-9d18-4200-af01-eb8379f0405c {
        stroke-width: .7087px;
      }

      .uuid-47178077-0212-464e-ab02-45cdd8a4bbe2 {
        clip-path: url(#uuid-b1550dae-a0ee-41e1-a43c-3dae1f5a7655);
      }

      .uuid-969970bf-8929-4974-9b79-e1005afe8fe8 {
        clip-path: url(#uuid-64b494ec-e478-479c-8680-72d641286d54);
      }

      .uuid-948d3e17-904f-46ab-8a4e-c5c5478d5d05 {
        clip-path: url(#uuid-3490b9d8-6c6d-4f2d-9403-f073b94b75fb);
      }

      .uuid-e88bd025-34c7-4453-a706-b1e4d2fef00f {
        stroke-dasharray: 0 0 6.8059 6.8059;
      }

      .uuid-3f0b160b-237a-4e52-a452-4aeb66545cc8 {
        clip-path: url(#uuid-41cb7fd2-1ba9-48a4-9257-5bfb3c8bf7f2);
      }

      .uuid-796c8684-9a1c-4193-86aa-1006bfebc113 {
        stroke-dasharray: 0 0 7.2959 7.2959;
      }

      .uuid-dd5adaec-fee1-469f-9a13-83969435c269 {
        stroke-dasharray: 0 0 6 6;
      }

      .uuid-2f074b9d-4cdd-48d0-b433-37cd60908c7e {
        fill: #c6c6c6;
      }

      .uuid-0798932c-bc69-466a-af18-70bc823ccce6 {
        clip-path: url(#uuid-93464d1a-e00f-4de8-9bba-2115f907e6a2);
      }

      .uuid-18c0c56c-805b-4e21-905a-365fb9e5ad38 {
        font-family: Arial-BoldMT, Arial;
        font-size: 10px;
        font-weight: 700;
      }
    </style>
      <clipPath id="uuid-c08c71c3-c29f-4ac5-8d93-90ff6fefe17f">
         <rect class="uuid-e3b52e66-b72d-4e9a-bd98-a8625049b1bd"
               x="164.2417"
               y="40.5956"
               width="12.4579"
               height="12.1509"/>
      </clipPath>
      <clipPath id="uuid-93464d1a-e00f-4de8-9bba-2115f907e6a2">
         <rect class="uuid-e3b52e66-b72d-4e9a-bd98-a8625049b1bd"
               x="164.2417"
               y="40.5955"
               width="12.458"
               height="12.151"/>
      </clipPath>
      <clipPath id="uuid-41cb7fd2-1ba9-48a4-9257-5bfb3c8bf7f2">
         <rect class="uuid-e3b52e66-b72d-4e9a-bd98-a8625049b1bd"
               x="107.9488"
               y="26.827"
               width="35.4357"
               height="39.688"/>
      </clipPath>
      <clipPath id="uuid-6f8e7be2-cc3e-4f93-bc65-8bf770541636">
         <rect class="uuid-e3b52e66-b72d-4e9a-bd98-a8625049b1bd"
               x="107.9488"
               y="26.827"
               width="35.4357"
               height="39.688"/>
      </clipPath>
      <clipPath id="uuid-4fc07be3-2049-4524-9232-aa0c3f633898">
         <rect class="uuid-e3b52e66-b72d-4e9a-bd98-a8625049b1bd"
               x="107.9488"
               y="26.827"
               width="35.4357"
               height="39.688"/>
      </clipPath>
      <clipPath id="uuid-3ee1f15c-5cf9-4653-bdb9-6a771c1c4b92">
         <rect class="uuid-e3b52e66-b72d-4e9a-bd98-a8625049b1bd"
               x="37.9051"
               y="43.6183"
               width="6.125"
               height="6.125"/>
      </clipPath>
      <clipPath id="uuid-e1df172a-3af4-4648-b839-878943875110">
         <rect class="uuid-e3b52e66-b72d-4e9a-bd98-a8625049b1bd"
               x="37.9051"
               y="43.6183"
               width="6.125"
               height="6.125"/>
      </clipPath>
      <clipPath id="uuid-effb8181-101e-4bd9-823e-d4cf0582c832">
         <rect class="uuid-e3b52e66-b72d-4e9a-bd98-a8625049b1bd"
               x="70.591"
               y="38.5466"
               width="16.63"
               height="16.2683"/>
      </clipPath>
      <clipPath id="uuid-64b494ec-e478-479c-8680-72d641286d54">
         <rect class="uuid-e3b52e66-b72d-4e9a-bd98-a8625049b1bd"
               x="70.591"
               y="38.5469"
               width="16.63"
               height="16.268"/>
      </clipPath>
      <clipPath id="uuid-653b6e1e-d438-4500-985f-9a77929a059e">
         <rect class="uuid-e3b52e66-b72d-4e9a-bd98-a8625049b1bd"
               x="222.9283"
               y="43.5526"
               width="6.125"
               height="6.125"/>
      </clipPath>
      <clipPath id="uuid-9a29c6cb-e01b-46b4-bfef-029418dc0df3">
         <rect class="uuid-e3b52e66-b72d-4e9a-bd98-a8625049b1bd"
               x="222.9283"
               y="43.5526"
               width="6.125"
               height="6.125"/>
      </clipPath>
      <clipPath id="uuid-b1550dae-a0ee-41e1-a43c-3dae1f5a7655">
         <rect class="uuid-e3b52e66-b72d-4e9a-bd98-a8625049b1bd"
               x="37.9171"
               y="79.3333"
               width="15.6504"
               height="14.7535"/>
      </clipPath>
      <clipPath id="uuid-3490b9d8-6c6d-4f2d-9403-f073b94b75fb">
         <rect class="uuid-e3b52e66-b72d-4e9a-bd98-a8625049b1bd"
               x="37.9171"
               y="79.3334"
               width="15.6509"
               height="14.7534"/>
      </clipPath>
      <clipPath id="uuid-644c4fb9-a9b8-4e40-8741-29a5d00da7a0">
         <rect class="uuid-e3b52e66-b72d-4e9a-bd98-a8625049b1bd"
               x="37.9171"
               y="79.3334"
               width="15.6509"
               height="14.7534"/>
      </clipPath>
      <clipPath id="uuid-c53b2b33-ffc6-454e-919e-68e70834a725">
         <rect class="uuid-e3b52e66-b72d-4e9a-bd98-a8625049b1bd"
               x="70.591"
               y="78.5764"
               width="16.63"
               height="16.2683"/>
      </clipPath>
      <clipPath id="uuid-47f42fdf-0b4f-4d42-8fb0-fc779e880920">
         <rect class="uuid-e3b52e66-b72d-4e9a-bd98-a8625049b1bd"
               x="70.591"
               y="78.5767"
               width="16.63"
               height="16.268"/>
      </clipPath>
      <clipPath id="uuid-380914bb-336f-4abd-b11e-3a1b8aceb336">
         <rect class="uuid-e3b52e66-b72d-4e9a-bd98-a8625049b1bd"
               x="191.085"
               y="38.5466"
               width="16.63"
               height="16.2683"/>
      </clipPath>
      <clipPath id="uuid-a0ae8912-4464-40b7-b065-97e432c15cf7">
         <rect class="uuid-e3b52e66-b72d-4e9a-bd98-a8625049b1bd"
               x="191.085"
               y="38.5469"
               width="16.63"
               height="16.268"/>
      </clipPath>
   </defs>
   <g id="uuid-90d14a75-d1d0-4885-9db8-0724893e3209" data-name="Paths">
      <g id="uuid-0f1acc26-6397-47f5-8152-45913428c6f7" data-name="Artwork 30">
         <g class="uuid-e1cda4a7-baac-4856-85ab-ff253cc709c4">
            <g class="uuid-0798932c-bc69-466a-af18-70bc823ccce6">
               <line class="uuid-ba97927d-271b-4c7b-87f4-d1d60b01e44e"
                     x1="176.0441"
                     y1="40.9501"
                     x2="176.0441"
                     y2="52.5031"/>
            </g>
            <path d="m165.484,42.0558l9.083,4.56-9.083,4.561v-9.121Zm-.75,10.337l11.506-5.777-11.506-5.776v11.553Z"/>
         </g>
      </g>
      <g>
         <polygon class="uuid-2f074b9d-4cdd-48d0-b433-37cd60908c7e"
                  points="44.9358 49.1558 41.5683 49.1558 45.1902 44.6193 48.5578 44.6193 44.9358 49.1558"/>
         <polygon class="uuid-2f074b9d-4cdd-48d0-b433-37cd60908c7e"
                  points="52.4663 49.1558 49.0987 49.1558 52.7207 44.6193 56.0882 44.6193 52.4663 49.1558"/>
         <polygon class="uuid-2f074b9d-4cdd-48d0-b433-37cd60908c7e"
                  points="59.9968 49.1558 56.6292 49.1558 60.2511 44.6193 63.6187 44.6193 59.9968 49.1558"/>
         <polygon class="uuid-2f074b9d-4cdd-48d0-b433-37cd60908c7e"
                  points="67.5272 49.1558 64.1596 49.1558 67.7816 44.6193 71.1492 44.6193 67.5272 49.1558"/>
      </g>
      <g>
         <polygon class="uuid-2f074b9d-4cdd-48d0-b433-37cd60908c7e"
                  points="42.9493 89.0409 39.5817 89.0409 43.2037 84.5044 46.5712 84.5044 42.9493 89.0409"/>
         <polygon class="uuid-2f074b9d-4cdd-48d0-b433-37cd60908c7e"
                  points="50.9764 89.0409 47.6088 89.0409 51.2308 84.5044 54.5983 84.5044 50.9764 89.0409"/>
         <polygon class="uuid-2f074b9d-4cdd-48d0-b433-37cd60908c7e"
                  points="59.0035 89.0409 55.6359 89.0409 59.2579 84.5044 62.6254 84.5044 59.0035 89.0409"/>
         <polygon class="uuid-2f074b9d-4cdd-48d0-b433-37cd60908c7e"
                  points="67.0306 89.0409 63.663 89.0409 67.285 84.5044 70.6525 84.5044 67.0306 89.0409"/>
      </g>
   </g>
   <g id="uuid-136e1951-d0b7-4642-a74e-97ee58cafaa3" data-name="Diagrams">
      <path class="uuid-ba97927d-271b-4c7b-87f4-d1d60b01e44e"
            d="m71.3225,46.7428h-29.4537"/>
      <line class="uuid-dd5adaec-fee1-469f-9a13-83969435c269"
            x1="71.3225"
            y1="86.7726"
            x2="53.2496"
            y2="86.7726"/>
      <g>
         <line class="uuid-9397df8c-413c-427a-96fb-b89ccba5520f"
               x1="86.2103"
               y1="86.7721"
               x2="89.2103"
               y2="86.7721"/>
         <line class="uuid-3755b5c3-cbd8-404c-8ba7-0610f1140439"
               x1="95.1739"
               y1="86.7721"
               x2="235.318"
               y2="86.7721"/>
         <polyline class="uuid-9397df8c-413c-427a-96fb-b89ccba5520f"
                   points="238.2998 86.7721 241.2998 86.7721 241.2998 83.7721"/>
         <line class="uuid-e88bd025-34c7-4453-a706-b1e4d2fef00f"
               x1="241.2998"
               y1="76.9663"
               x2="241.2998"
               y2="53.1458"/>
         <line class="uuid-9397df8c-413c-427a-96fb-b89ccba5520f"
               x1="241.2998"
               y1="49.7429"
               x2="241.2998"
               y2="46.7429"/>
      </g>
      <g>
         <line class="uuid-9397df8c-413c-427a-96fb-b89ccba5520f"
               x1="256.2543"
               y1="46.6151"
               x2="253.2543"
               y2="46.6151"/>
         <line class="uuid-796c8684-9a1c-4193-86aa-1006bfebc113"
               x1="245.9585"
               y1="46.6151"
               x2="235.0147"
               y2="46.6151"/>
         <line class="uuid-9397df8c-413c-427a-96fb-b89ccba5520f"
               x1="231.3668"
               y1="46.6151"
               x2="228.3668"
               y2="46.6151"/>
      </g>
      <g>
         <path class="uuid-685b1779-ddb8-4452-9b7c-6c9322e25441"
               d="m15.6509,65.2321v-7.1582h5.3076v1.2109h-3.8623v1.5869h3.5938v1.2061h-3.5938v1.9482h3.999v1.2061h-5.4443Z"/>
         <path class="uuid-685b1779-ddb8-4452-9b7c-6c9322e25441"
               d="m21.5933,65.2321l2.4463-3.7354-2.2168-3.4229h1.6895l1.4355,2.2998,1.4062-2.2998h1.6748l-2.2266,3.4766,2.4463,3.6816h-1.7432l-1.5869-2.4756-1.5918,2.4756h-1.7334Z"/>
         <path class="uuid-685b1779-ddb8-4452-9b7c-6c9322e25441"
               d="m30.6021,65.2321v-5.9473h-2.124v-1.2109h5.6885v1.2109h-2.1191v5.9473h-1.4453Z"/>
         <path class="uuid-685b1779-ddb8-4452-9b7c-6c9322e25441"
               d="m35.0992,65.2321v-7.1582h5.3076v1.2109h-3.8623v1.5869h3.5938v1.2061h-3.5938v1.9482h3.999v1.2061h-5.4443Z"/>
         <path class="uuid-685b1779-ddb8-4452-9b7c-6c9322e25441"
               d="m41.774,65.2321v-7.1582h3.042c.7646,0,1.3203.0645,1.667.1924.3467.1289.624.3574.833.6865.208.3291.3125.7041.3125,1.1279,0,.5371-.1582.9805-.4736,1.3301-.3164.3506-.7881.5703-1.416.6621.3125.1816.5703.3828.7734.6006.2041.2178.4775.6055.8232,1.1621l.874,1.3965h-1.7285l-1.0449-1.5576c-.3711-.5566-.625-.9072-.7617-1.0527-.1367-.1445-.2822-.2441-.4346-.2969-.1533-.0547-.3955-.0811-.7275-.0811h-.293v2.9883h-1.4453Zm1.4453-4.1309h1.0693c.6934,0,1.126-.0293,1.2988-.0879.1719-.0586.3076-.1592.4053-.3027s.1465-.3223.1465-.5371c0-.2412-.0645-.4355-.1934-.583-.1279-.1484-.3096-.2422-.5439-.2812-.1172-.0156-.4688-.0244-1.0547-.0244h-1.1279v1.8164Z"/>
         <path class="uuid-685b1779-ddb8-4452-9b7c-6c9322e25441"
               d="m49.0054,65.2321v-7.1582h1.4062l2.9297,4.7803v-4.7803h1.3428v7.1582h-1.4502l-2.8857-4.668v4.668h-1.3428Z"/>
         <path class="uuid-685b1779-ddb8-4452-9b7c-6c9322e25441"
               d="m62.6675,65.2321h-1.5723l-.625-1.626h-2.8613l-.5908,1.626h-1.5332l2.7881-7.1582h1.5283l2.8662,7.1582Zm-2.6611-2.832l-.9863-2.6562-.9668,2.6562h1.9531Z"/>
         <path class="uuid-685b1779-ddb8-4452-9b7c-6c9322e25441"
               d="m63.4732,65.2321v-7.0996h1.4453v5.8936h3.5938v1.2061h-5.0391Z"/>
         <path class="uuid-685b1779-ddb8-4452-9b7c-6c9322e25441"
               d="m18.9908,70.0739h2.8613c.5664,0,.9883.0234,1.2666.0713.2783.0469.5273.1445.7471.2949s.4033.3496.5498.5977c.1465.25.2197.5293.2197.8379,0,.3359-.0908.6426-.2715.9229s-.4258.4893-.7344.6299c.4355.127.7715.3438,1.0059.6494s.3516.665.3516,1.0791c0,.3262-.0762.6426-.2275.9492-.1514.3086-.3574.5537-.6201.7383-.2617.1836-.585.2969-.9688.3389-.2412.0264-.8223.042-1.7432.0488h-2.4365v-7.1582Zm1.4453,1.1914v1.6553h.9473c.5625,0,.9131-.0078,1.0498-.0244.2471-.0293.4414-.1143.583-.2568.1416-.1406.2129-.3281.2129-.5586,0-.2207-.0615-.4014-.1836-.5391-.1221-.1387-.3037-.2227-.5439-.252-.1436-.0156-.5557-.0244-1.2354-.0244h-.8301Zm0,2.8467v1.9141h1.3379c.5205,0,.8506-.0146.9912-.0439.2148-.0391.3896-.1338.5244-.2861.1357-.1504.2031-.3535.2031-.6074,0-.2148-.0527-.3965-.1562-.5469-.1045-.1504-.2549-.2588-.4521-.3271-.1963-.0684-.624-.1025-1.2812-.1025h-1.167Z"/>
         <path class="uuid-685b1779-ddb8-4452-9b7c-6c9322e25441"
               d="m32.6626,77.2321h-1.5723l-.625-1.626h-2.8613l-.5908,1.626h-1.5332l2.7881-7.1582h1.5283l2.8662,7.1582Zm-2.6611-2.832l-.9863-2.6562-.9668,2.6562h1.9531Z"/>
         <path class="uuid-685b1779-ddb8-4452-9b7c-6c9322e25441"
               d="m35.0406,77.2321v-5.9473h-2.124v-1.2109h5.6885v1.2109h-2.1191v5.9473h-1.4453Z"/>
         <path class="uuid-685b1779-ddb8-4452-9b7c-6c9322e25441"
               d="m41.149,77.2321v-5.9473h-2.124v-1.2109h5.6885v1.2109h-2.1191v5.9473h-1.4453Z"/>
         <path class="uuid-685b1779-ddb8-4452-9b7c-6c9322e25441"
               d="m45.646,77.2321v-7.1582h5.3076v1.2109h-3.8623v1.5869h3.5938v1.2061h-3.5938v1.9482h3.999v1.2061h-5.4443Z"/>
         <path class="uuid-685b1779-ddb8-4452-9b7c-6c9322e25441"
               d="m52.3209,77.2321v-7.1582h3.042c.7646,0,1.3203.0645,1.667.1924.3467.1289.624.3574.833.6865.208.3291.3125.7041.3125,1.1279,0,.5371-.1582.9805-.4736,1.3301-.3164.3506-.7881.5703-1.416.6621.3125.1816.5703.3828.7734.6006.2041.2178.4775.6055.8232,1.1621l.874,1.3965h-1.7285l-1.0449-1.5576c-.3711-.5566-.625-.9072-.7617-1.0527-.1367-.1445-.2822-.2441-.4346-.2969-.1533-.0547-.3955-.0811-.7275-.0811h-.293v2.9883h-1.4453Zm1.4453-4.1309h1.0693c.6934,0,1.126-.0293,1.2988-.0879.1719-.0586.3076-.1592.4053-.3027s.1465-.3223.1465-.5371c0-.2412-.0645-.4355-.1934-.583-.1279-.1484-.3096-.2422-.5439-.2812-.1172-.0156-.4688-.0244-1.0547-.0244h-1.1279v1.8164Z"/>
         <path class="uuid-685b1779-ddb8-4452-9b7c-6c9322e25441"
               d="m61.4175,77.2321v-3.0127l-2.6221-4.1455h1.6943l1.6846,2.832,1.6504-2.832h1.665l-2.6318,4.1553v3.0029h-1.4404Z"/>
      </g>
      <path class="uuid-ba97927d-271b-4c7b-87f4-d1d60b01e44e"
            d="m191.8308,46.7428h-105.6205"/>
      <path class="uuid-ba97927d-271b-4c7b-87f4-d1d60b01e44e"
            d="m225.9908,46.7428h-19.0836"/>
   </g>
   <g id="uuid-018136f1-5060-4eae-9259-4acad9661067" data-name="Symbols">
      <g id="uuid-5ec4187f-81d8-4fb0-ae67-536dbd7157a4" data-name="Rectifier">
         <g class="uuid-3f0b160b-237a-4e52-a452-4aeb66545cc8">
            <rect class="uuid-def11936-c3e8-45a8-a533-d679b2572408"
                  x="108.6584"
                  y="29.6628"
                  width="34.0183"
                  height="34.0183"/>
            <g class="uuid-6f13cd44-08c1-4111-91b7-6ea15d732c25">
               <rect class="uuid-d83356e1-9d18-4200-af01-eb8379f0405c"
                     x="108.6584"
                     y="29.6628"
                     width="34.0183"
                     height="34.0183"/>
               <line class="uuid-d83356e1-9d18-4200-af01-eb8379f0405c"
                     x1="142.674"
                     y1="29.6605"
                     x2="108.6566"
                     y2="63.6788"/>
            </g>
            <line class="uuid-d83356e1-9d18-4200-af01-eb8379f0405c"
                  x1="138.956"
                  y1="56.2369"
                  x2="129.3931"
                  y2="56.2369"/>
            <line class="uuid-d83356e1-9d18-4200-af01-eb8379f0405c"
                  x1="131.6446"
                  y1="58.363"
                  x2="129.3937"
                  y2="58.363"/>
            <line class="uuid-d83356e1-9d18-4200-af01-eb8379f0405c"
                  x1="135.3002"
                  y1="58.363"
                  x2="133.0494"
                  y2="58.363"/>
            <line class="uuid-d83356e1-9d18-4200-af01-eb8379f0405c"
                  x1="138.956"
                  y1="58.363"
                  x2="136.7051"
                  y2="58.363"/>
            <g class="uuid-0214076e-f2f0-47bf-9166-265d33eab1fa">
               <path class="uuid-d83356e1-9d18-4200-af01-eb8379f0405c"
                     d="m112.4106,35.5614c.1332-1.1935,1.0858-2.0061,2.1261-2.0061,1.0413,0,1.871.5301,2.1261,2.0061.2551,1.476,1.2322,2.0042,2.1261,2.0042s2.0175-.8297,2.1261-2.0042"/>
            </g>
         </g>
      </g>
      <g id="uuid-ff9a5e14-9709-4e2f-9f2d-23e2d3d8b803" data-name="Artwork 13">
         <g class="uuid-50c464d6-39b9-40a9-ae80-e1ffaa00ce98">
            <g class="uuid-282fa899-0376-4008-b177-2105346f0785">
               <path class="uuid-fa9b218f-72d4-4287-a5c2-a464bb542e6d"
                     d="m40.9675,44.6812c1.104,0,2,.896,2,2s-.896,2-2,2-2-.896-2-2,.896-2,2-2"/>
               <circle class="uuid-ba97927d-271b-4c7b-87f4-d1d60b01e44e"
                       cx="40.9675"
                       cy="46.6812"
                       r="2"/>
            </g>
         </g>
      </g>
      <g id="uuid-c46667a1-1661-4a92-a69b-074e244e0630"
         data-name="Artwork 20 no white">
         <g class="uuid-7e56de0a-7ce9-4b3b-9b56-2197426d6983">
            <g class="uuid-969970bf-8929-4974-9b79-e1005afe8fe8">
               <line class="uuid-ba97927d-271b-4c7b-87f4-d1d60b01e44e"
                     x1="71.5911"
                     y1="53.4581"
                     x2="86.2211"
                     y2="46.6921"/>
               <path d="m86.221,47.6964h0c-.55,0-1-.45-1-1,0-.551.45-1,1-1s1,.449,1,1c0,.55-.45,1-1,1"/>
               <path d="m71.5911,47.6964h0c-.55,0-1-.45-1-1,0-.551.45-1,1-1s1,.449,1,1c0,.55-.45,1-1,1"/>
            </g>
         </g>
      </g>
      <g id="uuid-09f651f2-be51-4659-ab50-e33c715576af" data-name="Artwork 13">
         <g class="uuid-e493f180-66b3-4c3e-907a-c9c304e37748">
            <g class="uuid-7d1e3056-a097-42c4-bb85-cde9e87ce8b0">
               <path class="uuid-fa9b218f-72d4-4287-a5c2-a464bb542e6d"
                     d="m225.9907,44.6155c1.104,0,2,.896,2,2s-.896,2-2,2-2-.896-2-2,.896-2,2-2"/>
               <circle class="uuid-ba97927d-271b-4c7b-87f4-d1d60b01e44e"
                       cx="225.9907"
                       cy="46.6155"
                       r="2"/>
            </g>
         </g>
      </g>
      <g id="uuid-7d91fd09-f862-4c0f-880a-f2d056a33112" data-name="Artwork 8">
         <g class="uuid-47178077-0212-464e-ab02-45cdd8a4bbe2">
            <g class="uuid-948d3e17-904f-46ab-8a4e-c5c5478d5d05">
               <line class="uuid-f615af8f-4745-44cc-8028-579fdb47a743"
                     x1="40.5535"
                     y1="94.0947"
                     x2="40.5535"
                     y2="79.3413"/>
               <line class="uuid-1c5d4a25-6e6b-4c30-b2c2-e7fc83a580cb"
                     x1="38.5354"
                     y1="90.9604"
                     x2="38.5354"
                     y2="82.4758"/>
            </g>
            <line class="uuid-c1b8c3b7-7143-4a64-bd13-db960633540d"
                  x1="40.3197"
                  y1="86.7099"
                  x2="51.3006"
                  y2="86.7099"/>
            <g class="uuid-315829af-82d6-4e38-a039-8d52d61b182b">
               <line class="uuid-f615af8f-4745-44cc-8028-579fdb47a743"
                     x1="53.3186"
                     y1="94.0868"
                     x2="53.3186"
                     y2="79.3334"/>
            </g>
            <line class="uuid-1c5d4a25-6e6b-4c30-b2c2-e7fc83a580cb"
                  x1="51.3005"
                  y1="90.9521"
                  x2="51.3005"
                  y2="82.4675"/>
         </g>
      </g>
      <g id="uuid-7a5f6764-05c1-4624-b27d-a85ad4e40667"
         data-name="Artwork 20 no white">
         <g class="uuid-54cd1cbe-4cfd-4813-97b7-72ab656129c6">
            <g class="uuid-103e4535-4a8c-476f-aa04-320d763a4b35">
               <line class="uuid-ba97927d-271b-4c7b-87f4-d1d60b01e44e"
                     x1="71.5911"
                     y1="93.4879"
                     x2="86.2211"
                     y2="86.7219"/>
               <path d="m86.221,87.7262h0c-.55,0-1-.45-1-1,0-.551.45-1,1-1s1,.449,1,1c0,.55-.45,1-1,1"/>
               <path d="m71.5911,87.7262h0c-.55,0-1-.45-1-1,0-.551.45-1,1-1s1,.449,1,1c0,.55-.45,1-1,1"/>
            </g>
         </g>
      </g>
      <text class="uuid-18c0c56c-805b-4e21-905a-365fb9e5ad38"
            transform="translate(205.4371 34.6145)">
         <tspan x="0" y="0">OUTPUT</tspan>
      </text>
      <text class="uuid-18c0c56c-805b-4e21-905a-365fb9e5ad38"
            transform="translate(14.5786 24.6718)">
         <tspan x="0" y="0">RECTIFIER</tspan>
         <tspan x="10.2783" y="12">MAINS</tspan>
      </text>
      <text class="uuid-18c0c56c-805b-4e21-905a-365fb9e5ad38"
            transform="translate(98.8751 24.6715)">
         <tspan x="0" y="0">RECTIFIER</tspan>
      </text>
      <g id="uuid-5c1dbd54-7087-478c-b900-62a15a58d0e4"
         data-name="Artwork 20 no white">
         <g class="uuid-349215af-6962-4e3a-890c-1714e38f0a8d">
            <g class="uuid-cc135abc-8583-488a-b6c9-2372868665f2">
               <line class="uuid-ba97927d-271b-4c7b-87f4-d1d60b01e44e"
                     x1="192.0851"
                     y1="53.4581"
                     x2="206.7151"
                     y2="46.6921"/>
               <path d="m206.715,47.6964h0c-.55,0-1-.45-1-1,0-.551.45-1,1-1s1,.449,1,1c0,.55-.45,1-1,1"/>
               <path d="m192.0851,47.6964h0c-.55,0-1-.45-1-1,0-.551.45-1,1-1s1,.449,1,1c0,.55-.45,1-1,1"/>
            </g>
         </g>
      </g>
      <path class="uuid-3d467ad1-a530-4d36-b0f7-7337e4c6d344"
            d="m193.5261,61.1121l-1.1797-.9141c.375-.4219.7656-.8252,1.1719-1.2109.1611-.1562.2627-.2549.3047-.2969-.1299-.0205-.5029-.1064-1.1172-.2578-.4424-.1094-.7344-.1895-.875-.2422l.4609-1.375c.6826.2764,1.292.5811,1.8281.9141-.125-.8486-.1875-1.541-.1875-2.0781h1.3906c0,.3809-.0703,1.0781-.2109,2.0938.1045-.041.3281-.1426.6719-.3047.4688-.2129.9014-.3955,1.2969-.5469l.4141,1.4141c-.5781.1309-1.2471.2578-2.0078.3828l.9375,1.0547c.1875.2139.3359.3887.4453.5234l-1.1953.7891-1.0547-1.7422c-.3174.5625-.6826,1.1621-1.0938,1.7969Z"/>
   </g>
</svg>
