<?xml version="1.0" encoding="UTF-8"?>
<svg xmlns="http://www.w3.org/2000/svg"
 id="ab3015c5-c129-4c24-9e62-28ebcfbb43b6"
     data-name="Layer 1"
     width="20mm"
     height="22mm"
     viewBox="0 0 56.69291 62.3622">
   <title>Crate_Trasport_Symbols</title>
   <g>
      <polygon points="17.913 14.637 16.691 14.009 15.115 17.083 16.338 17.711 17.913 14.637"/>
      <polygon points="20.366 9.662 19.144 9.033 17.568 12.107 18.791 12.735 20.366 9.662"/>
      <polygon points="22.819 4.686 21.597 4.058 20.022 7.132 21.244 7.76 22.819 4.686"/>
      <polygon points="26.792 9.662 25.57 9.033 23.994 12.107 25.217 12.735 26.792 9.662"/>
      <polygon points="29.245 4.686 28.023 4.058 26.447 7.132 27.67 7.76 29.245 4.686"/>
      <polygon points="35.218 9.662 33.996 9.033 32.42 12.107 33.642 12.735 35.218 9.662"/>
      <polygon points="37.671 4.686 36.449 4.058 34.873 7.132 36.095 7.76 37.671 4.686"/>
      <polygon points="41.644 9.662 40.422 9.033 38.846 12.107 40.068 12.735 41.644 9.662"/>
      <polygon points="44.097 4.686 42.875 4.058 41.299 7.132 42.521 7.76 44.097 4.686"/>
      <path d="M38.07369,16.816l1.11707-2.1792-1.22223-.62823-1.202,2.34472a27.00474,27.00474,0,0,0-4.36188-1.01361l.36029-.70288-1.22222-.62823L30.953,15.159c-.53686-.05042-1.07458-.09876-1.62109-.118V13.38346H27.20925v1.66346a27.6008,27.6008,0,0,0-3.25653.34387l.38647-.754L23.117,14.00859l-.87841,1.71362C13.35134,17.74028,6.36,24.03233,4.179,32.05027A5.38612,5.38612,0,0,1,8.7242,29.69468a5.27466,5.27466,0,0,1,4.90558,3.02991,5.27449,5.27449,0,0,1,4.90546-3.02991,5.27458,5.27458,0,0,1,4.90564,3.03,5.13855,5.13855,0,0,1,3.76837-2.90515V52.73045a3.45075,3.45075,0,1,1-6.90149,0H18.18508a5.57343,5.57343,0,1,0,11.14685,0V29.78709a5.1592,5.1592,0,0,1,3.92,2.9375,5.48608,5.48608,0,0,1,9.8111.00006,5.27465,5.27465,0,0,1,4.90564-3.03,5.38621,5.38621,0,0,1,4.54523,2.35559C50.63888,25.15745,45.20553,19.54252,38.07369,16.816Z"/>
   </g>
</svg>
