<?xml version="1.0" encoding="UTF-8"?>
<svg xmlns="http://www.w3.org/2000/svg"
     xmlns:xlink="http://www.w3.org/1999/xlink"
     width="145.7661mm"
     height="60mm"
     viewBox="0 0 413.1952 170.0787">
   <defs>
      <style>
      .cls-1, .cls-10, .cls-15, .cls-18, .cls-20, .cls-29, .cls-3, .cls-30, .cls-31, .cls-4, .cls-6, .cls-7 {
        fill: none;
      }

      .cls-2 {
        clip-path: url(#clip-path);
      }

      .cls-3, .cls-6 {
        stroke: #626469;
      }

      .cls-10, .cls-18, .cls-20, .cls-29, .cls-3, .cls-30, .cls-31, .cls-4, .cls-6, .cls-7 {
        stroke-miterlimit: 3;
      }

      .cls-10, .cls-3, .cls-6 {
        stroke-width: 0.5px;
      }

      .cls-3 {
        stroke-dasharray: 2 1;
      }

      .cls-10, .cls-15, .cls-18, .cls-20, .cls-29, .cls-30, .cls-31, .cls-4, .cls-7 {
        stroke: #000;
      }

      .cls-15, .cls-4 {
        stroke-width: 0.75px;
      }

      .cls-5 {
        fill: #c6c6c6;
      }

      .cls-7 {
        stroke-width: 2px;
      }

      .cls-8 {
        fill: #626469;
      }

      .cls-22, .cls-9 {
        fill-rule: evenodd;
      }

      .cls-11 {
        isolation: isolate;
      }

      .cls-12 {
        clip-path: url(#clip-path-4);
      }

      .cls-13 {
        font-size: 6px;
      }

      .cls-13, .cls-25, .cls-39, .cls-40 {
        fill: #01889C;
      }

      .cls-13, .cls-25, .cls-39 {
        font-family: Arial-BoldMT, Arial;
        font-weight: 700;
      }

      .cls-14 {
        clip-path: url(#clip-path-5);
      }

      .cls-15 {
        stroke-miterlimit: 10;
      }

      .cls-16 {
        clip-path: url(#clip-path-6);
      }

      .cls-17, .cls-22 {
        fill: #fff;
      }

      .cls-18 {
        stroke-width: 0.7087px;
      }

      .cls-19 {
        clip-path: url(#clip-path-9);
      }

      .cls-20 {
        stroke-width: 0.7087px;
      }

      .cls-21 {
        clip-path: url(#clip-path-12);
      }

      .cls-23 {
        clip-path: url(#clip-path-14);
      }

      .cls-24 {
        clip-path: url(#clip-path-17);
      }

      .cls-25 {
        font-size: 8px;
      }

      .cls-26 {
        clip-path: url(#clip-path-18);
      }

      .cls-27 {
        clip-path: url(#clip-path-20);
      }

      .cls-28 {
        clip-path: url(#clip-path-21);
      }

      .cls-29, .cls-31 {
        stroke-width: 0.7513px;
      }

      .cls-30 {
        stroke-width: 1.2522px;
      }

      .cls-31 {
        stroke-dasharray: 2.0034 1.0017;
      }

      .cls-32 {
        clip-path: url(#clip-path-23);
      }

      .cls-33 {
        clip-path: url(#clip-path-25);
      }

      .cls-34 {
        clip-path: url(#clip-path-27);
      }

      .cls-35 {
        clip-path: url(#clip-path-29);
      }

      .cls-36 {
        clip-path: url(#clip-path-31);
      }

      .cls-37 {
        clip-path: url(#clip-path-33);
      }

      .cls-38 {
        clip-path: url(#clip-path-34);
      }

      .cls-39 {
        font-size: 10px;
      }
    </style>
      <clipPath id="clip-path">
         <rect class="cls-1"
               x="291.9082"
               y="121.7779"
               width="73.56"
               height="31.6341"/>
      </clipPath>
      <clipPath id="clip-path-4">
         <rect class="cls-1"
               x="312.649"
               y="122.1291"
               width="24.6738"
               height="7.4067"/>
      </clipPath>
      <clipPath id="clip-path-5">
         <rect class="cls-1"
               x="320.3247"
               y="131.2516"
               width="16.9981"
               height="7.4063"/>
      </clipPath>
      <clipPath id="clip-path-6">
         <rect class="cls-1"
               x="83.5434"
               y="130.3907"
               width="35.4357"
               height="39.688"/>
      </clipPath>
      <clipPath id="clip-path-9">
         <rect class="cls-1"
               x="171.9476"
               y="130.3917"
               width="35.434"
               height="39.6861"/>
      </clipPath>
      <clipPath id="clip-path-12">
         <rect class="cls-1"
               x="381.2837"
               y="141.1158"
               width="6.125"
               height="6.125"/>
      </clipPath>
      <clipPath id="clip-path-14">
         <rect class="cls-1"
               x="238.6359"
               y="90.2428"
               width="46.8331"
               height="32"/>
      </clipPath>
      <clipPath id="clip-path-17">
         <rect class="cls-1"
               x="270.3459"
               y="114.091"
               width="11.1133"
               height="9.875"/>
      </clipPath>
      <clipPath id="clip-path-18">
         <rect class="cls-1"
               x="33.4997"
               y="147.182"
               width="6.125"
               height="6.125"/>
      </clipPath>
      <clipPath id="clip-path-20">
         <rect class="cls-1"
               x="33.5117"
               y="84.7451"
               width="15.6504"
               height="14.7535"/>
      </clipPath>
      <clipPath id="clip-path-21">
         <rect class="cls-1"
               x="33.5117"
               y="84.7452"
               width="15.6509"
               height="14.7534"/>
      </clipPath>
      <clipPath id="clip-path-23">
         <rect class="cls-1"
               x="33.4997"
               y="29.3724"
               width="6.125"
               height="6.125"/>
      </clipPath>
      <clipPath id="clip-path-25">
         <rect class="cls-1"
               x="210.5926"
               y="30.2819"
               width="4.5709"
               height="4.5819"/>
      </clipPath>
      <clipPath id="clip-path-27">
         <rect class="cls-1"
               x="204.7491"
               y="57.6593"
               width="16.2683"
               height="16.63"/>
      </clipPath>
      <clipPath id="clip-path-29">
         <rect class="cls-1"
               x="66.2927"
               y="24.3008"
               width="16.63"
               height="16.2683"/>
      </clipPath>
      <clipPath id="clip-path-31">
         <rect class="cls-1"
               x="66.2927"
               y="83.9877"
               width="16.63"
               height="16.2683"/>
      </clipPath>
      <clipPath id="clip-path-33">
         <rect class="cls-1"
               x="54.7317"
               y="142.1103"
               width="16.63"
               height="16.2683"/>
      </clipPath>
      <clipPath id="clip-path-34">
         <rect class="cls-1"
               x="54.7317"
               y="142.1106"
               width="16.63"
               height="16.268"/>
      </clipPath>
   </defs>
   <g id="MB_Auto" data-name="MB Auto">
      <g id="_2p_Bypass" data-name="2p Bypass">
         <g class="cls-2">
            <line class="cls-3"
                  x1="346.0269"
                  y1="147.277"
                  x2="346.0269"
                  y2="128.168"/>
            <line class="cls-4"
                  x1="295.1255"
                  y1="150.2458"
                  x2="328.7215"
                  y2="150.2458"/>
            <polyline class="cls-4" points="339.125 150.277 353.027 144.277 363.119 144.277"/>
            <line class="cls-5"
                  x1="337.3228"
                  y1="134.6911"
                  x2="350.8838"
                  y2="129.8381"/>
            <line class="cls-6"
                  x1="337.3228"
                  y1="134.6911"
                  x2="350.8838"
                  y2="129.8381"/>
            <line class="cls-7"
                  x1="325.1255"
                  y1="142.277"
                  x2="339.3205"
                  y2="142.277"/>
            <g class="cls-2">
               <line class="cls-7"
                     x1="325.1255"
                     y1="150.2771"
                     x2="339.3205"
                     y2="150.2771"/>
            </g>
            <line class="cls-8"
                  x1="337.3228"
                  y1="124.986"
                  x2="350.8838"
                  y2="129.839"/>
            <line class="cls-3"
                  x1="337.3228"
                  y1="124.986"
                  x2="350.8838"
                  y2="129.839"/>
            <g class="cls-2">
               <path class="cls-9" d="M362.5332,143.277a1,1,0,1,1-1,1,1,1,0,0,1,1-1"/>
               <circle class="cls-10" cx="362.5332" cy="144.277" r="1"/>
               <path class="cls-9" d="M295.1255,149.277a1,1,0,1,1-1,1,1,1,0,0,1,1-1"/>
               <circle class="cls-10" cx="295.1255" cy="150.277" r="1"/>
               <g class="cls-11">
                  <g class="cls-12">
                     <text class="cls-13" transform="translate(312.6489 127.2768)">BYPASS</text>
                  </g>
               </g>
               <g class="cls-11">
                  <g class="cls-14">
                     <text class="cls-13" transform="translate(320.3247 136.3988)">AUTO</text>
                  </g>
               </g>
            </g>
         </g>
      </g>
   </g>
   <g id="Paths">
      <polyline class="cls-15"
                points="295.073 150.244 295.073 106.243 212.878 106.243 212.878 32.573"/>
      <polyline class="cls-15"
                points="81.805 32.435 309.366 32.673 309.366 142.315 326.341 142.315"/>
      <path class="cls-4" d="M54.8442,150.2445H37.4634"/>
      <polyline class="cls-15" points="146.585 150.241 146.585 92.122 81.805 92.122"/>
      <line class="cls-4"
            x1="362.5427"
            y1="144.2542"
            x2="384.3462"
            y2="144.2542"/>
      <line class="cls-15"
            x1="66.2927"
            y1="92.1224"
            x2="49.1621"
            y2="92.1224"/>
      <line class="cls-15"
            x1="36.5622"
            y1="32.4349"
            x2="67.4146"
            y2="32.4349"/>
      <path class="cls-4" d="M295.072,150.2445H71.3617"/>
   </g>
   <g id="Parts">
      <g id="Rectifier">
         <g class="cls-16">
            <rect class="cls-17"
                  x="84.253"
                  y="133.2265"
                  width="34.0183"
                  height="34.0183"/>
            <g class="cls-16">
               <rect class="cls-18"
                     x="84.253"
                     y="133.2265"
                     width="34.0183"
                     height="34.0183"/>
               <line class="cls-18"
                     x1="118.2686"
                     y1="133.2243"
                     x2="84.2512"
                     y2="167.2426"/>
            </g>
            <line class="cls-18"
                  x1="114.5506"
                  y1="159.8006"
                  x2="104.9877"
                  y2="159.8006"/>
            <line class="cls-18"
                  x1="107.2392"
                  y1="161.9267"
                  x2="104.9883"
                  y2="161.9267"/>
            <line class="cls-18"
                  x1="110.8948"
                  y1="161.9267"
                  x2="108.644"
                  y2="161.9267"/>
            <line class="cls-18"
                  x1="114.5506"
                  y1="161.9267"
                  x2="112.2997"
                  y2="161.9267"/>
            <g class="cls-16">
               <path class="cls-18"
                     d="M88.0052,139.1251a2.1878,2.1878,0,0,1,2.1261-2.0061c1.0413,0,1.871.53,2.1261,2.0061a2.1383,2.1383,0,0,0,2.1262,2.0043,2.298,2.298,0,0,0,2.1261-2.0043"/>
            </g>
         </g>
      </g>
      <g id="Inverter">
         <g class="cls-19">
            <rect class="cls-17"
                  x="172.6554"
                  y="133.2255"
                  width="34.0176"
                  height="34.0166"/>
            <g class="cls-19">
               <rect class="cls-20"
                     x="172.6554"
                     y="133.2255"
                     width="34.0166"
                     height="34.0166"/>
               <line class="cls-20"
                     x1="172.6583"
                     y1="167.2443"
                     x2="206.674"
                     y2="133.2286"/>
            </g>
            <line class="cls-20"
                  x1="175.8445"
                  y1="139.6067"
                  x2="185.4079"
                  y2="139.6067"/>
            <line class="cls-20"
                  x1="178.0961"
                  y1="141.7327"
                  x2="175.8444"
                  y2="141.7327"/>
            <line class="cls-20"
                  x1="181.7516"
                  y1="141.7327"
                  x2="179.5008"
                  y2="141.7327"/>
            <line class="cls-20"
                  x1="185.4076"
                  y1="141.7327"
                  x2="183.1559"
                  y2="141.7327"/>
            <g class="cls-19">
               <path class="cls-20"
                     d="M194.9794,159.92a2.1864,2.1864,0,0,1,2.126-2.0061c1.0413,0,1.87.53,2.126,2.0061a2.1381,2.1381,0,0,0,2.1261,2.0041,2.2987,2.2987,0,0,0,2.126-2.0041"/>
            </g>
         </g>
      </g>
      <g id="Artwork_13" data-name="Artwork 13">
         <g class="cls-21">
            <g class="cls-21">
               <path class="cls-22"
                     d="M384.3461,142.1787a2,2,0,1,1-2,2,2.0007,2.0007,0,0,1,2-2"/>
               <circle class="cls-4" cx="384.3461" cy="144.1787" r="2"/>
            </g>
         </g>
      </g>
      <g id="Artwork_11" data-name="Artwork 11">
         <g class="cls-23">
            <rect class="cls-17"
                  x="240.0069"
                  y="91.5318"
                  width="29.339"
                  height="29.423"/>
            <g class="cls-23">
               <rect class="cls-4"
                     x="240.0069"
                     y="91.5318"
                     width="29.339"
                     height="29.423"/>
               <line class="cls-15"
                     x1="240.0071"
                     y1="106.2434"
                     x2="269.3461"
                     y2="106.2434"/>
            </g>
            <rect class="cls-17"
                  x="247.3369"
                  y="98.6588"
                  width="15.128"
                  height="15.171"/>
            <rect class="cls-4"
                  x="247.3369"
                  y="98.6588"
                  width="15.128"
                  height="15.171"/>
            <line class="cls-4"
                  x1="252.3049"
                  y1="117.509"
                  x2="252.3049"
                  y2="110.149"/>
            <line class="cls-4"
                  x1="255.2473"
                  y1="117.509"
                  x2="255.2363"
                  y2="115.167"/>
            <path d="M258.5022,111.3647v4.929l-4.909-2.464Zm.75-1.216-7.33,3.681,7.33,3.679Z"/>
            <line class="cls-4"
                  x1="257.9631"
                  y1="95.0315"
                  x2="257.9631"
                  y2="102.3915"/>
            <line class="cls-4"
                  x1="254.6741"
                  y1="94.9807"
                  x2="254.6741"
                  y2="96.9937"/>
            <path d="M251.759,96.1928l4.909,2.464-4.909,2.465Zm-.75-1.216v7.36l7.33-3.68Z"/>
            <g class="cls-23">
               <path class="cls-9"
                     d="M247.3371,105.2424a1,1,0,1,1-.997,1,.9984.9984,0,0,1,.997-1"/>
               <circle class="cls-4" cx="247.3371" cy="106.2424" r="0.997"/>
               <path class="cls-9"
                     d="M262.4651,105.2434a1,1,0,1,1-.997,1,.9984.9984,0,0,1,.997-1"/>
               <circle class="cls-4" cx="262.4651" cy="106.2434" r="0.997"/>
               <g class="cls-11">
                  <g class="cls-24">
                     <text class="cls-25" transform="translate(270.3454 120.9543)">EN</text>
                  </g>
               </g>
            </g>
         </g>
      </g>
      <g id="Artwork_13-2" data-name="Artwork 13">
         <g class="cls-26">
            <g class="cls-26">
               <path class="cls-22"
                     d="M36.5621,148.2449a2,2,0,1,1-2,2,2.0007,2.0007,0,0,1,2-2"/>
               <circle class="cls-4" cx="36.5621" cy="150.2449" r="2"/>
            </g>
         </g>
      </g>
      <g id="Artwork_8" data-name="Artwork 8">
         <g class="cls-27">
            <g class="cls-28">
               <line class="cls-29"
                     x1="36.1481"
                     y1="99.5065"
                     x2="36.1481"
                     y2="84.7531"/>
               <line class="cls-30"
                     x1="34.13"
                     y1="96.3722"
                     x2="34.13"
                     y2="87.8876"/>
            </g>
            <line class="cls-31"
                  x1="35.9143"
                  y1="92.1217"
                  x2="46.8952"
                  y2="92.1217"/>
            <g class="cls-28">
               <line class="cls-29"
                     x1="48.9132"
                     y1="99.4986"
                     x2="48.9132"
                     y2="84.7452"/>
            </g>
            <line class="cls-30"
                  x1="46.8951"
                  y1="96.3639"
                  x2="46.8951"
                  y2="87.8793"/>
         </g>
      </g>
      <g id="Artwork_13-3" data-name="Artwork 13">
         <g class="cls-32">
            <g class="cls-32">
               <path class="cls-22"
                     d="M36.5621,30.4353a2,2,0,1,1-2,2,2.0007,2.0007,0,0,1,2-2"/>
               <circle class="cls-4" cx="36.5621" cy="32.4353" r="2"/>
            </g>
         </g>
      </g>
      <g id="shape116-109">
         <g class="cls-33">
            <g class="cls-33">
               <path class="cls-9"
                     d="M212.8777,31.57a1.003,1.003,0,1,1-1,1.003,1.001,1.001,0,0,1,1-1.003"/>
               <circle class="cls-10" cx="212.8777" cy="32.5725" r="1"/>
            </g>
         </g>
      </g>
      <g id="Artwork_20" data-name="Artwork 20">
         <g class="cls-34">
            <rect class="cls-17"
                  x="210.3521"
                  y="58.6773"
                  width="5.032"
                  height="14.612"/>
            <g class="cls-34">
               <line class="cls-4"
                     x1="212.8715"
                     y1="58.6594"
                     x2="206.1055"
                     y2="73.2894"/>
               <path d="M211.8676,73.2893h0a1,1,0,1,1,1,1,1.0029,1.0029,0,0,1-1-1"/>
               <path d="M211.8676,58.6594h0a1,1,0,1,1,1,1,1.0029,1.0029,0,0,1-1-1"/>
            </g>
         </g>
      </g>
      <g id="Artwork_20-2" data-name="Artwork 20">
         <g class="cls-35">
            <rect class="cls-17"
                  x="67.3107"
                  y="29.9341"
                  width="14.612"
                  height="5.032"/>
            <g class="cls-35">
               <line class="cls-4"
                     x1="67.2928"
                     y1="39.2123"
                     x2="81.9228"
                     y2="32.4463"/>
               <path d="M81.9227,33.4506h0a1,1,0,1,1,1-1,1.0029,1.0029,0,0,1-1,1"/>
               <path d="M67.2928,33.4506h0a1,1,0,1,1,1-1,1.0029,1.0029,0,0,1-1,1"/>
            </g>
         </g>
      </g>
      <g id="Artwork_20-3" data-name="Artwork 20">
         <g class="cls-36">
            <rect class="cls-17"
                  x="67.3107"
                  y="89.621"
                  width="14.612"
                  height="5.032"/>
            <g class="cls-36">
               <line class="cls-4"
                     x1="67.2928"
                     y1="98.8992"
                     x2="81.9228"
                     y2="92.1332"/>
               <path d="M81.9227,93.1375h0a1,1,0,1,1,1-1,1.0029,1.0029,0,0,1-1,1"/>
               <path d="M67.2928,93.1375h0a1,1,0,1,1,1-1,1.0029,1.0029,0,0,1-1,1"/>
            </g>
         </g>
      </g>
      <g id="Artwork_20-4" data-name="Artwork 20">
         <g class="cls-37">
            <rect class="cls-17"
                  x="55.7497"
                  y="147.7436"
                  width="14.612"
                  height="5.032"/>
            <g class="cls-38">
               <line class="cls-4"
                     x1="55.7318"
                     y1="157.0218"
                     x2="70.3618"
                     y2="150.2558"/>
               <path d="M70.3617,151.26h0a1,1,0,1,1,1-1,1.0029,1.0029,0,0,1-1,1"/>
               <path d="M55.7318,151.26h0a1,1,0,1,1,1-1,1.0029,1.0029,0,0,1-1,1"/>
            </g>
         </g>
      </g>
   </g>
   <g id="Text">
      <text class="cls-39" transform="translate(16.001 13.2645)">BYPASS<tspan x="4.4507" y="12">MAINS</tspan>
      </text>
      <text class="cls-39" transform="translate(237.0739 74.2839)">STATIC<tspan x="-1.665" y="12">SWITCH</tspan>
      </text>
      <text class="cls-39" transform="translate(20.0478 80.1217)">BATTERY</text>
      <text class="cls-39" transform="translate(74.4694 128.2351)">RECTIFIER</text>
      <text class="cls-39" transform="translate(164.3837 128.235)">INVERTER</text>
      <text class="cls-39" transform="translate(365.5513 137.845)">OUTPUT</text>
      <g>
         <path class="cls-40"
               d="M10.9056,131.5679V124.41h3.042a5.1928,5.1928,0,0,1,1.6674.1934,1.6446,1.6446,0,0,1,.8326.6855,2.0632,2.0632,0,0,1,.3125,1.128,1.9125,1.9125,0,0,1-.4737,1.331,2.2742,2.2742,0,0,1-1.416.6611,3.3975,3.3975,0,0,1,.7739.6006,8.2019,8.2019,0,0,1,.8228,1.1621l.874,1.3965H15.6126L14.5677,130.01a10.0387,10.0387,0,0,0-.7618-1.0518,1.1031,1.1031,0,0,0-.4345-.2978,2.3787,2.3787,0,0,0-.7276-.0811h-.2929v2.9883Zm1.4453-4.1308H13.42a5.52,5.52,0,0,0,1.2988-.0879.777.777,0,0,0,.4053-.3028.93.93,0,0,0,.1465-.5371.858.858,0,0,0-.1929-.583.8831.8831,0,0,0-.5444-.2812q-.1758-.0235-1.0547-.0244H12.3509Z"/>
         <path class="cls-40"
               d="M18.1224,131.5679V124.41H23.43v1.211H19.5677v1.5869h3.5937v1.206H19.5677v1.9483h3.999v1.206Z"/>
         <path class="cls-40"
               d="M29.3724,128.9361l1.4013.4443a3.1469,3.1469,0,0,1-1.0718,1.7412,3.3741,3.3741,0,0,1-4.2456-.4052,3.7287,3.7287,0,0,1-.9179-2.6641,3.912,3.912,0,0,1,.9228-2.7754,3.165,3.165,0,0,1,2.4268-.9893,2.9776,2.9776,0,0,1,2.1338.7764,2.8274,2.8274,0,0,1,.7324,1.3184l-1.4307.3418a1.4789,1.4789,0,0,0-1.5088-1.2012,1.6287,1.6287,0,0,0-1.2915.5713,2.8,2.8,0,0,0-.4956,1.8506,3,3,0,0,0,.4883,1.9336,1.5837,1.5837,0,0,0,1.27.5761,1.4477,1.4477,0,0,0,.9913-.3662A2.1261,2.1261,0,0,0,29.3724,128.9361Z"/>
         <path class="cls-40"
               d="M33.6253,131.5679v-5.9472h-2.124V124.41H37.19v1.211H35.0706v5.9472Z"/>
         <path class="cls-40" d="M38.0784,131.5679V124.41h1.4453v7.1582Z"/>
         <path class="cls-40"
               d="M40.91,131.5679V124.41h4.9073v1.211H42.3558v1.6943H45.344v1.2109H42.3558v3.042Z"/>
         <path class="cls-40" d="M46.9651,131.5679V124.41H48.41v7.1582Z"/>
         <path class="cls-40"
               d="M49.7874,131.5679V124.41H55.095v1.211H51.2327v1.5869h3.5938v1.206H51.2327v1.9483h3.999v1.206Z"/>
         <path class="cls-40"
               d="M56.4622,131.5679V124.41h3.042a5.194,5.194,0,0,1,1.6675.1934,1.6444,1.6444,0,0,1,.8325.6855,2.0623,2.0623,0,0,1,.3125,1.128,1.9125,1.9125,0,0,1-.4736,1.331,2.2744,2.2744,0,0,1-1.4161.6611,3.3982,3.3982,0,0,1,.774.6006,8.2033,8.2033,0,0,1,.8227,1.1621l.874,1.3965H61.1692L60.1243,130.01a10.0588,10.0588,0,0,0-.7617-1.0518,1.1027,1.1027,0,0,0-.4346-.2978,2.378,2.378,0,0,0-.7275-.0811h-.293v2.9883Zm1.4453-4.1308h1.0693a5.5212,5.5212,0,0,0,1.2989-.0879.7771.7771,0,0,0,.4052-.3028.93.93,0,0,0,.1465-.5371.858.858,0,0,0-.1928-.583.8836.8836,0,0,0-.5445-.2812q-.1758-.0235-1.0547-.0244H57.9075Z"/>
         <path class="cls-40"
               d="M21.16,143.5679V136.41h2.1631l1.2988,4.8828,1.2842-4.8828h2.1679v7.1582H26.7308v-5.6347L25.31,143.5679H23.9183l-1.4161-5.6347v5.6347Z"/>
         <path class="cls-40"
               d="M35.9642,143.5679H34.3919l-.625-1.626H30.9056l-.5909,1.626H28.7815L31.57,136.41h1.5283Zm-2.6612-2.832-.9863-2.6563-.9668,2.6563Z"/>
         <path class="cls-40" d="M36.6868,143.5679V136.41h1.4453v7.1582Z"/>
         <path class="cls-40"
               d="M39.5237,143.5679V136.41H40.93l2.93,4.78v-4.78h1.3427v7.1582h-1.45L40.8665,138.9v4.6679Z"/>
         <path class="cls-40"
               d="M46.3645,141.2388l1.4063-.1367a1.7108,1.7108,0,0,0,.5151,1.04,1.5558,1.5558,0,0,0,1.0474.3321,1.6133,1.6133,0,0,0,1.0522-.295.88.88,0,0,0,.354-.6914.6507.6507,0,0,0-.1489-.4316,1.1845,1.1845,0,0,0-.52-.31q-.2541-.0879-1.1572-.3125a3.9131,3.9131,0,0,1-1.6309-.7081,1.8622,1.8622,0,0,1-.6592-1.44,1.84,1.84,0,0,1,.31-1.0224,1.94,1.94,0,0,1,.8935-.7256,3.5817,3.5817,0,0,1,1.4087-.2491,3.023,3.023,0,0,1,2.0288.5909,2.0876,2.0876,0,0,1,.7154,1.5771l-1.4453.0635a1.2279,1.2279,0,0,0-.398-.793,1.4577,1.4577,0,0,0-.9155-.2422,1.6569,1.6569,0,0,0-.9863.2588.5226.5226,0,0,0-.2295.4444.5486.5486,0,0,0,.2148.4345,3.7893,3.7893,0,0,0,1.3281.4785,6.987,6.987,0,0,1,1.56.5157,2.0053,2.0053,0,0,1,.791.7275,2.1272,2.1272,0,0,1,.2857,1.14,2.1053,2.1053,0,0,1-.3418,1.1523,2.053,2.053,0,0,1-.9668.7988,4.06,4.06,0,0,1-1.5577.2608,3.1023,3.1023,0,0,1-2.0849-.627A2.732,2.732,0,0,1,46.3645,141.2388Z"/>
      </g>
      <text class="cls-39" transform="translate(313.5778 95.3767)">MANUAL BYPASS<tspan x="23.894" y="12">SWITCH</tspan>
      </text>
   </g>
</svg>
