<?xml version="1.0" encoding="UTF-8"?>
<svg xmlns="http://www.w3.org/2000/svg"
     xmlns:xlink="http://www.w3.org/1999/xlink"
     width="146.4821mm"
     height="60.7122mm"
     viewBox="0 0 415.2249 172.0976">
   <defs>
      <style>
      .cls-1, .cls-10, .cls-2, .cls-21, .cls-22, .cls-23, .cls-32, .cls-33, .cls-34, .cls-35, .cls-4, .cls-5, .cls-8 {
        fill: none;
      }

      .cls-2 {
        stroke: #c6c6c6;
        stroke-width: 5px;
      }

      .cls-10, .cls-2, .cls-21, .cls-22, .cls-23, .cls-32, .cls-33, .cls-34, .cls-35, .cls-5, .cls-8 {
        stroke-miterlimit: 3;
      }

      .cls-3 {
        fill: #c6c6c6;
      }

      .cls-10, .cls-21, .cls-22, .cls-23, .cls-34, .cls-35, .cls-4, .cls-5, .cls-8 {
        stroke: #000;
      }

      .cls-4 {
        stroke-miterlimit: 10;
      }

      .cls-4, .cls-5 {
        stroke-width: 0.75px;
      }

      .cls-6 {
        clip-path: url(#clip-path);
      }

      .cls-12, .cls-7 {
        fill: #fff;
      }

      .cls-8 {
        stroke-width: 0.7087px;
      }

      .cls-9 {
        clip-path: url(#clip-path-4);
      }

      .cls-10 {
        stroke-width: 0.7087px;
      }

      .cls-11 {
        clip-path: url(#clip-path-7);
      }

      .cls-12, .cls-14 {
        fill-rule: evenodd;
      }

      .cls-13 {
        clip-path: url(#clip-path-9);
      }

      .cls-15 {
        isolation: isolate;
      }

      .cls-16 {
        clip-path: url(#clip-path-12);
      }

      .cls-17 {
        font-size: 8px;
      }

      .cls-17, .cls-38, .cls-42 {
        fill: #01889C;
        font-family: Arial-BoldMT, Arial;
        font-weight: 700;
      }

      .cls-18 {
        clip-path: url(#clip-path-13);
      }

      .cls-19 {
        clip-path: url(#clip-path-15);
      }

      .cls-20 {
        clip-path: url(#clip-path-16);
      }

      .cls-21, .cls-23 {
        stroke-width: 0.7513px;
      }

      .cls-22 {
        stroke-width: 1.2522px;
      }

      .cls-23 {
        stroke-dasharray: 2.0034 1.0017;
      }

      .cls-24 {
        clip-path: url(#clip-path-18);
      }

      .cls-25 {
        clip-path: url(#clip-path-20);
      }

      .cls-26 {
        clip-path: url(#clip-path-22);
      }

      .cls-27 {
        clip-path: url(#clip-path-25);
      }

      .cls-28 {
        clip-path: url(#clip-path-26);
      }

      .cls-29 {
        clip-path: url(#clip-path-27);
      }

      .cls-30 {
        clip-path: url(#clip-path-29);
      }

      .cls-31 {
        clip-path: url(#clip-path-31);
      }

      .cls-32, .cls-33 {
        stroke: #626469;
      }

      .cls-32, .cls-33, .cls-34 {
        stroke-width: 0.5px;
      }

      .cls-32 {
        stroke-dasharray: 2 1;
      }

      .cls-35 {
        stroke-width: 2px;
      }

      .cls-36 {
        fill: #626469;
      }

      .cls-37 {
        clip-path: url(#clip-path-33);
      }

      .cls-38 {
        font-size: 6px;
      }

      .cls-39 {
        clip-path: url(#clip-path-34);
      }

      .cls-40 {
        clip-path: url(#clip-path-35);
      }

      .cls-41 {
        clip-path: url(#clip-path-36);
      }

      .cls-42 {
        font-size: 10px;
      }
    </style>
      <clipPath id="clip-path">
         <rect class="cls-1"
               x="87.9488"
               y="128.0584"
               width="35.4357"
               height="39.688"/>
      </clipPath>
      <clipPath id="clip-path-4">
         <rect class="cls-1"
               x="176.353"
               y="128.0594"
               width="35.434"
               height="39.6861"/>
      </clipPath>
      <clipPath id="clip-path-7">
         <rect class="cls-1"
               x="385.4147"
               y="136.4786"
               width="6.125"
               height="6.125"/>
      </clipPath>
      <clipPath id="clip-path-9">
         <rect class="cls-1"
               x="243.0413"
               y="87.9105"
               width="46.8331"
               height="32"/>
      </clipPath>
      <clipPath id="clip-path-12">
         <rect class="cls-1"
               x="274.7513"
               y="111.7587"
               width="11.1133"
               height="9.875"/>
      </clipPath>
      <clipPath id="clip-path-13">
         <rect class="cls-1"
               x="37.9051"
               y="144.8497"
               width="6.125"
               height="6.125"/>
      </clipPath>
      <clipPath id="clip-path-15">
         <rect class="cls-1"
               x="37.9171"
               y="82.4128"
               width="15.6504"
               height="14.7535"/>
      </clipPath>
      <clipPath id="clip-path-16">
         <rect class="cls-1"
               x="37.9171"
               y="82.4129"
               width="15.6509"
               height="14.7534"/>
      </clipPath>
      <clipPath id="clip-path-18">
         <rect class="cls-1"
               x="37.9051"
               y="27.0401"
               width="6.125"
               height="6.125"/>
      </clipPath>
      <clipPath id="clip-path-20">
         <rect class="cls-1"
               x="243.0413"
               y="131.9024"
               width="46.8331"
               height="32"/>
      </clipPath>
      <clipPath id="clip-path-22">
         <rect class="cls-1"
               x="274.7513"
               y="155.7506"
               width="11.1133"
               height="9.875"/>
      </clipPath>
      <clipPath id="clip-path-25">
         <rect class="cls-1"
               x="70.591"
               y="21.9685"
               width="16.63"
               height="16.2683"/>
      </clipPath>
      <clipPath id="clip-path-26">
         <rect class="cls-1"
               x="70.591"
               y="21.9688"
               width="16.63"
               height="16.268"/>
      </clipPath>
      <clipPath id="clip-path-27">
         <rect class="cls-1"
               x="70.591"
               y="81.6559"
               width="16.63"
               height="16.2683"/>
      </clipPath>
      <clipPath id="clip-path-29">
         <rect class="cls-1"
               x="59.1371"
               y="139.778"
               width="16.63"
               height="16.2683"/>
      </clipPath>
      <clipPath id="clip-path-31">
         <rect class="cls-1"
               x="296.9523"
               y="39.1353"
               width="76.0872"
               height="111.302"/>
      </clipPath>
      <clipPath id="clip-path-33">
         <rect class="cls-1"
               x="310.1222"
               y="39.5403"
               width="24.6738"
               height="7.406"/>
      </clipPath>
      <clipPath id="clip-path-34">
         <rect class="cls-1"
               x="319.462"
               y="45.5403"
               width="15.334"
               height="7.4061"/>
      </clipPath>
      <clipPath id="clip-path-35">
         <rect class="cls-1"
               x="317.7979"
               y="51.5396"
               width="16.9981"
               height="7.4063"/>
      </clipPath>
      <clipPath id="clip-path-36">
         <rect class="cls-1"
               x="297.192"
               y="145.6115"
               width="4.5709"
               height="4.5819"/>
      </clipPath>
   </defs>
   <g id="Paths">
      <path class="cls-2"
            d="M38.981,30.3908H358.6318v41.44H348.4234l-13.3963,7.9166H311.0484V57.2223h-93.765v46.9764h82.2559l.0488,44.4382"/>
      <g>
         <polyline class="cls-2"
                   points="297.253 148.197 334.664 147.622 348.493 139.829 394.826 139.829"/>
         <polygon class="cls-3"
                  points="393.367 144.816 402.003 139.829 393.367 134.843 393.367 144.816"/>
      </g>
      <g>
         <polygon class="cls-3"
                  points="153.259 143.964 153.259 147.331 148.722 143.709 148.722 140.342 153.259 143.964"/>
         <polygon class="cls-3"
                  points="153.259 136.109 153.259 139.476 148.722 135.854 148.722 132.487 153.259 136.109"/>
         <polygon class="cls-3"
                  points="153.259 128.254 153.259 131.621 148.722 127.999 148.722 124.632 153.259 128.254"/>
         <polygon class="cls-3"
                  points="153.259 120.399 153.259 123.766 148.722 120.144 148.722 116.777 153.259 120.399"/>
         <polygon class="cls-3"
                  points="153.259 112.544 153.259 115.911 148.722 112.289 148.722 108.922 153.259 112.544"/>
         <polygon class="cls-3"
                  points="153.259 104.689 153.259 108.056 148.722 104.434 148.722 101.067 153.259 104.689"/>
         <polygon class="cls-3"
                  points="153.259 96.834 153.259 100.202 148.722 96.58 148.722 93.212 153.259 96.834"/>
         <polygon class="cls-3"
                  points="145.235 87.81 148.602 87.81 144.98 92.347 141.613 92.347 145.235 87.81"/>
         <polygon class="cls-3"
                  points="138.125 87.81 141.492 87.81 137.87 92.347 134.503 92.347 138.125 87.81"/>
         <polygon class="cls-3"
                  points="131.015 87.81 134.382 87.81 130.76 92.347 127.393 92.347 131.015 87.81"/>
         <polygon class="cls-3"
                  points="123.905 87.81 127.273 87.81 123.651 92.347 120.283 92.347 123.905 87.81"/>
         <polygon class="cls-3"
                  points="116.795 87.81 120.163 87.81 116.541 92.347 113.173 92.347 116.795 87.81"/>
         <polygon class="cls-3"
                  points="109.685 87.81 113.053 87.81 109.431 92.347 106.063 92.347 109.685 87.81"/>
         <polygon class="cls-3"
                  points="102.575 87.81 105.943 87.81 102.321 92.347 98.953 92.347 102.575 87.81"/>
         <polygon class="cls-3"
                  points="95.466 87.81 98.833 87.81 95.211 92.347 91.844 92.347 95.466 87.81"/>
         <polygon class="cls-3"
                  points="88.356 87.81 91.723 87.81 88.101 92.347 84.734 92.347 88.356 87.81"/>
         <polygon class="cls-3"
                  points="81.246 87.81 84.613 87.81 80.991 92.347 77.624 92.347 81.246 87.81"/>
         <polygon class="cls-3"
                  points="74.136 87.81 77.504 87.81 73.882 92.347 70.514 92.347 74.136 87.81"/>
         <polygon class="cls-3"
                  points="67.026 87.81 70.394 87.81 66.772 92.347 63.404 92.347 67.026 87.81"/>
         <polygon class="cls-3"
                  points="59.916 87.81 63.284 87.81 59.662 92.347 56.294 92.347 59.916 87.81"/>
         <polygon class="cls-3"
                  points="52.806 87.81 56.174 87.81 52.552 92.347 49.184 92.347 52.806 87.81"/>
         <polygon class="cls-3"
                  points="45.697 87.81 49.064 87.81 45.442 92.347 42.075 92.347 45.697 87.81"/>
         <polygon class="cls-3"
                  points="38.587 87.81 41.954 87.81 38.332 92.347 34.965 92.347 38.587 87.81"/>
      </g>
      <g>
         <polygon class="cls-3"
                  points="356.381 75.301 356.37 71.934 360.918 75.54 360.93 78.908 356.381 75.301"/>
         <polygon class="cls-3"
                  points="356.411 84.091 356.399 80.723 360.948 84.33 360.959 87.697 356.411 84.091"/>
         <polygon class="cls-3"
                  points="352.903 89.51 356.271 89.513 352.646 94.046 349.278 94.044 352.903 89.51"/>
         <polygon class="cls-3"
                  points="345.756 89.505 349.123 89.507 345.498 94.041 342.13 94.039 345.756 89.505"/>
         <polygon class="cls-3"
                  points="338.608 89.5 341.976 89.502 338.35 94.036 334.983 94.034 338.608 89.5"/>
         <polygon class="cls-3"
                  points="331.46 89.494 334.828 89.497 331.203 94.031 327.835 94.028 331.46 89.494"/>
         <polygon class="cls-3"
                  points="324.313 89.489 327.68 89.492 324.055 94.025 320.687 94.023 324.313 89.489"/>
         <polygon class="cls-3"
                  points="317.165 89.484 320.533 89.486 316.907 94.02 313.54 94.018 317.165 89.484"/>
         <polygon class="cls-3"
                  points="308.831 97.924 308.843 94.557 313.367 98.195 313.354 101.563 308.831 97.924"/>
         <polygon class="cls-3"
                  points="308.804 105.469 308.816 102.102 313.339 105.74 313.327 109.108 308.804 105.469"/>
         <polygon class="cls-3"
                  points="317.549 114.2 314.181 114.2 317.803 109.663 321.171 109.663 317.549 114.2"/>
      </g>
      <polygon class="cls-3"
               points="316.02 105.933 312.653 105.933 316.275 101.396 319.642 101.396 316.02 105.933"/>
      <polygon class="cls-3"
               points="316.02 72.394 312.653 72.394 316.275 67.858 319.642 67.858 316.02 72.394"/>
      <g>
         <polygon class="cls-3"
                  points="339.627 119.439 336.712 121.126 337.576 115.385 340.491 113.699 339.627 119.439"/>
         <path class="cls-3"
               d="M346.2024,115.6356l-2.9149,1.6864.8634-5.74,3.1784-1.8389a3.2433,3.2433,0,0,0-.4794,1.5876l-.2158,1.4352Z"/>
         <path class="cls-3"
               d="M352.1349,113.9743H349.074c-.1554-.378.34-.7561.5988-1.1341l.9055-1.1342,1.811-2.2682h3.3676Z"/>
         <polygon class="cls-3"
                  points="356.363 118.564 356.363 115.196 360.9 118.818 360.9 122.185 356.363 118.564"/>
         <polygon class="cls-3"
                  points="356.363 126.775 356.363 123.407 360.9 127.029 360.9 130.397 356.363 126.775"/>
         <polygon class="cls-3"
                  points="356.363 134.986 356.363 131.618 360.9 135.24 360.9 138.608 356.363 134.986"/>
      </g>
      <g>
         <polygon class="cls-3"
                  points="42.331 150.459 38.963 150.459 42.585 145.922 45.953 145.922 42.331 150.459"/>
         <polygon class="cls-3"
                  points="49.377 150.459 46.01 150.459 49.632 145.922 52.999 145.922 49.377 150.459"/>
         <polygon class="cls-3"
                  points="56.424 150.459 53.056 150.459 56.678 145.922 60.046 145.922 56.424 150.459"/>
         <polygon class="cls-3"
                  points="63.47 150.459 60.103 150.459 63.725 145.922 67.092 145.922 63.47 150.459"/>
         <polygon class="cls-3"
                  points="70.517 150.459 67.149 150.459 70.771 145.922 74.139 145.922 70.517 150.459"/>
         <polygon class="cls-3"
                  points="77.564 150.459 74.196 150.459 77.818 145.922 81.185 145.922 77.564 150.459"/>
         <polygon class="cls-3"
                  points="84.61 150.459 81.243 150.459 84.864 145.922 88.232 145.922 84.61 150.459"/>
         <polygon class="cls-3"
                  points="91.657 150.459 88.289 150.459 91.911 145.922 95.279 145.922 91.657 150.459"/>
         <polygon class="cls-3"
                  points="98.703 150.459 95.336 150.459 98.958 145.922 102.325 145.922 98.703 150.459"/>
         <polygon class="cls-3"
                  points="105.75 150.459 102.382 150.459 106.004 145.922 109.372 145.922 105.75 150.459"/>
         <polygon class="cls-3"
                  points="112.796 150.459 109.429 150.459 113.051 145.922 116.418 145.922 112.796 150.459"/>
         <polygon class="cls-3"
                  points="119.843 150.459 116.475 150.459 120.097 145.922 123.465 145.922 119.843 150.459"/>
         <polygon class="cls-3"
                  points="126.889 150.459 123.522 150.459 127.144 145.922 130.511 145.922 126.889 150.459"/>
         <polygon class="cls-3"
                  points="133.936 150.459 130.568 150.459 134.19 145.922 137.558 145.922 133.936 150.459"/>
         <polygon class="cls-3"
                  points="140.983 150.459 137.615 150.459 141.237 145.922 144.604 145.922 140.983 150.459"/>
         <polygon class="cls-3"
                  points="148.029 150.459 144.661 150.459 148.283 145.922 151.651 145.922 148.029 150.459"/>
         <polygon class="cls-3"
                  points="155.076 150.459 151.708 150.459 155.33 145.922 158.698 145.922 155.076 150.459"/>
         <polygon class="cls-3"
                  points="162.122 150.459 158.755 150.459 162.377 145.922 165.744 145.922 162.122 150.459"/>
         <polygon class="cls-3"
                  points="169.169 150.459 165.801 150.459 169.423 145.922 172.791 145.922 169.169 150.459"/>
         <polygon class="cls-3"
                  points="176.215 150.459 172.848 150.459 176.47 145.922 179.837 145.922 176.215 150.459"/>
         <polygon class="cls-3"
                  points="183.262 150.459 179.894 150.459 183.516 145.922 186.884 145.922 183.262 150.459"/>
         <polygon class="cls-3"
                  points="190.308 150.459 186.941 150.459 190.563 145.922 193.93 145.922 190.308 150.459"/>
         <polygon class="cls-3"
                  points="197.355 150.459 193.987 150.459 197.609 145.922 200.977 145.922 197.355 150.459"/>
         <polygon class="cls-3"
                  points="204.401 150.459 201.034 150.459 204.656 145.922 208.023 145.922 204.401 150.459"/>
         <polygon class="cls-3"
                  points="211.448 150.459 208.08 150.459 211.702 145.922 215.07 145.922 211.448 150.459"/>
         <polygon class="cls-3"
                  points="218.495 150.459 215.127 150.459 218.749 145.922 222.117 145.922 218.495 150.459"/>
         <polygon class="cls-3"
                  points="225.541 150.459 222.174 150.459 225.796 145.922 229.163 145.922 225.541 150.459"/>
         <polygon class="cls-3"
                  points="232.588 150.459 229.22 150.459 232.842 145.922 236.21 145.922 232.588 150.459"/>
         <polygon class="cls-3"
                  points="239.634 150.459 236.267 150.459 239.889 145.922 243.256 145.922 239.634 150.459"/>
         <polygon class="cls-3"
                  points="246.681 150.459 243.313 150.459 246.935 145.922 250.303 145.922 246.681 150.459"/>
         <polygon class="cls-3"
                  points="253.727 150.459 250.36 150.459 253.982 145.922 257.349 145.922 253.727 150.459"/>
         <polygon class="cls-3"
                  points="260.774 150.459 257.406 150.459 261.028 145.922 264.396 145.922 260.774 150.459"/>
         <polygon class="cls-3"
                  points="267.82 150.459 264.453 150.459 268.075 145.922 271.442 145.922 267.82 150.459"/>
         <polygon class="cls-3"
                  points="274.867 150.459 271.499 150.459 275.121 145.922 278.489 145.922 274.867 150.459"/>
         <polygon class="cls-3"
                  points="281.914 150.459 278.546 150.459 282.168 145.922 285.536 145.922 281.914 150.459"/>
         <polygon class="cls-3"
                  points="288.96 150.459 285.593 150.459 289.214 145.922 292.582 145.922 288.96 150.459"/>
         <polygon class="cls-3"
                  points="296.007 150.459 292.639 150.459 296.261 145.922 299.629 145.922 296.007 150.459"/>
      </g>
   </g>
   <g id="Diagrams">
      <polyline class="cls-4"
                points="299.479 147.974 299.479 103.973 217.283 103.973 217.283 56.996 310.988 56.996 310.988 71.605"/>
      <polyline class="cls-4" points="86.21 30.165 358.571 30.403 358.571 71.605"/>
      <path class="cls-5" d="M321.9664,147.9743H75.7671"/>
      <path class="cls-5" d="M59.25,147.9743H41.8688"/>
      <polyline class="cls-4" points="150.991 147.97 150.991 89.852 86.21 89.852"/>
      <line class="cls-5"
            x1="359.3322"
            y1="139.6791"
            x2="388.4772"
            y2="139.6791"/>
      <line class="cls-4"
            x1="70.6981"
            y1="89.8522"
            x2="53.5675"
            y2="89.8522"/>
      <line class="cls-4"
            x1="40.9676"
            y1="30.1647"
            x2="71.82"
            y2="30.1647"/>
   </g>
   <g id="Symbols">
      <g id="Rectifier">
         <g class="cls-6">
            <rect class="cls-7"
                  x="88.6584"
                  y="130.8942"
                  width="34.0183"
                  height="34.0183"/>
            <g class="cls-6">
               <rect class="cls-8"
                     x="88.6584"
                     y="130.8942"
                     width="34.0183"
                     height="34.0183"/>
               <line class="cls-8"
                     x1="122.674"
                     y1="130.892"
                     x2="88.6566"
                     y2="164.9103"/>
            </g>
            <line class="cls-8"
                  x1="118.956"
                  y1="157.4683"
                  x2="109.3931"
                  y2="157.4683"/>
            <line class="cls-8"
                  x1="111.6446"
                  y1="159.5944"
                  x2="109.3937"
                  y2="159.5944"/>
            <line class="cls-8"
                  x1="115.3002"
                  y1="159.5944"
                  x2="113.0494"
                  y2="159.5944"/>
            <line class="cls-8"
                  x1="118.956"
                  y1="159.5944"
                  x2="116.7051"
                  y2="159.5944"/>
            <g class="cls-6">
               <path class="cls-8"
                     d="M92.4106,136.7928a2.1878,2.1878,0,0,1,2.1261-2.0061c1.0413,0,1.871.53,2.1261,2.0061a2.1383,2.1383,0,0,0,2.1262,2.0043,2.298,2.298,0,0,0,2.1261-2.0043"/>
            </g>
         </g>
      </g>
      <g id="Inverter">
         <g class="cls-9">
            <rect class="cls-7"
                  x="177.0608"
                  y="130.8932"
                  width="34.0176"
                  height="34.0166"/>
            <g class="cls-9">
               <rect class="cls-10"
                     x="177.0608"
                     y="130.8932"
                     width="34.0166"
                     height="34.0166"/>
               <line class="cls-10"
                     x1="177.0637"
                     y1="164.912"
                     x2="211.0794"
                     y2="130.8963"/>
            </g>
            <line class="cls-10"
                  x1="180.2499"
                  y1="137.2744"
                  x2="189.8133"
                  y2="137.2744"/>
            <line class="cls-10"
                  x1="182.5015"
                  y1="139.4005"
                  x2="180.2498"
                  y2="139.4005"/>
            <line class="cls-10"
                  x1="186.157"
                  y1="139.4005"
                  x2="183.9062"
                  y2="139.4005"/>
            <line class="cls-10"
                  x1="189.813"
                  y1="139.4005"
                  x2="187.5613"
                  y2="139.4005"/>
            <g class="cls-9">
               <path class="cls-10"
                     d="M199.3847,157.5872a2.1865,2.1865,0,0,1,2.1261-2.0061c1.0413,0,1.87.53,2.126,2.0061a2.1381,2.1381,0,0,0,2.1261,2.0041,2.2987,2.2987,0,0,0,2.126-2.0041"/>
            </g>
         </g>
      </g>
      <g id="Artwork_13" data-name="Artwork 13">
         <g class="cls-11">
            <g class="cls-11">
               <path class="cls-12"
                     d="M388.4771,137.5415a2,2,0,1,1-2,2,2.0007,2.0007,0,0,1,2-2"/>
               <circle class="cls-5" cx="388.4771" cy="139.5415" r="2"/>
            </g>
         </g>
      </g>
      <g id="Artwork_11" data-name="Artwork 11">
         <g class="cls-13">
            <rect class="cls-7"
                  x="244.4123"
                  y="89.1995"
                  width="29.339"
                  height="29.423"/>
            <g class="cls-13">
               <rect class="cls-5"
                     x="244.4123"
                     y="89.1995"
                     width="29.339"
                     height="29.423"/>
               <line class="cls-4"
                     x1="244.4125"
                     y1="103.9111"
                     x2="273.7515"
                     y2="103.9111"/>
            </g>
            <rect class="cls-7"
                  x="251.7423"
                  y="96.3265"
                  width="15.128"
                  height="15.171"/>
            <rect class="cls-5"
                  x="251.7423"
                  y="96.3265"
                  width="15.128"
                  height="15.171"/>
            <line class="cls-5"
                  x1="256.7103"
                  y1="115.1767"
                  x2="256.7103"
                  y2="107.8167"/>
            <line class="cls-5"
                  x1="259.6527"
                  y1="115.1767"
                  x2="259.6417"
                  y2="112.8347"/>
            <path d="M262.9076,109.0324v4.929l-4.909-2.464Zm.75-1.216-7.33,3.681,7.33,3.679Z"/>
            <line class="cls-5"
                  x1="262.3685"
                  y1="92.6992"
                  x2="262.3685"
                  y2="100.0592"/>
            <line class="cls-5"
                  x1="259.0795"
                  y1="92.6484"
                  x2="259.0795"
                  y2="94.6614"/>
            <path d="M256.1644,93.8605l4.909,2.464-4.909,2.465Zm-.75-1.216v7.36l7.33-3.68Z"/>
            <g class="cls-13">
               <path class="cls-14"
                     d="M251.7425,102.91a1,1,0,1,1-.997,1,.9984.9984,0,0,1,.997-1"/>
               <circle class="cls-5" cx="251.7425" cy="103.9101" r="0.997"/>
               <path class="cls-14"
                     d="M266.8705,102.9111a1,1,0,1,1-.997,1,.9984.9984,0,0,1,.997-1"/>
               <circle class="cls-5" cx="266.8705" cy="103.9111" r="0.997"/>
               <g class="cls-15">
                  <g class="cls-16">
                     <text class="cls-17" transform="translate(274.7508 118.622)">EN</text>
                  </g>
               </g>
            </g>
         </g>
      </g>
      <g id="Artwork_13-2" data-name="Artwork 13">
         <g class="cls-18">
            <g class="cls-18">
               <path class="cls-12"
                     d="M40.9675,145.9126a2,2,0,1,1-2,2,2.0007,2.0007,0,0,1,2-2"/>
               <circle class="cls-5" cx="40.9675" cy="147.9126" r="2"/>
            </g>
         </g>
      </g>
      <g id="Artwork_8" data-name="Artwork 8">
         <g class="cls-19">
            <g class="cls-20">
               <line class="cls-21"
                     x1="40.5535"
                     y1="97.1742"
                     x2="40.5535"
                     y2="82.4208"/>
               <line class="cls-22"
                     x1="38.5354"
                     y1="94.0399"
                     x2="38.5354"
                     y2="85.5553"/>
            </g>
            <line class="cls-23"
                  x1="40.3197"
                  y1="89.7894"
                  x2="51.3006"
                  y2="89.7894"/>
            <g class="cls-20">
               <line class="cls-21"
                     x1="53.3186"
                     y1="97.1663"
                     x2="53.3186"
                     y2="82.4129"/>
            </g>
            <line class="cls-22"
                  x1="51.3005"
                  y1="94.0316"
                  x2="51.3005"
                  y2="85.547"/>
         </g>
      </g>
      <g id="Artwork_13-3" data-name="Artwork 13">
         <g class="cls-24">
            <g class="cls-24">
               <path class="cls-12"
                     d="M40.9675,28.103a2,2,0,1,1-2,2,2.0007,2.0007,0,0,1,2-2"/>
               <circle class="cls-5" cx="40.9675" cy="30.103" r="2"/>
            </g>
         </g>
      </g>
      <g id="Artwork_12" data-name="Artwork 12">
         <g class="cls-25">
            <g class="cls-25">
               <g class="cls-15">
                  <g class="cls-26">
                     <text class="cls-17" transform="translate(274.7508 162.613)">EA</text>
                  </g>
               </g>
            </g>
            <rect class="cls-7"
                  x="244.4123"
                  y="133.1904"
                  width="29.339"
                  height="29.423"/>
            <g class="cls-25">
               <rect class="cls-5"
                     x="244.4123"
                     y="133.1904"
                     width="29.339"
                     height="29.423"/>
               <line class="cls-4"
                     x1="244.4125"
                     y1="147.9029"
                     x2="273.7515"
                     y2="147.9029"/>
            </g>
            <rect class="cls-7"
                  x="251.7423"
                  y="140.3184"
                  width="15.128"
                  height="15.171"/>
            <rect class="cls-5"
                  x="251.7423"
                  y="140.3184"
                  width="15.128"
                  height="15.171"/>
            <line class="cls-5"
                  x1="256.7103"
                  y1="159.1685"
                  x2="256.7103"
                  y2="151.8085"/>
            <line class="cls-5"
                  x1="259.6527"
                  y1="159.1685"
                  x2="259.6417"
                  y2="156.8265"/>
            <path d="M262.9076,153.0242v4.929l-4.909-2.464Zm.75-1.216-7.33,3.681,7.33,3.679Z"/>
            <line class="cls-5"
                  x1="262.3685"
                  y1="136.691"
                  x2="262.3685"
                  y2="144.051"/>
            <line class="cls-5"
                  x1="259.0795"
                  y1="136.6397"
                  x2="259.0795"
                  y2="138.6527"/>
            <path d="M256.1644,137.8523l4.909,2.464-4.909,2.465Zm-.75-1.216v7.36l7.33-3.68Z"/>
            <g class="cls-25">
               <path class="cls-14"
                     d="M251.7425,146.9029a1,1,0,1,1-.997,1,.9978.9978,0,0,1,.997-1"/>
               <circle class="cls-5" cx="251.7425" cy="147.9029" r="0.997"/>
               <path class="cls-14"
                     d="M266.8705,146.9029a1,1,0,1,1-.997,1,.9984.9984,0,0,1,.997-1"/>
               <circle class="cls-5" cx="266.8705" cy="147.9029" r="0.997"/>
            </g>
         </g>
      </g>
      <g id="Artwork_20_no_white" data-name="Artwork 20 no white">
         <g class="cls-27">
            <g class="cls-28">
               <line class="cls-5"
                     x1="71.5911"
                     y1="36.88"
                     x2="86.2211"
                     y2="30.114"/>
               <path d="M86.221,31.1183h0a1,1,0,1,1,1-1,1.0029,1.0029,0,0,1-1,1"/>
               <path d="M71.5911,31.1183h0a1,1,0,1,1,1-1,1.0029,1.0029,0,0,1-1,1"/>
            </g>
         </g>
      </g>
      <g id="Artwork_20_no_white-2" data-name="Artwork 20 no white">
         <g class="cls-29">
            <g class="cls-29">
               <line class="cls-5"
                     x1="71.5911"
                     y1="96.5674"
                     x2="86.2211"
                     y2="89.8014"/>
               <path d="M86.221,90.8057h0a1,1,0,1,1,1-1,1.0029,1.0029,0,0,1-1,1"/>
               <path d="M71.5911,90.8057h0a1,1,0,1,1,1-1,1.0029,1.0029,0,0,1-1,1"/>
            </g>
         </g>
      </g>
      <g id="Artwork_20_no_white-3" data-name="Artwork 20 no white">
         <g class="cls-30">
            <g class="cls-30">
               <line class="cls-5"
                     x1="60.1372"
                     y1="154.6895"
                     x2="74.7672"
                     y2="147.9235"/>
               <path d="M74.7671,148.9278h0a1,1,0,1,1,1-1,1.0029,1.0029,0,0,1-1,1"/>
               <path d="M60.1372,148.9278h0a1,1,0,1,1,1-1,1.0029,1.0029,0,0,1-1,1"/>
            </g>
         </g>
      </g>
      <g id="Auto">
         <g class="cls-31">
            <line class="cls-32"
                  x1="342.1153"
                  y1="143.3507"
                  x2="342.1153"
                  y2="44.8227"/>
            <line class="cls-5"
                  x1="311.0499"
                  y1="103.6871"
                  x2="327.6989"
                  y2="103.6871"/>
            <polyline class="cls-5"
                      points="327.699 79.687 311.05 79.687 311.05 71.687 327.699 71.687"/>
            <line class="cls-3"
                  x1="335.089"
                  y1="55.1021"
                  x2="348.65"
                  y2="48.2491"/>
            <line class="cls-33"
                  x1="335.089"
                  y1="55.1021"
                  x2="348.65"
                  y2="48.2491"/>
            <polyline class="cls-5"
                      points="334.601 119.687 348.503 111.687 358.625 111.687 358.625 139.663 348.503 139.663 334.601 147.687"/>
            <polyline class="cls-5"
                      points="334.601 79.687 348.503 71.687 358.625 71.687 358.625 91.687 311.05 91.687 311.05 111.687 327.699 111.687"/>
            <g class="cls-31">
               <path class="cls-14" d="M311.05,70.6871a1,1,0,1,1-1,1,1,1,0,0,1,1-1"/>
               <circle class="cls-34" cx="311.0499" cy="71.6871" r="1"/>
               <path class="cls-14" d="M358.6256,70.6871a1,1,0,1,1-1,1,1,1,0,0,1,1-1"/>
               <circle class="cls-34" cx="358.6256" cy="71.6871" r="1"/>
               <path class="cls-14" d="M311.05,102.6871a1,1,0,1,1-1,1,1,1,0,0,1,1-1"/>
               <circle class="cls-34" cx="311.0499" cy="103.6871" r="1"/>
               <path class="cls-14" d="M358.6222,138.6876a1,1,0,1,1-1,1,1,1,0,0,1,1-1"/>
               <circle class="cls-34" cx="358.6222" cy="139.6876" r="1"/>
               <line class="cls-35"
                     x1="320.6012"
                     y1="139.6876"
                     x2="334.7962"
                     y2="139.6876"/>
               <line class="cls-35"
                     x1="320.6012"
                     y1="131.6876"
                     x2="334.7962"
                     y2="131.6876"/>
               <line class="cls-35"
                     x1="320.6012"
                     y1="147.6876"
                     x2="334.7962"
                     y2="147.6876"/>
               <line class="cls-35"
                     x1="320.6012"
                     y1="111.6871"
                     x2="334.7962"
                     y2="111.6871"/>
               <line class="cls-35"
                     x1="320.6012"
                     y1="103.6871"
                     x2="334.7962"
                     y2="103.6871"/>
               <line class="cls-35"
                     x1="320.6012"
                     y1="119.6871"
                     x2="334.7962"
                     y2="119.6871"/>
               <line class="cls-35"
                     x1="320.6012"
                     y1="71.6871"
                     x2="334.7962"
                     y2="71.6871"/>
               <line class="cls-35"
                     x1="320.6012"
                     y1="63.6871"
                     x2="334.7962"
                     y2="63.6871"/>
               <line class="cls-35"
                     x1="320.6012"
                     y1="79.6871"
                     x2="334.7962"
                     y2="79.6871"/>
               <line class="cls-32"
                     x1="335.089"
                     y1="48.2496"
                     x2="348.65"
                     y2="48.2496"/>
               <line class="cls-36"
                     x1="335.089"
                     y1="41.3966"
                     x2="348.65"
                     y2="48.2496"/>
               <line class="cls-32"
                     x1="335.089"
                     y1="41.3966"
                     x2="348.65"
                     y2="48.2496"/>
               <g class="cls-15">
                  <g class="cls-37">
                     <text class="cls-38" transform="translate(310.1222 44.6874)">BYPASS</text>
                  </g>
               </g>
               <g class="cls-15">
                  <g class="cls-39">
                     <text class="cls-38" transform="translate(319.4621 50.6874)">TEST</text>
                  </g>
               </g>
               <g class="cls-15">
                  <g class="cls-40">
                     <text class="cls-38" transform="translate(317.798 56.6874)">AUTO</text>
                  </g>
               </g>
            </g>
         </g>
      </g>
      <g id="shape116-109">
         <g class="cls-41">
            <g class="cls-41">
               <path class="cls-14"
                     d="M299.4771,146.8991a1.003,1.003,0,1,1-1,1.003,1.001,1.001,0,0,1,1-1.003"/>
               <circle class="cls-34" cx="299.4771" cy="147.9021" r="1"/>
            </g>
         </g>
      </g>
   </g>
   <g id="Text">
      <text class="cls-42" transform="translate(20.4065 10.9322)">BYPASS<tspan x="4.4507" y="12">MAINS</tspan>
      </text>
      <text class="cls-42" transform="translate(289.3548 10.9322)">MANUAL BYPASS<tspan x="23.894" y="12">SWITCH</tspan>
      </text>
      <text class="cls-42" transform="translate(241.4795 71.9516)">STATIC<tspan x="-8.335" y="12">SWITCHES</tspan>
      </text>
      <text class="cls-42" transform="translate(24.4533 77.7895)">BATTERY</text>
      <text class="cls-42" transform="translate(78.8751 125.9028)">RECTIFIER</text>
      <text class="cls-42" transform="translate(168.7893 125.9027)">INVERTER</text>
      <text class="cls-42" transform="translate(14.5786 125.903)">RECTIFIER<tspan x="10.2783" y="12">MAINS</tspan>
      </text>
      <text class="cls-42" transform="translate(371.1168 132.8339)">OUTPUT</text>
   </g>
</svg>
