<?xml version="1.0" encoding="UTF-8"?>
<svg xmlns="http://www.w3.org/2000/svg"
     xmlns:xlink="http://www.w3.org/1999/xlink"
     width="146.4821mm"
     height="60.7122mm"
     viewBox="0 0 415.2249 172.0976">
   <defs>
      <style>
      .cls-1, .cls-10, .cls-21, .cls-22, .cls-23, .cls-3, .cls-32, .cls-33, .cls-34, .cls-35, .cls-4, .cls-5, .cls-8 {
        fill: none;
      }

      .cls-2 {
        fill: #c6c6c6;
      }

      .cls-3 {
        stroke: #c6c6c6;
        stroke-width: 5px;
      }

      .cls-10, .cls-21, .cls-22, .cls-23, .cls-3, .cls-32, .cls-33, .cls-34, .cls-35, .cls-5, .cls-8 {
        stroke-miterlimit: 3;
      }

      .cls-10, .cls-21, .cls-22, .cls-23, .cls-34, .cls-35, .cls-4, .cls-5, .cls-8 {
        stroke: #000;
      }

      .cls-4 {
        stroke-miterlimit: 10;
      }

      .cls-4, .cls-5 {
        stroke-width: 0.75px;
      }

      .cls-6 {
        clip-path: url(#clip-path);
      }

      .cls-12, .cls-7 {
        fill: #fff;
      }

      .cls-8 {
        stroke-width: 0.7087px;
      }

      .cls-9 {
        clip-path: url(#clip-path-4);
      }

      .cls-10 {
        stroke-width: 0.7087px;
      }

      .cls-11 {
        clip-path: url(#clip-path-7);
      }

      .cls-12, .cls-14 {
        fill-rule: evenodd;
      }

      .cls-13 {
        clip-path: url(#clip-path-9);
      }

      .cls-15 {
        isolation: isolate;
      }

      .cls-16 {
        clip-path: url(#clip-path-12);
      }

      .cls-17 {
        font-size: 8px;
      }

      .cls-17, .cls-38, .cls-42 {
        fill: #01889C;
        font-family: Arial-BoldMT, Arial;
        font-weight: 700;
      }

      .cls-18 {
        clip-path: url(#clip-path-13);
      }

      .cls-19 {
        clip-path: url(#clip-path-15);
      }

      .cls-20 {
        clip-path: url(#clip-path-16);
      }

      .cls-21, .cls-23 {
        stroke-width: 0.7513px;
      }

      .cls-22 {
        stroke-width: 1.2522px;
      }

      .cls-23 {
        stroke-dasharray: 2.0034 1.0017;
      }

      .cls-24 {
        clip-path: url(#clip-path-18);
      }

      .cls-25 {
        clip-path: url(#clip-path-20);
      }

      .cls-26 {
        clip-path: url(#clip-path-22);
      }

      .cls-27 {
        clip-path: url(#clip-path-25);
      }

      .cls-28 {
        clip-path: url(#clip-path-26);
      }

      .cls-29 {
        clip-path: url(#clip-path-27);
      }

      .cls-30 {
        clip-path: url(#clip-path-29);
      }

      .cls-31 {
        clip-path: url(#clip-path-31);
      }

      .cls-32, .cls-33 {
        stroke: #626469;
      }

      .cls-32, .cls-33, .cls-34 {
        stroke-width: 0.5px;
      }

      .cls-32 {
        stroke-dasharray: 2 1;
      }

      .cls-35 {
        stroke-width: 2px;
      }

      .cls-36 {
        fill: #626469;
      }

      .cls-37 {
        clip-path: url(#clip-path-33);
      }

      .cls-38 {
        font-size: 6px;
      }

      .cls-39 {
        clip-path: url(#clip-path-34);
      }

      .cls-40 {
        clip-path: url(#clip-path-35);
      }

      .cls-41 {
        clip-path: url(#clip-path-36);
      }

      .cls-42 {
        font-size: 10px;
      }
    </style>
      <clipPath id="clip-path">
         <rect class="cls-1"
               x="87.9488"
               y="128.0584"
               width="35.4357"
               height="39.688"/>
      </clipPath>
      <clipPath id="clip-path-4">
         <rect class="cls-1"
               x="176.353"
               y="128.0594"
               width="35.434"
               height="39.6861"/>
      </clipPath>
      <clipPath id="clip-path-7">
         <rect class="cls-1"
               x="385.4147"
               y="136.4786"
               width="6.125"
               height="6.125"/>
      </clipPath>
      <clipPath id="clip-path-9">
         <rect class="cls-1"
               x="243.0413"
               y="87.9105"
               width="46.8331"
               height="32"/>
      </clipPath>
      <clipPath id="clip-path-12">
         <rect class="cls-1"
               x="274.7513"
               y="111.7587"
               width="11.1133"
               height="9.875"/>
      </clipPath>
      <clipPath id="clip-path-13">
         <rect class="cls-1"
               x="37.9051"
               y="144.8497"
               width="6.125"
               height="6.125"/>
      </clipPath>
      <clipPath id="clip-path-15">
         <rect class="cls-1"
               x="37.9171"
               y="82.4128"
               width="15.6504"
               height="14.7535"/>
      </clipPath>
      <clipPath id="clip-path-16">
         <rect class="cls-1"
               x="37.9171"
               y="82.4129"
               width="15.6509"
               height="14.7534"/>
      </clipPath>
      <clipPath id="clip-path-18">
         <rect class="cls-1"
               x="37.9051"
               y="27.0401"
               width="6.125"
               height="6.125"/>
      </clipPath>
      <clipPath id="clip-path-20">
         <rect class="cls-1"
               x="243.0413"
               y="131.9024"
               width="46.8331"
               height="32"/>
      </clipPath>
      <clipPath id="clip-path-22">
         <rect class="cls-1"
               x="274.7513"
               y="155.7506"
               width="11.1133"
               height="9.875"/>
      </clipPath>
      <clipPath id="clip-path-25">
         <rect class="cls-1"
               x="70.591"
               y="21.9685"
               width="16.63"
               height="16.2683"/>
      </clipPath>
      <clipPath id="clip-path-26">
         <rect class="cls-1"
               x="70.591"
               y="21.9688"
               width="16.63"
               height="16.268"/>
      </clipPath>
      <clipPath id="clip-path-27">
         <rect class="cls-1"
               x="70.591"
               y="81.6559"
               width="16.63"
               height="16.2683"/>
      </clipPath>
      <clipPath id="clip-path-29">
         <rect class="cls-1"
               x="59.1371"
               y="139.778"
               width="16.63"
               height="16.2683"/>
      </clipPath>
      <clipPath id="clip-path-31">
         <rect class="cls-1"
               x="296.9523"
               y="39.1353"
               width="76.0872"
               height="111.302"/>
      </clipPath>
      <clipPath id="clip-path-33">
         <rect class="cls-1"
               x="310.1222"
               y="39.5403"
               width="24.6738"
               height="7.406"/>
      </clipPath>
      <clipPath id="clip-path-34">
         <rect class="cls-1"
               x="319.462"
               y="45.5403"
               width="15.334"
               height="7.4061"/>
      </clipPath>
      <clipPath id="clip-path-35">
         <rect class="cls-1"
               x="317.7979"
               y="51.5396"
               width="16.9981"
               height="7.4063"/>
      </clipPath>
      <clipPath id="clip-path-36">
         <rect class="cls-1"
               x="297.192"
               y="145.6115"
               width="4.5709"
               height="4.5819"/>
      </clipPath>
   </defs>
   <g id="Paths">
      <g>
         <polygon class="cls-2"
                  points="42.267 32.634 38.899 32.634 42.521 28.098 45.889 28.098 42.267 32.634"/>
         <polygon class="cls-2"
                  points="49.321 32.634 45.953 32.634 49.575 28.098 52.943 28.098 49.321 32.634"/>
         <polygon class="cls-2"
                  points="56.375 32.634 53.007 32.634 56.629 28.098 59.997 28.098 56.375 32.634"/>
         <polygon class="cls-2"
                  points="63.429 32.634 60.061 32.634 63.683 28.098 67.051 28.098 63.429 32.634"/>
         <polygon class="cls-2"
                  points="70.483 32.634 67.115 32.634 70.737 28.098 74.105 28.098 70.483 32.634"/>
         <polygon class="cls-2"
                  points="77.537 32.634 74.169 32.634 77.791 28.098 81.159 28.098 77.537 32.634"/>
         <polygon class="cls-2"
                  points="84.591 32.634 81.223 32.634 84.845 28.098 88.213 28.098 84.591 32.634"/>
         <polygon class="cls-2"
                  points="91.645 32.634 88.277 32.634 91.899 28.098 95.267 28.098 91.645 32.634"/>
         <polygon class="cls-2"
                  points="98.699 32.634 95.331 32.634 98.953 28.098 102.321 28.098 98.699 32.634"/>
         <polygon class="cls-2"
                  points="105.753 32.634 102.385 32.634 106.007 28.098 109.375 28.098 105.753 32.634"/>
         <polygon class="cls-2"
                  points="112.807 32.634 109.439 32.634 113.061 28.098 116.429 28.098 112.807 32.634"/>
         <polygon class="cls-2"
                  points="119.861 32.634 116.493 32.634 120.115 28.098 123.483 28.098 119.861 32.634"/>
         <polygon class="cls-2"
                  points="126.915 32.634 123.547 32.634 127.169 28.098 130.537 28.098 126.915 32.634"/>
         <polygon class="cls-2"
                  points="133.969 32.634 130.601 32.634 134.223 28.098 137.591 28.098 133.969 32.634"/>
         <polygon class="cls-2"
                  points="141.023 32.634 137.655 32.634 141.277 28.098 144.645 28.098 141.023 32.634"/>
         <polygon class="cls-2"
                  points="148.077 32.634 144.709 32.634 148.331 28.098 151.699 28.098 148.077 32.634"/>
         <polygon class="cls-2"
                  points="155.131 32.634 151.763 32.634 155.385 28.098 158.753 28.098 155.131 32.634"/>
         <polygon class="cls-2"
                  points="162.185 32.634 158.817 32.634 162.439 28.098 165.807 28.098 162.185 32.634"/>
         <polygon class="cls-2"
                  points="169.239 32.634 165.871 32.634 169.493 28.098 172.861 28.098 169.239 32.634"/>
         <polygon class="cls-2"
                  points="176.293 32.634 172.925 32.634 176.547 28.098 179.915 28.098 176.293 32.634"/>
         <polygon class="cls-2"
                  points="183.347 32.634 179.979 32.634 183.601 28.098 186.969 28.098 183.347 32.634"/>
         <polygon class="cls-2"
                  points="190.401 32.634 187.033 32.634 190.655 28.098 194.023 28.098 190.401 32.634"/>
         <polygon class="cls-2"
                  points="197.455 32.634 194.087 32.634 197.709 28.098 201.077 28.098 197.455 32.634"/>
         <polygon class="cls-2"
                  points="204.509 32.634 201.141 32.634 204.763 28.098 208.131 28.098 204.509 32.634"/>
         <polygon class="cls-2"
                  points="211.563 32.634 208.195 32.634 211.817 28.098 215.185 28.098 211.563 32.634"/>
         <polygon class="cls-2"
                  points="218.617 32.634 215.249 32.634 218.871 28.098 222.239 28.098 218.617 32.634"/>
         <polygon class="cls-2"
                  points="225.671 32.634 222.303 32.634 225.925 28.098 229.293 28.098 225.671 32.634"/>
         <polygon class="cls-2"
                  points="232.725 32.634 229.357 32.634 232.979 28.098 236.347 28.098 232.725 32.634"/>
         <polygon class="cls-2"
                  points="239.779 32.634 236.411 32.634 240.033 28.098 243.401 28.098 239.779 32.634"/>
         <polygon class="cls-2"
                  points="246.833 32.634 243.465 32.634 247.087 28.098 250.455 28.098 246.833 32.634"/>
         <polygon class="cls-2"
                  points="253.887 32.634 250.519 32.634 254.141 28.098 257.509 28.098 253.887 32.634"/>
         <polygon class="cls-2"
                  points="260.941 32.634 257.573 32.634 261.195 28.098 264.563 28.098 260.941 32.634"/>
         <polygon class="cls-2"
                  points="267.995 32.634 264.627 32.634 268.249 28.098 271.617 28.098 267.995 32.634"/>
         <polygon class="cls-2"
                  points="275.049 32.634 271.681 32.634 275.303 28.098 278.671 28.098 275.049 32.634"/>
         <polygon class="cls-2"
                  points="282.103 32.634 278.735 32.634 282.357 28.098 285.725 28.098 282.103 32.634"/>
         <polygon class="cls-2"
                  points="289.157 32.634 285.789 32.634 289.411 28.098 292.779 28.098 289.157 32.634"/>
         <polygon class="cls-2"
                  points="296.211 32.634 292.843 32.634 296.465 28.098 299.833 28.098 296.211 32.634"/>
         <polygon class="cls-2"
                  points="303.265 32.634 299.897 32.634 303.519 28.098 306.887 28.098 303.265 32.634"/>
         <polygon class="cls-2"
                  points="310.319 32.634 306.951 32.634 310.573 28.098 313.941 28.098 310.319 32.634"/>
         <polygon class="cls-2"
                  points="317.373 32.634 314.005 32.634 317.627 28.098 320.995 28.098 317.373 32.634"/>
         <polygon class="cls-2"
                  points="324.427 32.634 321.059 32.634 324.681 28.098 328.049 28.098 324.427 32.634"/>
         <polygon class="cls-2"
                  points="331.481 32.634 328.113 32.634 331.735 28.098 335.103 28.098 331.481 32.634"/>
         <polygon class="cls-2"
                  points="338.535 32.634 335.167 32.634 338.789 28.098 342.157 28.098 338.535 32.634"/>
         <polygon class="cls-2"
                  points="345.589 32.634 342.221 32.634 345.843 28.098 349.211 28.098 345.589 32.634"/>
         <polygon class="cls-2"
                  points="352.643 32.634 349.275 32.634 352.897 28.098 356.265 28.098 352.643 32.634"/>
         <polygon class="cls-2"
                  points="356.34 36.36 356.33 32.993 360.877 36.601 360.887 39.969 356.34 36.36"/>
         <polygon class="cls-2"
                  points="356.362 43.709 356.352 40.341 360.899 43.95 360.909 47.317 356.362 43.709"/>
         <polygon class="cls-2"
                  points="356.383 51.057 356.373 47.689 360.92 51.298 360.93 54.666 356.383 51.057"/>
         <polygon class="cls-2"
                  points="356.405 58.405 356.395 55.038 360.942 58.646 360.952 62.014 356.405 58.405"/>
         <polygon class="cls-2"
                  points="356.426 65.753 356.416 62.386 360.963 65.994 360.973 69.362 356.426 65.753"/>
         <path class="cls-2"
               d="M352.6117,69.7339h3.3676l-3.622,4.5367h-2.7637l-.0067-.026a1.44,1.44,0,0,1-.0279-.5639c-.0159-.1879.2271-.3758.3518-.5638l.9-1.1277Z"/>
         <path class="cls-2"
               d="M344.5467,71.87l3.041-1.6741a2.218,2.218,0,0,0-.1217.2288l-.0308.1788-.0616.3576-.1231.7151-.2463,1.43-.4926,2.8605-2.95,1.624Z"/>
         <polygon class="cls-2"
                  points="338.022 75.462 340.972 73.838 339.987 79.559 337.037 81.183 338.022 75.462"/>
         <path class="cls-2"
               d="M332.2523,77.4545h2.1507l.0444-.0245a3.5286,3.5286,0,0,1,.16.8182c.0533.6239-.6615,1.2476-1.1151,1.8715l-1.4941,1.8714H328.63Z"/>
         <polygon class="cls-2"
                  points="324.804 77.454 328.172 77.454 324.55 81.991 321.182 81.991 324.804 77.454"/>
         <polygon class="cls-2"
                  points="317.356 77.454 320.724 77.454 317.102 81.991 313.734 81.991 317.356 77.454"/>
         <polygon class="cls-2"
                  points="313.276 72.75 313.276 76.118 308.739 72.496 308.739 69.128 313.276 72.75"/>
         <polygon class="cls-2"
                  points="313.276 64.424 313.276 67.792 308.739 64.17 308.739 60.802 313.276 64.424"/>
         <polygon class="cls-2"
                  points="304.963 54.929 308.33 54.929 304.709 59.466 301.341 59.466 304.963 54.929"/>
         <polygon class="cls-2"
                  points="297.565 54.929 300.932 54.929 297.31 59.466 293.943 59.466 297.565 54.929"/>
         <polygon class="cls-2"
                  points="290.166 54.929 293.534 54.929 289.912 59.466 286.544 59.466 290.166 54.929"/>
         <polygon class="cls-2"
                  points="282.768 54.929 286.136 54.929 282.514 59.466 279.146 59.466 282.768 54.929"/>
         <polygon class="cls-2"
                  points="275.37 54.929 278.738 54.929 275.116 59.466 271.748 59.466 275.37 54.929"/>
         <polygon class="cls-2"
                  points="267.972 54.929 271.339 54.929 267.717 59.466 264.35 59.466 267.972 54.929"/>
         <polygon class="cls-2"
                  points="260.574 54.929 263.941 54.929 260.319 59.466 256.952 59.466 260.574 54.929"/>
         <polygon class="cls-2"
                  points="253.175 54.929 256.543 54.929 252.921 59.466 249.553 59.466 253.175 54.929"/>
         <polygon class="cls-2"
                  points="245.777 54.929 249.145 54.929 245.523 59.466 242.155 59.466 245.777 54.929"/>
         <polygon class="cls-2"
                  points="238.379 54.929 241.746 54.929 238.124 59.466 234.757 59.466 238.379 54.929"/>
         <polygon class="cls-2"
                  points="230.981 54.929 234.348 54.929 230.726 59.466 227.359 59.466 230.981 54.929"/>
         <polygon class="cls-2"
                  points="223.582 54.929 226.95 54.929 223.328 59.466 219.96 59.466 223.582 54.929"/>
         <polygon class="cls-2"
                  points="215.015 62.905 215.015 59.537 219.552 63.159 219.552 66.527 215.015 62.905"/>
         <polygon class="cls-2"
                  points="215.015 69.966 215.015 66.599 219.552 70.221 219.552 73.588 215.015 69.966"/>
         <polygon class="cls-2"
                  points="215.015 77.028 215.015 73.66 219.552 77.282 219.552 80.65 215.015 77.028"/>
         <polygon class="cls-2"
                  points="215.015 84.089 215.015 80.721 219.552 84.343 219.552 87.711 215.015 84.089"/>
         <polygon class="cls-2"
                  points="215.015 91.15 215.015 87.783 219.552 91.405 219.552 94.772 215.015 91.15"/>
         <polygon class="cls-2"
                  points="215.015 98.212 215.015 94.844 219.552 98.466 219.552 101.834 215.015 98.212"/>
         <polygon class="cls-2"
                  points="223.762 106.442 220.394 106.442 224.016 101.905 227.384 101.905 223.762 106.442"/>
         <polygon class="cls-2"
                  points="231.593 106.442 228.226 106.442 231.848 101.905 235.215 101.905 231.593 106.442"/>
         <polygon class="cls-2"
                  points="239.425 106.442 236.058 106.442 239.68 101.905 243.047 101.905 239.425 106.442"/>
         <polygon class="cls-2"
                  points="247.257 106.442 243.889 106.442 247.511 101.905 250.879 101.905 247.257 106.442"/>
         <polygon class="cls-2"
                  points="255.089 106.442 251.721 106.442 255.343 101.905 258.711 101.905 255.089 106.442"/>
      </g>
      <g>
         <polyline class="cls-3"
                   points="35.923 89.79 150.991 89.79 150.991 147.908 40.968 147.902"/>
         <polygon class="cls-2"
                  points="37.382 94.776 28.747 89.79 37.382 84.803 37.382 94.776"/>
      </g>
      <g>
         <polygon class="cls-2"
                  points="356.416 76.518 356.437 73.151 360.951 76.801 360.931 80.168 356.416 76.518"/>
         <polygon class="cls-2"
                  points="356.366 84.67 356.387 81.303 360.901 84.953 360.88 88.32 356.366 84.67"/>
         <polygon class="cls-2"
                  points="352.818 89.454 356.185 89.454 352.563 93.991 349.196 93.991 352.818 89.454"/>
         <polygon class="cls-2"
                  points="345.677 89.454 349.045 89.454 345.423 93.991 342.055 93.991 345.677 89.454"/>
         <polygon class="cls-2"
                  points="338.536 89.454 341.904 89.454 338.282 93.991 334.914 93.991 338.536 89.454"/>
         <polygon class="cls-2"
                  points="331.395 89.454 334.763 89.454 331.141 93.991 327.773 93.991 331.395 89.454"/>
         <polygon class="cls-2"
                  points="324.255 89.454 327.622 89.454 324 93.991 320.633 93.991 324.255 89.454"/>
         <polygon class="cls-2"
                  points="317.114 89.454 320.481 89.454 316.86 93.991 313.492 93.991 317.114 89.454"/>
         <polygon class="cls-2"
                  points="308.79 97.898 308.802 94.531 313.326 98.169 313.313 101.537 308.79 97.898"/>
         <polygon class="cls-2"
                  points="308.763 105.444 308.775 102.076 313.298 105.715 313.286 109.082 308.763 105.444"/>
         <polygon class="cls-2"
                  points="317.508 114.175 314.14 114.175 317.762 109.638 321.13 109.638 317.508 114.175"/>
      </g>
      <polygon class="cls-2"
               points="315.979 105.908 312.612 105.908 316.234 101.371 319.601 101.371 315.979 105.908"/>
      <polygon class="cls-2"
               points="315.979 72.369 312.612 72.369 316.234 67.833 319.601 67.833 315.979 72.369"/>
      <g>
         <polygon class="cls-2"
                  points="190.492 145.634 193.859 145.634 190.237 150.17 186.87 150.17 190.492 145.634"/>
         <polygon class="cls-2"
                  points="183.291 145.634 186.659 145.634 183.037 150.17 179.669 150.17 183.291 145.634"/>
         <polygon class="cls-2"
                  points="176.091 145.634 179.458 145.634 175.836 150.17 172.469 150.17 176.091 145.634"/>
         <polygon class="cls-2"
                  points="168.89 145.634 172.258 145.634 168.636 150.17 165.268 150.17 168.89 145.634"/>
         <polygon class="cls-2"
                  points="161.69 145.634 165.058 145.634 161.436 150.17 158.068 150.17 161.69 145.634"/>
         <polygon class="cls-2"
                  points="154.49 145.634 157.857 145.634 154.235 150.17 150.868 150.17 154.49 145.634"/>
      </g>
   </g>
   <g id="Diagrams">
      <polyline class="cls-4"
                points="299.479 147.974 299.479 103.973 217.283 103.973 217.283 56.996 310.988 56.996 310.988 71.605"/>
      <polyline class="cls-4" points="86.21 30.165 358.571 30.403 358.571 71.605"/>
      <path class="cls-5" d="M321.9664,147.9743H75.7671"/>
      <path class="cls-5" d="M59.25,147.9743H41.8688"/>
      <polyline class="cls-4" points="150.991 147.97 150.991 89.852 86.21 89.852"/>
      <line class="cls-5"
            x1="359.3322"
            y1="139.6791"
            x2="388.4772"
            y2="139.6791"/>
      <line class="cls-4"
            x1="70.6981"
            y1="89.8522"
            x2="53.5675"
            y2="89.8522"/>
      <line class="cls-4"
            x1="40.9676"
            y1="30.1647"
            x2="71.82"
            y2="30.1647"/>
   </g>
   <g id="Symbols">
      <g id="Rectifier">
         <g class="cls-6">
            <rect class="cls-7"
                  x="88.6584"
                  y="130.8942"
                  width="34.0183"
                  height="34.0183"/>
            <g class="cls-6">
               <rect class="cls-8"
                     x="88.6584"
                     y="130.8942"
                     width="34.0183"
                     height="34.0183"/>
               <line class="cls-8"
                     x1="122.674"
                     y1="130.892"
                     x2="88.6566"
                     y2="164.9103"/>
            </g>
            <line class="cls-8"
                  x1="118.956"
                  y1="157.4683"
                  x2="109.3931"
                  y2="157.4683"/>
            <line class="cls-8"
                  x1="111.6446"
                  y1="159.5944"
                  x2="109.3937"
                  y2="159.5944"/>
            <line class="cls-8"
                  x1="115.3002"
                  y1="159.5944"
                  x2="113.0494"
                  y2="159.5944"/>
            <line class="cls-8"
                  x1="118.956"
                  y1="159.5944"
                  x2="116.7051"
                  y2="159.5944"/>
            <g class="cls-6">
               <path class="cls-8"
                     d="M92.4106,136.7928a2.1878,2.1878,0,0,1,2.1261-2.0061c1.0413,0,1.871.53,2.1261,2.0061a2.1383,2.1383,0,0,0,2.1262,2.0043,2.298,2.298,0,0,0,2.1261-2.0043"/>
            </g>
         </g>
      </g>
      <g id="Inverter">
         <g class="cls-9">
            <rect class="cls-7"
                  x="177.0608"
                  y="130.8932"
                  width="34.0176"
                  height="34.0166"/>
            <g class="cls-9">
               <rect class="cls-10"
                     x="177.0608"
                     y="130.8932"
                     width="34.0166"
                     height="34.0166"/>
               <line class="cls-10"
                     x1="177.0637"
                     y1="164.912"
                     x2="211.0794"
                     y2="130.8963"/>
            </g>
            <line class="cls-10"
                  x1="180.2499"
                  y1="137.2744"
                  x2="189.8133"
                  y2="137.2744"/>
            <line class="cls-10"
                  x1="182.5015"
                  y1="139.4005"
                  x2="180.2498"
                  y2="139.4005"/>
            <line class="cls-10"
                  x1="186.157"
                  y1="139.4005"
                  x2="183.9062"
                  y2="139.4005"/>
            <line class="cls-10"
                  x1="189.813"
                  y1="139.4005"
                  x2="187.5613"
                  y2="139.4005"/>
            <g class="cls-9">
               <path class="cls-10"
                     d="M199.3847,157.5872a2.1865,2.1865,0,0,1,2.1261-2.0061c1.0413,0,1.87.53,2.126,2.0061a2.1381,2.1381,0,0,0,2.1261,2.0041,2.2987,2.2987,0,0,0,2.126-2.0041"/>
            </g>
         </g>
      </g>
      <g id="Artwork_13" data-name="Artwork 13">
         <g class="cls-11">
            <g class="cls-11">
               <path class="cls-12"
                     d="M388.4771,137.5415a2,2,0,1,1-2,2,2.0007,2.0007,0,0,1,2-2"/>
               <circle class="cls-5" cx="388.4771" cy="139.5415" r="2"/>
            </g>
         </g>
      </g>
      <g id="Artwork_11" data-name="Artwork 11">
         <g class="cls-13">
            <rect class="cls-7"
                  x="244.4123"
                  y="89.1995"
                  width="29.339"
                  height="29.423"/>
            <g class="cls-13">
               <rect class="cls-5"
                     x="244.4123"
                     y="89.1995"
                     width="29.339"
                     height="29.423"/>
               <line class="cls-4"
                     x1="244.4125"
                     y1="103.9111"
                     x2="273.7515"
                     y2="103.9111"/>
            </g>
            <rect class="cls-7"
                  x="251.7423"
                  y="96.3265"
                  width="15.128"
                  height="15.171"/>
            <rect class="cls-5"
                  x="251.7423"
                  y="96.3265"
                  width="15.128"
                  height="15.171"/>
            <line class="cls-5"
                  x1="256.7103"
                  y1="115.1767"
                  x2="256.7103"
                  y2="107.8167"/>
            <line class="cls-5"
                  x1="259.6527"
                  y1="115.1767"
                  x2="259.6417"
                  y2="112.8347"/>
            <path d="M262.9076,109.0324v4.929l-4.909-2.464Zm.75-1.216-7.33,3.681,7.33,3.679Z"/>
            <line class="cls-5"
                  x1="262.3685"
                  y1="92.6992"
                  x2="262.3685"
                  y2="100.0592"/>
            <line class="cls-5"
                  x1="259.0795"
                  y1="92.6484"
                  x2="259.0795"
                  y2="94.6614"/>
            <path d="M256.1644,93.8605l4.909,2.464-4.909,2.465Zm-.75-1.216v7.36l7.33-3.68Z"/>
            <g class="cls-13">
               <path class="cls-14"
                     d="M251.7425,102.91a1,1,0,1,1-.997,1,.9984.9984,0,0,1,.997-1"/>
               <circle class="cls-5" cx="251.7425" cy="103.9101" r="0.997"/>
               <path class="cls-14"
                     d="M266.8705,102.9111a1,1,0,1,1-.997,1,.9984.9984,0,0,1,.997-1"/>
               <circle class="cls-5" cx="266.8705" cy="103.9111" r="0.997"/>
               <g class="cls-15">
                  <g class="cls-16">
                     <text class="cls-17" transform="translate(274.7508 118.622)">EN</text>
                  </g>
               </g>
            </g>
         </g>
      </g>
      <g id="Artwork_13-2" data-name="Artwork 13">
         <g class="cls-18">
            <g class="cls-18">
               <path class="cls-12"
                     d="M40.9675,145.9126a2,2,0,1,1-2,2,2.0007,2.0007,0,0,1,2-2"/>
               <circle class="cls-5" cx="40.9675" cy="147.9126" r="2"/>
            </g>
         </g>
      </g>
      <g id="Artwork_8" data-name="Artwork 8">
         <g class="cls-19">
            <g class="cls-20">
               <line class="cls-21"
                     x1="40.5535"
                     y1="97.1742"
                     x2="40.5535"
                     y2="82.4208"/>
               <line class="cls-22"
                     x1="38.5354"
                     y1="94.0399"
                     x2="38.5354"
                     y2="85.5553"/>
            </g>
            <line class="cls-23"
                  x1="40.3197"
                  y1="89.7894"
                  x2="51.3006"
                  y2="89.7894"/>
            <g class="cls-20">
               <line class="cls-21"
                     x1="53.3186"
                     y1="97.1663"
                     x2="53.3186"
                     y2="82.4129"/>
            </g>
            <line class="cls-22"
                  x1="51.3005"
                  y1="94.0316"
                  x2="51.3005"
                  y2="85.547"/>
         </g>
      </g>
      <g id="Artwork_13-3" data-name="Artwork 13">
         <g class="cls-24">
            <g class="cls-24">
               <path class="cls-12"
                     d="M40.9675,28.103a2,2,0,1,1-2,2,2.0007,2.0007,0,0,1,2-2"/>
               <circle class="cls-5" cx="40.9675" cy="30.103" r="2"/>
            </g>
         </g>
      </g>
      <g id="Artwork_12" data-name="Artwork 12">
         <g class="cls-25">
            <g class="cls-25">
               <g class="cls-15">
                  <g class="cls-26">
                     <text class="cls-17" transform="translate(274.7508 162.613)">EA</text>
                  </g>
               </g>
            </g>
            <rect class="cls-7"
                  x="244.4123"
                  y="133.1904"
                  width="29.339"
                  height="29.423"/>
            <g class="cls-25">
               <rect class="cls-5"
                     x="244.4123"
                     y="133.1904"
                     width="29.339"
                     height="29.423"/>
               <line class="cls-4"
                     x1="244.4125"
                     y1="147.9029"
                     x2="273.7515"
                     y2="147.9029"/>
            </g>
            <rect class="cls-7"
                  x="251.7423"
                  y="140.3184"
                  width="15.128"
                  height="15.171"/>
            <rect class="cls-5"
                  x="251.7423"
                  y="140.3184"
                  width="15.128"
                  height="15.171"/>
            <line class="cls-5"
                  x1="256.7103"
                  y1="159.1685"
                  x2="256.7103"
                  y2="151.8085"/>
            <line class="cls-5"
                  x1="259.6527"
                  y1="159.1685"
                  x2="259.6417"
                  y2="156.8265"/>
            <path d="M262.9076,153.0242v4.929l-4.909-2.464Zm.75-1.216-7.33,3.681,7.33,3.679Z"/>
            <line class="cls-5"
                  x1="262.3685"
                  y1="136.691"
                  x2="262.3685"
                  y2="144.051"/>
            <line class="cls-5"
                  x1="259.0795"
                  y1="136.6397"
                  x2="259.0795"
                  y2="138.6527"/>
            <path d="M256.1644,137.8523l4.909,2.464-4.909,2.465Zm-.75-1.216v7.36l7.33-3.68Z"/>
            <g class="cls-25">
               <path class="cls-14"
                     d="M251.7425,146.9029a1,1,0,1,1-.997,1,.9978.9978,0,0,1,.997-1"/>
               <circle class="cls-5" cx="251.7425" cy="147.9029" r="0.997"/>
               <path class="cls-14"
                     d="M266.8705,146.9029a1,1,0,1,1-.997,1,.9984.9984,0,0,1,.997-1"/>
               <circle class="cls-5" cx="266.8705" cy="147.9029" r="0.997"/>
            </g>
         </g>
      </g>
      <g id="Artwork_20_no_white" data-name="Artwork 20 no white">
         <g class="cls-27">
            <g class="cls-28">
               <line class="cls-5"
                     x1="71.5911"
                     y1="36.88"
                     x2="86.2211"
                     y2="30.114"/>
               <path d="M86.221,31.1183h0a1,1,0,1,1,1-1,1.0029,1.0029,0,0,1-1,1"/>
               <path d="M71.5911,31.1183h0a1,1,0,1,1,1-1,1.0029,1.0029,0,0,1-1,1"/>
            </g>
         </g>
      </g>
      <g id="Artwork_20_no_white-2" data-name="Artwork 20 no white">
         <g class="cls-29">
            <g class="cls-29">
               <line class="cls-5"
                     x1="71.5911"
                     y1="96.5674"
                     x2="86.2211"
                     y2="89.8014"/>
               <path d="M86.221,90.8057h0a1,1,0,1,1,1-1,1.0029,1.0029,0,0,1-1,1"/>
               <path d="M71.5911,90.8057h0a1,1,0,1,1,1-1,1.0029,1.0029,0,0,1-1,1"/>
            </g>
         </g>
      </g>
      <g id="Artwork_20_no_white-3" data-name="Artwork 20 no white">
         <g class="cls-30">
            <g class="cls-30">
               <line class="cls-5"
                     x1="60.1372"
                     y1="154.6895"
                     x2="74.7672"
                     y2="147.9235"/>
               <path d="M74.7671,148.9278h0a1,1,0,1,1,1-1,1.0029,1.0029,0,0,1-1,1"/>
               <path d="M60.1372,148.9278h0a1,1,0,1,1,1-1,1.0029,1.0029,0,0,1-1,1"/>
            </g>
         </g>
      </g>
      <g id="Auto">
         <g class="cls-31">
            <line class="cls-32"
                  x1="342.1153"
                  y1="143.3507"
                  x2="342.1153"
                  y2="44.8227"/>
            <line class="cls-5"
                  x1="311.0499"
                  y1="103.6871"
                  x2="327.6989"
                  y2="103.6871"/>
            <polyline class="cls-5"
                      points="327.699 79.687 311.05 79.687 311.05 71.687 327.699 71.687"/>
            <line class="cls-2"
                  x1="335.089"
                  y1="55.1021"
                  x2="348.65"
                  y2="48.2491"/>
            <line class="cls-33"
                  x1="335.089"
                  y1="55.1021"
                  x2="348.65"
                  y2="48.2491"/>
            <polyline class="cls-5"
                      points="334.601 119.687 348.503 111.687 358.625 111.687 358.625 139.663 348.503 139.663 334.601 147.687"/>
            <polyline class="cls-5"
                      points="334.601 79.687 348.503 71.687 358.625 71.687 358.625 91.687 311.05 91.687 311.05 111.687 327.699 111.687"/>
            <g class="cls-31">
               <path class="cls-14" d="M311.05,70.6871a1,1,0,1,1-1,1,1,1,0,0,1,1-1"/>
               <circle class="cls-34" cx="311.0499" cy="71.6871" r="1"/>
               <path class="cls-14" d="M358.6256,70.6871a1,1,0,1,1-1,1,1,1,0,0,1,1-1"/>
               <circle class="cls-34" cx="358.6256" cy="71.6871" r="1"/>
               <path class="cls-14" d="M311.05,102.6871a1,1,0,1,1-1,1,1,1,0,0,1,1-1"/>
               <circle class="cls-34" cx="311.0499" cy="103.6871" r="1"/>
               <path class="cls-14" d="M358.6222,138.6876a1,1,0,1,1-1,1,1,1,0,0,1,1-1"/>
               <circle class="cls-34" cx="358.6222" cy="139.6876" r="1"/>
               <line class="cls-35"
                     x1="320.6012"
                     y1="139.6876"
                     x2="334.7962"
                     y2="139.6876"/>
               <line class="cls-35"
                     x1="320.6012"
                     y1="131.6876"
                     x2="334.7962"
                     y2="131.6876"/>
               <line class="cls-35"
                     x1="320.6012"
                     y1="147.6876"
                     x2="334.7962"
                     y2="147.6876"/>
               <line class="cls-35"
                     x1="320.6012"
                     y1="111.6871"
                     x2="334.7962"
                     y2="111.6871"/>
               <line class="cls-35"
                     x1="320.6012"
                     y1="103.6871"
                     x2="334.7962"
                     y2="103.6871"/>
               <line class="cls-35"
                     x1="320.6012"
                     y1="119.6871"
                     x2="334.7962"
                     y2="119.6871"/>
               <line class="cls-35"
                     x1="320.6012"
                     y1="71.6871"
                     x2="334.7962"
                     y2="71.6871"/>
               <line class="cls-35"
                     x1="320.6012"
                     y1="63.6871"
                     x2="334.7962"
                     y2="63.6871"/>
               <line class="cls-35"
                     x1="320.6012"
                     y1="79.6871"
                     x2="334.7962"
                     y2="79.6871"/>
               <line class="cls-32"
                     x1="335.089"
                     y1="48.2496"
                     x2="348.65"
                     y2="48.2496"/>
               <line class="cls-36"
                     x1="335.089"
                     y1="41.3966"
                     x2="348.65"
                     y2="48.2496"/>
               <line class="cls-32"
                     x1="335.089"
                     y1="41.3966"
                     x2="348.65"
                     y2="48.2496"/>
               <g class="cls-15">
                  <g class="cls-37">
                     <text class="cls-38" transform="translate(310.1222 44.6874)">BYPASS</text>
                  </g>
               </g>
               <g class="cls-15">
                  <g class="cls-39">
                     <text class="cls-38" transform="translate(319.4621 50.6874)">TEST</text>
                  </g>
               </g>
               <g class="cls-15">
                  <g class="cls-40">
                     <text class="cls-38" transform="translate(317.798 56.6874)">AUTO</text>
                  </g>
               </g>
            </g>
         </g>
      </g>
      <g id="shape116-109">
         <g class="cls-41">
            <g class="cls-41">
               <path class="cls-14"
                     d="M299.4771,146.8991a1.003,1.003,0,1,1-1,1.003,1.001,1.001,0,0,1,1-1.003"/>
               <circle class="cls-34" cx="299.4771" cy="147.9021" r="1"/>
            </g>
         </g>
      </g>
   </g>
   <g id="Text">
      <text class="cls-42" transform="translate(20.4065 10.9322)">BYPASS<tspan x="4.4507" y="12">MAINS</tspan>
      </text>
      <text class="cls-42" transform="translate(289.3548 10.9322)">MANUAL BYPASS<tspan x="23.894" y="12">SWITCH</tspan>
      </text>
      <text class="cls-42" transform="translate(241.4795 71.9517)">STATIC<tspan x="-8.335" y="12">SWITCHES</tspan>
      </text>
      <text class="cls-42" transform="translate(24.4533 77.7895)">BATTERY</text>
      <text class="cls-42" transform="translate(78.8751 125.9028)">RECTIFIER</text>
      <text class="cls-42" transform="translate(168.7893 125.9027)">INVERTER</text>
      <text class="cls-42" transform="translate(14.5786 125.903)">RECTIFIER<tspan x="10.2783" y="12">MAINS</tspan>
      </text>
      <text class="cls-42" transform="translate(371.1168 132.8339)">OUTPUT</text>
   </g>
</svg>
