<?xml version="1.0" encoding="UTF-8"?>
<svg xmlns="http://www.w3.org/2000/svg"
     xmlns:xlink="http://www.w3.org/1999/xlink"
     width="146.4821mm"
     height="60.7122mm"
     viewBox="0 0 415.2249 172.0976">
   <defs>
      <style>
      .cls-1, .cls-10, .cls-21, .cls-22, .cls-23, .cls-3, .cls-32, .cls-33, .cls-34, .cls-35, .cls-4, .cls-5, .cls-8 {
        fill: none;
      }

      .cls-2 {
        fill: #c6c6c6;
      }

      .cls-3 {
        stroke: #c6c6c6;
        stroke-width: 5px;
      }

      .cls-10, .cls-21, .cls-22, .cls-23, .cls-3, .cls-32, .cls-33, .cls-34, .cls-35, .cls-5, .cls-8 {
        stroke-miterlimit: 3;
      }

      .cls-10, .cls-21, .cls-22, .cls-23, .cls-34, .cls-35, .cls-4, .cls-5, .cls-8 {
        stroke: #000;
      }

      .cls-4 {
        stroke-miterlimit: 10;
      }

      .cls-4, .cls-5 {
        stroke-width: 0.75px;
      }

      .cls-6 {
        clip-path: url(#clip-path);
      }

      .cls-12, .cls-7 {
        fill: #fff;
      }

      .cls-8 {
        stroke-width: 0.7087px;
      }

      .cls-9 {
        clip-path: url(#clip-path-4);
      }

      .cls-10 {
        stroke-width: 0.7087px;
      }

      .cls-11 {
        clip-path: url(#clip-path-7);
      }

      .cls-12, .cls-14 {
        fill-rule: evenodd;
      }

      .cls-13 {
        clip-path: url(#clip-path-9);
      }

      .cls-15 {
        isolation: isolate;
      }

      .cls-16 {
        clip-path: url(#clip-path-12);
      }

      .cls-17 {
        font-size: 8px;
      }

      .cls-17, .cls-38, .cls-42 {
        fill: #01889C;
        font-family: Arial-BoldMT, Arial;
        font-weight: 700;
      }

      .cls-18 {
        clip-path: url(#clip-path-13);
      }

      .cls-19 {
        clip-path: url(#clip-path-15);
      }

      .cls-20 {
        clip-path: url(#clip-path-16);
      }

      .cls-21, .cls-23 {
        stroke-width: 0.7513px;
      }

      .cls-22 {
        stroke-width: 1.2522px;
      }

      .cls-23 {
        stroke-dasharray: 2.0034 1.0017;
      }

      .cls-24 {
        clip-path: url(#clip-path-18);
      }

      .cls-25 {
        clip-path: url(#clip-path-20);
      }

      .cls-26 {
        clip-path: url(#clip-path-22);
      }

      .cls-27 {
        clip-path: url(#clip-path-25);
      }

      .cls-28 {
        clip-path: url(#clip-path-26);
      }

      .cls-29 {
        clip-path: url(#clip-path-27);
      }

      .cls-30 {
        clip-path: url(#clip-path-29);
      }

      .cls-31 {
        clip-path: url(#clip-path-31);
      }

      .cls-32, .cls-33 {
        stroke: #626469;
      }

      .cls-32, .cls-33, .cls-34 {
        stroke-width: 0.5px;
      }

      .cls-32 {
        stroke-dasharray: 2 1;
      }

      .cls-35 {
        stroke-width: 2px;
      }

      .cls-36 {
        fill: #626469;
      }

      .cls-37 {
        clip-path: url(#clip-path-33);
      }

      .cls-38 {
        font-size: 6px;
      }

      .cls-39 {
        clip-path: url(#clip-path-34);
      }

      .cls-40 {
        clip-path: url(#clip-path-35);
      }

      .cls-41 {
        clip-path: url(#clip-path-36);
      }

      .cls-42 {
        font-size: 10px;
      }
    </style>
      <clipPath id="clip-path">
         <rect class="cls-1"
               x="87.9488"
               y="128.0584"
               width="35.4357"
               height="39.688"/>
      </clipPath>
      <clipPath id="clip-path-4">
         <rect class="cls-1"
               x="176.353"
               y="128.0594"
               width="35.434"
               height="39.6861"/>
      </clipPath>
      <clipPath id="clip-path-7">
         <rect class="cls-1"
               x="385.4147"
               y="136.4786"
               width="6.125"
               height="6.125"/>
      </clipPath>
      <clipPath id="clip-path-9">
         <rect class="cls-1"
               x="243.0413"
               y="87.9105"
               width="46.8331"
               height="32"/>
      </clipPath>
      <clipPath id="clip-path-12">
         <rect class="cls-1"
               x="274.7513"
               y="111.7587"
               width="11.1133"
               height="9.875"/>
      </clipPath>
      <clipPath id="clip-path-13">
         <rect class="cls-1"
               x="37.9051"
               y="144.8497"
               width="6.125"
               height="6.125"/>
      </clipPath>
      <clipPath id="clip-path-15">
         <rect class="cls-1"
               x="37.9171"
               y="82.4128"
               width="15.6504"
               height="14.7535"/>
      </clipPath>
      <clipPath id="clip-path-16">
         <rect class="cls-1"
               x="37.9171"
               y="82.4129"
               width="15.6509"
               height="14.7534"/>
      </clipPath>
      <clipPath id="clip-path-18">
         <rect class="cls-1"
               x="37.9051"
               y="27.0401"
               width="6.125"
               height="6.125"/>
      </clipPath>
      <clipPath id="clip-path-20">
         <rect class="cls-1"
               x="243.0413"
               y="131.9024"
               width="46.8331"
               height="32"/>
      </clipPath>
      <clipPath id="clip-path-22">
         <rect class="cls-1"
               x="274.7513"
               y="155.7506"
               width="11.1133"
               height="9.875"/>
      </clipPath>
      <clipPath id="clip-path-25">
         <rect class="cls-1"
               x="70.591"
               y="21.9685"
               width="16.63"
               height="16.2683"/>
      </clipPath>
      <clipPath id="clip-path-26">
         <rect class="cls-1"
               x="70.591"
               y="21.9688"
               width="16.63"
               height="16.268"/>
      </clipPath>
      <clipPath id="clip-path-27">
         <rect class="cls-1"
               x="70.591"
               y="81.6559"
               width="16.63"
               height="16.2683"/>
      </clipPath>
      <clipPath id="clip-path-29">
         <rect class="cls-1"
               x="59.1371"
               y="139.778"
               width="16.63"
               height="16.2683"/>
      </clipPath>
      <clipPath id="clip-path-31">
         <rect class="cls-1"
               x="296.9523"
               y="39.1353"
               width="76.0872"
               height="111.302"/>
      </clipPath>
      <clipPath id="clip-path-33">
         <rect class="cls-1"
               x="310.1222"
               y="39.5403"
               width="24.6738"
               height="7.406"/>
      </clipPath>
      <clipPath id="clip-path-34">
         <rect class="cls-1"
               x="319.462"
               y="45.5403"
               width="15.334"
               height="7.4061"/>
      </clipPath>
      <clipPath id="clip-path-35">
         <rect class="cls-1"
               x="317.7979"
               y="51.5396"
               width="16.9981"
               height="7.4063"/>
      </clipPath>
      <clipPath id="clip-path-36">
         <rect class="cls-1"
               x="297.192"
               y="145.6115"
               width="4.5709"
               height="4.5819"/>
      </clipPath>
   </defs>
   <g id="Paths">
      <g>
         <polygon class="cls-2"
                  points="42.015 32.495 38.647 32.495 42.269 27.958 45.637 27.958 42.015 32.495"/>
         <polygon class="cls-2"
                  points="49.074 32.495 45.706 32.495 49.328 27.958 52.696 27.958 49.074 32.495"/>
         <polygon class="cls-2"
                  points="56.133 32.495 52.766 32.495 56.388 27.958 59.755 27.958 56.133 32.495"/>
         <polygon class="cls-2"
                  points="63.192 32.495 59.825 32.495 63.447 27.958 66.814 27.958 63.192 32.495"/>
         <polygon class="cls-2"
                  points="70.252 32.495 66.884 32.495 70.506 27.958 73.874 27.958 70.252 32.495"/>
         <polygon class="cls-2"
                  points="77.311 32.495 73.943 32.495 77.565 27.958 80.933 27.958 77.311 32.495"/>
         <polygon class="cls-2"
                  points="84.37 32.495 81.003 32.495 84.625 27.958 87.992 27.958 84.37 32.495"/>
         <polygon class="cls-2"
                  points="91.43 32.495 88.062 32.495 91.684 27.958 95.051 27.958 91.43 32.495"/>
         <polygon class="cls-2"
                  points="98.489 32.495 95.121 32.495 98.743 27.958 102.111 27.958 98.489 32.495"/>
         <polygon class="cls-2"
                  points="105.548 32.495 102.181 32.495 105.802 27.958 109.17 27.958 105.548 32.495"/>
         <polygon class="cls-2"
                  points="112.607 32.495 109.24 32.495 112.862 27.958 116.229 27.958 112.607 32.495"/>
         <polygon class="cls-2"
                  points="119.667 32.495 116.299 32.495 119.921 27.958 123.289 27.958 119.667 32.495"/>
         <polygon class="cls-2"
                  points="126.726 32.495 123.358 32.495 126.98 27.958 130.348 27.958 126.726 32.495"/>
         <polygon class="cls-2"
                  points="133.785 32.495 130.418 32.495 134.04 27.958 137.407 27.958 133.785 32.495"/>
         <polygon class="cls-2"
                  points="140.844 32.495 137.477 32.495 141.099 27.958 144.466 27.958 140.844 32.495"/>
         <polygon class="cls-2"
                  points="147.904 32.495 144.536 32.495 148.158 27.958 151.526 27.958 147.904 32.495"/>
         <polygon class="cls-2"
                  points="154.963 32.495 151.595 32.495 155.217 27.958 158.585 27.958 154.963 32.495"/>
         <polygon class="cls-2"
                  points="162.022 32.495 158.655 32.495 162.277 27.958 165.644 27.958 162.022 32.495"/>
         <polygon class="cls-2"
                  points="169.082 32.495 165.714 32.495 169.336 27.958 172.704 27.958 169.082 32.495"/>
         <polygon class="cls-2"
                  points="176.141 32.495 172.773 32.495 176.395 27.958 179.763 27.958 176.141 32.495"/>
         <polygon class="cls-2"
                  points="183.2 32.495 179.833 32.495 183.455 27.958 186.822 27.958 183.2 32.495"/>
         <polygon class="cls-2"
                  points="190.259 32.495 186.892 32.495 190.514 27.958 193.881 27.958 190.259 32.495"/>
         <polygon class="cls-2"
                  points="197.319 32.495 193.951 32.495 197.573 27.958 200.941 27.958 197.319 32.495"/>
         <polygon class="cls-2"
                  points="204.378 32.495 201.01 32.495 204.632 27.958 208 27.958 204.378 32.495"/>
         <polygon class="cls-2"
                  points="211.437 32.495 208.07 32.495 211.692 27.958 215.059 27.958 211.437 32.495"/>
         <polygon class="cls-2"
                  points="218.497 32.495 215.129 32.495 218.751 27.958 222.118 27.958 218.497 32.495"/>
         <polygon class="cls-2"
                  points="225.556 32.495 222.188 32.495 225.81 27.958 229.178 27.958 225.556 32.495"/>
         <polygon class="cls-2"
                  points="232.615 32.495 229.248 32.495 232.869 27.958 236.237 27.958 232.615 32.495"/>
         <polygon class="cls-2"
                  points="239.674 32.495 236.307 32.495 239.929 27.958 243.296 27.958 239.674 32.495"/>
         <polygon class="cls-2"
                  points="246.734 32.495 243.366 32.495 246.988 27.958 250.356 27.958 246.734 32.495"/>
         <polygon class="cls-2"
                  points="253.793 32.495 250.425 32.495 254.047 27.958 257.415 27.958 253.793 32.495"/>
         <polygon class="cls-2"
                  points="260.852 32.495 257.485 32.495 261.107 27.958 264.474 27.958 260.852 32.495"/>
         <polygon class="cls-2"
                  points="267.911 32.495 264.544 32.495 268.166 27.958 271.533 27.958 267.911 32.495"/>
         <polygon class="cls-2"
                  points="274.971 32.495 271.603 32.495 275.225 27.958 278.593 27.958 274.971 32.495"/>
         <polygon class="cls-2"
                  points="282.03 32.495 278.662 32.495 282.284 27.958 285.652 27.958 282.03 32.495"/>
         <polygon class="cls-2"
                  points="289.089 32.495 285.722 32.495 289.344 27.958 292.711 27.958 289.089 32.495"/>
         <polygon class="cls-2"
                  points="296.149 32.495 292.781 32.495 296.403 27.958 299.771 27.958 296.149 32.495"/>
         <polygon class="cls-2"
                  points="303.208 32.495 299.84 32.495 303.462 27.958 306.83 27.958 303.208 32.495"/>
         <polygon class="cls-2"
                  points="310.267 32.495 306.9 32.495 310.522 27.958 313.889 27.958 310.267 32.495"/>
         <polygon class="cls-2"
                  points="317.326 32.495 313.959 32.495 317.581 27.958 320.948 27.958 317.326 32.495"/>
         <polygon class="cls-2"
                  points="324.386 32.495 321.018 32.495 324.64 27.958 328.008 27.958 324.386 32.495"/>
         <polygon class="cls-2"
                  points="331.445 32.495 328.077 32.495 331.699 27.958 335.067 27.958 331.445 32.495"/>
         <polygon class="cls-2"
                  points="338.504 32.495 335.137 32.495 338.759 27.958 342.126 27.958 338.504 32.495"/>
         <polygon class="cls-2"
                  points="345.564 32.495 342.196 32.495 345.818 27.958 349.186 27.958 345.564 32.495"/>
         <polygon class="cls-2"
                  points="352.623 32.495 349.255 32.495 352.877 27.958 356.245 27.958 352.623 32.495"/>
         <polygon class="cls-2"
                  points="356.325 36.214 356.316 32.846 360.863 36.455 360.873 39.823 356.325 36.214"/>
         <polygon class="cls-2"
                  points="356.347 43.555 356.337 40.187 360.884 43.796 360.894 47.164 356.347 43.555"/>
         <polygon class="cls-2"
                  points="356.368 50.896 356.359 47.528 360.906 51.137 360.916 54.504 356.368 50.896"/>
         <polygon class="cls-2"
                  points="356.39 58.237 356.38 54.869 360.927 58.478 360.937 61.845 356.39 58.237"/>
         <polygon class="cls-2"
                  points="356.411 65.578 356.402 62.21 360.949 65.819 360.959 69.186 356.411 65.578"/>
         <path class="cls-2"
               d="M352.578,69.4781l3.3669.064-3.7074,4.467-3.2695-.0621c.0054-.0472-.0146-.0948.0184-.1415l.1159-.14.2317-.2791.4634-.5584.9269-1.1168Z"/>
         <path class="cls-2"
               d="M344.3729,71.393l3.3948-2.0062.1352.0026-.1128.0825a6.2527,6.2527,0,0,0-.9307,3.1356l-.3975,2.82-2.8991,1.7133Z"/>
         <polygon class="cls-2"
                  points="337.944 75.192 340.843 73.479 340.033 79.227 337.134 80.941 337.944 75.192"/>
         <path class="cls-2"
               d="M332.2968,77.3153h2.0546l.0626-.037a.2617.2617,0,0,0,.04.2286,1.5176,1.5176,0,0,1,.0736.2086,1.832,1.832,0,0,1,.0615.4676c.0433.6114-.6229,1.2229-1.0816,1.8344l-1.4646,1.8343h-3.3675Z"/>
         <polygon class="cls-2"
                  points="324.829 77.315 328.197 77.315 324.575 81.852 321.207 81.852 324.829 77.315"/>
         <polygon class="cls-2"
                  points="317.361 77.315 320.729 77.315 317.107 81.852 313.739 81.852 317.361 77.315"/>
         <polygon class="cls-2"
                  points="313.261 72.611 313.261 75.979 308.725 72.357 308.725 68.989 313.261 72.611"/>
         <polygon class="cls-2"
                  points="313.261 64.285 313.261 67.653 308.725 64.031 308.725 60.663 313.261 64.285"/>
         <polygon class="cls-2"
                  points="304.949 54.79 308.317 54.79 304.695 59.326 301.327 59.326 304.949 54.79"/>
         <polygon class="cls-2"
                  points="297.552 54.79 300.92 54.79 297.298 59.326 293.93 59.326 297.552 54.79"/>
         <polygon class="cls-2"
                  points="290.155 54.79 293.523 54.79 289.901 59.326 286.533 59.326 290.155 54.79"/>
         <polygon class="cls-2"
                  points="282.758 54.79 286.126 54.79 282.504 59.326 279.136 59.326 282.758 54.79"/>
         <polygon class="cls-2"
                  points="275.361 54.79 278.729 54.79 275.107 59.326 271.739 59.326 275.361 54.79"/>
         <polygon class="cls-2"
                  points="267.964 54.79 271.331 54.79 267.71 59.326 264.342 59.326 267.964 54.79"/>
         <polygon class="cls-2"
                  points="260.567 54.79 263.934 54.79 260.312 59.326 256.945 59.326 260.567 54.79"/>
         <polygon class="cls-2"
                  points="253.17 54.79 256.537 54.79 252.915 59.326 249.548 59.326 253.17 54.79"/>
         <polygon class="cls-2"
                  points="245.773 54.79 249.14 54.79 245.518 59.326 242.151 59.326 245.773 54.79"/>
         <polygon class="cls-2"
                  points="238.375 54.79 241.743 54.79 238.121 59.326 234.754 59.326 238.375 54.79"/>
         <polygon class="cls-2"
                  points="230.978 54.79 234.346 54.79 230.724 59.326 227.356 59.326 230.978 54.79"/>
         <polygon class="cls-2"
                  points="223.581 54.79 226.949 54.79 223.327 59.326 219.959 59.326 223.581 54.79"/>
         <polygon class="cls-2"
                  points="215.015 62.766 215.015 59.398 219.552 63.02 219.552 66.388 215.015 62.766"/>
         <polygon class="cls-2"
                  points="215.015 69.827 215.015 66.46 219.552 70.082 219.552 73.449 215.015 69.827"/>
         <polygon class="cls-2"
                  points="215.015 76.888 215.015 73.521 219.552 77.143 219.552 80.51 215.015 76.888"/>
         <polygon class="cls-2"
                  points="215.015 83.95 215.015 80.582 219.552 84.204 219.552 87.572 215.015 83.95"/>
         <polygon class="cls-2"
                  points="215.015 91.011 215.015 87.644 219.552 91.266 219.552 94.633 215.015 91.011"/>
         <polygon class="cls-2"
                  points="215.015 98.072 215.015 94.705 219.552 98.327 219.552 101.694 215.015 98.072"/>
         <polygon class="cls-2"
                  points="222.984 106.303 219.617 106.303 223.239 101.766 226.606 101.766 222.984 106.303"/>
         <polygon class="cls-2"
                  points="230.039 106.303 226.671 106.303 230.293 101.766 233.661 101.766 230.039 106.303"/>
         <polygon class="cls-2"
                  points="237.094 106.303 233.726 106.303 237.348 101.766 240.716 101.766 237.094 106.303"/>
         <polygon class="cls-2"
                  points="244.148 106.303 240.781 106.303 244.403 101.766 247.77 101.766 244.148 106.303"/>
         <polygon class="cls-2"
                  points="251.203 106.303 247.835 106.303 251.457 101.766 254.825 101.766 251.203 106.303"/>
         <polygon class="cls-2"
                  points="258.258 106.303 254.89 106.303 258.512 101.766 261.88 101.766 258.258 106.303"/>
         <polygon class="cls-2"
                  points="265.312 106.303 261.945 106.303 265.567 101.766 268.934 101.766 265.312 106.303"/>
         <polygon class="cls-2"
                  points="272.367 106.303 268.999 106.303 272.621 101.766 275.989 101.766 272.367 106.303"/>
         <polygon class="cls-2"
                  points="279.422 106.303 276.054 106.303 279.676 101.766 283.044 101.766 279.422 106.303"/>
         <polygon class="cls-2"
                  points="286.476 106.303 283.109 106.303 286.731 101.766 290.098 101.766 286.476 106.303"/>
         <polygon class="cls-2"
                  points="293.531 106.303 290.163 106.303 293.785 101.766 297.153 101.766 293.531 106.303"/>
         <polygon class="cls-2"
                  points="297.222 109.704 297.218 106.336 301.759 109.953 301.762 113.321 297.222 109.704"/>
         <polygon class="cls-2"
                  points="297.229 116.727 297.226 113.36 301.766 116.977 301.77 120.344 297.229 116.727"/>
         <polygon class="cls-2"
                  points="297.237 123.75 297.233 120.383 301.774 124 301.778 127.367 297.237 123.75"/>
         <polygon class="cls-2"
                  points="297.245 130.773 297.241 127.406 301.782 131.023 301.785 134.39 297.245 130.773"/>
         <polygon class="cls-2"
                  points="297.252 137.797 297.249 134.429 301.789 138.046 301.793 141.414 297.252 137.797"/>
         <polygon class="cls-2"
                  points="297.26 144.82 297.256 141.452 301.797 145.069 301.801 148.437 297.26 144.82"/>
      </g>
      <g>
         <polyline class="cls-3"
                   points="37.917 148.032 334.947 148.032 349.191 139.665 394.771 139.731"/>
         <polygon class="cls-2"
                  points="393.305 144.715 401.947 139.741 393.319 134.742 393.305 144.715"/>
      </g>
      <g>
         <polyline class="cls-3" points="150.991 147.908 150.991 89.79 33.718 89.79"/>
         <polygon class="cls-2"
                  points="35.177 84.804 26.542 89.79 35.177 94.776 35.177 84.804"/>
      </g>
      <g>
         <polygon class="cls-2"
                  points="356.402 76.379 356.423 73.011 360.937 76.661 360.916 80.029 356.402 76.379"/>
         <polygon class="cls-2"
                  points="356.351 84.531 356.372 81.163 360.886 84.813 360.866 88.181 356.351 84.531"/>
         <polygon class="cls-2"
                  points="352.803 89.315 356.171 89.315 352.549 93.852 349.181 93.852 352.803 89.315"/>
         <polygon class="cls-2"
                  points="345.662 89.315 349.03 89.315 345.408 93.852 342.04 93.852 345.662 89.315"/>
         <polygon class="cls-2"
                  points="338.522 89.315 341.889 89.315 338.267 93.852 334.9 93.852 338.522 89.315"/>
         <polygon class="cls-2"
                  points="331.381 89.315 334.748 89.315 331.126 93.852 327.759 93.852 331.381 89.315"/>
         <polygon class="cls-2"
                  points="324.24 89.315 327.608 89.315 323.986 93.852 320.618 93.852 324.24 89.315"/>
         <polygon class="cls-2"
                  points="317.099 89.315 320.467 89.315 316.845 93.852 313.477 93.852 317.099 89.315"/>
         <polygon class="cls-2"
                  points="308.775 97.759 308.788 94.391 313.311 98.03 313.299 101.397 308.775 97.759"/>
         <polygon class="cls-2"
                  points="308.748 105.305 308.76 101.937 313.284 105.575 313.271 108.943 308.748 105.305"/>
         <polygon class="cls-2"
                  points="317.493 114.036 314.126 114.036 317.748 109.499 321.115 109.499 317.493 114.036"/>
      </g>
      <polygon class="cls-2"
               points="315.965 105.769 312.597 105.769 316.219 101.232 319.587 101.232 315.965 105.769"/>
      <polygon class="cls-2"
               points="315.965 72.23 312.597 72.23 316.219 67.694 319.587 67.694 315.965 72.23"/>
      <g>
         <polygon class="cls-2"
                  points="339.572 119.275 336.657 120.962 337.52 115.221 340.435 113.535 339.572 119.275"/>
         <path class="cls-2"
               d="M346.1468,115.4714l-2.9149,1.6864.8634-5.74,3.1785-1.8389a3.2414,3.2414,0,0,0-.4794,1.5876l-.2159,1.4352Z"/>
         <path class="cls-2"
               d="M352.0793,113.81h-3.0609c-.1553-.3781.34-.7561.5988-1.1342l.9055-1.1341,1.811-2.2683h3.3676Z"/>
         <polygon class="cls-2"
                  points="356.308 118.399 356.308 115.032 360.844 118.654 360.844 122.021 356.308 118.399"/>
         <polygon class="cls-2"
                  points="356.308 126.61 356.308 123.243 360.844 126.865 360.844 130.232 356.308 126.61"/>
         <polygon class="cls-2"
                  points="356.308 134.822 356.308 131.454 360.844 135.076 360.844 138.444 356.308 134.822"/>
      </g>
   </g>
   <g id="Diagrams">
      <polyline class="cls-4"
                points="299.479 147.974 299.479 103.973 217.283 103.973 217.283 56.996 310.988 56.996 310.988 71.605"/>
      <polyline class="cls-4" points="86.21 30.165 358.571 30.403 358.571 71.605"/>
      <path class="cls-5" d="M321.9664,147.9743H75.7671"/>
      <path class="cls-5" d="M59.25,147.9743H41.8688"/>
      <polyline class="cls-4" points="150.991 147.97 150.991 89.852 86.21 89.852"/>
      <line class="cls-5"
            x1="359.3322"
            y1="139.6791"
            x2="388.4772"
            y2="139.6791"/>
      <line class="cls-4"
            x1="70.6981"
            y1="89.8522"
            x2="53.5675"
            y2="89.8522"/>
      <line class="cls-4"
            x1="40.9676"
            y1="30.1647"
            x2="71.82"
            y2="30.1647"/>
   </g>
   <g id="Symbols">
      <g id="Rectifier">
         <g class="cls-6">
            <rect class="cls-7"
                  x="88.6584"
                  y="130.8942"
                  width="34.0183"
                  height="34.0183"/>
            <g class="cls-6">
               <rect class="cls-8"
                     x="88.6584"
                     y="130.8942"
                     width="34.0183"
                     height="34.0183"/>
               <line class="cls-8"
                     x1="122.674"
                     y1="130.892"
                     x2="88.6566"
                     y2="164.9103"/>
            </g>
            <line class="cls-8"
                  x1="118.956"
                  y1="157.4683"
                  x2="109.3931"
                  y2="157.4683"/>
            <line class="cls-8"
                  x1="111.6446"
                  y1="159.5944"
                  x2="109.3937"
                  y2="159.5944"/>
            <line class="cls-8"
                  x1="115.3002"
                  y1="159.5944"
                  x2="113.0494"
                  y2="159.5944"/>
            <line class="cls-8"
                  x1="118.956"
                  y1="159.5944"
                  x2="116.7051"
                  y2="159.5944"/>
            <g class="cls-6">
               <path class="cls-8"
                     d="M92.4106,136.7928a2.1878,2.1878,0,0,1,2.1261-2.0061c1.0413,0,1.871.53,2.1261,2.0061a2.1383,2.1383,0,0,0,2.1262,2.0043,2.298,2.298,0,0,0,2.1261-2.0043"/>
            </g>
         </g>
      </g>
      <g id="Inverter">
         <g class="cls-9">
            <rect class="cls-7"
                  x="177.0608"
                  y="130.8932"
                  width="34.0176"
                  height="34.0166"/>
            <g class="cls-9">
               <rect class="cls-10"
                     x="177.0608"
                     y="130.8932"
                     width="34.0166"
                     height="34.0166"/>
               <line class="cls-10"
                     x1="177.0637"
                     y1="164.912"
                     x2="211.0794"
                     y2="130.8963"/>
            </g>
            <line class="cls-10"
                  x1="180.2499"
                  y1="137.2744"
                  x2="189.8133"
                  y2="137.2744"/>
            <line class="cls-10"
                  x1="182.5015"
                  y1="139.4005"
                  x2="180.2498"
                  y2="139.4005"/>
            <line class="cls-10"
                  x1="186.157"
                  y1="139.4005"
                  x2="183.9062"
                  y2="139.4005"/>
            <line class="cls-10"
                  x1="189.813"
                  y1="139.4005"
                  x2="187.5613"
                  y2="139.4005"/>
            <g class="cls-9">
               <path class="cls-10"
                     d="M199.3847,157.5872a2.1865,2.1865,0,0,1,2.1261-2.0061c1.0413,0,1.87.53,2.126,2.0061a2.1381,2.1381,0,0,0,2.1261,2.0041,2.2987,2.2987,0,0,0,2.126-2.0041"/>
            </g>
         </g>
      </g>
      <g id="Artwork_13" data-name="Artwork 13">
         <g class="cls-11">
            <g class="cls-11">
               <path class="cls-12"
                     d="M388.4771,137.5415a2,2,0,1,1-2,2,2.0007,2.0007,0,0,1,2-2"/>
               <circle class="cls-5" cx="388.4771" cy="139.5415" r="2"/>
            </g>
         </g>
      </g>
      <g id="Artwork_11" data-name="Artwork 11">
         <g class="cls-13">
            <rect class="cls-7"
                  x="244.4123"
                  y="89.1995"
                  width="29.339"
                  height="29.423"/>
            <g class="cls-13">
               <rect class="cls-5"
                     x="244.4123"
                     y="89.1995"
                     width="29.339"
                     height="29.423"/>
               <line class="cls-4"
                     x1="244.4125"
                     y1="103.9111"
                     x2="273.7515"
                     y2="103.9111"/>
            </g>
            <rect class="cls-7"
                  x="251.7423"
                  y="96.3265"
                  width="15.128"
                  height="15.171"/>
            <rect class="cls-5"
                  x="251.7423"
                  y="96.3265"
                  width="15.128"
                  height="15.171"/>
            <line class="cls-5"
                  x1="256.7103"
                  y1="115.1767"
                  x2="256.7103"
                  y2="107.8167"/>
            <line class="cls-5"
                  x1="259.6527"
                  y1="115.1767"
                  x2="259.6417"
                  y2="112.8347"/>
            <path d="M262.9076,109.0324v4.929l-4.909-2.464Zm.75-1.216-7.33,3.681,7.33,3.679Z"/>
            <line class="cls-5"
                  x1="262.3685"
                  y1="92.6992"
                  x2="262.3685"
                  y2="100.0592"/>
            <line class="cls-5"
                  x1="259.0795"
                  y1="92.6484"
                  x2="259.0795"
                  y2="94.6614"/>
            <path d="M256.1644,93.8605l4.909,2.464-4.909,2.465Zm-.75-1.216v7.36l7.33-3.68Z"/>
            <g class="cls-13">
               <path class="cls-14"
                     d="M251.7425,102.91a1,1,0,1,1-.997,1,.9984.9984,0,0,1,.997-1"/>
               <circle class="cls-5" cx="251.7425" cy="103.9101" r="0.997"/>
               <path class="cls-14"
                     d="M266.8705,102.9111a1,1,0,1,1-.997,1,.9984.9984,0,0,1,.997-1"/>
               <circle class="cls-5" cx="266.8705" cy="103.9111" r="0.997"/>
               <g class="cls-15">
                  <g class="cls-16">
                     <text class="cls-17" transform="translate(274.7508 118.622)">EN</text>
                  </g>
               </g>
            </g>
         </g>
      </g>
      <g id="Artwork_13-2" data-name="Artwork 13">
         <g class="cls-18">
            <g class="cls-18">
               <path class="cls-12"
                     d="M40.9675,145.9126a2,2,0,1,1-2,2,2.0007,2.0007,0,0,1,2-2"/>
               <circle class="cls-5" cx="40.9675" cy="147.9126" r="2"/>
            </g>
         </g>
      </g>
      <g id="Artwork_8" data-name="Artwork 8">
         <g class="cls-19">
            <g class="cls-20">
               <line class="cls-21"
                     x1="40.5535"
                     y1="97.1742"
                     x2="40.5535"
                     y2="82.4208"/>
               <line class="cls-22"
                     x1="38.5354"
                     y1="94.0399"
                     x2="38.5354"
                     y2="85.5553"/>
            </g>
            <line class="cls-23"
                  x1="40.3197"
                  y1="89.7894"
                  x2="51.3006"
                  y2="89.7894"/>
            <g class="cls-20">
               <line class="cls-21"
                     x1="53.3186"
                     y1="97.1663"
                     x2="53.3186"
                     y2="82.4129"/>
            </g>
            <line class="cls-22"
                  x1="51.3005"
                  y1="94.0316"
                  x2="51.3005"
                  y2="85.547"/>
         </g>
      </g>
      <g id="Artwork_13-3" data-name="Artwork 13">
         <g class="cls-24">
            <g class="cls-24">
               <path class="cls-12"
                     d="M40.9675,28.103a2,2,0,1,1-2,2,2.0007,2.0007,0,0,1,2-2"/>
               <circle class="cls-5" cx="40.9675" cy="30.103" r="2"/>
            </g>
         </g>
      </g>
      <g id="Artwork_12" data-name="Artwork 12">
         <g class="cls-25">
            <g class="cls-25">
               <g class="cls-15">
                  <g class="cls-26">
                     <text class="cls-17" transform="translate(274.7508 162.613)">EA</text>
                  </g>
               </g>
            </g>
            <rect class="cls-7"
                  x="244.4123"
                  y="133.1904"
                  width="29.339"
                  height="29.423"/>
            <g class="cls-25">
               <rect class="cls-5"
                     x="244.4123"
                     y="133.1904"
                     width="29.339"
                     height="29.423"/>
               <line class="cls-4"
                     x1="244.4125"
                     y1="147.9029"
                     x2="273.7515"
                     y2="147.9029"/>
            </g>
            <rect class="cls-7"
                  x="251.7423"
                  y="140.3184"
                  width="15.128"
                  height="15.171"/>
            <rect class="cls-5"
                  x="251.7423"
                  y="140.3184"
                  width="15.128"
                  height="15.171"/>
            <line class="cls-5"
                  x1="256.7103"
                  y1="159.1685"
                  x2="256.7103"
                  y2="151.8085"/>
            <line class="cls-5"
                  x1="259.6527"
                  y1="159.1685"
                  x2="259.6417"
                  y2="156.8265"/>
            <path d="M262.9076,153.0242v4.929l-4.909-2.464Zm.75-1.216-7.33,3.681,7.33,3.679Z"/>
            <line class="cls-5"
                  x1="262.3685"
                  y1="136.691"
                  x2="262.3685"
                  y2="144.051"/>
            <line class="cls-5"
                  x1="259.0795"
                  y1="136.6397"
                  x2="259.0795"
                  y2="138.6527"/>
            <path d="M256.1644,137.8523l4.909,2.464-4.909,2.465Zm-.75-1.216v7.36l7.33-3.68Z"/>
            <g class="cls-25">
               <path class="cls-14"
                     d="M251.7425,146.9029a1,1,0,1,1-.997,1,.9978.9978,0,0,1,.997-1"/>
               <circle class="cls-5" cx="251.7425" cy="147.9029" r="0.997"/>
               <path class="cls-14"
                     d="M266.8705,146.9029a1,1,0,1,1-.997,1,.9984.9984,0,0,1,.997-1"/>
               <circle class="cls-5" cx="266.8705" cy="147.9029" r="0.997"/>
            </g>
         </g>
      </g>
      <g id="Artwork_20_no_white" data-name="Artwork 20 no white">
         <g class="cls-27">
            <g class="cls-28">
               <line class="cls-5"
                     x1="71.5911"
                     y1="36.88"
                     x2="86.2211"
                     y2="30.114"/>
               <path d="M86.221,31.1183h0a1,1,0,1,1,1-1,1.0029,1.0029,0,0,1-1,1"/>
               <path d="M71.5911,31.1183h0a1,1,0,1,1,1-1,1.0029,1.0029,0,0,1-1,1"/>
            </g>
         </g>
      </g>
      <g id="Artwork_20_no_white-2" data-name="Artwork 20 no white">
         <g class="cls-29">
            <g class="cls-29">
               <line class="cls-5"
                     x1="71.5911"
                     y1="96.5674"
                     x2="86.2211"
                     y2="89.8014"/>
               <path d="M86.221,90.8057h0a1,1,0,1,1,1-1,1.0029,1.0029,0,0,1-1,1"/>
               <path d="M71.5911,90.8057h0a1,1,0,1,1,1-1,1.0029,1.0029,0,0,1-1,1"/>
            </g>
         </g>
      </g>
      <g id="Artwork_20_no_white-3" data-name="Artwork 20 no white">
         <g class="cls-30">
            <g class="cls-30">
               <line class="cls-5"
                     x1="60.1372"
                     y1="154.6895"
                     x2="74.7672"
                     y2="147.9235"/>
               <path d="M74.7671,148.9278h0a1,1,0,1,1,1-1,1.0029,1.0029,0,0,1-1,1"/>
               <path d="M60.1372,148.9278h0a1,1,0,1,1,1-1,1.0029,1.0029,0,0,1-1,1"/>
            </g>
         </g>
      </g>
      <g id="Auto">
         <g class="cls-31">
            <line class="cls-32"
                  x1="342.1153"
                  y1="143.3507"
                  x2="342.1153"
                  y2="44.8227"/>
            <line class="cls-5"
                  x1="311.0499"
                  y1="103.6871"
                  x2="327.6989"
                  y2="103.6871"/>
            <polyline class="cls-5"
                      points="327.699 79.687 311.05 79.687 311.05 71.687 327.699 71.687"/>
            <line class="cls-2"
                  x1="335.089"
                  y1="55.1021"
                  x2="348.65"
                  y2="48.2491"/>
            <line class="cls-33"
                  x1="335.089"
                  y1="55.1021"
                  x2="348.65"
                  y2="48.2491"/>
            <polyline class="cls-5"
                      points="334.601 119.687 348.503 111.687 358.625 111.687 358.625 139.663 348.503 139.663 334.601 147.687"/>
            <polyline class="cls-5"
                      points="334.601 79.687 348.503 71.687 358.625 71.687 358.625 91.687 311.05 91.687 311.05 111.687 327.699 111.687"/>
            <g class="cls-31">
               <path class="cls-14" d="M311.05,70.6871a1,1,0,1,1-1,1,1,1,0,0,1,1-1"/>
               <circle class="cls-34" cx="311.0499" cy="71.6871" r="1"/>
               <path class="cls-14" d="M358.6256,70.6871a1,1,0,1,1-1,1,1,1,0,0,1,1-1"/>
               <circle class="cls-34" cx="358.6256" cy="71.6871" r="1"/>
               <path class="cls-14" d="M311.05,102.6871a1,1,0,1,1-1,1,1,1,0,0,1,1-1"/>
               <circle class="cls-34" cx="311.0499" cy="103.6871" r="1"/>
               <path class="cls-14" d="M358.6222,138.6876a1,1,0,1,1-1,1,1,1,0,0,1,1-1"/>
               <circle class="cls-34" cx="358.6222" cy="139.6876" r="1"/>
               <line class="cls-35"
                     x1="320.6012"
                     y1="139.6876"
                     x2="334.7962"
                     y2="139.6876"/>
               <line class="cls-35"
                     x1="320.6012"
                     y1="131.6876"
                     x2="334.7962"
                     y2="131.6876"/>
               <line class="cls-35"
                     x1="320.6012"
                     y1="147.6876"
                     x2="334.7962"
                     y2="147.6876"/>
               <line class="cls-35"
                     x1="320.6012"
                     y1="111.6871"
                     x2="334.7962"
                     y2="111.6871"/>
               <line class="cls-35"
                     x1="320.6012"
                     y1="103.6871"
                     x2="334.7962"
                     y2="103.6871"/>
               <line class="cls-35"
                     x1="320.6012"
                     y1="119.6871"
                     x2="334.7962"
                     y2="119.6871"/>
               <line class="cls-35"
                     x1="320.6012"
                     y1="71.6871"
                     x2="334.7962"
                     y2="71.6871"/>
               <line class="cls-35"
                     x1="320.6012"
                     y1="63.6871"
                     x2="334.7962"
                     y2="63.6871"/>
               <line class="cls-35"
                     x1="320.6012"
                     y1="79.6871"
                     x2="334.7962"
                     y2="79.6871"/>
               <line class="cls-32"
                     x1="335.089"
                     y1="48.2496"
                     x2="348.65"
                     y2="48.2496"/>
               <line class="cls-36"
                     x1="335.089"
                     y1="41.3966"
                     x2="348.65"
                     y2="48.2496"/>
               <line class="cls-32"
                     x1="335.089"
                     y1="41.3966"
                     x2="348.65"
                     y2="48.2496"/>
               <g class="cls-15">
                  <g class="cls-37">
                     <text class="cls-38" transform="translate(310.1222 44.6874)">BYPASS</text>
                  </g>
               </g>
               <g class="cls-15">
                  <g class="cls-39">
                     <text class="cls-38" transform="translate(319.4621 50.6874)">TEST</text>
                  </g>
               </g>
               <g class="cls-15">
                  <g class="cls-40">
                     <text class="cls-38" transform="translate(317.798 56.6874)">AUTO</text>
                  </g>
               </g>
            </g>
         </g>
      </g>
      <g id="shape116-109">
         <g class="cls-41">
            <g class="cls-41">
               <path class="cls-14"
                     d="M299.4771,146.8991a1.003,1.003,0,1,1-1,1.003,1.001,1.001,0,0,1,1-1.003"/>
               <circle class="cls-34" cx="299.4771" cy="147.9021" r="1"/>
            </g>
         </g>
      </g>
   </g>
   <g id="Text">
      <text class="cls-42" transform="translate(20.4065 10.9322)">BYPASS<tspan x="4.4507" y="12">MAINS</tspan>
      </text>
      <text class="cls-42" transform="translate(289.3548 10.9322)">MANUAL BYPASS<tspan x="23.894" y="12">SWITCH</tspan>
      </text>
      <text class="cls-42" transform="translate(241.4795 71.9517)">STATIC<tspan x="-8.335" y="12">SWITCHES</tspan>
      </text>
      <text class="cls-42" transform="translate(24.4533 77.7895)">BATTERY</text>
      <text class="cls-42" transform="translate(14.5786 125.903)">RECTIFIER<tspan x="10.2783" y="12">MAINS</tspan>
      </text>
      <text class="cls-42" transform="translate(78.8751 125.9028)">RECTIFIER</text>
      <text class="cls-42" transform="translate(168.7893 125.9027)">INVERTER</text>
      <text class="cls-42" transform="translate(371.1168 132.8339)">OUTPUT</text>
   </g>
</svg>
