<?xml version="1.0" encoding="UTF-8"?>
<svg xmlns="http://www.w3.org/2000/svg"
     xmlns:xlink="http://www.w3.org/1999/xlink"
     width="146.4821mm"
     height="60.7122mm"
     viewBox="0 0 415.2249 172.0976">
   <defs>
      <style>
      .cls-1, .cls-20, .cls-21, .cls-22, .cls-3, .cls-31, .cls-32, .cls-33, .cls-34, .cls-4, .cls-7, .cls-9 {
        fill: none;
      }

      .cls-2 {
        fill: #c6c6c6;
      }

      .cls-20, .cls-21, .cls-22, .cls-3, .cls-33, .cls-34, .cls-4, .cls-7, .cls-9 {
        stroke: #000;
      }

      .cls-3 {
        stroke-miterlimit: 10;
      }

      .cls-3, .cls-4 {
        stroke-width: 0.75px;
      }

      .cls-20, .cls-21, .cls-22, .cls-31, .cls-32, .cls-33, .cls-34, .cls-4, .cls-7, .cls-9 {
        stroke-miterlimit: 3;
      }

      .cls-5 {
        clip-path: url(#clip-path);
      }

      .cls-11, .cls-6 {
        fill: #fff;
      }

      .cls-7 {
        stroke-width: 0.7087px;
      }

      .cls-8 {
        clip-path: url(#clip-path-4);
      }

      .cls-9 {
        stroke-width: 0.7087px;
      }

      .cls-10 {
        clip-path: url(#clip-path-7);
      }

      .cls-11, .cls-13 {
        fill-rule: evenodd;
      }

      .cls-12 {
        clip-path: url(#clip-path-9);
      }

      .cls-14 {
        isolation: isolate;
      }

      .cls-15 {
        clip-path: url(#clip-path-12);
      }

      .cls-16 {
        font-size: 8px;
      }

      .cls-16, .cls-37, .cls-41 {
        fill: #01889C;
        font-family: Arial-BoldMT, Arial;
        font-weight: 700;
      }

      .cls-17 {
        clip-path: url(#clip-path-13);
      }

      .cls-18 {
        clip-path: url(#clip-path-15);
      }

      .cls-19 {
        clip-path: url(#clip-path-16);
      }

      .cls-20, .cls-22 {
        stroke-width: 0.7513px;
      }

      .cls-21 {
        stroke-width: 1.2522px;
      }

      .cls-22 {
        stroke-dasharray: 2.0034 1.0017;
      }

      .cls-23 {
        clip-path: url(#clip-path-18);
      }

      .cls-24 {
        clip-path: url(#clip-path-20);
      }

      .cls-25 {
        clip-path: url(#clip-path-22);
      }

      .cls-26 {
        clip-path: url(#clip-path-25);
      }

      .cls-27 {
        clip-path: url(#clip-path-26);
      }

      .cls-28 {
        clip-path: url(#clip-path-27);
      }

      .cls-29 {
        clip-path: url(#clip-path-29);
      }

      .cls-30 {
        clip-path: url(#clip-path-31);
      }

      .cls-31, .cls-32 {
        stroke: #626469;
      }

      .cls-31, .cls-32, .cls-33 {
        stroke-width: 0.5px;
      }

      .cls-31 {
        stroke-dasharray: 2 1;
      }

      .cls-34 {
        stroke-width: 2px;
      }

      .cls-35 {
        fill: #626469;
      }

      .cls-36 {
        clip-path: url(#clip-path-33);
      }

      .cls-37 {
        font-size: 6px;
      }

      .cls-38 {
        clip-path: url(#clip-path-34);
      }

      .cls-39 {
        clip-path: url(#clip-path-35);
      }

      .cls-40 {
        clip-path: url(#clip-path-36);
      }

      .cls-41 {
        font-size: 10px;
      }
    </style>
      <clipPath id="clip-path">
         <rect class="cls-1"
               x="87.9488"
               y="128.0584"
               width="35.4357"
               height="39.688"/>
      </clipPath>
      <clipPath id="clip-path-4">
         <rect class="cls-1"
               x="176.353"
               y="128.0594"
               width="35.434"
               height="39.6861"/>
      </clipPath>
      <clipPath id="clip-path-7">
         <rect class="cls-1"
               x="385.4147"
               y="136.4786"
               width="6.125"
               height="6.125"/>
      </clipPath>
      <clipPath id="clip-path-9">
         <rect class="cls-1"
               x="243.0413"
               y="87.9105"
               width="46.8331"
               height="32"/>
      </clipPath>
      <clipPath id="clip-path-12">
         <rect class="cls-1"
               x="274.7513"
               y="111.7587"
               width="11.1133"
               height="9.875"/>
      </clipPath>
      <clipPath id="clip-path-13">
         <rect class="cls-1"
               x="37.9051"
               y="144.8497"
               width="6.125"
               height="6.125"/>
      </clipPath>
      <clipPath id="clip-path-15">
         <rect class="cls-1"
               x="37.9171"
               y="82.4128"
               width="15.6504"
               height="14.7535"/>
      </clipPath>
      <clipPath id="clip-path-16">
         <rect class="cls-1"
               x="37.9171"
               y="82.4129"
               width="15.6509"
               height="14.7534"/>
      </clipPath>
      <clipPath id="clip-path-18">
         <rect class="cls-1"
               x="37.9051"
               y="27.0401"
               width="6.125"
               height="6.125"/>
      </clipPath>
      <clipPath id="clip-path-20">
         <rect class="cls-1"
               x="243.0413"
               y="131.9024"
               width="46.8331"
               height="32"/>
      </clipPath>
      <clipPath id="clip-path-22">
         <rect class="cls-1"
               x="274.7513"
               y="155.7506"
               width="11.1133"
               height="9.875"/>
      </clipPath>
      <clipPath id="clip-path-25">
         <rect class="cls-1"
               x="70.591"
               y="21.9685"
               width="16.63"
               height="16.2683"/>
      </clipPath>
      <clipPath id="clip-path-26">
         <rect class="cls-1"
               x="70.591"
               y="21.9688"
               width="16.63"
               height="16.268"/>
      </clipPath>
      <clipPath id="clip-path-27">
         <rect class="cls-1"
               x="70.591"
               y="81.6559"
               width="16.63"
               height="16.2683"/>
      </clipPath>
      <clipPath id="clip-path-29">
         <rect class="cls-1"
               x="59.1371"
               y="139.778"
               width="16.63"
               height="16.2683"/>
      </clipPath>
      <clipPath id="clip-path-31">
         <rect class="cls-1"
               x="296.9523"
               y="39.1353"
               width="76.0872"
               height="111.302"/>
      </clipPath>
      <clipPath id="clip-path-33">
         <rect class="cls-1"
               x="310.1222"
               y="39.5403"
               width="24.6738"
               height="7.406"/>
      </clipPath>
      <clipPath id="clip-path-34">
         <rect class="cls-1"
               x="319.462"
               y="45.5403"
               width="15.334"
               height="7.4061"/>
      </clipPath>
      <clipPath id="clip-path-35">
         <rect class="cls-1"
               x="317.7979"
               y="51.5396"
               width="16.9981"
               height="7.4063"/>
      </clipPath>
      <clipPath id="clip-path-36">
         <rect class="cls-1"
               x="297.192"
               y="145.6115"
               width="4.5709"
               height="4.5819"/>
      </clipPath>
   </defs>
   <g id="Paths">
      <g>
         <polygon class="cls-2"
                  points="42.264 32.659 38.896 32.659 42.518 28.122 45.886 28.122 42.264 32.659"/>
         <polygon class="cls-2"
                  points="49.315 32.659 45.947 32.659 49.569 28.122 52.937 28.122 49.315 32.659"/>
         <polygon class="cls-2"
                  points="56.365 32.659 52.998 32.659 56.62 28.122 59.987 28.122 56.365 32.659"/>
         <polygon class="cls-2"
                  points="63.416 32.659 60.049 32.659 63.671 28.122 67.038 28.122 63.416 32.659"/>
         <polygon class="cls-2"
                  points="70.467 32.659 67.1 32.659 70.722 28.122 74.089 28.122 70.467 32.659"/>
         <polygon class="cls-2"
                  points="77.518 32.659 74.151 32.659 77.773 28.122 81.14 28.122 77.518 32.659"/>
         <polygon class="cls-2"
                  points="84.569 32.659 81.202 32.659 84.824 28.122 88.191 28.122 84.569 32.659"/>
         <polygon class="cls-2"
                  points="91.62 32.659 88.253 32.659 91.874 28.122 95.242 28.122 91.62 32.659"/>
         <polygon class="cls-2"
                  points="98.671 32.659 95.303 32.659 98.925 28.122 102.293 28.122 98.671 32.659"/>
         <polygon class="cls-2"
                  points="105.722 32.659 102.354 32.659 105.976 28.122 109.344 28.122 105.722 32.659"/>
         <polygon class="cls-2"
                  points="112.773 32.659 109.405 32.659 113.027 28.122 116.395 28.122 112.773 32.659"/>
         <polygon class="cls-2"
                  points="119.824 32.659 116.456 32.659 120.078 28.122 123.446 28.122 119.824 32.659"/>
         <polygon class="cls-2"
                  points="126.875 32.659 123.507 32.659 127.129 28.122 130.497 28.122 126.875 32.659"/>
         <polygon class="cls-2"
                  points="133.926 32.659 130.558 32.659 134.18 28.122 137.548 28.122 133.926 32.659"/>
         <polygon class="cls-2"
                  points="140.977 32.659 137.609 32.659 141.231 28.122 144.598 28.122 140.977 32.659"/>
         <polygon class="cls-2"
                  points="148.027 32.659 144.66 32.659 148.282 28.122 151.649 28.122 148.027 32.659"/>
         <polygon class="cls-2"
                  points="155.078 32.659 151.711 32.659 155.333 28.122 158.7 28.122 155.078 32.659"/>
         <polygon class="cls-2"
                  points="162.129 32.659 158.762 32.659 162.384 28.122 165.751 28.122 162.129 32.659"/>
         <polygon class="cls-2"
                  points="169.18 32.659 165.813 32.659 169.435 28.122 172.802 28.122 169.18 32.659"/>
         <polygon class="cls-2"
                  points="176.231 32.659 172.864 32.659 176.485 28.122 179.853 28.122 176.231 32.659"/>
         <polygon class="cls-2"
                  points="183.282 32.659 179.914 32.659 183.536 28.122 186.904 28.122 183.282 32.659"/>
         <polygon class="cls-2"
                  points="190.333 32.659 186.965 32.659 190.587 28.122 193.955 28.122 190.333 32.659"/>
         <polygon class="cls-2"
                  points="197.384 32.659 194.016 32.659 197.638 28.122 201.006 28.122 197.384 32.659"/>
         <polygon class="cls-2"
                  points="204.435 32.659 201.067 32.659 204.689 28.122 208.057 28.122 204.435 32.659"/>
         <polygon class="cls-2"
                  points="211.486 32.659 208.118 32.659 211.74 28.122 215.108 28.122 211.486 32.659"/>
         <polygon class="cls-2"
                  points="218.537 32.659 215.169 32.659 218.791 28.122 222.159 28.122 218.537 32.659"/>
         <polygon class="cls-2"
                  points="225.588 32.659 222.22 32.659 225.842 28.122 229.21 28.122 225.588 32.659"/>
         <polygon class="cls-2"
                  points="232.638 32.659 229.271 32.659 232.893 28.122 236.26 28.122 232.638 32.659"/>
         <polygon class="cls-2"
                  points="239.689 32.659 236.322 32.659 239.944 28.122 243.311 28.122 239.689 32.659"/>
         <polygon class="cls-2"
                  points="246.74 32.659 243.373 32.659 246.995 28.122 250.362 28.122 246.74 32.659"/>
         <polygon class="cls-2"
                  points="253.791 32.659 250.424 32.659 254.046 28.122 257.413 28.122 253.791 32.659"/>
         <polygon class="cls-2"
                  points="260.842 32.659 257.475 32.659 261.097 28.122 264.464 28.122 260.842 32.659"/>
         <polygon class="cls-2"
                  points="267.893 32.659 264.525 32.659 268.147 28.122 271.515 28.122 267.893 32.659"/>
         <polygon class="cls-2"
                  points="274.944 32.659 271.576 32.659 275.198 28.122 278.566 28.122 274.944 32.659"/>
         <polygon class="cls-2"
                  points="281.995 32.659 278.627 32.659 282.249 28.122 285.617 28.122 281.995 32.659"/>
         <polygon class="cls-2"
                  points="289.046 32.659 285.678 32.659 289.3 28.122 292.668 28.122 289.046 32.659"/>
         <polygon class="cls-2"
                  points="296.097 32.659 292.729 32.659 296.351 28.122 299.719 28.122 296.097 32.659"/>
         <polygon class="cls-2"
                  points="303.148 32.659 299.78 32.659 303.402 28.122 306.77 28.122 303.148 32.659"/>
         <polygon class="cls-2"
                  points="310.199 32.659 306.831 32.659 310.453 28.122 313.821 28.122 310.199 32.659"/>
         <polygon class="cls-2"
                  points="317.249 32.659 313.882 32.659 317.504 28.122 320.871 28.122 317.249 32.659"/>
         <polygon class="cls-2"
                  points="324.3 32.659 320.933 32.659 324.555 28.122 327.922 28.122 324.3 32.659"/>
         <polygon class="cls-2"
                  points="331.351 32.659 327.984 32.659 331.606 28.122 334.973 28.122 331.351 32.659"/>
         <polygon class="cls-2"
                  points="338.402 32.659 335.035 32.659 338.657 28.122 342.024 28.122 338.402 32.659"/>
         <polygon class="cls-2"
                  points="345.453 32.659 342.086 32.659 345.708 28.122 349.075 28.122 345.453 32.659"/>
         <polygon class="cls-2"
                  points="352.504 32.659 349.137 32.659 352.758 28.122 356.126 28.122 352.504 32.659"/>
         <polygon class="cls-2"
                  points="356.198 36.385 356.188 33.017 360.736 36.626 360.746 39.993 356.198 36.385"/>
         <polygon class="cls-2"
                  points="356.22 43.733 356.21 40.365 360.757 43.974 360.767 47.342 356.22 43.733"/>
         <polygon class="cls-2"
                  points="356.241 51.081 356.232 47.714 360.779 51.322 360.789 54.69 356.241 51.081"/>
         <polygon class="cls-2"
                  points="356.263 58.429 356.253 55.062 360.8 58.671 360.81 62.038 356.263 58.429"/>
         <polygon class="cls-2"
                  points="356.284 65.778 356.275 62.41 360.822 66.019 360.832 69.386 356.284 65.778"/>
         <path class="cls-2"
               d="M352.47,69.7584h3.3676l-3.622,4.5365h-2.7637l-.0067-.026a1.4394,1.4394,0,0,1-.0279-.5638c-.0159-.188.2271-.3759.3518-.5638l.9-1.1276Z"/>
         <path class="cls-2"
               d="M344.405,71.8947l3.041-1.6741a2.2282,2.2282,0,0,0-.1217.2289l-.0308.1787-.0616.3576-.1231.7151-.2463,1.43-.4925,2.8605-2.95,1.624Z"/>
         <polygon class="cls-2"
                  points="337.88 75.487 340.83 73.863 339.845 79.583 336.895 81.208 337.88 75.487"/>
         <path class="cls-2"
               d="M332.1106,77.4789h2.1507l.0444-.0244a3.5267,3.5267,0,0,1,.16.8181c.0533.6238-.6615,1.2477-1.1151,1.8714l-1.4941,1.8714h-3.3676Z"/>
         <polygon class="cls-2"
                  points="324.663 77.479 328.03 77.479 324.408 82.015 321.041 82.015 324.663 77.479"/>
         <polygon class="cls-2"
                  points="317.215 77.479 320.582 77.479 316.96 82.015 313.593 82.015 317.215 77.479"/>
         <polygon class="cls-2"
                  points="313.134 72.775 313.134 76.142 308.597 72.52 308.597 69.153 313.134 72.775"/>
         <polygon class="cls-2"
                  points="313.134 64.449 313.134 67.816 308.597 64.194 308.597 60.827 313.134 64.449"/>
         <polygon class="cls-2"
                  points="304.832 54.953 308.2 54.953 304.578 59.49 301.21 59.49 304.832 54.953"/>
         <polygon class="cls-2"
                  points="297.445 54.953 300.812 54.953 297.19 59.49 293.823 59.49 297.445 54.953"/>
         <polygon class="cls-2"
                  points="290.057 54.953 293.425 54.953 289.803 59.49 286.435 59.49 290.057 54.953"/>
         <polygon class="cls-2"
                  points="282.67 54.953 286.038 54.953 282.416 59.49 279.048 59.49 282.67 54.953"/>
         <polygon class="cls-2"
                  points="275.283 54.953 278.65 54.953 275.028 59.49 271.661 59.49 275.283 54.953"/>
         <polygon class="cls-2"
                  points="267.895 54.953 271.263 54.953 267.641 59.49 264.274 59.49 267.895 54.953"/>
         <polygon class="cls-2"
                  points="260.508 54.953 263.876 54.953 260.254 59.49 256.886 59.49 260.508 54.953"/>
         <polygon class="cls-2"
                  points="253.121 54.953 256.488 54.953 252.866 59.49 249.499 59.49 253.121 54.953"/>
         <polygon class="cls-2"
                  points="245.733 54.953 249.101 54.953 245.479 59.49 242.112 59.49 245.733 54.953"/>
         <polygon class="cls-2"
                  points="238.346 54.953 241.714 54.953 238.092 59.49 234.724 59.49 238.346 54.953"/>
         <polygon class="cls-2"
                  points="230.959 54.953 234.326 54.953 230.704 59.49 227.337 59.49 230.959 54.953"/>
         <polygon class="cls-2"
                  points="223.571 54.953 226.939 54.953 223.317 59.49 219.95 59.49 223.571 54.953"/>
         <polygon class="cls-2"
                  points="215.015 62.929 215.015 59.562 219.552 63.184 219.552 66.551 215.015 62.929"/>
         <polygon class="cls-2"
                  points="215.015 69.991 215.015 66.623 219.552 70.245 219.552 73.613 215.015 69.991"/>
         <polygon class="cls-2"
                  points="215.015 77.052 215.015 73.685 219.552 77.306 219.552 80.674 215.015 77.052"/>
         <polygon class="cls-2"
                  points="215.015 84.113 215.015 80.746 219.552 84.368 219.552 87.735 215.015 84.113"/>
         <polygon class="cls-2"
                  points="215.015 91.175 215.015 87.807 219.552 91.429 219.552 94.797 215.015 91.175"/>
         <polygon class="cls-2"
                  points="215.015 98.236 215.015 94.869 219.552 98.49 219.552 101.858 215.015 98.236"/>
         <polygon class="cls-2"
                  points="223.738 106.466 220.37 106.466 223.992 101.93 227.36 101.93 223.738 106.466"/>
         <polygon class="cls-2"
                  points="231.546 106.466 228.179 106.466 231.801 101.93 235.168 101.93 231.546 106.466"/>
         <polygon class="cls-2"
                  points="239.354 106.466 235.987 106.466 239.609 101.93 242.976 101.93 239.354 106.466"/>
         <polygon class="cls-2"
                  points="247.163 106.466 243.795 106.466 247.417 101.93 250.785 101.93 247.163 106.466"/>
         <polygon class="cls-2"
                  points="254.971 106.466 251.603 106.466 255.225 101.93 258.593 101.93 254.971 106.466"/>
      </g>
      <g>
         <polygon class="cls-2"
                  points="37.965 92.346 34.597 92.346 38.219 87.809 41.587 87.809 37.965 92.346"/>
         <polygon class="cls-2"
                  points="45.098 92.346 41.73 92.346 45.352 87.809 48.72 87.809 45.098 92.346"/>
         <polygon class="cls-2"
                  points="52.231 92.346 48.863 92.346 52.485 87.809 55.853 87.809 52.231 92.346"/>
         <polygon class="cls-2"
                  points="59.364 92.346 55.996 92.346 59.618 87.809 62.985 87.809 59.364 92.346"/>
         <polygon class="cls-2"
                  points="66.496 92.346 63.129 92.346 66.751 87.809 70.118 87.809 66.496 92.346"/>
         <polygon class="cls-2"
                  points="73.629 92.346 70.262 92.346 73.884 87.809 77.251 87.809 73.629 92.346"/>
         <polygon class="cls-2"
                  points="80.762 92.346 77.394 92.346 81.016 87.809 84.384 87.809 80.762 92.346"/>
         <polygon class="cls-2"
                  points="87.895 92.346 84.527 92.346 88.149 87.809 91.517 87.809 87.895 92.346"/>
         <polygon class="cls-2"
                  points="95.028 92.346 91.66 92.346 95.282 87.809 98.65 87.809 95.028 92.346"/>
         <polygon class="cls-2"
                  points="102.16 92.346 98.793 92.346 102.415 87.809 105.782 87.809 102.16 92.346"/>
         <polygon class="cls-2"
                  points="109.293 92.346 105.926 92.346 109.548 87.809 112.915 87.809 109.293 92.346"/>
         <polygon class="cls-2"
                  points="116.426 92.346 113.058 92.346 116.68 87.809 120.048 87.809 116.426 92.346"/>
         <polygon class="cls-2"
                  points="123.559 92.346 120.191 92.346 123.813 87.809 127.181 87.809 123.559 92.346"/>
         <polygon class="cls-2"
                  points="130.692 92.346 127.324 92.346 130.946 87.809 134.314 87.809 130.692 92.346"/>
         <polygon class="cls-2"
                  points="137.824 92.346 134.457 92.346 138.079 87.809 141.446 87.809 137.824 92.346"/>
         <polygon class="cls-2"
                  points="144.957 92.346 141.59 92.346 145.212 87.809 148.579 87.809 144.957 92.346"/>
         <polygon class="cls-2"
                  points="148.722 96.295 148.722 92.928 153.259 96.55 153.259 99.917 148.722 96.295"/>
         <polygon class="cls-2"
                  points="148.722 103.867 148.722 100.499 153.259 104.121 153.259 107.489 148.722 103.867"/>
         <polygon class="cls-2"
                  points="148.722 111.438 148.722 108.071 153.259 111.693 153.259 115.06 148.722 111.438"/>
         <polygon class="cls-2"
                  points="148.722 119.01 148.722 115.642 153.259 119.264 153.259 122.632 148.722 119.01"/>
         <polygon class="cls-2"
                  points="148.722 126.581 148.722 123.213 153.259 126.835 153.259 130.203 148.722 126.581"/>
         <polygon class="cls-2"
                  points="148.722 134.152 148.722 130.785 153.259 134.407 153.259 137.774 148.722 134.152"/>
         <polygon class="cls-2"
                  points="148.722 141.724 148.722 138.356 153.259 141.978 153.259 145.346 148.722 141.724"/>
         <polygon class="cls-2"
                  points="145.173 145.927 148.541 145.928 144.918 150.464 141.551 150.464 145.173 145.927"/>
         <polygon class="cls-2"
                  points="138.001 145.927 141.369 145.927 137.747 150.464 134.379 150.463 138.001 145.927"/>
         <polygon class="cls-2"
                  points="130.83 145.927 134.197 145.927 130.575 150.463 127.208 150.463 130.83 145.927"/>
         <polygon class="cls-2"
                  points="123.658 145.926 127.026 145.926 123.404 150.463 120.036 150.463 123.658 145.926"/>
         <polygon class="cls-2"
                  points="116.487 145.926 119.854 145.926 116.232 150.462 112.865 150.462 116.487 145.926"/>
         <polygon class="cls-2"
                  points="109.315 145.925 112.683 145.926 109.061 150.462 105.693 150.462 109.315 145.925"/>
         <polygon class="cls-2"
                  points="102.144 145.925 105.511 145.925 101.889 150.462 98.522 150.461 102.144 145.925"/>
         <polygon class="cls-2"
                  points="94.972 145.925 98.34 145.925 94.718 150.461 91.35 150.461 94.972 145.925"/>
         <polygon class="cls-2"
                  points="87.801 145.924 91.168 145.925 87.546 150.461 84.179 150.461 87.801 145.924"/>
         <polygon class="cls-2"
                  points="80.629 145.924 83.997 145.924 80.375 150.46 77.007 150.46 80.629 145.924"/>
         <polygon class="cls-2"
                  points="73.458 145.924 76.825 145.924 73.203 150.46 69.836 150.46 73.458 145.924"/>
         <polygon class="cls-2"
                  points="66.286 145.923 69.654 145.923 66.032 150.46 62.664 150.46 66.286 145.923"/>
         <polygon class="cls-2"
                  points="59.115 145.923 62.482 145.923 58.86 150.459 55.493 150.459 59.115 145.923"/>
         <polygon class="cls-2"
                  points="51.943 145.922 55.311 145.923 51.689 150.459 48.321 150.459 51.943 145.922"/>
         <polygon class="cls-2"
                  points="44.772 145.922 48.139 145.922 44.517 150.459 41.15 150.458 44.772 145.922"/>
      </g>
      <g>
         <polygon class="cls-2"
                  points="356.275 76.543 356.296 73.175 360.81 76.825 360.789 80.193 356.275 76.543"/>
         <polygon class="cls-2"
                  points="356.224 84.694 356.245 81.327 360.759 84.977 360.738 88.344 356.224 84.694"/>
         <polygon class="cls-2"
                  points="352.676 89.479 356.044 89.479 352.422 94.015 349.054 94.015 352.676 89.479"/>
         <polygon class="cls-2"
                  points="345.535 89.479 348.903 89.479 345.281 94.015 341.913 94.015 345.535 89.479"/>
         <polygon class="cls-2"
                  points="338.394 89.479 341.762 89.479 338.14 94.015 334.773 94.015 338.394 89.479"/>
         <polygon class="cls-2"
                  points="331.254 89.479 334.621 89.479 330.999 94.015 327.632 94.015 331.254 89.479"/>
         <polygon class="cls-2"
                  points="324.113 89.479 327.481 89.479 323.859 94.015 320.491 94.015 324.113 89.479"/>
         <polygon class="cls-2"
                  points="316.972 89.479 320.34 89.479 316.718 94.015 313.35 94.015 316.972 89.479"/>
         <polygon class="cls-2"
                  points="308.648 97.923 308.66 94.555 313.184 98.193 313.172 101.561 308.648 97.923"/>
         <polygon class="cls-2"
                  points="308.621 105.468 308.633 102.101 313.157 105.739 313.144 109.107 308.621 105.468"/>
         <polygon class="cls-2"
                  points="317.366 114.199 313.999 114.199 317.621 109.663 320.988 109.663 317.366 114.199"/>
      </g>
      <polygon class="cls-2"
               points="315.838 105.932 312.47 105.932 316.092 101.396 319.46 101.396 315.838 105.932"/>
      <polygon class="cls-2"
               points="315.838 72.394 312.47 72.394 316.092 67.857 319.46 67.857 315.838 72.394"/>
      <g>
         <polygon class="cls-2"
                  points="190.492 145.922 193.859 145.922 190.237 150.458 186.87 150.458 190.492 145.922"/>
         <polygon class="cls-2"
                  points="183.291 145.922 186.659 145.922 183.037 150.458 179.669 150.458 183.291 145.922"/>
         <polygon class="cls-2"
                  points="176.091 145.922 179.458 145.922 175.836 150.458 172.469 150.458 176.091 145.922"/>
         <polygon class="cls-2"
                  points="168.89 145.922 172.258 145.922 168.636 150.458 165.268 150.458 168.89 145.922"/>
         <polygon class="cls-2"
                  points="161.69 145.922 165.058 145.922 161.436 150.458 158.068 150.458 161.69 145.922"/>
         <polygon class="cls-2"
                  points="154.49 145.922 157.857 145.922 154.235 150.458 150.868 150.458 154.49 145.922"/>
      </g>
   </g>
   <g id="Diagrams">
      <polyline class="cls-3"
                points="299.479 147.974 299.479 103.973 217.283 103.973 217.283 56.996 310.988 56.996 310.988 71.605"/>
      <polyline class="cls-3" points="86.21 30.165 358.571 30.403 358.571 71.605"/>
      <path class="cls-4" d="M321.9664,147.9743H75.7671"/>
      <path class="cls-4" d="M59.25,147.9743H41.8688"/>
      <polyline class="cls-3" points="150.991 147.97 150.991 89.852 86.21 89.852"/>
      <line class="cls-4"
            x1="359.3322"
            y1="139.6791"
            x2="388.4772"
            y2="139.6791"/>
      <line class="cls-3"
            x1="70.6981"
            y1="89.8522"
            x2="53.5675"
            y2="89.8522"/>
      <line class="cls-3"
            x1="40.9676"
            y1="30.1647"
            x2="71.82"
            y2="30.1647"/>
   </g>
   <g id="Symbols">
      <g id="Rectifier">
         <g class="cls-5">
            <rect class="cls-6"
                  x="88.6584"
                  y="130.8942"
                  width="34.0183"
                  height="34.0183"/>
            <g class="cls-5">
               <rect class="cls-7"
                     x="88.6584"
                     y="130.8942"
                     width="34.0183"
                     height="34.0183"/>
               <line class="cls-7"
                     x1="122.674"
                     y1="130.892"
                     x2="88.6566"
                     y2="164.9103"/>
            </g>
            <line class="cls-7"
                  x1="118.956"
                  y1="157.4683"
                  x2="109.3931"
                  y2="157.4683"/>
            <line class="cls-7"
                  x1="111.6446"
                  y1="159.5944"
                  x2="109.3937"
                  y2="159.5944"/>
            <line class="cls-7"
                  x1="115.3002"
                  y1="159.5944"
                  x2="113.0494"
                  y2="159.5944"/>
            <line class="cls-7"
                  x1="118.956"
                  y1="159.5944"
                  x2="116.7051"
                  y2="159.5944"/>
            <g class="cls-5">
               <path class="cls-7"
                     d="M92.4106,136.7928a2.1878,2.1878,0,0,1,2.1261-2.0061c1.0413,0,1.871.53,2.1261,2.0061a2.1383,2.1383,0,0,0,2.1262,2.0043,2.298,2.298,0,0,0,2.1261-2.0043"/>
            </g>
         </g>
      </g>
      <g id="Inverter">
         <g class="cls-8">
            <rect class="cls-6"
                  x="177.0608"
                  y="130.8932"
                  width="34.0176"
                  height="34.0166"/>
            <g class="cls-8">
               <rect class="cls-9"
                     x="177.0608"
                     y="130.8932"
                     width="34.0166"
                     height="34.0166"/>
               <line class="cls-9"
                     x1="177.0637"
                     y1="164.912"
                     x2="211.0794"
                     y2="130.8963"/>
            </g>
            <line class="cls-9"
                  x1="180.2499"
                  y1="137.2744"
                  x2="189.8133"
                  y2="137.2744"/>
            <line class="cls-9"
                  x1="182.5015"
                  y1="139.4005"
                  x2="180.2498"
                  y2="139.4005"/>
            <line class="cls-9"
                  x1="186.157"
                  y1="139.4005"
                  x2="183.9062"
                  y2="139.4005"/>
            <line class="cls-9"
                  x1="189.813"
                  y1="139.4005"
                  x2="187.5613"
                  y2="139.4005"/>
            <g class="cls-8">
               <path class="cls-9"
                     d="M199.3847,157.5872a2.1865,2.1865,0,0,1,2.1261-2.0061c1.0413,0,1.87.53,2.126,2.0061a2.1381,2.1381,0,0,0,2.1261,2.0041,2.2987,2.2987,0,0,0,2.126-2.0041"/>
            </g>
         </g>
      </g>
      <g id="Artwork_13" data-name="Artwork 13">
         <g class="cls-10">
            <g class="cls-10">
               <path class="cls-11"
                     d="M388.4771,137.5415a2,2,0,1,1-2,2,2.0007,2.0007,0,0,1,2-2"/>
               <circle class="cls-4" cx="388.4771" cy="139.5415" r="2"/>
            </g>
         </g>
      </g>
      <g id="Artwork_11" data-name="Artwork 11">
         <g class="cls-12">
            <rect class="cls-6"
                  x="244.4123"
                  y="89.1995"
                  width="29.339"
                  height="29.423"/>
            <g class="cls-12">
               <rect class="cls-4"
                     x="244.4123"
                     y="89.1995"
                     width="29.339"
                     height="29.423"/>
               <line class="cls-3"
                     x1="244.4125"
                     y1="103.9111"
                     x2="273.7515"
                     y2="103.9111"/>
            </g>
            <rect class="cls-6"
                  x="251.7423"
                  y="96.3265"
                  width="15.128"
                  height="15.171"/>
            <rect class="cls-4"
                  x="251.7423"
                  y="96.3265"
                  width="15.128"
                  height="15.171"/>
            <line class="cls-4"
                  x1="256.7103"
                  y1="115.1767"
                  x2="256.7103"
                  y2="107.8167"/>
            <line class="cls-4"
                  x1="259.6527"
                  y1="115.1767"
                  x2="259.6417"
                  y2="112.8347"/>
            <path d="M262.9076,109.0324v4.929l-4.909-2.464Zm.75-1.216-7.33,3.681,7.33,3.679Z"/>
            <line class="cls-4"
                  x1="262.3685"
                  y1="92.6992"
                  x2="262.3685"
                  y2="100.0592"/>
            <line class="cls-4"
                  x1="259.0795"
                  y1="92.6484"
                  x2="259.0795"
                  y2="94.6614"/>
            <path d="M256.1644,93.8605l4.909,2.464-4.909,2.465Zm-.75-1.216v7.36l7.33-3.68Z"/>
            <g class="cls-12">
               <path class="cls-13"
                     d="M251.7425,102.91a1,1,0,1,1-.997,1,.9984.9984,0,0,1,.997-1"/>
               <circle class="cls-4" cx="251.7425" cy="103.9101" r="0.997"/>
               <path class="cls-13"
                     d="M266.8705,102.9111a1,1,0,1,1-.997,1,.9984.9984,0,0,1,.997-1"/>
               <circle class="cls-4" cx="266.8705" cy="103.9111" r="0.997"/>
               <g class="cls-14">
                  <g class="cls-15">
                     <text class="cls-16" transform="translate(274.7508 118.622)">EN</text>
                  </g>
               </g>
            </g>
         </g>
      </g>
      <g id="Artwork_13-2" data-name="Artwork 13">
         <g class="cls-17">
            <g class="cls-17">
               <path class="cls-11"
                     d="M40.9675,145.9126a2,2,0,1,1-2,2,2.0007,2.0007,0,0,1,2-2"/>
               <circle class="cls-4" cx="40.9675" cy="147.9126" r="2"/>
            </g>
         </g>
      </g>
      <g id="Artwork_8" data-name="Artwork 8">
         <g class="cls-18">
            <g class="cls-19">
               <line class="cls-20"
                     x1="40.5535"
                     y1="97.1742"
                     x2="40.5535"
                     y2="82.4208"/>
               <line class="cls-21"
                     x1="38.5354"
                     y1="94.0399"
                     x2="38.5354"
                     y2="85.5553"/>
            </g>
            <line class="cls-22"
                  x1="40.3197"
                  y1="89.7894"
                  x2="51.3006"
                  y2="89.7894"/>
            <g class="cls-19">
               <line class="cls-20"
                     x1="53.3186"
                     y1="97.1663"
                     x2="53.3186"
                     y2="82.4129"/>
            </g>
            <line class="cls-21"
                  x1="51.3005"
                  y1="94.0316"
                  x2="51.3005"
                  y2="85.547"/>
         </g>
      </g>
      <g id="Artwork_13-3" data-name="Artwork 13">
         <g class="cls-23">
            <g class="cls-23">
               <path class="cls-11"
                     d="M40.9675,28.103a2,2,0,1,1-2,2,2.0007,2.0007,0,0,1,2-2"/>
               <circle class="cls-4" cx="40.9675" cy="30.103" r="2"/>
            </g>
         </g>
      </g>
      <g id="Artwork_12" data-name="Artwork 12">
         <g class="cls-24">
            <g class="cls-24">
               <g class="cls-14">
                  <g class="cls-25">
                     <text class="cls-16" transform="translate(274.7508 162.613)">EA</text>
                  </g>
               </g>
            </g>
            <rect class="cls-6"
                  x="244.4123"
                  y="133.1904"
                  width="29.339"
                  height="29.423"/>
            <g class="cls-24">
               <rect class="cls-4"
                     x="244.4123"
                     y="133.1904"
                     width="29.339"
                     height="29.423"/>
               <line class="cls-3"
                     x1="244.4125"
                     y1="147.9029"
                     x2="273.7515"
                     y2="147.9029"/>
            </g>
            <rect class="cls-6"
                  x="251.7423"
                  y="140.3184"
                  width="15.128"
                  height="15.171"/>
            <rect class="cls-4"
                  x="251.7423"
                  y="140.3184"
                  width="15.128"
                  height="15.171"/>
            <line class="cls-4"
                  x1="256.7103"
                  y1="159.1685"
                  x2="256.7103"
                  y2="151.8085"/>
            <line class="cls-4"
                  x1="259.6527"
                  y1="159.1685"
                  x2="259.6417"
                  y2="156.8265"/>
            <path d="M262.9076,153.0242v4.929l-4.909-2.464Zm.75-1.216-7.33,3.681,7.33,3.679Z"/>
            <line class="cls-4"
                  x1="262.3685"
                  y1="136.691"
                  x2="262.3685"
                  y2="144.051"/>
            <line class="cls-4"
                  x1="259.0795"
                  y1="136.6397"
                  x2="259.0795"
                  y2="138.6527"/>
            <path d="M256.1644,137.8523l4.909,2.464-4.909,2.465Zm-.75-1.216v7.36l7.33-3.68Z"/>
            <g class="cls-24">
               <path class="cls-13"
                     d="M251.7425,146.9029a1,1,0,1,1-.997,1,.9978.9978,0,0,1,.997-1"/>
               <circle class="cls-4" cx="251.7425" cy="147.9029" r="0.997"/>
               <path class="cls-13"
                     d="M266.8705,146.9029a1,1,0,1,1-.997,1,.9984.9984,0,0,1,.997-1"/>
               <circle class="cls-4" cx="266.8705" cy="147.9029" r="0.997"/>
            </g>
         </g>
      </g>
      <g id="Artwork_20_no_white" data-name="Artwork 20 no white">
         <g class="cls-26">
            <g class="cls-27">
               <line class="cls-4"
                     x1="71.5911"
                     y1="36.88"
                     x2="86.2211"
                     y2="30.114"/>
               <path d="M86.221,31.1183h0a1,1,0,1,1,1-1,1.0029,1.0029,0,0,1-1,1"/>
               <path d="M71.5911,31.1183h0a1,1,0,1,1,1-1,1.0029,1.0029,0,0,1-1,1"/>
            </g>
         </g>
      </g>
      <g id="Artwork_20_no_white-2" data-name="Artwork 20 no white">
         <g class="cls-28">
            <g class="cls-28">
               <line class="cls-4"
                     x1="71.5911"
                     y1="96.5674"
                     x2="86.2211"
                     y2="89.8014"/>
               <path d="M86.221,90.8057h0a1,1,0,1,1,1-1,1.0029,1.0029,0,0,1-1,1"/>
               <path d="M71.5911,90.8057h0a1,1,0,1,1,1-1,1.0029,1.0029,0,0,1-1,1"/>
            </g>
         </g>
      </g>
      <g id="Artwork_20_no_white-3" data-name="Artwork 20 no white">
         <g class="cls-29">
            <g class="cls-29">
               <line class="cls-4"
                     x1="60.1372"
                     y1="154.6895"
                     x2="74.7672"
                     y2="147.9235"/>
               <path d="M74.7671,148.9278h0a1,1,0,1,1,1-1,1.0029,1.0029,0,0,1-1,1"/>
               <path d="M60.1372,148.9278h0a1,1,0,1,1,1-1,1.0029,1.0029,0,0,1-1,1"/>
            </g>
         </g>
      </g>
      <g id="Auto">
         <g class="cls-30">
            <line class="cls-31"
                  x1="342.1153"
                  y1="143.3507"
                  x2="342.1153"
                  y2="44.8227"/>
            <line class="cls-4"
                  x1="311.0499"
                  y1="103.6871"
                  x2="327.6989"
                  y2="103.6871"/>
            <polyline class="cls-4"
                      points="327.699 79.687 311.05 79.687 311.05 71.687 327.699 71.687"/>
            <line class="cls-2"
                  x1="335.089"
                  y1="55.1021"
                  x2="348.65"
                  y2="48.2491"/>
            <line class="cls-32"
                  x1="335.089"
                  y1="55.1021"
                  x2="348.65"
                  y2="48.2491"/>
            <polyline class="cls-4"
                      points="334.601 119.687 348.503 111.687 358.625 111.687 358.625 139.663 348.503 139.663 334.601 147.687"/>
            <polyline class="cls-4"
                      points="334.601 79.687 348.503 71.687 358.625 71.687 358.625 91.687 311.05 91.687 311.05 111.687 327.699 111.687"/>
            <g class="cls-30">
               <path class="cls-13" d="M311.05,70.6871a1,1,0,1,1-1,1,1,1,0,0,1,1-1"/>
               <circle class="cls-33" cx="311.0499" cy="71.6871" r="1"/>
               <path class="cls-13" d="M358.6256,70.6871a1,1,0,1,1-1,1,1,1,0,0,1,1-1"/>
               <circle class="cls-33" cx="358.6256" cy="71.6871" r="1"/>
               <path class="cls-13" d="M311.05,102.6871a1,1,0,1,1-1,1,1,1,0,0,1,1-1"/>
               <circle class="cls-33" cx="311.0499" cy="103.6871" r="1"/>
               <path class="cls-13" d="M358.6222,138.6876a1,1,0,1,1-1,1,1,1,0,0,1,1-1"/>
               <circle class="cls-33" cx="358.6222" cy="139.6876" r="1"/>
               <line class="cls-34"
                     x1="320.6012"
                     y1="139.6876"
                     x2="334.7962"
                     y2="139.6876"/>
               <line class="cls-34"
                     x1="320.6012"
                     y1="131.6876"
                     x2="334.7962"
                     y2="131.6876"/>
               <line class="cls-34"
                     x1="320.6012"
                     y1="147.6876"
                     x2="334.7962"
                     y2="147.6876"/>
               <line class="cls-34"
                     x1="320.6012"
                     y1="111.6871"
                     x2="334.7962"
                     y2="111.6871"/>
               <line class="cls-34"
                     x1="320.6012"
                     y1="103.6871"
                     x2="334.7962"
                     y2="103.6871"/>
               <line class="cls-34"
                     x1="320.6012"
                     y1="119.6871"
                     x2="334.7962"
                     y2="119.6871"/>
               <line class="cls-34"
                     x1="320.6012"
                     y1="71.6871"
                     x2="334.7962"
                     y2="71.6871"/>
               <line class="cls-34"
                     x1="320.6012"
                     y1="63.6871"
                     x2="334.7962"
                     y2="63.6871"/>
               <line class="cls-34"
                     x1="320.6012"
                     y1="79.6871"
                     x2="334.7962"
                     y2="79.6871"/>
               <line class="cls-31"
                     x1="335.089"
                     y1="48.2496"
                     x2="348.65"
                     y2="48.2496"/>
               <line class="cls-35"
                     x1="335.089"
                     y1="41.3966"
                     x2="348.65"
                     y2="48.2496"/>
               <line class="cls-31"
                     x1="335.089"
                     y1="41.3966"
                     x2="348.65"
                     y2="48.2496"/>
               <g class="cls-14">
                  <g class="cls-36">
                     <text class="cls-37" transform="translate(310.1222 44.6874)">BYPASS</text>
                  </g>
               </g>
               <g class="cls-14">
                  <g class="cls-38">
                     <text class="cls-37" transform="translate(319.4621 50.6874)">TEST</text>
                  </g>
               </g>
               <g class="cls-14">
                  <g class="cls-39">
                     <text class="cls-37" transform="translate(317.798 56.6874)">AUTO</text>
                  </g>
               </g>
            </g>
         </g>
      </g>
      <g id="shape116-109">
         <g class="cls-40">
            <g class="cls-40">
               <path class="cls-13"
                     d="M299.4771,146.8991a1.003,1.003,0,1,1-1,1.003,1.001,1.001,0,0,1,1-1.003"/>
               <circle class="cls-33" cx="299.4771" cy="147.9021" r="1"/>
            </g>
         </g>
      </g>
   </g>
   <g id="Text">
      <text class="cls-41" transform="translate(20.4065 10.9322)">BYPASS<tspan x="4.4507" y="12">MAINS</tspan>
      </text>
      <text class="cls-41" transform="translate(289.3548 10.9322)">MANUAL BYPASS<tspan x="23.894" y="12">SWITCH</tspan>
      </text>
      <text class="cls-41" transform="translate(241.4795 71.9516)">STATIC<tspan x="-8.335" y="12">SWITCHES</tspan>
      </text>
      <text class="cls-41" transform="translate(24.4533 77.7895)">BATTERY</text>
      <text class="cls-41" transform="translate(78.8751 125.9028)">RECTIFIER</text>
      <text class="cls-41" transform="translate(168.7893 125.9028)">INVERTER</text>
      <text class="cls-41" transform="translate(14.5786 125.903)">RECTIFIER<tspan x="10.2783" y="12">MAINS</tspan>
      </text>
      <text class="cls-41" transform="translate(371.1168 132.8339)">OUTPUT</text>
   </g>
</svg>
