<?xml version="1.0" encoding="UTF-8"?>
<svg xmlns="http://www.w3.org/2000/svg"
     xmlns:xlink="http://www.w3.org/1999/xlink"
 id="Layer_1"
     data-name="Layer 1"
     width="70mm"
     height="53mm"
     viewBox="0 0 198.4252 150.2362">
   <defs>
      <style>
      .cls-1, .cls-10, .cls-2, .cls-7 {
        fill: none;
      }

      .cls-2 {
        stroke: #231f20;
        stroke-miterlimit: 10;
      }

      .cls-10, .cls-2 {
        stroke-width: 0.75px;
      }

      .cls-3 {
        fill: #231f20;
      }

      .cls-4 {
        clip-path: url(#clip-path);
      }

      .cls-14, .cls-5 {
        fill: #fff;
      }

      .cls-6 {
        clip-path: url(#clip-path-2);
      }

      .cls-10, .cls-7 {
        stroke: #000;
        stroke-miterlimit: 3;
      }

      .cls-7 {
        stroke-width: 0.9616px;
      }

      .cls-8 {
        clip-path: url(#clip-path-3);
      }

      .cls-9 {
        clip-path: url(#clip-path-4);
      }

      .cls-11 {
        clip-path: url(#clip-path-5);
      }

      .cls-12 {
        clip-path: url(#clip-path-6);
      }

      .cls-13 {
        fill: #01889C;
      }

      .cls-14, .cls-15 {
        font-size: 10px;
        font-family: Arial-BoldMT, Arial;
        font-weight: 700;
      }

      .cls-15 {
        fill: #58ba5a;
      }

      .cls-16 {
        font-size: 8px;
        font-family: ArialMT, Arial;
      }
    </style>
      <clipPath id="clip-path">
         <rect class="cls-1"
               x="77.0483"
               y="120.9729"
               width="21.3226"
               height="20.8588"/>
      </clipPath>
      <clipPath id="clip-path-2">
         <rect class="cls-1"
               x="77.0483"
               y="120.9733"
               width="21.3226"
               height="20.8584"/>
      </clipPath>
      <clipPath id="clip-path-3">
         <rect class="cls-1"
               x="108.326"
               y="63.3916"
               width="20.8588"
               height="21.3226"/>
      </clipPath>
      <clipPath id="clip-path-4">
         <rect class="cls-1"
               x="108.3264"
               y="63.3916"
               width="20.8584"
               height="21.3226"/>
      </clipPath>
      <clipPath id="clip-path-5">
         <rect class="cls-1"
               x="77.0483"
               y="9.2283"
               width="21.3226"
               height="20.8588"/>
      </clipPath>
      <clipPath id="clip-path-6">
         <rect class="cls-1"
               x="77.0483"
               y="9.2287"
               width="21.3226"
               height="20.8584"/>
      </clipPath>
   </defs>
   <g>
      <polyline class="cls-2"
                points="158.663 56.155 118.755 56.155 118.755 94.905 158.663 94.905"/>
      <polygon class="cls-3"
               points="157.569 52.416 164.045 56.155 157.569 59.895 157.569 52.416"/>
      <polygon class="cls-3"
               points="157.569 98.644 164.045 94.905 157.569 91.165 157.569 98.644"/>
   </g>
   <polyline class="cls-2"
             points="66.771 19.658 118.755 19.658 118.755 131.402 66.771 131.402"/>
   <g id="Artwork_20" data-name="Artwork 20">
      <g class="cls-4">
         <rect class="cls-5"
               x="78.3305"
               y="128.1958"
               width="18.7352"
               height="6.4519"/>
         <g class="cls-6">
            <line class="cls-7"
                  x1="97.0886"
                  y1="131.4174"
                  x2="78.3304"
                  y2="140.0926"/>
            <path d="M78.3305,132.7046h0a1.2822,1.2822,0,1,0-1.2822-1.2822,1.286,1.286,0,0,0,1.2822,1.2822"/>
            <path d="M97.0886,132.7046h0a1.2822,1.2822,0,1,0-1.2821-1.2822,1.286,1.286,0,0,0,1.2821,1.2822"/>
         </g>
      </g>
   </g>
   <g id="Artwork_20-2" data-name="Artwork 20">
      <g class="cls-8">
         <rect class="cls-5"
               x="115.5489"
               y="64.6968"
               width="6.4519"
               height="18.7352"/>
         <g class="cls-9">
            <line class="cls-10"
                  x1="118.7705"
                  y1="64.6739"
                  x2="127.4457"
                  y2="83.4321"/>
            <path d="M120.0577,83.432h0a1.2822,1.2822,0,1,0-1.2822,1.2822,1.286,1.286,0,0,0,1.2822-1.2822"/>
            <path d="M120.0577,64.6739h0a1.2822,1.2822,0,1,0-1.2822,1.2821,1.286,1.286,0,0,0,1.2822-1.2821"/>
         </g>
      </g>
   </g>
   <g id="Artwork_20-3" data-name="Artwork 20">
      <g class="cls-11">
         <rect class="cls-5"
               x="78.3305"
               y="16.4512"
               width="18.7352"
               height="6.4519"/>
         <g class="cls-12">
            <line class="cls-7"
                  x1="97.0886"
                  y1="19.6728"
                  x2="78.3304"
                  y2="28.348"/>
            <path d="M78.3305,20.96h0a1.2822,1.2822,0,1,0-1.2822-1.2822A1.286,1.286,0,0,0,78.3305,20.96"/>
            <path d="M97.0886,20.96h0a1.2822,1.2822,0,1,0-1.2821-1.2822A1.286,1.286,0,0,0,97.0886,20.96"/>
         </g>
      </g>
   </g>
   <rect class="cls-13"
         x="12.5306"
         y="2.3988"
         width="54.5177"
         height="54.5177"
         rx="3.2486"/>
   <text class="cls-14" transform="translate(23.9545 31.2519)">UNIT 1</text>
   <rect class="cls-13"
         x="12.5306"
         y="94.1435"
         width="54.5177"
         height="54.5177"
         rx="3.2486"/>
   <text class="cls-14" transform="translate(23.9545 123.8095)">UNIT 2</text>
   <text class="cls-15" transform="translate(128.7485 48.1555)">OUTPUT 1</text>
   <text class="cls-15" transform="translate(128.7485 109.5711)">OUTPUT 2</text>
   <text class="cls-16" transform="translate(30.8508 77.3078)">Output couple switch</text>
</svg>
