<?xml version="1.0" encoding="UTF-8"?>
<svg xmlns="http://www.w3.org/2000/svg"
     xmlns:xlink="http://www.w3.org/1999/xlink"
 id="Layer_1"
     data-name="Layer 1"
     width="80mm"
     height="60mm"
     viewBox="0 0 226.7717 170.0787">
   <defs>
      <style>
      .cls-1, .cls-11, .cls-14, .cls-2 {
        fill: none;
      }

      .cls-2 {
        stroke: #231f20;
        stroke-miterlimit: 10;
      }

      .cls-11, .cls-2 {
        stroke-width: 0.75px;
      }

      .cls-3 {
        fill: #231f20;
      }

      .cls-4 {
        fill: #01889C;
      }

      .cls-5, .cls-6 {
        font-size: 10px;
        font-family: Arial-BoldMT, Arial;
        font-weight: 700;
      }

      .cls-5, .cls-9 {
        fill: #fff;
      }

      .cls-6 {
        fill: #58ba5a;
      }

      .cls-7 {
        font-size: 8px;
        font-family: ArialMT, Arial;
      }

      .cls-8 {
        clip-path: url(#clip-path);
      }

      .cls-10 {
        clip-path: url(#clip-path-2);
      }

      .cls-11, .cls-14 {
        stroke: #000;
        stroke-miterlimit: 3;
      }

      .cls-12 {
        clip-path: url(#clip-path-3);
      }

      .cls-13 {
        clip-path: url(#clip-path-4);
      }

      .cls-14 {
        stroke-width: 0.9616px;
      }

      .cls-15 {
        clip-path: url(#clip-path-5);
      }

      .cls-16 {
        clip-path: url(#clip-path-6);
      }
    </style>
      <clipPath id="clip-path">
         <rect class="cls-1"
               x="111.1037"
               y="73.3054"
               width="20.8588"
               height="21.3226"/>
      </clipPath>
      <clipPath id="clip-path-2">
         <rect class="cls-1"
               x="111.1037"
               y="73.3054"
               width="20.8584"
               height="21.3226"/>
      </clipPath>
      <clipPath id="clip-path-3">
         <rect class="cls-1"
               x="143.4857"
               y="94.3965"
               width="21.3226"
               height="20.8588"/>
      </clipPath>
      <clipPath id="clip-path-4">
         <rect class="cls-1"
               x="143.4857"
               y="94.3969"
               width="21.3226"
               height="20.8584"/>
      </clipPath>
      <clipPath id="clip-path-5">
         <rect class="cls-1"
               x="143.4857"
               y="55.6473"
               width="21.3226"
               height="20.8588"/>
      </clipPath>
      <clipPath id="clip-path-6">
         <rect class="cls-1"
               x="143.4857"
               y="55.6477"
               width="21.3226"
               height="20.8584"/>
      </clipPath>
   </defs>
   <g>
      <polyline class="cls-2"
                points="37.435 104.826 121.526 104.826 121.526 66.077 37.435 66.077"/>
      <polygon class="cls-3"
               points="38.529 108.566 32.053 104.826 38.529 101.086 38.529 108.566"/>
      <polygon class="cls-3"
               points="38.529 62.337 32.053 66.077 38.529 69.816 38.529 62.337"/>
   </g>
   <polyline class="cls-2"
             points="181.406 56.077 181.406 66.077 121.526 66.077 121.526 104.826 181.406 104.826 181.406 114.826"/>
   <g>
      <rect class="cls-4"
            x="154.147"
            y="1.5589"
            width="54.5177"
            height="54.5177"
            rx="3.2486"/>
      <text class="cls-5" transform="translate(165.5709 30.412)">UNIT 1</text>
   </g>
   <g>
      <rect class="cls-4"
            x="154.147"
            y="114.8259"
            width="54.5177"
            height="54.5177"
            rx="3.2486"/>
      <text class="cls-5" transform="translate(165.5709 144.4919)">UNIT 2</text>
   </g>
   <text class="cls-6" transform="translate(15.2919 57.9131)">BATTERY 1</text>
   <text class="cls-6" transform="translate(15.2919 119.3288)">BATTERY 2</text>
   <text class="cls-7" transform="translate(33.7181 87.2291)">Battery couple switch</text>
   <g id="Artwork_20" data-name="Artwork 20">
      <g class="cls-8">
         <rect class="cls-9"
               x="118.2877"
               y="74.5876"
               width="6.4519"
               height="18.7352"/>
         <g class="cls-10">
            <line class="cls-11"
                  x1="121.518"
                  y1="93.3457"
                  x2="112.8428"
                  y2="74.5874"/>
            <path d="M120.2308,74.5876h0a1.2822,1.2822,0,1,0,1.2822-1.2822,1.2859,1.2859,0,0,0-1.2822,1.2822"/>
            <path d="M120.2308,93.3457h0a1.2822,1.2822,0,1,0,1.2822-1.2822,1.286,1.286,0,0,0-1.2822,1.2822"/>
         </g>
      </g>
   </g>
   <g id="Artwork_20-2" data-name="Artwork 20">
      <g class="cls-12">
         <rect class="cls-9"
               x="144.7679"
               y="101.6194"
               width="18.7352"
               height="6.4519"/>
         <g class="cls-13">
            <line class="cls-14"
                  x1="163.526"
                  y1="104.841"
                  x2="144.7678"
                  y2="113.5162"/>
            <path d="M144.7679,106.1281h0a1.2822,1.2822,0,1,0-1.2822-1.2821,1.2859,1.2859,0,0,0,1.2822,1.2821"/>
            <path d="M163.526,106.1281h0a1.2822,1.2822,0,1,0-1.2821-1.2821,1.2859,1.2859,0,0,0,1.2821,1.2821"/>
         </g>
      </g>
   </g>
   <g id="Artwork_20-3" data-name="Artwork 20">
      <g class="cls-15">
         <rect class="cls-9"
               x="144.7679"
               y="62.8702"
               width="18.7352"
               height="6.4519"/>
         <g class="cls-16">
            <line class="cls-14"
                  x1="163.526"
                  y1="66.0917"
                  x2="144.7678"
                  y2="74.767"/>
            <path d="M144.7679,67.3789h0a1.2822,1.2822,0,1,0-1.2822-1.2821,1.286,1.286,0,0,0,1.2822,1.2821"/>
            <path d="M163.526,67.3789h0a1.2822,1.2822,0,1,0-1.2821-1.2821,1.286,1.286,0,0,0,1.2821,1.2821"/>
         </g>
      </g>
   </g>
</svg>
