<?xml version="1.0" encoding="UTF-8"?>
<svg xmlns="http://www.w3.org/2000/svg"
     xmlns:xlink="http://www.w3.org/1999/xlink"
     width="85mm"
     height="40mm"
     viewBox="0 0 240.9449 113.3858">
   <defs>
      <style>
      .cls-1, .cls-13, .cls-14, .cls-15, .cls-3, .cls-4, .cls-7 {
        fill: none;
      }

      .cls-2 {
        fill: #c6c6c6;
      }

      .cls-13, .cls-14, .cls-15, .cls-3, .cls-4, .cls-7 {
        stroke: #000;
      }

      .cls-13, .cls-14, .cls-15, .cls-3, .cls-7 {
        stroke-miterlimit: 3;
      }

      .cls-3, .cls-4 {
        stroke-width: 0.75px;
      }

      .cls-4 {
        stroke-miterlimit: 10;
      }

      .cls-5 {
        clip-path: url(#clip-path);
      }

      .cls-6, .cls-9 {
        fill: #fff;
      }

      .cls-7 {
        stroke-width: 0.7087px;
      }

      .cls-8 {
        clip-path: url(#clip-path-4);
      }

      .cls-9 {
        fill-rule: evenodd;
      }

      .cls-10 {
        clip-path: url(#clip-path-6);
      }

      .cls-11 {
        clip-path: url(#clip-path-8);
      }

      .cls-12 {
        clip-path: url(#clip-path-9);
      }

      .cls-13, .cls-15 {
        stroke-width: 0.7513px;
      }

      .cls-14 {
        stroke-width: 1.2522px;
      }

      .cls-15 {
        stroke-dasharray: 2.0034 1.0017;
      }

      .cls-16 {
        clip-path: url(#clip-path-11);
      }

      .cls-17 {
        clip-path: url(#clip-path-12);
      }

      .cls-18 {
        clip-path: url(#clip-path-13);
      }

      .cls-19 {
        clip-path: url(#clip-path-14);
      }

      .cls-20 {
        font-size: 10px;
        fill: #01889C;
        font-family: Arial-BoldMT, Arial;
        font-weight: 700;
      }
    </style>
      <clipPath id="clip-path">
         <rect class="cls-1"
               x="107.9488"
               y="70.3467"
               width="35.4357"
               height="39.688"/>
      </clipPath>
      <clipPath id="clip-path-4">
         <rect class="cls-1"
               x="197.8541"
               y="87.138"
               width="6.125"
               height="6.125"/>
      </clipPath>
      <clipPath id="clip-path-6">
         <rect class="cls-1"
               x="37.9051"
               y="87.138"
               width="6.125"
               height="6.125"/>
      </clipPath>
      <clipPath id="clip-path-8">
         <rect class="cls-1"
               x="37.9171"
               y="24.7011"
               width="15.6504"
               height="14.7535"/>
      </clipPath>
      <clipPath id="clip-path-9">
         <rect class="cls-1"
               x="37.9171"
               y="24.7012"
               width="15.6509"
               height="14.7534"/>
      </clipPath>
      <clipPath id="clip-path-11">
         <rect class="cls-1"
               x="70.591"
               y="23.9442"
               width="16.63"
               height="16.2683"/>
      </clipPath>
      <clipPath id="clip-path-12">
         <rect class="cls-1"
               x="70.591"
               y="23.9445"
               width="16.63"
               height="16.268"/>
      </clipPath>
      <clipPath id="clip-path-13">
         <rect class="cls-1"
               x="70.591"
               y="82.0663"
               width="16.63"
               height="16.2683"/>
      </clipPath>
      <clipPath id="clip-path-14">
         <rect class="cls-1"
               x="70.591"
               y="82.0666"
               width="16.63"
               height="16.268"/>
      </clipPath>
   </defs>
   <g id="Paths">
      <g>
         <polygon class="cls-2"
                  points="42.082 92.589 38.715 92.589 42.337 88.052 45.704 88.052 42.082 92.589"/>
         <polygon class="cls-2"
                  points="49.209 92.589 45.842 92.589 49.464 88.052 52.831 88.052 49.209 92.589"/>
         <polygon class="cls-2"
                  points="56.336 92.589 52.969 92.589 56.591 88.052 59.958 88.052 56.336 92.589"/>
         <polygon class="cls-2"
                  points="63.463 92.589 60.096 92.589 63.718 88.052 67.085 88.052 63.463 92.589"/>
         <polygon class="cls-2"
                  points="70.59 92.589 67.223 92.589 70.845 88.052 74.212 88.052 70.59 92.589"/>
         <polygon class="cls-2"
                  points="77.717 92.589 74.35 92.589 77.972 88.052 81.339 88.052 77.717 92.589"/>
         <polygon class="cls-2"
                  points="84.844 92.589 81.477 92.589 85.099 88.052 88.466 88.052 84.844 92.589"/>
         <polygon class="cls-2"
                  points="91.971 92.589 88.604 92.589 92.226 88.052 95.593 88.052 91.971 92.589"/>
         <polygon class="cls-2"
                  points="99.098 92.589 95.731 92.589 99.353 88.052 102.72 88.052 99.098 92.589"/>
         <polygon class="cls-2"
                  points="106.225 92.589 102.858 92.589 106.48 88.052 109.847 88.052 106.225 92.589"/>
         <polygon points="109.693 91.318 111.42 90.32 109.693 89.323 109.693 91.318"/>
      </g>
      <g>
         <polygon class="cls-2"
                  points="67.633 29.81 71.001 29.81 67.379 34.346 64.011 34.346 67.633 29.81"/>
         <polygon class="cls-2"
                  points="60.322 29.81 63.689 29.81 60.068 34.346 56.7 34.346 60.322 29.81"/>
         <polygon class="cls-2"
                  points="53.011 29.81 56.378 29.81 52.756 34.346 49.389 34.346 53.011 29.81"/>
         <polygon class="cls-2"
                  points="45.699 29.81 49.067 29.81 45.445 34.346 42.077 34.346 45.699 29.81"/>
         <polygon class="cls-2"
                  points="38.388 29.81 41.756 29.81 38.134 34.346 34.766 34.346 38.388 29.81"/>
      </g>
   </g>
   <g id="Text">
      <path class="cls-3" d="M200.8979,90.2625H86.21"/>
      <path class="cls-3" d="M71.3225,90.2625H41.8688"/>
      <polyline class="cls-4" points="160.991 90.259 160.991 32.14 86.21 32.14"/>
      <line class="cls-4"
            x1="70.6981"
            y1="32.1404"
            x2="53.5675"
            y2="32.1404"/>
      <g id="Rectifier">
         <g class="cls-5">
            <rect class="cls-6"
                  x="108.6584"
                  y="73.1825"
                  width="34.0183"
                  height="34.0183"/>
            <g class="cls-5">
               <rect class="cls-7"
                     x="108.6584"
                     y="73.1825"
                     width="34.0183"
                     height="34.0183"/>
               <line class="cls-7"
                     x1="142.674"
                     y1="73.1802"
                     x2="108.6566"
                     y2="107.1985"/>
            </g>
            <line class="cls-7"
                  x1="138.956"
                  y1="99.7566"
                  x2="129.3931"
                  y2="99.7566"/>
            <line class="cls-7"
                  x1="131.6446"
                  y1="101.8827"
                  x2="129.3937"
                  y2="101.8827"/>
            <line class="cls-7"
                  x1="135.3002"
                  y1="101.8827"
                  x2="133.0494"
                  y2="101.8827"/>
            <line class="cls-7"
                  x1="138.956"
                  y1="101.8827"
                  x2="136.7051"
                  y2="101.8827"/>
            <g class="cls-5">
               <path class="cls-7"
                     d="M112.4106,79.0811a2.1879,2.1879,0,0,1,2.1261-2.0062c1.0413,0,1.871.53,2.1261,2.0062a2.1382,2.1382,0,0,0,2.1262,2.0042,2.2979,2.2979,0,0,0,2.1261-2.0042"/>
            </g>
         </g>
      </g>
      <g id="Artwork_13" data-name="Artwork 13">
         <g class="cls-8">
            <g class="cls-8">
               <path class="cls-9"
                     d="M200.9165,88.2009a2,2,0,1,1-2,2,2.0007,2.0007,0,0,1,2-2"/>
               <circle class="cls-3" cx="200.9165" cy="90.2009" r="2"/>
            </g>
         </g>
      </g>
      <g id="Artwork_13-2" data-name="Artwork 13">
         <g class="cls-10">
            <g class="cls-10">
               <path class="cls-9"
                     d="M40.9675,88.2009a2,2,0,1,1-2,2,2.0007,2.0007,0,0,1,2-2"/>
               <circle class="cls-3" cx="40.9675" cy="90.2009" r="2"/>
            </g>
         </g>
      </g>
      <g id="Artwork_8" data-name="Artwork 8">
         <g class="cls-11">
            <g class="cls-12">
               <line class="cls-13"
                     x1="40.5535"
                     y1="39.4625"
                     x2="40.5535"
                     y2="24.7091"/>
               <line class="cls-14"
                     x1="38.5354"
                     y1="36.3282"
                     x2="38.5354"
                     y2="27.8436"/>
            </g>
            <line class="cls-15"
                  x1="40.3197"
                  y1="32.0777"
                  x2="51.3006"
                  y2="32.0777"/>
            <g class="cls-12">
               <line class="cls-13"
                     x1="53.3186"
                     y1="39.4546"
                     x2="53.3186"
                     y2="24.7012"/>
            </g>
            <line class="cls-14"
                  x1="51.3005"
                  y1="36.3199"
                  x2="51.3005"
                  y2="27.8353"/>
         </g>
      </g>
      <g id="Artwork_20_no_white" data-name="Artwork 20 no white">
         <g class="cls-16">
            <g class="cls-17">
               <line class="cls-3"
                     x1="71.5911"
                     y1="38.8557"
                     x2="86.2211"
                     y2="32.0897"/>
               <path d="M86.221,33.094h0a1,1,0,1,1,1-1,1.0029,1.0029,0,0,1-1,1"/>
               <path d="M71.5911,33.094h0a1,1,0,1,1,1-1,1.0029,1.0029,0,0,1-1,1"/>
            </g>
         </g>
      </g>
      <g id="Artwork_20_no_white-2" data-name="Artwork 20 no white">
         <g class="cls-18">
            <g class="cls-19">
               <line class="cls-3"
                     x1="71.5911"
                     y1="96.9778"
                     x2="86.2211"
                     y2="90.2118"/>
               <path d="M86.221,91.2161h0a1,1,0,1,1,1-1,1.0029,1.0029,0,0,1-1,1"/>
               <path d="M71.5911,91.2161h0a1,1,0,1,1,1-1,1.0029,1.0029,0,0,1-1,1"/>
            </g>
         </g>
      </g>
      <text class="cls-20" transform="translate(24.4533 20.0777)">BATTERY</text>
      <text class="cls-20" transform="translate(14.5786 68.1913)">RECTIFIER<tspan x="10.2783" y="12">MAINS</tspan>
      </text>
      <text class="cls-20" transform="translate(98.8751 68.191)">RECTIFIER</text>
      <text class="cls-20" transform="translate(180.3628 78.2001)">OUTPUT</text>
   </g>
</svg>
