<?xml version="1.0" encoding="UTF-8"?>
<svg xmlns="http://www.w3.org/2000/svg"
     xmlns:xlink="http://www.w3.org/1999/xlink"
     width="105mm"
     height="82mm"
     viewBox="0 0 297.6378 232.4409">
   <defs>
      <style>
      .cls-1, .cls-13, .cls-14, .cls-15, .cls-2, .cls-3, .cls-9 {
        fill: none;
      }

      .cls-13, .cls-14, .cls-15, .cls-2, .cls-3, .cls-9 {
        stroke: #000;
      }

      .cls-2 {
        stroke-miterlimit: 10;
      }

      .cls-2, .cls-3 {
        stroke-width: 0.75px;
      }

      .cls-13, .cls-14, .cls-15, .cls-3, .cls-9 {
        stroke-miterlimit: 3;
      }

      .cls-4 {
        clip-path: url(#clip-path);
      }

      .cls-5, .cls-8 {
        fill: #fff;
      }

      .cls-5 {
        fill-rule: evenodd;
      }

      .cls-6 {
        clip-path: url(#clip-path-3);
      }

      .cls-7 {
        clip-path: url(#clip-path-5);
      }

      .cls-9 {
        stroke-width: 0.7087px;
      }

      .cls-10 {
        clip-path: url(#clip-path-8);
      }

      .cls-11 {
        clip-path: url(#clip-path-10);
      }

      .cls-12 {
        clip-path: url(#clip-path-11);
      }

      .cls-13, .cls-15 {
        stroke-width: 0.7513px;
      }

      .cls-14 {
        stroke-width: 1.2522px;
      }

      .cls-15 {
        stroke-dasharray: 2.0034 1.0017;
      }

      .cls-16 {
        clip-path: url(#clip-path-13);
      }

      .cls-17 {
        clip-path: url(#clip-path-16);
      }

      .cls-18 {
        clip-path: url(#clip-path-18);
      }

      .cls-19 {
        clip-path: url(#clip-path-19);
      }

      .cls-20 {
        clip-path: url(#clip-path-21);
      }

      .cls-21 {
        clip-path: url(#clip-path-23);
      }

      .cls-22 {
        clip-path: url(#clip-path-25);
      }

      .cls-23 {
        clip-path: url(#clip-path-27);
      }

      .cls-24 {
        clip-path: url(#clip-path-29);
      }

      .cls-25 {
        clip-path: url(#clip-path-31);
      }

      .cls-26 {
        clip-path: url(#clip-path-33);
      }

      .cls-27 {
        clip-path: url(#clip-path-35);
      }

      .cls-28 {
        font-size: 10px;
        fill: #01889C;
        font-family: Arial-BoldMT, Arial;
        font-weight: 700;
      }
    </style>
      <clipPath id="clip-path">
         <rect class="cls-1"
               x="247.9283"
               y="204.2445"
               width="6.125"
               height="6.125"/>
      </clipPath>
      <clipPath id="clip-path-3">
         <rect class="cls-1"
               x="247.9283"
               y="83.0757"
               width="6.125"
               height="6.125"/>
      </clipPath>
      <clipPath id="clip-path-5">
         <rect class="cls-1"
               x="107.9488"
               y="187.5919"
               width="35.4357"
               height="39.688"/>
      </clipPath>
      <clipPath id="clip-path-8">
         <rect class="cls-1"
               x="37.9051"
               y="204.3832"
               width="6.125"
               height="6.125"/>
      </clipPath>
      <clipPath id="clip-path-10">
         <rect class="cls-1"
               x="37.9171"
               y="141.9463"
               width="15.6504"
               height="14.7535"/>
      </clipPath>
      <clipPath id="clip-path-11">
         <rect class="cls-1"
               x="37.9171"
               y="141.9464"
               width="15.6509"
               height="14.7534"/>
      </clipPath>
      <clipPath id="clip-path-13">
         <rect class="cls-1"
               x="107.9488"
               y="66.2882"
               width="35.4357"
               height="39.688"/>
      </clipPath>
      <clipPath id="clip-path-16">
         <rect class="cls-1"
               x="37.9051"
               y="83.0795"
               width="6.125"
               height="6.125"/>
      </clipPath>
      <clipPath id="clip-path-18">
         <rect class="cls-1"
               x="37.9171"
               y="20.6426"
               width="15.6504"
               height="14.7535"/>
      </clipPath>
      <clipPath id="clip-path-19">
         <rect class="cls-1"
               x="37.9171"
               y="20.6427"
               width="15.6509"
               height="14.7534"/>
      </clipPath>
      <clipPath id="clip-path-21">
         <rect class="cls-1"
               x="69.6338"
               y="77.9981"
               width="16.63"
               height="16.2683"/>
      </clipPath>
      <clipPath id="clip-path-23">
         <rect class="cls-1"
               x="69.6338"
               y="199.3736"
               width="16.63"
               height="16.2683"/>
      </clipPath>
      <clipPath id="clip-path-25">
         <rect class="cls-1"
               x="212.6758"
               y="77.9981"
               width="16.63"
               height="16.2683"/>
      </clipPath>
      <clipPath id="clip-path-27">
         <rect class="cls-1"
               x="212.6758"
               y="199.3736"
               width="16.63"
               height="16.2683"/>
      </clipPath>
      <clipPath id="clip-path-29">
         <rect class="cls-1"
               x="69.6338"
               y="20.0228"
               width="16.63"
               height="16.2683"/>
      </clipPath>
      <clipPath id="clip-path-31">
         <rect class="cls-1"
               x="69.6338"
               y="141.1889"
               width="16.63"
               height="16.2683"/>
      </clipPath>
      <clipPath id="clip-path-33">
         <rect class="cls-1"
               x="184.7618"
               y="201.4323"
               width="12.4579"
               height="12.1509"/>
      </clipPath>
      <clipPath id="clip-path-35">
         <rect class="cls-1"
               x="184.7618"
               y="80.0568"
               width="12.4579"
               height="12.1509"/>
      </clipPath>
   </defs>
   <g id="Paths">
      <polyline class="cls-2" points="170.991 207.504 170.991 149.385 53.567 149.385"/>
      <line class="cls-3"
            x1="40.9679"
            y1="207.504"
            x2="250.9908"
            y2="207.504"/>
      <polyline class="cls-2" points="170.991 86.2 170.991 28.081 53.567 28.081"/>
      <line class="cls-3"
            x1="40.9679"
            y1="86.2003"
            x2="250.9908"
            y2="86.2003"/>
   </g>
   <g id="Parts">
      <g id="Artwork_13" data-name="Artwork 13">
         <g class="cls-4">
            <g class="cls-4">
               <path class="cls-5"
                     d="M250.9907,205.3074a2,2,0,1,1-2,2,2.0007,2.0007,0,0,1,2-2"/>
               <circle class="cls-3" cx="250.9907" cy="207.3074" r="2"/>
            </g>
         </g>
      </g>
      <g id="Artwork_13-2" data-name="Artwork 13">
         <g class="cls-6">
            <g class="cls-6">
               <path class="cls-5"
                     d="M250.9907,84.1386a2,2,0,1,1-2,2,2.0007,2.0007,0,0,1,2-2"/>
               <circle class="cls-3" cx="250.9907" cy="86.1386" r="2"/>
            </g>
         </g>
      </g>
      <g id="Rectifier">
         <g class="cls-7">
            <rect class="cls-8"
                  x="108.6584"
                  y="190.4277"
                  width="34.0183"
                  height="34.0183"/>
            <g class="cls-7">
               <rect class="cls-9"
                     x="108.6584"
                     y="190.4277"
                     width="34.0183"
                     height="34.0183"/>
               <line class="cls-9"
                     x1="142.674"
                     y1="190.4255"
                     x2="108.6566"
                     y2="224.4438"/>
            </g>
            <line class="cls-9"
                  x1="138.956"
                  y1="217.0018"
                  x2="129.3931"
                  y2="217.0018"/>
            <line class="cls-9"
                  x1="131.6446"
                  y1="219.128"
                  x2="129.3937"
                  y2="219.128"/>
            <line class="cls-9"
                  x1="135.3002"
                  y1="219.128"
                  x2="133.0494"
                  y2="219.128"/>
            <line class="cls-9"
                  x1="138.956"
                  y1="219.128"
                  x2="136.7051"
                  y2="219.128"/>
            <g class="cls-7">
               <path class="cls-9"
                     d="M112.4106,196.3263a2.1879,2.1879,0,0,1,2.1261-2.0061c1.0413,0,1.871.53,2.1261,2.0061a2.1383,2.1383,0,0,0,2.1262,2.0043,2.298,2.298,0,0,0,2.1261-2.0043"/>
            </g>
         </g>
      </g>
      <g id="Artwork_13-3" data-name="Artwork 13">
         <g class="cls-10">
            <g class="cls-10">
               <path class="cls-5"
                     d="M40.9675,205.4461a2,2,0,1,1-2,2,2.0007,2.0007,0,0,1,2-2"/>
               <circle class="cls-3" cx="40.9675" cy="207.4461" r="2"/>
            </g>
         </g>
      </g>
      <g id="Artwork_8" data-name="Artwork 8">
         <g class="cls-11">
            <g class="cls-12">
               <line class="cls-13"
                     x1="40.5535"
                     y1="156.7077"
                     x2="40.5535"
                     y2="141.9543"/>
               <line class="cls-14"
                     x1="38.5354"
                     y1="153.5734"
                     x2="38.5354"
                     y2="145.0888"/>
            </g>
            <line class="cls-15"
                  x1="40.3197"
                  y1="149.3229"
                  x2="51.3006"
                  y2="149.3229"/>
            <g class="cls-12">
               <line class="cls-13"
                     x1="53.3186"
                     y1="156.6998"
                     x2="53.3186"
                     y2="141.9464"/>
            </g>
            <line class="cls-14"
                  x1="51.3005"
                  y1="153.5651"
                  x2="51.3005"
                  y2="145.0805"/>
         </g>
      </g>
      <g id="Rectifier-2" data-name="Rectifier">
         <g class="cls-16">
            <rect class="cls-8"
                  x="108.6584"
                  y="69.124"
                  width="34.0183"
                  height="34.0183"/>
            <g class="cls-16">
               <rect class="cls-9"
                     x="108.6584"
                     y="69.124"
                     width="34.0183"
                     height="34.0183"/>
               <line class="cls-9"
                     x1="142.674"
                     y1="69.1217"
                     x2="108.6566"
                     y2="103.1401"/>
            </g>
            <line class="cls-9"
                  x1="138.956"
                  y1="95.6981"
                  x2="129.3931"
                  y2="95.6981"/>
            <line class="cls-9"
                  x1="131.6446"
                  y1="97.8242"
                  x2="129.3937"
                  y2="97.8242"/>
            <line class="cls-9"
                  x1="135.3002"
                  y1="97.8242"
                  x2="133.0494"
                  y2="97.8242"/>
            <line class="cls-9"
                  x1="138.956"
                  y1="97.8242"
                  x2="136.7051"
                  y2="97.8242"/>
            <g class="cls-16">
               <path class="cls-9"
                     d="M112.4106,75.0226a2.1878,2.1878,0,0,1,2.1261-2.0061c1.0413,0,1.871.53,2.1261,2.0061a2.1382,2.1382,0,0,0,2.1262,2.0042,2.2979,2.2979,0,0,0,2.1261-2.0042"/>
            </g>
         </g>
      </g>
      <g id="Artwork_13-4" data-name="Artwork 13">
         <g class="cls-17">
            <g class="cls-17">
               <path class="cls-5"
                     d="M40.9675,84.1424a2,2,0,1,1-2,2,2.0007,2.0007,0,0,1,2-2"/>
               <circle class="cls-3" cx="40.9675" cy="86.1424" r="2"/>
            </g>
         </g>
      </g>
      <g id="Artwork_8-2" data-name="Artwork 8">
         <g class="cls-18">
            <g class="cls-19">
               <line class="cls-13"
                     x1="40.5535"
                     y1="35.404"
                     x2="40.5535"
                     y2="20.6506"/>
               <line class="cls-14"
                     x1="38.5354"
                     y1="32.2697"
                     x2="38.5354"
                     y2="23.7851"/>
            </g>
            <line class="cls-15"
                  x1="40.3197"
                  y1="28.0192"
                  x2="51.3006"
                  y2="28.0192"/>
            <g class="cls-19">
               <line class="cls-13"
                     x1="53.3186"
                     y1="35.3961"
                     x2="53.3186"
                     y2="20.6427"/>
            </g>
            <line class="cls-14"
                  x1="51.3005"
                  y1="32.2614"
                  x2="51.3005"
                  y2="23.7768"/>
         </g>
      </g>
      <g id="Artwork_20" data-name="Artwork 20">
         <g class="cls-20">
            <rect class="cls-8"
                  x="70.6518"
                  y="83.6314"
                  width="14.612"
                  height="5.032"/>
            <g class="cls-20">
               <line class="cls-3"
                     x1="70.6339"
                     y1="92.9096"
                     x2="85.2639"
                     y2="86.1436"/>
               <path d="M85.2638,87.1479h0a1,1,0,1,1,1-1,1.0029,1.0029,0,0,1-1,1"/>
               <path d="M70.6339,87.1479h0a1,1,0,1,1,1-1,1.0029,1.0029,0,0,1-1,1"/>
            </g>
         </g>
      </g>
      <g id="Artwork_20-2" data-name="Artwork 20">
         <g class="cls-21">
            <rect class="cls-8"
                  x="70.6518"
                  y="205.0069"
                  width="14.612"
                  height="5.032"/>
            <g class="cls-21">
               <line class="cls-3"
                     x1="70.6339"
                     y1="214.2851"
                     x2="85.2639"
                     y2="207.5191"/>
               <path d="M85.2638,208.5234h0a1,1,0,1,1,1-1,1.0029,1.0029,0,0,1-1,1"/>
               <path d="M70.6339,208.5234h0a1,1,0,1,1,1-1,1.0029,1.0029,0,0,1-1,1"/>
            </g>
         </g>
      </g>
      <g id="Artwork_20-3" data-name="Artwork 20">
         <g class="cls-22">
            <rect class="cls-8"
                  x="213.6938"
                  y="83.6314"
                  width="14.612"
                  height="5.032"/>
            <g class="cls-22">
               <line class="cls-3"
                     x1="213.6759"
                     y1="92.9096"
                     x2="228.3059"
                     y2="86.1436"/>
               <path d="M228.3058,87.1479h0a1,1,0,1,1,1-1,1.0029,1.0029,0,0,1-1,1"/>
               <path d="M213.6759,87.1479h0a1,1,0,1,1,1-1,1.0029,1.0029,0,0,1-1,1"/>
            </g>
         </g>
      </g>
      <g id="Artwork_20-4" data-name="Artwork 20">
         <g class="cls-23">
            <rect class="cls-8"
                  x="213.6938"
                  y="205.0069"
                  width="14.612"
                  height="5.032"/>
            <g class="cls-23">
               <line class="cls-3"
                     x1="213.6759"
                     y1="214.2851"
                     x2="228.3059"
                     y2="207.5191"/>
               <path d="M228.3058,208.5234h0a1,1,0,1,1,1-1,1.0029,1.0029,0,0,1-1,1"/>
               <path d="M213.6759,208.5234h0a1,1,0,1,1,1-1,1.0029,1.0029,0,0,1-1,1"/>
            </g>
         </g>
      </g>
      <g id="Artwork_20-5" data-name="Artwork 20">
         <g class="cls-24">
            <rect class="cls-8"
                  x="70.6518"
                  y="25.6561"
                  width="14.612"
                  height="5.032"/>
            <g class="cls-24">
               <line class="cls-3"
                     x1="70.6339"
                     y1="34.9343"
                     x2="85.2639"
                     y2="28.1683"/>
               <path d="M85.2638,29.1726h0a1,1,0,1,1,1-1,1.0029,1.0029,0,0,1-1,1"/>
               <path d="M70.6339,29.1726h0a1,1,0,1,1,1-1,1.0029,1.0029,0,0,1-1,1"/>
            </g>
         </g>
      </g>
      <g id="Artwork_20-6" data-name="Artwork 20">
         <g class="cls-25">
            <rect class="cls-8"
                  x="70.6518"
                  y="146.8222"
                  width="14.612"
                  height="5.032"/>
            <g class="cls-25">
               <line class="cls-3"
                     x1="70.6339"
                     y1="156.1004"
                     x2="85.2639"
                     y2="149.3344"/>
               <path d="M85.2638,150.3387h0a1,1,0,1,1,1-1,1.0029,1.0029,0,0,1-1,1"/>
               <path d="M70.6339,150.3387h0a1,1,0,1,1,1-1,1.0029,1.0029,0,0,1-1,1"/>
            </g>
         </g>
      </g>
      <g id="Artwork_30" data-name="Artwork 30">
         <g class="cls-26">
            <g class="cls-26">
               <line class="cls-3"
                     x1="196.5642"
                     y1="201.7868"
                     x2="196.5642"
                     y2="213.3398"/>
            </g>
            <polygon class="cls-8"
                     points="185.629 212.622 195.924 207.452 185.629 202.284 185.629 212.622"/>
            <path d="M186.0041,202.8925l9.083,4.56-9.083,4.561Zm-.75,10.337,11.506-5.777-11.506-5.776Z"/>
         </g>
      </g>
      <g id="Artwork_30-2" data-name="Artwork 30">
         <g class="cls-27">
            <g class="cls-27">
               <line class="cls-3"
                     x1="196.5642"
                     y1="80.4113"
                     x2="196.5642"
                     y2="91.9643"/>
            </g>
            <polygon class="cls-8"
                     points="185.629 91.246 195.924 86.076 185.629 80.908 185.629 91.246"/>
            <path d="M186.0041,81.517l9.083,4.56-9.083,4.561Zm-.75,10.337,11.506-5.777-11.506-5.776Z"/>
         </g>
      </g>
   </g>
   <g id="Text">
      <text class="cls-28" transform="translate(226.2667 195.3066)">OUTPUT 2</text>
      <text class="cls-28" transform="translate(226.2667 74.1377)">OUTPUT 1</text>
      <text class="cls-28" transform="translate(20.2835 137.3228)">BATTERY 2</text>
      <text class="cls-28" transform="translate(14.5787 185.4359)">RECTIFIER<tspan x="6.1084" y="12">MAINS 2</tspan>
      </text>
      <text class="cls-28" transform="translate(94.7051 185.4357)">RECTIFIER 2</text>
      <text class="cls-28" transform="translate(20.2835 16.0193)">BATTERY 1</text>
      <text class="cls-28" transform="translate(14.5787 64.1329)">RECTIFIER<tspan x="6.1084" y="12">MAINS 1</tspan>
      </text>
      <text class="cls-28" transform="translate(94.7051 64.1327)">RECTIFIER 1</text>
   </g>
</svg>
