<?xml version="1.0" encoding="UTF-8"?>
<svg xmlns="http://www.w3.org/2000/svg"
     xmlns:xlink="http://www.w3.org/1999/xlink"
     width="115mm"
     height="82mm"
     viewBox="0 0 325.9843 232.4409">
   <defs>
      <style>
      .cls-1, .cls-12, .cls-13, .cls-14, .cls-2, .cls-3, .cls-6 {
        fill: none;
      }

      .cls-12, .cls-13, .cls-14, .cls-2, .cls-3, .cls-6 {
        stroke: #000;
      }

      .cls-2 {
        stroke-miterlimit: 10;
      }

      .cls-2, .cls-3 {
        stroke-width: 0.75px;
      }

      .cls-12, .cls-13, .cls-14, .cls-3, .cls-6 {
        stroke-miterlimit: 3;
      }

      .cls-4 {
        clip-path: url(#clip-path);
      }

      .cls-5, .cls-8 {
        fill: #fff;
      }

      .cls-6 {
        stroke-width: 0.7087px;
      }

      .cls-7 {
        clip-path: url(#clip-path-4);
      }

      .cls-8 {
        fill-rule: evenodd;
      }

      .cls-9 {
        clip-path: url(#clip-path-6);
      }

      .cls-10 {
        clip-path: url(#clip-path-8);
      }

      .cls-11 {
        clip-path: url(#clip-path-9);
      }

      .cls-12, .cls-14 {
        stroke-width: 0.7513px;
      }

      .cls-13 {
        stroke-width: 1.2522px;
      }

      .cls-14 {
        stroke-dasharray: 2.0034 1.0017;
      }

      .cls-15 {
        clip-path: url(#clip-path-11);
      }

      .cls-16 {
        clip-path: url(#clip-path-14);
      }

      .cls-17 {
        clip-path: url(#clip-path-16);
      }

      .cls-18 {
        clip-path: url(#clip-path-17);
      }

      .cls-19 {
        clip-path: url(#clip-path-19);
      }

      .cls-20 {
        clip-path: url(#clip-path-20);
      }

      .cls-21 {
        clip-path: url(#clip-path-21);
      }

      .cls-22 {
        clip-path: url(#clip-path-23);
      }

      .cls-23 {
        clip-path: url(#clip-path-24);
      }

      .cls-24 {
        clip-path: url(#clip-path-25);
      }

      .cls-25 {
        clip-path: url(#clip-path-27);
      }

      .cls-26 {
        clip-path: url(#clip-path-29);
      }

      .cls-27 {
        font-size: 10px;
        fill: #01889C;
        font-family: Arial-BoldMT, Arial;
        font-weight: 700;
      }

      .cls-28 {
        clip-path: url(#clip-path-31);
      }

      .cls-29 {
        clip-path: url(#clip-path-32);
      }

      .cls-30 {
        clip-path: url(#clip-path-33);
      }
    </style>
      <clipPath id="clip-path">
         <rect class="cls-1"
               x="107.9488"
               y="187.5881"
               width="35.4357"
               height="39.688"/>
      </clipPath>
      <clipPath id="clip-path-4">
         <rect class="cls-1"
               x="287.9283"
               y="143.4786"
               width="6.125"
               height="6.125"/>
      </clipPath>
      <clipPath id="clip-path-6">
         <rect class="cls-1"
               x="37.9051"
               y="204.3794"
               width="6.125"
               height="6.125"/>
      </clipPath>
      <clipPath id="clip-path-8">
         <rect class="cls-1"
               x="37.9171"
               y="141.9425"
               width="15.6504"
               height="14.7535"/>
      </clipPath>
      <clipPath id="clip-path-9">
         <rect class="cls-1"
               x="37.9171"
               y="141.9426"
               width="15.6509"
               height="14.7534"/>
      </clipPath>
      <clipPath id="clip-path-11">
         <rect class="cls-1"
               x="107.9488"
               y="66.2844"
               width="35.4357"
               height="39.688"/>
      </clipPath>
      <clipPath id="clip-path-14">
         <rect class="cls-1"
               x="37.9051"
               y="83.0757"
               width="6.125"
               height="6.125"/>
      </clipPath>
      <clipPath id="clip-path-16">
         <rect class="cls-1"
               x="37.9171"
               y="20.6388"
               width="15.6504"
               height="14.7535"/>
      </clipPath>
      <clipPath id="clip-path-17">
         <rect class="cls-1"
               x="37.9171"
               y="20.6389"
               width="15.6509"
               height="14.7534"/>
      </clipPath>
      <clipPath id="clip-path-19">
         <rect class="cls-1"
               x="69.6338"
               y="77.9943"
               width="16.63"
               height="16.2683"/>
      </clipPath>
      <clipPath id="clip-path-20">
         <rect class="cls-1"
               x="69.6338"
               y="77.9946"
               width="16.63"
               height="16.268"/>
      </clipPath>
      <clipPath id="clip-path-21">
         <rect class="cls-1"
               x="69.6338"
               y="199.3698"
               width="16.63"
               height="16.2683"/>
      </clipPath>
      <clipPath id="clip-path-23">
         <rect class="cls-1"
               x="212.6758"
               y="77.9943"
               width="16.63"
               height="16.2683"/>
      </clipPath>
      <clipPath id="clip-path-24">
         <rect class="cls-1"
               x="212.6758"
               y="77.9946"
               width="16.63"
               height="16.268"/>
      </clipPath>
      <clipPath id="clip-path-25">
         <rect class="cls-1"
               x="212.6758"
               y="199.3698"
               width="16.63"
               height="16.2683"/>
      </clipPath>
      <clipPath id="clip-path-27">
         <rect class="cls-1"
               x="69.6338"
               y="20.019"
               width="16.63"
               height="16.2683"/>
      </clipPath>
      <clipPath id="clip-path-29">
         <rect class="cls-1"
               x="69.6338"
               y="141.1851"
               width="16.63"
               height="16.2683"/>
      </clipPath>
      <clipPath id="clip-path-31">
         <rect class="cls-1"
               x="184.7618"
               y="201.4285"
               width="12.4579"
               height="12.1509"/>
      </clipPath>
      <clipPath id="clip-path-32">
         <rect class="cls-1"
               x="184.7618"
               y="201.4284"
               width="12.458"
               height="12.151"/>
      </clipPath>
      <clipPath id="clip-path-33">
         <rect class="cls-1"
               x="184.7618"
               y="80.053"
               width="12.4579"
               height="12.1509"/>
      </clipPath>
   </defs>
   <g id="Paths">
      <polyline class="cls-2" points="170.991 207.5 170.991 149.381 53.567 149.381"/>
      <polyline class="cls-3" points="40.968 207.5 250.991 207.5 250.991 146.411"/>
      <polyline class="cls-2" points="170.991 86.196 170.991 28.078 53.567 28.078"/>
      <polyline class="cls-3"
                points="40.968 86.196 250.991 86.196 250.991 146.411 290.991 146.411"/>
   </g>
   <g id="Parts">
      <g id="Rectifier">
         <g class="cls-4">
            <rect class="cls-5"
                  x="108.6584"
                  y="190.424"
                  width="34.0183"
                  height="34.0183"/>
            <g class="cls-4">
               <rect class="cls-6"
                     x="108.6584"
                     y="190.424"
                     width="34.0183"
                     height="34.0183"/>
               <line class="cls-6"
                     x1="142.674"
                     y1="190.4217"
                     x2="108.6566"
                     y2="224.44"/>
            </g>
            <line class="cls-6"
                  x1="138.956"
                  y1="216.998"
                  x2="129.3931"
                  y2="216.998"/>
            <line class="cls-6"
                  x1="131.6446"
                  y1="219.1242"
                  x2="129.3937"
                  y2="219.1242"/>
            <line class="cls-6"
                  x1="135.3002"
                  y1="219.1242"
                  x2="133.0494"
                  y2="219.1242"/>
            <line class="cls-6"
                  x1="138.956"
                  y1="219.1242"
                  x2="136.7051"
                  y2="219.1242"/>
            <g class="cls-4">
               <path class="cls-6"
                     d="M112.4106,196.3225a2.1879,2.1879,0,0,1,2.1261-2.0061c1.0413,0,1.871.53,2.1261,2.0061a2.1382,2.1382,0,0,0,2.1262,2.0043,2.298,2.298,0,0,0,2.1261-2.0043"/>
            </g>
         </g>
      </g>
      <g id="Artwork_13" data-name="Artwork 13">
         <g class="cls-7">
            <g class="cls-7">
               <path class="cls-8"
                     d="M290.9907,144.5415a2,2,0,1,1-2,2,2.0007,2.0007,0,0,1,2-2"/>
               <circle class="cls-3" cx="290.9907" cy="146.5415" r="2"/>
            </g>
         </g>
      </g>
      <g id="Artwork_13-2" data-name="Artwork 13">
         <g class="cls-9">
            <g class="cls-9">
               <path class="cls-8"
                     d="M40.9675,205.4423a2,2,0,1,1-2,2,2.0007,2.0007,0,0,1,2-2"/>
               <circle class="cls-3" cx="40.9675" cy="207.4423" r="2"/>
            </g>
         </g>
      </g>
      <g id="Artwork_8" data-name="Artwork 8">
         <g class="cls-10">
            <g class="cls-11">
               <line class="cls-12"
                     x1="40.5535"
                     y1="156.7039"
                     x2="40.5535"
                     y2="141.9505"/>
               <line class="cls-13"
                     x1="38.5354"
                     y1="153.5696"
                     x2="38.5354"
                     y2="145.085"/>
            </g>
            <line class="cls-14"
                  x1="40.3197"
                  y1="149.3191"
                  x2="51.3006"
                  y2="149.3191"/>
            <g class="cls-11">
               <line class="cls-12"
                     x1="53.3186"
                     y1="156.696"
                     x2="53.3186"
                     y2="141.9426"/>
            </g>
            <line class="cls-13"
                  x1="51.3005"
                  y1="153.5613"
                  x2="51.3005"
                  y2="145.0767"/>
         </g>
      </g>
      <g id="Rectifier-2" data-name="Rectifier">
         <g class="cls-15">
            <rect class="cls-5"
                  x="108.6584"
                  y="69.1202"
                  width="34.0183"
                  height="34.0183"/>
            <g class="cls-15">
               <rect class="cls-6"
                     x="108.6584"
                     y="69.1202"
                     width="34.0183"
                     height="34.0183"/>
               <line class="cls-6"
                     x1="142.674"
                     y1="69.118"
                     x2="108.6566"
                     y2="103.1363"/>
            </g>
            <line class="cls-6"
                  x1="138.956"
                  y1="95.6943"
                  x2="129.3931"
                  y2="95.6943"/>
            <line class="cls-6"
                  x1="131.6446"
                  y1="97.8204"
                  x2="129.3937"
                  y2="97.8204"/>
            <line class="cls-6"
                  x1="135.3002"
                  y1="97.8204"
                  x2="133.0494"
                  y2="97.8204"/>
            <line class="cls-6"
                  x1="138.956"
                  y1="97.8204"
                  x2="136.7051"
                  y2="97.8204"/>
            <g class="cls-15">
               <path class="cls-6"
                     d="M112.4106,75.0188a2.1878,2.1878,0,0,1,2.1261-2.0061c1.0413,0,1.871.53,2.1261,2.0061a2.1383,2.1383,0,0,0,2.1262,2.0043,2.298,2.298,0,0,0,2.1261-2.0043"/>
            </g>
         </g>
      </g>
      <g id="Artwork_13-3" data-name="Artwork 13">
         <g class="cls-16">
            <g class="cls-16">
               <path class="cls-8"
                     d="M40.9675,84.1386a2,2,0,1,1-2,2,2.0007,2.0007,0,0,1,2-2"/>
               <circle class="cls-3" cx="40.9675" cy="86.1386" r="2"/>
            </g>
         </g>
      </g>
      <g id="Artwork_8-2" data-name="Artwork 8">
         <g class="cls-17">
            <g class="cls-18">
               <line class="cls-12"
                     x1="40.5535"
                     y1="35.4002"
                     x2="40.5535"
                     y2="20.6468"/>
               <line class="cls-13"
                     x1="38.5354"
                     y1="32.2659"
                     x2="38.5354"
                     y2="23.7813"/>
            </g>
            <line class="cls-14"
                  x1="40.3197"
                  y1="28.0154"
                  x2="51.3006"
                  y2="28.0154"/>
            <g class="cls-18">
               <line class="cls-12"
                     x1="53.3186"
                     y1="35.3923"
                     x2="53.3186"
                     y2="20.6389"/>
            </g>
            <line class="cls-13"
                  x1="51.3005"
                  y1="32.2576"
                  x2="51.3005"
                  y2="23.773"/>
         </g>
      </g>
      <g id="Artwork_20" data-name="Artwork 20">
         <g class="cls-19">
            <rect class="cls-5"
                  x="70.6518"
                  y="83.6276"
                  width="14.612"
                  height="5.032"/>
            <g class="cls-20">
               <line class="cls-3"
                     x1="70.6339"
                     y1="92.9058"
                     x2="85.2639"
                     y2="86.1398"/>
               <path d="M85.2638,87.1441h0a1,1,0,1,1,1-1,1.0029,1.0029,0,0,1-1,1"/>
               <path d="M70.6339,87.1441h0a1,1,0,1,1,1-1,1.0029,1.0029,0,0,1-1,1"/>
            </g>
         </g>
      </g>
      <g id="Artwork_20-2" data-name="Artwork 20">
         <g class="cls-21">
            <rect class="cls-5"
                  x="70.6518"
                  y="205.0031"
                  width="14.612"
                  height="5.032"/>
            <g class="cls-21">
               <line class="cls-3"
                     x1="70.6339"
                     y1="214.2813"
                     x2="85.2639"
                     y2="207.5153"/>
               <path d="M85.2638,208.52h0a1,1,0,1,1,1-1,1.0029,1.0029,0,0,1-1,1"/>
               <path d="M70.6339,208.52h0a1,1,0,1,1,1-1,1.0029,1.0029,0,0,1-1,1"/>
            </g>
         </g>
      </g>
      <g id="Artwork_20-3" data-name="Artwork 20">
         <g class="cls-22">
            <rect class="cls-5"
                  x="213.6938"
                  y="83.6276"
                  width="14.612"
                  height="5.032"/>
            <g class="cls-23">
               <line class="cls-3"
                     x1="213.6759"
                     y1="92.9058"
                     x2="228.3059"
                     y2="86.1398"/>
               <path d="M228.3058,87.1441h0a1,1,0,1,1,1-1,1.0029,1.0029,0,0,1-1,1"/>
               <path d="M213.6759,87.1441h0a1,1,0,1,1,1-1,1.0029,1.0029,0,0,1-1,1"/>
            </g>
         </g>
      </g>
      <g id="Artwork_20-4" data-name="Artwork 20">
         <g class="cls-24">
            <rect class="cls-5"
                  x="213.6938"
                  y="205.0031"
                  width="14.612"
                  height="5.032"/>
            <g class="cls-24">
               <line class="cls-3"
                     x1="213.6759"
                     y1="214.2813"
                     x2="228.3059"
                     y2="207.5153"/>
               <path d="M228.3058,208.52h0a1,1,0,1,1,1-1,1.0029,1.0029,0,0,1-1,1"/>
               <path d="M213.6759,208.52h0a1,1,0,1,1,1-1,1.0029,1.0029,0,0,1-1,1"/>
            </g>
         </g>
      </g>
      <g id="Artwork_20-5" data-name="Artwork 20">
         <g class="cls-25">
            <rect class="cls-5"
                  x="70.6518"
                  y="25.6523"
                  width="14.612"
                  height="5.032"/>
            <g class="cls-25">
               <line class="cls-3"
                     x1="70.6339"
                     y1="34.9305"
                     x2="85.2639"
                     y2="28.1645"/>
               <path d="M85.2638,29.1688h0a1,1,0,1,1,1-1,1.0029,1.0029,0,0,1-1,1"/>
               <path d="M70.6339,29.1688h0a1,1,0,1,1,1-1,1.0029,1.0029,0,0,1-1,1"/>
            </g>
         </g>
      </g>
      <g id="Artwork_20-6" data-name="Artwork 20">
         <g class="cls-26">
            <rect class="cls-5"
                  x="70.6518"
                  y="146.8184"
                  width="14.612"
                  height="5.032"/>
            <g class="cls-26">
               <line class="cls-3"
                     x1="70.6339"
                     y1="156.0966"
                     x2="85.2639"
                     y2="149.3306"/>
               <path d="M85.2638,150.3349h0a1,1,0,1,1,1-1,1.0029,1.0029,0,0,1-1,1"/>
               <path d="M70.6339,150.3349h0a1,1,0,1,1,1-1,1.0029,1.0029,0,0,1-1,1"/>
            </g>
         </g>
      </g>
   </g>
   <g id="Text">
      <text class="cls-27" transform="translate(20.2835 137.319)">BATTERY 2</text>
      <text class="cls-27" transform="translate(14.5787 185.4322)">RECTIFIER<tspan x="6.1084" y="12">MAINS 2</tspan>
      </text>
      <text class="cls-27" transform="translate(94.7051 185.4319)">RECTIFIER 2</text>
      <text class="cls-27" transform="translate(270.4365 134.5407)">OUTPUT</text>
      <text class="cls-27" transform="translate(20.2835 16.0155)">BATTERY 1</text>
      <text class="cls-27" transform="translate(14.5787 64.1291)">RECTIFIER<tspan x="6.1084" y="12">MAINS 1</tspan>
      </text>
      <text class="cls-27" transform="translate(94.7051 64.1289)">RECTIFIER 1</text>
      <g id="Artwork_30" data-name="Artwork 30">
         <g class="cls-28">
            <g class="cls-29">
               <line class="cls-3"
                     x1="196.5642"
                     y1="201.783"
                     x2="196.5642"
                     y2="213.336"/>
            </g>
            <polygon class="cls-5"
                     points="185.629 212.618 195.924 207.448 185.629 202.28 185.629 212.618"/>
            <path d="M186.0041,202.8887l9.083,4.56-9.083,4.561Zm-.75,10.337,11.506-5.777-11.506-5.776Z"/>
         </g>
      </g>
      <g id="Artwork_30-2" data-name="Artwork 30">
         <g class="cls-30">
            <g class="cls-30">
               <line class="cls-3"
                     x1="196.5642"
                     y1="80.4075"
                     x2="196.5642"
                     y2="91.9605"/>
            </g>
            <polygon class="cls-5"
                     points="185.629 91.243 195.924 86.073 185.629 80.905 185.629 91.243"/>
            <path d="M186.0041,81.5132l9.083,4.56-9.083,4.561Zm-.75,10.337,11.506-5.777-11.506-5.776Z"/>
         </g>
      </g>
   </g>
</svg>
