<?xml version="1.0" encoding="UTF-8"?>
<svg xmlns="http://www.w3.org/2000/svg"
     xmlns:xlink="http://www.w3.org/1999/xlink"
     width="85mm"
     height="40mm"
     viewBox="0 0 240.9449 113.3858">
   <defs>
      <style>
      .cls-1, .cls-12, .cls-13, .cls-14, .cls-2, .cls-3, .cls-6 {
        fill: none;
      }

      .cls-12, .cls-13, .cls-14, .cls-2, .cls-3, .cls-6 {
        stroke: #000;
      }

      .cls-12, .cls-13, .cls-14, .cls-2, .cls-6 {
        stroke-miterlimit: 3;
      }

      .cls-2, .cls-3 {
        stroke-width: 0.75px;
      }

      .cls-3 {
        stroke-miterlimit: 10;
      }

      .cls-4 {
        clip-path: url(#clip-path);
      }

      .cls-5, .cls-8 {
        fill: #fff;
      }

      .cls-6 {
        stroke-width: 0.7087px;
      }

      .cls-7 {
        clip-path: url(#clip-path-4);
      }

      .cls-8 {
        fill-rule: evenodd;
      }

      .cls-9 {
        clip-path: url(#clip-path-6);
      }

      .cls-10 {
        clip-path: url(#clip-path-8);
      }

      .cls-11 {
        clip-path: url(#clip-path-9);
      }

      .cls-12, .cls-14 {
        stroke-width: 0.7513px;
      }

      .cls-13 {
        stroke-width: 1.2522px;
      }

      .cls-14 {
        stroke-dasharray: 2.0034 1.0017;
      }

      .cls-15 {
        clip-path: url(#clip-path-11);
      }

      .cls-16 {
        clip-path: url(#clip-path-12);
      }

      .cls-17 {
        clip-path: url(#clip-path-13);
      }

      .cls-18 {
        clip-path: url(#clip-path-14);
      }

      .cls-19 {
        font-size: 10px;
        fill: #01889C;
        font-family: Arial-BoldMT, Arial;
        font-weight: 700;
      }
    </style>
      <clipPath id="clip-path">
         <rect class="cls-1"
               x="107.9488"
               y="69.3467"
               width="35.4357"
               height="39.688"/>
      </clipPath>
      <clipPath id="clip-path-4">
         <rect class="cls-1"
               x="200.9283"
               y="86.138"
               width="6.125"
               height="6.125"/>
      </clipPath>
      <clipPath id="clip-path-6">
         <rect class="cls-1"
               x="37.9051"
               y="86.138"
               width="6.125"
               height="6.125"/>
      </clipPath>
      <clipPath id="clip-path-8">
         <rect class="cls-1"
               x="37.9171"
               y="23.7011"
               width="15.6504"
               height="14.7535"/>
      </clipPath>
      <clipPath id="clip-path-9">
         <rect class="cls-1"
               x="37.9171"
               y="23.7012"
               width="15.6509"
               height="14.7534"/>
      </clipPath>
      <clipPath id="clip-path-11">
         <rect class="cls-1"
               x="70.591"
               y="22.9442"
               width="16.63"
               height="16.2683"/>
      </clipPath>
      <clipPath id="clip-path-12">
         <rect class="cls-1"
               x="70.591"
               y="22.9445"
               width="16.63"
               height="16.268"/>
      </clipPath>
      <clipPath id="clip-path-13">
         <rect class="cls-1"
               x="70.591"
               y="81.0663"
               width="16.63"
               height="16.2683"/>
      </clipPath>
      <clipPath id="clip-path-14">
         <rect class="cls-1"
               x="70.591"
               y="81.0666"
               width="16.63"
               height="16.268"/>
      </clipPath>
   </defs>
   <g id="Paths">
      <path class="cls-2" d="M203.9721,89.2625H86.21"/>
      <path class="cls-2" d="M71.3225,89.2625H41.8688"/>
      <polyline class="cls-3" points="161.991 89.259 161.991 31.14 86.21 31.14"/>
      <line class="cls-3"
            x1="70.6981"
            y1="31.1404"
            x2="53.5675"
            y2="31.1404"/>
   </g>
   <g id="Parts">
      <g id="Rectifier">
         <g class="cls-4">
            <rect class="cls-5"
                  x="108.6584"
                  y="72.1825"
                  width="34.0183"
                  height="34.0183"/>
            <g class="cls-4">
               <rect class="cls-6"
                     x="108.6584"
                     y="72.1825"
                     width="34.0183"
                     height="34.0183"/>
               <line class="cls-6"
                     x1="142.674"
                     y1="72.1802"
                     x2="108.6566"
                     y2="106.1985"/>
            </g>
            <line class="cls-6"
                  x1="138.956"
                  y1="98.7566"
                  x2="129.3931"
                  y2="98.7566"/>
            <line class="cls-6"
                  x1="131.6446"
                  y1="100.8827"
                  x2="129.3937"
                  y2="100.8827"/>
            <line class="cls-6"
                  x1="135.3002"
                  y1="100.8827"
                  x2="133.0494"
                  y2="100.8827"/>
            <line class="cls-6"
                  x1="138.956"
                  y1="100.8827"
                  x2="136.7051"
                  y2="100.8827"/>
            <g class="cls-4">
               <path class="cls-6"
                     d="M112.4106,78.0811a2.1879,2.1879,0,0,1,2.1261-2.0062c1.0413,0,1.871.53,2.1261,2.0062a2.1382,2.1382,0,0,0,2.1262,2.0042,2.2979,2.2979,0,0,0,2.1261-2.0042"/>
            </g>
         </g>
      </g>
      <g id="Artwork_13" data-name="Artwork 13">
         <g class="cls-7">
            <g class="cls-7">
               <path class="cls-8"
                     d="M203.9907,87.2009a2,2,0,1,1-2,2,2.0007,2.0007,0,0,1,2-2"/>
               <circle class="cls-2" cx="203.9907" cy="89.2009" r="2"/>
            </g>
         </g>
      </g>
      <g id="Artwork_13-2" data-name="Artwork 13">
         <g class="cls-9">
            <g class="cls-9">
               <path class="cls-8"
                     d="M40.9675,87.2009a2,2,0,1,1-2,2,2.0007,2.0007,0,0,1,2-2"/>
               <circle class="cls-2" cx="40.9675" cy="89.2009" r="2"/>
            </g>
         </g>
      </g>
      <g id="Artwork_8" data-name="Artwork 8">
         <g class="cls-10">
            <g class="cls-11">
               <line class="cls-12"
                     x1="40.5535"
                     y1="38.4625"
                     x2="40.5535"
                     y2="23.7091"/>
               <line class="cls-13"
                     x1="38.5354"
                     y1="35.3282"
                     x2="38.5354"
                     y2="26.8436"/>
            </g>
            <line class="cls-14"
                  x1="40.3197"
                  y1="31.0777"
                  x2="51.3006"
                  y2="31.0777"/>
            <g class="cls-11">
               <line class="cls-12"
                     x1="53.3186"
                     y1="38.4546"
                     x2="53.3186"
                     y2="23.7012"/>
            </g>
            <line class="cls-13"
                  x1="51.3005"
                  y1="35.3199"
                  x2="51.3005"
                  y2="26.8353"/>
         </g>
      </g>
      <g id="Artwork_20_no_white" data-name="Artwork 20 no white">
         <g class="cls-15">
            <g class="cls-16">
               <line class="cls-2"
                     x1="71.5911"
                     y1="37.8557"
                     x2="86.2211"
                     y2="31.0897"/>
               <path d="M86.221,32.094h0a1,1,0,1,1,1-1,1.0029,1.0029,0,0,1-1,1"/>
               <path d="M71.5911,32.094h0a1,1,0,1,1,1-1,1.0029,1.0029,0,0,1-1,1"/>
            </g>
         </g>
      </g>
      <g id="Artwork_20_no_white-2" data-name="Artwork 20 no white">
         <g class="cls-17">
            <g class="cls-18">
               <line class="cls-2"
                     x1="71.5911"
                     y1="95.9778"
                     x2="86.2211"
                     y2="89.2118"/>
               <path d="M86.221,90.2161h0a1,1,0,1,1,1-1,1.0029,1.0029,0,0,1-1,1"/>
               <path d="M71.5911,90.2161h0a1,1,0,1,1,1-1,1.0029,1.0029,0,0,1-1,1"/>
            </g>
         </g>
      </g>
   </g>
   <g id="Text">
      <text class="cls-19" transform="translate(24.4533 19.0777)">BATTERY</text>
      <text class="cls-19" transform="translate(14.5786 67.1912)">RECTIFIER<tspan x="10.2783" y="12">MAINS</tspan>
      </text>
      <text class="cls-19" transform="translate(98.8751 67.191)">RECTIFIER</text>
      <text class="cls-19" transform="translate(183.4371 77.2)">OUTPUT</text>
   </g>
</svg>
