<?xml version="1.0" encoding="UTF-8"?>
<svg xmlns="http://www.w3.org/2000/svg"
     xmlns:xlink="http://www.w3.org/1999/xlink"
     width="125mm"
     height="60mm"
     viewBox="0 0 354.3307 170.0787">
   <defs>
      <style>
      .cls-1, .cls-11, .cls-24, .cls-28, .cls-29, .cls-3, .cls-31, .cls-6, .cls-8 {
        fill: none;
      }

      .cls-2 {
        fill: #c6c6c6;
      }

      .cls-3 {
        stroke: #c6c6c6;
        stroke-width: 5px;
      }

      .cls-11, .cls-24, .cls-28, .cls-29, .cls-3, .cls-31, .cls-6 {
        stroke-miterlimit: 3;
      }

      .cls-4 {
        clip-path: url(#clip-path);
      }

      .cls-5 {
        clip-path: url(#clip-path-2);
      }

      .cls-11, .cls-24, .cls-29, .cls-6, .cls-8 {
        stroke: #000;
      }

      .cls-6, .cls-8 {
        stroke-width: 0.75px;
      }

      .cls-7 {
        clip-path: url(#clip-path-3);
      }

      .cls-8 {
        stroke-miterlimit: 10;
      }

      .cls-9 {
        clip-path: url(#clip-path-5);
      }

      .cls-10, .cls-13 {
        fill: #fff;
      }

      .cls-11 {
        stroke-width: 0.7087px;
      }

      .cls-12 {
        clip-path: url(#clip-path-8);
      }

      .cls-13, .cls-19 {
        fill-rule: evenodd;
      }

      .cls-14 {
        clip-path: url(#clip-path-10);
      }

      .cls-15 {
        font-size: 10px;
      }

      .cls-15, .cls-16, .cls-22, .cls-33 {
        fill: #01889C;
      }

      .cls-15, .cls-22, .cls-33 {
        font-family: Arial-BoldMT, Arial;
        font-weight: 700;
      }

      .cls-17 {
        clip-path: url(#clip-path-12);
      }

      .cls-18 {
        clip-path: url(#clip-path-14);
      }

      .cls-20 {
        isolation: isolate;
      }

      .cls-21 {
        clip-path: url(#clip-path-17);
      }

      .cls-22 {
        font-size: 8px;
      }

      .cls-23 {
        clip-path: url(#clip-path-18);
      }

      .cls-24, .cls-28, .cls-31 {
        stroke-width: 0.5px;
      }

      .cls-25 {
        clip-path: url(#clip-path-20);
      }

      .cls-26 {
        clip-path: url(#clip-path-22);
      }

      .cls-27 {
        clip-path: url(#clip-path-25);
      }

      .cls-28, .cls-31 {
        stroke: #626469;
      }

      .cls-28 {
        stroke-dasharray: 2 1;
      }

      .cls-29 {
        stroke-width: 2px;
      }

      .cls-30 {
        fill: #626469;
      }

      .cls-32 {
        clip-path: url(#clip-path-27);
      }

      .cls-33 {
        font-size: 6px;
      }

      .cls-34 {
        clip-path: url(#clip-path-28);
      }

      .cls-35 {
        clip-path: url(#clip-path-29);
      }
    </style>
      <clipPath id="clip-path">
         <rect class="cls-1"
               x="69.2386"
               y="22.7194"
               width="16.63"
               height="16.2683"/>
      </clipPath>
      <clipPath id="clip-path-2">
         <rect class="cls-1"
               x="69.2386"
               y="22.7197"
               width="16.63"
               height="16.268"/>
      </clipPath>
      <clipPath id="clip-path-3">
         <rect class="cls-1"
               x="69.2386"
               y="140.5139"
               width="16.63"
               height="16.2683"/>
      </clipPath>
      <clipPath id="clip-path-5">
         <rect class="cls-1"
               x="109.4527"
               y="128.8102"
               width="35.4339"
               height="39.686"/>
      </clipPath>
      <clipPath id="clip-path-8">
         <rect class="cls-1"
               x="40.4685"
               y="145.6004"
               width="6.125"
               height="6.125"/>
      </clipPath>
      <clipPath id="clip-path-10">
         <rect class="cls-1"
               x="40.4685"
               y="27.791"
               width="6.125"
               height="6.125"/>
      </clipPath>
      <clipPath id="clip-path-12">
         <rect class="cls-1"
               x="318.5139"
               y="137.2293"
               width="6.125"
               height="6.125"/>
      </clipPath>
      <clipPath id="clip-path-14">
         <rect class="cls-1"
               x="176.1409"
               y="88.6613"
               width="46.833"
               height="32"/>
      </clipPath>
      <clipPath id="clip-path-17">
         <rect class="cls-1"
               x="207.8508"
               y="112.5095"
               width="11.1133"
               height="9.875"/>
      </clipPath>
      <clipPath id="clip-path-18">
         <rect class="cls-1"
               x="230.2914"
               y="146.3622"
               width="4.5709"
               height="4.5819"/>
      </clipPath>
      <clipPath id="clip-path-20">
         <rect class="cls-1"
               x="176.1409"
               y="132.6532"
               width="46.833"
               height="32"/>
      </clipPath>
      <clipPath id="clip-path-22">
         <rect class="cls-1"
               x="207.8508"
               y="156.5013"
               width="11.1133"
               height="9.875"/>
      </clipPath>
      <clipPath id="clip-path-25">
         <rect class="cls-1"
               x="229.8718"
               y="39.8992"
               width="76.0871"
               height="111.3019"/>
      </clipPath>
      <clipPath id="clip-path-27">
         <rect class="cls-1"
               x="243.0417"
               y="40.3042"
               width="24.6738"
               height="7.406"/>
      </clipPath>
      <clipPath id="clip-path-28">
         <rect class="cls-1"
               x="252.3814"
               y="46.3042"
               width="15.334"
               height="7.4061"/>
      </clipPath>
      <clipPath id="clip-path-29">
         <rect class="cls-1"
               x="250.7173"
               y="52.3035"
               width="16.9981"
               height="7.4063"/>
      </clipPath>
   </defs>
   <g id="Paths">
      <g>
         <polygon class="cls-2"
                  points="67.534 145.934 70.901 145.934 67.279 150.47 63.912 150.47 67.534 145.934"/>
         <polygon class="cls-2"
                  points="60.136 145.934 63.503 145.934 59.881 150.47 56.514 150.47 60.136 145.934"/>
         <polygon class="cls-2"
                  points="52.738 145.934 56.106 145.934 52.484 150.47 49.116 150.47 52.738 145.934"/>
         <polygon class="cls-2"
                  points="45.34 145.934 48.708 145.934 45.086 150.47 41.718 150.47 45.34 145.934"/>
      </g>
      <g>
         <polygon class="cls-2"
                  points="250.494 110.228 253.861 110.21 250.264 114.766 246.896 114.784 250.494 110.228"/>
         <polygon class="cls-2"
                  points="246.395 107.163 246.405 110.531 241.858 106.923 241.847 103.555 246.395 107.163"/>
      </g>
      <g>
         <polygon class="cls-2"
                  points="286.924 138.1 290.292 138.1 286.67 142.636 283.302 142.636 286.924 138.1"/>
         <path class="cls-2"
               d="M280.0469,136.9759l1.9848,1.1237a1.5852,1.5852,0,0,1-.1614.6128c-.2221.6257-1.2195.8126-1.95,1.15l-2.3295.9356L274.66,139.14Z"/>
         <polygon class="cls-2"
                  points="272.765 132.854 275.695 134.513 270.308 136.676 267.378 135.017 272.765 132.854"/>
      </g>
      <g>
         <polygon class="cls-2"
                  points="286.946 70.179 290.314 70.179 286.692 74.716 283.324 74.716 286.946 70.179"/>
         <path class="cls-2"
               d="M280.003,68.9469l2.1806,1.2323a1.5672,1.5672,0,0,1-.0877.3335,1.1472,1.1472,0,0,1-.8043.7524l-1.2473.5021-2.4947,1.004-2.9318-1.6569Z"/>
         <polygon class="cls-2"
                  points="272.637 64.784 275.569 66.441 270.184 68.608 267.252 66.952 272.637 64.784"/>
      </g>
      <g>
         <polyline class="cls-3"
                   points="291.67 71.842 291.92 92.475 244.087 92.697 244.117 104.421 267.462 104.364 281.406 112.447 291.67 112.42 291.67 112.59 291.67 140.368 327.865 140.368"/>
         <polygon class="cls-2"
                  points="326.406 145.354 335.041 140.368 326.406 135.381 326.406 145.354"/>
      </g>
      <path class="cls-3" d="M41.31,30.4022H291.67v41.44"/>
   </g>
   <g id="Diagram">
      <g id="Artwork_20_no_white" data-name="Artwork 20 no white">
         <g class="cls-4">
            <g class="cls-5">
               <line class="cls-6"
                     x1="70.2387"
                     y1="37.6309"
                     x2="84.8687"
                     y2="30.8649"/>
               <path d="M84.8686,31.8692h0a1,1,0,1,1,1-1,1.0029,1.0029,0,0,1-1,1"/>
               <path d="M70.2387,31.8692h0a1,1,0,1,1,1-1,1.0029,1.0029,0,0,1-1,1"/>
            </g>
         </g>
      </g>
      <g id="Artwork_20_no_white-2" data-name="Artwork 20 no white">
         <g class="cls-7">
            <g class="cls-7">
               <line class="cls-6"
                     x1="70.2387"
                     y1="155.4254"
                     x2="84.8687"
                     y2="148.6594"/>
               <path d="M84.8686,149.6637h0a1,1,0,1,1,1-1,1.0029,1.0029,0,0,1-1,1"/>
               <path d="M70.2387,149.6637h0a1,1,0,1,1,1-1,1.0029,1.0029,0,0,1-1,1"/>
            </g>
         </g>
      </g>
      <polyline class="cls-8" points="84.712 30.854 291.67 31.091 291.67 72.294"/>
      <path class="cls-6" d="M255.0657,148.6629H84.7123"/>
      <polyline class="cls-8"
                points="232.578 148.663 232.578 104.661 150.383 104.661 150.383 57.685 244.087 57.685 244.087 72.294"/>
      <line class="cls-6"
            x1="292.4315"
            y1="140.3678"
            x2="321.5764"
            y2="140.3678"/>
      <path class="cls-6" d="M70.0457,148.6629H43.5309"/>
      <line class="cls-8"
            x1="43.5313"
            y1="30.8535"
            x2="70.0457"
            y2="30.8535"/>
      <g id="Inverter">
         <g class="cls-9">
            <rect class="cls-10"
                  x="110.1604"
                  y="131.6439"
                  width="34.0175"
                  height="34.0166"/>
            <g class="cls-9">
               <rect class="cls-11"
                     x="110.1604"
                     y="131.6439"
                     width="34.0166"
                     height="34.0166"/>
               <line class="cls-11"
                     x1="110.1633"
                     y1="165.6627"
                     x2="144.1789"
                     y2="131.6471"/>
            </g>
            <line class="cls-11"
                  x1="113.3495"
                  y1="138.0252"
                  x2="122.9129"
                  y2="138.0252"/>
            <line class="cls-11"
                  x1="115.6012"
                  y1="140.1512"
                  x2="113.3494"
                  y2="140.1512"/>
            <line class="cls-11"
                  x1="119.2566"
                  y1="140.1512"
                  x2="117.0058"
                  y2="140.1512"/>
            <line class="cls-11"
                  x1="122.9126"
                  y1="140.1512"
                  x2="120.6609"
                  y2="140.1512"/>
            <g class="cls-9">
               <path class="cls-11"
                     d="M132.4843,158.3379a2.1864,2.1864,0,0,1,2.1261-2.006c1.0413,0,1.87.53,2.126,2.006a2.138,2.138,0,0,0,2.126,2.0041,2.2987,2.2987,0,0,0,2.1261-2.0041"/>
            </g>
         </g>
      </g>
      <g id="Artwork_13" data-name="Artwork 13">
         <g class="cls-12">
            <g class="cls-12">
               <path class="cls-13"
                     d="M43.5309,146.6633a2,2,0,1,1-2,2,2.0007,2.0007,0,0,1,2-2"/>
               <circle class="cls-6" cx="43.5309" cy="148.6633" r="2"/>
            </g>
         </g>
      </g>
      <g id="Artwork_13-2" data-name="Artwork 13">
         <g class="cls-14">
            <g class="cls-14">
               <path class="cls-13"
                     d="M43.5309,28.8539a2,2,0,1,1-2,2,2.0007,2.0007,0,0,1,2-2"/>
               <circle class="cls-6" cx="43.5309" cy="30.8539" r="2"/>
            </g>
         </g>
      </g>
      <text class="cls-15" transform="translate(22.9829 11.6933)">BYPASS<tspan x="4.4507" y="12">MAINS</tspan>
      </text>
      <text class="cls-15" transform="translate(101.9022 126.6636)">INVERTER</text>
      <g>
         <path class="cls-16"
               d="M20.6567,122.8379h2.6416a5.1733,5.1733,0,0,1,1.3623.1367,2.4,2.4,0,0,1,1.0791.6592,3.1327,3.1327,0,0,1,.6836,1.16,5.2824,5.2824,0,0,1,.2343,1.6914,4.6986,4.6986,0,0,1-.22,1.5234,3.154,3.154,0,0,1-.7666,1.2647,2.542,2.542,0,0,1-1.0156.5713,4.3533,4.3533,0,0,1-1.2793.1513h-2.72Zm1.4453,1.211V128.79h1.0791a3.9171,3.9171,0,0,0,.874-.0684,1.3283,1.3283,0,0,0,.5835-.2978,1.512,1.512,0,0,0,.3784-.6905,4.6734,4.6734,0,0,0,.1465-1.3115,4.2809,4.2809,0,0,0-.1465-1.2744,1.64,1.64,0,0,0-.41-.6934,1.3766,1.3766,0,0,0-.669-.3369,6.6171,6.6171,0,0,0-1.1865-.0683Z"/>
         <path class="cls-16"
               d="M32.4633,127.3643l1.4014.4443a3.148,3.148,0,0,1-1.0718,1.7412,3.3741,3.3741,0,0,1-4.2456-.4052,3.7287,3.7287,0,0,1-.918-2.6641,3.9116,3.9116,0,0,1,.9229-2.7754,3.1648,3.1648,0,0,1,2.4267-.9893,2.9776,2.9776,0,0,1,2.1338.7764,2.8274,2.8274,0,0,1,.7324,1.3184l-1.4306.3418a1.4789,1.4789,0,0,0-1.5088-1.2012,1.6286,1.6286,0,0,0-1.2915.5713,2.8,2.8,0,0,0-.4956,1.8506,3,3,0,0,0,.4883,1.9336,1.5836,1.5836,0,0,0,1.27.5761,1.4475,1.4475,0,0,0,.9912-.3662A2.1254,2.1254,0,0,0,32.4633,127.3643Z"/>
         <path class="cls-16" d="M37.8393,129.9961v-7.1582h1.4453v7.1582Z"/>
         <path class="cls-16"
               d="M40.6762,129.9961v-7.1582h1.4062l2.93,4.78v-4.78h1.3428v7.1582h-1.45l-2.8857-4.668v4.668Z"/>
         <path class="cls-16"
               d="M47.8832,129.9961v-7.1582h2.3194a8.4357,8.4357,0,0,1,1.7187.1074,1.8757,1.8757,0,0,1,1.03.7012,2.22,2.22,0,0,1,.415,1.3936,2.3329,2.3329,0,0,1-.2392,1.1084,1.965,1.965,0,0,1-.6079.706,2.0809,2.0809,0,0,1-.75.3389,8.2572,8.2572,0,0,1-1.499.1025h-.9424v2.7Zm1.4453-5.9472V126.08H50.12a3.7247,3.7247,0,0,0,1.1425-.1123.941.941,0,0,0,.4517-.3516.9616.9616,0,0,0,.1636-.5566.9276.9276,0,0,0-.23-.6445,1.0039,1.0039,0,0,0-.5811-.3174,6.9941,6.9941,0,0,0-1.04-.0488Z"/>
         <path class="cls-16"
               d="M54.5434,122.8379h1.4453v3.877a8.0678,8.0678,0,0,0,.0537,1.1963,1.1612,1.1612,0,0,0,.4419.706,1.5434,1.5434,0,0,0,.9546.2656,1.4609,1.4609,0,0,0,.9277-.2509.9958.9958,0,0,0,.376-.6182,8.027,8.027,0,0,0,.0635-1.2158v-3.96h1.4453v3.76a9.66,9.66,0,0,1-.1172,1.8213,2.0128,2.0128,0,0,1-.4321.8984,2.1917,2.1917,0,0,1-.8423.584,3.6725,3.6725,0,0,1-1.377.2168,3.9775,3.9775,0,0,1-1.5551-.2363,2.2305,2.2305,0,0,1-.8374-.6153,1.9711,1.9711,0,0,1-.4053-.7939,8.7007,8.7007,0,0,1-.1416-1.8164Z"/>
         <path class="cls-16"
               d="M63.3862,129.9961v-5.9472H61.2621v-1.211h5.6885v1.211H64.8315v5.9472Z"/>
         <path class="cls-16"
               d="M25.3832,141.9961v-7.1582h2.3194a8.4357,8.4357,0,0,1,1.7187.1074,1.8757,1.8757,0,0,1,1.03.7012,2.22,2.22,0,0,1,.415,1.3936,2.3329,2.3329,0,0,1-.2392,1.1084,1.965,1.965,0,0,1-.6079.706,2.0809,2.0809,0,0,1-.75.3389,8.2572,8.2572,0,0,1-1.499.1025h-.9424v2.7Zm1.4453-5.9472V138.08H27.62a3.7247,3.7247,0,0,0,1.1425-.1123.941.941,0,0,0,.4517-.3516.9616.9616,0,0,0,.1636-.5566.9276.9276,0,0,0-.23-.6445,1.0039,1.0039,0,0,0-.5811-.3174,6.9941,6.9941,0,0,0-1.04-.0488Z"/>
         <path class="cls-16"
               d="M31.76,138.461a4.5541,4.5541,0,0,1,.3271-1.836,3.372,3.372,0,0,1,.6665-.9814,2.808,2.808,0,0,1,.9253-.6446,3.9373,3.9373,0,0,1,1.543-.2832,3.361,3.361,0,0,1,2.5317.9815,4.3868,4.3868,0,0,1,.0074,5.4424,3.7651,3.7651,0,0,1-5.0586.0049A3.6967,3.6967,0,0,1,31.76,138.461Zm1.4892-.0489a2.6841,2.6841,0,0,0,.5616,1.8438,1.9316,1.9316,0,0,0,2.8442.0049,2.7364,2.7364,0,0,0,.5542-1.8682,2.6916,2.6916,0,0,0-.54-1.8359,1.9984,1.9984,0,0,0-2.8735.0078A2.7024,2.7024,0,0,0,33.2494,138.4121Z"/>
         <path class="cls-16"
               d="M40.8471,141.9961l-1.709-7.1582h1.48l1.0791,4.917,1.3086-4.917H44.724l1.2549,5,1.0987-5h1.455l-1.7382,7.1582H45.2612l-1.4258-5.3515-1.4209,5.3515Z"/>
         <path class="cls-16"
               d="M49.27,141.9961v-7.1582h5.3077v1.211H50.7153v1.5869H54.309v1.206H50.7153V140.79h3.999v1.206Z"/>
         <path class="cls-16"
               d="M55.9448,141.9961v-7.1582h3.0419a5.1935,5.1935,0,0,1,1.6675.1934,1.6444,1.6444,0,0,1,.8325.6855,2.0623,2.0623,0,0,1,.3125,1.128,1.9125,1.9125,0,0,1-.4736,1.331,2.2742,2.2742,0,0,1-1.416.6611,3.3975,3.3975,0,0,1,.7739.6006,8.2019,8.2019,0,0,1,.8228,1.1621l.874,1.3965H60.6518l-1.0449-1.5576a10.0387,10.0387,0,0,0-.7618-1.0518,1.1031,1.1031,0,0,0-.4345-.2978,2.3787,2.3787,0,0,0-.7276-.0811H57.39v2.9883Zm1.4453-4.1308h1.0693a5.52,5.52,0,0,0,1.2988-.0879.7774.7774,0,0,0,.4053-.3028.93.93,0,0,0,.1465-.5371.858.858,0,0,0-.1929-.583.8831.8831,0,0,0-.5444-.2812q-.1758-.0235-1.0547-.0244H57.39Z"/>
      </g>
      <g id="Artwork_13-3" data-name="Artwork 13">
         <g class="cls-17">
            <g class="cls-17">
               <path class="cls-13"
                     d="M321.5763,138.2922a2,2,0,1,1-2,2,2.0007,2.0007,0,0,1,2-2"/>
               <circle class="cls-6" cx="321.5763" cy="140.2922" r="2"/>
            </g>
         </g>
      </g>
      <g id="Artwork_11" data-name="Artwork 11">
         <g class="cls-18">
            <rect class="cls-10"
                  x="177.5118"
                  y="89.9503"
                  width="29.339"
                  height="29.423"/>
            <g class="cls-18">
               <rect class="cls-6"
                     x="177.5118"
                     y="89.9503"
                     width="29.339"
                     height="29.423"/>
               <line class="cls-8"
                     x1="177.5121"
                     y1="104.6619"
                     x2="206.851"
                     y2="104.6619"/>
            </g>
            <rect class="cls-10"
                  x="184.8418"
                  y="97.0773"
                  width="15.128"
                  height="15.171"/>
            <rect class="cls-6"
                  x="184.8418"
                  y="97.0773"
                  width="15.128"
                  height="15.171"/>
            <line class="cls-6"
                  x1="189.8098"
                  y1="115.9275"
                  x2="189.8098"
                  y2="108.5675"/>
            <line class="cls-6"
                  x1="192.7522"
                  y1="115.9275"
                  x2="192.7412"
                  y2="113.5855"/>
            <path d="M196.0071,109.7832v4.929l-4.909-2.464Zm.75-1.216-7.33,3.681,7.33,3.679Z"/>
            <line class="cls-6"
                  x1="195.468"
                  y1="93.45"
                  x2="195.468"
                  y2="100.81"/>
            <line class="cls-6"
                  x1="192.179"
                  y1="93.3992"
                  x2="192.179"
                  y2="95.4122"/>
            <path d="M189.2639,94.6113l4.909,2.464-4.909,2.465Zm-.75-1.216v7.36l7.33-3.68Z"/>
            <g class="cls-18">
               <path class="cls-19"
                     d="M184.842,103.6609a1,1,0,1,1-.997,1,.9984.9984,0,0,1,.997-1"/>
               <circle class="cls-6" cx="184.842" cy="104.6609" r="0.997"/>
               <path class="cls-19"
                     d="M199.97,103.6619a1,1,0,1,1-.997,1,.9984.9984,0,0,1,.997-1"/>
               <circle class="cls-6" cx="199.97" cy="104.6619" r="0.997"/>
               <g class="cls-20">
                  <g class="cls-21">
                     <text class="cls-22" transform="translate(207.8502 119.3728)">EN</text>
                  </g>
               </g>
            </g>
         </g>
      </g>
      <g id="shape116-109">
         <g class="cls-23">
            <g class="cls-23">
               <path class="cls-19"
                     d="M232.5765,147.65a1.003,1.003,0,1,1-1,1.003,1.001,1.001,0,0,1,1-1.003"/>
               <circle class="cls-24" cx="232.5765" cy="148.6528" r="1"/>
            </g>
         </g>
      </g>
      <g id="Artwork_12" data-name="Artwork 12">
         <g class="cls-25">
            <g class="cls-25">
               <g class="cls-20">
                  <g class="cls-26">
                     <text class="cls-22" transform="translate(207.8502 163.3636)">EA</text>
                  </g>
               </g>
            </g>
            <rect class="cls-10"
                  x="177.5118"
                  y="133.9412"
                  width="29.339"
                  height="29.423"/>
            <g class="cls-25">
               <rect class="cls-6"
                     x="177.5118"
                     y="133.9412"
                     width="29.339"
                     height="29.423"/>
               <line class="cls-8"
                     x1="177.5121"
                     y1="148.6537"
                     x2="206.851"
                     y2="148.6537"/>
            </g>
            <rect class="cls-10"
                  x="184.8418"
                  y="141.0692"
                  width="15.128"
                  height="15.171"/>
            <rect class="cls-6"
                  x="184.8418"
                  y="141.0692"
                  width="15.128"
                  height="15.171"/>
            <line class="cls-6"
                  x1="189.8098"
                  y1="159.9193"
                  x2="189.8098"
                  y2="152.5593"/>
            <line class="cls-6"
                  x1="192.7522"
                  y1="159.9193"
                  x2="192.7412"
                  y2="157.5773"/>
            <path d="M196.0071,153.775v4.929l-4.909-2.464Zm.75-1.216-7.33,3.681,7.33,3.679Z"/>
            <line class="cls-6"
                  x1="195.468"
                  y1="137.4418"
                  x2="195.468"
                  y2="144.8018"/>
            <line class="cls-6"
                  x1="192.179"
                  y1="137.3905"
                  x2="192.179"
                  y2="139.4035"/>
            <path d="M189.2639,138.6031l4.909,2.464-4.909,2.465Zm-.75-1.216v7.36l7.33-3.68Z"/>
            <g class="cls-25">
               <path class="cls-19"
                     d="M184.842,147.6537a1,1,0,1,1-.997,1,.9978.9978,0,0,1,.997-1"/>
               <circle class="cls-6" cx="184.842" cy="148.6537" r="0.997"/>
               <path class="cls-19"
                     d="M199.97,147.6537a1,1,0,1,1-.997,1,.9984.9984,0,0,1,.997-1"/>
               <circle class="cls-6" cx="199.97" cy="148.6537" r="0.997"/>
            </g>
         </g>
      </g>
      <text class="cls-15" transform="translate(174.5925 72.7127)">STATIC<tspan x="-8.335" y="12">SWITCHES</tspan>
      </text>
      <text class="cls-15" transform="translate(303.0694 134.2736)">OUTPUT</text>
      <text class="cls-15" transform="translate(224.4293 11.693)">MANUAL BYPASS<tspan x="23.894" y="12">SWITCH</tspan>
      </text>
      <g id="Bypass">
         <g class="cls-27">
            <line class="cls-28"
                  x1="275.0347"
                  y1="136.7619"
                  x2="275.0347"
                  y2="45.587"/>
            <line class="cls-6"
                  x1="243.9694"
                  y1="104.4509"
                  x2="260.6183"
                  y2="104.4509"/>
            <polyline class="cls-6"
                      points="260.618 80.451 243.969 80.451 243.969 72.451 260.618 72.451"/>
            <line class="cls-2"
                  x1="268.0084"
                  y1="55.866"
                  x2="281.5694"
                  y2="49.013"/>
            <line class="cls-28"
                  x1="268.0084"
                  y1="55.866"
                  x2="281.5694"
                  y2="49.013"/>
            <polyline class="cls-6"
                      points="267.521 104.451 281.423 112.451 291.545 112.451 291.545 140.427 281.423 140.427 267.521 132.451"/>
            <polyline class="cls-6"
                      points="267.521 64.451 281.423 72.451 291.545 72.451 291.545 92.451 243.97 92.451 243.97 112.451 260.619 112.451"/>
            <g class="cls-27">
               <path class="cls-19" d="M243.9694,71.451a1,1,0,1,1-1,1,1,1,0,0,1,1-1"/>
               <circle class="cls-24" cx="243.9694" cy="72.451" r="1"/>
               <path class="cls-19" d="M291.545,71.451a1,1,0,1,1-1,1,1,1,0,0,1,1-1"/>
               <circle class="cls-24" cx="291.545" cy="72.451" r="1"/>
               <path class="cls-19" d="M243.9694,103.4509a1,1,0,1,1-1,1,1,1,0,0,1,1-1"/>
               <circle class="cls-24" cx="243.9694" cy="104.4509" r="1"/>
               <path class="cls-19" d="M291.5416,139.4514a1,1,0,1,1-1,1,1,1,0,0,1,1-1"/>
               <circle class="cls-24" cx="291.5416" cy="140.4514" r="1"/>
               <line class="cls-29"
                     x1="253.5206"
                     y1="140.4514"
                     x2="267.7156"
                     y2="140.4514"/>
               <line class="cls-29"
                     x1="253.5206"
                     y1="132.4514"
                     x2="267.7156"
                     y2="132.4514"/>
               <line class="cls-29"
                     x1="253.5206"
                     y1="148.4514"
                     x2="267.7156"
                     y2="148.4514"/>
               <line class="cls-29"
                     x1="253.5206"
                     y1="112.4509"
                     x2="267.7156"
                     y2="112.4509"/>
               <line class="cls-29"
                     x1="253.5206"
                     y1="104.4509"
                     x2="267.7156"
                     y2="104.4509"/>
               <line class="cls-29"
                     x1="253.5206"
                     y1="120.4509"
                     x2="267.7156"
                     y2="120.4509"/>
               <line class="cls-29"
                     x1="253.5206"
                     y1="72.451"
                     x2="267.7156"
                     y2="72.451"/>
               <line class="cls-29"
                     x1="253.5206"
                     y1="64.451"
                     x2="267.7156"
                     y2="64.451"/>
               <line class="cls-29"
                     x1="253.5206"
                     y1="80.451"
                     x2="267.7156"
                     y2="80.451"/>
               <line class="cls-28"
                     x1="268.0084"
                     y1="49.0135"
                     x2="281.5694"
                     y2="49.0135"/>
               <line class="cls-30"
                     x1="268.0084"
                     y1="42.1605"
                     x2="281.5694"
                     y2="49.0135"/>
               <line class="cls-31"
                     x1="268.0084"
                     y1="42.1605"
                     x2="281.5694"
                     y2="49.0135"/>
               <g class="cls-20">
                  <g class="cls-32">
                     <text class="cls-33" transform="translate(243.0417 45.4513)">BYPASS</text>
                  </g>
               </g>
               <g class="cls-20">
                  <g class="cls-34">
                     <text class="cls-33" transform="translate(252.3815 51.4513)">TEST</text>
                  </g>
               </g>
               <g class="cls-20">
                  <g class="cls-35">
                     <text class="cls-33" transform="translate(250.7174 57.4513)">AUTO</text>
                  </g>
               </g>
            </g>
         </g>
      </g>
   </g>
</svg>
