<?xml version="1.0" encoding="UTF-8"?>
<svg xmlns="http://www.w3.org/2000/svg"
     xmlns:xlink="http://www.w3.org/1999/xlink"
     width="75mm"
     height="20mm"
     viewBox="0 0 212.5984 56.6929">
   <defs>
      <style>
      .cls-1, .cls-2, .cls-5 {
        fill: none;
      }

      .cls-2, .cls-5 {
        stroke: #000;
        stroke-miterlimit: 3;
      }

      .cls-2 {
        stroke-width: 0.75px;
      }

      .cls-3 {
        clip-path: url(#clip-path);
      }

      .cls-4, .cls-7 {
        fill: #fff;
      }

      .cls-5 {
        stroke-width: 0.7087px;
      }

      .cls-6 {
        clip-path: url(#clip-path-4);
      }

      .cls-7 {
        fill-rule: evenodd;
      }

      .cls-8 {
        clip-path: url(#clip-path-6);
      }

      .cls-9 {
        clip-path: url(#clip-path-8);
      }

      .cls-10 {
        font-size: 10px;
        font-family: Arial-BoldMT, Arial;
        font-weight: 700;
      }

      .cls-10, .cls-11 {
        fill: #01889C;
      }
    </style>
      <clipPath id="clip-path">
         <rect class="cls-1"
               x="102.6603"
               y="16.22"
               width="35.434"
               height="39.6861"/>
      </clipPath>
      <clipPath id="clip-path-4">
         <rect class="cls-1"
               x="174.2843"
               y="32.9246"
               width="6.125"
               height="6.125"/>
      </clipPath>
      <clipPath id="clip-path-6">
         <rect class="cls-1"
               x="33.676"
               y="33.0103"
               width="6.125"
               height="6.125"/>
      </clipPath>
      <clipPath id="clip-path-8">
         <rect class="cls-1"
               x="62.4461"
               y="27.9289"
               width="16.63"
               height="16.2683"/>
      </clipPath>
   </defs>
   <g id="Paths">
      <path class="cls-2" d="M177.3468,36.0728H72.66"/>
      <path class="cls-2" d="M62.4461,36.0728H38.762"/>
   </g>
   <g id="Parts">
      <g id="Inverter">
         <g class="cls-3">
            <rect class="cls-4"
                  x="103.368"
                  y="19.0538"
                  width="34.0176"
                  height="34.0166"/>
            <g class="cls-3">
               <rect class="cls-5"
                     x="103.368"
                     y="19.0538"
                     width="34.0166"
                     height="34.0166"/>
               <line class="cls-5"
                     x1="103.3709"
                     y1="53.0726"
                     x2="137.3866"
                     y2="19.0569"/>
            </g>
            <line class="cls-5"
                  x1="106.5572"
                  y1="25.4351"
                  x2="116.1206"
                  y2="25.4351"/>
            <line class="cls-5"
                  x1="108.8088"
                  y1="27.5611"
                  x2="106.5571"
                  y2="27.5611"/>
            <line class="cls-5"
                  x1="112.4642"
                  y1="27.5611"
                  x2="110.2135"
                  y2="27.5611"/>
            <line class="cls-5"
                  x1="116.1203"
                  y1="27.5611"
                  x2="113.8686"
                  y2="27.5611"/>
            <g class="cls-3">
               <path class="cls-5"
                     d="M125.692,45.7478a2.1863,2.1863,0,0,1,2.126-2.006c1.0413,0,1.87.53,2.1261,2.006a2.138,2.138,0,0,0,2.126,2.0041,2.2986,2.2986,0,0,0,2.126-2.0041"/>
            </g>
         </g>
      </g>
      <g id="Artwork_13" data-name="Artwork 13">
         <g class="cls-6">
            <g class="cls-6">
               <path class="cls-7"
                     d="M177.3467,33.9875a2,2,0,1,1-2,2,2.0007,2.0007,0,0,1,2-2"/>
               <circle class="cls-2" cx="177.3467" cy="35.9875" r="2"/>
            </g>
         </g>
      </g>
      <g id="Artwork_13-2" data-name="Artwork 13">
         <g class="cls-8">
            <g class="cls-8">
               <path class="cls-7"
                     d="M36.7384,34.0732a2,2,0,1,1-2,2,2.0007,2.0007,0,0,1,2-2"/>
               <circle class="cls-2" cx="36.7384" cy="36.0732" r="2"/>
            </g>
         </g>
      </g>
      <g id="Artwork_20" data-name="Artwork 20">
         <g class="cls-9">
            <rect class="cls-4"
                  x="63.4641"
                  y="33.5622"
                  width="14.612"
                  height="5.032"/>
            <g class="cls-9">
               <line class="cls-2"
                     x1="63.4462"
                     y1="42.8404"
                     x2="78.0762"
                     y2="36.0744"/>
               <path d="M78.0761,37.0787h0a1,1,0,1,1,1-1,1.0029,1.0029,0,0,1-1,1"/>
               <path d="M63.4462,37.0787h0a1,1,0,1,1,1-1,1.0029,1.0029,0,0,1-1,1"/>
            </g>
         </g>
      </g>
   </g>
   <g id="Text">
      <text class="cls-10" transform="translate(95.0962 14.0634)">INVERTER</text>
      <text class="cls-10" transform="translate(156.7926 29.9247)">OUTPUT</text>
      <g>
         <path class="cls-11"
               d="M13.8081,10.1986,16.45,10.183a5.119,5.119,0,0,1,1.3633.1289,2.38,2.38,0,0,1,1.083.6523,3.1363,3.1363,0,0,1,.6905,1.1553,5.2874,5.2874,0,0,1,.2441,1.69,4.6865,4.6865,0,0,1-.21,1.5244,3.1583,3.1583,0,0,1-.7592,1.27,2.55,2.55,0,0,1-1.0122.5771A4.3713,4.3713,0,0,1,16.57,17.34l-2.72.0156Zm1.4527,1.2021.0278,4.7412,1.0791-.0068a3.964,3.964,0,0,0,.874-.0732,1.334,1.334,0,0,0,.5816-.3018,1.5188,1.5188,0,0,0,.3745-.6933,4.687,4.687,0,0,0,.1387-1.3116,4.2747,4.2747,0,0,0-.1543-1.2734,1.6418,1.6418,0,0,0-.4141-.6914,1.3717,1.3717,0,0,0-.6714-.332,6.63,6.63,0,0,0-1.1865-.0616Z"/>
         <path class="cls-11"
               d="M25.6416,14.6537l1.4038.4365a3.1465,3.1465,0,0,1-1.061,1.7471,3.3732,3.3732,0,0,1-4.248-.38,3.7285,3.7285,0,0,1-.9341-2.6582,3.9142,3.9142,0,0,1,.9062-2.7813,3.1669,3.1669,0,0,1,2.4209-1.0029,2.9778,2.9778,0,0,1,2.1387.7637,2.8247,2.8247,0,0,1,.74,1.3134l-1.4287.3506A1.479,1.479,0,0,0,24.0635,11.25a1.6319,1.6319,0,0,0-1.2881.5791,2.8013,2.8013,0,0,0-.4844,1.8536,3.0029,3.0029,0,0,0,.5,1.9306,1.5866,1.5866,0,0,0,1.273.5684,1.4443,1.4443,0,0,0,.9888-.3721A2.128,2.128,0,0,0,25.6416,14.6537Z"/>
         <path class="cls-11"
               d="M31.0327,17.2543,30.99,10.096l1.4453-.0087.0425,7.1582Z"/>
         <path class="cls-11"
               d="M33.87,17.2367l-.0425-7.1573,1.4062-.0087,2.958,4.7627-.0283-4.7793,1.3428-.0088.0425,7.1582-1.45.0088-2.9136-4.6514.0278,4.668Z"/>
         <path class="cls-11"
               d="M41.0767,17.1947l-.0425-7.1582,2.3193-.0137a8.5055,8.5055,0,0,1,1.7193.0967,1.88,1.88,0,0,1,1.0346.6953,2.2182,2.2182,0,0,1,.4234,1.3906,2.3357,2.3357,0,0,1-.2329,1.11,1.9727,1.9727,0,0,1-.6035.709,2.1013,2.1013,0,0,1-.7476.3437,8.2657,8.2657,0,0,1-1.4985.1113l-.9424.0059.0161,2.7Zm1.41-5.9561.0118,2.0313.791-.0049a3.7513,3.7513,0,0,0,1.1421-.1191.9513.9513,0,0,0,.45-.3545.9613.9613,0,0,0,.16-.5577.9237.9237,0,0,0-.2334-.6425.9891.9891,0,0,0-.583-.3135,6.8539,6.8539,0,0,0-1.04-.043Z"/>
         <path class="cls-11"
               d="M47.6944,9.9964,49.14,9.9886l.0229,3.876a8.02,8.02,0,0,0,.0611,1.1963,1.1589,1.1589,0,0,0,.4458.7031,1.5384,1.5384,0,0,0,.9565.26,1.4511,1.4511,0,0,0,.9258-.2569.9923.9923,0,0,0,.3725-.62,8.01,8.01,0,0,0,.0562-1.2158l-.0234-3.96,1.4453-.0078.0224,3.7588a9.6672,9.6672,0,0,1-.1064,1.8223,2.0219,2.0219,0,0,1-.4268.9014,2.1808,2.1808,0,0,1-.8388.5878,3.6422,3.6422,0,0,1-1.3755.2256,3.9769,3.9769,0,0,1-1.5567-.2275,2.2219,2.2219,0,0,1-.8413-.61,1.966,1.966,0,0,1-.41-.791,8.7015,8.7015,0,0,1-.1529-1.8154Z"/>
         <path class="cls-11"
               d="M56.5791,17.1019l-.0351-5.9463-2.1241.0127-.0073-1.2109,5.6885-.0342.0073,1.2109-2.1191.0127.0351,5.9463Z"/>
         <path class="cls-11"
               d="M18.6485,29.3285,18.606,22.17l2.3193-.0147a8.3991,8.3991,0,0,1,1.7193.0977,1.876,1.876,0,0,1,1.0346.6943,2.2244,2.2244,0,0,1,.4234,1.3916,2.3357,2.3357,0,0,1-.2329,1.11,1.9717,1.9717,0,0,1-.6036.7089,2.0948,2.0948,0,0,1-.7475.3438,8.2669,8.2669,0,0,1-1.4986.1113l-.9423.0059.0161,2.7Zm1.41-5.9561.0122,2.0313.791-.0049a3.71,3.71,0,0,0,1.1416-.1192.9513.9513,0,0,0,.45-.3544.9615.9615,0,0,0,.16-.5577.9242.9242,0,0,0-.2334-.6425.9958.9958,0,0,0-.583-.3145,6.9,6.9,0,0,0-1.04-.042Z"/>
         <path class="cls-11"
               d="M25.0044,25.7552a4.548,4.548,0,0,1,.3164-1.8379,3.3387,3.3387,0,0,1,.6607-.9853,2.7872,2.7872,0,0,1,.9214-.65,3.9221,3.9221,0,0,1,1.5415-.292,3.3584,3.3584,0,0,1,2.5371.9658,3.76,3.76,0,0,1,.9658,2.7237,3.751,3.751,0,0,1-.9263,2.7187,3.3367,3.3367,0,0,1-2.5132.9941,3.3717,3.3717,0,0,1-2.5449-.9589A3.7,3.7,0,0,1,25.0044,25.7552Zm1.4893-.0576a2.6822,2.6822,0,0,0,.5722,1.84,1.8324,1.8324,0,0,0,1.43.6191,1.8121,1.8121,0,0,0,1.4141-.6318,2.73,2.73,0,0,0,.543-1.87,2.6913,2.6913,0,0,0-.55-1.833,1.9994,1.9994,0,0,0-2.8731.0244A2.7041,2.7041,0,0,0,26.4937,25.6976Z"/>
         <path class="cls-11"
               d="M34.1118,29.2357,32.36,22.0882l1.48-.0088,1.1084,4.91,1.2793-4.9248,1.7187-.01,1.2847,4.9922L40.3,22.04l1.4551-.0078-1.6958,7.1679-1.5332.01-1.4575-5.3437-1.3892,5.36Z"/>
         <path class="cls-11"
               d="M42.5347,29.1859l-.0425-7.1582L47.8,21.9964l.0074,1.211-3.8624.0224.0093,1.587,3.5938-.0215.0073,1.206-3.5937.0215.0117,1.9482,3.999-.0234.0068,1.2061Z"/>
         <path class="cls-11"
               d="M49.21,29.1459l-.0425-7.1582,3.042-.0176a5.2115,5.2115,0,0,1,1.6685.1826,1.6469,1.6469,0,0,1,.8364.6816,2.0619,2.0619,0,0,1,.3193,1.126,1.9089,1.9089,0,0,1-.4658,1.333,2.2685,2.2685,0,0,1-1.4116.67,3.3533,3.3533,0,0,1,.7773.5967,8.15,8.15,0,0,1,.8291,1.1572l.8824,1.3907-1.7281.0107-1.0542-1.5517a10.1556,10.1556,0,0,0-.7675-1.0479,1.1134,1.1134,0,0,0-.4366-.2949,2.3849,2.3849,0,0,0-.728-.0762l-.293.002.0176,2.9882ZM50.63,25.0072,51.7,25a5.5074,5.5074,0,0,0,1.2984-.0957.7792.7792,0,0,0,.4033-.3046.9313.9313,0,0,0,.1435-.5381.8622.8622,0,0,0-.1962-.583.8916.8916,0,0,0-.5464-.2774c-.1172-.0146-.4688-.0215-1.0547-.0176l-1.1279.0069Z"/>
      </g>
   </g>
</svg>
