<?xml version="1.0" encoding="UTF-8"?>
<svg xmlns="http://www.w3.org/2000/svg"
     xmlns:xlink="http://www.w3.org/1999/xlink"
     width="110mm"
     height="37.3751mm"
     viewBox="0 0 311.811 105.9451">
   <defs>
      <style>
      .cls-1, .cls-16, .cls-2, .cls-3, .cls-6 {
        fill: none;
      }

      .cls-16, .cls-2, .cls-3, .cls-6 {
        stroke: #000;
      }

      .cls-2 {
        stroke-miterlimit: 10;
      }

      .cls-2, .cls-3 {
        stroke-width: 0.75px;
      }

      .cls-16, .cls-3, .cls-6 {
        stroke-miterlimit: 3;
      }

      .cls-4 {
        clip-path: url(#clip-path);
      }

      .cls-5, .cls-8 {
        fill: #fff;
      }

      .cls-6 {
        stroke-width: 0.7087px;
      }

      .cls-7 {
        clip-path: url(#clip-path-4);
      }

      .cls-10, .cls-8 {
        fill-rule: evenodd;
      }

      .cls-9 {
        clip-path: url(#clip-path-6);
      }

      .cls-11 {
        isolation: isolate;
      }

      .cls-12 {
        clip-path: url(#clip-path-9);
      }

      .cls-13 {
        font-size: 8px;
      }

      .cls-13, .cls-21, .cls-22 {
        fill: #01889C;
      }

      .cls-13, .cls-21 {
        font-family: Arial-BoldMT, Arial;
        font-weight: 700;
      }

      .cls-14 {
        clip-path: url(#clip-path-10);
      }

      .cls-15 {
        clip-path: url(#clip-path-12);
      }

      .cls-16 {
        stroke-width: 0.5px;
      }

      .cls-17 {
        clip-path: url(#clip-path-14);
      }

      .cls-18 {
        clip-path: url(#clip-path-16);
      }

      .cls-19 {
        clip-path: url(#clip-path-17);
      }

      .cls-20 {
        clip-path: url(#clip-path-18);
      }

      .cls-21 {
        font-size: 10px;
      }
    </style>
      <clipPath id="clip-path">
         <rect class="cls-1"
               x="105.4949"
               y="66.2581"
               width="35.434"
               height="39.6861"/>
      </clipPath>
      <clipPath id="clip-path-4">
         <rect class="cls-1"
               x="267.1679"
               y="83.0463"
               width="6.125"
               height="6.125"/>
      </clipPath>
      <clipPath id="clip-path-6">
         <rect class="cls-1"
               x="172.1832"
               y="26.1092"
               width="46.8331"
               height="32"/>
      </clipPath>
      <clipPath id="clip-path-9">
         <rect class="cls-1"
               x="203.8932"
               y="49.9574"
               width="11.1133"
               height="9.875"/>
      </clipPath>
      <clipPath id="clip-path-10">
         <rect class="cls-1"
               x="36.5106"
               y="83.0483"
               width="6.125"
               height="6.125"/>
      </clipPath>
      <clipPath id="clip-path-12">
         <rect class="cls-1"
               x="226.3339"
               y="83.8101"
               width="4.5709"
               height="4.5819"/>
      </clipPath>
      <clipPath id="clip-path-14">
         <rect class="cls-1"
               x="36.5106"
               y="38.8089"
               width="6.125"
               height="6.125"/>
      </clipPath>
      <clipPath id="clip-path-16">
         <rect class="cls-1"
               x="65.2808"
               y="33.7372"
               width="16.63"
               height="16.2683"/>
      </clipPath>
      <clipPath id="clip-path-17">
         <rect class="cls-1"
               x="65.2808"
               y="33.7375"
               width="16.63"
               height="16.268"/>
      </clipPath>
      <clipPath id="clip-path-18">
         <rect class="cls-1"
               x="65.2808"
               y="77.9669"
               width="16.63"
               height="16.2683"/>
      </clipPath>
   </defs>
   <g id="Paths">
      <polyline class="cls-2"
                points="80.133 41.871 146.425 42.109 146.425 42.109 228.62 42.109 228.62 86.111"/>
      <path class="cls-3" d="M270.2532,86.1108H74.67"/>
      <path class="cls-3" d="M67.18,86.1108H41.5966"/>
      <line class="cls-2"
            x1="37.3285"
            y1="41.8714"
            x2="68.1809"
            y2="41.8714"/>
   </g>
   <g id="Parts">
      <g id="Inverter">
         <g class="cls-4">
            <rect class="cls-5"
                  x="106.2027"
                  y="69.0918"
                  width="34.0176"
                  height="34.0166"/>
            <g class="cls-4">
               <rect class="cls-6"
                     x="106.2027"
                     y="69.0918"
                     width="34.0166"
                     height="34.0166"/>
               <line class="cls-6"
                     x1="106.2056"
                     y1="103.1106"
                     x2="140.2213"
                     y2="69.095"/>
            </g>
            <line class="cls-6"
                  x1="109.3918"
                  y1="75.4731"
                  x2="118.9552"
                  y2="75.4731"/>
            <line class="cls-6"
                  x1="111.6434"
                  y1="77.5991"
                  x2="109.3917"
                  y2="77.5991"/>
            <line class="cls-6"
                  x1="115.2989"
                  y1="77.5991"
                  x2="113.0481"
                  y2="77.5991"/>
            <line class="cls-6"
                  x1="118.9549"
                  y1="77.5991"
                  x2="116.7032"
                  y2="77.5991"/>
            <g class="cls-4">
               <path class="cls-6"
                     d="M128.5266,95.7858a2.1865,2.1865,0,0,1,2.1261-2.006c1.0413,0,1.87.53,2.126,2.006a2.138,2.138,0,0,0,2.126,2.0042,2.2988,2.2988,0,0,0,2.1261-2.0042"/>
            </g>
         </g>
      </g>
      <g id="Artwork_13" data-name="Artwork 13">
         <g class="cls-7">
            <g class="cls-7">
               <path class="cls-8" d="M270.23,84.1092a2,2,0,1,1-2,2,2.0007,2.0007,0,0,1,2-2"/>
               <circle class="cls-3" cx="270.2303" cy="86.1092" r="2"/>
            </g>
         </g>
      </g>
      <g id="Artwork_11" data-name="Artwork 11">
         <g class="cls-9">
            <rect class="cls-5"
                  x="173.5542"
                  y="27.3982"
                  width="29.339"
                  height="29.423"/>
            <g class="cls-9">
               <rect class="cls-3"
                     x="173.5542"
                     y="27.3982"
                     width="29.339"
                     height="29.423"/>
               <line class="cls-2"
                     x1="173.5544"
                     y1="42.1098"
                     x2="202.8934"
                     y2="42.1098"/>
            </g>
            <rect class="cls-5"
                  x="180.8842"
                  y="34.5252"
                  width="15.128"
                  height="15.171"/>
            <rect class="cls-3"
                  x="180.8842"
                  y="34.5252"
                  width="15.128"
                  height="15.171"/>
            <line class="cls-3"
                  x1="185.8522"
                  y1="53.3754"
                  x2="185.8522"
                  y2="46.0154"/>
            <line class="cls-3"
                  x1="188.7946"
                  y1="53.3754"
                  x2="188.7836"
                  y2="51.0334"/>
            <path d="M192.05,47.2311V52.16l-4.909-2.464Zm.75-1.216-7.33,3.681,7.33,3.679Z"/>
            <line class="cls-3"
                  x1="191.5104"
                  y1="30.8979"
                  x2="191.5104"
                  y2="38.2579"/>
            <line class="cls-3"
                  x1="188.2214"
                  y1="30.8471"
                  x2="188.2214"
                  y2="32.8601"/>
            <path d="M185.3063,32.0592l4.909,2.464-4.909,2.465Zm-.75-1.216v7.36l7.33-3.68Z"/>
            <g class="cls-9">
               <path class="cls-10"
                     d="M180.8844,41.1088a1,1,0,1,1-.997,1,.9984.9984,0,0,1,.997-1"/>
               <circle class="cls-3" cx="180.8844" cy="42.1088" r="0.997"/>
               <path class="cls-10"
                     d="M196.0124,41.11a1,1,0,1,1-.997,1,.9984.9984,0,0,1,.997-1"/>
               <circle class="cls-3" cx="196.0124" cy="42.1098" r="0.997"/>
               <g class="cls-11">
                  <g class="cls-12">
                     <text class="cls-13" transform="translate(203.8927 56.8207)">EN</text>
                  </g>
               </g>
            </g>
         </g>
      </g>
      <g id="Artwork_13-2" data-name="Artwork 13">
         <g class="cls-14">
            <g class="cls-14">
               <path class="cls-8" d="M39.573,84.1112a2,2,0,1,1-2,2,2.0007,2.0007,0,0,1,2-2"/>
               <circle class="cls-3" cx="39.573" cy="86.1112" r="2"/>
            </g>
         </g>
      </g>
      <g id="shape116-109">
         <g class="cls-15">
            <g class="cls-15">
               <path class="cls-10"
                     d="M228.619,85.0978a1.003,1.003,0,1,1-1,1.003,1.001,1.001,0,0,1,1-1.003"/>
               <circle class="cls-16" cx="228.619" cy="86.1008" r="1"/>
            </g>
         </g>
      </g>
      <g id="Artwork_13-3" data-name="Artwork 13">
         <g class="cls-17">
            <g class="cls-17">
               <path class="cls-8" d="M39.573,39.8718a2,2,0,1,1-2,2,2.0007,2.0007,0,0,1,2-2"/>
               <circle class="cls-3" cx="39.573" cy="41.8718" r="2"/>
            </g>
         </g>
      </g>
      <g id="Artwork_20" data-name="Artwork 20">
         <g class="cls-18">
            <rect class="cls-5"
                  x="66.2988"
                  y="39.3705"
                  width="14.612"
                  height="5.032"/>
            <g class="cls-19">
               <line class="cls-3"
                     x1="66.2809"
                     y1="48.6487"
                     x2="80.9109"
                     y2="41.8827"/>
               <path d="M80.9108,42.887h0a1,1,0,1,1,1-1,1.0029,1.0029,0,0,1-1,1"/>
               <path d="M66.2809,42.887h0a1,1,0,1,1,1-1,1.0029,1.0029,0,0,1-1,1"/>
            </g>
         </g>
      </g>
      <g id="Artwork_20-2" data-name="Artwork 20">
         <g class="cls-20">
            <rect class="cls-5"
                  x="66.2988"
                  y="83.6002"
                  width="14.612"
                  height="5.032"/>
            <g class="cls-20">
               <line class="cls-3"
                     x1="66.2809"
                     y1="92.8784"
                     x2="80.9109"
                     y2="86.1124"/>
               <path d="M80.9108,87.1167h0a1,1,0,1,1,1-1,1.0029,1.0029,0,0,1-1,1"/>
               <path d="M66.2809,87.1167h0a1,1,0,1,1,1-1,1.0029,1.0029,0,0,1-1,1"/>
            </g>
         </g>
      </g>
   </g>
   <g id="Text">
      <text class="cls-21" transform="translate(19.0116 22.7009)">BYPASS<tspan x="4.4507" y="12">MAINS</tspan>
      </text>
      <text class="cls-21" transform="translate(170.6211 10.1503)">STATIC<tspan x="-1.665" y="12">SWITCH</tspan>
      </text>
      <text class="cls-21" transform="translate(97.931 64.1013)">INVERTER</text>
      <text class="cls-21" transform="translate(249.6759 80.0465)">OUTPUT</text>
      <g>
         <path class="cls-22"
               d="M16.6851,60.2756h2.6416a5.1733,5.1733,0,0,1,1.3623.1367,2.3987,2.3987,0,0,1,1.0791.6592,3.1327,3.1327,0,0,1,.6836,1.16,5.2817,5.2817,0,0,1,.2344,1.6914,4.6985,4.6985,0,0,1-.22,1.5234A3.1528,3.1528,0,0,1,21.7,66.7112a2.5407,2.5407,0,0,1-1.0156.5712,4.349,4.349,0,0,1-1.2793.1514h-2.72ZM18.13,61.4865v4.7413H19.21a3.9171,3.9171,0,0,0,.874-.0684,1.3274,1.3274,0,0,0,.5835-.2979,1.511,1.511,0,0,0,.3784-.69,4.6734,4.6734,0,0,0,.1465-1.3115,4.2809,4.2809,0,0,0-.1465-1.2744,1.6392,1.6392,0,0,0-.41-.6934,1.3762,1.3762,0,0,0-.669-.3369,6.6132,6.6132,0,0,0-1.1865-.0684Z"/>
         <path class="cls-22"
               d="M28.4917,64.802l1.4014.4443a3.148,3.148,0,0,1-1.0718,1.7412,3.374,3.374,0,0,1-4.2456-.4053,3.7283,3.7283,0,0,1-.918-2.664,3.912,3.912,0,0,1,.9229-2.7754,3.1648,3.1648,0,0,1,2.4267-.9893,2.9774,2.9774,0,0,1,2.1338.7764,2.827,2.827,0,0,1,.7325,1.3184l-1.4307.3418a1.4789,1.4789,0,0,0-1.5088-1.2012,1.6286,1.6286,0,0,0-1.2915.5713,2.8,2.8,0,0,0-.4956,1.8506,3,3,0,0,0,.4883,1.9336,1.5837,1.5837,0,0,0,1.27.5761,1.4473,1.4473,0,0,0,.9912-.3662A2.1254,2.1254,0,0,0,28.4917,64.802Z"/>
         <path class="cls-22" d="M33.8677,67.4338V60.2756H35.313v7.1582Z"/>
         <path class="cls-22"
               d="M36.7046,67.4338V60.2756h1.4063l2.93,4.78v-4.78h1.3427v7.1582h-1.45l-2.8857-4.668v4.668Z"/>
         <path class="cls-22"
               d="M43.9116,67.4338V60.2756H46.231a8.4357,8.4357,0,0,1,1.7187.1074,1.8748,1.8748,0,0,1,1.03.7012,2.2193,2.2193,0,0,1,.415,1.3936,2.3317,2.3317,0,0,1-.2392,1.1084,1.965,1.965,0,0,1-.6079.706,2.0812,2.0812,0,0,1-.7495.3389,8.2584,8.2584,0,0,1-1.4991.1025H45.357v2.7Zm1.4454-5.9473v2.0313h.791a3.7255,3.7255,0,0,0,1.1426-.1123.9412.9412,0,0,0,.4516-.3516.9619.9619,0,0,0,.1636-.5566.9276.9276,0,0,0-.23-.6445,1.0036,1.0036,0,0,0-.5811-.3174,6.9751,6.9751,0,0,0-1.04-.0489Z"/>
         <path class="cls-22"
               d="M50.5718,60.2756h1.4453v3.877a8.0651,8.0651,0,0,0,.0537,1.1962,1.1611,1.1611,0,0,0,.4419.7061,1.5434,1.5434,0,0,0,.9546.2656,1.4613,1.4613,0,0,0,.9277-.2509.9958.9958,0,0,0,.376-.6182,8.0279,8.0279,0,0,0,.0635-1.2158v-3.96H56.28v3.76a9.6609,9.6609,0,0,1-.1172,1.8213,2.0117,2.0117,0,0,1-.4321.8984,2.1917,2.1917,0,0,1-.8423.584,3.6719,3.6719,0,0,1-1.3769.2168,3.978,3.978,0,0,1-1.5552-.2363,2.2332,2.2332,0,0,1-.8374-.6153,1.9711,1.9711,0,0,1-.4053-.7939,8.7083,8.7083,0,0,1-.1416-1.8164Z"/>
         <path class="cls-22"
               d="M59.4146,67.4338V61.4865h-2.124V60.2756H62.979v1.2109H60.86v5.9473Z"/>
         <path class="cls-22"
               d="M21.4116,79.4338V72.2756H23.731a8.4357,8.4357,0,0,1,1.7187.1074,1.8748,1.8748,0,0,1,1.03.7012,2.2193,2.2193,0,0,1,.415,1.3936,2.3317,2.3317,0,0,1-.2392,1.1084,1.965,1.965,0,0,1-.6079.706,2.0812,2.0812,0,0,1-.7495.3389,8.2584,8.2584,0,0,1-1.4991.1025H22.857v2.7Zm1.4454-5.9473v2.0313h.791a3.7255,3.7255,0,0,0,1.1426-.1123.9412.9412,0,0,0,.4516-.3516.9619.9619,0,0,0,.1636-.5566.9276.9276,0,0,0-.2295-.6445,1.0036,1.0036,0,0,0-.5811-.3174,6.9751,6.9751,0,0,0-1.04-.0489Z"/>
         <path class="cls-22"
               d="M27.7886,75.8987a4.5541,4.5541,0,0,1,.3271-1.836,3.37,3.37,0,0,1,.6666-.9814,2.8066,2.8066,0,0,1,.9252-.6446,3.9373,3.9373,0,0,1,1.543-.2832,3.3613,3.3613,0,0,1,2.5318.9815,4.3866,4.3866,0,0,1,.0073,5.4424,3.3366,3.3366,0,0,1-2.52.9785,3.3685,3.3685,0,0,1-2.539-.9737A3.6967,3.6967,0,0,1,27.7886,75.8987Zm1.4893-.0489a2.684,2.684,0,0,0,.5615,1.8438,1.9316,1.9316,0,0,0,2.8442.0049,2.7364,2.7364,0,0,0,.5542-1.8682,2.6921,2.6921,0,0,0-.5395-1.8359,1.9985,1.9985,0,0,0-2.8736.0078A2.7024,2.7024,0,0,0,29.2779,75.85Z"/>
         <path class="cls-22"
               d="M36.8755,79.4338l-1.709-7.1582h1.48l1.0791,4.917,1.3086-4.917h1.7188l1.2548,5,1.0987-5h1.4551l-1.7383,7.1582H41.29l-1.4258-5.3516-1.4209,5.3516Z"/>
         <path class="cls-22"
               d="M45.2984,79.4338V72.2756H50.606v1.2109H46.7437v1.587h3.5937V76.28H46.7437v1.9483h3.999v1.206Z"/>
         <path class="cls-22"
               d="M51.9732,79.4338V72.2756h3.042a5.1928,5.1928,0,0,1,1.6674.1934,1.6446,1.6446,0,0,1,.8326.6855,2.0622,2.0622,0,0,1,.3125,1.1279,1.9126,1.9126,0,0,1-.4737,1.3311,2.2742,2.2742,0,0,1-1.416.6611,3.3919,3.3919,0,0,1,.7739.6006,8.1936,8.1936,0,0,1,.8228,1.1621l.874,1.3965H56.68l-1.0449-1.5576a10.0588,10.0588,0,0,0-.7617-1.0518,1.1041,1.1041,0,0,0-.4346-.2978,2.378,2.378,0,0,0-.7275-.0811h-.293v2.9883Zm1.4453-4.1308h1.0693a5.52,5.52,0,0,0,1.2988-.0879.777.777,0,0,0,.4053-.3028.93.93,0,0,0,.1465-.5371.8575.8575,0,0,0-.1929-.583.8831.8831,0,0,0-.5444-.2812c-.1172-.0157-.4688-.0245-1.0547-.0245H53.4185Z"/>
      </g>
   </g>
</svg>
