<?xml version="1.0" encoding="UTF-8"?>
<svg xmlns="http://www.w3.org/2000/svg"
     xmlns:xlink="http://www.w3.org/1999/xlink"
     width="125mm"
     height="60mm"
     viewBox="0 0 354.3307 170.0787">
   <defs>
      <style>
      .cls-1, .cls-16, .cls-19, .cls-3, .cls-4, .cls-6, .cls-8, .cls-9 {
        fill: none;
      }

      .cls-2 {
        clip-path: url(#clip-path);
      }

      .cls-3, .cls-6 {
        stroke: #626469;
      }

      .cls-19, .cls-3, .cls-4, .cls-6, .cls-8, .cls-9 {
        stroke-miterlimit: 3;
      }

      .cls-3, .cls-6, .cls-8 {
        stroke-width: 0.5px;
      }

      .cls-3 {
        stroke-dasharray: 2 1;
      }

      .cls-16, .cls-19, .cls-4, .cls-8, .cls-9 {
        stroke: #000;
      }

      .cls-16, .cls-4 {
        stroke-width: 0.75px;
      }

      .cls-5 {
        fill: #c6c6c6;
      }

      .cls-21, .cls-7 {
        fill-rule: evenodd;
      }

      .cls-9 {
        stroke-width: 2px;
      }

      .cls-10 {
        fill: #626469;
      }

      .cls-11 {
        isolation: isolate;
      }

      .cls-12 {
        clip-path: url(#clip-path-3);
      }

      .cls-13 {
        font-size: 6px;
      }

      .cls-13, .cls-25, .cls-26, .cls-30 {
        fill: #01889C;
      }

      .cls-13, .cls-25, .cls-30 {
        font-family: Arial-BoldMT, Arial;
        font-weight: 700;
      }

      .cls-14 {
        clip-path: url(#clip-path-4);
      }

      .cls-15 {
        clip-path: url(#clip-path-5);
      }

      .cls-16 {
        stroke-miterlimit: 10;
      }

      .cls-17 {
        clip-path: url(#clip-path-6);
      }

      .cls-18, .cls-21 {
        fill: #fff;
      }

      .cls-19 {
        stroke-width: 0.7087px;
      }

      .cls-20 {
        clip-path: url(#clip-path-9);
      }

      .cls-22 {
        clip-path: url(#clip-path-11);
      }

      .cls-23 {
        clip-path: url(#clip-path-13);
      }

      .cls-24 {
        clip-path: url(#clip-path-15);
      }

      .cls-25 {
        font-size: 10px;
      }

      .cls-27 {
        clip-path: url(#clip-path-17);
      }

      .cls-28 {
        clip-path: url(#clip-path-19);
      }

      .cls-29 {
        clip-path: url(#clip-path-22);
      }

      .cls-30 {
        font-size: 8px;
      }

      .cls-31 {
        clip-path: url(#clip-path-23);
      }
    </style>
      <clipPath id="clip-path">
         <rect class="cls-1"
               x="223.1934"
               y="41.2237"
               width="76.0872"
               height="111.302"/>
      </clipPath>
      <clipPath id="clip-path-3">
         <rect class="cls-1"
               x="236.3633"
               y="41.6287"
               width="24.6738"
               height="7.406"/>
      </clipPath>
      <clipPath id="clip-path-4">
         <rect class="cls-1"
               x="245.7031"
               y="47.6287"
               width="15.334"
               height="7.4061"/>
      </clipPath>
      <clipPath id="clip-path-5">
         <rect class="cls-1"
               x="244.039"
               y="53.628"
               width="16.9981"
               height="7.4063"/>
      </clipPath>
      <clipPath id="clip-path-6">
         <rect class="cls-1"
               x="102.6603"
               y="130.3917"
               width="35.434"
               height="39.6861"/>
      </clipPath>
      <clipPath id="clip-path-9">
         <rect class="cls-1"
               x="33.676"
               y="147.182"
               width="6.125"
               height="6.125"/>
      </clipPath>
      <clipPath id="clip-path-11">
         <rect class="cls-1"
               x="33.676"
               y="29.3724"
               width="6.125"
               height="6.125"/>
      </clipPath>
      <clipPath id="clip-path-13">
         <rect class="cls-1"
               x="62.4461"
               y="24.3008"
               width="16.63"
               height="16.2683"/>
      </clipPath>
      <clipPath id="clip-path-15">
         <rect class="cls-1"
               x="62.4461"
               y="142.1006"
               width="16.63"
               height="16.2683"/>
      </clipPath>
      <clipPath id="clip-path-17">
         <rect class="cls-1"
               x="311.7219"
               y="138.8109"
               width="6.125"
               height="6.125"/>
      </clipPath>
      <clipPath id="clip-path-19">
         <rect class="cls-1"
               x="169.3486"
               y="90.2428"
               width="46.8331"
               height="32"/>
      </clipPath>
      <clipPath id="clip-path-22">
         <rect class="cls-1"
               x="201.0586"
               y="114.091"
               width="11.1133"
               height="9.875"/>
      </clipPath>
      <clipPath id="clip-path-23">
         <rect class="cls-1"
               x="223.4992"
               y="147.9438"
               width="4.5709"
               height="4.5819"/>
      </clipPath>
   </defs>
   <g id="MB_Auto" data-name="MB Auto">
      <g id="Auto">
         <g class="cls-2">
            <line class="cls-3"
                  x1="268.3564"
                  y1="145.4391"
                  x2="268.3564"
                  y2="46.9111"/>
            <line class="cls-4"
                  x1="237.291"
                  y1="105.7755"
                  x2="253.94"
                  y2="105.7755"/>
            <polyline class="cls-4"
                      points="253.94 81.776 237.291 81.776 237.291 73.776 253.94 73.776"/>
            <line class="cls-5"
                  x1="261.3301"
                  y1="57.1905"
                  x2="274.8911"
                  y2="50.3375"/>
            <line class="cls-6"
                  x1="261.3301"
                  y1="57.1905"
                  x2="274.8911"
                  y2="50.3375"/>
            <polyline class="cls-4"
                      points="260.842 121.775 274.744 113.776 284.866 113.776 284.866 141.751 274.744 141.751 260.842 149.775"/>
            <polyline class="cls-4"
                      points="260.842 81.776 274.744 73.776 284.866 73.776 284.866 93.776 237.291 93.776 237.291 113.776 253.94 113.776"/>
            <g class="cls-2">
               <path class="cls-7" d="M237.291,72.7755a1,1,0,1,1-1,1,1,1,0,0,1,1-1"/>
               <circle class="cls-8" cx="237.291" cy="73.7755" r="1"/>
               <path class="cls-7" d="M284.8667,72.7755a1,1,0,1,1-1,1,1,1,0,0,1,1-1"/>
               <circle class="cls-8" cx="284.8667" cy="73.7755" r="1"/>
               <path class="cls-7" d="M237.291,104.7755a1,1,0,1,1-1,1,1,1,0,0,1,1-1"/>
               <circle class="cls-8" cx="237.291" cy="105.7755" r="1"/>
               <path class="cls-7" d="M284.8633,140.776a1,1,0,1,1-1,1,1,1,0,0,1,1-1"/>
               <circle class="cls-8" cx="284.8633" cy="141.776" r="1"/>
               <line class="cls-9"
                     x1="246.8423"
                     y1="141.776"
                     x2="261.0373"
                     y2="141.776"/>
               <line class="cls-9"
                     x1="246.8423"
                     y1="133.776"
                     x2="261.0373"
                     y2="133.776"/>
               <line class="cls-9"
                     x1="246.8423"
                     y1="149.776"
                     x2="261.0373"
                     y2="149.776"/>
               <line class="cls-9"
                     x1="246.8423"
                     y1="113.7755"
                     x2="261.0373"
                     y2="113.7755"/>
               <line class="cls-9"
                     x1="246.8423"
                     y1="105.7755"
                     x2="261.0373"
                     y2="105.7755"/>
               <line class="cls-9"
                     x1="246.8423"
                     y1="121.7755"
                     x2="261.0373"
                     y2="121.7755"/>
               <line class="cls-9"
                     x1="246.8423"
                     y1="73.7755"
                     x2="261.0373"
                     y2="73.7755"/>
               <line class="cls-9"
                     x1="246.8423"
                     y1="65.7755"
                     x2="261.0373"
                     y2="65.7755"/>
               <line class="cls-9"
                     x1="246.8423"
                     y1="81.7755"
                     x2="261.0373"
                     y2="81.7755"/>
               <line class="cls-3"
                     x1="261.3301"
                     y1="50.338"
                     x2="274.8911"
                     y2="50.338"/>
               <line class="cls-10"
                     x1="261.3301"
                     y1="43.485"
                     x2="274.8911"
                     y2="50.338"/>
               <line class="cls-3"
                     x1="261.3301"
                     y1="43.485"
                     x2="274.8911"
                     y2="50.338"/>
               <g class="cls-11">
                  <g class="cls-12">
                     <text class="cls-13" transform="translate(236.3633 46.7758)">BYPASS</text>
                  </g>
               </g>
               <g class="cls-11">
                  <g class="cls-14">
                     <text class="cls-13" transform="translate(245.7032 52.7758)">TEST</text>
                  </g>
               </g>
               <g class="cls-11">
                  <g class="cls-15">
                     <text class="cls-13" transform="translate(244.0391 58.7758)">AUTO</text>
                  </g>
               </g>
            </g>
         </g>
      </g>
   </g>
   <g id="Paths">
      <polyline class="cls-16"
                points="225.786 150.244 225.786 106.243 143.591 106.243 143.591 59.266 237.295 59.266 237.295 73.875"/>
      <polyline class="cls-16" points="78.198 32.435 284.878 32.673 284.878 73.875"/>
      <path class="cls-4" d="M62.9078,150.2445H36.7384"/>
      <line class="cls-4"
            x1="285.6395"
            y1="141.9494"
            x2="314.7844"
            y2="141.9494"/>
      <line class="cls-16"
            x1="36.7388"
            y1="32.4349"
            x2="62.9078"
            y2="32.4349"/>
      <path class="cls-4" d="M248.2736,150.2445H78.1977"/>
      <g id="Inverter">
         <g class="cls-17">
            <rect class="cls-18"
                  x="103.368"
                  y="133.2255"
                  width="34.0176"
                  height="34.0166"/>
            <g class="cls-17">
               <rect class="cls-19"
                     x="103.368"
                     y="133.2255"
                     width="34.0166"
                     height="34.0166"/>
               <line class="cls-19"
                     x1="103.3709"
                     y1="167.2443"
                     x2="137.3866"
                     y2="133.2286"/>
            </g>
            <line class="cls-19"
                  x1="106.5572"
                  y1="139.6067"
                  x2="116.1206"
                  y2="139.6067"/>
            <line class="cls-19"
                  x1="108.8088"
                  y1="141.7327"
                  x2="106.5571"
                  y2="141.7327"/>
            <line class="cls-19"
                  x1="112.4642"
                  y1="141.7327"
                  x2="110.2135"
                  y2="141.7327"/>
            <line class="cls-19"
                  x1="116.1203"
                  y1="141.7327"
                  x2="113.8686"
                  y2="141.7327"/>
            <g class="cls-17">
               <path class="cls-19"
                     d="M125.692,159.92a2.1864,2.1864,0,0,1,2.126-2.0061c1.0413,0,1.87.53,2.1261,2.0061a2.138,2.138,0,0,0,2.126,2.0041,2.2986,2.2986,0,0,0,2.126-2.0041"/>
            </g>
         </g>
      </g>
      <g id="Artwork_13" data-name="Artwork 13">
         <g class="cls-20">
            <g class="cls-20">
               <path class="cls-21"
                     d="M36.7384,148.2449a2,2,0,1,1-2,2,2.0007,2.0007,0,0,1,2-2"/>
               <circle class="cls-4" cx="36.7384" cy="150.2449" r="2"/>
            </g>
         </g>
      </g>
      <g id="Artwork_13-2" data-name="Artwork 13">
         <g class="cls-22">
            <g class="cls-22">
               <path class="cls-21"
                     d="M36.7384,30.4353a2,2,0,1,1-2,2,2.0007,2.0007,0,0,1,2-2"/>
               <circle class="cls-4" cx="36.7384" cy="32.4353" r="2"/>
            </g>
         </g>
      </g>
      <g id="Artwork_20" data-name="Artwork 20">
         <g class="cls-23">
            <rect class="cls-18"
                  x="63.4641"
                  y="29.9341"
                  width="14.612"
                  height="5.032"/>
            <g class="cls-23">
               <line class="cls-4"
                     x1="63.4462"
                     y1="39.2123"
                     x2="78.0762"
                     y2="32.4463"/>
               <path d="M78.0761,33.4506h0a1,1,0,1,1,1-1,1.0029,1.0029,0,0,1-1,1"/>
               <path d="M63.4462,33.4506h0a1,1,0,1,1,1-1,1.0029,1.0029,0,0,1-1,1"/>
            </g>
         </g>
      </g>
      <g id="Artwork_20-2" data-name="Artwork 20">
         <g class="cls-24">
            <rect class="cls-18"
                  x="63.4641"
                  y="147.7339"
                  width="14.612"
                  height="5.032"/>
            <g class="cls-24">
               <line class="cls-4"
                     x1="63.4462"
                     y1="157.0121"
                     x2="78.0762"
                     y2="150.2461"/>
               <path d="M78.0761,151.25h0a1,1,0,1,1,1-1,1.0029,1.0029,0,0,1-1,1"/>
               <path d="M63.4462,151.25h0a1,1,0,1,1,1-1,1.0029,1.0029,0,0,1-1,1"/>
            </g>
         </g>
      </g>
      <text class="cls-25" transform="translate(16.1769 13.2645)">BYPASS<tspan x="4.4507" y="12">MAINS</tspan>
      </text>
      <text class="cls-25" transform="translate(95.0963 128.235)">INVERTER</text>
      <g>
         <path class="cls-26"
               d="M13.8506,124.41h2.6416a5.1519,5.1519,0,0,1,1.3623.1367,2.3891,2.3891,0,0,1,1.0791.6592,3.1288,3.1288,0,0,1,.6836,1.16,5.2826,5.2826,0,0,1,.2344,1.6919,4.7058,4.7058,0,0,1-.22,1.5235,3.1577,3.1577,0,0,1-.7666,1.2646,2.5412,2.5412,0,0,1-1.0157.5713,4.3659,4.3659,0,0,1-1.2793.1514h-2.72Zm1.4453,1.2109v4.7412H16.375a3.9417,3.9417,0,0,0,.874-.0684,1.333,1.333,0,0,0,.5835-.2978,1.5141,1.5141,0,0,0,.3785-.6909,4.674,4.674,0,0,0,.1464-1.3111,4.28,4.28,0,0,0-.1464-1.2744,1.6368,1.6368,0,0,0-.41-.6933,1.3755,1.3755,0,0,0-.6689-.337,6.57,6.57,0,0,0-1.1866-.0683Z"/>
         <path class="cls-26"
               d="M25.6573,128.9359l1.4013.4444a3.1441,3.1441,0,0,1-1.0718,1.7407,3.3726,3.3726,0,0,1-4.2456-.4053,3.7279,3.7279,0,0,1-.9179-2.6636,3.9128,3.9128,0,0,1,.9228-2.7758,3.1647,3.1647,0,0,1,2.4268-.9888,2.9779,2.9779,0,0,1,2.1338.7763,2.8237,2.8237,0,0,1,.7324,1.3184l-1.4307.3418A1.4789,1.4789,0,0,0,24.1,125.5228a1.629,1.629,0,0,0-1.2915.5713,2.8,2.8,0,0,0-.4956,1.8506,3.0021,3.0021,0,0,0,.4883,1.9336,1.585,1.585,0,0,0,1.27.5762,1.4478,1.4478,0,0,0,.9912-.3662A2.1287,2.1287,0,0,0,25.6573,128.9359Z"/>
         <path class="cls-26" d="M31.0332,131.5678V124.41h1.4453v7.1582Z"/>
         <path class="cls-26"
               d="M33.87,131.5678V124.41h1.4063l2.93,4.78v-4.78h1.3428v7.1582h-1.45L35.2129,126.9v4.668Z"/>
         <path class="cls-26"
               d="M41.0772,131.5678V124.41h2.3193a8.3989,8.3989,0,0,1,1.7188.1074,1.8761,1.8761,0,0,1,1.03.7007,2.2205,2.2205,0,0,1,.4151,1.394,2.3325,2.3325,0,0,1-.2393,1.1084,1.9678,1.9678,0,0,1-.6079.7056,2.091,2.091,0,0,1-.7495.3393,8.2462,8.2462,0,0,1-1.499.1026h-.9424v2.7Zm1.4453-5.9473v2.0312h.791a3.7419,3.7419,0,0,0,1.1426-.1123.9467.9467,0,0,0,.4516-.3515.9642.9642,0,0,0,.1636-.5567.9256.9256,0,0,0-.23-.6445.9992.9992,0,0,0-.581-.3174,6.9257,6.9257,0,0,0-1.04-.0488Z"/>
         <path class="cls-26"
               d="M47.7373,124.41h1.4453v3.8769a8.0518,8.0518,0,0,0,.0538,1.1963,1.1587,1.1587,0,0,0,.4418.7056,1.541,1.541,0,0,0,.9546.2661,1.4578,1.4578,0,0,0,.9278-.2515.9925.9925,0,0,0,.3759-.6177A8.027,8.027,0,0,0,52,128.3695v-3.96h1.4453v3.76a9.6661,9.6661,0,0,1-.1171,1.8213,2.015,2.015,0,0,1-.4322.8984,2.1836,2.1836,0,0,1-.8423.5835,3.6586,3.6586,0,0,1-1.3769.2173,3.9673,3.9673,0,0,1-1.5552-.2368,2.2224,2.2224,0,0,1-.8374-.6152,1.9709,1.9709,0,0,1-.4053-.7935,8.707,8.707,0,0,1-.1416-1.8164Z"/>
         <path class="cls-26"
               d="M56.58,131.5678v-5.9473h-2.124V124.41h5.6885v1.2109H58.0254v5.9473Z"/>
         <path class="cls-26"
               d="M18.5772,143.5678V136.41h2.3193a8.3989,8.3989,0,0,1,1.7188.1074,1.8761,1.8761,0,0,1,1.03.7007,2.2205,2.2205,0,0,1,.4151,1.394,2.3325,2.3325,0,0,1-.2393,1.1084,1.9678,1.9678,0,0,1-.6079.7056,2.091,2.091,0,0,1-.75.3393,8.2462,8.2462,0,0,1-1.499.1026h-.9424v2.7Zm1.4453-5.9473v2.0312h.791a3.7419,3.7419,0,0,0,1.1426-.1123.9467.9467,0,0,0,.4516-.3515.9642.9642,0,0,0,.1636-.5567.9256.9256,0,0,0-.23-.6445.9992.9992,0,0,0-.581-.3174,6.9257,6.9257,0,0,0-1.04-.0488Z"/>
         <path class="cls-26"
               d="M24.9541,140.0326a4.5488,4.5488,0,0,1,.3272-1.8359,3.3573,3.3573,0,0,1,.6665-.9815,2.7908,2.7908,0,0,1,.9253-.6445,3.926,3.926,0,0,1,1.5429-.2832,3.3612,3.3612,0,0,1,2.5318.9814,4.3859,4.3859,0,0,1,.0073,5.4419,3.3346,3.3346,0,0,1-2.52.979,3.3692,3.3692,0,0,1-2.5391-.9741A3.6963,3.6963,0,0,1,24.9541,140.0326Zm1.4893-.0488a2.6815,2.6815,0,0,0,.5615,1.8432,1.93,1.93,0,0,0,2.8442.0049,2.7343,2.7343,0,0,0,.5542-1.8677,2.6908,2.6908,0,0,0-.54-1.8359,1.999,1.999,0,0,0-2.8735.0073A2.7034,2.7034,0,0,0,26.4434,139.9838Z"/>
         <path class="cls-26"
               d="M34.041,143.5678,32.3321,136.41h1.4794l1.0792,4.9169,1.3085-4.9169H37.918l1.2549,5,1.0986-5h1.4551l-1.7383,7.1582H38.4551l-1.4258-5.3516-1.4209,5.3516Z"/>
         <path class="cls-26"
               d="M42.4639,143.5678V136.41h5.3076v1.2109H43.9092v1.5869H47.503v1.2061H43.9092v1.9482h3.999v1.2061Z"/>
         <path class="cls-26"
               d="M49.1387,143.5678V136.41h3.042a5.2121,5.2121,0,0,1,1.6675.1928,1.6455,1.6455,0,0,1,.8325.6861,2.06,2.06,0,0,1,.3125,1.1279,1.9106,1.9106,0,0,1-.4736,1.3306,2.2748,2.2748,0,0,1-1.4161.6616,3.3649,3.3649,0,0,1,.774.6006,8.161,8.161,0,0,1,.8227,1.1621l.874,1.3965H53.8457L52.8008,142.01a10.1276,10.1276,0,0,0-.7617-1.0522,1.11,1.11,0,0,0-.4346-.2979,2.382,2.382,0,0,0-.7275-.0805h-.293v2.9883Zm1.4453-4.1309h1.0693a5.5212,5.5212,0,0,0,1.2989-.0879.78.78,0,0,0,.4052-.3027.9315.9315,0,0,0,.1465-.5371.859.859,0,0,0-.1928-.5835.8858.8858,0,0,0-.5445-.2808q-.1758-.0241-1.0547-.0244H50.584Z"/>
      </g>
   </g>
   <g id="Parts">
      <g id="Artwork_13-3" data-name="Artwork 13">
         <g class="cls-27">
            <g class="cls-27">
               <path class="cls-21"
                     d="M314.7843,139.8738a2,2,0,1,1-2,2,2.0007,2.0007,0,0,1,2-2"/>
               <circle class="cls-4" cx="314.7843" cy="141.8738" r="2"/>
            </g>
         </g>
      </g>
      <g id="Artwork_11" data-name="Artwork 11">
         <g class="cls-28">
            <rect class="cls-18"
                  x="170.7196"
                  y="91.5318"
                  width="29.339"
                  height="29.423"/>
            <g class="cls-28">
               <rect class="cls-4"
                     x="170.7196"
                     y="91.5318"
                     width="29.339"
                     height="29.423"/>
               <line class="cls-16"
                     x1="170.7198"
                     y1="106.2434"
                     x2="200.0588"
                     y2="106.2434"/>
            </g>
            <rect class="cls-18"
                  x="178.0496"
                  y="98.6588"
                  width="15.128"
                  height="15.171"/>
            <rect class="cls-4"
                  x="178.0496"
                  y="98.6588"
                  width="15.128"
                  height="15.171"/>
            <line class="cls-4"
                  x1="183.0176"
                  y1="117.509"
                  x2="183.0176"
                  y2="110.149"/>
            <line class="cls-4"
                  x1="185.96"
                  y1="117.509"
                  x2="185.949"
                  y2="115.167"/>
            <path d="M189.2149,111.3647v4.929l-4.909-2.464Zm.75-1.216-7.33,3.681,7.33,3.679Z"/>
            <line class="cls-4"
                  x1="188.6758"
                  y1="95.0315"
                  x2="188.6758"
                  y2="102.3915"/>
            <line class="cls-4"
                  x1="185.3868"
                  y1="94.9807"
                  x2="185.3868"
                  y2="96.9937"/>
            <path d="M182.4717,96.1928l4.909,2.464-4.909,2.465Zm-.75-1.216v7.36l7.33-3.68Z"/>
            <g class="cls-28">
               <path class="cls-7"
                     d="M178.05,105.2424a1,1,0,1,1-.997,1,.9984.9984,0,0,1,.997-1"/>
               <circle class="cls-4" cx="178.0498" cy="106.2424" r="0.997"/>
               <path class="cls-7"
                     d="M193.1778,105.2434a1,1,0,1,1-.997,1,.9984.9984,0,0,1,.997-1"/>
               <circle class="cls-4" cx="193.1778" cy="106.2434" r="0.997"/>
               <g class="cls-11">
                  <g class="cls-29">
                     <text class="cls-30" transform="translate(201.0581 120.9543)">EN</text>
                  </g>
               </g>
            </g>
         </g>
      </g>
      <g id="shape116-109">
         <g class="cls-31">
            <g class="cls-31">
               <path class="cls-7"
                     d="M225.7843,149.2314a1.003,1.003,0,1,1-1,1.003,1.001,1.001,0,0,1,1-1.003"/>
               <circle class="cls-8" cx="225.7843" cy="150.2344" r="1"/>
            </g>
         </g>
      </g>
   </g>
   <g id="Text">
      <text class="cls-25" transform="translate(167.7865 74.2839)">STATIC<tspan x="-1.665" y="12">SWITCH</tspan>
      </text>
      <text class="cls-25" transform="translate(296.2639 135.845)">OUTPUT</text>
      <text class="cls-25" transform="translate(217.6237 13.2648)">MANUAL BYPASS<tspan x="23.894" y="12">SWITCH</tspan>
      </text>
   </g>
</svg>
