<?xml version="1.0" encoding="UTF-8"?>
<svg xmlns="http://www.w3.org/2000/svg"
     xmlns:xlink="http://www.w3.org/1999/xlink"
     width="125mm"
     height="60mm"
     viewBox="0 0 354.3307 170.0787">
   <defs>
      <style>
      .cls-1, .cls-10, .cls-15, .cls-18, .cls-3, .cls-4, .cls-6, .cls-7 {
        fill: none;
      }

      .cls-2 {
        clip-path: url(#clip-path);
      }

      .cls-3, .cls-6 {
        stroke: #626469;
      }

      .cls-10, .cls-18, .cls-3, .cls-4, .cls-6, .cls-7 {
        stroke-miterlimit: 3;
      }

      .cls-10, .cls-3, .cls-6 {
        stroke-width: 0.5px;
      }

      .cls-3 {
        stroke-dasharray: 2 1;
      }

      .cls-10, .cls-15, .cls-18, .cls-4, .cls-7 {
        stroke: #000;
      }

      .cls-15, .cls-4 {
        stroke-width: 0.75px;
      }

      .cls-5 {
        fill: #c6c6c6;
      }

      .cls-7 {
        stroke-width: 2px;
      }

      .cls-8 {
        fill: #626469;
      }

      .cls-20, .cls-9 {
        fill-rule: evenodd;
      }

      .cls-11 {
        isolation: isolate;
      }

      .cls-12 {
        clip-path: url(#clip-path-4);
      }

      .cls-13 {
        font-size: 6px;
      }

      .cls-13, .cls-24, .cls-25, .cls-29 {
        fill: #01889C;
      }

      .cls-13, .cls-24, .cls-29 {
        font-family: Arial-BoldMT, Arial;
        font-weight: 700;
      }

      .cls-14 {
        clip-path: url(#clip-path-5);
      }

      .cls-15 {
        stroke-miterlimit: 10;
      }

      .cls-16 {
        clip-path: url(#clip-path-6);
      }

      .cls-17, .cls-20 {
        fill: #fff;
      }

      .cls-18 {
        stroke-width: 0.7087px;
      }

      .cls-19 {
        clip-path: url(#clip-path-9);
      }

      .cls-21 {
        clip-path: url(#clip-path-11);
      }

      .cls-22 {
        clip-path: url(#clip-path-13);
      }

      .cls-23 {
        clip-path: url(#clip-path-15);
      }

      .cls-24 {
        font-size: 10px;
      }

      .cls-26 {
        clip-path: url(#clip-path-17);
      }

      .cls-27 {
        clip-path: url(#clip-path-19);
      }

      .cls-28 {
        clip-path: url(#clip-path-22);
      }

      .cls-29 {
        font-size: 8px;
      }

      .cls-30 {
        clip-path: url(#clip-path-23);
      }

      .cls-31 {
        clip-path: url(#clip-path-25);
      }
    </style>
      <clipPath id="clip-path">
         <rect class="cls-1"
               x="222.6208"
               y="121.7779"
               width="73.56"
               height="31.6341"/>
      </clipPath>
      <clipPath id="clip-path-4">
         <rect class="cls-1"
               x="243.3616"
               y="122.1291"
               width="24.6738"
               height="7.4067"/>
      </clipPath>
      <clipPath id="clip-path-5">
         <rect class="cls-1"
               x="251.0373"
               y="131.2516"
               width="16.9981"
               height="7.4063"/>
      </clipPath>
      <clipPath id="clip-path-6">
         <rect class="cls-1"
               x="102.6603"
               y="130.3917"
               width="35.434"
               height="39.6861"/>
      </clipPath>
      <clipPath id="clip-path-9">
         <rect class="cls-1"
               x="33.676"
               y="147.182"
               width="6.125"
               height="6.125"/>
      </clipPath>
      <clipPath id="clip-path-11">
         <rect class="cls-1"
               x="33.676"
               y="29.3724"
               width="6.125"
               height="6.125"/>
      </clipPath>
      <clipPath id="clip-path-13">
         <rect class="cls-1"
               x="62.4461"
               y="24.3008"
               width="16.63"
               height="16.2683"/>
      </clipPath>
      <clipPath id="clip-path-15">
         <rect class="cls-1"
               x="62.4461"
               y="142.1006"
               width="16.63"
               height="16.2683"/>
      </clipPath>
      <clipPath id="clip-path-17">
         <rect class="cls-1"
               x="321.9963"
               y="141.1158"
               width="6.125"
               height="6.125"/>
      </clipPath>
      <clipPath id="clip-path-19">
         <rect class="cls-1"
               x="169.3486"
               y="90.2428"
               width="46.8331"
               height="32"/>
      </clipPath>
      <clipPath id="clip-path-22">
         <rect class="cls-1"
               x="201.0586"
               y="114.091"
               width="11.1133"
               height="9.875"/>
      </clipPath>
      <clipPath id="clip-path-23">
         <rect class="cls-1"
               x="141.3052"
               y="30.2819"
               width="4.5709"
               height="4.5819"/>
      </clipPath>
      <clipPath id="clip-path-25">
         <rect class="cls-1"
               x="135.4618"
               y="57.6593"
               width="16.2683"
               height="16.63"/>
      </clipPath>
   </defs>
   <g id="MB_Auto" data-name="MB Auto">
      <g id="_2p_Bypass" data-name="2p Bypass">
         <g class="cls-2">
            <line class="cls-3"
                  x1="276.7395"
                  y1="147.277"
                  x2="276.7395"
                  y2="128.168"/>
            <line class="cls-4"
                  x1="225.8381"
                  y1="150.2458"
                  x2="259.4341"
                  y2="150.2458"/>
            <polyline class="cls-4" points="269.838 150.277 283.74 144.277 293.832 144.277"/>
            <line class="cls-5"
                  x1="268.0354"
                  y1="134.6911"
                  x2="281.5964"
                  y2="129.8381"/>
            <line class="cls-6"
                  x1="268.0354"
                  y1="134.6911"
                  x2="281.5964"
                  y2="129.8381"/>
            <line class="cls-7"
                  x1="255.8381"
                  y1="142.277"
                  x2="270.0331"
                  y2="142.277"/>
            <g class="cls-2">
               <line class="cls-7"
                     x1="255.8381"
                     y1="150.2771"
                     x2="270.0331"
                     y2="150.2771"/>
            </g>
            <line class="cls-8"
                  x1="268.0354"
                  y1="124.986"
                  x2="281.5964"
                  y2="129.839"/>
            <line class="cls-3"
                  x1="268.0354"
                  y1="124.986"
                  x2="281.5964"
                  y2="129.839"/>
            <g class="cls-2">
               <path class="cls-9" d="M293.2458,143.277a1,1,0,1,1-1,1,1,1,0,0,1,1-1"/>
               <circle class="cls-10" cx="293.2458" cy="144.277" r="1"/>
               <path class="cls-9" d="M225.8381,149.277a1,1,0,1,1-1,1,1,1,0,0,1,1-1"/>
               <circle class="cls-10" cx="225.8381" cy="150.277" r="1"/>
               <g class="cls-11">
                  <g class="cls-12">
                     <text class="cls-13" transform="translate(243.3615 127.2768)">BYPASS</text>
                  </g>
               </g>
               <g class="cls-11">
                  <g class="cls-14">
                     <text class="cls-13" transform="translate(251.0373 136.3988)">AUTO</text>
                  </g>
               </g>
            </g>
         </g>
      </g>
   </g>
   <g id="Paths">
      <polyline class="cls-15"
                points="225.786 150.244 225.786 106.243 143.591 106.243 143.591 32.573"/>
      <polyline class="cls-15"
                points="77.298 32.435 240.078 32.673 240.078 142.315 257.054 142.315"/>
      <path class="cls-4" d="M63.7533,150.2445H36.7388"/>
      <line class="cls-4"
            x1="293.0033"
            y1="144.2542"
            x2="325.0588"
            y2="144.2542"/>
      <line class="cls-15"
            x1="36.7388"
            y1="32.4349"
            x2="62.4461"
            y2="32.4349"/>
      <path class="cls-4" d="M225.7847,150.2445H79.0761"/>
      <g id="Inverter">
         <g class="cls-16">
            <rect class="cls-17"
                  x="103.368"
                  y="133.2255"
                  width="34.0176"
                  height="34.0166"/>
            <g class="cls-16">
               <rect class="cls-18"
                     x="103.368"
                     y="133.2255"
                     width="34.0166"
                     height="34.0166"/>
               <line class="cls-18"
                     x1="103.3709"
                     y1="167.2443"
                     x2="137.3866"
                     y2="133.2286"/>
            </g>
            <line class="cls-18"
                  x1="106.5572"
                  y1="139.6067"
                  x2="116.1206"
                  y2="139.6067"/>
            <line class="cls-18"
                  x1="108.8088"
                  y1="141.7327"
                  x2="106.5571"
                  y2="141.7327"/>
            <line class="cls-18"
                  x1="112.4642"
                  y1="141.7327"
                  x2="110.2135"
                  y2="141.7327"/>
            <line class="cls-18"
                  x1="116.1203"
                  y1="141.7327"
                  x2="113.8686"
                  y2="141.7327"/>
            <g class="cls-16">
               <path class="cls-18"
                     d="M125.692,159.92a2.1864,2.1864,0,0,1,2.126-2.0061c1.0413,0,1.87.53,2.1261,2.0061a2.138,2.138,0,0,0,2.126,2.0041,2.2986,2.2986,0,0,0,2.126-2.0041"/>
            </g>
         </g>
      </g>
      <g id="Artwork_13" data-name="Artwork 13">
         <g class="cls-19">
            <g class="cls-19">
               <path class="cls-20"
                     d="M36.7384,148.2449a2,2,0,1,1-2,2,2.0007,2.0007,0,0,1,2-2"/>
               <circle class="cls-4" cx="36.7384" cy="150.2449" r="2"/>
            </g>
         </g>
      </g>
      <g id="Artwork_13-2" data-name="Artwork 13">
         <g class="cls-21">
            <g class="cls-21">
               <path class="cls-20"
                     d="M36.7384,30.4353a2,2,0,1,1-2,2,2.0007,2.0007,0,0,1,2-2"/>
               <circle class="cls-4" cx="36.7384" cy="32.4353" r="2"/>
            </g>
         </g>
      </g>
      <g id="Artwork_20" data-name="Artwork 20">
         <g class="cls-22">
            <rect class="cls-17"
                  x="63.4641"
                  y="29.9341"
                  width="14.612"
                  height="5.032"/>
            <g class="cls-22">
               <line class="cls-4"
                     x1="63.4462"
                     y1="39.2123"
                     x2="78.0762"
                     y2="32.4463"/>
               <path d="M78.0761,33.4506h0a1,1,0,1,1,1-1,1.0029,1.0029,0,0,1-1,1"/>
               <path d="M63.4462,33.4506h0a1,1,0,1,1,1-1,1.0029,1.0029,0,0,1-1,1"/>
            </g>
         </g>
      </g>
      <g id="Artwork_20-2" data-name="Artwork 20">
         <g class="cls-23">
            <rect class="cls-17"
                  x="63.4641"
                  y="147.7339"
                  width="14.612"
                  height="5.032"/>
            <g class="cls-23">
               <line class="cls-4"
                     x1="63.4462"
                     y1="157.0121"
                     x2="78.0762"
                     y2="150.2461"/>
               <path d="M78.0761,151.25h0a1,1,0,1,1,1-1,1.0029,1.0029,0,0,1-1,1"/>
               <path d="M63.4462,151.25h0a1,1,0,1,1,1-1,1.0029,1.0029,0,0,1-1,1"/>
            </g>
         </g>
      </g>
      <text class="cls-24" transform="translate(16.1769 13.2645)">BYPASS<tspan x="4.4507" y="12">MAINS</tspan>
      </text>
      <text class="cls-24" transform="translate(95.0963 128.235)">INVERTER</text>
      <g>
         <path class="cls-25"
               d="M13.8506,124.41h2.6416a5.1307,5.1307,0,0,1,1.3623.1367,2.3822,2.3822,0,0,1,1.0791.6592,3.1271,3.1271,0,0,1,.6836,1.1592,5.2859,5.2859,0,0,1,.2344,1.6924,4.7094,4.7094,0,0,1-.22,1.5234,3.1609,3.1609,0,0,1-.7666,1.2647,2.5424,2.5424,0,0,1-1.0157.5713,4.3869,4.3869,0,0,1-1.2793.1513h-2.72Zm1.4453,1.211v4.7412H16.375a3.9793,3.9793,0,0,0,.874-.0684,1.3383,1.3383,0,0,0,.5835-.2978,1.5171,1.5171,0,0,0,.3785-.6915,4.67,4.67,0,0,0,.1464-1.3105,4.2757,4.2757,0,0,0-.1464-1.2744,1.6341,1.6341,0,0,0-.41-.6934,1.3763,1.3763,0,0,0-.6689-.3369,6.5219,6.5219,0,0,0-1.1866-.0683Z"/>
         <path class="cls-25"
               d="M25.6573,128.9361l1.4013.4443a3.1412,3.1412,0,0,1-1.0718,1.74,3.3708,3.3708,0,0,1-4.2456-.4053,3.7274,3.7274,0,0,1-.9179-2.6631,3.9146,3.9146,0,0,1,.9228-2.7764,3.1643,3.1643,0,0,1,2.4268-.9883,2.9776,2.9776,0,0,1,2.1338.7764,2.8182,2.8182,0,0,1,.7324,1.3184l-1.4307.3418A1.4789,1.4789,0,0,0,24.1,125.523a1.6287,1.6287,0,0,0-1.2915.5713,2.7987,2.7987,0,0,0-.4956,1.8506,3.004,3.004,0,0,0,.4883,1.9336,1.5864,1.5864,0,0,0,1.27.5761,1.4473,1.4473,0,0,0,.9912-.3662A2.13,2.13,0,0,0,25.6573,128.9361Z"/>
         <path class="cls-25" d="M31.0332,131.5679V124.41h1.4453v7.1582Z"/>
         <path class="cls-25"
               d="M33.87,131.5679V124.41h1.4063l2.93,4.78v-4.78h1.3428v7.1582h-1.45L35.2129,126.9v4.6679Z"/>
         <path class="cls-25"
               d="M41.0772,131.5679V124.41h2.3193a8.3687,8.3687,0,0,1,1.7188.1074,1.8789,1.8789,0,0,1,1.03.7,2.2225,2.2225,0,0,1,.4151,1.3946,2.3342,2.3342,0,0,1-.2393,1.1084,1.97,1.97,0,0,1-.6079.705,2.1013,2.1013,0,0,1-.7495.34,8.2572,8.2572,0,0,1-1.499.1025h-.9424v2.7Zm1.4453-5.9472v2.0312h.791a3.7584,3.7584,0,0,0,1.1426-.1123.9523.9523,0,0,0,.4516-.3516.9661.9661,0,0,0,.1636-.5566.9239.9239,0,0,0-.23-.6445.9932.9932,0,0,0-.581-.3174,6.8561,6.8561,0,0,0-1.04-.0488Z"/>
         <path class="cls-25"
               d="M47.7373,124.41h1.4453v3.877a8.0575,8.0575,0,0,0,.0538,1.1963,1.1559,1.1559,0,0,0,.4418.705,1.5372,1.5372,0,0,0,.9546.2666,1.4547,1.4547,0,0,0,.9278-.2519.99.99,0,0,0,.3759-.6172A8.027,8.027,0,0,0,52,128.37v-3.96h1.4453v3.76a9.67,9.67,0,0,1-.1171,1.8213,2.0175,2.0175,0,0,1-.4322.8984,2.1774,2.1774,0,0,1-.8423.583,3.65,3.65,0,0,1-1.3769.2178,3.9567,3.9567,0,0,1-1.5552-.2373,2.2119,2.2119,0,0,1-.8374-.6152,1.9691,1.9691,0,0,1-.4053-.793,8.7076,8.7076,0,0,1-.1416-1.8164Z"/>
         <path class="cls-25"
               d="M56.58,131.5679v-5.9472h-2.124V124.41h5.6885v1.211H58.0254v5.9472Z"/>
         <path class="cls-25"
               d="M18.5772,143.5679V136.41h2.3193a8.3687,8.3687,0,0,1,1.7188.1074,1.8789,1.8789,0,0,1,1.03.7,2.2225,2.2225,0,0,1,.4151,1.3946,2.3342,2.3342,0,0,1-.2393,1.1084,1.97,1.97,0,0,1-.6079.705,2.1013,2.1013,0,0,1-.75.34,8.2572,8.2572,0,0,1-1.499.1025h-.9424v2.7Zm1.4453-5.9472v2.0312h.791a3.7584,3.7584,0,0,0,1.1426-.1123.9523.9523,0,0,0,.4516-.3516.9661.9661,0,0,0,.1636-.5566.9239.9239,0,0,0-.23-.6445.9932.9932,0,0,0-.581-.3174,6.8561,6.8561,0,0,0-1.04-.0488Z"/>
         <path class="cls-25"
               d="M24.9541,140.0328a4.5464,4.5464,0,0,1,.3272-1.836,3.3437,3.3437,0,0,1,.6665-.9814,2.7748,2.7748,0,0,1,.9253-.6445,3.917,3.917,0,0,1,1.5429-.2833,3.3613,3.3613,0,0,1,2.5318.9815,4.3852,4.3852,0,0,1,.0073,5.4414,3.3334,3.3334,0,0,1-2.52.98,3.37,3.37,0,0,1-2.5391-.9746A3.6961,3.6961,0,0,1,24.9541,140.0328Zm1.4893-.0489a2.68,2.68,0,0,0,.5615,1.8428,1.9295,1.9295,0,0,0,2.8442.0049,2.7329,2.7329,0,0,0,.5542-1.8672,2.69,2.69,0,0,0-.54-1.8359,2,2,0,0,0-2.8735.0068A2.7048,2.7048,0,0,0,26.4434,139.9839Z"/>
         <path class="cls-25"
               d="M34.041,143.5679,32.3321,136.41h1.4794l1.0792,4.917,1.3085-4.917H37.918l1.2549,5,1.0986-5h1.4551l-1.7383,7.1582H38.4551l-1.4258-5.3515-1.4209,5.3515Z"/>
         <path class="cls-25"
               d="M42.4639,143.5679V136.41h5.3076v1.211H43.9092v1.5869H47.503v1.206H43.9092v1.9483h3.999v1.206Z"/>
         <path class="cls-25"
               d="M49.1387,143.5679V136.41h3.042a5.2291,5.2291,0,0,1,1.6675.1924,1.6468,1.6468,0,0,1,.8325.6865,2.0576,2.0576,0,0,1,.3125,1.128,1.9082,1.9082,0,0,1-.4736,1.33,2.2751,2.2751,0,0,1-1.4161.6621,3.3431,3.3431,0,0,1,.774.6006,8.143,8.143,0,0,1,.8227,1.1621l.874,1.3965H53.8457L52.8008,142.01a10.2149,10.2149,0,0,0-.7617-1.0527,1.1132,1.1132,0,0,0-.4346-.2979,2.3847,2.3847,0,0,0-.7275-.08h-.293v2.9883Zm1.4453-4.1308h1.0693a5.5212,5.5212,0,0,0,1.2989-.0879.7824.7824,0,0,0,.4052-.3028.9322.9322,0,0,0,.1465-.5371.8607.8607,0,0,0-.1928-.584.8877.8877,0,0,0-.5445-.28q-.1758-.0249-1.0547-.0244H50.584Z"/>
      </g>
   </g>
   <g id="Parts">
      <g id="Artwork_13-3" data-name="Artwork 13">
         <g class="cls-26">
            <g class="cls-26">
               <path class="cls-20"
                     d="M325.0587,142.1787a2,2,0,1,1-2,2,2.0007,2.0007,0,0,1,2-2"/>
               <circle class="cls-4" cx="325.0587" cy="144.1787" r="2"/>
            </g>
         </g>
      </g>
      <g id="Artwork_11" data-name="Artwork 11">
         <g class="cls-27">
            <rect class="cls-17"
                  x="170.7196"
                  y="91.5318"
                  width="29.339"
                  height="29.423"/>
            <g class="cls-27">
               <rect class="cls-4"
                     x="170.7196"
                     y="91.5318"
                     width="29.339"
                     height="29.423"/>
               <line class="cls-15"
                     x1="170.7198"
                     y1="106.2434"
                     x2="200.0588"
                     y2="106.2434"/>
            </g>
            <rect class="cls-17"
                  x="178.0496"
                  y="98.6588"
                  width="15.128"
                  height="15.171"/>
            <rect class="cls-4"
                  x="178.0496"
                  y="98.6588"
                  width="15.128"
                  height="15.171"/>
            <line class="cls-4"
                  x1="183.0176"
                  y1="117.509"
                  x2="183.0176"
                  y2="110.149"/>
            <line class="cls-4"
                  x1="185.96"
                  y1="117.509"
                  x2="185.949"
                  y2="115.167"/>
            <path d="M189.2149,111.3647v4.929l-4.909-2.464Zm.75-1.216-7.33,3.681,7.33,3.679Z"/>
            <line class="cls-4"
                  x1="188.6758"
                  y1="95.0315"
                  x2="188.6758"
                  y2="102.3915"/>
            <line class="cls-4"
                  x1="185.3868"
                  y1="94.9807"
                  x2="185.3868"
                  y2="96.9937"/>
            <path d="M182.4717,96.1928l4.909,2.464-4.909,2.465Zm-.75-1.216v7.36l7.33-3.68Z"/>
            <g class="cls-27">
               <path class="cls-9"
                     d="M178.05,105.2424a1,1,0,1,1-.997,1,.9984.9984,0,0,1,.997-1"/>
               <circle class="cls-4" cx="178.0498" cy="106.2424" r="0.997"/>
               <path class="cls-9"
                     d="M193.1778,105.2434a1,1,0,1,1-.997,1,.9984.9984,0,0,1,.997-1"/>
               <circle class="cls-4" cx="193.1778" cy="106.2434" r="0.997"/>
               <g class="cls-11">
                  <g class="cls-28">
                     <text class="cls-29" transform="translate(201.0581 120.9543)">EN</text>
                  </g>
               </g>
            </g>
         </g>
      </g>
      <g id="shape116-109">
         <g class="cls-30">
            <g class="cls-30">
               <path class="cls-9"
                     d="M143.59,31.57a1.003,1.003,0,1,1-1,1.003,1.001,1.001,0,0,1,1-1.003"/>
               <circle class="cls-10" cx="143.5903" cy="32.5725" r="1"/>
            </g>
         </g>
      </g>
      <g id="Artwork_20-3" data-name="Artwork 20">
         <g class="cls-31">
            <rect class="cls-17"
                  x="141.0648"
                  y="58.6773"
                  width="5.032"
                  height="14.612"/>
            <g class="cls-31">
               <line class="cls-4"
                     x1="143.5842"
                     y1="58.6594"
                     x2="136.8182"
                     y2="73.2894"/>
               <path d="M142.58,73.2893h0a1,1,0,1,1,1,1,1.0029,1.0029,0,0,1-1-1"/>
               <path d="M142.58,58.6594h0a1,1,0,1,1,1,1,1.0029,1.0029,0,0,1-1-1"/>
            </g>
         </g>
      </g>
   </g>
   <g id="Text">
      <text class="cls-24" transform="translate(167.7865 74.2839)">STATIC<tspan x="-1.665" y="12">SWITCH</tspan>
      </text>
      <text class="cls-24" transform="translate(306.2639 137.845)">OUTPUT</text>
      <text class="cls-24" transform="translate(249.2904 95.3767)">MANUAL BYPASS<tspan x="23.894" y="12">SWITCH</tspan>
      </text>
   </g>
</svg>
