<?xml version="1.0" encoding="UTF-8"?>
<svg xmlns="http://www.w3.org/2000/svg"
 id="Layer_1"
     data-name="Layer 1"
     width="180.6693mm"
     height="92mm"
     viewBox="0 0 512.1335 260.7874">
   <defs>
      <style>
      .cls-1 {
        fill: none;
      }

      .cls-1, .cls-3 {
        stroke: #000;
        stroke-linecap: round;
        stroke-linejoin: round;
        stroke-width: 0.3978px;
      }

      .cls-2 {
        font-size: 6.2537px;
        font-family: ArialMT, Arial;
      }

      .cls-3 {
        fill: #01889C;
      }
    </style>
   </defs>
   <g id="LINE">
      <line class="cls-1"
            x1="23.7115"
            y1="63.2544"
            x2="23.7115"
            y2="64.9562"/>
   </g>
   <g id="LINE-2" data-name="LINE">
      <line class="cls-1"
            x1="23.7115"
            y1="51.7022"
            x2="23.7115"
            y2="53.3199"/>
   </g>
   <g id="LWPOLYLINE">
      <polygon class="cls-1"
               points="16.454 4.257 30.969 4.257 23.711 15.661 16.454 4.257"/>
   </g>
   <g id="LWPOLYLINE-2" data-name="LWPOLYLINE">
      <polygon class="cls-1"
               points="29.673 116.328 29.673 130.842 41.077 123.585 29.673 116.328"/>
   </g>
   <g id="LWPOLYLINE-3" data-name="LWPOLYLINE">
      <polygon class="cls-1"
               points="52.999 116.224 52.999 130.738 41.595 123.481 52.999 116.224"/>
   </g>
   <g id="LWPOLYLINE-4" data-name="LWPOLYLINE">
      <polygon class="cls-1"
               points="247.645 236.485 247.645 250.999 259.049 243.742 247.645 236.485"/>
   </g>
   <g id="LINE-3" data-name="LINE">
      <line class="cls-1"
            x1="23.7115"
            y1="15.9039"
            x2="23.7115"
            y2="21.3099"/>
   </g>
   <g id="LINE-4" data-name="LINE">
      <line class="cls-1"
            x1="23.7115"
            y1="107.7016"
            x2="23.7115"
            y2="182.5746"/>
   </g>
   <g id="LINE-5" data-name="LINE">
      <line class="cls-1"
            x1="23.7115"
            y1="192.9419"
            x2="23.7115"
            y2="243.7416"/>
   </g>
   <g id="LINE-6" data-name="LINE">
      <line class="cls-1"
            x1="23.7115"
            y1="243.7416"
            x2="212.9211"
            y2="243.7416"/>
   </g>
   <g id="LINE-7" data-name="LINE">
      <line class="cls-1"
            x1="242.993"
            y1="243.7416"
            x2="246.9972"
            y2="243.7416"/>
   </g>
   <g id="LINE-8" data-name="LINE">
      <line class="cls-1"
            x1="24.501"
            y1="123.481"
            x2="28.7054"
            y2="123.481"/>
   </g>
   <g id="LINE-9" data-name="LINE">
      <line class="cls-1"
            x1="53.5919"
            y1="123.481"
            x2="56.2947"
            y2="123.481"/>
   </g>
   <g id="LINE-10" data-name="LINE">
      <line class="cls-1"
            x1="5.2282"
            y1="105.8861"
            x2="44.2163"
            y2="66.7952"/>
   </g>
   <g id="LINE-11" data-name="LINE">
      <line class="cls-1"
            x1="28.8951"
            y1="87.4029"
            x2="42.3726"
            y2="87.4029"/>
   </g>
   <g id="LINE-12" data-name="LINE">
      <line class="cls-1"
            x1="28.8951"
            y1="89.269"
            x2="32.5708"
            y2="89.269"/>
   </g>
   <g id="LINE-13" data-name="LINE">
      <line class="cls-1"
            x1="33.796"
            y1="89.269"
            x2="37.4717"
            y2="89.269"/>
   </g>
   <g id="LINE-14" data-name="LINE">
      <line class="cls-1"
            x1="38.6969"
            y1="89.269"
            x2="42.3726"
            y2="89.269"/>
   </g>
   <g id="ELLIPSE">
      <path class="cls-1" d="M11.53,72.37a3.5062,3.5062,0,0,0-3.3693,3.6286"/>
   </g>
   <g id="ELLIPSE-2" data-name="ELLIPSE">
      <path class="cls-1" d="M14.8993,75.9989A3.5062,3.5062,0,0,0,11.53,72.37"/>
   </g>
   <g id="ELLIPSE-3" data-name="ELLIPSE">
      <path class="cls-1" d="M14.8993,75.9989a3.5062,3.5062,0,0,0,3.3694,3.6285"/>
   </g>
   <g id="ELLIPSE-4" data-name="ELLIPSE">
      <path class="cls-1" d="M18.2687,79.6274a3.5062,3.5062,0,0,0,3.3693-3.6285"/>
   </g>
   <g id="LWPOLYLINE-5" data-name="LWPOLYLINE">
      <rect class="cls-1"
            x="4.0136"
            y="65.6316"
            width="41.4692"
            height="41.4692"
            rx="4.1469"/>
   </g>
   <g id="LINE-15" data-name="LINE">
      <line class="cls-1"
            x1="119.0906"
            y1="113.1138"
            x2="119.0906"
            y2="133.8483"/>
   </g>
   <g id="LINE-16" data-name="LINE">
      <line class="cls-1"
            x1="113.9069"
            y1="118.5047"
            x2="113.9069"
            y2="129.7014"/>
   </g>
   <g id="LWPOLYLINE-6" data-name="LWPOLYLINE">
      <rect class="cls-1"
            x="93.1723"
            y="106.8934"
            width="33.1753"
            height="33.1753"
            rx="4.1469"/>
   </g>
   <g id="LWPOLYLINE-7" data-name="LWPOLYLINE">
      <rect class="cls-1"
            x="9.1973"
            y="21.8816"
            width="29.0284"
            height="29.0284"
            rx="4.1469"/>
   </g>
   <g id="LINE-17" data-name="LINE">
      <line class="cls-1"
            x1="86.5669"
            y1="123.481"
            x2="92.5332"
            y2="123.481"/>
   </g>
   <g id="LWPOLYLINE-8" data-name="LWPOLYLINE">
      <rect class="cls-1"
            x="56.8868"
            y="110.0036"
            width="29.0284"
            height="29.0284"
            rx="4.1469"/>
   </g>
   <g id="LWPOLYLINE-9" data-name="LWPOLYLINE">
      <rect class="cls-1"
            x="213.4329"
            y="229.2274"
            width="29.0284"
            height="29.0284"
            rx="4.1469"/>
   </g>
   <g id="TEXT">
      <text class="cls-2" transform="translate(230.4046 239.3565)">ON</text>
   </g>
   <g id="TEXT-2" data-name="TEXT">
      <text class="cls-2" transform="translate(227.3148 255.3731)">OFF</text>
   </g>
   <g id="TEXT-3" data-name="TEXT">
      <text class="cls-2" transform="translate(24.1156 46.9907)">OFF</text>
   </g>
   <g id="TEXT-4" data-name="TEXT">
      <text class="cls-2" transform="translate(27.2064 30.9741)">ON</text>
   </g>
   <g id="TEXT-5" data-name="TEXT">
      <text class="cls-2" transform="translate(74.8958 119.0962)">ON</text>
   </g>
   <g id="TEXT-6" data-name="TEXT">
      <text class="cls-2" transform="translate(71.805 135.1128)">OFF</text>
   </g>
   <g id="CIRCLE">
      <path class="cls-3"
            d="M216.5431,238.558a4.1469,4.1469,0,1,1,4.1469,4.1469,4.1469,4.1469,0,0,1-4.1469-4.1469Z"/>
   </g>
   <g id="CIRCLE-2" data-name="CIRCLE">
      <path class="cls-1"
            d="M216.5431,248.9253a4.1469,4.1469,0,1,1,4.1469,4.1469,4.1469,4.1469,0,0,1-4.1469-4.1469Z"/>
   </g>
   <g id="CIRCLE-3" data-name="CIRCLE">
      <path class="cls-3"
            d="M19.5646,58.5036a4.1469,4.1469,0,1,1,4.1469,4.1469,4.1469,4.1469,0,0,1-4.1469-4.1469Z"/>
   </g>
   <g id="CIRCLE-4" data-name="CIRCLE">
      <path class="cls-1"
            d="M18.5278,58.5036a5.1837,5.1837,0,1,1,5.1837,5.1836,5.1837,5.1837,0,0,1-5.1837-5.1836Z"/>
   </g>
   <g id="CIRCLE-5" data-name="CIRCLE">
      <path class="cls-1"
            d="M18.5278,187.7583a5.1837,5.1837,0,1,1,5.1837,5.1836,5.1837,5.1837,0,0,1-5.1837-5.1836Z"/>
   </g>
   <g id="CIRCLE-6" data-name="CIRCLE">
      <path class="cls-3"
            d="M19.5646,187.7583a4.1469,4.1469,0,1,1,4.1469,4.1469,4.1469,4.1469,0,0,1-4.1469-4.1469Z"/>
   </g>
   <g id="CIRCLE-7" data-name="CIRCLE">
      <path class="cls-3"
            d="M19.5646,99.6363a4.1469,4.1469,0,1,1,4.1469,4.1469,4.1469,4.1469,0,0,1-4.1469-4.1469Z"/>
   </g>
   <g id="CIRCLE-8" data-name="CIRCLE">
      <path class="cls-1"
            d="M33.0421,99.6363a4.1469,4.1469,0,1,1,4.1469,4.1469,4.1469,4.1469,0,0,1-4.1469-4.1469Z"/>
   </g>
   <g id="CIRCLE-9" data-name="CIRCLE">
      <path class="cls-1"
            d="M100.4294,124.5178a4.147,4.147,0,1,1,4.147,4.1469,4.1469,4.1469,0,0,1-4.147-4.1469Z"/>
   </g>
   <g id="CIRCLE-10" data-name="CIRCLE">
      <path class="cls-3"
            d="M12.9827,30.2039A4.1469,4.1469,0,1,1,17.13,34.3508a4.1469,4.1469,0,0,1-4.1469-4.1469Z"/>
   </g>
   <g id="CIRCLE-11" data-name="CIRCLE">
      <path class="cls-1"
            d="M12.9827,40.5711a4.1469,4.1469,0,1,1,4.1469,4.147,4.1469,4.1469,0,0,1-4.1469-4.147Z"/>
   </g>
   <g id="CIRCLE-12" data-name="CIRCLE">
      <path class="cls-3"
            d="M61.0337,118.2974a4.147,4.147,0,1,1,4.147,4.1469,4.1469,4.1469,0,0,1-4.147-4.1469Z"/>
   </g>
   <g id="CIRCLE-13" data-name="CIRCLE">
      <path class="cls-1"
            d="M61.0337,128.6647a4.147,4.147,0,1,1,4.147,4.1469,4.1469,4.1469,0,0,1-4.147-4.1469Z"/>
   </g>
</svg>
