<?xml version="1.0" encoding="UTF-8"?>
<svg xmlns="http://www.w3.org/2000/svg"
     xmlns:xlink="http://www.w3.org/1999/xlink"
     width="500.4878"
     height="272.5846"
     viewBox="0 0 500.4878 272.5846">
   <defs>
      <style>
      .cls-1, .cls-10, .cls-11, .cls-12, .cls-16, .cls-17, .cls-18, .cls-22, .cls-23, .cls-4, .cls-5, .cls-6, .cls-7, .cls-8 {
        fill: none;
      }

      .cls-2 {
        fill: #01889C;
      }

      .cls-20, .cls-21, .cls-3 {
        font-size: 11.9192px;
      }

      .cls-13, .cls-14, .cls-20, .cls-21, .cls-25, .cls-27, .cls-3 {
        font-family: ArialMT, Arial;
      }

      .cls-4, .cls-5 {
        stroke: #000;
        stroke-miterlimit: 10;
      }

      .cls-4 {
        stroke-width: 1.0206px;
      }

      .cls-5 {
        stroke-width: 1.0141px;
      }

      .cls-23, .cls-24, .cls-6, .cls-7 {
        stroke: #010101;
      }

      .cls-6, .cls-7 {
        stroke-width: 0.9933px;
      }

      .cls-7 {
        stroke-dasharray: 4.0496 2.0248;
      }

      .cls-22, .cls-8 {
        stroke: #fff;
      }

      .cls-17, .cls-18, .cls-8 {
        stroke-miterlimit: 3.864;
      }

      .cls-8 {
        stroke-width: 1.9865px;
      }

      .cls-9 {
        clip-path: url(#clip-path);
      }

      .cls-10, .cls-11, .cls-12, .cls-16 {
        stroke: #231f20;
        stroke-linejoin: round;
      }

      .cls-10, .cls-11, .cls-12, .cls-16, .cls-22, .cls-23, .cls-24 {
        stroke-linecap: round;
      }

      .cls-10 {
        stroke-width: 0.9565px;
      }

      .cls-11 {
        stroke-width: 0.7639px;
      }

      .cls-12 {
        stroke-width: 0.4766px;
      }

      .cls-13 {
        font-size: 10.1387px;
      }

      .cls-13, .cls-14, .cls-20, .cls-21, .cls-26 {
        fill: #231f20;
      }

      .cls-14 {
        font-size: 13.519px;
      }

      .cls-15 {
        letter-spacing: 0.198em;
      }

      .cls-16 {
        stroke-width: 1.4365px;
      }

      .cls-17, .cls-18 {
        stroke: #1d1d1b;
      }

      .cls-17 {
        stroke-width: 0.8535px;
      }

      .cls-18 {
        stroke-width: 0.75px;
      }

      .cls-19, .cls-25 {
        fill: #fff;
      }

      .cls-21 {
        letter-spacing: 0.198em;
      }

      .cls-23 {
        stroke-width: 0.5px;
      }

      .cls-24 {
        fill: #010101;
        stroke-width: 0.106px;
      }

      .cls-25 {
        isolation: isolate;
        font-size: 16px;
      }

      .cls-26 {
        font-size: 15.8923px;
        font-family: Arial-BoldMT, Arial;
        font-weight: 700;
      }

      .cls-27 {
        font-weight: 400;
      }
    </style>
      <clipPath id="clip-path">
         <path class="cls-1"
               d="M-.989,221.44s-3.5154,15.0957,41.6759,15.9738,62.0208,24.6423,118.362,24.6423l1.4634-208.74H-1.9268Z"/>
      </clipPath>
   </defs>
   <title>Profibus-DP-Gateway_Modbus-Wiring</title>
   <g id="Layer_5" data-name="Layer 5">
      <rect class="cls-2"
            x="372.5872"
            y="78.1274"
            width="42.4633"
            height="130.5126"/>
      <rect x="414.5601" y="77.8498" width="0.4904" height="0.4904"/>
      <rect x="414.5601" y="77.8498" width="0.4904" height="0.4904"/>
      <text class="cls-3" transform="translate(401.1725 90.8274)">1</text>
      <text class="cls-3" transform="translate(401.1725 107.0832)">2</text>
      <text class="cls-3" transform="translate(401.1725 123.3411)">3</text>
      <text class="cls-3" transform="translate(401.1706 139.5989)">4</text>
      <text class="cls-3" transform="translate(401.1725 155.8606)">5</text>
      <text class="cls-3" transform="translate(401.1725 172.1155)">6</text>
      <text class="cls-3" transform="translate(401.1725 188.3733)">7</text>
      <text class="cls-3" transform="translate(401.1725 204.6301)">8</text>
      <rect class="cls-4"
            x="372.5872"
            y="78.1274"
            width="42.2505"
            height="130.4819"/>
      <rect class="cls-5"
            x="394.7673"
            y="78.0949"
            width="20.2832"
            height="16.368"/>
      <rect class="cls-5"
            x="394.7673"
            y="94.4059"
            width="20.2832"
            height="16.368"/>
      <rect class="cls-5"
            x="394.7673"
            y="110.7169"
            width="20.2832"
            height="16.368"/>
      <rect class="cls-5"
            x="394.7673"
            y="127.0279"
            width="20.2832"
            height="16.368"/>
      <rect class="cls-5"
            x="394.7673"
            y="143.339"
            width="20.2832"
            height="16.368"/>
      <rect class="cls-5"
            x="394.7673"
            y="159.65"
            width="20.2832"
            height="16.368"/>
      <rect class="cls-5"
            x="394.7673"
            y="175.961"
            width="20.2832"
            height="16.368"/>
      <rect class="cls-5"
            x="394.7673"
            y="192.272"
            width="20.2832"
            height="16.368"/>
      <g>
         <line class="cls-6"
               x1="416.5127"
               y1="208.6093"
               x2="418.4993"
               y2="208.6093"/>
         <line class="cls-7"
               x1="420.5239"
               y1="208.6093"
               x2="455.9578"
               y2="208.6093"/>
         <line class="cls-6"
               x1="456.97"
               y1="208.6093"
               x2="458.9565"
               y2="208.6093"/>
      </g>
      <g>
         <line class="cls-6"
               x1="416.5127"
               y1="78.3402"
               x2="418.4993"
               y2="78.3402"/>
         <line class="cls-7"
               x1="420.5239"
               y1="78.3402"
               x2="455.9578"
               y2="78.3402"/>
         <line class="cls-6"
               x1="456.97"
               y1="78.3402"
               x2="458.9565"
               y2="78.3402"/>
      </g>
      <line class="cls-8"
            x1="365.4689"
            y1="135.2119"
            x2="398.2507"
            y2="135.2119"/>
      <line class="cls-8"
            x1="367.7099"
            y1="151.523"
            x2="398.2507"
            y2="151.523"/>
      <line class="cls-8"
            x1="367.7099"
            y1="200.4845"
            x2="398.069"
            y2="200.4845"/>
      <g class="cls-9">
         <g>
            <path class="cls-2"
                  d="M135.2422,200.919H58.231a2.4839,2.4839,0,0,1-2.4843-2.4842v-9.6362h1.24v-1.7642l-3.9748-1.6664V178.7l3.9748-1.6664v-25.765l-3.9748-1.67V142.93l3.9748-1.6663V133.54h-1.24v-9.6326a2.4841,2.4841,0,0,1,2.4843-2.4844H78.0744l1.6663-3.9747h6.6686l1.6663,3.9747.063-.0714h17.39l.3187.0714,1.6663-3.9747h6.6685l1.6663,3.9747h19.8435a2.484,2.484,0,0,1,2.4842,2.4844V133.54h-1.24v7.7232L140.91,142.93v6.6686l-3.9748,1.67v25.765L140.91,178.7v6.6685l-3.9748,1.6664v1.7642h1.24v9.6362a2.4839,2.4839,0,0,1-2.4842,2.4842"/>
            <line class="cls-10"
                  x1="14.488"
                  y1="107.1229"
                  x2="14.488"
                  y2="256.0487"/>
            <line class="cls-10"
                  x1="148.6301"
                  y1="107.1229"
                  x2="148.6301"
                  y2="256.0487"/>
            <polyline class="cls-10"
                      points="9.482 305.754 19.315 305.754 19.315 256.052 9.482 256.052"/>
            <path class="cls-10"
                  d="M88.3019,121.4234l-1.6663-3.9747H79.9671l-1.6664,3.9747H58.4573a2.484,2.484,0,0,0-2.4842,2.4844V133.54h1.24v7.7232L53.2387,142.93v6.6686l3.9747,1.67v25.765L53.2387,178.7v6.6685l3.9747,1.6664v1.7642h-1.24v9.6362a2.4838,2.4838,0,0,0,2.4842,2.4842h77.0113"/>
            <path class="cls-10"
                  d="M105.624,121.4234l1.6663-3.9747h6.6685l1.6664,3.9747h19.8434a2.484,2.484,0,0,1,2.4842,2.4844V133.54h-1.24v7.7232l3.9748,1.6663v6.6686l-3.9748,1.67v25.765l3.9748,1.6664v6.6685l-3.9748,1.6664v1.7642h1.24v9.6362a2.4839,2.4839,0,0,1-2.4842,2.4842"/>
            <polyline class="cls-10"
                      points="54.398 180.967 57.142 180.048 59.698 180.048 59.698 184.023 57.142 184.023 54.388 183.093"/>
            <polyline class="cls-10"
                      points="139.528 180.967 136.783 180.048 134.228 180.048 134.228 184.023 136.783 184.023 139.538 183.093"/>
            <path class="cls-10" d="M54.398,183.1033a1.8715,1.8715,0,0,1,0-2.136"/>
            <path class="cls-10" d="M139.5279,183.1033a1.8719,1.8719,0,0,0,0-2.136"/>
            <path class="cls-10"
                  d="M57.2134,188.4941h1.7373a.7471.7471,0,0,0,.7469-.7467v-.7437H57.2168"/>
            <path class="cls-10"
                  d="M136.709,188.4941h-1.7407a.7464.7464,0,0,1-.7435-.7467v-.7437h2.4808"/>
            <path class="cls-10"
                  d="M57.2168,175.5727H58.954a.75.75,0,0,1,.747.747v.7437H57.22"/>
            <path class="cls-10"
                  d="M136.7124,175.5727h-1.7407a.7489.7489,0,0,0-.7436.747v.7437h2.4809"/>
            <line class="cls-10"
                  x1="58.491"
                  y1="184.019"
                  x2="58.491"
                  y2="180.0444"/>
            <line class="cls-10"
                  x1="135.4382"
                  y1="184.019"
                  x2="135.4382"
                  y2="180.0444"/>
            <line class="cls-10"
                  x1="58.4572"
                  y1="188.4906"
                  x2="58.4606"
                  y2="187.0002"/>
            <line class="cls-10"
                  x1="135.4686"
                  y1="188.4906"
                  x2="135.4686"
                  y2="187.0002"/>
            <line class="cls-10"
                  x1="58.4572"
                  y1="175.5692"
                  x2="58.4606"
                  y2="177.0599"/>
            <line class="cls-10"
                  x1="135.4686"
                  y1="175.5692"
                  x2="135.4686"
                  y2="177.0599"/>
            <path class="cls-10"
                  d="M57.2134,188.7914v9.6362a1.2412,1.2412,0,0,0,1.24,1.24h1.2438v1.244"/>
            <path class="cls-10"
                  d="M136.709,188.7914v9.6362a1.242,1.242,0,0,1-1.2438,1.24h-1.24v1.244"/>
            <path class="cls-10"
                  d="M57.2134,198.4276H58.704a1.0066,1.0066,0,0,1,.9936.9937v.25"/>
            <path class="cls-10"
                  d="M136.709,198.4276h-1.4906a1.0066,1.0066,0,0,0-.9936.9937v.25"/>
            <path class="cls-10"
                  d="M69.6346,169.1137l-.0439-9.9368H64.416a.7453.7453,0,0,1,0-1.4906H65.41a.7465.7465,0,0,0,.747-.7435v-.0035l-.0034-9.937a.7443.7443,0,0,1,.747-.7435h1.9874a.7443.7443,0,0,1,.7469.7435V148.99h54.6532v-1.9874a.7414.7414,0,0,1,.7436-.7435h1.9907a.7436.7436,0,0,1,.7436.7435v9.9405a.7458.7458,0,0,0,.7436.7435h.9937a.7453.7453,0,1,1,0,1.4906h-5.1712l-.044,9.9368"/>
            <path class="cls-10"
                  d="M69.6346,169.1137H64.4633a.7454.7454,0,1,0,0,1.4907l.9937-.0035a.7487.7487,0,0,1,.7436.7469l-.0439,12.4214v.0033a.9894.9894,0,0,0,.99.99h7.4561"/>
            <path class="cls-10"
                  d="M124.2878,169.1137h5.1746a.7454.7454,0,0,1,0,1.4907l-.997-.0035a.7487.7487,0,0,0-.7436.7469l.0439,12.4214v.0033a.9894.9894,0,0,1-.99.99h-7.456"/>
            <polyline class="cls-10"
                      points="66.201 171.598 67.444 171.598 67.384 183.536 74.603 183.522"/>
            <polyline class="cls-10"
                      points="127.722 171.598 126.478 171.598 126.539 183.536 119.319 183.522"/>
            <line class="cls-10"
                  x1="67.414"
                  y1="177.5635"
                  x2="74.6031"
                  y2="177.5635"/>
            <line class="cls-10"
                  x1="126.5118"
                  y1="177.5635"
                  x2="119.3227"
                  y2="177.5635"/>
            <path class="cls-10"
                  d="M74.6065,177.5635v9.1934a2.9757,2.9757,0,0,0,2.9777,2.9777h1.4939a.9933.9933,0,0,1,.9937.9937v3.9749a.991.991,0,0,0,.9937.9937h3.4779c.5644,0,1.2438.4326,1.2438.9937v4.2249"/>
            <path class="cls-10"
                  d="M119.3227,177.5635v9.1934a2.9758,2.9758,0,0,1-2.9777,2.9777h-1.494a.9932.9932,0,0,0-.9936.9937v3.9749a.9911.9911,0,0,1-.9937.9937h-3.4779c-.5645,0-1.2439.4326-1.2439.9937v4.2249"/>
            <line class="cls-10"
                  x1="79.0781"
                  y1="189.7346"
                  x2="81.3155"
                  y2="189.7381"/>
            <line class="cls-10"
                  x1="114.8545"
                  y1="189.7346"
                  x2="112.617"
                  y2="189.7381"/>
            <polyline class="cls-10" points="87.031 199.675 87.031 192.222 81.319 192.222"/>
            <polyline class="cls-10" points="106.905 199.675 106.905 192.222 112.617 192.222"/>
            <line class="cls-10"
                  x1="91.2526"
                  y1="197.1906"
                  x2="91.2526"
                  y2="188.4976"/>
            <line class="cls-10"
                  x1="102.6801"
                  y1="197.1906"
                  x2="102.6801"
                  y2="188.4976"/>
            <line class="cls-10"
                  x1="81.3156"
                  y1="188.4974"
                  x2="81.3156"
                  y2="192.2223"/>
            <line class="cls-10"
                  x1="112.617"
                  y1="188.4974"
                  x2="112.617"
                  y2="192.2223"/>
            <line class="cls-10"
                  x1="91.2526"
                  y1="188.4974"
                  x2="81.3156"
                  y2="188.4974"/>
            <line class="cls-10"
                  x1="102.6801"
                  y1="188.4974"
                  x2="112.617"
                  y2="188.4974"/>
            <polyline class="cls-10"
                      points="74.607 148.996 74.607 171.601 77.557 171.601 78.054 167.38 78.064 149"/>
            <polyline class="cls-10"
                      points="119.323 148.996 119.323 171.601 116.372 171.601 115.875 167.38 115.868 149"/>
            <polyline class="cls-10"
                      points="80.545 149 80.538 167.38 81.035 171.601 82.603 171.601 83.1 167.38 83.107 149.003"/>
            <polyline class="cls-10"
                      points="113.381 149 113.388 167.38 112.891 171.601 111.322 171.601 110.826 167.38 110.819 149.003"/>
            <polyline class="cls-10"
                      points="85.598 149 85.591 167.38 86.088 171.601 87.656 171.601 88.153 167.38 88.16 149.003"/>
            <polyline class="cls-10"
                      points="108.328 149 108.335 167.38 107.838 171.601 106.269 171.601 105.773 167.38 105.766 149.003"/>
            <polyline class="cls-10"
                      points="90.648 149 90.641 167.38 91.138 171.601 92.706 171.601 93.203 167.38 93.21 149.003"/>
            <polyline class="cls-10"
                      points="95.697 149 95.69 167.38 96.187 171.601 97.755 171.601 98.252 167.38 98.259 149.003"/>
            <polyline class="cls-10"
                      points="103.275 149 103.282 167.38 102.785 171.601 101.217 171.601 100.72 167.38 100.713 149.003"/>
            <line class="cls-10"
                  x1="78.1757"
                  y1="164.8954"
                  x2="80.4098"
                  y2="164.8954"/>
            <line class="cls-10"
                  x1="115.7468"
                  y1="164.8954"
                  x2="113.5127"
                  y2="164.8954"/>
            <line class="cls-10"
                  x1="83.2287"
                  y1="164.8954"
                  x2="85.4628"
                  y2="164.8954"/>
            <line class="cls-10"
                  x1="110.6972"
                  y1="164.8954"
                  x2="108.4597"
                  y2="164.8954"/>
            <line class="cls-10"
                  x1="88.2783"
                  y1="164.8954"
                  x2="90.5157"
                  y2="164.8954"/>
            <line class="cls-10"
                  x1="93.3312"
                  y1="164.8954"
                  x2="95.5653"
                  y2="164.8954"/>
            <line class="cls-10"
                  x1="98.3842"
                  y1="164.8954"
                  x2="100.6216"
                  y2="164.8954"/>
            <line class="cls-10"
                  x1="105.6442"
                  y1="164.8954"
                  x2="103.41"
                  y2="164.8954"/>
            <line class="cls-10"
                  x1="87.0276"
                  y1="197.1904"
                  x2="106.9015"
                  y2="197.1904"/>
            <line class="cls-10"
                  x1="85.7872"
                  y1="199.6746"
                  x2="108.1453"
                  y2="199.6746"/>
            <line class="cls-11"
                  x1="59.6978"
                  y1="151.9812"
                  x2="59.6978"
                  y2="176.3201"/>
            <line class="cls-11"
                  x1="134.2249"
                  y1="151.9779"
                  x2="134.2249"
                  y2="176.1376"/>
            <polyline class="cls-11" points="59.698 187.751 59.698 198.431 85.784 198.431"/>
            <polyline class="cls-11" points="108.142 198.459 134.225 198.431 134.225 187.751"/>
            <line class="cls-11"
                  x1="129.7533"
                  y1="159.14"
                  x2="129.7533"
                  y2="169.1615"/>
            <line class="cls-11"
                  x1="127.3603"
                  y1="159.1839"
                  x2="127.3603"
                  y2="169.1209"/>
            <line class="cls-11"
                  x1="66.5658"
                  y1="159.1839"
                  x2="66.5658"
                  y2="169.1209"/>
            <line class="cls-11"
                  x1="64.1695"
                  y1="159.14"
                  x2="64.1695"
                  y2="169.1615"/>
            <line class="cls-11"
                  x1="136.7835"
                  y1="177.0704"
                  x2="136.7835"
                  y2="180.0483"/>
            <line class="cls-11"
                  x1="59.7621"
                  y1="177.0704"
                  x2="59.7621"
                  y2="180.0483"/>
            <line class="cls-11"
                  x1="134.2283"
                  y1="177.0704"
                  x2="134.2283"
                  y2="180.0483"/>
            <line class="cls-11"
                  x1="57.2069"
                  y1="177.0704"
                  x2="57.2069"
                  y2="180.0483"/>
            <line class="cls-11"
                  x1="134.2283"
                  y1="184.0262"
                  x2="134.2283"
                  y2="187.0041"/>
            <line class="cls-11"
                  x1="57.2069"
                  y1="184.0262"
                  x2="57.2069"
                  y2="187.0041"/>
            <line class="cls-11"
                  x1="136.7126"
                  y1="184.0262"
                  x2="136.7092"
                  y2="187.0041"/>
            <line class="cls-11"
                  x1="59.6911"
                  y1="184.0262"
                  x2="59.6911"
                  y2="187.0041"/>
            <circle class="cls-10"
                    cx="29.3901"
                    cy="180.7948"
                    r="13.665"
                    transform="translate(-17.6722 3.7759) rotate(-5.655)"/>
            <path class="cls-12"
                  d="M29.39,192.8678A12.0747,12.0747,0,1,0,17.317,180.7913,12.0777,12.0777,0,0,0,29.39,192.8678Z"/>
            <path class="cls-10"
                  d="M22.5018,177.9591l3.4678-.0944a.4928.4928,0,0,0,.49-.49l.0946-3.4678q2.8392-.1065,5.6715,0"/>
            <path class="cls-10"
                  d="M26.5543,187.6865l-.0946-3.4711a.5.5,0,0,0-.49-.49l-3.4678-.0911q-.1115-2.8392,0-5.675"/>
            <path class="cls-10"
                  d="M36.2783,183.6341l-3.4678.0947a.495.495,0,0,0-.49.49l-.0946,3.4678q-2.839.1065-5.6715,0"/>
            <path class="cls-10"
                  d="M32.2258,173.91l.0947,3.4713a.4941.4941,0,0,0,.49.4867l3.4678.0946q.1065,2.8392,0,5.6715"/>
            <path class="cls-10"
                  d="M26.5543,173.91l1.5615,4.2622v.8652a.4868.4868,0,0,1-.4867.4867h-.8686l-4.2587-1.5615"/>
            <path class="cls-10"
                  d="M22.5018,183.6341l4.2621-1.5615h.8653a.4891.4891,0,0,1,.49.4834v.8687l-1.5649,4.262"/>
            <path class="cls-10"
                  d="M32.2258,187.6865l-1.5615-4.262v-.8652a.49.49,0,0,1,.4867-.49H32.02l4.2587,1.565"/>
            <path class="cls-10"
                  d="M36.2783,177.9591l-4.262,1.5617H31.151a.4891.4891,0,0,1-.49-.4834v-.8687l1.5649-4.262"/>
            <line class="cls-10"
                  x1="28.1158"
                  y1="178.1687"
                  x2="30.6609"
                  y2="178.1687"/>
            <line class="cls-10"
                  x1="26.7605"
                  y1="182.0691"
                  x2="26.7605"
                  y2="179.5241"/>
            <line class="cls-10"
                  x1="30.6609"
                  y1="183.4245"
                  x2="28.1158"
                  y2="183.4245"/>
            <line class="cls-10"
                  x1="32.0163"
                  y1="179.5241"
                  x2="32.0163"
                  y2="182.0693"/>
            <rect class="cls-10"
                  x="24.3135"
                  y="204.8767"
                  width="12.4202"
                  height="24.8415"/>
            <line class="cls-10"
                  x1="33.0066"
                  y1="204.8767"
                  x2="33.0066"
                  y2="229.7159"/>
            <line class="cls-10"
                  x1="28.0381"
                  y1="204.8767"
                  x2="28.0381"
                  y2="229.7159"/>
            <line class="cls-10"
                  x1="24.3135"
                  y1="213.82"
                  x2="28.0381"
                  y2="213.82"/>
            <line class="cls-10"
                  x1="24.3135"
                  y1="220.7758"
                  x2="28.0381"
                  y2="220.7758"/>
            <line class="cls-10"
                  x1="33.0066"
                  y1="213.82"
                  x2="36.7346"
                  y2="213.82"/>
            <line class="cls-10"
                  x1="33.0066"
                  y1="220.7758"
                  x2="36.7346"
                  y2="220.7758"/>
            <path class="cls-10"
                  d="M25.6384,276.99c-2.2781,0-4.13-3.2243-4.13-7.199s1.8522-7.1959,4.13-7.1959,4.1268,3.2211,4.1268,7.1959S27.9164,276.99,25.6384,276.99Z"/>
            <path class="cls-10"
                  d="M25.6384,259.6006c-2.2781,0-4.13-3.2243-4.13-7.1957,0-3.9782,1.8522-7.1992,4.13-7.1992s4.1268,3.221,4.1268,7.1992C29.7652,256.3763,27.9164,259.6006,25.6384,259.6006Z"/>
            <path class="cls-10" d="M27.72,263.5652a10.4759,10.4759,0,0,0,0,12.4448"/>
            <path class="cls-10" d="M27.72,246.1755a10.4759,10.4759,0,0,0,0,12.4448"/>
            <line class="cls-10"
                  x1="25.8581"
                  y1="271.9471"
                  x2="29.6503"
                  y2="270.2606"/>
            <line class="cls-10"
                  x1="25.8581"
                  y1="254.5574"
                  x2="29.6503"
                  y2="252.8709"/>
            <line class="cls-10"
                  x1="25.6756"
                  y1="269.3071"
                  x2="29.5219"
                  y2="267.597"/>
            <line class="cls-10"
                  x1="25.6756"
                  y1="251.9174"
                  x2="29.5219"
                  y2="250.204"/>
            <line class="cls-10"
                  x1="51.4643"
                  y1="278.0676"
                  x2="51.4643"
                  y2="261.4859"/>
            <line class="cls-10"
                  x1="51.4643"
                  y1="260.6779"
                  x2="51.4643"
                  y2="244.0995"/>
            <line class="cls-10"
                  x1="47.716"
                  y1="314.4929"
                  x2="47.716"
                  y2="242.4535"/>
            <line class="cls-12"
                  x1="31.5499"
                  y1="312.0402"
                  x2="31.5499"
                  y2="244.1109"/>
            <polyline class="cls-10"
                      points="51.468 274.009 63.247 274.009 63.247 265.563 51.468 265.563"/>
            <polyline class="cls-10"
                      points="51.468 256.619 63.247 256.619 63.247 248.173 51.468 248.173"/>
            <line class="cls-10"
                  x1="54.7293"
                  y1="274.0057"
                  x2="54.7293"
                  y2="265.5594"/>
            <line class="cls-10"
                  x1="54.7293"
                  y1="256.616"
                  x2="54.7293"
                  y2="248.1697"/>
            <line class="cls-10"
                  x1="61.6784"
                  y1="274.0022"
                  x2="61.6784"
                  y2="265.5559"/>
            <line class="cls-10"
                  x1="61.6784"
                  y1="256.6125"
                  x2="61.6784"
                  y2="248.1662"/>
            <polyline class="cls-12"
                      points="51.468 261.493 68.06 261.493 68.06 278.075 51.468 278.075"/>
            <polyline class="cls-12"
                      points="51.468 244.104 68.06 244.104 68.06 260.682 51.468 260.682"/>
            <path class="cls-10"
                  d="M68.0563,260.6855a3.951,3.951,0,0,0-1.3554-.9225,2.3678,2.3678,0,0,1-1.068-.6422l-2.39-2.5011"/>
            <path class="cls-10"
                  d="M68.0563,261.4932a3.9032,3.9032,0,0,1-1.3554.9227,2.3678,2.3678,0,0,0-1.068.6422l-2.39,2.5011"/>
            <path class="cls-10"
                  d="M68.0563,244.1034a3.952,3.952,0,0,1-1.3554.9228,2.3678,2.3678,0,0,0-1.068.6422l-2.39,2.5011"/>
            <rect class="cls-10"
                  x="19.4531"
                  y="242.4574"
                  width="49.6813"
                  height="72.0396"/>
            <path class="cls-10"
                  d="M137.7535,245.1883c2.278,0,4.1268,3.2246,4.1268,7.1993s-1.8488,7.1959-4.1268,7.1959-4.1269-3.2211-4.1269-7.1959S135.4754,245.1883,137.7535,245.1883Z"/>
            <path class="cls-10"
                  d="M137.7535,262.5781c2.278,0,4.1268,3.2245,4.1268,7.1992s-1.8488,7.1959-4.1268,7.1959-4.1269-3.221-4.1269-7.1959S135.4754,262.5781,137.7535,262.5781Z"/>
            <path class="cls-10" d="M135.6715,258.6135a10.4756,10.4756,0,0,0,0-12.4446"/>
            <path class="cls-10" d="M135.6715,276.0032a10.4756,10.4756,0,0,0,0-12.4446"/>
            <line class="cls-10"
                  x1="137.5338"
                  y1="250.2316"
                  x2="133.7415"
                  y2="251.9183"/>
            <line class="cls-10"
                  x1="137.5338"
                  y1="267.6213"
                  x2="133.7415"
                  y2="269.3113"/>
            <line class="cls-10"
                  x1="137.7163"
                  y1="252.8715"
                  x2="133.87"
                  y2="254.5852"/>
            <line class="cls-10"
                  x1="137.7163"
                  y1="270.2613"
                  x2="133.87"
                  y2="271.9716"/>
            <line class="cls-10"
                  x1="111.9275"
                  y1="244.1076"
                  x2="111.9275"
                  y2="260.6861"/>
            <line class="cls-10"
                  x1="111.9275"
                  y1="261.4938"
                  x2="111.9275"
                  y2="278.0757"/>
            <line class="cls-10"
                  x1="115.6758"
                  y1="242.4616"
                  x2="115.6758"
                  y2="314.5011"/>
            <line class="cls-12"
                  x1="131.8454"
                  y1="244.9253"
                  x2="131.8454"
                  y2="312.8549"/>
            <polyline class="cls-10"
                      points="111.928 248.173 100.149 248.173 100.149 256.62 111.928 256.62"/>
            <polyline class="cls-10"
                      points="111.928 265.563 100.149 265.563 100.149 274.01 111.928 274.01"/>
            <line class="cls-10"
                  x1="108.666"
                  y1="248.1769"
                  x2="108.666"
                  y2="256.6234"/>
            <line class="cls-10"
                  x1="108.666"
                  y1="265.5666"
                  x2="108.666"
                  y2="274.0131"/>
            <line class="cls-10"
                  x1="101.7169"
                  y1="248.1804"
                  x2="101.7169"
                  y2="256.6269"/>
            <line class="cls-10"
                  x1="101.7169"
                  y1="265.5701"
                  x2="101.7169"
                  y2="274.0166"/>
            <polyline class="cls-12"
                      points="111.928 260.686 95.336 260.686 95.336 244.107 111.928 244.107"/>
            <polyline class="cls-12"
                      points="111.928 278.075 95.336 278.075 95.336 261.494 111.928 261.494"/>
            <path class="cls-10"
                  d="M95.3356,244.1074a3.95,3.95,0,0,0,1.3553.9227,2.3678,2.3678,0,0,1,1.068.6422l2.39,2.5011"/>
            <path class="cls-10"
                  d="M95.3356,261.4936a3.9006,3.9006,0,0,0,1.3553.9227,2.3438,2.3438,0,0,1,1.068.6457l2.39,2.4976"/>
            <path class="cls-10"
                  d="M95.3356,260.6859a3.95,3.95,0,0,1,1.3553-.9225,2.3678,2.3678,0,0,0,1.068-.6422l2.39-2.5011"/>
            <rect class="cls-10"
                  x="94.2574"
                  y="242.4583"
                  width="49.6814"
                  height="72.0394"/>
            <rect class="cls-10"
                  x="42.4839"
                  y="205.8098"
                  width="25.3243"
                  height="22.9731"/>
            <line class="cls-10"
                  x1="55.145"
                  y1="205.8098"
                  x2="55.145"
                  y2="228.7833"/>
            <line class="cls-10"
                  x1="42.4839"
                  y1="217.2948"
                  x2="67.8096"
                  y2="217.2948"/>
            <text class="cls-13" transform="translate(45.3927 215.4275)">1</text>
            <line class="cls-10"
                  x1="61.3032"
                  y1="208.287"
                  x2="61.3032"
                  y2="211.3358"/>
            <line class="cls-10"
                  x1="57.3014"
                  y1="211.3356"
                  x2="65.2915"
                  y2="211.3356"/>
            <line class="cls-10"
                  x1="58.0855"
                  y1="213.0356"
                  x2="64.416"
                  y2="213.0356"/>
            <line class="cls-10"
                  x1="63.5643"
                  y1="214.7054"
                  x2="59.1366"
                  y2="214.7054"/>
            <line class="cls-10"
                  x1="60.4853"
                  y1="219.275"
                  x2="60.4853"
                  y2="227.2482"/>
            <line class="cls-10"
                  x1="62.2056"
                  y1="219.275"
                  x2="62.2056"
                  y2="227.2482"/>
            <line class="cls-10"
                  x1="62.2056"
                  y1="223.26"
                  x2="64.5513"
                  y2="223.26"/>
            <line class="cls-10"
                  x1="58.1363"
                  y1="223.26"
                  x2="60.4819"
                  y2="223.26"/>
            <text class="cls-13" transform="translate(44.6623 226.868)">Ø</text>
            <rect class="cls-10"
                  x="71.3179"
                  y="242.4646"
                  width="20.7729"
                  height="72.0361"/>
            <text class="cls-14" transform="translate(72.6506 257.2898)">
               <tspan class="cls-15">1</tspan>
               <tspan x="10.1953" y="0">4</tspan>
            </text>
            <text class="cls-14" transform="translate(72.6506 274.5643)">
               <tspan class="cls-15">2</tspan>
               <tspan x="10.1953" y="0">5</tspan>
            </text>
            <line class="cls-10"
                  x1="81.7044"
                  y1="314.5007"
                  x2="81.6976"
                  y2="242.4646"/>
            <line class="cls-10"
                  x1="71.3179"
                  y1="260.4761"
                  x2="92.0909"
                  y2="260.4761"/>
            <polyline class="cls-10"
                      points="34.335 65.29 34.335 71.901 24.324 71.904 24.324 77.623 34.335 77.623 34.335 107.123 14.488 107.123"/>
            <polyline class="cls-10"
                      points="128.787 65.29 128.787 71.901 138.798 71.904 138.798 77.623 128.787 77.623 128.787 107.123 148.633 107.123"/>
            <line class="cls-10"
                  x1="14.4881"
                  y1="59.3882"
                  x2="14.4881"
                  y2="80.4856"/>
            <line class="cls-10"
                  x1="148.6301"
                  y1="59.3882"
                  x2="148.6301"
                  y2="80.4856"/>
            <line class="cls-10"
                  x1="9.4824"
                  y1="80.4821"
                  x2="34.3349"
                  y2="80.4821"/>
            <line class="cls-10"
                  x1="153.6357"
                  y1="80.4821"
                  x2="128.7832"
                  y2="80.4821"/>
            <line class="cls-11"
                  x1="9.4824"
                  y1="90.8552"
                  x2="34.3349"
                  y2="90.8552"/>
            <line class="cls-11"
                  x1="153.6357"
                  y1="90.8552"
                  x2="128.7832"
                  y2="90.8552"/>
            <line class="cls-11"
                  x1="9.4824"
                  y1="98.183"
                  x2="34.3349"
                  y2="98.183"/>
            <line class="cls-11"
                  x1="153.6357"
                  y1="98.183"
                  x2="128.7832"
                  y2="98.183"/>
            <line class="cls-10"
                  x1="9.4824"
                  y1="107.1229"
                  x2="14.488"
                  y2="107.1229"/>
            <line class="cls-10"
                  x1="153.6357"
                  y1="107.1229"
                  x2="148.6301"
                  y2="107.1229"/>
            <line class="cls-10"
                  x1="14.4881"
                  y1="59.3884"
                  x2="34.3349"
                  y2="59.3884"/>
            <line class="cls-10"
                  x1="148.6301"
                  y1="59.3884"
                  x2="128.7832"
                  y2="59.3884"/>
            <polyline class="cls-10"
                      points="24.408 107.123 24.408 109.445 138.794 109.445 138.794 107.123"/>
            <line class="cls-10"
                  x1="34.3315"
                  y1="106.4097"
                  x2="128.7832"
                  y2="106.4097"/>
            <line class="cls-10"
                  x1="14.4847"
                  y1="77.9812"
                  x2="34.3315"
                  y2="77.9812"/>
            <line class="cls-10"
                  x1="128.7866"
                  y1="77.9812"
                  x2="148.6334"
                  y2="77.9812"/>
            <line class="cls-10"
                  x1="14.4847"
                  y1="71.1911"
                  x2="34.3315"
                  y2="71.1911"/>
            <line class="cls-10"
                  x1="128.7866"
                  y1="71.1911"
                  x2="148.6334"
                  y2="71.1911"/>
            <line class="cls-11"
                  x1="14.4881"
                  y1="64.2149"
                  x2="34.3349"
                  y2="64.2149"/>
            <line class="cls-11"
                  x1="128.79"
                  y1="64.2149"
                  x2="148.6368"
                  y2="64.2149"/>
            <line class="cls-11"
                  x1="34.3349"
                  y1="99.2542"
                  x2="128.7866"
                  y2="99.2542"/>
            <line class="cls-11"
                  x1="128.7866"
                  y1="84.4164"
                  x2="34.335"
                  y2="84.4164"/>
            <line class="cls-11"
                  x1="138.7979"
                  y1="72.4346"
                  x2="24.3237"
                  y2="72.4346"/>
            <line class="cls-11"
                  x1="34.335"
                  y1="67.6082"
                  x2="128.7866"
                  y2="67.6082"/>
            <line class="cls-11"
                  x1="128.7866"
                  y1="94.9619"
                  x2="34.335"
                  y2="94.9619"/>
            <line class="cls-11"
                  x1="128.7866"
                  y1="82.9834"
                  x2="34.335"
                  y2="82.9834"/>
            <polyline class="cls-10"
                      points="84.364 118.608 85.284 121.352 85.284 123.908 81.312 123.908 81.312 121.352 82.242 118.598"/>
            <polyline class="cls-10"
                      points="109.558 118.608 108.639 121.352 108.639 123.908 112.61 123.908 112.61 121.352 111.681 118.598"/>
            <polyline class="cls-10"
                      points="54.398 145.201 57.142 144.282 59.698 144.282 59.698 148.253 57.142 148.253 54.388 147.327"/>
            <polyline class="cls-10"
                      points="139.528 145.201 136.783 144.282 134.228 144.282 134.228 148.253 136.783 148.253 139.538 147.327"/>
            <path class="cls-10" d="M82.2316,118.6077a1.867,1.867,0,0,1,2.1327,0"/>
            <path class="cls-10" d="M111.6943,118.6077a1.8671,1.8671,0,0,0-2.1328,0"/>
            <path class="cls-10" d="M54.398,147.3336a1.8661,1.8661,0,0,1,0-2.1326"/>
            <path class="cls-10" d="M139.5279,147.3336a1.8664,1.8664,0,0,0,0-2.1326"/>
            <path class="cls-10"
                  d="M76.8406,121.4232v1.7374a.7494.7494,0,0,0,.747.7469h.7435v-2.4843"/>
            <path class="cls-10"
                  d="M117.0852,121.4232v1.7374a.7494.7494,0,0,1-.7469.7469h-.7436v-2.4843"/>
            <path class="cls-10"
                  d="M57.2169,151.234h2.4808v.747a.7458.7458,0,0,1-.7436.7437H57.2134"/>
            <path class="cls-10"
                  d="M136.709,151.234h-2.4809v.747a.7458.7458,0,0,0,.7436.7437h1.7407"/>
            <path class="cls-10"
                  d="M89.7586,121.4232v1.7374a.7494.7494,0,0,1-.747.7469h-.7435v-2.4843"/>
            <path class="cls-10"
                  d="M104.1672,121.4232v1.7374a.7494.7494,0,0,0,.7469.7469h.7436v-2.4843"/>
            <path class="cls-10"
                  d="M57.2168,139.8066H58.954a.7473.7473,0,0,1,.747.747v.7437H57.22"/>
            <path class="cls-10"
                  d="M136.7124,139.8066h-1.7407a.7466.7466,0,0,0-.7436.747v.7437h2.4809"/>
            <line class="cls-10"
                  x1="81.3122"
                  y1="122.6939"
                  x2="85.287"
                  y2="122.6939"/>
            <line class="cls-10"
                  x1="112.6136"
                  y1="122.6939"
                  x2="108.6388"
                  y2="122.6939"/>
            <line class="cls-10"
                  x1="58.491"
                  y1="148.2494"
                  x2="58.491"
                  y2="144.2747"/>
            <line class="cls-10"
                  x1="135.4382"
                  y1="148.2494"
                  x2="135.4382"
                  y2="144.2747"/>
            <line class="cls-10"
                  x1="76.8406"
                  y1="122.6601"
                  x2="78.3311"
                  y2="122.6601"/>
            <line class="cls-10"
                  x1="117.0852"
                  y1="122.6601"
                  x2="115.5946"
                  y2="122.6601"/>
            <line class="cls-10"
                  x1="58.4572"
                  y1="152.721"
                  x2="58.4606"
                  y2="151.2305"/>
            <line class="cls-10"
                  x1="135.4686"
                  y1="152.721"
                  x2="135.4686"
                  y2="151.2305"/>
            <line class="cls-10"
                  x1="89.7586"
                  y1="122.6601"
                  x2="88.2681"
                  y2="122.6601"/>
            <line class="cls-10"
                  x1="104.1672"
                  y1="122.6601"
                  x2="105.6577"
                  y2="122.6601"/>
            <line class="cls-10"
                  x1="58.4572"
                  y1="139.8031"
                  x2="58.4606"
                  y2="141.2938"/>
            <line class="cls-10"
                  x1="135.4686"
                  y1="139.8031"
                  x2="135.4686"
                  y2="141.2938"/>
            <path class="cls-10"
                  d="M57.2134,133.5367v-9.636a1.2412,1.2412,0,0,1,1.24-1.24h1.2438v-1.24"/>
            <path class="cls-10"
                  d="M136.709,133.5367v-9.636a1.242,1.242,0,0,0-1.2438-1.24h-1.24v-1.24"/>
            <path class="cls-10"
                  d="M57.2134,123.9005H58.704a1.0039,1.0039,0,0,0,.9936-.9935V122.66"/>
            <path class="cls-10"
                  d="M136.709,123.9005h-1.4906a1.0039,1.0039,0,0,1-.9936-.9935V122.66"/>
            <polyline class="cls-10" points="66.157 156.693 67.397 156.693 67.397 146.259"/>
            <polyline class="cls-10" points="127.766 156.693 126.525 156.693 126.525 146.259"/>
            <line class="cls-10"
                  x1="67.3971"
                  y1="149.9868"
                  x2="74.603"
                  y2="149.9868"/>
            <line class="cls-10"
                  x1="126.5253"
                  y1="149.9868"
                  x2="119.3193"
                  y2="149.9868"/>
            <line class="cls-10"
                  x1="88.2681"
                  y1="121.352"
                  x2="105.6577"
                  y2="121.352"/>
            <polyline class="cls-11" points="77.26 123.908 59.698 123.908 59.644 140.266"/>
            <line class="cls-11"
                  x1="89.0118"
                  y1="123.9075"
                  x2="104.9109"
                  y2="123.9075"/>
            <polyline class="cls-11" points="116.338 123.908 134.225 123.908 134.225 140.554"/>
            <line class="cls-11"
                  x1="68.8912"
                  y1="146.2625"
                  x2="125.0349"
                  y2="146.2625"/>
            <line class="cls-11"
                  x1="134.2283"
                  y1="141.2975"
                  x2="134.2283"
                  y2="144.2753"/>
            <line class="cls-11"
                  x1="57.2068"
                  y1="141.2975"
                  x2="57.2068"
                  y2="144.2753"/>
            <line class="cls-11"
                  x1="136.7125"
                  y1="141.2636"
                  x2="136.7125"
                  y2="144.2753"/>
            <line class="cls-11"
                  x1="59.6911"
                  y1="141.2636"
                  x2="59.6911"
                  y2="144.2753"/>
            <line class="cls-11"
                  x1="134.2283"
                  y1="148.2533"
                  x2="134.2283"
                  y2="151.2344"/>
            <line class="cls-11"
                  x1="57.2068"
                  y1="148.2533"
                  x2="57.2068"
                  y2="151.2344"/>
            <line class="cls-11"
                  x1="136.645"
                  y1="148.2533"
                  x2="136.645"
                  y2="151.2344"/>
            <line class="cls-11"
                  x1="59.6235"
                  y1="148.2533"
                  x2="59.6235"
                  y2="151.2344"/>
            <line class="cls-11"
                  x1="78.3314"
                  y1="123.9078"
                  x2="81.3124"
                  y2="123.9078"/>
            <line class="cls-11"
                  x1="85.2872"
                  y1="123.9078"
                  x2="88.2683"
                  y2="123.9078"/>
            <line class="cls-11"
                  x1="105.6579"
                  y1="123.9078"
                  x2="108.639"
                  y2="123.9078"/>
            <line class="cls-11"
                  x1="112.6138"
                  y1="123.9078"
                  x2="115.5948"
                  y2="123.9078"/>
            <line class="cls-11"
                  x1="78.3313"
                  y1="121.491"
                  x2="81.3123"
                  y2="121.491"/>
            <line class="cls-11"
                  x1="88.2683"
                  y1="121.4234"
                  x2="85.4967"
                  y2="121.4234"/>
            <line class="cls-11"
                  x1="105.6579"
                  y1="121.4234"
                  x2="108.497"
                  y2="121.4234"/>
            <line class="cls-11"
                  x1="115.5949"
                  y1="121.4234"
                  x2="112.7354"
                  y2="121.4234"/>
            <polygon class="cls-16"
                     points="153.632 503.489 153.632 58.317 128.783 58.317 128.783 65.29 34.335 65.29 34.335 58.317 9.482 58.317 9.482 503.489 34.335 503.489 34.335 496.516 128.783 496.516 128.783 503.489 153.632 503.489"/>
            <polyline class="cls-10"
                      points="153.632 305.754 143.8 305.754 143.8 256.052 153.632 256.052"/>
         </g>
      </g>
   </g>
   <g id="Layer_6" data-name="Layer 6">
      <polyline class="cls-17" points="332.587 219.783 384.599 219.783 384.599 208.64"/>
      <line class="cls-17"
            x1="352.5872"
            y1="200.456"
            x2="397.7783"
            y2="200.456"/>
      <line class="cls-18"
            x1="169.8073"
            y1="151.523"
            x2="397.7783"
            y2="151.523"/>
      <line class="cls-18"
            x1="169.8073"
            y1="135.2119"
            x2="397.7783"
            y2="135.2119"/>
      <polyline class="cls-18"
                points="169.807 167.834 352.587 167.834 352.587 200.456 397.778 200.456"/>
      <rect class="cls-19"
            x="182.4495"
            y="127.596"
            width="132.8554"
            height="14.8986"/>
      <rect class="cls-19"
            x="240.2163"
            y="160.3846"
            width="17.3235"
            height="14.8986"/>
      <text class="cls-20" transform="translate(241.2389 172.7308)">0V</text>
      <rect class="cls-19"
            x="182.4495"
            y="144.2864"
            width="132.8554"
            height="14.8986"/>
      <text class="cls-21" transform="translate(185.1456 154.3818)">D0=A’/Rx-,A’/Tx+</text>
      <text class="cls-21" transform="translate(185.1436 139.1645)">D1=B’/Rx+,B’/Tx-</text>
      <g>
         <line class="cls-22"
               x1="126.5118"
               y1="131.8012"
               x2="181.8356"
               y2="110.5407"/>
         <line class="cls-23"
               x1="181.8356"
               y1="110.5407"
               x2="126.5118"
               y2="131.8012"/>
         <circle class="cls-24" cx="181.8356" cy="110.5407" r="9.5"/>
         <text class="cls-25" transform="translate(176.0585 116.073)">D</text>
      </g>
      <g>
         <line class="cls-22"
               x1="431.8336"
               y1="104.9392"
               x2="480.5082"
               y2="86.2157"/>
         <line class="cls-23"
               x1="480.5082"
               y1="86.2157"
               x2="431.8336"
               y2="104.9392"/>
         <circle class="cls-24" cx="480.5082" cy="86.2157" r="9.5"/>
         <text class="cls-25" transform="translate(475.1727 91.748)">E</text>
      </g>
      <g>
         <text class="cls-21" transform="translate(418.4831 152.884)">D(A)</text>
         <text class="cls-21" transform="translate(418.4831 204.6311)">0V</text>
         <text class="cls-21" transform="translate(418.4831 138.97)">D(B)</text>
      </g>
      <text class="cls-26" transform="translate(6.9972 27.2703)">FL-PP-RJ45-SC<tspan class="cls-27">
            <tspan x="0" y="19.0703">Ethernet Patch Panel</tspan>
         </tspan>
      </text>
      <polyline class="cls-18"
                points="169.398 184.237 332.587 184.237 332.587 219.783 384.599 219.783 384.599 208.64"/>
      <rect class="cls-19"
            x="231.5699"
            y="176.6957"
            width="33.9164"
            height="14.8986"/>
      <text class="cls-20" transform="translate(231.7942 188.8655)">Shield</text>
      <text class="cls-26" transform="translate(372.5872 27.2701)">LUFP7<tspan class="cls-27">
            <tspan x="0" y="19.0703">Gateway</tspan>
         </tspan>
      </text>
   </g>
</svg>
