<?xml version="1.0" encoding="UTF-8"?>
<svg xmlns="http://www.w3.org/2000/svg"
     width="70.07371mm"
     height="67.28591mm"
     viewBox="0 0 198.63415 190.73171">
   <title>Modbus-Wiring_Diagrams</title>
   <g id="e862174f-9280-4223-89e8-a1da44c8b99c" data-name="Layer 1">
      <g>
         <rect x="40.75848"
               y="47.06695"
               width="14.17323"
               height="14.17323"
               fill="#fff"
               stroke="#231f20"
               stroke-miterlimit="10"/>
         <text transform="translate(12.08056 61.24005)"
               font-size="12"
               fill="#231f20"
               font-family="ArialMT, Arial">RX+</text>
         <rect x="40.75848"
               y="67.06695"
               width="14.17323"
               height="14.17323"
               fill="#fff"
               stroke="#231f20"
               stroke-miterlimit="10"/>
         <text transform="translate(15.09227 81.24005)"
               font-size="12"
               fill="#231f20"
               font-family="ArialMT, Arial">RX-</text>
         <rect x="40.75848"
               y="92.06695"
               width="14.17323"
               height="14.17323"
               fill="#fff"
               stroke="#231f20"
               stroke-miterlimit="10"/>
         <text transform="translate(13.41649 106.24005)"
               font-size="12"
               fill="#231f20"
               font-family="ArialMT, Arial">TX+</text>
         <rect x="40.75848"
               y="112.06695"
               width="14.17323"
               height="14.17323"
               fill="#fff"
               stroke="#231f20"
               stroke-miterlimit="10"/>
         <text transform="translate(16.42821 126.24005)"
               font-size="12"
               fill="#231f20"
               font-family="ArialMT, Arial">TX-</text>
         <rect x="40.75848"
               y="136.24018"
               width="14.17323"
               height="14.17323"
               fill="#fff"
               stroke="#231f20"
               stroke-miterlimit="10"/>
         <text transform="translate(10.42235 150.41327)"
               font-size="12"
               fill="#231f20"
               font-family="ArialMT, Arial">Com</text>
         <rect x="40.75848"
               y="156.24018"
               width="14.17323"
               height="14.17323"
               fill="#fff"
               stroke="#231f20"
               stroke-miterlimit="10"/>
         <text transform="translate(13.07665 170.41327)"
               font-size="12"
               fill="#231f20"
               font-family="ArialMT, Arial">Gnd</text>
      </g>
      <rect x="120.74515"
            y="57.68524"
            width="14.17323"
            height="14.17323"
            fill="#fff"
            stroke="#231f20"
            stroke-miterlimit="10"/>
      <rect x="120.74515"
            y="102.68524"
            width="14.17323"
            height="14.17323"
            fill="#fff"
            stroke="#231f20"
            stroke-miterlimit="10"/>
      <text transform="translate(124.4949 47.68515)"
            font-size="12"
            fill="#231f20"
            font-family="ArialMT, Arial">0</text>
      <text transform="translate(124.4949 134.14649)"
            font-size="12"
            fill="#231f20"
            font-family="ArialMT, Arial">0</text>
      <rect x="145.74515"
            y="57.68524"
            width="14.17323"
            height="14.17323"
            fill="#fff"
            stroke="#231f20"
            stroke-miterlimit="10"/>
      <rect x="145.74515"
            y="102.68524"
            width="14.17323"
            height="14.17323"
            fill="#fff"
            stroke="#231f20"
            stroke-miterlimit="10"/>
      <text transform="translate(149.49489 47.68515)"
            font-size="12"
            fill="#231f20"
            font-family="ArialMT, Arial">1</text>
      <text transform="translate(149.49489 134.14649)"
            font-size="12"
            fill="#231f20"
            font-family="ArialMT, Arial">1</text>
      <rect x="170.74515"
            y="57.68524"
            width="14.17323"
            height="14.17323"
            fill="#fff"
            stroke="#231f20"
            stroke-miterlimit="10"/>
      <rect x="170.74515"
            y="102.68524"
            width="14.17323"
            height="14.17323"
            fill="#fff"
            stroke="#231f20"
            stroke-miterlimit="10"/>
      <g>
         <path d="M177.21651,29.67328l1.13672.28711a3.82645,3.82645,0,0,1-1.28613,2.13574,3.54374,3.54374,0,0,1-2.27051.73535,4.08008,4.08008,0,0,1-2.25879-.56543,3.53062,3.53062,0,0,1-1.32422-1.63769,5.84342,5.84342,0,0,1-.4541-2.30274,5.06163,5.06163,0,0,1,.5127-2.34082,3.51267,3.51267,0,0,1,1.459-1.51757,4.26282,4.26282,0,0,1,2.083-.51856,3.52143,3.52143,0,0,1,2.168.65625,3.408,3.408,0,0,1,1.22461,1.8457l-1.11915.26368a2.65471,2.65471,0,0,0-.86718-1.36524,2.31089,2.31089,0,0,0-1.42969-.42773,2.77708,2.77708,0,0,0-1.65527.47461,2.50625,2.50625,0,0,0-.93457,1.27441,5.13062,5.13062,0,0,0-.26954,1.64941,5.24156,5.24156,0,0,0,.31934,1.91309,2.37885,2.37885,0,0,0,.99316,1.22168,2.7854,2.7854,0,0,0,1.459.4043,2.44485,2.44485,0,0,0,1.61719-.55078A2.81877,2.81877,0,0,0,177.21651,29.67328Z"
               fill="#231f20"/>
         <path d="M179.61885,32.685V24.09516h1.05469v3.082a2.35616,2.35616,0,0,1,1.86328-.85547,2.51259,2.51259,0,0,1,1.20118.27246,1.5998,1.5998,0,0,1,.72949.75293,3.471,3.471,0,0,1,.21972,1.39453V32.685h-1.05468V28.74164a1.62936,1.62936,0,0,0-.34278-1.15137,1.27455,1.27455,0,0,0-.96972-.36035,1.71,1.71,0,0,0-.88184.24316,1.37344,1.37344,0,0,0-.58887.65918,3.02774,3.02774,0,0,0-.17578,1.14844V32.685Z"
               fill="#231f20"/>
         <path d="M171.43624,43.71576V42.70795l3.63867-.00586v3.1875a6.42519,6.42519,0,0,1-1.72852,1.00488,5.1266,5.1266,0,0,1-1.82812.33692,4.87806,4.87806,0,0,1-2.29981-.542,3.58276,3.58276,0,0,1-1.56152-1.56738,4.93505,4.93505,0,0,1-.52734-2.291,5.31619,5.31619,0,0,1,.52441-2.34083,3.4876,3.4876,0,0,1,1.50879-1.61425,4.72821,4.72821,0,0,1,2.26758-.52735,4.49282,4.49282,0,0,1,1.68457.30176,2.793,2.793,0,0,1,1.18066.84082,3.72945,3.72945,0,0,1,.65039,1.40625l-1.02539.28125a3.17342,3.17342,0,0,0-.48047-1.03125,1.971,1.971,0,0,0-.82031-.60058,3.00822,3.00822,0,0,0-1.18359-.22559,3.48516,3.48516,0,0,0-1.34766.2373,2.51535,2.51535,0,0,0-.917.624,2.9755,2.9755,0,0,0-.542.84961,4.49547,4.49547,0,0,0-.32813,1.72851,4.1941,4.1941,0,0,0,.39551,1.92188,2.5312,2.5312,0,0,0,1.15137,1.14844,3.5647,3.5647,0,0,0,1.60547.375,3.81414,3.81414,0,0,0,1.4414-.28418,3.72037,3.72037,0,0,0,1.06641-.60645V43.71576Z"
               fill="#231f20"/>
         <path d="M176.61593,47.0849V40.86225h.94921V41.747a2.23687,2.23687,0,0,1,1.98047-1.02539,2.598,2.598,0,0,1,1.03418.20215,1.62664,1.62664,0,0,1,.70606.53027,2.03545,2.03545,0,0,1,.32812.7793,6.03925,6.03925,0,0,1,.0586,1.02539V47.0849h-1.05469V43.29975a2.84136,2.84136,0,0,0-.12305-.96387,1.0139,1.0139,0,0,0-.43652-.50977,1.38855,1.38855,0,0,0-.73535-.19043,1.70874,1.70874,0,0,0-1.16309.42774,2.11,2.11,0,0,0-.48926,1.623V47.0849Z"
               fill="#231f20"/>
         <path d="M187.32686,47.0849v-.78515a1.93545,1.93545,0,0,1-1.74023.92578,2.4402,2.4402,0,0,1-1.36817-.41016,2.6972,2.6972,0,0,1-.96679-1.14551,3.959,3.959,0,0,1-.34278-1.69043,4.42451,4.42451,0,0,1,.31055-1.69043,2.44927,2.44927,0,0,1,.93164-1.16308,2.49077,2.49077,0,0,1,1.38867-.4043,2.07508,2.07508,0,0,1,1.7168.85547v-3.082h1.04883V47.0849Zm-3.334-3.10547a2.70246,2.70246,0,0,0,.5039,1.78711,1.51945,1.51945,0,0,0,1.18946.5918,1.4916,1.4916,0,0,0,1.1748-.56543,2.60683,2.60683,0,0,0,.4834-1.72559,2.92623,2.92623,0,0,0-.49219-1.875,1.51386,1.51386,0,0,0-1.21289-.59765,1.46127,1.46127,0,0,0-1.1748.57422A2.834,2.834,0,0,0,183.99288,43.97943Z"
               fill="#231f20"/>
      </g>
      <text transform="translate(165.16384 134.14649)"
            font-size="12"
            fill="#231f20"
            font-family="ArialMT, Arial">Com</text>
      <text transform="translate(128.33198 32.68506)"
            font-size="12"
            fill="#231f20"
            font-family="ArialMT, Arial">TXD</text>
      <text transform="translate(127.66401 149.53665)"
            font-size="12"
            fill="#231f20"
            font-family="ArialMT, Arial">RXD</text>
      <g>
         <path d="M26.1169,13.84516V5.25531h1.71094l2.0332,6.082q.28125.84962.41016,1.27149.14647-.46875.457-1.377l2.05664-5.97656h1.5293v8.58985H33.21846V6.6557l-2.49609,7.18946H29.697L27.2126,6.53266v7.3125Z"
               fill="#231f20"/>
         <path d="M35.62081,10.73383a3.20735,3.20735,0,0,1,.96094-2.56055,2.8955,2.8955,0,0,1,1.957-.69141,2.79187,2.79187,0,0,1,2.09765.84082,3.1989,3.1989,0,0,1,.81446,2.32325,4.11643,4.11643,0,0,1-.36036,1.88964,2.55086,2.55086,0,0,1-1.04882,1.06934,3.05354,3.05354,0,0,1-1.50293.38086,2.7971,2.7971,0,0,1-2.11231-.83789A3.34681,3.34681,0,0,1,35.62081,10.73383Zm1.084,0a2.65048,2.65048,0,0,0,.52149,1.79,1.73638,1.73638,0,0,0,2.61914-.00293,2.71329,2.71329,0,0,0,.52148-1.82227,2.571,2.571,0,0,0-.52441-1.749,1.73875,1.73875,0,0,0-2.61621-.00293A2.63851,2.63851,0,0,0,36.70479,10.73383Z"
               fill="#231f20"/>
         <path d="M46.72432,13.84516V13.06a1.93543,1.93543,0,0,1-1.74023.92578,2.44017,2.44017,0,0,1-1.36816-.41016,2.69712,2.69712,0,0,1-.9668-1.1455,3.95907,3.95907,0,0,1-.34278-1.69043,4.42447,4.42447,0,0,1,.31055-1.69043,2.4493,2.4493,0,0,1,.93164-1.16309,2.4908,2.4908,0,0,1,1.38867-.4043,2.07515,2.07515,0,0,1,1.7168.85547v-3.082h1.04883v8.58985Zm-3.334-3.10547a2.70244,2.70244,0,0,0,.50391,1.78711,1.51941,1.51941,0,0,0,1.18945.59179,1.49157,1.49157,0,0,0,1.1748-.56543,2.60682,2.60682,0,0,0,.4834-1.72558,2.92619,2.92619,0,0,0-.49219-1.875,1.51385,1.51385,0,0,0-1.21289-.59766,1.4613,1.4613,0,0,0-1.1748.57422A2.83414,2.83414,0,0,0,43.39034,10.73969Z"
               fill="#231f20"/>
         <path d="M50.3337,13.84516h-.97852V5.25531h1.05469V8.31976A2.08693,2.08693,0,0,1,52.115,7.48187a2.61134,2.61134,0,0,1,1.08691.23145,2.2196,2.2196,0,0,1,.84375.65039,3.14385,3.14385,0,0,1,.51856,1.01074,4.16717,4.16717,0,0,1,.1875,1.26563,3.55456,3.55456,0,0,1-.791,2.47265,2.47409,2.47409,0,0,1-1.89844.873,1.98145,1.98145,0,0,1-1.72851-.91992ZM50.322,10.687a3.22957,3.22957,0,0,0,.30469,1.61719,1.50751,1.50751,0,0,0,2.543.21387,2.72916,2.72916,0,0,0,.5039-1.79,2.77635,2.77635,0,0,0-.4834-1.79883,1.47212,1.47212,0,0,0-1.16894-.58008,1.51689,1.51689,0,0,0-1.19531.60059A2.63649,2.63649,0,0,0,50.322,10.687Z"
               fill="#231f20"/>
         <path d="M60.113,13.84516v-.91407a2.27761,2.27761,0,0,1-1.97461,1.05469,2.51621,2.51621,0,0,1-1.02832-.21094,1.69373,1.69373,0,0,1-.709-.53027,1.98722,1.98722,0,0,1-.32519-.78223,5.35523,5.35523,0,0,1-.06446-.98437V7.6225h1.05469v3.45117a6.15005,6.15005,0,0,0,.06445,1.11328,1.09994,1.09994,0,0,0,.42188.65332,1.307,1.307,0,0,0,.79687.23731,1.73586,1.73586,0,0,0,.89063-.24317,1.35208,1.35208,0,0,0,.58887-.66211,3.32247,3.32247,0,0,0,.17285-1.21582V7.6225h1.05468v6.22266Z"
               fill="#231f20"/>
         <path d="M62.28682,11.98773l1.043-.16406a1.45777,1.45777,0,0,0,.48926.96094,1.70529,1.70529,0,0,0,1.12207.334,1.64846,1.64846,0,0,0,1.07813-.2959.8849.8849,0,0,0,.35156-.69433.64057.64057,0,0,0-.31055-.5625,4.57423,4.57423,0,0,0-1.07812-.35742,9.83866,9.83866,0,0,1-1.6084-.50684,1.53516,1.53516,0,0,1-.91114-1.42676,1.60269,1.60269,0,0,1,.19043-.77051,1.70767,1.70767,0,0,1,.51856-.58886,2.17367,2.17367,0,0,1,.6709-.30762,3.19042,3.19042,0,0,1,.91113-.126,3.60164,3.60164,0,0,1,1.28613.21094,1.74943,1.74943,0,0,1,.81739.57129,2.23239,2.23239,0,0,1,.36328.96387l-1.03125.14062a1.128,1.128,0,0,0-.40723-.75,1.48954,1.48954,0,0,0-.95215-.26953,1.72426,1.72426,0,0,0-1.03711.24024.69938.69938,0,0,0-.31054.5625.5822.5822,0,0,0,.1289.36914.93015.93015,0,0,0,.4043.28125q.15821.05859.93164.26953a12.96815,12.96815,0,0,1,1.56152.48926,1.58421,1.58421,0,0,1,.69434.55371,1.54555,1.54555,0,0,1,.252.90234,1.77075,1.77075,0,0,1-.30761.99316,1.98822,1.98822,0,0,1-.8877.72071,3.23123,3.23123,0,0,1-1.3125.25488,2.92384,2.92384,0,0,1-1.84863-.50391A2.34333,2.34333,0,0,1,62.28682,11.98773Z"
               fill="#231f20"/>
         <path d="M27.6169,25.23334l1.13672.28711a3.82645,3.82645,0,0,1-1.28613,2.13574,3.5438,3.5438,0,0,1-2.27051.73535,4.08008,4.08008,0,0,1-2.25879-.56543A3.53062,3.53062,0,0,1,21.614,26.18842a5.84342,5.84342,0,0,1-.4541-2.30274,5.06163,5.06163,0,0,1,.5127-2.34082,3.51275,3.51275,0,0,1,1.459-1.51758,4.263,4.263,0,0,1,2.083-.51855,3.52143,3.52143,0,0,1,2.168.65625,3.408,3.408,0,0,1,1.22461,1.8457l-1.11914.26367a2.65475,2.65475,0,0,0-.86719-1.36523,2.31082,2.31082,0,0,0-1.42969-.42773,2.77708,2.77708,0,0,0-1.65527.47461,2.50625,2.50625,0,0,0-.93457,1.27441,5.13061,5.13061,0,0,0-.26953,1.64941,5.24157,5.24157,0,0,0,.31933,1.91309,2.37882,2.37882,0,0,0,.99317,1.22168,2.78534,2.78534,0,0,0,1.459.4043,2.44481,2.44481,0,0,0,1.61719-.55079A2.81871,2.81871,0,0,0,27.6169,25.23334Z"
               fill="#231f20"/>
         <path d="M29.62667,25.13373a3.20739,3.20739,0,0,1,.96093-2.56055,2.89557,2.89557,0,0,1,1.957-.6914,2.79185,2.79185,0,0,1,2.09765.84082,3.19886,3.19886,0,0,1,.81446,2.32324,4.1165,4.1165,0,0,1-.36036,1.88965,2.55084,2.55084,0,0,1-1.04882,1.06933,3.05357,3.05357,0,0,1-1.50293.38086,2.79707,2.79707,0,0,1-2.11231-.83789A3.34681,3.34681,0,0,1,29.62667,25.13373Zm1.084,0a2.65048,2.65048,0,0,0,.52149,1.79,1.73636,1.73636,0,0,0,2.61914-.00293,2.71329,2.71329,0,0,0,.52148-1.82227,2.571,2.571,0,0,0-.52441-1.749,1.73875,1.73875,0,0,0-2.61621-.00293A2.63851,2.63851,0,0,0,30.71065,25.13373Z"
               fill="#231f20"/>
         <path d="M36.69307,28.24506V22.0224h.94922v.88477a2.23684,2.23684,0,0,1,1.98047-1.02539,2.59816,2.59816,0,0,1,1.03418.20214,1.62679,1.62679,0,0,1,.70606.53028,2.03539,2.03539,0,0,1,.32812.7793,6.03946,6.03946,0,0,1,.05859,1.02539v3.82617H40.695V24.4599a2.84136,2.84136,0,0,0-.123-.96387,1.01384,1.01384,0,0,0-.43652-.50976,1.38858,1.38858,0,0,0-.73536-.19043,1.70878,1.70878,0,0,0-1.16308.42773,2.11008,2.11008,0,0,0-.48926,1.62305v3.39844Z"
               fill="#231f20"/>
         <path d="M45.66964,27.3017l.15234.93164a3.91217,3.91217,0,0,1-.79688.09375,1.80409,1.80409,0,0,1-.89062-.18164,1.01706,1.01706,0,0,1-.44531-.47754,3.77616,3.77616,0,0,1-.12891-1.24512V22.84271h-.77344V22.0224h.77344v-1.541l1.04883-.63282V22.0224h1.06055v.82031H44.60909v3.63868a1.838,1.838,0,0,0,.05566.58007.43926.43926,0,0,0,.18164.20508.70169.70169,0,0,0,.36036.07617A3.43152,3.43152,0,0,0,45.66964,27.3017Z"
               fill="#231f20"/>
         <path d="M46.68917,28.24506V22.0224h.94922v.94336a2.5743,2.5743,0,0,1,.67089-.873,1.17115,1.17115,0,0,1,.67676-.21093,2.05725,2.05725,0,0,1,1.084.33984l-.36328.97852a1.509,1.509,0,0,0-.77344-.22852,1.00446,1.00446,0,0,0-.6211.208,1.12672,1.12672,0,0,0-.39257.57715,4.10806,4.10806,0,0,0-.17579,1.23047v3.25781Z"
               fill="#231f20"/>
         <path d="M50.3044,25.13373a3.20736,3.20736,0,0,1,.96094-2.56055,2.89556,2.89556,0,0,1,1.957-.6914A2.79185,2.79185,0,0,1,55.32,22.7226a3.19885,3.19885,0,0,1,.81445,2.32324,4.11665,4.11665,0,0,1-.36035,1.88965,2.55092,2.55092,0,0,1-1.04883,1.06933,3.05351,3.05351,0,0,1-1.50293.38086,2.79706,2.79706,0,0,1-2.1123-.83789A3.34681,3.34681,0,0,1,50.3044,25.13373Zm1.084,0a2.65048,2.65048,0,0,0,.52148,1.79,1.73636,1.73636,0,0,0,2.61914-.00293,2.71324,2.71324,0,0,0,.52149-1.82227,2.571,2.571,0,0,0-.52442-1.749,1.73875,1.73875,0,0,0-2.61621-.00293A2.63851,2.63851,0,0,0,51.38839,25.13373Z"
               fill="#231f20"/>
         <path d="M57.34737,28.24506V19.65521h1.05469v8.58985Z" fill="#231f20"/>
         <path d="M60.01339,28.24506V19.65521h1.05468v8.58985Z" fill="#231f20"/>
         <path d="M66.9626,26.24115l1.08985.13477a2.65906,2.65906,0,0,1-.95508,1.48242,3.2356,3.2356,0,0,1-3.94629-.31348,3.28542,3.28542,0,0,1-.7998-2.3584,3.43843,3.43843,0,0,1,.80859-2.4375,2.73707,2.73707,0,0,1,2.09766-.86718,2.66028,2.66028,0,0,1,2.03906.84961,3.37571,3.37571,0,0,1,.791,2.39062q0,.09375-.00585.28125H63.44112a2.3912,2.3912,0,0,0,.58008,1.57031,1.72651,1.72651,0,0,0,1.30078.54493,1.61385,1.61385,0,0,0,.99023-.30469A2.02252,2.02252,0,0,0,66.9626,26.24115Zm-3.46289-1.70508h3.47461a2.108,2.108,0,0,0-.39843-1.17773,1.61644,1.61644,0,0,0-1.30664-.60938,1.67545,1.67545,0,0,0-1.22168.48633A1.92482,1.92482,0,0,0,63.49971,24.53607Z"
               fill="#231f20"/>
         <path d="M69.36495,28.24506V22.0224h.94922v.94336a2.57417,2.57417,0,0,1,.6709-.873,1.1711,1.1711,0,0,1,.67675-.21093,2.05725,2.05725,0,0,1,1.084.33984l-.36328.97852a1.509,1.509,0,0,0-.77344-.22852,1.00441,1.00441,0,0,0-.62109.208,1.12667,1.12667,0,0,0-.39258.57715,4.10806,4.10806,0,0,0-.17578,1.23047v3.25781Z"
               fill="#231f20"/>
      </g>
   </g>
   <g id="e4177db2-5da9-48c9-894f-73e14e25ce34" data-name="Layer 2">
      <g>
         <path d="M127.83181,66.38166v9.47681H116.74515V62.95483H96.77951a2.848,2.848,0,0,0-2.77524,1.42683h0a3.52918,3.52918,0,0,1-5.6693,0h0a3.14322,3.14322,0,0,0-2.894-1.42683,2.78827,2.78827,0,0,0-2.7498,1.42683h0a2.99225,2.99225,0,0,1-2.83465,1.42683,3.14324,3.14324,0,0,1-2.894-1.42683h0a3.52917,3.52917,0,0,0-5.66929,0h0a2.78827,2.78827,0,0,1-2.7498,1.42683,2.99225,2.99225,0,0,1-2.83465-1.42683h0a3.21,3.21,0,0,0-2.91949-1.42683"
               fill="none"
               stroke="#c6c6c5"
               stroke-miterlimit="10"/>
         <path d="M152.83176,66.77186V79.85847H112.76718v-14.05H96.69467a2.78827,2.78827,0,0,1-2.7498-1.42683h0a2.99225,2.99225,0,0,0-2.83465-1.42683,2.78827,2.78827,0,0,0-2.7498,1.42683h0a2.99225,2.99225,0,0,1-2.83465,1.42683,3.21,3.21,0,0,1-2.91948-1.42683h0a2.99226,2.99226,0,0,0-2.83465-1.42683,2.78827,2.78827,0,0,0-2.7498,1.42683h0a2.99225,2.99225,0,0,1-2.83465,1.42683H74.1278a3.21,3.21,0,0,1-2.91949-1.42683h0a2.99225,2.99225,0,0,0-2.83465-1.42683,2.78827,2.78827,0,0,0-2.7498,1.42683h0a2.99225,2.99225,0,0,1-2.83465,1.42683"
               fill="none"
               stroke="#079547"
               stroke-miterlimit="10"/>
      </g>
      <g>
         <path d="M127.83181,107.77186V98.68524H116.74515v9.273l-19.96564-.00336a2.848,2.848,0,0,0-2.77524,1.42683h0a3.52918,3.52918,0,0,1-5.6693,0h0a3.14322,3.14322,0,0,0-2.894-1.42683,2.78827,2.78827,0,0,0-2.7498,1.42683h0a2.99225,2.99225,0,0,1-2.83465,1.42683,3.14324,3.14324,0,0,1-2.894-1.42683h0a3.52917,3.52917,0,0,0-5.66929,0h0a2.78827,2.78827,0,0,1-2.7498,1.42683,2.99225,2.99225,0,0,1-2.83465-1.42683h0a3.21,3.21,0,0,0-2.91949-1.42683"
               fill="none"
               stroke="#c6c6c5"
               stroke-miterlimit="10"/>
         <path d="M152.83181,107.77186l0-13.08662H112.76718v10.48494a.14759.14759,0,0,0,.12339.1482,2.36193,2.36193,0,0,1,1.98748,2.63914,2.81712,2.81712,0,0,1-1.12112,2.328,2.59726,2.59726,0,0,1-1.59.523H96.69467a2.78827,2.78827,0,0,1-2.7498-1.42683h0a2.99225,2.99225,0,0,0-2.83465-1.42683,2.78827,2.78827,0,0,0-2.7498,1.42683h0a2.99225,2.99225,0,0,1-2.83465,1.42683,3.21,3.21,0,0,1-2.91948-1.42683h0a2.99226,2.99226,0,0,0-2.83465-1.42683,2.78827,2.78827,0,0,0-2.7498,1.42683h0a2.99225,2.99225,0,0,1-2.83465,1.42683H74.1278a3.21,3.21,0,0,1-2.91949-1.42683h0a2.99225,2.99225,0,0,0-2.83465-1.42683,2.78827,2.78827,0,0,0-2.7498,1.42683h0a2.99225,2.99225,0,0,1-2.83465,1.42683"
               fill="none"
               stroke="#44b4e5"
               stroke-miterlimit="10"/>
      </g>
      <polyline points="49.845 54.154 59.223 54.154 59.223 62.955 62.789 62.955"
                fill="none"
                stroke="#c6c6c5"
                stroke-miterlimit="10"/>
      <polyline points="49.845 74.154 59.187 74.154 59.187 65.808 62.789 65.808"
                fill="none"
                stroke="#079547"
                stroke-miterlimit="10"/>
      <polyline points="49.845 99.154 59.223 99.154 59.223 107.955 62.789 107.955"
                fill="none"
                stroke="#c6c6c5"
                stroke-miterlimit="10"/>
      <polyline points="49.845 119.154 59.187 119.154 59.187 110.808 62.789 110.808"
                fill="none"
                stroke="#44b4e5"
                stroke-miterlimit="10"/>
      <path d="M49.845,163.46691H86.24382V147.01348a.24238.24238,0,0,1,.149-.22888,3.64525,3.64525,0,0,0,2.36323-3.31769,3.52956,3.52956,0,0,0-2.37938-3.26186.20838.20838,0,0,1-.13281-.19868l.04886-15.64052V113.54493a.13775.13775,0,0,1,.1044-.13592c.51014-.13148,2.71629-.88709,2.71629-4.12264,0-3.31053-2.30958-3.94-2.749-4.02977a.09044.09044,0,0,1-.07172-.09429V69.08164a.13775.13775,0,0,1,.1044-.13592c.51014-.13148,2.71629-.88709,2.71629-4.12264,0-3.31053-2.30958-3.94-2.749-4.02977a.09044.09044,0,0,1-.07172-.09429V53.68524h91.53908v8.69642"
            fill="none"
            stroke="#626469"
            stroke-miterlimit="10"/>
      <polyline points="177.832 111.772 177.832 120.858 97.658 120.858 97.658 143.467 49.845 143.467"
                fill="none"
                stroke="#626469"
                stroke-miterlimit="10"/>
      <g>
         <line x1="47.84496"
               y1="165.3731"
               x2="47.84496"
               y2="180.45972"
               fill="none"
               stroke="#626469"
               stroke-miterlimit="3"/>
         <line x1="55.20906"
               y1="180.5033"
               x2="40.48095"
               y2="180.5033"
               fill="none"
               stroke="#626469"
               stroke-miterlimit="3"/>
         <line x1="52.34191"
               y1="182.51725"
               x2="43.34801"
               y2="182.51725"
               fill="none"
               stroke="#626469"
               stroke-miterlimit="3"/>
         <line x1="49.47918"
               y1="184.53217"
               x2="46.21097"
               y2="184.53217"
               fill="none"
               stroke="#626469"
               stroke-miterlimit="3"/>
      </g>
   </g>
</svg>
