<?xml version="1.0" encoding="UTF-8"?>
<svg xmlns="http://www.w3.org/2000/svg"
     xmlns:xlink="http://www.w3.org/1999/xlink"
     width="90mm"
     height="25mm"
     viewBox="0 0 255.1181 70.8661">
   <defs>
      <style>
      .cls-1 {
        clip-path: url(#clippath-11);
      }

      .cls-2 {
        stroke-width: .645px;
      }

      .cls-2, .cls-3, .cls-4 {
        fill: none;
      }

      .cls-2, .cls-4 {
        stroke: #000;
        stroke-miterlimit: 3;
      }

      .cls-5 {
        clip-path: url(#clippath-2);
      }

      .cls-6, .cls-3, .cls-7, .cls-8 {
        stroke-width: 0px;
      }

      .cls-9 {
        clip-path: url(#clippath-6);
      }

      .cls-10 {
        clip-path: url(#clippath-7);
      }

      .cls-11 {
        clip-path: url(#clippath-1);
      }

      .cls-12 {
        clip-path: url(#clippath-4);
      }

      .cls-4 {
        stroke-width: .75px;
      }

      .cls-13 {
        clip-path: url(#clippath-12);
      }

      .cls-7, .cls-8 {
        fill: #fff;
      }

      .cls-8 {
        fill-rule: evenodd;
      }

      .cls-14 {
        clip-path: url(#clippath-9);
      }

      .cls-15 {
        clip-path: url(#clippath);
      }

      .cls-16 {
        clip-path: url(#clippath-3);
      }

      .cls-17 {
        clip-path: url(#clippath-8);
      }

      .cls-18 {
        clip-path: url(#clippath-5);
      }

      .cls-19 {
        clip-path: url(#clippath-10);
      }

      .cls-20 {
        fill: #01889C;
        font-family: Arial-BoldMT, Arial;
        font-size: 10px;
        font-weight: 700;
      }
    </style>
      <clipPath id="clippath">
         <rect class="cls-3"
               x="66.5336"
               y="35.9378"
               width="16.63"
               height="16.2683"/>
      </clipPath>
      <clipPath id="clippath-1">
         <rect class="cls-3"
               x="66.5336"
               y="35.9381"
               width="16.63"
               height="16.268"/>
      </clipPath>
      <clipPath id="clippath-2">
         <rect class="cls-3"
               x="205.073"
               y="40.9474"
               width="6.125"
               height="6.125"/>
      </clipPath>
      <clipPath id="clippath-3">
         <rect class="cls-3"
               x="205.073"
               y="40.9474"
               width="6.125"
               height="6.125"/>
      </clipPath>
      <clipPath id="clippath-4">
         <rect class="cls-3"
               x="34.8477"
               y="40.9474"
               width="6.125"
               height="6.125"/>
      </clipPath>
      <clipPath id="clippath-5">
         <rect class="cls-3"
               x="34.8477"
               y="40.9474"
               width="6.125"
               height="6.125"/>
      </clipPath>
      <clipPath id="clippath-6">
         <rect class="cls-3"
               x="171.5055"
               y="35.8757"
               width="16.63"
               height="16.2683"/>
      </clipPath>
      <clipPath id="clippath-7">
         <rect class="cls-3"
               x="171.5055"
               y="35.876"
               width="16.63"
               height="16.268"/>
      </clipPath>
      <clipPath id="clippath-8">
         <rect class="cls-3"
               x="103.1636"
               y="24.2482"
               width="38.2419"
               height="40.5368"/>
      </clipPath>
      <clipPath id="clippath-9">
         <rect class="cls-3"
               x="109.1626"
               y="28.674"
               width="32.242"
               height="36.111"/>
      </clipPath>
      <clipPath id="clippath-10">
         <rect class="cls-3"
               x="106.1636"
               y="26.493"
               width="32.242"
               height="36.112"/>
      </clipPath>
      <clipPath id="clippath-11">
         <rect class="cls-3"
               x="103.1636"
               y="24.248"
               width="32.242"
               height="36.112"/>
      </clipPath>
      <clipPath id="clippath-12">
         <rect class="cls-3"
               x="103.1636"
               y="24.248"
               width="32.242"
               height="36.112"/>
      </clipPath>
   </defs>
   <g id="Paths">
      <path class="cls-4" d="m172.0627,44.0719H37.9102"/>
      <path class="cls-4" d="m208.1169,44.0719h-20.45"/>
   </g>
   <g id="Parts">
      <g id="Artwork_20" data-name="Artwork 20">
         <g class="cls-15">
            <rect class="cls-7"
                  x="67.5516"
                  y="41.5711"
                  width="14.612"
                  height="5.032"/>
            <g class="cls-11">
               <line class="cls-4"
                     x1="67.5337"
                     y1="50.8493"
                     x2="82.1637"
                     y2="44.0833"/>
               <path class="cls-6"
                     d="m82.1636,45.0876h0c-.55,0-1-.45-1-1,0-.551.45-1,1-1s1,.449,1,1c0,.55-.45,1-1,1"/>
               <path class="cls-6"
                     d="m67.5337,45.0876h0c-.55,0-1-.45-1-1,0-.551.45-1,1-1s1,.449,1,1c0,.55-.45,1-1,1"/>
            </g>
         </g>
      </g>
      <g id="Artwork_13" data-name="Artwork 13">
         <g class="cls-5">
            <g class="cls-16">
               <path class="cls-8"
                     d="m208.1354,42.0103c1.104,0,2,.896,2,2s-.896,2-2,2-2-.896-2-2,.896-2,2-2"/>
               <circle class="cls-4" cx="208.1354" cy="44.0103" r="2"/>
            </g>
         </g>
      </g>
      <g id="Artwork_13-2" data-name="Artwork 13">
         <g class="cls-12">
            <g class="cls-18">
               <path class="cls-8"
                     d="m37.9101,42.0103c1.104,0,2,.896,2,2s-.896,2-2,2-2-.896-2-2,.896-2,2-2"/>
               <circle class="cls-4" cx="37.9101" cy="44.0103" r="2"/>
            </g>
         </g>
      </g>
      <g id="Artwork_20-2" data-name="Artwork 20">
         <g class="cls-9">
            <rect class="cls-7"
                  x="172.5235"
                  y="41.509"
                  width="14.612"
                  height="5.032"/>
            <g class="cls-10">
               <line class="cls-4"
                     x1="172.5056"
                     y1="50.7872"
                     x2="187.1356"
                     y2="44.0212"/>
               <path class="cls-6"
                     d="m187.1355,45.0255h0c-.55,0-1-.45-1-1,0-.551.45-1,1-1s1,.449,1,1c0,.55-.45,1-1,1"/>
               <path class="cls-6"
                     d="m172.5056,45.0255h0c-.55,0-1-.45-1-1,0-.551.45-1,1-1s1,.449,1,1c0,.55-.45,1-1,1"/>
            </g>
         </g>
      </g>
      <g id="Modular_Inverter" data-name="Modular Inverter">
         <g class="cls-17">
            <rect class="cls-7"
                  x="109.8076"
                  y="31.253"
                  width="30.952"
                  height="30.952"/>
            <rect class="cls-2"
                  x="109.8074"
                  y="31.2527"
                  width="30.952"
                  height="30.952"/>
            <line class="cls-2"
                  x1="109.8099"
                  y1="62.2069"
                  x2="140.7609"
                  y2="31.2549"/>
            <line class="cls-2"
                  x1="113.1928"
                  y1="38.0259"
                  x2="121.8938"
                  y2="38.0259"/>
            <line class="cls-2"
                  x1="119.8452"
                  y1="36.0914"
                  x2="121.8932"
                  y2="36.0914"/>
            <line class="cls-2"
                  x1="116.519"
                  y1="36.0914"
                  x2="118.567"
                  y2="36.0914"/>
            <line class="cls-2"
                  x1="113.1928"
                  y1="36.0914"
                  x2="115.2408"
                  y2="36.0914"/>
            <g class="cls-14">
               <path class="cls-2"
                     d="m137.3457,56.8379c-.121,1.086-.988,1.825-1.935,1.825s-1.702-.482-1.934-1.825c-.232-1.343-1.121-1.824-1.935-1.824-.813,0-1.835.755-1.934,1.824"/>
            </g>
            <rect class="cls-7"
                  x="106.8076"
                  y="29.072"
                  width="30.952"
                  height="30.952"/>
            <rect class="cls-2"
                  x="106.8074"
                  y="29.0725"
                  width="30.952"
                  height="30.952"/>
            <line class="cls-2"
                  x1="106.8099"
                  y1="60.0267"
                  x2="137.7609"
                  y2="29.0747"/>
            <line class="cls-2"
                  x1="110.1928"
                  y1="35.8458"
                  x2="118.8938"
                  y2="35.8458"/>
            <line class="cls-2"
                  x1="116.8452"
                  y1="33.9113"
                  x2="118.8932"
                  y2="33.9113"/>
            <line class="cls-2"
                  x1="113.519"
                  y1="33.9113"
                  x2="115.567"
                  y2="33.9113"/>
            <line class="cls-2"
                  x1="110.1928"
                  y1="33.9113"
                  x2="112.2408"
                  y2="33.9113"/>
            <g class="cls-19">
               <path class="cls-2"
                     d="m134.3457,54.6577c-.121,1.086-.988,1.825-1.935,1.825s-1.702-.482-1.934-1.825c-.232-1.343-1.121-1.824-1.935-1.824-.813,0-1.835.755-1.934,1.824"/>
            </g>
            <rect class="cls-7"
                  x="103.8066"
                  y="26.826"
                  width="30.953"
                  height="30.953"/>
            <g class="cls-1">
               <rect class="cls-2"
                     x="103.8074"
                     y="26.8269"
                     width="30.952"
                     height="30.952"/>
               <line class="cls-2"
                     x1="103.8099"
                     y1="57.7811"
                     x2="134.7609"
                     y2="26.8291"/>
            </g>
            <line class="cls-2"
                  x1="107.1928"
                  y1="33.6002"
                  x2="115.8938"
                  y2="33.6002"/>
            <line class="cls-2"
                  x1="113.8452"
                  y1="31.6656"
                  x2="115.8932"
                  y2="31.6656"/>
            <line class="cls-2"
                  x1="110.519"
                  y1="31.6656"
                  x2="112.567"
                  y2="31.6656"/>
            <line class="cls-2"
                  x1="107.1928"
                  y1="31.6656"
                  x2="109.2408"
                  y2="31.6656"/>
            <g class="cls-13">
               <path class="cls-2"
                     d="m131.3457,52.4121c-.121,1.086-.988,1.825-1.935,1.825s-1.702-.482-1.934-1.825c-.232-1.343-1.121-1.824-1.935-1.824-.813,0-1.835.755-1.934,1.824"/>
            </g>
         </g>
      </g>
   </g>
   <g id="Text">
      <text class="cls-20" transform="translate(97.0032 22.0001)">
         <tspan x="0" y="0">INVERTER</tspan>
      </text>
      <text class="cls-20" transform="translate(178.9514 37.3642)">
         <tspan x="0" y="0">AC OUTPUT</tspan>
      </text>
      <text class="cls-20" transform="translate(14.2987 37.3642)">
         <tspan x="0" y="0">DC INPUT</tspan>
      </text>
   </g>
</svg>
