<?xml version="1.0" encoding="UTF-8"?>
<svg xmlns="http://www.w3.org/2000/svg"
     xmlns:xlink="http://www.w3.org/1999/xlink"
 id="uuid-3ca4afed-34b7-442c-9519-7abb8a78c5c3"
     data-name="Layer 4"
     width="120mm"
     height="50mm"
     viewBox="0 0 340.1575 141.7323">
   <defs>
      <style>
      .uuid-848e70a8-96cc-43b3-9a01-3abfa3501a85 {
        clip-path: url(#uuid-3e02969b-4971-40ed-bb32-fe9431cff4f2);
      }

      .uuid-cd404408-c6e3-49f6-9859-feabb5b3e0c3, .uuid-dca3860c-5a70-4591-a138-f7af4d4a1219, .uuid-73640e3f-61da-41e7-806c-5a1928be6183 {
        fill: none;
      }

      .uuid-dca3860c-5a70-4591-a138-f7af4d4a1219 {
        stroke-width: .4017px;
      }

      .uuid-dca3860c-5a70-4591-a138-f7af4d4a1219, .uuid-73640e3f-61da-41e7-806c-5a1928be6183 {
        stroke: #000;
        stroke-linecap: round;
        stroke-miterlimit: 10.2833;
      }

      .uuid-73640e3f-61da-41e7-806c-5a1928be6183 {
        stroke-width: .1607px;
      }
    </style>
      <clipPath id="uuid-3e02969b-4971-40ed-bb32-fe9431cff4f2">
         <rect class="uuid-cd404408-c6e3-49f6-9859-feabb5b3e0c3"
               x="13.084"
               width="101"
               height="138.6531"/>
      </clipPath>
   </defs>
   <g class="uuid-848e70a8-96cc-43b3-9a01-3abfa3501a85">
      <g id="uuid-8d26a32e-1ddf-4b41-83c0-180f52689183" data-name="ID 1003">
         <g id="uuid-cecfa4fb-e6ac-4aea-95f5-2aaab08ce39c" data-name="ID 1004">
            <g id="uuid-797dc9bf-1366-4757-9e70-2a1a3b793445" data-name="ID 1005">
               <g id="uuid-6be95bc8-6f74-437e-9b39-c1212f50a4c1" data-name="ID 2123">
                  <g id="uuid-11016f7f-2f53-4fb0-b307-5ba0813f3ac6" data-name="ID 2377">
                     <g id="uuid-53cd6f4a-79d2-4193-9e15-c27ceadf5394" data-name="ID 2424">
                        <line class="uuid-73640e3f-61da-41e7-806c-5a1928be6183"
                              x1="56.6797"
                              y1="39.1204"
                              x2="56.5437"
                              y2="40.6219"/>
                        <polyline class="uuid-73640e3f-61da-41e7-806c-5a1928be6183"
                                  points="56.5322 36.6003 56.5322 39.4413 56.5437 40.6219"/>
                        <line class="uuid-73640e3f-61da-41e7-806c-5a1928be6183"
                              x1="56.5855"
                              y1="68.0707"
                              x2="56.6797"
                              y2="68.537"/>
                        <line class="uuid-73640e3f-61da-41e7-806c-5a1928be6183"
                              x1="56.5322"
                              y1="68.2276"
                              x2="56.5322"
                              y2="72.3532"/>
                        <line class="uuid-73640e3f-61da-41e7-806c-5a1928be6183"
                              x1="56.5855"
                              y1="35.4888"
                              x2="56.6797"
                              y2="35.0221"/>
                        <line class="uuid-73640e3f-61da-41e7-806c-5a1928be6183"
                              x1="56.5322"
                              y1="31.2059"
                              x2="56.5322"
                              y2="35.334"/>
                        <line class="uuid-73640e3f-61da-41e7-806c-5a1928be6183"
                              x1="56.5322"
                              y1="64.119"
                              x2="56.5322"
                              y2="66.9605"/>
                        <line class="uuid-73640e3f-61da-41e7-806c-5a1928be6183"
                              x1="56.6797"
                              y1="64.4383"
                              x2="56.5139"
                              y2="62.7535"/>
                        <polyline class="uuid-dca3860c-5a70-4591-a138-f7af4d4a1219"
                                  points="56.6797 72.7235 56.5322 72.3532 56.1767 72.2061 43.901 72.2061 43.901 31.3538 56.1767 31.3337 56.5322 31.2067 56.5403 31.185"/>
                        <polyline class="uuid-dca3860c-5a70-4591-a138-f7af4d4a1219"
                                  points="56.6797 30.83 56.5322 31.2059 56.5271 31.208"/>
                        <polyline class="uuid-dca3860c-5a70-4591-a138-f7af4d4a1219"
                                  points="56.5266 72.3506 56.1767 72.2262 43.901 72.2061"/>
                        <line class="uuid-dca3860c-5a70-4591-a138-f7af4d4a1219"
                              x1="56.5416"
                              y1="72.3762"
                              x2="56.6797"
                              y2="72.7287"/>
                        <line class="uuid-dca3860c-5a70-4591-a138-f7af4d4a1219"
                              x1="56.6797"
                              y1="35.4888"
                              x2="56.5855"
                              y2="35.4888"/>
                        <line class="uuid-dca3860c-5a70-4591-a138-f7af4d4a1219"
                              x1="56.6797"
                              y1="68.0707"
                              x2="56.5855"
                              y2="68.0707"/>
                        <polyline class="uuid-dca3860c-5a70-4591-a138-f7af4d4a1219"
                                  points="56.6797 64.4383 56.6797 83.728 63.0696 83.728"/>
                        <line class="uuid-dca3860c-5a70-4591-a138-f7af4d4a1219"
                              x1="56.6797"
                              y1="41.6409"
                              x2="56.6797"
                              y2="61.9186"/>
                        <polyline class="uuid-dca3860c-5a70-4591-a138-f7af4d4a1219"
                                  points="56.6797 39.1204 56.6797 19.8315 63.0696 19.8315"/>
                     </g>
                     <g id="uuid-fed2372f-7030-4014-b094-da7a1cbd950c" data-name="ID 2422">
                        <line class="uuid-73640e3f-61da-41e7-806c-5a1928be6183"
                              x1="20.9587"
                              y1="26.8105"
                              x2="20.9587"
                              y2="26.2215"/>
                        <line class="uuid-73640e3f-61da-41e7-806c-5a1928be6183"
                              x1="20.9587"
                              y1="25.0661"
                              x2="20.9587"
                              y2="25.6321"/>
                        <polyline class="uuid-dca3860c-5a70-4591-a138-f7af4d4a1219"
                                  points="56.6797 23.2027 20.9587 23.2027 18.9462 25.2148 18.9462 27.2278 20.9587 29.2403 56.6797 29.2403"/>
                     </g>
                     <g id="uuid-aa4d5bea-68d9-4dd9-adff-03a3827b7740" data-name="ID 2420">
                        <line class="uuid-73640e3f-61da-41e7-806c-5a1928be6183"
                              x1="20.9587"
                              y1="77.927"
                              x2="20.9587"
                              y2="77.338"/>
                        <line class="uuid-73640e3f-61da-41e7-806c-5a1928be6183"
                              x1="20.9587"
                              y1="76.183"
                              x2="20.9587"
                              y2="76.7494"/>
                        <polyline class="uuid-dca3860c-5a70-4591-a138-f7af4d4a1219"
                                  points="56.6797 74.3192 20.9587 74.3192 18.9462 76.3313 18.9462 78.3438 20.9587 80.3568 56.6797 80.3568"/>
                     </g>
                     <g id="uuid-facd9e8f-c769-49bd-8189-5632d8cc1633" data-name="ID 2417">
                        <polygon class="uuid-dca3860c-5a70-4591-a138-f7af4d4a1219"
                                 points="79.1688 133.5365 208.0426 133.5365 208.0426 134.5427 79.1688 134.5427 79.1688 133.5365"/>
                     </g>
                     <g id="uuid-bea60005-3f04-4903-975a-b77ea034daf5" data-name="ID 2412">
                        <line class="uuid-73640e3f-61da-41e7-806c-5a1928be6183"
                              x1="169.4278"
                              y1="132.1466"
                              x2="165.2834"
                              y2="132.1466"/>
                        <line class="uuid-73640e3f-61da-41e7-806c-5a1928be6183"
                              x1="155.4613"
                              y1="132.1466"
                              x2="151.3161"
                              y2="132.1466"/>
                        <line class="uuid-73640e3f-61da-41e7-806c-5a1928be6183"
                              x1="82.1876"
                              y1="132.1466"
                              x2="78.0428"
                              y2="132.1466"/>
                        <line class="uuid-73640e3f-61da-41e7-806c-5a1928be6183"
                              x1="68.522"
                              y1="132.1466"
                              x2="67.396"
                              y2="132.1466"/>
                        <polyline class="uuid-dca3860c-5a70-4591-a138-f7af4d4a1219"
                                  points="78.1626 133.5365 78.1626 134.5427 65.3835 134.5427 64.4978 134.3663 63.7469 133.8646 63.2452 133.1137 63.0696 132.2276 63.0696 130.5173"/>
                        <polyline class="uuid-dca3860c-5a70-4591-a138-f7af4d4a1219"
                                  points="78.1626 11.7819 78.1626 10.7757 65.3835 10.7757 64.4978 10.9521 63.7469 11.4533 63.2452 12.2043 63.0696 13.0899 63.0696 14.8007"/>
                        <polyline class="uuid-dca3860c-5a70-4591-a138-f7af4d4a1219"
                                  points="63.5278 133.5365 63.0696 133.5365 63.0696 132.5298 63.1297 132.5298"/>
                        <polyline class="uuid-dca3860c-5a70-4591-a138-f7af4d4a1219"
                                  points="63.1297 12.7877 63.0696 12.7877 63.0696 11.7819 63.5278 11.7819"/>
                        <polyline class="uuid-dca3860c-5a70-4591-a138-f7af4d4a1219"
                                  points="67.396 11.7819 65.3835 11.7819 64.459 12.1651 64.0759 13.0899 64.0759 14.8007"/>
                        <polyline class="uuid-dca3860c-5a70-4591-a138-f7af4d4a1219"
                                  points="65.3835 133.5365 64.459 133.1533 64.0759 132.2276 64.0759 130.5173"/>
                        <line class="uuid-dca3860c-5a70-4591-a138-f7af4d4a1219"
                              x1="67.396"
                              y1="12.7877"
                              x2="64.2008"
                              y2="12.7877"/>
                        <polyline class="uuid-dca3860c-5a70-4591-a138-f7af4d4a1219"
                                  points="67.396 131.0206 67.396 132.5298 64.2008 132.5298"/>
                        <polyline class="uuid-dca3860c-5a70-4591-a138-f7af4d4a1219"
                                  points="72.1289 127.5002 72.0918 127.493 72.0552 127.4683"/>
                        <polyline class="uuid-dca3860c-5a70-4591-a138-f7af4d4a1219"
                                  points="73.1688 127.6929 73.1313 127.7001 73.0883 127.6916"/>
                        <polyline class="uuid-dca3860c-5a70-4591-a138-f7af4d4a1219"
                                  points="74.2024 127.4725 74.1712 127.493 74.1278 127.5015"/>
                        <line class="uuid-dca3860c-5a70-4591-a138-f7af4d4a1219"
                              x1="81.0326"
                              y1="132.5298"
                              x2="79.1688"
                              y2="132.5298"/>
                     </g>
                     <g id="uuid-241ccfd7-f0ff-40f6-8e94-60a585493ced" data-name="ID 2406">
                        <polyline class="uuid-dca3860c-5a70-4591-a138-f7af4d4a1219"
                                  points="74.314 127.4205 74.2522 127.4529 74.0042 127.5505 73.7485 127.6234 73.4868 127.6711 73.2217 127.6937 72.9557 127.6894 72.6915 127.6592 72.4307 127.6025 72.1775 127.5215 71.9563 127.4256"/>
                        <polyline class="uuid-dca3860c-5a70-4591-a138-f7af4d4a1219"
                                  points="73.881 125.9923 73.8644 126.0055 73.7608 126.072 73.6513 126.1283 73.5366 126.1743 73.4177 126.2076 73.2963 126.2297 73.1735 126.2399 73.0499 126.2382 72.9276 126.2246 72.8066 126.1982 72.6894 126.1603 72.5756 126.1112 72.4682 126.0516 72.3791 125.9902"/>
                     </g>
                     <g id="uuid-ac6b5519-0133-4f5c-bc6f-fc3cdd7d6f98" data-name="ID 2404">
                        <line class="uuid-73640e3f-61da-41e7-806c-5a1928be6183"
                              x1="72.6842"
                              y1="21.1821"
                              x2="72.6842"
                              y2="21.4204"/>
                        <line class="uuid-dca3860c-5a70-4591-a138-f7af4d4a1219"
                              x1="73.1313"
                              y1="22.6274"
                              x2="73.1313"
                              y2="20.4793"/>
                     </g>
                     <g id="uuid-735f6d88-44bc-470d-9ab7-4af41017d424" data-name="ID 2396">
                        <polyline class="uuid-dca3860c-5a70-4591-a138-f7af4d4a1219"
                                  points="80.0532 11.7819 208.0426 11.7819 208.0426 10.7757 79.1688 10.7757 79.1688 11.7819"/>
                     </g>
                     <g id="uuid-e7b53340-2b69-48ef-998d-54fdeeaeda8f" data-name="ID 2392">
                        <polygon class="uuid-dca3860c-5a70-4591-a138-f7af4d4a1219"
                                 points="69.755 128.5525 70.0947 124.8505 73.471 123.2928 76.5077 125.4387 76.168 129.1406 72.7916 130.698 69.755 128.5525"/>
                        <polygon class="uuid-dca3860c-5a70-4591-a138-f7af4d4a1219"
                                 points="75.8411 126.8886 75.8177 126.6239 75.7686 126.3618 75.6936 126.107 75.5943 125.8598 75.4707 125.6241 75.3254 125.4012 75.1583 125.1941 74.9725 125.0035 74.7679 124.8335 74.5484 124.6831 74.3149 124.5556 74.0698 124.4512 73.8158 124.3715 73.5554 124.3169 73.2907 124.2884 73.0248 124.2863 72.7601 124.3097 72.4984 124.3591 72.2431 124.4337 71.9964 124.533 71.7602 124.6562 71.5378 124.8015 71.3298 124.9686 71.1397 125.1553 70.9696 125.359 70.8196 125.5793 70.6913 125.8129 70.5869 126.0575 70.5077 126.3115 70.4535 126.572 70.4245 126.8362 70.4216 127.1026 70.4454 127.3672 70.4953 127.6294 70.5694 127.8842 70.6692 128.1314 70.7919 128.3671 70.9381 128.59 71.1047 128.7971 71.2914 128.9868 71.4951 129.1577 71.7155 129.3077 71.9486 129.4356 72.1933 129.54 72.4477 129.6197 72.7077 129.6743 72.9728 129.7028 73.2383 129.7049 73.5038 129.6815 73.7651 129.6321 74.0208 129.5575 74.2676 129.4582 74.5033 129.335 74.7262 129.1888 74.9329 129.0226 75.1229 128.8363 75.2943 128.6322 75.4443 128.4119 75.5717 128.1783 75.6757 127.9337 75.7559 127.6797 75.81 127.4192 75.8385 127.155 75.8411 126.8886 75.8177 126.6239 75.7686 126.3618 75.6936 126.107 75.5943 125.8598 75.4707 125.6241 75.3254 125.4012 75.1583 125.1941 74.9725 125.0035 74.7679 124.8335 74.5484 124.6831 74.3149 124.5556 74.0698 124.4512 73.8158 124.3715 73.5554 124.3169 73.2907 124.2884 73.0248 124.2863 72.7601 124.3097 72.4984 124.3591 72.2431 124.4337 71.9964 124.533 71.7602 124.6562 71.5378 124.8015 71.3298 124.9686 71.1397 125.1553 70.9696 125.359 70.8196 125.5793 70.6913 125.8129 70.5869 126.0575 70.5077 126.3115 70.4535 126.572 70.4245 126.8362 70.4216 127.1026 70.4454 127.3672 70.4953 127.6294 70.5694 127.8842 70.6692 128.1314 70.7919 128.3671 70.9381 128.59 71.1047 128.7971 71.2914 128.9868 71.4951 129.1577 71.7155 129.3077 71.9486 129.4356 72.1933 129.54 72.4477 129.6197 72.7077 129.6743 72.9728 129.7028 73.2383 129.7049 73.5038 129.6815 73.7651 129.6321 74.0208 129.5575 74.2676 129.4582 74.5033 129.335 74.7262 129.1888 74.9329 129.0226 75.1229 128.8363 75.2943 128.6322 75.4443 128.4119 75.5717 128.1783 75.6757 127.9337 75.7559 127.6797 75.81 127.4192 75.8385 127.155 75.8411 126.8886"/>
                        <polygon class="uuid-dca3860c-5a70-4591-a138-f7af4d4a1219"
                                 points="74.3886 126.9462 74.3741 127.1921 74.3115 127.4307 74.2041 127.6528 74.0553 127.8493 73.8712 128.0134 73.6585 128.1374 73.4254 128.2184 73.1816 128.252 72.9353 128.238 72.6966 128.1753 72.4746 128.0679 72.2781 127.9192 72.114 127.7351 71.9895 127.522 71.9086 127.2892 71.8749 127.0455 71.8894 126.7987 71.9512 126.5605 72.0594 126.3384 72.2078 126.1415 72.3923 125.9778 72.605 125.853 72.8377 125.7728 73.0823 125.7392 73.3287 125.7532 73.5669 125.815 73.7885 125.9233 73.9854 126.072 74.1491 126.2557 74.2735 126.4688 74.3545 126.702 74.3886 126.9462"/>
                     </g>
                     <g id="uuid-07f0cbbb-b112-4e7e-a9da-38c4ea1de2a7" data-name="ID 2390">
                        <polygon class="uuid-dca3860c-5a70-4591-a138-f7af4d4a1219"
                                 points="156.6725 126.621 158.8474 123.6048 162.546 123.979 164.0713 127.3702 161.8973 130.3864 158.1979 130.0114 156.6725 126.621"/>
                        <polygon class="uuid-dca3860c-5a70-4591-a138-f7af4d4a1219"
                                 points="163.0838 127.0033 163.0715 126.7369 163.0335 126.4735 162.9692 126.2157 162.8801 125.9646 162.7672 125.7238 162.6308 125.4954 162.4731 125.281 162.2949 125.0832 162.098 124.9043 161.8849 124.7453 161.6569 124.6072 161.417 124.4934 161.1668 124.403 160.9089 124.3374 160.6455 124.2978 160.38 124.2841 160.1137 124.2965 159.8503 124.3344 159.5924 124.3988 159.3414 124.487 159.1006 124.6008 158.8721 124.7363 158.6578 124.8949 158.46 125.073 158.281 125.2691 158.1212 125.483 157.9839 125.7106 157.8697 125.951 157.7789 126.2012 157.7142 126.4594 157.6741 126.7224 157.66 126.9879 157.6724 127.2543 157.7112 127.5168 157.7747 127.776 157.8638 128.0266 157.9767 128.2674 158.1131 128.4962 158.2708 128.7102 158.4489 128.9079 158.6458 129.0874 158.8589 129.2459 159.0869 129.384 159.3277 129.4978 159.5779 129.5882 159.8358 129.6538 160.0992 129.6939 160.3647 129.7071 160.6302 129.6947 160.8936 129.6568 161.1523 129.5924 161.4025 129.5042 161.6441 129.3904 161.8726 129.2544 162.087 129.0963 162.2839 128.9182 162.4637 128.7217 162.6227 128.5082 162.7599 128.2802 162.8746 128.0402 162.9649 127.79 163.0306 127.5322 163.0702 127.2688 163.0838 127.0033 163.0715 126.7369 163.0335 126.4735 162.9692 126.2157 162.8801 125.9646 162.7672 125.7238 162.6308 125.4954 162.4731 125.281 162.2949 125.0832 162.098 124.9043 161.8849 124.7453 161.6569 124.6072 161.417 124.4934 161.1668 124.403 160.9089 124.3374 160.6455 124.2978 160.38 124.2841 160.1137 124.2965 159.8503 124.3344 159.5924 124.3988 159.3414 124.487 159.1006 124.6008 158.8721 124.7363 158.6578 124.8949 158.46 125.073 158.281 125.2691 158.1212 125.483 157.9839 125.7106 157.8697 125.951 157.7789 126.2012 157.7142 126.4594 157.6741 126.7224 157.66 126.9879 157.6724 127.2543 157.7112 127.5168 157.7747 127.776 157.8638 128.0266 157.9767 128.2674 158.1131 128.4962 158.2708 128.7102 158.4489 128.9079 158.6458 129.0874 158.8589 129.2459 159.0869 129.384 159.3277 129.4978 159.5779 129.5882 159.8358 129.6538 160.0992 129.6939 160.3647 129.7071 160.6302 129.6947 160.8936 129.6568 161.1523 129.5924 161.4025 129.5042 161.6441 129.3904 161.8726 129.2544 162.087 129.0963 162.2839 128.9182 162.4637 128.7217 162.6227 128.5082 162.7599 128.2802 162.8746 128.0402 162.9649 127.79 163.0306 127.5322 163.0702 127.2688 163.0838 127.0033"/>
                        <polygon class="uuid-dca3860c-5a70-4591-a138-f7af4d4a1219"
                                 points="161.6237 127.1222 161.6241 126.8754 161.5768 126.6338 161.4826 126.4057 161.3462 126.2003 161.1727 126.0251 160.9682 125.8879 160.7406 125.7933 160.4989 125.7443 160.2522 125.7434 160.0101 125.7912 159.7825 125.8845 159.5771 126.0209 159.4019 126.1948 159.2642 126.3998 159.1692 126.6274 159.121 126.869 159.1198 127.1158 159.1671 127.357 159.2613 127.5855 159.3976 127.7909 159.5715 127.9652 159.7757 128.1029 160.0033 128.1979 160.2449 128.2469 160.4917 128.2473 160.7338 128.2 160.9622 128.1067 161.1676 127.9703 161.342 127.7964 161.4796 127.5914 161.5747 127.3638 161.6237 127.1222"/>
                     </g>
                     <g id="uuid-87065dce-510d-4ba9-a721-e9c3696934df" data-name="ID 2387">
                        <polygon class="uuid-dca3860c-5a70-4591-a138-f7af4d4a1219"
                                 points="70.0993 21.0223 71.4819 24.4737 75.1626 25.0017 77.4598 22.0789 76.0768 18.6275 72.397 18.0986 70.0993 21.0223"/>
                        <polygon class="uuid-dca3860c-5a70-4591-a138-f7af4d4a1219"
                                 points="76.4889 21.6706 76.4642 21.9357 76.4135 22.1969 76.3376 22.4518 76.2362 22.6981 76.1122 22.9338 75.9651 23.1559 75.7976 23.3617 75.6101 23.5514 75.4055 23.7206 75.1852 23.8697 74.9508 23.9959 74.7057 24.0995 74.4508 24.1775 74.1904 24.2307 73.9253 24.2584 73.6594 24.2593 73.3947 24.235 73.1335 24.1843 72.8782 24.1076 72.6318 24.007 72.397 23.883 72.1745 23.7359 71.9682 23.568 71.779 23.3813 71.6089 23.1763 71.4606 22.9555 71.334 22.7211 71.2309 22.4761 71.1521 22.2221 71.0988 21.9612 71.0715 21.6961 71.0707 21.4306 71.0954 21.1655 71.1461 20.9043 71.2224 20.6494 71.3225 20.403 71.447 20.1674 71.5936 19.9453 71.7615 19.7386 71.9486 19.5498 72.154 19.3797 72.3748 19.2314 72.6084 19.1044 72.8543 19.0017 73.1083 18.9233 73.3691 18.87 73.6334 18.8423 73.8998 18.841 74.1644 18.8662 74.4257 18.9169 74.681 18.9928 74.9273 19.0933 75.163 19.2178 75.3846 19.3644 75.5913 19.5323 75.7801 19.7199 75.9498 19.9249 76.0989 20.1448 76.2259 20.3792 76.3282 20.6251 76.4067 20.8791 76.4599 21.1395 76.4872 21.4042 76.4889 21.6706 76.4642 21.9357 76.4135 22.1969 76.3376 22.4518 76.2362 22.6981 76.1122 22.9338 75.9651 23.1559 75.7976 23.3617 75.6101 23.5514 75.4055 23.7206 75.1852 23.8697 74.9508 23.9959 74.7057 24.0995 74.4508 24.1775 74.1904 24.2307 73.9253 24.2584 73.6594 24.2593 73.3947 24.235 73.1335 24.1843 72.8782 24.1076 72.6318 24.007 72.397 23.883 72.1745 23.7359 71.9682 23.568 71.779 23.3813 71.6089 23.1763 71.4606 22.9555 71.334 22.7211 71.2309 22.4761 71.1521 22.2221 71.0988 21.9612 71.0715 21.6961 71.0707 21.4306 71.0954 21.1655 71.1461 20.9043 71.2224 20.6494 71.3225 20.403 71.447 20.1674 71.5936 19.9453 71.7615 19.7386 71.9486 19.5498 72.154 19.3797 72.3748 19.2314 72.6084 19.1044 72.8543 19.0017 73.1083 18.9233 73.3691 18.87 73.6334 18.8423 73.8998 18.841 74.1644 18.8662 74.4257 18.9169 74.681 18.9928 74.9273 19.0933 75.163 19.2178 75.3846 19.3644 75.5913 19.5323 75.7801 19.7199 75.9498 19.9249 76.0989 20.1448 76.2259 20.3792 76.3282 20.6251 76.4067 20.8791 76.4599 21.1395 76.4872 21.4042 76.4889 21.6706"/>
                        <polygon class="uuid-dca3860c-5a70-4591-a138-f7af4d4a1219"
                                 points="75.0245 21.7289 75.036 21.483 74.9981 21.2392 74.9145 21.0074 74.7867 20.7964 74.62 20.614 74.4214 20.4683 74.1981 20.3643 73.9581 20.3054 73.7118 20.2944 73.4684 20.3314 73.2366 20.4163 73.0252 20.5441 72.8441 20.7103 72.6974 20.9085 72.593 21.1318 72.5346 21.3714 72.524 21.6177 72.5606 21.8619 72.6455 22.0933 72.7733 22.3047 72.9391 22.4863 73.1386 22.6321 73.3619 22.7365 73.601 22.7957 73.8473 22.8059 74.0907 22.7689 74.323 22.6845 74.5339 22.5571 74.7159 22.3908 74.8613 22.1918 74.9657 21.9685 75.0245 21.7289"/>
                     </g>
                     <g id="uuid-280c762e-5c7d-4478-9e87-ae279f0c3a97" data-name="ID 2383">
                        <polygon class="uuid-dca3860c-5a70-4591-a138-f7af4d4a1219"
                                 points="197.7891 29.1554 198.9407 25.6201 202.5779 24.8491 205.0635 27.6143 203.9127 31.1496 200.2747 31.9198 197.7891 29.1554"/>
                        <polygon class="uuid-dca3860c-5a70-4591-a138-f7af4d4a1219"
                                 points="204.1374 28.3568 204.128 28.6167 204.0922 28.8805 204.0308 29.1393 203.9443 29.3916 203.8339 29.6336 203.6996 29.8634 203.5441 30.079 203.3676 30.2785 203.1729 30.4596 202.961 30.6207 202.7347 30.7601 202.4948 30.8769 202.2459 30.9698 201.9885 31.038 201.7255 31.0797 201.46 31.0964 201.1945 31.0866 200.9302 31.0508 200.6711 30.989 200.4201 30.9024 200.1775 30.792 199.9478 30.6578 199.7326 30.5018 199.5331 30.3262 199.3516 30.131 199.1909 29.9192 199.0511 29.6925 198.9343 29.4538 198.8414 29.204 198.7736 28.9466 198.7315 28.6836 198.7144 28.4186 198.7246 28.1522 198.7604 27.8884 198.8218 27.6297 198.9088 27.3782 199.0187 27.1361 199.153 26.9064 199.3085 26.6907 199.485 26.4909 199.6802 26.3102 199.8916 26.1486 200.1187 26.0088 200.3578 25.892 200.6067 25.7996 200.8646 25.7322 201.1271 25.6892 201.3926 25.6734 201.6586 25.6828 201.922 25.7186 202.1811 25.7804 202.4326 25.8665 202.6751 25.9773 202.9048 26.1115 203.1209 26.2675 203.3203 26.4436 203.501 26.6388 203.6626 26.8506 203.8019 27.0769 203.9187 27.3156 204.0112 27.5653 204.079 27.8227 204.1216 28.0853 204.1382 28.3512 204.128 28.6167 204.0922 28.8805 204.0308 29.1393 203.9443 29.3916 203.8339 29.6336 203.6996 29.8634 203.5441 30.079 203.3676 30.2785 203.1729 30.4596 202.961 30.6207 202.7347 30.7601 202.4948 30.8769 202.2459 30.9698 201.9885 31.038 201.7255 31.0797 201.46 31.0964 201.1945 31.0866 200.9302 31.0508 200.6711 30.989 200.4201 30.9024 200.1775 30.792 199.9478 30.6578 199.7326 30.5018 199.5331 30.3262 199.3516 30.131 199.1909 29.9192 199.0511 29.6925 198.9343 29.4538 198.8414 29.204 198.7736 28.9466 198.7315 28.6836 198.7144 28.4186 198.7246 28.1522 198.7604 27.8884 198.8218 27.6297 198.9088 27.3782 199.0187 27.1361 199.153 26.9064 199.3085 26.6907 199.485 26.4909 199.6802 26.3102 199.8916 26.1486 200.1187 26.0088 200.3578 25.892 200.6067 25.7996 200.8646 25.7322 201.1271 25.6892 201.3926 25.6734 201.6586 25.6828 201.922 25.7186 202.1811 25.7804 202.4326 25.8665 202.6751 25.9773 202.9048 26.1115 203.1209 26.2675 203.3203 26.4436 203.501 26.6388 203.6626 26.8506 203.8019 27.0769 203.9187 27.3156 204.0112 27.5653 204.079 27.8227 204.1216 28.0853 204.1382 28.3512 204.1374 28.3568"/>
                        <polygon class="uuid-dca3860c-5a70-4591-a138-f7af4d4a1219"
                                 points="202.6844 28.3691 202.6627 28.615 202.5941 28.8516 202.4807 29.0706 202.3269 29.2633 202.1381 29.4218 201.922 29.5403 201.6867 29.6149 201.4416 29.6426 201.1966 29.6213 200.9592 29.5527 200.741 29.4389 200.5483 29.285 200.3894 29.0962 200.2705 28.8805 200.1959 28.6457 200.169 28.4007 200.1895 28.1547 200.2581 27.9178 200.3719 27.6991 200.5258 27.5065 200.715 27.3479 200.9306 27.229 201.1659 27.154 201.411 27.1272 201.6565 27.1481 201.8934 27.2171 202.1125 27.3305 202.3043 27.4848 202.4632 27.6727 202.5822 27.8888 202.6567 28.124 202.6844 28.3691"/>
                     </g>
                     <g id="uuid-02f77141-cabe-4c15-9b9c-67cc8a0dfce6" data-name="ID 2378">
                        <line class="uuid-73640e3f-61da-41e7-806c-5a1928be6183"
                              x1="168.9858"
                              y1="132.5298"
                              x2="168.9858"
                              y2="133.5365"/>
                        <line class="uuid-73640e3f-61da-41e7-806c-5a1928be6183"
                              x1="168.0196"
                              y1="132.5298"
                              x2="165.0004"
                              y2="132.5298"/>
                        <line class="uuid-73640e3f-61da-41e7-806c-5a1928be6183"
                              x1="151.758"
                              y1="132.5298"
                              x2="151.758"
                              y2="133.5365"/>
                        <line class="uuid-73640e3f-61da-41e7-806c-5a1928be6183"
                              x1="81.7461"
                              y1="132.5298"
                              x2="81.7461"
                              y2="133.5365"/>
                        <line class="uuid-73640e3f-61da-41e7-806c-5a1928be6183"
                              x1="68.7547"
                              y1="132.5298"
                              x2="67.396"
                              y2="132.5298"/>
                        <polyline class="uuid-dca3860c-5a70-4591-a138-f7af4d4a1219"
                                  points="82.1876 133.5365 82.1876 130.2151 81.7461 129.1479 80.678 128.7059 79.6108 129.1479 79.1688 130.2151 79.1688 131.0206 77.1568 133.0327 69.4089 133.0327 67.396 131.0206 67.396 130.5173 63.0696 130.5173 63.0696 14.8007 67.396 14.8007 67.396 11.7819"/>
                        <polyline class="uuid-dca3860c-5a70-4591-a138-f7af4d4a1219"
                                  points="80.678 133.5365 67.396 133.5365 67.396 132.5298 68.9051 132.5298"/>
                        <line class="uuid-dca3860c-5a70-4591-a138-f7af4d4a1219"
                              x1="68.7547"
                              y1="132.5298"
                              x2="68.8612"
                              y2="132.4855"/>
                        <polygon class="uuid-dca3860c-5a70-4591-a138-f7af4d4a1219"
                                 points="75.8483 126.9952 75.6421 125.9561 75.053 125.0743 74.1712 124.4853 73.1313 124.279 72.0918 124.4853 71.2104 125.0743 70.6219 125.9561 70.4147 126.9952 70.6219 128.0351 71.2104 128.9169 72.0918 129.5055 73.1313 129.7122 74.1712 129.5055 75.053 128.9169 75.6421 128.0351 75.8483 126.9952"/>
                        <polygon class="uuid-dca3860c-5a70-4591-a138-f7af4d4a1219"
                                 points="76.4966 21.5504 76.2895 22.5903 75.7009 23.4717 74.8195 24.0603 73.78 24.267 72.7401 24.0603 71.8583 23.4717 71.2693 22.5903 71.063 21.5504 71.2693 20.5109 71.8583 19.6295 72.7401 19.0401 73.78 18.8334 74.8195 19.0401 75.7009 19.6295 76.2895 20.5109 76.4966 21.5504"/>
                        <line class="uuid-dca3860c-5a70-4591-a138-f7af4d4a1219"
                              x1="82.1876"
                              y1="132.5298"
                              x2="77.6597"
                              y2="132.5298"/>
                        <polyline class="uuid-dca3860c-5a70-4591-a138-f7af4d4a1219"
                                  points="151.3161 133.5365 151.3161 130.2151 151.758 129.1479 152.8252 128.7059 153.8929 129.1479 154.3344 130.2151 154.3344 131.0206 156.3473 133.0327 164.3974 133.0327 166.4095 131.0206 166.4095 130.2151 166.8518 129.1479 167.9186 128.7059 168.9858 129.1479 169.4278 130.2151 169.4278 133.5365"/>
                        <line class="uuid-dca3860c-5a70-4591-a138-f7af4d4a1219"
                              x1="155.8444"
                              y1="132.5298"
                              x2="151.3161"
                              y2="132.5298"/>
                        <polygon class="uuid-dca3860c-5a70-4591-a138-f7af4d4a1219"
                                 points="163.0826 127.0271 163.0889 126.9952 162.8818 125.9561 162.2928 125.0743 161.4118 124.4853 160.3719 124.279 159.332 124.4853 158.4511 125.0743 157.8621 125.9561 157.6549 126.9952 157.8621 128.0351 158.4511 128.9169 159.332 129.5055 160.3719 129.7122 161.4118 129.5055 162.2928 128.9169 162.8818 128.0351 163.0826 127.0271"/>
                        <polygon class="uuid-dca3860c-5a70-4591-a138-f7af4d4a1219"
                                 points="174.127 51.9647 173.668 49.6547 172.3587 47.6955 170.3999 46.3866 168.0895 45.9272 165.7791 46.3866 163.8212 47.6955 162.5123 49.6547 162.0528 51.9647 162.5123 54.2756 163.8212 56.2339 165.7791 57.5428 168.0895 58.0022 170.3999 57.5428 172.3587 56.2339 173.668 54.2756 174.127 51.9647"/>
                        <line class="uuid-dca3860c-5a70-4591-a138-f7af4d4a1219"
                              x1="169.4278"
                              y1="132.5298"
                              x2="164.9003"
                              y2="132.5298"/>
                        <polygon class="uuid-dca3860c-5a70-4591-a138-f7af4d4a1219"
                                 points="204.1374 28.3568 204.1433 28.3845 203.9362 29.4244 203.3472 30.3062 202.4662 30.8948 201.4263 31.1015 200.3864 30.8948 199.5054 30.3062 198.916 29.4244 198.7093 28.3845 198.916 27.3454 199.5054 26.464 200.3864 25.8746 201.4263 25.6679 202.4662 25.8746 203.3472 26.464 203.9362 27.3454 204.1374 28.3568"/>
                        <line class="uuid-dca3860c-5a70-4591-a138-f7af4d4a1219"
                              x1="208.0426"
                              y1="11.7819"
                              x2="208.0426"
                              y2="133.5365"/>
                     </g>
                  </g>
               </g>
            </g>
         </g>
      </g>
   </g>
</svg>
