<?xml version="1.0" encoding="UTF-8"?>
<svg xmlns="http://www.w3.org/2000/svg"
     xmlns:xlink="http://www.w3.org/1999/xlink"
     width="105mm"
     height="50mm"
     viewBox="0 0 297.6378 141.7323">
   <defs>
      <style>
      .cls-1 {
        clip-path: url(#clippath-20);
      }

      .cls-2 {
        clip-path: url(#clippath-11);
      }

      .cls-3 {
        clip-path: url(#clippath-16);
      }

      .cls-4 {
        stroke: #c6c6c6;
        stroke-width: 5px;
      }

      .cls-4, .cls-5, .cls-6, .cls-7, .cls-8 {
        fill: none;
      }

      .cls-4, .cls-6, .cls-7, .cls-8 {
        stroke-miterlimit: 3;
      }

      .cls-9 {
        clip-path: url(#clippath-2);
      }

      .cls-10, .cls-11, .cls-5, .cls-12, .cls-13, .cls-14 {
        stroke-width: 0px;
      }

      .cls-10, .cls-13 {
        fill-rule: evenodd;
      }

      .cls-15 {
        clip-path: url(#clippath-13);
      }

      .cls-16 {
        clip-path: url(#clippath-25);
      }

      .cls-17 {
        clip-path: url(#clippath-26);
      }

      .cls-18 {
        clip-path: url(#clippath-7);
      }

      .cls-19 {
        clip-path: url(#clippath-1);
      }

      .cls-20 {
        clip-path: url(#clippath-4);
      }

      .cls-21 {
        clip-path: url(#clippath-27);
      }

      .cls-6 {
        stroke-width: .75px;
      }

      .cls-6, .cls-7, .cls-8 {
        stroke: #000;
      }

      .cls-7 {
        stroke-width: .6448px;
      }

      .cls-12, .cls-13 {
        fill: #fff;
      }

      .cls-22 {
        clip-path: url(#clippath-24);
      }

      .cls-23 {
        clip-path: url(#clippath-30);
      }

      .cls-24 {
        clip-path: url(#clippath-22);
      }

      .cls-25 {
        clip-path: url(#clippath);
      }

      .cls-26 {
        clip-path: url(#clippath-19);
      }

      .cls-27 {
        clip-path: url(#clippath-31);
      }

      .cls-28 {
        clip-path: url(#clippath-3);
      }

      .cls-14 {
        fill: #c6c6c6;
      }

      .cls-29 {
        clip-path: url(#clippath-8);
      }

      .cls-30 {
        clip-path: url(#clippath-29);
      }

      .cls-31 {
        clip-path: url(#clippath-14);
      }

      .cls-32 {
        clip-path: url(#clippath-17);
      }

      .cls-33 {
        clip-path: url(#clippath-5);
      }

      .cls-34 {
        clip-path: url(#clippath-10);
      }

      .cls-35 {
        clip-path: url(#clippath-23);
      }

      .cls-36 {
        clip-path: url(#clippath-28);
      }

      .cls-8 {
        stroke-width: .5px;
      }

      .cls-37 {
        fill: #01889C;
        font-family: Arial-BoldMT, Arial;
        font-size: 10px;
        font-weight: 700;
      }
    </style>
      <clipPath id="clippath">
         <rect class="cls-5"
               x="217.9906"
               y="35.9378"
               width="16.63"
               height="16.2683"/>
      </clipPath>
      <clipPath id="clippath-1">
         <rect class="cls-5"
               x="217.9906"
               y="35.9381"
               width="16.63"
               height="16.268"/>
      </clipPath>
      <clipPath id="clippath-2">
         <rect class="cls-5"
               x="58.3188"
               y="35.9378"
               width="16.63"
               height="16.2683"/>
      </clipPath>
      <clipPath id="clippath-3">
         <rect class="cls-5"
               x="58.3188"
               y="35.9381"
               width="16.63"
               height="16.268"/>
      </clipPath>
      <clipPath id="clippath-4">
         <rect class="cls-5"
               x="109.91"
               y="28.0122"
               width="32.2419"
               height="36.1109"/>
      </clipPath>
      <clipPath id="clippath-5">
         <rect class="cls-5"
               x="109.91"
               y="28.0122"
               width="32.2419"
               height="36.1109"/>
      </clipPath>
      <clipPath id="clippath-7">
         <rect class="cls-5"
               x="106.91"
               y="26.0122"
               width="32.2419"
               height="36.1109"/>
      </clipPath>
      <clipPath id="clippath-8">
         <rect class="cls-5"
               x="106.91"
               y="26.0122"
               width="32.2419"
               height="36.1109"/>
      </clipPath>
      <clipPath id="clippath-10">
         <rect class="cls-5"
               x="103.91"
               y="24.0122"
               width="32.2419"
               height="36.1109"/>
      </clipPath>
      <clipPath id="clippath-11">
         <rect class="cls-5"
               x="103.91"
               y="24.0122"
               width="32.2419"
               height="36.1109"/>
      </clipPath>
      <clipPath id="clippath-13">
         <rect class="cls-5"
               x="109.91"
               y="97.9548"
               width="32.2419"
               height="36.1109"/>
      </clipPath>
      <clipPath id="clippath-14">
         <rect class="cls-5"
               x="109.91"
               y="97.9548"
               width="32.2419"
               height="36.1109"/>
      </clipPath>
      <clipPath id="clippath-16">
         <rect class="cls-5"
               x="106.91"
               y="95.9548"
               width="32.2419"
               height="36.1109"/>
      </clipPath>
      <clipPath id="clippath-17">
         <rect class="cls-5"
               x="106.91"
               y="95.9548"
               width="32.2419"
               height="36.1109"/>
      </clipPath>
      <clipPath id="clippath-19">
         <rect class="cls-5"
               x="103.91"
               y="93.9548"
               width="32.2419"
               height="36.1109"/>
      </clipPath>
      <clipPath id="clippath-20">
         <rect class="cls-5"
               x="103.91"
               y="93.9548"
               width="32.2419"
               height="36.1109"/>
      </clipPath>
      <clipPath id="clippath-22">
         <rect class="cls-5"
               x="34.9051"
               y="110.9478"
               width="6.125"
               height="6.125"/>
      </clipPath>
      <clipPath id="clippath-23">
         <rect class="cls-5"
               x="34.9051"
               y="110.9478"
               width="6.125"
               height="6.125"/>
      </clipPath>
      <clipPath id="clippath-24">
         <rect class="cls-5"
               x="34.9051"
               y="40.9469"
               width="6.125"
               height="6.125"/>
      </clipPath>
      <clipPath id="clippath-25">
         <rect class="cls-5"
               x="34.9051"
               y="40.9469"
               width="6.125"
               height="6.125"/>
      </clipPath>
      <clipPath id="clippath-26">
         <rect class="cls-5"
               x="66.6338"
               y="105.9344"
               width="16.63"
               height="16.2683"/>
      </clipPath>
      <clipPath id="clippath-27">
         <rect class="cls-5"
               x="66.6338"
               y="105.9347"
               width="16.63"
               height="16.268"/>
      </clipPath>
      <clipPath id="clippath-28">
         <rect class="cls-5"
               x="250.0088"
               y="40.9472"
               width="6.125"
               height="6.125"/>
      </clipPath>
      <clipPath id="clippath-29">
         <rect class="cls-5"
               x="250.0088"
               y="40.9472"
               width="6.125"
               height="6.125"/>
      </clipPath>
      <clipPath id="clippath-30">
         <rect class="cls-5"
               x="190.3874"
               y="41.781"
               width="4.5709"
               height="4.5819"/>
      </clipPath>
      <clipPath id="clippath-31">
         <rect class="cls-5"
               x="190.3874"
               y="41.7809"
               width="4.571"
               height="4.582"/>
      </clipPath>
   </defs>
   <g id="Paths">
      <g>
         <line class="cls-4"
               x1="33.5695"
               y1="44.0094"
               x2="257.1929"
               y2="44.0094"/>
         <polygon class="cls-14"
                  points="255.734 48.9957 264.3691 44.0094 255.734 39.0231 255.734 48.9957"/>
      </g>
      <g>
         <polygon class="cls-14"
                  points="146.4021 116.2785 143.0346 116.2785 146.6565 111.7419 150.0241 111.7419 146.4021 116.2785"/>
         <polygon class="cls-14"
                  points="154.2743 116.2785 150.9067 116.2785 154.5286 111.7419 157.8962 111.7419 154.2743 116.2785"/>
         <polygon class="cls-14"
                  points="162.1465 116.2785 158.7789 116.2785 162.4008 111.7419 165.7684 111.7419 162.1465 116.2785"/>
         <polygon class="cls-14"
                  points="170.0187 116.2785 166.6511 116.2785 170.273 111.7419 173.6406 111.7419 170.0187 116.2785"/>
         <polygon class="cls-14"
                  points="177.8908 116.2785 174.5233 116.2785 178.1452 111.7419 181.5128 111.7419 177.8908 116.2785"/>
         <polygon class="cls-14"
                  points="185.763 116.2785 182.3955 116.2785 186.0174 111.7419 189.385 111.7419 185.763 116.2785"/>
         <polygon class="cls-14"
                  points="194.8042 107.9349 194.8042 111.3025 190.2676 107.6805 190.2676 104.313 194.8042 107.9349"/>
         <polygon class="cls-14"
                  points="194.8042 100.5059 194.8042 103.8735 190.2676 100.2515 190.2676 96.884 194.8042 100.5059"/>
         <polygon class="cls-14"
                  points="194.8042 93.0769 194.8042 96.4445 190.2676 92.8225 190.2676 89.455 194.8042 93.0769"/>
         <polygon class="cls-14"
                  points="194.8042 85.6479 194.8042 89.0155 190.2676 85.3936 190.2676 82.026 194.8042 85.6479"/>
         <polygon class="cls-14"
                  points="194.8042 78.2189 194.8042 81.5865 190.2676 77.9646 190.2676 74.597 194.8042 78.2189"/>
         <polygon class="cls-14"
                  points="194.8042 70.79 194.8042 74.1575 190.2676 70.5356 190.2676 67.168 194.8042 70.79"/>
         <polygon class="cls-14"
                  points="194.8042 63.361 194.8042 66.7285 190.2676 63.1066 190.2676 59.739 194.8042 63.361"/>
         <polygon class="cls-14"
                  points="194.8042 55.9319 194.8042 59.2995 190.2676 55.6776 190.2676 52.31 194.8042 55.9319"/>
         <polygon class="cls-14"
                  points="194.8042 48.503 194.8042 51.8705 190.2676 48.2486 190.2676 44.881 194.8042 48.503"/>
      </g>
   </g>
   <g id="Symbols">
      <g id="Artwork_20_no_white" data-name="Artwork 20 no white">
         <g class="cls-25">
            <g class="cls-19">
               <line class="cls-6"
                     x1="218.9907"
                     y1="50.8493"
                     x2="233.6207"
                     y2="44.0833"/>
               <path class="cls-11"
                     d="M233.6206,45.0876h0c-.55,0-1-.45-1-1,0-.551.45-1,1-1s1,.449,1,1c0,.55-.45,1-1,1"/>
               <path class="cls-11"
                     d="M218.9907,45.0876h0c-.55,0-1-.45-1-1,0-.551.45-1,1-1s1,.449,1,1c0,.55-.45,1-1,1"/>
            </g>
         </g>
      </g>
      <g id="Artwork_20_no_white-2" data-name="Artwork 20 no white">
         <g class="cls-9">
            <g class="cls-28">
               <line class="cls-6"
                     x1="59.3189"
                     y1="50.8493"
                     x2="73.9489"
                     y2="44.0833"/>
               <path class="cls-11"
                     d="M73.9488,45.0876h0c-.55,0-1-.45-1-1,0-.551.45-1,1-1s1,.449,1,1c0,.55-.45,1-1,1"/>
               <path class="cls-11"
                     d="M59.3189,45.0876h0c-.55,0-1-.45-1-1,0-.551.45-1,1-1s1,.449,1,1c0,.55-.45,1-1,1"/>
            </g>
         </g>
      </g>
   </g>
   <g id="Text">
      <polyline class="cls-6"
                points="37.9679 44.0677 192.6729 44.0677 192.6729 114.0685 37.9679 114.0685"/>
      <line class="cls-6"
            x1="192.4719"
            y1="44.0677"
            x2="253.0713"
            y2="44.0677"/>
      <g id="Rectifier">
         <g class="cls-20">
            <rect class="cls-12"
                  x="110.7119"
                  y="30.5924"
                  width="30.9522"
                  height="30.9522"/>
            <g class="cls-33">
               <rect class="cls-7"
                     x="110.5557"
                     y="30.5924"
                     width="30.9522"
                     height="30.9522"/>
               <line class="cls-7"
                     x1="141.5054"
                     y1="30.5904"
                     x2="110.554"
                     y2="61.5426"/>
            </g>
            <line class="cls-7"
                  x1="138.1225"
                  y1="54.7714"
                  x2="129.4215"
                  y2="54.7714"/>
            <line class="cls-7"
                  x1="131.4701"
                  y1="56.7059"
                  x2="129.4221"
                  y2="56.7059"/>
            <line class="cls-7"
                  x1="134.7962"
                  y1="56.7059"
                  x2="132.7482"
                  y2="56.7059"/>
            <line class="cls-7"
                  x1="138.1225"
                  y1="56.7059"
                  x2="136.0745"
                  y2="56.7059"/>
            <line class="cls-7"
                  x1="122.197"
                  y1="35.1066"
                  x2="113.496"
                  y2="35.1066"/>
            <line class="cls-7"
                  x1="115.5446"
                  y1="37.0411"
                  x2="113.4966"
                  y2="37.0411"/>
            <line class="cls-7"
                  x1="118.8708"
                  y1="37.0321"
                  x2="116.8228"
                  y2="37.0321"/>
            <line class="cls-7"
                  x1="122.197"
                  y1="37.0321"
                  x2="120.149"
                  y2="37.0321"/>
         </g>
      </g>
      <g id="Rectifier-2" data-name="Rectifier">
         <g class="cls-18">
            <rect class="cls-12"
                  x="107.7119"
                  y="28.5924"
                  width="30.9522"
                  height="30.9522"/>
            <g class="cls-29">
               <rect class="cls-7"
                     x="107.5557"
                     y="28.5924"
                     width="30.9522"
                     height="30.9522"/>
               <line class="cls-7"
                     x1="138.5054"
                     y1="28.5904"
                     x2="107.554"
                     y2="59.5426"/>
            </g>
            <line class="cls-7"
                  x1="135.1225"
                  y1="52.7714"
                  x2="126.4215"
                  y2="52.7714"/>
            <line class="cls-7"
                  x1="128.4701"
                  y1="54.7059"
                  x2="126.4221"
                  y2="54.7059"/>
            <line class="cls-7"
                  x1="131.7962"
                  y1="54.7059"
                  x2="129.7482"
                  y2="54.7059"/>
            <line class="cls-7"
                  x1="135.1225"
                  y1="54.7059"
                  x2="133.0745"
                  y2="54.7059"/>
            <line class="cls-7"
                  x1="119.197"
                  y1="33.1066"
                  x2="110.496"
                  y2="33.1066"/>
            <line class="cls-7"
                  x1="112.5446"
                  y1="35.0411"
                  x2="110.4966"
                  y2="35.0411"/>
            <line class="cls-7"
                  x1="115.8708"
                  y1="35.0321"
                  x2="113.8228"
                  y2="35.0321"/>
            <line class="cls-7"
                  x1="119.197"
                  y1="35.0321"
                  x2="117.149"
                  y2="35.0321"/>
         </g>
      </g>
      <g id="Rectifier-3" data-name="Rectifier">
         <g class="cls-34">
            <rect class="cls-12"
                  x="104.7119"
                  y="26.5924"
                  width="30.9522"
                  height="30.9522"/>
            <g class="cls-2">
               <rect class="cls-7"
                     x="104.5557"
                     y="26.5924"
                     width="30.9522"
                     height="30.9522"/>
               <line class="cls-7"
                     x1="135.5054"
                     y1="26.5904"
                     x2="104.554"
                     y2="57.5426"/>
            </g>
            <line class="cls-7"
                  x1="132.1225"
                  y1="50.7714"
                  x2="123.4215"
                  y2="50.7714"/>
            <line class="cls-7"
                  x1="125.4701"
                  y1="52.7059"
                  x2="123.4221"
                  y2="52.7059"/>
            <line class="cls-7"
                  x1="128.7962"
                  y1="52.7059"
                  x2="126.7482"
                  y2="52.7059"/>
            <line class="cls-7"
                  x1="132.1225"
                  y1="52.7059"
                  x2="130.0745"
                  y2="52.7059"/>
            <line class="cls-7"
                  x1="116.197"
                  y1="31.1066"
                  x2="107.496"
                  y2="31.1066"/>
            <line class="cls-7"
                  x1="109.5446"
                  y1="33.0411"
                  x2="107.4966"
                  y2="33.0411"/>
            <line class="cls-7"
                  x1="112.8708"
                  y1="33.0321"
                  x2="110.8228"
                  y2="33.0321"/>
            <line class="cls-7"
                  x1="116.197"
                  y1="33.0321"
                  x2="114.149"
                  y2="33.0321"/>
         </g>
      </g>
      <g id="Rectifier-4" data-name="Rectifier">
         <g class="cls-15">
            <rect class="cls-12"
                  x="110.7119"
                  y="100.535"
                  width="30.9522"
                  height="30.9522"/>
            <g class="cls-31">
               <rect class="cls-7"
                     x="110.5557"
                     y="100.535"
                     width="30.9522"
                     height="30.9522"/>
               <line class="cls-7"
                     x1="141.5054"
                     y1="100.5329"
                     x2="110.554"
                     y2="131.4852"/>
            </g>
            <line class="cls-7"
                  x1="138.1225"
                  y1="124.7139"
                  x2="129.4215"
                  y2="124.7139"/>
            <line class="cls-7"
                  x1="131.4701"
                  y1="126.6484"
                  x2="129.4221"
                  y2="126.6484"/>
            <line class="cls-7"
                  x1="134.7962"
                  y1="126.6484"
                  x2="132.7482"
                  y2="126.6484"/>
            <line class="cls-7"
                  x1="138.1225"
                  y1="126.6484"
                  x2="136.0745"
                  y2="126.6484"/>
            <line class="cls-7"
                  x1="122.197"
                  y1="105.0491"
                  x2="113.496"
                  y2="105.0491"/>
            <line class="cls-7"
                  x1="115.5446"
                  y1="106.9836"
                  x2="113.4966"
                  y2="106.9836"/>
            <line class="cls-7"
                  x1="118.8708"
                  y1="106.9747"
                  x2="116.8228"
                  y2="106.9747"/>
            <line class="cls-7"
                  x1="122.197"
                  y1="106.9747"
                  x2="120.149"
                  y2="106.9747"/>
         </g>
      </g>
      <g id="Rectifier-5" data-name="Rectifier">
         <g class="cls-3">
            <rect class="cls-12"
                  x="107.7119"
                  y="98.535"
                  width="30.9522"
                  height="30.9522"/>
            <g class="cls-32">
               <rect class="cls-7"
                     x="107.5557"
                     y="98.535"
                     width="30.9522"
                     height="30.9522"/>
               <line class="cls-7"
                     x1="138.5054"
                     y1="98.5329"
                     x2="107.554"
                     y2="129.4852"/>
            </g>
            <line class="cls-7"
                  x1="135.1225"
                  y1="122.7139"
                  x2="126.4215"
                  y2="122.7139"/>
            <line class="cls-7"
                  x1="128.4701"
                  y1="124.6484"
                  x2="126.4221"
                  y2="124.6484"/>
            <line class="cls-7"
                  x1="131.7962"
                  y1="124.6484"
                  x2="129.7482"
                  y2="124.6484"/>
            <line class="cls-7"
                  x1="135.1225"
                  y1="124.6484"
                  x2="133.0745"
                  y2="124.6484"/>
            <line class="cls-7"
                  x1="119.197"
                  y1="103.0491"
                  x2="110.496"
                  y2="103.0491"/>
            <line class="cls-7"
                  x1="112.5446"
                  y1="104.9836"
                  x2="110.4966"
                  y2="104.9836"/>
            <line class="cls-7"
                  x1="115.8708"
                  y1="104.9747"
                  x2="113.8228"
                  y2="104.9747"/>
            <line class="cls-7"
                  x1="119.197"
                  y1="104.9747"
                  x2="117.149"
                  y2="104.9747"/>
         </g>
      </g>
      <g id="Rectifier-6" data-name="Rectifier">
         <g class="cls-26">
            <rect class="cls-12"
                  x="104.7119"
                  y="96.535"
                  width="30.9522"
                  height="30.9522"/>
            <g class="cls-1">
               <rect class="cls-7"
                     x="104.5557"
                     y="96.535"
                     width="30.9522"
                     height="30.9522"/>
               <line class="cls-7"
                     x1="135.5054"
                     y1="96.5329"
                     x2="104.554"
                     y2="127.4852"/>
            </g>
            <line class="cls-7"
                  x1="132.1225"
                  y1="120.7139"
                  x2="123.4215"
                  y2="120.7139"/>
            <line class="cls-7"
                  x1="125.4701"
                  y1="122.6484"
                  x2="123.4221"
                  y2="122.6484"/>
            <line class="cls-7"
                  x1="128.7962"
                  y1="122.6484"
                  x2="126.7482"
                  y2="122.6484"/>
            <line class="cls-7"
                  x1="132.1225"
                  y1="122.6484"
                  x2="130.0745"
                  y2="122.6484"/>
            <line class="cls-7"
                  x1="116.197"
                  y1="101.0491"
                  x2="107.496"
                  y2="101.0491"/>
            <line class="cls-7"
                  x1="109.5446"
                  y1="102.9836"
                  x2="107.4966"
                  y2="102.9836"/>
            <line class="cls-7"
                  x1="112.8708"
                  y1="102.9747"
                  x2="110.8228"
                  y2="102.9747"/>
            <line class="cls-7"
                  x1="116.197"
                  y1="102.9747"
                  x2="114.149"
                  y2="102.9747"/>
         </g>
      </g>
      <g id="Artwork_13" data-name="Artwork 13">
         <g class="cls-24">
            <g class="cls-35">
               <path class="cls-13"
                     d="M37.9675,112.0107c1.104,0,2,.896,2,2s-.896,2-2,2-2-.896-2-2,.896-2,2-2"/>
               <circle class="cls-6" cx="37.9675" cy="114.0107" r="2"/>
            </g>
         </g>
      </g>
      <g id="Artwork_13-2" data-name="Artwork 13">
         <g class="cls-22">
            <g class="cls-16">
               <path class="cls-13"
                     d="M37.9675,42.0098c1.104,0,2,.896,2,2s-.896,2-2,2-2-.896-2-2,.896-2,2-2"/>
               <circle class="cls-6" cx="37.9675" cy="44.0098" r="2"/>
            </g>
         </g>
      </g>
      <g id="Artwork_20" data-name="Artwork 20">
         <g class="cls-17">
            <rect class="cls-12"
                  x="67.6518"
                  y="111.5677"
                  width="14.612"
                  height="5.032"/>
            <g class="cls-21">
               <line class="cls-6"
                     x1="67.6339"
                     y1="120.8459"
                     x2="82.2639"
                     y2="114.0799"/>
               <path class="cls-11"
                     d="M82.2638,115.0842h0c-.55,0-1-.45-1-1,0-.551.45-1,1-1s1,.449,1,1c0,.55-.45,1-1,1"/>
               <path class="cls-11"
                     d="M67.6339,115.0842h0c-.55,0-1-.45-1-1,0-.551.45-1,1-1s1,.449,1,1c0,.55-.45,1-1,1"/>
            </g>
         </g>
      </g>
      <g id="Artwork_13-3" data-name="Artwork 13">
         <g class="cls-36">
            <g class="cls-30">
               <path class="cls-13"
                     d="M253.0712,42.0101c1.104,0,2,.896,2,2s-.896,2-2,2-2-.896-2-2,.896-2,2-2"/>
               <circle class="cls-6" cx="253.0712" cy="44.0101" r="2"/>
            </g>
         </g>
      </g>
      <g id="Connect">
         <g class="cls-23">
            <g class="cls-27">
               <path class="cls-10"
                     d="M192.6725,43.0686c.553,0,1,.449,1,1.003,0,.555-.447,1.003-1,1.003-.552,0-1-.448-1-1.003,0-.554.448-1.003,1-1.003"/>
               <circle class="cls-8" cx="192.6725" cy="44.0716" r="1"/>
            </g>
         </g>
      </g>
      <text class="cls-37" transform="translate(10.1874 104.0005)">
         <tspan x="0" y="0">DC INPUT 2</tspan>
      </text>
      <text class="cls-37" transform="translate(8.7982 34.0005)">
         <tspan x="0" y="0" xml:space="preserve"> DC INPUT 1</tspan>
      </text>
      <text class="cls-37" transform="translate(106.4335 10.733)">
         <tspan x="0" y="0">DC/DC</tspan>
      </text>
      <text class="cls-37" transform="translate(90.8745 22.853)">
         <tspan x="0" y="0">CONVERTER</tspan>
      </text>
      <text class="cls-37" transform="translate(106.4335 80.7428)">
         <tspan x="0" y="0">DC/DC</tspan>
      </text>
      <text class="cls-37" transform="translate(90.8744 92.8628)">
         <tspan x="0" y="0">CONVERTER</tspan>
      </text>
      <text class="cls-37" transform="translate(223.9064 34.0094)">
         <tspan x="0" y="0">DC OUTPUT</tspan>
      </text>
   </g>
</svg>
