<?xml version="1.0" encoding="UTF-8"?>
<svg xmlns="http://www.w3.org/2000/svg"
     xmlns:xlink="http://www.w3.org/1999/xlink"
     width="115mm"
     height="55mm"
     viewBox="0 0 325.9843 155.9055">
   <defs>
      <style>
      .cls-1 {
        clip-path: url(#clippath-20);
      }

      .cls-2 {
        clip-path: url(#clippath-11);
      }

      .cls-3 {
        clip-path: url(#clippath-16);
      }

      .cls-4 {
        stroke: #c6c6c6;
        stroke-width: 5px;
      }

      .cls-4, .cls-5, .cls-6, .cls-7, .cls-8, .cls-9, .cls-10 {
        fill: none;
      }

      .cls-4, .cls-5, .cls-8, .cls-9, .cls-10 {
        stroke-miterlimit: 3;
      }

      .cls-5 {
        stroke-width: .645px;
      }

      .cls-5, .cls-8, .cls-10 {
        stroke: #000;
      }

      .cls-11 {
        clip-path: url(#clippath-2);
      }

      .cls-12, .cls-13, .cls-14, .cls-7, .cls-15, .cls-16, .cls-17, .cls-18 {
        stroke-width: 0px;
      }

      .cls-12, .cls-15 {
        fill: #010101;
      }

      .cls-13, .cls-15, .cls-17 {
        fill-rule: evenodd;
      }

      .cls-19 {
        clip-path: url(#clippath-13);
      }

      .cls-20 {
        clip-path: url(#clippath-25);
      }

      .cls-21 {
        clip-path: url(#clippath-15);
      }

      .cls-22 {
        clip-path: url(#clippath-6);
      }

      .cls-6 {
        stroke-miterlimit: 10;
      }

      .cls-6, .cls-8, .cls-9 {
        stroke-width: .75px;
      }

      .cls-6, .cls-9 {
        stroke: #010101;
      }

      .cls-23 {
        clip-path: url(#clippath-7);
      }

      .cls-24 {
        clip-path: url(#clippath-21);
      }

      .cls-25 {
        clip-path: url(#clippath-1);
      }

      .cls-26 {
        clip-path: url(#clippath-4);
      }

      .cls-27 {
        clip-path: url(#clippath-12);
      }

      .cls-16, .cls-17 {
        fill: #fff;
      }

      .cls-28 {
        clip-path: url(#clippath-24);
      }

      .cls-29 {
        clip-path: url(#clippath-22);
      }

      .cls-30 {
        clip-path: url(#clippath-9);
      }

      .cls-31 {
        clip-path: url(#clippath);
      }

      .cls-32 {
        clip-path: url(#clippath-19);
      }

      .cls-33 {
        clip-path: url(#clippath-3);
      }

      .cls-18 {
        fill: #c6c6c6;
      }

      .cls-34 {
        clip-path: url(#clippath-8);
      }

      .cls-35 {
        clip-path: url(#clippath-18);
      }

      .cls-36 {
        clip-path: url(#clippath-14);
      }

      .cls-37 {
        clip-path: url(#clippath-17);
      }

      .cls-38 {
        clip-path: url(#clippath-5);
      }

      .cls-39 {
        clip-path: url(#clippath-10);
      }

      .cls-40 {
        clip-path: url(#clippath-23);
      }

      .cls-10 {
        stroke-width: .5px;
      }

      .cls-41 {
        fill: #01889C;
        font-family: Arial-BoldMT, Arial;
        font-size: 10px;
        font-weight: 700;
      }
    </style>
      <clipPath id="clippath">
         <rect class="cls-7"
               x="133.6621"
               y="98.4739"
               width="4.5709"
               height="4.5819"/>
      </clipPath>
      <clipPath id="clippath-1">
         <rect class="cls-7"
               x="133.6621"
               y="98.4738"
               width="4.571"
               height="4.582"/>
      </clipPath>
      <clipPath id="clippath-2">
         <rect class="cls-7"
               x="221.7507"
               y="98.4739"
               width="4.5709"
               height="4.5819"/>
      </clipPath>
      <clipPath id="clippath-3">
         <rect class="cls-7"
               x="221.7507"
               y="98.4738"
               width="4.571"
               height="4.582"/>
      </clipPath>
      <clipPath id="clippath-4">
         <rect class="cls-7"
               x="133.6621"
               y="38.4739"
               width="4.5709"
               height="4.5819"/>
      </clipPath>
      <clipPath id="clippath-5">
         <rect class="cls-7"
               x="133.6621"
               y="38.4738"
               width="4.571"
               height="4.582"/>
      </clipPath>
      <clipPath id="clippath-6">
         <rect class="cls-7"
               x="277.6036"
               y="97.6403"
               width="6.125"
               height="6.125"/>
      </clipPath>
      <clipPath id="clippath-7">
         <rect class="cls-7"
               x="277.6036"
               y="97.6403"
               width="6.125"
               height="6.125"/>
      </clipPath>
      <clipPath id="clippath-8">
         <rect class="cls-7"
               x="37.5424"
               y="37.6403"
               width="6.125"
               height="6.125"/>
      </clipPath>
      <clipPath id="clippath-9">
         <rect class="cls-7"
               x="37.5424"
               y="37.6403"
               width="6.125"
               height="6.125"/>
      </clipPath>
      <clipPath id="clippath-10">
         <rect class="cls-7"
               x="83.1636"
               y="80.9411"
               width="38.2419"
               height="40.5368"/>
      </clipPath>
      <clipPath id="clippath-11">
         <rect class="cls-7"
               x="89.1626"
               y="85.3669"
               width="32.242"
               height="36.111"/>
      </clipPath>
      <clipPath id="clippath-12">
         <rect class="cls-7"
               x="86.1636"
               y="83.1859"
               width="32.242"
               height="36.112"/>
      </clipPath>
      <clipPath id="clippath-13">
         <rect class="cls-7"
               x="83.1636"
               y="80.9409"
               width="32.242"
               height="36.112"/>
      </clipPath>
      <clipPath id="clippath-14">
         <rect class="cls-7"
               x="83.1636"
               y="80.9409"
               width="32.242"
               height="36.112"/>
      </clipPath>
      <clipPath id="clippath-15">
         <rect class="cls-7"
               x="65.2284"
               y="32.6307"
               width="16.63"
               height="16.2683"/>
      </clipPath>
      <clipPath id="clippath-16">
         <rect class="cls-7"
               x="65.2284"
               y="32.631"
               width="16.63"
               height="16.268"/>
      </clipPath>
      <clipPath id="clippath-17">
         <rect class="cls-7"
               x="199.8719"
               y="32.6307"
               width="16.63"
               height="16.2683"/>
      </clipPath>
      <clipPath id="clippath-18">
         <rect class="cls-7"
               x="199.8719"
               y="32.631"
               width="16.63"
               height="16.268"/>
      </clipPath>
      <clipPath id="clippath-19">
         <rect class="cls-7"
               x="199.8719"
               y="134.5081"
               width="16.63"
               height="16.2683"/>
      </clipPath>
      <clipPath id="clippath-20">
         <rect class="cls-7"
               x="199.8719"
               y="134.5084"
               width="16.63"
               height="16.268"/>
      </clipPath>
      <clipPath id="clippath-21">
         <rect class="cls-7"
               x="244.0361"
               y="92.6307"
               width="16.63"
               height="16.2683"/>
      </clipPath>
      <clipPath id="clippath-22">
         <rect class="cls-7"
               x="244.0361"
               y="92.631"
               width="16.63"
               height="16.268"/>
      </clipPath>
      <clipPath id="clippath-23">
         <rect class="cls-7"
               x="150.9475"
               y="56.304"
               width="38.0886"
               height="59.5948"/>
      </clipPath>
      <clipPath id="clippath-24">
         <rect class="cls-7"
               x="150.9475"
               y="56.3038"
               width="38.089"
               height="59.595"/>
      </clipPath>
      <clipPath id="clippath-25">
         <rect class="cls-7"
               x="150.9475"
               y="56.3038"
               width="38.089"
               height="59.595"/>
      </clipPath>
   </defs>
   <g id="Layer_4" data-name="Layer 4">
      <g>
         <polyline class="cls-4"
                   points="286.4898 100.7649 224.0361 100.7649 224.0361 40.7649 40.6046 40.7649"/>
         <polygon class="cls-18"
                  points="285.0309 95.7785 293.6661 100.7649 285.0309 105.7512 285.0309 95.7785"/>
      </g>
      <g>
         <polygon class="cls-18"
                  points="133.6792 46.9148 133.6792 43.5472 138.2158 47.1692 138.2158 50.5368 133.6792 46.9148"/>
         <polygon class="cls-18"
                  points="133.6792 55.475 133.6792 52.1073 138.2158 55.7294 138.2158 59.0969 133.6792 55.475"/>
         <polygon class="cls-18"
                  points="133.6792 64.0351 133.6792 60.6675 138.2158 64.2895 138.2158 67.657 133.6792 64.0351"/>
         <polygon class="cls-18"
                  points="141.7485 73.7642 138.3808 73.7642 142.0028 69.2276 145.3705 69.2276 141.7485 73.7642"/>
         <polygon class="cls-18"
                  points="148.9031 73.7642 145.5355 73.7642 149.1575 69.2276 152.525 69.2276 148.9031 73.7642"/>
      </g>
      <g>
         <polygon class="cls-18"
                  points="218.5962 144.8976 215.2286 144.9124 218.8307 140.36 222.1982 140.3452 218.5962 144.8976"/>
         <polygon class="cls-18"
                  points="226.3044 136.5827 226.3044 139.9502 221.7678 136.3283 221.7678 132.9607 226.3044 136.5827"/>
         <polygon class="cls-18"
                  points="226.3044 129.1963 226.3044 132.5639 221.7678 128.9419 221.7678 125.5744 226.3044 129.1963"/>
         <polygon class="cls-18"
                  points="226.3044 121.81 226.3044 125.1776 221.7678 121.5556 221.7678 118.188 226.3044 121.81"/>
         <polygon class="cls-18"
                  points="226.3044 114.4236 226.3044 117.7912 221.7678 114.1693 221.7678 110.8017 226.3044 114.4236"/>
         <polygon class="cls-18"
                  points="226.3044 107.0373 226.3044 110.4049 221.7678 106.7829 221.7678 103.4153 226.3044 107.0373"/>
      </g>
      <g>
         <polygon class="cls-18"
                  points="80.2326 98.4396 83.6002 98.4347 79.9847 102.9765 76.6172 102.9814 80.2326 98.4396"/>
         <polygon class="cls-18"
                  points="73.0661 98.4499 76.4337 98.4451 72.8183 102.9869 69.4507 102.9917 73.0661 98.4499"/>
         <polygon class="cls-18"
                  points="65.8996 98.4602 69.2672 98.4554 65.6518 102.9971 62.2843 103.002 65.8996 98.4602"/>
         <polygon class="cls-18"
                  points="58.7331 98.4705 62.1008 98.4657 58.4853 103.0074 55.1178 103.0123 58.7331 98.4705"/>
         <polygon class="cls-18"
                  points="51.5668 98.4808 54.9343 98.4759 51.3188 103.0177 47.9513 103.0226 51.5668 98.4808"/>
         <polygon class="cls-18"
                  points="44.4002 98.4911 47.7678 98.4863 44.1523 103.0281 40.7848 103.0329 44.4002 98.4911"/>
      </g>
      <g>
         <polygon class="cls-18"
                  points="218.7099 98.4367 222.0776 98.4346 218.4584 102.9734 215.0908 102.9755 218.7099 98.4367"/>
         <polygon class="cls-18"
                  points="211.519 98.4411 214.8866 98.439 211.2674 102.9778 207.8999 102.9799 211.519 98.4411"/>
         <polygon class="cls-18"
                  points="204.3281 98.4455 207.6957 98.4435 204.0765 102.9823 200.709 102.9844 204.3281 98.4455"/>
         <polygon class="cls-18"
                  points="197.1371 98.4499 200.5047 98.4479 196.8855 102.9867 193.5179 102.9888 197.1371 98.4499"/>
         <polygon class="cls-18"
                  points="189.9461 98.4544 193.3137 98.4523 189.6946 102.9911 186.327 102.9932 189.9461 98.4544"/>
         <polygon class="cls-18"
                  points="182.7552 98.4588 186.1228 98.4567 182.5036 102.9955 179.1361 102.9976 182.7552 98.4588"/>
         <polygon class="cls-18"
                  points="175.5642 98.4632 178.9317 98.4612 175.3126 103 171.945 103.0021 175.5642 98.4632"/>
         <polygon class="cls-18"
                  points="168.3733 98.4676 171.7408 98.4656 168.1217 103.0044 164.7541 103.0065 168.3733 98.4676"/>
         <polygon class="cls-18"
                  points="161.1824 98.4721 164.5499 98.47 160.9308 103.0088 157.5632 103.0109 161.1824 98.4721"/>
         <polygon class="cls-18"
                  points="153.9913 98.4765 157.3589 98.4744 153.7397 103.0132 150.3722 103.0153 153.9913 98.4765"/>
         <polygon class="cls-18"
                  points="146.8004 98.4809 150.1679 98.4789 146.5488 103.0177 143.1813 103.0198 146.8004 98.4809"/>
         <polygon class="cls-18"
                  points="139.6095 98.4853 142.977 98.4833 139.3579 103.0221 135.9902 103.0242 139.6095 98.4853"/>
         <polygon class="cls-18"
                  points="132.4184 98.4898 135.786 98.4877 132.1668 103.0265 128.7993 103.0286 132.4184 98.4898"/>
         <polygon class="cls-18"
                  points="125.2275 98.4942 128.5951 98.4921 124.9759 103.0309 121.6084 103.033 125.2275 98.4942"/>
      </g>
      <g>
         <polygon class="cls-18"
                  points="134.0229 106.7105 134.0229 103.3429 138.5596 106.9648 138.5596 110.3324 134.0229 106.7105"/>
         <polygon class="cls-18"
                  points="134.0229 114.1095 134.0229 110.7419 138.5596 114.3639 138.5596 117.7314 134.0229 114.1095"/>
         <polygon class="cls-18"
                  points="134.0229 121.5085 134.0229 118.1409 138.5596 121.7629 138.5596 125.1304 134.0229 121.5085"/>
         <polygon class="cls-18"
                  points="134.0229 128.9075 134.0229 125.5399 138.5596 129.1619 138.5596 132.5294 134.0229 128.9075"/>
         <polygon class="cls-18"
                  points="134.0229 136.3064 134.0229 132.9389 138.5596 136.5608 138.5596 139.9284 134.0229 136.3064"/>
         <polygon class="cls-18"
                  points="142.6233 144.8768 139.2556 144.8749 142.8802 140.3404 146.2478 140.3423 142.6233 144.8768"/>
         <polygon class="cls-18"
                  points="150.3115 144.8813 146.9439 144.8793 150.5686 140.3448 153.9361 140.3468 150.3115 144.8813"/>
         <polygon class="cls-18"
                  points="157.9999 144.8857 154.6323 144.8838 158.2568 140.3493 161.6244 140.3512 157.9999 144.8857"/>
         <polygon class="cls-18"
                  points="165.6881 144.8902 162.3205 144.8882 165.9452 140.3537 169.3127 140.3557 165.6881 144.8902"/>
         <polygon class="cls-18"
                  points="173.3764 144.8946 170.0089 144.8927 173.6335 140.3582 177.0011 140.3602 173.3764 144.8946"/>
         <polygon class="cls-18"
                  points="181.0648 144.8991 177.6972 144.8971 181.3218 140.3627 184.6893 140.3646 181.0648 144.8991"/>
         <polygon class="cls-18"
                  points="188.753 144.9035 185.3855 144.9016 189.0101 140.3671 192.3777 140.3691 188.753 144.9035"/>
         <polygon class="cls-18"
                  points="196.4414 144.908 193.0738 144.9061 196.6983 140.3716 200.066 140.3735 196.4414 144.908"/>
      </g>
   </g>
   <g id="Paths">
      <path class="cls-8" d="m244.5933,100.7649H40.6049"/>
      <path class="cls-8" d="m280.6475,100.7649h-20.45"/>
      <path class="cls-8" d="m200.6142,40.7649h-119.3102"/>
      <path class="cls-8" d="m65.9598,40.7649h-24.4537"/>
      <polyline class="cls-8"
                points="224.0361 100.7028 224.0361 40.7649 216.2253 40.7649"/>
      <polyline class="cls-8"
                points="216.0864 142.6422 224.0361 142.6422 224.0361 100.7649"/>
      <polyline class="cls-8"
                points="135.9475 100.7028 135.9475 142.6422 200.4197 142.6422"/>
      <polyline class="cls-8"
                points="135.9475 40.7649 135.9475 71.5332 150.9475 71.5332"/>
      <g id="Connect">
         <g class="cls-31">
            <g class="cls-25">
               <path class="cls-13"
                     d="m135.9472,99.7615c.553,0,1,.449,1,1.003,0,.555-.447,1.003-1,1.003-.552,0-1-.448-1-1.003,0-.554.448-1.003,1-1.003"/>
               <circle class="cls-10" cx="135.9472" cy="100.7645" r="1"/>
            </g>
         </g>
      </g>
      <g id="Connect-2" data-name="Connect">
         <g class="cls-11">
            <g class="cls-33">
               <path class="cls-13"
                     d="m224.0358,99.7615c.553,0,1,.449,1,1.003,0,.555-.447,1.003-1,1.003-.552,0-1-.448-1-1.003,0-.554.448-1.003,1-1.003"/>
               <circle class="cls-10" cx="224.0358" cy="100.7645" r="1"/>
            </g>
         </g>
      </g>
      <g id="Connect-3" data-name="Connect">
         <g class="cls-26">
            <g class="cls-38">
               <path class="cls-13"
                     d="m135.9472,39.7615c.553,0,1,.449,1,1.003,0,.555-.447,1.003-1,1.003-.552,0-1-.448-1-1.003,0-.554.448-1.003,1-1.003"/>
               <circle class="cls-10" cx="135.9472" cy="40.7645" r="1"/>
            </g>
         </g>
      </g>
   </g>
   <g id="Parts">
      <g id="Artwork_13" data-name="Artwork 13">
         <g class="cls-22">
            <g class="cls-23">
               <path class="cls-17"
                     d="m280.666,98.7032c1.104,0,2,.896,2,2s-.896,2-2,2-2-.896-2-2,.896-2,2-2"/>
               <circle class="cls-8" cx="280.666" cy="100.7032" r="2"/>
            </g>
         </g>
      </g>
      <g id="Artwork_13-2" data-name="Artwork 13">
         <g class="cls-34">
            <g class="cls-30">
               <path class="cls-17"
                     d="m40.6048,38.7032c1.104,0,2,.896,2,2s-.896,2-2,2-2-.896-2-2,.896-2,2-2"/>
               <circle class="cls-8" cx="40.6048" cy="40.7032" r="2"/>
            </g>
         </g>
      </g>
      <g id="Modular_Inverter" data-name="Modular Inverter">
         <g class="cls-39">
            <rect class="cls-16"
                  x="89.8076"
                  y="87.9459"
                  width="30.952"
                  height="30.952"/>
            <rect class="cls-5"
                  x="89.8074"
                  y="87.9456"
                  width="30.952"
                  height="30.952"/>
            <line class="cls-5"
                  x1="89.8099"
                  y1="118.8998"
                  x2="120.7609"
                  y2="87.9478"/>
            <line class="cls-5"
                  x1="93.1928"
                  y1="94.7188"
                  x2="101.8938"
                  y2="94.7188"/>
            <line class="cls-5"
                  x1="99.8452"
                  y1="92.7843"
                  x2="101.8932"
                  y2="92.7843"/>
            <line class="cls-5"
                  x1="96.519"
                  y1="92.7843"
                  x2="98.567"
                  y2="92.7843"/>
            <line class="cls-5"
                  x1="93.1928"
                  y1="92.7843"
                  x2="95.2408"
                  y2="92.7843"/>
            <g class="cls-2">
               <path class="cls-5"
                     d="m117.3457,113.5308c-.121,1.086-.988,1.825-1.935,1.825s-1.702-.482-1.934-1.825c-.232-1.343-1.121-1.824-1.935-1.824-.813,0-1.835.755-1.934,1.824"/>
            </g>
            <rect class="cls-16"
                  x="86.8076"
                  y="85.7649"
                  width="30.952"
                  height="30.952"/>
            <rect class="cls-5"
                  x="86.8074"
                  y="85.7654"
                  width="30.952"
                  height="30.952"/>
            <line class="cls-5"
                  x1="86.8099"
                  y1="116.7196"
                  x2="117.7609"
                  y2="85.7676"/>
            <line class="cls-5"
                  x1="90.1928"
                  y1="92.5387"
                  x2="98.8938"
                  y2="92.5387"/>
            <line class="cls-5"
                  x1="96.8452"
                  y1="90.6042"
                  x2="98.8932"
                  y2="90.6042"/>
            <line class="cls-5"
                  x1="93.519"
                  y1="90.6042"
                  x2="95.567"
                  y2="90.6042"/>
            <line class="cls-5"
                  x1="90.1928"
                  y1="90.6042"
                  x2="92.2408"
                  y2="90.6042"/>
            <g class="cls-27">
               <path class="cls-5"
                     d="m114.3457,111.3506c-.121,1.086-.988,1.825-1.935,1.825s-1.702-.482-1.934-1.825c-.232-1.343-1.121-1.824-1.935-1.824-.813,0-1.835.755-1.934,1.824"/>
            </g>
            <rect class="cls-16"
                  x="83.8066"
                  y="83.5189"
                  width="30.953"
                  height="30.953"/>
            <g class="cls-19">
               <rect class="cls-5"
                     x="83.8074"
                     y="83.5198"
                     width="30.952"
                     height="30.952"/>
               <line class="cls-5"
                     x1="83.8099"
                     y1="114.474"
                     x2="114.7609"
                     y2="83.522"/>
            </g>
            <line class="cls-5"
                  x1="87.1928"
                  y1="90.2931"
                  x2="95.8938"
                  y2="90.2931"/>
            <line class="cls-5"
                  x1="93.8452"
                  y1="88.3585"
                  x2="95.8932"
                  y2="88.3585"/>
            <line class="cls-5"
                  x1="90.519"
                  y1="88.3585"
                  x2="92.567"
                  y2="88.3585"/>
            <line class="cls-5"
                  x1="87.1928"
                  y1="88.3585"
                  x2="89.2408"
                  y2="88.3585"/>
            <g class="cls-36">
               <path class="cls-5"
                     d="m111.3457,109.105c-.121,1.086-.988,1.825-1.935,1.825s-1.702-.482-1.934-1.825c-.232-1.343-1.121-1.824-1.935-1.824-.813,0-1.835.755-1.934,1.824"/>
            </g>
         </g>
      </g>
      <g id="Artwork_20_no_white" data-name="Artwork 20 no white">
         <g class="cls-21">
            <g class="cls-3">
               <line class="cls-8"
                     x1="66.2285"
                     y1="47.5422"
                     x2="80.8584"
                     y2="40.7762"/>
               <path class="cls-14"
                     d="m80.8584,41.7805h0c-.55,0-1-.45-1-1,0-.551.45-1,1-1s1,.449,1,1c0,.55-.45,1-1,1"/>
               <path class="cls-14"
                     d="m66.2285,41.7805h0c-.55,0-1-.45-1-1,0-.551.45-1,1-1s1,.449,1,1c0,.55-.45,1-1,1"/>
            </g>
         </g>
      </g>
      <g id="Artwork_20_no_white-2" data-name="Artwork 20 no white">
         <g class="cls-37">
            <g class="cls-35">
               <line class="cls-8"
                     x1="200.872"
                     y1="47.5422"
                     x2="215.502"
                     y2="40.7762"/>
               <path class="cls-14"
                     d="m215.5019,41.7805h0c-.55,0-1-.45-1-1,0-.551.45-1,1-1s1,.449,1,1c0,.55-.45,1-1,1"/>
               <path class="cls-14"
                     d="m200.872,41.7805h0c-.55,0-1-.45-1-1,0-.551.45-1,1-1s1,.449,1,1c0,.55-.45,1-1,1"/>
            </g>
         </g>
      </g>
      <g id="Artwork_20_no_white-3" data-name="Artwork 20 no white">
         <g class="cls-32">
            <g class="cls-1">
               <line class="cls-8"
                     x1="200.872"
                     y1="149.4196"
                     x2="215.502"
                     y2="142.6536"/>
               <path class="cls-14"
                     d="m215.5019,143.6579h0c-.55,0-1-.45-1-1,0-.551.45-1,1-1s1,.449,1,1c0,.55-.45,1-1,1"/>
               <path class="cls-14"
                     d="m200.872,143.6579h0c-.55,0-1-.45-1-1,0-.551.45-1,1-1s1,.449,1,1c0,.55-.45,1-1,1"/>
            </g>
         </g>
      </g>
      <g id="Artwork_20_no_white-4" data-name="Artwork 20 no white">
         <g class="cls-24">
            <g class="cls-29">
               <line class="cls-8"
                     x1="245.0362"
                     y1="107.5422"
                     x2="259.6662"
                     y2="100.7762"/>
               <path class="cls-14"
                     d="m259.6661,101.7805h0c-.55,0-1-.45-1-1,0-.551.45-1,1-1s1,.449,1,1c0,.55-.45,1-1,1"/>
               <path class="cls-14"
                     d="m245.0362,101.7805h0c-.55,0-1-.45-1-1,0-.551.45-1,1-1s1,.449,1,1c0,.55-.45,1-1,1"/>
            </g>
         </g>
      </g>
      <g id="Modular-SSW">
         <g class="cls-40">
            <rect class="cls-16"
                  x="151.3225"
                  y="56.6788"
                  width="37.338"
                  height="58.845"/>
            <g class="cls-28">
               <rect class="cls-9"
                     x="151.3225"
                     y="56.6788"
                     width="37.339"
                     height="58.845"/>
               <polyline class="cls-6"
                         points="151.3225 100.8133 180.6615 100.8133 180.6615 71.3913 151.3225 71.3913"/>
            </g>
            <rect class="cls-16"
                  x="158.6525"
                  y="93.2278"
                  width="15.128"
                  height="15.171"/>
            <rect class="cls-9"
                  x="158.6525"
                  y="93.2278"
                  width="15.128"
                  height="15.171"/>
            <line class="cls-9"
                  x1="163.6202"
                  y1="112.0787"
                  x2="163.6202"
                  y2="104.7187"/>
            <line class="cls-9"
                  x1="166.5623"
                  y1="112.0787"
                  x2="166.5523"
                  y2="109.7367"/>
            <path class="cls-12"
                  d="m169.8171,105.9347v4.928l-4.908-2.464,4.908-2.464Zm.75-1.216l-7.33,3.68,7.33,3.68v-7.36Z"/>
            <line class="cls-9"
                  x1="169.2787"
                  y1="89.6014"
                  x2="169.2787"
                  y2="96.9614"/>
            <line class="cls-9"
                  x1="165.9899"
                  y1="89.5501"
                  x2="165.9899"
                  y2="91.5631"/>
            <path class="cls-12"
                  d="m163.0749,90.7625l4.908,2.464-4.908,2.464v-4.928Zm-.75-1.216v7.36l7.33-3.68-7.33-3.68Z"/>
            <g class="cls-20">
               <path class="cls-15"
                     d="m158.6529,99.8126c.551,0,.997.448.997,1s-.446,1-.997,1-.997-.448-.997-1,.446-1,.997-1"/>
               <circle class="cls-9" cx="158.6529" cy="100.8126" r=".997"/>
               <path class="cls-15"
                     d="m173.7806,99.8133c.551,0,.997.448.997,1s-.446,1-.997,1-.997-.448-.997-1,.446-1,.997-1"/>
               <circle class="cls-9" cx="173.7806" cy="100.8133" r=".997"/>
               <rect class="cls-16"
                     x="158.6525"
                     y="63.8058"
                     width="15.128"
                     height="15.171"/>
               <rect class="cls-9"
                     x="158.6525"
                     y="63.8058"
                     width="15.128"
                     height="15.171"/>
               <line class="cls-9"
                     x1="163.6202"
                     y1="82.6563"
                     x2="163.6202"
                     y2="75.2963"/>
               <line class="cls-9"
                     x1="166.5623"
                     y1="82.6563"
                     x2="166.5523"
                     y2="80.3143"/>
               <path class="cls-12"
                     d="m169.8171,76.5123v4.928l-4.908-2.464,4.908-2.464Zm.75-1.216l-7.33,3.68,7.33,3.68v-7.36Z"/>
               <line class="cls-9"
                     x1="169.2787"
                     y1="60.179"
                     x2="169.2787"
                     y2="67.539"/>
               <line class="cls-9"
                     x1="165.9899"
                     y1="60.1277"
                     x2="165.9899"
                     y2="62.1407"/>
               <path class="cls-12"
                     d="m163.0749,61.3401l4.908,2.464-4.908,2.464v-4.928Zm-.75-1.216v7.36l7.33-3.68-7.33-3.68Z"/>
               <path class="cls-15"
                     d="m158.6529,70.3902c.551,0,.997.448.997,1s-.446,1-.997,1-.997-.448-.997-1,.446-1,.997-1"/>
               <circle class="cls-9" cx="158.6529" cy="71.3902" r=".997"/>
               <path class="cls-15"
                     d="m173.7806,70.3909c.551,0,.997.448.997,1s-.446,1-.997,1-.997-.448-.997-1,.446-1,.997-1"/>
               <circle class="cls-9" cx="173.7806" cy="71.3909" r=".997"/>
               <line class="cls-6"
                     x1="188.6611"
                     y1="100.8126"
                     x2="180.6611"
                     y2="100.8126"/>
               <path class="cls-15"
                     d="m180.6611,99.8133c.551,0,.997.448.997,1s-.446,1-.997,1-.997-.448-.997-1,.446-1,.997-1"/>
               <circle class="cls-9" cx="180.6611" cy="100.8133" r=".997"/>
            </g>
         </g>
      </g>
   </g>
   <g id="Text">
      <text class="cls-41" transform="translate(20.0431 18.6937)">
         <tspan x="0" y="0">BYPASS</tspan>
         <tspan x="4.4507" y="12">MAINS</tspan>
      </text>
      <text class="cls-41" transform="translate(77.0035 78.6934)">
         <tspan x="0" y="0">INVERTER</tspan>
      </text>
      <text class="cls-41" transform="translate(251.4824 94.0575)">
         <tspan x="0" y="0">AC OUTPUT</tspan>
      </text>
      <text class="cls-41" transform="translate(16.9938 94.0575)">
         <tspan x="0" y="0">DC INPUT</tspan>
      </text>
      <text class="cls-41" transform="translate(138.1916 18.6938)">
         <tspan x="0" y="0">STATIC</tspan>
      </text>
      <text class="cls-41" transform="translate(136.5265 30.6936)">
         <tspan x="0" y="0">SWITCH</tspan>
      </text>
      <text class="cls-41" transform="translate(194.5628 18.6938)">
         <tspan x="0" y="0">MANUAL</tspan>
      </text>
      <text class="cls-41" transform="translate(195.6639 30.6938)">
         <tspan x="0" y="0">BYPASS</tspan>
      </text>
   </g>
</svg>
