<?xml version="1.0" encoding="UTF-8"?>
<svg xmlns="http://www.w3.org/2000/svg"
     xmlns:xlink="http://www.w3.org/1999/xlink"
     width="120mm"
     height="55mm"
     viewBox="0 0 340.1575 155.9055">
   <defs>
      <style>
      .cls-1 {
        clip-path: url(#clippath-20);
      }

      .cls-2 {
        clip-path: url(#clippath-11);
      }

      .cls-3 {
        clip-path: url(#clippath-16);
      }

      .cls-4 {
        stroke: #c6c6c6;
        stroke-width: 5px;
      }

      .cls-4, .cls-5, .cls-6, .cls-7, .cls-8, .cls-9, .cls-10 {
        fill: none;
      }

      .cls-4, .cls-5, .cls-8, .cls-9, .cls-10 {
        stroke-miterlimit: 3;
      }

      .cls-5 {
        stroke-width: .645px;
      }

      .cls-5, .cls-8, .cls-10 {
        stroke: #000;
      }

      .cls-11 {
        clip-path: url(#clippath-2);
      }

      .cls-12, .cls-13, .cls-14, .cls-7, .cls-15, .cls-16, .cls-17, .cls-18 {
        stroke-width: 0px;
      }

      .cls-12, .cls-15 {
        fill: #010101;
      }

      .cls-13, .cls-15, .cls-17 {
        fill-rule: evenodd;
      }

      .cls-19 {
        clip-path: url(#clippath-13);
      }

      .cls-20 {
        clip-path: url(#clippath-25);
      }

      .cls-21 {
        clip-path: url(#clippath-15);
      }

      .cls-22 {
        clip-path: url(#clippath-6);
      }

      .cls-23 {
        clip-path: url(#clippath-26);
      }

      .cls-6 {
        stroke-miterlimit: 10;
      }

      .cls-6, .cls-8, .cls-9 {
        stroke-width: .75px;
      }

      .cls-6, .cls-9 {
        stroke: #010101;
      }

      .cls-24 {
        clip-path: url(#clippath-7);
      }

      .cls-25 {
        clip-path: url(#clippath-21);
      }

      .cls-26 {
        clip-path: url(#clippath-1);
      }

      .cls-27 {
        clip-path: url(#clippath-4);
      }

      .cls-28 {
        clip-path: url(#clippath-27);
      }

      .cls-29 {
        clip-path: url(#clippath-12);
      }

      .cls-16, .cls-17 {
        fill: #fff;
      }

      .cls-30 {
        clip-path: url(#clippath-24);
      }

      .cls-31 {
        clip-path: url(#clippath-22);
      }

      .cls-32 {
        clip-path: url(#clippath-9);
      }

      .cls-33 {
        clip-path: url(#clippath);
      }

      .cls-34 {
        clip-path: url(#clippath-19);
      }

      .cls-35 {
        clip-path: url(#clippath-3);
      }

      .cls-18 {
        fill: #c6c6c6;
      }

      .cls-36 {
        clip-path: url(#clippath-8);
      }

      .cls-37 {
        clip-path: url(#clippath-29);
      }

      .cls-38 {
        clip-path: url(#clippath-18);
      }

      .cls-39 {
        clip-path: url(#clippath-14);
      }

      .cls-40 {
        clip-path: url(#clippath-17);
      }

      .cls-41 {
        clip-path: url(#clippath-5);
      }

      .cls-42 {
        clip-path: url(#clippath-10);
      }

      .cls-43 {
        clip-path: url(#clippath-23);
      }

      .cls-44 {
        clip-path: url(#clippath-28);
      }

      .cls-10 {
        stroke-width: .5px;
      }

      .cls-45 {
        fill: #01889C;
        font-family: Arial-BoldMT, Arial;
        font-size: 10px;
        font-weight: 700;
      }
    </style>
      <clipPath id="clippath">
         <rect class="cls-7"
               x="147.8353"
               y="98.4739"
               width="4.5709"
               height="4.5819"/>
      </clipPath>
      <clipPath id="clippath-1">
         <rect class="cls-7"
               x="147.8353"
               y="98.4738"
               width="4.571"
               height="4.582"/>
      </clipPath>
      <clipPath id="clippath-2">
         <rect class="cls-7"
               x="235.9239"
               y="98.4739"
               width="4.5709"
               height="4.5819"/>
      </clipPath>
      <clipPath id="clippath-3">
         <rect class="cls-7"
               x="235.9239"
               y="98.4738"
               width="4.571"
               height="4.582"/>
      </clipPath>
      <clipPath id="clippath-4">
         <rect class="cls-7"
               x="147.8353"
               y="38.4739"
               width="4.5709"
               height="4.5819"/>
      </clipPath>
      <clipPath id="clippath-5">
         <rect class="cls-7"
               x="147.8353"
               y="38.4738"
               width="4.571"
               height="4.582"/>
      </clipPath>
      <clipPath id="clippath-6">
         <rect class="cls-7"
               x="291.7768"
               y="97.6403"
               width="6.125"
               height="6.125"/>
      </clipPath>
      <clipPath id="clippath-7">
         <rect class="cls-7"
               x="291.7768"
               y="97.6403"
               width="6.125"
               height="6.125"/>
      </clipPath>
      <clipPath id="clippath-8">
         <rect class="cls-7"
               x="33.0209"
               y="97.6403"
               width="6.125"
               height="6.125"/>
      </clipPath>
      <clipPath id="clippath-9">
         <rect class="cls-7"
               x="33.0209"
               y="97.6403"
               width="6.125"
               height="6.125"/>
      </clipPath>
      <clipPath id="clippath-10">
         <rect class="cls-7"
               x="33.0209"
               y="37.6403"
               width="6.125"
               height="6.125"/>
      </clipPath>
      <clipPath id="clippath-11">
         <rect class="cls-7"
               x="33.0209"
               y="37.6403"
               width="6.125"
               height="6.125"/>
      </clipPath>
      <clipPath id="clippath-12">
         <rect class="cls-7"
               x="97.3368"
               y="80.9411"
               width="38.2419"
               height="40.5368"/>
      </clipPath>
      <clipPath id="clippath-13">
         <rect class="cls-7"
               x="103.3358"
               y="85.3669"
               width="32.242"
               height="36.111"/>
      </clipPath>
      <clipPath id="clippath-14">
         <rect class="cls-7"
               x="100.3368"
               y="83.1859"
               width="32.242"
               height="36.112"/>
      </clipPath>
      <clipPath id="clippath-15">
         <rect class="cls-7"
               x="97.3368"
               y="80.9409"
               width="32.242"
               height="36.112"/>
      </clipPath>
      <clipPath id="clippath-16">
         <rect class="cls-7"
               x="97.3368"
               y="80.9409"
               width="32.242"
               height="36.112"/>
      </clipPath>
      <clipPath id="clippath-17">
         <rect class="cls-7"
               x="60.7068"
               y="32.6307"
               width="16.63"
               height="16.2683"/>
      </clipPath>
      <clipPath id="clippath-18">
         <rect class="cls-7"
               x="60.7068"
               y="32.631"
               width="16.63"
               height="16.268"/>
      </clipPath>
      <clipPath id="clippath-19">
         <rect class="cls-7"
               x="60.7068"
               y="92.6417"
               width="16.63"
               height="16.2683"/>
      </clipPath>
      <clipPath id="clippath-20">
         <rect class="cls-7"
               x="60.7068"
               y="92.642"
               width="16.63"
               height="16.268"/>
      </clipPath>
      <clipPath id="clippath-21">
         <rect class="cls-7"
               x="214.0451"
               y="32.6307"
               width="16.63"
               height="16.2683"/>
      </clipPath>
      <clipPath id="clippath-22">
         <rect class="cls-7"
               x="214.0451"
               y="32.631"
               width="16.63"
               height="16.268"/>
      </clipPath>
      <clipPath id="clippath-23">
         <rect class="cls-7"
               x="214.0451"
               y="134.5081"
               width="16.63"
               height="16.2683"/>
      </clipPath>
      <clipPath id="clippath-24">
         <rect class="cls-7"
               x="214.0451"
               y="134.5084"
               width="16.63"
               height="16.268"/>
      </clipPath>
      <clipPath id="clippath-25">
         <rect class="cls-7"
               x="258.2093"
               y="92.6307"
               width="16.63"
               height="16.2683"/>
      </clipPath>
      <clipPath id="clippath-26">
         <rect class="cls-7"
               x="258.2093"
               y="92.631"
               width="16.63"
               height="16.268"/>
      </clipPath>
      <clipPath id="clippath-27">
         <rect class="cls-7"
               x="165.1207"
               y="56.304"
               width="38.0886"
               height="59.5948"/>
      </clipPath>
      <clipPath id="clippath-28">
         <rect class="cls-7"
               x="165.1207"
               y="56.3038"
               width="38.089"
               height="59.595"/>
      </clipPath>
      <clipPath id="clippath-29">
         <rect class="cls-7"
               x="165.1207"
               y="56.3038"
               width="38.089"
               height="59.595"/>
      </clipPath>
   </defs>
   <g id="Layer_4" data-name="Layer 4">
      <g>
         <polygon class="cls-18"
                  points="39.6064 42.9801 36.2389 42.9798 39.8613 38.4435 43.2289 38.4438 39.6064 42.9801"/>
         <polygon class="cls-18"
                  points="46.7521 42.9807 43.3845 42.9804 47.0068 38.4442 50.3744 38.4445 46.7521 42.9807"/>
         <polygon class="cls-18"
                  points="53.8976 42.9814 50.53 42.9811 54.1525 38.4448 57.52 38.4451 53.8976 42.9814"/>
         <polygon class="cls-18"
                  points="61.0432 42.982 57.6756 42.9817 61.298 38.4455 64.6655 38.4458 61.0432 42.982"/>
         <polygon class="cls-18"
                  points="68.1887 42.9827 64.8212 42.9823 68.4436 38.4461 71.8111 38.4464 68.1887 42.9827"/>
         <polygon class="cls-18"
                  points="75.3343 42.9833 71.9668 42.983 75.5891 38.4467 78.9567 38.447 75.3343 42.9833"/>
         <polygon class="cls-18"
                  points="82.4798 42.9839 79.1123 42.9836 82.7347 38.4474 86.1023 38.4477 82.4798 42.9839"/>
         <polygon class="cls-18"
                  points="89.6255 42.9846 86.2579 42.9843 89.8802 38.448 93.2478 38.4483 89.6255 42.9846"/>
         <polygon class="cls-18"
                  points="96.771 42.9852 93.4034 42.9849 97.0259 38.4487 100.3934 38.449 96.771 42.9852"/>
         <polygon class="cls-18"
                  points="103.9166 42.9859 100.5491 42.9856 104.1714 38.4493 107.5389 38.4496 103.9166 42.9859"/>
         <polygon class="cls-18"
                  points="111.0621 42.9865 107.6946 42.9862 111.317 38.4499 114.6846 38.4502 111.0621 42.9865"/>
         <polygon class="cls-18"
                  points="118.2078 42.9872 114.8402 42.9869 118.4625 38.4506 121.8301 38.4509 118.2078 42.9872"/>
         <polygon class="cls-18"
                  points="125.3533 42.9878 121.9857 42.9875 125.6081 38.4512 128.9757 38.4516 125.3533 42.9878"/>
         <polygon class="cls-18"
                  points="132.4989 42.9884 129.1313 42.9881 132.7537 38.4519 136.1212 38.4522 132.4989 42.9884"/>
         <polygon class="cls-18"
                  points="139.6444 42.9891 136.2768 42.9888 139.8993 38.4525 143.2668 38.4528 139.6444 42.9891"/>
         <polygon class="cls-18"
                  points="146.79 42.9897 143.4225 42.9894 147.0448 38.4532 150.4123 38.4535 146.79 42.9897"/>
         <polygon class="cls-18"
                  points="153.9355 42.9904 150.568 42.9901 154.1904 38.4538 157.558 38.4541 153.9355 42.9904"/>
         <polygon class="cls-18"
                  points="161.0812 42.991 157.7136 42.9907 161.3359 38.4545 164.7035 38.4548 161.0812 42.991"/>
         <polygon class="cls-18"
                  points="168.2267 42.9917 164.8591 42.9914 168.4816 38.4551 171.8491 38.4554 168.2267 42.9917"/>
         <polygon class="cls-18"
                  points="175.3723 42.9923 172.0048 42.992 175.6271 38.4557 178.9946 38.456 175.3723 42.9923"/>
         <polygon class="cls-18"
                  points="182.5178 42.993 179.1503 42.9927 182.7727 38.4564 186.1402 38.4567 182.5178 42.993"/>
         <polygon class="cls-18"
                  points="189.6634 42.9936 186.2959 42.9933 189.9182 38.457 193.2858 38.4573 189.6634 42.9936"/>
         <polygon class="cls-18"
                  points="196.809 42.9942 193.4414 42.9939 197.0638 38.4577 200.4314 38.458 196.809 42.9942"/>
         <polygon class="cls-18"
                  points="203.9546 42.9949 200.587 42.9946 204.2093 38.4583 207.5769 38.4586 203.9546 42.9949"/>
         <polygon class="cls-18"
                  points="211.1001 42.9955 207.7325 42.9952 211.355 38.459 214.7225 38.4592 211.1001 42.9955"/>
      </g>
      <g>
         <polyline class="cls-4"
                   points="300.6631 100.7649 238.2093 100.7649 238.2093 142.6422 150.1207 142.6422 150.1207 100.7028 36.0834 100.7028"/>
         <polygon class="cls-18"
                  points="299.2041 95.7785 307.8393 100.7649 299.2041 105.7512 299.2041 95.7785"/>
      </g>
      <g>
         <polygon class="cls-18"
                  points="147.8524 46.9148 147.8524 43.5472 152.389 47.1692 152.389 50.5368 147.8524 46.9148"/>
         <polygon class="cls-18"
                  points="147.8524 55.475 147.8524 52.1073 152.389 55.7294 152.389 59.0969 147.8524 55.475"/>
         <polygon class="cls-18"
                  points="147.8524 64.0351 147.8524 60.6675 152.389 64.2895 152.389 67.657 147.8524 64.0351"/>
         <polygon class="cls-18"
                  points="155.9217 73.7642 152.5541 73.7642 156.176 69.2276 159.5437 69.2276 155.9217 73.7642"/>
         <polygon class="cls-18"
                  points="163.0763 73.7642 159.7087 73.7642 163.3307 69.2276 166.6982 69.2276 163.0763 73.7642"/>
      </g>
      <g>
         <polygon class="cls-18"
                  points="161.3773 103.0085 158.0098 103.0069 161.6338 98.472 165.0013 98.4736 161.3773 103.0085"/>
         <polygon class="cls-18"
                  points="168.6681 103.0119 165.3005 103.0103 168.9246 98.4754 172.2921 98.477 168.6681 103.0119"/>
         <polygon class="cls-18"
                  points="175.9589 103.0152 172.5913 103.0137 176.2153 98.4788 179.5829 98.4803 175.9589 103.0152"/>
         <polygon class="cls-18"
                  points="183.2496 103.0187 179.8821 103.0171 183.5061 98.4822 186.8736 98.4838 183.2496 103.0187"/>
         <polygon class="cls-18"
                  points="190.5404 103.022 187.1728 103.0205 190.7969 98.4856 194.1645 98.4871 190.5404 103.022"/>
         <polygon class="cls-18"
                  points="197.8312 103.0254 194.4636 103.0239 198.0876 98.4889 201.4553 98.4905 197.8312 103.0254"/>
         <polygon class="cls-18"
                  points="205.1219 103.0288 201.7544 103.0272 205.3784 98.4923 208.7461 98.4939 205.1219 103.0288"/>
         <polygon class="cls-18"
                  points="212.4127 103.0322 209.0452 103.0306 212.6692 98.4957 216.0369 98.4973 212.4127 103.0322"/>
         <polygon class="cls-18"
                  points="219.7035 103.0356 216.3359 103.034 219.9601 98.4991 223.3276 98.5007 219.7035 103.0356"/>
         <polygon class="cls-18"
                  points="226.9943 103.0389 223.6267 103.0374 227.2508 98.5025 230.6184 98.504 226.9943 103.0389"/>
         <polygon class="cls-18"
                  points="234.285 103.0423 230.9175 103.0408 234.5416 98.5058 237.9092 98.5074 234.285 103.0423"/>
      </g>
      <g>
         <polygon class="cls-18"
                  points="240.4777 95.9129 240.4777 99.2806 235.941 95.6586 235.941 92.291 240.4777 95.9129"/>
         <polygon class="cls-18"
                  points="240.4777 88.8808 240.4777 92.2483 235.941 88.6264 235.941 85.2588 240.4777 88.8808"/>
         <polygon class="cls-18"
                  points="240.4777 81.8486 240.4777 85.2162 235.941 81.5942 235.941 78.2267 240.4777 81.8486"/>
         <polygon class="cls-18"
                  points="240.4777 74.8165 240.4777 78.184 235.941 74.5621 235.941 71.1945 240.4777 74.8165"/>
         <polygon class="cls-18"
                  points="240.4777 67.7842 240.4777 71.1518 235.941 67.5299 235.941 64.1623 240.4777 67.7842"/>
         <polygon class="cls-18"
                  points="240.4777 60.7521 240.4777 64.1196 235.941 60.4977 235.941 57.1301 240.4777 60.7521"/>
         <polygon class="cls-18"
                  points="240.4777 53.7199 240.4777 57.0874 235.941 53.4655 235.941 50.0979 240.4777 53.7199"/>
         <polygon class="cls-18"
                  points="240.4777 46.6877 240.4777 50.0553 235.941 46.4333 235.941 43.0657 240.4777 46.6877"/>
         <polygon class="cls-18"
                  points="233.024 38.4735 236.3916 38.4884 232.7495 43.0089 229.3819 42.9939 233.024 38.4735"/>
      </g>
   </g>
   <g id="Paths">
      <path class="cls-8" d="m61.6967,100.7649h-25.6133"/>
      <path class="cls-8" d="m258.7666,100.7649H76.3633"/>
      <path class="cls-8" d="m294.8207,100.7649h-20.45"/>
      <path class="cls-8" d="m214.7874,40.7649H76.3633"/>
      <path class="cls-8" d="m61.4383,40.7649h-24.4537"/>
      <polyline class="cls-8"
                points="238.2093 100.7028 238.2093 40.7649 230.3985 40.7649"/>
      <polyline class="cls-8"
                points="230.2596 142.6422 238.2093 142.6422 238.2093 100.7649"/>
      <polyline class="cls-8"
                points="150.1207 100.7028 150.1207 142.6422 214.593 142.6422"/>
      <polyline class="cls-8"
                points="150.1207 40.7649 150.1207 71.5332 165.1207 71.5332"/>
      <g id="Connect">
         <g class="cls-33">
            <g class="cls-26">
               <path class="cls-13"
                     d="m150.1204,99.7615c.553,0,1,.449,1,1.003,0,.555-.447,1.003-1,1.003-.552,0-1-.448-1-1.003,0-.554.448-1.003,1-1.003"/>
               <circle class="cls-10" cx="150.1204" cy="100.7645" r="1"/>
            </g>
         </g>
      </g>
      <g id="Connect-2" data-name="Connect">
         <g class="cls-11">
            <g class="cls-35">
               <path class="cls-13"
                     d="m238.209,99.7615c.553,0,1,.449,1,1.003,0,.555-.447,1.003-1,1.003-.552,0-1-.448-1-1.003,0-.554.448-1.003,1-1.003"/>
               <circle class="cls-10" cx="238.209" cy="100.7645" r="1"/>
            </g>
         </g>
      </g>
      <g id="Connect-3" data-name="Connect">
         <g class="cls-27">
            <g class="cls-41">
               <path class="cls-13"
                     d="m150.1204,39.7615c.553,0,1,.449,1,1.003,0,.555-.447,1.003-1,1.003-.552,0-1-.448-1-1.003,0-.554.448-1.003,1-1.003"/>
               <circle class="cls-10" cx="150.1204" cy="40.7645" r="1"/>
            </g>
         </g>
      </g>
   </g>
   <g id="Parts">
      <g id="Artwork_13" data-name="Artwork 13">
         <g class="cls-22">
            <g class="cls-24">
               <path class="cls-17"
                     d="m294.8392,98.7032c1.104,0,2,.896,2,2s-.896,2-2,2-2-.896-2-2,.896-2,2-2"/>
               <circle class="cls-8" cx="294.8392" cy="100.7032" r="2"/>
            </g>
         </g>
      </g>
      <g id="Artwork_13-2" data-name="Artwork 13">
         <g class="cls-36">
            <g class="cls-32">
               <path class="cls-17"
                     d="m36.0833,98.7032c1.104,0,2,.896,2,2s-.896,2-2,2-2-.896-2-2,.896-2,2-2"/>
               <circle class="cls-8" cx="36.0833" cy="100.7032" r="2"/>
            </g>
         </g>
      </g>
      <g id="Artwork_13-3" data-name="Artwork 13">
         <g class="cls-42">
            <g class="cls-2">
               <path class="cls-17"
                     d="m36.0833,38.7032c1.104,0,2,.896,2,2s-.896,2-2,2-2-.896-2-2,.896-2,2-2"/>
               <circle class="cls-8" cx="36.0833" cy="40.7032" r="2"/>
            </g>
         </g>
      </g>
      <g id="Modular_Inverter" data-name="Modular Inverter">
         <g class="cls-29">
            <rect class="cls-16"
                  x="103.9808"
                  y="87.9459"
                  width="30.952"
                  height="30.952"/>
            <rect class="cls-5"
                  x="103.9806"
                  y="87.9456"
                  width="30.952"
                  height="30.952"/>
            <line class="cls-5"
                  x1="103.9831"
                  y1="118.8998"
                  x2="134.9341"
                  y2="87.9478"/>
            <line class="cls-5"
                  x1="107.366"
                  y1="94.7188"
                  x2="116.067"
                  y2="94.7188"/>
            <line class="cls-5"
                  x1="114.0184"
                  y1="92.7843"
                  x2="116.0664"
                  y2="92.7843"/>
            <line class="cls-5"
                  x1="110.6922"
                  y1="92.7843"
                  x2="112.7402"
                  y2="92.7843"/>
            <line class="cls-5"
                  x1="107.366"
                  y1="92.7843"
                  x2="109.414"
                  y2="92.7843"/>
            <g class="cls-19">
               <path class="cls-5"
                     d="m131.5189,113.5308c-.121,1.086-.988,1.825-1.935,1.825s-1.702-.482-1.934-1.825c-.232-1.343-1.121-1.824-1.935-1.824-.813,0-1.835.755-1.934,1.824"/>
            </g>
            <rect class="cls-16"
                  x="100.9808"
                  y="85.7649"
                  width="30.952"
                  height="30.952"/>
            <rect class="cls-5"
                  x="100.9806"
                  y="85.7654"
                  width="30.952"
                  height="30.952"/>
            <line class="cls-5"
                  x1="100.9831"
                  y1="116.7196"
                  x2="131.9341"
                  y2="85.7676"/>
            <line class="cls-5"
                  x1="104.366"
                  y1="92.5387"
                  x2="113.067"
                  y2="92.5387"/>
            <line class="cls-5"
                  x1="111.0184"
                  y1="90.6042"
                  x2="113.0664"
                  y2="90.6042"/>
            <line class="cls-5"
                  x1="107.6922"
                  y1="90.6042"
                  x2="109.7402"
                  y2="90.6042"/>
            <line class="cls-5"
                  x1="104.366"
                  y1="90.6042"
                  x2="106.414"
                  y2="90.6042"/>
            <g class="cls-39">
               <path class="cls-5"
                     d="m128.5189,111.3506c-.121,1.086-.988,1.825-1.935,1.825s-1.702-.482-1.934-1.825c-.232-1.343-1.121-1.824-1.935-1.824-.813,0-1.835.755-1.934,1.824"/>
            </g>
            <rect class="cls-16"
                  x="97.9798"
                  y="83.5189"
                  width="30.953"
                  height="30.953"/>
            <g class="cls-21">
               <rect class="cls-5"
                     x="97.9806"
                     y="83.5198"
                     width="30.952"
                     height="30.952"/>
               <line class="cls-5"
                     x1="97.9831"
                     y1="114.474"
                     x2="128.9341"
                     y2="83.522"/>
            </g>
            <line class="cls-5"
                  x1="101.366"
                  y1="90.2931"
                  x2="110.067"
                  y2="90.2931"/>
            <line class="cls-5"
                  x1="108.0184"
                  y1="88.3585"
                  x2="110.0664"
                  y2="88.3585"/>
            <line class="cls-5"
                  x1="104.6922"
                  y1="88.3585"
                  x2="106.7402"
                  y2="88.3585"/>
            <line class="cls-5"
                  x1="101.366"
                  y1="88.3585"
                  x2="103.414"
                  y2="88.3585"/>
            <g class="cls-3">
               <path class="cls-5"
                     d="m125.5189,109.105c-.121,1.086-.988,1.825-1.935,1.825s-1.702-.482-1.934-1.825c-.232-1.343-1.121-1.824-1.935-1.824-.813,0-1.835.755-1.934,1.824"/>
            </g>
         </g>
      </g>
      <g id="Artwork_20_no_white" data-name="Artwork 20 no white">
         <g class="cls-40">
            <g class="cls-38">
               <line class="cls-8"
                     x1="61.7069"
                     y1="47.5422"
                     x2="76.3369"
                     y2="40.7762"/>
               <path class="cls-14"
                     d="m76.3368,41.7805h0c-.55,0-1-.45-1-1,0-.551.45-1,1-1s1,.449,1,1c0,.55-.45,1-1,1"/>
               <path class="cls-14"
                     d="m61.7069,41.7805h0c-.55,0-1-.45-1-1,0-.551.45-1,1-1s1,.449,1,1c0,.55-.45,1-1,1"/>
            </g>
         </g>
      </g>
      <g id="Artwork_20_no_white-2" data-name="Artwork 20 no white">
         <g class="cls-34">
            <g class="cls-1">
               <line class="cls-8"
                     x1="61.7069"
                     y1="107.5532"
                     x2="76.3369"
                     y2="100.7872"/>
               <path class="cls-14"
                     d="m76.3368,101.7915h0c-.55,0-1-.45-1-1,0-.551.45-1,1-1s1,.449,1,1c0,.55-.45,1-1,1"/>
               <path class="cls-14"
                     d="m61.7069,101.7915h0c-.55,0-1-.45-1-1,0-.551.45-1,1-1s1,.449,1,1c0,.55-.45,1-1,1"/>
            </g>
         </g>
      </g>
      <g id="Artwork_20_no_white-3" data-name="Artwork 20 no white">
         <g class="cls-25">
            <g class="cls-31">
               <line class="cls-8"
                     x1="215.0452"
                     y1="47.5422"
                     x2="229.6752"
                     y2="40.7762"/>
               <path class="cls-14"
                     d="m229.6751,41.7805h0c-.55,0-1-.45-1-1,0-.551.45-1,1-1s1,.449,1,1c0,.55-.45,1-1,1"/>
               <path class="cls-14"
                     d="m215.0452,41.7805h0c-.55,0-1-.45-1-1,0-.551.45-1,1-1s1,.449,1,1c0,.55-.45,1-1,1"/>
            </g>
         </g>
      </g>
      <g id="Artwork_20_no_white-4" data-name="Artwork 20 no white">
         <g class="cls-43">
            <g class="cls-30">
               <line class="cls-8"
                     x1="215.0452"
                     y1="149.4196"
                     x2="229.6752"
                     y2="142.6536"/>
               <path class="cls-14"
                     d="m229.6751,143.6579h0c-.55,0-1-.45-1-1,0-.551.45-1,1-1s1,.449,1,1c0,.55-.45,1-1,1"/>
               <path class="cls-14"
                     d="m215.0452,143.6579h0c-.55,0-1-.45-1-1,0-.551.45-1,1-1s1,.449,1,1c0,.55-.45,1-1,1"/>
            </g>
         </g>
      </g>
      <g id="Artwork_20_no_white-5" data-name="Artwork 20 no white">
         <g class="cls-20">
            <g class="cls-23">
               <line class="cls-8"
                     x1="259.2094"
                     y1="107.5422"
                     x2="273.8394"
                     y2="100.7762"/>
               <path class="cls-14"
                     d="m273.8393,101.7805h0c-.55,0-1-.45-1-1,0-.551.45-1,1-1s1,.449,1,1c0,.55-.45,1-1,1"/>
               <path class="cls-14"
                     d="m259.2094,101.7805h0c-.55,0-1-.45-1-1,0-.551.45-1,1-1s1,.449,1,1c0,.55-.45,1-1,1"/>
            </g>
         </g>
      </g>
      <g id="Modular-SSW">
         <g class="cls-28">
            <rect class="cls-16"
                  x="165.4957"
                  y="56.6788"
                  width="37.338"
                  height="58.845"/>
            <g class="cls-44">
               <rect class="cls-9"
                     x="165.4957"
                     y="56.6788"
                     width="37.339"
                     height="58.845"/>
               <polyline class="cls-6"
                         points="165.4957 100.8133 194.8347 100.8133 194.8347 71.3913 165.4957 71.3913"/>
            </g>
            <rect class="cls-16"
                  x="172.8257"
                  y="93.2278"
                  width="15.128"
                  height="15.171"/>
            <rect class="cls-9"
                  x="172.8257"
                  y="93.2278"
                  width="15.128"
                  height="15.171"/>
            <line class="cls-9"
                  x1="177.7934"
                  y1="112.0787"
                  x2="177.7934"
                  y2="104.7187"/>
            <line class="cls-9"
                  x1="180.7355"
                  y1="112.0787"
                  x2="180.7255"
                  y2="109.7367"/>
            <path class="cls-12"
                  d="m183.9903,105.9347v4.928l-4.908-2.464,4.908-2.464Zm.75-1.216l-7.33,3.68,7.33,3.68v-7.36Z"/>
            <line class="cls-9"
                  x1="183.4519"
                  y1="89.6014"
                  x2="183.4519"
                  y2="96.9614"/>
            <line class="cls-9"
                  x1="180.1631"
                  y1="89.5501"
                  x2="180.1631"
                  y2="91.5631"/>
            <path class="cls-12"
                  d="m177.2481,90.7625l4.908,2.464-4.908,2.464v-4.928Zm-.75-1.216v7.36l7.33-3.68-7.33-3.68Z"/>
            <g class="cls-37">
               <path class="cls-15"
                     d="m172.8261,99.8126c.551,0,.997.448.997,1s-.446,1-.997,1-.997-.448-.997-1,.446-1,.997-1"/>
               <circle class="cls-9" cx="172.8261" cy="100.8126" r=".997"/>
               <path class="cls-15"
                     d="m187.9538,99.8133c.551,0,.997.448.997,1s-.446,1-.997,1-.997-.448-.997-1,.446-1,.997-1"/>
               <circle class="cls-9" cx="187.9538" cy="100.8133" r=".997"/>
               <rect class="cls-16"
                     x="172.8257"
                     y="63.8058"
                     width="15.128"
                     height="15.171"/>
               <rect class="cls-9"
                     x="172.8257"
                     y="63.8058"
                     width="15.128"
                     height="15.171"/>
               <line class="cls-9"
                     x1="177.7934"
                     y1="82.6563"
                     x2="177.7934"
                     y2="75.2963"/>
               <line class="cls-9"
                     x1="180.7355"
                     y1="82.6563"
                     x2="180.7255"
                     y2="80.3143"/>
               <path class="cls-12"
                     d="m183.9903,76.5123v4.928l-4.908-2.464,4.908-2.464Zm.75-1.216l-7.33,3.68,7.33,3.68v-7.36Z"/>
               <line class="cls-9"
                     x1="183.4519"
                     y1="60.179"
                     x2="183.4519"
                     y2="67.539"/>
               <line class="cls-9"
                     x1="180.1631"
                     y1="60.1277"
                     x2="180.1631"
                     y2="62.1407"/>
               <path class="cls-12"
                     d="m177.2481,61.3401l4.908,2.464-4.908,2.464v-4.928Zm-.75-1.216v7.36l7.33-3.68-7.33-3.68Z"/>
               <path class="cls-15"
                     d="m172.8261,70.3902c.551,0,.997.448.997,1s-.446,1-.997,1-.997-.448-.997-1,.446-1,.997-1"/>
               <circle class="cls-9" cx="172.8261" cy="71.3902" r=".997"/>
               <path class="cls-15"
                     d="m187.9538,70.3909c.551,0,.997.448.997,1s-.446,1-.997,1-.997-.448-.997-1,.446-1,.997-1"/>
               <circle class="cls-9" cx="187.9538" cy="71.3909" r=".997"/>
               <line class="cls-6"
                     x1="202.8343"
                     y1="100.8126"
                     x2="194.8343"
                     y2="100.8126"/>
               <path class="cls-15"
                     d="m194.8343,99.8133c.551,0,.997.448.997,1s-.446,1-.997,1-.997-.448-.997-1,.446-1,.997-1"/>
               <circle class="cls-9" cx="194.8343" cy="100.8133" r=".997"/>
            </g>
         </g>
      </g>
   </g>
   <g id="Text">
      <text class="cls-45" transform="translate(15.5216 18.6937)">
         <tspan x="0" y="0">BYPASS</tspan>
         <tspan x="4.4507" y="12">MAINS</tspan>
      </text>
      <text class="cls-45" transform="translate(91.1767 78.6934)">
         <tspan x="0" y="0">INVERTER</tspan>
      </text>
      <text class="cls-45" transform="translate(265.6556 94.0575)">
         <tspan x="0" y="0">AC OUTPUT</tspan>
      </text>
      <text class="cls-45" transform="translate(12.4723 94.0575)">
         <tspan x="0" y="0">DC INPUT</tspan>
      </text>
      <text class="cls-45" transform="translate(152.025 18.6938)">
         <tspan x="0" y="0">STATIC</tspan>
      </text>
      <text class="cls-45" transform="translate(150.3599 30.6936)">
         <tspan x="0" y="0">SWITCH</tspan>
      </text>
      <text class="cls-45" transform="translate(209.0127 18.6938)">
         <tspan x="0" y="0">MANUAL</tspan>
      </text>
      <text class="cls-45" transform="translate(210.1138 30.6938)">
         <tspan x="0" y="0">BYPASS</tspan>
      </text>
   </g>
</svg>
