<?xml version="1.0" encoding="UTF-8"?>
<svg xmlns="http://www.w3.org/2000/svg"
     xmlns:xlink="http://www.w3.org/1999/xlink"
     width="115mm"
     height="55mm"
     viewBox="0 0 325.9843 155.9055">
   <defs>
      <style>
      .cls-1 {
        clip-path: url(#clippath-20);
      }

      .cls-2 {
        clip-path: url(#clippath-11);
      }

      .cls-3 {
        clip-path: url(#clippath-16);
      }

      .cls-4 {
        stroke: #c6c6c6;
        stroke-width: 5px;
      }

      .cls-4, .cls-5, .cls-6, .cls-7, .cls-8, .cls-9, .cls-10 {
        fill: none;
      }

      .cls-4, .cls-5, .cls-8, .cls-9, .cls-10 {
        stroke-miterlimit: 3;
      }

      .cls-5 {
        stroke-width: .645px;
      }

      .cls-5, .cls-8, .cls-10 {
        stroke: #000;
      }

      .cls-11 {
        clip-path: url(#clippath-2);
      }

      .cls-12, .cls-13, .cls-14, .cls-7, .cls-15, .cls-16, .cls-17, .cls-18 {
        stroke-width: 0px;
      }

      .cls-12, .cls-15 {
        fill: #010101;
      }

      .cls-13, .cls-15, .cls-17 {
        fill-rule: evenodd;
      }

      .cls-19 {
        clip-path: url(#clippath-13);
      }

      .cls-20 {
        clip-path: url(#clippath-25);
      }

      .cls-21 {
        clip-path: url(#clippath-15);
      }

      .cls-22 {
        clip-path: url(#clippath-6);
      }

      .cls-6 {
        stroke-miterlimit: 10;
      }

      .cls-6, .cls-8, .cls-9 {
        stroke-width: .75px;
      }

      .cls-6, .cls-9 {
        stroke: #010101;
      }

      .cls-23 {
        clip-path: url(#clippath-7);
      }

      .cls-24 {
        clip-path: url(#clippath-21);
      }

      .cls-25 {
        clip-path: url(#clippath-1);
      }

      .cls-26 {
        clip-path: url(#clippath-4);
      }

      .cls-27 {
        clip-path: url(#clippath-12);
      }

      .cls-16, .cls-17 {
        fill: #fff;
      }

      .cls-28 {
        clip-path: url(#clippath-24);
      }

      .cls-29 {
        clip-path: url(#clippath-22);
      }

      .cls-30 {
        clip-path: url(#clippath-9);
      }

      .cls-31 {
        clip-path: url(#clippath);
      }

      .cls-32 {
        clip-path: url(#clippath-19);
      }

      .cls-33 {
        clip-path: url(#clippath-3);
      }

      .cls-18 {
        fill: #c6c6c6;
      }

      .cls-34 {
        clip-path: url(#clippath-8);
      }

      .cls-35 {
        clip-path: url(#clippath-18);
      }

      .cls-36 {
        clip-path: url(#clippath-14);
      }

      .cls-37 {
        clip-path: url(#clippath-17);
      }

      .cls-38 {
        clip-path: url(#clippath-5);
      }

      .cls-39 {
        clip-path: url(#clippath-10);
      }

      .cls-40 {
        clip-path: url(#clippath-23);
      }

      .cls-10 {
        stroke-width: .5px;
      }

      .cls-41 {
        fill: #01889C;
        font-family: Arial-BoldMT, Arial;
        font-size: 10px;
        font-weight: 700;
      }
    </style>
      <clipPath id="clippath">
         <rect class="cls-7"
               x="133.6621"
               y="98.4739"
               width="4.5709"
               height="4.5819"/>
      </clipPath>
      <clipPath id="clippath-1">
         <rect class="cls-7"
               x="133.6621"
               y="98.4738"
               width="4.571"
               height="4.582"/>
      </clipPath>
      <clipPath id="clippath-2">
         <rect class="cls-7"
               x="221.7507"
               y="98.4739"
               width="4.5709"
               height="4.5819"/>
      </clipPath>
      <clipPath id="clippath-3">
         <rect class="cls-7"
               x="221.7507"
               y="98.4738"
               width="4.571"
               height="4.582"/>
      </clipPath>
      <clipPath id="clippath-4">
         <rect class="cls-7"
               x="133.6621"
               y="38.4739"
               width="4.5709"
               height="4.5819"/>
      </clipPath>
      <clipPath id="clippath-5">
         <rect class="cls-7"
               x="133.6621"
               y="38.4738"
               width="4.571"
               height="4.582"/>
      </clipPath>
      <clipPath id="clippath-6">
         <rect class="cls-7"
               x="277.6036"
               y="97.6403"
               width="6.125"
               height="6.125"/>
      </clipPath>
      <clipPath id="clippath-7">
         <rect class="cls-7"
               x="277.6036"
               y="97.6403"
               width="6.125"
               height="6.125"/>
      </clipPath>
      <clipPath id="clippath-8">
         <rect class="cls-7"
               x="37.5424"
               y="37.6403"
               width="6.125"
               height="6.125"/>
      </clipPath>
      <clipPath id="clippath-9">
         <rect class="cls-7"
               x="37.5424"
               y="37.6403"
               width="6.125"
               height="6.125"/>
      </clipPath>
      <clipPath id="clippath-10">
         <rect class="cls-7"
               x="83.1636"
               y="80.9411"
               width="38.2419"
               height="40.5368"/>
      </clipPath>
      <clipPath id="clippath-11">
         <rect class="cls-7"
               x="89.1626"
               y="85.3669"
               width="32.242"
               height="36.111"/>
      </clipPath>
      <clipPath id="clippath-12">
         <rect class="cls-7"
               x="86.1636"
               y="83.1859"
               width="32.242"
               height="36.112"/>
      </clipPath>
      <clipPath id="clippath-13">
         <rect class="cls-7"
               x="83.1636"
               y="80.9409"
               width="32.242"
               height="36.112"/>
      </clipPath>
      <clipPath id="clippath-14">
         <rect class="cls-7"
               x="83.1636"
               y="80.9409"
               width="32.242"
               height="36.112"/>
      </clipPath>
      <clipPath id="clippath-15">
         <rect class="cls-7"
               x="65.2284"
               y="32.6307"
               width="16.63"
               height="16.2683"/>
      </clipPath>
      <clipPath id="clippath-16">
         <rect class="cls-7"
               x="65.2284"
               y="32.631"
               width="16.63"
               height="16.268"/>
      </clipPath>
      <clipPath id="clippath-17">
         <rect class="cls-7"
               x="199.8719"
               y="32.6307"
               width="16.63"
               height="16.2683"/>
      </clipPath>
      <clipPath id="clippath-18">
         <rect class="cls-7"
               x="199.8719"
               y="32.631"
               width="16.63"
               height="16.268"/>
      </clipPath>
      <clipPath id="clippath-19">
         <rect class="cls-7"
               x="199.8719"
               y="134.5081"
               width="16.63"
               height="16.2683"/>
      </clipPath>
      <clipPath id="clippath-20">
         <rect class="cls-7"
               x="199.8719"
               y="134.5084"
               width="16.63"
               height="16.268"/>
      </clipPath>
      <clipPath id="clippath-21">
         <rect class="cls-7"
               x="244.0361"
               y="92.6307"
               width="16.63"
               height="16.2683"/>
      </clipPath>
      <clipPath id="clippath-22">
         <rect class="cls-7"
               x="244.0361"
               y="92.631"
               width="16.63"
               height="16.268"/>
      </clipPath>
      <clipPath id="clippath-23">
         <rect class="cls-7"
               x="150.9475"
               y="56.304"
               width="38.0886"
               height="59.5948"/>
      </clipPath>
      <clipPath id="clippath-24">
         <rect class="cls-7"
               x="150.9475"
               y="56.3038"
               width="38.089"
               height="59.595"/>
      </clipPath>
      <clipPath id="clippath-25">
         <rect class="cls-7"
               x="150.9475"
               y="56.3038"
               width="38.089"
               height="59.595"/>
      </clipPath>
   </defs>
   <g id="Layer_4" data-name="Layer 4">
      <g>
         <polygon class="cls-18"
                  points="44.2472 42.9801 40.8796 42.9798 44.5021 38.4436 47.8696 38.4439 44.2472 42.9801"/>
         <polygon class="cls-18"
                  points="51.5119 42.9809 48.1444 42.9805 51.7668 38.4443 55.1344 38.4446 51.5119 42.9809"/>
         <polygon class="cls-18"
                  points="58.7767 42.9816 55.4092 42.9812 59.0316 38.445 62.3991 38.4454 58.7767 42.9816"/>
         <polygon class="cls-18"
                  points="66.0416 42.9823 62.6739 42.982 66.2964 38.4458 69.6639 38.4461 66.0416 42.9823"/>
         <polygon class="cls-18"
                  points="73.3064 42.9831 69.9388 42.9827 73.5611 38.4465 76.9287 38.4468 73.3064 42.9831"/>
         <polygon class="cls-18"
                  points="80.5711 42.9838 77.2036 42.9834 80.8259 38.4472 84.1936 38.4476 80.5711 42.9838"/>
         <polygon class="cls-18"
                  points="87.8359 42.9845 84.4684 42.9842 88.0908 38.448 91.4584 38.4483 87.8359 42.9845"/>
         <polygon class="cls-18"
                  points="95.1007 42.9852 91.7331 42.9849 95.3556 38.4487 98.7231 38.449 95.1007 42.9852"/>
         <polygon class="cls-18"
                  points="102.3655 42.9859 98.9979 42.9856 102.6203 38.4494 105.9879 38.4498 102.3655 42.9859"/>
         <polygon class="cls-18"
                  points="109.6302 42.9867 106.2627 42.9864 109.8851 38.4502 113.2527 38.4505 109.6302 42.9867"/>
         <polygon class="cls-18"
                  points="116.895 42.9874 113.5274 42.9871 117.1499 38.4509 120.5174 38.4512 116.895 42.9874"/>
         <polygon class="cls-18"
                  points="124.1598 42.9881 120.7922 42.9878 124.4147 38.4516 127.7822 38.452 124.1598 42.9881"/>
         <polygon class="cls-18"
                  points="131.4247 42.9889 128.057 42.9886 131.6794 38.4523 135.047 38.4527 131.4247 42.9889"/>
         <polygon class="cls-18"
                  points="138.6894 42.9896 135.3219 42.9893 138.9442 38.453 142.3117 38.4534 138.6894 42.9896"/>
         <polygon class="cls-18"
                  points="145.9542 42.9903 142.5866 42.99 146.209 38.4538 149.5766 38.4541 145.9542 42.9903"/>
         <polygon class="cls-18"
                  points="153.219 42.9911 149.8514 42.9908 153.4739 38.4545 156.8414 38.4548 153.219 42.9911"/>
         <polygon class="cls-18"
                  points="160.4837 42.9918 157.1162 42.9915 160.7386 38.4552 164.1062 38.4556 160.4837 42.9918"/>
         <polygon class="cls-18"
                  points="167.7485 42.9925 164.381 42.9922 168.0034 38.456 171.371 38.4563 167.7485 42.9925"/>
         <polygon class="cls-18"
                  points="175.0133 42.9933 171.6457 42.993 175.2682 38.4567 178.6357 38.457 175.0133 42.9933"/>
         <polygon class="cls-18"
                  points="182.2781 42.994 178.9105 42.9936 182.5329 38.4574 185.9005 38.4578 182.2781 42.994"/>
         <polygon class="cls-18"
                  points="189.5429 42.9947 186.1753 42.9944 189.7977 38.4582 193.1653 38.4585 189.5429 42.9947"/>
         <polygon class="cls-18"
                  points="196.8077 42.9955 193.44 42.9951 197.0625 38.4589 200.43 38.4592 196.8077 42.9955"/>
      </g>
      <g>
         <polyline class="cls-4"
                   points="286.4898 100.7649 224.0361 100.7649 224.0361 142.6422 135.9475 142.6422 135.9475 100.7028 40.605 100.7028"/>
         <polygon class="cls-18"
                  points="285.0309 95.7785 293.6661 100.7649 285.0309 105.7512 285.0309 95.7785"/>
      </g>
      <g>
         <polygon class="cls-18"
                  points="133.6792 46.9148 133.6792 43.5472 138.2158 47.1692 138.2158 50.5368 133.6792 46.9148"/>
         <polygon class="cls-18"
                  points="133.6792 55.475 133.6792 52.1073 138.2158 55.7294 138.2158 59.0969 133.6792 55.475"/>
         <polygon class="cls-18"
                  points="133.6792 64.0351 133.6792 60.6675 138.2158 64.2895 138.2158 67.657 133.6792 64.0351"/>
         <polygon class="cls-18"
                  points="141.7485 73.7642 138.3808 73.7642 142.0028 69.2276 145.3705 69.2276 141.7485 73.7642"/>
         <polygon class="cls-18"
                  points="148.9031 73.7642 145.5355 73.7642 149.1575 69.2276 152.525 69.2276 148.9031 73.7642"/>
      </g>
      <g>
         <polygon class="cls-18"
                  points="147.2041 103.0085 143.8365 103.0069 147.4606 98.472 150.8281 98.4736 147.2041 103.0085"/>
         <polygon class="cls-18"
                  points="154.4949 103.0119 151.1273 103.0103 154.7513 98.4754 158.1189 98.477 154.4949 103.0119"/>
         <polygon class="cls-18"
                  points="161.7856 103.0152 158.4181 103.0137 162.0421 98.4788 165.4096 98.4803 161.7856 103.0152"/>
         <polygon class="cls-18"
                  points="169.0764 103.0187 165.7088 103.0171 169.3329 98.4822 172.7004 98.4838 169.0764 103.0187"/>
         <polygon class="cls-18"
                  points="176.3672 103.022 172.9996 103.0205 176.6236 98.4856 179.9913 98.4871 176.3672 103.022"/>
         <polygon class="cls-18"
                  points="183.6579 103.0254 180.2904 103.0239 183.9144 98.4889 187.2821 98.4905 183.6579 103.0254"/>
         <polygon class="cls-18"
                  points="190.9487 103.0288 187.5812 103.0272 191.2052 98.4923 194.5729 98.4939 190.9487 103.0288"/>
         <polygon class="cls-18"
                  points="198.2395 103.0322 194.8719 103.0306 198.496 98.4957 201.8636 98.4973 198.2395 103.0322"/>
         <polygon class="cls-18"
                  points="205.5303 103.0356 202.1627 103.034 205.7868 98.4991 209.1544 98.5007 205.5303 103.0356"/>
         <polygon class="cls-18"
                  points="212.821 103.0389 209.4535 103.0374 213.0776 98.5025 216.4452 98.504 212.821 103.0389"/>
         <polygon class="cls-18"
                  points="220.1118 103.0423 216.7442 103.0408 220.3684 98.5058 223.7359 98.5074 220.1118 103.0423"/>
      </g>
      <g>
         <polygon class="cls-18"
                  points="226.3044 95.9129 226.3044 99.2806 221.7678 95.6586 221.7678 92.291 226.3044 95.9129"/>
         <polygon class="cls-18"
                  points="226.3044 88.8808 226.3044 92.2483 221.7678 88.6264 221.7678 85.2588 226.3044 88.8808"/>
         <polygon class="cls-18"
                  points="226.3044 81.8486 226.3044 85.2162 221.7678 81.5942 221.7678 78.2267 226.3044 81.8486"/>
         <polygon class="cls-18"
                  points="226.3044 74.8165 226.3044 78.184 221.7678 74.5621 221.7678 71.1945 226.3044 74.8165"/>
         <polygon class="cls-18"
                  points="226.3044 67.7842 226.3044 71.1518 221.7678 67.5299 221.7678 64.1623 226.3044 67.7842"/>
         <polygon class="cls-18"
                  points="226.3044 60.7521 226.3044 64.1196 221.7678 60.4977 221.7678 57.1301 226.3044 60.7521"/>
         <polygon class="cls-18"
                  points="226.3044 53.7199 226.3044 57.0874 221.7678 53.4655 221.7678 50.0979 226.3044 53.7199"/>
         <polygon class="cls-18"
                  points="226.3044 46.6877 226.3044 50.0553 221.7678 46.4333 221.7678 43.0657 226.3044 46.6877"/>
         <polygon class="cls-18"
                  points="218.8508 38.4735 222.2184 38.4884 218.5763 43.0089 215.2087 42.9939 218.8508 38.4735"/>
      </g>
   </g>
   <g id="Paths">
      <path class="cls-8" d="m244.5933,100.7649H40.6049"/>
      <path class="cls-8" d="m280.6475,100.7649h-20.45"/>
      <path class="cls-8" d="m200.6142,40.7649h-119.3102"/>
      <path class="cls-8" d="m65.9598,40.7649h-24.4537"/>
      <polyline class="cls-8"
                points="224.0361 100.7028 224.0361 40.7649 216.2253 40.7649"/>
      <polyline class="cls-8"
                points="216.0864 142.6422 224.0361 142.6422 224.0361 100.7649"/>
      <polyline class="cls-8"
                points="135.9475 100.7028 135.9475 142.6422 200.4197 142.6422"/>
      <polyline class="cls-8"
                points="135.9475 40.7649 135.9475 71.5332 150.9475 71.5332"/>
      <g id="Connect">
         <g class="cls-31">
            <g class="cls-25">
               <path class="cls-13"
                     d="m135.9472,99.7615c.553,0,1,.449,1,1.003,0,.555-.447,1.003-1,1.003-.552,0-1-.448-1-1.003,0-.554.448-1.003,1-1.003"/>
               <circle class="cls-10" cx="135.9472" cy="100.7645" r="1"/>
            </g>
         </g>
      </g>
      <g id="Connect-2" data-name="Connect">
         <g class="cls-11">
            <g class="cls-33">
               <path class="cls-13"
                     d="m224.0358,99.7615c.553,0,1,.449,1,1.003,0,.555-.447,1.003-1,1.003-.552,0-1-.448-1-1.003,0-.554.448-1.003,1-1.003"/>
               <circle class="cls-10" cx="224.0358" cy="100.7645" r="1"/>
            </g>
         </g>
      </g>
      <g id="Connect-3" data-name="Connect">
         <g class="cls-26">
            <g class="cls-38">
               <path class="cls-13"
                     d="m135.9472,39.7615c.553,0,1,.449,1,1.003,0,.555-.447,1.003-1,1.003-.552,0-1-.448-1-1.003,0-.554.448-1.003,1-1.003"/>
               <circle class="cls-10" cx="135.9472" cy="40.7645" r="1"/>
            </g>
         </g>
      </g>
   </g>
   <g id="Parts">
      <g id="Artwork_13" data-name="Artwork 13">
         <g class="cls-22">
            <g class="cls-23">
               <path class="cls-17"
                     d="m280.666,98.7032c1.104,0,2,.896,2,2s-.896,2-2,2-2-.896-2-2,.896-2,2-2"/>
               <circle class="cls-8" cx="280.666" cy="100.7032" r="2"/>
            </g>
         </g>
      </g>
      <g id="Artwork_13-2" data-name="Artwork 13">
         <g class="cls-34">
            <g class="cls-30">
               <path class="cls-17"
                     d="m40.6048,38.7032c1.104,0,2,.896,2,2s-.896,2-2,2-2-.896-2-2,.896-2,2-2"/>
               <circle class="cls-8" cx="40.6048" cy="40.7032" r="2"/>
            </g>
         </g>
      </g>
      <g id="Modular_Inverter" data-name="Modular Inverter">
         <g class="cls-39">
            <rect class="cls-16"
                  x="89.8076"
                  y="87.9459"
                  width="30.952"
                  height="30.952"/>
            <rect class="cls-5"
                  x="89.8074"
                  y="87.9456"
                  width="30.952"
                  height="30.952"/>
            <line class="cls-5"
                  x1="89.8099"
                  y1="118.8998"
                  x2="120.7609"
                  y2="87.9478"/>
            <line class="cls-5"
                  x1="93.1928"
                  y1="94.7188"
                  x2="101.8938"
                  y2="94.7188"/>
            <line class="cls-5"
                  x1="99.8452"
                  y1="92.7843"
                  x2="101.8932"
                  y2="92.7843"/>
            <line class="cls-5"
                  x1="96.519"
                  y1="92.7843"
                  x2="98.567"
                  y2="92.7843"/>
            <line class="cls-5"
                  x1="93.1928"
                  y1="92.7843"
                  x2="95.2408"
                  y2="92.7843"/>
            <g class="cls-2">
               <path class="cls-5"
                     d="m117.3457,113.5308c-.121,1.086-.988,1.825-1.935,1.825s-1.702-.482-1.934-1.825c-.232-1.343-1.121-1.824-1.935-1.824-.813,0-1.835.755-1.934,1.824"/>
            </g>
            <rect class="cls-16"
                  x="86.8076"
                  y="85.7649"
                  width="30.952"
                  height="30.952"/>
            <rect class="cls-5"
                  x="86.8074"
                  y="85.7654"
                  width="30.952"
                  height="30.952"/>
            <line class="cls-5"
                  x1="86.8099"
                  y1="116.7196"
                  x2="117.7609"
                  y2="85.7676"/>
            <line class="cls-5"
                  x1="90.1928"
                  y1="92.5387"
                  x2="98.8938"
                  y2="92.5387"/>
            <line class="cls-5"
                  x1="96.8452"
                  y1="90.6042"
                  x2="98.8932"
                  y2="90.6042"/>
            <line class="cls-5"
                  x1="93.519"
                  y1="90.6042"
                  x2="95.567"
                  y2="90.6042"/>
            <line class="cls-5"
                  x1="90.1928"
                  y1="90.6042"
                  x2="92.2408"
                  y2="90.6042"/>
            <g class="cls-27">
               <path class="cls-5"
                     d="m114.3457,111.3506c-.121,1.086-.988,1.825-1.935,1.825s-1.702-.482-1.934-1.825c-.232-1.343-1.121-1.824-1.935-1.824-.813,0-1.835.755-1.934,1.824"/>
            </g>
            <rect class="cls-16"
                  x="83.8066"
                  y="83.5189"
                  width="30.953"
                  height="30.953"/>
            <g class="cls-19">
               <rect class="cls-5"
                     x="83.8074"
                     y="83.5198"
                     width="30.952"
                     height="30.952"/>
               <line class="cls-5"
                     x1="83.8099"
                     y1="114.474"
                     x2="114.7609"
                     y2="83.522"/>
            </g>
            <line class="cls-5"
                  x1="87.1928"
                  y1="90.2931"
                  x2="95.8938"
                  y2="90.2931"/>
            <line class="cls-5"
                  x1="93.8452"
                  y1="88.3585"
                  x2="95.8932"
                  y2="88.3585"/>
            <line class="cls-5"
                  x1="90.519"
                  y1="88.3585"
                  x2="92.567"
                  y2="88.3585"/>
            <line class="cls-5"
                  x1="87.1928"
                  y1="88.3585"
                  x2="89.2408"
                  y2="88.3585"/>
            <g class="cls-36">
               <path class="cls-5"
                     d="m111.3457,109.105c-.121,1.086-.988,1.825-1.935,1.825s-1.702-.482-1.934-1.825c-.232-1.343-1.121-1.824-1.935-1.824-.813,0-1.835.755-1.934,1.824"/>
            </g>
         </g>
      </g>
      <g id="Artwork_20_no_white" data-name="Artwork 20 no white">
         <g class="cls-21">
            <g class="cls-3">
               <line class="cls-8"
                     x1="66.2285"
                     y1="47.5422"
                     x2="80.8584"
                     y2="40.7762"/>
               <path class="cls-14"
                     d="m80.8584,41.7805h0c-.55,0-1-.45-1-1,0-.551.45-1,1-1s1,.449,1,1c0,.55-.45,1-1,1"/>
               <path class="cls-14"
                     d="m66.2285,41.7805h0c-.55,0-1-.45-1-1,0-.551.45-1,1-1s1,.449,1,1c0,.55-.45,1-1,1"/>
            </g>
         </g>
      </g>
      <g id="Artwork_20_no_white-2" data-name="Artwork 20 no white">
         <g class="cls-37">
            <g class="cls-35">
               <line class="cls-8"
                     x1="200.872"
                     y1="47.5422"
                     x2="215.502"
                     y2="40.7762"/>
               <path class="cls-14"
                     d="m215.5019,41.7805h0c-.55,0-1-.45-1-1,0-.551.45-1,1-1s1,.449,1,1c0,.55-.45,1-1,1"/>
               <path class="cls-14"
                     d="m200.872,41.7805h0c-.55,0-1-.45-1-1,0-.551.45-1,1-1s1,.449,1,1c0,.55-.45,1-1,1"/>
            </g>
         </g>
      </g>
      <g id="Artwork_20_no_white-3" data-name="Artwork 20 no white">
         <g class="cls-32">
            <g class="cls-1">
               <line class="cls-8"
                     x1="200.872"
                     y1="149.4196"
                     x2="215.502"
                     y2="142.6536"/>
               <path class="cls-14"
                     d="m215.5019,143.6579h0c-.55,0-1-.45-1-1,0-.551.45-1,1-1s1,.449,1,1c0,.55-.45,1-1,1"/>
               <path class="cls-14"
                     d="m200.872,143.6579h0c-.55,0-1-.45-1-1,0-.551.45-1,1-1s1,.449,1,1c0,.55-.45,1-1,1"/>
            </g>
         </g>
      </g>
      <g id="Artwork_20_no_white-4" data-name="Artwork 20 no white">
         <g class="cls-24">
            <g class="cls-29">
               <line class="cls-8"
                     x1="245.0362"
                     y1="107.5422"
                     x2="259.6662"
                     y2="100.7762"/>
               <path class="cls-14"
                     d="m259.6661,101.7805h0c-.55,0-1-.45-1-1,0-.551.45-1,1-1s1,.449,1,1c0,.55-.45,1-1,1"/>
               <path class="cls-14"
                     d="m245.0362,101.7805h0c-.55,0-1-.45-1-1,0-.551.45-1,1-1s1,.449,1,1c0,.55-.45,1-1,1"/>
            </g>
         </g>
      </g>
      <g id="Modular-SSW">
         <g class="cls-40">
            <rect class="cls-16"
                  x="151.3225"
                  y="56.6788"
                  width="37.338"
                  height="58.845"/>
            <g class="cls-28">
               <rect class="cls-9"
                     x="151.3225"
                     y="56.6788"
                     width="37.339"
                     height="58.845"/>
               <polyline class="cls-6"
                         points="151.3225 100.8133 180.6615 100.8133 180.6615 71.3913 151.3225 71.3913"/>
            </g>
            <rect class="cls-16"
                  x="158.6525"
                  y="93.2278"
                  width="15.128"
                  height="15.171"/>
            <rect class="cls-9"
                  x="158.6525"
                  y="93.2278"
                  width="15.128"
                  height="15.171"/>
            <line class="cls-9"
                  x1="163.6202"
                  y1="112.0787"
                  x2="163.6202"
                  y2="104.7187"/>
            <line class="cls-9"
                  x1="166.5623"
                  y1="112.0787"
                  x2="166.5523"
                  y2="109.7367"/>
            <path class="cls-12"
                  d="m169.8171,105.9347v4.928l-4.908-2.464,4.908-2.464Zm.75-1.216l-7.33,3.68,7.33,3.68v-7.36Z"/>
            <line class="cls-9"
                  x1="169.2787"
                  y1="89.6014"
                  x2="169.2787"
                  y2="96.9614"/>
            <line class="cls-9"
                  x1="165.9899"
                  y1="89.5501"
                  x2="165.9899"
                  y2="91.5631"/>
            <path class="cls-12"
                  d="m163.0749,90.7625l4.908,2.464-4.908,2.464v-4.928Zm-.75-1.216v7.36l7.33-3.68-7.33-3.68Z"/>
            <g class="cls-20">
               <path class="cls-15"
                     d="m158.6529,99.8126c.551,0,.997.448.997,1s-.446,1-.997,1-.997-.448-.997-1,.446-1,.997-1"/>
               <circle class="cls-9" cx="158.6529" cy="100.8126" r=".997"/>
               <path class="cls-15"
                     d="m173.7806,99.8133c.551,0,.997.448.997,1s-.446,1-.997,1-.997-.448-.997-1,.446-1,.997-1"/>
               <circle class="cls-9" cx="173.7806" cy="100.8133" r=".997"/>
               <rect class="cls-16"
                     x="158.6525"
                     y="63.8058"
                     width="15.128"
                     height="15.171"/>
               <rect class="cls-9"
                     x="158.6525"
                     y="63.8058"
                     width="15.128"
                     height="15.171"/>
               <line class="cls-9"
                     x1="163.6202"
                     y1="82.6563"
                     x2="163.6202"
                     y2="75.2963"/>
               <line class="cls-9"
                     x1="166.5623"
                     y1="82.6563"
                     x2="166.5523"
                     y2="80.3143"/>
               <path class="cls-12"
                     d="m169.8171,76.5123v4.928l-4.908-2.464,4.908-2.464Zm.75-1.216l-7.33,3.68,7.33,3.68v-7.36Z"/>
               <line class="cls-9"
                     x1="169.2787"
                     y1="60.179"
                     x2="169.2787"
                     y2="67.539"/>
               <line class="cls-9"
                     x1="165.9899"
                     y1="60.1277"
                     x2="165.9899"
                     y2="62.1407"/>
               <path class="cls-12"
                     d="m163.0749,61.3401l4.908,2.464-4.908,2.464v-4.928Zm-.75-1.216v7.36l7.33-3.68-7.33-3.68Z"/>
               <path class="cls-15"
                     d="m158.6529,70.3902c.551,0,.997.448.997,1s-.446,1-.997,1-.997-.448-.997-1,.446-1,.997-1"/>
               <circle class="cls-9" cx="158.6529" cy="71.3902" r=".997"/>
               <path class="cls-15"
                     d="m173.7806,70.3909c.551,0,.997.448.997,1s-.446,1-.997,1-.997-.448-.997-1,.446-1,.997-1"/>
               <circle class="cls-9" cx="173.7806" cy="71.3909" r=".997"/>
               <line class="cls-6"
                     x1="188.6611"
                     y1="100.8126"
                     x2="180.6611"
                     y2="100.8126"/>
               <path class="cls-15"
                     d="m180.6611,99.8133c.551,0,.997.448.997,1s-.446,1-.997,1-.997-.448-.997-1,.446-1,.997-1"/>
               <circle class="cls-9" cx="180.6611" cy="100.8133" r=".997"/>
            </g>
         </g>
      </g>
   </g>
   <g id="Text">
      <text class="cls-41" transform="translate(20.0431 18.6937)">
         <tspan x="0" y="0">BYPASS</tspan>
         <tspan x="4.4507" y="12">MAINS</tspan>
      </text>
      <text class="cls-41" transform="translate(77.0035 78.6934)">
         <tspan x="0" y="0">INVERTER</tspan>
      </text>
      <text class="cls-41" transform="translate(251.4824 94.0575)">
         <tspan x="0" y="0">AC OUTPUT</tspan>
      </text>
      <text class="cls-41" transform="translate(16.9938 94.0575)">
         <tspan x="0" y="0">DC INPUT</tspan>
      </text>
      <text class="cls-41" transform="translate(138.1916 18.6938)">
         <tspan x="0" y="0">STATIC</tspan>
      </text>
      <text class="cls-41" transform="translate(136.5265 30.6936)">
         <tspan x="0" y="0">SWITCH</tspan>
      </text>
      <text class="cls-41" transform="translate(194.5628 18.6938)">
         <tspan x="0" y="0">MANUAL</tspan>
      </text>
      <text class="cls-41" transform="translate(195.6639 30.6938)">
         <tspan x="0" y="0">BYPASS</tspan>
      </text>
   </g>
</svg>
