<?xml version="1.0" encoding="UTF-8"?>
<svg xmlns="http://www.w3.org/2000/svg"
     width="122.8957mm"
     height="68.3012mm"
     viewBox="0 0 348.3659 193.6098">
   <defs>
      <style>
      .cls-1 {
        fill: #01889C;
      }

      .cls-2 {
        fill: #58ba5a;
      }

      .cls-3 {
        font-size: 14px;
        fill: #fff;
        font-family: ArialMT, Arial;
      }

      .cls-4, .cls-7 {
        fill: none;
        stroke-miterlimit: 10;
      }

      .cls-4 {
        stroke: #626469;
        stroke-width: 0.7572px;
      }

      .cls-5 {
        font-size: 13px;
        font-family: Arial-BoldMT, Arial;
        font-weight: 700;
      }

      .cls-10, .cls-5 {
        fill: #626469;
      }

      .cls-6 {
        letter-spacing: -0.0371em;
      }

      .cls-7 {
        stroke: #231f20;
        stroke-width: 0.5px;
      }

      .cls-8 {
        fill: #231f20;
      }

      .cls-9 {
        fill: #c6c6c5;
      }
    </style>
   </defs>
   <g id="Layer_1" data-name="Layer 1">
      <g>
         <rect class="cls-1"
               x="26.6075"
               y="26.5044"
               width="80.7778"
               height="52.9585"
               rx="4.5918"/>
         <path class="cls-2"
               d="M102.7936,26.9119a4.1888,4.1888,0,0,1,4.1841,4.184V74.871a4.1888,4.1888,0,0,1-4.1841,4.184H31.1994a4.1887,4.1887,0,0,1-4.184-4.184V31.0959a4.1887,4.1887,0,0,1,4.184-4.184h71.5942m0-.816H31.1994a5,5,0,0,0-5,5V74.871a5,5,0,0,0,5,5h71.5942a5,5,0,0,0,5-5V31.0959a5,5,0,0,0-5-5Z"/>
      </g>
      <text class="cls-3" transform="translate(50.6212 56.4597)">A025</text>
      <g>
         <rect class="cls-1"
               x="26.6074"
               y="96.5978"
               width="80.7778"
               height="69.2778"
               rx="4.5918"/>
         <path class="cls-2"
               d="M102.7936,97.0058a4.1888,4.1888,0,0,1,4.1841,4.184v60.0939a4.1889,4.1889,0,0,1-4.1841,4.1841H31.1994a4.1888,4.1888,0,0,1-4.184-4.1841V101.19a4.1887,4.1887,0,0,1,4.184-4.184h71.5942m0-.816H31.1994a5,5,0,0,0-5,5v60.0939a5,5,0,0,0,5,5h71.5942a5,5,0,0,0,5-5V101.19a5,5,0,0,0-5-5Z"/>
      </g>
      <text class="cls-3" transform="translate(50.6212 135.9577)">A070</text>
      <rect class="cls-4"
            x="10"
            y="10"
            width="114.2319"
            height="172.6026"
            rx="3"/>
      <text class="cls-5" transform="translate(12.9999 22.3076)">
         <tspan class="cls-6">A</tspan>
         <tspan x="8.9058" y="0"/>
      </text>
      <g>
         <rect class="cls-1"
               x="240.8394"
               y="26.5044"
               width="80.7778"
               height="52.9585"
               rx="4.5918"/>
         <path class="cls-2"
               d="M317.0255,26.9119a4.1888,4.1888,0,0,1,4.1841,4.184V74.871a4.1888,4.1888,0,0,1-4.1841,4.184H245.4313a4.1887,4.1887,0,0,1-4.184-4.184V31.0959a4.1887,4.1887,0,0,1,4.184-4.184h71.5942m0-.816H245.4313a5,5,0,0,0-5,5V74.871a5,5,0,0,0,5,5h71.5942a5,5,0,0,0,5-5V31.0959a5,5,0,0,0-5-5Z"/>
      </g>
      <text class="cls-3" transform="translate(264.8531 56.4597)">A025</text>
      <g>
         <rect class="cls-1"
               x="240.8394"
               y="96.5978"
               width="80.7778"
               height="69.2778"
               rx="4.5918"/>
         <path class="cls-2"
               d="M317.0255,97.0058a4.1888,4.1888,0,0,1,4.1841,4.184v60.0939a4.1889,4.1889,0,0,1-4.1841,4.1841H245.4313a4.1888,4.1888,0,0,1-4.184-4.1841V101.19a4.1887,4.1887,0,0,1,4.184-4.184h71.5942m0-.816H245.4313a5,5,0,0,0-5,5v60.0939a5,5,0,0,0,5,5h71.5942a5,5,0,0,0,5-5V101.19a5,5,0,0,0-5-5Z"/>
      </g>
      <text class="cls-3" transform="translate(264.8531 135.9577)">A070</text>
      <rect class="cls-4"
            x="224.2319"
            y="10"
            width="114.2319"
            height="172.6026"
            rx="3"/>
      <text class="cls-5" transform="translate(227.2318 22.3076)">B </text>
   </g>
   <g id="Layer_2" data-name="Layer 2">
      <g>
         <line class="cls-7"
               x1="107.7936"
               y1="52.9835"
               x2="132.9875"
               y2="52.9835"/>
         <polygon class="cls-8"
                  points="132.623 54.23 134.782 52.983 132.623 51.737 132.623 54.23"/>
      </g>
      <g>
         <line class="cls-7"
               x1="281.3478"
               y1="94.3958"
               x2="281.3478"
               y2="81.665"/>
         <polygon class="cls-8"
                  points="282.594 94.031 281.348 96.19 280.101 94.031 282.594 94.031"/>
         <polygon class="cls-8"
                  points="282.594 82.03 281.348 79.871 280.101 82.03 282.594 82.03"/>
      </g>
      <g>
         <line class="cls-7"
               x1="66.9696"
               y1="94.3958"
               x2="66.9696"
               y2="81.665"/>
         <polygon class="cls-8"
                  points="68.216 94.031 66.97 96.19 65.723 94.031 68.216 94.031"/>
         <polygon class="cls-8"
                  points="68.216 82.03 66.97 79.871 65.723 82.03 68.216 82.03"/>
      </g>
      <g>
         <line class="cls-7"
               x1="240.4313"
               y1="52.9835"
               x2="215.2375"
               y2="52.9835"/>
         <polygon class="cls-8"
                  points="215.602 51.737 213.443 52.983 215.602 54.23 215.602 51.737"/>
      </g>
      <g>
         <ellipse class="cls-9"
                  cx="208.4202"
                  cy="52.9835"
                  rx="3.0407"
                  ry="6.0814"/>
         <rect class="cls-9"
               x="140.0436"
               y="46.9021"
               width="68.3766"
               height="12.1627"/>
         <ellipse class="cls-10"
                  cx="140.0436"
                  cy="52.9835"
                  rx="3.0407"
                  ry="6.0814"/>
      </g>
   </g>
</svg>
