<?xml version="1.0" encoding="UTF-8"?>
<svg xmlns="http://www.w3.org/2000/svg"
 id="Layer_1"
     data-name="Layer 1"
     width="420.4878"
     height="217.9512"
     viewBox="0 0 420.4878 217.9512">
   <defs>
      <style>
      .cls-1 {
        fill: #c6c6c5;
      }

      .cls-2, .cls-7, .cls-8 {
        font-size: 11.9192px;
      }

      .cls-10, .cls-2, .cls-7, .cls-8 {
        font-family: ArialMT, Arial;
      }

      .cls-3, .cls-4, .cls-5, .cls-6 {
        fill: none;
      }

      .cls-3, .cls-4 {
        stroke: #000;
        stroke-miterlimit: 10;
      }

      .cls-3 {
        stroke-width: 1.0825px;
      }

      .cls-4 {
        stroke-width: 1.0141px;
      }

      .cls-5, .cls-6 {
        stroke: #010101;
        stroke-width: 0.9933px;
      }

      .cls-6 {
        stroke-dasharray: 4.0496 2.0248;
      }

      .cls-7, .cls-8, .cls-9 {
        fill: #231f20;
      }

      .cls-7 {
        letter-spacing: 0.1979em;
      }

      .cls-8 {
        letter-spacing: 0.198em;
      }

      .cls-9 {
        font-size: 15.8923px;
        font-family: Arial-BoldMT, Arial;
        font-weight: 700;
      }

      .cls-10 {
        font-weight: 400;
      }
    </style>
   </defs>
   <title>Prodibus-PD_Connection</title>
   <rect class="cls-1"
         x="219.7398"
         y="52.8295"
         width="42.4633"
         height="146.8236"/>
   <rect x="262.2031" y="52.5518" width="0.4904" height="0.4904"/>
   <rect x="262.2031" y="52.5518" width="0.4904" height="0.4904"/>
   <text class="cls-2" transform="translate(226.1449 65.5295)">1</text>
   <text class="cls-2" transform="translate(226.1449 81.7853)">2</text>
   <text class="cls-2" transform="translate(226.1449 98.0431)">3</text>
   <text class="cls-2" transform="translate(226.1429 114.3009)">4</text>
   <text class="cls-2" transform="translate(226.1449 130.5627)">5</text>
   <text class="cls-2" transform="translate(226.1449 146.8175)">6</text>
   <text class="cls-2" transform="translate(226.1449 163.0753)">7</text>
   <text class="cls-2" transform="translate(226.1449 179.3322)">8</text>
   <rect class="cls-3"
         x="219.7398"
         y="52.8295"
         width="42.2505"
         height="146.7891"/>
   <rect class="cls-4"
         x="219.7398"
         y="52.797"
         width="20.2832"
         height="16.368"/>
   <rect class="cls-4"
         x="219.7398"
         y="69.108"
         width="20.2832"
         height="16.368"/>
   <rect class="cls-4"
         x="219.7398"
         y="85.419"
         width="20.2832"
         height="16.368"/>
   <rect class="cls-4"
         x="219.7398"
         y="101.73"
         width="20.2832"
         height="16.368"/>
   <rect class="cls-4"
         x="219.7398"
         y="118.041"
         width="20.2832"
         height="16.368"/>
   <rect class="cls-4"
         x="219.7398"
         y="134.3521"
         width="20.2832"
         height="16.368"/>
   <rect class="cls-4"
         x="219.7398"
         y="150.6631"
         width="20.2832"
         height="16.368"/>
   <rect class="cls-4"
         x="219.7398"
         y="166.9741"
         width="20.2832"
         height="16.368"/>
   <text class="cls-2" transform="translate(226.1449 195.6432)">9</text>
   <rect class="cls-4"
         x="219.7398"
         y="183.2851"
         width="20.2832"
         height="16.368"/>
   <rect class="cls-4"
         x="219.7398"
         y="199.5961"
         width="60.1626"
         height="16.368"/>
   <rect class="cls-1"
         x="110.4741"
         y="52.8295"
         width="42.4633"
         height="146.8236"/>
   <text class="cls-2" transform="translate(139.0593 65.5295)">1</text>
   <text class="cls-2" transform="translate(139.0593 81.7853)">2</text>
   <text class="cls-2" transform="translate(139.0593 98.0431)">3</text>
   <text class="cls-2" transform="translate(139.0574 114.3009)">4</text>
   <text class="cls-2" transform="translate(139.0593 130.5627)">5</text>
   <text class="cls-2" transform="translate(139.0593 146.8175)">6</text>
   <text class="cls-2" transform="translate(139.0593 163.0753)">7</text>
   <text class="cls-2" transform="translate(139.0593 179.3322)">8</text>
   <rect class="cls-3"
         x="110.4741"
         y="52.8295"
         width="42.2505"
         height="146.7891"/>
   <rect class="cls-4"
         x="132.6542"
         y="52.797"
         width="20.2832"
         height="16.368"/>
   <rect class="cls-4"
         x="132.6542"
         y="69.108"
         width="20.2832"
         height="16.368"/>
   <rect class="cls-4"
         x="132.6542"
         y="85.419"
         width="20.2832"
         height="16.368"/>
   <rect class="cls-4"
         x="132.6542"
         y="101.73"
         width="20.2832"
         height="16.368"/>
   <rect class="cls-4"
         x="132.6542"
         y="118.041"
         width="20.2832"
         height="16.368"/>
   <rect class="cls-4"
         x="132.6542"
         y="134.3521"
         width="20.2832"
         height="16.368"/>
   <rect class="cls-4"
         x="132.6542"
         y="150.6631"
         width="20.2832"
         height="16.368"/>
   <rect class="cls-4"
         x="132.6542"
         y="166.9741"
         width="20.2832"
         height="16.368"/>
   <text class="cls-2" transform="translate(139.0593 195.6432)">9</text>
   <rect class="cls-4"
         x="132.6542"
         y="183.2851"
         width="20.2832"
         height="16.368"/>
   <rect class="cls-4"
         x="93.4634"
         y="199.5961"
         width="59.474"
         height="16.368"/>
   <g>
      <line class="cls-5"
            x1="264.1557"
            y1="199.6185"
            x2="266.1422"
            y2="199.6185"/>
      <line class="cls-6"
            x1="268.167"
            y1="199.6185"
            x2="303.6007"
            y2="199.6185"/>
      <line class="cls-5"
            x1="304.6131"
            y1="199.6185"
            x2="306.5996"
            y2="199.6185"/>
   </g>
   <g>
      <line class="cls-5"
            x1="264.1557"
            y1="215.9641"
            x2="266.1422"
            y2="215.9641"/>
      <line class="cls-6"
            x1="268.167"
            y1="215.9641"
            x2="303.6007"
            y2="215.9641"/>
      <line class="cls-5"
            x1="304.6131"
            y1="215.9641"
            x2="306.5996"
            y2="215.9641"/>
   </g>
   <g>
      <line class="cls-5"
            x1="264.1557"
            y1="53.0423"
            x2="266.1423"
            y2="53.0423"/>
      <line class="cls-6"
            x1="268.1669"
            y1="53.0423"
            x2="303.6008"
            y2="53.0423"/>
      <line class="cls-5"
            x1="304.613"
            y1="53.0423"
            x2="306.5996"
            y2="53.0423"/>
   </g>
   <g>
      <line class="cls-5"
            x1="68.0302"
            y1="199.6185"
            x2="70.0167"
            y2="199.6185"/>
      <line class="cls-6"
            x1="72.0415"
            y1="199.6185"
            x2="107.4752"
            y2="199.6185"/>
      <line class="cls-5"
            x1="108.4876"
            y1="199.6185"
            x2="110.4741"
            y2="199.6185"/>
   </g>
   <g>
      <line class="cls-5"
            x1="68.0302"
            y1="215.9641"
            x2="70.0167"
            y2="215.9641"/>
      <line class="cls-6"
            x1="72.0415"
            y1="215.9641"
            x2="107.4752"
            y2="215.9641"/>
      <line class="cls-5"
            x1="108.4876"
            y1="215.9641"
            x2="110.4741"
            y2="215.9641"/>
   </g>
   <g>
      <line class="cls-5"
            x1="68.0302"
            y1="53.0423"
            x2="70.0168"
            y2="53.0423"/>
      <line class="cls-6"
            x1="72.0415"
            y1="53.0423"
            x2="107.4753"
            y2="53.0423"/>
      <line class="cls-5"
            x1="108.4875"
            y1="53.0423"
            x2="110.4741"
            y2="53.0423"/>
   </g>
   <g>
      <text class="cls-7" transform="translate(271.9904 130.5626)">GND network (2)</text>
      <text class="cls-7" transform="translate(271.9904 146.8174)">+5V network (2)</text>
      <text class="cls-7" transform="translate(271.9902 179.3332)">A-line/RxD/TxD -</text>
      <text class="cls-7" transform="translate(227.0146 211.9542)">Shield</text>
      <text class="cls-7" transform="translate(100.2247 211.9542)">Shield</text>
      <text class="cls-8" transform="translate(271.9904 114.3009)">Request to send (1)</text>
      <text class="cls-7" transform="translate(271.9904 98.0431)">B-line/RxD/TxD +</text>
   </g>
   <g>
      <text class="cls-7" transform="translate(69.2681 130.5626)">GND</text>
      <text class="cls-7" transform="translate(74.2144 146.8174)">+5V</text>
      <text class="cls-8" transform="translate(68.8978 179.3332)">D(A)</text>
      <text class="cls-8" transform="translate(71.9156 114.3009)">RTS</text>
      <text class="cls-8" transform="translate(68.898 98.0431)">D(B)</text>
   </g>
   <text class="cls-9" transform="translate(32.789 13.8593)">LUFP7 Gateway<tspan class="cls-10">
         <tspan x="-31.7842" y="19.0703">SUB-D 9-pin (female)</tspan>
      </tspan>
   </text>
   <text class="cls-9" transform="translate(219.7396 13.6795)">Profibus Connector<tspan class="cls-10">
         <tspan x="0" y="19.0703">SUB-D 9-pin (male)</tspan>
      </tspan>
   </text>
</svg>
