<?xml version="1.0" encoding="UTF-8"?>
<!-- Generator: Adobe Illustrator 23.0.6, SVG Export Plug-In . SVG Version: 6.00 Build 0)  -->
<svg xmlns="http://www.w3.org/2000/svg" xmlns:xlink="http://www.w3.org/1999/xlink" version="1.1" x="0px" y="0px" width="595.27557px" height="129.36586px" viewBox="0 0 595.27557 129.36586" style="enable-background:new 0 0 595.27557 129.36586;" xml:space="preserve">
<style type="text/css">
	.st0{display:none;}
	.st1{display:inline;}
	.st2{font-family:'ArialNarrow';}
	.st3{font-size:7.46022px;}
	.st4{fill:none;stroke:#000000;stroke-width:0.5;stroke-linecap:round;stroke-linejoin:round;stroke-miterlimit:10;}
	.st5{fill:none;stroke:#FFFFFF;stroke-linecap:round;}
	.st6{fill:none;stroke:#000000;stroke-width:0.5;stroke-linecap:round;}
	.st7{fill-rule:evenodd;clip-rule:evenodd;stroke:#000000;stroke-width:0.106;stroke-linecap:round;}
	.st8{fill:#FFFFFF;}
	.st9{font-family:'ArialMT';}
	.st10{font-size:13.59995px;}
</style>
<g id="Layer_4" class="st0">
	<g id="TEXT_108_" class="st1">
		<text transform="matrix(1 0 0 1 29.31348 95.15211)" class="st2 st3">Rectifier fuse blown</text>
	</g>
	<g id="TEXT_109_" class="st1">
		<text transform="matrix(1 0 0 1 29.31348 76.58082)" class="st2 st3">DC out of tolerance</text>
	</g>
	<g id="TEXT_110_" class="st1">
		<text transform="matrix(1 0 0 1 29.31348 58.00855)" class="st2 st3">Rectifier failure</text>
	</g>
	<g id="TEXT_111_" class="st1">
		<text transform="matrix(1 0 0 1 29.31348 39.43629)" class="st2 st3">Rectifier mains fault</text>
	</g>
	<g id="TEXT_112_" class="st1">
		<text transform="matrix(1 0 0 1 127.28027 39.43629)" class="st2 st3">Battery operation</text>
	</g>
	<g id="TEXT_113_" class="st1">
		<text transform="matrix(1 0 0 1 127.28027 58.00855)" class="st2 st3">Battery discharged</text>
	</g>
	<g id="TEXT_114_" class="st1">
		<text transform="matrix(1 0 0 1 127.28027 76.58082)" class="st2 st3">Batt. disconnected</text>
	</g>
	<g id="TEXT_115_" class="st1">
		<text transform="matrix(1 0 0 1 127.28027 95.15211)" class="st2 st3">Earth fault DC</text>
	</g>
	<g id="TEXT_116_" class="st1">
		<text transform="matrix(1 0 0 1 225.24609 39.43629)" class="st2 st3">Inverter fault</text>
	</g>
	<g id="TEXT_117_" class="st1">
		<text transform="matrix(1 0 0 1 225.24609 58.00855)"><tspan x="0" y="0" class="st2 st3">Overload In</tspan><tspan x="31.62939" y="0" class="st2 st3">v</tspan><tspan x="34.24121" y="0" class="st2 st3">./Bypass</tspan></text>
	</g>
	<g id="TEXT_118_" class="st1">
		<text transform="matrix(1 0 0 1 225.24609 76.58082)" class="st2 st3">Inverter fuse blown</text>
	</g>
	<g id="TEXT_119_" class="st1">
		<text transform="matrix(1 0 0 1 225.24609 95.15211)" class="st2 st3">Asynchronous</text>
	</g>
	<g id="TEXT_120_" class="st1">
		<text transform="matrix(1 0 0 1 323.21191 39.43629)" class="st2 st3">Bypass mains fault</text>
	</g>
	<g id="TEXT_121_" class="st1">
		<text transform="matrix(1 0 0 1 323.21191 58.00855)" class="st2 st3">Manual Bypass ON</text>
	</g>
	<g id="TEXT_122_" class="st1">
		<text transform="matrix(1 0 0 1 323.21191 76.58082)" class="st2 st3">EN Inhibited</text>
	</g>
	<g id="TEXT_123_" class="st1">
		<text transform="matrix(1 0 0 1 323.21191 95.15211)"><tspan x="0" y="0" class="st2 st3">E</tspan><tspan x="4.08008" y="0" class="st2 st3">A</tspan><tspan x="7.82422" y="0" class="st2 st3"> Inhibited</tspan></text>
	</g>
	<g id="TEXT_124_" class="st1">
		<text transform="matrix(1 0 0 1 421.17969 39.43629)" class="st2 st3">Overtemperature</text>
	</g>
	<g id="TEXT_125_" class="st1">
		<text transform="matrix(1 0 0 1 421.17969 58.00855)" class="st2 st3">Fan failure</text>
	</g>
	<g id="TEXT_126_" class="st1">
		<text transform="matrix(1 0 0 1 421.17969 76.58082)" class="st2 st3">Power supply fault</text>
	</g>
	<g id="TEXT_127_" class="st1">
		<text transform="matrix(1 0 0 1 421.17969 95.15211)" class="st2 st3">Option 2</text>
	</g>
	<g id="TEXT_128_" class="st1">
		<text transform="matrix(1 0 0 1 519.14551 39.43629)" class="st2 st3">Option 3</text>
	</g>
	<g id="TEXT_129_" class="st1">
		<text transform="matrix(1 0 0 1 519.14551 58.00855)" class="st2 st3">Option 4</text>
	</g>
	<g id="TEXT_130_" class="st1">
		<text transform="matrix(1 0 0 1 519.14551 76.58082)" class="st2 st3">Option 5</text>
	</g>
	<g id="TEXT_131_" class="st1">
		<text transform="matrix(1 0 0 1 519.14551 95.15211)" class="st2 st3">Option 6</text>
	</g>
</g>
<g id="GUT_x5F_GRA_x5F_100_x5F_Print_x5F_Client">
	<g id="LWPOLYLINE_24_">
		<rect x="15.86541" y="34.41024" class="st4" width="9.28592" height="3.71437"/>
	</g>
	<g id="LWPOLYLINE_23_">
		<rect x="15.86541" y="52.98209" class="st4" width="9.28592" height="3.71437"/>
	</g>
	<g id="LWPOLYLINE_22_">
		<rect x="15.86541" y="71.55394" class="st4" width="9.28592" height="3.71437"/>
	</g>
	<g id="LWPOLYLINE_21_">
		<rect x="15.86541" y="90.12579" class="st4" width="9.28592" height="3.71437"/>
	</g>
	<g id="LWPOLYLINE_20_">
		<rect x="113.83192" y="90.12579" class="st4" width="9.28592" height="3.71437"/>
	</g>
	<g id="LWPOLYLINE_19_">
		<rect x="113.83192" y="71.55394" class="st4" width="9.28592" height="3.71437"/>
	</g>
	<g id="LWPOLYLINE_18_">
		<rect x="113.83192" y="52.98209" class="st4" width="9.28592" height="3.71437"/>
	</g>
	<g id="LWPOLYLINE_17_">
		<rect x="113.83192" y="34.41024" class="st4" width="9.28592" height="3.71437"/>
	</g>
	<g id="LWPOLYLINE_16_">
		<rect x="211.79843" y="90.12579" class="st4" width="9.28592" height="3.71437"/>
	</g>
	<g id="LWPOLYLINE_15_">
		<rect x="211.79843" y="71.55394" class="st4" width="9.28592" height="3.71437"/>
	</g>
	<g id="LWPOLYLINE_14_">
		<rect x="211.79843" y="52.98209" class="st4" width="9.28592" height="3.71437"/>
	</g>
	<g id="LWPOLYLINE_13_">
		<rect x="211.79843" y="34.41024" class="st4" width="9.28592" height="3.71437"/>
	</g>
	<g id="LWPOLYLINE_12_">
		<rect x="309.76492" y="90.12579" class="st4" width="9.28592" height="3.71437"/>
	</g>
	<g id="LWPOLYLINE_11_">
		<rect x="309.76492" y="71.55394" class="st4" width="9.28592" height="3.71437"/>
	</g>
	<g id="LWPOLYLINE_10_">
		<rect x="309.76492" y="52.98209" class="st4" width="9.28592" height="3.71437"/>
	</g>
	<g id="LWPOLYLINE_9_">
		<rect x="309.76492" y="34.41024" class="st4" width="9.28592" height="3.71437"/>
	</g>
	<g id="LWPOLYLINE_8_">
		<rect x="407.73145" y="90.12579" class="st4" width="9.28592" height="3.71437"/>
	</g>
	<g id="LWPOLYLINE_7_">
		<rect x="407.73145" y="71.55394" class="st4" width="9.28592" height="3.71437"/>
	</g>
	<g id="LWPOLYLINE_6_">
		<rect x="407.73145" y="52.98209" class="st4" width="9.28592" height="3.71437"/>
	</g>
	<g id="LWPOLYLINE_5_">
		<rect x="407.73145" y="34.41024" class="st4" width="9.28592" height="3.71437"/>
	</g>
	<g id="LWPOLYLINE_4_">
		<rect x="505.69794" y="90.12579" class="st4" width="9.28592" height="3.71437"/>
	</g>
	<g id="LWPOLYLINE_3_">
		<rect x="505.69794" y="71.55394" class="st4" width="9.28592" height="3.71437"/>
	</g>
	<g id="LWPOLYLINE_2_">
		<rect x="505.69794" y="52.98209" class="st4" width="9.28592" height="3.71437"/>
	</g>
	<g id="LWPOLYLINE_1_">
		<rect x="505.69794" y="34.41024" class="st4" width="9.28592" height="3.71437"/>
	</g>
	<g id="LINE_1_">
		<path class="st4" d="M584.34973,125.18602H10.47958l0.00003,0.00004c-3.28222,0-5.94299-2.66077-5.94299-5.94299l-0.00003-0.00004    V11.5263c0-4.10278,3.32596-7.42874,7.42874-7.42874h570.89862V4.0976c4.10278,0,7.42871,3.32596,7.42871,7.42874    c0,0,0,107.71672,0,107.71672c0,3.28223-2.66077,5.94299-5.94299,5.94299L584.34973,125.18602z"/>
	</g>
</g>
<g id="Layer_3">
	<g>
		<circle class="st7" cx="37.87423" cy="36.26743" r="8.07497"/>
		<text transform="matrix(1 0 0 1 33.7139 40.96939)" class="st8 st9 st10">A</text>
	</g>
	<g>
		<circle class="st7" cx="37.87423" cy="54.83928" r="8.07497"/>
		<text transform="matrix(1 0 0 1 33.33841 59.54124)" class="st8 st9 st10">B</text>
	</g>
	<g>
		<circle class="st7" cx="37.87423" cy="73.41113" r="8.07497"/>
		<text transform="matrix(1 0 0 1 32.96341 78.11308)" class="st8 st9 st10">C</text>
	</g>
	<g>
		<circle class="st7" cx="37.87423" cy="91.98339" r="8.07497"/>
		<text transform="matrix(1 0 0 1 32.96341 96.68536)" class="st8 st9 st10">D</text>
	</g>
	<g>
		<circle class="st7" cx="135.84073" cy="36.26743" r="8.07497"/>
		<text transform="matrix(1 0 0 1 131.30492 40.96939)" class="st8 st9 st10">E</text>
	</g>
	<g>
		<circle class="st7" cx="135.84073" cy="54.83928" r="8.07497"/>
		<text transform="matrix(1 0 0 1 131.68675 59.54124)" class="st8 st9 st10">F</text>
	</g>
	<g>
		<circle class="st7" cx="135.84073" cy="73.41113" r="8.07497"/>
		<text transform="matrix(1 0 0 1 130.5515 78.11308)" class="st8 st9 st10">G</text>
	</g>
	<g>
		<circle class="st7" cx="135.84073" cy="91.98339" r="8.07497"/>
		<text transform="matrix(1 0 0 1 130.92992 96.68536)" class="st8 st9 st10">H</text>
	</g>
	<g>
		<circle class="st7" cx="233.80724" cy="36.26743" r="8.07497"/>
		<text transform="matrix(1 0 0 1 231.91791 40.96939)" class="st8 st9 st10">I</text>
	</g>
	<g>
		<circle class="st7" cx="233.80724" cy="54.83928" r="8.07497"/>
		<text transform="matrix(1 0 0 1 230.40717 59.54124)" class="st8 st9 st10">J</text>
	</g>
	<g>
		<circle class="st7" cx="233.80724" cy="73.41113" r="8.07497"/>
		<text transform="matrix(1 0 0 1 229.27142 78.11308)" class="st8 st9 st10">K</text>
	</g>
	<g>
		<circle class="st7" cx="233.80724" cy="91.98339" r="8.07497"/>
		<text transform="matrix(1 0 0 1 230.27777 96.68536)" class="st8 st9 st10">L</text>
	</g>
	<g>
		<circle class="st7" cx="331.77374" cy="36.26743" r="8.07497"/>
		<text transform="matrix(1 0 0 1 326.10901 40.96939)" class="st8 st9 st10">M</text>
	</g>
	<g>
		<circle class="st7" cx="331.77374" cy="54.83928" r="8.07497"/>
		<text transform="matrix(1 0 0 1 326.86292 59.54124)" class="st8 st9 st10">N</text>
	</g>
	<g>
		<circle class="st7" cx="331.77374" cy="73.41113" r="8.07497"/>
		<text transform="matrix(1 0 0 1 326.4845 78.11308)" class="st8 st9 st10">O</text>
	</g>
	<g>
		<circle class="st7" cx="331.77374" cy="91.98339" r="8.07497"/>
		<text transform="matrix(1 0 0 1 327.36096 96.68536)" class="st8 st9 st10">P</text>
	</g>
	<g>
		<circle class="st7" cx="429.74026" cy="36.26743" r="8.07497"/>
		<text transform="matrix(1 0 0 1 424.45099 40.96939)" class="st8 st9 st10">Q</text>
	</g>
	<g>
		<circle class="st7" cx="429.74026" cy="54.83928" r="8.07497"/>
		<text transform="matrix(1 0 0 1 424.82941 59.54124)" class="st8 st9 st10">R</text>
	</g>
	<g>
		<circle class="st7" cx="429.74026" cy="73.41113" r="8.07497"/>
		<text transform="matrix(1 0 0 1 425.20441 78.11308)" class="st8 st9 st10">S</text>
	</g>
	<g>
		<circle class="st7" cx="429.74026" cy="91.98339" r="8.07497"/>
		<text transform="matrix(1 0 0 1 425.70929 96.68536)" class="st8 st9 st10">T</text>
	</g>
	<g>
		<circle class="st7" cx="527.70679" cy="36.26743" r="8.07497"/>
		<text transform="matrix(1 0 0 1 522.7959 40.96939)" class="st8 st9 st10">U</text>
	</g>
	<g>
		<circle class="st7" cx="527.70679" cy="54.83928" r="8.07497"/>
		<text transform="matrix(1 0 0 1 523.1709 59.54124)" class="st8 st9 st10">V</text>
	</g>
	<g>
		<circle class="st7" cx="527.70679" cy="73.41113" r="8.07497"/>
		<text transform="matrix(1 0 0 1 521.28857 78.11308)" class="st8 st9 st10">W</text>
	</g>
	<g>
		<circle class="st7" cx="527.70679" cy="91.98339" r="8.07497"/>
		<text transform="matrix(1 0 0 1 523.1709 96.68536)" class="st8 st9 st10">X</text>
	</g>
</g>
</svg>
