<?xml version="1.0" encoding="UTF-8"?>
<svg xmlns="http://www.w3.org/2000/svg"
 id="Layer_1"
     data-name="Layer 1"
     width="180.6693mm"
     height="90.2138mm"
     viewBox="0 0 512.1335 255.7243">
   <defs>
      <style>
      .cls-1 {
        fill: none;
      }

      .cls-1, .cls-4, .cls-5 {
        stroke: #000;
        stroke-linecap: round;
        stroke-linejoin: round;
        stroke-width: 0.3978px;
      }

      .cls-2 {
        font-size: 6.2537px;
      }

      .cls-2, .cls-3 {
        font-family: ArialMT, Arial;
      }

      .cls-3 {
        font-size: 12.0345px;
      }

      .cls-4 {
        fill: #01889C;
      }

      .cls-5 {
        fill: #FFBF01;
      }
    </style>
   </defs>
   <g id="LINE">
      <line class="cls-1"
            x1="195.8085"
            y1="217.3653"
            x2="195.8085"
            y2="228.3008"/>
   </g>
   <g id="LINE-2" data-name="LINE">
      <line class="cls-1"
            x1="195.8085"
            y1="123.0229"
            x2="195.8085"
            y2="206.998"/>
   </g>
   <g id="LINE-3" data-name="LINE">
      <line class="cls-1"
            x1="143.9721"
            y1="190.4103"
            x2="143.9721"
            y2="193.5639"/>
   </g>
   <g id="LINE-4" data-name="LINE">
      <line class="cls-1"
            x1="143.9721"
            y1="100.8655"
            x2="143.9721"
            y2="180.043"/>
   </g>
   <g id="LINE-5" data-name="LINE">
      <line class="cls-1"
            x1="23.7115"
            y1="176.8462"
            x2="23.7115"
            y2="180.043"/>
   </g>
   <g id="LINE-6" data-name="LINE">
      <line class="cls-1"
            x1="23.7115"
            y1="190.4103"
            x2="23.7115"
            y2="193.5639"/>
   </g>
   <g id="LINE-7" data-name="LINE">
      <line class="cls-1"
            x1="23.7115"
            y1="60.7229"
            x2="23.7115"
            y2="62.4247"/>
   </g>
   <g id="LINE-8" data-name="LINE">
      <line class="cls-1"
            x1="23.7115"
            y1="49.1706"
            x2="23.7115"
            y2="50.7884"/>
   </g>
   <g id="LWPOLYLINE">
      <polygon class="cls-1"
               points="16.454 1.726 30.969 1.726 23.711 13.13 16.454 1.726"/>
   </g>
   <g id="LWPOLYLINE-2" data-name="LWPOLYLINE">
      <polygon class="cls-1"
               points="136.715 1.726 151.229 1.726 143.972 13.13 136.715 1.726"/>
   </g>
   <g id="LWPOLYLINE-3" data-name="LWPOLYLINE">
      <polygon class="cls-1"
               points="29.673 113.796 29.673 128.31 41.077 121.053 29.673 113.796"/>
   </g>
   <g id="LWPOLYLINE-4" data-name="LWPOLYLINE">
      <polygon class="cls-1"
               points="52.999 113.692 52.999 128.207 41.595 120.949 52.999 113.692"/>
   </g>
   <g id="LWPOLYLINE-5" data-name="LWPOLYLINE">
      <polygon class="cls-1"
               points="247.645 233.953 247.645 248.467 259.049 241.21 247.645 233.953"/>
   </g>
   <g id="LWPOLYLINE-6" data-name="LWPOLYLINE">
      <polygon class="cls-1"
               points="188.551 229.806 203.066 229.806 195.809 241.21 188.551 229.806"/>
   </g>
   <g id="LINE-9" data-name="LINE">
      <line class="cls-1"
            x1="23.7115"
            y1="13.3723"
            x2="23.7115"
            y2="18.7783"/>
   </g>
   <g id="LINE-10" data-name="LINE">
      <line class="cls-1"
            x1="23.7115"
            y1="105.1701"
            x2="23.7115"
            y2="133.6003"/>
   </g>
   <g id="LINE-11" data-name="LINE">
      <line class="cls-1"
            x1="23.7115"
            y1="228.3008"
            x2="23.7115"
            y2="241.2101"/>
   </g>
   <g id="LINE-12" data-name="LINE">
      <line class="cls-1"
            x1="23.7115"
            y1="241.2101"
            x2="212.9211"
            y2="241.2101"/>
   </g>
   <g id="LINE-13" data-name="LINE">
      <line class="cls-1"
            x1="242.993"
            y1="241.2101"
            x2="246.9972"
            y2="241.2101"/>
   </g>
   <g id="LINE-14" data-name="LINE">
      <line class="cls-1"
            x1="143.9721"
            y1="13.3723"
            x2="143.9721"
            y2="18.3779"/>
   </g>
   <g id="LINE-15" data-name="LINE">
      <line class="cls-1"
            x1="143.9721"
            y1="49.1105"
            x2="143.9721"
            y2="70.4332"/>
   </g>
   <g id="LINE-16" data-name="LINE">
      <line class="cls-1"
            x1="143.9721"
            y1="228.8013"
            x2="143.9721"
            y2="240.8141"/>
   </g>
   <g id="LINE-17" data-name="LINE">
      <line class="cls-1"
            x1="24.501"
            y1="120.9495"
            x2="28.7054"
            y2="120.9495"/>
   </g>
   <g id="LINE-18" data-name="LINE">
      <line class="cls-1"
            x1="53.5919"
            y1="120.9495"
            x2="56.2947"
            y2="120.9495"/>
   </g>
   <g id="LINE-19" data-name="LINE">
      <line class="cls-1"
            x1="143.9721"
            y1="123.0229"
            x2="195.8085"
            y2="123.0229"/>
   </g>
   <g id="LINE-20" data-name="LINE">
      <line class="cls-1"
            x1="5.2282"
            y1="103.3546"
            x2="44.2163"
            y2="64.2636"/>
   </g>
   <g id="LINE-21" data-name="LINE">
      <line class="cls-1"
            x1="28.8951"
            y1="84.8713"
            x2="42.3726"
            y2="84.8713"/>
   </g>
   <g id="LINE-22" data-name="LINE">
      <line class="cls-1"
            x1="28.8951"
            y1="86.7374"
            x2="32.5708"
            y2="86.7374"/>
   </g>
   <g id="LINE-23" data-name="LINE">
      <line class="cls-1"
            x1="33.796"
            y1="86.7374"
            x2="37.4717"
            y2="86.7374"/>
   </g>
   <g id="LINE-24" data-name="LINE">
      <line class="cls-1"
            x1="38.6969"
            y1="86.7374"
            x2="42.3726"
            y2="86.7374"/>
   </g>
   <g id="ELLIPSE">
      <path class="cls-1" d="M11.53,69.8387a3.5062,3.5062,0,0,0-3.3693,3.6286"/>
   </g>
   <g id="ELLIPSE-2" data-name="ELLIPSE">
      <path class="cls-1" d="M14.8993,73.4673A3.5062,3.5062,0,0,0,11.53,69.8387"/>
   </g>
   <g id="ELLIPSE-3" data-name="ELLIPSE">
      <path class="cls-1" d="M14.8993,73.4673a3.5061,3.5061,0,0,0,3.3694,3.6285"/>
   </g>
   <g id="ELLIPSE-4" data-name="ELLIPSE">
      <path class="cls-1" d="M18.2687,77.0958a3.5061,3.5061,0,0,0,3.3693-3.6285"/>
   </g>
   <g id="LWPOLYLINE-7" data-name="LWPOLYLINE">
      <rect class="cls-1"
            x="4.0136"
            y="63.1"
            width="41.4692"
            height="41.4692"
            rx="4.1469"/>
   </g>
   <g id="CIRCLE">
      <path class="cls-1"
            d="M133.6048,81.5538a10.3673,10.3673,0,1,1,10.3673,10.3673,10.3673,10.3673,0,0,1-10.3673-10.3673Z"/>
   </g>
   <g id="CIRCLE-2" data-name="CIRCLE">
      <path class="cls-1"
            d="M133.6048,89.8476a10.3673,10.3673,0,1,1,10.3673,10.3673,10.3673,10.3673,0,0,1-10.3673-10.3673Z"/>
   </g>
   <g id="CIRCLE-3" data-name="CIRCLE">
      <path class="cls-1"
            d="M133.6048,81.5538a10.3673,10.3673,0,1,1,10.3673,10.3673,10.3673,10.3673,0,0,1-10.3673-10.3673Z"/>
   </g>
   <g id="LINE-25" data-name="LINE">
      <line class="cls-1"
            x1="119.0906"
            y1="110.5822"
            x2="119.0906"
            y2="131.3168"/>
   </g>
   <g id="LINE-26" data-name="LINE">
      <line class="cls-1"
            x1="113.9069"
            y1="115.9732"
            x2="113.9069"
            y2="127.1699"/>
   </g>
   <g id="LWPOLYLINE-8" data-name="LWPOLYLINE">
      <rect class="cls-1"
            x="93.1723"
            y="104.3618"
            width="33.1753"
            height="33.1753"
            rx="4.1469"/>
   </g>
   <g id="LINE-27" data-name="LINE">
      <line class="cls-1"
            x1="6.265"
            y1="174.6815"
            x2="45.253"
            y2="135.5906"/>
   </g>
   <g id="LINE-28" data-name="LINE">
      <line class="cls-1"
            x1="11.2707"
            y1="141.6841"
            x2="24.7482"
            y2="141.6841"/>
   </g>
   <g id="LINE-29" data-name="LINE">
      <line class="cls-1"
            x1="11.2707"
            y1="143.5502"
            x2="14.9464"
            y2="143.5502"/>
   </g>
   <g id="LINE-30" data-name="LINE">
      <line class="cls-1"
            x1="16.1716"
            y1="143.5502"
            x2="19.8473"
            y2="143.5502"/>
   </g>
   <g id="LINE-31" data-name="LINE">
      <line class="cls-1"
            x1="21.0725"
            y1="143.5502"
            x2="24.7482"
            y2="143.5502"/>
   </g>
   <g id="ELLIPSE-5" data-name="ELLIPSE">
      <path class="cls-1" d="M32.7829,153.0881a3.5061,3.5061,0,0,0-3.3694,3.6285"/>
   </g>
   <g id="ELLIPSE-6" data-name="ELLIPSE">
      <path class="cls-1" d="M36.1522,156.7166a3.5061,3.5061,0,0,0-3.3693-3.6285"/>
   </g>
   <g id="ELLIPSE-7" data-name="ELLIPSE">
      <path class="cls-1" d="M36.1522,156.7166a3.5063,3.5063,0,0,0,3.3694,3.6286"/>
   </g>
   <g id="ELLIPSE-8" data-name="ELLIPSE">
      <path class="cls-1" d="M39.5216,160.3452a3.5062,3.5062,0,0,0,3.3694-3.6286"/>
   </g>
   <g id="LWPOLYLINE-9" data-name="LWPOLYLINE">
      <rect class="cls-1"
            x="5.0504"
            y="134.427"
            width="41.4692"
            height="41.4692"
            rx="4.1469"/>
   </g>
   <g id="LINE-32" data-name="LINE">
      <line class="cls-1"
            x1="18.5278"
            y1="206.998"
            x2="10.234"
            y2="206.998"/>
   </g>
   <g id="LINE-33" data-name="LINE">
      <line class="cls-1"
            x1="18.5278"
            y1="209.0714"
            x2="15.4177"
            y2="209.0714"/>
   </g>
   <g id="LINE-34" data-name="LINE">
      <line class="cls-1"
            x1="29.3098"
            y1="215.2918"
            x2="37.6037"
            y2="215.2918"/>
   </g>
   <g id="LINE-35" data-name="LINE">
      <line class="cls-1"
            x1="29.3098"
            y1="213.2184"
            x2="32.42"
            y2="213.2184"/>
   </g>
   <g id="LWPOLYLINE-10" data-name="LWPOLYLINE">
      <rect class="cls-1"
            x="7.1238"
            y="194.5572"
            width="33.1753"
            height="33.1753"
            rx="4.1469"/>
   </g>
   <g id="LWPOLYLINE-11" data-name="LWPOLYLINE">
      <rect class="cls-1"
            x="14.3809"
            y="201.607"
            width="19.0758"
            height="18.8685"
            rx="3.1102"/>
   </g>
   <g id="LWPOLYLINE-12" data-name="LWPOLYLINE">
      <polygon class="cls-1"
               points="18.528 215.292 10.234 215.292 14.381 206.998 18.528 215.292"/>
   </g>
   <g id="LWPOLYLINE-13" data-name="LWPOLYLINE">
      <polygon class="cls-1"
               points="29.31 206.998 37.604 206.998 33.457 215.292 29.31 206.998"/>
   </g>
   <g id="LINE-36" data-name="LINE">
      <line class="cls-1"
            x1="138.7884"
            y1="206.998"
            x2="130.4946"
            y2="206.998"/>
   </g>
   <g id="LINE-37" data-name="LINE">
      <line class="cls-1"
            x1="138.7884"
            y1="209.0714"
            x2="135.6782"
            y2="209.0714"/>
   </g>
   <g id="LINE-38" data-name="LINE">
      <line class="cls-1"
            x1="149.5704"
            y1="215.2918"
            x2="157.8642"
            y2="215.2918"/>
   </g>
   <g id="LINE-39" data-name="LINE">
      <line class="cls-1"
            x1="149.5704"
            y1="213.2184"
            x2="152.6806"
            y2="213.2184"/>
   </g>
   <g id="LWPOLYLINE-14" data-name="LWPOLYLINE">
      <rect class="cls-1"
            x="127.3844"
            y="194.5572"
            width="33.1753"
            height="33.1753"
            rx="4.1469"/>
   </g>
   <g id="LWPOLYLINE-15" data-name="LWPOLYLINE">
      <rect class="cls-1"
            x="134.6415"
            y="201.607"
            width="19.0758"
            height="18.8685"
            rx="3.1102"/>
   </g>
   <g id="LWPOLYLINE-16" data-name="LWPOLYLINE">
      <polygon class="cls-1"
               points="138.788 215.292 130.495 215.292 134.642 206.998 138.788 215.292"/>
   </g>
   <g id="LWPOLYLINE-17" data-name="LWPOLYLINE">
      <polygon class="cls-1"
               points="149.57 206.998 157.864 206.998 153.717 215.292 149.57 206.998"/>
   </g>
   <g id="LINE-40" data-name="LINE">
      <line class="cls-1"
            x1="132.4213"
            y1="101.2516"
            x2="159.5486"
            y2="65.6726"/>
   </g>
   <g id="LWPOLYLINE-18" data-name="LWPOLYLINE">
      <polyline class="cls-1" points="151.162 69.36 159.67 65.673 157.515 74.692"/>
   </g>
   <g id="LWPOLYLINE-19" data-name="LWPOLYLINE">
      <rect class="cls-1"
            x="9.1973"
            y="19.35"
            width="29.0284"
            height="29.0284"
            rx="4.1469"/>
   </g>
   <g id="LWPOLYLINE-20" data-name="LWPOLYLINE">
      <rect class="cls-1"
            x="129.4579"
            y="18.9496"
            width="29.0284"
            height="29.0284"
            rx="4.1469"/>
   </g>
   <g id="LINE-41" data-name="LINE">
      <line class="cls-1"
            x1="86.5669"
            y1="120.9495"
            x2="92.5332"
            y2="120.9495"/>
   </g>
   <g id="LWPOLYLINE-21" data-name="LWPOLYLINE">
      <rect class="cls-1"
            x="56.8868"
            y="107.472"
            width="29.0284"
            height="29.0284"
            rx="4.1469"/>
   </g>
   <g id="LWPOLYLINE-22" data-name="LWPOLYLINE">
      <rect class="cls-1"
            x="213.4329"
            y="226.6958"
            width="29.0284"
            height="29.0284"
            rx="4.1469"/>
   </g>
   <g id="TEXT">
      <text class="cls-2" transform="translate(230.4046 236.8249)">ON</text>
   </g>
   <g id="TEXT-2" data-name="TEXT">
      <text class="cls-2" transform="translate(227.3148 252.8415)">OFF</text>
   </g>
   <g id="TEXT-3" data-name="TEXT">
      <text class="cls-3" transform="translate(42.4349 216.0412)">EA</text>
   </g>
   <g id="TEXT-4" data-name="TEXT">
      <text class="cls-3" transform="translate(162.3675 216.0412)">EN</text>
   </g>
   <g id="TEXT-5" data-name="TEXT">
      <text class="cls-2" transform="translate(24.1156 44.4591)">OFF</text>
   </g>
   <g id="TEXT-6" data-name="TEXT">
      <text class="cls-2" transform="translate(27.2064 28.4425)">ON</text>
   </g>
   <g id="TEXT-7" data-name="TEXT">
      <text class="cls-2" transform="translate(144.3753 44.0583)">OFF</text>
   </g>
   <g id="TEXT-8" data-name="TEXT">
      <text class="cls-2" transform="translate(147.4661 28.0417)">ON</text>
   </g>
   <g id="TEXT-9" data-name="TEXT">
      <text class="cls-2" transform="translate(74.8958 116.5646)">ON</text>
   </g>
   <g id="TEXT-10" data-name="TEXT">
      <text class="cls-2" transform="translate(71.805 132.5812)">OFF</text>
   </g>
   <g id="CIRCLE-4" data-name="CIRCLE">
      <path class="cls-4"
            d="M216.5431,236.0264a4.1469,4.1469,0,1,1,4.1469,4.1469,4.1469,4.1469,0,0,1-4.1469-4.1469Z"/>
   </g>
   <g id="CIRCLE-5" data-name="CIRCLE">
      <path class="cls-1"
            d="M216.5431,246.3937a4.1469,4.1469,0,1,1,4.1469,4.1469,4.1469,4.1469,0,0,1-4.1469-4.1469Z"/>
   </g>
   <g id="CIRCLE-6" data-name="CIRCLE">
      <path class="cls-4"
            d="M139.8251,185.2267a4.147,4.147,0,1,1,4.147,4.1469,4.1469,4.1469,0,0,1-4.147-4.1469Z"/>
   </g>
   <g id="CIRCLE-7" data-name="CIRCLE">
      <path class="cls-4"
            d="M19.5646,55.972a4.1469,4.1469,0,1,1,4.1469,4.1469,4.1469,4.1469,0,0,1-4.1469-4.1469Z"/>
   </g>
   <g id="CIRCLE-8" data-name="CIRCLE">
      <path class="cls-1"
            d="M18.5278,55.972a5.1837,5.1837,0,1,1,5.1837,5.1836,5.1837,5.1837,0,0,1-5.1837-5.1836Z"/>
   </g>
   <g id="CIRCLE-9" data-name="CIRCLE">
      <path class="cls-1"
            d="M18.5278,185.2267a5.1837,5.1837,0,1,1,5.1837,5.1836,5.1837,5.1837,0,0,1-5.1837-5.1836Z"/>
   </g>
   <g id="CIRCLE-10" data-name="CIRCLE">
      <path class="cls-4"
            d="M19.5646,185.2267a4.1469,4.1469,0,1,1,4.1469,4.1469,4.1469,4.1469,0,0,1-4.1469-4.1469Z"/>
   </g>
   <g id="CIRCLE-11" data-name="CIRCLE">
      <path class="cls-1"
            d="M138.7884,185.2267a5.1837,5.1837,0,1,1,5.1837,5.1836,5.1837,5.1837,0,0,1-5.1837-5.1836Z"/>
   </g>
   <g id="CIRCLE-12" data-name="CIRCLE">
      <path class="cls-1"
            d="M190.6249,212.1816a5.1837,5.1837,0,1,1,5.1836,5.1837,5.1836,5.1836,0,0,1-5.1836-5.1837Z"/>
   </g>
   <g id="CIRCLE-13" data-name="CIRCLE">
      <path class="cls-1"
            d="M191.6616,212.1816a4.1469,4.1469,0,1,1,4.1469,4.147,4.1469,4.1469,0,0,1-4.1469-4.147Z"/>
   </g>
   <g id="CIRCLE-14" data-name="CIRCLE">
      <path class="cls-4"
            d="M19.5646,97.1047a4.1469,4.1469,0,1,1,4.1469,4.1469,4.1469,4.1469,0,0,1-4.1469-4.1469Z"/>
   </g>
   <g id="CIRCLE-15" data-name="CIRCLE">
      <path class="cls-1"
            d="M33.0421,97.1047a4.1469,4.1469,0,1,1,4.1469,4.1469,4.1469,4.1469,0,0,1-4.1469-4.1469Z"/>
   </g>
   <g id="CIRCLE-16" data-name="CIRCLE">
      <path class="cls-1"
            d="M100.4294,121.9862a4.147,4.147,0,1,1,4.147,4.1469,4.1469,4.1469,0,0,1-4.147-4.1469Z"/>
   </g>
   <g id="CIRCLE-17" data-name="CIRCLE">
      <path class="cls-4"
            d="M19.5646,168.639a4.1469,4.1469,0,1,1,4.1469,4.1469,4.1469,4.1469,0,0,1-4.1469-4.1469Z"/>
   </g>
   <g id="CIRCLE-18" data-name="CIRCLE">
      <path class="cls-5"
            d="M33.0421,168.639a4.1469,4.1469,0,1,1,4.1469,4.1469,4.1469,4.1469,0,0,1-4.1469-4.1469Z"/>
   </g>
   <g id="CIRCLE-19" data-name="CIRCLE">
      <path class="cls-4"
            d="M19.5646,212.1816a4.1469,4.1469,0,1,1,4.1469,4.147,4.1469,4.1469,0,0,1-4.1469-4.147Z"/>
   </g>
   <g id="CIRCLE-20" data-name="CIRCLE">
      <path class="cls-1"
            d="M139.8251,212.1816a4.147,4.147,0,1,1,4.147,4.147,4.147,4.147,0,0,1-4.147-4.147Z"/>
   </g>
   <g id="CIRCLE-21" data-name="CIRCLE">
      <path class="cls-4"
            d="M12.9827,27.6723A4.1469,4.1469,0,1,1,17.13,31.8192a4.1469,4.1469,0,0,1-4.1469-4.1469Z"/>
   </g>
   <g id="CIRCLE-22" data-name="CIRCLE">
      <path class="cls-1"
            d="M12.9827,38.04A4.1469,4.1469,0,1,1,17.13,42.1865,4.1469,4.1469,0,0,1,12.9827,38.04Z"/>
   </g>
   <g id="CIRCLE-23" data-name="CIRCLE">
      <path class="cls-4"
            d="M133.2433,27.2719a4.1469,4.1469,0,1,1,4.1469,4.1469,4.1469,4.1469,0,0,1-4.1469-4.1469Z"/>
   </g>
   <g id="CIRCLE-24" data-name="CIRCLE">
      <path class="cls-1"
            d="M133.2433,37.6391a4.1469,4.1469,0,1,1,4.1469,4.147,4.1469,4.1469,0,0,1-4.1469-4.147Z"/>
   </g>
   <g id="CIRCLE-25" data-name="CIRCLE">
      <path class="cls-4"
            d="M61.0337,115.7658a4.147,4.147,0,1,1,4.147,4.1469,4.147,4.147,0,0,1-4.147-4.1469Z"/>
   </g>
   <g id="CIRCLE-26" data-name="CIRCLE">
      <path class="cls-1"
            d="M61.0337,126.1331a4.147,4.147,0,1,1,4.147,4.1469,4.1469,4.1469,0,0,1-4.147-4.1469Z"/>
   </g>
</svg>
