<?xml version="1.0" encoding="UTF-8"?>
<svg xmlns="http://www.w3.org/2000/svg"
 id="Layer_7"
     data-name="Layer 7"
     width="89.0076mm"
     height="21.5mm"
     viewBox="0 0 252.3051 60.9449">
   <defs>
      <style>
      .cls-1 {
        stroke: #231f20;
      }

      .cls-1, .cls-2, .cls-3 {
        fill: none;
      }

      .cls-1, .cls-3 {
        stroke-width: .5px;
      }

      .cls-2 {
        stroke: #fff;
      }

      .cls-2, .cls-4, .cls-3 {
        stroke-linecap: round;
      }

      .cls-4 {
        stroke-width: .106px;
      }

      .cls-4, .cls-3 {
        stroke: #000;
      }

      .cls-5 {
        font-size: 20px;
      }

      .cls-5, .cls-6 {
        font-family: ArialMT, Arial;
      }

      .cls-6 {
        fill: #fff;
        font-size: 16px;
        isolation: isolate;
      }
    </style>
   </defs>
   <g id="ATTRIB">
      <text class="cls-5" transform="translate(1.747 16.6904)">
         <tspan x="0" y="0">GUMDAC-2.12 24/230/N+N</tspan>
      </text>
   </g>
   <g>
      <line class="cls-2"
            x1="150.1633"
            y1="20.9005"
            x2="150.1633"
            y2="50.045"/>
      <line class="cls-3"
            x1="150.1633"
            y1="50.045"
            x2="150.1633"
            y2="28.9493"/>
      <circle class="cls-4" cx="150.1633" cy="50.045" r="9.5"/>
      <text class="cls-6" transform="translate(143.5001 55.5768)">
         <tspan x="0" y="0">M</tspan>
      </text>
   </g>
   <g>
      <line class="cls-2"
            x1="24.3838"
            y1="28.439"
            x2="24.3838"
            y2="49.5347"/>
      <line class="cls-3"
            x1="24.3838"
            y1="49.5347"
            x2="24.3838"
            y2="28.439"/>
      <circle class="cls-4" cx="24.3838" cy="49.5347" r="9.5"/>
      <text class="cls-6" transform="translate(20.3849 55.0666)">
         <tspan x="0" y="0">J</tspan>
      </text>
   </g>
   <g>
      <line class="cls-2"
            x1="115.2432"
            y1="28.439"
            x2="115.2432"
            y2="49.5347"/>
      <line class="cls-3"
            x1="115.2432"
            y1="49.5347"
            x2="115.2432"
            y2="28.439"/>
      <circle class="cls-4" cx="115.2432" cy="49.5347" r="9.5"/>
      <text class="cls-6" transform="translate(110.7948 55.0666)">
         <tspan x="0" y="0">L</tspan>
      </text>
   </g>
   <polyline class="cls-1"
             points="45.5416 20.3902 45.5416 28.439 3.226 28.439 3.226 20.3902"/>
   <g>
      <line class="cls-2"
            x1="67.9143"
            y1="28.439"
            x2="67.9143"
            y2="49.5347"/>
      <line class="cls-3"
            x1="67.9143"
            y1="49.5347"
            x2="67.9143"
            y2="28.439"/>
      <circle class="cls-4" cx="67.9143" cy="49.5347" r="9.5"/>
      <text class="cls-6" transform="translate(62.5793 55.0666)">
         <tspan x="0" y="0">K</tspan>
      </text>
   </g>
   <polyline class="cls-1"
             points="87.8266 20.3902 87.8266 28.439 48.0021 28.439 48.0021 20.3902"/>
   <polyline class="cls-1"
             points="133.9377 20.3902 133.9377 28.439 96.5488 28.439 96.5488 20.3902"/>
   <g>
      <line class="cls-2"
            x1="185.0184"
            y1="28.8229"
            x2="185.0184"
            y2="49.9186"/>
      <line class="cls-3"
            x1="185.0184"
            y1="49.9186"
            x2="185.0184"
            y2="28.8229"/>
      <circle class="cls-4" cx="185.0184" cy="49.9186" r="9.5"/>
      <text class="cls-6" transform="translate(179.2418 55.4505)">
         <tspan x="0" y="0">N</tspan>
      </text>
   </g>
   <polyline class="cls-1"
             points="160.86 20.5378 160.86 28.5866 139.4666 28.5866 139.4666 20.5378"/>
   <g>
      <line class="cls-2"
            x1="227.3083"
            y1="29.4861"
            x2="227.3083"
            y2="50.5818"/>
      <line class="cls-3"
            x1="227.3083"
            y1="50.5818"
            x2="227.3083"
            y2="29.4861"/>
      <circle class="cls-4" cx="227.3083" cy="50.5818" r="9.5"/>
      <text class="cls-6" transform="translate(221.0858 56.1139)">
         <tspan x="0" y="0">O</tspan>
      </text>
   </g>
   <polyline class="cls-1"
             points="200.5153 20.5378 200.5153 28.5866 169.5216 28.5866 169.5216 20.5378"/>
   <polyline class="cls-1"
             points="249.1518 20.5378 249.1518 28.5866 208.7563 28.5866 208.7563 20.5378"/>
</svg>
