<?xml version="1.0" encoding="UTF-8"?>
<svg xmlns="http://www.w3.org/2000/svg"
     xmlns:xlink="http://www.w3.org/1999/xlink"
 id="Parts"
     width="11.332mm"
     height="6.2808mm"
     viewBox="0 0 32.1221 17.8038">
   <defs>
      <style>
      .cls-1 {
        fill: none;
      }

      .cls-1, .cls-2, .cls-3 {
        stroke-width: 0px;
      }

      .cls-2 {
        fill: #01889c;
      }

      .cls-4 {
        clip-path: url(#clippath-1);
      }

      .cls-3 {
        fill: #fff;
      }

      .cls-5 {
        clip-path: url(#clippath);
      }
    </style>
      <clipPath id="clippath">
         <rect class="cls-1" x="0" y="0" width="32.1221" height="17.8038"/>
      </clipPath>
      <clipPath id="clippath-1">
         <rect class="cls-1"
               x="0"
               y="-.0002"
               width="32.122"
               height="17.804"/>
      </clipPath>
   </defs>
   <g id="Artwork_24" data-name="Artwork 24">
      <g class="cls-5">
         <g class="cls-4">
            <path class="cls-3"
                  d="m28.0693,7.8697H3.9013c-.276,0-.501.223-.501.5v9.072c0,.278.225.5.501.5h24.168c.276,0,.501-.222.501-.5v-9.072c0-.277-.225-.5-.501-.5"/>
            <path class="cls-2"
                  d="m28.0801,14.9204c-.263,0-.529-.051-.787-.162L2.1331,3.9794c-1.015-.434-1.486-1.61-1.051-2.625C1.5171.3364,2.6881-.1386,3.7091.3034l25.16,10.779c1.015.434,1.485,1.609,1.051,2.625-.325.76-1.064,1.213-1.84,1.213"/>
            <path class="cls-3"
                  d="m3.9014,9.9008c-1.599,0-2.899,1.301-2.899,2.9,0,1.6,1.3,2.901,2.899,2.901s2.899-1.301,2.899-2.901c0-1.599-1.3-2.9-2.899-2.9"/>
            <path class="cls-2"
                  d="m3.9014,8.9006C1.7504,8.9006.0004,10.6506.0004,12.8016s1.75,3.9,3.901,3.9,3.901-1.75,3.901-3.9-1.75-3.901-3.901-3.901m0,6.801c-1.599,0-2.899-1.301-2.899-2.9,0-1.6,1.3-2.901,2.899-2.901s2.899,1.301,2.899,2.901c0,1.599-1.3,2.9-2.899,2.9"/>
            <path class="cls-3"
                  d="m28.2217,9.9008c-1.609,0-2.919,1.301-2.919,2.9,0,1.6,1.31,2.901,2.919,2.901,1.599,0,2.898-1.301,2.898-2.901,0-1.599-1.299-2.9-2.898-2.9"/>
            <path class="cls-2"
                  d="m28.2217,8.9006c-2.162,0-3.921,1.75-3.921,3.901s1.759,3.9,3.921,3.9c2.15,0,3.9-1.75,3.9-3.9s-1.75-3.901-3.9-3.901m0,6.801c-1.609,0-2.919-1.301-2.919-2.9,0-1.6,1.31-2.901,2.919-2.901,1.599,0,2.898,1.301,2.898,2.901,0,1.599-1.299,2.9-2.898,2.9"/>
         </g>
      </g>
   </g>
</svg>
