<?xml version="1.0" encoding="UTF-8"?>
<svg xmlns="http://www.w3.org/2000/svg"
 id="Layer_7"
     data-name="Layer 7"
     width="99.9545mm"
     height="21.5mm"
     viewBox="0 0 283.3356 60.9449">
   <defs>
      <style>
      .cls-1 {
        font-size: 20px;
      }

      .cls-1, .cls-2, .cls-3, .cls-4 {
        font-family: ArialMT, Arial;
      }

      .cls-1, .cls-5 {
        fill: #000;
      }

      .cls-6, .cls-5 {
        stroke: #000;
      }

      .cls-6, .cls-5, .cls-7 {
        stroke-linecap: round;
      }

      .cls-6, .cls-7, .cls-8, .cls-9 {
        fill: none;
      }

      .cls-6, .cls-9 {
        stroke-width: .5px;
      }

      .cls-2 {
        font-size: 16px;
      }

      .cls-2, .cls-3, .cls-4 {
        fill: #fff;
        isolation: isolate;
      }

      .cls-5 {
        stroke-width: .106px;
      }

      .cls-7 {
        stroke: #fff;
      }

      .cls-3 {
        font-size: 16.2916px;
      }

      .cls-8 {
        stroke-width: .5912px;
      }

      .cls-8, .cls-9 {
        stroke: #231f20;
      }

      .cls-4 {
        font-size: 16.3903px;
      }
    </style>
   </defs>
   <g id="ATTRIB">
      <text class="cls-1" transform="translate(.4731 15.1408)">
         <tspan x="0" y="0">GUMDDC-2.5 110/24-100/2N+1</tspan>
      </text>
   </g>
   <g>
      <line class="cls-7"
            x1="149.1591"
            y1="21.7669"
            x2="149.1591"
            y2="50.9114"/>
      <line class="cls-6"
            x1="149.1591"
            y1="50.9114"
            x2="149.1591"
            y2="29.8157"/>
      <circle class="cls-5" cx="149.1591" cy="50.9114" r="9.5"/>
      <text class="cls-2" transform="translate(142.4951 56.4435)">
         <tspan x="0" y="0">M</tspan>
      </text>
   </g>
   <g>
      <line class="cls-7"
            x1="24.1712"
            y1="29.1712"
            x2="24.1712"
            y2="50.7814"/>
      <line class="cls-6"
            x1="24.1712"
            y1="50.7814"
            x2="24.1712"
            y2="29.1712"/>
      <ellipse class="cls-5"
               cx="24.1712"
               cy="50.7814"
               rx="9.5"
               ry="9.7317"/>
      <text class="cls-4" transform="translate(20.1712 56.4491) scale(.9762 1)">
         <tspan x="0" y="0">J</tspan>
      </text>
   </g>
   <g>
      <line class="cls-7"
            x1="110.8582"
            y1="29.7553"
            x2="110.8582"
            y2="50.851"/>
      <line class="cls-6"
            x1="110.8582"
            y1="50.851"
            x2="110.8582"
            y2="29.7553"/>
      <circle class="cls-5" cx="110.8582" cy="50.851" r="9.5"/>
      <text class="cls-2" transform="translate(106.4092 56.3832)">
         <tspan x="0" y="0">L</tspan>
      </text>
   </g>
   <polyline class="cls-9"
             points="45.329 21.1224 45.329 29.1712 3.0135 29.1712 3.0135 21.1224"/>
   <g>
      <line class="cls-7"
            x1="68.9473"
            y1="29.4934"
            x2="68.9473"
            y2="50.9737"/>
      <line class="cls-6"
            x1="68.9473"
            y1="50.9737"
            x2="68.9473"
            y2="29.4934"/>
      <ellipse class="cls-5"
               cx="68.9473"
               cy="50.9737"
               rx="9.5"
               ry="9.6732"/>
      <text class="cls-3" transform="translate(63.6111 56.6068) scale(.9821 1)">
         <tspan x="0" y="0">K</tspan>
      </text>
   </g>
   <polyline class="cls-9"
             points="90.1051 21.1224 90.1051 29.1712 47.7896 29.1712 47.7896 21.1224"/>
   <polyline class="cls-9"
             points="124.0497 21.4447 124.0497 29.4934 97.6668 29.4934 97.6668 21.4447"/>
   <g>
      <line class="cls-7"
            x1="180.8779"
            y1="29.843"
            x2="180.8779"
            y2="50.9387"/>
      <line class="cls-6"
            x1="180.8779"
            y1="50.9387"
            x2="180.8779"
            y2="29.843"/>
      <circle class="cls-5" cx="180.8779" cy="50.9387" r="9.5"/>
      <text class="cls-2" transform="translate(175.1006 56.4708)">
         <tspan x="0" y="0">N</tspan>
      </text>
   </g>
   <polyline class="cls-9"
             points="191.3023 21.7669 191.3023 29.8157 170.4534 29.8157 170.4534 21.7669"/>
   <polyline class="cls-8"
             points="161.507 21.7669 161.507 29.8157 133.8918 29.8157 133.8918 21.7669"/>
   <g>
      <line class="cls-7"
            x1="242.2418"
            y1="21.7669"
            x2="242.2418"
            y2="50.9114"/>
      <line class="cls-6"
            x1="242.2418"
            y1="50.9114"
            x2="242.2418"
            y2="29.8157"/>
      <circle class="cls-5" cx="242.2418" cy="50.9114" r="9.5"/>
      <text class="cls-2" transform="translate(236.906 56.4436)">
         <tspan x="0" y="0">P</tspan>
      </text>
   </g>
   <polyline class="cls-8"
             points="247.6564 21.7669 247.6564 29.8157 236.8272 29.8157 236.8272 21.7669"/>
   <g>
      <line class="cls-7"
            x1="217.228"
            y1="30.0735"
            x2="217.228"
            y2="51.1692"/>
      <line class="cls-6"
            x1="217.228"
            y1="51.1692"
            x2="217.228"
            y2="30.0735"/>
      <circle class="cls-5" cx="217.228" cy="51.1692" r="9.5"/>
      <text class="cls-2" transform="translate(211.0051 56.7016)">
         <tspan x="0" y="0">O</tspan>
      </text>
   </g>
   <polyline class="cls-9"
             points="230.6604 21.8299 230.6604 29.8787 202.8388 29.8787 202.8388 21.8299"/>
   <g>
      <line class="cls-7"
            x1="267.7618"
            y1="29.8157"
            x2="267.7618"
            y2="50.9114"/>
      <line class="cls-6"
            x1="267.7618"
            y1="50.9114"
            x2="267.7618"
            y2="29.8157"/>
      <circle class="cls-5" cx="267.7618" cy="50.9114" r="9.5"/>
      <text class="cls-2" transform="translate(261.5391 56.4438)">
         <tspan x="0" y="0">Q</tspan>
      </text>
   </g>
   <polyline class="cls-9"
             points="281.8219 21.7669 281.8219 29.8157 251.4946 29.8157 251.4946 21.7669"/>
</svg>
