<?xml version="1.0" encoding="UTF-8"?>
<svg xmlns="http://www.w3.org/2000/svg"
     xmlns:xlink="http://www.w3.org/1999/xlink"
     width="151mm"
     height="70mm"
     viewBox="0 0 428.0315 198.4252">
   <defs>
      <style>
      .cls-1 {
        clip-path: url(#clippath-73);
      }

      .cls-2 {
        clip-path: url(#clippath-72);
      }

      .cls-3 {
        clip-path: url(#clippath-62);
      }

      .cls-4 {
        clip-path: url(#clippath-45);
      }

      .cls-5 {
        clip-path: url(#clippath-63);
      }

      .cls-6 {
        clip-path: url(#clippath-20);
      }

      .cls-7 {
        clip-path: url(#clippath-11);
      }

      .cls-8 {
        clip-path: url(#clippath-16);
      }

      .cls-9 {
        clip-path: url(#clippath-59);
      }

      .cls-10 {
        clip-path: url(#clippath-33);
      }

      .cls-11 {
        clip-path: url(#clippath-64);
      }

      .cls-12 {
        clip-path: url(#clippath-47);
      }

      .cls-13 {
        stroke-linecap: round;
        stroke-width: 4px;
      }

      .cls-13, .cls-14, .cls-15 {
        fill: none;
      }

      .cls-13, .cls-15 {
        stroke: #01889c;
        stroke-miterlimit: 10;
      }

      .cls-16 {
        clip-path: url(#clippath-41);
      }

      .cls-17 {
        clip-path: url(#clippath-32);
      }

      .cls-18 {
        clip-path: url(#clippath-2);
      }

      .cls-19 {
        clip-path: url(#clippath-13);
      }

      .cls-20 {
        clip-path: url(#clippath-37);
      }

      .cls-21 {
        clip-path: url(#clippath-46);
      }

      .cls-22 {
        clip-path: url(#clippath-25);
      }

      .cls-23 {
        clip-path: url(#clippath-15);
      }

      .cls-24 {
        clip-path: url(#clippath-6);
      }

      .cls-25 {
        clip-path: url(#clippath-40);
      }

      .cls-26 {
        clip-path: url(#clippath-26);
      }

      .cls-14, .cls-27, .cls-28, .cls-29, .cls-30 {
        stroke-width: 0px;
      }

      .cls-27 {
        fill: #01889c;
      }

      .cls-31 {
        clip-path: url(#clippath-7);
      }

      .cls-32 {
        clip-path: url(#clippath-21);
      }

      .cls-33 {
        clip-path: url(#clippath-34);
      }

      .cls-34 {
        clip-path: url(#clippath-57);
      }

      .cls-35 {
        clip-path: url(#clippath-1);
      }

      .cls-36 {
        clip-path: url(#clippath-4);
      }

      .cls-37 {
        clip-path: url(#clippath-38);
      }

      .cls-38 {
        clip-path: url(#clippath-36);
      }

      .cls-39 {
        clip-path: url(#clippath-27);
      }

      .cls-40 {
        clip-path: url(#clippath-60);
      }

      .cls-41 {
        clip-path: url(#clippath-44);
      }

      .cls-42 {
        clip-path: url(#clippath-12);
      }

      .cls-28 {
        fill: #fff;
      }

      .cls-15 {
        stroke-dasharray: 0 4;
        stroke-width: .75px;
      }

      .cls-43 {
        clip-path: url(#clippath-24);
      }

      .cls-44 {
        clip-path: url(#clippath-30);
      }

      .cls-45 {
        clip-path: url(#clippath-22);
      }

      .cls-46 {
        clip-path: url(#clippath-9);
      }

      .cls-47 {
        clip-path: url(#clippath-52);
      }

      .cls-48 {
        clip-path: url(#clippath);
      }

      .cls-49 {
        clip-path: url(#clippath-50);
      }

      .cls-50 {
        clip-path: url(#clippath-48);
      }

      .cls-51 {
        clip-path: url(#clippath-61);
      }

      .cls-52 {
        clip-path: url(#clippath-39);
      }

      .cls-53 {
        clip-path: url(#clippath-19);
      }

      .cls-54 {
        clip-path: url(#clippath-31);
      }

      .cls-55 {
        clip-path: url(#clippath-54);
      }

      .cls-56 {
        clip-path: url(#clippath-3);
      }

      .cls-57 {
        clip-path: url(#clippath-43);
      }

      .cls-58 {
        clip-path: url(#clippath-70);
      }

      .cls-59 {
        clip-path: url(#clippath-8);
      }

      .cls-60 {
        clip-path: url(#clippath-55);
      }

      .cls-61 {
        clip-path: url(#clippath-69);
      }

      .cls-62 {
        clip-path: url(#clippath-29);
      }

      .cls-63 {
        clip-path: url(#clippath-18);
      }

      .cls-64 {
        clip-path: url(#clippath-14);
      }

      .cls-65 {
        clip-path: url(#clippath-17);
      }

      .cls-66 {
        clip-path: url(#clippath-5);
      }

      .cls-67 {
        clip-path: url(#clippath-58);
      }

      .cls-29 {
        fill: #eaebed;
      }

      .cls-68 {
        clip-path: url(#clippath-42);
      }

      .cls-69 {
        clip-path: url(#clippath-65);
      }

      .cls-70 {
        clip-path: url(#clippath-10);
      }

      .cls-71 {
        clip-path: url(#clippath-23);
      }

      .cls-72 {
        clip-path: url(#clippath-56);
      }

      .cls-73 {
        clip-path: url(#clippath-53);
      }

      .cls-74 {
        clip-path: url(#clippath-49);
      }

      .cls-75 {
        clip-path: url(#clippath-67);
      }

      .cls-30 {
        fill: #243746;
      }

      .cls-76 {
        clip-path: url(#clippath-51);
      }

      .cls-77 {
        clip-path: url(#clippath-28);
      }

      .cls-78 {
        clip-path: url(#clippath-71);
      }

      .cls-79 {
        clip-path: url(#clippath-68);
      }

      .cls-80 {
        clip-path: url(#clippath-35);
      }

      .cls-81 {
        clip-path: url(#clippath-66);
      }
    </style>
      <clipPath id="clippath">
         <rect class="cls-14"
               x="304.5587"
               y="108.6231"
               width="7.3819"
               height="3.9979"/>
      </clipPath>
      <clipPath id="clippath-1">
         <rect class="cls-14"
               x="323.0134"
               y="108.6231"
               width="7.3819"
               height="3.9979"/>
      </clipPath>
      <clipPath id="clippath-2">
         <rect class="cls-14"
               x="341.4681"
               y="108.6231"
               width="7.3819"
               height="3.9979"/>
      </clipPath>
      <clipPath id="clippath-3">
         <rect class="cls-14"
               x="359.9227"
               y="108.6231"
               width="7.3819"
               height="3.9979"/>
      </clipPath>
      <clipPath id="clippath-4">
         <rect class="cls-14"
               x="378.3774"
               y="108.6231"
               width="7.3819"
               height="3.9979"/>
      </clipPath>
      <clipPath id="clippath-5">
         <rect class="cls-14"
               x="396.8321"
               y="108.6231"
               width="7.3819"
               height="3.9979"/>
      </clipPath>
      <clipPath id="clippath-6">
         <rect class="cls-14"
               x="17.3273"
               y="108.6231"
               width="8.1752"
               height="3.9979"/>
      </clipPath>
      <clipPath id="clippath-7">
         <rect class="cls-14"
               x="37.7653"
               y="108.6231"
               width="8.1752"
               height="3.9979"/>
      </clipPath>
      <clipPath id="clippath-8">
         <rect class="cls-14"
               x="58.2034"
               y="108.6231"
               width="8.1752"
               height="3.9979"/>
      </clipPath>
      <clipPath id="clippath-9">
         <rect class="cls-14"
               x="78.6414"
               y="108.6231"
               width="8.1752"
               height="3.9979"/>
      </clipPath>
      <clipPath id="clippath-10">
         <rect class="cls-14"
               x="99.0794"
               y="108.6231"
               width="8.1752"
               height="3.9979"/>
      </clipPath>
      <clipPath id="clippath-11">
         <rect class="cls-14"
               x="119.5174"
               y="108.6231"
               width="8.1752"
               height="3.9979"/>
      </clipPath>
      <clipPath id="clippath-12">
         <rect class="cls-14"
               x="139.9554"
               y="108.6231"
               width="8.1752"
               height="3.9979"/>
      </clipPath>
      <clipPath id="clippath-13">
         <rect class="cls-14"
               x="245.7711"
               y="60.5035"
               width="7.5822"
               height="3.9979"/>
      </clipPath>
      <clipPath id="clippath-14">
         <rect class="cls-14"
               x="264.7266"
               y="60.5035"
               width="7.5822"
               height="3.9979"/>
      </clipPath>
      <clipPath id="clippath-15">
         <rect class="cls-14"
               x="283.682"
               y="60.5035"
               width="7.5822"
               height="3.9979"/>
      </clipPath>
      <clipPath id="clippath-16">
         <rect class="cls-14"
               x="339.528"
               y="32.2898"
               width="7.5093"
               height="3.9979"/>
      </clipPath>
      <clipPath id="clippath-17">
         <rect class="cls-14"
               x="320.7548"
               y="32.2898"
               width="7.5093"
               height="3.9979"/>
      </clipPath>
      <clipPath id="clippath-18">
         <rect class="cls-14"
               x="301.9815"
               y="32.2898"
               width="7.5093"
               height="3.9979"/>
      </clipPath>
      <clipPath id="clippath-19">
         <rect class="cls-14"
               x="283.2083"
               y="32.2898"
               width="7.5093"
               height="3.9979"/>
      </clipPath>
      <clipPath id="clippath-20">
         <rect class="cls-14"
               x="264.435"
               y="32.2898"
               width="7.5093"
               height="3.9979"/>
      </clipPath>
      <clipPath id="clippath-21">
         <rect class="cls-14"
               x="245.6618"
               y="32.2898"
               width="7.5093"
               height="3.9979"/>
      </clipPath>
      <clipPath id="clippath-22">
         <rect class="cls-14"
               x="17.1692"
               y="8.2476"
               width="8.0698"
               height="3.9979"/>
      </clipPath>
      <clipPath id="clippath-23">
         <rect class="cls-14"
               x="37.3437"
               y="8.2476"
               width="8.0698"
               height="3.9979"/>
      </clipPath>
      <clipPath id="clippath-24">
         <rect class="cls-14"
               x="57.5182"
               y="8.2476"
               width="8.0698"
               height="3.9979"/>
      </clipPath>
      <clipPath id="clippath-25">
         <rect class="cls-14"
               x="77.6927"
               y="8.2476"
               width="8.0698"
               height="3.9979"/>
      </clipPath>
      <clipPath id="clippath-26">
         <rect class="cls-14"
               x="97.8672"
               y="8.2476"
               width="8.0698"
               height="3.9979"/>
      </clipPath>
      <clipPath id="clippath-27">
         <rect class="cls-14"
               x="118.0417"
               y="8.2476"
               width="8.0698"
               height="3.9979"/>
      </clipPath>
      <clipPath id="clippath-28">
         <rect class="cls-14"
               x="138.2162"
               y="8.2476"
               width="8.0698"
               height="3.9979"/>
      </clipPath>
      <clipPath id="clippath-29">
         <rect class="cls-14"
               x="158.3907"
               y="8.2476"
               width="8.0698"
               height="3.9979"/>
      </clipPath>
      <clipPath id="clippath-30">
         <rect class="cls-14"
               x="178.5652"
               y="8.2476"
               width="8.0698"
               height="3.9979"/>
      </clipPath>
      <clipPath id="clippath-31">
         <rect class="cls-14"
               x="198.7397"
               y="8.2476"
               width="8.0698"
               height="3.9979"/>
      </clipPath>
      <clipPath id="clippath-32">
         <rect class="cls-14"
               x="218.9142"
               y="8.2476"
               width="8.0698"
               height="3.9979"/>
      </clipPath>
      <clipPath id="clippath-33">
         <rect class="cls-14"
               x="239.0887"
               y="8.2476"
               width="8.0698"
               height="3.9979"/>
      </clipPath>
      <clipPath id="clippath-34">
         <rect class="cls-14"
               x="259.2632"
               y="8.2476"
               width="8.0698"
               height="3.9979"/>
      </clipPath>
      <clipPath id="clippath-35">
         <rect class="cls-14"
               x="279.4376"
               y="8.2476"
               width="8.0698"
               height="3.9979"/>
      </clipPath>
      <clipPath id="clippath-36">
         <rect class="cls-14"
               x="299.6121"
               y="8.2476"
               width="8.0698"
               height="3.9979"/>
      </clipPath>
      <clipPath id="clippath-37">
         <rect class="cls-14"
               x="319.7866"
               y="8.2476"
               width="8.0698"
               height="3.9979"/>
      </clipPath>
      <clipPath id="clippath-38">
         <rect class="cls-14"
               x="339.9611"
               y="8.2476"
               width="8.0698"
               height="3.9979"/>
      </clipPath>
      <clipPath id="clippath-39">
         <rect class="cls-14"
               x="158.3946"
               y="116.8725"
               width="3.9979"
               height="7.0562"/>
      </clipPath>
      <clipPath id="clippath-40">
         <rect class="cls-14"
               x="158.3946"
               y="134.513"
               width="3.9979"
               height="7.0562"/>
      </clipPath>
      <clipPath id="clippath-41">
         <rect class="cls-14"
               x="158.3946"
               y="152.1535"
               width="3.9979"
               height="7.0562"/>
      </clipPath>
      <clipPath id="clippath-42">
         <rect class="cls-14"
               x="348.7923"
               y="20.0075"
               width="3.9979"
               height="6.0105"/>
      </clipPath>
      <clipPath id="clippath-43">
         <rect class="cls-14"
               x="232.3989"
               y="36.7418"
               width="3.9979"
               height="6.4521"/>
      </clipPath>
      <clipPath id="clippath-44">
         <rect class="cls-14"
               x="232.3989"
               y="52.872"
               width="3.9979"
               height="6.4521"/>
      </clipPath>
      <clipPath id="clippath-45">
         <rect class="cls-14"
               x="300.6386"
               y="64.4504"
               width="3.9979"
               height="7.1236"/>
      </clipPath>
      <clipPath id="clippath-46">
         <rect class="cls-14"
               x="300.6386"
               y="82.2594"
               width="3.9979"
               height="7.1236"/>
      </clipPath>
      <clipPath id="clippath-47">
         <rect class="cls-14"
               x="300.6386"
               y="100.0683"
               width="3.9979"
               height="7.1236"/>
      </clipPath>
      <clipPath id="clippath-48">
         <rect class="cls-14"
               x="2.2417"
               y="6.4665"
               width="12.6899"
               height="7.5603"/>
      </clipPath>
      <clipPath id="clippath-49">
         <rect class="cls-14"
               x="2.2417"
               y="6.4668"
               width="12.69"
               height="7.56"/>
      </clipPath>
      <clipPath id="clippath-50">
         <rect class="cls-14"
               x="2.2417"
               y="106.8419"
               width="12.6899"
               height="7.5603"/>
      </clipPath>
      <clipPath id="clippath-51">
         <rect class="cls-14"
               x="2.2417"
               y="106.8422"
               width="12.69"
               height="7.56"/>
      </clipPath>
      <clipPath id="clippath-52">
         <rect class="cls-14"
               x="413.0999"
               y="106.8419"
               width="12.6899"
               height="7.5603"/>
      </clipPath>
      <clipPath id="clippath-53">
         <rect class="cls-14"
               x="413.0999"
               y="106.8422"
               width="12.69"
               height="7.56"/>
      </clipPath>
      <clipPath id="clippath-54">
         <rect class="cls-14"
               x="341.3055"
               y="60.3781"
               width="13.3529"
               height="24.0916"/>
      </clipPath>
      <clipPath id="clippath-55">
         <rect class="cls-14"
               x="341.3053"
               y="60.3781"
               width="13.353"
               height="24.0915"/>
      </clipPath>
      <clipPath id="clippath-56">
         <rect class="cls-14"
               x="41.1228"
               y="106.2883"
               width="24.0762"
               height="8.6675"/>
      </clipPath>
      <clipPath id="clippath-57">
         <rect class="cls-14"
               x="41.1228"
               y="106.2881"
               width="24.0765"
               height="8.6678"/>
      </clipPath>
      <clipPath id="clippath-58">
         <rect class="cls-14"
               x="314.6762"
               y="106.2883"
               width="24.0762"
               height="8.6675"/>
      </clipPath>
      <clipPath id="clippath-59">
         <rect class="cls-14"
               x="314.6762"
               y="106.2881"
               width="24.0765"
               height="8.6678"/>
      </clipPath>
      <clipPath id="clippath-60">
         <rect class="cls-14"
               x="314.6762"
               y="29.955"
               width="24.0762"
               height="8.6675"/>
      </clipPath>
      <clipPath id="clippath-61">
         <rect class="cls-14"
               x="314.6759"
               y="29.9547"
               width="24.0765"
               height="8.6678"/>
      </clipPath>
      <clipPath id="clippath-62">
         <rect class="cls-14"
               x="156.0597"
               y="122.4651"
               width="8.6675"
               height="24.0762"/>
      </clipPath>
      <clipPath id="clippath-63">
         <rect class="cls-14"
               x="156.0595"
               y="122.4648"
               width="8.6678"
               height="24.0765"/>
      </clipPath>
      <clipPath id="clippath-64">
         <rect class="cls-14"
               x="255.5793"
               y="44.96"
               width="35.0195"
               height="35"/>
      </clipPath>
      <clipPath id="clippath-65">
         <rect class="cls-14"
               x="255.5793"
               y="44.96"
               width="35.02"
               height="35"/>
      </clipPath>
      <clipPath id="clippath-66">
         <rect class="cls-14"
               x="255.5793"
               y="91.7831"
               width="35.0195"
               height="35"/>
      </clipPath>
      <clipPath id="clippath-67">
         <rect class="cls-14"
               x="255.5793"
               y="91.7831"
               width="35.02"
               height="35"/>
      </clipPath>
      <clipPath id="clippath-68">
         <rect class="cls-14"
               x="196.5097"
               y="91.7733"
               width="34.9921"
               height="35.0196"/>
      </clipPath>
      <clipPath id="clippath-69">
         <rect class="cls-14"
               x="196.5097"
               y="91.7729"
               width="34.992"
               height="35.02"/>
      </clipPath>
      <clipPath id="clippath-70">
         <rect class="cls-14"
               x="89.2752"
               y="91.7733"
               width="35.002"
               height="35.0195"/>
      </clipPath>
      <clipPath id="clippath-71">
         <rect class="cls-14"
               x="89.2752"
               y="91.7728"
               width="35.002"
               height="35.02"/>
      </clipPath>
      <clipPath id="clippath-72">
         <rect class="cls-14"
               x="142.8837"
               y="158.3844"
               width="35.0195"
               height="35.0195"/>
      </clipPath>
      <clipPath id="clippath-73">
         <rect class="cls-14"
               x="142.8837"
               y="158.3839"
               width="35.02"
               height="35.02"/>
      </clipPath>
   </defs>
   <g id="Paths">
      <polyline class="cls-13"
                points="5.0645 10.2466 350.7912 10.2466 350.7912 110.622"/>
      <line class="cls-13"
            x1="5.0645"
            y1="110.622"
            x2="415.2867"
            y2="110.622"/>
      <line class="cls-13"
            x1="160.3935"
            y1="110.622"
            x2="160.3935"
            y2="158.3844"/>
      <polyline class="cls-13"
                points="350.7912 34.2887 234.3978 34.2887 234.3978 62.5025 302.6375 62.5025 302.6375 109.2831"/>
   </g>
   <g id="Flow">
      <g>
         <g class="cls-48">
            <polygon class="cls-29"
                     points="304.5587 108.6232 307.462 110.6221 304.5587 112.621 309.0373 112.621 309.2977 112.438 311.9406 110.6221 309.0373 108.6232 304.5587 108.6232"/>
         </g>
         <g class="cls-35">
            <polygon class="cls-29"
                     points="323.0134 108.6232 325.9167 110.6221 323.0134 112.621 327.492 112.621 327.7524 112.438 330.3953 110.6221 327.492 108.6232 323.0134 108.6232"/>
         </g>
         <g class="cls-18">
            <polygon class="cls-29"
                     points="341.4681 108.6232 344.3714 110.6221 341.4681 112.621 345.9467 112.621 346.2071 112.438 348.8499 110.6221 345.9467 108.6232 341.4681 108.6232"/>
         </g>
         <g class="cls-56">
            <polygon class="cls-29"
                     points="359.9227 108.6232 362.826 110.6221 359.9227 112.621 364.4013 112.621 364.6617 112.438 367.3046 110.6221 364.4013 108.6232 359.9227 108.6232"/>
         </g>
         <g class="cls-36">
            <polygon class="cls-29"
                     points="378.3774 108.6232 381.2807 110.6221 378.3774 112.621 382.856 112.621 383.1164 112.438 385.7593 110.6221 382.856 108.6232 378.3774 108.6232"/>
         </g>
         <g class="cls-66">
            <polygon class="cls-29"
                     points="396.8321 108.6232 399.7353 110.6221 396.8321 112.621 401.3107 112.621 401.571 112.438 404.2139 110.6221 401.3107 108.6232 396.8321 108.6232"/>
         </g>
      </g>
      <g>
         <g class="cls-24">
            <polygon class="cls-29"
                     points="17.3273 108.6232 20.5426 110.6221 17.3273 112.621 22.2873 112.621 22.5756 112.438 25.5025 110.6221 22.2873 108.6232 17.3273 108.6232"/>
         </g>
         <g class="cls-31">
            <polygon class="cls-29"
                     points="37.7653 108.6232 40.9806 110.6221 37.7653 112.621 42.7253 112.621 43.0136 112.438 45.9405 110.6221 42.7253 108.6232 37.7653 108.6232"/>
         </g>
         <g class="cls-59">
            <polygon class="cls-29"
                     points="58.2034 108.6232 61.4187 110.6221 58.2034 112.621 63.1633 112.621 63.4516 112.438 66.3786 110.6221 63.1633 108.6232 58.2034 108.6232"/>
         </g>
         <g class="cls-46">
            <polygon class="cls-29"
                     points="78.6414 108.6232 81.8567 110.6221 78.6414 112.621 83.6013 112.621 83.8897 112.438 86.8166 110.6221 83.6013 108.6232 78.6414 108.6232"/>
         </g>
         <g class="cls-70">
            <polygon class="cls-29"
                     points="99.0794 108.6232 102.2947 110.6221 99.0794 112.621 104.0393 112.621 104.3277 112.438 107.2546 110.6221 104.0393 108.6232 99.0794 108.6232"/>
         </g>
         <g class="cls-7">
            <polygon class="cls-29"
                     points="119.5174 108.6232 122.7327 110.6221 119.5174 112.621 124.4773 112.621 124.7657 112.438 127.6926 110.6221 124.4773 108.6232 119.5174 108.6232"/>
         </g>
         <g class="cls-42">
            <polygon class="cls-29"
                     points="139.9554 108.6232 143.1707 110.6221 139.9554 112.621 144.9154 112.621 145.2037 112.438 148.1306 110.6221 144.9154 108.6232 139.9554 108.6232"/>
         </g>
      </g>
      <g>
         <g class="cls-19">
            <polygon class="cls-29"
                     points="245.7711 60.5036 248.7532 62.5025 245.7711 64.5014 250.3713 64.5014 250.6387 64.3184 253.3533 62.5025 250.3713 60.5036 245.7711 60.5036"/>
         </g>
         <g class="cls-64">
            <polygon class="cls-29"
                     points="264.7266 60.5036 267.7086 62.5025 264.7266 64.5014 269.3267 64.5014 269.5942 64.3184 272.3088 62.5025 269.3267 60.5036 264.7266 60.5036"/>
         </g>
         <g class="cls-23">
            <polygon class="cls-29"
                     points="283.682 60.5036 286.6641 62.5025 283.682 64.5014 288.2822 64.5014 288.5496 64.3184 291.2642 62.5025 288.2822 60.5036 283.682 60.5036"/>
         </g>
      </g>
      <g>
         <g class="cls-8">
            <polygon class="cls-29"
                     points="347.0373 36.2876 344.0839 34.2887 347.0373 32.2897 342.4814 32.2897 342.2165 32.4727 339.528 34.2887 342.4814 36.2876 347.0373 36.2876"/>
         </g>
         <g class="cls-65">
            <polygon class="cls-29"
                     points="328.264 36.2876 325.3107 34.2887 328.264 32.2897 323.7081 32.2897 323.4433 32.4727 320.7548 34.2887 323.7081 36.2876 328.264 36.2876"/>
         </g>
         <g class="cls-63">
            <polygon class="cls-29"
                     points="309.4908 36.2876 306.5374 34.2887 309.4908 32.2897 304.9349 32.2897 304.67 32.4727 301.9815 34.2887 304.9349 36.2876 309.4908 36.2876"/>
         </g>
         <g class="cls-53">
            <polygon class="cls-29"
                     points="290.7176 36.2876 287.7642 34.2887 290.7176 32.2897 286.1617 32.2897 285.8968 32.4727 283.2083 34.2887 286.1617 36.2876 290.7176 36.2876"/>
         </g>
         <g class="cls-6">
            <polygon class="cls-29"
                     points="271.9443 36.2876 268.9909 34.2887 271.9443 32.2897 267.3884 32.2897 267.1235 32.4727 264.435 34.2887 267.3884 36.2876 271.9443 36.2876"/>
         </g>
         <g class="cls-32">
            <polygon class="cls-29"
                     points="253.1711 36.2876 250.2177 34.2887 253.1711 32.2897 248.6152 32.2897 248.3503 32.4727 245.6618 34.2887 248.6152 36.2876 253.1711 36.2876"/>
         </g>
      </g>
      <g>
         <g class="cls-45">
            <polygon class="cls-29"
                     points="17.1692 8.2477 20.343 10.2466 17.1692 12.2456 22.0652 12.2456 22.3498 12.0626 25.239 10.2466 22.0652 8.2477 17.1692 8.2477"/>
         </g>
         <g class="cls-71">
            <polygon class="cls-29"
                     points="37.3437 8.2477 40.5175 10.2466 37.3437 12.2456 42.2397 12.2456 42.5243 12.0626 45.4135 10.2466 42.2397 8.2477 37.3437 8.2477"/>
         </g>
         <g class="cls-43">
            <polygon class="cls-29"
                     points="57.5182 8.2477 60.692 10.2466 57.5182 12.2456 62.4142 12.2456 62.6988 12.0626 65.588 10.2466 62.4142 8.2477 57.5182 8.2477"/>
         </g>
         <g class="cls-22">
            <polygon class="cls-29"
                     points="77.6927 8.2477 80.8665 10.2466 77.6927 12.2456 82.5887 12.2456 82.8733 12.0626 85.7625 10.2466 82.5887 8.2477 77.6927 8.2477"/>
         </g>
         <g class="cls-26">
            <polygon class="cls-29"
                     points="97.8672 8.2477 101.041 10.2466 97.8672 12.2456 102.7631 12.2456 103.0478 12.0626 105.937 10.2466 102.7631 8.2477 97.8672 8.2477"/>
         </g>
         <g class="cls-39">
            <polygon class="cls-29"
                     points="118.0417 8.2477 121.2155 10.2466 118.0417 12.2456 122.9376 12.2456 123.2223 12.0626 126.1115 10.2466 122.9376 8.2477 118.0417 8.2477"/>
         </g>
         <g class="cls-77">
            <polygon class="cls-29"
                     points="138.2162 8.2477 141.39 10.2466 138.2162 12.2456 143.1121 12.2456 143.3968 12.0626 146.286 10.2466 143.1121 8.2477 138.2162 8.2477"/>
         </g>
         <g class="cls-62">
            <polygon class="cls-29"
                     points="158.3907 8.2477 161.5645 10.2466 158.3907 12.2456 163.2866 12.2456 163.5713 12.0626 166.4605 10.2466 163.2866 8.2477 158.3907 8.2477"/>
         </g>
         <g class="cls-44">
            <polygon class="cls-29"
                     points="178.5652 8.2477 181.739 10.2466 178.5652 12.2456 183.4611 12.2456 183.7458 12.0626 186.635 10.2466 183.4611 8.2477 178.5652 8.2477"/>
         </g>
         <g class="cls-54">
            <polygon class="cls-29"
                     points="198.7397 8.2477 201.9135 10.2466 198.7397 12.2456 203.6356 12.2456 203.9203 12.0626 206.8095 10.2466 203.6356 8.2477 198.7397 8.2477"/>
         </g>
         <g class="cls-17">
            <polygon class="cls-29"
                     points="218.9142 8.2477 222.088 10.2466 218.9142 12.2456 223.8101 12.2456 224.0948 12.0626 226.984 10.2466 223.8101 8.2477 218.9142 8.2477"/>
         </g>
         <g class="cls-10">
            <polygon class="cls-29"
                     points="239.0887 8.2477 242.2625 10.2466 239.0887 12.2456 243.9846 12.2456 244.2693 12.0626 247.1585 10.2466 243.9846 8.2477 239.0887 8.2477"/>
         </g>
         <g class="cls-33">
            <polygon class="cls-29"
                     points="259.2632 8.2477 262.437 10.2466 259.2632 12.2456 264.1591 12.2456 264.4438 12.0626 267.333 10.2466 264.1591 8.2477 259.2632 8.2477"/>
         </g>
         <g class="cls-80">
            <polygon class="cls-29"
                     points="279.4376 8.2477 282.6115 10.2466 279.4376 12.2456 284.3336 12.2456 284.6183 12.0626 287.5074 10.2466 284.3336 8.2477 279.4376 8.2477"/>
         </g>
         <g class="cls-38">
            <polygon class="cls-29"
                     points="299.6121 8.2477 302.786 10.2466 299.6121 12.2456 304.5081 12.2456 304.7927 12.0626 307.6819 10.2466 304.5081 8.2477 299.6121 8.2477"/>
         </g>
         <g class="cls-20">
            <polygon class="cls-29"
                     points="319.7866 8.2477 322.9605 10.2466 319.7866 12.2456 324.6826 12.2456 324.9672 12.0626 327.8564 10.2466 324.6826 8.2477 319.7866 8.2477"/>
         </g>
         <g class="cls-37">
            <polygon class="cls-29"
                     points="339.9611 8.2477 343.135 10.2466 339.9611 12.2456 344.8571 12.2456 345.1417 12.0626 348.0309 10.2466 344.8571 8.2477 339.9611 8.2477"/>
         </g>
      </g>
      <g>
         <g class="cls-52">
            <polygon class="cls-29"
                     points="162.3924 116.8725 160.3934 119.6478 158.3945 116.8725 158.3945 121.1535 158.5775 121.4025 160.3934 123.9287 162.3924 121.1535 162.3924 116.8725"/>
         </g>
         <g class="cls-25">
            <polygon class="cls-29"
                     points="162.3924 134.513 160.3934 137.2882 158.3945 134.513 158.3945 138.794 158.5775 139.0429 160.3934 141.5692 162.3924 138.794 162.3924 134.513"/>
         </g>
         <g class="cls-16">
            <polygon class="cls-29"
                     points="162.3924 152.1535 160.3934 154.9286 158.3945 152.1535 158.3945 156.4345 158.5775 156.6834 160.3934 159.2096 162.3924 156.4345 162.3924 152.1535"/>
         </g>
      </g>
      <g class="cls-68">
         <polygon class="cls-29"
                  points="352.7901 20.0075 350.7911 22.3714 348.7922 20.0075 348.7922 23.6541 348.9752 23.8661 350.7911 26.018 352.7901 23.6541 352.7901 20.0075"/>
      </g>
      <g>
         <g class="cls-57">
            <polygon class="cls-29"
                     points="236.3967 36.7418 234.3978 39.2794 232.3989 36.7418 232.3989 40.6563 232.5819 40.8839 234.3978 43.1939 236.3967 40.6563 236.3967 36.7418"/>
         </g>
         <g class="cls-41">
            <polygon class="cls-29"
                     points="236.3967 52.872 234.3978 55.4096 232.3989 52.872 232.3989 56.7865 232.5819 57.0141 234.3978 59.3241 236.3967 56.7865 236.3967 52.872"/>
         </g>
      </g>
      <g>
         <g class="cls-4">
            <polygon class="cls-29"
                     points="304.6364 64.4504 302.6375 67.2521 300.6385 64.4504 300.6385 68.7723 300.8215 69.0236 302.6375 71.574 304.6364 68.7723 304.6364 64.4504"/>
         </g>
         <g class="cls-21">
            <polygon class="cls-29"
                     points="304.6364 82.2594 302.6375 85.061 300.6385 82.2594 300.6385 86.5812 300.8215 86.8325 302.6375 89.3829 304.6364 86.5812 304.6364 82.2594"/>
         </g>
         <g class="cls-12">
            <polygon class="cls-29"
                     points="304.6364 100.0683 302.6375 102.87 300.6385 100.0683 300.6385 104.3902 300.8215 104.6414 302.6375 107.1918 304.6364 104.3902 304.6364 100.0683"/>
         </g>
      </g>
   </g>
   <g id="Parts">
      <g id="Artwork_22" data-name="Artwork 22">
         <g class="cls-50">
            <polygon class="cls-28"
                     points="2.9917 13.1631 13.1887 10.2554 2.9917 7.3491 2.9917 13.1631"/>
            <g class="cls-74">
               <path class="cls-27"
                     d="m14.6594,9.8954L2.7194,6.4911c-.1102-.0338-.2332-.009-.3285.06-.0952.0713-.1493.183-.1493.3v6.81c0,.117.054.2288.1493.3.066.0487.1455.075.2257.075.0352,0,.069-.0045.1027-.0143l11.94-3.4057c.1605-.0458.2723-.1935.2723-.3608s-.1118-.315-.2723-.36m-11.6677,3.2677v-5.814l10.197,2.9062-10.197,2.9078Z"/>
            </g>
         </g>
      </g>
      <g id="Artwork_22-2" data-name="Artwork 22">
         <g class="cls-49">
            <polygon class="cls-28"
                     points="2.9917 113.5386 13.1887 110.6308 2.9917 107.7246 2.9917 113.5386"/>
            <g class="cls-76">
               <path class="cls-27"
                     d="m14.6594,110.2708l-11.94-3.4043c-.1102-.0338-.2332-.009-.3285.06-.0952.0713-.1493.183-.1493.3v6.81c0,.117.054.2288.1493.3.066.0487.1455.075.2257.075.0352,0,.069-.0045.1027-.0143l11.94-3.4057c.1605-.0458.2723-.1935.2723-.3608s-.1118-.315-.2723-.36m-11.6677,3.2677v-5.814l10.197,2.9062-10.197,2.9078Z"/>
            </g>
         </g>
      </g>
      <g id="Artwork_22-3" data-name="Artwork 22">
         <g class="cls-47">
            <polygon class="cls-28"
                     points="413.8499 113.5386 424.0469 110.6308 413.8499 107.7246 413.8499 113.5386"/>
            <g class="cls-73">
               <path class="cls-27"
                     d="m425.5176,110.2708l-11.94-3.4043c-.1102-.0338-.2332-.009-.3285.06-.0952.0713-.1493.183-.1493.3v6.81c0,.117.054.2288.1493.3.066.0487.1455.075.2257.075.0352,0,.069-.0045.1027-.0143l11.94-3.4057c.1605-.0458.2723-.1935.2723-.3608s-.1118-.315-.2723-.36m-11.6677,3.2677v-5.814l10.197,2.9062-10.197,2.9078Z"/>
            </g>
         </g>
      </g>
      <g id="Artwork_24" data-name="Artwork 24">
         <g class="cls-55">
            <g class="cls-60">
               <path class="cls-28"
                     d="m347.2078,81.43v-18.126c0-.207.1673-.3758.375-.3758h6.804c.2085,0,.375.1688.375.3758v18.126c0,.207-.1665.3757-.375.3757h-6.804c-.2077,0-.375-.1688-.375-.3757"/>
               <path class="cls-27"
                     d="m352.4958,81.4381c0-.1973-.0382-.3968-.1215-.5903l-8.0843-18.87c-.3255-.7612-1.2075-1.1145-1.9688-.7882-.7635.3262-1.1198,1.2045-.7882,1.9702l8.0842,18.87c.3255.7612,1.2067,1.1137,1.9688.7882.57-.2437.9097-.798.9097-1.38"/>
               <path class="cls-28"
                     d="m348.7311,63.3041c0-1.1992.9758-2.1742,2.175-2.1742,1.2,0,2.1758.975,2.1758,2.1742s-.9758,2.1742-2.1758,2.1742c-1.1992,0-2.175-.975-2.175-2.1742"/>
               <path class="cls-27"
                     d="m347.9809,63.3041c0-1.6133,1.3125-2.9258,2.9258-2.9258s2.925,1.3125,2.925,2.9258-1.3125,2.9258-2.925,2.9258-2.9258-1.3125-2.9258-2.9258m5.1008,0c0-1.1992-.9757-2.1742-2.175-2.1742-1.2,0-2.1758.975-2.1758,2.1742s.9758,2.1742,2.1758,2.1742c1.1993,0,2.175-.975,2.175-2.1742"/>
               <path class="cls-28"
                     d="m348.7311,81.5443c0-1.2068.9758-2.1893,2.175-2.1893,1.2,0,2.1758.9825,2.1758,2.1893,0,1.1992-.9758,2.1735-2.1758,2.1735-1.1992,0-2.175-.9742-2.175-2.1735"/>
               <path class="cls-27"
                     d="m347.9809,81.5443c0-1.6215,1.3125-2.9408,2.9258-2.9408s2.925,1.3193,2.925,2.9408c0,1.6125-1.3125,2.925-2.925,2.925s-2.9258-1.3125-2.9258-2.925m5.1008,0c0-1.2068-.9757-2.1893-2.175-2.1893-1.2,0-2.1758.9825-2.1758,2.1893,0,1.1992.9758,2.1735,2.1758,2.1735,1.1993,0,2.175-.9742,2.175-2.1735"/>
            </g>
         </g>
      </g>
      <g id="Artwork_23" data-name="Artwork 23">
         <g class="cls-72">
            <g class="cls-34">
               <path class="cls-28"
                     d="m62.1741,107.4631h-18.126c-.207,0-.3758.1673-.3758.375v6.8025c0,.2085.1688.375.3758.375h18.126c.207,0,.3757-.1665.3757-.375v-6.8025c0-.2077-.1688-.375-.3757-.375"/>
               <path class="cls-28"
                     d="m46.2227,111.1457c0-1.1985-.9758-2.1735-2.1742-2.1735-1.1993,0-2.1742.975-2.1742,2.1735,0,1.2.975,2.175,2.1742,2.175,1.1985,0,2.1742-.975,2.1742-2.175"/>
               <path class="cls-27"
                     d="m44.0478,108.2222c-1.6125,0-2.925,1.311-2.925,2.9235s1.3125,2.925,2.925,2.925c1.614,0,2.9265-1.3125,2.9265-2.925s-1.3125-2.9235-2.9265-2.9235m-2.1735,2.9235c0-1.1985.975-2.1735,2.1735-2.1735,1.1993,0,2.175.975,2.175,2.1735,0,1.2-.9757,2.175-2.175,2.175-1.1985,0-2.1735-.975-2.1735-2.175"/>
               <path class="cls-27"
                     d="m62.1697,112.7366c-.0915,0-.1838-.009-.2775-.0247l-18.12-3.39c-.8137-.1523-1.3507-.936-1.1985-1.7505.1515-.816.9293-1.3433,1.7505-1.1992l18.12,3.3892c.8137.1523,1.3508.936,1.1985,1.7505-.135.7223-.765,1.2247-1.473,1.2247"/>
               <path class="cls-28"
                     d="m64.4475,111.1457c0-1.1985-.9758-2.1735-2.1743-2.1735-1.1993,0-2.1743.975-2.1743,2.1735,0,1.2067.975,2.19,2.1743,2.19,1.1985,0,2.1743-.9833,2.1743-2.19"/>
               <path class="cls-27"
                     d="m62.2727,108.2222c-1.6125,0-2.925,1.311-2.925,2.9235,0,1.6215,1.3125,2.94,2.925,2.94,1.614,0,2.9265-1.3185,2.9265-2.94,0-1.6125-1.3125-2.9235-2.9265-2.9235m-2.1735,2.9235c0-1.1985.975-2.1735,2.1735-2.1735,1.1993,0,2.175.975,2.175,2.1735,0,1.2067-.9757,2.19-2.175,2.19-1.1985,0-2.1735-.9833-2.1735-2.19"/>
            </g>
         </g>
      </g>
      <g id="Artwork_23-2" data-name="Artwork 23">
         <g class="cls-67">
            <g class="cls-9">
               <path class="cls-28"
                     d="m335.7275,107.4631h-18.126c-.207,0-.3758.1673-.3758.375v6.8025c0,.2085.1688.375.3758.375h18.126c.207,0,.3757-.1665.3757-.375v-6.8025c0-.2077-.1688-.375-.3757-.375"/>
               <path class="cls-28"
                     d="m319.7761,111.1457c0-1.1985-.9758-2.1735-2.1742-2.1735-1.1993,0-2.1742.975-2.1742,2.1735,0,1.2.975,2.175,2.1742,2.175,1.1985,0,2.1742-.975,2.1742-2.175"/>
               <path class="cls-27"
                     d="m317.6012,108.2222c-1.6125,0-2.925,1.311-2.925,2.9235s1.3125,2.925,2.925,2.925c1.614,0,2.9265-1.3125,2.9265-2.925s-1.3125-2.9235-2.9265-2.9235m-2.1735,2.9235c0-1.1985.975-2.1735,2.1735-2.1735,1.1993,0,2.175.975,2.175,2.1735,0,1.2-.9757,2.175-2.175,2.175-1.1985,0-2.1735-.975-2.1735-2.175"/>
               <path class="cls-27"
                     d="m335.7231,112.7366c-.0915,0-.1838-.009-.2775-.0247l-18.12-3.39c-.8137-.1523-1.3507-.936-1.1985-1.7505.1515-.816.9293-1.3433,1.7505-1.1992l18.12,3.3892c.8137.1523,1.3508.936,1.1985,1.7505-.135.7223-.765,1.2247-1.473,1.2247"/>
               <path class="cls-28"
                     d="m338.0009,111.1457c0-1.1985-.9758-2.1735-2.1743-2.1735-1.1993,0-2.1743.975-2.1743,2.1735,0,1.2067.975,2.19,2.1743,2.19,1.1985,0,2.1743-.9833,2.1743-2.19"/>
               <path class="cls-27"
                     d="m335.8261,108.2222c-1.6125,0-2.925,1.311-2.925,2.9235,0,1.6215,1.3125,2.94,2.925,2.94,1.614,0,2.9265-1.3185,2.9265-2.94,0-1.6125-1.3125-2.9235-2.9265-2.9235m-2.1735,2.9235c0-1.1985.975-2.1735,2.1735-2.1735,1.1993,0,2.175.975,2.175,2.1735,0,1.2067-.9757,2.19-2.175,2.19-1.1985,0-2.1735-.9833-2.1735-2.19"/>
            </g>
         </g>
      </g>
      <g id="Artwork_23-3" data-name="Artwork 23">
         <g class="cls-40">
            <g class="cls-51">
               <path class="cls-28"
                     d="m317.7011,31.1298h18.126c.207,0,.3758.1673.3758.375v6.8025c0,.2085-.1688.375-.3758.375h-18.126c-.207,0-.3757-.1665-.3757-.375v-6.8025c0-.2077.1688-.375.3757-.375"/>
               <path class="cls-28"
                     d="m333.6526,34.8123c0-1.1985.9758-2.1735,2.1742-2.1735,1.1993,0,2.1742.975,2.1742,2.1735,0,1.2-.975,2.175-2.1742,2.175-1.1985,0-2.1742-.975-2.1742-2.175"/>
               <path class="cls-27"
                     d="m335.8274,31.8888c1.6125,0,2.925,1.311,2.925,2.9235s-1.3125,2.925-2.925,2.925c-1.614,0-2.9265-1.3125-2.9265-2.925s1.3125-2.9235,2.9265-2.9235m2.1735,2.9235c0-1.1985-.975-2.1735-2.1735-2.1735-1.1993,0-2.175.975-2.175,2.1735,0,1.2.9757,2.175,2.175,2.175,1.1985,0,2.1735-.975,2.1735-2.175"/>
               <path class="cls-27"
                     d="m317.7056,36.4032c.0915,0,.1838-.009.2775-.0247l18.12-3.39c.8137-.1523,1.3507-.936,1.1985-1.7505-.1515-.816-.9293-1.3433-1.7505-1.1992l-18.12,3.3892c-.8137.1523-1.3508.936-1.1985,1.7505.135.7223.765,1.2247,1.473,1.2247"/>
               <path class="cls-28"
                     d="m315.4277,34.8123c0-1.1985.9758-2.1735,2.1743-2.1735,1.1993,0,2.1743.975,2.1743,2.1735,0,1.2067-.975,2.19-2.1743,2.19-1.1985,0-2.1743-.9833-2.1743-2.19"/>
               <path class="cls-27"
                     d="m317.6026,31.8888c1.6125,0,2.925,1.311,2.925,2.9235,0,1.6215-1.3125,2.94-2.925,2.94-1.614,0-2.9265-1.3185-2.9265-2.94,0-1.6125,1.3125-2.9235,2.9265-2.9235m2.1735,2.9235c0-1.1985-.975-2.1735-2.1735-2.1735-1.1993,0-2.175.975-2.175,2.1735,0,1.2067.9757,2.19,2.175,2.19,1.1985,0,2.1735-.9833,2.1735-2.19"/>
            </g>
         </g>
      </g>
      <g id="Artwork_23-4" data-name="Artwork 23">
         <g class="cls-3">
            <g class="cls-5">
               <path class="cls-28"
                     d="m157.2345,125.4901v18.126c0,.207.1673.3758.375.3758h6.8025c.2085,0,.375-.1688.375-.3758v-18.126c0-.207-.1665-.3757-.375-.3757h-6.8025c-.2077,0-.375.1688-.375.3757"/>
               <path class="cls-28"
                     d="m160.9171,141.4415c-1.1985,0-2.1735.9758-2.1735,2.1742,0,1.1993.975,2.1742,2.1735,2.1742,1.2,0,2.175-.975,2.175-2.1742,0-1.1985-.975-2.1742-2.175-2.1742"/>
               <path class="cls-27"
                     d="m157.9936,143.6163c0,1.6125,1.311,2.925,2.9235,2.925s2.925-1.3125,2.925-2.925c0-1.614-1.3125-2.9265-2.925-2.9265s-2.9235,1.3125-2.9235,2.9265m2.9235,2.1735c-1.1985,0-2.1735-.975-2.1735-2.1735,0-1.1993.975-2.175,2.1735-2.175,1.2,0,2.175.9757,2.175,2.175,0,1.1985-.975,2.1735-2.175,2.1735"/>
               <path class="cls-27"
                     d="m162.508,125.4945c0,.0915-.009.1838-.0247.2775l-3.39,18.12c-.1523.8137-.936,1.3507-1.7505,1.1985-.816-.1515-1.3433-.9293-1.1992-1.7505l3.3892-18.12c.1523-.8137.936-1.3508,1.7505-1.1985.7223.135,1.2247.765,1.2247,1.473"/>
               <path class="cls-28"
                     d="m160.9171,123.2166c-1.1985,0-2.1735.9758-2.1735,2.1743,0,1.1993.975,2.1743,2.1735,2.1743,1.2067,0,2.19-.975,2.19-2.1743,0-1.1985-.9833-2.1743-2.19-2.1743"/>
               <path class="cls-27"
                     d="m157.9936,125.3915c0,1.6125,1.311,2.925,2.9235,2.925,1.6215,0,2.94-1.3125,2.94-2.925,0-1.614-1.3185-2.9265-2.94-2.9265-1.6125,0-2.9235,1.3125-2.9235,2.9265m2.9235,2.1735c-1.1985,0-2.1735-.975-2.1735-2.1735,0-1.1993.975-2.175,2.1735-2.175,1.2067,0,2.19.9757,2.19,2.175,0,1.1985-.9833,2.1735-2.19,2.1735"/>
            </g>
         </g>
      </g>
      <g id="Artwork_19" data-name="Artwork 19">
         <g class="cls-11">
            <g class="cls-69">
               <path class="cls-28"
                     d="m286.9908,45.6054h-27.806c-1.632,0-2.96,1.329-2.96,2.963v27.783c0,1.634,1.328,2.963,2.96,2.963h27.806c1.634,0,2.963-1.329,2.963-2.963v-27.783c0-1.634-1.329-2.963-2.963-2.963"/>
               <path class="cls-27"
                     d="m282.0176,61.2095v-7.238c0-.414-.336-.75-.75-.75h-3.836l1.504-.752c.254-.127.414-.387.414-.67v-3.699c0-.414-.336-.75-.75-.75s-.75.336-.75.75v3.236l-.621.311v-1.969c0-.414-.336-.75-.75-.75s-.75.336-.75.75v3.027l-7.395-3.697c-.23-.119-.507-.105-.73.031-.221.137-.356.379-.356.639v3.543h-2.988c-.414,0-.75.336-.75.75v7.412c-.168.117-.307.264-.406.445h-3.865v1.5h3.993c.08.102.173.185.278.26v7.391c0,.414.336.75.75.75h4.045l-1.402.701c-.254.127-.414.387-.414.67v3.719c0,.414.336.75.75.75s.75-.336.75-.75v-3.256l.621-.311v1.967c0,.414.336.75.75.75s.75-.336.75-.75v-3.028l7.416,3.7c.105.053.219.078.334.078.137,0,.273-.037.394-.111.221-.137.356-.379.356-.639v-3.49h2.658c.414,0,.75-.336.75-.75v-7.213c.243-.087.443-.24.601-.438h4.321v-1.5h-4.19c-.162-.287-.414-.508-.732-.619m-13.27-10.318l4.659,2.33h-4.659v-2.33Zm0,3.83h4.462l-4.462,2.24v-2.24Zm8.362,19.285l-4.567-2.277h4.567v2.277Zm0-3.777h-4.567l4.567-2.278v2.278Zm3.408-8.601c-.19.234-.319.521-.319.851s.129.621.319.859v6.891h-1.908v-3.49c0-.26-.135-.502-.356-.639-.224-.137-.498-.15-.728-.033l-7.416,3.699v-3.027c0-.414-.336-.75-.75-.75s-.75.336-.75.75v3.49h-3.6v-6.614c.372-.247.629-.653.629-1.136s-.257-.881-.629-1.122v-6.636h2.238v3.457c0,.26.135.502.356.639.121.074.258.111.394.111.116,0,.231-.027.336-.08l7.395-3.714v3.044c0,.414.336.75.75.75s.75-.336.75-.75v-3.457h3.289v6.907Z"/>
               <path class="cls-30"
                     d="m286.6988,44.9498h-27.221c-2.15,0-3.899,1.748-3.899,3.899v27.201c0,2.162,1.749,3.92,3.899,3.92h27.221c2.15,0,3.9-1.758,3.9-3.92v-27.201c0-2.151-1.75-3.899-3.9-3.899m2.9,31.1c0,1.609-1.301,2.92-2.9,2.92h-27.221c-1.598,0-2.899-1.311-2.899-2.92v-27.201c0-1.598,1.301-2.899,2.899-2.899h27.221c1.599,0,2.9,1.301,2.9,2.899v27.201Z"/>
            </g>
         </g>
      </g>
      <g id="Artwork_21" data-name="Artwork 21">
         <g class="cls-81">
            <g class="cls-75">
               <path class="cls-28"
                     d="m286.9908,92.4285h-27.806c-1.632,0-2.96,1.329-2.96,2.963v27.783c0,1.634,1.328,2.963,2.96,2.963h27.806c1.634,0,2.963-1.329,2.963-2.963v-27.783c0-1.634-1.329-2.963-2.963-2.963"/>
               <path class="cls-27"
                     d="m279.7043,114.3286h-6.445v-2.5c0-.277-.223-.5-.5-.5-.278,0-.5.223-.5.5v2.5h-6.16c-.278,0-.5.223-.5.5v6.803c0,.277.222.5.5.5h13.605c.277,0,.5-.223.5-.5v-6.803c0-.277-.223-.5-.5-.5m-13.105,6.803v-5.803h6.15c.004,0,.006.004.01.004.003,0,.006-.004.009-.004h.882l-2.9,5.803h-4.151Zm12.605,0h-7.335l2.9-5.803h4.435v5.803Z"/>
               <path class="cls-27"
                     d="m287.0137,108.517h-6.818c-.248-.396-.684-.661-1.185-.661-.423,0-.797.191-1.053.487l-10.469-1.595c-.409-.063-.792.219-.854.628-.031.2.023.393.132.546-.329.096-.608.306-.788.588h-6.822v1.5h6.822c.248.39.682.65,1.178.65.774,0,1.4-.627,1.4-1.4,0-.336-.123-.64-.32-.881l9.498,1.447c.218.489.706.83,1.276.83.492,0,.923-.255,1.173-.639h6.83v-1.5Z"/>
               <path class="cls-30"
                     d="m286.6988,91.7729h-27.221c-2.15,0-3.899,1.748-3.899,3.899v27.201c0,2.162,1.749,3.92,3.899,3.92h27.221c2.15,0,3.9-1.758,3.9-3.92v-27.201c0-2.151-1.75-3.899-3.9-3.899m2.9,31.1c0,1.609-1.301,2.92-2.9,2.92h-27.221c-1.598,0-2.899-1.311-2.899-2.92v-27.201c0-1.598,1.301-2.899,2.899-2.899h27.221c1.599,0,2.9,1.301,2.9,2.899v27.201Z"/>
            </g>
         </g>
      </g>
      <g id="Artwork_17" data-name="Artwork 17">
         <g class="cls-79">
            <g class="cls-61">
               <path class="cls-28"
                     d="m227.9075,92.4286h-27.806c-1.632,0-2.96,1.329-2.96,2.963v27.783c0,1.634,1.328,2.963,2.96,2.963h27.806c1.634,0,2.963-1.329,2.963-2.963v-27.783c0-1.634-1.329-2.963-2.963-2.963"/>
               <path class="cls-27"
                     d="m226.7445,117.703c-.347-.225-.812-.129-1.038.221-.559.857-1.287,1.341-2.051,1.361-.751-.014-1.446-.396-2.066-1.236-.04-.098-.1-.184-.174-.256-.833-1.205-1.97-1.881-3.208-1.904-1.286-.038-2.424.623-3.317,1.849l-.114.17c-.233.342-.145.809.197,1.043.341.232.808.143,1.042-.195l.107-.162c.576-.793,1.289-1.202,2.057-1.205.695.011,1.363.406,1.98,1.21.021.041.044.083.072.12.008.011.017.025.026.037.013.023.028.045.043.066.053.08.115.172.129.172.842,1.158,1.967,1.791,3.174,1.791h.091c1.254-.033,2.446-.779,3.27-2.045.225-.346.127-.81-.22-1.037"/>
               <path class="cls-27"
                     d="m202.1752,99.2421h10.2c.414,0,.75-.336.75-.75s-.336-.75-.75-.75h-10.2c-.414,0-.75.336-.75.75s.336.75.75.75"/>
               <path class="cls-27"
                     d="m202.1752,102.6425h10.2c.414,0,.75-.336.75-.75s-.336-.75-.75-.75h-10.2c-.414,0-.75.336-.75.75s.336.75.75.75"/>
               <rect class="cls-27"
                     x="191.29"
                     y="108.5331"
                     width="45.4313"
                     height="1.5001"
                     transform="translate(-14.594 183.3332) rotate(-45)"/>
               <path class="cls-30"
                     d="m227.6155,91.773h-27.221c-2.15,0-3.899,1.748-3.899,3.899v27.201c0,2.162,1.749,3.92,3.899,3.92h27.221c2.15,0,3.9-1.758,3.9-3.92v-27.201c0-2.151-1.75-3.899-3.9-3.899m2.9,31.1c0,1.609-1.301,2.92-2.9,2.92h-27.221c-1.598,0-2.899-1.311-2.899-2.92v-27.201c0-1.598,1.301-2.899,2.899-2.899h27.221c1.599,0,2.9,1.301,2.9,2.899v27.201Z"/>
            </g>
         </g>
      </g>
      <g id="Artwork_16" data-name="Artwork 16">
         <g class="cls-58">
            <g class="cls-78">
               <path class="cls-28"
                     d="m120.6779,92.4285h-27.806c-1.632,0-2.96,1.329-2.96,2.963v27.783c0,1.634,1.328,2.963,2.96,2.963h27.806c1.634,0,2.963-1.329,2.963-2.963v-27.783c0-1.634-1.329-2.963-2.963-2.963"/>
               <path class="cls-27"
                     d="m118.6765,116.0818h-10.2c-.414,0-.75.336-.75.75s.336.75.75.75h10.2c.414,0,.75-.336.75-.75s-.336-.75-.75-.75"/>
               <path class="cls-27"
                     d="m118.6765,119.4822h-10.2c-.414,0-.75.336-.75.75s.336.75.75.75h10.2c.414,0,.75-.336.75-.75s-.336-.75-.75-.75"/>
               <path class="cls-27"
                     d="m94.1316,102.6619c.338.227.858.057,1.096-.273.56-.791,1.327-1.166,2.026-1.209.712.009,1.394.412,2.012,1.228.016.033.035.065.056.094.006.01.012.019.019.029.006.01.013.018.019.027.015.026.033.051.05.077.041.064.083.123.122.164.843,1.144,1.97,1.771,3.181,1.771.031,0,.063,0,.093-.002,1.259-.033,2.453-.769,3.277-2.023.228-.346.131-.811-.215-1.039-.347-.231-.813-.131-1.039.215-.557.849-1.291,1.328-2.062,1.349-.739.039-1.461-.394-2.004-1.131-.026-.037-.053-.078-.083-.121-.013-.027-.028-.054-.048-.082-.031-.051-.069-.097-.111-.138-.832-1.204-2.012-1.903-3.247-1.918-1.263.064-2.414.636-3.269,1.837-.005.008-.13.196-.135.202-.225.341-.076.711.262.943"/>
               <rect class="cls-27"
                     x="84.0605"
                     y="108.533"
                     width="45.4313"
                     height="1.5001"
                     transform="translate(-46.0008 107.5104) rotate(-45)"/>
               <path class="cls-30"
                     d="m120.3859,91.7729h-27.221c-2.15,0-3.899,1.748-3.899,3.899v27.201c0,2.162,1.749,3.92,3.899,3.92h27.221c2.15,0,3.9-1.758,3.9-3.92v-27.201c0-2.151-1.75-3.899-3.9-3.899m2.9,31.1c0,1.609-1.301,2.92-2.9,2.92h-27.221c-1.598,0-2.899-1.311-2.899-2.92v-27.201c0-1.598,1.301-2.899,2.899-2.899h27.221c1.599,0,2.9,1.301,2.9,2.899v27.201Z"/>
            </g>
         </g>
      </g>
      <g id="Artwork_18" data-name="Artwork 18">
         <g class="cls-2">
            <g class="cls-1">
               <path class="cls-28"
                     d="m174.2952,159.0396h-27.806c-1.632,0-2.96,1.329-2.96,2.963v27.783c0,1.634,1.328,2.963,2.96,2.963h27.806c1.634,0,2.963-1.329,2.963-2.963v-27.783c0-1.634-1.329-2.963-2.963-2.963"/>
               <path class="cls-30"
                     d="m174.0032,158.384h-27.221c-2.15,0-3.899,1.748-3.899,3.899v27.201c0,2.162,1.749,3.92,3.899,3.92h27.221c2.15,0,3.9-1.758,3.9-3.92v-27.201c0-2.151-1.75-3.899-3.9-3.899m2.9,31.1c0,1.609-1.301,2.92-2.9,2.92h-27.221c-1.598,0-2.899-1.311-2.899-2.92v-27.201c0-1.598,1.301-2.899,2.899-2.899h27.221c1.599,0,2.9,1.301,2.9,2.899v27.201Z"/>
               <path class="cls-27"
                     d="m173.1435,170.0992h-12.01v-5.939h-1.5v5.939h-11.99c-.414,0-.75.336-.75.75s.336.75.75.75h25.5c.414,0,.75-.336.75-.75s-.336-.75-.75-.75"/>
               <path class="cls-27"
                     d="m168.0439,176.6891c.553,0,1-.447,1-1s-.447-1-1-1h-15.299c-.553,0-1,.447-1,1s.447,1,1,1h15.299Z"/>
               <path class="cls-27"
                     d="m173.1435,181.0191h-25.5c-.414,0-.75.336-.75.75s.336.75.75.75h25.5c.414,0,.75-.336.75-.75s-.336-.75-.75-.75"/>
               <path class="cls-27"
                     d="m168.0439,185.6285h-15.299c-.553,0-1,.447-1,1s.447,1,1,1h15.299c.553,0,1-.447,1-1s-.447-1-1-1"/>
            </g>
         </g>
      </g>
      <line class="cls-15"
            x1="326.7143"
            y1="106.2883"
            x2="326.7143"
            y2="38.6225"/>
      <line class="cls-15"
            x1="341.3055"
            y1="72.4238"
            x2="326.7143"
            y2="72.4238"/>
   </g>
</svg>
