<?xml version="1.0" encoding="UTF-8"?>
<svg xmlns="http://www.w3.org/2000/svg"
     xmlns:xlink="http://www.w3.org/1999/xlink"
 id="Parts"
     width="12.3541mm"
     height="12.3541mm"
     viewBox="0 0 35.0195 35.0195">
   <defs>
      <style>
      .cls-1 {
        fill: none;
      }

      .cls-1, .cls-2, .cls-3, .cls-4 {
        stroke-width: 0px;
      }

      .cls-2 {
        fill: #01889c;
      }

      .cls-5 {
        clip-path: url(#clippath-1);
      }

      .cls-3 {
        fill: #fff;
      }

      .cls-6 {
        clip-path: url(#clippath);
      }

      .cls-4 {
        fill: #243746;
      }
    </style>
      <clipPath id="clippath">
         <rect class="cls-1" width="35.0195" height="35.0195"/>
      </clipPath>
      <clipPath id="clippath-1">
         <rect class="cls-1" y="-.0005" width="35.02" height="35.02"/>
      </clipPath>
   </defs>
   <g id="Artwork_18" data-name="Artwork 18">
      <g class="cls-6">
         <g class="cls-5">
            <path class="cls-3"
                  d="m31.4115.6552H3.6055C1.9735.6552.6455,1.9842.6455,3.6182v27.783c0,1.634,1.328,2.963,2.96,2.963h27.806c1.634,0,2.963-1.329,2.963-2.963V3.6182c0-1.634-1.329-2.963-2.963-2.963"/>
            <path class="cls-4"
                  d="m31.1195-.0004H3.8985C1.7485-.0004-.0005,1.7476-.0005,3.8986v27.201c0,2.162,1.749,3.92,3.899,3.92h27.221c2.15,0,3.9-1.758,3.9-3.92V3.8986C35.0195,1.7476,33.2695-.0004,31.1195-.0004m2.9,31.1c0,1.609-1.301,2.92-2.9,2.92H3.8985c-1.598,0-2.899-1.311-2.899-2.92V3.8986C.9995,2.3006,2.3005.9996,3.8985.9996h27.221c1.599,0,2.9,1.301,2.9,2.899v27.201Z"/>
            <path class="cls-2"
                  d="m30.2598,11.7148h-12.01v-5.939h-1.5v5.939H4.7598c-.414,0-.75.336-.75.75s.336.75.75.75h25.5c.414,0,.75-.336.75-.75s-.336-.75-.75-.75"/>
            <path class="cls-2"
                  d="m25.1602,18.3047c.553,0,1-.447,1-1s-.447-1-1-1h-15.299c-.553,0-1,.447-1,1s.447,1,1,1h15.299Z"/>
            <path class="cls-2"
                  d="m30.2598,22.6347H4.7598c-.414,0-.75.336-.75.75s.336.75.75.75h25.5c.414,0,.75-.336.75-.75s-.336-.75-.75-.75"/>
            <path class="cls-2"
                  d="m25.1602,27.2441h-15.299c-.553,0-1,.447-1,1s.447,1,1,1h15.299c.553,0,1-.447,1-1s-.447-1-1-1"/>
         </g>
      </g>
   </g>
</svg>
