<?xml version="1.0" encoding="UTF-8"?>
<svg xmlns="http://www.w3.org/2000/svg"
     xmlns:xlink="http://www.w3.org/1999/xlink"
     width="151mm"
     height="70mm"
     viewBox="0 0 428.0315 198.4252">
   <defs>
      <style>
      .cls-1 {
        clip-path: url(#clippath-20);
      }

      .cls-2 {
        clip-path: url(#clippath-11);
      }

      .cls-3 {
        clip-path: url(#clippath-16);
      }

      .cls-4 {
        stroke-linecap: round;
        stroke-width: 4px;
      }

      .cls-4, .cls-5, .cls-6 {
        fill: none;
      }

      .cls-4, .cls-6 {
        stroke: #01889c;
        stroke-miterlimit: 10;
      }

      .cls-7 {
        clip-path: url(#clippath-2);
      }

      .cls-8 {
        clip-path: url(#clippath-13);
      }

      .cls-9 {
        clip-path: url(#clippath-25);
      }

      .cls-10 {
        clip-path: url(#clippath-15);
      }

      .cls-11 {
        clip-path: url(#clippath-6);
      }

      .cls-5, .cls-12, .cls-13, .cls-14 {
        stroke-width: 0px;
      }

      .cls-12 {
        fill: #01889c;
      }

      .cls-15 {
        clip-path: url(#clippath-7);
      }

      .cls-16 {
        clip-path: url(#clippath-21);
      }

      .cls-17 {
        clip-path: url(#clippath-1);
      }

      .cls-18 {
        clip-path: url(#clippath-4);
      }

      .cls-19 {
        clip-path: url(#clippath-12);
      }

      .cls-13 {
        fill: #fff;
      }

      .cls-6 {
        stroke-dasharray: 0 4;
        stroke-width: .75px;
      }

      .cls-20 {
        clip-path: url(#clippath-24);
      }

      .cls-21 {
        clip-path: url(#clippath-22);
      }

      .cls-22 {
        clip-path: url(#clippath-9);
      }

      .cls-23 {
        clip-path: url(#clippath);
      }

      .cls-24 {
        clip-path: url(#clippath-19);
      }

      .cls-25 {
        clip-path: url(#clippath-3);
      }

      .cls-26 {
        clip-path: url(#clippath-8);
      }

      .cls-27 {
        clip-path: url(#clippath-18);
      }

      .cls-28 {
        clip-path: url(#clippath-14);
      }

      .cls-29 {
        clip-path: url(#clippath-17);
      }

      .cls-30 {
        clip-path: url(#clippath-5);
      }

      .cls-31 {
        clip-path: url(#clippath-10);
      }

      .cls-32 {
        clip-path: url(#clippath-23);
      }

      .cls-14 {
        fill: #243746;
      }
    </style>
      <clipPath id="clippath">
         <rect class="cls-5"
               x="2.2417"
               y="6.4665"
               width="12.6899"
               height="7.5603"/>
      </clipPath>
      <clipPath id="clippath-1">
         <rect class="cls-5"
               x="2.2417"
               y="6.4668"
               width="12.69"
               height="7.56"/>
      </clipPath>
      <clipPath id="clippath-2">
         <rect class="cls-5"
               x="2.2417"
               y="106.8419"
               width="12.6899"
               height="7.5603"/>
      </clipPath>
      <clipPath id="clippath-3">
         <rect class="cls-5"
               x="2.2417"
               y="106.8422"
               width="12.69"
               height="7.56"/>
      </clipPath>
      <clipPath id="clippath-4">
         <rect class="cls-5"
               x="413.0999"
               y="106.8419"
               width="12.6899"
               height="7.5603"/>
      </clipPath>
      <clipPath id="clippath-5">
         <rect class="cls-5"
               x="413.0999"
               y="106.8422"
               width="12.69"
               height="7.56"/>
      </clipPath>
      <clipPath id="clippath-6">
         <rect class="cls-5"
               x="341.3055"
               y="60.3781"
               width="13.3529"
               height="24.0916"/>
      </clipPath>
      <clipPath id="clippath-7">
         <rect class="cls-5"
               x="341.3053"
               y="60.3781"
               width="13.353"
               height="24.0915"/>
      </clipPath>
      <clipPath id="clippath-8">
         <rect class="cls-5"
               x="255.5793"
               y="44.96"
               width="35.0195"
               height="35"/>
      </clipPath>
      <clipPath id="clippath-9">
         <rect class="cls-5"
               x="255.5793"
               y="44.96"
               width="35.02"
               height="35"/>
      </clipPath>
      <clipPath id="clippath-10">
         <rect class="cls-5"
               x="255.5793"
               y="91.7831"
               width="35.0195"
               height="35"/>
      </clipPath>
      <clipPath id="clippath-11">
         <rect class="cls-5"
               x="255.5793"
               y="91.7831"
               width="35.02"
               height="35"/>
      </clipPath>
      <clipPath id="clippath-12">
         <rect class="cls-5"
               x="196.5097"
               y="91.7733"
               width="34.9921"
               height="35.0196"/>
      </clipPath>
      <clipPath id="clippath-13">
         <rect class="cls-5"
               x="196.5097"
               y="91.7729"
               width="34.992"
               height="35.02"/>
      </clipPath>
      <clipPath id="clippath-14">
         <rect class="cls-5"
               x="89.2752"
               y="91.7733"
               width="35.002"
               height="35.0195"/>
      </clipPath>
      <clipPath id="clippath-15">
         <rect class="cls-5"
               x="89.2752"
               y="91.7728"
               width="35.002"
               height="35.02"/>
      </clipPath>
      <clipPath id="clippath-16">
         <rect class="cls-5"
               x="142.8837"
               y="158.3844"
               width="35.0195"
               height="35.0195"/>
      </clipPath>
      <clipPath id="clippath-17">
         <rect class="cls-5"
               x="142.8837"
               y="158.3839"
               width="35.02"
               height="35.02"/>
      </clipPath>
      <clipPath id="clippath-18">
         <rect class="cls-5"
               x="314.6685"
               y="101.603"
               width="24.0916"
               height="13.3529"/>
      </clipPath>
      <clipPath id="clippath-19">
         <rect class="cls-5"
               x="314.6685"
               y="101.6028"
               width="24.0915"
               height="13.353"/>
      </clipPath>
      <clipPath id="clippath-20">
         <rect class="cls-5"
               x="41.1151"
               y="101.603"
               width="24.0916"
               height="13.3529"/>
      </clipPath>
      <clipPath id="clippath-21">
         <rect class="cls-5"
               x="41.1151"
               y="101.6028"
               width="24.0915"
               height="13.353"/>
      </clipPath>
      <clipPath id="clippath-22">
         <rect class="cls-5"
               x="151.3744"
               y="122.4575"
               width="13.3529"
               height="24.0916"/>
      </clipPath>
      <clipPath id="clippath-23">
         <rect class="cls-5"
               x="151.3742"
               y="122.4575"
               width="13.353"
               height="24.0915"/>
      </clipPath>
      <clipPath id="clippath-24">
         <rect class="cls-5"
               x="314.6685"
               y="25.2696"
               width="24.0916"
               height="13.3529"/>
      </clipPath>
      <clipPath id="clippath-25">
         <rect class="cls-5"
               x="314.6686"
               y="25.2695"
               width="24.0915"
               height="13.353"/>
      </clipPath>
   </defs>
   <g id="Paths">
      <polyline class="cls-4" points="5.0645 10.2466 350.7912 10.2466 350.7912 110.622"/>
      <line class="cls-4"
            x1="5.0645"
            y1="110.622"
            x2="415.2867"
            y2="110.622"/>
      <line class="cls-4"
            x1="160.3935"
            y1="110.622"
            x2="160.3935"
            y2="158.3844"/>
      <polyline class="cls-4"
                points="350.7912 34.2887 234.3978 34.2887 234.3978 62.5025 302.6375 62.5025 302.6375 109.2831"/>
   </g>
   <g id="Parts">
      <g id="Artwork_22" data-name="Artwork 22">
         <g class="cls-23">
            <polygon class="cls-13"
                     points="2.9917 13.1631 13.1887 10.2554 2.9917 7.3491 2.9917 13.1631"/>
            <g class="cls-17">
               <path class="cls-12"
                     d="m14.6594,9.8954L2.7194,6.4911c-.1102-.0338-.2332-.009-.3285.06-.0952.0713-.1493.183-.1493.3v6.81c0,.117.054.2288.1493.3.066.0487.1455.075.2257.075.0352,0,.069-.0045.1027-.0143l11.94-3.4057c.1605-.0458.2723-.1935.2723-.3608s-.1118-.315-.2723-.36m-11.6677,3.2677v-5.814l10.197,2.9062-10.197,2.9078Z"/>
            </g>
         </g>
      </g>
      <g id="Artwork_22-2" data-name="Artwork 22">
         <g class="cls-7">
            <polygon class="cls-13"
                     points="2.9917 113.5386 13.1887 110.6308 2.9917 107.7246 2.9917 113.5386"/>
            <g class="cls-25">
               <path class="cls-12"
                     d="m14.6594,110.2708l-11.94-3.4043c-.1102-.0338-.2332-.009-.3285.06-.0952.0713-.1493.183-.1493.3v6.81c0,.117.054.2288.1493.3.066.0487.1455.075.2257.075.0352,0,.069-.0045.1027-.0143l11.94-3.4057c.1605-.0458.2723-.1935.2723-.3608s-.1118-.315-.2723-.36m-11.6677,3.2677v-5.814l10.197,2.9062-10.197,2.9078Z"/>
            </g>
         </g>
      </g>
      <g id="Artwork_22-3" data-name="Artwork 22">
         <g class="cls-18">
            <polygon class="cls-13"
                     points="413.8499 113.5386 424.0469 110.6308 413.8499 107.7246 413.8499 113.5386"/>
            <g class="cls-30">
               <path class="cls-12"
                     d="m425.5176,110.2708l-11.94-3.4043c-.1102-.0338-.2332-.009-.3285.06-.0952.0713-.1493.183-.1493.3v6.81c0,.117.054.2288.1493.3.066.0487.1455.075.2257.075.0352,0,.069-.0045.1027-.0143l11.94-3.4057c.1605-.0458.2723-.1935.2723-.3608s-.1118-.315-.2723-.36m-11.6677,3.2677v-5.814l10.197,2.9062-10.197,2.9078Z"/>
            </g>
         </g>
      </g>
      <g id="Artwork_24" data-name="Artwork 24">
         <g class="cls-11">
            <g class="cls-15">
               <path class="cls-13"
                     d="m347.2078,81.43v-18.126c0-.207.1673-.3758.375-.3758h6.804c.2085,0,.375.1688.375.3758v18.126c0,.207-.1665.3757-.375.3757h-6.804c-.2077,0-.375-.1688-.375-.3757"/>
               <path class="cls-12"
                     d="m352.4958,81.4381c0-.1973-.0382-.3968-.1215-.5903l-8.0843-18.87c-.3255-.7612-1.2075-1.1145-1.9688-.7882-.7635.3262-1.1198,1.2045-.7882,1.9702l8.0842,18.87c.3255.7612,1.2067,1.1137,1.9688.7882.57-.2437.9097-.798.9097-1.38"/>
               <path class="cls-13"
                     d="m348.7311,63.3041c0-1.1992.9758-2.1742,2.175-2.1742,1.2,0,2.1758.975,2.1758,2.1742s-.9758,2.1742-2.1758,2.1742c-1.1992,0-2.175-.975-2.175-2.1742"/>
               <path class="cls-12"
                     d="m347.9809,63.3041c0-1.6133,1.3125-2.9258,2.9258-2.9258s2.925,1.3125,2.925,2.9258-1.3125,2.9258-2.925,2.9258-2.9258-1.3125-2.9258-2.9258m5.1008,0c0-1.1992-.9757-2.1742-2.175-2.1742-1.2,0-2.1758.975-2.1758,2.1742s.9758,2.1742,2.1758,2.1742c1.1993,0,2.175-.975,2.175-2.1742"/>
               <path class="cls-13"
                     d="m348.7311,81.5443c0-1.2068.9758-2.1893,2.175-2.1893,1.2,0,2.1758.9825,2.1758,2.1893,0,1.1992-.9758,2.1735-2.1758,2.1735-1.1992,0-2.175-.9742-2.175-2.1735"/>
               <path class="cls-12"
                     d="m347.9809,81.5443c0-1.6215,1.3125-2.9408,2.9258-2.9408s2.925,1.3193,2.925,2.9408c0,1.6125-1.3125,2.925-2.925,2.925s-2.9258-1.3125-2.9258-2.925m5.1008,0c0-1.2068-.9757-2.1893-2.175-2.1893-1.2,0-2.1758.9825-2.1758,2.1893,0,1.1992.9758,2.1735,2.1758,2.1735,1.1993,0,2.175-.9742,2.175-2.1735"/>
            </g>
         </g>
      </g>
      <g id="Artwork_19" data-name="Artwork 19">
         <g class="cls-26">
            <g class="cls-22">
               <path class="cls-13"
                     d="m286.9908,45.6054h-27.806c-1.632,0-2.96,1.329-2.96,2.963v27.783c0,1.634,1.328,2.963,2.96,2.963h27.806c1.634,0,2.963-1.329,2.963-2.963v-27.783c0-1.634-1.329-2.963-2.963-2.963"/>
               <path class="cls-12"
                     d="m282.0176,61.2095v-7.238c0-.414-.336-.75-.75-.75h-3.836l1.504-.752c.254-.127.414-.387.414-.67v-3.699c0-.414-.336-.75-.75-.75s-.75.336-.75.75v3.236l-.621.311v-1.969c0-.414-.336-.75-.75-.75s-.75.336-.75.75v3.027l-7.395-3.697c-.23-.119-.507-.105-.73.031-.221.137-.356.379-.356.639v3.543h-2.988c-.414,0-.75.336-.75.75v7.412c-.168.117-.307.264-.406.445h-3.865v1.5h3.993c.08.102.173.185.278.26v7.391c0,.414.336.75.75.75h4.045l-1.402.701c-.254.127-.414.387-.414.67v3.719c0,.414.336.75.75.75s.75-.336.75-.75v-3.256l.621-.311v1.967c0,.414.336.75.75.75s.75-.336.75-.75v-3.028l7.416,3.7c.105.053.219.078.334.078.137,0,.273-.037.394-.111.221-.137.356-.379.356-.639v-3.49h2.658c.414,0,.75-.336.75-.75v-7.213c.243-.087.443-.24.601-.438h4.321v-1.5h-4.19c-.162-.287-.414-.508-.732-.619m-13.27-10.318l4.659,2.33h-4.659v-2.33Zm0,3.83h4.462l-4.462,2.24v-2.24Zm8.362,19.285l-4.567-2.277h4.567v2.277Zm0-3.777h-4.567l4.567-2.278v2.278Zm3.408-8.601c-.19.234-.319.521-.319.851s.129.621.319.859v6.891h-1.908v-3.49c0-.26-.135-.502-.356-.639-.224-.137-.498-.15-.728-.033l-7.416,3.699v-3.027c0-.414-.336-.75-.75-.75s-.75.336-.75.75v3.49h-3.6v-6.614c.372-.247.629-.653.629-1.136s-.257-.881-.629-1.122v-6.636h2.238v3.457c0,.26.135.502.356.639.121.074.258.111.394.111.116,0,.231-.027.336-.08l7.395-3.714v3.044c0,.414.336.75.75.75s.75-.336.75-.75v-3.457h3.289v6.907Z"/>
               <path class="cls-14"
                     d="m286.6988,44.9498h-27.221c-2.15,0-3.899,1.748-3.899,3.899v27.201c0,2.162,1.749,3.92,3.899,3.92h27.221c2.15,0,3.9-1.758,3.9-3.92v-27.201c0-2.151-1.75-3.899-3.9-3.899m2.9,31.1c0,1.609-1.301,2.92-2.9,2.92h-27.221c-1.598,0-2.899-1.311-2.899-2.92v-27.201c0-1.598,1.301-2.899,2.899-2.899h27.221c1.599,0,2.9,1.301,2.9,2.899v27.201Z"/>
            </g>
         </g>
      </g>
      <g id="Artwork_21" data-name="Artwork 21">
         <g class="cls-31">
            <g class="cls-2">
               <path class="cls-13"
                     d="m286.9908,92.4285h-27.806c-1.632,0-2.96,1.329-2.96,2.963v27.783c0,1.634,1.328,2.963,2.96,2.963h27.806c1.634,0,2.963-1.329,2.963-2.963v-27.783c0-1.634-1.329-2.963-2.963-2.963"/>
               <path class="cls-12"
                     d="m279.7043,114.3286h-6.445v-2.5c0-.277-.223-.5-.5-.5-.278,0-.5.223-.5.5v2.5h-6.16c-.278,0-.5.223-.5.5v6.803c0,.277.222.5.5.5h13.605c.277,0,.5-.223.5-.5v-6.803c0-.277-.223-.5-.5-.5m-13.105,6.803v-5.803h6.15c.004,0,.006.004.01.004.003,0,.006-.004.009-.004h.882l-2.9,5.803h-4.151Zm12.605,0h-7.335l2.9-5.803h4.435v5.803Z"/>
               <path class="cls-12"
                     d="m287.0137,108.517h-6.818c-.248-.396-.684-.661-1.185-.661-.423,0-.797.191-1.053.487l-10.469-1.595c-.409-.063-.792.219-.854.628-.031.2.023.393.132.546-.329.096-.608.306-.788.588h-6.822v1.5h6.822c.248.39.682.65,1.178.65.774,0,1.4-.627,1.4-1.4,0-.336-.123-.64-.32-.881l9.498,1.447c.218.489.706.83,1.276.83.492,0,.923-.255,1.173-.639h6.83v-1.5Z"/>
               <path class="cls-14"
                     d="m286.6988,91.7729h-27.221c-2.15,0-3.899,1.748-3.899,3.899v27.201c0,2.162,1.749,3.92,3.899,3.92h27.221c2.15,0,3.9-1.758,3.9-3.92v-27.201c0-2.151-1.75-3.899-3.9-3.899m2.9,31.1c0,1.609-1.301,2.92-2.9,2.92h-27.221c-1.598,0-2.899-1.311-2.899-2.92v-27.201c0-1.598,1.301-2.899,2.899-2.899h27.221c1.599,0,2.9,1.301,2.9,2.899v27.201Z"/>
            </g>
         </g>
      </g>
      <g id="Artwork_17" data-name="Artwork 17">
         <g class="cls-19">
            <g class="cls-8">
               <path class="cls-13"
                     d="m227.9075,92.4286h-27.806c-1.632,0-2.96,1.329-2.96,2.963v27.783c0,1.634,1.328,2.963,2.96,2.963h27.806c1.634,0,2.963-1.329,2.963-2.963v-27.783c0-1.634-1.329-2.963-2.963-2.963"/>
               <path class="cls-12"
                     d="m226.7445,117.703c-.347-.225-.812-.129-1.038.221-.559.857-1.287,1.341-2.051,1.361-.751-.014-1.446-.396-2.066-1.236-.04-.098-.1-.184-.174-.256-.833-1.205-1.97-1.881-3.208-1.904-1.286-.038-2.424.623-3.317,1.849l-.114.17c-.233.342-.145.809.197,1.043.341.232.808.143,1.042-.195l.107-.162c.576-.793,1.289-1.202,2.057-1.205.695.011,1.363.406,1.98,1.21.021.041.044.083.072.12.008.011.017.025.026.037.013.023.028.045.043.066.053.08.115.172.129.172.842,1.158,1.967,1.791,3.174,1.791h.091c1.254-.033,2.446-.779,3.27-2.045.225-.346.127-.81-.22-1.037"/>
               <path class="cls-12"
                     d="m202.1752,99.2421h10.2c.414,0,.75-.336.75-.75s-.336-.75-.75-.75h-10.2c-.414,0-.75.336-.75.75s.336.75.75.75"/>
               <path class="cls-12"
                     d="m202.1752,102.6425h10.2c.414,0,.75-.336.75-.75s-.336-.75-.75-.75h-10.2c-.414,0-.75.336-.75.75s.336.75.75.75"/>
               <rect class="cls-12"
                     x="191.29"
                     y="108.5331"
                     width="45.4313"
                     height="1.5001"
                     transform="translate(-14.594 183.3332) rotate(-45)"/>
               <path class="cls-14"
                     d="m227.6155,91.773h-27.221c-2.15,0-3.899,1.748-3.899,3.899v27.201c0,2.162,1.749,3.92,3.899,3.92h27.221c2.15,0,3.9-1.758,3.9-3.92v-27.201c0-2.151-1.75-3.899-3.9-3.899m2.9,31.1c0,1.609-1.301,2.92-2.9,2.92h-27.221c-1.598,0-2.899-1.311-2.899-2.92v-27.201c0-1.598,1.301-2.899,2.899-2.899h27.221c1.599,0,2.9,1.301,2.9,2.899v27.201Z"/>
            </g>
         </g>
      </g>
      <g id="Artwork_16" data-name="Artwork 16">
         <g class="cls-28">
            <g class="cls-10">
               <path class="cls-13"
                     d="m120.6779,92.4285h-27.806c-1.632,0-2.96,1.329-2.96,2.963v27.783c0,1.634,1.328,2.963,2.96,2.963h27.806c1.634,0,2.963-1.329,2.963-2.963v-27.783c0-1.634-1.329-2.963-2.963-2.963"/>
               <path class="cls-12"
                     d="m118.6765,116.0818h-10.2c-.414,0-.75.336-.75.75s.336.75.75.75h10.2c.414,0,.75-.336.75-.75s-.336-.75-.75-.75"/>
               <path class="cls-12"
                     d="m118.6765,119.4822h-10.2c-.414,0-.75.336-.75.75s.336.75.75.75h10.2c.414,0,.75-.336.75-.75s-.336-.75-.75-.75"/>
               <path class="cls-12"
                     d="m94.1316,102.6619c.338.227.858.057,1.096-.273.56-.791,1.327-1.166,2.026-1.209.712.009,1.394.412,2.012,1.228.016.033.035.065.056.094.006.01.012.019.019.029.006.01.013.018.019.027.015.026.033.051.05.077.041.064.083.123.122.164.843,1.144,1.97,1.771,3.181,1.771.031,0,.063,0,.093-.002,1.259-.033,2.453-.769,3.277-2.023.228-.346.131-.811-.215-1.039-.347-.231-.813-.131-1.039.215-.557.849-1.291,1.328-2.062,1.349-.739.039-1.461-.394-2.004-1.131-.026-.037-.053-.078-.083-.121-.013-.027-.028-.054-.048-.082-.031-.051-.069-.097-.111-.138-.832-1.204-2.012-1.903-3.247-1.918-1.263.064-2.414.636-3.269,1.837-.005.008-.13.196-.135.202-.225.341-.076.711.262.943"/>
               <rect class="cls-12"
                     x="84.0605"
                     y="108.533"
                     width="45.4313"
                     height="1.5001"
                     transform="translate(-46.0008 107.5104) rotate(-45)"/>
               <path class="cls-14"
                     d="m120.3859,91.7729h-27.221c-2.15,0-3.899,1.748-3.899,3.899v27.201c0,2.162,1.749,3.92,3.899,3.92h27.221c2.15,0,3.9-1.758,3.9-3.92v-27.201c0-2.151-1.75-3.899-3.9-3.899m2.9,31.1c0,1.609-1.301,2.92-2.9,2.92h-27.221c-1.598,0-2.899-1.311-2.899-2.92v-27.201c0-1.598,1.301-2.899,2.899-2.899h27.221c1.599,0,2.9,1.301,2.9,2.899v27.201Z"/>
            </g>
         </g>
      </g>
      <g id="Artwork_18" data-name="Artwork 18">
         <g class="cls-3">
            <g class="cls-29">
               <path class="cls-13"
                     d="m174.2952,159.0396h-27.806c-1.632,0-2.96,1.329-2.96,2.963v27.783c0,1.634,1.328,2.963,2.96,2.963h27.806c1.634,0,2.963-1.329,2.963-2.963v-27.783c0-1.634-1.329-2.963-2.963-2.963"/>
               <path class="cls-14"
                     d="m174.0032,158.384h-27.221c-2.15,0-3.899,1.748-3.899,3.899v27.201c0,2.162,1.749,3.92,3.899,3.92h27.221c2.15,0,3.9-1.758,3.9-3.92v-27.201c0-2.151-1.75-3.899-3.9-3.899m2.9,31.1c0,1.609-1.301,2.92-2.9,2.92h-27.221c-1.598,0-2.899-1.311-2.899-2.92v-27.201c0-1.598,1.301-2.899,2.899-2.899h27.221c1.599,0,2.9,1.301,2.9,2.899v27.201Z"/>
               <path class="cls-12"
                     d="m173.1435,170.0992h-12.01v-5.939h-1.5v5.939h-11.99c-.414,0-.75.336-.75.75s.336.75.75.75h25.5c.414,0,.75-.336.75-.75s-.336-.75-.75-.75"/>
               <path class="cls-12"
                     d="m168.0439,176.6891c.553,0,1-.447,1-1s-.447-1-1-1h-15.299c-.553,0-1,.447-1,1s.447,1,1,1h15.299Z"/>
               <path class="cls-12"
                     d="m173.1435,181.0191h-25.5c-.414,0-.75.336-.75.75s.336.75.75.75h25.5c.414,0,.75-.336.75-.75s-.336-.75-.75-.75"/>
               <path class="cls-12"
                     d="m168.0439,185.6285h-15.299c-.553,0-1,.447-1,1s.447,1,1,1h15.299c.553,0,1-.447,1-1s-.447-1-1-1"/>
            </g>
         </g>
      </g>
      <line class="cls-6"
            x1="326.7143"
            y1="106.2883"
            x2="326.7143"
            y2="38.6225"/>
      <line class="cls-6"
            x1="341.3055"
            y1="72.4238"
            x2="326.7143"
            y2="72.4238"/>
      <g id="Artwork_24-2" data-name="Artwork 24">
         <g class="cls-27">
            <g class="cls-24">
               <path class="cls-13"
                     d="m335.7205,107.5052h-18.126c-.207,0-.3758.1673-.3758.375v6.804c0,.2085.1688.375.3758.375h18.126c.207,0,.3757-.1665.3757-.375v-6.804c0-.2077-.1688-.375-.3757-.375"/>
               <path class="cls-12"
                     d="m335.7286,112.7933c-.1973,0-.3968-.0382-.5903-.1215l-18.87-8.0843c-.7612-.3255-1.1145-1.2075-.7882-1.9688.3262-.7635,1.2045-1.1198,1.9702-.7882l18.87,8.0842c.7612.3255,1.1137,1.2067.7882,1.9688-.2437.57-.798.9097-1.38.9097"/>
               <path class="cls-13"
                     d="m317.5946,109.0286c-1.1992,0-2.1742.9758-2.1742,2.175,0,1.2.975,2.1758,2.1742,2.1758s2.1742-.9758,2.1742-2.1758c0-1.1992-.975-2.175-2.1742-2.175"/>
               <path class="cls-12"
                     d="m317.5946,108.2784c-1.6133,0-2.9258,1.3125-2.9258,2.9258s1.3125,2.925,2.9258,2.925,2.9258-1.3125,2.9258-2.925-1.3125-2.9258-2.9258-2.9258m0,5.1008c-1.1992,0-2.1742-.9757-2.1742-2.175,0-1.2.975-2.1758,2.1742-2.1758s2.1742.9758,2.1742,2.1758c0,1.1993-.975,2.175-2.1742,2.175"/>
               <path class="cls-13"
                     d="m335.8348,109.0286c-1.2068,0-2.1893.9758-2.1893,2.175,0,1.2.9825,2.1758,2.1893,2.1758,1.1992,0,2.1735-.9758,2.1735-2.1758,0-1.1992-.9742-2.175-2.1735-2.175"/>
               <path class="cls-12"
                     d="m335.8348,108.2784c-1.6215,0-2.9408,1.3125-2.9408,2.9258s1.3193,2.925,2.9408,2.925c1.6125,0,2.925-1.3125,2.925-2.925s-1.3125-2.9258-2.925-2.9258m0,5.1008c-1.2068,0-2.1893-.9757-2.1893-2.175,0-1.2.9825-2.1758,2.1893-2.1758,1.1992,0,2.1735.9758,2.1735,2.1758,0,1.1993-.9742,2.175-2.1735,2.175"/>
            </g>
         </g>
      </g>
      <g id="Artwork_24-3" data-name="Artwork 24">
         <g class="cls-1">
            <g class="cls-16">
               <path class="cls-13"
                     d="m62.1671,107.5052h-18.126c-.207,0-.3758.1673-.3758.375v6.804c0,.2085.1688.375.3758.375h18.126c.207,0,.3757-.1665.3757-.375v-6.804c0-.2077-.1688-.375-.3757-.375"/>
               <path class="cls-12"
                     d="m62.1752,112.7933c-.1973,0-.3968-.0382-.5903-.1215l-18.87-8.0843c-.7612-.3255-1.1145-1.2075-.7882-1.9688.3262-.7635,1.2045-1.1198,1.9702-.7882l18.87,8.0842c.7612.3255,1.1137,1.2067.7882,1.9688-.2437.57-.798.9097-1.38.9097"/>
               <path class="cls-13"
                     d="m44.0412,109.0286c-1.1992,0-2.1742.9758-2.1742,2.175,0,1.2.975,2.1758,2.1742,2.1758s2.1742-.9758,2.1742-2.1758c0-1.1992-.975-2.175-2.1742-2.175"/>
               <path class="cls-12"
                     d="m44.0412,108.2784c-1.6133,0-2.9258,1.3125-2.9258,2.9258s1.3125,2.925,2.9258,2.925,2.9258-1.3125,2.9258-2.925-1.3125-2.9258-2.9258-2.9258m0,5.1008c-1.1992,0-2.1742-.9757-2.1742-2.175,0-1.2.975-2.1758,2.1742-2.1758s2.1742.9758,2.1742,2.1758c0,1.1993-.975,2.175-2.1742,2.175"/>
               <path class="cls-13"
                     d="m62.2814,109.0286c-1.2068,0-2.1893.9758-2.1893,2.175,0,1.2.9825,2.1758,2.1893,2.1758,1.1992,0,2.1735-.9758,2.1735-2.1758,0-1.1992-.9742-2.175-2.1735-2.175"/>
               <path class="cls-12"
                     d="m62.2814,108.2784c-1.6215,0-2.9408,1.3125-2.9408,2.9258s1.3193,2.925,2.9408,2.925c1.6125,0,2.925-1.3125,2.925-2.925s-1.3125-2.9258-2.925-2.9258m0,5.1008c-1.2068,0-2.1893-.9757-2.1893-2.175,0-1.2.9825-2.1758,2.1893-2.1758,1.1992,0,2.1735.9758,2.1735,2.1758,0,1.1993-.9742,2.175-2.1735,2.175"/>
            </g>
         </g>
      </g>
      <g id="Artwork_24-4" data-name="Artwork 24">
         <g class="cls-21">
            <g class="cls-32">
               <path class="cls-13"
                     d="m157.2766,125.4971v18.126c0,.207.1673.3758.375.3758h6.804c.2085,0,.375-.1688.375-.3758v-18.126c0-.207-.1665-.3757-.375-.3757h-6.804c-.2077,0-.375.1688-.375.3757"/>
               <path class="cls-12"
                     d="m162.5647,125.489c0,.1973-.0382.3968-.1215.5903l-8.0843,18.87c-.3255.7612-1.2075,1.1145-1.9688.7882-.7635-.3262-1.1198-1.2045-.7882-1.9702l8.0842-18.87c.3255-.7612,1.2067-1.1137,1.9688-.7882.57.2437.9097.798.9097,1.38"/>
               <path class="cls-13"
                     d="m158.8,143.623c0,1.1992.9758,2.1742,2.175,2.1742,1.2,0,2.1758-.975,2.1758-2.1742s-.9758-2.1742-2.1758-2.1742c-1.1992,0-2.175.975-2.175,2.1742"/>
               <path class="cls-12"
                     d="m158.0498,143.623c0,1.6133,1.3125,2.9258,2.9258,2.9258s2.925-1.3125,2.925-2.9258-1.3125-2.9258-2.925-2.9258-2.9258,1.3125-2.9258,2.9258m5.1008,0c0,1.1992-.9757,2.1742-2.175,2.1742-1.2,0-2.1758-.975-2.1758-2.1742s.9758-2.1742,2.1758-2.1742c1.1993,0,2.175.975,2.175,2.1742"/>
               <path class="cls-13"
                     d="m158.8,125.3828c0,1.2068.9758,2.1893,2.175,2.1893,1.2,0,2.1758-.9825,2.1758-2.1893,0-1.1992-.9758-2.1735-2.1758-2.1735-1.1992,0-2.175.9742-2.175,2.1735"/>
               <path class="cls-12"
                     d="m158.0498,125.3828c0,1.6215,1.3125,2.9408,2.9258,2.9408s2.925-1.3193,2.925-2.9408c0-1.6125-1.3125-2.925-2.925-2.925s-2.9258,1.3125-2.9258,2.925m5.1008,0c0,1.2068-.9757,2.1893-2.175,2.1893-1.2,0-2.1758-.9825-2.1758-2.1893,0-1.1992.9758-2.1735,2.1758-2.1735,1.1993,0,2.175.9742,2.175,2.1735"/>
            </g>
         </g>
      </g>
      <g id="Artwork_24-5" data-name="Artwork 24">
         <g class="cls-20">
            <g class="cls-9">
               <path class="cls-13"
                     d="m317.7081,31.1719h18.126c.207,0,.3758.1673.3758.375v6.804c0,.2085-.1688.375-.3758.375h-18.126c-.207,0-.3757-.1665-.3757-.375v-6.804c0-.2077.1688-.375.3757-.375"/>
               <path class="cls-12"
                     d="m317.7,36.4599c.1973,0,.3968-.0382.5903-.1215l18.87-8.0843c.7612-.3255,1.1145-1.2075.7882-1.9688-.3262-.7635-1.2045-1.1198-1.9702-.7882l-18.87,8.0842c-.7612.3255-1.1137,1.2067-.7882,1.9688.2437.57.798.9097,1.38.9097"/>
               <path class="cls-13"
                     d="m335.8341,32.6952c1.1992,0,2.1742.9758,2.1742,2.175,0,1.2-.975,2.1758-2.1742,2.1758s-2.1742-.9758-2.1742-2.1758c0-1.1992.975-2.175,2.1742-2.175"/>
               <path class="cls-12"
                     d="m335.8341,31.9451c1.6133,0,2.9258,1.3125,2.9258,2.9258s-1.3125,2.925-2.9258,2.925-2.9258-1.3125-2.9258-2.925,1.3125-2.9258,2.9258-2.9258m0,5.1008c1.1992,0,2.1742-.9757,2.1742-2.175,0-1.2-.975-2.1758-2.1742-2.1758s-2.1742.9758-2.1742,2.1758c0,1.1993.975,2.175,2.1742,2.175"/>
               <path class="cls-13"
                     d="m317.5938,32.6952c1.2068,0,2.1893.9758,2.1893,2.175,0,1.2-.9825,2.1758-2.1893,2.1758-1.1992,0-2.1735-.9758-2.1735-2.1758,0-1.1992.9742-2.175,2.1735-2.175"/>
               <path class="cls-12"
                     d="m317.5938,31.9451c1.6215,0,2.9408,1.3125,2.9408,2.9258s-1.3193,2.925-2.9408,2.925c-1.6125,0-2.925-1.3125-2.925-2.925s1.3125-2.9258,2.925-2.9258m0,5.1008c1.2068,0,2.1893-.9757,2.1893-2.175,0-1.2-.9825-2.1758-2.1893-2.1758-1.1992,0-2.1735.9758-2.1735,2.1758,0,1.1993.9742,2.175,2.1735,2.175"/>
            </g>
         </g>
      </g>
   </g>
</svg>
