<?xml version="1.0" encoding="UTF-8"?>
<svg xmlns="http://www.w3.org/2000/svg"
     xmlns:xlink="http://www.w3.org/1999/xlink"
 id="Parts"
     width="12.3541mm"
     height="12.3472mm"
     viewBox="0 0 35.0195 35">
   <defs>
      <style>
      .cls-1 {
        fill: none;
      }

      .cls-1, .cls-2, .cls-3, .cls-4 {
        stroke-width: 0px;
      }

      .cls-2 {
        fill: #01889c;
      }

      .cls-5 {
        clip-path: url(#clippath-1);
      }

      .cls-3 {
        fill: #fff;
      }

      .cls-6 {
        clip-path: url(#clippath);
      }

      .cls-4 {
        fill: #243746;
      }
    </style>
      <clipPath id="clippath">
         <rect class="cls-1" width="35.0195" height="35"/>
      </clipPath>
      <clipPath id="clippath-1">
         <rect class="cls-1" width="35.02" height="35"/>
      </clipPath>
   </defs>
   <g id="Artwork_21" data-name="Artwork 21">
      <g class="cls-6">
         <g class="cls-5">
            <path class="cls-3"
                  d="m31.4115.6454H3.6055C1.9735.6454.6455,1.9744.6455,3.6084v27.783c0,1.634,1.328,2.963,2.96,2.963h27.806c1.634,0,2.963-1.329,2.963-2.963V3.6084c0-1.634-1.329-2.963-2.963-2.963"/>
            <path class="cls-2"
                  d="m24.125,22.5455h-6.445v-2.5c0-.277-.223-.5-.5-.5-.278,0-.5.223-.5.5v2.5h-6.16c-.278,0-.5.223-.5.5v6.803c0,.277.222.5.5.5h13.605c.277,0,.5-.223.5-.5v-6.803c0-.277-.223-.5-.5-.5m-13.105,6.803v-5.803h6.15c.004,0,.006.004.01.004.003,0,.006-.004.009-.004h.882l-2.9,5.803h-4.151Zm12.605,0h-7.335l2.9-5.803h4.435v5.803Z"/>
            <path class="cls-2"
                  d="m31.4344,16.7339h-6.818c-.248-.396-.684-.661-1.185-.661-.423,0-.797.191-1.053.487l-10.469-1.595c-.409-.063-.792.219-.854.628-.031.2.023.393.132.546-.329.096-.608.306-.788.588H3.5774v1.5h6.822c.248.39.682.65,1.178.65.774,0,1.4-.627,1.4-1.4,0-.336-.123-.64-.32-.881l9.498,1.447c.218.489.706.83,1.276.83.492,0,.923-.255,1.173-.639h6.83v-1.5Z"/>
            <path class="cls-4"
                  d="m31.1195-.0102H3.8985C1.7485-.0102-.0005,1.7378-.0005,3.8888v27.201c0,2.162,1.749,3.92,3.899,3.92h27.221c2.15,0,3.9-1.758,3.9-3.92V3.8888C35.0195,1.7378,33.2695-.0102,31.1195-.0102m2.9,31.1c0,1.609-1.301,2.92-2.9,2.92H3.8985c-1.598,0-2.899-1.311-2.899-2.92V3.8888C.9995,2.2908,2.3005.9898,3.8985.9898h27.221c1.599,0,2.9,1.301,2.9,2.899v27.201Z"/>
         </g>
      </g>
   </g>
</svg>
