<?xml version="1.0" encoding="UTF-8"?>
<svg xmlns="http://www.w3.org/2000/svg"
     width="108.1393mm"
     height="24.8493mm"
     viewBox="0 0 306.5366 70.439">
   <defs>
      <style>
      .cls-1 {
        font-size: 20px;
      }

      .cls-1, .cls-5 {
        font-family: ArialMT, Arial;
      }

      .cls-2, .cls-3, .cls-6, .cls-7 {
        fill: none;
      }

      .cls-2 {
        stroke: #fff;
      }

      .cls-2, .cls-3, .cls-4 {
        stroke-linecap: round;
      }

      .cls-3, .cls-4 {
        stroke: #000;
      }

      .cls-3, .cls-6 {
        stroke-width: 0.5px;
      }

      .cls-4 {
        stroke-width: 0.106px;
      }

      .cls-5 {
        isolation: isolate;
        font-size: 16px;
        fill: #fff;
      }

      .cls-6, .cls-7 {
        stroke: #231f20;
      }

      .cls-7 {
        stroke-width: 0.5912px;
      }
    </style>
   </defs>
   <g id="Layer_7" data-name="Layer 7">
      <g id="ATTRIB">
         <text class="cls-1" transform="translate(1.1072 16.7345)">Reality SDC 220-630-R</text>
      </g>
      <g>
         <line class="cls-2"
               x1="49.3999"
               y1="28.439"
               x2="49.3999"
               y2="59.5347"/>
         <line class="cls-3"
               x1="49.3999"
               y1="59.5347"
               x2="49.3999"
               y2="28.439"/>
         <circle class="cls-4" cx="49.3999" cy="59.5347" r="9.5"/>
         <text class="cls-5" transform="translate(45.3999 65.0667)">J</text>
      </g>
      <g>
         <line class="cls-2"
               x1="192.248"
               y1="20.3902"
               x2="192.248"
               y2="59.5347"/>
         <line class="cls-3"
               x1="192.248"
               y1="59.5347"
               x2="192.248"
               y2="28.439"/>
         <circle class="cls-4" cx="192.248" cy="59.5347" r="9.5"/>
         <text class="cls-5" transform="translate(185.5842 65.0667)">M</text>
      </g>
      <g>
         <line class="cls-2"
               x1="120.6385"
               y1="28.439"
               x2="120.6385"
               y2="59.5347"/>
         <line class="cls-3"
               x1="120.6385"
               y1="59.5347"
               x2="120.6385"
               y2="28.439"/>
         <circle class="cls-4" cx="120.6385" cy="59.5347" r="9.5"/>
         <text class="cls-5" transform="translate(115.3027 65.0667)">K</text>
      </g>
      <g>
         <line class="cls-2"
               x1="161.4946"
               y1="28.439"
               x2="161.4946"
               y2="59.5347"/>
         <line class="cls-3"
               x1="161.4946"
               y1="59.5347"
               x2="161.4946"
               y2="28.439"/>
         <circle class="cls-4" cx="161.4946" cy="59.5347" r="9.5"/>
         <text class="cls-5" transform="translate(157.0456 65.0667)">L</text>
      </g>
      <polyline class="cls-6"
                points="100.012 20.39 100.012 28.439 3.281 28.439 3.281 20.39"/>
      <polyline class="cls-6"
                points="134.796 20.39 134.796 28.439 106.481 28.439 106.481 20.39"/>
      <polyline class="cls-6"
                points="175.652 20.39 175.652 28.439 147.337 28.439 147.337 20.39"/>
      <polyline class="cls-7"
                points="197.663 20.39 197.663 28.439 186.833 28.439 186.833 20.39"/>
   </g>
</svg>
