<?xml version="1.0" encoding="UTF-8"?>
<svg xmlns="http://www.w3.org/2000/svg"
     xmlns:xlink="http://www.w3.org/1999/xlink"
 id="Callouts"
     width="9.9556mm"
     height="7.4579mm"
     viewBox="0 0 28.2207 21.1406">
   <defs>
      <style>
      .cls-1 {
        fill: none;
      }

      .cls-1, .cls-2 {
        stroke-width: 0px;
      }

      .cls-2 {
        fill: #01889c;
      }

      .cls-3 {
        clip-path: url(#clippath-1);
      }

      .cls-4 {
        clip-path: url(#clippath);
      }
    </style>
      <clipPath id="clippath">
         <rect class="cls-1" width="28.2207" height="21.1406"/>
      </clipPath>
      <clipPath id="clippath-1">
         <rect class="cls-1" y="-.0004" width="28.221" height="21.141"/>
      </clipPath>
   </defs>
   <g id="Artwork_36" data-name="Artwork 36">
      <g class="cls-4">
         <g class="cls-3">
            <path class="cls-2"
                  d="m26.1191,21.1406h-15.52c-.277,0-.5-.223-.5-.5s.223-.5.5-.5h15.52c.598,0,1.102-.494,1.102-1.08V4.0796c0-.595-.495-1.08-1.102-1.08h-1.859c-.278,0-.5-.222-.5-.5v-.4c0-.605-.485-1.1-1.08-1.1h-1.821c-.595,0-1.08.495-1.08,1.1v.4c0,.278-.222.5-.5.5h-10.439c-.278,0-.5-.222-.5-.5v-.4c0-.605-.485-1.1-1.08-1.1h-1.821c-.595,0-1.08.495-1.08,1.1v.4c0,.278-.222.5-.5.5h-1.779c-.606,0-1.08.475-1.08,1.08v14.981c0,.596.484,1.08,1.08,1.08h3.98c.278,0,.5.223.5.5s-.222.5-.5.5h-3.98C.9331,21.1406.0001,20.2066.0001,19.0606V4.0796C.0001,2.9136.9141,1.9996,2.0801,1.9996h1.281C3.4141.8886,4.3261-.0004,5.4391-.0004h1.821C8.3731-.0004,9.2851.8886,9.3381,1.9996h9.443C18.8341.8886,19.7461-.0004,20.8591-.0004h1.821C23.7931-.0004,24.7051.8886,24.7581,1.9996h1.361c1.158,0,2.102.934,2.102,2.08v14.981c0,1.146-.944,2.08-2.102,2.08"/>
            <path class="cls-2"
                  d="m26.3629,3.8989h-1.478c-.145,0-.261.223-.261.5v14.375c0,.277.116.5.261.5h1.478c.145,0,.261-.223.261-.5V4.3989c0-.277-.116-.5-.261-.5"/>
            <path class="cls-2"
                  d="m23.8043,3.8989h-1.478c-.145,0-.261.223-.261.5v14.375c0,.277.116.5.261.5h1.478c.145,0,.261-.223.261-.5V4.3989c0-.277-.116-.5-.261-.5"/>
            <path class="cls-2"
                  d="m21.2458,3.8989h-1.478c-.145,0-.261.223-.261.5v14.375c0,.277.116.5.261.5h1.478c.145,0,.261-.223.261-.5V4.3989c0-.277-.116-.5-.261-.5"/>
            <path class="cls-2"
                  d="m18.6873,3.8989h-1.478c-.145,0-.261.223-.261.5v14.375c0,.277.116.5.261.5h1.478c.145,0,.261-.223.261-.5V4.3989c0-.277-.116-.5-.261-.5"/>
            <path class="cls-2"
                  d="m16.1288,3.8989h-1.478c-.145,0-.261.223-.261.5v14.375c0,.277.116.5.261.5h1.478c.145,0,.261-.223.261-.5V4.3989c0-.277-.116-.5-.261-.5"/>
            <path class="cls-2"
                  d="m13.5703,3.8989h-1.478c-.145,0-.261.223-.261.5v14.375c0,.277.116.5.261.5h1.478c.145,0,.261-.223.261-.5V4.3989c0-.277-.116-.5-.261-.5"/>
            <path class="cls-2"
                  d="m11.0117,3.8989h-1.478c-.145,0-.261.223-.261.5v14.375c0,.277.116.5.261.5h1.478c.145,0,.261-.223.261-.5V4.3989c0-.277-.116-.5-.261-.5"/>
            <path class="cls-2"
                  d="m8.4532,3.8989h-1.478c-.145,0-.261.223-.261.5v14.375c0,.277.116.5.261.5h1.478c.145,0,.261-.223.261-.5V4.3989c0-.277-.116-.5-.261-.5"/>
            <path class="cls-2"
                  d="m5.8947,3.8989h-1.478c-.145,0-.261.223-.261.5v14.375c0,.277.116.5.261.5h1.478c.145,0,.261-.223.261-.5V4.3989c0-.277-.116-.5-.261-.5"/>
            <path class="cls-2"
                  d="m3.3362,3.8989h-1.478c-.145,0-.261.223-.261.5v14.375c0,.277.116.5.261.5h1.478c.145,0,.261-.223.261-.5V4.3989c0-.277-.116-.5-.261-.5"/>
         </g>
      </g>
   </g>
</svg>
