<?xml version="1.0" encoding="UTF-8"?>
<svg xmlns="http://www.w3.org/2000/svg"
     xmlns:xlink="http://www.w3.org/1999/xlink"
 id="Layer_1"
     data-name="Layer 1"
     width="120mm"
     height="38.3352mm"
     viewBox="0 0 340.1575 108.6667">
   <defs>
      <style>
      .cls-1, .cls-12, .cls-16, .cls-17, .cls-18, .cls-24, .cls-25, .cls-26, .cls-27, .cls-28, .cls-29, .cls-30, .cls-32, .cls-33, .cls-34, .cls-35, .cls-4, .cls-5, .cls-6, .cls-9 {
        fill: none;
      }

      .cls-2 {
        clip-path: url(#clip-path);
      }

      .cls-11, .cls-3 {
        fill-rule: evenodd;
      }

      .cls-12, .cls-16, .cls-17, .cls-18, .cls-4, .cls-9 {
        stroke: #000;
      }

      .cls-12, .cls-16, .cls-17, .cls-18, .cls-23, .cls-24, .cls-25, .cls-26, .cls-27, .cls-28, .cls-29, .cls-30, .cls-32, .cls-33, .cls-34, .cls-35, .cls-4, .cls-5, .cls-9 {
        stroke-miterlimit: 3;
      }

      .cls-4 {
        stroke-width: 0.5px;
      }

      .cls-23, .cls-24, .cls-25, .cls-26, .cls-27, .cls-28, .cls-29, .cls-30, .cls-32, .cls-33, .cls-34, .cls-35, .cls-5, .cls-6 {
        stroke: #010101;
      }

      .cls-12, .cls-24, .cls-25, .cls-26, .cls-27, .cls-28, .cls-29, .cls-30, .cls-32, .cls-33, .cls-34, .cls-35, .cls-5, .cls-6 {
        stroke-width: 0.75px;
      }

      .cls-6 {
        stroke-miterlimit: 10;
      }

      .cls-7 {
        clip-path: url(#clip-path-3);
      }

      .cls-11, .cls-23, .cls-8 {
        fill: #fff;
      }

      .cls-9 {
        stroke-width: 0.7087px;
      }

      .cls-10 {
        clip-path: url(#clip-path-6);
      }

      .cls-13 {
        clip-path: url(#clip-path-8);
      }

      .cls-14 {
        clip-path: url(#clip-path-10);
      }

      .cls-15 {
        clip-path: url(#clip-path-11);
      }

      .cls-16, .cls-18 {
        stroke-width: 0.7513px;
      }

      .cls-17 {
        stroke-width: 1.2522px;
      }

      .cls-18 {
        stroke-dasharray: 2.0034 1.0017;
      }

      .cls-19 {
        clip-path: url(#clip-path-13);
      }

      .cls-20 {
        clip-path: url(#clip-path-15);
      }

      .cls-21 {
        font-size: 10px;
        font-family: Arial-BoldMT, Arial;
        font-weight: 700;
      }

      .cls-21, .cls-22 {
        fill: #58ba5a;
      }

      .cls-23 {
        stroke-width: 0.7418px;
      }

      .cls-24 {
        stroke-dasharray: 1.8956 0.9478;
      }

      .cls-25 {
        stroke-dasharray: 1.9105 0.9553;
      }

      .cls-26 {
        stroke-dasharray: 2.1748 1.0874;
      }

      .cls-27 {
        stroke-dasharray: 2.1748 1.0874;
      }

      .cls-28 {
        stroke-dasharray: 2.0523 1.0262;
      }

      .cls-29 {
        stroke-dasharray: 2.1002 1.0501;
      }

      .cls-30 {
        stroke-dasharray: 1.9563 0.9781;
      }

      .cls-31 {
        fill: #010101;
      }

      .cls-32 {
        stroke-dasharray: 1.8935 0.9467;
      }

      .cls-33 {
        stroke-dasharray: 2.1069 1.0534;
      }

      .cls-34 {
        stroke-dasharray: 1.8969 0.9484;
      }

      .cls-35 {
        stroke-dasharray: 1.2714 0.6357;
      }
    </style>
      <clipPath id="clip-path">
         <rect class="cls-1"
               x="156.0479"
               y="83.1864"
               width="4.5709"
               height="4.5819"/>
      </clipPath>
      <clipPath id="clip-path-3">
         <rect class="cls-1"
               x="103.0249"
               y="65.4464"
               width="35.4357"
               height="39.688"/>
      </clipPath>
      <clipPath id="clip-path-6">
         <rect class="cls-1"
               x="308.0231"
               y="82.2376"
               width="6.125"
               height="6.125"/>
      </clipPath>
      <clipPath id="clip-path-8">
         <rect class="cls-1"
               x="32.9813"
               y="82.2376"
               width="6.125"
               height="6.125"/>
      </clipPath>
      <clipPath id="clip-path-10">
         <rect class="cls-1"
               x="32.9932"
               y="19.8007"
               width="15.6504"
               height="14.7535"/>
      </clipPath>
      <clipPath id="clip-path-11">
         <rect class="cls-1"
               x="32.9932"
               y="19.8008"
               width="15.6509"
               height="14.7534"/>
      </clipPath>
      <clipPath id="clip-path-13">
         <rect class="cls-1"
               x="65.6672"
               y="19.0439"
               width="16.63"
               height="16.2683"/>
      </clipPath>
      <clipPath id="clip-path-15">
         <rect class="cls-1"
               x="65.6672"
               y="77.166"
               width="16.63"
               height="16.2683"/>
      </clipPath>
   </defs>
   <g id="shape116-109">
      <g class="cls-2">
         <g class="cls-2">
            <path class="cls-3"
                  d="M158.333,84.4741a1.003,1.003,0,1,1-1,1.003,1.001,1.001,0,0,1,1-1.003"/>
            <circle class="cls-4" cx="158.333" cy="85.4771" r="1"/>
         </g>
      </g>
   </g>
   <path class="cls-5" d="M311.0669,85.3622H81.2864"/>
   <path class="cls-5" d="M66.3986,85.3622H36.9449"/>
   <polyline class="cls-6" points="158.333 85.477 158.333 27.359 81.286 27.24"/>
   <line class="cls-6"
         x1="65.7742"
         y1="27.2401"
         x2="48.6436"
         y2="27.2401"/>
   <g id="Rectifier">
      <g class="cls-7">
         <rect class="cls-8"
               x="103.7346"
               y="68.2822"
               width="34.0183"
               height="34.0183"/>
         <g class="cls-7">
            <rect class="cls-9"
                  x="103.7346"
                  y="68.2822"
                  width="34.0183"
                  height="34.0183"/>
            <line class="cls-9"
                  x1="137.7501"
                  y1="68.2799"
                  x2="103.7328"
                  y2="102.2982"/>
         </g>
         <line class="cls-9"
               x1="134.0321"
               y1="94.8562"
               x2="124.4692"
               y2="94.8562"/>
         <line class="cls-9"
               x1="126.7207"
               y1="96.9824"
               x2="124.4699"
               y2="96.9824"/>
         <line class="cls-9"
               x1="130.3764"
               y1="96.9824"
               x2="128.1255"
               y2="96.9824"/>
         <line class="cls-9"
               x1="134.0321"
               y1="96.9824"
               x2="131.7812"
               y2="96.9824"/>
         <g class="cls-7">
            <path class="cls-9"
                  d="M107.4867,74.1807a2.1879,2.1879,0,0,1,2.1261-2.0061c1.0414,0,1.871.53,2.1262,2.0061a2.1381,2.1381,0,0,0,2.1261,2.0043,2.2981,2.2981,0,0,0,2.1262-2.0043"/>
         </g>
      </g>
   </g>
   <g id="Artwork_13" data-name="Artwork 13">
      <g class="cls-10">
         <g class="cls-10">
            <path class="cls-11"
                  d="M311.0855,83.3005a2,2,0,1,1-2,2,2.0007,2.0007,0,0,1,2-2"/>
            <circle class="cls-12" cx="311.0855" cy="85.3005" r="2"/>
         </g>
      </g>
   </g>
   <g id="Artwork_13-2" data-name="Artwork 13">
      <g class="cls-13">
         <g class="cls-13">
            <path class="cls-11"
                  d="M36.0437,83.3005a2,2,0,1,1-2,2,2.0007,2.0007,0,0,1,2-2"/>
            <circle class="cls-12" cx="36.0437" cy="85.3005" r="2"/>
         </g>
      </g>
   </g>
   <g id="Artwork_8" data-name="Artwork 8">
      <g class="cls-14">
         <g class="cls-15">
            <line class="cls-16"
                  x1="35.6296"
                  y1="34.5621"
                  x2="35.6296"
                  y2="19.8088"/>
            <line class="cls-17"
                  x1="33.6116"
                  y1="31.4278"
                  x2="33.6116"
                  y2="22.9432"/>
         </g>
         <line class="cls-18"
               x1="35.3958"
               y1="27.1773"
               x2="46.3767"
               y2="27.1773"/>
         <g class="cls-15">
            <line class="cls-16"
                  x1="48.3948"
                  y1="34.5542"
                  x2="48.3948"
                  y2="19.8008"/>
         </g>
         <line class="cls-17"
               x1="46.3766"
               y1="31.4195"
               x2="46.3766"
               y2="22.9349"/>
      </g>
   </g>
   <g id="Artwork_20_no_white" data-name="Artwork 20 no white">
      <g class="cls-19">
         <g class="cls-19">
            <line class="cls-12"
                  x1="66.6673"
                  y1="33.9554"
                  x2="81.2973"
                  y2="27.1894"/>
            <path d="M81.2972,28.1937h0a1,1,0,1,1,1-1,1.0029,1.0029,0,0,1-1,1"/>
            <path d="M66.6673,28.1937h0a1,1,0,1,1,1-1,1.0029,1.0029,0,0,1-1,1"/>
         </g>
      </g>
   </g>
   <g id="Artwork_20_no_white-2" data-name="Artwork 20 no white">
      <g class="cls-20">
         <g class="cls-20">
            <line class="cls-12"
                  x1="66.6673"
                  y1="92.0775"
                  x2="81.2973"
                  y2="85.3115"/>
            <path d="M81.2972,86.3158h0a1,1,0,1,1,1-1,1.0029,1.0029,0,0,1-1,1"/>
            <path d="M66.6673,86.3158h0a1,1,0,1,1,1-1,1.0029,1.0029,0,0,1-1,1"/>
         </g>
      </g>
   </g>
   <text class="cls-21" transform="translate(19.5294 15.1774)">BATTERY</text>
   <text class="cls-21" transform="translate(9.6547 63.2908)">RECTIFIER<tspan x="10.2783" y="12">MAINS</tspan>
   </text>
   <text class="cls-21" transform="translate(93.9512 63.2906)">RECTIFIER</text>
   <g>
      <path class="cls-22"
            d="M200.5093,51.7122l-2.5586-7.1582h1.5674l1.8115,5.2969,1.7529-5.2969h1.5332l-2.5635,7.1582Z"/>
      <path class="cls-22"
            d="M205.06,48.1771a4.5464,4.5464,0,0,1,.3271-1.836,3.3647,3.3647,0,0,1,.6665-.9824,2.8066,2.8066,0,0,1,.9253-.6445,3.9355,3.9355,0,0,1,1.543-.2832,3.3616,3.3616,0,0,1,2.5317.9824,4.3852,4.3852,0,0,1,.0073,5.4414,3.7651,3.7651,0,0,1-5.0586.0049A3.6958,3.6958,0,0,1,205.06,48.1771Zm1.4892-.0488a2.681,2.681,0,0,0,.5615,1.8427,1.9294,1.9294,0,0,0,2.8443.0049,2.7334,2.7334,0,0,0,.5542-1.8672,2.69,2.69,0,0,0-.54-1.8359,2,2,0,0,0-2.8735.0068A2.7049,2.7049,0,0,0,206.5493,48.1283Z"/>
      <path class="cls-22" d="M213.17,51.7122v-7.1h1.4453v5.8926H218.21v1.207Z"/>
      <path class="cls-22"
            d="M220.8511,51.7122V45.765h-2.124V44.554h5.6884v1.211h-2.1191v5.9472Z"/>
      <path class="cls-22"
            d="M231.8032,51.7122H230.231l-.625-1.6269h-2.8614l-.5908,1.6269h-1.5332l2.7881-7.1582h1.5283Zm-2.6611-2.832-.9863-2.6562L227.189,48.88Z"/>
      <path class="cls-22"
            d="M235.9,49.0794V47.8743h3.1152v2.8516a3.9125,3.9125,0,0,1-1.3159.7734,4.7945,4.7945,0,0,1-1.7456.334,3.9143,3.9143,0,0,1-1.958-.4707,2.9983,2.9983,0,0,1-1.2549-1.3476,4.3554,4.3554,0,0,1-.42-1.9063A4.1242,4.1242,0,0,1,232.79,46.12a3.154,3.154,0,0,1,1.372-1.332,3.6936,3.6936,0,0,1,1.7139-.3574,3.4231,3.4231,0,0,1,2.0825.56,2.5222,2.5222,0,0,1,.9644,1.5459l-1.4356.2675a1.5146,1.5146,0,0,0-.5688-.832,1.7221,1.7221,0,0,0-1.0425-.3047,1.958,1.958,0,0,0-1.5064.6,2.533,2.533,0,0,0-.559,1.7832,2.802,2.802,0,0,0,.5664,1.9112,1.8915,1.8915,0,0,0,1.4843.6377,2.502,2.502,0,0,0,.9107-.1788,3.083,3.083,0,0,0,.7837-.4326v-.9082Z"/>
      <path class="cls-22"
            d="M240.3481,51.7122V44.554h5.3077v1.211h-3.8623v1.5859h3.5937v1.207h-3.5937v1.9473h3.999v1.207Z"/>
      <path class="cls-22"
            d="M198.1191,56.554h2.6416a5.13,5.13,0,0,1,1.3623.1368,2.3867,2.3867,0,0,1,1.0791.6582,3.1376,3.1376,0,0,1,.6836,1.16,5.2793,5.2793,0,0,1,.2344,1.6914,4.6988,4.6988,0,0,1-.22,1.5235,3.1583,3.1583,0,0,1-.7666,1.2656,2.54,2.54,0,0,1-1.0156.57,4.3455,4.3455,0,0,1-1.2793.1523h-2.72Zm1.4454,1.211v4.74h1.0791a3.9171,3.9171,0,0,0,.874-.0684,1.3365,1.3365,0,0,0,.5835-.2968,1.5221,1.5221,0,0,0,.3784-.6914,4.67,4.67,0,0,0,.1465-1.3106,4.2871,4.2871,0,0,0-.1465-1.2754,1.64,1.64,0,0,0-.41-.6933,1.3747,1.3747,0,0,0-.6689-.336,6.5214,6.5214,0,0,0-1.1865-.0683Z"/>
      <path class="cls-22"
            d="M205.3506,63.7122V56.554h3.042a5.2291,5.2291,0,0,1,1.6675.1924,1.6418,1.6418,0,0,1,.8325.6865,2.0568,2.0568,0,0,1,.3125,1.127,1.9123,1.9123,0,0,1-.4737,1.3311,2.27,2.27,0,0,1-1.416.6611,3.372,3.372,0,0,1,.774.6015,8.14,8.14,0,0,1,.8227,1.1622l.874,1.3964h-1.7285l-1.0449-1.5586a10.1591,10.1591,0,0,0-.7617-1.0517,1.1037,1.1037,0,0,0-.4346-.2979,2.3854,2.3854,0,0,0-.7275-.08h-.293v2.9882Zm1.4453-4.1308h1.0693a5.5212,5.5212,0,0,0,1.2989-.0879.7827.7827,0,0,0,.4052-.3027.9327.9327,0,0,0,.1465-.5372.86.86,0,0,0-.1929-.5839.8832.8832,0,0,0-.5444-.2813q-.1758-.0234-1.0547-.0234h-1.1279Z"/>
      <path class="cls-22"
            d="M212.2744,60.1771a4.5464,4.5464,0,0,1,.3272-1.836,3.3628,3.3628,0,0,1,.6665-.9824,2.8056,2.8056,0,0,1,.9253-.6445,3.935,3.935,0,0,1,1.5429-.2832,3.3619,3.3619,0,0,1,2.5318.9824,4.3852,4.3852,0,0,1,.0073,5.4414,3.7651,3.7651,0,0,1-5.0586.0049A3.6959,3.6959,0,0,1,212.2744,60.1771Zm1.4893-.0488a2.681,2.681,0,0,0,.5615,1.8427,1.9293,1.9293,0,0,0,2.8442.0049,2.7329,2.7329,0,0,0,.5542-1.8672,2.69,2.69,0,0,0-.54-1.8359,2,2,0,0,0-2.8736.0068A2.7054,2.7054,0,0,0,213.7637,60.1283Z"/>
      <path class="cls-22"
            d="M220.3457,63.7122V56.554h2.3193a8.3586,8.3586,0,0,1,1.7188.1075,1.8732,1.8732,0,0,1,1.03.7,2.2216,2.2216,0,0,1,.415,1.3935,2.3381,2.3381,0,0,1-.2393,1.1094,1.9693,1.9693,0,0,1-.6079.7051,2.1011,2.1011,0,0,1-.7495.34,8.264,8.264,0,0,1-1.499.1016h-.9424v2.7011Zm1.4453-5.9472v2.0312h.791a3.7153,3.7153,0,0,0,1.1426-.1133.9414.9414,0,0,0,.4517-.3515.9619.9619,0,0,0,.1635-.5567.9277.9277,0,0,0-.2294-.6445.9982.9982,0,0,0-.5811-.3164,6.8544,6.8544,0,0,0-1.04-.0488Z"/>
      <path class="cls-22"
            d="M227.0156,63.7122V56.554h2.3194a8.3574,8.3574,0,0,1,1.7187.1075,1.8729,1.8729,0,0,1,1.03.7,2.2216,2.2216,0,0,1,.415,1.3935,2.3393,2.3393,0,0,1-.2392,1.1094,1.97,1.97,0,0,1-.6079.7051,2.1007,2.1007,0,0,1-.75.34,8.264,8.264,0,0,1-1.499.1016h-.9424v2.7011Zm1.4453-5.9472v2.0312h.7911a3.715,3.715,0,0,0,1.1425-.1133.9414.9414,0,0,0,.4517-.3515.962.962,0,0,0,.1636-.5567.9278.9278,0,0,0-.23-.6445.9982.9982,0,0,0-.5811-.3164,6.8535,6.8535,0,0,0-1.04-.0488Z"/>
      <path class="cls-22"
            d="M233.6855,63.7122V56.554h5.3077v1.211h-3.8623v1.5859h3.5937v1.207h-3.5937v1.9473h3.999v1.207Z"/>
      <path class="cls-22"
            d="M240.36,63.7122V56.554h3.0419a5.2287,5.2287,0,0,1,1.6675.1924,1.6414,1.6414,0,0,1,.8325.6865,2.0568,2.0568,0,0,1,.3125,1.127,1.9127,1.9127,0,0,1-.4736,1.3311,2.27,2.27,0,0,1-1.416.6611,3.3692,3.3692,0,0,1,.7739.6015,8.1381,8.1381,0,0,1,.8228,1.1622l.874,1.3964h-1.7285l-1.0449-1.5586a10.1385,10.1385,0,0,0-.7618-1.0517,1.1034,1.1034,0,0,0-.4345-.2979,2.3861,2.3861,0,0,0-.7276-.08h-.2929v2.9882Zm1.4453-4.1308h1.0693a5.52,5.52,0,0,0,1.2988-.0879.783.783,0,0,0,.4053-.3027.9327.9327,0,0,0,.1465-.5372.86.86,0,0,0-.1929-.5839.8832.8832,0,0,0-.5444-.2813q-.1758-.0234-1.0547-.0234h-1.1279Z"/>
   </g>
   <text class="cls-21" transform="translate(290.5318 73.2996)">OUTPUT</text>
   <rect class="cls-23"
         x="168.8014"
         y="68.345"
         width="106.6432"
         height="34.0157"/>
   <g>
      <line class="cls-5"
            x1="190.6841"
            y1="79.5872"
            x2="191.6841"
            y2="79.5872"/>
      <line class="cls-24"
            x1="192.6318"
            y1="79.5872"
            x2="212.0615"
            y2="79.5872"/>
      <line class="cls-5"
            x1="212.5354"
            y1="79.5872"
            x2="213.5354"
            y2="79.5872"/>
   </g>
   <polyline class="cls-5"
             points="190.684 79.587 175.344 79.587 175.344 92.088 175.344 92.088 213.535 92.088 213.535 79.587"/>
   <g id="group112-100">
      <g id="shape114-103">
         <g>
            <line class="cls-5"
                  x1="210.6886"
                  y1="73.9214"
                  x2="210.6886"
                  y2="74.9214"/>
            <line class="cls-25"
                  x1="210.6886"
                  y1="75.8767"
                  x2="210.6886"
                  y2="83.9963"/>
            <line class="cls-5"
                  x1="210.6886"
                  y1="84.4739"
                  x2="210.6886"
                  y2="85.4739"/>
         </g>
      </g>
      <g id="shape113-101">
         <g>
            <polygon class="cls-8"
                     points="210.884 79.587 199.379 85.363 199.379 73.811 210.884 79.587"/>
            <g>
               <polyline class="cls-5" points="209.99 79.138 210.884 79.587 209.99 80.036"/>
               <line class="cls-26"
                     x1="209.0187"
                     y1="80.5237"
                     x2="200.7584"
                     y2="84.6708"/>
               <polyline class="cls-5" points="200.272 84.915 199.379 85.363 199.379 84.363"/>
               <line class="cls-25"
                     x1="199.3788"
                     y1="83.4082"
                     x2="199.3788"
                     y2="75.2885"/>
               <polyline class="cls-5" points="199.379 74.811 199.379 73.811 200.272 74.26"/>
               <line class="cls-27"
                     x1="201.2443"
                     y1="74.7475"
                     x2="209.5046"
                     y2="78.8945"/>
            </g>
         </g>
      </g>
   </g>
   <g>
      <line class="cls-5"
            x1="246.0504"
            y1="79.5872"
            x2="245.0504"
            y2="79.5872"/>
      <line class="cls-28"
            x1="244.0243"
            y1="79.5872"
            x2="232.2235"
            y2="79.5872"/>
      <polyline class="cls-5" points="231.71 79.587 230.71 79.587 230.71 80.587"/>
      <line class="cls-29"
            x1="230.7105"
            y1="81.6373"
            x2="230.7105"
            y2="90.5631"/>
      <polyline class="cls-5" points="230.71 91.088 230.71 92.088 231.71 92.088"/>
      <line class="cls-30"
            x1="232.6886"
            y1="92.0881"
            x2="267.4128"
            y2="92.0881"/>
      <line class="cls-5"
            x1="267.9018"
            y1="92.0881"
            x2="268.9018"
            y2="92.0881"/>
   </g>
   <g id="group112-100-2" data-name="group112-100">
      <g id="shape114-103-2" data-name="shape114-103">
         <g>
            <line class="cls-5"
                  x1="243.6827"
                  y1="73.9214"
                  x2="243.6827"
                  y2="74.9214"/>
            <line class="cls-25"
                  x1="243.6827"
                  y1="75.8767"
                  x2="243.6827"
                  y2="83.9963"/>
            <line class="cls-5"
                  x1="243.6827"
                  y1="84.4739"
                  x2="243.6827"
                  y2="85.4739"/>
         </g>
      </g>
      <g id="shape113-101-2" data-name="shape113-101">
         <g>
            <polygon class="cls-8"
                     points="243.878 79.587 232.373 85.363 232.373 73.811 243.878 79.587"/>
            <path class="cls-31"
                  d="M233.1229,76.8109h-.75v2h.75v-2Zm0,3h-.75v2h.75v-2Zm0,3h-.75v2h.2233l.1766.3517,1.7874-.8973-.3365-.67-1.1008.5527V82.8109Zm3.7818-.5619-1.7874.8973.3366.67,1.7873-.8973-.3365-.67Zm2.6811-1.346-1.7874.8973.3365.67,1.7874-.8974-.3365-.67Zm2.8863-2.0218-.3365.67.0711.0357-1.7272.8671.3365.67,1.7874-.8974-.2959-.5894.735.369.8358-.42h0l-.6381-.32h0l-.7681-.3856Zm-2.6811-1.346-.3365.67,1.7874.8974.3365-.67-1.7874-.8973Zm-2.681-1.3461-.3366.67,1.7874.8973.3365-.67-1.7873-.8974Zm-2.6811-1.346-.3365.67,1.7874.8973.3365-.67-.866-.4348-.0012-.0006-.0027-.0014-.9175-.4606Zm-2.056-1.0322V74.65h0v1.1608h.75v-.7843l.0758.0381.3365-.67-.4123-.207h0l-.75-.3765Z"/>
         </g>
      </g>
   </g>
   <g>
      <rect class="cls-8"
            x="244.6145"
            y="90.3315"
            width="10.3958"
            height="3.5802"/>
      <g>
         <line class="cls-5"
               x1="244.602"
               y1="96.9327"
               x2="245.5096"
               y2="96.513"/>
         <line class="cls-32"
               x1="246.3689"
               y1="96.1156"
               x2="253.673"
               y2="92.7379"/>
         <line class="cls-5"
               x1="254.1027"
               y1="92.5392"
               x2="255.0103"
               y2="92.1195"/>
      </g>
      <rect class="cls-31"
            x="243.8905"
            y="91.4102"
            width="1.4229"
            height="1.4229"
            rx="0.7114"/>
      <rect class="cls-31"
            x="254.2989"
            y="91.4102"
            width="1.4229"
            height="1.4229"
            rx="0.7114"/>
   </g>
   <g>
      <line class="cls-5"
            x1="246.0504"
            y1="79.5872"
            x2="247.0504"
            y2="79.5872"/>
      <line class="cls-24"
            x1="247.9982"
            y1="79.5872"
            x2="267.4279"
            y2="79.5872"/>
      <line class="cls-5"
            x1="267.9018"
            y1="79.5872"
            x2="268.9018"
            y2="79.5872"/>
   </g>
   <g>
      <line class="cls-5"
            x1="268.9018"
            y1="92.1216"
            x2="268.9018"
            y2="91.1216"/>
      <line class="cls-33"
            x1="268.9018"
            y1="90.0682"
            x2="268.9018"
            y2="81.1139"/>
      <line class="cls-5"
            x1="268.9018"
            y1="80.5872"
            x2="268.9018"
            y2="79.5872"/>
   </g>
   <g id="group112-100-3" data-name="group112-100">
      <g id="shape114-103-3" data-name="shape114-103">
         <g>
            <line class="cls-5"
                  x1="266.055"
                  y1="73.9214"
                  x2="266.055"
                  y2="74.9214"/>
            <line class="cls-25"
                  x1="266.055"
                  y1="75.8767"
                  x2="266.055"
                  y2="83.9963"/>
            <line class="cls-5"
                  x1="266.055"
                  y1="84.4739"
                  x2="266.055"
                  y2="85.4739"/>
         </g>
      </g>
      <g id="shape113-101-3" data-name="shape113-101">
         <g>
            <polygon class="cls-8"
                     points="266.251 79.587 254.745 85.363 254.745 73.811 266.251 79.587"/>
            <g>
               <polyline class="cls-5" points="265.357 79.138 266.251 79.587 265.357 80.036"/>
               <line class="cls-26"
                     x1="264.3851"
                     y1="80.5237"
                     x2="256.1247"
                     y2="84.6708"/>
               <polyline class="cls-5" points="255.639 84.915 254.745 85.363 254.745 84.363"/>
               <line class="cls-25"
                     x1="254.7451"
                     y1="83.4082"
                     x2="254.7451"
                     y2="75.2885"/>
               <polyline class="cls-5" points="254.745 74.811 254.745 73.811 255.639 74.26"/>
               <line class="cls-27"
                     x1="256.6106"
                     y1="74.7475"
                     x2="264.871"
                     y2="78.8945"/>
            </g>
         </g>
      </g>
   </g>
   <g>
      <line class="cls-5"
            x1="170.8014"
            y1="85.2083"
            x2="175.3441"
            y2="85.2083"/>
      <rect class="cls-31"
            x="174.6327"
            y="84.4969"
            width="1.4229"
            height="1.4229"
            rx="0.7114"/>
      <rect class="cls-31"
            x="212.824"
            y="84.4969"
            width="1.4229"
            height="1.4229"
            rx="0.7114"/>
      <g>
         <line class="cls-5"
               x1="213.5354"
               y1="85.2083"
               x2="214.5354"
               y2="85.2083"/>
         <line class="cls-34"
               x1="215.4839"
               y1="85.2083"
               x2="229.2363"
               y2="85.2083"/>
         <line class="cls-5"
               x1="229.7105"
               y1="85.2083"
               x2="230.7105"
               y2="85.2083"/>
      </g>
      <g>
         <line class="cls-5"
               x1="268.9018"
               y1="85.2904"
               x2="269.9018"
               y2="85.2904"/>
         <line class="cls-35"
               x1="270.5375"
               y1="85.2904"
               x2="272.1267"
               y2="85.2904"/>
         <line class="cls-5"
               x1="272.4445"
               y1="85.2904"
               x2="273.4445"
               y2="85.2904"/>
      </g>
      <rect class="cls-31"
            x="229.999"
            y="84.4969"
            width="1.4229"
            height="1.4229"
            rx="0.7114"/>
      <rect class="cls-31"
            x="268.1904"
            y="84.5789"
            width="1.4229"
            height="1.4229"
            rx="0.7114"/>
   </g>
   <g>
      <rect class="cls-8"
            x="189.2482"
            y="90.3315"
            width="10.3958"
            height="3.5802"/>
      <path class="cls-5" d="M189.2356,96.9327,199.6439,92.12"/>
      <rect class="cls-31"
            x="188.5242"
            y="91.4102"
            width="1.4229"
            height="1.4229"
            rx="0.7114"/>
      <rect class="cls-31"
            x="198.9325"
            y="91.4102"
            width="1.4229"
            height="1.4229"
            rx="0.7114"/>
   </g>
   <g id="group112-100-4" data-name="group112-100">
      <g id="shape114-103-4" data-name="shape114-103">
         <path class="cls-5" d="M188.3163,73.9214V85.474"/>
      </g>
      <g id="shape113-101-4" data-name="shape113-101">
         <g>
            <polygon class="cls-8"
                     points="177.382 74.418 187.676 79.587 177.382 84.756 177.382 74.418"/>
            <path class="cls-31"
                  d="M177.7565,75.0266l9.0838,4.5606-9.0838,4.5605V75.0266m-.75-1.2157V85.3634l11.5054-5.7762-11.5054-5.7763Z"/>
         </g>
      </g>
   </g>
</svg>
