<?xml version="1.0" encoding="UTF-8"?>
<!-- Generator: PTC Arbortext IsoDraw 7.4 M001 -->
<svg xmlns="http://www.w3.org/2000/svg" xmlns:xlink="http://www.w3.org/1999/xlink" width="120mm" height="84.65mm" viewBox="0 0 120 84.65" fill-rule="evenodd" clip-rule="evenodd" stroke="#000000" stroke-linecap="round" fill="none" xml:space="preserve" preserveAspectRatio="xMidYMid meet" zoomAndPan="magnify" version="1.1" contentScriptType="text/ecmascript" contentStyleType="text/css">
 <g id="Standard_x0020_layer">
 </g>
 <g id="120mm_x0020_hidden_x0020_Schneider_x0020_layer_x0020_for_x0020_editor">
  <polygon stroke="none" points="0 75.638 0 84.638 120 84.638 120 75.638 0 75.638"/>
 </g>
 <g id="photo">
 </g>
 <g id="cutout_x0020_layer">
  <polygon stroke-width="0.106" points="0.837 0.053 0.837 84.304 118.763 84.304 118.763 0.053 0.837 0.053"/>
  <g>
   <polygon stroke-width="0.106" points="15.723 69.484 15.723 77.177 32.323 77.177 32.323 69.484 15.723 69.484"/>
   <polygon stroke-width="0.106" points="17.458 79.201 32.323 79.201 32.323 69.484 17.458 69.484 17.458 79.201"/>
   <polygon stroke-width="0.106" points="17.458 69.484 17.458 79.201 21.275 79.201 21.275 69.484 17.458 69.484"/>
   <polygon stroke-width="0.106" points="21.275 69.484 21.275 79.201 24.89 79.201 24.89 69.484 21.275 69.484"/>
   <polygon stroke-width="0.106" points="24.89 69.484 24.89 79.201 28.621 79.201 28.621 69.484 24.89 69.484"/>
  </g>
  <g>
   <polygon stroke-width="0.106" points="32.697 69.484 32.697 77.177 49.296 77.177 49.296 69.484 32.697 69.484"/>
   <polygon stroke-width="0.106" points="34.432 79.201 49.296 79.201 49.296 69.484 34.432 69.484 34.432 79.201"/>
   <polygon stroke-width="0.106" points="34.432 69.484 34.432 79.201 38.25 79.201 38.25 69.484 34.432 69.484"/>
   <polygon stroke-width="0.106" points="38.25 69.484 38.25 79.201 41.865 79.201 41.865 69.484 38.25 69.484"/>
   <polygon stroke-width="0.106" points="41.865 69.484 41.865 79.201 45.594 79.201 45.594 69.484 41.865 69.484"/>
  </g>
  <g>
   <polygon stroke-width="0.106" points="49.738 69.503 49.738 77.135 58.911 77.135 58.911 69.503 49.738 69.503"/>
   <polygon stroke-width="0.106" points="51.655 69.503 51.655 79.052 55.283 79.052 55.283 69.503 51.655 69.503"/>
   <polygon stroke-width="0.106" points="58.911 69.503 55.283 69.503 55.283 79.052 58.911 79.052 58.911 69.503"/>
   <polygon stroke-width="0.106" points="55.865 77.512 55.865 78.504 58.432 78.504 58.432 77.512 55.865 77.512"/>
   <polygon stroke-width="0.106" points="52.1 77.512 52.1 78.606 54.735 78.606 54.735 77.512 52.1 77.512"/>
  </g>
  <polygon stroke-width="0.106" points="42.581 77.569 42.581 78.665 45.216 78.665 45.216 77.569 42.581 77.569"/>
  <polygon stroke-width="0.106" points="46.07 77.605 46.07 78.7 48.706 78.7 48.706 77.605 46.07 77.605"/>
  <polygon stroke-width="0.106" points="38.822 77.558 38.822 78.653 41.457 78.653 41.457 77.558 38.822 77.558"/>
  <polygon stroke-width="0.106" points="35.031 77.561 35.031 78.658 37.667 78.658 37.667 77.561 35.031 77.561"/>
  <polygon stroke-width="0.106" points="18.083 77.522 18.083 78.617 20.719 78.617 20.719 77.522 18.083 77.522"/>
  <polygon stroke-width="0.106" points="21.821 77.522 21.821 78.617 24.457 78.617 24.457 77.522 21.821 77.522"/>
  <polygon stroke-width="0.106" points="25.547 77.522 25.547 78.617 28.181 78.617 28.181 77.522 25.547 77.522"/>
  <polygon stroke-width="0.106" points="29.068 77.522 29.068 78.617 31.702 78.617 31.702 77.522 29.068 77.522"/>
  <g>
   <polygon stroke-width="0.106" points="59.323 69.566 59.323 77.197 68.495 77.197 68.495 69.566 59.323 69.566"/>
   <polygon stroke-width="0.106" points="61.238 69.566 61.238 79.114 64.867 79.114 64.867 69.566 61.238 69.566"/>
   <polygon stroke-width="0.106" points="68.495 69.566 64.867 69.566 64.867 79.114 68.495 79.114 68.495 69.566"/>
   <polygon stroke-width="0.106" points="65.448 77.573 65.448 78.566 68.016 78.566 68.016 77.573 65.448 77.573"/>
   <polygon stroke-width="0.106" points="61.683 77.573 61.683 78.668 64.319 78.668 64.319 77.573 61.683 77.573"/>
  </g>
  <g>
   <polygon stroke-width="0.106" points="70.147 69.507 70.147 77.174 83.085 77.174 83.085 69.507 70.147 69.507"/>
   <polygon stroke-width="0.106" points="72.064 69.507 72.064 79.125 83.153 79.125 83.153 69.507 72.064 69.507"/>
   <polygon stroke-width="0.106" points="75.692 69.507 75.692 79.125 79.492 79.125 79.492 69.507 75.692 69.507"/>
   <polygon stroke-width="0.106" points="72.543 77.558 72.543 78.6 75.161 78.6 75.161 77.558 72.543 77.558"/>
   <polygon stroke-width="0.106" points="76.313 77.558 76.313 78.647 78.93 78.647 78.93 77.558 76.313 77.558"/>
   <polygon stroke-width="0.106" points="79.953 77.643 79.953 78.733 82.569 78.733 82.569 77.643 79.953 77.643"/>
  </g>
  <g>
   <polygon stroke-width="0.106" points="83.421 69.531 83.421 77.198 96.358 77.198 96.358 69.531 83.421 69.531"/>
   <polygon stroke-width="0.106" points="85.337 69.531 85.337 79.149 96.427 79.149 96.427 69.531 85.337 69.531"/>
   <polygon stroke-width="0.106" points="88.965 69.531 88.965 79.149 92.765 79.149 92.765 69.531 88.965 69.531"/>
   <polygon stroke-width="0.106" points="85.817 77.581 85.817 78.626 88.435 78.626 88.435 77.581 85.817 77.581"/>
   <polygon stroke-width="0.106" points="89.587 77.581 89.587 78.673 92.204 78.673 92.204 77.581 89.587 77.581"/>
   <polygon stroke-width="0.106" points="93.225 77.667 93.225 78.757 95.843 78.757 95.843 77.667 93.225 77.667"/>
  </g>
  <g>
   <polygon stroke-width="0.106" points="96.753 69.498 96.753 77.165 109.689 77.165 109.689 69.498 96.753 69.498"/>
   <polygon stroke-width="0.106" points="98.668 69.498 98.668 79.115 109.757 79.115 109.757 69.498 98.668 69.498"/>
   <polygon stroke-width="0.106" points="102.296 69.498 102.296 79.115 106.096 79.115 106.096 69.498 102.296 69.498"/>
   <polygon stroke-width="0.106" points="99.147 77.549 99.147 78.593 101.766 78.593 101.766 77.549 99.147 77.549"/>
   <polygon stroke-width="0.106" points="102.918 77.549 102.918 78.638 105.534 78.638 105.534 77.549 102.918 77.549"/>
   <polygon stroke-width="0.106" points="106.557 77.634 106.557 78.724 109.174 78.724 109.174 77.634 106.557 77.634"/>
  </g>
  <g>
   <polygon stroke-width="0.106" points="7.998 34.445 7.998 50.975 15.528 50.975 15.528 34.445 7.998 34.445"/>
   <polygon stroke-width="0.106" points="6.117 36.292 6.117 40.024 15.528 40.024 15.528 36.292 6.117 36.292"/>
   <polygon stroke-width="0.106" points="6.117 40.024 6.117 43.753 15.528 43.753 15.528 40.024 6.117 40.024"/>
   <polygon stroke-width="0.106" points="6.062 43.658 6.062 47.387 15.474 47.387 15.474 43.658 6.062 43.658"/>
   <polygon stroke-width="0.106" points="6.097 47.359 6.097 51.091 15.509 51.091 15.509 47.359 6.097 47.359"/>
   <polygon stroke-width="0.106" points="6.562 36.798 6.562 39.35 7.493 39.35 7.493 36.798 6.562 36.798"/>
   <polygon stroke-width="0.106" points="6.562 40.518 6.562 43.07 7.493 43.07 7.493 40.518 6.562 40.518"/>
   <polygon stroke-width="0.106" points="6.562 44.262 6.562 46.814 7.493 46.814 7.493 44.262 6.562 44.262"/>
   <polygon stroke-width="0.106" points="6.562 47.893 6.562 50.445 7.493 50.445 7.493 47.893 6.562 47.893"/>
  </g>
  <g>
   <polygon stroke-width="0.106" points="7.998 51.475 7.998 68.006 15.528 68.006 15.528 51.475 7.998 51.475"/>
   <polygon stroke-width="0.106" points="6.117 53.323 6.117 57.052 15.528 57.052 15.528 53.323 6.117 53.323"/>
   <polygon stroke-width="0.106" points="6.117 57.052 6.117 60.783 15.528 60.783 15.528 57.052 6.117 57.052"/>
   <polygon stroke-width="0.106" points="6.062 60.688 6.062 64.418 15.474 64.418 15.474 60.688 6.062 60.688"/>
   <polygon stroke-width="0.106" points="6.097 64.39 6.097 68.12 15.509 68.12 15.509 64.39 6.097 64.39"/>
   <polygon stroke-width="0.106" points="6.562 53.829 6.562 56.38 7.493 56.38 7.493 53.829 6.562 53.829"/>
   <polygon stroke-width="0.106" points="6.562 57.548 6.562 60.1 7.493 60.1 7.493 57.548 6.562 57.548"/>
   <polygon stroke-width="0.106" points="6.562 61.292 6.562 63.844 7.493 63.844 7.493 61.292 6.562 61.292"/>
   <polygon stroke-width="0.106" points="6.562 64.924 6.562 67.475 7.493 67.475 7.493 64.924 6.562 64.924"/>
  </g>
  <polygon stroke-width="0.106" points="72.256 44.512 72.256 66.822 79.731 66.822 79.731 44.512 72.256 44.512"/>
  <polygon stroke-width="0.106" points="85.486 44.539 85.486 66.847 92.962 66.847 92.962 44.539 85.486 44.539"/>
  <polygon stroke-width="0.106" points="98.715 44.529 98.715 66.838 106.191 66.838 106.191 44.529 98.715 44.529"/>
  <polygon stroke-width="0.106" points="43.027 2.262 43.027 8.712 76.164 8.712 76.164 2.262 43.027 2.262"/>
  <polygon stroke-width="0.106" points="43.027 2.262 43.027 8.712 76.164 8.712 76.164 2.262 43.027 2.262"/>
  <g>
   <path stroke-width="0.2" d="M58.914 65.218C58.914 63.076 57.176 61.338 55.033 61.338C52.89 61.338 51.152 63.076 51.152 65.218C51.152 67.362 52.89 69.099 55.033 69.099C57.176 69.099 58.914 67.362 58.914 65.218"/>
  </g>
  <g>
   <path stroke-width="0.2" d="M67.174 65.147C67.174 63.003 65.436 61.267 63.293 61.267C61.151 61.267 59.412 63.003 59.412 65.147C59.412 67.29 61.151 69.028 63.293 69.028C65.436 69.028 67.174 67.29 67.174 65.147"/>
  </g>
  <g>
   <g>
    <path stroke-width="0.106" d="M9.977 38.198C9.977 37.74 9.605 37.368 9.147 37.368C8.689 37.368 8.317 37.74 8.317 38.198C8.317 38.656 8.689 39.029 9.147 39.029C9.605 39.029 9.977 38.656 9.977 38.198"/>
   </g>
   <g>
    <path stroke-width="0.106" d="M9.977 41.795C9.977 41.338 9.605 40.966 9.147 40.966C8.689 40.966 8.317 41.338 8.317 41.795C8.317 42.255 8.689 42.625 9.147 42.625C9.605 42.625 9.977 42.255 9.977 41.795"/>
   </g>
   <g>
    <path stroke-width="0.106" d="M9.977 45.484C9.977 45.026 9.605 44.654 9.147 44.654C8.689 44.654 8.317 45.026 8.317 45.484C8.317 45.942 8.689 46.314 9.147 46.314C9.605 46.314 9.977 45.942 9.977 45.484"/>
   </g>
   <g>
    <path stroke-width="0.106" d="M9.977 49.078C9.977 48.618 9.605 48.247 9.147 48.247C8.689 48.247 8.317 48.618 8.317 49.078C8.317 49.536 8.689 49.908 9.147 49.908C9.605 49.908 9.977 49.536 9.977 49.078"/>
   </g>
  </g>
  <g>
   <g>
    <path stroke-width="0.106" d="M10.005 55.039C10.005 54.581 9.632 54.209 9.175 54.209C8.715 54.209 8.345 54.581 8.345 55.039C8.345 55.497 8.715 55.868 9.175 55.868C9.632 55.868 10.005 55.497 10.005 55.039"/>
   </g>
   <g>
    <path stroke-width="0.106" d="M10.005 58.637C10.005 58.177 9.632 57.807 9.175 57.807C8.715 57.807 8.345 58.177 8.345 58.637C8.345 59.094 8.715 59.466 9.175 59.466C9.632 59.466 10.005 59.094 10.005 58.637"/>
   </g>
   <g>
    <path stroke-width="0.106" d="M10.005 62.325C10.005 61.865 9.632 61.494 9.175 61.494C8.715 61.494 8.345 61.865 8.345 62.325C8.345 62.783 8.715 63.155 9.175 63.155C9.632 63.155 10.005 62.783 10.005 62.325"/>
   </g>
   <g>
    <path stroke-width="0.106" d="M10.005 65.918C10.005 65.459 9.632 65.087 9.175 65.087C8.715 65.087 8.345 65.459 8.345 65.918C8.345 66.376 8.715 66.748 9.175 66.748C9.632 66.748 10.005 66.376 10.005 65.918"/>
   </g>
  </g>
  <g>
   <g>
    <path stroke-width="0.106" d="M20.158 75.933C20.158 75.474 19.786 75.102 19.329 75.102C18.87 75.102 18.498 75.474 18.498 75.933C18.498 76.391 18.87 76.763 19.329 76.763C19.786 76.763 20.158 76.391 20.158 75.933"/>
   </g>
   <g>
    <path stroke-width="0.106" d="M23.756 75.933C23.756 75.474 23.385 75.102 22.925 75.102C22.468 75.102 22.096 75.474 22.096 75.933C22.096 76.391 22.468 76.763 22.925 76.763C23.385 76.763 23.756 76.391 23.756 75.933"/>
   </g>
   <g>
    <path stroke-width="0.106" d="M27.443 75.933C27.443 75.474 27.073 75.102 26.614 75.102C26.155 75.102 25.783 75.474 25.783 75.933C25.783 76.391 26.155 76.763 26.614 76.763C27.073 76.763 27.443 76.391 27.443 75.933"/>
   </g>
   <g>
    <path stroke-width="0.106" d="M31.038 75.933C31.038 75.474 30.666 75.102 30.207 75.102C29.748 75.102 29.378 75.474 29.378 75.933C29.378 76.391 29.748 76.763 30.207 76.763C30.666 76.763 31.038 76.391 31.038 75.933"/>
   </g>
  </g>
  <g>
   <g>
    <path stroke-width="0.106" d="M37.262 75.933C37.262 75.474 36.892 75.102 36.432 75.102C35.975 75.102 35.603 75.474 35.603 75.933C35.603 76.391 35.975 76.763 36.432 76.763C36.892 76.763 37.262 76.391 37.262 75.933"/>
   </g>
   <g>
    <path stroke-width="0.106" d="M40.86 75.933C40.86 75.474 40.488 75.102 40.03 75.102C39.572 75.102 39.201 75.474 39.201 75.933C39.201 76.391 39.572 76.763 40.03 76.763C40.488 76.763 40.86 76.391 40.86 75.933"/>
   </g>
   <g>
    <path stroke-width="0.106" d="M44.548 75.933C44.548 75.474 44.176 75.102 43.719 75.102C43.259 75.102 42.889 75.474 42.889 75.933C42.889 76.391 43.259 76.763 43.719 76.763C44.176 76.763 44.548 76.391 44.548 75.933"/>
   </g>
   <g>
    <path stroke-width="0.106" d="M48.142 75.933C48.142 75.474 47.771 75.102 47.311 75.102C46.853 75.102 46.481 75.474 46.481 75.933C46.481 76.391 46.853 76.763 47.311 76.763C47.771 76.763 48.142 76.391 48.142 75.933"/>
   </g>
  </g>
  <g>
   <g>
    <path stroke-width="0.106" d="M74.777 75.933C74.777 75.474 74.405 75.102 73.947 75.102C73.487 75.102 73.117 75.474 73.117 75.933C73.117 76.391 73.487 76.763 73.947 76.763C74.405 76.763 74.777 76.391 74.777 75.933"/>
   </g>
   <g>
    <path stroke-width="0.106" d="M78.465 75.933C78.465 75.474 78.093 75.102 77.635 75.102C77.176 75.102 76.805 75.474 76.805 75.933C76.805 76.391 77.176 76.763 77.635 76.763C78.093 76.763 78.465 76.391 78.465 75.933"/>
   </g>
   <g>
    <path stroke-width="0.106" d="M82.058 75.933C82.058 75.474 81.686 75.102 81.227 75.102C80.769 75.102 80.397 75.474 80.397 75.933C80.397 76.391 80.769 76.763 81.227 76.763C81.686 76.763 82.058 76.391 82.058 75.933"/>
   </g>
  </g>
  <g>
   <g>
    <path stroke-width="0.106" d="M87.819 75.933C87.819 75.474 87.447 75.102 86.989 75.102C86.531 75.102 86.159 75.474 86.159 75.933C86.159 76.391 86.531 76.763 86.989 76.763C87.447 76.763 87.819 76.391 87.819 75.933"/>
   </g>
   <g>
    <path stroke-width="0.106" d="M91.507 75.933C91.507 75.474 91.135 75.102 90.677 75.102C90.219 75.102 89.847 75.474 89.847 75.933C89.847 76.391 90.219 76.763 90.677 76.763C91.135 76.763 91.507 76.391 91.507 75.933"/>
   </g>
   <g>
    <path stroke-width="0.106" d="M95.102 75.933C95.102 75.474 94.73 75.102 94.272 75.102C93.813 75.102 93.441 75.474 93.441 75.933C93.441 76.391 93.813 76.763 94.272 76.763C94.73 76.763 95.102 76.391 95.102 75.933"/>
   </g>
  </g>
  <g>
   <g>
    <path stroke-width="0.106" d="M101.084 75.933C101.084 75.474 100.712 75.102 100.254 75.102C99.796 75.102 99.424 75.474 99.424 75.933C99.424 76.391 99.796 76.763 100.254 76.763C100.712 76.763 101.084 76.391 101.084 75.933"/>
   </g>
   <g>
    <path stroke-width="0.106" d="M104.772 75.933C104.772 75.474 104.4 75.102 103.942 75.102C103.483 75.102 103.112 75.474 103.112 75.933C103.112 76.391 103.483 76.763 103.942 76.763C104.4 76.763 104.772 76.391 104.772 75.933"/>
   </g>
   <g>
    <path stroke-width="0.106" d="M108.365 75.933C108.365 75.474 107.995 75.102 107.536 75.102C107.078 75.102 106.706 75.474 106.706 75.933C106.706 76.391 107.078 76.763 107.536 76.763C107.995 76.763 108.365 76.391 108.365 75.933"/>
   </g>
  </g>
  <g>
   <g>
    <path stroke-width="0.106" d="M54.115 75.933C54.115 75.474 53.743 75.102 53.286 75.102C52.828 75.102 52.456 75.474 52.456 75.933C52.456 76.391 52.828 76.763 53.286 76.763C53.743 76.763 54.115 76.391 54.115 75.933"/>
   </g>
   <g>
    <path stroke-width="0.106" d="M57.804 75.933C57.804 75.474 57.432 75.102 56.973 75.102C56.515 75.102 56.143 75.474 56.143 75.933C56.143 76.391 56.515 76.763 56.973 76.763C57.432 76.763 57.804 76.391 57.804 75.933"/>
   </g>
  </g>
  <g>
   <g>
    <path stroke-width="0.106" d="M63.741 75.933C63.741 75.474 63.371 75.102 62.911 75.102C62.454 75.102 62.082 75.474 62.082 75.933C62.082 76.391 62.454 76.763 62.911 76.763C63.371 76.763 63.741 76.391 63.741 75.933"/>
   </g>
   <g>
    <path stroke-width="0.106" d="M67.43 75.933C67.43 75.474 67.058 75.102 66.599 75.102C66.141 75.102 65.769 75.474 65.769 75.933C65.769 76.391 66.141 76.763 66.599 76.763C67.058 76.763 67.43 76.391 67.43 75.933"/>
   </g>
  </g>
  <g>
   <path stroke-width="0.2" d="M6.932 79.209C6.932 77.996 5.95 77.013 4.737 77.013C3.524 77.013 2.541 77.996 2.541 79.209C2.541 80.423 3.524 81.406 4.737 81.406C5.95 81.406 6.932 80.423 6.932 79.209"/>
  </g>
  <polygon stroke-width="0.2" points="2.125 78.328 3.666 76.623 5.758 76.677 7.187 78.355 7.16 80.007 5.62 81.739 3.666 81.795 2.071 80.007 2.125 78.328"/>
 </g>
 <g id="outline_x0020_layer">
 </g>
 <g id="zoom_x0020_layer">
 </g>
 <g id="arrow_x0020_layer">
 </g>
 <g id="_x0020_cable_x0020_layer">
 </g>
 <g id="symbol_x0020_layer">
 </g>
 <g id="_x0020_text_x0020_layer">
 </g>
 <g id="text-_x0020_DO_x0020_NOT_x0020_translate">
  <text transform="matrix(0 -1 1 0 2.133 50.871)" stroke="none" fill="#000000" font-family="'Arial'" font-size="1.534">Battery temperature 3</text>
  <text transform="matrix(0 -1 1 0 2.133 68.09)" stroke="none" fill="#000000" font-family="'Arial'" font-size="1.534">Battery temperature 2</text>
  <text x="17.292" y="83.945" stroke="none" fill="#000000" font-family="'Arial'" font-size="1.534">Battery temperature 1</text>
  <text x="40.487" y="83.945" stroke="none" fill="#000000" font-family="'Arial'" font-size="1.534">EPO</text>
  <text x="51.387" y="83.945" stroke="none" fill="#000000" font-family="'Arial'" font-size="1.534">Option 1 IN</text>
  <text x="61.052" y="83.945" stroke="none" fill="#000000" font-family="'Arial'" font-size="1.534">Option 2 IN</text>
  <text x="72.405" y="83.945" stroke="none" fill="#000000" font-family="'Arial'" font-size="1.534">Common alarm</text>
  <text x="86.099" y="83.945" stroke="none" fill="#000000" font-family="'Arial'" font-size="1.534">Option 1 OUT</text>
  <text x="99.358" y="83.945" stroke="none" fill="#000000" font-family="'Arial'" font-size="1.534">Option 2 OUT</text>
  <text x="97.275" y="68.888" stroke="none" fill="#000000" font-family="'Arial'" font-size="1.534">J1609</text>
  <text x="83.706" y="68.956" stroke="none" fill="#000000" font-family="'Arial'" font-size="1.534">J1608</text>
  <text x="70.808" y="68.933" stroke="none" fill="#000000" font-family="'Arial'" font-size="1.534">J1607</text>
  <text x="66.012" y="69.177" stroke="none" fill="#000000" font-family="'Arial'" font-size="1.534">J1601</text>
  <text x="48.122" y="69.081" stroke="none" fill="#000000" font-family="'Arial'" font-size="1.534">J1600</text>
  <text x="37.587" y="69.129" stroke="none" fill="#000000" font-family="'Arial'" font-size="1.534">J1602</text>
  <text x="23.861" y="68.978" stroke="none" fill="#000000" font-family="'Arial'" font-size="1.534">J1603</text>
  <text transform="matrix(0 -1 1 0 19.908 82.379)" stroke="none" fill="#000000" font-family="'Arial'" font-size="1.227">+24V</text>
  <text transform="matrix(0 -1 1 0 23.536 80.706)" stroke="none" fill="#000000" font-family="'Arial'" font-size="1.227">IN</text>
  <text transform="matrix(0 -1 1 0 27.129 82.206)" stroke="none" fill="#000000" font-family="'Arial'" font-size="1.227">GND</text>
  <text transform="matrix(0 -1 1 0 30.85 82.891)" stroke="none" fill="#000000" font-family="'Arial'" font-size="1.227">Shield</text>
  <text transform="matrix(0 -1 1 0 36.819 82.379)" stroke="none" fill="#000000" font-family="'Arial'" font-size="1.227">+24V</text>
  <text transform="matrix(0 -1 1 0 40.466 80.706)" stroke="none" fill="#000000" font-family="'Arial'" font-size="1.227">IN</text>
  <text transform="matrix(0 -1 1 0 44.405 82.001)" stroke="none" fill="#000000" font-family="'Arial'" font-size="1.227">RTN</text>
  <text transform="matrix(0 -1 1 0 47.585 82.206)" stroke="none" fill="#000000" font-family="'Arial'" font-size="1.227">GND</text>
  <text transform="matrix(0 -1 1 0 53.841 80.706)" stroke="none" fill="#000000" font-family="'Arial'" font-size="1.227">IN</text>
  <text transform="matrix(0 -1 1 0 57.341 82.206)" stroke="none" fill="#000000" font-family="'Arial'" font-size="1.227">GND</text>
  <text transform="matrix(0 -1 1 0 63.46 80.706)" stroke="none" fill="#000000" font-family="'Arial'" font-size="1.227">IN</text>
  <text transform="matrix(0 -1 1 0 67.031 82.206)" stroke="none" fill="#000000" font-family="'Arial'" font-size="1.227">GND</text>
  <text transform="matrix(0 -1 1 0 74.447 80.365)" stroke="none" fill="#000000" font-family="'Arial'" font-size="1.227">C</text>
  <text transform="matrix(0 -1 1 0 78.158 81.32)" stroke="none" fill="#000000" font-family="'Arial'" font-size="1.227">NO</text>
  <text transform="matrix(0 -1 1 0 81.614 81.251)" stroke="none" fill="#000000" font-family="'Arial'" font-size="1.227">NC</text>
  <text transform="matrix(0 -1 1 0 87.62 80.365)" stroke="none" fill="#000000" font-family="'Arial'" font-size="1.227">C</text>
  <text transform="matrix(0 -1 1 0 91.477 81.32)" stroke="none" fill="#000000" font-family="'Arial'" font-size="1.227">NO</text>
  <text transform="matrix(0 -1 1 0 94.691 81.251)" stroke="none" fill="#000000" font-family="'Arial'" font-size="1.227">NC</text>
  <text transform="matrix(0 -1 1 0 100.974 80.365)" stroke="none" fill="#000000" font-family="'Arial'" font-size="1.227">C</text>
  <text transform="matrix(0 -1 1 0 104.778 81.32)" stroke="none" fill="#000000" font-family="'Arial'" font-size="1.227">NO</text>
  <text transform="matrix(0 -1 1 0 108.409 81.251)" stroke="none" fill="#000000" font-family="'Arial'" font-size="1.227">NC</text>
  <text transform="matrix(0 -1 1 0 17.271 64.15)" stroke="none" fill="#000000" font-family="'Arial'" font-size="1.534">J1604</text>
  <text transform="matrix(0 -1 1 0 17.193 40.046)" stroke="none" fill="#000000" font-family="'Arial'" font-size="1.534">J1605</text>
  <text x="94.117" y="6.895" stroke="none" fill="#000000" font-family="'Arial'" font-size="3.528">0P2553</text>
  <text x="73.177" y="44.216" stroke="none" fill="#000000" font-family="'Arial'" font-size="1.534">RY1600</text>
  <text x="85.983" y="44.206" stroke="none" fill="#000000" font-family="'Arial'" font-size="1.534">RY1601</text>
  <text x="99.787" y="44.143" stroke="none" fill="#000000" font-family="'Arial'" font-size="1.534">RY1602</text>
  <text x="56.243" y="61.255" stroke="none" fill="#000000" font-family="'Arial'" font-size="1.534">F1602</text>
  <text x="66.025" y="61.368" stroke="none" fill="#000000" font-family="'Arial'" font-size="1.534">F1603</text>
  <g>
   <text x="3.045" y="38.521" stroke="none" fill="#000000" font-family="'Arial'" font-size="1.227">+24V</text>
   <text x="4.719" y="42.098" stroke="none" fill="#000000" font-family="'Arial'" font-size="1.227">IN</text>
   <text x="3.218" y="45.786" stroke="none" fill="#000000" font-family="'Arial'" font-size="1.227">GND</text>
   <text x="2.535" y="49.634" stroke="none" fill="#000000" font-family="'Arial'" font-size="1.227">Shield</text>
   <text x="3.045" y="55.789" stroke="none" fill="#000000" font-family="'Arial'" font-size="1.227">+24V</text>
   <text x="4.719" y="59.295" stroke="none" fill="#000000" font-family="'Arial'" font-size="1.227">IN</text>
   <text x="3.218" y="63.417" stroke="none" fill="#000000" font-family="'Arial'" font-size="1.227">GND</text>
   <text x="2.535" y="66.713" stroke="none" fill="#000000" font-family="'Arial'" font-size="1.227">Shield</text>
  </g>
  <text x="38.244" y="6.262" stroke="none" fill="#000000" font-family="'Arial'" font-size="1.534">J1606</text>
  <text x="1.683" y="75.953" stroke="none" fill="#000000" font-family="'Arial'" font-size="1.534">MTG1600</text>
 </g>
 <g id="_x0020_callout_x0020_layer">
 </g>
</svg>
