<?xml version="1.0" encoding="UTF-8"?>
<!-- Generator: PTC Arbortext IsoDraw 7.4 M001 -->
<svg xmlns="http://www.w3.org/2000/svg" xmlns:xlink="http://www.w3.org/1999/xlink" width="100%" height="100%" viewBox="0 0 120 177.578" fill-rule="evenodd" clip-rule="evenodd" stroke="#000000" stroke-linecap="round" fill="none" xml:space="preserve" preserveAspectRatio="xMidYMid meet" zoomAndPan="magnify" version="1.1" contentScriptType="text/ecmascript" contentStyleType="text/css">
 <g id="_x0020_fill_x0020_layer">
 </g>
 <g id="Standard_x0020_layer">
  <g id="AUTOID_3672">
   <desc>Layer 1</desc>
   <path stroke-width="0.13" d="M50.848 104.033L51.043 104.033L50.848 76.861"/>
   <path stroke="none" fill="#000000" d="M50.848 104.033L51.043 104.033 50.848 76.861 50.848 104.033z"/>
   <path stroke-width="0.13" d="M51.043 104.033L50.848 76.861L51.043 76.668"/>
   <path stroke="none" fill="#000000" d="M51.043 104.033L50.848 76.861 51.043 76.668 51.043 104.033z"/>
   <path stroke-width="0.13" d="M50.848 76.861L51.043 76.668L14.768 76.861"/>
   <path stroke="none" fill="#000000" d="M50.848 76.861L51.043 76.668 14.768 76.861 50.848 76.861z"/>
   <path stroke-width="0.13" d="M51.043 76.668L14.768 76.861L14.573 76.668"/>
   <path stroke="none" fill="#000000" d="M51.043 76.668L14.768 76.861 14.573 76.668 51.043 76.668z"/>
   <path stroke-width="0.13" d="M14.768 76.861L14.573 76.668L14.768 103.935"/>
   <path stroke="none" fill="#000000" d="M14.768 76.861L14.573 76.668 14.768 103.935 14.768 76.861z"/>
   <path stroke-width="0.13" d="M14.573 76.668L14.768 103.935L14.573 104.129"/>
   <path stroke="none" fill="#000000" d="M14.573 76.668L14.768 103.935 14.573 104.129 14.573 76.668z"/>
   <path stroke-width="0.13" d="M14.768 103.935L14.573 104.129L50.945 103.935"/>
   <path stroke="none" fill="#000000" d="M14.768 103.935L14.573 104.129 50.945 103.935 14.768 103.935z"/>
   <path stroke-width="0.13" d="M14.573 104.129L50.945 103.935L50.945 104.129"/>
   <path stroke="none" fill="#000000" d="M14.573 104.129L50.945 103.935 50.945 104.129 14.573 104.129z"/>
   <path stroke-width="0.13" d="M50.848 68.194L51.043 68.194L50.848 41.095"/>
   <path stroke="none" fill="#000000" d="M50.848 68.194L51.043 68.194 50.848 41.095 50.848 68.194z"/>
   <path stroke-width="0.13" d="M51.043 68.194L50.848 41.095L51.043 40.902"/>
   <path stroke="none" fill="#000000" d="M51.043 68.194L50.848 41.095 51.043 40.902 51.043 68.194z"/>
   <path stroke-width="0.13" d="M50.848 41.095L51.043 40.902L14.768 41.095"/>
   <path stroke="none" fill="#000000" d="M50.848 41.095L51.043 40.902 14.768 41.095 50.848 41.095z"/>
   <path stroke-width="0.13" d="M51.043 40.902L14.768 41.095L14.573 40.902"/>
   <path stroke="none" fill="#000000" d="M51.043 40.902L14.768 41.095 14.573 40.902 51.043 40.902z"/>
   <path stroke-width="0.13" d="M14.768 41.095L14.573 40.902L14.768 68.12"/>
   <path stroke="none" fill="#000000" d="M14.768 41.095L14.573 40.902 14.768 68.12 14.768 41.095z"/>
   <path stroke-width="0.13" d="M14.573 40.902L14.768 68.12L14.573 68.29"/>
   <path stroke="none" fill="#000000" d="M14.573 40.902L14.768 68.12 14.573 68.29 14.573 40.902z"/>
   <path stroke-width="0.13" d="M14.768 68.12L14.573 68.29L50.945 68.12"/>
   <path stroke="none" fill="#000000" d="M14.768 68.12L14.573 68.29 50.945 68.12 14.768 68.12z"/>
   <path stroke-width="0.13" d="M14.573 68.29L50.945 68.12L50.945 68.29"/>
   <path stroke="none" fill="#000000" d="M14.573 68.29L50.945 68.12 50.945 68.29 14.573 68.29z"/>
   <path stroke-width="0.13" d="M50.411 32.451L50.606 32.451L50.411 5.33"/>
   <path stroke="none" fill="#000000" d="M50.411 32.451L50.606 32.451 50.411 5.33 50.411 32.451z"/>
   <path stroke-width="0.13" d="M50.606 32.451L50.411 5.33L50.606 5.16"/>
   <path stroke="none" fill="#000000" d="M50.606 32.451L50.411 5.33 50.606 5.16 50.606 32.451z"/>
   <path stroke-width="0.13" d="M50.411 5.33L50.606 5.16L14.257 5.33"/>
   <path stroke="none" fill="#000000" d="M50.411 5.33L50.606 5.16 14.257 5.33 50.411 5.33z"/>
   <path stroke-width="0.13" d="M50.606 5.16L14.257 5.33L14.087 5.16"/>
   <path stroke="none" fill="#000000" d="M50.606 5.16L14.257 5.33 14.087 5.16 50.606 5.16z"/>
   <path stroke-width="0.13" d="M14.257 5.33L14.087 5.16L14.257 32.354"/>
   <path stroke="none" fill="#000000" d="M14.257 5.33L14.087 5.16 14.257 32.354 14.257 5.33z"/>
   <path stroke-width="0.13" d="M14.087 5.16L14.257 32.354L14.087 32.548"/>
   <path stroke="none" fill="#000000" d="M14.087 5.16L14.257 32.354 14.087 32.548 14.087 5.16z"/>
   <path stroke-width="0.13" d="M14.257 32.354L14.087 32.548L50.509 32.354"/>
   <path stroke="none" fill="#000000" d="M14.257 32.354L14.087 32.548 50.509 32.354 14.257 32.354z"/>
   <path stroke-width="0.13" d="M14.087 32.548L50.509 32.354L50.509 32.548"/>
   <path stroke="none" fill="#000000" d="M14.087 32.548L50.509 32.354 50.509 32.548 14.087 32.548z"/>
   <path stroke-width="0.13" d="M50.848 139.774L51.043 139.774L50.848 112.628"/>
   <path stroke="none" fill="#000000" d="M50.848 139.774L51.043 139.774 50.848 112.628 50.848 139.774z"/>
   <path stroke-width="0.13" d="M51.043 139.774L50.848 112.628L51.043 112.433"/>
   <path stroke="none" fill="#000000" d="M51.043 139.774L50.848 112.628 51.043 112.433 51.043 139.774z"/>
   <path stroke-width="0.13" d="M50.848 112.628L51.043 112.433L14.768 112.628"/>
   <path stroke="none" fill="#000000" d="M50.848 112.628L51.043 112.433 14.768 112.628 50.848 112.628z"/>
   <path stroke-width="0.13" d="M51.043 112.433L14.768 112.628L14.573 112.433"/>
   <path stroke="none" fill="#000000" d="M51.043 112.433L14.768 112.628 14.573 112.433 51.043 112.433z"/>
   <path stroke-width="0.13" d="M14.768 112.628L14.573 112.433L14.768 139.7"/>
   <path stroke="none" fill="#000000" d="M14.768 112.628L14.573 112.433 14.768 139.7 14.768 112.628z"/>
   <path stroke-width="0.13" d="M14.573 112.433L14.768 139.7L14.573 139.871"/>
   <path stroke="none" fill="#000000" d="M14.573 112.433L14.768 139.7 14.573 139.871 14.573 112.433z"/>
   <path stroke-width="0.13" d="M14.768 139.7L14.573 139.871L50.945 139.7"/>
   <path stroke="none" fill="#000000" d="M14.768 139.7L14.573 139.871 50.945 139.7 14.768 139.7z"/>
   <path stroke-width="0.13" d="M14.573 139.871L50.945 139.7L50.945 139.871"/>
   <path stroke="none" fill="#000000" d="M14.573 139.871L50.945 139.7 50.945 139.871 14.573 139.871z"/>
   <line stroke-width="0.13" x1="31.352" y1="156.794" x2="31.352" y2="167.479"/>
   <line stroke-width="0.13" x1="18.457" y1="156.794" x2="18.457" y2="167.479"/>
   <line stroke-width="0.13" x1="26.131" y1="8.388" x2="26.131" y2="8.195"/>
   <line stroke-width="0.13" x1="26.253" y1="8.34" x2="26.082" y2="8.34"/>
   <line stroke-width="0.13" x1="18.579" y1="8.388" x2="18.579" y2="8.195"/>
   <line stroke-width="0.13" x1="18.701" y1="8.34" x2="18.507" y2="8.34"/>
   <path stroke-width="0.13" d="M17.705 7.272L17.51 7.32L17.439 7.514L17.439 14.75L17.51 14.945L27.271 14.945L27.271 7.32L27.077 7.272L17.705 7.272"/>
   <path stroke-width="0.13" d="M18.774 8.34L18.725 8.195L18.579 8.147L18.457 8.195L18.385 8.34L18.457 8.461L18.579 8.51L18.725 8.461L18.774 8.34"/>
   <path stroke-width="0.13" d="M19.016 8.34L18.992 8.17L18.894 8.025C18.635 7.78 18.318 7.873 18.167 8.17L18.143 8.34L18.167 8.51L18.263 8.657L18.41 8.753L18.579 8.778L18.75 8.753L18.894 8.657L18.992 8.51L19.016 8.34"/>
   <path stroke-width="0.13" d="M26.324 8.34L26.277 8.195L26.131 8.147L26.01 8.195L25.937 8.34L26.01 8.461L26.131 8.51L26.277 8.461L26.324 8.34"/>
   <path stroke-width="0.13" d="M26.568 8.34L26.544 8.17L26.446 8.025C26.187 7.78 25.87 7.873 25.718 8.17L25.693 8.34L25.718 8.51L25.815 8.657L25.96 8.753L26.131 8.778L26.3 8.753L26.446 8.657L26.544 8.51L26.568 8.34"/>
   <line stroke-width="0.13" x1="36.085" y1="8.388" x2="36.085" y2="8.195"/>
   <line stroke-width="0.13" x1="36.207" y1="8.34" x2="36.014" y2="8.34"/>
   <line stroke-width="0.13" x1="28.535" y1="8.388" x2="28.535" y2="8.195"/>
   <line stroke-width="0.13" x1="28.655" y1="8.34" x2="28.461" y2="8.34"/>
   <path stroke-width="0.13" d="M27.637 7.272L27.466 7.32L27.393 7.514L27.393 14.75L27.466 14.945L37.228 14.945L37.228 7.32L37.033 7.272L27.637 7.272"/>
   <path stroke-width="0.13" d="M28.728 8.34L28.655 8.195C28.237 7.945 28.236 8.711 28.655 8.461L28.728 8.34"/>
   <path stroke-width="0.13" d="M28.972 8.34L28.948 8.17L28.85 8.025C28.591 7.78 28.274 7.873 28.121 8.17L28.097 8.34L28.121 8.51L28.219 8.657L28.364 8.753L28.535 8.778L28.704 8.753L28.85 8.657L28.948 8.51L28.972 8.34"/>
   <path stroke-width="0.13" d="M36.28 8.34L36.207 8.195L36.085 8.147L35.941 8.195L35.892 8.34L35.941 8.461L36.085 8.51L36.207 8.461L36.28 8.34"/>
   <path stroke-width="0.13" d="M36.523 8.34L36.499 8.17L36.402 8.025C36.142 7.78 35.825 7.873 35.673 8.17L35.649 8.34L35.673 8.51L35.771 8.657L35.915 8.753L36.085 8.778L36.256 8.753L36.402 8.657L36.499 8.51L36.523 8.34"/>
   <line stroke-width="0.13" x1="26.131" y1="16.135" x2="26.131" y2="15.941"/>
   <line stroke-width="0.13" x1="26.253" y1="16.086" x2="26.082" y2="16.086"/>
   <line stroke-width="0.13" x1="18.579" y1="16.135" x2="18.579" y2="15.941"/>
   <line stroke-width="0.13" x1="18.701" y1="16.086" x2="18.507" y2="16.086"/>
   <path stroke-width="0.13" d="M17.705 14.993L17.51 15.067L17.439 15.26L17.439 22.496L17.51 22.69L27.271 22.69L27.271 15.067L27.077 14.993L17.705 14.993"/>
   <path stroke-width="0.13" d="M18.774 16.086L18.725 15.941L18.579 15.891L18.457 15.941L18.385 16.086L18.457 16.207L18.579 16.256L18.725 16.207L18.774 16.086"/>
   <path stroke-width="0.13" d="M19.016 16.086L18.992 15.916L18.894 15.771C18.635 15.525 18.318 15.618 18.167 15.916L18.143 16.086L18.167 16.256C18.356 16.53 18.626 16.621 18.894 16.378L18.992 16.256L19.016 16.086"/>
   <path stroke-width="0.13" d="M26.324 16.086L26.277 15.941L26.131 15.891L26.01 15.941L25.937 16.086L26.01 16.207L26.131 16.256L26.277 16.207L26.324 16.086"/>
   <path stroke-width="0.13" d="M26.568 16.086L26.544 15.916L26.446 15.771C26.187 15.525 25.87 15.618 25.718 15.916L25.693 16.086L25.718 16.256C25.908 16.53 26.176 16.621 26.446 16.378L26.544 16.256L26.568 16.086"/>
   <line stroke-width="0.13" x1="28.535" y1="29.222" x2="28.535" y2="29.417"/>
   <line stroke-width="0.13" x1="28.414" y1="29.295" x2="28.583" y2="29.295"/>
   <line stroke-width="0.13" x1="36.085" y1="29.222" x2="36.085" y2="29.417"/>
   <line stroke-width="0.13" x1="35.965" y1="29.295" x2="36.158" y2="29.295"/>
   <path stroke-width="0.13" d="M36.96 30.364L37.155 30.315L37.228 30.12L37.228 22.885L37.155 22.69L27.393 22.69L27.393 30.315L27.588 30.364L36.96 30.364"/>
   <path stroke-width="0.13" d="M35.892 29.295L35.941 29.44L36.085 29.489L36.207 29.44L36.28 29.295L36.207 29.173L36.085 29.1L35.941 29.173L35.892 29.295"/>
   <path stroke-width="0.13" d="M35.649 29.295L35.673 29.464L35.771 29.611L35.915 29.707L36.085 29.731L36.256 29.707L36.402 29.611L36.499 29.464L36.523 29.295L36.499 29.125L36.402 28.98L36.256 28.882L36.085 28.858L35.915 28.882L35.771 28.98L35.673 29.125L35.649 29.295"/>
   <path stroke-width="0.13" d="M28.341 29.295L28.388 29.44L28.535 29.489L28.655 29.44L28.728 29.295L28.655 29.173L28.535 29.1L28.388 29.173L28.341 29.295"/>
   <path stroke-width="0.13" d="M28.097 29.295L28.121 29.464L28.219 29.611L28.364 29.707L28.535 29.731L28.704 29.707L28.85 29.611L28.948 29.464L28.972 29.295L28.948 29.125L28.85 28.98L28.704 28.882L28.535 28.858L28.364 28.882L28.219 28.98L28.121 29.125L28.097 29.295"/>
   <line stroke-width="0.13" x1="18.457" y1="29.295" x2="18.652" y2="29.295"/>
   <line stroke-width="0.13" x1="26.131" y1="29.222" x2="26.131" y2="29.417"/>
   <line stroke-width="0.13" x1="26.01" y1="29.295" x2="26.204" y2="29.295"/>
   <path stroke-width="0.13" d="M27.03 30.364L27.199 30.315L27.271 30.12L27.271 22.885L27.199 22.69L17.439 22.69L17.439 30.315L17.632 30.364L27.03 30.364"/>
   <path stroke-width="0.13" d="M25.937 29.295L26.01 29.44L26.131 29.489L26.277 29.44L26.324 29.295L26.277 29.173L26.131 29.1L26.01 29.173L25.937 29.295"/>
   <path stroke-width="0.13" d="M25.693 29.295L25.718 29.464L25.815 29.611L25.96 29.707L26.131 29.731L26.3 29.707L26.446 29.611L26.544 29.464L26.568 29.295L26.544 29.125L26.446 28.98L26.3 28.882L26.131 28.858L25.96 28.882L25.815 28.98L25.718 29.125L25.693 29.295"/>
   <path stroke-width="0.13" d="M18.385 29.295L18.457 29.44L18.579 29.489L18.725 29.44L18.774 29.295L18.725 29.173L18.579 29.1L18.457 29.173L18.385 29.295"/>
   <path stroke-width="0.13" d="M18.143 29.295L18.167 29.464L18.263 29.611L18.41 29.707L18.579 29.731L18.75 29.707L18.894 29.611L18.992 29.464L19.016 29.295L18.992 29.125L18.894 28.98L18.75 28.882L18.579 28.858L18.41 28.882L18.263 28.98L18.167 29.125L18.143 29.295"/>
   <line stroke-width="0.13" x1="26.131" y1="44.155" x2="26.131" y2="43.96"/>
   <line stroke-width="0.13" x1="26.253" y1="44.082" x2="26.082" y2="44.082"/>
   <line stroke-width="0.13" x1="18.579" y1="44.155" x2="18.579" y2="43.96"/>
   <line stroke-width="0.13" x1="18.701" y1="44.082" x2="18.507" y2="44.082"/>
   <path stroke-width="0.13" d="M17.705 43.014L17.51 43.087L17.439 43.28L17.439 50.517L17.51 50.71L27.271 50.71L27.271 43.087L27.077 43.014L17.705 43.014"/>
   <path stroke-width="0.13" d="M18.774 44.082L18.725 43.96L18.579 43.912L18.457 43.96L18.385 44.082L18.457 44.228L18.579 44.277L18.725 44.228L18.774 44.082"/>
   <path stroke-width="0.13" d="M19.016 44.082L18.992 43.912L18.894 43.767L18.75 43.67L18.579 43.646L18.41 43.67L18.263 43.767L18.167 43.912L18.143 44.082L18.167 44.253C18.318 44.549 18.635 44.643 18.894 44.398L18.992 44.253L19.016 44.082"/>
   <path stroke-width="0.13" d="M26.324 44.082L26.277 43.96L26.131 43.912L26.01 43.96L25.937 44.082L26.01 44.228L26.131 44.277L26.277 44.228L26.324 44.082"/>
   <path stroke-width="0.13" d="M26.568 44.082L26.544 43.912L26.446 43.767L26.3 43.67L26.131 43.646L25.96 43.67L25.815 43.767L25.718 43.912L25.693 44.082L25.718 44.253C25.87 44.549 26.187 44.643 26.446 44.398L26.544 44.253L26.568 44.082"/>
   <line stroke-width="0.13" x1="36.085" y1="44.155" x2="36.085" y2="43.96"/>
   <line stroke-width="0.13" x1="36.207" y1="44.082" x2="36.014" y2="44.082"/>
   <line stroke-width="0.13" x1="28.535" y1="44.155" x2="28.535" y2="43.96"/>
   <line stroke-width="0.13" x1="28.655" y1="44.082" x2="28.461" y2="44.082"/>
   <path stroke-width="0.13" d="M27.637 43.014L27.466 43.087L27.393 43.28L27.393 50.517L27.466 50.71L37.228 50.71L37.228 43.087L37.033 43.014L27.637 43.014"/>
   <path stroke-width="0.13" d="M28.728 44.082L28.655 43.96C28.236 43.712 28.237 44.476 28.655 44.228L28.728 44.082"/>
   <path stroke-width="0.13" d="M28.972 44.082L28.948 43.912L28.85 43.767L28.704 43.67L28.535 43.646L28.364 43.67L28.219 43.767L28.121 43.912L28.097 44.082L28.121 44.253C28.274 44.549 28.591 44.643 28.85 44.398L28.948 44.253L28.972 44.082"/>
   <path stroke-width="0.13" d="M36.28 44.082L36.207 43.96C35.787 43.712 35.789 44.476 36.207 44.228L36.28 44.082"/>
   <path stroke-width="0.13" d="M36.523 44.082L36.499 43.912L36.402 43.767L36.256 43.67L36.085 43.646L35.915 43.67L35.771 43.767L35.673 43.912L35.649 44.082L35.673 44.253C35.825 44.549 36.143 44.643 36.402 44.398L36.499 44.253L36.523 44.082"/>
   <line stroke-width="0.13" x1="26.131" y1="51.901" x2="26.131" y2="51.707"/>
   <line stroke-width="0.13" x1="26.253" y1="51.828" x2="26.082" y2="51.828"/>
   <line stroke-width="0.13" x1="18.579" y1="51.901" x2="18.579" y2="51.707"/>
   <line stroke-width="0.13" x1="18.701" y1="51.828" x2="18.507" y2="51.828"/>
   <path stroke-width="0.13" d="M17.705 50.759L17.51 50.832L17.439 51.027L17.439 58.262L17.51 58.457L27.271 58.457L27.271 50.832L27.077 50.759L17.705 50.759"/>
   <path stroke-width="0.13" d="M18.774 51.828L18.725 51.707L18.579 51.634L18.457 51.707L18.385 51.828L18.457 51.973L18.579 52.023L18.725 51.973L18.774 51.828"/>
   <path stroke-width="0.13" d="M19.016 51.828L18.992 51.658L18.894 51.512L18.75 51.415L18.579 51.39L18.41 51.415L18.263 51.512L18.167 51.658L18.143 51.828L18.167 51.997C18.318 52.295 18.635 52.389 18.894 52.143L18.992 51.997L19.016 51.828"/>
   <path stroke-width="0.13" d="M26.324 51.828L26.277 51.707L26.131 51.634L26.01 51.707L25.937 51.828L26.01 51.973L26.131 52.023L26.277 51.973L26.324 51.828"/>
   <path stroke-width="0.13" d="M26.568 51.828L26.544 51.658L26.446 51.512L26.3 51.415L26.131 51.39L25.96 51.415L25.815 51.512L25.718 51.658L25.693 51.828L25.718 51.997C25.87 52.295 26.187 52.389 26.446 52.143L26.544 51.997L26.568 51.828"/>
   <line stroke-width="0.13" x1="28.535" y1="64.989" x2="28.535" y2="65.183"/>
   <line stroke-width="0.13" x1="28.414" y1="65.061" x2="28.583" y2="65.061"/>
   <line stroke-width="0.13" x1="36.085" y1="64.989" x2="36.085" y2="65.183"/>
   <line stroke-width="0.13" x1="35.965" y1="65.061" x2="36.158" y2="65.061"/>
   <path stroke-width="0.13" d="M36.96 66.129L37.155 66.057L37.228 65.862L37.228 58.627L37.155 58.457L27.393 58.457L27.393 66.057L27.588 66.129L36.96 66.129"/>
   <path stroke-width="0.13" d="M35.892 65.061L35.941 65.183L36.085 65.256L36.207 65.183L36.28 65.061L36.207 64.915L36.085 64.867L35.941 64.915L35.892 65.061"/>
   <path stroke-width="0.13" d="M35.649 65.061L35.673 65.23L35.771 65.376L35.915 65.474L36.085 65.498L36.256 65.474L36.402 65.376L36.499 65.23L36.523 65.061L36.499 64.891L36.402 64.745L36.256 64.649L36.085 64.623L35.915 64.649L35.771 64.745L35.673 64.891L35.649 65.061"/>
   <path stroke-width="0.13" d="M28.341 65.061L28.388 65.183L28.535 65.256L28.655 65.183L28.728 65.061L28.655 64.915L28.535 64.867L28.388 64.915L28.341 65.061"/>
   <path stroke-width="0.13" d="M28.097 65.061L28.121 65.23L28.219 65.376L28.364 65.474L28.535 65.498L28.704 65.474L28.85 65.376L28.948 65.23L28.972 65.061L28.948 64.891L28.85 64.745L28.704 64.649L28.535 64.623L28.364 64.649L28.219 64.745L28.121 64.891L28.097 65.061"/>
   <line stroke-width="0.13" x1="18.579" y1="64.989" x2="18.579" y2="65.183"/>
   <line stroke-width="0.13" x1="18.457" y1="65.061" x2="18.652" y2="65.061"/>
   <line stroke-width="0.13" x1="26.131" y1="64.989" x2="26.131" y2="65.183"/>
   <line stroke-width="0.13" x1="26.01" y1="65.061" x2="26.204" y2="65.061"/>
   <path stroke-width="0.13" d="M27.03 66.129L27.199 66.057L27.271 65.862L27.271 58.627L27.199 58.457L17.439 58.457L17.439 66.057L17.632 66.129L27.03 66.129"/>
   <path stroke-width="0.13" d="M25.937 65.061L26.01 65.183L26.131 65.256L26.277 65.183L26.324 65.061L26.277 64.915L26.131 64.867L26.01 64.915L25.937 65.061"/>
   <path stroke-width="0.13" d="M25.693 65.061L25.718 65.23L25.815 65.376L25.96 65.474L26.131 65.498L26.3 65.474L26.446 65.376L26.544 65.23L26.568 65.061L26.544 64.891L26.446 64.745L26.3 64.649L26.131 64.623L25.96 64.649L25.815 64.745L25.718 64.891L25.693 65.061"/>
   <path stroke-width="0.13" d="M18.385 65.061L18.457 65.183L18.579 65.256L18.725 65.183L18.774 65.061L18.725 64.915L18.579 64.867L18.457 64.915L18.385 65.061"/>
   <path stroke-width="0.13" d="M18.143 65.061L18.167 65.23L18.263 65.376L18.41 65.474L18.579 65.498L18.75 65.474L18.894 65.376L18.992 65.23L19.016 65.061L18.992 64.891L18.894 64.745L18.75 64.649L18.579 64.623L18.41 64.649L18.263 64.745L18.167 64.891L18.143 65.061"/>
   <line stroke-width="0.13" x1="36.085" y1="51.901" x2="36.085" y2="51.707"/>
   <line stroke-width="0.13" x1="36.207" y1="51.828" x2="36.014" y2="51.828"/>
   <line stroke-width="0.13" x1="28.535" y1="51.901" x2="28.535" y2="51.707"/>
   <line stroke-width="0.13" x1="28.655" y1="51.828" x2="28.461" y2="51.828"/>
   <path stroke-width="0.13" d="M27.637 50.759L27.466 50.832L27.393 51.027L27.393 58.262L27.466 58.457L37.228 58.457L37.228 50.832L37.033 50.759L27.637 50.759"/>
   <path stroke-width="0.13" d="M28.728 51.828L28.655 51.707L28.535 51.634L28.388 51.707L28.341 51.828L28.388 51.973L28.535 52.023L28.655 51.973L28.728 51.828"/>
   <path stroke-width="0.13" d="M28.972 51.828L28.948 51.658L28.85 51.512L28.704 51.415L28.535 51.39L28.364 51.415L28.219 51.512L28.121 51.658L28.097 51.828L28.121 51.997C28.274 52.295 28.591 52.389 28.85 52.143L28.948 51.997L28.972 51.828"/>
   <path stroke-width="0.13" d="M36.28 51.828L36.207 51.707L36.085 51.634L35.941 51.707L35.892 51.828L35.941 51.973L36.085 52.023L36.207 51.973L36.28 51.828"/>
   <path stroke-width="0.13" d="M36.523 51.828L36.499 51.658L36.402 51.512L36.256 51.415L36.085 51.39L35.915 51.415L35.771 51.512L35.673 51.658L35.649 51.828L35.673 51.997C35.825 52.295 36.143 52.389 36.402 52.143L36.499 51.997L36.523 51.828"/>
   <line stroke-width="0.13" x1="46.042" y1="44.155" x2="46.042" y2="43.96"/>
   <line stroke-width="0.13" x1="46.162" y1="44.082" x2="45.969" y2="44.082"/>
   <line stroke-width="0.13" x1="38.466" y1="44.155" x2="38.466" y2="43.96"/>
   <line stroke-width="0.13" x1="38.612" y1="44.082" x2="38.417" y2="44.082"/>
   <path stroke-width="0.13" d="M37.591 43.014L37.398 43.087L37.348 43.28L37.348 50.517L37.398 50.71L47.158 50.71L47.158 43.087L46.988 43.014L37.591 43.014"/>
   <path stroke-width="0.13" d="M38.659 44.082L38.612 43.96L38.466 43.912L38.344 43.96L38.295 44.082L38.344 44.228L38.466 44.277L38.612 44.228L38.659 44.082"/>
   <path stroke-width="0.13" d="M38.926 44.082L38.878 43.912L38.781 43.767L38.636 43.67L38.466 43.646L38.295 43.67L38.174 43.767L38.076 43.912L38.029 44.082L38.076 44.253C38.246 44.564 38.499 44.64 38.781 44.398L38.878 44.253L38.926 44.082"/>
   <path stroke-width="0.13" d="M46.212 44.082L46.162 43.96C45.743 43.712 45.744 44.476 46.162 44.228L46.212 44.082"/>
   <path stroke-width="0.13" d="M46.478 44.082L46.429 43.912L46.356 43.767L46.212 43.67L46.042 43.646L45.871 43.67L45.725 43.767L45.628 43.912L45.579 44.082L45.628 44.253C45.78 44.549 46.097 44.643 46.356 44.398L46.429 44.253L46.478 44.082"/>
   <line stroke-width="0.13" x1="38.466" y1="64.989" x2="38.466" y2="65.183"/>
   <line stroke-width="0.13" x1="38.344" y1="65.061" x2="38.539" y2="65.061"/>
   <line stroke-width="0.13" x1="46.042" y1="64.989" x2="46.042" y2="65.183"/>
   <line stroke-width="0.13" x1="45.896" y1="65.061" x2="46.09" y2="65.061"/>
   <path stroke-width="0.13" d="M46.915 66.129L47.109 66.057L47.158 65.862L47.158 58.627L47.109 58.457L37.348 58.457L37.348 66.057L37.542 66.129L46.915 66.129"/>
   <path stroke-width="0.13" d="M45.847 65.061L45.896 65.183L46.042 65.256L46.162 65.183L46.212 65.061L46.162 64.915L46.042 64.867L45.896 64.915L45.847 65.061"/>
   <path stroke-width="0.13" d="M45.579 65.061L45.628 65.23L45.725 65.376L45.871 65.474L46.042 65.498L46.212 65.474L46.356 65.376L46.429 65.23L46.478 65.061L46.429 64.891L46.356 64.745L46.212 64.649L46.042 64.623L45.871 64.649L45.725 64.745L45.628 64.891L45.579 65.061"/>
   <path stroke-width="0.13" d="M38.295 65.061L38.344 65.183L38.466 65.256L38.612 65.183L38.659 65.061L38.612 64.915L38.466 64.867L38.344 64.915L38.295 65.061"/>
   <path stroke-width="0.13" d="M38.029 65.061L38.076 65.23L38.174 65.376L38.295 65.474L38.466 65.498L38.636 65.474L38.781 65.376L38.878 65.23L38.926 65.061L38.878 64.891L38.781 64.745L38.636 64.649L38.466 64.623L38.295 64.649L38.174 64.745L38.076 64.891L38.029 65.061"/>
   <line stroke-width="0.13" x1="46.042" y1="51.901" x2="46.042" y2="51.707"/>
   <line stroke-width="0.13" x1="46.162" y1="51.828" x2="45.969" y2="51.828"/>
   <line stroke-width="0.13" x1="38.466" y1="51.901" x2="38.466" y2="51.707"/>
   <line stroke-width="0.13" x1="38.612" y1="51.828" x2="38.417" y2="51.828"/>
   <path stroke-width="0.13" d="M37.591 50.759L37.398 50.832L37.348 51.027L37.348 58.262L37.398 58.457L47.158 58.457L47.158 50.832L46.988 50.759L37.591 50.759"/>
   <path stroke-width="0.13" d="M38.659 51.828L38.612 51.707L38.466 51.634L38.344 51.707L38.295 51.828L38.344 51.973L38.466 52.023L38.612 51.973L38.659 51.828"/>
   <path stroke-width="0.13" d="M38.926 51.828L38.878 51.658L38.781 51.512L38.636 51.415L38.466 51.39L38.295 51.415L38.174 51.512L38.076 51.658L38.029 51.828L38.076 51.997C38.246 52.31 38.499 52.387 38.781 52.143L38.878 51.997L38.926 51.828"/>
   <path stroke-width="0.13" d="M46.212 51.828L46.162 51.707L46.042 51.634L45.896 51.707L45.847 51.828L45.896 51.973L46.042 52.023L46.162 51.973L46.212 51.828"/>
   <path stroke-width="0.13" d="M46.478 51.828L46.429 51.658L46.356 51.512L46.212 51.415L46.042 51.39L45.871 51.415L45.725 51.512L45.628 51.658L45.579 51.828L45.628 51.997C45.78 52.295 46.097 52.389 46.356 52.143L46.429 51.997L46.478 51.828"/>
   <line stroke-width="0.13" x1="26.131" y1="79.921" x2="26.131" y2="79.727"/>
   <line stroke-width="0.13" x1="26.253" y1="79.849" x2="26.082" y2="79.849"/>
   <line stroke-width="0.13" x1="18.579" y1="79.921" x2="18.579" y2="79.727"/>
   <line stroke-width="0.13" x1="18.701" y1="79.849" x2="18.507" y2="79.849"/>
   <path stroke-width="0.13" d="M17.705 78.78L17.51 78.852L17.439 79.022L17.439 86.283L17.51 86.453L27.271 86.453L27.271 78.852L27.077 78.78L17.705 78.78"/>
   <path stroke-width="0.13" d="M18.774 79.849L18.725 79.727L18.579 79.653L18.457 79.727L18.385 79.849L18.457 79.993L18.579 80.043L18.725 79.993L18.774 79.849"/>
   <path stroke-width="0.13" d="M19.016 79.849L18.992 79.679L18.894 79.533L18.75 79.436L18.579 79.412L18.41 79.436L18.263 79.533L18.167 79.679L18.143 79.849L18.167 80.019L18.263 80.164L18.41 80.26L18.579 80.286L18.75 80.26L18.894 80.164L18.992 80.019L19.016 79.849"/>
   <path stroke-width="0.13" d="M26.324 79.849L26.277 79.727L26.131 79.653L26.01 79.727L25.937 79.849L26.01 79.993L26.131 80.043L26.277 79.993L26.324 79.849"/>
   <path stroke-width="0.13" d="M26.568 79.849L26.544 79.679L26.446 79.533L26.3 79.436L26.131 79.412L25.96 79.436L25.815 79.533L25.718 79.679L25.693 79.849L25.718 80.019L25.815 80.164L25.96 80.26L26.131 80.286L26.3 80.26L26.446 80.164L26.544 80.019L26.568 79.849"/>
   <line stroke-width="0.13" x1="36.085" y1="79.921" x2="36.085" y2="79.727"/>
   <line stroke-width="0.13" x1="36.207" y1="79.849" x2="36.014" y2="79.849"/>
   <line stroke-width="0.13" x1="28.535" y1="79.921" x2="28.535" y2="79.727"/>
   <line stroke-width="0.13" x1="28.655" y1="79.849" x2="28.461" y2="79.849"/>
   <path stroke-width="0.13" d="M27.637 78.78L27.466 78.852L27.393 79.022L27.393 86.283L27.466 86.453L37.228 86.453L37.228 78.852L37.033 78.78L27.637 78.78"/>
   <path stroke-width="0.13" d="M28.728 79.849L28.655 79.727L28.535 79.653L28.388 79.727L28.341 79.849L28.388 79.993L28.535 80.043L28.655 79.993L28.728 79.849"/>
   <path stroke-width="0.13" d="M28.972 79.849L28.948 79.679L28.85 79.533L28.704 79.436L28.535 79.412L28.364 79.436L28.219 79.533L28.121 79.679L28.097 79.849L28.121 80.019L28.219 80.164L28.364 80.26L28.535 80.286L28.704 80.26L28.85 80.164L28.948 80.019L28.972 79.849"/>
   <path stroke-width="0.13" d="M36.28 79.849L36.207 79.727L36.085 79.653L35.941 79.727L35.892 79.849L35.941 79.993L36.085 80.043L36.207 79.993L36.28 79.849"/>
   <path stroke-width="0.13" d="M36.523 79.849L36.499 79.679L36.402 79.533L36.256 79.436L36.085 79.412L35.915 79.436L35.771 79.533L35.673 79.679L35.649 79.849L35.673 80.019L35.771 80.164L35.915 80.26L36.085 80.286L36.256 80.26L36.402 80.164L36.499 80.019L36.523 79.849"/>
   <line stroke-width="0.13" x1="26.131" y1="87.667" x2="26.131" y2="87.472"/>
   <line stroke-width="0.13" x1="26.253" y1="87.593" x2="26.082" y2="87.593"/>
   <line stroke-width="0.13" x1="18.579" y1="87.667" x2="18.579" y2="87.472"/>
   <line stroke-width="0.13" x1="18.701" y1="87.593" x2="18.507" y2="87.593"/>
   <path stroke-width="0.13" d="M17.705 86.525L17.51 86.599L17.439 86.769L17.439 94.004L17.51 94.198L27.271 94.198L27.271 86.599L27.077 86.525L17.705 86.525"/>
   <path stroke-width="0.13" d="M18.774 87.593L18.725 87.448L18.579 87.4L18.457 87.448L18.385 87.593L18.457 87.715L18.579 87.789L18.725 87.715L18.774 87.593"/>
   <path stroke-width="0.13" d="M19.016 87.593L18.992 87.424L18.894 87.278L18.75 87.182L18.579 87.156L18.41 87.182L18.263 87.278L18.167 87.424L18.143 87.593L18.167 87.763L18.263 87.909L18.41 88.007L18.579 88.031L18.75 88.007L18.894 87.909L18.992 87.763L19.016 87.593"/>
   <path stroke-width="0.13" d="M26.324 87.593L26.277 87.448L26.131 87.4L26.01 87.448L25.937 87.593L26.01 87.715L26.131 87.789L26.277 87.715L26.324 87.593"/>
   <path stroke-width="0.13" d="M26.568 87.593L26.544 87.424L26.446 87.278L26.3 87.182L26.131 87.156L25.96 87.182L25.815 87.278L25.718 87.424L25.693 87.593L25.718 87.763L25.815 87.909L25.96 88.007L26.131 88.031L26.3 88.007L26.446 87.909L26.544 87.763L26.568 87.593"/>
   <line stroke-width="0.13" x1="28.535" y1="100.754" x2="28.535" y2="100.948"/>
   <line stroke-width="0.13" x1="28.414" y1="100.802" x2="28.583" y2="100.802"/>
   <line stroke-width="0.13" x1="36.085" y1="100.754" x2="36.085" y2="100.948"/>
   <line stroke-width="0.13" x1="35.965" y1="100.802" x2="36.158" y2="100.802"/>
   <path stroke-width="0.13" d="M36.96 101.896L37.155 101.822L37.228 101.629L37.228 94.393L37.155 94.198L27.393 94.198L27.393 101.822L27.588 101.896L36.96 101.896"/>
   <path stroke-width="0.13" d="M35.892 100.802L35.941 100.948L36.085 100.996L36.207 100.948L36.28 100.802L36.207 100.682L36.085 100.632L35.941 100.682L35.892 100.802"/>
   <path stroke-width="0.13" d="M35.649 100.802L35.673 100.972L35.771 101.118C36.03 101.364 36.347 101.271 36.499 100.972L36.523 100.802L36.499 100.632C36.308 100.358 36.039 100.268 35.771 100.512L35.673 100.632L35.649 100.802"/>
   <path stroke-width="0.13" d="M28.341 100.802L28.388 100.948L28.535 100.996L28.655 100.948L28.728 100.802L28.655 100.682L28.535 100.632L28.388 100.682L28.341 100.802"/>
   <path stroke-width="0.13" d="M28.097 100.802L28.121 100.972L28.219 101.118C28.478 101.364 28.795 101.271 28.948 100.972L28.972 100.802L28.948 100.632C28.757 100.358 28.489 100.268 28.219 100.512L28.121 100.632L28.097 100.802"/>
   <line stroke-width="0.13" x1="18.579" y1="100.754" x2="18.579" y2="100.948"/>
   <line stroke-width="0.13" x1="18.457" y1="100.802" x2="18.652" y2="100.802"/>
   <line stroke-width="0.13" x1="26.131" y1="100.754" x2="26.131" y2="100.948"/>
   <line stroke-width="0.13" x1="26.01" y1="100.802" x2="26.204" y2="100.802"/>
   <path stroke-width="0.13" d="M27.03 101.896L27.199 101.822L27.271 101.629L27.271 94.393L27.199 94.198L17.439 94.198L17.439 101.822L17.632 101.896L27.03 101.896"/>
   <path stroke-width="0.13" d="M25.937 100.802L26.01 100.948C26.428 101.197 26.428 100.433 26.01 100.682L25.937 100.802"/>
   <path stroke-width="0.13" d="M25.693 100.802L25.718 100.972L25.815 101.118C26.074 101.364 26.391 101.271 26.544 100.972L26.568 100.802L26.544 100.632C26.353 100.358 26.085 100.268 25.815 100.512L25.718 100.632L25.693 100.802"/>
   <path stroke-width="0.13" d="M18.385 100.802L18.457 100.948C18.876 101.197 18.878 100.433 18.457 100.682L18.385 100.802"/>
   <path stroke-width="0.13" d="M18.143 100.802L18.167 100.972L18.263 101.118C18.524 101.364 18.841 101.271 18.992 100.972L19.016 100.802L18.992 100.632C18.801 100.358 18.533 100.268 18.263 100.512L18.167 100.632L18.143 100.802"/>
   <line stroke-width="0.13" x1="36.085" y1="87.667" x2="36.085" y2="87.472"/>
   <line stroke-width="0.13" x1="36.207" y1="87.593" x2="36.014" y2="87.593"/>
   <line stroke-width="0.13" x1="28.535" y1="87.667" x2="28.535" y2="87.472"/>
   <line stroke-width="0.13" x1="28.655" y1="87.593" x2="28.461" y2="87.593"/>
   <path stroke-width="0.13" d="M27.637 86.525L27.466 86.599L27.393 86.769L27.393 94.004L27.466 94.198L37.228 94.198L37.228 86.599L37.033 86.525L27.637 86.525"/>
   <path stroke-width="0.13" d="M28.728 87.593L28.655 87.448L28.535 87.4L28.388 87.448L28.341 87.593L28.388 87.715L28.535 87.789L28.655 87.715L28.728 87.593"/>
   <path stroke-width="0.13" d="M28.972 87.593L28.948 87.424L28.85 87.278L28.704 87.182L28.535 87.156L28.364 87.182L28.219 87.278L28.121 87.424L28.097 87.593L28.121 87.763L28.219 87.909L28.364 88.007L28.535 88.031L28.704 88.007L28.85 87.909L28.948 87.763L28.972 87.593"/>
   <path stroke-width="0.13" d="M36.28 87.593L36.207 87.448L36.085 87.4L35.941 87.448L35.892 87.593L35.941 87.715L36.085 87.789L36.207 87.715L36.28 87.593"/>
   <path stroke-width="0.13" d="M36.523 87.593L36.499 87.424L36.402 87.278L36.256 87.182L36.085 87.156L35.915 87.182L35.771 87.278L35.673 87.424L35.649 87.593L35.673 87.763L35.771 87.909L35.915 88.007L36.085 88.031L36.256 88.007L36.402 87.909L36.499 87.763L36.523 87.593"/>
   <line stroke-width="0.13" x1="46.042" y1="79.921" x2="46.042" y2="79.727"/>
   <line stroke-width="0.13" x1="46.162" y1="79.849" x2="45.969" y2="79.849"/>
   <line stroke-width="0.13" x1="38.466" y1="79.921" x2="38.466" y2="79.727"/>
   <line stroke-width="0.13" x1="38.612" y1="79.849" x2="38.417" y2="79.849"/>
   <path stroke-width="0.13" d="M37.591 78.78L37.398 78.852L37.348 79.022L37.348 86.283L37.398 86.453L47.158 86.453L47.158 78.852L46.988 78.78L37.591 78.78"/>
   <path stroke-width="0.13" d="M38.659 79.849L38.612 79.727L38.466 79.653L38.344 79.727L38.295 79.849L38.344 79.993L38.466 80.043L38.612 79.993L38.659 79.849"/>
   <path stroke-width="0.13" d="M38.926 79.849L38.878 79.679L38.781 79.533L38.636 79.436L38.466 79.412L38.295 79.436L38.174 79.533L38.076 79.679L38.029 79.849L38.076 80.019L38.174 80.164L38.295 80.26L38.466 80.286L38.636 80.26L38.781 80.164L38.878 80.019L38.926 79.849"/>
   <path stroke-width="0.13" d="M46.212 79.849L46.162 79.727L46.042 79.653L45.896 79.727L45.847 79.849L45.896 79.993L46.042 80.043L46.162 79.993L46.212 79.849"/>
   <path stroke-width="0.13" d="M46.478 79.849L46.429 79.679L46.356 79.533L46.212 79.436L46.042 79.412L45.871 79.436L45.725 79.533L45.628 79.679L45.579 79.849L45.628 80.019L45.725 80.164L45.871 80.26L46.042 80.286L46.212 80.26L46.356 80.164L46.429 80.019L46.478 79.849"/>
   <line stroke-width="0.13" x1="38.466" y1="100.754" x2="38.466" y2="100.948"/>
   <line stroke-width="0.13" x1="38.344" y1="100.802" x2="38.539" y2="100.802"/>
   <line stroke-width="0.13" x1="46.042" y1="100.754" x2="46.042" y2="100.948"/>
   <line stroke-width="0.13" x1="45.896" y1="100.802" x2="46.09" y2="100.802"/>
   <path stroke-width="0.13" d="M46.915 101.896L47.109 101.822L47.158 101.629L47.158 94.393L47.109 94.198L37.348 94.198L37.348 101.822L37.542 101.896L46.915 101.896"/>
   <path stroke-width="0.13" d="M45.847 100.802L45.896 100.948L46.042 100.996L46.162 100.948L46.212 100.802L46.162 100.682L46.042 100.632L45.896 100.682L45.847 100.802"/>
   <path stroke-width="0.13" d="M45.579 100.802L45.628 100.972L45.725 101.118L45.871 101.215L46.042 101.263L46.212 101.215L46.356 101.118L46.429 100.972L46.478 100.802L46.429 100.632L46.356 100.512L46.212 100.415L46.042 100.365L45.871 100.415L45.725 100.512L45.628 100.632L45.579 100.802"/>
   <path stroke-width="0.13" d="M38.295 100.802L38.344 100.948C38.762 101.197 38.764 100.433 38.344 100.682L38.295 100.802"/>
   <path stroke-width="0.13" d="M38.029 100.802L38.076 100.972L38.174 101.118L38.295 101.215L38.466 101.263L38.636 101.215L38.781 101.118L38.878 100.972L38.926 100.802L38.878 100.632C38.716 100.382 38.405 100.25 38.174 100.512L38.076 100.632L38.029 100.802"/>
   <line stroke-width="0.13" x1="46.042" y1="87.667" x2="46.042" y2="87.472"/>
   <line stroke-width="0.13" x1="46.162" y1="87.593" x2="45.969" y2="87.593"/>
   <line stroke-width="0.13" x1="38.466" y1="87.667" x2="38.466" y2="87.472"/>
   <line stroke-width="0.13" x1="38.612" y1="87.593" x2="38.417" y2="87.593"/>
   <path stroke-width="0.13" d="M37.591 86.525L37.398 86.599L37.348 86.769L37.348 94.004L37.398 94.198L47.158 94.198L47.158 86.599L46.988 86.525L37.591 86.525"/>
   <path stroke-width="0.13" d="M38.659 87.593L38.612 87.448L38.466 87.4L38.344 87.448L38.295 87.593L38.344 87.715L38.466 87.789L38.612 87.715L38.659 87.593"/>
   <path stroke-width="0.13" d="M38.926 87.593L38.878 87.424L38.781 87.278L38.636 87.182L38.466 87.156L38.295 87.182L38.174 87.278L38.076 87.424L38.029 87.593L38.076 87.763L38.174 87.909L38.295 88.007L38.466 88.031L38.636 88.007L38.781 87.909L38.878 87.763L38.926 87.593"/>
   <path stroke-width="0.13" d="M46.212 87.593L46.162 87.448L46.042 87.4L45.896 87.448L45.847 87.593L45.896 87.715L46.042 87.789L46.162 87.715L46.212 87.593"/>
   <path stroke-width="0.13" d="M46.478 87.593L46.429 87.424L46.356 87.278L46.212 87.182L46.042 87.156L45.871 87.182L45.725 87.278L45.628 87.424L45.579 87.593L45.628 87.763L45.725 87.909L45.871 88.007L46.042 88.031L46.212 88.007L46.356 87.909L46.429 87.763L46.478 87.593"/>
   <line stroke-width="0.13" x1="26.131" y1="115.662" x2="26.131" y2="115.492"/>
   <line stroke-width="0.13" x1="26.253" y1="115.614" x2="26.082" y2="115.614"/>
   <line stroke-width="0.13" x1="18.579" y1="115.662" x2="18.579" y2="115.492"/>
   <line stroke-width="0.13" x1="18.701" y1="115.614" x2="18.507" y2="115.614"/>
   <path stroke-width="0.13" d="M17.705 114.546L17.51 114.594L17.439 114.789L17.439 122.025L17.51 122.218L27.271 122.218L27.271 114.594L27.077 114.546L17.705 114.546"/>
   <path stroke-width="0.13" d="M18.774 115.614L18.725 115.468L18.579 115.42L18.457 115.468L18.385 115.614L18.457 115.736L18.579 115.808L18.725 115.736L18.774 115.614"/>
   <path stroke-width="0.13" d="M19.016 115.614L18.992 115.444L18.894 115.299L18.75 115.201L18.579 115.177L18.41 115.201L18.263 115.299L18.167 115.444L18.143 115.614L18.167 115.784L18.263 115.93L18.41 116.027L18.579 116.052L18.75 116.027L18.894 115.93L18.992 115.784L19.016 115.614"/>
   <path stroke-width="0.13" d="M26.324 115.614L26.277 115.468L26.131 115.42L26.01 115.468L25.937 115.614L26.01 115.736L26.131 115.808L26.277 115.736L26.324 115.614"/>
   <path stroke-width="0.13" d="M26.568 115.614L26.544 115.444L26.446 115.299L26.3 115.201L26.131 115.177L25.96 115.201L25.815 115.299L25.718 115.444L25.693 115.614L25.718 115.784L25.815 115.93L25.96 116.027L26.131 116.052L26.3 116.027L26.446 115.93L26.544 115.784L26.568 115.614"/>
   <line stroke-width="0.13" x1="36.085" y1="115.662" x2="36.085" y2="115.492"/>
   <line stroke-width="0.13" x1="36.207" y1="115.614" x2="36.014" y2="115.614"/>
   <line stroke-width="0.13" x1="28.535" y1="115.662" x2="28.535" y2="115.492"/>
   <line stroke-width="0.13" x1="28.655" y1="115.614" x2="28.461" y2="115.614"/>
   <path stroke-width="0.13" d="M27.637 114.546L27.466 114.594L27.393 114.789L27.393 122.025L27.466 122.218L37.228 122.218L37.228 114.594L37.033 114.546L27.637 114.546"/>
   <path stroke-width="0.13" d="M28.728 115.614L28.655 115.468L28.535 115.42L28.388 115.468L28.341 115.614L28.388 115.736L28.535 115.808L28.655 115.736L28.728 115.614"/>
   <path stroke-width="0.13" d="M28.972 115.614L28.948 115.444L28.85 115.299L28.704 115.201L28.535 115.177L28.364 115.201L28.219 115.299L28.121 115.444L28.097 115.614L28.121 115.784L28.219 115.93L28.364 116.027L28.535 116.052L28.704 116.027L28.85 115.93L28.948 115.784L28.972 115.614"/>
   <path stroke-width="0.13" d="M36.28 115.614L36.207 115.468L36.085 115.42L35.941 115.468L35.892 115.614L35.941 115.736L36.085 115.808L36.207 115.736L36.28 115.614"/>
   <path stroke-width="0.13" d="M36.523 115.614L36.499 115.444L36.402 115.299L36.256 115.201L36.085 115.177L35.915 115.201L35.771 115.299L35.673 115.444L35.649 115.614L35.673 115.784L35.771 115.93L35.915 116.027L36.085 116.052L36.256 116.027L36.402 115.93L36.499 115.784L36.523 115.614"/>
   <line stroke-width="0.13" x1="26.131" y1="123.409" x2="26.131" y2="123.239"/>
   <line stroke-width="0.13" x1="26.253" y1="123.359" x2="26.082" y2="123.359"/>
   <line stroke-width="0.13" x1="18.579" y1="123.409" x2="18.579" y2="123.239"/>
   <line stroke-width="0.13" x1="18.701" y1="123.359" x2="18.507" y2="123.359"/>
   <path stroke-width="0.13" d="M17.705 122.292L17.51 122.34L17.439 122.534L17.439 129.77L17.51 129.965L27.271 129.965L27.271 122.34L27.077 122.292L17.705 122.292"/>
   <path stroke-width="0.13" d="M18.774 123.359L18.725 123.215L18.579 123.165L18.457 123.215L18.385 123.359L18.457 123.481L18.579 123.53L18.725 123.481L18.774 123.359"/>
   <path stroke-width="0.13" d="M19.016 123.359L18.992 123.189L18.894 123.045C18.635 122.799 18.318 122.891 18.167 123.189L18.143 123.359L18.167 123.53L18.263 123.676L18.41 123.772L18.579 123.796L18.75 123.772L18.894 123.676L18.992 123.53L19.016 123.359"/>
   <path stroke-width="0.13" d="M26.324 123.359L26.277 123.215L26.131 123.165L26.01 123.215L25.937 123.359L26.01 123.481L26.131 123.53L26.277 123.481L26.324 123.359"/>
   <path stroke-width="0.13" d="M26.568 123.359L26.544 123.189L26.446 123.045C26.187 122.799 25.87 122.891 25.718 123.189L25.693 123.359L25.718 123.53L25.815 123.676L25.96 123.772L26.131 123.796L26.3 123.772L26.446 123.676L26.544 123.53L26.568 123.359"/>
   <line stroke-width="0.13" x1="28.535" y1="136.52" x2="28.535" y2="136.691"/>
   <line stroke-width="0.13" x1="28.414" y1="136.568" x2="28.583" y2="136.568"/>
   <line stroke-width="0.13" x1="36.085" y1="136.52" x2="36.085" y2="136.691"/>
   <line stroke-width="0.13" x1="35.965" y1="136.568" x2="36.158" y2="136.568"/>
   <path stroke-width="0.13" d="M36.96 137.638L37.155 137.588L37.228 137.395L37.228 130.158L37.155 129.965L27.393 129.965L27.393 137.588L27.588 137.638L36.96 137.638"/>
   <path stroke-width="0.13" d="M35.892 136.568L35.941 136.715L36.085 136.763L36.207 136.715L36.28 136.568L36.207 136.448L36.085 136.375L35.941 136.448L35.892 136.568"/>
   <path stroke-width="0.13" d="M35.649 136.568L35.673 136.739L35.771 136.884L35.915 136.981L36.085 137.006L36.256 136.981L36.402 136.884L36.499 136.739L36.523 136.568L36.499 136.399L36.402 136.253L36.256 136.156L36.085 136.132L35.915 136.156L35.771 136.253L35.673 136.399L35.649 136.568"/>
   <path stroke-width="0.13" d="M28.341 136.568L28.388 136.715L28.535 136.763L28.655 136.715L28.728 136.568L28.655 136.448L28.535 136.375L28.388 136.448L28.341 136.568"/>
   <path stroke-width="0.13" d="M28.097 136.568L28.121 136.739L28.219 136.884L28.364 136.981L28.535 137.006L28.704 136.981L28.85 136.884L28.948 136.739L28.972 136.568L28.948 136.399L28.85 136.253L28.704 136.156L28.535 136.132L28.364 136.156L28.219 136.253L28.121 136.399L28.097 136.568"/>
   <line stroke-width="0.13" x1="18.579" y1="136.52" x2="18.579" y2="136.691"/>
   <line stroke-width="0.13" x1="18.457" y1="136.568" x2="18.652" y2="136.568"/>
   <line stroke-width="0.13" x1="26.131" y1="136.52" x2="26.131" y2="136.691"/>
   <line stroke-width="0.13" x1="26.01" y1="136.568" x2="26.204" y2="136.568"/>
   <path stroke-width="0.13" d="M27.03 137.638L27.199 137.588L27.271 137.395L27.271 130.158L27.199 129.965L17.439 129.965L17.439 137.588L17.632 137.638L27.03 137.638"/>
   <path stroke-width="0.13" d="M25.937 136.568L26.01 136.715L26.131 136.763L26.277 136.715L26.324 136.568L26.277 136.448L26.131 136.375L26.01 136.448L25.937 136.568"/>
   <path stroke-width="0.13" d="M25.693 136.568L25.718 136.739L25.815 136.884L25.96 136.981L26.131 137.006L26.3 136.981L26.446 136.884L26.544 136.739L26.568 136.568L26.544 136.399L26.446 136.253L26.3 136.156L26.131 136.132L25.96 136.156L25.815 136.253L25.718 136.399L25.693 136.568"/>
   <path stroke-width="0.13" d="M18.385 136.568L18.457 136.715L18.579 136.763L18.725 136.715L18.774 136.568L18.725 136.448L18.579 136.375L18.457 136.448L18.385 136.568"/>
   <path stroke-width="0.13" d="M18.143 136.568L18.167 136.739L18.263 136.884L18.41 136.981L18.579 137.006L18.75 136.981L18.894 136.884L18.992 136.739L19.016 136.568L18.992 136.399L18.894 136.253L18.75 136.156L18.579 136.132L18.41 136.156L18.263 136.253L18.167 136.399L18.143 136.568"/>
   <line stroke-width="0.13" x1="36.085" y1="123.409" x2="36.085" y2="123.239"/>
   <line stroke-width="0.13" x1="36.207" y1="123.359" x2="36.014" y2="123.359"/>
   <line stroke-width="0.13" x1="28.535" y1="123.409" x2="28.535" y2="123.239"/>
   <line stroke-width="0.13" x1="28.655" y1="123.359" x2="28.461" y2="123.359"/>
   <path stroke-width="0.13" d="M27.637 122.292L27.466 122.34L27.393 122.534L27.393 129.77L27.466 129.965L37.228 129.965L37.228 122.34L37.033 122.292L27.637 122.292"/>
   <path stroke-width="0.13" d="M28.728 123.359L28.655 123.215L28.535 123.165L28.388 123.215L28.341 123.359L28.388 123.481L28.535 123.53L28.655 123.481L28.728 123.359"/>
   <path stroke-width="0.13" d="M28.972 123.359L28.948 123.189L28.85 123.045C28.591 122.799 28.274 122.891 28.121 123.189L28.097 123.359L28.121 123.53L28.219 123.676L28.364 123.772L28.535 123.796L28.704 123.772L28.85 123.676L28.948 123.53L28.972 123.359"/>
   <path stroke-width="0.13" d="M36.28 123.359L36.207 123.215L36.085 123.165L35.941 123.215L35.892 123.359L35.941 123.481L36.085 123.53L36.207 123.481L36.28 123.359"/>
   <path stroke-width="0.13" d="M36.523 123.359L36.499 123.189L36.402 123.045C36.142 122.799 35.825 122.891 35.673 123.189L35.649 123.359L35.673 123.53L35.771 123.676L35.915 123.772L36.085 123.796L36.256 123.772L36.402 123.676L36.499 123.53L36.523 123.359"/>
   <line stroke-width="0.13" x1="46.042" y1="115.662" x2="46.042" y2="115.492"/>
   <line stroke-width="0.13" x1="46.162" y1="115.614" x2="45.969" y2="115.614"/>
   <line stroke-width="0.13" x1="38.466" y1="115.662" x2="38.466" y2="115.492"/>
   <line stroke-width="0.13" x1="38.612" y1="115.614" x2="38.417" y2="115.614"/>
   <path stroke-width="0.13" d="M37.591 114.546L37.398 114.594L37.348 114.789L37.348 122.025L37.398 122.218L47.158 122.218L47.158 114.594L46.988 114.546L37.591 114.546"/>
   <path stroke-width="0.13" d="M38.659 115.614L38.612 115.468L38.466 115.42L38.344 115.468L38.295 115.614L38.344 115.736L38.466 115.808L38.612 115.736L38.659 115.614"/>
   <path stroke-width="0.13" d="M38.926 115.614L38.878 115.444L38.781 115.299L38.636 115.201L38.466 115.177L38.295 115.201L38.174 115.299L38.076 115.444L38.029 115.614L38.076 115.784L38.174 115.93L38.295 116.027L38.466 116.052L38.636 116.027L38.781 115.93L38.878 115.784L38.926 115.614"/>
   <path stroke-width="0.13" d="M46.212 115.614L46.162 115.468L46.042 115.42L45.896 115.468L45.847 115.614L45.896 115.736L46.042 115.808L46.162 115.736L46.212 115.614"/>
   <path stroke-width="0.13" d="M46.478 115.614L46.429 115.444L46.356 115.299L46.212 115.201L46.042 115.177L45.871 115.201L45.725 115.299L45.628 115.444L45.579 115.614L45.628 115.784L45.725 115.93L45.871 116.027L46.042 116.052L46.212 116.027L46.356 115.93L46.429 115.784L46.478 115.614"/>
   <line stroke-width="0.13" x1="38.466" y1="136.52" x2="38.466" y2="136.691"/>
   <line stroke-width="0.13" x1="38.344" y1="136.568" x2="38.539" y2="136.568"/>
   <line stroke-width="0.13" x1="46.042" y1="136.52" x2="46.042" y2="136.691"/>
   <line stroke-width="0.13" x1="45.896" y1="136.568" x2="46.09" y2="136.568"/>
   <path stroke-width="0.13" d="M46.915 137.638L47.109 137.588L47.158 137.395L47.158 130.158L47.109 129.965L37.348 129.965L37.348 137.588L37.542 137.638L46.915 137.638"/>
   <path stroke-width="0.13" d="M45.847 136.568L45.896 136.715L46.042 136.763L46.162 136.715L46.212 136.568L46.162 136.448L46.042 136.375L45.896 136.448L45.847 136.568"/>
   <path stroke-width="0.13" d="M45.579 136.568L45.628 136.739L45.725 136.884L45.871 136.981L46.042 137.006L46.212 136.981L46.356 136.884L46.429 136.739L46.478 136.568L46.429 136.399L46.356 136.253L46.212 136.156L46.042 136.132L45.871 136.156L45.725 136.253L45.628 136.399L45.579 136.568"/>
   <path stroke-width="0.13" d="M38.295 136.568L38.344 136.715L38.466 136.763L38.612 136.715L38.659 136.568L38.612 136.448L38.466 136.375L38.344 136.448L38.295 136.568"/>
   <path stroke-width="0.13" d="M38.029 136.568L38.076 136.739L38.174 136.884L38.295 136.981L38.466 137.006L38.636 136.981L38.781 136.884L38.878 136.739L38.926 136.568L38.878 136.399L38.781 136.253L38.636 136.156L38.466 136.132L38.295 136.156L38.174 136.253L38.076 136.399L38.029 136.568"/>
   <line stroke-width="0.13" x1="46.042" y1="123.409" x2="46.042" y2="123.239"/>
   <line stroke-width="0.13" x1="46.162" y1="123.359" x2="45.969" y2="123.359"/>
   <line stroke-width="0.13" x1="38.466" y1="123.409" x2="38.466" y2="123.239"/>
   <line stroke-width="0.13" x1="38.612" y1="123.359" x2="38.417" y2="123.359"/>
   <path stroke-width="0.13" d="M37.591 122.292L37.398 122.34L37.348 122.534L37.348 129.77L37.398 129.965L47.158 129.965L47.158 122.34L46.988 122.292L37.591 122.292"/>
   <path stroke-width="0.13" d="M38.659 123.359L38.612 123.215L38.466 123.165L38.344 123.215L38.295 123.359L38.344 123.481L38.466 123.53L38.612 123.481L38.659 123.359"/>
   <path stroke-width="0.13" d="M38.926 123.359L38.878 123.189L38.781 123.045C38.499 122.801 38.246 122.878 38.076 123.189L38.029 123.359L38.076 123.53L38.174 123.676L38.295 123.772L38.466 123.796L38.636 123.772L38.781 123.676L38.878 123.53L38.926 123.359"/>
   <path stroke-width="0.13" d="M46.212 123.359L46.162 123.215L46.042 123.165L45.896 123.215L45.847 123.359L45.896 123.481L46.042 123.53L46.162 123.481L46.212 123.359"/>
   <path stroke-width="0.13" d="M46.478 123.359L46.429 123.189L46.356 123.045C46.097 122.799 45.78 122.891 45.628 123.189L45.579 123.359L45.628 123.53L45.725 123.676L45.871 123.772L46.042 123.796L46.212 123.772L46.356 123.676L46.429 123.53L46.478 123.359"/>
  </g>
  <path stroke-width="0.2" stroke-dasharray="5 1 1 1" d="M1.51 0.1L1.51 177.24L67.284 177.24L67.284 0.1L2.509 0.1"/>
  <line stroke-width="0.2" x1="2.509" y1="0.1" x2="1.51" y2="0.1"/>
  <path stroke-width="0.2" stroke-dasharray="5 1 1 1" d="M15.009 155.337L15.009 161.983L32.625 161.983L32.625 155.337L16.01 155.337"/>
  <line stroke-width="0.2" x1="16.01" y1="155.337" x2="15.009" y2="155.337"/>
  <path stroke-width="0.2" stroke-dasharray="5 1 1 1" d="M14.907 163.192L14.907 170.076L32.625 170.076L32.625 163.192L15.907 163.192"/>
  <line stroke-width="0.2" x1="15.907" y1="163.192" x2="14.907" y2="163.192"/>
  <polygon stroke-width="0.2" points="14.044 150.781 14.044 174.53 45.752 174.53 45.752 150.781 14.044 150.781"/>
  <polygon stroke-width="0.353" points="18.344 156.526 18.344 168.526 31.463 168.526 31.463 156.526 18.344 156.526"/>
 </g>
 <g id="120mm_x0020_hidden_x0020_Schneider_x0020_layer_x0020_for_x0020_editor">
  <polygon stroke="none" points="0 168.578 0 177.578 120 177.578 120 168.578 0 168.578"/>
 </g>
 <g id="cutout_x0020_layer">
 </g>
 <g id="outline_x0020_layer">
 </g>
 <g id="zoom_x0020_layer">
 </g>
 <g id="outline_x0020_on_x0020_zoom_x0020_layer">
 </g>
 <g id="arrow_x0020_layer">
 </g>
 <g id="_x0020_cable_x0020_layer">
  <g>
   <path stroke="#FFFFFF" stroke-width="2" d="M33.115 166.016L59.918 166.016L59.918 110.128L59.918 16.269L28.207 16.269"/>
   <polyline stroke-width="0.7" points="31.765 166.016 59.918 166.016 59.918 110.128 59.918 16.269 26.858 16.269"/>
  </g>
  <g>
   <path stroke="#FFFFFF" stroke-width="2" d="M48.609 43.744L52.847 43.744L52.847 65.105L48.609 65.105"/>
   <polyline stroke-width="0.7" points="47.259 43.744 52.847 43.744 52.847 65.105 47.259 65.105"/>
  </g>
  <g>
   <path stroke="#FFFFFF" stroke-width="2" d="M48.262 51.947L55.564 51.947L55.564 34.462L8.518 34.462L8.518 8.413L16.091 8.413"/>
   <polyline stroke-width="0.7" points="46.912 51.947 55.564 51.947 55.564 34.462 8.518 34.462 8.518 8.413 17.44 8.413"/>
  </g>
  <g>
   <path stroke="#FFFFFF" stroke-width="2" d="M16.1 16.074L11.952 16.074L11.952 29.143L16.01 29.143"/>
   <polyline stroke-width="0.7" points="17.451 16.074 11.952 16.074 11.952 29.143 17.361 29.143"/>
  </g>
  <g>
   <path stroke="#FFFFFF" stroke-width="2" d="M38.268 8.144L43.048 8.144L43.048 29.504L38.359 29.504"/>
   <polyline stroke-width="0.7" points="36.918 8.144 43.048 8.144 43.048 29.504 37.009 29.504"/>
  </g>
  <g>
   <path stroke="#FFFFFF" stroke-width="2" d="M47.962 79.501L52.847 79.501L52.847 100.861L48.1 100.861"/>
   <polyline stroke-width="0.7" points="46.612 79.501 52.847 79.501 52.847 100.861 46.75 100.861"/>
  </g>
  <g>
   <path stroke="#FFFFFF" stroke-width="2" d="M48.262 87.703L55.564 87.703L55.564 70.218L8.518 70.218L8.518 44.17L16.091 44.17"/>
   <polyline stroke-width="0.7" points="46.912 87.703 55.564 87.703 55.564 70.218 8.518 70.218 8.518 44.17 17.44 44.17"/>
  </g>
  <g>
   <path stroke="#FFFFFF" stroke-width="2" d="M48.406 115.283L52.847 115.269L52.847 136.628L48.201 136.653"/>
   <polyline stroke-width="0.7" points="47.057 115.287 52.847 115.269 52.847 136.628 46.851 136.661"/>
  </g>
  <g>
   <path stroke="#FFFFFF" stroke-width="2" d="M48.262 123.469L55.564 123.469L55.564 105.984L8.518 105.984L8.518 79.938L16.211 79.938"/>
   <polyline stroke-width="0.7" points="46.912 123.469 55.564 123.469 55.564 105.984 8.518 105.984 8.518 79.938 17.562 79.938"/>
  </g>
  <g>
   <path stroke="#FFFFFF" stroke-width="2" d="M16.1 51.753L11.952 51.753L11.952 64.822L16.01 64.822"/>
   <polyline stroke-width="0.7" points="17.451 51.753 11.952 51.753 11.952 64.822 17.361 64.822"/>
  </g>
  <g>
   <path stroke="#FFFFFF" stroke-width="2" d="M16.211 87.481L11.952 87.481L11.952 100.551L16.489 100.551"/>
   <polyline stroke-width="0.7" points="17.562 87.481 11.952 87.481 11.952 100.551 17.839 100.551"/>
  </g>
  <g>
   <path stroke="#FFFFFF" stroke-width="2" d="M16.379 123.371L11.952 123.371L11.952 136.439L16.397 136.439"/>
   <polyline stroke-width="0.7" points="17.728 123.371 11.952 123.371 11.952 136.439 17.748 136.439"/>
  </g>
  <g>
   <path stroke="#FFFFFF" stroke-width="2" d="M32.994 159.025L55.564 159.026L55.564 141.542L8.518 141.542L8.518 115.493L16.5 115.493"/>
   <polyline stroke-width="0.7" points="31.644 159.024 55.564 159.026 55.564 141.542 8.518 141.542 8.518 115.493 17.85 115.493"/>
  </g>
  <line stroke-width="0.353" x1="36.28" y1="136.539" x2="38.206" y2="136.539"/>
  <line stroke-width="0.353" x1="26.365" y1="136.539" x2="28.291" y2="136.539"/>
  <line stroke-width="0.353" x1="36.28" y1="123.356" x2="38.206" y2="123.356"/>
  <line stroke-width="0.353" x1="26.365" y1="123.356" x2="28.291" y2="123.356"/>
  <line stroke-width="0.353" x1="36.28" y1="115.656" x2="38.206" y2="115.656"/>
  <line stroke-width="0.353" x1="26.365" y1="115.656" x2="28.291" y2="115.656"/>
  <line stroke-width="0.353" x1="36.418" y1="100.875" x2="38.344" y2="100.875"/>
  <line stroke-width="0.353" x1="26.504" y1="100.875" x2="28.428" y2="100.875"/>
  <line stroke-width="0.353" x1="36.418" y1="87.691" x2="38.344" y2="87.691"/>
  <line stroke-width="0.353" x1="26.504" y1="87.691" x2="28.428" y2="87.691"/>
  <line stroke-width="0.353" x1="36.418" y1="79.992" x2="38.344" y2="79.992"/>
  <line stroke-width="0.353" x1="26.504" y1="79.992" x2="28.428" y2="79.992"/>
  <line stroke-width="0.353" x1="36.393" y1="64.933" x2="38.319" y2="64.933"/>
  <line stroke-width="0.353" x1="26.478" y1="64.933" x2="28.403" y2="64.933"/>
  <line stroke-width="0.353" x1="36.393" y1="51.752" x2="38.319" y2="51.752"/>
  <line stroke-width="0.353" x1="26.478" y1="51.752" x2="28.403" y2="51.752"/>
  <line stroke-width="0.353" x1="36.393" y1="44.051" x2="38.319" y2="44.051"/>
  <line stroke-width="0.353" x1="26.478" y1="44.051" x2="28.403" y2="44.051"/>
  <line stroke-width="0.353" x1="26.309" y1="29.248" x2="28.234" y2="29.248"/>
  <line stroke-width="0.353" x1="26.239" y1="8.18" x2="28.164" y2="8.18"/>
 </g>
 <g id="symbol_x0020_layer">
 </g>
 <g id="text_x0020_layer">
  <text x="26.932" y="111.486" stroke="none" fill="#000000" font-family="'Arial'" font-size="3.528">Bottom</text>
  <text x="27.993" y="4.128" stroke="none" fill="#000000" font-family="'Arial'" font-size="3.528">Top</text>
 </g>
 <g id="text-_x0020_DO_x0020_NOT_x0020_translate">
  <text x="20.19" y="12.942" stroke="none" fill="#000000" font-family="'Arial'" font-size="4.046">28</text>
  <text x="30.269" y="12.942" stroke="none" fill="#000000" font-family="'Arial'" font-size="4.046">29</text>
  <text x="20.251" y="21.106" stroke="none" fill="#000000" font-family="'Arial'" font-size="4.046">32</text>
  <text x="20.19" y="27.396" stroke="none" fill="#000000" font-family="'Arial'" font-size="4.046">31</text>
  <text x="29.949" y="27.289" stroke="none" fill="#000000" font-family="'Arial'" font-size="4.046">30</text>
  <text x="39.898" y="48.508" stroke="none" fill="#000000" font-family="'Arial'" font-size="4.046">21</text>
  <text x="30.275" y="48.508" stroke="none" fill="#000000" font-family="'Arial'" font-size="4.046">20</text>
  <text x="20.164" y="48.508" stroke="none" fill="#000000" font-family="'Arial'" font-size="4.046">19</text>
  <text x="39.862" y="56.652" stroke="none" fill="#000000" font-family="'Arial'" font-size="4.046">27</text>
  <text x="30.239" y="56.652" stroke="none" fill="#000000" font-family="'Arial'" font-size="4.046">26</text>
  <text x="20.129" y="56.652" stroke="none" fill="#000000" font-family="'Arial'" font-size="4.046">25</text>
  <text x="20.164" y="62.594" stroke="none" fill="#000000" font-family="'Arial'" font-size="4.046">24</text>
  <text x="30.275" y="62.594" stroke="none" fill="#000000" font-family="'Arial'" font-size="4.046">23</text>
  <text x="39.898" y="62.594" stroke="none" fill="#000000" font-family="'Arial'" font-size="4.046">22</text>
  <text x="39.761" y="84.45" stroke="none" fill="#000000" font-family="'Arial'" font-size="4.046">12</text>
  <text x="30.138" y="84.45" stroke="none" fill="#000000" font-family="'Arial'" font-size="4.046">11</text>
  <text x="20.027" y="84.45" stroke="none" fill="#000000" font-family="'Arial'" font-size="4.046">10</text>
  <text x="39.761" y="92.2" stroke="none" fill="#000000" font-family="'Arial'" font-size="4.046">18</text>
  <text x="30.138" y="92.2" stroke="none" fill="#000000" font-family="'Arial'" font-size="4.046">17</text>
  <text x="20.027" y="92.2" stroke="none" fill="#000000" font-family="'Arial'" font-size="4.046">16</text>
  <text x="19.981" y="98.496" stroke="none" fill="#000000" font-family="'Arial'" font-size="4.046">15</text>
  <text x="30.091" y="98.496" stroke="none" fill="#000000" font-family="'Arial'" font-size="4.046">14</text>
  <text x="39.713" y="98.496" stroke="none" fill="#000000" font-family="'Arial'" font-size="4.046">13</text>
  <text x="40.89" y="120.131" stroke="none" fill="#000000" font-family="'Arial'" font-size="4.046">3</text>
  <text x="31.199" y="120.131" stroke="none" fill="#000000" font-family="'Arial'" font-size="4.046">2</text>
  <text x="21.365" y="120.131" stroke="none" fill="#000000" font-family="'Arial'" font-size="4.046">1</text>
  <text x="40.89" y="127.882" stroke="none" fill="#000000" font-family="'Arial'" font-size="4.046">9</text>
  <text x="31.199" y="127.882" stroke="none" fill="#000000" font-family="'Arial'" font-size="4.046">8</text>
  <text x="21.365" y="127.882" stroke="none" fill="#000000" font-family="'Arial'" font-size="4.046">7</text>
  <text x="21.365" y="134.08" stroke="none" fill="#000000" font-family="'Arial'" font-size="4.046">6</text>
  <text x="31.199" y="134.08" stroke="none" fill="#000000" font-family="'Arial'" font-size="4.046">5</text>
  <text x="40.89" y="134.08" stroke="none" fill="#000000" font-family="'Arial'" font-size="4.046">4</text>
  <g>
   <g>
    <text x="38.853" y="65.545" stroke="none" fill="#000000" font-family="'Arial'" font-size="4.855">-</text>
    <text x="42.515" y="65.914" stroke="none" fill="#000000" font-family="'Arial'" font-size="4.855">+</text>
   </g>
   <g>
    <text x="28.811" y="65.545" stroke="none" fill="#000000" font-family="'Arial'" font-size="4.855">-</text>
    <text x="32.472" y="65.914" stroke="none" fill="#000000" font-family="'Arial'" font-size="4.855">+</text>
   </g>
   <g>
    <text x="18.966" y="65.545" stroke="none" fill="#000000" font-family="'Arial'" font-size="4.855">-</text>
    <text x="22.628" y="65.914" stroke="none" fill="#000000" font-family="'Arial'" font-size="4.855">+</text>
   </g>
  </g>
  <g>
   <g>
    <text x="29.184" y="30.309" stroke="none" fill="#000000" font-family="'Arial'" font-size="4.855">-</text>
    <text x="32.845" y="30.678" stroke="none" fill="#000000" font-family="'Arial'" font-size="4.855">+</text>
   </g>
   <g>
    <text x="19.14" y="30.309" stroke="none" fill="#000000" font-family="'Arial'" font-size="4.855">-</text>
    <text x="22.803" y="30.678" stroke="none" fill="#000000" font-family="'Arial'" font-size="4.855">+</text>
   </g>
  </g>
  <g>
   <g>
    <text transform="matrix(-1 0 0 1 25.507 10.06)" stroke="none" fill="#000000" font-family="'Arial'" font-size="4.855">-</text>
    <text transform="matrix(-1 0 0 1 21.846 10.429)" stroke="none" fill="#000000" font-family="'Arial'" font-size="4.855">+</text>
   </g>
   <g>
    <text transform="matrix(-1 0 0 1 35.551 10.06)" stroke="none" fill="#000000" font-family="'Arial'" font-size="4.855">-</text>
    <text transform="matrix(-1 0 0 1 31.888 10.429)" stroke="none" fill="#000000" font-family="'Arial'" font-size="4.855">+</text>
   </g>
  </g>
  <g>
   <g>
    <text transform="matrix(-1 0 0 1 25.253 17.926)" stroke="none" fill="#000000" font-family="'Arial'" font-size="4.855">-</text>
    <text transform="matrix(-1 0 0 1 21.591 18.295)" stroke="none" fill="#000000" font-family="'Arial'" font-size="4.855">+</text>
   </g>
  </g>
  <g>
   <g>
    <text transform="matrix(-1 0 0 1 25.463 45.859)" stroke="none" fill="#000000" font-family="'Arial'" font-size="4.855">-</text>
    <text transform="matrix(-1 0 0 1 21.801 46.228)" stroke="none" fill="#000000" font-family="'Arial'" font-size="4.855">+</text>
   </g>
   <g>
    <text transform="matrix(-1 0 0 1 35.506 45.859)" stroke="none" fill="#000000" font-family="'Arial'" font-size="4.855">-</text>
    <text transform="matrix(-1 0 0 1 31.844 46.228)" stroke="none" fill="#000000" font-family="'Arial'" font-size="4.855">+</text>
   </g>
   <g>
    <text transform="matrix(-1 0 0 1 45.351 45.859)" stroke="none" fill="#000000" font-family="'Arial'" font-size="4.855">-</text>
    <text transform="matrix(-1 0 0 1 41.689 46.228)" stroke="none" fill="#000000" font-family="'Arial'" font-size="4.855">+</text>
   </g>
  </g>
  <g>
   <g>
    <text transform="matrix(-1 0 0 1 25.463 53.529)" stroke="none" fill="#000000" font-family="'Arial'" font-size="4.855">-</text>
    <text transform="matrix(-1 0 0 1 21.801 53.899)" stroke="none" fill="#000000" font-family="'Arial'" font-size="4.855">+</text>
   </g>
   <g>
    <text transform="matrix(-1 0 0 1 35.506 53.529)" stroke="none" fill="#000000" font-family="'Arial'" font-size="4.855">-</text>
    <text transform="matrix(-1 0 0 1 31.844 53.899)" stroke="none" fill="#000000" font-family="'Arial'" font-size="4.855">+</text>
   </g>
   <g>
    <text transform="matrix(-1 0 0 1 45.351 53.529)" stroke="none" fill="#000000" font-family="'Arial'" font-size="4.855">-</text>
    <text transform="matrix(-1 0 0 1 41.689 53.899)" stroke="none" fill="#000000" font-family="'Arial'" font-size="4.855">+</text>
   </g>
  </g>
  <g>
   <path stroke-width="0.2" fill="#FFFFFF" d="M26.579 163.79L26.579 167.65 30.492 167.65 30.492 163.79 26.579 163.79z"/>
   <text x="27.811" y="166.881" stroke="none" fill="#000000" font-family="'Arial'" font-size="4.232">-</text>
  </g>
  <g>
   <path stroke-width="0.2" fill="#FFFFFF" d="M26.579 157.346L26.579 161.205 30.492 161.205 30.492 157.346 26.579 157.346z"/>
   <text x="27.253" y="160.715" stroke="none" fill="#000000" font-family="'Arial'" font-size="4.232">+</text>
  </g>
  <g>
   <g>
    <text x="38.988" y="137.241" stroke="none" fill="#000000" font-family="'Arial'" font-size="4.855">-</text>
    <text x="42.651" y="137.61" stroke="none" fill="#000000" font-family="'Arial'" font-size="4.855">+</text>
   </g>
   <g>
    <text x="28.946" y="137.241" stroke="none" fill="#000000" font-family="'Arial'" font-size="4.855">-</text>
    <text x="32.609" y="137.61" stroke="none" fill="#000000" font-family="'Arial'" font-size="4.855">+</text>
   </g>
   <g>
    <text x="19.1" y="137.241" stroke="none" fill="#000000" font-family="'Arial'" font-size="4.855">-</text>
    <text x="22.763" y="137.61" stroke="none" fill="#000000" font-family="'Arial'" font-size="4.855">+</text>
   </g>
  </g>
  <g>
   <g>
    <text transform="matrix(-1 0 0 1 25.599 117.391)" stroke="none" fill="#000000" font-family="'Arial'" font-size="4.855">-</text>
    <text transform="matrix(-1 0 0 1 21.937 117.762)" stroke="none" fill="#000000" font-family="'Arial'" font-size="4.855">+</text>
   </g>
   <g>
    <text transform="matrix(-1 0 0 1 35.64 117.391)" stroke="none" fill="#000000" font-family="'Arial'" font-size="4.855">-</text>
    <text transform="matrix(-1 0 0 1 31.978 117.762)" stroke="none" fill="#000000" font-family="'Arial'" font-size="4.855">+</text>
   </g>
   <g>
    <text transform="matrix(-1 0 0 1 45.487 117.391)" stroke="none" fill="#000000" font-family="'Arial'" font-size="4.855">-</text>
    <text transform="matrix(-1 0 0 1 41.825 117.762)" stroke="none" fill="#000000" font-family="'Arial'" font-size="4.855">+</text>
   </g>
  </g>
  <g>
   <g>
    <text transform="matrix(-1 0 0 1 25.599 125.063)" stroke="none" fill="#000000" font-family="'Arial'" font-size="4.855">-</text>
    <text transform="matrix(-1 0 0 1 21.937 125.432)" stroke="none" fill="#000000" font-family="'Arial'" font-size="4.855">+</text>
   </g>
   <g>
    <text transform="matrix(-1 0 0 1 35.64 125.063)" stroke="none" fill="#000000" font-family="'Arial'" font-size="4.855">-</text>
    <text transform="matrix(-1 0 0 1 31.978 125.432)" stroke="none" fill="#000000" font-family="'Arial'" font-size="4.855">+</text>
   </g>
   <g>
    <text transform="matrix(-1 0 0 1 45.487 125.063)" stroke="none" fill="#000000" font-family="'Arial'" font-size="4.855">-</text>
    <text transform="matrix(-1 0 0 1 41.825 125.432)" stroke="none" fill="#000000" font-family="'Arial'" font-size="4.855">+</text>
   </g>
  </g>
  <g>
   <g>
    <text x="38.906" y="101.456" stroke="none" fill="#000000" font-family="'Arial'" font-size="4.855">-</text>
    <text x="42.569" y="101.825" stroke="none" fill="#000000" font-family="'Arial'" font-size="4.855">+</text>
   </g>
   <g>
    <text x="28.864" y="101.456" stroke="none" fill="#000000" font-family="'Arial'" font-size="4.855">-</text>
    <text x="32.526" y="101.825" stroke="none" fill="#000000" font-family="'Arial'" font-size="4.855">+</text>
   </g>
   <g>
    <text x="19.018" y="101.456" stroke="none" fill="#000000" font-family="'Arial'" font-size="4.855">-</text>
    <text x="22.681" y="101.825" stroke="none" fill="#000000" font-family="'Arial'" font-size="4.855">+</text>
   </g>
  </g>
  <g>
   <g>
    <text transform="matrix(-1 0 0 1 25.516 81.724)" stroke="none" fill="#000000" font-family="'Arial'" font-size="4.855">-</text>
    <text transform="matrix(-1 0 0 1 21.853 82.093)" stroke="none" fill="#000000" font-family="'Arial'" font-size="4.855">+</text>
   </g>
   <g>
    <text transform="matrix(-1 0 0 1 35.558 81.724)" stroke="none" fill="#000000" font-family="'Arial'" font-size="4.855">-</text>
    <text transform="matrix(-1 0 0 1 31.896 82.093)" stroke="none" fill="#000000" font-family="'Arial'" font-size="4.855">+</text>
   </g>
   <g>
    <text transform="matrix(-1 0 0 1 45.405 81.724)" stroke="none" fill="#000000" font-family="'Arial'" font-size="4.855">-</text>
    <text transform="matrix(-1 0 0 1 41.743 82.093)" stroke="none" fill="#000000" font-family="'Arial'" font-size="4.855">+</text>
   </g>
  </g>
  <g>
   <g>
    <text transform="matrix(-1 0 0 1 25.516 89.394)" stroke="none" fill="#000000" font-family="'Arial'" font-size="4.855">-</text>
    <text transform="matrix(-1 0 0 1 21.853 89.763)" stroke="none" fill="#000000" font-family="'Arial'" font-size="4.855">+</text>
   </g>
   <g>
    <text transform="matrix(-1 0 0 1 35.558 89.394)" stroke="none" fill="#000000" font-family="'Arial'" font-size="4.855">-</text>
    <text transform="matrix(-1 0 0 1 31.896 89.763)" stroke="none" fill="#000000" font-family="'Arial'" font-size="4.855">+</text>
   </g>
   <g>
    <text transform="matrix(-1 0 0 1 45.405 89.394)" stroke="none" fill="#000000" font-family="'Arial'" font-size="4.855">-</text>
    <text transform="matrix(-1 0 0 1 41.743 89.763)" stroke="none" fill="#000000" font-family="'Arial'" font-size="4.855">+</text>
   </g>
  </g>
 </g>
 <g id="callout_x0020_layer">
 </g>
</svg>
