<?xml version="1.0" encoding="UTF-8"?>
<!-- Generator: PTC Arbortext IsoDraw 7.4 M001 -->
<svg xmlns="http://www.w3.org/2000/svg" xmlns:xlink="http://www.w3.org/1999/xlink" width="120mm" height="37.723mm" viewBox="0 0 120 37.723" fill-rule="evenodd" clip-rule="evenodd" stroke="#000000" stroke-linecap="round" fill="none" xml:space="preserve" preserveAspectRatio="xMidYMid meet" zoomAndPan="magnify" version="1.1" contentScriptType="text/ecmascript" contentStyleType="text/css">
 <g id="Standard_x0020_layer">
  <polygon stroke-width="0.2" points="15.335 21.576 20.513 21.576 20.513 28.481 15.335 28.481 15.335 21.576"/>
  <g>
   <line stroke="#FFFFFF" stroke-width="2" x1="20.513" y1="22.925" x2="20.513" y2="27.131"/>
   <line stroke-width="0.7" x1="20.513" y1="21.576" x2="20.513" y2="28.481"/>
  </g>
  <g>
   <line stroke="#FFFFFF" stroke-width="2" x1="21.862" y1="25.028" x2="37.046" y2="25.028"/>
   <line stroke-width="0.7" x1="20.513" y1="25.028" x2="38.396" y2="25.028"/>
  </g>
  <polyline stroke-width="0.2" points="22.175 17.934 21.449 17.934 14.196 31.954 12.875 31.954"/>
  <polygon stroke-width="0.106" points="1.002 8.176 34.363 8.176 34.363 37.316 1.002 37.316 1.002 8.176"/>
  <polygon stroke-width="0.106" points="51.231 3.717 91.474 3.717 91.474 37.316 51.231 37.316 51.231 3.717"/>
  <g>
   <path stroke-width="0.2" d="M69.984 18.626C69.984 18.003 69.48 17.498 68.858 17.498C68.236 17.498 67.731 18.003 67.731 18.626C67.731 19.248 68.236 19.753 68.858 19.753C69.48 19.753 69.984 19.248 69.984 18.626"/>
  </g>
  <g>
   <path stroke-width="0.2" d="M69.984 23.289C69.984 22.667 69.48 22.161 68.858 22.161C68.236 22.161 67.731 22.667 67.731 23.289C67.731 23.911 68.236 24.416 68.858 24.416C69.48 24.416 69.984 23.911 69.984 23.289"/>
  </g>
  <g>
   <path stroke-width="0.2" d="M69.984 27.951C69.984 27.329 69.48 26.826 68.858 26.826C68.236 26.826 67.731 27.329 67.731 27.951C67.731 28.574 68.236 29.079 68.858 29.079C69.48 29.079 69.984 28.574 69.984 27.951"/>
  </g>
  <g>
   <path stroke-width="0.2" d="M69.984 32.615C69.984 31.992 69.48 31.489 68.858 31.489C68.236 31.489 67.731 31.992 67.731 32.615C67.731 33.237 68.236 33.743 68.858 33.743C69.48 33.743 69.984 33.237 69.984 32.615"/>
  </g>
  <polygon stroke-width="0.2" points="66.608 16.713 66.608 34.36 70.632 34.36 70.632 16.713 66.608 16.713"/>
  <g>
   <line stroke-width="0.2" x1="38.396" y1="25.028" x2="68.721" y2="18.228"/>
   <line stroke-width="0.2" x1="38.331" y1="25.219" x2="69.093" y2="23.31"/>
   <line stroke-width="0.2" x1="38.331" y1="25.219" x2="68.685" y2="28.518"/>
   <line stroke-width="0.2" x1="38.331" y1="25.219" x2="69.093" y2="32.637"/>
  </g>
 </g>
 <g id="120mm_x0020_hidden_x0020_Schneider_x0020_layer_x0020_for_x0020_editor">
  <polygon stroke="none" points="0 28.724 0 37.723 120 37.723 120 28.724 0 28.724"/>
 </g>
 <g id="cutout_x0020_layer">
 </g>
 <g id="outline_x0020_layer">
 </g>
 <g id="zoom_x0020_layer">
 </g>
 <g id="arrow_x0020_layer">
 </g>
 <g id="_x0020_cable_x0020_layer">
 </g>
 <g id="symbol_x0020_layer">
 </g>
 <g id="_x0020_text_x0020_layer">
  <text x="1.615" y="11.477" stroke="none" fill="#000000" font-family="'Arial'" font-size="3.528">Temperature sensor</text>
  <text transform="matrix(0.997 0.102 0 0.997 55.683 26.899)" stroke="none" fill="#000000" font-family="'Arial'" font-size="3.528">Black</text>
  <text transform="matrix(0.99 -0.245 0 0.99 55.637 20.512)" stroke="none" fill="#000000" font-family="'Arial'" font-size="3.528">Red</text>
  <text transform="matrix(1 -0.042 0 1 55.683 23.777)" stroke="none" fill="#000000" font-family="'Arial'" font-size="3.528">Brown</text>
  <text transform="matrix(0.984 0.25 0 0.984 55.637 32.156)" stroke="none" fill="#000000" font-family="'Arial'" font-size="3.528">Yellow</text>
  <g>
   <text x="55.579" y="6.751" stroke="none" fill="#000000" font-family="'Arial'" font-size="3.528">External connection </text>
   <text x="55.579" y="10.631" stroke="none" fill="#000000" font-family="'Arial'" font-size="3.528">board 0P2553</text>
  </g>
  <text x="4.679" y="6.187" stroke="none" fill="#000000" font-family="'Arial'" font-size="3.528">Battery solution</text>
  <text x="65.891" y="2.468" stroke="none" fill="#000000" font-family="'Arial'" font-size="3.528">UPS</text>
 </g>
 <g id="text-_x0020_DO_x0020_NOT_x0020_translate">
  <text x="64.466" y="15.675" stroke="none" fill="#000000" font-family="'Arial'" font-size="3.528">J1603</text>
  <text x="71.253" y="19.519" stroke="none" fill="#000000" font-family="'Arial'" font-size="3.528">1</text>
  <text x="73.775" y="19.538" stroke="none" fill="#000000" font-family="'Arial'" font-size="3.528">+24 V</text>
  <text x="71.253" y="24.05" stroke="none" fill="#000000" font-family="'Arial'" font-size="3.528">2</text>
  <text x="73.968" y="23.989" stroke="none" fill="#000000" font-family="'Arial'" font-size="3.528">IN</text>
  <text x="71.253" y="28.778" stroke="none" fill="#000000" font-family="'Arial'" font-size="3.528">3</text>
  <text x="73.775" y="28.798" stroke="none" fill="#000000" font-family="'Arial'" font-size="3.528">GND</text>
  <text x="71.253" y="33.509" stroke="none" fill="#000000" font-family="'Arial'" font-size="3.528">4</text>
  <text x="73.775" y="33.527" stroke="none" fill="#000000" font-family="'Arial'" font-size="3.528">SHLD</text>
  <text x="2.952" y="15.615" stroke="none" fill="#000000" font-family="'Arial'" font-size="3.528">(GUPXCXOPT01)</text>
 </g>
 <g id="_x0020_callout_x0020_layer">
 </g>
</svg>
