<?xml version="1.0" encoding="UTF-8"?>
<!-- Generator: PTC Arbortext IsoDraw 7.4 M001 -->
<svg xmlns="http://www.w3.org/2000/svg" xmlns:xlink="http://www.w3.org/1999/xlink" width="85mm" height="107.266mm" viewBox="0 0 85 107.266" fill-rule="evenodd" clip-rule="evenodd" stroke="#000000" stroke-linecap="round" fill="none" xml:space="preserve" preserveAspectRatio="xMidYMid meet" zoomAndPan="magnify" version="1.1" contentScriptType="text/ecmascript" contentStyleType="text/css">
 <g id="_x0020_fill_x0020_layer">
 </g>
 <g id="Standard_x0020_layer">
  <g id="parallel_40kva_topentry_byp">
   <desc>parallel_40kva_topentry_byp</desc>
   <g id="NSY2SP208_Reality.PRT_2">
    <desc>NSY2SP208_Reality.PRT</desc>
    <line stroke-width="0.106" x1="27.3" y1="84.971" x2="37.537" y2="75.754"/>
   </g>
   <g id="GUPXCAA400TIEC.ASM_1">
    <desc>GUPXCAA400TIEC.ASM</desc>
    <g id="0M-PXCAA400IEC.ASM_1">
     <desc>0M-PXCAA400IEC.ASM</desc>
     <g id="870-17668.PRT_3">
      <desc>870-17668.PRT</desc>
      <path stroke-width="0.106" d="M37.862 76.245C37.866 76.26 37.865 76.253 37.865 76.272L37.865 79.868L37.865 79.885"/>
      <path stroke-width="0.106" d="M37.783 79.903L37.804 79.903L37.834 79.9L37.844 79.897L37.854 79.894L37.865 79.885"/>
     </g>
     <g id="870-17668.PRT_2">
      <desc>870-17668.PRT</desc>
      <line stroke-width="0.106" x1="26.998" y1="89.605" x2="26.998" y2="85.977"/>
      <path stroke-width="0.106" d="M27.086 85.948C27.091 85.963 27.088 85.956 27.088 85.974L27.088 89.572L27.088 89.587"/>
     </g>
     <g id="0M-98675.ASM_7">
      <desc>0M-98675.ASM</desc>
      <g id="870-17661.PRT_7">
       <desc>870-17661.PRT</desc>
       <line stroke-width="0.106" x1="28.455" y1="87.662" x2="28.346" y2="87.649"/>
       <line stroke-width="0.106" x1="29.801" y1="86.45" x2="29.692" y2="86.436"/>
       <line stroke-width="0.106" x1="35.146" y1="81.638" x2="35.036" y2="81.625"/>
       <line stroke-width="0.106" x1="36.491" y1="80.426" x2="36.383" y2="80.412"/>
       <line stroke-width="0.106" x1="27.109" y1="89.46" x2="27.088" y2="89.459"/>
       <line stroke-width="0.106" x1="27.109" y1="89.46" x2="37.838" y2="79.801"/>
       <line stroke-width="0.106" x1="27.109" y1="86.09" x2="37.838" y2="76.429"/>
       <path stroke-width="0.106" d="M29.85 84.772L29.861 84.784L29.882 84.804L29.893 84.814L29.899 84.828L29.934 84.906C29.943 84.924 29.94 84.915 29.945 84.935L29.972 85.049C29.977 85.069 29.975 85.06 29.977 85.081L29.992 85.227C29.993 85.248 29.992 85.236 29.992 85.257L29.992 85.426C29.992 85.447 29.993 85.436 29.992 85.456L29.977 85.635L29.975 85.65L29.972 85.665L29.943 85.84L29.942 85.856L29.937 85.871L29.896 86.034L29.893 86.049L29.888 86.063L29.838 86.201C29.83 86.221 29.835 86.212 29.826 86.23L29.771 86.334L29.765 86.347L29.754 86.359L29.701 86.424C29.689 86.441 29.696 86.433 29.681 86.447L28.358 87.638L28.346 87.649L28.332 87.656L28.309 87.67L28.297 87.677"/>
       <path stroke-width="0.106" d="M29.873 84.76L29.861 84.768L29.815 84.793L29.801 84.802L29.789 84.811L28.466 86.003C28.452 86.016 28.458 86.01 28.446 86.025L28.393 86.09L28.382 86.102L28.376 86.117L28.321 86.221L28.315 86.234L28.309 86.248L28.26 86.387C28.253 86.406 28.256 86.397 28.251 86.417L28.21 86.578C28.204 86.599 28.207 86.588 28.204 86.609L28.175 86.786C28.172 86.805 28.172 86.796 28.17 86.816L28.155 86.993C28.153 87.015 28.155 87.004 28.155 87.025L28.155 87.192L28.155 87.207L28.155 87.224L28.17 87.37C28.172 87.391 28.17 87.381 28.175 87.4L28.202 87.516C28.207 87.536 28.204 87.525 28.213 87.545L28.248 87.621C28.257 87.641 28.251 87.632 28.265 87.647L28.303 87.683L28.315 87.694L28.329 87.697L28.367 87.701L28.382 87.703"/>
       <path stroke-width="0.106" d="M29.873 84.76L29.89 84.762L29.926 84.766L29.943 84.769L29.954 84.78L29.992 84.816C30.006 84.831 30 84.822 30.009 84.841L30.045 84.918C30.053 84.938 30.05 84.927 30.054 84.947L30.08 85.063C30.085 85.084 30.085 85.073 30.086 85.093L30.1 85.24L30.102 85.256L30.102 85.272L30.102 85.438C30.102 85.459 30.103 85.45 30.1 85.469L30.085 85.647C30.085 85.668 30.085 85.658 30.082 85.679L30.053 85.855C30.05 85.875 30.051 85.864 30.047 85.885L30.006 86.046C30.001 86.067 30.004 86.058 29.996 86.076L29.948 86.215L29.943 86.23L29.934 86.242L29.881 86.347L29.873 86.361L29.864 86.373L29.812 86.438C29.798 86.454 29.806 86.447 29.789 86.46L28.466 87.653L28.455 87.662L28.442 87.671L28.396 87.697L28.382 87.703"/>
       <path stroke-width="0.106" d="M36.542 78.748L36.552 78.76L36.573 78.778L36.584 78.79L36.59 78.804L36.625 78.881C36.634 78.9 36.631 78.89 36.636 78.911L36.662 79.025C36.667 79.046 36.665 79.036 36.667 79.055L36.682 79.203C36.683 79.222 36.683 79.212 36.683 79.233L36.683 79.402C36.683 79.421 36.683 79.412 36.682 79.433L36.667 79.609L36.665 79.626L36.664 79.641L36.634 79.816L36.631 79.831L36.628 79.846L36.588 80.01L36.584 80.025L36.579 80.039L36.529 80.177C36.521 80.197 36.526 80.186 36.517 80.206L36.463 80.31L36.456 80.323L36.445 80.335L36.393 80.4C36.38 80.417 36.387 80.409 36.371 80.423L35.048 81.614L35.036 81.625L35.023 81.632L35 81.646L34.987 81.653"/>
       <path stroke-width="0.106" d="M35.073 81.68L35.057 81.677L35.021 81.673L35.005 81.671L34.993 81.659L34.957 81.623C34.942 81.608 34.948 81.617 34.939 81.597L34.902 81.521C34.895 81.501 34.898 81.512 34.893 81.492L34.866 81.376C34.862 81.355 34.863 81.367 34.862 81.346L34.847 81.2L34.845 81.183L34.845 81.168L34.845 81.001C34.845 80.98 34.844 80.99 34.847 80.969L34.862 80.792C34.862 80.771 34.862 80.781 34.865 80.76L34.893 80.584C34.898 80.564 34.896 80.575 34.901 80.555L34.942 80.393C34.947 80.373 34.944 80.382 34.951 80.362L35 80.224L35.005 80.21L35.012 80.197L35.067 80.091L35.073 80.078L35.084 80.066L35.136 80.001C35.149 79.984 35.142 79.992 35.158 79.978L36.481 78.787L36.491 78.777L36.506 78.769L36.551 78.743L36.564 78.736"/>
       <path stroke-width="0.106" d="M36.564 78.736L36.579 78.737L36.618 78.742L36.633 78.745L36.643 78.756L36.682 78.793C36.697 78.807 36.691 78.799 36.7 78.817L36.734 78.894C36.743 78.914 36.74 78.903 36.744 78.924L36.771 79.039C36.777 79.058 36.774 79.049 36.777 79.069L36.792 79.215L36.792 79.231L36.792 79.246L36.792 79.415C36.792 79.436 36.793 79.424 36.792 79.445L36.777 79.623C36.774 79.644 36.777 79.634 36.773 79.655L36.743 79.829C36.74 79.85 36.743 79.84 36.737 79.861L36.697 80.022C36.692 80.043 36.695 80.033 36.688 80.052L36.639 80.191L36.633 80.204L36.625 80.218L36.572 80.322L36.564 80.337L36.554 80.349L36.502 80.414C36.488 80.43 36.496 80.423 36.481 80.436L35.158 81.628L35.146 81.638L35.133 81.646L35.087 81.671L35.073 81.68"/>
       <path stroke-width="0.106" d="M27.088 86.013L27.089 86.013L27.094 86.028L27.106 86.075L27.109 86.09L27.109 86.105L27.109 89.445L27.109 89.46L27.105 89.475L27.094 89.516L27.089 89.531"/>
       <path stroke-width="0.106" d="M37.786 76.316L37.808 76.341L37.819 76.352L37.823 76.367L37.835 76.414L37.838 76.429L37.838 76.444L37.838 79.784L37.838 79.801L37.835 79.816L37.823 79.856L37.819 79.871L37.807 79.882L27.1 89.522L27.089 89.531L27.088 89.533"/>
      </g>
     </g>
     <g id="NSYSF20480.ASM_1">
      <desc>NSYSF20480.ASM</desc>
      <g id="NSYSFC48_UPPER.ASM_3">
       <desc>NSYSFC48_UPPER.ASM</desc>
       <g id="NSYSFC68_PROFILE_D_800.PRT_14">
        <desc>NSYSFC68_PROFILE_D_800.PRT</desc>
        <line stroke-width="0.106" x1="37.161" y1="76.34" x2="27.605" y2="84.944"/>
        <line stroke-width="0.106" x1="37.252" y1="76.444" x2="27.696" y2="85.048"/>
        <line stroke-width="0.106" x1="37.252" y1="76.7" x2="27.696" y2="85.305"/>
        <path stroke-width="0.106" d="M27.673 85.362L27.684 85.352L37.213 76.772L37.225 76.762L37.234 76.75L37.235 76.748L37.244 76.734L37.247 76.719L37.249 76.715L37.252 76.7L37.252 76.685L37.252 76.459L37.252 76.444L37.249 76.429L37.247 76.423L37.244 76.408L37.237 76.394L37.232 76.388L37.225 76.376L37.213 76.367L37.207 76.362L37.195 76.352L37.18 76.347L37.174 76.346L37.161 76.34L37.145 76.34L36.976 76.319L36.96 76.316"/>
       </g>
      </g>
      <g id="NSYSFC48_UPPER.ASM_2">
       <desc>NSYSFC48_UPPER.ASM</desc>
       <g id="NSYSFC68_PROFILE_D_800.PRT_12">
        <desc>NSYSFC68_PROFILE_D_800.PRT</desc>
        <line stroke-width="0.106" x1="37.344" y1="3.408" x2="27.788" y2="12.012"/>
       </g>
      </g>
      <g id="NSYSFV20_Reality.ASM_14">
       <desc>NSYSFV20_Reality.ASM</desc>
       <g id="NSYSFV20_04_Reality.PRT_28">
        <desc>NSYSFV20_04_Reality.PRT</desc>
        <line stroke-width="0.106" x1="37.25" y1="76.341" x2="36.972" y2="76.307"/>
        <line stroke-width="0.106" x1="37.276" y1="76.778" x2="37.276" y2="76.359"/>
        <line stroke-width="0.106" x1="37.25" y1="76.341" x2="37.262" y2="76.361"/>
        <line stroke-width="0.106" x1="37.195" y1="76.352" x2="37.262" y2="76.361"/>
        <line stroke-width="0.106" x1="37.25" y1="76.364" x2="37.25" y2="76.441"/>
        <line stroke-width="0.106" x1="37.25" y1="76.781" x2="37.25" y2="76.703"/>
        <path stroke-width="0.106" d="M37.25 76.341L37.262 76.331L37.783 75.861L37.798 75.84L37.796 75.838"/>
        <path stroke-width="0.106" d="M37.262 76.361L37.274 76.35L37.802 75.875L37.819 75.852L37.814 75.846L37.807 75.84"/>
        <path stroke-width="0.106" d="M37.804 75.831L37.826 75.843L37.831 75.85L37.831 75.867L37.831 76.254L37.831 76.269L37.829 76.275L37.814 76.293L37.287 76.768L37.276 76.778L37.256 76.781C37.24 76.781 37.225 76.778 37.209 76.777"/>
        <path stroke-width="0.106" d="M37.831 75.85L37.829 75.858L37.814 75.876L37.287 76.349L37.276 76.359L37.256 76.364C37.238 76.362 37.219 76.359 37.201 76.358"/>
       </g>
      </g>
     </g>
    </g>
   </g>
   <g id="PXC_40KVA_3PH_W_IN_OUT_XFMR.ASM">
    <desc>PXC_40KVA_3PH_W_IN_OUT_XFMR.ASM</desc>
    <g id="NVE2715901.ASM">
     <desc>NVE2715901.ASM</desc>
     <g id="TECHO_SF_B3_6X8.PRT">
      <desc>TECHO_SF_B3_6X8.PRT</desc>
      <line stroke-width="0.106" x1="26.987" y1="12.237" x2="27.173" y2="12.348"/>
      <line stroke-width="0.106" x1="37.34" y1="2.748" x2="37.317" y2="2.759"/>
      <line stroke-width="0.106" x1="5.759" y1="9.638" x2="5.737" y2="9.692"/>
      <line stroke-width="0.106" x1="5.745" y1="9.675" x2="5.737" y2="9.692"/>
      <line stroke-width="0.106" x1="26.987" y1="12.237" x2="26.89" y2="12.21"/>
      <line stroke-width="0.106" x1="26.987" y1="12.237" x2="26.966" y2="12.227"/>
      <path stroke-width="0.106" d="M5.676 9.882C5.666 9.881 5.653 9.88 5.642 9.878C5.609 9.871 5.573 9.864 5.541 9.852C5.517 9.843 5.493 9.833 5.472 9.817L5.461 9.804C5.461 9.804 5.451 9.791 5.445 9.778L5.435 9.759C5.429 9.746 5.421 9.734 5.424 9.718C5.426 9.698 5.443 9.682 5.458 9.669L15.891 0.276L15.919 0.254C15.952 0.231 15.992 0.22 16.03 0.209L16.126 0.181L16.155 0.173C16.19 0.165 16.225 0.163 16.26 0.163C16.282 0.163 16.301 0.164 16.323 0.167L37.317 2.745L37.332 2.746L37.34 2.748C37.35 2.75 37.362 2.75 37.372 2.754L37.387 2.757L37.402 2.761L37.526 2.797C37.557 2.806 37.591 2.818 37.618 2.838C37.63 2.847 37.64 2.855 37.648 2.868C37.655 2.882 37.655 2.895 37.649 2.907L37.643 2.922L37.631 2.943L37.618 2.968L37.612 2.975L37.606 2.98L37.595 2.991L27.161 12.384L27.135 12.407L27.108 12.422C27.082 12.433 27.057 12.442 27.032 12.448C26.983 12.46 26.931 12.467 26.882 12.47C26.856 12.471 26.832 12.471 26.809 12.471C26.785 12.47 26.76 12.47 26.736 12.468C26.719 12.465 26.702 12.464 26.686 12.461L5.692 9.884L5.676 9.882z"/>
      <path stroke-width="0.106" d="M37.45 2.818C37.432 2.812 37.415 2.806 37.399 2.802L37.375 2.796L37.351 2.79"/>
      <path stroke-width="0.106" d="M5.676 9.882L5.674 9.867L5.671 9.855L5.668 9.839L5.674 9.826L5.73 9.705L5.737 9.692"/>
      <path stroke-width="0.106" d="M5.724 9.606L5.7 9.605L5.677 9.605L5.666 9.608C5.65 9.611 5.658 9.609 5.642 9.612L5.631 9.615L5.626 9.621L5.623 9.628C5.617 9.643 5.629 9.656 5.642 9.663C5.652 9.669 5.663 9.675 5.674 9.679C5.7 9.686 5.726 9.689 5.751 9.692L26.745 12.271C26.809 12.278 26.873 12.279 26.934 12.262C26.951 12.259 26.966 12.253 26.981 12.243L27 12.227L37.432 2.834L37.454 2.812C37.46 2.796 37.447 2.782 37.435 2.775L37.426 2.77L37.414 2.766L37.402 2.761L37.387 2.757"/>
      <path stroke-width="0.106" d="M37.305 2.758L37.317 2.759L37.326 2.762L37.335 2.765L37.344 2.767L37.354 2.788L37.351 2.79L37.341 2.802L26.907 12.195L26.89 12.21L26.865 12.218C26.85 12.221 26.835 12.223 26.82 12.223C26.806 12.223 26.792 12.221 26.78 12.22L5.785 9.641C5.77 9.64 5.754 9.638 5.74 9.634L5.722 9.622L5.721 9.618L5.735 9.596L16.17 0.202L16.185 0.188C16.196 0.182 16.21 0.179 16.222 0.177C16.246 0.174 16.271 0.176 16.297 0.179L37.29 2.756L37.305 2.758L37.314 2.751L37.332 2.746"/>
      <path stroke-width="0.106" d="M37.63 2.932L37.616 2.924L37.457 2.831C37.445 2.825 37.435 2.817 37.421 2.812L37.399 2.802"/>
      <path stroke-width="0.106" d="M26.896 12.205L26.919 12.211C26.936 12.214 26.951 12.221 26.966 12.227"/>
      <path stroke-width="0.106" d="M26.701 12.464L26.698 12.448L26.696 12.436L26.693 12.422L26.699 12.407L26.754 12.287C26.762 12.272 26.768 12.256 26.777 12.243C26.786 12.23 26.786 12.231 26.795 12.221"/>
      <path stroke-width="0.106" d="M16.141 0.176C16.126 0.181 16.109 0.186 16.096 0.196L16.077 0.212L5.644 9.605C5.628 9.619 5.637 9.615 5.618 9.621L5.461 9.675L5.447 9.681"/>
      <path stroke-width="0.106" d="M5.77 9.64L5.762 9.649L5.745 9.675"/>
      <path stroke-width="0.106" d="M37.649 2.907L37.642 2.921L37.636 2.927L37.63 2.932L37.618 2.944L27.184 12.337L27.158 12.359C27.158 12.359 27.138 12.371 27.128 12.377C27.102 12.388 27.074 12.397 27.045 12.404C26.992 12.417 26.94 12.425 26.885 12.428C26.859 12.429 26.833 12.429 26.807 12.429C26.782 12.429 26.756 12.428 26.73 12.426C26.713 12.423 26.695 12.422 26.678 12.419L5.684 9.842C5.628 9.836 5.575 9.827 5.522 9.807C5.5 9.8 5.477 9.789 5.458 9.775C5.448 9.768 5.443 9.763 5.443 9.763L5.437 9.756L5.429 9.744"/>
     </g>
    </g>
    <g id="870-17741_CPL.ASM">
     <desc>870-17741_CPL.ASM</desc>
     <g id="LABEL_2.PRT">
      <desc>LABEL_2.PRT</desc>
      <line stroke-width="0.106" x1="21.51" y1="12.682" x2="21.471" y2="12.718"/>
      <line stroke-width="0.106" x1="21.51" y1="12.682" x2="25.521" y2="13.175"/>
      <line stroke-width="0.106" x1="25.521" y1="13.175" x2="25.481" y2="13.211"/>
      <line stroke-width="0.106" x1="21.471" y1="12.718" x2="25.481" y2="13.211"/>
      <line stroke-width="0.106" x1="25.521" y1="14.275" x2="25.481" y2="14.31"/>
      <path stroke-width="0.106" d="M21.471 12.718L21.471 12.734L21.471 13.803L21.471 13.818L21.472 13.833L21.477 13.875L21.478 13.891L21.481 13.906L21.495 13.948L21.498 13.962L21.506 13.977L21.525 14.016L21.533 14.029L21.542 14.042L21.568 14.079L21.577 14.09L21.588 14.102L21.621 14.132L21.632 14.143L21.646 14.151L21.682 14.176L21.696 14.185L21.71 14.191L21.75 14.208L21.763 14.214L21.78 14.217L21.82 14.227L21.835 14.23L21.85 14.231L25.1 14.631L25.117 14.632L25.132 14.632L25.172 14.634L25.187 14.634L25.202 14.631L25.24 14.625L25.256 14.621L25.271 14.615L25.304 14.602L25.318 14.596L25.332 14.586L25.361 14.566L25.373 14.557L25.385 14.547L25.402 14.531C25.419 14.516 25.411 14.525 25.425 14.509L25.449 14.481L25.46 14.471L25.468 14.457L25.486 14.425L25.493 14.412L25.498 14.397L25.51 14.359L25.513 14.346L25.515 14.33L25.519 14.289L25.521 14.275L25.521 14.259L25.521 13.191L25.521 13.175"/>
      <path stroke-width="0.106" d="M25.481 13.211L25.481 13.227L25.481 14.295L25.481 14.31L25.48 14.326L25.475 14.365L25.474 14.381L25.469 14.397L25.457 14.432L25.452 14.448L25.446 14.461L25.426 14.493L25.42 14.506L25.408 14.519L25.385 14.545L25.373 14.557"/>
     </g>
     <g id="HANDLE_DOOR.PRT">
      <desc>HANDLE_DOOR.PRT</desc>
      <line stroke-width="0.106" x1="6.533" y1="52.686" x2="6.512" y2="51.933"/>
      <line stroke-width="0.106" x1="7.118" y1="51.539" x2="7.113" y2="51.53"/>
      <line stroke-width="0.106" x1="6.512" y1="51.933" x2="6.498" y2="51.171"/>
      <line stroke-width="0.106" x1="6.411" y1="51.954" x2="6.432" y2="52.707"/>
      <line stroke-width="0.106" x1="5.519" y1="51.637" x2="5.493" y2="51.662"/>
      <line stroke-width="0.106" x1="5.605" y1="51.435" x2="5.573" y2="51.46"/>
      <line stroke-width="0.106" x1="5.208" y1="51.805" x2="5.195" y2="51.042"/>
      <path stroke-width="0.106" d="M5.243 52.604L5.237 52.595L5.234 52.588L5.232 52.581C5.23 52.569 5.23 52.557 5.23 52.545L5.208 51.822L5.208 51.805"/>
      <path stroke-width="0.106" d="M6.456 52.71C6.443 52.709 6.431 52.707 6.418 52.707L5.246 52.563C5.232 52.561 5.221 52.558 5.208 52.555"/>
      <path stroke-width="0.106" d="M7.118 42.091L7.113 42.118L7.113 42.134L7.113 51.515C7.113 51.536 7.115 51.526 7.107 51.545L6.54 52.673C6.53 52.691 6.536 52.682 6.52 52.695"/>
      <path stroke-width="0.106" d="M6.432 52.707L6.434 52.728L6.437 52.735L6.445 52.753L6.453 52.755"/>
      <path stroke-width="0.106" d="M6.411 51.954L6.411 51.938L6.394 50.432L6.394 50.417C6.394 49.524 6.413 48.594 6.445 47.701L6.445 47.686L6.508 46.335L6.509 46.304L6.71 43.536L6.713 43.506L6.847 42.128C6.849 42.104 6.852 42.082 6.862 42.06L6.875 42.039L6.884 42.036L6.905 42.042"/>
      <path stroke-width="0.106" d="M7.067 42.033C7.006 42.033 6.945 42.034 6.884 42.036L6.868 42.033L5.695 41.89L5.681 41.887L5.671 41.892L5.66 41.911C5.65 41.933 5.647 41.957 5.644 41.981L5.509 43.357L5.506 43.389L5.307 46.155L5.306 46.17L5.304 46.186L5.243 47.539L5.242 47.57L5.205 48.905L5.203 48.936L5.192 50.253L5.192 50.27L5.192 50.284L5.195 51.027L5.195 51.042"/>
      <path stroke-width="0.106" d="M5.625 41.963C6.041 42.018 6.456 42.069 6.873 42.115"/>
      <path stroke-width="0.106" d="M7.113 42.118C7.059 42.119 7.003 42.121 6.948 42.121L6.937 42.121"/>
      <path stroke-width="0.106" d="M6.498 51.171C6.495 50.462 6.487 49.753 6.508 49.042L6.544 47.71L6.546 47.679L6.607 46.331L6.61 46.299L6.809 43.54L6.812 43.509L6.947 42.137L6.948 42.121L6.947 42.097"/>
      <path stroke-width="0.106" d="M6.525 52.719L6.517 52.725L6.504 52.74L6.484 52.75L6.453 52.755L6.437 52.753L5.266 52.609L5.251 52.606L5.232 52.601L5.219 52.597L5.211 52.591C5.198 52.581 5.203 52.587 5.195 52.573L5.185 52.557L5.179 52.53"/>
      <path stroke-width="0.106" d="M5.182 52.54C5.177 52.526 5.179 52.533 5.179 52.515L5.144 50.862L5.142 50.831L5.15 49.134L5.15 49.103L5.198 47.374L5.198 47.343L5.288 45.588C5.349 44.372 5.479 43.167 5.596 41.957"/>
      <path stroke-width="0.106" d="M5.512 42.832L5.512 42.817L5.593 41.972C5.594 41.951 5.593 41.962 5.599 41.944L5.602 41.93L5.62 41.908L5.626 41.905L5.636 41.898L5.647 41.893L5.658 41.889L5.669 41.889L5.681 41.887L5.695 41.887L5.849 41.884C5.87 41.884 5.86 41.884 5.879 41.887L7.051 42.03C7.07 42.033 7.062 42.03 7.078 42.036L7.088 42.039L7.096 42.045L7.104 42.051L7.108 42.06L7.115 42.069L7.117 42.081C7.12 42.097 7.118 42.088 7.118 42.107L7.118 51.524C7.118 51.543 7.121 51.533 7.112 51.552L6.532 52.706C6.522 52.722 6.528 52.716 6.517 52.725"/>
      <path stroke-width="0.106" d="M6.525 52.719L6.532 52.704L6.533 52.686"/>
      <path stroke-width="0.106" d="M6.517 52.725L6.53 52.709L6.533 52.686"/>
      <path stroke-width="0.106" d="M6.038 51.941L6.027 51.951L6.022 51.954L6.011 51.963L5.998 51.972L5.993 51.975L5.98 51.982L5.966 51.988L5.96 51.99L5.945 51.996L5.931 52L5.924 52.003L5.91 52.006L5.894 52.009L5.887 52.009L5.871 52.012L5.855 52.012L5.847 52.012L5.833 52.012C5.82 52.009 5.806 52.009 5.794 52.006L5.778 52.003L5.769 52L5.754 51.996L5.74 51.991L5.73 51.987L5.716 51.982L5.702 51.975L5.692 51.97L5.679 51.963L5.666 51.956L5.657 51.95L5.644 51.942L5.631 51.932L5.623 51.924L5.612 51.914L5.601 51.904L5.594 51.896L5.583 51.884L5.573 51.872L5.567 51.863L5.557 51.851L5.549 51.838L5.543 51.829L5.535 51.817L5.528 51.801L5.524 51.792L5.517 51.779L5.512 51.765L5.509 51.756L5.504 51.74L5.501 51.725L5.5 51.716L5.496 51.701L5.495 51.686L5.493 51.677L5.493 51.662L5.493 51.646L5.493 51.64L5.495 51.624L5.498 51.609L5.498 51.601L5.501 51.587L5.506 51.572L5.508 51.566L5.512 51.551L5.519 51.536L5.522 51.531L5.528 51.518L5.538 51.505L5.541 51.5L5.549 51.487L5.56 51.475L5.564 51.472L5.573 51.46L5.586 51.451L5.589 51.448L5.602 51.438"/>
      <path stroke-width="0.106" d="M6.051 51.926L6.04 51.936L6.022 51.948L6.009 51.959L5.996 51.963L5.958 51.978L5.942 51.984L5.927 51.987L5.886 51.991L5.87 51.993L5.855 51.991L5.81 51.985L5.794 51.984L5.78 51.978L5.735 51.963L5.721 51.957L5.708 51.948L5.668 51.921L5.655 51.914L5.644 51.902L5.61 51.868L5.599 51.856L5.591 51.844L5.564 51.802L5.556 51.789L5.551 51.774L5.535 51.729L5.53 51.715L5.528 51.7L5.522 51.654L5.519 51.637L5.522 51.622L5.528 51.579L5.53 51.563L5.535 51.548L5.551 51.509L5.557 51.494L5.565 51.482L5.586 51.456L5.596 51.444"/>
      <path stroke-width="0.106" d="M6.038 51.941L6.049 51.929L6.052 51.926L6.064 51.914L6.072 51.901L6.075 51.896L6.083 51.884L6.091 51.869L6.092 51.865L6.099 51.85L6.105 51.835L6.107 51.829L6.11 51.814L6.113 51.799L6.115 51.792L6.118 51.777L6.118 51.762L6.118 51.755L6.12 51.74L6.118 51.723L6.118 51.716L6.115 51.701L6.113 51.685L6.112 51.676L6.107 51.661L6.102 51.646L6.099 51.637L6.094 51.622L6.089 51.609L6.084 51.6L6.078 51.585L6.07 51.572L6.065 51.563L6.056 51.549L6.046 51.537L6.04 51.529L6.03 51.517L6.019 51.506L6.012 51.497L6.001 51.487L5.99 51.476L5.98 51.469L5.969 51.46L5.956 51.451L5.948 51.445L5.935 51.436L5.921 51.429L5.911 51.424L5.897 51.417L5.883 51.412L5.873 51.408L5.86 51.404L5.844 51.399L5.836 51.398L5.82 51.393C5.807 51.392 5.794 51.39 5.78 51.389L5.766 51.389L5.758 51.389L5.742 51.389L5.727 51.392L5.719 51.392L5.703 51.393L5.689 51.399L5.682 51.399L5.668 51.404L5.653 51.409L5.647 51.412L5.634 51.418L5.621 51.426L5.615 51.429L5.602 51.438"/>
      <path stroke-width="0.106" d="M5.681 41.887L5.652 41.89L5.626 41.905"/>
     </g>
     <g id="870-17741.ASM">
      <desc>870-17741.ASM</desc>
      <g id="CUT-AIRFILTER_870-17741.PRT">
       <desc>CUT-AIRFILTER_870-17741.PRT</desc>
       <line stroke-width="0.106" x1="10.756" y1="28.428" x2="10.9" y2="36.365"/>
       <line stroke-width="0.106" x1="10.9" y1="28.301" x2="10.756" y2="28.428"/>
       <line stroke-width="0.106" x1="18.657" y1="37.292" x2="18.632" y2="29.251"/>
       <line stroke-width="0.106" x1="18.713" y1="37.298" x2="18.734" y2="37.283"/>
       <line stroke-width="0.106" x1="18.681" y1="37.31" x2="18.707" y2="37.301"/>
       <line stroke-width="0.106" x1="18.643" y1="37.314" x2="18.657" y2="37.314"/>
       <line stroke-width="0.106" x1="10.818" y1="28.318" x2="10.827" y2="28.314"/>
       <line stroke-width="0.106" x1="10.817" y1="28.318" x2="10.852" y2="28.306"/>
       <line stroke-width="0.106" x1="10.772" y1="28.367" x2="10.888" y2="28.3"/>
       <line stroke-width="0.106" x1="10.842" y1="28.307" x2="10.878" y2="28.3"/>
       <line stroke-width="0.106" x1="18.777" y1="37.186" x2="18.632" y2="29.251"/>
       <line stroke-width="0.106" x1="5.721" y1="82.599" x2="5.721" y2="52.664"/>
       <line stroke-width="0.106" x1="5.729" y1="82.653" x2="5.743" y2="82.603"/>
       <line stroke-width="0.106" x1="26.611" y1="85.048" x2="26.611" y2="85.012"/>
       <line stroke-width="0.106" x1="26.62" y1="13.08" x2="26.62" y2="85.004"/>
       <line stroke-width="0.106" x1="5.927" y1="10.452" x2="26.611" y2="12.993"/>
       <line stroke-width="0.106" x1="26.62" y1="13.08" x2="26.591" y2="13.076"/>
       <line stroke-width="0.106" x1="26.379" y1="13.246" x2="26.33" y2="13.275"/>
       <line stroke-width="0.106" x1="26.611" y1="12.993" x2="26.611" y2="13.058"/>
       <line stroke-width="0.106" x1="5.746" y1="10.693" x2="5.729" y2="10.664"/>
       <line stroke-width="0.106" x1="26.431" y1="13.234" x2="26.414" y2="13.205"/>
       <line stroke-width="0.106" x1="26.469" y1="85.14" x2="26.469" y2="13.217"/>
       <line stroke-width="0.106" x1="26.417" y1="13.211" x2="26.468" y2="13.218"/>
       <line stroke-width="0.106" x1="26.417" y1="13.21" x2="26.469" y2="13.217"/>
       <line stroke-width="0.106" x1="5.756" y1="10.606" x2="26.44" y2="13.147"/>
       <line stroke-width="0.106" x1="26.44" y1="13.212" x2="26.44" y2="13.147"/>
       <line stroke-width="0.106" x1="5.791" y1="10.753" x2="26.33" y2="13.275"/>
       <line stroke-width="0.106" x1="26.33" y1="85.123" x2="26.33" y2="13.275"/>
       <line stroke-width="0.106" x1="5.791" y1="82.602" x2="26.33" y2="85.123"/>
       <line stroke-width="0.106" x1="26.44" y1="85.201" x2="26.44" y2="85.144"/>
       <line stroke-width="0.106" x1="5.791" y1="52.673" x2="5.791" y2="82.602"/>
       <line stroke-width="0.106" x1="5.791" y1="41.886" x2="5.791" y2="10.753"/>
       <line stroke-width="0.106" x1="5.724" y1="10.672" x2="5.734" y2="10.673"/>
       <line stroke-width="0.106" x1="26.428" y1="85.143" x2="26.414" y2="85.194"/>
       <line stroke-width="0.106" x1="25.44" y1="12.884" x2="25.44" y2="12.949"/>
       <line stroke-width="0.106" x1="25.367" y1="12.875" x2="25.367" y2="12.941"/>
       <path stroke-width="0.106" d="M18.643 37.314L18.62 37.311L10.916 36.366L10.9 36.365"/>
       <path stroke-width="0.106" d="M18.681 37.31L18.657 37.314"/>
       <path stroke-width="0.106" d="M18.713 37.298L18.707 37.301z"/>
       <path stroke-width="0.106" d="M18.745 37.273L18.739 37.277L18.734 37.283"/>
       <path stroke-width="0.106" d="M18.739 37.28C18.739 37.28 18.736 37.283 18.719 37.286L18.673 37.29L18.657 37.292L18.641 37.289L10.938 36.344L10.916 36.341"/>
       <path stroke-width="0.106" d="M10.836 28.309C10.85 28.306 10.865 28.303 10.878 28.3L10.884 28.3L10.913 28.303L18.617 29.248L18.632 29.251"/>
       <path stroke-width="0.106" d="M18.745 37.273L18.753 37.264L18.766 37.237L18.769 37.228L18.772 37.213L18.774 37.201L18.777 37.186"/>
       <path stroke-width="0.106" d="M18.771 37.228L18.769 37.228L18.757 37.237L18.67 37.284L18.657 37.292"/>
       <path stroke-width="0.106" d="M10.756 28.428C10.759 28.414 10.762 28.399 10.765 28.385L10.771 28.37L10.788 28.343L10.801 28.33"/>
       <path stroke-width="0.106" d="M10.771 28.37C10.778 28.356 10.772 28.362 10.789 28.353L10.872 28.307L10.887 28.3"/>
       <path stroke-width="0.106" d="M10.814 28.321L10.818 28.318L10.833 28.312L10.836 28.312L10.85 28.306"/>
       <path stroke-width="0.106" d="M10.811 28.323C10.827 28.317 10.843 28.31 10.859 28.304"/>
       <path stroke-width="0.106" d="M10.808 28.324C10.808 28.324 10.811 28.323 10.827 28.317L10.843 28.31L10.858 28.304"/>
       <path stroke-width="0.106" d="M10.839 28.307L10.827 28.314"/>
       <path stroke-width="0.106" d="M10.801 28.33L10.818 28.318"/>
       <path stroke-width="0.106" d="M18.777 37.186L18.765 37.197L18.669 37.281L18.657 37.292L18.635 37.314"/>
       <path stroke-width="0.106" d="M26.611 85.048L26.6 85.058L26.452 85.191C26.439 85.203 26.446 85.198 26.431 85.206L26.416 85.204L5.762 82.668L5.737 82.664L5.729 82.653"/>
       <path stroke-width="0.106" d="M5.791 82.602C5.78 82.602 5.769 82.603 5.758 82.603L5.732 82.602L5.721 82.599"/>
       <path stroke-width="0.106" d="M26.33 85.123C26.344 85.128 26.356 85.132 26.37 85.135L26.385 85.138L26.393 85.138L26.41 85.141L26.425 85.143L26.428 85.143C26.446 85.144 26.437 85.144 26.454 85.143L26.468 85.141L26.469 85.14L26.481 85.129L26.609 85.013L26.62 85.004"/>
       <path stroke-width="0.106" d="M26.611 13.058L26.6 13.069L26.452 13.202L26.437 13.217L26.434 13.224"/>
       <path stroke-width="0.106" d="M5.729 10.664L5.737 10.64L5.742 10.63L5.746 10.619L5.751 10.614C5.759 10.602 5.754 10.609 5.767 10.596L5.916 10.464L5.927 10.452"/>
       <path stroke-width="0.106" d="M5.73 10.666L5.727 10.669L5.724 10.672L5.722 10.683C5.721 10.699 5.721 10.691 5.721 10.711L5.721 41.871L5.721 41.887"/>
       <path stroke-width="0.106" d="M5.791 10.753L5.769 10.724C5.754 10.705 5.742 10.685 5.729 10.664"/>
       <path stroke-width="0.106" d="M26.611 12.993L26.6 13.003L26.452 13.137L26.44 13.147L26.431 13.16L26.425 13.169L26.422 13.179L26.414 13.205L26.4 13.214L26.396 13.217L26.384 13.227C26.365 13.243 26.347 13.259 26.33 13.275"/>
       <path stroke-width="0.106" d="M26.62 13.08L26.609 13.09L26.481 13.207L26.454 13.23L26.443 13.24L26.428 13.246L26.423 13.249L26.41 13.256L26.394 13.259L26.385 13.262L26.37 13.268C26.358 13.271 26.344 13.272 26.33 13.275"/>
       <path stroke-width="0.106" d="M26.431 85.206C26.411 85.2 26.431 85.209 26.414 85.194L26.4 85.185L26.396 85.183L26.384 85.174L26.371 85.165L26.367 85.161L26.356 85.15L26.33 85.123"/>
       <path stroke-width="0.106" d="M5.791 82.602C5.778 82.614 5.762 82.629 5.748 82.641L5.729 82.653"/>
       <path stroke-width="0.106" d="M5.791 10.753L5.778 10.746L5.772 10.743L5.758 10.737L5.745 10.727L5.745 10.727L5.732 10.717L5.721 10.695"/>
       <path stroke-width="0.106" d="M25.542 12.933L25.533 12.949L25.521 12.957L25.509 12.964L25.495 12.968L25.489 12.971L25.474 12.974L25.457 12.977L25.445 12.98L25.429 12.981L25.414 12.983L25.396 12.983L25.381 12.984C25.365 12.983 25.35 12.981 25.333 12.98C25.3 12.977 25.266 12.973 25.233 12.967L25.217 12.964L25.204 12.958L25.199 12.957L25.184 12.952L25.175 12.945L25.164 12.936L25.158 12.92"/>
       <path stroke-width="0.106" d="M25.506 12.964L25.484 12.958L25.469 12.955C25.454 12.952 25.44 12.949 25.425 12.948L25.384 12.942L25.367 12.941C25.353 12.939 25.335 12.939 25.321 12.938L25.304 12.938L25.288 12.939L25.271 12.939L25.257 12.942L25.243 12.943L25.228 12.945L25.196 12.955"/>
       <path stroke-width="0.106" d="M25.542 12.933L25.536 12.917L25.527 12.91L25.516 12.903L25.501 12.897L25.498 12.897L25.484 12.891L25.469 12.888C25.434 12.882 25.402 12.878 25.367 12.875C25.353 12.872 25.335 12.872 25.321 12.871L25.304 12.871L25.288 12.872L25.271 12.874L25.257 12.875L25.243 12.878L25.228 12.88L25.213 12.884L25.207 12.887L25.193 12.891L25.181 12.897L25.169 12.904L25.158 12.92"/>
      </g>
     </g>
    </g>
    <g id="870-17666.PRT">
     <desc>870-17666.PRT</desc>
     <line stroke-width="0.106" x1="8.46" y1="83.745" x2="8.48" y2="83.727"/>
     <line stroke-width="0.106" x1="8.48" y1="83.608" x2="8.46" y2="83.626"/>
     <line stroke-width="0.106" x1="8.487" y1="83.75" x2="8.46" y2="83.745"/>
     <line stroke-width="0.106" x1="8.46" y1="83.626" x2="8.46" y2="83.745"/>
     <line stroke-width="0.106" x1="23.826" y1="85.513" x2="23.826" y2="85.632"/>
     <line stroke-width="0.106" x1="23.826" y1="85.611" x2="23.818" y2="85.611"/>
     <line stroke-width="0.106" x1="23.846" y1="85.468" x2="23.798" y2="85.435"/>
     <line stroke-width="0.106" x1="23.826" y1="85.513" x2="23.846" y2="85.495"/>
     <line stroke-width="0.106" x1="23.846" y1="85.468" x2="23.846" y2="85.495"/>
     <line stroke-width="0.106" x1="23.826" y1="85.632" x2="23.798" y2="85.629"/>
     <line stroke-width="0.106" x1="23.818" y1="85.611" x2="23.798" y2="85.629"/>
     <line stroke-width="0.106" x1="26.917" y1="85.873" x2="26.923" y2="85.867"/>
     <line stroke-width="0.106" x1="8.487" y1="83.728" x2="8.48" y2="83.727"/>
     <line stroke-width="0.106" x1="8.48" y1="83.608" x2="8.48" y2="83.727"/>
     <line stroke-width="0.106" x1="8.46" y1="87.137" x2="8.487" y2="87.14"/>
     <line stroke-width="0.106" x1="8.48" y1="87.237" x2="8.48" y2="87.138"/>
     <line stroke-width="0.106" x1="8.48" y1="87.237" x2="8.46" y2="87.256"/>
     <line stroke-width="0.106" x1="23.826" y1="89.141" x2="23.826" y2="89.022"/>
     <line stroke-width="0.106" x1="23.798" y1="89.019" x2="23.826" y2="89.022"/>
     <line stroke-width="0.106" x1="23.826" y1="89.027" x2="23.818" y2="89.022"/>
     <line stroke-width="0.106" x1="5.29" y1="83.216" x2="5.269" y2="83.236"/>
     <line stroke-width="0.106" x1="5.269" y1="86.864" x2="5.269" y2="83.236"/>
     <line stroke-width="0.106" x1="23.818" y1="89.028" x2="23.798" y2="89.046"/>
     <line stroke-width="0.106" x1="8.487" y1="87.167" x2="23.798" y2="89.046"/>
     <line stroke-width="0.106" x1="27.015" y1="89.534" x2="27.015" y2="85.906"/>
     <line stroke-width="0.106" x1="23.818" y1="85.584" x2="23.798" y2="85.602"/>
     <line stroke-width="0.106" x1="23.83" y1="85.51" x2="23.829" y2="85.483"/>
     <line stroke-width="0.106" x1="23.832" y1="85.48" x2="23.832" y2="85.507"/>
     <line stroke-width="0.106" x1="23.798" y1="85.602" x2="8.487" y2="83.721"/>
     <line stroke-width="0.106" x1="23.832" y1="85.48" x2="8.521" y2="83.599"/>
     <line stroke-width="0.106" x1="8.46" y1="87.137" x2="8.46" y2="87.256"/>
     <path stroke-width="0.106" d="M5.421 83.233C5.411 83.221 5.418 83.225 5.4 83.224L5.312 83.212L5.296 83.21"/>
     <path stroke-width="0.106" d="M5.225 83.215L5.227 83.218L5.237 83.227C5.237 83.227 5.259 83.233 5.269 83.236L5.285 83.237L8.445 83.625L8.46 83.626"/>
     <path stroke-width="0.106" d="M5.283 83.215L5.285 83.212L5.293 83.21"/>
     <path stroke-width="0.106" d="M23.826 85.545C23.817 85.566 23.818 85.59 23.818 85.611"/>
     <path stroke-width="0.106" d="M27.039 85.888L27.036 85.888L27.019 85.885L23.861 85.498L23.846 85.495"/>
     <path stroke-width="0.106" d="M23.846 85.468L23.824 85.487C23.818 85.498 23.812 85.513 23.809 85.525C23.803 85.546 23.8 85.567 23.798 85.59C23.798 85.602 23.798 85.615 23.798 85.629"/>
     <path stroke-width="0.106" d="M23.826 85.513L23.841 85.516L27 85.903C27.021 85.906 27.042 85.908 27.065 85.905L27.082 85.902"/>
     <path stroke-width="0.106" d="M27.048 85.884L27.045 85.882L27.042 85.881L27.027 85.879L26.94 85.868L26.923 85.867"/>
     <path stroke-width="0.106" d="M8.48 83.608L8.464 83.606L5.306 83.218L5.29 83.216L5.288 83.216L5.283 83.215"/>
     <path stroke-width="0.106" d="M5.296 83.21L5.293 83.21z"/>
     <path stroke-width="0.106" d="M5.274 83.192C5.262 83.194 5.248 83.195 5.237 83.201L5.225 83.212L5.225 83.215L5.225 83.23L5.225 86.828L5.229 86.849L5.245 86.858C5.258 86.862 5.272 86.864 5.285 86.865L8.445 87.254L8.46 87.256"/>
     <path stroke-width="0.106" d="M23.826 89.112L23.824 89.112L23.821 89.114L23.806 89.111L8.525 87.236L8.509 87.233L8.506 87.231L8.492 87.21C8.486 87.188 8.487 87.162 8.487 87.14"/>
     <path stroke-width="0.106" d="M23.818 89.022L23.821 89.046L23.826 89.055"/>
     <path stroke-width="0.106" d="M27.1 89.522L27.082 89.53C27.067 89.534 27.05 89.534 27.035 89.534C27.024 89.534 27.012 89.534 27 89.531L23.841 89.144L23.826 89.141"/>
     <path stroke-width="0.106" d="M8.634 83.572L8.618 83.575L8.55 83.585L8.534 83.587L8.528 83.593L8.521 83.599L8.519 83.602"/>
     <path stroke-width="0.106" d="M8.487 83.75C8.487 83.736 8.487 83.722 8.487 83.709C8.489 83.688 8.492 83.665 8.497 83.646C8.503 83.629 8.509 83.611 8.521 83.599"/>
     <path stroke-width="0.106" d="M23.798 89.019C23.798 89.043 23.797 89.067 23.803 89.09L23.817 89.111L23.821 89.114"/>
    </g>
    <g id="0M-98675.ASM_1">
     <desc>0M-98675.ASM</desc>
     <g id="870-17662.PRT_1">
      <desc>870-17662.PRT</desc>
      <line stroke-width="0.106" x1="24.146" y1="85.477" x2="24.146" y2="85.533"/>
      <line stroke-width="0.106" x1="24.271" y1="85.548" x2="24.179" y2="85.481"/>
     </g>
     <g id="870-17661.PRT_1">
      <desc>870-17661.PRT</desc>
      <line stroke-width="0.106" x1="24.376" y1="85.513" x2="24.376" y2="85.561"/>
      <line stroke-width="0.106" x1="24.135" y1="85.475" x2="24.135" y2="85.531"/>
      <line stroke-width="0.106" x1="24.271" y1="85.548" x2="24.179" y2="85.481"/>
      <line stroke-width="0.106" x1="26.964" y1="85.858" x2="26.964" y2="85.871"/>
      <path stroke-width="0.106" d="M25.498 85.65L25.484 85.649L24.391 85.515L24.376 85.513L24.364 85.504"/>
     </g>
    </g>
    <g id="0M-98675.ASM">
     <desc>0M-98675.ASM</desc>
     <g id="870-17662.PRT">
      <desc>870-17662.PRT</desc>
      <line stroke-width="0.106" x1="8.397" y1="83.543" x2="8.196" y2="83.573"/>
      <line stroke-width="0.106" x1="8.471" y1="83.608" x2="8.471" y2="83.552"/>
      <line stroke-width="0.106" x1="8.557" y1="83.563" x2="8.48" y2="83.634"/>
     </g>
     <g id="870-17661.PRT">
      <desc>870-17661.PRT</desc>
      <line stroke-width="0.106" x1="7.971" y1="83.546" x2="7.971" y2="83.498"/>
      <line stroke-width="0.106" x1="8.397" y1="83.543" x2="8.196" y2="83.573"/>
      <line stroke-width="0.106" x1="5.383" y1="83.209" x2="5.383" y2="83.221"/>
      <line stroke-width="0.106" x1="5.301" y1="83.198" x2="5.286" y2="83.212"/>
      <path stroke-width="0.106" d="M7.998 83.495L7.971 83.498L7.955 83.496L6.836 83.359L6.82 83.358"/>
     </g>
    </g>
    <g id="NSYSF20680_Reality.ASM">
     <desc>NSYSF20680_Reality.ASM</desc>
     <g id="NSYSFC68_UPPER.ASM">
      <desc>NSYSFC68_UPPER.ASM</desc>
      <g id="NSYSFC68_CORNER.PRT_7">
       <desc>NSYSFC68_CORNER.PRT</desc>
       <path stroke-width="0.106" d="M7.099 10.593L7.099 10.596z"/>
       <path stroke-width="0.106" d="M7.1 10.596L7.099 10.595z"/>
      </g>
      <g id="NSYSFC68__PROFILE_W_600.PRT_3">
       <desc>NSYSFC68__PROFILE_W_600.PRT</desc>
       <line stroke-width="0.106" x1="25.643" y1="12.801" x2="7.057" y2="10.519"/>
       <line stroke-width="0.106" x1="25.48" y1="12.718" x2="25.471" y2="12.718"/>
       <line stroke-width="0.106" x1="25.498" y1="12.625" x2="25.466" y2="12.621"/>
       <line stroke-width="0.106" x1="25.446" y1="12.712" x2="6.86" y2="10.43"/>
       <line stroke-width="0.106" x1="25.498" y1="12.573" x2="25.466" y2="12.568"/>
       <line stroke-width="0.106" x1="25.446" y1="12.455" x2="6.86" y2="10.173"/>
       <line stroke-width="0.106" x1="25.498" y1="12.619" x2="25.466" y2="12.615"/>
       <line stroke-width="0.106" x1="25.481" y1="12.772" x2="25.498" y2="12.775"/>
       <line stroke-width="0.106" x1="25.48" y1="12.333" x2="6.894" y2="10.051"/>
       <path stroke-width="0.106" d="M25.687 12.804L25.695 12.817L25.704 12.836L25.719 12.858L25.727 12.859"/>
       <path stroke-width="0.106" d="M25.643 12.798L25.643 12.801L25.649 12.814L25.678 12.865L25.686 12.878"/>
       <path stroke-width="0.106" d="M7.1 10.596L7.094 10.583L7.065 10.532L7.057 10.519L7.057 10.518"/>
       <path stroke-width="0.106" d="M25.721 12.884L25.721 12.882L25.719 12.872C25.716 12.862 25.718 12.862 25.711 12.849L25.704 12.836L25.695 12.817L25.687 12.804"/>
       <path stroke-width="0.106" d="M25.771 12.823L25.76 12.833L25.748 12.843L25.736 12.855L25.727 12.859L25.714 12.858"/>
       <path stroke-width="0.106" d="M25.498 12.371L25.489 12.381L25.475 12.397C25.466 12.413 25.466 12.435 25.466 12.454L25.466 12.679L25.466 12.708L25.469 12.717L25.475 12.721"/>
       <path stroke-width="0.106" d="M6.915 10.035L6.894 10.051L6.887 10.061L6.881 10.07L6.876 10.086L6.871 10.101L6.868 10.115L6.867 10.121L6.863 10.137L6.862 10.151C6.862 10.164 6.86 10.176 6.86 10.189L6.86 10.414C6.86 10.426 6.862 10.436 6.862 10.448L6.863 10.464L6.867 10.474C6.867 10.474 6.871 10.492 6.881 10.496L6.897 10.499L25.451 12.776L25.466 12.778C25.478 12.778 25.489 12.765 25.489 12.765L25.498 12.756"/>
       <path stroke-width="0.106" d="M25.498 12.317L25.48 12.333L25.472 12.343L25.466 12.352L25.46 12.368L25.455 12.382L25.452 12.397L25.452 12.403L25.449 12.419L25.448 12.433C25.446 12.446 25.446 12.458 25.446 12.471L25.446 12.696C25.446 12.708 25.446 12.718 25.446 12.73L25.449 12.746L25.452 12.756L25.455 12.769L25.466 12.778"/>
       <path stroke-width="0.106" d="M25.475 12.721L25.48 12.718L25.498 12.702"/>
      </g>
      <g id="NSYSFC68_CORNER.PRT_6">
       <desc>NSYSFC68_CORNER.PRT</desc>
       <line stroke-width="0.106" x1="25.731" y1="12.865" x2="25.716" y2="12.862"/>
       <line stroke-width="0.106" x1="25.731" y1="12.865" x2="25.771" y2="12.829"/>
       <line stroke-width="0.106" x1="25.731" y1="12.865" x2="25.743" y2="12.884"/>
       <line stroke-width="0.106" x1="25.771" y1="12.859" x2="25.743" y2="12.884"/>
       <line stroke-width="0.106" x1="25.721" y1="12.881" x2="25.743" y2="12.884"/>
       <path stroke-width="0.106" d="M25.771 12.871L25.765 12.877L25.748 12.887"/>
      </g>
      <g id="NSYSFC68_PROFILE_D_800.PRT_2">
       <desc>NSYSFC68_PROFILE_D_800.PRT</desc>
       <line stroke-width="0.106" x1="37.161" y1="3.405" x2="27.606" y2="12.009"/>
      </g>
     </g>
     <g id="NSYSFC68_LOWER.ASM">
      <desc>NSYSFC68_LOWER.ASM</desc>
      <g id="NSYSFC68__PROFILE_W_600.PRT">
       <desc>NSYSFC68__PROFILE_W_600.PRT</desc>
       <line stroke-width="0.106" x1="25.498" y1="85.486" x2="25.466" y2="85.481"/>
       <line stroke-width="0.106" x1="25.48" y1="85.579" x2="25.471" y2="85.578"/>
       <line stroke-width="0.106" x1="25.446" y1="85.573" x2="6.86" y2="83.292"/>
       <line stroke-width="0.106" x1="25.498" y1="85.436" x2="25.466" y2="85.432"/>
       <line stroke-width="0.106" x1="25.446" y1="85.316" x2="6.86" y2="83.034"/>
       <line stroke-width="0.106" x1="25.573" y1="85.111" x2="6.988" y2="82.828"/>
       <line stroke-width="0.106" x1="25.48" y1="85.194" x2="6.894" y2="82.912"/>
       <line stroke-width="0.106" x1="25.571" y1="85.189" x2="25.55" y2="85.186"/>
       <path stroke-width="0.106" d="M25.6 85.105C25.594 85.126 25.588 85.149 25.573 85.165L25.562 85.176L25.49 85.239L25.475 85.257C25.466 85.275 25.466 85.295 25.466 85.313L25.466 85.54L25.466 85.569L25.469 85.578L25.475 85.581"/>
       <path stroke-width="0.106" d="M6.993 82.819L6.977 82.838L6.905 82.903L6.894 82.912L6.881 82.932L6.876 82.947L6.871 82.962L6.868 82.977L6.867 82.981L6.863 82.998L6.862 83.013C6.862 83.025 6.86 83.037 6.86 83.051L6.86 83.275C6.86 83.287 6.862 83.298 6.862 83.308L6.863 83.325L6.867 83.335C6.867 83.335 6.871 83.352 6.881 83.358L6.897 83.359L25.451 85.638L25.466 85.64C25.478 85.638 25.489 85.626 25.489 85.626L25.498 85.617"/>
       <path stroke-width="0.106" d="M25.621 85.108L25.617 85.123L25.615 85.129L25.609 85.156"/>
       <path stroke-width="0.106" d="M25.579 85.102L25.562 85.12L25.49 85.185L25.48 85.194L25.466 85.213L25.46 85.228L25.455 85.242L25.452 85.259L25.452 85.263L25.449 85.278L25.448 85.295C25.446 85.308 25.446 85.319 25.446 85.332L25.446 85.558C25.446 85.569 25.446 85.579 25.446 85.59L25.449 85.606L25.452 85.617L25.455 85.629L25.466 85.64"/>
       <path stroke-width="0.106" d="M25.475 85.581L25.48 85.579L25.498 85.563"/>
       <path stroke-width="0.106" d="M25.588 85.174C25.588 85.164 25.589 85.153 25.591 85.141L25.597 85.115"/>
      </g>
     </g>
     <g id="NSYSFV20_Reality.ASM_1">
      <desc>NSYSFV20_Reality.ASM</desc>
      <g id="NSYSFV20_04_Reality.PRT_3">
       <desc>NSYSFV20_04_Reality.PRT</desc>
       <line stroke-width="0.106" x1="26.998" y1="12.548" x2="26.998" y2="12.965"/>
       <line stroke-width="0.106" x1="27.01" y1="12.526" x2="27.003" y2="12.544"/>
       <line stroke-width="0.106" x1="25.512" y1="12.365" x2="25.512" y2="12.782"/>
       <line stroke-width="0.106" x1="25.533" y1="12.346" x2="25.559" y2="12.323"/>
       <line stroke-width="0.106" x1="25.507" y1="12.361" x2="25.55" y2="12.323"/>
       <line stroke-width="0.106" x1="25.771" y1="12.814" x2="25.771" y2="12.89"/>
       <path stroke-width="0.106" d="M25.539 12.32L25.527 12.332L25.512 12.346L25.5 12.356L25.498 12.359L25.498 12.375L25.498 12.76L25.501 12.781L25.506 12.782L25.512 12.782L25.527 12.785L26.984 12.964C26.995 12.964 27.007 12.967 27.019 12.967C27.038 12.968 27.056 12.967 27.073 12.964C27.086 12.961 27.1 12.958 27.114 12.952L27.121 12.948"/>
       <path stroke-width="0.106" d="M25.507 12.361L25.524 12.362L26.987 12.541C26.998 12.544 27.01 12.544 27.021 12.545C27.036 12.547 27.053 12.545 27.068 12.542C27.079 12.541 27.092 12.538 27.103 12.532L27.117 12.522"/>
       <path stroke-width="0.106" d="M25.507 12.361L25.533 12.346L25.55 12.348L26.995 12.525C27.013 12.528 27.033 12.528 27.053 12.526C27.065 12.525 27.077 12.524 27.086 12.519L27.106 12.503L27.626 12.034L27.638 12.022"/>
       <path stroke-width="0.106" d="M27.117 12.532L27.091 12.542C27.074 12.547 27.059 12.548 27.042 12.55L27.019 12.55C27.007 12.548 26.995 12.548 26.984 12.545L25.527 12.367L25.512 12.365L25.498 12.359"/>
      </g>
      <g id="NSYSFV20_04_Reality.PRT_2">
       <desc>NSYSFV20_04_Reality.PRT</desc>
       <line stroke-width="0.106" x1="25.512" y1="85.68" x2="25.512" y2="85.263"/>
       <line stroke-width="0.106" x1="25.669" y1="85.112" x2="25.507" y2="85.257"/>
       <line stroke-width="0.106" x1="25.533" y1="85.242" x2="25.678" y2="85.114"/>
       <path stroke-width="0.106" d="M26.582 85.084L26.571 85.084L26.571 85.084"/>
       <path stroke-width="0.106" d="M26.6 85.097L26.571 85.099L26.553 85.099"/>
       <path stroke-width="0.106" d="M27.128 85.381L27.106 85.4L27.086 85.415C27.073 85.424 27.054 85.424 27.039 85.426L27.024 85.426C27.013 85.424 26.995 85.423 26.995 85.423L25.55 85.245L25.533 85.242L25.507 85.257"/>
       <path stroke-width="0.106" d="M25.507 85.257L25.524 85.26L26.987 85.439C26.998 85.441 27.01 85.442 27.021 85.442C27.036 85.444 27.053 85.442 27.068 85.441C27.079 85.438 27.092 85.436 27.103 85.43L27.117 85.42"/>
       <path stroke-width="0.106" d="M27.117 85.43L27.091 85.441C27.074 85.444 27.059 85.445 27.042 85.447L27.019 85.447C27.007 85.447 26.995 85.444 26.984 85.444L25.527 85.265L25.512 85.263L25.498 85.257"/>
       <path stroke-width="0.106" d="M27.121 85.846L27.114 85.85C27.091 85.861 27.065 85.862 27.042 85.864L27.019 85.864C27.007 85.864 26.995 85.862 26.984 85.861L25.527 85.683L25.512 85.68L25.506 85.68L25.501 85.677L25.498 85.659L25.498 85.272L25.498 85.257L25.5 85.254L25.512 85.243L25.646 85.123L25.658 85.111"/>
      </g>
      <g id="NSYSFV20_12_Reality.PRT_1">
       <desc>NSYSFV20_12_Reality.PRT</desc>
       <line stroke-width="0.106" x1="26.998" y1="13.018" x2="26.998" y2="85.393"/>
       <line stroke-width="0.106" x1="26.887" y1="12.984" x2="26.887" y2="12.952"/>
       <line stroke-width="0.106" x1="26.835" y1="12.945" x2="26.835" y2="12.977"/>
       <line stroke-width="0.106" x1="26.743" y1="12.987" x2="26.743" y2="85.361"/>
       <line stroke-width="0.106" x1="26.74" y1="12.961" x2="26.74" y2="12.952"/>
       <line stroke-width="0.106" x1="26.841" y1="12.977" x2="26.841" y2="12.945"/>
       <line stroke-width="0.106" x1="26.582" y1="12.914" x2="26.582" y2="12.989"/>
       <line stroke-width="0.106" x1="26.561" y1="12.912" x2="26.561" y2="12.987"/>
       <line stroke-width="0.106" x1="26.582" y1="85.075" x2="26.582" y2="85.084"/>
       <line stroke-width="0.106" x1="25.902" y1="12.83" x2="25.896" y2="12.904"/>
       <path stroke-width="0.106" d="M27.121 85.376C27.121 85.376 27.102 85.385 27.091 85.388C27.07 85.394 27.047 85.394 27.025 85.394C27.012 85.394 26.998 85.393 26.984 85.391L26.759 85.364C26.739 85.361 26.719 85.358 26.699 85.35L26.682 85.338L26.681 85.328L26.681 85.313L26.681 12.97L26.681 12.954L26.686 12.945L26.704 12.929"/>
       <path stroke-width="0.106" d="M27.111 12.954L27.1 12.964L27.08 12.981L27.062 12.996C27.062 12.996 27.042 13 27.033 13L27.004 12.997L26.78 12.97L26.763 12.968L26.757 12.968L26.739 12.955"/>
       <path stroke-width="0.106" d="M26.681 85.155L26.667 85.146L26.594 85.093L26.574 85.081"/>
       <path stroke-width="0.106" d="M27.117 13.003C27.089 13.018 27.057 13.019 27.025 13.019C27.012 13.019 26.998 13.018 26.984 13.016L26.759 12.989C26.739 12.986 26.719 12.984 26.699 12.975L26.681 12.958L26.681 12.954"/>
       <path stroke-width="0.106" d="M26.739 12.955L26.75 12.943L26.757 12.936"/>
      </g>
     </g>
     <g id="NSYSFV20_Reality.ASM">
      <desc>NSYSFV20_Reality.ASM</desc>
      <g id="NSYSFV20_04_Reality.PRT_1">
       <desc>NSYSFV20_04_Reality.PRT</desc>
       <line stroke-width="0.106" x1="5.815" y1="9.348" x2="5.814" y2="9.348"/>
       <line stroke-width="0.106" x1="5.817" y1="9.346" x2="5.814" y2="9.348"/>
       <line stroke-width="0.106" x1="6.82" y1="10.48" x2="6.82" y2="10.063"/>
       <line stroke-width="0.106" x1="5.262" y1="9.845" x2="5.28" y2="9.836"/>
       <line stroke-width="0.106" x1="5.318" y1="9.864" x2="5.312" y2="9.881"/>
       <line stroke-width="0.106" x1="5.307" y1="9.884" x2="5.307" y2="10.301"/>
       <line stroke-width="0.106" x1="6.796" y1="10.067" x2="6.796" y2="10.484"/>
       <line stroke-width="0.106" x1="7.091" y1="10.58" x2="7.091" y2="10.596"/>
       <path stroke-width="0.106" d="M5.82 9.343L5.819 9.343L5.799 9.349L5.788 9.359L5.262 9.833L5.251 9.843L5.246 9.849L5.245 9.856L5.245 9.872L5.245 10.259C5.245 10.269 5.25 10.282 5.25 10.282C5.25 10.282 5.269 10.294 5.28 10.297C5.294 10.301 5.309 10.303 5.323 10.304L6.78 10.483C6.791 10.484 6.801 10.487 6.812 10.484L6.82 10.48L6.831 10.471L6.851 10.454L6.862 10.444"/>
       <path stroke-width="0.106" d="M5.814 9.348L5.801 9.358L5.272 9.833L5.256 9.85L5.269 9.868C5.285 9.878 5.307 9.88 5.328 9.882L6.791 10.063L6.807 10.064"/>
       <path stroke-width="0.106" d="M6.794 10.044L6.78 10.042L5.334 9.865C5.317 9.864 5.301 9.862 5.285 9.855L5.277 9.84L5.28 9.836L5.291 9.824L5.418 9.711L5.429 9.701"/>
       <path stroke-width="0.106" d="M6.86 10.028L6.847 10.038L6.831 10.053L6.82 10.063L6.801 10.067L6.796 10.067L6.78 10.064L5.323 9.887C5.309 9.884 5.294 9.882 5.28 9.878C5.269 9.875 5.25 9.864 5.25 9.864L5.245 9.856"/>
      </g>
      <g id="NSYSFV20_04_Reality.PRT">
       <desc>NSYSFV20_04_Reality.PRT</desc>
       <line stroke-width="0.106" x1="6.968" y1="82.816" x2="6.807" y2="82.962"/>
       <line stroke-width="0.106" x1="5.307" y1="83.2" x2="5.307" y2="82.781"/>
       <line stroke-width="0.106" x1="5.262" y1="82.742" x2="5.28" y2="82.733"/>
       <line stroke-width="0.106" x1="5.318" y1="82.76" x2="5.312" y2="82.778"/>
       <line stroke-width="0.106" x1="6.937" y1="82.813" x2="6.794" y2="82.941"/>
       <line stroke-width="0.106" x1="6.807" y1="82.962" x2="6.794" y2="82.941"/>
       <line stroke-width="0.106" x1="6.796" y1="82.965" x2="6.796" y2="83.382"/>
       <line stroke-width="0.106" x1="6.82" y1="82.96" x2="6.82" y2="83.379"/>
       <path stroke-width="0.106" d="M5.28 82.724L5.262 82.742L5.256 82.748L5.269 82.766C5.285 82.775 5.307 82.778 5.328 82.78L6.791 82.959L6.807 82.962"/>
       <path stroke-width="0.106" d="M6.794 82.941L6.78 82.941L5.334 82.763C5.317 82.76 5.301 82.76 5.285 82.751L5.277 82.737L5.288 82.727"/>
       <path stroke-width="0.106" d="M6.841 83.359L6.83 83.37L6.82 83.379L6.817 83.381L6.801 83.382L6.796 83.382L6.78 83.381L5.323 83.201C5.309 83.2 5.294 83.197 5.28 83.194L5.259 83.186L5.245 83.173L5.245 83.156L5.245 82.771L5.245 82.754L5.246 82.748L5.251 82.74L5.272 82.721"/>
       <path stroke-width="0.106" d="M6.979 82.819L6.966 82.828L6.831 82.95L6.82 82.96L6.801 82.965L6.796 82.965L6.78 82.962L5.323 82.784C5.309 82.781 5.294 82.781 5.28 82.777C5.269 82.774 5.25 82.762 5.25 82.762L5.245 82.754"/>
      </g>
      <g id="NSYSFV20_12_Reality.PRT">
       <desc>NSYSFV20_12_Reality.PRT</desc>
       <line stroke-width="0.106" x1="5.801" y1="10.362" x2="5.801" y2="10.566"/>
       <line stroke-width="0.106" x1="5.782" y1="10.361" x2="5.782" y2="10.585"/>
       <line stroke-width="0.106" x1="5.687" y1="10.367" x2="5.687" y2="41.889"/>
       <line stroke-width="0.106" x1="5.562" y1="10.385" x2="5.562" y2="42.295"/>
       <line stroke-width="0.106" x1="5.45" y1="10.35" x2="5.45" y2="10.32"/>
       <line stroke-width="0.106" x1="5.4" y1="10.314" x2="5.4" y2="10.345"/>
       <line stroke-width="0.106" x1="5.307" y1="10.355" x2="5.307" y2="45.31"/>
       <line stroke-width="0.106" x1="5.304" y1="10.329" x2="5.304" y2="10.32"/>
       <line stroke-width="0.106" x1="5.562" y1="52.645" x2="5.562" y2="82.76"/>
       <line stroke-width="0.106" x1="5.687" y1="52.661" x2="5.687" y2="82.742"/>
       <line stroke-width="0.106" x1="5.307" y1="52.613" x2="5.307" y2="82.73"/>
       <line stroke-width="0.106" x1="6.006" y1="10.387" x2="6.006" y2="10.462"/>
       <line stroke-width="0.106" x1="6.024" y1="10.39" x2="6.024" y2="10.464"/>
       <line stroke-width="0.106" x1="6.227" y1="10.41" x2="6.227" y2="10.49"/>
       <line stroke-width="0.106" x1="6.258" y1="10.414" x2="6.258" y2="10.493"/>
       <line stroke-width="0.106" x1="6.942" y1="10.577" x2="6.937" y2="10.503"/>
       <line stroke-width="0.106" x1="6.921" y1="10.574" x2="6.916" y2="10.5"/>
       <path stroke-width="0.106" d="M5.767 82.67L5.756 82.68L5.7 82.731L5.682 82.745L5.655 82.757C5.634 82.762 5.612 82.763 5.589 82.763C5.575 82.763 5.562 82.76 5.548 82.759L5.323 82.731C5.304 82.728 5.283 82.727 5.264 82.718L5.246 82.706L5.245 82.697L5.245 82.682L5.245 52.621L5.245 52.606"/>
       <path stroke-width="0.106" d="M5.272 10.294L5.251 10.313L5.245 10.321L5.245 10.337L5.245 46.424L5.245 46.441"/>
       <path stroke-width="0.106" d="M5.65 10.345L5.642 10.352L5.634 10.359L5.631 10.362C5.631 10.362 5.607 10.368 5.596 10.368L5.567 10.365L5.344 10.337L5.328 10.336L5.322 10.336L5.302 10.323"/>
       <path stroke-width="0.106" d="M5.705 10.35L5.682 10.371L5.655 10.381C5.634 10.387 5.612 10.387 5.589 10.387C5.575 10.387 5.562 10.385 5.548 10.384L5.323 10.356C5.304 10.353 5.283 10.352 5.264 10.343L5.245 10.326L5.245 10.321"/>
       <path stroke-width="0.106" d="M5.302 10.323L5.314 10.311L5.323 10.304"/>
      </g>
     </g>
    </g>
   </g>
  </g>
  <line stroke-width="0.106" x1="37.649" y1="2.907" x2="37.649" y2="75.85"/>
 </g>
 <g id="85mm_x0020_hidden_x0020_Schneider_x0020_layer_x0020_for_x0020_editor">
  <polygon stroke="none" points="0 98.266 0 107.266 85 107.266 85 98.266 0 98.266"/>
 </g>
 <g id="cutout_x0020_layer">
 </g>
 <g id="outline_x0020_layer">
  <polygon stroke-width="0.353" points="5.277 9.84 16.141 0.176 37.732 2.827 37.74 75.87 37.831 75.85 37.835 79.816 27.088 89.572 5.229 86.849 5.232 52.601 5.147 51.774 5.163 49.802 5.222 47.81 5.243 46.231 5.277 9.84"/>
 </g>
 <g id="Filters">
  <g id="Air In-Outlet Grilles_336x316_3">
   <desc>Air In-Outlet Grilles_336x316</desc>
   <line stroke-width="0.045" x1="15.974" y1="14.115" x2="16.039" y2="14.055"/>
   <line stroke-width="0.045" x1="15.97" y1="14.115" x2="16.036" y2="14.055"/>
   <line stroke-width="0.045" x1="21.713" y1="26.597" x2="21.667" y2="26.617"/>
   <line stroke-width="0.045" x1="21.733" y1="15.146" x2="21.728" y2="15.154"/>
   <line stroke-width="0.045" x1="21.728" y1="15.154" x2="21.724" y2="15.162"/>
   <line stroke-width="0.045" x1="21.78" y1="26.684" x2="21.78" y2="15.083"/>
   <line stroke-width="0.045" x1="21.719" y1="26.628" x2="21.718" y2="26.625"/>
   <line stroke-width="0.045" x1="21.719" y1="26.628" x2="21.719" y2="26.632"/>
   <line stroke-width="0.045" x1="21.583" y1="26.631" x2="21.591" y2="26.626"/>
   <line stroke-width="0.045" x1="10.234" y1="25.242" x2="10.228" y2="25.21"/>
   <line stroke-width="0.045" x1="16.233" y1="14.147" x2="15.974" y2="14.115"/>
   <line stroke-width="0.045" x1="10.276" y1="25.324" x2="10.275" y2="25.326"/>
   <path stroke-width="0.045" d="M21.739 26.673C21.684 26.611 21.713 26.42 21.713 26.39L21.713 15.413C21.713 15.326 21.699 15.243 21.724 15.162"/>
   <path stroke-width="0.045" d="M21.693 15.212L21.692 15.186C21.675 15.111 21.606 15.114 21.539 15.096L21.428 15.067L21.422 15.066C21.076 14.98 20.73 14.899 20.382 14.824C19.01 14.534 17.623 14.326 16.233 14.147"/>
   <path stroke-width="0.045" d="M15.974 14.115C15.016 13.999 14.055 13.9 13.093 13.824C12.323 13.763 11.553 13.711 10.779 13.708"/>
   <path stroke-width="0.045" d="M10.233 25.236L10.23 25.204L10.23 24.998L10.25 14.846L10.25 14.64L10.25 14.478L10.25 14.317C10.25 14.272 10.25 14.226 10.249 14.18C10.246 14.071 10.244 13.961 10.234 13.853C10.23 13.808 10.217 13.762 10.266 13.734L10.291 13.724L10.391 13.718C10.519 13.711 10.649 13.71 10.776 13.708"/>
   <path stroke-width="0.045" d="M10.282 13.683C10.294 13.737 10.291 13.789 10.291 13.845C10.291 13.919 10.292 13.992 10.294 14.064C10.298 14.333 10.301 14.602 10.301 14.871L10.282 25.021L10.281 25.228C10.281 25.28 10.292 25.341 10.343 25.367"/>
   <path stroke-width="0.045" d="M10.281 25.228C11.92 25.574 13.567 25.902 15.227 26.138C16.332 26.295 17.445 26.39 18.559 26.472C19.565 26.545 20.574 26.6 21.582 26.617"/>
   <path stroke-width="0.045" d="M21.596 26.756C21.594 26.71 21.583 26.664 21.582 26.617L21.576 26.411L21.298 16.221L21.294 16.013C21.292 15.89 21.283 15.76 21.3 15.635C21.323 15.458 21.411 15.266 21.565 15.163C21.629 15.121 21.699 15.109 21.774 15.089"/>
   <path stroke-width="0.045" d="M21.713 15.207C21.673 15.218 21.635 15.234 21.6 15.256C21.568 15.278 21.539 15.307 21.513 15.336C21.35 15.528 21.373 15.769 21.376 16.006L21.382 16.213L21.661 26.402L21.666 26.609L21.667 26.614"/>
   <path stroke-width="0.045" d="M21.667 26.626C21.667 26.663 21.67 26.731 21.629 26.751"/>
   <path stroke-width="0.045" d="M21.376 15.708C21.356 15.714 21.335 15.714 21.314 15.715L21.294 15.714L21.187 15.686L20.931 15.624C20.719 15.573 20.506 15.525 20.292 15.477C19.612 15.33 18.928 15.205 18.24 15.092C16.812 14.859 15.377 14.686 13.936 14.545C12.842 14.441 11.742 14.356 10.641 14.343L10.301 14.352C10.285 14.349 10.256 14.348 10.25 14.33"/>
   <path stroke-width="0.045" d="M21.78 26.684C21.751 26.682 21.765 26.686 21.739 26.673"/>
   <path stroke-width="0.045" d="M21.78 15.083C21.76 15.102 21.745 15.119 21.733 15.146"/>
   <path stroke-width="0.045" d="M10.23 25.216L10.227 25.184L10.227 24.977L10.227 13.999C10.227 13.913 10.196 13.775 10.268 13.698C10.308 13.653 10.317 13.669 10.404 13.662L10.534 13.654C10.698 13.649 10.864 13.65 11.028 13.651C11.67 13.66 12.313 13.702 12.954 13.75C14.339 13.852 15.723 14 17.097 14.195C18.673 14.416 20.239 14.683 21.78 15.083"/>
   <path stroke-width="0.045" d="M10.343 25.367L10.365 25.375L10.535 25.411C10.664 25.439 10.794 25.466 10.923 25.492C11.355 25.582 11.785 25.669 12.217 25.753C13.465 25.995 14.72 26.21 15.98 26.37"/>
   <path stroke-width="0.045" d="M15.938 26.233C15.939 26.265 15.941 26.297 15.951 26.327C15.955 26.343 15.965 26.367 15.984 26.37L16.121 26.387L16.257 26.402C16.574 26.439 16.893 26.469 17.21 26.498C18.248 26.594 19.289 26.666 20.329 26.714C20.646 26.73 20.961 26.742 21.277 26.75L21.414 26.753L21.596 26.757C21.608 26.757 21.629 26.751 21.629 26.751"/>
   <path stroke-width="0.045" d="M21.667 26.626L21.667 26.614"/>
   <path stroke-width="0.045" d="M21.78 26.684C21.736 26.711 21.667 26.734 21.625 26.751"/>
   <path stroke-width="0.045" d="M21.582 26.617C21.611 26.618 21.638 26.618 21.666 26.609"/>
   <path stroke-width="0.045" d="M10.291 25.339C10.259 25.314 10.24 25.277 10.233 25.236"/>
   <path stroke-width="0.045" d="M10.323 25.361L10.298 25.346"/>
   <path stroke-width="0.045" d="M10.281 25.228C10.265 25.225 10.236 25.222 10.23 25.202"/>
   <path stroke-width="0.045" d="M15.974 14.115C15.919 14.172 15.887 14.246 15.864 14.32C15.82 14.458 15.801 14.602 15.798 14.747"/>
  </g>
  <g id="Air In-Outlet Grilles_336x316_3">
   <desc>Air In-Outlet Grilles_336x316</desc>
   <line stroke-width="0.045" x1="15.977" y1="39.737" x2="16.042" y2="39.677"/>
   <line stroke-width="0.045" x1="15.974" y1="39.735" x2="16.039" y2="39.676"/>
   <line stroke-width="0.045" x1="21.718" y1="52.219" x2="21.67" y2="52.238"/>
   <line stroke-width="0.045" x1="21.736" y1="40.767" x2="21.731" y2="40.777"/>
   <line stroke-width="0.045" x1="21.731" y1="40.777" x2="21.728" y2="40.783"/>
   <line stroke-width="0.045" x1="21.785" y1="52.304" x2="21.785" y2="40.704"/>
   <line stroke-width="0.045" x1="21.724" y1="52.25" x2="21.721" y2="52.246"/>
   <line stroke-width="0.045" x1="21.724" y1="52.25" x2="21.722" y2="52.253"/>
   <line stroke-width="0.045" x1="21.588" y1="52.252" x2="21.596" y2="52.249"/>
   <line stroke-width="0.045" x1="10.237" y1="50.862" x2="10.233" y2="50.832"/>
   <line stroke-width="0.045" x1="16.236" y1="39.768" x2="15.977" y2="39.737"/>
   <line stroke-width="0.045" x1="10.281" y1="50.945" x2="10.278" y2="50.948"/>
   <path stroke-width="0.045" d="M21.742 52.293C21.687 52.234 21.718 52.04 21.718 52.012L21.718 41.036C21.718 40.948 21.702 40.865 21.728 40.783"/>
   <path stroke-width="0.045" d="M21.698 40.834L21.696 40.807C21.678 40.731 21.609 40.734 21.542 40.716L21.432 40.689L21.425 40.686C21.079 40.601 20.733 40.521 20.385 40.447C19.013 40.155 17.626 39.947 16.236 39.768"/>
   <path stroke-width="0.045" d="M15.977 39.737C15.019 39.619 14.06 39.521 13.098 39.445C12.327 39.386 11.556 39.334 10.784 39.329"/>
   <path stroke-width="0.045" d="M10.236 50.857L10.234 50.826L10.234 50.619L10.253 40.468L10.253 40.262L10.253 40.1L10.253 39.938C10.253 39.893 10.253 39.847 10.253 39.802C10.25 39.692 10.247 39.584 10.239 39.475C10.234 39.429 10.221 39.384 10.271 39.356L10.294 39.347L10.394 39.34C10.524 39.332 10.651 39.331 10.781 39.329"/>
   <path stroke-width="0.045" d="M10.285 39.304C10.298 39.359 10.294 39.411 10.294 39.466C10.295 39.539 10.295 39.613 10.297 39.686C10.301 39.954 10.304 40.223 10.304 40.493L10.285 50.643L10.285 50.85C10.285 50.902 10.295 50.963 10.346 50.988"/>
   <path stroke-width="0.045" d="M10.285 50.85C11.925 51.195 13.57 51.524 15.23 51.759C16.335 51.915 17.449 52.012 18.562 52.094C19.568 52.167 20.576 52.22 21.586 52.238"/>
   <path stroke-width="0.045" d="M21.6 52.378C21.599 52.331 21.588 52.284 21.586 52.238L21.58 52.033L21.303 41.841L21.297 41.636C21.295 41.511 21.286 41.381 21.303 41.258C21.327 41.079 21.416 40.887 21.57 40.786C21.634 40.743 21.702 40.731 21.777 40.71"/>
   <path stroke-width="0.045" d="M21.718 40.829C21.676 40.84 21.638 40.854 21.603 40.878C21.571 40.901 21.542 40.927 21.516 40.957C21.353 41.149 21.376 41.39 21.381 41.628L21.385 41.834L21.664 52.024L21.67 52.229L21.67 52.235"/>
   <path stroke-width="0.045" d="M21.67 52.247C21.672 52.284 21.673 52.353 21.632 52.371"/>
   <path stroke-width="0.045" d="M21.381 41.329C21.359 41.335 21.338 41.337 21.317 41.337L21.297 41.335L21.19 41.307L20.936 41.244C20.722 41.194 20.51 41.146 20.295 41.1C19.615 40.951 18.931 40.826 18.245 40.713C16.817 40.481 15.38 40.307 13.941 40.167C12.845 40.061 11.746 39.978 10.644 39.966L10.304 39.975C10.289 39.972 10.259 39.969 10.253 39.951"/>
   <path stroke-width="0.045" d="M21.785 52.304C21.756 52.304 21.769 52.307 21.742 52.293"/>
   <path stroke-width="0.045" d="M21.785 40.704C21.763 40.722 21.748 40.741 21.736 40.767"/>
   <path stroke-width="0.045" d="M10.234 50.838L10.23 50.804L10.23 50.598L10.23 39.621C10.23 39.533 10.199 39.398 10.271 39.32C10.311 39.274 10.32 39.289 10.409 39.283L10.537 39.277C10.702 39.271 10.867 39.271 11.032 39.273C11.675 39.281 12.317 39.323 12.958 39.371C14.343 39.473 15.725 39.621 17.1 39.816C18.675 40.039 20.243 40.304 21.785 40.704"/>
   <path stroke-width="0.045" d="M10.346 50.988L10.369 50.996L10.539 51.033C10.669 51.06 10.798 51.087 10.928 51.113C11.358 51.204 11.789 51.29 12.221 51.375C13.47 51.616 14.723 51.832 15.984 51.991"/>
   <path stroke-width="0.045" d="M15.942 51.853C15.942 51.886 15.943 51.918 15.954 51.948C15.958 51.965 15.968 51.988 15.989 51.991L16.125 52.009L16.262 52.024C16.579 52.06 16.896 52.091 17.213 52.121C18.251 52.215 19.292 52.287 20.332 52.335C20.649 52.35 20.964 52.363 21.282 52.371L21.417 52.375L21.6 52.378C21.611 52.378 21.632 52.371 21.632 52.371"/>
   <path stroke-width="0.045" d="M21.67 52.247L21.67 52.235"/>
   <path stroke-width="0.045" d="M21.785 52.304C21.739 52.332 21.672 52.356 21.629 52.372"/>
   <path stroke-width="0.045" d="M21.586 52.238C21.614 52.24 21.643 52.24 21.67 52.229"/>
   <path stroke-width="0.045" d="M10.294 50.96C10.262 50.935 10.243 50.899 10.236 50.857"/>
   <path stroke-width="0.045" d="M10.326 50.981L10.301 50.968"/>
   <path stroke-width="0.045" d="M10.285 50.85C10.269 50.847 10.24 50.844 10.234 50.823"/>
   <path stroke-width="0.045" d="M15.977 39.737C15.922 39.792 15.891 39.868 15.868 39.942C15.823 40.079 15.804 40.225 15.803 40.368"/>
  </g>
  <g id="Air In-Outlet Grilles_336x316_3">
   <desc>Air In-Outlet Grilles_336x316</desc>
   <line stroke-width="0.045" x1="15.926" y1="54.365" x2="15.993" y2="54.307"/>
   <line stroke-width="0.045" x1="15.923" y1="54.365" x2="15.989" y2="54.305"/>
   <line stroke-width="0.045" x1="21.667" y1="66.847" x2="21.62" y2="66.867"/>
   <line stroke-width="0.045" x1="21.686" y1="55.396" x2="21.681" y2="55.405"/>
   <line stroke-width="0.045" x1="21.681" y1="55.405" x2="21.676" y2="55.412"/>
   <line stroke-width="0.045" x1="21.734" y1="66.933" x2="21.734" y2="55.332"/>
   <line stroke-width="0.045" x1="21.673" y1="66.879" x2="21.67" y2="66.876"/>
   <line stroke-width="0.045" x1="21.673" y1="66.879" x2="21.673" y2="66.884"/>
   <line stroke-width="0.045" x1="21.536" y1="66.882" x2="21.545" y2="66.878"/>
   <line stroke-width="0.045" x1="10.186" y1="65.492" x2="10.182" y2="65.462"/>
   <line stroke-width="0.045" x1="16.185" y1="54.398" x2="15.926" y2="54.365"/>
   <line stroke-width="0.045" x1="10.23" y1="65.575" x2="10.228" y2="65.576"/>
   <path stroke-width="0.045" d="M21.693 66.923C21.637 66.862 21.667 66.67 21.667 66.641L21.667 55.664C21.667 55.576 21.652 55.494 21.676 55.412"/>
   <path stroke-width="0.045" d="M21.647 55.463L21.644 55.436C21.628 55.36 21.559 55.363 21.492 55.347L21.382 55.317L21.375 55.317C21.028 55.231 20.682 55.149 20.335 55.076C18.963 54.783 17.576 54.576 16.185 54.398"/>
   <path stroke-width="0.045" d="M15.926 54.365C14.968 54.249 14.009 54.151 13.047 54.075C12.278 54.015 11.506 53.963 10.733 53.959"/>
   <path stroke-width="0.045" d="M10.185 65.487L10.183 65.456L10.183 65.248L10.202 55.097L10.204 54.89L10.204 54.728L10.204 54.567C10.204 54.521 10.202 54.476 10.201 54.432C10.201 54.323 10.198 54.213 10.188 54.103C10.183 54.06 10.17 54.014 10.22 53.984L10.243 53.975L10.345 53.969C10.473 53.962 10.602 53.96 10.73 53.959"/>
   <path stroke-width="0.045" d="M10.234 53.935C10.246 53.987 10.243 54.04 10.244 54.095C10.244 54.168 10.246 54.243 10.246 54.316C10.25 54.585 10.255 54.853 10.253 55.121L10.234 65.272L10.234 65.478C10.234 65.531 10.246 65.593 10.295 65.618"/>
   <path stroke-width="0.045" d="M10.234 65.478C11.874 65.823 13.519 66.153 15.179 66.388C16.286 66.546 17.397 66.641 18.512 66.722C19.518 66.796 20.527 66.85 21.536 66.867"/>
   <path stroke-width="0.045" d="M21.55 67.007C21.548 66.959 21.536 66.915 21.536 66.867L21.53 66.662L21.251 56.47L21.246 56.265C21.245 56.14 21.236 56.011 21.253 55.887C21.275 55.709 21.364 55.517 21.518 55.414C21.582 55.372 21.652 55.36 21.727 55.34"/>
   <path stroke-width="0.045" d="M21.667 55.457C21.626 55.469 21.588 55.484 21.553 55.508C21.521 55.53 21.492 55.557 21.466 55.587C21.303 55.777 21.326 56.02 21.329 56.256L21.335 56.463L21.614 66.653L21.618 66.858L21.62 66.864"/>
   <path stroke-width="0.045" d="M21.62 66.876C21.62 66.914 21.623 66.983 21.582 67.001"/>
   <path stroke-width="0.045" d="M21.329 55.957C21.309 55.965 21.288 55.966 21.266 55.966L21.246 55.965L21.14 55.938L20.885 55.875C20.673 55.823 20.458 55.774 20.245 55.728C19.565 55.581 18.881 55.456 18.193 55.344C16.765 55.11 15.33 54.936 13.89 54.796C12.794 54.691 11.695 54.606 10.595 54.594L10.253 54.603C10.239 54.6 10.21 54.598 10.204 54.581"/>
   <path stroke-width="0.045" d="M21.734 66.933C21.704 66.933 21.719 66.936 21.693 66.923"/>
   <path stroke-width="0.045" d="M21.734 55.332C21.713 55.351 21.698 55.371 21.686 55.396"/>
   <path stroke-width="0.045" d="M10.183 65.468L10.179 65.433L10.179 65.227L10.179 54.25C10.179 54.164 10.15 54.027 10.221 53.948C10.262 53.904 10.269 53.918 10.358 53.912L10.487 53.905C10.651 53.899 10.817 53.899 10.981 53.902C11.624 53.911 12.266 53.953 12.907 54C14.291 54.103 15.676 54.25 17.05 54.445C18.626 54.667 20.193 54.933 21.734 55.332"/>
   <path stroke-width="0.045" d="M10.295 65.618L10.319 65.626L10.489 65.662C10.618 65.688 10.747 65.716 10.877 65.742C11.307 65.832 11.739 65.92 12.17 66.004C13.419 66.245 14.673 66.46 15.933 66.62"/>
   <path stroke-width="0.045" d="M15.891 66.483C15.891 66.516 15.894 66.548 15.903 66.578C15.909 66.593 15.919 66.618 15.938 66.621L16.074 66.638L16.21 66.653C16.527 66.688 16.846 66.721 17.163 66.75C18.201 66.843 19.242 66.917 20.283 66.965C20.599 66.98 20.914 66.992 21.231 67.001L21.367 67.004L21.548 67.007C21.561 67.007 21.582 67.001 21.582 67.001"/>
   <path stroke-width="0.045" d="M21.62 66.876L21.62 66.864"/>
   <path stroke-width="0.045" d="M21.734 66.933C21.689 66.962 21.62 66.984 21.577 67.001"/>
   <path stroke-width="0.045" d="M21.536 66.867C21.565 66.87 21.591 66.868 21.618 66.858"/>
   <path stroke-width="0.045" d="M10.243 65.59C10.211 65.563 10.192 65.528 10.185 65.487"/>
   <path stroke-width="0.045" d="M10.275 65.611L10.252 65.596"/>
   <path stroke-width="0.045" d="M10.234 65.478C10.217 65.475 10.189 65.472 10.183 65.453"/>
   <path stroke-width="0.045" d="M15.926 54.365C15.871 54.423 15.84 54.496 15.817 54.57C15.772 54.709 15.755 54.853 15.752 54.997"/>
  </g>
  <g id="Air In-Outlet Grilles_336x316_3">
   <desc>Air In-Outlet Grilles_336x316</desc>
   <line stroke-width="0.045" x1="16.007" y1="69.072" x2="16.074" y2="69.013"/>
   <line stroke-width="0.045" x1="16.004" y1="69.072" x2="16.07" y2="69.013"/>
   <line stroke-width="0.045" x1="21.748" y1="81.555" x2="21.701" y2="81.573"/>
   <line stroke-width="0.045" x1="21.766" y1="70.102" x2="21.762" y2="70.111"/>
   <line stroke-width="0.045" x1="21.762" y1="70.111" x2="21.757" y2="70.118"/>
   <line stroke-width="0.045" x1="21.815" y1="81.641" x2="21.815" y2="70.04"/>
   <line stroke-width="0.045" x1="21.754" y1="81.584" x2="21.751" y2="81.581"/>
   <line stroke-width="0.045" x1="21.754" y1="81.584" x2="21.754" y2="81.59"/>
   <line stroke-width="0.045" x1="21.617" y1="81.587" x2="21.626" y2="81.584"/>
   <line stroke-width="0.045" x1="10.268" y1="80.197" x2="10.263" y2="80.168"/>
   <line stroke-width="0.045" x1="16.266" y1="69.103" x2="16.007" y2="69.072"/>
   <line stroke-width="0.045" x1="10.311" y1="80.281" x2="10.31" y2="80.283"/>
   <path stroke-width="0.045" d="M21.774 81.629C21.718 81.569 21.748 81.376 21.748 81.347L21.748 70.37C21.748 70.283 21.733 70.2 21.757 70.118"/>
   <path stroke-width="0.045" d="M21.728 70.17L21.725 70.143C21.708 70.066 21.64 70.069 21.573 70.052L21.463 70.025L21.455 70.022C21.109 69.938 20.763 69.855 20.416 69.781C19.045 69.49 17.657 69.283 16.266 69.103"/>
   <path stroke-width="0.045" d="M16.007 69.072C15.051 68.956 14.089 68.856 13.128 68.781C12.359 68.721 11.586 68.668 10.814 68.665"/>
   <path stroke-width="0.045" d="M10.266 80.194L10.265 80.162L10.265 79.954L10.285 69.804L10.285 69.596L10.285 69.436L10.285 69.274C10.285 69.228 10.284 69.183 10.284 69.138C10.282 69.028 10.278 68.918 10.269 68.81C10.266 68.766 10.253 68.719 10.301 68.691L10.326 68.682L10.426 68.674C10.554 68.668 10.682 68.667 10.811 68.665"/>
   <path stroke-width="0.045" d="M10.316 68.641C10.327 68.694 10.324 68.746 10.326 68.802C10.326 68.876 10.326 68.948 10.327 69.022C10.332 69.29 10.336 69.558 10.335 69.828L10.316 79.978L10.316 80.185C10.314 80.236 10.326 80.299 10.378 80.325"/>
   <path stroke-width="0.045" d="M10.316 80.185C11.955 80.531 13.6 80.859 15.26 81.094C16.367 81.251 17.478 81.347 18.593 81.43C19.6 81.503 20.608 81.557 21.617 81.575"/>
   <path stroke-width="0.045" d="M21.631 81.712C21.629 81.667 21.618 81.62 21.617 81.575L21.611 81.367L21.333 71.177L21.327 70.971C21.326 70.846 21.318 70.716 21.333 70.593C21.358 70.415 21.446 70.222 21.6 70.12C21.664 70.078 21.733 70.066 21.807 70.046"/>
   <path stroke-width="0.045" d="M21.748 70.164C21.707 70.176 21.67 70.189 21.635 70.213C21.602 70.236 21.573 70.263 21.547 70.293C21.384 70.484 21.408 70.725 21.411 70.962L21.417 71.17L21.695 81.358L21.701 81.566L21.701 81.57"/>
   <path stroke-width="0.045" d="M21.701 81.582C21.702 81.62 21.704 81.688 21.663 81.707"/>
   <path stroke-width="0.045" d="M21.411 70.664C21.39 70.671 21.37 70.671 21.347 70.671L21.327 70.671L21.221 70.644L20.966 70.581C20.754 70.53 20.541 70.481 20.327 70.435C19.646 70.287 18.961 70.162 18.274 70.049C16.847 69.816 15.41 69.643 13.971 69.503C12.875 69.397 11.775 69.313 10.676 69.301L10.336 69.31C10.32 69.307 10.291 69.305 10.285 69.287"/>
   <path stroke-width="0.045" d="M21.815 81.641C21.786 81.638 21.8 81.643 21.774 81.629"/>
   <path stroke-width="0.045" d="M21.815 70.04C21.795 70.058 21.778 70.076 21.766 70.102"/>
   <path stroke-width="0.045" d="M10.265 80.174L10.262 80.141L10.262 79.933L10.262 68.956C10.262 68.87 10.23 68.733 10.301 68.655C10.343 68.609 10.35 68.625 10.439 68.618L10.567 68.611C10.733 68.605 10.897 68.606 11.063 68.608C11.705 68.617 12.348 68.659 12.987 68.706C14.372 68.81 15.756 68.956 17.132 69.152C18.707 69.373 20.274 69.641 21.815 70.04"/>
   <path stroke-width="0.045" d="M10.378 80.325L10.4 80.331L10.57 80.367C10.699 80.396 10.829 80.423 10.958 80.45C11.388 80.539 11.82 80.626 12.252 80.709C13.5 80.951 14.753 81.168 16.015 81.326"/>
   <path stroke-width="0.045" d="M15.971 81.189C15.974 81.221 15.974 81.254 15.984 81.284C15.99 81.299 16 81.325 16.018 81.328L16.155 81.343L16.292 81.359C16.609 81.396 16.926 81.427 17.245 81.456C18.283 81.551 19.323 81.623 20.364 81.671C20.679 81.686 20.995 81.698 21.312 81.706L21.448 81.709L21.629 81.713C21.641 81.713 21.663 81.707 21.663 81.707"/>
   <path stroke-width="0.045" d="M21.701 81.582L21.701 81.57"/>
   <path stroke-width="0.045" d="M21.815 81.641C21.771 81.668 21.702 81.691 21.66 81.709"/>
   <path stroke-width="0.045" d="M21.617 81.575C21.646 81.575 21.673 81.575 21.701 81.566"/>
   <path stroke-width="0.045" d="M10.324 80.296C10.292 80.271 10.274 80.233 10.266 80.194"/>
   <path stroke-width="0.045" d="M10.356 80.317L10.333 80.302"/>
   <path stroke-width="0.045" d="M10.316 80.185C10.298 80.182 10.271 80.179 10.265 80.159"/>
   <path stroke-width="0.045" d="M16.007 69.072C15.952 69.129 15.922 69.203 15.897 69.278C15.853 69.415 15.836 69.56 15.833 69.703"/>
  </g>
 </g>
 <g id="zoom_x0020_layer">
 </g>
 <g id="outline_x0020_on_x0020_zoom_x0020_layer">
 </g>
 <g id="arrow_x0020_layer">
 </g>
 <g id="_x0020_cable_x0020_layer">
  <g>
   <line stroke="#FFFFFF" stroke-width="0.6" x1="6.851" y1="87.215" x2="6.851" y2="93.742"/>
   <line stroke="#01889C" stroke-width="0.5" x1="6.851" y1="87.215" x2="6.851" y2="93.742"/>
  </g>
  <g>
   <line stroke="#FFFFFF" stroke-width="2" x1="10.471" y1="89.04" x2="10.471" y2="98.168"/>
   <line stroke-width="0.7" x1="10.471" y1="87.689" x2="10.471" y2="99.519"/>
  </g>
  <g>
   <line stroke="#FFFFFF" stroke-width="2" x1="24.35" y1="91.085" x2="24.35" y2="94.912"/>
   <line stroke-width="0.7" x1="24.35" y1="89.736" x2="24.35" y2="96.262"/>
  </g>
  <g>
   <line stroke="#FFFFFF" stroke-width="2" x1="20.416" y1="90.6" x2="20.416" y2="98.331"/>
   <line stroke-width="0.7" x1="20.416" y1="89.251" x2="20.416" y2="99.682"/>
  </g>
  <g>
   <line stroke="#FFFFFF" stroke-width="2" x1="14.173" y1="89.48" x2="14.173" y2="93.305"/>
   <line stroke-width="0.7" x1="14.173" y1="88.129" x2="14.173" y2="94.656"/>
  </g>
 </g>
 <g id="symbol_x0020_layer">
 </g>
 <g id="text_x0020_layer">
  <text x="0.919" y="103.007" stroke="none" fill="#000000" font-family="'Arial'" font-size="3.528">Battery</text>
  <text x="11.442" y="97.424" stroke="none" fill="#000000" font-family="'Arial'" font-size="3.528">Input</text>
  <text x="14.439" y="102.804" stroke="none" fill="#000000" font-family="'Arial'" font-size="3.528">Output</text>
  <text x="21.836" y="99.168" stroke="none" fill="#000000" font-family="'Arial'" font-size="3.528">Bypass</text>
 </g>
 <g id="text-_x0020_DO_x0020_NOT_x0020_translate">
 </g>
 <g id="callout_x0020_layer">
 </g>
</svg>
