<?xml version="1.0" encoding="UTF-8"?>
<!-- Generator: PTC Arbortext IsoDraw 7.4 M001 -->
<svg xmlns="http://www.w3.org/2000/svg" xmlns:xlink="http://www.w3.org/1999/xlink" width="85mm" height="36.27mm" viewBox="0 0 85 36.27" fill-rule="evenodd" clip-rule="evenodd" stroke="#000000" stroke-linecap="round" fill="none" xml:space="preserve" preserveAspectRatio="xMidYMid meet" zoomAndPan="magnify" version="1.1" contentScriptType="text/ecmascript" contentStyleType="text/css">
 <g id="Standard_x0020_layer">
  <g>
   <path stroke-width="0.106" d="M38.642 3.333C38.642 1.998 37.56 0.916 36.225 0.916C34.89 0.916 33.807 1.998 33.807 3.333C33.807 4.666 34.89 5.748 36.225 5.748C37.56 5.748 38.642 4.666 38.642 3.333"/>
  </g>
  <g>
   <path stroke-width="0.106" d="M38.642 13.333C38.642 11.997 37.56 10.916 36.225 10.916C34.89 10.916 33.807 11.997 33.807 13.333C33.807 14.666 34.89 15.749 36.225 15.749C37.56 15.749 38.642 14.666 38.642 13.333"/>
  </g>
  <g>
   <path stroke-width="0.106" d="M38.642 23.332C38.642 21.998 37.56 20.916 36.225 20.916C34.89 20.916 33.807 21.998 33.807 23.332C33.807 24.667 34.89 25.748 36.225 25.748C37.56 25.748 38.642 24.667 38.642 23.332"/>
  </g>
  <g>
   <path stroke-width="0.106" d="M38.642 33.332C38.642 31.998 37.56 30.916 36.225 30.916C34.89 30.916 33.807 31.998 33.807 33.332C33.807 34.667 34.89 35.749 36.225 35.749C37.56 35.749 38.642 34.667 38.642 33.332"/>
  </g>
  <text x="40.195" y="4.714" stroke="none" fill="#000000" font-family="'Arial'" font-size="4.232">1</text>
  <text x="45.195" y="4.714" stroke="none" fill="#000000" font-family="'Arial'" font-size="4.232">+24 V</text>
  <text x="40.195" y="14.714" stroke="none" fill="#000000" font-family="'Arial'" font-size="4.232">2</text>
  <text x="45.195" y="14.714" stroke="none" fill="#000000" font-family="'Arial'" font-size="4.232">IN</text>
  <text x="40.195" y="24.713" stroke="none" fill="#000000" font-family="'Arial'" font-size="4.232">3</text>
  <text x="45.195" y="24.713" stroke="none" fill="#000000" font-family="'Arial'" font-size="4.232">RTN</text>
  <text x="40.195" y="34.713" stroke="none" fill="#000000" font-family="'Arial'" font-size="4.232">4</text>
  <text x="45.195" y="34.713" stroke="none" fill="#000000" font-family="'Arial'" font-size="4.232">GND</text>
  <polyline stroke-width="0.106" points="36.225 3.333 17.432 3.333 17.432 0.053"/>
  <polyline stroke-width="0.106" points="36.225 13.333 1.552 13.333 1.552 3.16 11.91 3.16 18.986 0.571"/>
  <polyline stroke-width="0.106" points="36.225 23.332 26.236 23.332 26.236 33.368 36.225 33.368"/>
 </g>
 <g id="83_x0020_mm_x0020_hidden_x0020_Schneider_x0020_layer_x0020_for_x0020_editor">
  <polygon stroke="none" points="0 31.269 0 36.27 85 36.27 85 31.269 0 31.269"/>
 </g>
 <g id="cutout_x0020_layer">
 </g>
 <g id="outline_x0020_layer">
 </g>
 <g id="arrow_x0020_layer">
 </g>
 <g id="_x0020_cable_x0020_layer">
 </g>
 <g id="symbol_x0020_layer">
 </g>
 <g id="_x0020_text_x0020_layer">
 </g>
 <g id="_x0020_callout_x0020_layer">
 </g>
</svg>
