<?xml version="1.0" encoding="UTF-8"?>
<!-- Generator: PTC Arbortext IsoDraw 7.4 M001 -->
<svg xmlns="http://www.w3.org/2000/svg" xmlns:xlink="http://www.w3.org/1999/xlink" width="120mm" height="61.087mm" viewBox="0 0 120 61.087" fill-rule="evenodd" clip-rule="evenodd" stroke="#000000" stroke-linecap="round" fill="none" xml:space="preserve" preserveAspectRatio="xMidYMid meet" zoomAndPan="magnify" version="1.1" contentScriptType="text/ecmascript" contentStyleType="text/css">
 <g id="Standard_x0020_layer">
  <line stroke-width="0.106" x1="12.118" y1="6.485" x2="12.118" y2="6.485"/>
  <line stroke-width="0.106" x1="19.263" y1="0.053" x2="19.263" y2="0.053"/>
  <g>
   <g>
    <path stroke-width="0.134" stroke-linejoin="round" stroke-miterlimit="10" d="M44.048 37.246C44.048 36.613 43.555 36.156 42.959 36.156C42.36 36.156 41.868 36.613 41.868 37.246C41.868 37.844 42.36 38.335 42.959 38.335C43.555 38.335 44.048 37.844 44.048 37.246L44.048 37.246z"/>
    <path stroke-width="0.134" stroke-linejoin="round" stroke-miterlimit="10" d="M57.195 37.246C57.195 36.613 56.704 36.156 56.106 36.156C55.509 36.156 55.015 36.613 55.015 37.246C55.015 37.844 55.509 38.335 56.106 38.335C56.704 38.335 57.195 37.844 57.195 37.246L57.195 37.246z"/>
   </g>
   <g>
    <path stroke-width="0.134" stroke-linejoin="round" stroke-miterlimit="10" d="M69.935 37.246C69.935 36.613 69.441 36.156 68.844 36.156C68.246 36.156 67.754 36.613 67.754 37.246C67.754 37.844 68.246 38.335 68.844 38.335C69.441 38.335 69.935 37.844 69.935 37.246L69.935 37.246z"/>
    <path stroke-width="0.134" stroke-linejoin="round" stroke-miterlimit="10" d="M83.081 37.246C83.081 36.613 82.59 36.156 81.992 36.156C81.394 36.156 80.903 36.613 80.903 37.246C80.903 37.844 81.394 38.335 81.992 38.335C82.59 38.335 83.081 37.844 83.081 37.246L83.081 37.246z"/>
   </g>
  </g>
  <g>
   <g>
    <path stroke-width="0.134" stroke-linejoin="round" stroke-miterlimit="10" d="M44.048 20.047C44.048 19.414 43.555 18.957 42.959 18.957C42.36 18.957 41.868 19.414 41.868 20.047C41.868 20.644 42.36 21.137 42.959 21.137C43.555 21.137 44.048 20.644 44.048 20.047L44.048 20.047z"/>
    <path stroke-width="0.134" stroke-linejoin="round" stroke-miterlimit="10" d="M57.195 20.047C57.195 19.414 56.704 18.957 56.106 18.957C55.509 18.957 55.015 19.414 55.015 20.047C55.015 20.644 55.509 21.137 56.106 21.137C56.704 21.137 57.195 20.644 57.195 20.047L57.195 20.047z"/>
   </g>
   <g>
    <path stroke-width="0.134" stroke-linejoin="round" stroke-miterlimit="10" d="M69.935 20.047C69.935 19.414 69.441 18.957 68.844 18.957C68.246 18.957 67.754 19.414 67.754 20.047C67.754 20.644 68.246 21.137 68.844 21.137C69.441 21.137 69.935 20.644 69.935 20.047L69.935 20.047z"/>
    <path stroke-width="0.134" stroke-linejoin="round" stroke-miterlimit="10" d="M83.081 20.047C83.081 19.414 82.59 18.957 81.992 18.957C81.394 18.957 80.903 19.414 80.903 20.047C80.903 20.644 81.394 21.137 81.992 21.137C82.59 21.137 83.081 20.644 83.081 20.047L83.081 20.047z"/>
   </g>
  </g>
  <polygon stroke-width="0.2" points="14.981 3.33 14.981 52.21 109.968 52.21 109.968 3.33 14.981 3.33"/>
  <polygon stroke-width="0.2" points="33.529 22.859 33.529 33.951 91.421 33.951 91.421 22.859 33.529 22.859"/>
 </g>
 <g id="120mm_x0020_hidden_x0020_Schneider_x0020_layer_x0020_for_x0020_editor">
  <polygon stroke="none" points="0 52.087 0 61.087 120 61.087 120 52.087 0 52.087"/>
 </g>
 <g id="cutout_x0020_layer">
 </g>
 <g id="outline_x0020_layer">
 </g>
 <g id="zoom_x0020_layer">
 </g>
 <g id="arrow_x0020_layer">
 </g>
 <g id="_x0020_cable_x0020_layer">
 </g>
 <g id="symbol_x0020_layer">
 </g>
 <g id="_x0020_text_x0020_layer">
 </g>
 <g id="text-_x0020_DO_x0020_NOT_x0020_translate">
  <g>
   <g>
    <text x="40.603" y="26.268" stroke="none" fill="#000000" font-family="'Arial'" font-size="2.117">OK</text>
    <text x="37.957" y="28.736" stroke="none" fill="#000000" font-family="'Arial'" font-size="2.117">SUPPLY</text>
    <text x="40.603" y="31.205" stroke="none" fill="#000000" font-family="'Arial'" font-size="2.117">OK</text>
   </g>
   <g>
    <text x="53.409" y="26.268" stroke="none" fill="#000000" font-family="'Arial'" font-size="2.117">FAN 1</text>
    <text x="51.939" y="28.736" stroke="none" fill="#000000" font-family="'Arial'" font-size="2.117">FAILURE</text>
    <text x="53.409" y="31.205" stroke="none" fill="#000000" font-family="'Arial'" font-size="2.117">FAN 4</text>
   </g>
   <g>
    <text x="66.352" y="26.268" stroke="none" fill="#000000" font-family="'Arial'" font-size="2.117">FAN 2</text>
    <text x="64.882" y="28.736" stroke="none" fill="#000000" font-family="'Arial'" font-size="2.117">FAILURE</text>
    <text x="66.352" y="31.205" stroke="none" fill="#000000" font-family="'Arial'" font-size="2.117">FAN 5</text>
   </g>
   <g>
    <text x="79.525" y="26.268" stroke="none" fill="#000000" font-family="'Arial'" font-size="2.117">FAN 3</text>
    <text x="78.055" y="28.736" stroke="none" fill="#000000" font-family="'Arial'" font-size="2.117">FAILURE</text>
    <text x="79.525" y="31.205" stroke="none" fill="#000000" font-family="'Arial'" font-size="2.117">FAN 6</text>
   </g>
  </g>
  <text transform="matrix(0 -1 1 0 49.322 30.835)" stroke="none" fill="#000000" font-family="'Arial'" font-size="1.411">885-3621</text>
 </g>
 <g id="_x0020_callout_x0020_layer">
  <g>
   <g class="callout callout_1">
    <path stroke-width="0.106" fill="#000000" d="M40.408 14.442C40.408 15.823 41.527 16.943 42.908 16.943 44.289 16.943 45.408 15.823 45.408 14.442 45.408 13.063 44.289 11.942 42.908 11.942 41.527 11.942 40.408 13.063 40.408 14.442 40.408 14.442 40.408 14.442 40.408 14.442L40.408 14.442z"/>
    <text x="41.731" y="15.964" stroke="none" fill="#FFFFFF" font-family="'Arial'" font-size="4.232">1</text>
<desc>1</desc>   </g>
   <g class="callout callout_2">
    <path stroke-width="0.106" fill="#000000" d="M53.628 14.442C53.628 15.823 54.747 16.943 56.128 16.943 57.509 16.943 58.628 15.823 58.628 14.442 58.628 13.063 57.509 11.942 56.128 11.942 54.747 11.942 53.628 13.063 53.628 14.442 53.628 14.442 53.628 14.442 53.628 14.442L53.628 14.442z"/>
    <text x="54.951" y="15.964" stroke="none" fill="#FFFFFF" font-family="'Arial'" font-size="4.232">2</text>
<desc>2</desc>   </g>
   <g class="callout callout_3">
    <path stroke-width="0.106" fill="#000000" d="M66.472 14.416C66.472 15.797 67.591 16.917 68.972 16.917 70.352 16.917 71.472 15.797 71.472 14.416 71.472 13.035 70.352 11.916 68.972 11.916 67.591 11.916 66.472 13.035 66.472 14.416 66.472 14.416 66.472 14.416 66.472 14.416L66.472 14.416z"/>
    <text x="67.795" y="15.964" stroke="none" fill="#FFFFFF" font-family="'Arial'" font-size="4.232">3</text>
<desc>3</desc>   </g>
   <g class="callout callout_4">
    <path stroke-width="0.106" fill="#000000" d="M79.542 14.449C79.542 15.83 80.661 16.949 82.042 16.949 83.423 16.949 84.542 15.83 84.542 14.449 84.542 13.069 83.423 11.949 82.042 11.949 80.661 11.949 79.542 13.069 79.542 14.449 79.542 14.449 79.542 14.449 79.542 14.449L79.542 14.449z"/>
    <text x="80.864" y="15.964" stroke="none" fill="#FFFFFF" font-family="'Arial'" font-size="4.232">4</text>
<desc>4</desc>   </g>
   <g class="callout callout_5">
    <path stroke-width="0.106" fill="#000000" d="M40.408 42.058C40.408 43.439 41.527 44.558 42.908 44.558 44.289 44.558 45.408 43.439 45.408 42.058 45.408 40.677 44.289 39.558 42.908 39.558 41.527 39.558 40.408 40.677 40.408 42.058 40.408 42.058 40.408 42.058 40.408 42.058L40.408 42.058z"/>
    <text x="41.731" y="43.579" stroke="none" fill="#FFFFFF" font-family="'Arial'" font-size="4.232">5</text>
<desc>5</desc>   </g>
   <g class="callout callout_6">
    <path stroke-width="0.106" fill="#000000" d="M53.628 42.058C53.628 43.439 54.747 44.558 56.128 44.558 57.509 44.558 58.628 43.439 58.628 42.058 58.628 40.677 57.509 39.558 56.128 39.558 54.747 39.558 53.628 40.677 53.628 42.058 53.628 42.058 53.628 42.058 53.628 42.058L53.628 42.058z"/>
    <text x="54.951" y="43.606" stroke="none" fill="#FFFFFF" font-family="'Arial'" font-size="4.232">6</text>
<desc>6</desc>   </g>
   <g class="callout callout_7">
    <path stroke-width="0.106" fill="#000000" d="M66.472 42.058C66.472 43.439 67.591 44.558 68.972 44.558 70.352 44.558 71.472 43.439 71.472 42.058 71.472 40.677 70.352 39.558 68.972 39.558 67.591 39.558 66.472 40.677 66.472 42.058 66.472 42.058 66.472 42.058 66.472 42.058L66.472 42.058z"/>
    <text x="67.795" y="43.554" stroke="none" fill="#FFFFFF" font-family="'Arial'" font-size="4.232">7</text>
<desc>7</desc>   </g>
   <g class="callout callout_8">
    <path stroke-width="0.106" fill="#000000" d="M79.542 42.058C79.542 43.439 80.661 44.558 82.042 44.558 83.423 44.558 84.542 43.439 84.542 42.058 84.542 40.677 83.423 39.558 82.042 39.558 80.661 39.558 79.542 40.677 79.542 42.058 79.542 42.058 79.542 42.058 79.542 42.058L79.542 42.058z"/>
    <text x="80.864" y="43.606" stroke="none" fill="#FFFFFF" font-family="'Arial'" font-size="4.232">8</text>
<desc>8</desc>   </g>
  </g>
 </g>
  <path id="AUTOID_7067" class="hotspot hotspot_6" fill="black" stroke="black" visibility="hidden" pointer-events="all" d="M53.628 42.058C53.628 43.439 54.747 44.558 56.128 44.558C57.509 44.558 58.628 43.439 58.628 42.058C58.628 40.677 57.509 39.558 56.128 39.558C54.747 39.558 53.628 40.677 53.628 42.058"/>
  <path id="AUTOID_7068" class="hotspot hotspot_1" fill="black" stroke="black" visibility="hidden" pointer-events="all" d="M40.408 14.442C40.408 15.823 41.527 16.943 42.908 16.943C44.289 16.943 45.408 15.823 45.408 14.442C45.408 13.063 44.289 11.942 42.908 11.942C41.527 11.942 40.408 13.063 40.408 14.442"/>
  <path id="AUTOID_7069" class="hotspot hotspot_8" fill="black" stroke="black" visibility="hidden" pointer-events="all" d="M79.542 42.058C79.542 43.439 80.661 44.558 82.042 44.558C83.423 44.558 84.542 43.439 84.542 42.058C84.542 40.677 83.423 39.558 82.042 39.558C80.661 39.558 79.542 40.677 79.542 42.058"/>
  <path id="AUTOID_7070" class="hotspot hotspot_7" fill="black" stroke="black" visibility="hidden" pointer-events="all" d="M66.472 42.058C66.472 43.439 67.591 44.558 68.972 44.558C70.352 44.558 71.472 43.439 71.472 42.058C71.472 40.677 70.352 39.558 68.972 39.558C67.591 39.558 66.472 40.677 66.472 42.058"/>
  <path id="AUTOID_7071" class="hotspot hotspot_2" fill="black" stroke="black" visibility="hidden" pointer-events="all" d="M53.628 14.442C53.628 15.823 54.747 16.943 56.128 16.943C57.509 16.943 58.628 15.823 58.628 14.442C58.628 13.063 57.509 11.942 56.128 11.942C54.747 11.942 53.628 13.063 53.628 14.442"/>
  <path id="AUTOID_7072" class="hotspot hotspot_5" fill="black" stroke="black" visibility="hidden" pointer-events="all" d="M40.408 42.058C40.408 43.439 41.527 44.558 42.908 44.558C44.289 44.558 45.408 43.439 45.408 42.058C45.408 40.677 44.289 39.558 42.908 39.558C41.527 39.558 40.408 40.677 40.408 42.058"/>
  <path id="AUTOID_7073" class="hotspot hotspot_4" fill="black" stroke="black" visibility="hidden" pointer-events="all" d="M79.542 14.449C79.542 15.83 80.661 16.949 82.042 16.949C83.423 16.949 84.542 15.83 84.542 14.449C84.542 13.069 83.423 11.949 82.042 11.949C80.661 11.949 79.542 13.069 79.542 14.449"/>
  <path id="AUTOID_7074" class="hotspot hotspot_3" fill="black" stroke="black" visibility="hidden" pointer-events="all" d="M66.472 14.416C66.472 15.797 67.591 16.917 68.972 16.917C70.352 16.917 71.472 15.797 71.472 14.416C71.472 13.035 70.352 11.916 68.972 11.916C67.591 11.916 66.472 13.035 66.472 14.416"/>
</svg>
