<?xml version="1.0" encoding="UTF-8"?>
<!-- Generator: PTC Arbortext IsoDraw 7.4 M001 -->
<svg xmlns="http://www.w3.org/2000/svg" xmlns:xlink="http://www.w3.org/1999/xlink" width="120mm" height="73.112mm" viewBox="0 0 120 73.112" fill-rule="evenodd" clip-rule="evenodd" stroke="#000000" stroke-linecap="round" fill="none" xml:space="preserve" preserveAspectRatio="xMidYMid meet" zoomAndPan="magnify" version="1.1" contentScriptType="text/ecmascript" contentStyleType="text/css">
 <g id="Standard_x0020_layer">
  <path stroke="none" fill="#FFFFFF" d="M14.278 60.476L94.457 60.476 94.457 16.856 14.278 16.856 14.278 60.476z"/>
  <polygon stroke-width="0.134" stroke-linejoin="round" stroke-miterlimit="10" points="14.278 60.476 94.457 60.476 94.457 16.856 14.278 16.856 14.278 60.476"/>
  <path stroke="none" fill="#FFFFFF" d="M49.078 57.207L52.734 57.207 52.734 49.932 49.078 49.932 49.078 57.207z"/>
  <polygon stroke-width="0.134" stroke-linejoin="round" stroke-miterlimit="10" points="49.078 57.207 52.734 57.207 52.734 49.932 49.078 49.932 49.078 57.207"/>
  <path stroke="none" fill="#FFFFFF" d="M49.816 53.552C49.816 54.149 50.307 54.642 50.905 54.642 51.503 54.642 51.996 54.149 51.996 53.552 51.996 52.954 51.503 52.463 50.905 52.463 50.307 52.463 49.816 52.954 49.816 53.552z"/>
  <path stroke-width="0.134" stroke-linejoin="round" stroke-miterlimit="10" d="M49.816 53.552C49.816 54.149 50.307 54.642 50.905 54.642C51.503 54.642 51.996 54.149 51.996 53.552C51.996 52.954 51.503 52.463 50.905 52.463C50.307 52.463 49.816 52.954 49.816 53.552L49.816 53.552z"/>
  <path stroke="none" fill="#FFFFFF" d="M49.078 57.207L52.734 57.207 52.734 55.31 49.078 55.31 49.078 57.207z"/>
  <polygon stroke-width="0.134" stroke-linejoin="round" stroke-miterlimit="10" points="49.078 57.207 52.734 57.207 52.734 55.31 49.078 55.31 49.078 57.207"/>
  <path stroke="none" fill="#FFFFFF" d="M45.423 57.207L49.078 57.207 49.078 49.932 45.423 49.932 45.423 57.207z"/>
  <polygon stroke-width="0.134" stroke-linejoin="round" stroke-miterlimit="10" points="45.423 57.207 49.078 57.207 49.078 49.932 45.423 49.932 45.423 57.207"/>
  <path stroke="none" fill="#FFFFFF" d="M46.161 53.552C46.161 54.149 46.652 54.642 47.25 54.642 47.847 54.642 48.34 54.149 48.34 53.552 48.34 52.954 47.847 52.463 47.25 52.463 46.652 52.463 46.161 52.954 46.161 53.552z"/>
  <path stroke-width="0.134" stroke-linejoin="round" stroke-miterlimit="10" d="M46.161 53.552C46.161 54.149 46.652 54.642 47.25 54.642C47.847 54.642 48.34 54.149 48.34 53.552C48.34 52.954 47.847 52.463 47.25 52.463C46.652 52.463 46.161 52.954 46.161 53.552L46.161 53.552z"/>
  <path stroke="none" fill="#FFFFFF" d="M45.423 57.207L49.078 57.207 49.078 55.31 45.423 55.31 45.423 57.207z"/>
  <polygon stroke-width="0.134" stroke-linejoin="round" stroke-miterlimit="10" points="45.423 57.207 49.078 57.207 49.078 55.31 45.423 55.31 45.423 57.207"/>
  <path stroke="none" fill="#FFFFFF" d="M41.801 57.207L45.423 57.207 45.423 49.932 41.801 49.932 41.801 57.207z"/>
  <polygon stroke-width="0.134" stroke-linejoin="round" stroke-miterlimit="10" points="41.801 57.207 45.423 57.207 45.423 49.932 41.801 49.932 41.801 57.207"/>
  <path stroke="none" fill="#FFFFFF" d="M42.505 53.552C42.505 54.149 42.996 54.642 43.594 54.642 44.226 54.642 44.719 54.149 44.719 53.552 44.719 52.954 44.226 52.463 43.594 52.463 42.996 52.463 42.505 52.954 42.505 53.552z"/>
  <path stroke-width="0.134" stroke-linejoin="round" stroke-miterlimit="10" d="M42.505 53.552C42.505 54.149 42.996 54.642 43.594 54.642C44.226 54.642 44.719 54.149 44.719 53.552C44.719 52.954 44.226 52.463 43.594 52.463C42.996 52.463 42.505 52.954 42.505 53.552L42.505 53.552z"/>
  <path stroke="none" fill="#FFFFFF" d="M41.801 57.207L45.423 57.207 45.423 55.31 41.801 55.31 41.801 57.207z"/>
  <polygon stroke-width="0.134" stroke-linejoin="round" stroke-miterlimit="10" points="41.801 57.207 45.423 57.207 45.423 55.31 41.801 55.31 41.801 57.207"/>
  <path stroke="none" fill="#FFFFFF" d="M39.973 57.207L41.801 57.207 41.801 49.932 39.973 49.932 39.973 57.207z"/>
  <polygon stroke-width="0.134" stroke-linejoin="round" stroke-miterlimit="10" points="39.973 57.207 41.801 57.207 41.801 49.932 39.973 49.932 39.973 57.207"/>
  <path stroke="none" fill="#FFFFFF" d="M31.396 57.207L35.052 57.207 35.052 49.932 31.396 49.932 31.396 57.207z"/>
  <polygon stroke-width="0.134" stroke-linejoin="round" stroke-miterlimit="10" points="31.396 57.207 35.052 57.207 35.052 49.932 31.396 49.932 31.396 57.207"/>
  <path stroke="none" fill="#FFFFFF" d="M32.136 53.552C32.136 54.149 32.628 54.642 33.225 54.642 33.823 54.642 34.314 54.149 34.314 53.552 34.314 52.954 33.823 52.463 33.225 52.463 32.628 52.463 32.136 52.954 32.136 53.552z"/>
  <path stroke-width="0.134" stroke-linejoin="round" stroke-miterlimit="10" d="M32.136 53.552C32.136 54.149 32.628 54.642 33.225 54.642C33.823 54.642 34.314 54.149 34.314 53.552C34.314 52.954 33.823 52.463 33.225 52.463C32.628 52.463 32.136 52.954 32.136 53.552L32.136 53.552z"/>
  <path stroke="none" fill="#FFFFFF" d="M31.396 57.207L35.052 57.207 35.052 55.31 31.396 55.31 31.396 57.207z"/>
  <polygon stroke-width="0.134" stroke-linejoin="round" stroke-miterlimit="10" points="31.396 57.207 35.052 57.207 35.052 55.31 31.396 55.31 31.396 57.207"/>
  <path stroke="none" fill="#FFFFFF" d="M27.742 57.207L31.396 57.207 31.396 49.932 27.742 49.932 27.742 57.207z"/>
  <polygon stroke-width="0.134" stroke-linejoin="round" stroke-miterlimit="10" points="27.742 57.207 31.396 57.207 31.396 49.932 27.742 49.932 27.742 57.207"/>
  <path stroke="none" fill="#FFFFFF" d="M28.48 53.552C28.48 54.149 28.972 54.642 29.57 54.642 30.167 54.642 30.658 54.149 30.658 53.552 30.658 52.954 30.167 52.463 29.57 52.463 28.972 52.463 28.48 52.954 28.48 53.552z"/>
  <path stroke-width="0.134" stroke-linejoin="round" stroke-miterlimit="10" d="M28.48 53.552C28.48 54.149 28.972 54.642 29.57 54.642C30.167 54.642 30.658 54.149 30.658 53.552C30.658 52.954 30.167 52.463 29.57 52.463C28.972 52.463 28.48 52.954 28.48 53.552L28.48 53.552z"/>
  <path stroke="none" fill="#FFFFFF" d="M27.742 57.207L31.396 57.207 31.396 55.31 27.742 55.31 27.742 57.207z"/>
  <polygon stroke-width="0.134" stroke-linejoin="round" stroke-miterlimit="10" points="27.742 57.207 31.396 57.207 31.396 55.31 27.742 55.31 27.742 57.207"/>
  <path stroke="none" fill="#FFFFFF" d="M24.085 57.207L27.742 57.207 27.742 49.932 24.085 49.932 24.085 57.207z"/>
  <polygon stroke-width="0.134" stroke-linejoin="round" stroke-miterlimit="10" points="24.085 57.207 27.742 57.207 27.742 49.932 24.085 49.932 24.085 57.207"/>
  <path stroke="none" fill="#FFFFFF" d="M24.824 53.552C24.824 54.149 25.315 54.642 25.914 54.642 26.547 54.642 27.004 54.149 27.004 53.552 27.004 52.954 26.547 52.463 25.914 52.463 25.315 52.463 24.824 52.954 24.824 53.552z"/>
  <path stroke-width="0.134" stroke-linejoin="round" stroke-miterlimit="10" d="M24.824 53.552C24.824 54.149 25.315 54.642 25.914 54.642C26.547 54.642 27.004 54.149 27.004 53.552C27.004 52.954 26.547 52.463 25.914 52.463C25.315 52.463 24.824 52.954 24.824 53.552L24.824 53.552z"/>
  <path stroke="none" fill="#FFFFFF" d="M24.085 57.207L27.742 57.207 27.742 55.31 24.085 55.31 24.085 57.207z"/>
  <polygon stroke-width="0.134" stroke-linejoin="round" stroke-miterlimit="10" points="24.085 57.207 27.742 57.207 27.742 55.31 24.085 55.31 24.085 57.207"/>
  <path stroke="none" fill="#FFFFFF" d="M22.292 57.207L24.085 57.207 24.085 49.932 22.292 49.932 22.292 57.207z"/>
  <polygon stroke-width="0.134" stroke-linejoin="round" stroke-miterlimit="10" points="22.292 57.207 24.085 57.207 24.085 49.932 22.292 49.932 22.292 57.207"/>
  <path stroke="none" fill="#FFFFFF" d="M80.959 57.207L84.614 57.207 84.614 49.932 80.959 49.932 80.959 57.207z"/>
  <polygon stroke-width="0.134" stroke-linejoin="round" stroke-miterlimit="10" points="80.959 57.207 84.614 57.207 84.614 49.932 80.959 49.932 80.959 57.207"/>
  <path stroke="none" fill="#FFFFFF" d="M81.697 53.552C81.697 54.149 82.189 54.642 82.787 54.642 83.385 54.642 83.878 54.149 83.878 53.552 83.878 52.954 83.385 52.463 82.787 52.463 82.189 52.463 81.697 52.954 81.697 53.552z"/>
  <path stroke-width="0.134" stroke-linejoin="round" stroke-miterlimit="10" d="M81.697 53.552C81.697 54.149 82.189 54.642 82.787 54.642C83.385 54.642 83.878 54.149 83.878 53.552C83.878 52.954 83.385 52.463 82.787 52.463C82.189 52.463 81.697 52.954 81.697 53.552L81.697 53.552z"/>
  <path stroke="none" fill="#FFFFFF" d="M80.959 57.207L84.614 57.207 84.614 55.31 80.959 55.31 80.959 57.207z"/>
  <polygon stroke-width="0.134" stroke-linejoin="round" stroke-miterlimit="10" points="80.959 57.207 84.614 57.207 84.614 55.31 80.959 55.31 80.959 57.207"/>
  <path stroke="none" fill="#FFFFFF" d="M77.304 57.207L80.959 57.207 80.959 49.932 77.304 49.932 77.304 57.207z"/>
  <polygon stroke-width="0.134" stroke-linejoin="round" stroke-miterlimit="10" points="77.304 57.207 80.959 57.207 80.959 49.932 77.304 49.932 77.304 57.207"/>
  <path stroke="none" fill="#FFFFFF" d="M78.042 53.552C78.042 54.149 78.534 54.642 79.132 54.642 79.728 54.642 80.221 54.149 80.221 53.552 80.221 52.954 79.728 52.463 79.132 52.463 78.534 52.463 78.042 52.954 78.042 53.552z"/>
  <path stroke-width="0.134" stroke-linejoin="round" stroke-miterlimit="10" d="M78.042 53.552C78.042 54.149 78.534 54.642 79.132 54.642C79.728 54.642 80.221 54.149 80.221 53.552C80.221 52.954 79.728 52.463 79.132 52.463C78.534 52.463 78.042 52.954 78.042 53.552L78.042 53.552z"/>
  <path stroke="none" fill="#FFFFFF" d="M77.304 57.207L80.959 57.207 80.959 55.31 77.304 55.31 77.304 57.207z"/>
  <polygon stroke-width="0.134" stroke-linejoin="round" stroke-miterlimit="10" points="77.304 57.207 80.959 57.207 80.959 55.31 77.304 55.31 77.304 57.207"/>
  <path stroke="none" fill="#FFFFFF" d="M73.683 57.207L77.304 57.207 77.304 49.932 73.683 49.932 73.683 57.207z"/>
  <polygon stroke-width="0.134" stroke-linejoin="round" stroke-miterlimit="10" points="73.683 57.207 77.304 57.207 77.304 49.932 73.683 49.932 73.683 57.207"/>
  <path stroke="none" fill="#FFFFFF" d="M74.387 53.552C74.387 54.149 74.879 54.642 75.475 54.642 76.108 54.642 76.566 54.149 76.566 53.552 76.566 52.954 76.108 52.463 75.475 52.463 74.879 52.463 74.387 52.954 74.387 53.552z"/>
  <path stroke-width="0.134" stroke-linejoin="round" stroke-miterlimit="10" d="M74.387 53.552C74.387 54.149 74.879 54.642 75.475 54.642C76.108 54.642 76.566 54.149 76.566 53.552C76.566 52.954 76.108 52.463 75.475 52.463C74.879 52.463 74.387 52.954 74.387 53.552L74.387 53.552z"/>
  <path stroke="none" fill="#FFFFFF" d="M73.683 57.207L77.304 57.207 77.304 55.31 73.683 55.31 73.683 57.207z"/>
  <polygon stroke-width="0.134" stroke-linejoin="round" stroke-miterlimit="10" points="73.683 57.207 77.304 57.207 77.304 55.31 73.683 55.31 73.683 57.207"/>
  <path stroke="none" fill="#FFFFFF" d="M71.855 57.207L73.683 57.207 73.683 49.932 71.855 49.932 71.855 57.207z"/>
  <polygon stroke-width="0.134" stroke-linejoin="round" stroke-miterlimit="10" points="71.855 57.207 73.683 57.207 73.683 49.932 71.855 49.932 71.855 57.207"/>
  <path stroke="none" fill="#FFFFFF" d="M58.006 52.463C58.006 55.485 60.466 57.911 63.454 57.911 66.477 57.911 68.938 55.485 68.938 52.463 68.938 49.475 66.477 47.014 63.454 47.014 60.466 47.015 58.006 49.475 58.006 52.463z"/>
  <path stroke-width="0.134" stroke-linejoin="round" stroke-miterlimit="10" d="M58.006 52.463C58.006 55.485 60.466 57.911 63.454 57.911C66.477 57.911 68.938 55.485 68.938 52.463C68.938 49.475 66.477 47.014 63.454 47.014C60.466 47.015 58.006 49.475 58.006 52.463L58.006 52.463z"/>
  <path stroke="none" fill="#FFFFFF" d="M41.24 27.751L44.895 27.751 44.895 20.475 41.24 20.475 41.24 27.751z"/>
  <polygon stroke-width="0.134" stroke-linejoin="round" stroke-miterlimit="10" points="41.24 27.751 44.895 27.751 44.895 20.475 41.24 20.475 41.24 27.751"/>
  <path stroke="none" fill="#FFFFFF" d="M44.156 24.131C44.156 23.498 43.664 23.042 43.067 23.042 42.469 23.042 41.978 23.498 41.978 24.131 41.978 24.728 42.469 25.221 43.067 25.221 43.664 25.221 44.156 24.728 44.156 24.131z"/>
  <path stroke-width="0.134" stroke-linejoin="round" stroke-miterlimit="10" d="M44.156 24.131C44.156 23.498 43.664 23.042 43.067 23.042C42.469 23.042 41.978 23.498 41.978 24.131C41.978 24.728 42.469 25.221 43.067 25.221C43.664 25.221 44.156 24.728 44.156 24.131L44.156 24.131z"/>
  <path stroke="none" fill="#FFFFFF" d="M41.24 22.373L44.895 22.373 44.895 20.475 41.24 20.475 41.24 22.373z"/>
  <polygon stroke-width="0.134" stroke-linejoin="round" stroke-miterlimit="10" points="41.24 22.373 44.895 22.373 44.895 20.475 41.24 20.475 41.24 22.373"/>
  <path stroke="none" fill="#FFFFFF" d="M44.895 27.751L48.515 27.751 48.515 20.475 44.895 20.475 44.895 27.751z"/>
  <polygon stroke-width="0.134" stroke-linejoin="round" stroke-miterlimit="10" points="44.895 27.751 48.515 27.751 48.515 20.475 44.895 20.475 44.895 27.751"/>
  <path stroke="none" fill="#FFFFFF" d="M47.813 24.131C47.813 23.498 47.32 23.042 46.722 23.042 46.09 23.042 45.597 23.498 45.597 24.131 45.597 24.728 46.09 25.221 46.722 25.221 47.32 25.221 47.813 24.728 47.813 24.131z"/>
  <path stroke-width="0.134" stroke-linejoin="round" stroke-miterlimit="10" d="M47.813 24.131C47.813 23.498 47.32 23.042 46.722 23.042C46.09 23.042 45.597 23.498 45.597 24.131C45.597 24.728 46.09 25.221 46.722 25.221C47.32 25.221 47.813 24.728 47.813 24.131L47.813 24.131z"/>
  <path stroke="none" fill="#FFFFFF" d="M44.895 22.373L48.515 22.373 48.515 20.475 44.895 20.475 44.895 22.373z"/>
  <polygon stroke-width="0.134" stroke-linejoin="round" stroke-miterlimit="10" points="44.895 22.373 48.515 22.373 48.515 20.475 44.895 20.475 44.895 22.373"/>
  <path stroke="none" fill="#FFFFFF" d="M48.515 27.751L52.17 27.751 52.17 20.475 48.515 20.475 48.515 27.751z"/>
  <polygon stroke-width="0.134" stroke-linejoin="round" stroke-miterlimit="10" points="48.515 27.751 52.17 27.751 52.17 20.475 48.515 20.475 48.515 27.751"/>
  <path stroke="none" fill="#FFFFFF" d="M51.432 24.131C51.432 23.498 50.941 23.042 50.344 23.042 49.746 23.042 49.253 23.498 49.253 24.131 49.253 24.728 49.746 25.221 50.344 25.221 50.941 25.221 51.432 24.728 51.432 24.131z"/>
  <path stroke-width="0.134" stroke-linejoin="round" stroke-miterlimit="10" d="M51.432 24.131C51.432 23.498 50.941 23.042 50.344 23.042C49.746 23.042 49.253 23.498 49.253 24.131C49.253 24.728 49.746 25.221 50.344 25.221C50.941 25.221 51.432 24.728 51.432 24.131L51.432 24.131z"/>
  <path stroke="none" fill="#FFFFFF" d="M48.515 22.373L52.17 22.373 52.17 20.475 48.515 20.475 48.515 22.373z"/>
  <polygon stroke-width="0.134" stroke-linejoin="round" stroke-miterlimit="10" points="48.515 22.373 52.17 22.373 52.17 20.475 48.515 20.475 48.515 22.373"/>
  <path stroke="none" fill="#FFFFFF" d="M52.17 27.751L53.999 27.751 53.999 20.475 52.17 20.475 52.17 27.751z"/>
  <polygon stroke-width="0.134" stroke-linejoin="round" stroke-miterlimit="10" points="52.17 27.751 53.999 27.751 53.999 20.475 52.17 20.475 52.17 27.751"/>
  <path stroke="none" fill="#FFFFFF" d="M72.206 27.751L75.862 27.751 75.862 20.475 72.206 20.475 72.206 27.751z"/>
  <polygon stroke-width="0.134" stroke-linejoin="round" stroke-miterlimit="10" points="72.206 27.751 75.862 27.751 75.862 20.475 72.206 20.475 72.206 27.751"/>
  <path stroke="none" fill="#FFFFFF" d="M75.125 24.131C75.125 23.498 74.632 23.042 74.034 23.042 73.436 23.042 72.944 23.498 72.944 24.131 72.944 24.728 73.436 25.221 74.034 25.221 74.632 25.221 75.125 24.728 75.125 24.131z"/>
  <path stroke-width="0.134" stroke-linejoin="round" stroke-miterlimit="10" d="M75.125 24.131C75.125 23.498 74.632 23.042 74.034 23.042C73.436 23.042 72.944 23.498 72.944 24.131C72.944 24.728 73.436 25.221 74.034 25.221C74.632 25.221 75.125 24.728 75.125 24.131L75.125 24.131z"/>
  <path stroke="none" fill="#FFFFFF" d="M72.206 22.373L75.862 22.373 75.862 20.475 72.206 20.475 72.206 22.373z"/>
  <polygon stroke-width="0.134" stroke-linejoin="round" stroke-miterlimit="10" points="72.206 22.373 75.862 22.373 75.862 20.475 72.206 20.475 72.206 22.373"/>
  <path stroke="none" fill="#FFFFFF" d="M75.862 27.751L79.483 27.751 79.483 20.475 75.862 20.475 75.862 27.751z"/>
  <polygon stroke-width="0.134" stroke-linejoin="round" stroke-miterlimit="10" points="75.862 27.751 79.483 27.751 79.483 20.475 75.862 20.475 75.862 27.751"/>
  <path stroke="none" fill="#FFFFFF" d="M78.78 24.131C78.78 23.498 78.287 23.042 77.691 23.042 77.058 23.042 76.566 23.498 76.566 24.131 76.566 24.728 77.058 25.221 77.691 25.221 78.287 25.221 78.78 24.728 78.78 24.131z"/>
  <path stroke-width="0.134" stroke-linejoin="round" stroke-miterlimit="10" d="M78.78 24.131C78.78 23.498 78.287 23.042 77.691 23.042C77.058 23.042 76.566 23.498 76.566 24.131C76.566 24.728 77.058 25.221 77.691 25.221C78.287 25.221 78.78 24.728 78.78 24.131L78.78 24.131z"/>
  <path stroke="none" fill="#FFFFFF" d="M75.862 22.373L79.483 22.373 79.483 20.475 75.862 20.475 75.862 22.373z"/>
  <polygon stroke-width="0.134" stroke-linejoin="round" stroke-miterlimit="10" points="75.862 22.373 79.483 22.373 79.483 20.475 75.862 20.475 75.862 22.373"/>
  <path stroke="none" fill="#FFFFFF" d="M79.483 27.751L83.138 27.751 83.138 20.475 79.483 20.475 79.483 27.751z"/>
  <polygon stroke-width="0.134" stroke-linejoin="round" stroke-miterlimit="10" points="79.483 27.751 83.138 27.751 83.138 20.475 79.483 20.475 79.483 27.751"/>
  <path stroke="none" fill="#FFFFFF" d="M82.4 24.131C82.4 23.498 81.909 23.042 81.311 23.042 80.712 23.042 80.221 23.498 80.221 24.131 80.221 24.728 80.712 25.221 81.311 25.221 81.909 25.221 82.4 24.728 82.4 24.131z"/>
  <path stroke-width="0.134" stroke-linejoin="round" stroke-miterlimit="10" d="M82.4 24.131C82.4 23.498 81.909 23.042 81.311 23.042C80.712 23.042 80.221 23.498 80.221 24.131C80.221 24.728 80.712 25.221 81.311 25.221C81.909 25.221 82.4 24.728 82.4 24.131L82.4 24.131z"/>
  <path stroke="none" fill="#FFFFFF" d="M79.483 22.373L83.138 22.373 83.138 20.475 79.483 20.475 79.483 22.373z"/>
  <polygon stroke-width="0.134" stroke-linejoin="round" stroke-miterlimit="10" points="79.483 22.373 83.138 22.373 83.138 20.475 79.483 20.475 79.483 22.373"/>
  <path stroke="none" fill="#FFFFFF" d="M83.138 27.751L84.966 27.751 84.966 20.475 83.138 20.475 83.138 27.751z"/>
  <polygon stroke-width="0.134" stroke-linejoin="round" stroke-miterlimit="10" points="83.138 27.751 84.966 27.751 84.966 20.475 83.138 20.475 83.138 27.751"/>
  <path stroke="none" fill="#FFFFFF" d="M22.469 27.751L26.125 27.751 26.125 20.475 22.469 20.475 22.469 27.751z"/>
  <polygon stroke-width="0.134" stroke-linejoin="round" stroke-miterlimit="10" points="22.469 27.751 26.125 27.751 26.125 20.475 22.469 20.475 22.469 27.751"/>
  <path stroke="none" fill="#FFFFFF" d="M25.387 24.131C25.387 23.498 24.894 23.042 24.297 23.042 23.699 23.042 23.207 23.498 23.207 24.131 23.207 24.728 23.699 25.221 24.297 25.221 24.894 25.221 25.387 24.728 25.387 24.131z"/>
  <path stroke-width="0.134" stroke-linejoin="round" stroke-miterlimit="10" d="M25.387 24.131C25.387 23.498 24.894 23.042 24.297 23.042C23.699 23.042 23.207 23.498 23.207 24.131C23.207 24.728 23.699 25.221 24.297 25.221C24.894 25.221 25.387 24.728 25.387 24.131L25.387 24.131z"/>
  <path stroke="none" fill="#FFFFFF" d="M22.469 22.373L26.125 22.373 26.125 20.475 22.469 20.475 22.469 22.373z"/>
  <polygon stroke-width="0.134" stroke-linejoin="round" stroke-miterlimit="10" points="22.469 22.373 26.125 22.373 26.125 20.475 22.469 20.475 22.469 22.373"/>
  <path stroke="none" fill="#FFFFFF" d="M26.125 27.751L29.745 27.751 29.745 20.475 26.125 20.475 26.125 27.751z"/>
  <polygon stroke-width="0.134" stroke-linejoin="round" stroke-miterlimit="10" points="26.125 27.751 29.745 27.751 29.745 20.475 26.125 20.475 26.125 27.751"/>
  <path stroke="none" fill="#FFFFFF" d="M29.007 24.131C29.007 23.498 28.55 23.042 27.917 23.042 27.32 23.042 26.827 23.498 26.827 24.131 26.827 24.728 27.32 25.221 27.917 25.221 28.55 25.221 29.007 24.728 29.007 24.131z"/>
  <path stroke-width="0.134" stroke-linejoin="round" stroke-miterlimit="10" d="M29.007 24.131C29.007 23.498 28.55 23.042 27.917 23.042C27.32 23.042 26.827 23.498 26.827 24.131C26.827 24.728 27.32 25.221 27.917 25.221C28.55 25.221 29.007 24.728 29.007 24.131L29.007 24.131z"/>
  <path stroke="none" fill="#FFFFFF" d="M26.125 22.373L29.745 22.373 29.745 20.475 26.125 20.475 26.125 22.373z"/>
  <polygon stroke-width="0.134" stroke-linejoin="round" stroke-miterlimit="10" points="26.125 22.373 29.745 22.373 29.745 20.475 26.125 20.475 26.125 22.373"/>
  <path stroke="none" fill="#FFFFFF" d="M29.745 27.751L33.401 27.751 33.401 20.475 29.745 20.475 29.745 27.751z"/>
  <polygon stroke-width="0.134" stroke-linejoin="round" stroke-miterlimit="10" points="29.745 27.751 33.401 27.751 33.401 20.475 29.745 20.475 29.745 27.751"/>
  <path stroke="none" fill="#FFFFFF" d="M32.662 24.131C32.662 23.498 32.17 23.042 31.573 23.042 30.975 23.042 30.484 23.498 30.484 24.131 30.484 24.728 30.975 25.221 31.573 25.221 32.17 25.221 32.662 24.728 32.662 24.131z"/>
  <path stroke-width="0.134" stroke-linejoin="round" stroke-miterlimit="10" d="M32.662 24.131C32.662 23.498 32.17 23.042 31.573 23.042C30.975 23.042 30.484 23.498 30.484 24.131C30.484 24.728 30.975 25.221 31.573 25.221C32.17 25.221 32.662 24.728 32.662 24.131L32.662 24.131z"/>
  <path stroke="none" fill="#FFFFFF" d="M29.745 22.373L33.401 22.373 33.401 20.475 29.745 20.475 29.745 22.373z"/>
  <polygon stroke-width="0.134" stroke-linejoin="round" stroke-miterlimit="10" points="29.745 22.373 33.401 22.373 33.401 20.475 29.745 20.475 29.745 22.373"/>
  <path stroke="none" fill="#FFFFFF" d="M33.401 27.751L35.228 27.751 35.228 20.475 33.401 20.475 33.401 27.751z"/>
  <polygon stroke-width="0.134" stroke-linejoin="round" stroke-miterlimit="10" points="33.401 27.751 35.228 27.751 35.228 20.475 33.401 20.475 33.401 27.751"/>
  <path stroke="none" fill="#FFFFFF" d="M58.357 23.745C58.357 26.768 60.817 29.193 63.841 29.193 66.864 29.193 69.29 26.768 69.29 23.745 69.29 20.757 66.864 18.295 63.841 18.295 60.817 18.295 58.357 20.757 58.357 23.745z"/>
  <path stroke-width="0.134" stroke-linejoin="round" stroke-miterlimit="10" d="M58.357 23.745C58.357 26.768 60.817 29.193 63.841 29.193C66.864 29.193 69.29 26.768 69.29 23.745C69.29 20.757 66.864 18.295 63.841 18.295C60.817 18.295 58.357 20.757 58.357 23.745L58.357 23.745z"/>
  <path stroke="none" fill="#FFFFFF" d="M90.837 52.848L94.457 49.228 89.29 44.097 85.67 47.718 90.837 52.848z"/>
  <polygon stroke-width="0.134" stroke-linejoin="round" stroke-miterlimit="10" points="90.837 52.848 94.457 49.228 89.29 44.097 85.67 47.718 90.837 52.848"/>
  <path stroke="none" fill="#FFFFFF" d="M87.216 49.228L90.837 45.643 89.29 44.097 85.67 47.718 87.216 49.228z"/>
  <polygon stroke-width="0.134" stroke-linejoin="round" stroke-miterlimit="10" points="87.216 49.228 90.837 45.643 89.29 44.097 85.67 47.718 87.216 49.228"/>
  <path stroke="none" fill="#000000" d="M90.977 50.389C90.766 50.177 90.415 50.177 90.203 50.389 89.992 50.6 89.992 50.951 90.203 51.161 90.415 51.372 90.766 51.372 90.977 51.161 91.188 50.951 91.188 50.6 90.977 50.389z"/>
  <path stroke-width="0.134" stroke-linejoin="round" stroke-miterlimit="10" d="M90.977 50.389C90.766 50.177 90.415 50.177 90.203 50.389C89.992 50.6 89.992 50.951 90.203 51.161C90.415 51.372 90.766 51.372 90.977 51.161C91.188 50.951 91.188 50.6 90.977 50.389L90.977 50.389z"/>
  <path stroke="none" fill="#000000" d="M92.769 48.595C92.558 48.384 92.207 48.384 91.996 48.595 91.786 48.807 91.786 49.158 91.996 49.369 92.207 49.581 92.558 49.581 92.769 49.369 92.98 49.158 92.98 48.807 92.769 48.595z"/>
  <path stroke-width="0.134" stroke-linejoin="round" stroke-miterlimit="10" d="M92.769 48.595C92.558 48.384 92.207 48.384 91.996 48.595C91.786 48.807 91.786 49.158 91.996 49.369C92.207 49.581 92.558 49.581 92.769 49.369C92.98 49.158 92.98 48.807 92.769 48.595L92.769 48.595z"/>
  <path stroke="none" fill="#FFFFFF" d="M94.07 29.966L91.54 25.573 85.212 29.193 87.778 33.621 94.07 29.966z"/>
  <polygon stroke-width="0.134" stroke-linejoin="round" stroke-miterlimit="10" points="94.07 29.966 91.54 25.573 85.212 29.193 87.778 33.621 94.07 29.966"/>
  <path stroke="none" fill="#FFFFFF" d="M89.677 32.531L87.111 28.103 85.212 29.193 87.778 33.621 89.677 32.531z"/>
  <polygon stroke-width="0.134" stroke-linejoin="round" stroke-miterlimit="10" points="89.677 32.531 87.111 28.103 85.212 29.193 87.778 33.621 89.677 32.531"/>
  <path stroke="none" fill="#000000" d="M91.751 29.228C91.504 29.368 91.399 29.721 91.54 29.966 91.715 30.213 92.031 30.318 92.313 30.178 92.558 30.001 92.665 29.684 92.489 29.439 92.349 29.158 91.996 29.088 91.751 29.228z"/>
  <path stroke-width="0.134" stroke-linejoin="round" stroke-miterlimit="10" d="M91.751 29.228C91.504 29.368 91.399 29.721 91.54 29.966C91.715 30.213 92.031 30.318 92.313 30.178C92.558 30.001 92.665 29.684 92.489 29.439C92.349 29.158 91.996 29.088 91.751 29.228L91.751 29.228z"/>
  <path stroke="none" fill="#000000" d="M90.486 27.013C90.203 27.153 90.134 27.506 90.275 27.751 90.415 28.033 90.766 28.103 91.013 27.963 91.293 27.823 91.364 27.471 91.224 27.225 91.082 26.943 90.731 26.873 90.486 27.013z"/>
  <path stroke-width="0.134" stroke-linejoin="round" stroke-miterlimit="10" d="M90.486 27.013C90.203 27.153 90.134 27.506 90.275 27.751C90.415 28.033 90.766 28.103 91.013 27.963C91.293 27.823 91.364 27.471 91.224 27.225C91.082 26.943 90.731 26.873 90.486 27.013L90.486 27.013z"/>
  <path stroke="none" fill="#FFFFFF" d="M14.631 46.662L21.942 46.662 21.942 41.566 14.631 41.566 14.631 46.662z"/>
  <polygon stroke-width="0.134" stroke-linejoin="round" stroke-miterlimit="10" points="14.631 46.662 21.942 46.662 21.942 41.566 14.631 41.566 14.631 46.662"/>
  <path stroke="none" fill="#FFFFFF" d="M19.727 46.662L21.942 46.662 21.942 41.566 19.727 41.566 19.727 46.662z"/>
  <polygon stroke-width="0.134" stroke-linejoin="round" stroke-miterlimit="10" points="19.727 46.662 21.942 46.662 21.942 41.566 19.727 41.566 19.727 46.662"/>
  <path stroke="none" fill="#000000" d="M16.283 43.393C16.564 43.393 16.809 43.148 16.809 42.831 16.809 42.549 16.564 42.304 16.283 42.304 15.965 42.304 15.72 42.549 15.72 42.831 15.72 43.148 15.965 43.393 16.283 43.393z"/>
  <path stroke-width="0.134" stroke-linejoin="round" stroke-miterlimit="10" d="M16.283 43.393C16.564 43.393 16.809 43.148 16.809 42.831C16.809 42.549 16.564 42.304 16.283 42.304C15.965 42.304 15.72 42.549 15.72 42.831C15.72 43.148 15.965 43.393 16.283 43.393L16.283 43.393z"/>
  <path stroke="none" fill="#000000" d="M16.283 45.924C16.564 45.924 16.809 45.679 16.809 45.398 16.809 45.081 16.564 44.835 16.283 44.835 15.965 44.835 15.72 45.081 15.72 45.398 15.72 45.679 15.965 45.924 16.283 45.924z"/>
  <path stroke-width="0.134" stroke-linejoin="round" stroke-miterlimit="10" d="M16.283 45.924C16.564 45.924 16.809 45.679 16.809 45.398C16.809 45.081 16.564 44.835 16.283 44.835C15.965 44.835 15.72 45.081 15.72 45.398C15.72 45.679 15.965 45.924 16.283 45.924L16.283 45.924z"/>
  <path stroke="none" fill="#FFFFFF" d="M14.631 36.118L21.942 36.118 21.942 31.021 14.631 31.021 14.631 36.118z"/>
  <polygon stroke-width="0.134" stroke-linejoin="round" stroke-miterlimit="10" points="14.631 36.118 21.942 36.118 21.942 31.021 14.631 31.021 14.631 36.118"/>
  <path stroke="none" fill="#FFFFFF" d="M19.727 36.118L21.942 36.118 21.942 31.021 19.727 31.021 19.727 36.118z"/>
  <polygon stroke-width="0.134" stroke-linejoin="round" stroke-miterlimit="10" points="19.727 36.118 21.942 36.118 21.942 31.021 19.727 31.021 19.727 36.118"/>
  <path stroke="none" fill="#000000" d="M16.283 32.848C16.564 32.848 16.809 32.603 16.809 32.286 16.809 32.005 16.564 31.759 16.283 31.759 15.965 31.759 15.72 32.005 15.72 32.286 15.72 32.603 15.965 32.848 16.283 32.848z"/>
  <path stroke-width="0.134" stroke-linejoin="round" stroke-miterlimit="10" d="M16.283 32.848C16.564 32.848 16.809 32.603 16.809 32.286C16.809 32.005 16.564 31.759 16.283 31.759C15.965 31.759 15.72 32.005 15.72 32.286C15.72 32.603 15.965 32.848 16.283 32.848L16.283 32.848z"/>
  <path stroke="none" fill="#000000" d="M16.283 35.38C16.564 35.38 16.809 35.134 16.809 34.853 16.809 34.536 16.564 34.289 16.283 34.289 15.965 34.289 15.72 34.536 15.72 34.853 15.72 35.134 15.965 35.38 16.283 35.38z"/>
  <path stroke-width="0.134" stroke-linejoin="round" stroke-miterlimit="10" d="M16.283 35.38C16.564 35.38 16.809 35.134 16.809 34.853C16.809 34.536 16.564 34.289 16.283 34.289C15.965 34.289 15.72 34.536 15.72 34.853C15.72 35.134 15.965 35.38 16.283 35.38L16.283 35.38z"/>
  <path stroke="none" fill="#FFFFFF" d="M86.795 43.006L94.07 43.006 94.07 35.027 86.795 35.027 86.795 43.006z"/>
  <polygon stroke-width="0.134" stroke-linejoin="round" stroke-miterlimit="10" points="86.795 43.006 94.07 43.006 94.07 35.027 86.795 35.027 86.795 43.006"/>
  <path stroke="none" fill="#FFFFFF" d="M86.795 43.006L88.974 43.006 88.974 35.027 86.795 35.027 86.795 43.006z"/>
  <polygon stroke-width="0.134" stroke-linejoin="round" stroke-miterlimit="10" points="86.795 43.006 88.974 43.006 88.974 35.027 86.795 35.027 86.795 43.006"/>
  <path stroke="none" fill="#000000" d="M92.418 40.475C92.137 40.475 91.891 40.722 91.891 41.003 91.891 41.32 92.137 41.566 92.418 41.566 92.734 41.566 92.98 41.32 92.98 41.003 92.98 40.722 92.734 40.475 92.418 40.475z"/>
  <path stroke-width="0.134" stroke-linejoin="round" stroke-miterlimit="10" d="M92.418 40.475C92.137 40.475 91.891 40.722 91.891 41.003C91.891 41.32 92.137 41.566 92.418 41.566C92.734 41.566 92.98 41.32 92.98 41.003C92.98 40.722 92.734 40.475 92.418 40.475L92.418 40.475z"/>
  <path stroke="none" fill="#000000" d="M92.418 36.469C92.137 36.469 91.891 36.716 91.891 37.031 91.891 37.313 92.137 37.558 92.418 37.558 92.734 37.558 92.98 37.313 92.98 37.031 92.98 36.715 92.734 36.469 92.418 36.469z"/>
  <path stroke-width="0.134" stroke-linejoin="round" stroke-miterlimit="10" d="M92.418 36.469C92.137 36.469 91.891 36.716 91.891 37.031C91.891 37.313 92.137 37.558 92.418 37.558C92.734 37.558 92.98 37.313 92.98 37.031C92.98 36.715 92.734 36.469 92.418 36.469L92.418 36.469z"/>
  <path stroke="none" fill="#000000" d="M92.418 38.472C92.137 38.472 91.891 38.719 91.891 39.034 91.891 39.316 92.137 39.561 92.418 39.561 92.734 39.561 92.98 39.316 92.98 39.034 92.98 38.719 92.734 38.472 92.418 38.472z"/>
  <path stroke-width="0.134" stroke-linejoin="round" stroke-miterlimit="10" d="M92.418 38.472C92.137 38.472 91.891 38.719 91.891 39.034C91.891 39.316 92.137 39.561 92.418 39.561C92.734 39.561 92.98 39.316 92.98 39.034C92.98 38.719 92.734 38.472 92.418 38.472L92.418 38.472z"/>
  <path stroke="none" fill="#FFFFFF" d="M41.274 20.018L52.277 20.018 52.277 13.339 41.274 13.339 41.274 20.018z"/>
  <polygon stroke-width="0.134" stroke-linejoin="round" stroke-miterlimit="10" points="41.274 20.018 52.277 20.018 52.277 13.339 41.274 13.339 41.274 20.018"/>
  <path stroke="none" fill="#FFFFFF" d="M41.837 64.132L52.874 64.132 52.874 57.454 41.837 57.454 41.837 64.132z"/>
  <polygon stroke-width="0.134" stroke-linejoin="round" stroke-miterlimit="10" points="41.837 64.132 52.874 64.132 52.874 57.454 41.837 57.454 41.837 64.132"/>
  <path stroke="none" fill="#808080" d="M25.984 33.2L29.99 33.2 29.99 31.091 25.984 31.091 25.984 33.2z"/>
  <path stroke-width="0.134" stroke-linejoin="round" stroke-miterlimit="10" fill="#D9D9D9" d="M25.984 33.2L29.99 33.2 29.99 31.091 25.984 31.091 25.984 33.2z"/>
  <path stroke="none" fill="#808080" d="M25.984 35.52L29.99 35.52 29.99 33.411 25.984 33.411 25.984 35.52z"/>
  <path stroke-width="0.134" stroke-linejoin="round" stroke-miterlimit="10" fill="#D9D9D9" d="M25.984 35.52L29.99 35.52 29.99 33.411 25.984 33.411 25.984 35.52z"/>
  <path stroke="none" fill="#808080" d="M25.984 37.84L29.99 37.84 29.99 35.731 25.984 35.731 25.984 37.84z"/>
  <path stroke-width="0.134" stroke-linejoin="round" stroke-miterlimit="10" fill="#D9D9D9" d="M25.984 37.84L29.99 37.84 29.99 35.731 25.984 35.731 25.984 37.84z"/>
  <path stroke="none" fill="#FFFFFF" d="M26.405 32.707L27.495 32.707 27.495 31.618 26.405 31.618 26.405 32.707z"/>
  <polygon stroke-width="0.134" stroke-linejoin="round" stroke-miterlimit="10" points="26.405 32.707 27.495 32.707 27.495 31.618 26.405 31.618 26.405 32.707"/>
  <path stroke="none" fill="#FFFFFF" d="M26.405 35.027L27.495 35.027 27.495 33.939 26.405 33.939 26.405 35.027z"/>
  <polygon stroke-width="0.134" stroke-linejoin="round" stroke-miterlimit="10" points="26.405 35.027 27.495 35.027 27.495 33.939 26.405 33.939 26.405 35.027"/>
  <path stroke="none" fill="#FFFFFF" d="M26.405 37.347L27.495 37.347 27.495 36.222 26.405 36.222 26.405 37.347z"/>
  <polygon stroke-width="0.134" stroke-linejoin="round" stroke-miterlimit="10" points="26.405 37.347 27.495 37.347 27.495 36.222 26.405 36.222 26.405 37.347"/>
  <path stroke="none" fill="#808080" d="M25.984 42.128L29.99 42.128 29.99 40.02 25.984 40.02 25.984 42.128z"/>
  <path stroke-width="0.134" stroke-linejoin="round" stroke-miterlimit="10" fill="#D9D9D9" d="M25.984 42.128L29.99 42.128 29.99 40.02 25.984 40.02 25.984 42.128z"/>
  <path stroke="none" fill="#808080" d="M25.984 44.414L29.99 44.414 29.99 42.34 25.984 42.34 25.984 44.414z"/>
  <path stroke-width="0.134" stroke-linejoin="round" stroke-miterlimit="10" fill="#D9D9D9" d="M25.984 44.414L29.99 44.414 29.99 42.34 25.984 42.34 25.984 44.414z"/>
  <path stroke="none" fill="#808080" d="M25.984 46.732L29.99 46.732 29.99 44.624 25.984 44.624 25.984 46.732z"/>
  <path stroke-width="0.134" stroke-linejoin="round" stroke-miterlimit="10" fill="#D9D9D9" d="M25.984 46.732L29.99 46.732 29.99 44.624 25.984 44.624 25.984 46.732z"/>
  <path stroke="none" fill="#FFFFFF" d="M26.512 41.6L27.635 41.6 27.635 40.512 26.512 40.512 26.512 41.6z"/>
  <polygon stroke-width="0.134" stroke-linejoin="round" stroke-miterlimit="10" points="26.512 41.6 27.635 41.6 27.635 40.512 26.512 40.512 26.512 41.6"/>
  <path stroke="none" fill="#FFFFFF" d="M26.512 43.92L27.635 43.92 27.635 42.831 26.512 42.831 26.512 43.92z"/>
  <polygon stroke-width="0.134" stroke-linejoin="round" stroke-miterlimit="10" points="26.512 43.92 27.635 43.92 27.635 42.831 26.512 42.831 26.512 43.92"/>
  <path stroke="none" fill="#FFFFFF" d="M26.512 46.24L27.635 46.24 27.635 45.151 26.512 45.151 26.512 46.24z"/>
  <polygon stroke-width="0.134" stroke-linejoin="round" stroke-miterlimit="10" points="26.512 46.24 27.635 46.24 27.635 45.151 26.512 45.151 26.512 46.24"/>
  <path stroke="none" fill="#808080" d="M75.406 38.226L77.444 38.226 77.444 34.359 75.406 34.359 75.406 38.226z"/>
  <path stroke-width="0.134" stroke-linejoin="round" stroke-miterlimit="10" fill="#D9D9D9" d="M75.406 38.226L77.444 38.226 77.444 34.359 75.406 34.359 75.406 38.226z"/>
  <path stroke="none" fill="#808080" d="M73.156 38.226L75.194 38.226 75.194 34.359 73.156 34.359 73.156 38.226z"/>
  <path stroke-width="0.134" stroke-linejoin="round" stroke-miterlimit="10" fill="#D9D9D9" d="M73.156 38.226L75.194 38.226 75.194 34.359 73.156 34.359 73.156 38.226z"/>
  <path stroke="none" fill="#FFFFFF" d="M75.897 37.664L76.953 37.664 76.953 36.609 75.897 36.609 75.897 37.664z"/>
  <polygon stroke-width="0.134" stroke-linejoin="round" stroke-miterlimit="10" points="75.897 37.664 76.953 37.664 76.953 36.609 75.897 36.609 75.897 37.664"/>
  <path stroke="none" fill="#FFFFFF" d="M73.647 37.664L74.703 37.664 74.703 36.609 73.647 36.609 73.647 37.664z"/>
  <polygon stroke-width="0.134" stroke-linejoin="round" stroke-miterlimit="10" points="73.647 37.664 74.703 37.664 74.703 36.609 73.647 36.609 73.647 37.664"/>
  <path stroke="none" fill="#FFFFFF" d="M22.399 19.984L33.401 19.984 33.401 13.304 22.399 13.304 22.399 19.984z"/>
  <polygon stroke-width="0.134" stroke-linejoin="round" stroke-miterlimit="10" points="22.399 19.984 33.401 19.984 33.401 13.304 22.399 13.304 22.399 19.984"/>
  <path stroke="none" fill="#FFFFFF" d="M24.085 64.132L35.088 64.132 35.088 57.454 24.085 57.454 24.085 64.132z"/>
  <polygon stroke-width="0.134" stroke-linejoin="round" stroke-miterlimit="10" points="24.085 64.132 35.088 64.132 35.088 57.454 24.085 57.454 24.085 64.132"/>
  <path stroke="none" fill="#FFFFFF" d="M73.718 64.132L84.721 64.132 84.721 57.454 73.718 57.454 73.718 64.132z"/>
  <polygon stroke-width="0.134" stroke-linejoin="round" stroke-miterlimit="10" points="73.718 64.132 84.721 64.132 84.721 57.454 73.718 57.454 73.718 64.132"/>
  <path stroke="none" fill="#FFFFFF" d="M72.171 19.984L83.174 19.984 83.174 13.304 72.171 13.304 72.171 19.984z"/>
  <polygon stroke-width="0.134" stroke-linejoin="round" stroke-miterlimit="10" points="72.171 19.984 83.174 19.984 83.174 13.304 72.171 13.304 72.171 19.984"/>
 </g>
 <g id="120mm_x0020_hidden_x0020_Schneider_x0020_layer_x0020_for_x0020_editor">
  <polygon stroke="none" points="0 64.112 0 73.112 120 73.112 120 64.112 0 64.112"/>
 </g>
 <g id="cutout_x0020_layer">
 </g>
 <g id="outline_x0020_layer">
 </g>
 <g id="zoom_x0020_layer">
 </g>
 <g id="arrow_x0020_layer">
 </g>
 <g id="_x0020_cable_x0020_layer">
 </g>
 <g id="symbol_x0020_layer">
 </g>
 <g id="_x0020_text_x0020_layer">
  <g>
   <text x="1.508" y="12.832" stroke="none" fill="#000000" font-family="'Arial'" font-size="1.754">Disable speed </text>
   <text x="1.508" y="14.948" stroke="none" fill="#000000" font-family="'Arial'" font-size="1.754">monitoring of fans</text>
   <text x="1.508" y="17.065" stroke="none" fill="#000000" font-family="'Arial'" font-size="1.754">group1</text>
  </g>
  <g>
   <text x="1.508" y="61.195" stroke="none" fill="#000000" font-family="'Arial'" font-size="1.754">Disable speed </text>
   <text x="1.508" y="63.31" stroke="none" fill="#000000" font-family="'Arial'" font-size="1.754">monitoring of fans</text>
   <text x="1.508" y="65.427" stroke="none" fill="#000000" font-family="'Arial'" font-size="1.754">group 2</text>
  </g>
  <g>
   <text x="41.07" y="7.424" stroke="none" fill="#000000" font-family="'Arial'" font-size="1.754">Fan speed signal</text>
   <text x="41.07" y="9.541" stroke="none" fill="#000000" font-family="'Arial'" font-size="1.754">of group 1</text>
  </g>
  <g>
   <text x="41.499" y="69.132" stroke="none" fill="#000000" font-family="'Arial'" font-size="1.754">Fan speed signal</text>
   <text x="41.499" y="71.25" stroke="none" fill="#000000" font-family="'Arial'" font-size="1.754">of group 2</text>
  </g>
  <g>
   <text x="73.385" y="69.132" stroke="none" fill="#000000" font-family="'Arial'" font-size="1.754">Supply group 2</text>
   <text x="73.385" y="71.25" stroke="none" fill="#000000" font-family="'Arial'" font-size="1.754">PLUS</text>
  </g>
  <g>
   <text x="24.032" y="69.132" stroke="none" fill="#000000" font-family="'Arial'" font-size="1.754">Supply group 2</text>
   <text x="24.032" y="71.25" stroke="none" fill="#000000" font-family="'Arial'" font-size="1.754">MINUS</text>
  </g>
  <g>
   <text x="57.561" y="1.411" stroke="none" fill="#000000" font-family="'Arial'" font-size="1.754">Disable speed </text>
   <text x="57.561" y="3.528" stroke="none" fill="#000000" font-family="'Arial'" font-size="1.754">monitoring of fans</text>
   <text x="57.561" y="5.644" stroke="none" fill="#000000" font-family="'Arial'" font-size="1.754">group1+2</text>
  </g>
  <g>
   <text x="0.883" y="34.5" stroke="none" fill="#000000" font-family="'Arial'" font-size="1.754">Fan supply</text>
   <text x="0.883" y="36.618" stroke="none" fill="#000000" font-family="'Arial'" font-size="1.754">E701</text>
   <text x="0.883" y="38.734" stroke="none" fill="#000000" font-family="'Arial'" font-size="1.754">T001/T401</text>
   <text x="0.883" y="40.85" stroke="none" fill="#000000" font-family="'Arial'" font-size="1.754">&lt;40 kVA</text>
  </g>
  <g>
   <text x="72.003" y="7.424" stroke="none" fill="#000000" font-family="'Arial'" font-size="1.754">Supply group 1</text>
   <text x="72.003" y="9.541" stroke="none" fill="#000000" font-family="'Arial'" font-size="1.754">PLUS</text>
  </g>
  <g>
   <text x="22.294" y="7.424" stroke="none" fill="#000000" font-family="'Arial'" font-size="1.754">Supply group 1</text>
   <text x="22.294" y="9.541" stroke="none" fill="#000000" font-family="'Arial'" font-size="1.754">MINUS</text>
  </g>
  <g>
   <line stroke="#FFFFFF" stroke-width="1" x1="91.004" y1="29.282" x2="98.29" y2="26.065"/>
   <line stroke-width="0.106" x1="91.004" y1="29.282" x2="98.29" y2="26.065"/>
  </g>
  <g>
   <line stroke="#FFFFFF" stroke-width="1" x1="91.382" y1="39.027" x2="99.143" y2="38.743"/>
   <line stroke-width="0.106" x1="91.382" y1="39.027" x2="99.143" y2="38.743"/>
  </g>
  <g>
   <line stroke="#FFFFFF" stroke-width="1" x1="91.667" y1="50.098" x2="97.912" y2="53.695"/>
   <line stroke-width="0.106" x1="91.667" y1="50.098" x2="97.912" y2="53.695"/>
  </g>
  <g>
   <line stroke="#FFFFFF" stroke-width="1" x1="77.947" y1="62.305" x2="77.947" y2="67.32"/>
   <line stroke-width="0.106" x1="77.947" y1="62.305" x2="77.947" y2="67.32"/>
  </g>
  <g>
   <line stroke="#FFFFFF" stroke-width="1" x1="45.207" y1="62.494" x2="45.207" y2="67.037"/>
   <line stroke-width="0.106" x1="45.207" y1="62.494" x2="45.207" y2="67.037"/>
  </g>
  <g>
   <line stroke="#FFFFFF" stroke-width="1" x1="27.89" y1="62.399" x2="27.89" y2="66.753"/>
   <line stroke-width="0.106" x1="27.89" y1="62.399" x2="27.89" y2="66.753"/>
  </g>
  <g>
   <line stroke="#FFFFFF" stroke-width="1" x1="26.512" y1="45.151" x2="8.682" y2="59.088"/>
   <line stroke-width="0.106" x1="26.512" y1="45.151" x2="8.682" y2="59.088"/>
  </g>
  <g>
   <line stroke="#FFFFFF" stroke-width="1" x1="14.631" y1="33.569" x2="9.721" y2="36.472"/>
   <line stroke-width="0.106" x1="14.631" y1="33.569" x2="9.721" y2="36.472"/>
  </g>
  <g>
   <line stroke="#FFFFFF" stroke-width="1" x1="14.631" y1="44.115" x2="9.912" y2="39.88"/>
   <line stroke-width="0.106" x1="14.631" y1="44.115" x2="9.912" y2="39.88"/>
  </g>
  <g>
   <line stroke="#FFFFFF" stroke-width="1" x1="26.405" y1="31.618" x2="10.858" y2="17.359"/>
   <line stroke-width="0.106" x1="26.405" y1="31.618" x2="10.858" y2="17.359"/>
  </g>
  <g>
   <line stroke="#FFFFFF" stroke-width="1" x1="26.282" y1="14.804" x2="26.282" y2="10.894"/>
   <line stroke-width="0.106" x1="26.282" y1="14.804" x2="26.282" y2="10.894"/>
  </g>
  <g>
   <line stroke="#FFFFFF" stroke-width="1" x1="44.732" y1="14.993" x2="44.732" y2="10.925"/>
   <line stroke-width="0.106" x1="44.732" y1="14.993" x2="44.732" y2="10.925"/>
  </g>
  <g>
   <line stroke="#FFFFFF" stroke-width="1" x1="75.676" y1="14.804" x2="75.676" y2="10.632"/>
   <line stroke-width="0.106" x1="75.676" y1="14.804" x2="75.676" y2="10.632"/>
  </g>
  <g>
   <line stroke="#FFFFFF" stroke-width="1" x1="73.156" y1="35.149" x2="60.536" y2="7.706"/>
   <line stroke-width="0.106" x1="73.156" y1="35.149" x2="60.536" y2="7.706"/>
  </g>
  <g>
   <text x="99.561" y="25.881" stroke="none" fill="#000000" font-family="'Arial'" font-size="1.754">Input fan supply group 1 </text>
   <text x="99.561" y="27.998" stroke="none" fill="#000000" font-family="'Arial'" font-size="1.754">PM1 (15/24 VELV)</text>
  </g>
  <g>
   <text x="99.561" y="52.819" stroke="none" fill="#000000" font-family="'Arial'" font-size="1.754">Input fan supply group 2</text>
   <text x="99.561" y="54.935" stroke="none" fill="#000000" font-family="'Arial'" font-size="1.754">PM1 (15/24 VELV)</text>
  </g>
  <g>
   <text x="99.561" y="37.061" stroke="none" fill="#000000" font-family="'Arial'" font-size="1.754">Fan failure signal </text>
   <text x="99.561" y="39.177" stroke="none" fill="#000000" font-family="'Arial'" font-size="1.754">(supply)  SELV </text>
   <text x="99.561" y="41.295" stroke="none" fill="#000000" font-family="'Arial'" font-size="1.754">to controller box</text>
  </g>
 </g>
 <g id="text-_x0020_DO_x0020_NOT_x0020_translate">
  <text x="14.725" y="30.826" stroke="none" fill="#000000" font-family="'Arial'" font-size="2.629">J1002</text>
  <text x="14.725" y="41.348" stroke="none" fill="#000000" font-family="'Arial'" font-size="2.629">J1004</text>
  <text x="24.92" y="29.914" stroke="none" fill="#000000" font-family="'Arial'" font-size="2.629">J1006</text>
  <text x="24.92" y="49.689" stroke="none" fill="#000000" font-family="'Arial'" font-size="2.629">J1008</text>
  <text x="44.17" y="29.914" stroke="none" fill="#000000" font-family="'Arial'" font-size="2.629">J1007</text>
  <text x="44.17" y="49.689" stroke="none" fill="#000000" font-family="'Arial'" font-size="2.629">J1009</text>
  <text x="74.771" y="29.914" stroke="none" fill="#000000" font-family="'Arial'" font-size="2.629">J1005</text>
  <text x="74.771" y="49.689" stroke="none" fill="#000000" font-family="'Arial'" font-size="2.629">J1010</text>
  <text x="79.51" y="39.603" stroke="none" fill="#000000" font-family="'Arial'" font-size="2.629">J1000</text>
  <text x="86.828" y="25.094" stroke="none" fill="#000000" font-family="'Arial'" font-size="2.629">J1001</text>
  <text x="86.828" y="55.268" stroke="none" fill="#000000" font-family="'Arial'" font-size="2.629">J1003</text>
  <text x="62.914" y="37.512" stroke="none" fill="#000000" font-family="'Arial'" font-size="2.629">SW1000</text>
  <text x="30.064" y="35.261" stroke="none" fill="#000000" font-family="'Arial'" font-size="2.629">SW1001</text>
  <text x="29.934" y="44.396" stroke="none" fill="#000000" font-family="'Arial'" font-size="2.629">SW1002</text>
  <text x="73.618" y="36.094" stroke="none" fill="#000000" font-family="'Arial'" font-size="1.754">1</text>
  <text x="75.837" y="36.094" stroke="none" fill="#000000" font-family="'Arial'" font-size="1.754">2</text>
  <g>
   <text transform="matrix(0 -1 1 0 29.291 46.326)" stroke="none" fill="#000000" font-family="'Arial'" font-size="1.754">1</text>
   <text transform="matrix(0 -1 1 0 29.291 43.847)" stroke="none" fill="#000000" font-family="'Arial'" font-size="1.754">2</text>
   <text transform="matrix(0 -1 1 0 29.291 41.595)" stroke="none" fill="#000000" font-family="'Arial'" font-size="1.754">3</text>
  </g>
  <g>
   <text transform="matrix(0 -1 1 0 29.256 37.341)" stroke="none" fill="#000000" font-family="'Arial'" font-size="1.754">1</text>
   <text transform="matrix(0 -1 1 0 29.256 34.862)" stroke="none" fill="#000000" font-family="'Arial'" font-size="1.754">2</text>
   <text transform="matrix(0 -1 1 0 29.256 32.61)" stroke="none" fill="#000000" font-family="'Arial'" font-size="1.754">3</text>
  </g>
  <text transform="matrix(0 -1 1 0 25.673 44.737)" stroke="none" fill="#000000" font-family="'Arial'" font-size="1.754">ON</text>
  <text transform="matrix(0 -1 1 0 25.673 35.82)" stroke="none" fill="#000000" font-family="'Arial'" font-size="1.754">ON</text>
  <text x="73.933" y="34.052" stroke="none" fill="#000000" font-family="'Arial'" font-size="1.754">ON</text>
  <text transform="matrix(0 -1 1 0 24.952 19.236)" stroke="none" fill="#000000" font-family="'Arial'" font-size="1.754">- FAN1</text>
  <text transform="matrix(0 -1 1 0 28.55 19.236)" stroke="none" fill="#000000" font-family="'Arial'" font-size="1.754">- FAN2</text>
  <text transform="matrix(0 -1 1 0 32.009 19.236)" stroke="none" fill="#000000" font-family="'Arial'" font-size="1.754">- FAN3</text>
  <text transform="matrix(0 -1 1 0 43.679 19.824)" stroke="none" fill="#000000" font-family="'Arial'" font-size="1.754">A FAN1</text>
  <text transform="matrix(0 -1 1 0 47.277 19.824)" stroke="none" fill="#000000" font-family="'Arial'" font-size="1.754">A FAN2</text>
  <text transform="matrix(0 -1 1 0 50.737 19.824)" stroke="none" fill="#000000" font-family="'Arial'" font-size="1.754">A FAN3</text>
  <text transform="matrix(0 -1 1 0 74.718 19.678)" stroke="none" fill="#000000" font-family="'Arial'" font-size="1.754">+ FAN1</text>
  <text transform="matrix(0 -1 1 0 78.316 19.678)" stroke="none" fill="#000000" font-family="'Arial'" font-size="1.754">+ FAN2</text>
  <text transform="matrix(0 -1 1 0 81.777 19.678)" stroke="none" fill="#000000" font-family="'Arial'" font-size="1.754">+ FAN3</text>
  <text transform="matrix(0 -1 1 0 26.638 63.781)" stroke="none" fill="#000000" font-family="'Arial'" font-size="1.754">- FAN4</text>
  <text transform="matrix(0 -1 1 0 30.236 63.781)" stroke="none" fill="#000000" font-family="'Arial'" font-size="1.754">- FAN5</text>
  <text transform="matrix(0 -1 1 0 33.695 63.781)" stroke="none" fill="#000000" font-family="'Arial'" font-size="1.754">- FAN6</text>
  <text transform="matrix(0 -1 1 0 44.237 63.781)" stroke="none" fill="#000000" font-family="'Arial'" font-size="1.754">A FAN4</text>
  <text transform="matrix(0 -1 1 0 47.835 63.781)" stroke="none" fill="#000000" font-family="'Arial'" font-size="1.754">A FAN5</text>
  <text transform="matrix(0 -1 1 0 51.295 63.781)" stroke="none" fill="#000000" font-family="'Arial'" font-size="1.754">A FAN6</text>
  <text transform="matrix(0 -1 1 0 76.213 63.781)" stroke="none" fill="#000000" font-family="'Arial'" font-size="1.754">+ FAN4</text>
  <text transform="matrix(0 -1 1 0 79.811 63.781)" stroke="none" fill="#000000" font-family="'Arial'" font-size="1.754">+ FAN5</text>
  <text transform="matrix(0 -1 1 0 83.272 63.781)" stroke="none" fill="#000000" font-family="'Arial'" font-size="1.754">+ FAN6</text>
  <text x="43.722" y="39.732" stroke="none" fill="#000000" font-family="'Arial'" font-size="4.232">0P2554</text>
 </g>
 <g id="_x0020_callout_x0020_layer">
 </g>
</svg>
