<?xml version="1.0" encoding="UTF-8"?>
<!-- Generator: PTC Arbortext IsoDraw 7.4 M001 -->
<svg xmlns="http://www.w3.org/2000/svg" xmlns:xlink="http://www.w3.org/1999/xlink" width="120mm" height="97.18mm" viewBox="0 0 120 97.18" fill-rule="evenodd" clip-rule="evenodd" stroke="#000000" stroke-linecap="round" fill="none" xml:space="preserve" preserveAspectRatio="xMidYMid meet" zoomAndPan="magnify" version="1.1" contentScriptType="text/ecmascript" contentStyleType="text/css">
 <g id="_x0020_fill_x0020_layer">
 </g>
 <g id="Standard_x0020_layer">
  <g id="AUTOID_9242">
   <desc>Layer 1</desc>
   <line stroke-width="0.106" x1="76.35" y1="87.597" x2="76.35" y2="87.477"/>
   <polyline stroke-width="0.106" points="77.277 87.477 77.277 87.597 77.257 87.658"/>
   <polyline stroke-width="0.106" points="76.35 87.597 76.37 87.658 76.531 87.759"/>
   <line stroke-width="0.106" x1="77.096" y1="87.759" x2="77.257" y2="87.658"/>
   <line stroke-width="0.106" x1="32.668" y1="17.553" x2="32.649" y2="17.594"/>
   <polyline stroke-width="0.106" points="33.554 17.553 33.575 17.594 33.575 17.734"/>
   <line stroke-width="0.106" x1="32.649" y1="17.734" x2="32.649" y2="17.594"/>
   <line stroke-width="0.106" x1="33.554" y1="17.553" x2="33.253" y2="17.413"/>
   <line stroke-width="0.106" x1="32.951" y1="17.413" x2="32.668" y2="17.553"/>
   <line stroke-width="0.106" x1="76.391" y1="17.553" x2="76.35" y2="17.594"/>
   <polyline stroke-width="0.106" points="77.277 17.553 77.296 17.594 77.296 17.734"/>
   <line stroke-width="0.106" x1="76.35" y1="17.734" x2="76.35" y2="17.594"/>
   <line stroke-width="0.106" x1="77.277" y1="17.553" x2="76.974" y2="17.413"/>
   <line stroke-width="0.106" x1="76.673" y1="17.413" x2="76.391" y2="17.553"/>
   <line stroke-width="0.106" x1="33.554" y1="87.658" x2="33.575" y2="87.597"/>
   <polyline stroke-width="0.106" points="32.668 87.658 32.628 87.597 32.628 87.477"/>
   <line stroke-width="0.106" x1="33.575" y1="87.477" x2="33.575" y2="87.597"/>
   <line stroke-width="0.106" x1="32.668" y1="87.658" x2="32.829" y2="87.759"/>
   <line stroke-width="0.106" x1="33.393" y1="87.759" x2="33.554" y2="87.658"/>
   <polyline stroke-width="0.106" points="35.448 27.824 35.307 27.804 35.146 27.804"/>
   <polyline stroke-width="0.106" points="74.78 27.804 74.638 27.804 74.477 27.824"/>
   <polyline stroke-width="0.106" points="76.531 87.759 76.712 87.799 76.753 87.799 76.753 87.759 76.894 87.759 76.873 87.799 76.935 87.799 77.096 87.759"/>
   <line stroke-width="0.106" x1="76.531" y1="87.759" x2="76.531" y2="87.739"/>
   <line stroke-width="0.106" x1="76.753" y1="87.759" x2="76.753" y2="87.799"/>
   <line stroke-width="0.106" x1="76.873" y1="87.799" x2="76.873" y2="87.759"/>
   <polyline stroke-width="0.106" points="33.232 17.393 33.213 17.393 33.292 17.452 33.152 17.452 33.112 17.393 33.03 17.393 32.869 17.452 32.829 17.452 32.99 17.393 33.011 17.393"/>
   <path stroke-width="0.106" d="M33.213 17.452L33.213 17.393L33.213 17.452z"/>
   <line stroke-width="0.106" x1="32.99" y1="17.393" x2="32.99" y2="17.413"/>
   <line stroke-width="0.106" x1="33.011" y1="17.393" x2="33.011" y2="17.413"/>
   <line stroke-width="0.106" x1="33.192" y1="17.452" x2="33.192" y2="17.393"/>
   <polyline stroke-width="0.106" points="76.954 17.393 76.915 17.393 76.995 17.452 76.873 17.452 76.813 17.393 76.733 17.393 76.591 17.452 76.531 17.452 76.692 17.393 76.733 17.393"/>
   <path stroke-width="0.106" d="M76.915 17.452L76.915 17.393L76.915 17.452z"/>
   <line stroke-width="0.106" x1="76.692" y1="17.393" x2="76.692" y2="17.413"/>
   <line stroke-width="0.106" x1="76.733" y1="17.393" x2="76.733" y2="17.413"/>
   <line stroke-width="0.106" x1="76.915" y1="17.452" x2="76.915" y2="17.393"/>
   <polyline stroke-width="0.106" points="32.829 87.759 32.99 87.799 33.051 87.799 33.03 87.759 33.171 87.759 33.152 87.799 33.213 87.799 33.393 87.759"/>
   <line stroke-width="0.106" x1="32.829" y1="87.759" x2="32.829" y2="87.739"/>
   <line stroke-width="0.106" x1="33.152" y1="87.799" x2="33.152" y2="87.759"/>
   <line stroke-width="0.106" x1="33.051" y1="87.759" x2="33.051" y2="87.799"/>
   <polyline stroke-width="0.106" points="80.822 87.477 80.941 87.417 80.983 87.316 80.941 87.215 80.822 87.174 80.54 87.174"/>
   <line stroke-width="0.106" x1="73.248" y1="87.477" x2="80.822" y2="87.477"/>
   <polyline stroke-width="0.106" points="29.083 87.174 28.983 87.215 28.943 87.316 28.983 87.417 29.083 87.477 36.676 87.477"/>
   <line stroke-width="0.106" x1="29.365" y1="87.174" x2="29.083" y2="87.174"/>
   <line stroke-width="0.106" x1="36.737" y1="87.477" x2="40.421" y2="87.477"/>
   <line stroke-width="0.106" x1="41.953" y1="87.477" x2="45.014" y2="87.477"/>
   <line stroke-width="0.106" x1="46.545" y1="87.477" x2="49.606" y2="87.477"/>
   <line stroke-width="0.106" x1="51.136" y1="87.477" x2="54.198" y2="87.477"/>
   <line stroke-width="0.106" x1="55.728" y1="87.477" x2="58.789" y2="87.477"/>
   <line stroke-width="0.106" x1="60.32" y1="87.477" x2="63.381" y2="87.477"/>
   <line stroke-width="0.106" x1="64.912" y1="87.477" x2="67.972" y2="87.477"/>
   <line stroke-width="0.106" x1="69.503" y1="87.477" x2="73.168" y2="87.477"/>
   <line stroke-width="0.106" x1="36.676" y1="87.477" x2="36.737" y2="87.477"/>
   <line stroke-width="0.106" x1="73.168" y1="87.477" x2="73.248" y2="87.477"/>
   <polyline stroke-width="0.106" points="29.103 17.734 28.983 17.775 28.943 17.876 28.983 17.996 29.103 18.036 29.385 18.036"/>
   <line stroke-width="0.106" x1="36.697" y1="17.734" x2="29.103" y2="17.734"/>
   <polyline stroke-width="0.106" points="80.56 18.036 80.841 18.036 80.941 17.996 80.983 17.876 80.941 17.775 80.841 17.734 73.248 17.734"/>
   <line stroke-width="0.106" x1="73.188" y1="17.734" x2="69.503" y2="17.734"/>
   <line stroke-width="0.106" x1="67.972" y1="17.734" x2="64.912" y2="17.734"/>
   <line stroke-width="0.106" x1="63.381" y1="17.734" x2="60.32" y2="17.734"/>
   <line stroke-width="0.106" x1="58.789" y1="17.734" x2="55.728" y2="17.734"/>
   <line stroke-width="0.106" x1="54.198" y1="17.734" x2="51.136" y2="17.734"/>
   <line stroke-width="0.106" x1="49.606" y1="17.734" x2="46.545" y2="17.734"/>
   <line stroke-width="0.106" x1="45.014" y1="17.734" x2="41.972" y2="17.734"/>
   <line stroke-width="0.106" x1="40.442" y1="17.734" x2="36.756" y2="17.734"/>
   <line stroke-width="0.106" x1="73.248" y1="17.734" x2="73.188" y2="17.734"/>
   <line stroke-width="0.106" x1="36.756" y1="17.734" x2="36.697" y2="17.734"/>
   <path stroke-width="0.106" d="M35.93 52.595L35.89 52.414L35.811 52.253C35.552 51.85 34.896 51.939 34.743 52.414L34.722 52.595L34.743 52.796L34.823 52.959L34.965 53.098L35.125 53.179L35.326 53.2L35.509 53.179L35.689 53.098L35.811 52.959L35.89 52.796L35.93 52.595z"/>
   <path stroke-width="0.106" d="M35.93 77.971L35.89 77.79L35.811 77.608C35.506 77.197 34.871 77.331 34.743 77.79L34.722 77.971L34.743 78.153C34.871 78.609 35.506 78.745 35.811 78.334L35.89 78.153L35.93 77.971z"/>
   <path stroke-width="0.106" d="M35.93 84.475L35.89 84.295L35.811 84.114C35.506 83.701 34.871 83.837 34.743 84.295L34.722 84.475L34.743 84.658C34.871 85.114 35.506 85.251 35.811 84.838L35.89 84.658L35.93 84.475z"/>
   <path stroke-width="0.106" d="M35.93 27.24L35.89 27.039L35.811 26.878C35.552 26.474 34.896 26.564 34.743 27.039L34.722 27.24L34.743 27.422C34.896 27.897 35.552 27.986 35.811 27.582L35.89 27.422L35.93 27.24z"/>
   <path stroke-width="0.106" d="M35.93 20.736L35.89 20.535L35.811 20.373C35.552 19.969 34.896 20.059 34.743 20.535L34.722 20.736L34.743 20.917C34.896 21.393 35.552 21.481 35.811 21.077L35.89 20.917L35.93 20.736z"/>
   <line stroke-width="0.106" x1="35.548" y1="18.036" x2="34.24" y2="18.036"/>
   <line stroke-width="0.106" x1="34.24" y1="87.174" x2="35.548" y2="87.174"/>
   <line stroke-width="0.106" x1="33.896" y1="18.036" x2="33.896" y2="19.708"/>
   <line stroke-width="0.106" x1="33.896" y1="21.239" x2="33.896" y2="24.3"/>
   <line stroke-width="0.106" x1="33.896" y1="25.83" x2="33.896" y2="28.891"/>
   <line stroke-width="0.106" x1="33.896" y1="30.422" x2="33.896" y2="33.484"/>
   <line stroke-width="0.106" x1="33.896" y1="35.015" x2="33.896" y2="38.076"/>
   <line stroke-width="0.106" x1="33.896" y1="39.606" x2="33.896" y2="42.667"/>
   <line stroke-width="0.106" x1="33.896" y1="44.177" x2="33.896" y2="47.238"/>
   <line stroke-width="0.106" x1="33.896" y1="48.77" x2="33.896" y2="51.831"/>
   <line stroke-width="0.106" x1="33.896" y1="53.36" x2="33.896" y2="56.421"/>
   <line stroke-width="0.106" x1="33.896" y1="57.953" x2="33.896" y2="61.014"/>
   <line stroke-width="0.106" x1="33.896" y1="62.545" x2="33.896" y2="65.605"/>
   <line stroke-width="0.106" x1="33.896" y1="67.135" x2="33.896" y2="70.197"/>
   <line stroke-width="0.106" x1="33.896" y1="71.727" x2="33.896" y2="74.789"/>
   <line stroke-width="0.106" x1="33.896" y1="76.319" x2="33.896" y2="79.381"/>
   <line stroke-width="0.106" x1="33.896" y1="80.912" x2="33.896" y2="83.972"/>
   <polyline stroke-width="0.106" points="33.896 85.503 33.896 87.174 34.24 87.174"/>
   <line stroke-width="0.106" x1="33.896" y1="18.036" x2="34.24" y2="18.036"/>
   <path stroke-width="0.106" d="M75.222 52.595L75.183 52.414L75.102 52.253C74.792 51.84 74.198 51.948 74.034 52.414L74.013 52.595L74.034 52.796L74.114 52.959L74.256 53.098L74.417 53.179L74.618 53.2L74.799 53.179L74.96 53.098L75.102 52.959L75.183 52.796L75.222 52.595z"/>
   <path stroke-width="0.106" d="M75.222 27.24L75.183 27.039L75.102 26.878C74.792 26.464 74.198 26.573 74.034 27.039L74.013 27.24L74.034 27.422C74.198 27.888 74.792 27.995 75.102 27.582L75.183 27.422L75.222 27.24z"/>
   <path stroke-width="0.106" d="M75.222 20.736L75.183 20.535L75.102 20.373C74.792 19.96 74.198 20.068 74.034 20.535L74.013 20.736L74.034 20.917C74.198 21.382 74.792 21.49 75.102 21.077L75.183 20.917L75.222 20.736z"/>
   <path stroke-width="0.106" d="M75.222 77.971L75.183 77.79L75.102 77.608C74.756 77.197 74.18 77.331 74.034 77.79L74.013 77.971L74.034 78.153C74.18 78.609 74.756 78.745 75.102 78.334L75.183 78.153L75.222 77.971z"/>
   <path stroke-width="0.106" d="M75.222 84.475L75.183 84.295L75.102 84.114C74.756 83.701 74.18 83.837 74.034 84.295L74.013 84.475L74.034 84.658C74.18 85.114 74.756 85.251 75.102 84.838L75.183 84.658L75.222 84.475z"/>
   <line stroke-width="0.106" x1="74.397" y1="87.174" x2="75.706" y2="87.174"/>
   <line stroke-width="0.106" x1="75.706" y1="18.036" x2="74.397" y2="18.036"/>
   <line stroke-width="0.106" x1="76.049" y1="87.174" x2="76.049" y2="85.503"/>
   <line stroke-width="0.106" x1="76.049" y1="83.972" x2="76.049" y2="80.912"/>
   <line stroke-width="0.106" x1="76.049" y1="79.381" x2="76.049" y2="76.319"/>
   <line stroke-width="0.106" x1="76.049" y1="74.789" x2="76.049" y2="71.727"/>
   <line stroke-width="0.106" x1="76.049" y1="70.197" x2="76.049" y2="67.135"/>
   <line stroke-width="0.106" x1="76.049" y1="65.605" x2="76.049" y2="62.545"/>
   <line stroke-width="0.106" x1="76.049" y1="61.014" x2="76.049" y2="57.953"/>
   <line stroke-width="0.106" x1="76.049" y1="56.421" x2="76.049" y2="53.36"/>
   <line stroke-width="0.106" x1="76.049" y1="51.831" x2="76.049" y2="48.77"/>
   <line stroke-width="0.106" x1="76.049" y1="47.238" x2="76.049" y2="44.177"/>
   <line stroke-width="0.106" x1="76.049" y1="42.667" x2="76.049" y2="39.606"/>
   <line stroke-width="0.106" x1="76.049" y1="38.076" x2="76.049" y2="35.015"/>
   <line stroke-width="0.106" x1="76.049" y1="33.484" x2="76.049" y2="30.422"/>
   <line stroke-width="0.106" x1="76.049" y1="28.891" x2="76.049" y2="25.83"/>
   <line stroke-width="0.106" x1="76.049" y1="24.3" x2="76.049" y2="21.239"/>
   <line stroke-width="0.106" x1="76.049" y1="19.708" x2="76.049" y2="18.036"/>
   <line stroke-width="0.106" x1="76.049" y1="87.174" x2="75.706" y2="87.174"/>
   <line stroke-width="0.106" x1="75.706" y1="18.036" x2="76.049" y2="18.036"/>
   <path stroke-width="0.106" d="M78.766 84.475L78.746 84.295L78.667 84.114C78.319 83.7 77.742 83.838 77.599 84.295L77.558 84.475L77.599 84.658C77.742 85.114 78.319 85.251 78.667 84.838L78.746 84.658L78.766 84.475z"/>
   <path stroke-width="0.106" d="M78.766 20.736L78.746 20.535L78.667 20.373C78.356 19.96 77.763 20.067 77.599 20.535L77.558 20.736L77.599 20.917C77.763 21.384 78.356 21.49 78.667 21.077L78.746 20.917L78.766 20.736z"/>
   <line stroke-width="0.106" x1="80.64" y1="87.174" x2="76.391" y2="87.174"/>
   <line stroke-width="0.106" x1="76.391" y1="18.036" x2="80.64" y2="18.036"/>
   <line stroke-width="0.106" x1="76.391" y1="87.174" x2="76.049" y2="87.174"/>
   <line stroke-width="0.106" x1="76.391" y1="18.036" x2="76.049" y2="18.036"/>
   <line stroke-width="0.106" x1="80.822" y1="87.174" x2="80.983" y2="87.174"/>
   <line stroke-width="0.106" x1="80.983" y1="18.036" x2="80.983" y2="19.708"/>
   <line stroke-width="0.106" x1="80.983" y1="21.239" x2="80.983" y2="24.3"/>
   <line stroke-width="0.106" x1="80.983" y1="25.83" x2="80.983" y2="28.891"/>
   <line stroke-width="0.106" x1="80.983" y1="30.422" x2="80.983" y2="33.484"/>
   <line stroke-width="0.106" x1="80.983" y1="35.015" x2="80.983" y2="38.076"/>
   <line stroke-width="0.106" x1="80.983" y1="39.606" x2="80.983" y2="42.667"/>
   <line stroke-width="0.106" x1="80.983" y1="44.177" x2="80.983" y2="47.238"/>
   <line stroke-width="0.106" x1="80.983" y1="48.77" x2="80.983" y2="51.831"/>
   <line stroke-width="0.106" x1="80.983" y1="53.36" x2="80.983" y2="56.421"/>
   <line stroke-width="0.106" x1="80.983" y1="57.953" x2="80.983" y2="61.014"/>
   <line stroke-width="0.106" x1="80.983" y1="62.545" x2="80.983" y2="65.605"/>
   <line stroke-width="0.106" x1="80.983" y1="67.135" x2="80.983" y2="70.197"/>
   <line stroke-width="0.106" x1="80.983" y1="71.727" x2="80.983" y2="74.789"/>
   <line stroke-width="0.106" x1="80.983" y1="76.319" x2="80.983" y2="79.381"/>
   <line stroke-width="0.106" x1="80.983" y1="80.912" x2="80.983" y2="83.972"/>
   <line stroke-width="0.106" x1="80.983" y1="85.503" x2="80.983" y2="87.174"/>
   <line stroke-width="0.106" x1="80.841" y1="18.036" x2="80.983" y2="18.036"/>
   <line stroke-width="0.106" x1="73.269" y1="18.036" x2="73.269" y2="19.768"/>
   <line stroke-width="0.106" x1="73.269" y1="18.036" x2="73.531" y2="18.036"/>
   <line stroke-width="0.106" x1="73.269" y1="19.768" x2="73.269" y2="22.004"/>
   <line stroke-width="0.106" x1="73.269" y1="23.535" x2="73.269" y2="26.596"/>
   <line stroke-width="0.106" x1="73.269" y1="28.126" x2="73.269" y2="31.187"/>
   <line stroke-width="0.106" x1="73.269" y1="32.719" x2="73.269" y2="35.78"/>
   <line stroke-width="0.106" x1="73.269" y1="37.31" x2="73.269" y2="40.371"/>
   <line stroke-width="0.106" x1="73.269" y1="41.902" x2="73.269" y2="44.942"/>
   <line stroke-width="0.106" x1="73.269" y1="46.473" x2="73.269" y2="49.534"/>
   <line stroke-width="0.106" x1="73.269" y1="51.064" x2="73.269" y2="54.127"/>
   <line stroke-width="0.106" x1="73.269" y1="55.656" x2="73.269" y2="58.718"/>
   <line stroke-width="0.106" x1="73.269" y1="60.249" x2="73.269" y2="63.31"/>
   <line stroke-width="0.106" x1="73.269" y1="64.84" x2="73.269" y2="67.902"/>
   <line stroke-width="0.106" x1="73.269" y1="69.432" x2="73.269" y2="72.492"/>
   <line stroke-width="0.106" x1="73.269" y1="74.024" x2="73.269" y2="77.084"/>
   <line stroke-width="0.106" x1="73.269" y1="78.615" x2="73.269" y2="81.677"/>
   <line stroke-width="0.106" x1="73.269" y1="83.206" x2="73.269" y2="85.423"/>
   <line stroke-width="0.106" x1="73.269" y1="85.423" x2="73.269" y2="87.174"/>
   <line stroke-width="0.106" x1="73.269" y1="87.174" x2="73.611" y2="87.174"/>
   <line stroke-width="0.106" x1="73.611" y1="18.036" x2="73.531" y2="18.036"/>
   <line stroke-width="0.106" x1="74.397" y1="87.174" x2="73.611" y2="87.174"/>
   <line stroke-width="0.106" x1="73.611" y1="18.036" x2="74.397" y2="18.036"/>
   <path stroke-width="0.106" d="M32.366 20.736L32.347 20.535L32.265 20.373C31.978 19.974 31.344 20.051 31.199 20.535L31.158 20.736L31.199 20.917C31.344 21.399 31.978 21.477 32.265 21.077L32.347 20.917L32.366 20.736z"/>
   <polygon stroke-width="0.106" points="32.366 84.475 32.347 84.295 32.265 84.114 32.125 83.992 31.963 83.891 31.763 83.871 31.58 83.891 31.399 83.992 31.278 84.114 31.199 84.295 31.158 84.475 31.199 84.658 31.278 84.838 31.399 84.959 31.58 85.06 31.763 85.079 31.963 85.06 32.125 84.959 32.265 84.838 32.347 84.658 32.366 84.475"/>
   <line stroke-width="0.106" x1="29.286" y1="18.036" x2="33.534" y2="18.036"/>
   <line stroke-width="0.106" x1="29.286" y1="87.174" x2="33.896" y2="87.174"/>
   <line stroke-width="0.106" x1="33.534" y1="18.036" x2="33.896" y2="18.036"/>
   <polyline stroke-width="0.106" points="29.083 87.174 28.943 87.174 28.943 85.503"/>
   <line stroke-width="0.106" x1="28.943" y1="83.972" x2="28.943" y2="80.912"/>
   <line stroke-width="0.106" x1="28.943" y1="79.381" x2="28.943" y2="76.319"/>
   <line stroke-width="0.106" x1="28.943" y1="74.789" x2="28.943" y2="71.727"/>
   <line stroke-width="0.106" x1="28.943" y1="70.197" x2="28.943" y2="67.135"/>
   <line stroke-width="0.106" x1="28.943" y1="65.605" x2="28.943" y2="62.545"/>
   <line stroke-width="0.106" x1="28.943" y1="61.014" x2="28.943" y2="57.953"/>
   <line stroke-width="0.106" x1="28.943" y1="56.421" x2="28.943" y2="53.36"/>
   <line stroke-width="0.106" x1="28.943" y1="51.831" x2="28.943" y2="48.77"/>
   <line stroke-width="0.106" x1="28.943" y1="47.238" x2="28.943" y2="44.177"/>
   <line stroke-width="0.106" x1="28.943" y1="42.667" x2="28.943" y2="39.606"/>
   <line stroke-width="0.106" x1="28.943" y1="38.076" x2="28.943" y2="35.015"/>
   <line stroke-width="0.106" x1="28.943" y1="33.484" x2="28.943" y2="30.422"/>
   <line stroke-width="0.106" x1="28.943" y1="28.891" x2="28.943" y2="25.83"/>
   <line stroke-width="0.106" x1="28.943" y1="24.3" x2="28.943" y2="21.239"/>
   <polyline stroke-width="0.106" points="28.943 19.708 28.943 18.036 29.103 18.036"/>
   <line stroke-width="0.106" x1="36.676" y1="85.423" x2="36.676" y2="83.206"/>
   <line stroke-width="0.106" x1="36.676" y1="81.677" x2="36.676" y2="78.615"/>
   <line stroke-width="0.106" x1="36.676" y1="77.084" x2="36.676" y2="74.024"/>
   <line stroke-width="0.106" x1="36.676" y1="72.492" x2="36.676" y2="69.432"/>
   <line stroke-width="0.106" x1="36.676" y1="67.902" x2="36.676" y2="64.84"/>
   <line stroke-width="0.106" x1="36.676" y1="63.31" x2="36.676" y2="60.249"/>
   <line stroke-width="0.106" x1="36.676" y1="58.718" x2="36.676" y2="55.656"/>
   <line stroke-width="0.106" x1="36.676" y1="54.127" x2="36.676" y2="51.064"/>
   <line stroke-width="0.106" x1="36.676" y1="49.534" x2="36.676" y2="46.473"/>
   <line stroke-width="0.106" x1="36.676" y1="44.942" x2="36.676" y2="41.902"/>
   <line stroke-width="0.106" x1="36.676" y1="40.371" x2="36.676" y2="37.31"/>
   <line stroke-width="0.106" x1="36.676" y1="35.78" x2="36.676" y2="32.719"/>
   <line stroke-width="0.106" x1="36.676" y1="31.187" x2="36.676" y2="28.126"/>
   <line stroke-width="0.106" x1="36.676" y1="26.596" x2="36.676" y2="23.535"/>
   <line stroke-width="0.106" x1="36.676" y1="22.004" x2="36.676" y2="19.768"/>
   <line stroke-width="0.106" x1="36.676" y1="19.768" x2="36.676" y2="18.036"/>
   <line stroke-width="0.106" x1="36.676" y1="18.036" x2="36.414" y2="18.036"/>
   <line stroke-width="0.106" x1="36.676" y1="87.174" x2="36.676" y2="85.423"/>
   <line stroke-width="0.106" x1="36.676" y1="87.174" x2="36.314" y2="87.174"/>
   <line stroke-width="0.106" x1="36.414" y1="18.036" x2="36.314" y2="18.036"/>
   <line stroke-width="0.106" x1="36.314" y1="87.174" x2="35.548" y2="87.174"/>
   <line stroke-width="0.106" x1="35.548" y1="18.036" x2="36.314" y2="18.036"/>
   <polyline stroke-width="0.106" points="77.962 87.477 78.042 87.516 78.908 87.516 79.028 87.496 79.09 87.477"/>
   <line stroke-width="0.106" x1="77.962" y1="87.477" x2="77.962" y2="87.456"/>
   <line stroke-width="0.106" x1="29.044" y1="18.036" x2="29.044" y2="18.016"/>
   <line stroke-width="0.106" x1="29.004" y1="18.036" x2="29.004" y2="18.016"/>
   <line stroke-width="0.106" x1="28.963" y1="18.036" x2="28.983" y2="17.996"/>
   <line stroke-width="0.106" x1="29.044" y1="87.174" x2="29.044" y2="87.155"/>
   <line stroke-width="0.106" x1="29.004" y1="87.194" x2="29.004" y2="87.174"/>
   <polyline stroke-width="0.106" points="28.983 87.215 28.983 87.194 28.963 87.174"/>
   <line stroke-width="0.106" x1="80.882" y1="87.174" x2="80.882" y2="87.155"/>
   <line stroke-width="0.106" x1="80.941" y1="87.174" x2="80.921" y2="87.194"/>
   <polyline stroke-width="0.106" points="80.962 87.174 80.941 87.194 80.941 87.215"/>
   <line stroke-width="0.106" x1="80.882" y1="18.036" x2="80.882" y2="18.016"/>
   <line stroke-width="0.106" x1="80.921" y1="18.016" x2="80.941" y2="18.036"/>
   <line stroke-width="0.106" x1="80.941" y1="17.996" x2="80.962" y2="18.036"/>
   <line stroke-width="0.106" x1="76.35" y1="87.597" x2="77.277" y2="87.597"/>
   <line stroke-width="0.106" x1="76.37" y1="87.658" x2="77.257" y2="87.658"/>
   <line stroke-width="0.106" x1="32.649" y1="17.594" x2="33.575" y2="17.594"/>
   <line stroke-width="0.106" x1="33.554" y1="17.553" x2="32.668" y2="17.553"/>
   <line stroke-width="0.106" x1="76.35" y1="17.594" x2="77.296" y2="17.594"/>
   <line stroke-width="0.106" x1="77.277" y1="17.553" x2="76.391" y2="17.553"/>
   <line stroke-width="0.106" x1="32.628" y1="87.597" x2="33.575" y2="87.597"/>
   <line stroke-width="0.106" x1="32.668" y1="87.658" x2="33.554" y2="87.658"/>
   <line stroke-width="0.106" x1="35.326" y1="85.584" x2="35.326" y2="83.308"/>
   <line stroke-width="0.106" x1="35.326" y1="81.778" x2="35.326" y2="78.715"/>
   <line stroke-width="0.106" x1="35.326" y1="77.186" x2="35.326" y2="74.125"/>
   <line stroke-width="0.106" x1="35.326" y1="72.593" x2="35.326" y2="69.533"/>
   <line stroke-width="0.106" x1="35.326" y1="68.001" x2="35.326" y2="64.941"/>
   <line stroke-width="0.106" x1="35.326" y1="63.411" x2="35.326" y2="60.35"/>
   <line stroke-width="0.106" x1="35.326" y1="58.819" x2="35.326" y2="55.758"/>
   <line stroke-width="0.106" x1="35.326" y1="54.226" x2="35.326" y2="51.165"/>
   <line stroke-width="0.106" x1="35.326" y1="49.636" x2="35.326" y2="46.573"/>
   <line stroke-width="0.106" x1="35.326" y1="45.043" x2="35.326" y2="41.982"/>
   <line stroke-width="0.106" x1="35.326" y1="40.472" x2="35.326" y2="37.411"/>
   <line stroke-width="0.106" x1="35.326" y1="35.881" x2="35.326" y2="32.819"/>
   <line stroke-width="0.106" x1="35.326" y1="31.289" x2="35.326" y2="28.228"/>
   <line stroke-width="0.106" x1="35.326" y1="26.696" x2="35.326" y2="23.635"/>
   <line stroke-width="0.106" x1="35.326" y1="22.105" x2="35.326" y2="19.829"/>
  </g>
 </g>
 <g id="120mm_x0020_hidden_x0020_Schneider_x0020_layer_x0020_for_x0020_editor">
  <polygon stroke="none" points="0 88.18 0 97.18 120 97.18 120 88.18 0 88.18"/>
 </g>
 <g id="cutout_x0020_layer">
 </g>
 <g id="outline_x0020_layer">
 </g>
 <g id="zoom_x0020_layer">
 </g>
 <g id="outline_x0020_on_x0020_zoom_x0020_layer">
 </g>
 <g id="arrow_x0020_layer">
 </g>
 <g id="_x0020_cable_x0020_layer">
 </g>
 <g id="symbol_x0020_layer">
 </g>
 <g id="text_x0020_layer">
  <text x="50.226" y="92.909" stroke="none" fill="#000000" font-family="'Arial'" font-size="3.528">Front</text>
 </g>
 <g id="text-_x0020_DO_x0020_NOT_x0020_translate">
  <g>
   <polygon stroke="none" fill="#000000" points="80.98 3.7 83.099 4.073 83.099 3.326"/>
   <line stroke-width="0.106" x1="86.846" y1="3.7" x2="82.888" y2="3.7"/>
   <text x="86.641" y="5.075" stroke="none" fill="#000000" font-family="'Arial'" font-size="3.528">32 mm</text>
  </g>
  <g>
   <line stroke-width="0.106" x1="80.933" y1="1.433" x2="80.933" y2="17.745"/>
   <polygon stroke="none" fill="#000000" points="80.933 10.8 78.813 10.426 78.813 11.173"/>
   <line stroke-width="0.106" x1="75.966" y1="10.8" x2="79.025" y2="10.8"/>
   <polygon stroke="none" fill="#000000" points="74.638 10.8 76.757 11.173 76.757 10.426"/>
   <line stroke-width="0.106" x1="78.566" y1="10.8" x2="76.546" y2="10.8"/>
   <text x="88.103" y="12.635" stroke="none" fill="#000000" font-family="'Arial'" font-size="3.528">73 mm</text>
  </g>
  <line stroke-width="0.106" x1="86.563" y1="10.781" x2="81.096" y2="10.781"/>
  <g>
   <line stroke-width="0.106" x1="35.368" y1="77.947" x2="11.782" y2="77.947"/>
   <polygon stroke="none" fill="#000000" points="16.321 84.337 16.696 82.218 15.948 82.218"/>
   <line stroke-width="0.106" x1="16.321" y1="80.128" x2="16.321" y2="82.43"/>
   <polygon stroke="none" fill="#000000" points="16.321 77.989 15.948 80.108 16.696 80.108"/>
   <line stroke-width="0.106" x1="16.321" y1="82.233" x2="16.321" y2="79.897"/>
   <text transform="matrix(0 -1 1 0 15.788 97.144)" stroke="none" fill="#000000" font-family="'Arial'" font-size="3.528">75 mm</text>
  </g>
  <line stroke-width="0.106" x1="16.321" y1="97.007" x2="16.321" y2="84.337"/>
  <g>
   <line stroke-width="0.106" x1="78.17" y1="84.405" x2="92.147" y2="84.405"/>
   <polygon stroke="none" fill="#000000" points="89.795 87.385 89.421 89.506 90.168 89.506"/>
   <line stroke-width="0.106" x1="89.795" y1="92.322" x2="89.795" y2="89.293"/>
   <polygon stroke="none" fill="#000000" points="89.795 84.209 90.168 82.088 89.421 82.088"/>
   <line stroke-width="0.106" x1="89.795" y1="79.269" x2="89.795" y2="82.301"/>
   <text transform="matrix(0 -1 1 0 91.197 79.262)" stroke="none" fill="#000000" font-family="'Arial'" font-size="3.528">34 mm</text>
  </g>
  <g>
   <line stroke-width="0.106" x1="74.596" y1="20.754" x2="74.596" y2="8.852"/>
   <line stroke-width="0.106" x1="35.317" y1="20.937" x2="35.317" y2="8.768"/>
  </g>
  <g>
   <line stroke-width="0.106" x1="31.696" y1="20.908" x2="1.328" y2="20.908"/>
   <line stroke-width="0.106" x1="31.39" y1="84.344" x2="1.328" y2="84.344"/>
   <polygon stroke="none" fill="#000000" points="3.599 20.908 3.225 23.028 3.972 23.028"/>
   <line stroke-width="0.106" x1="3.599" y1="43.344" x2="3.599" y2="22.817"/>
   <polygon stroke="none" fill="#000000" points="3.599 84.344 3.972 82.224 3.225 82.224"/>
   <line stroke-width="0.106" x1="3.599" y1="61.909" x2="3.599" y2="82.436"/>
   <text transform="matrix(0 -1 1 0 4.128 58.997)" stroke="none" fill="#000000" font-family="'Arial'" font-size="3.528">735 mm</text>
  </g>
  <g>
   <line stroke-width="0.106" x1="35.094" y1="27.341" x2="14.208" y2="27.341"/>
   <line stroke-width="0.106" x1="32.765" y1="52.674" x2="14.208" y2="52.674"/>
   <text transform="matrix(0 -1 1 0 17.007 46.332)" stroke="none" fill="#000000" font-family="'Arial'" font-size="3.528">293 mm</text>
  </g>
  <g>
   <line stroke-width="0.106" x1="35.317" y1="52.674" x2="14.208" y2="52.674"/>
   <polygon stroke="none" fill="#000000" points="16.321 52.674 16.696 50.554 15.948 50.554"/>
   <line stroke-width="0.106" x1="16.321" y1="47.457" x2="16.321" y2="50.767"/>
   <text transform="matrix(0 -1 1 0 17.007 71.76)" stroke="none" fill="#000000" font-family="'Arial'" font-size="3.528">293 mm</text>
  </g>
  <polygon stroke="none" fill="#000000" points="16.321 27.246 15.948 29.367 16.696 29.367"/>
  <line stroke-width="0.106" x1="16.321" y1="32.465" x2="16.321" y2="29.155"/>
  <polygon stroke="none" fill="#000000" points="16.321 77.989 16.696 75.868 15.948 75.868"/>
  <line stroke-width="0.106" x1="16.321" y1="72.771" x2="16.321" y2="76.081"/>
  <polygon stroke="none" fill="#000000" points="16.321 52.561 15.948 54.68 16.696 54.68"/>
  <line stroke-width="0.106" x1="16.321" y1="57.779" x2="16.321" y2="54.469"/>
  <polygon stroke="none" fill="#000000" points="31.189 20.504 30.275 16.466 28.379 17.463"/>
  <path stroke-width="0.2" stroke-dasharray="1 1" d="M15.087 3.12L22.047 3.12L29.047 16.434"/>
  <line stroke-width="0.2" x1="29.047" y1="16.434" x2="29.513" y2="17.318"/>
  <text x="14.742" y="2.468" stroke="none" fill="#000000" font-family="'Arial'" font-size="3.528">ø14</text>
  <line stroke-width="0.106" x1="86.563" y1="10.779" x2="81.096" y2="10.779"/>
  <line stroke-width="0.106" x1="16.321" y1="97.007" x2="16.321" y2="84.337"/>
  <g>
   <line stroke-width="0.106" x1="78.132" y1="20.876" x2="78.132" y2="1.593"/>
   <line stroke-width="0.106" x1="31.696" y1="20.908" x2="31.696" y2="1.797"/>
   <polygon stroke="none" fill="#000000" points="78.132 3.564 76.012 3.189 76.012 3.937"/>
   <line stroke-width="0.106" x1="63.429" y1="3.564" x2="76.224" y2="3.564"/>
   <polygon stroke="none" fill="#000000" points="31.571 3.564 33.691 3.937 33.691 3.189"/>
   <line stroke-width="0.106" x1="47.381" y1="3.564" x2="33.478" y2="3.564"/>
   <text x="48.872" y="4.123" stroke="none" fill="#000000" font-family="'Arial'" font-size="3.528">535 mm</text>
  </g>
  <g>
   <polygon stroke="none" fill="#000000" points="74.596 10.836 72.477 10.462 72.477 11.211"/>
   <line stroke-width="0.106" x1="63.192" y1="10.836" x2="72.688" y2="10.836"/>
   <polygon stroke="none" fill="#000000" points="35.317 10.836 37.438 11.211 37.438 10.462"/>
   <line stroke-width="0.106" x1="46.72" y1="10.836" x2="37.225" y2="10.836"/>
   <text x="48.585" y="11.365" stroke="none" fill="#000000" font-family="'Arial'" font-size="3.528">453 mm</text>
  </g>
  <g>
   <line stroke-width="0.106" x1="81.373" y1="87.144" x2="97.365" y2="87.144"/>
   <line stroke-width="0.106" x1="81.281" y1="17.968" x2="97.365" y2="17.968"/>
   <polygon stroke="none" fill="#000000" points="95.365 87.144 95.739 85.025 94.992 85.025"/>
   <line stroke-width="0.106" x1="95.365" y1="60.731" x2="95.365" y2="85.236"/>
   <polygon stroke="none" fill="#000000" points="95.365 17.968 94.992 20.088 95.739 20.088"/>
   <line stroke-width="0.106" x1="95.365" y1="44.381" x2="95.365" y2="19.876"/>
   <text transform="matrix(0 -1 1 0 95.894 58.927)" stroke="none" fill="#000000" font-family="'Arial'" font-size="3.528">797 mm</text>
  </g>
 </g>
 <g id="callout_x0020_layer">
 </g>
</svg>
