<?xml version="1.0" encoding="UTF-8"?>
<!-- Generator: PTC Arbortext IsoDraw 7.4 M001 -->
<svg xmlns="http://www.w3.org/2000/svg" xmlns:xlink="http://www.w3.org/1999/xlink" width="85mm" height="70.584mm" viewBox="0 0 85 70.584" fill-rule="evenodd" clip-rule="evenodd" stroke="#000000" stroke-linecap="round" fill="none" xml:space="preserve" preserveAspectRatio="xMidYMid meet" zoomAndPan="magnify" version="1.1" contentScriptType="text/ecmascript" contentStyleType="text/css">
 <g id="_x0020_fill_x0020_layer">
 </g>
 <g id="Standard_x0020_layer">
  <polygon stroke-width="0.353" points="2.346 3.697 2.346 50.084 20.346 50.084 20.346 3.697 2.346 3.697"/>
  <g>
   <polygon stroke-width="0.353" points="64.108 3.697 64.108 50.084 82.108 50.084 82.108 3.697 64.108 3.697"/>
   <polygon stroke-width="0.353" points="44.713 3.697 44.713 50.084 62.713 50.084 62.713 3.697 44.713 3.697"/>
  </g>
 </g>
 <g id="120mm_x0020_hidden_x0020_Schneider_x0020_layer_x0020_for_x0020_editor">
  <polygon stroke="none" points="0 64.004 0 70.379 85 70.379 85 64.004 0 64.004"/>
 </g>
 <g id="cutout_x0020_layer">
 </g>
 <g id="outline_x0020_layer">
 </g>
 <g id="zoom_x0020_layer">
 </g>
 <g id="outline_x0020_on_x0020_zoom_x0020_layer">
 </g>
 <g id="arrow_x0020_layer">
 </g>
 <g id="_x0020_cable_x0020_layer">
  <g>
   <line stroke="#FFFFFF" stroke-width="2" x1="3.833" y1="63.299" x2="13.069" y2="63.299"/>
   <line stroke-width="0.7" x1="2.483" y1="63.299" x2="14.419" y2="63.299"/>
  </g>
  <g>
   <line stroke="#FFFFFF" stroke-width="1" x1="3.233" y1="68.368" x2="13.669" y2="68.368"/>
   <line stroke="#01889C" stroke-width="0.5" x1="2.483" y1="68.368" x2="14.419" y2="68.368"/>
  </g>
  <g>
   <line stroke="#FFFFFF" stroke-width="2" x1="59.119" y1="44.375" x2="67.668" y2="44.375"/>
   <line stroke-width="0.7" x1="57.77" y1="44.375" x2="69.019" y2="44.375"/>
  </g>
  <g>
   <path stroke="#FFFFFF" stroke-width="0.6" d="M8.615 50.509L8.615 56.892L55.957 56.892L55.957 50.517"/>
   <polyline stroke="#01889C" stroke-width="0.5" points="8.615 50.509 8.615 56.892 55.957 56.892 55.957 50.517"/>
  </g>
  <g>
   <path stroke="#FFFFFF" stroke-width="2" d="M13.59 51.649L13.59 54.218L51.658 54.218L51.658 51.767"/>
   <polyline stroke-width="0.7" points="13.59 50.298 13.59 54.218 51.658 54.218 51.658 50.417"/>
  </g>
 </g>
 <g id="symbol_x0020_layer">
  <g id="AUTOID_3752">
   <desc>battery</desc>
   <g id="AUTOID_3753">
    <desc>Layer 1</desc>
    <path stroke-width="0.13" fill="#000000" d="M71.513 43.161L71.242 43.161 71.242 42.853C71.242 42.787 71.195 42.735 71.138 42.735L70.933 42.735C70.876 42.735 70.831 42.787 70.831 42.853L70.831 43.161 70.558 43.161C70.501 43.161 70.456 43.215 70.456 43.279L70.456 43.512C70.456 43.578 70.501 43.63 70.558 43.63L70.831 43.63 70.831 43.939C70.831 44.003 70.876 44.055 70.933 44.055L71.138 44.055C71.195 44.055 71.242 44.003 71.242 43.939L71.242 43.63 71.513 43.63C71.569 43.63 71.615 43.578 71.615 43.512L71.615 43.279C71.615 43.215 71.569 43.161 71.513 43.161z"/>
    <path stroke="none" fill="#000000" d="M71.513 43.161L71.242 43.161 71.242 42.853C71.242 42.787 71.195 42.735 71.138 42.735L70.933 42.735C70.876 42.735 70.831 42.787 70.831 42.853L70.831 43.161 70.558 43.161C70.501 43.161 70.456 43.215 70.456 43.279L70.456 43.512C70.456 43.578 70.501 43.63 70.558 43.63L70.831 43.63 70.831 43.939C70.831 44.003 70.876 44.055 70.933 44.055L71.138 44.055C71.195 44.055 71.242 44.003 71.242 43.939L71.242 43.63 71.513 43.63C71.569 43.63 71.615 43.578 71.615 43.512L71.615 43.279C71.615 43.215 71.569 43.161 71.513 43.161z"/>
    <path stroke-width="0.13" fill="#000000" d="M76.444 41.402L76.174 41.402C76.087 41.085 75.855 40.86 75.578 40.86L74.903 40.86C74.626 40.86 74.394 41.085 74.308 41.402L71.909 41.402C71.822 41.085 71.59 40.86 71.314 40.86L70.638 40.86C70.362 40.86 70.131 41.085 70.043 41.402L69.772 41.402C69.424 41.402 69.14 41.771 69.14 42.225L69.14 46.796C69.14 47.25 69.424 47.618 69.772 47.618L70.756 47.618C70.885 47.618 70.992 47.497 70.992 47.35 70.992 47.201 70.885 47.082 70.756 47.082L69.772 47.082C69.695 47.082 69.611 46.96 69.611 46.796L69.611 42.225C69.611 42.061 69.695 41.939 69.772 41.939L70.474 41.939 70.477 41.676C70.48 41.512 70.564 41.398 70.638 41.398L71.314 41.398C71.388 41.398 71.472 41.512 71.474 41.676L71.478 41.939 74.739 41.939 74.742 41.676C74.745 41.512 74.828 41.398 74.903 41.398L75.578 41.398C75.653 41.398 75.736 41.512 75.739 41.676L75.742 41.939 76.444 41.939C76.521 41.939 76.605 42.061 76.605 42.225L76.605 46.796C76.605 46.96 76.521 47.082 76.444 47.082L72.268 47.082C72.138 47.082 72.033 47.201 72.033 47.35 72.033 47.497 72.138 47.618 72.268 47.618L76.444 47.618C76.793 47.618 77.078 47.25 77.078 46.796L77.078 42.225C77.078 41.771 76.793 41.402 76.444 41.402z"/>
    <path stroke="none" fill="#000000" d="M76.444 41.402L76.174 41.402C76.087 41.085 75.855 40.86 75.578 40.86L74.903 40.86C74.626 40.86 74.394 41.085 74.308 41.402L71.909 41.402C71.822 41.085 71.59 40.86 71.314 40.86L70.638 40.86C70.362 40.86 70.131 41.085 70.043 41.402L69.772 41.402C69.424 41.402 69.14 41.771 69.14 42.225L69.14 46.796C69.14 47.25 69.424 47.618 69.772 47.618L70.756 47.618C70.885 47.618 70.992 47.497 70.992 47.35 70.992 47.201 70.885 47.082 70.756 47.082L69.772 47.082C69.695 47.082 69.611 46.96 69.611 46.796L69.611 42.225C69.611 42.061 69.695 41.939 69.772 41.939L70.474 41.939 70.477 41.676C70.48 41.512 70.564 41.398 70.638 41.398L71.314 41.398C71.388 41.398 71.472 41.512 71.474 41.676L71.478 41.939 74.739 41.939 74.742 41.676C74.745 41.512 74.828 41.398 74.903 41.398L75.578 41.398C75.653 41.398 75.736 41.512 75.739 41.676L75.742 41.939 76.444 41.939C76.521 41.939 76.605 42.061 76.605 42.225L76.605 46.796C76.605 46.96 76.521 47.082 76.444 47.082L72.268 47.082C72.138 47.082 72.033 47.201 72.033 47.35 72.033 47.497 72.138 47.618 72.268 47.618L76.444 47.618C76.793 47.618 77.078 47.25 77.078 46.796L77.078 42.225C77.078 41.771 76.793 41.402 76.444 41.402z"/>
    <path stroke-width="0.13" fill="#000000" d="M75.665 43.63C75.721 43.63 75.766 43.578 75.766 43.512L75.766 43.279C75.766 43.213 75.721 43.161 75.665 43.161L74.709 43.161C74.653 43.161 74.608 43.213 74.608 43.279L74.608 43.512C74.608 43.578 74.653 43.63 74.709 43.63L75.665 43.63z"/>
   </g>
  </g>
  <g id="AUTOID_3745">
   <desc>battery</desc>
   <g id="AUTOID_3746">
    <desc>Layer 1</desc>
    <path stroke-width="0.13" fill="#000000" d="M52.118 43.161L51.845 43.161 51.845 42.853C51.845 42.787 51.799 42.735 51.743 42.735L51.536 42.735C51.481 42.735 51.435 42.787 51.435 42.853L51.435 43.161 51.162 43.161C51.106 43.161 51.06 43.215 51.06 43.279L51.06 43.512C51.06 43.578 51.106 43.63 51.162 43.63L51.435 43.63 51.435 43.939C51.435 44.003 51.481 44.055 51.536 44.055L51.743 44.055C51.799 44.055 51.845 44.003 51.845 43.939L51.845 43.63 52.118 43.63C52.173 43.63 52.219 43.578 52.219 43.512L52.219 43.279C52.219 43.215 52.173 43.161 52.118 43.161z"/>
    <path stroke="none" fill="#000000" d="M52.118 43.161L51.845 43.161 51.845 42.853C51.845 42.787 51.799 42.735 51.743 42.735L51.536 42.735C51.481 42.735 51.435 42.787 51.435 42.853L51.435 43.161 51.162 43.161C51.106 43.161 51.06 43.215 51.06 43.279L51.06 43.512C51.06 43.578 51.106 43.63 51.162 43.63L51.435 43.63 51.435 43.939C51.435 44.003 51.481 44.055 51.536 44.055L51.743 44.055C51.799 44.055 51.845 44.003 51.845 43.939L51.845 43.63 52.118 43.63C52.173 43.63 52.219 43.578 52.219 43.512L52.219 43.279C52.219 43.215 52.173 43.161 52.118 43.161z"/>
    <path stroke-width="0.13" fill="#000000" d="M57.048 41.402L56.777 41.402C56.691 41.085 56.459 40.86 56.182 40.86L55.506 40.86C55.231 40.86 54.999 41.085 54.911 41.402L52.514 41.402C52.426 41.085 52.195 40.86 51.918 40.86L51.243 40.86C50.966 40.86 50.734 41.085 50.648 41.402L50.377 41.402C50.027 41.402 49.743 41.771 49.743 42.225L49.743 46.796C49.743 47.25 50.027 47.618 50.377 47.618L51.359 47.618C51.49 47.618 51.595 47.497 51.595 47.35 51.595 47.201 51.49 47.082 51.359 47.082L50.377 47.082C50.299 47.082 50.215 46.96 50.215 46.796L50.215 42.225C50.215 42.061 50.299 41.939 50.377 41.939L51.078 41.939 51.082 41.676C51.085 41.512 51.168 41.398 51.243 41.398L51.918 41.398C51.993 41.398 52.076 41.512 52.079 41.676L52.082 41.939 55.343 41.939 55.347 41.676C55.348 41.512 55.432 41.398 55.506 41.398L56.182 41.398C56.256 41.398 56.341 41.512 56.343 41.676L56.347 41.939 57.048 41.939C57.125 41.939 57.21 42.061 57.21 42.225L57.21 46.796C57.21 46.96 57.125 47.082 57.048 47.082L52.872 47.082C52.741 47.082 52.637 47.201 52.637 47.35 52.637 47.497 52.741 47.618 52.872 47.618L57.048 47.618C57.398 47.618 57.682 47.25 57.682 46.796L57.682 42.225C57.682 41.771 57.398 41.402 57.048 41.402z"/>
    <path stroke="none" fill="#000000" d="M57.048 41.402L56.777 41.402C56.691 41.085 56.459 40.86 56.182 40.86L55.506 40.86C55.231 40.86 54.999 41.085 54.911 41.402L52.514 41.402C52.426 41.085 52.195 40.86 51.918 40.86L51.243 40.86C50.966 40.86 50.734 41.085 50.648 41.402L50.377 41.402C50.027 41.402 49.743 41.771 49.743 42.225L49.743 46.796C49.743 47.25 50.027 47.618 50.377 47.618L51.359 47.618C51.49 47.618 51.595 47.497 51.595 47.35 51.595 47.201 51.49 47.082 51.359 47.082L50.377 47.082C50.299 47.082 50.215 46.96 50.215 46.796L50.215 42.225C50.215 42.061 50.299 41.939 50.377 41.939L51.078 41.939 51.082 41.676C51.085 41.512 51.168 41.398 51.243 41.398L51.918 41.398C51.993 41.398 52.076 41.512 52.079 41.676L52.082 41.939 55.343 41.939 55.347 41.676C55.348 41.512 55.432 41.398 55.506 41.398L56.182 41.398C56.256 41.398 56.341 41.512 56.343 41.676L56.347 41.939 57.048 41.939C57.125 41.939 57.21 42.061 57.21 42.225L57.21 46.796C57.21 46.96 57.125 47.082 57.048 47.082L52.872 47.082C52.741 47.082 52.637 47.201 52.637 47.35 52.637 47.497 52.741 47.618 52.872 47.618L57.048 47.618C57.398 47.618 57.682 47.25 57.682 46.796L57.682 42.225C57.682 41.771 57.398 41.402 57.048 41.402z"/>
    <path stroke-width="0.13" fill="#000000" d="M56.268 43.63C56.326 43.63 56.371 43.578 56.371 43.512L56.371 43.279C56.371 43.213 56.326 43.161 56.268 43.161L55.314 43.161C55.258 43.161 55.212 43.213 55.212 43.279L55.212 43.512C55.212 43.578 55.258 43.63 55.314 43.63L56.268 43.63z"/>
   </g>
  </g>
 </g>
 <g id="text_x0020_layer">
  <text x="50.762" y="2.468" stroke="none" fill="#000000" font-family="'Arial'" font-size="3.528">Battery cabinets</text>
  <text x="7.419" y="2.468" stroke="none" fill="#000000" font-family="'Arial'" font-size="3.528">UPS</text>
  <text x="16.431" y="64.572" stroke="none" fill="#000000" font-family="'Arial'" font-size="3.174">Power cable</text>
  <text x="16.431" y="69.173" stroke="none" fill="#000000" font-family="'Arial'" font-size="3.174">Signal cables</text>
 </g>
 <g id="text-_x0020_DO_x0020_NOT_x0020_translate">
 </g>
 <g id="callout_x0020_layer">
 </g>
</svg>
