<?xml version="1.0" encoding="UTF-8"?>
<!-- Generator: PTC Arbortext IsoDraw 7.4 M001 -->
<svg xmlns="http://www.w3.org/2000/svg" xmlns:xlink="http://www.w3.org/1999/xlink" width="85mm" height="69.552mm" viewBox="0 0 85 69.552" fill-rule="evenodd" clip-rule="evenodd" stroke="#000000" stroke-linecap="round" fill="none" xml:space="preserve" preserveAspectRatio="xMidYMid meet" zoomAndPan="magnify" version="1.1" contentScriptType="text/ecmascript" contentStyleType="text/css">
 <g id="_x0020_fill_x0020_layer">
 </g>
 <g id="Standard_x0020_layer">
  <polygon stroke-width="0.353" points="61.481 3.734 61.481 50.121 79.481 50.121 79.481 3.734 61.481 3.734"/>
  <polygon stroke-width="0.353" points="5.468 3.734 5.468 50.121 23.468 50.121 23.468 3.734 5.468 3.734"/>
 </g>
 <g id="85mm_x0020_hidden_x0020_Schneider_x0020_layer_x0020_for_x0020_editor">
  <polygon stroke="none" points="0 62.972 0 69.347 85 69.347 85 62.972 0 62.972"/>
 </g>
 <g id="cutout_x0020_layer">
 </g>
 <g id="outline_x0020_layer">
 </g>
 <g id="zoom_x0020_layer">
 </g>
 <g id="outline_x0020_on_x0020_zoom_x0020_layer">
 </g>
 <g id="arrow_x0020_layer">
 </g>
 <g id="_x0020_cable_x0020_layer">
  <g>
   <line stroke="#FFFFFF" stroke-width="2" x1="3.833" y1="62.268" x2="13.069" y2="62.268"/>
   <line stroke-width="0.7" x1="2.483" y1="62.268" x2="14.419" y2="62.268"/>
  </g>
  <g>
   <line stroke="#FFFFFF" stroke-width="1" x1="3.233" y1="67.337" x2="13.669" y2="67.337"/>
   <line stroke="#01889C" stroke-width="0.5" x1="2.483" y1="67.337" x2="14.419" y2="67.337"/>
  </g>
  <g>
   <path stroke="#FFFFFF" stroke-width="2" d="M17.934 51.646L17.934 55.249L68.799 55.249L68.799 52.011"/>
   <polyline stroke-width="0.7" points="17.934 50.296 17.934 55.249 68.799 55.249 68.799 50.661"/>
  </g>
  <g>
   <path stroke="#FFFFFF" stroke-width="0.6" d="M73.956 50.612L73.956 58.753L10.865 58.753L10.865 50.621"/>
   <polyline stroke="#01889C" stroke-width="0.5" points="73.956 50.612 73.956 58.753 10.865 58.753 10.865 50.621"/>
  </g>
 </g>
 <g id="symbol_x0020_layer">
  <g id="AUTOID_3740">
   <desc>battery</desc>
   <g id="AUTOID_3741">
    <desc>Layer 1</desc>
    <path stroke-width="0.13" fill="#000000" d="M68.887 43.256L68.614 43.256 68.614 42.947C68.614 42.883 68.569 42.831 68.512 42.831L68.305 42.831C68.25 42.831 68.203 42.883 68.203 42.947L68.203 43.256 67.932 43.256C67.875 43.256 67.828 43.308 67.828 43.374L67.828 43.607C67.828 43.673 67.875 43.725 67.932 43.725L68.203 43.725 68.203 44.034C68.203 44.098 68.25 44.151 68.305 44.151L68.512 44.151C68.569 44.151 68.614 44.098 68.614 44.034L68.614 43.725 68.887 43.725C68.942 43.725 68.989 43.673 68.989 43.607L68.989 43.374C68.989 43.308 68.942 43.256 68.887 43.256z"/>
    <path stroke="none" fill="#000000" d="M68.887 43.256L68.614 43.256 68.614 42.947C68.614 42.883 68.569 42.831 68.512 42.831L68.305 42.831C68.25 42.831 68.203 42.883 68.203 42.947L68.203 43.256 67.932 43.256C67.875 43.256 67.828 43.308 67.828 43.374L67.828 43.607C67.828 43.673 67.875 43.725 67.932 43.725L68.203 43.725 68.203 44.034C68.203 44.098 68.25 44.151 68.305 44.151L68.512 44.151C68.569 44.151 68.614 44.098 68.614 44.034L68.614 43.725 68.887 43.725C68.942 43.725 68.989 43.673 68.989 43.607L68.989 43.374C68.989 43.308 68.942 43.256 68.887 43.256z"/>
    <path stroke-width="0.13" fill="#000000" d="M73.817 41.497L73.546 41.497C73.459 41.179 73.227 40.956 72.951 40.956L72.275 40.956C72 40.956 71.768 41.179 71.68 41.497L69.283 41.497C69.195 41.179 68.963 40.956 68.688 40.956L68.012 40.956C67.736 40.956 67.504 41.179 67.417 41.497L67.146 41.497C66.796 41.497 66.513 41.865 66.513 42.32L66.513 46.892C66.513 47.344 66.796 47.713 67.146 47.713L68.129 47.713C68.259 47.713 68.364 47.593 68.364 47.445 68.364 47.296 68.259 47.176 68.129 47.176L67.146 47.176C67.069 47.176 66.983 47.054 66.983 46.892L66.983 42.32C66.983 42.155 67.069 42.034 67.146 42.034L67.846 42.034 67.85 41.771C67.853 41.606 67.938 41.493 68.012 41.493L68.688 41.493C68.762 41.493 68.846 41.606 68.847 41.771L68.852 42.034 72.111 42.034 72.115 41.771C72.117 41.606 72.201 41.493 72.275 41.493L72.951 41.493C73.025 41.493 73.109 41.606 73.111 41.771L73.115 42.034 73.817 42.034C73.894 42.034 73.978 42.155 73.978 42.32L73.978 46.892C73.978 47.054 73.894 47.176 73.817 47.176L69.641 47.176C69.51 47.176 69.406 47.296 69.406 47.445 69.406 47.593 69.51 47.713 69.641 47.713L73.817 47.713C74.167 47.713 74.45 47.344 74.45 46.892L74.45 42.32C74.45 41.865 74.167 41.497 73.817 41.497z"/>
    <path stroke="none" fill="#000000" d="M73.817 41.497L73.546 41.497C73.459 41.179 73.227 40.956 72.951 40.956L72.275 40.956C72 40.956 71.768 41.179 71.68 41.497L69.283 41.497C69.195 41.179 68.963 40.956 68.688 40.956L68.012 40.956C67.736 40.956 67.504 41.179 67.417 41.497L67.146 41.497C66.796 41.497 66.513 41.865 66.513 42.32L66.513 46.892C66.513 47.344 66.796 47.713 67.146 47.713L68.129 47.713C68.259 47.713 68.364 47.593 68.364 47.445 68.364 47.296 68.259 47.176 68.129 47.176L67.146 47.176C67.069 47.176 66.983 47.054 66.983 46.892L66.983 42.32C66.983 42.155 67.069 42.034 67.146 42.034L67.846 42.034 67.85 41.771C67.853 41.606 67.938 41.493 68.012 41.493L68.688 41.493C68.762 41.493 68.846 41.606 68.847 41.771L68.852 42.034 72.111 42.034 72.115 41.771C72.117 41.606 72.201 41.493 72.275 41.493L72.951 41.493C73.025 41.493 73.109 41.606 73.111 41.771L73.115 42.034 73.817 42.034C73.894 42.034 73.978 42.155 73.978 42.32L73.978 46.892C73.978 47.054 73.894 47.176 73.817 47.176L69.641 47.176C69.51 47.176 69.406 47.296 69.406 47.445 69.406 47.593 69.51 47.713 69.641 47.713L73.817 47.713C74.167 47.713 74.45 47.344 74.45 46.892L74.45 42.32C74.45 41.865 74.167 41.497 73.817 41.497z"/>
    <path stroke-width="0.13" fill="#000000" d="M73.037 43.725C73.094 43.725 73.14 43.671 73.14 43.607L73.14 43.374C73.14 43.308 73.094 43.256 73.037 43.256L72.082 43.256C72.027 43.256 71.98 43.308 71.98 43.374L71.98 43.607C71.98 43.671 72.027 43.725 72.082 43.725L73.037 43.725z"/>
   </g>
  </g>
 </g>
 <g id="text_x0020_layer">
  <text x="58.716" y="2.468" stroke="none" fill="#000000" font-family="'Arial'" font-size="3.528">Battery cabinet</text>
  <text x="10.84" y="2.468" stroke="none" fill="#000000" font-family="'Arial'" font-size="3.528">UPS</text>
  <text x="16.431" y="63.542" stroke="none" fill="#000000" font-family="'Arial'" font-size="3.174">Power cable</text>
  <text x="16.431" y="68.141" stroke="none" fill="#000000" font-family="'Arial'" font-size="3.174">Signal cables</text>
 </g>
 <g id="text-_x0020_DO_x0020_NOT_x0020_translate">
 </g>
 <g id="callout_x0020_layer">
 </g>
</svg>
