<?xml version="1.0" encoding="UTF-8"?>
<!-- Generator: PTC Arbortext IsoDraw 7.4 M001 -->
<svg xmlns="http://www.w3.org/2000/svg" xmlns:xlink="http://www.w3.org/1999/xlink" width="120mm" height="84.585mm" viewBox="0 0 120 84.585" fill-rule="evenodd" clip-rule="evenodd" stroke="#000000" stroke-linecap="round" fill="none" xml:space="preserve" preserveAspectRatio="xMidYMid meet" zoomAndPan="magnify" version="1.1" contentScriptType="text/ecmascript" contentStyleType="text/css">
 <g id="Standard_x0020_layer">
  <polygon stroke-width="0.2" points="3.397 1.999 3.397 81.402 83.317 81.402 83.317 1.999 3.397 1.999"/>
  <polygon stroke-width="0.2" points="1.671 0.1 1.671 83.819 85.561 83.819 85.561 0.1 1.671 0.1"/>
  <line stroke-width="0.2" x1="3.397" y1="13.391" x2="83.317" y2="13.391"/>
  <polygon stroke-width="0.2" points="7.022 21.85 7.022 55.854 14.961 55.854 14.961 21.85 7.022 21.85"/>
  <polygon stroke-width="0.2" points="74.65 73.108 74.65 79.563 81.486 79.563 81.486 73.108 74.65 73.108"/>
  <polygon stroke-width="0.2" points="63.311 73.108 63.311 79.563 70.147 79.563 70.147 73.108 63.311 73.108"/>
  <polygon stroke-width="0.2" points="31.152 64.858 31.152 71.313 37.987 71.313 37.987 64.858 31.152 64.858"/>
  <path stroke-width="0.2" fill="#BFBFBF" d="M40.84 64.944L40.84 79.754 47.674 79.754 47.674 64.944 40.84 64.944z"/>
 </g>
 <g id="120mm_x0020_hidden_x0020_Schneider_x0020_layer_x0020_for_x0020_editor">
  <polygon stroke="none" points="0 75.585 0 84.585 120 84.585 120 75.585 0 75.585"/>
 </g>
 <g id="cutout_x0020_layer">
 </g>
 <g id="outline_x0020_layer">
 </g>
 <g id="zoom_x0020_layer">
 </g>
 <g id="arrow_x0020_layer">
 </g>
 <g id="_x0020_cable_x0020_layer">
 </g>
 <g id="symbol_x0020_layer">
 </g>
 <g id="_x0020_text_x0020_layer">
  <text x="34.139" y="8.212" stroke="none" fill="#000000" font-family="'Arial'" font-size="4.232">LCD board</text>
  <text x="28.254" y="45.67" stroke="none" fill="#000000" font-family="'Arial'" font-size="4.232">Front panel board</text>
 </g>
 <g id="text-_x0020_DO_x0020_NOT_x0020_translate">
  <text x="29.98" y="63.795" stroke="none" fill="#000000" font-family="'Arial'" font-size="4.232">J404</text>
  <text transform="matrix(0 -1 1 0 45.837 77.259)" stroke="none" fill="#000000" font-family="'Arial'" font-size="4.232">J405</text>
  <text x="62.14" y="72.253" stroke="none" fill="#000000" font-family="'Arial'" font-size="4.232">J402</text>
  <text x="73.478" y="72.081" stroke="none" fill="#000000" font-family="'Arial'" font-size="4.232">J403</text>
  <text transform="matrix(0 -1 1 0 12.545 42.569)" stroke="none" fill="#000000" font-family="'Arial'" font-size="4.232">J406</text>
 </g>
 <g id="_x0020_callout_x0020_layer">
 </g>
</svg>
