<?xml version="1.0" encoding="UTF-8"?>
<!-- Generator: PTC Arbortext IsoDraw 7.4 M001 -->
<svg xmlns="http://www.w3.org/2000/svg" xmlns:xlink="http://www.w3.org/1999/xlink" width="120.01mm" height="91.691mm" viewBox="0 0 120.01 91.691" fill-rule="evenodd" clip-rule="evenodd" stroke="#000000" stroke-linecap="round" fill="none" xml:space="preserve" preserveAspectRatio="xMidYMid meet" zoomAndPan="magnify" version="1.1" contentScriptType="text/ecmascript" contentStyleType="text/css">
 <g id="Standard_x0020_layer">
  <g>
   <polygon stroke-width="0.106" stroke-linejoin="round" stroke-miterlimit="10" points="29.062 37.073 39.68 37.073 39.68 27.085 29.062 27.085 29.062 37.073"/>
   <line stroke-width="0.106" stroke-linejoin="round" stroke-miterlimit="10" x1="39.68" y1="27.085" x2="29.062" y2="37.073"/>
   <line stroke-width="0.106" x1="30.12" y1="30.274" x2="34.256" y2="30.274"/>
   <g>
    <path stroke-width="0.106" stroke-linejoin="round" stroke-miterlimit="10" d="M30.12 28.618C30.707 29.571 31.66 29.571 32.247 28.618"/>
    <path stroke-width="0.106" stroke-linejoin="round" stroke-miterlimit="10" d="M32.247 28.618C32.835 27.687 33.787 27.687 34.375 28.618"/>
   </g>
   <g>
    <path stroke-width="0.106" stroke-linejoin="round" stroke-miterlimit="10" d="M34.508 35.597C35.095 36.548 36.048 36.548 36.636 35.597"/>
    <path stroke-width="0.106" stroke-linejoin="round" stroke-miterlimit="10" d="M36.636 35.597C37.223 34.664 38.176 34.664 38.764 35.597"/>
   </g>
  </g>
  <line stroke-width="0.106" x1="72.606" y1="32.223" x2="39.68" y2="32.223"/>
  <polyline stroke-width="0.106" points="29.062 31.937 22.85 31.937 22.85 19.437"/>
  <line stroke-width="0.106" x1="10.204" y1="19.437" x2="3.874" y2="19.437"/>
  <line stroke-width="0.106" x1="0.053" y1="29.588" x2="9.428" y2="29.588"/>
  <line stroke-width="0.106" x1="13.471" y1="29.588" x2="29.062" y2="29.588"/>
  <line stroke-width="0.106" x1="59.182" y1="32.223" x2="59.182" y2="28.593"/>
  <line stroke-width="0.106" x1="59.182" y1="22.724" x2="59.182" y2="19.286"/>
  <line stroke-width="0.106" x1="57.701" y1="22.724" x2="57.701" y2="24.492"/>
  <polyline stroke-width="0.106" points="57.701 26.85 57.701 28.593 60.609 28.593 60.609 26.908"/>
  <polyline stroke-width="0.106" points="60.609 24.46 60.609 22.724 57.701 22.724"/>
  <path stroke-width="0.106" fill="#FFFFFF" d="M10.205 19.46C10.205 19.24 10.028 19.062 9.808 19.062 9.589 19.062 9.412 19.24 9.412 19.46 9.412 19.678 9.589 19.856 9.808 19.856 10.028 19.856 10.205 19.678 10.205 19.46 10.205 19.46 10.205 19.46 10.205 19.46L10.205 19.46z"/>
  <polygon stroke-width="0.106" points="59.451 24.46 61.88 24.46 60.609 26.91 59.451 24.46"/>
  <polygon stroke-width="0.106" points="58.906 26.85 56.478 26.85 57.749 24.399 58.906 26.85"/>
  <line stroke-width="0.106" x1="56.398" y1="24.481" x2="58.901" y2="24.481"/>
  <line stroke-width="0.106" x1="56.484" y1="23.277" x2="57.075" y2="24.481"/>
  <line stroke-width="0.106" x1="59.524" y1="26.908" x2="61.942" y2="26.908"/>
  <line stroke-width="0.106" x1="61.877" y1="28.219" x2="61.286" y2="26.908"/>
  <line stroke-width="0.106" x1="0.913" y1="18.768" x2="0.913" y2="19.885"/>
  <line stroke-width="0.106" x1="1.486" y1="18" x2="1.486" y2="20.696"/>
  <line stroke-width="0.106" x1="3.358" y1="18.754" x2="3.358" y2="19.984"/>
  <line stroke-width="0.106" x1="3.358" y1="19.368" x2="1.486" y2="19.368"/>
  <line stroke-width="0.106" x1="3.915" y1="18.042" x2="3.915" y2="20.667"/>
  <line stroke-width="0.106" x1="22.85" y1="19.437" x2="13.958" y2="19.437"/>
  <line stroke-width="0.106" x1="9.634" y1="4.203" x2="0.053" y2="4.203"/>
  <line stroke-width="0.106" x1="59.189" y1="4.203" x2="13.448" y2="4.203"/>
  <line stroke-width="0.106" x1="59.189" y1="4.235" x2="59.189" y2="17.902"/>
  <g>
   <g>
    <path stroke-width="0.106" d="M13.445 3.573C13.445 2.562 12.625 1.742 11.614 1.742C10.602 1.742 9.782 2.562 9.782 3.573C9.782 3.6 9.784 3.625 9.785 3.649"/>
    <path stroke-width="0.106" d="M13.445 3.61C13.445 3.597 13.445 3.585 13.445 3.573"/>
   </g>
   <path stroke-width="0.106" fill="#FFFFFF" d="M10.205 4.203C10.205 3.984 10.028 3.807 9.808 3.807 9.589 3.807 9.412 3.984 9.412 4.203 9.412 4.423 9.589 4.601 9.808 4.601 10.028 4.601 10.205 4.423 10.205 4.203 10.205 4.203 10.205 4.203 10.205 4.203L10.205 4.203z"/>
   <path stroke-width="0.106" fill="#FFFFFF" d="M13.845 4.203C13.845 3.984 13.667 3.807 13.448 3.807 13.23 3.807 13.051 3.984 13.051 4.203 13.051 4.423 13.23 4.601 13.448 4.601 13.667 4.601 13.845 4.423 13.845 4.203 13.845 4.203 13.845 4.203 13.845 4.203L13.845 4.203z"/>
  </g>
  <g>
   <g>
    <path stroke-width="0.106" d="M13.445 18.829C13.445 17.818 12.625 16.998 11.614 16.998C10.602 16.998 9.782 17.818 9.782 18.829C9.782 18.856 9.784 18.882 9.785 18.903"/>
    <path stroke-width="0.106" d="M13.445 18.867C13.445 18.853 13.445 18.841 13.445 18.829"/>
   </g>
   <path stroke-width="0.106" fill="#FFFFFF" d="M10.205 19.46C10.205 19.24 10.028 19.062 9.808 19.062 9.589 19.062 9.412 19.24 9.412 19.46 9.412 19.678 9.589 19.856 9.808 19.856 10.028 19.856 10.205 19.678 10.205 19.46 10.205 19.46 10.205 19.46 10.205 19.46L10.205 19.46z"/>
   <path stroke-width="0.106" fill="#FFFFFF" d="M13.845 19.46C13.845 19.24 13.667 19.062 13.448 19.062 13.23 19.062 13.051 19.24 13.051 19.46 13.051 19.678 13.23 19.856 13.448 19.856 13.667 19.856 13.845 19.678 13.845 19.46 13.845 19.46 13.845 19.46 13.845 19.46L13.845 19.46z"/>
  </g>
  <g>
   <g>
    <path stroke-width="0.106" d="M13.445 28.852C13.445 27.841 12.625 27.021 11.614 27.021C10.602 27.021 9.782 27.841 9.782 28.852C9.782 28.878 9.784 28.905 9.785 28.926"/>
    <path stroke-width="0.106" d="M13.445 28.89C13.445 28.876 13.445 28.862 13.445 28.852"/>
   </g>
   <path stroke-width="0.106" fill="#FFFFFF" d="M10.205 29.481C10.205 29.263 10.028 29.085 9.808 29.085 9.589 29.085 9.412 29.263 9.412 29.481 9.412 29.701 9.589 29.879 9.808 29.879 10.028 29.879 10.205 29.701 10.205 29.481 10.205 29.481 10.205 29.481 10.205 29.481L10.205 29.481z"/>
   <path stroke-width="0.106" fill="#FFFFFF" d="M13.845 29.481C13.845 29.263 13.667 29.085 13.448 29.085 13.23 29.085 13.051 29.263 13.051 29.481 13.051 29.701 13.23 29.879 13.448 29.879 13.667 29.879 13.845 29.701 13.845 29.481 13.845 29.481 13.845 29.481 13.845 29.481L13.845 29.481z"/>
  </g>
  <line stroke-width="0.106" x1="58.588" y1="18.077" x2="59.743" y2="18.077"/>
  <line stroke-width="0.106" x1="58.588" y1="19.167" x2="59.743" y2="19.167"/>
  <g>
   <g>
    <path stroke-width="0.106" d="M76.515 31.559C76.515 30.548 75.694 29.728 74.683 29.728C73.673 29.728 72.852 30.548 72.852 31.559C72.852 31.585 72.853 31.611 72.855 31.634"/>
    <path stroke-width="0.106" d="M76.515 31.596C76.515 31.582 76.515 31.57 76.515 31.559"/>
   </g>
   <path stroke-width="0.106" fill="#FFFFFF" d="M73.275 32.189C73.275 31.969 73.097 31.792 72.879 31.792 72.659 31.792 72.481 31.969 72.481 32.189 72.481 32.408 72.659 32.585 72.879 32.585 73.097 32.585 73.275 32.408 73.275 32.189 73.275 32.189 73.275 32.189 73.275 32.189L73.275 32.189z"/>
   <path stroke-width="0.106" fill="#FFFFFF" d="M76.915 32.189C76.915 31.969 76.736 31.792 76.518 31.792 76.299 31.792 76.121 31.969 76.121 32.189 76.121 32.408 76.299 32.585 76.518 32.585 76.736 32.585 76.915 32.408 76.915 32.189 76.915 32.189 76.915 32.189 76.915 32.189L76.915 32.189z"/>
  </g>
  <line stroke-width="0.106" x1="76.968" y1="32.223" x2="85.665" y2="32.223"/>
  <g>
   <polygon stroke-width="0.106" stroke-linejoin="round" stroke-miterlimit="10" points="29.062 47.97 39.68 47.97 39.68 37.981 29.062 37.981 29.062 47.97"/>
   <line stroke-width="0.106" stroke-linejoin="round" stroke-miterlimit="10" x1="39.68" y1="37.981" x2="29.062" y2="47.97"/>
   <line stroke-width="0.106" x1="30.12" y1="41.17" x2="34.256" y2="41.17"/>
   <g>
    <path stroke-width="0.106" stroke-linejoin="round" stroke-miterlimit="10" d="M30.12 39.515C30.707 40.468 31.66 40.468 32.247 39.515"/>
    <path stroke-width="0.106" stroke-linejoin="round" stroke-miterlimit="10" d="M32.247 39.515C32.835 38.584 33.787 38.584 34.375 39.515"/>
   </g>
   <g>
    <path stroke-width="0.106" stroke-linejoin="round" stroke-miterlimit="10" d="M34.508 46.493C35.095 47.445 36.048 47.445 36.636 46.493"/>
    <path stroke-width="0.106" stroke-linejoin="round" stroke-miterlimit="10" d="M36.636 46.493C37.223 45.561 38.176 45.561 38.764 46.493"/>
   </g>
  </g>
  <polyline stroke-width="0.106" points="22.85 31.937 22.85 41.38 29.062 41.38"/>
  <polyline stroke-width="0.106" points="26.291 29.681 26.291 39.859 29.062 39.859"/>
  <g>
   <polygon stroke-width="0.106" stroke-linejoin="round" stroke-miterlimit="10" points="29.062 58.945 39.68 58.945 39.68 48.957 29.062 48.957 29.062 58.945"/>
   <line stroke-width="0.106" stroke-linejoin="round" stroke-miterlimit="10" x1="39.68" y1="48.957" x2="29.062" y2="58.945"/>
   <line stroke-width="0.106" x1="30.12" y1="52.146" x2="34.256" y2="52.146"/>
   <g>
    <path stroke-width="0.106" stroke-linejoin="round" stroke-miterlimit="10" d="M30.12 50.49C30.707 51.444 31.66 51.444 32.247 50.49"/>
    <path stroke-width="0.106" stroke-linejoin="round" stroke-miterlimit="10" d="M32.247 50.49C32.835 49.558 33.787 49.558 34.375 50.49"/>
   </g>
   <g>
    <path stroke-width="0.106" stroke-linejoin="round" stroke-miterlimit="10" d="M34.508 57.469C35.095 58.421 36.048 58.421 36.636 57.469"/>
    <path stroke-width="0.106" stroke-linejoin="round" stroke-miterlimit="10" d="M36.636 57.469C37.223 56.536 38.176 56.536 38.764 57.469"/>
   </g>
  </g>
  <g>
   <polygon stroke-width="0.106" stroke-linejoin="round" stroke-miterlimit="10" points="29.062 69.843 39.68 69.843 39.68 59.853 29.062 59.853 29.062 69.843"/>
  </g>
  <polyline stroke-width="0.106" points="26.291 39.859 26.291 51.942 29.062 51.942"/>
  <polyline stroke-width="0.106" points="26.291 51.942 26.291 62.594 29.062 62.594"/>
  <polyline stroke-width="0.106" points="22.85 41.38 22.85 50.598 29.062 50.598"/>
  <polyline stroke-width="0.106" points="22.85 50.598 22.85 64.638 29.062 64.638"/>
  <g>
   <polygon stroke-width="0.106" stroke-linejoin="round" stroke-miterlimit="10" points="29.062 69.843 39.68 69.843 39.68 59.853 29.062 59.853 29.062 69.843"/>
   <line stroke-width="0.106" stroke-linejoin="round" stroke-miterlimit="10" x1="39.68" y1="59.853" x2="29.062" y2="69.843"/>
   <line stroke-width="0.106" x1="30.12" y1="63.042" x2="34.256" y2="63.042"/>
   <g>
    <path stroke-width="0.106" stroke-linejoin="round" stroke-miterlimit="10" d="M30.12 61.389C30.707 62.341 31.66 62.341 32.247 61.389"/>
    <path stroke-width="0.106" stroke-linejoin="round" stroke-miterlimit="10" d="M32.247 61.389C32.835 60.457 33.787 60.457 34.375 61.389"/>
   </g>
   <g>
    <path stroke-width="0.106" stroke-linejoin="round" stroke-miterlimit="10" d="M34.508 68.367C35.095 69.319 36.048 69.319 36.636 68.367"/>
    <path stroke-width="0.106" stroke-linejoin="round" stroke-miterlimit="10" d="M36.636 68.367C37.223 67.435 38.176 67.435 38.764 68.367"/>
   </g>
  </g>
  <g>
   <polygon stroke-width="0.106" stroke-linejoin="round" stroke-miterlimit="10" points="29.062 80.74 39.68 80.74 39.68 70.751 29.062 70.751 29.062 80.74"/>
   <line stroke-width="0.106" stroke-linejoin="round" stroke-miterlimit="10" x1="39.68" y1="70.751" x2="29.062" y2="80.74"/>
   <line stroke-width="0.106" x1="30.12" y1="73.941" x2="34.256" y2="73.941"/>
   <g>
    <path stroke-width="0.106" stroke-linejoin="round" stroke-miterlimit="10" d="M30.12 72.286C30.707 73.237 31.66 73.237 32.247 72.286"/>
    <path stroke-width="0.106" stroke-linejoin="round" stroke-miterlimit="10" d="M32.247 72.286C32.835 71.353 33.787 71.353 34.375 72.286"/>
   </g>
   <g>
    <path stroke-width="0.106" stroke-linejoin="round" stroke-miterlimit="10" d="M34.508 79.263C35.095 80.215 36.048 80.215 36.636 79.263"/>
    <path stroke-width="0.106" stroke-linejoin="round" stroke-miterlimit="10" d="M36.636 79.263C37.223 78.331 38.176 78.331 38.764 79.263"/>
   </g>
  </g>
  <g>
   <polygon stroke-width="0.106" stroke-linejoin="round" stroke-miterlimit="10" points="29.062 91.638 39.68 91.638 39.68 81.649 29.062 81.649 29.062 91.638"/>
  </g>
  <polyline stroke-width="0.106" points="26.291 61.654 26.291 73.737 29.062 73.737"/>
  <polyline stroke-width="0.106" points="26.291 73.737 26.291 84.388 29.062 84.388"/>
  <polyline stroke-width="0.106" points="22.85 63.174 22.85 72.394 29.062 72.394"/>
  <polyline stroke-width="0.106" points="22.85 72.394 22.85 86.433 29.062 86.433"/>
  <g>
   <polygon stroke-width="0.106" stroke-linejoin="round" stroke-miterlimit="10" points="29.062 91.638 39.68 91.638 39.68 81.649 29.062 81.649 29.062 91.638"/>
   <line stroke-width="0.106" stroke-linejoin="round" stroke-miterlimit="10" x1="39.68" y1="81.649" x2="29.062" y2="91.638"/>
   <line stroke-width="0.106" x1="30.12" y1="84.837" x2="34.256" y2="84.837"/>
   <g>
    <path stroke-width="0.106" stroke-linejoin="round" stroke-miterlimit="10" d="M30.12 83.183C30.707 84.135 31.66 84.135 32.247 83.183"/>
    <path stroke-width="0.106" stroke-linejoin="round" stroke-miterlimit="10" d="M32.247 83.183C32.835 82.251 33.787 82.251 34.375 83.183"/>
   </g>
   <g>
    <path stroke-width="0.106" stroke-linejoin="round" stroke-miterlimit="10" d="M34.508 90.161C35.095 91.114 36.048 91.114 36.636 90.161"/>
    <path stroke-width="0.106" stroke-linejoin="round" stroke-miterlimit="10" d="M36.636 90.161C37.223 89.228 38.176 89.228 38.764 90.161"/>
   </g>
  </g>
 </g>
 <g id="120mm_x0020_hidden_x0020_Schneider_x0020_layer_x0020_for_x0020_editor">
  <polygon stroke="none" points="0.01 82.287 0.01 91.287 120.01 91.287 120.01 82.287 0.01 82.287"/>
 </g>
 <g id="cutout_x0020_layer">
 </g>
 <g id="outline_x0020_layer">
 </g>
 <g id="zoom_x0020_layer">
 </g>
 <g id="arrow_x0020_layer">
 </g>
 <g id="_x0020_cable_x0020_layer">
 </g>
 <g id="symbol_x0020_layer">
 </g>
 <g id="_x0020_text_x0020_layer">
 </g>
 <g id="text-_x0020_DO_x0020_NOT_x0020_translate">
  <text x="53.015" y="19.175" stroke="none" fill="#000000" font-family="'Arial'" font-size="1.774">K401</text>
  <text x="9.686" y="1.411" stroke="none" fill="#000000" font-family="'Arial'" font-size="1.774">SSIB</text>
  <text x="10.524" y="16.466" stroke="none" fill="#000000" font-family="'Arial'" font-size="1.774">BB</text>
  <text x="10.228" y="26.454" stroke="none" fill="#000000" font-family="'Arial'" font-size="1.774">UIB</text>
  <text x="72.984" y="28.978" stroke="none" fill="#000000" font-family="'Arial'" font-size="1.774">UOB</text>
 </g>
 <g id="_x0020_callout_x0020_layer">
 </g>
</svg>
