<?xml version="1.0" encoding="UTF-8"?>
<!-- Generator: PTC Arbortext IsoDraw 7.4 M001 -->
<svg xmlns="http://www.w3.org/2000/svg" xmlns:xlink="http://www.w3.org/1999/xlink" width="120mm" height="43.261mm" viewBox="0 0 120 43.261" fill-rule="evenodd" clip-rule="evenodd" stroke="#000000" stroke-linecap="round" fill="none" xml:space="preserve" preserveAspectRatio="xMidYMid meet" zoomAndPan="magnify" version="1.1" contentScriptType="text/ecmascript" contentStyleType="text/css">
 <g id="Standard_x0020_layer">
  <path stroke="none" fill="#FFFFFF" d="M6.45 26.425L27.353 26.425 27.353 10.619 6.45 10.619 6.45 26.425z"/>
  <polygon stroke-width="0.099" stroke-linejoin="round" stroke-miterlimit="10" points="6.45 26.425 27.353 26.425 27.353 10.619 6.45 10.619 6.45 26.425"/>
  <polygon stroke-width="0.099" stroke-linejoin="round" stroke-miterlimit="10" points="1.217 31.693 32.588 31.693 32.588 0.049 1.217 0.049 1.217 31.693"/>
  <path stroke="none" fill="#FFFFFF" d="M50.276 26.425L71.212 26.425 71.212 10.619 50.276 10.619 50.276 26.425z"/>
  <polygon stroke-width="0.099" stroke-linejoin="round" stroke-miterlimit="10" points="50.276 26.425 71.212 26.425 71.212 10.619 50.276 10.619 50.276 26.425"/>
  <path stroke="none" fill="#FFFFFF" d="M97.314 42.229L118.218 42.229 118.218 26.425 97.314 26.425 97.314 42.229z"/>
  <polygon stroke-width="0.099" stroke-linejoin="round" stroke-miterlimit="10" points="97.314 42.229 118.218 42.229 118.218 26.425 97.314 26.425 97.314 42.229"/>
  <line stroke="#008000" stroke-width="0.164" stroke-linejoin="round" stroke-miterlimit="10" x1="27.353" y1="18.522" x2="50.276" y2="18.522"/>
  <polyline stroke-width="0.164" stroke-linejoin="round" stroke-miterlimit="10" points="71.212 15.887 73.813 15.887 73.813 11.919 76.412 11.919"/>
  <path stroke="#008000" stroke-width="0.164" stroke-linejoin="round" stroke-miterlimit="10" stroke-dasharray="1.149 0.821" d="M50.276 18.522L55.579 18.522L55.579 22.49"/>
  <polyline stroke="#FF0000" stroke-width="0.164" stroke-linejoin="round" stroke-miterlimit="10" points="60.744 26.425 60.744 39.595 97.314 39.595"/>
  <line stroke="#FF0000" stroke-width="0.164" stroke-linejoin="round" stroke-miterlimit="10" x1="27.353" y1="13.253" x2="50.276" y2="13.253"/>
  <polyline stroke="#FF0000" stroke-width="0.164" stroke-linejoin="round" stroke-miterlimit="10" points="65.978 26.425 65.978 35.661 94.715 35.661 94.715 31.693 97.314 31.693"/>
  <path stroke="#FF0000" stroke-width="0.164" stroke-linejoin="round" stroke-miterlimit="10" stroke-dasharray="1.149 0.821" d="M65.978 26.425L65.978 23.791L71.212 23.791"/>
  <line stroke="#008000" stroke-width="0.164" stroke-linejoin="round" stroke-miterlimit="10" x1="54.279" y1="23.791" x2="56.878" y2="21.155"/>
  <line stroke="#008000" stroke-width="0.164" stroke-linejoin="round" stroke-miterlimit="10" x1="54.279" y1="21.155" x2="56.878" y2="23.791"/>
  <polyline stroke-width="0.164" stroke-linejoin="round" stroke-miterlimit="10" points="71.212 23.791 73.813 23.791 73.813 27.759 76.412 27.759"/>
  <polygon stroke-width="0.099" stroke-linejoin="round" stroke-miterlimit="10" points="97.314 34.328 118.218 34.328 118.218 26.425 97.314 26.425 97.314 34.328"/>
  <path stroke="#FF0000" stroke-width="0.164" stroke-linejoin="round" stroke-miterlimit="10" stroke-dasharray="1.149 0.821" d="M60.744 26.425L60.744 15.887L71.212 15.887"/>
  <path stroke="none" fill="#FFFFFF" d="M68.578 35.387L87.394 35.387 87.394 32.753 68.578 32.753 68.578 35.387z"/>
  <path stroke="none" fill="#FFFFFF" d="M68.578 39.356L87.394 39.356 87.394 36.722 68.578 36.722 68.578 39.356z"/>
  <path stroke="none" fill="#FFFFFF" d="M76.412 11.919C76.412 9.388 78.569 7.301 81.236 7.301 83.905 7.301 86.025 9.388 86.025 11.919 86.025 14.486 83.905 16.538 81.236 16.538 78.567 16.538 76.412 14.486 76.412 11.919z"/>
  <path stroke-width="0.033" stroke-linejoin="round" stroke-miterlimit="10" d="M76.412 11.919C76.412 9.388 78.569 7.301 81.236 7.301C83.905 7.301 86.025 9.388 86.025 11.919C86.025 14.486 83.905 16.538 81.236 16.538C78.567 16.538 76.412 14.486 76.412 11.919L76.412 11.919z"/>
  <line stroke-width="0.033" stroke-linejoin="round" stroke-miterlimit="10" x1="78.841" y1="14.246" x2="83.631" y2="14.246"/>
  <path stroke="none" fill="#FFFFFF" d="M87.941 9.08C87.941 8.43 88.864 7.918 90.028 7.918 91.158 7.918 92.114 8.43 92.114 9.08L87.941 14.794C87.941 15.409 88.864 15.923 90.028 15.923 91.156 15.923 92.114 15.409 92.114 14.794L87.941 9.08z"/>
  <path stroke-width="0.033" stroke-linejoin="round" stroke-miterlimit="10" d="M87.941 9.08C87.941 8.43 88.864 7.918 90.028 7.918C91.158 7.918 92.114 8.43 92.114 9.08L87.941 14.794C87.941 15.409 88.864 15.923 90.028 15.923C91.156 15.923 92.114 15.409 92.114 14.794L87.941 9.08L87.941 9.08z"/>
  <line stroke-width="0.033" stroke-linejoin="round" stroke-miterlimit="10" x1="90.028" y1="11.919" x2="86.266" y2="11.919"/>
  <path stroke="none" fill="#FFFFFF" d="M76.412 27.759C76.412 25.193 78.569 23.14 81.236 23.14 83.905 23.14 86.025 25.193 86.025 27.759 86.025 30.291 83.905 32.343 81.236 32.343 78.567 32.344 76.412 30.291 76.412 27.759z"/>
  <path stroke-width="0.033" stroke-linejoin="round" stroke-miterlimit="10" d="M76.412 27.759C76.412 25.193 78.569 23.14 81.236 23.14C83.905 23.14 86.025 25.193 86.025 27.759C86.025 30.291 83.905 32.343 81.236 32.343C78.567 32.344 76.412 30.291 76.412 27.759L76.412 27.759z"/>
  <line stroke-width="0.033" stroke-linejoin="round" stroke-miterlimit="10" x1="78.841" y1="30.05" x2="83.631" y2="30.05"/>
  <path stroke="none" fill="#FFFFFF" d="M87.941 24.885C87.941 24.269 88.864 23.756 90.028 23.756 91.158 23.756 92.114 24.269 92.114 24.885L87.941 30.597C87.941 31.213 88.864 31.727 90.028 31.727 91.156 31.727 92.114 31.213 92.114 30.597L87.941 24.885z"/>
  <path stroke-width="0.033" stroke-linejoin="round" stroke-miterlimit="10" d="M87.941 24.885C87.941 24.269 88.864 23.756 90.028 23.756C91.158 23.756 92.114 24.269 92.114 24.885L87.941 30.597C87.941 31.213 88.864 31.727 90.028 31.727C91.156 31.727 92.114 31.213 92.114 30.597L87.941 24.885L87.941 24.885z"/>
  <line stroke-width="0.033" stroke-linejoin="round" stroke-miterlimit="10" x1="90.028" y1="27.759" x2="86.266" y2="27.759"/>
 </g>
 <g id="120mm_x0020_hidden_x0020_Schneider_x0020_layer_x0020_for_x0020_editor">
  <polygon stroke="none" points="0 34.261 0 43.261 120 43.261 120 34.261 0 34.261"/>
 </g>
 <g id="cutout_x0020_layer">
 </g>
 <g id="outline_x0020_layer">
 </g>
 <g id="zoom_x0020_layer">
 </g>
 <g id="arrow_x0020_layer">
 </g>
 <g id="_x0020_cable_x0020_layer">
 </g>
 <g id="symbol_x0020_layer">
 </g>
 <g id="_x0020_text_x0020_layer">
  <text x="98.388" y="30.707" stroke="none" fill="#000000" font-family="'Arial'" font-size="2.423">Power module 1</text>
  <text x="98.388" y="39.218" stroke="none" fill="#000000" font-family="'Arial'" font-size="2.423">Power module 2</text>
  <text x="49.564" y="9.628" stroke="none" fill="#000000" font-family="'Arial'" font-size="2.423">Fan monitoring circuit</text>
  <text x="12.429" y="5.506" stroke="none" fill="#000000" font-family="'Arial'" font-size="2.423">Adapter</text>
  <text x="12.768" y="19.733" stroke="none" fill="#000000" font-family="'Arial'" font-size="2.423">Control</text>
  <g>
   <text x="33.387" y="20.902" stroke="none" fill="#000000" font-family="'Arial'" font-size="2.423">Fan inoperable </text>
   <text x="33.387" y="23.724" stroke="none" fill="#000000" font-family="'Arial'" font-size="2.423">indicator N1</text>
  </g>
 </g>
 <g id="text-_x0020_DO_x0020_NOT_x0020_translate">
  <text x="33.387" y="12.647" stroke="none" fill="#000000" font-family="'Arial'" font-size="2.423">SELV 24 V</text>
  <text x="71.561" y="34.862" stroke="none" fill="#000000" font-family="'Arial'" font-size="2.423">ELV 15 V/24 V</text>
  <text x="71.686" y="41.96" stroke="none" fill="#000000" font-family="'Arial'" font-size="2.423">ELV 15 V/24 V</text>
  <text x="79.695" y="6.548" stroke="none" fill="#000000" font-family="'Arial'" font-size="2.423">3x</text>
  <text x="79.695" y="22.425" stroke="none" fill="#000000" font-family="'Arial'" font-size="2.423">3x</text>
  <text x="78.95" y="13.66" stroke="none" fill="#000000" font-family="'Arial'" font-size="5.702">M</text>
  <text x="78.95" y="29.478" stroke="none" fill="#000000" font-family="'Arial'" font-size="5.702">M</text>
 </g>
 <g id="_x0020_callout_x0020_layer">
 </g>
</svg>
