<?xml version="1.0" encoding="UTF-8"?>
<!-- Generator: PTC Arbortext IsoDraw 7.4 M001 -->
<svg xmlns="http://www.w3.org/2000/svg" xmlns:xlink="http://www.w3.org/1999/xlink" width="120mm" height="84.787mm" viewBox="0 0 120 84.787" fill-rule="evenodd" clip-rule="evenodd" stroke="#000000" stroke-linecap="round" fill="none" xml:space="preserve" preserveAspectRatio="xMidYMid meet" zoomAndPan="magnify" version="1.1" contentScriptType="text/ecmascript" contentStyleType="text/css">
 <g id="Standard_x0020_layer">
  <path stroke="none" fill="#FFFFFF" d="M13.881 21.236L21.324 21.236 21.324 16.664 13.881 16.664 13.881 21.236z"/>
  <path stroke="none" fill="#FFFFFF" d="M13.653 46.636L21.756 46.636 21.756 42.064 13.653 42.064 13.653 46.636z"/>
  <path stroke="none" fill="#FFFFFF" d="M13.653 32.792L21.324 32.792 21.324 28.221 13.653 28.221 13.653 32.792z"/>
  <path stroke="none" fill="#FFFFFF" d="M13.653 6.072L22.365 6.072 22.365 1.475 13.653 1.475 13.653 6.072z"/>
  <line stroke-width="0.456" stroke-linejoin="round" stroke-miterlimit="10" x1="68.212" y1="7.19" x2="68.212" y2="34.063"/>
  <line stroke-width="0.456" stroke-linejoin="round" stroke-miterlimit="10" x1="68.212" y1="7.19" x2="78.575" y2="7.19"/>
  <line stroke-width="0.456" stroke-linejoin="round" stroke-miterlimit="10" x1="8.929" y1="7.19" x2="8.929" y2="34.063"/>
  <line stroke-width="0.456" stroke-linejoin="round" stroke-miterlimit="10" x1="8.929" y1="7.19" x2="1.893" y2="7.19"/>
  <path stroke="none" fill="#FFFFFF" d="M47.435 52.402L59.856 52.402 59.856 40.996 47.435 40.996 47.435 52.402z"/>
  <polygon stroke-width="0.105" stroke-linejoin="round" stroke-miterlimit="10" points="47.435 52.402 59.856 52.402 59.856 40.996 47.435 40.996 47.435 52.402"/>
  <line stroke-width="0.105" stroke-linejoin="round" stroke-miterlimit="10" x1="59.856" y1="40.996" x2="47.435" y2="52.402"/>
  <path stroke-width="0.105" stroke-linejoin="round" stroke-miterlimit="10" d="M53.658 49.963C54.344 48.871 55.435 48.871 56.121 49.963"/>
  <path stroke-width="0.105" stroke-linejoin="round" stroke-miterlimit="10" d="M56.121 49.963C56.834 51.03 57.926 51.03 58.612 49.963"/>
  <line stroke-width="0.105" stroke-linejoin="round" stroke-miterlimit="10" x1="48.247" y1="44.095" x2="50.737" y2="44.095"/>
  <line stroke-width="0.105" stroke-linejoin="round" stroke-miterlimit="10" x1="48.247" y1="43.588" x2="50.737" y2="43.588"/>
  <polygon stroke-width="0.105" stroke-linejoin="round" stroke-miterlimit="10" points="23.661 53.012 60.338 53.012 60.338 40.591 23.661 40.591 23.661 53.012"/>
  <path stroke="none" fill="#FFFFFF" d="M25.82 52.554L38.265 52.554 38.265 41.048 25.82 41.048 25.82 52.554z"/>
  <polygon stroke-width="0.105" stroke-linejoin="round" stroke-miterlimit="10" points="25.82 52.554 38.265 52.554 38.265 41.048 25.82 41.048 25.82 52.554"/>
  <line stroke-width="0.105" stroke-linejoin="round" stroke-miterlimit="10" x1="38.265" y1="41.048" x2="25.82" y2="52.554"/>
  <path stroke-width="0.105" stroke-linejoin="round" stroke-miterlimit="10" d="M26.937 42.469C27.623 41.378 28.74 41.378 29.426 42.469"/>
  <path stroke-width="0.105" stroke-linejoin="round" stroke-miterlimit="10" d="M29.426 42.469C30.112 43.536 31.23 43.536 31.916 42.469"/>
  <line stroke-width="0.105" stroke-linejoin="round" stroke-miterlimit="10" x1="26.937" y1="46.737" x2="29.426" y2="46.737"/>
  <line stroke-width="0.105" stroke-linejoin="round" stroke-miterlimit="10" x1="26.937" y1="46.229" x2="29.426" y2="46.229"/>
  <line stroke-width="0.105" stroke-linejoin="round" stroke-miterlimit="10" x1="34.939" y1="50.192" x2="37.427" y2="50.192"/>
  <line stroke-width="0.105" stroke-linejoin="round" stroke-miterlimit="10" x1="34.939" y1="49.683" x2="37.427" y2="49.683"/>
  <path stroke="none" fill="#FFFFFF" d="M47.435 39.371L59.856 39.371 59.856 27.966 47.435 27.966 47.435 39.371z"/>
  <polygon stroke-width="0.105" stroke-linejoin="round" stroke-miterlimit="10" points="47.435 39.371 59.856 39.371 59.856 27.966 47.435 27.966 47.435 39.371"/>
  <line stroke-width="0.105" stroke-linejoin="round" stroke-miterlimit="10" x1="59.856" y1="27.966" x2="47.435" y2="39.371"/>
  <path stroke-width="0.105" stroke-linejoin="round" stroke-miterlimit="10" d="M53.658 36.932C54.344 35.841 55.435 35.841 56.121 36.932"/>
  <path stroke-width="0.105" stroke-linejoin="round" stroke-miterlimit="10" d="M56.121 36.932C56.834 38 57.926 38 58.612 36.932"/>
  <line stroke-width="0.105" stroke-linejoin="round" stroke-miterlimit="10" x1="48.247" y1="31.065" x2="50.737" y2="31.065"/>
  <line stroke-width="0.105" stroke-linejoin="round" stroke-miterlimit="10" x1="48.247" y1="30.557" x2="50.737" y2="30.557"/>
  <polygon stroke-width="0.105" stroke-linejoin="round" stroke-miterlimit="10" points="23.661 39.929 60.338 39.929 60.338 27.51 23.661 27.51 23.661 39.929"/>
  <path stroke="none" fill="#FFFFFF" d="M25.82 39.499L38.265 39.499 38.265 28.018 25.82 28.018 25.82 39.499z"/>
  <polygon stroke-width="0.105" stroke-linejoin="round" stroke-miterlimit="10" points="25.82 39.499 38.265 39.499 38.265 28.018 25.82 28.018 25.82 39.499"/>
  <line stroke-width="0.105" stroke-linejoin="round" stroke-miterlimit="10" x1="38.265" y1="28.018" x2="25.82" y2="39.499"/>
  <path stroke-width="0.105" stroke-linejoin="round" stroke-miterlimit="10" d="M26.937 29.414C27.623 28.347 28.74 28.347 29.426 29.414"/>
  <path stroke-width="0.105" stroke-linejoin="round" stroke-miterlimit="10" d="M29.426 29.414C30.112 30.507 31.23 30.507 31.916 29.414"/>
  <line stroke-width="0.105" stroke-linejoin="round" stroke-miterlimit="10" x1="26.937" y1="33.707" x2="29.426" y2="33.707"/>
  <line stroke-width="0.105" stroke-linejoin="round" stroke-miterlimit="10" x1="26.937" y1="33.198" x2="29.426" y2="33.198"/>
  <line stroke-width="0.105" stroke-linejoin="round" stroke-miterlimit="10" x1="34.939" y1="37.161" x2="37.427" y2="37.161"/>
  <line stroke-width="0.105" stroke-linejoin="round" stroke-miterlimit="10" x1="34.939" y1="36.654" x2="37.427" y2="36.654"/>
  <line stroke-width="0.456" stroke-linejoin="round" stroke-miterlimit="10" x1="47.435" y1="34.063" x2="38.265" y2="34.063"/>
  <line stroke-width="0.456" stroke-linejoin="round" stroke-miterlimit="10" x1="38.265" y1="47.296" x2="47.435" y2="47.296"/>
  <line stroke-width="0.456" stroke-linejoin="round" stroke-miterlimit="10" x1="42.813" y1="34.063" x2="42.813" y2="47.296"/>
  <polygon stroke-width="0.105" stroke-linejoin="round" stroke-miterlimit="10" points="12.256 53.417 64.478 53.417 64.478 26.951 12.256 26.951 12.256 53.417"/>
  <line stroke-width="0.456" stroke-linejoin="round" stroke-miterlimit="10" x1="25.82" y1="34.063" x2="16.396" y2="34.063"/>
  <line stroke-width="0.456" stroke-linejoin="round" stroke-miterlimit="10" x1="25.82" y1="47.093" x2="22.62" y2="47.093"/>
  <line stroke-width="0.456" stroke-linejoin="round" stroke-miterlimit="10" x1="22.62" y1="47.093" x2="22.62" y2="34.063"/>
  <line stroke-width="0.456" stroke-linejoin="round" stroke-miterlimit="10" x1="59.856" y1="34.063" x2="68.212" y2="34.063"/>
  <line stroke-width="0.456" stroke-linejoin="round" stroke-miterlimit="10" x1="63.03" y1="34.063" x2="63.03" y2="47.296"/>
  <line stroke-width="0.456" stroke-linejoin="round" stroke-miterlimit="10" x1="59.856" y1="47.296" x2="63.03" y2="47.296"/>
  <polyline stroke-width="0.456" stroke-linejoin="round" stroke-miterlimit="10" points="16.396 32.438 13.5 34.063 8.929 34.063"/>
  <path stroke="none" fill="#FFFFFF" d="M47.435 25.503L59.856 25.503 59.856 14.099 47.435 14.099 47.435 25.503z"/>
  <polygon stroke-width="0.105" stroke-linejoin="round" stroke-miterlimit="10" points="47.435 25.503 59.856 25.503 59.856 14.099 47.435 14.099 47.435 25.503"/>
  <line stroke-width="0.105" stroke-linejoin="round" stroke-miterlimit="10" x1="59.856" y1="14.099" x2="47.435" y2="25.503"/>
  <path stroke-width="0.105" stroke-linejoin="round" stroke-miterlimit="10" d="M53.658 23.065C54.344 21.972 55.435 21.972 56.121 23.065"/>
  <path stroke-width="0.105" stroke-linejoin="round" stroke-miterlimit="10" d="M56.121 23.065C56.834 24.157 57.926 24.157 58.612 23.065"/>
  <line stroke-width="0.105" stroke-linejoin="round" stroke-miterlimit="10" x1="48.247" y1="17.222" x2="50.737" y2="17.222"/>
  <line stroke-width="0.105" stroke-linejoin="round" stroke-miterlimit="10" x1="48.247" y1="16.714" x2="50.737" y2="16.714"/>
  <polygon stroke-width="0.105" stroke-linejoin="round" stroke-miterlimit="10" points="23.661 26.138 60.338 26.138 60.338 13.692 23.661 13.692 23.661 26.138"/>
  <path stroke="none" fill="#FFFFFF" d="M25.82 25.655L38.265 25.655 38.265 14.15 25.82 14.15 25.82 25.655z"/>
  <polygon stroke-width="0.105" stroke-linejoin="round" stroke-miterlimit="10" points="25.82 25.655 38.265 25.655 38.265 14.15 25.82 14.15 25.82 25.655"/>
  <line stroke-width="0.105" stroke-linejoin="round" stroke-miterlimit="10" x1="38.265" y1="14.15" x2="25.82" y2="25.655"/>
  <path stroke-width="0.105" stroke-linejoin="round" stroke-miterlimit="10" d="M26.937 15.571C27.623 14.48 28.74 14.48 29.426 15.571"/>
  <path stroke-width="0.105" stroke-linejoin="round" stroke-miterlimit="10" d="M29.426 15.571C30.112 16.664 31.23 16.664 31.916 15.571"/>
  <line stroke-width="0.105" stroke-linejoin="round" stroke-miterlimit="10" x1="26.937" y1="19.838" x2="29.426" y2="19.838"/>
  <line stroke-width="0.105" stroke-linejoin="round" stroke-miterlimit="10" x1="26.937" y1="19.33" x2="29.426" y2="19.33"/>
  <line stroke-width="0.105" stroke-linejoin="round" stroke-miterlimit="10" x1="34.939" y1="23.318" x2="37.427" y2="23.318"/>
  <line stroke-width="0.105" stroke-linejoin="round" stroke-miterlimit="10" x1="34.939" y1="22.811" x2="37.427" y2="22.811"/>
  <path stroke="none" fill="#FFFFFF" d="M47.435 12.473L59.856 12.473 59.856 1.068 47.435 1.068 47.435 12.473z"/>
  <polygon stroke-width="0.105" stroke-linejoin="round" stroke-miterlimit="10" points="47.435 12.473 59.856 12.473 59.856 1.068 47.435 1.068 47.435 12.473"/>
  <line stroke-width="0.105" stroke-linejoin="round" stroke-miterlimit="10" x1="59.856" y1="1.068" x2="47.435" y2="12.473"/>
  <path stroke-width="0.105" stroke-linejoin="round" stroke-miterlimit="10" d="M53.658 10.035C54.344 8.942 55.435 8.942 56.121 10.035"/>
  <path stroke-width="0.105" stroke-linejoin="round" stroke-miterlimit="10" d="M56.121 10.035C56.834 11.127 57.926 11.127 58.612 10.035"/>
  <line stroke-width="0.105" stroke-linejoin="round" stroke-miterlimit="10" x1="48.247" y1="4.192" x2="50.737" y2="4.192"/>
  <line stroke-width="0.105" stroke-linejoin="round" stroke-miterlimit="10" x1="48.247" y1="3.685" x2="50.737" y2="3.685"/>
  <polygon stroke-width="0.105" stroke-linejoin="round" stroke-miterlimit="10" points="23.661 13.057 60.338 13.057 60.338 0.637 23.661 0.637 23.661 13.057"/>
  <path stroke="none" fill="#FFFFFF" d="M25.82 12.625L38.265 12.625 38.265 1.119 25.82 1.119 25.82 12.625z"/>
  <polygon stroke-width="0.105" stroke-linejoin="round" stroke-miterlimit="10" points="25.82 12.625 38.265 12.625 38.265 1.119 25.82 1.119 25.82 12.625"/>
  <line stroke-width="0.105" stroke-linejoin="round" stroke-miterlimit="10" x1="38.265" y1="1.119" x2="25.82" y2="12.625"/>
  <path stroke-width="0.105" stroke-linejoin="round" stroke-miterlimit="10" d="M26.937 2.541C27.623 1.449 28.74 1.449 29.426 2.541"/>
  <path stroke-width="0.105" stroke-linejoin="round" stroke-miterlimit="10" d="M29.426 2.541C30.112 3.633 31.23 3.633 31.916 2.541"/>
  <line stroke-width="0.105" stroke-linejoin="round" stroke-miterlimit="10" x1="26.937" y1="6.809" x2="29.426" y2="6.809"/>
  <line stroke-width="0.105" stroke-linejoin="round" stroke-miterlimit="10" x1="26.937" y1="6.301" x2="29.426" y2="6.301"/>
  <line stroke-width="0.105" stroke-linejoin="round" stroke-miterlimit="10" x1="34.939" y1="10.288" x2="37.427" y2="10.288"/>
  <line stroke-width="0.105" stroke-linejoin="round" stroke-miterlimit="10" x1="34.939" y1="9.781" x2="37.427" y2="9.781"/>
  <line stroke-width="0.456" stroke-linejoin="round" stroke-miterlimit="10" x1="47.435" y1="7.19" x2="38.265" y2="7.19"/>
  <line stroke-width="0.456" stroke-linejoin="round" stroke-miterlimit="10" x1="38.265" y1="20.422" x2="47.435" y2="20.422"/>
  <line stroke-width="0.456" stroke-linejoin="round" stroke-miterlimit="10" x1="42.813" y1="7.19" x2="42.813" y2="20.422"/>
  <polygon stroke-width="0.105" stroke-linejoin="round" stroke-miterlimit="10" points="12.256 26.545 64.478 26.545 64.478 0.053 12.256 0.053 12.256 26.545"/>
  <line stroke-width="0.456" stroke-linejoin="round" stroke-miterlimit="10" x1="25.82" y1="7.19" x2="16.396" y2="7.19"/>
  <line stroke-width="0.456" stroke-linejoin="round" stroke-miterlimit="10" x1="25.82" y1="20.219" x2="22.62" y2="20.219"/>
  <line stroke-width="0.456" stroke-linejoin="round" stroke-miterlimit="10" x1="22.62" y1="20.219" x2="22.62" y2="7.19"/>
  <line stroke-width="0.456" stroke-linejoin="round" stroke-miterlimit="10" x1="59.856" y1="7.19" x2="68.212" y2="7.19"/>
  <line stroke-width="0.456" stroke-linejoin="round" stroke-miterlimit="10" x1="63.03" y1="7.19" x2="63.03" y2="20.422"/>
  <line stroke-width="0.456" stroke-linejoin="round" stroke-miterlimit="10" x1="59.856" y1="20.422" x2="63.03" y2="20.422"/>
  <polyline stroke-width="0.456" stroke-linejoin="round" stroke-miterlimit="10" points="16.396 5.564 13.5 7.19 8.929 7.19"/>
 </g>
 <g id="120mm_x0020_hidden_x0020_Schneider_x0020_layer_x0020_for_x0020_editor">
  <polygon stroke="none" points="0 75.787 0 84.787 120 84.787 120 75.787 0 75.787"/>
 </g>
 <g id="cutout_x0020_layer">
 </g>
 <g id="outline_x0020_layer">
 </g>
 <g id="zoom_x0020_layer">
 </g>
 <g id="arrow_x0020_layer">
 </g>
 <g id="_x0020_cable_x0020_layer">
 </g>
 <g id="symbol_x0020_layer">
 </g>
 <g id="_x0020_text_x0020_layer">
  <text x="13.393" y="2.927" stroke="none" fill="#000000" font-family="'Arial'" font-size="2.131">20 kVA</text>
  <text x="13.393" y="15.958" stroke="none" fill="#000000" font-family="'Arial'" font-size="2.131">40 kVA</text>
  <text x="13.393" y="29.8" stroke="none" fill="#000000" font-family="'Arial'" font-size="2.131">60 kVA</text>
  <text x="13.393" y="42.832" stroke="none" fill="#000000" font-family="'Arial'" font-size="2.131">80 kVA</text>
  <text transform="matrix(0 -1 1 0 13.782 53.176)" stroke="none" fill="#000000" font-family="'Arial'" font-size="1.655">Power block</text>
  <text transform="matrix(0 -1 1 0 13.782 26.248)" stroke="none" fill="#000000" font-family="'Arial'" font-size="1.655">Power block</text>
  <g>
   <text x="40.204" y="2.451" stroke="none" fill="#000000" font-family="'Arial'" font-size="1.655">Power </text>
   <text x="40.066" y="4.567" stroke="none" fill="#000000" font-family="'Arial'" font-size="1.655">module</text>
  </g>
  <g>
   <text x="40.204" y="23.367" stroke="none" fill="#000000" font-family="'Arial'" font-size="1.655">Power </text>
   <text x="40.066" y="25.484" stroke="none" fill="#000000" font-family="'Arial'" font-size="1.655">module</text>
  </g>
  <g>
   <text x="40.204" y="29.446" stroke="none" fill="#000000" font-family="'Arial'" font-size="1.655">Power </text>
   <text x="40.066" y="31.562" stroke="none" fill="#000000" font-family="'Arial'" font-size="1.655">module</text>
  </g>
  <g>
   <text x="40.204" y="50.454" stroke="none" fill="#000000" font-family="'Arial'" font-size="1.655">Power </text>
   <text x="40.066" y="52.57" stroke="none" fill="#000000" font-family="'Arial'" font-size="1.655">module</text>
  </g>
 </g>
 <g id="text-_x0020_DO_x0020_NOT_x0020_translate">
 </g>
 <g id="_x0020_callout_x0020_layer">
 </g>
</svg>
