<?xml version="1.0" encoding="UTF-8"?>
<!-- Generator: PTC Arbortext IsoDraw 7.4 M001 -->
<svg xmlns="http://www.w3.org/2000/svg" xmlns:xlink="http://www.w3.org/1999/xlink" width="120.01mm" height="91.569mm" viewBox="0 0 120.01 91.569" fill-rule="evenodd" clip-rule="evenodd" stroke="#000000" stroke-linecap="round" fill="none" xml:space="preserve" preserveAspectRatio="xMidYMid meet" zoomAndPan="magnify" version="1.1" contentScriptType="text/ecmascript" contentStyleType="text/css">
 <g id="Standard_x0020_layer">
  <g>
   <polygon stroke-width="0.106" stroke-linejoin="round" stroke-miterlimit="10" points="23.541 29.931 32.137 29.931 32.137 21.844 23.541 21.844 23.541 29.931"/>
   <line stroke-width="0.106" stroke-linejoin="round" stroke-miterlimit="10" x1="32.137" y1="21.844" x2="23.541" y2="29.931"/>
   <line stroke-width="0.106" x1="24.396" y1="24.425" x2="27.745" y2="24.425"/>
   <g>
    <path stroke-width="0.106" stroke-linejoin="round" stroke-miterlimit="10" d="M24.396 23.086C24.871 23.858 25.643 23.858 26.118 23.086"/>
    <path stroke-width="0.106" stroke-linejoin="round" stroke-miterlimit="10" d="M26.118 23.086C26.594 22.332 27.365 22.332 27.841 23.086"/>
   </g>
   <g>
    <path stroke-width="0.106" stroke-linejoin="round" stroke-miterlimit="10" d="M27.949 28.736C28.425 29.507 29.196 29.507 29.672 28.736"/>
    <path stroke-width="0.106" stroke-linejoin="round" stroke-miterlimit="10" d="M29.672 28.736C30.146 27.981 30.917 27.981 31.393 28.736"/>
   </g>
  </g>
  <line stroke-width="0.106" x1="58.795" y1="26.006" x2="32.137" y2="26.006"/>
  <polyline stroke-width="0.106" points="23.541 25.774 18.51 25.774 18.51 15.653"/>
  <line stroke-width="0.106" x1="8.272" y1="15.653" x2="3.145" y2="15.653"/>
  <line stroke-width="0.106" x1="0.053" y1="23.871" x2="7.642" y2="23.871"/>
  <line stroke-width="0.106" x1="10.917" y1="23.871" x2="23.541" y2="23.871"/>
  <line stroke-width="0.106" x1="47.924" y1="26.006" x2="47.924" y2="23.065"/>
  <line stroke-width="0.106" x1="47.924" y1="18.314" x2="47.924" y2="15.531"/>
  <line stroke-width="0.106" x1="46.726" y1="18.314" x2="46.726" y2="19.745"/>
  <polyline stroke-width="0.106" points="46.726 21.653 46.726 23.065 49.081 23.065 49.081 21.701"/>
  <polyline stroke-width="0.106" points="49.081 19.719 49.081 18.314 46.726 18.314"/>
  <path stroke-width="0.106" fill="#FFFFFF" d="M8.272 15.67C8.272 15.493 8.128 15.349 7.952 15.349 7.774 15.349 7.631 15.493 7.631 15.67 7.631 15.848 7.774 15.992 7.952 15.992 8.128 15.992 8.272 15.848 8.272 15.67 8.272 15.67 8.272 15.67 8.272 15.67L8.272 15.67z"/>
  <polygon stroke-width="0.106" points="48.143 19.719 50.109 19.719 49.081 21.702 48.143 19.719"/>
  <polygon stroke-width="0.106" points="47.703 21.653 45.737 21.653 46.765 19.67 47.703 21.653"/>
  <line stroke-width="0.106" x1="45.671" y1="19.736" x2="47.698" y2="19.736"/>
  <line stroke-width="0.106" x1="45.74" y1="18.762" x2="46.219" y2="19.736"/>
  <line stroke-width="0.106" x1="48.203" y1="21.701" x2="50.159" y2="21.701"/>
  <line stroke-width="0.106" x1="50.107" y1="22.763" x2="49.628" y2="21.701"/>
  <line stroke-width="0.106" x1="0.75" y1="15.111" x2="0.75" y2="16.015"/>
  <line stroke-width="0.106" x1="1.213" y1="14.49" x2="1.213" y2="16.672"/>
  <line stroke-width="0.106" x1="2.729" y1="15.099" x2="2.729" y2="16.094"/>
  <line stroke-width="0.106" x1="2.729" y1="15.598" x2="1.213" y2="15.598"/>
  <line stroke-width="0.106" x1="3.181" y1="14.522" x2="3.181" y2="16.649"/>
  <line stroke-width="0.106" x1="18.51" y1="15.653" x2="11.311" y2="15.653"/>
  <line stroke-width="0.106" x1="7.811" y1="3.319" x2="0.053" y2="3.319"/>
  <line stroke-width="0.106" x1="47.93" y1="3.319" x2="10.897" y2="3.319"/>
  <line stroke-width="0.106" x1="47.93" y1="3.344" x2="47.93" y2="14.41"/>
  <g>
   <g>
    <path stroke-width="0.106" d="M10.896 2.809C10.896 1.991 10.231 1.326 9.413 1.326C8.595 1.326 7.931 1.991 7.931 2.809C7.931 2.831 7.932 2.851 7.932 2.87"/>
    <path stroke-width="0.106" d="M10.894 2.839C10.896 2.828 10.896 2.818 10.896 2.809"/>
   </g>
   <path stroke-width="0.106" fill="#FFFFFF" d="M8.272 3.319C8.272 3.141 8.128 2.999 7.952 2.999 7.774 2.999 7.631 3.141 7.631 3.319 7.631 3.496 7.774 3.641 7.952 3.641 8.128 3.641 8.272 3.496 8.272 3.319 8.272 3.319 8.272 3.319 8.272 3.319L8.272 3.319z"/>
   <path stroke-width="0.106" fill="#FFFFFF" d="M11.22 3.319C11.22 3.141 11.076 2.999 10.897 2.999 10.721 2.999 10.577 3.141 10.577 3.319 10.577 3.496 10.721 3.641 10.897 3.641 11.076 3.641 11.22 3.496 11.22 3.319 11.22 3.319 11.22 3.319 11.22 3.319L11.22 3.319z"/>
  </g>
  <g>
   <g>
    <path stroke-width="0.106" d="M10.896 15.16C10.896 14.342 10.231 13.678 9.413 13.678C8.595 13.678 7.931 14.342 7.931 15.16C7.931 15.182 7.932 15.202 7.932 15.221"/>
    <path stroke-width="0.106" d="M10.894 15.191C10.896 15.179 10.896 15.169 10.896 15.16"/>
   </g>
   <path stroke-width="0.106" fill="#FFFFFF" d="M8.272 15.67C8.272 15.493 8.128 15.349 7.952 15.349 7.774 15.349 7.631 15.493 7.631 15.67 7.631 15.848 7.774 15.992 7.952 15.992 8.128 15.992 8.272 15.848 8.272 15.67 8.272 15.67 8.272 15.67 8.272 15.67L8.272 15.67z"/>
   <path stroke-width="0.106" fill="#FFFFFF" d="M11.22 15.67C11.22 15.493 11.076 15.349 10.897 15.349 10.721 15.349 10.577 15.493 10.577 15.67 10.577 15.848 10.721 15.992 10.897 15.992 11.076 15.992 11.22 15.848 11.22 15.67 11.22 15.67 11.22 15.67 11.22 15.67L11.22 15.67z"/>
  </g>
  <g>
   <g>
    <path stroke-width="0.106" d="M10.896 23.274C10.896 22.457 10.231 21.792 9.413 21.792C8.595 21.792 7.931 22.457 7.931 23.274C7.931 23.297 7.932 23.318 7.932 23.335"/>
    <path stroke-width="0.106" d="M10.894 23.306C10.896 23.295 10.896 23.283 10.896 23.274"/>
   </g>
   <path stroke-width="0.106" fill="#FFFFFF" d="M8.272 23.786C8.272 23.608 8.128 23.464 7.952 23.464 7.774 23.464 7.631 23.608 7.631 23.786 7.631 23.963 7.774 24.106 7.952 24.106 8.128 24.106 8.272 23.963 8.272 23.786 8.272 23.786 8.272 23.786 8.272 23.786L8.272 23.786z"/>
   <path stroke-width="0.106" fill="#FFFFFF" d="M11.22 23.786C11.22 23.608 11.076 23.464 10.897 23.464 10.721 23.464 10.577 23.608 10.577 23.786 10.577 23.963 10.721 24.106 10.897 24.106 11.076 24.106 11.22 23.963 11.22 23.786 11.22 23.786 11.22 23.786 11.22 23.786L11.22 23.786z"/>
  </g>
  <line stroke-width="0.106" x1="47.445" y1="14.551" x2="48.38" y2="14.551"/>
  <line stroke-width="0.106" x1="47.445" y1="15.433" x2="48.38" y2="15.433"/>
  <g>
   <g>
    <path stroke-width="0.106" d="M61.959 25.466C61.959 24.647 61.295 23.984 60.476 23.984C59.658 23.984 58.993 24.647 58.993 25.466C58.993 25.487 58.994 25.509 58.994 25.527"/>
    <path stroke-width="0.106" d="M61.959 25.496C61.959 25.486 61.959 25.475 61.959 25.466"/>
   </g>
   <path stroke-width="0.106" fill="#FFFFFF" d="M59.335 25.977C59.335 25.8 59.192 25.655 59.015 25.655 58.837 25.655 58.694 25.8 58.694 25.977 58.694 26.153 58.837 26.297 59.015 26.297 59.192 26.297 59.335 26.153 59.335 25.977 59.335 25.977 59.335 25.977 59.335 25.977L59.335 25.977z"/>
   <path stroke-width="0.106" fill="#FFFFFF" d="M62.283 25.977C62.283 25.8 62.139 25.655 61.962 25.655 61.783 25.655 61.64 25.8 61.64 25.977 61.64 26.153 61.783 26.297 61.962 26.297 62.139 26.297 62.283 26.153 62.283 25.977 62.283 25.977 62.283 25.977 62.283 25.977L62.283 25.977z"/>
  </g>
  <line stroke-width="0.106" x1="62.325" y1="26.006" x2="69.367" y2="26.006"/>
  <g>
   <polygon stroke-width="0.106" stroke-linejoin="round" stroke-miterlimit="10" points="23.541 38.753 32.137 38.753 32.137 30.667 23.541 30.667 23.541 38.753"/>
   <line stroke-width="0.106" stroke-linejoin="round" stroke-miterlimit="10" x1="32.137" y1="30.667" x2="23.541" y2="38.753"/>
   <line stroke-width="0.106" x1="24.396" y1="33.249" x2="27.745" y2="33.249"/>
   <g>
    <path stroke-width="0.106" stroke-linejoin="round" stroke-miterlimit="10" d="M24.396 31.908C24.871 32.679 25.643 32.679 26.118 31.908"/>
    <path stroke-width="0.106" stroke-linejoin="round" stroke-miterlimit="10" d="M26.118 31.908C26.594 31.155 27.365 31.155 27.841 31.908"/>
   </g>
   <g>
    <path stroke-width="0.106" stroke-linejoin="round" stroke-miterlimit="10" d="M27.949 37.558C28.425 38.329 29.196 38.329 29.672 37.558"/>
    <path stroke-width="0.106" stroke-linejoin="round" stroke-miterlimit="10" d="M29.672 37.558C30.146 36.804 30.917 36.804 31.393 37.558"/>
   </g>
  </g>
  <polyline stroke-width="0.106" points="18.51 25.774 18.51 33.418 23.541 33.418"/>
  <polyline stroke-width="0.106" points="21.295 23.946 21.295 32.186 23.541 32.186"/>
  <g>
   <polygon stroke-width="0.106" stroke-linejoin="round" stroke-miterlimit="10" points="23.541 47.64 32.137 47.64 32.137 39.552 23.541 39.552 23.541 47.64"/>
   <line stroke-width="0.106" stroke-linejoin="round" stroke-miterlimit="10" x1="32.137" y1="39.552" x2="23.541" y2="47.64"/>
   <line stroke-width="0.106" x1="24.396" y1="42.134" x2="27.745" y2="42.134"/>
   <g>
    <path stroke-width="0.106" stroke-linejoin="round" stroke-miterlimit="10" d="M24.396 40.795C24.871 41.566 25.643 41.566 26.118 40.795"/>
    <path stroke-width="0.106" stroke-linejoin="round" stroke-miterlimit="10" d="M26.118 40.795C26.594 40.039 27.365 40.039 27.841 40.795"/>
   </g>
   <g>
    <path stroke-width="0.106" stroke-linejoin="round" stroke-miterlimit="10" d="M27.949 46.445C28.425 47.216 29.196 47.216 29.672 46.445"/>
    <path stroke-width="0.106" stroke-linejoin="round" stroke-miterlimit="10" d="M29.672 46.445C30.146 45.689 30.917 45.689 31.393 46.445"/>
   </g>
  </g>
  <g>
   <polygon stroke-width="0.106" stroke-linejoin="round" stroke-miterlimit="10" points="23.541 56.463 32.137 56.463 32.137 48.375 23.541 48.375 23.541 56.463"/>
  </g>
  <polyline stroke-width="0.106" points="21.295 32.186 21.295 41.969 23.541 41.969"/>
  <polyline stroke-width="0.106" points="21.295 41.969 21.295 50.594 23.541 50.594"/>
  <polyline stroke-width="0.106" points="18.51 33.418 18.51 40.881 23.541 40.881"/>
  <polyline stroke-width="0.106" points="18.51 40.881 18.51 52.249 23.541 52.249"/>
  <g>
   <polygon stroke-width="0.106" stroke-linejoin="round" stroke-miterlimit="10" points="23.541 56.463 32.137 56.463 32.137 48.375 23.541 48.375 23.541 56.463"/>
   <line stroke-width="0.106" stroke-linejoin="round" stroke-miterlimit="10" x1="32.137" y1="48.375" x2="23.541" y2="56.463"/>
   <line stroke-width="0.106" x1="24.396" y1="50.957" x2="27.745" y2="50.957"/>
   <g>
    <path stroke-width="0.106" stroke-linejoin="round" stroke-miterlimit="10" d="M24.396 49.618C24.871 50.389 25.643 50.389 26.118 49.618"/>
    <path stroke-width="0.106" stroke-linejoin="round" stroke-miterlimit="10" d="M26.118 49.618C26.594 48.862 27.365 48.862 27.841 49.618"/>
   </g>
   <g>
    <path stroke-width="0.106" stroke-linejoin="round" stroke-miterlimit="10" d="M27.949 55.268C28.425 56.039 29.196 56.039 29.672 55.268"/>
    <path stroke-width="0.106" stroke-linejoin="round" stroke-miterlimit="10" d="M29.672 55.268C30.146 54.512 30.917 54.512 31.393 55.268"/>
   </g>
  </g>
  <g>
   <polygon stroke-width="0.106" stroke-linejoin="round" stroke-miterlimit="10" points="23.541 65.286 32.137 65.286 32.137 57.198 23.541 57.198 23.541 65.286"/>
   <line stroke-width="0.106" stroke-linejoin="round" stroke-miterlimit="10" x1="32.137" y1="57.198" x2="23.541" y2="65.286"/>
   <line stroke-width="0.106" x1="24.396" y1="59.78" x2="27.745" y2="59.78"/>
   <g>
    <path stroke-width="0.106" stroke-linejoin="round" stroke-miterlimit="10" d="M24.396 58.441C24.871 59.212 25.643 59.212 26.118 58.441"/>
    <path stroke-width="0.106" stroke-linejoin="round" stroke-miterlimit="10" d="M26.118 58.441C26.594 57.686 27.365 57.686 27.841 58.441"/>
   </g>
   <g>
    <path stroke-width="0.106" stroke-linejoin="round" stroke-miterlimit="10" d="M27.949 64.09C28.425 64.861 29.196 64.861 29.672 64.09"/>
    <path stroke-width="0.106" stroke-linejoin="round" stroke-miterlimit="10" d="M29.672 64.09C30.146 63.335 30.917 63.335 31.393 64.09"/>
   </g>
  </g>
  <g>
   <polygon stroke-width="0.106" stroke-linejoin="round" stroke-miterlimit="10" points="23.541 74.108 32.137 74.108 32.137 66.021 23.541 66.021 23.541 74.108"/>
  </g>
  <polyline stroke-width="0.106" points="21.295 49.832 21.295 59.615 23.541 59.615"/>
  <polyline stroke-width="0.106" points="21.295 59.615 21.295 68.239 23.541 68.239"/>
  <polyline stroke-width="0.106" points="18.51 51.064 18.51 58.527 23.541 58.527"/>
  <polyline stroke-width="0.106" points="18.51 58.527 18.51 69.894 23.541 69.894"/>
  <g>
   <polygon stroke-width="0.106" stroke-linejoin="round" stroke-miterlimit="10" points="23.541 74.108 32.137 74.108 32.137 66.021 23.541 66.021 23.541 74.108"/>
   <line stroke-width="0.106" stroke-linejoin="round" stroke-miterlimit="10" x1="32.137" y1="66.021" x2="23.541" y2="74.108"/>
   <line stroke-width="0.106" x1="24.396" y1="68.602" x2="27.745" y2="68.602"/>
   <g>
    <path stroke-width="0.106" stroke-linejoin="round" stroke-miterlimit="10" d="M24.396 67.263C24.871 68.034 25.643 68.034 26.118 67.263"/>
    <path stroke-width="0.106" stroke-linejoin="round" stroke-miterlimit="10" d="M26.118 67.263C26.594 66.509 27.365 66.509 27.841 67.263"/>
   </g>
   <g>
    <path stroke-width="0.106" stroke-linejoin="round" stroke-miterlimit="10" d="M27.949 72.912C28.425 73.683 29.196 73.683 29.672 72.912"/>
    <path stroke-width="0.106" stroke-linejoin="round" stroke-miterlimit="10" d="M29.672 72.912C30.146 72.159 30.917 72.159 31.393 72.912"/>
   </g>
  </g>
  <g>
   <polygon stroke-width="0.106" stroke-linejoin="round" stroke-miterlimit="10" points="23.541 82.692 32.137 82.692 32.137 74.605 23.541 74.605 23.541 82.692"/>
   <line stroke-width="0.106" stroke-linejoin="round" stroke-miterlimit="10" x1="32.137" y1="74.605" x2="23.541" y2="82.692"/>
   <line stroke-width="0.106" x1="24.396" y1="77.186" x2="27.745" y2="77.186"/>
   <g>
    <path stroke-width="0.106" stroke-linejoin="round" stroke-miterlimit="10" d="M24.396 75.847C24.871 76.618 25.643 76.618 26.118 75.847"/>
    <path stroke-width="0.106" stroke-linejoin="round" stroke-miterlimit="10" d="M26.118 75.847C26.594 75.093 27.365 75.093 27.841 75.847"/>
   </g>
   <g>
    <path stroke-width="0.106" stroke-linejoin="round" stroke-miterlimit="10" d="M27.949 81.496C28.425 82.268 29.196 82.268 29.672 81.496"/>
    <path stroke-width="0.106" stroke-linejoin="round" stroke-miterlimit="10" d="M29.672 81.496C30.146 80.742 30.917 80.742 31.393 81.496"/>
   </g>
  </g>
  <g>
   <polygon stroke-width="0.106" stroke-linejoin="round" stroke-miterlimit="10" points="23.541 91.516 32.137 91.516 32.137 83.427 23.541 83.427 23.541 91.516"/>
  </g>
  <polyline stroke-width="0.106" points="21.295 67.239 21.295 77.022 23.541 77.022"/>
  <polyline stroke-width="0.106" points="21.295 77.022 21.295 85.647 23.541 85.647"/>
  <polyline stroke-width="0.106" points="18.51 68.471 18.51 75.935 23.541 75.935"/>
  <polyline stroke-width="0.106" points="18.51 75.935 18.51 87.302 23.541 87.302"/>
  <g>
   <polygon stroke-width="0.106" stroke-linejoin="round" stroke-miterlimit="10" points="23.541 91.516 32.137 91.516 32.137 83.427 23.541 83.427 23.541 91.516"/>
   <line stroke-width="0.106" stroke-linejoin="round" stroke-miterlimit="10" x1="32.137" y1="83.427" x2="23.541" y2="91.516"/>
   <line stroke-width="0.106" x1="24.396" y1="86.01" x2="27.745" y2="86.01"/>
   <g>
    <path stroke-width="0.106" stroke-linejoin="round" stroke-miterlimit="10" d="M24.396 84.671C24.871 85.441 25.643 85.441 26.118 84.671"/>
    <path stroke-width="0.106" stroke-linejoin="round" stroke-miterlimit="10" d="M26.118 84.671C26.594 83.915 27.365 83.915 27.841 84.671"/>
   </g>
   <g>
    <path stroke-width="0.106" stroke-linejoin="round" stroke-miterlimit="10" d="M27.949 90.319C28.425 91.09 29.196 91.09 29.672 90.319"/>
    <path stroke-width="0.106" stroke-linejoin="round" stroke-miterlimit="10" d="M29.672 90.319C30.146 89.566 30.917 89.566 31.393 90.319"/>
   </g>
  </g>
 </g>
 <g id="120mm_x0020_hidden_x0020_Schneider_x0020_layer_x0020_for_x0020_editor">
  <polygon stroke="none" points="0.01 82.164 0.01 91.164 120.01 91.164 120.01 82.164 0.01 82.164"/>
 </g>
 <g id="cutout_x0020_layer">
 </g>
 <g id="outline_x0020_layer">
 </g>
 <g id="zoom_x0020_layer">
 </g>
 <g id="arrow_x0020_layer">
 </g>
 <g id="_x0020_cable_x0020_layer">
 </g>
 <g id="symbol_x0020_layer">
 </g>
 <g id="_x0020_text_x0020_layer">
 </g>
 <g id="text-_x0020_DO_x0020_NOT_x0020_translate">
  <text x="42.932" y="15.439" stroke="none" fill="#000000" font-family="'Arial'" font-size="1.435">K401</text>
  <text x="7.852" y="1.058" stroke="none" fill="#000000" font-family="'Arial'" font-size="1.435">SSIB</text>
  <text x="8.531" y="13.247" stroke="none" fill="#000000" font-family="'Arial'" font-size="1.435">BB</text>
  <text x="8.291" y="21.335" stroke="none" fill="#000000" font-family="'Arial'" font-size="1.435">UIB</text>
  <text x="59.1" y="23.378" stroke="none" fill="#000000" font-family="'Arial'" font-size="1.435">UOB</text>
 </g>
 <g id="_x0020_callout_x0020_layer">
 </g>
</svg>
