<?xml version="1.0" encoding="UTF-8"?>
<!-- Generator: PTC Arbortext IsoDraw 7.4 M001 -->
<svg xmlns="http://www.w3.org/2000/svg" xmlns:xlink="http://www.w3.org/1999/xlink" id="Standard_x0020_layer" width="160.71mm" height="122.162mm" viewBox="0 0 160.71 122.162" fill-rule="evenodd" clip-rule="evenodd" stroke="#000000" stroke-linecap="round" fill="none" xml:space="preserve" preserveAspectRatio="xMidYMid meet" zoomAndPan="magnify" version="1.1" contentScriptType="text/ecmascript" contentStyleType="text/css">
 <path stroke="none" fill="#FFFFFF" d="M60.579 88.234L60.579 121.509 93.938 121.509 93.938 88.234 60.579 88.234z"/>
 <polygon stroke-width="0.11" stroke-linejoin="round" stroke-miterlimit="10" points="60.579 121.509 93.938 121.509 93.938 88.234 60.579 88.234 60.579 121.509"/>
 <path stroke="none" fill="#FFFFFF" d="M93.938 11.696C93.938 5.262 99.441 0.055 106.213 0.055 112.987 0.055 118.49 5.262 118.49 11.696L118.49 11.696C118.49 18.131 112.987 23.338 106.213 23.338 99.441 23.338 93.938 18.131 93.938 11.696z"/>
 <path stroke-width="0.11" stroke-linejoin="round" stroke-miterlimit="10" d="M93.938 11.696C93.938 5.262 99.441 0.055 106.213 0.055C112.987 0.055 118.49 5.262 118.49 11.696L118.49 11.696C118.49 18.131 112.987 23.338 106.213 23.338C99.441 23.338 93.938 18.131 93.938 11.696z"/>
 <line stroke-width="0.11" stroke-linejoin="round" stroke-miterlimit="10" x1="100.075" y1="17.495" x2="112.352" y2="17.495"/>
 <text x="101.64" y="14.954" stroke="none" fill="#000000" font-family="'Arial'" font-size="10.922">M</text>
 <path stroke="none" fill="#FFFFFF" d="M123.316 4.5C123.316 2.891 125.73 1.579 128.651 1.579 131.572 1.579 133.943 2.891 133.943 4.5L133.943 4.5 133.943 4.5C133.943 4.5 133.943 4.5 123.316 18.893 123.316 20.501 125.73 21.771 128.651 21.771 131.572 21.771 133.943 20.501 133.943 18.893L133.943 18.893 133.943 18.893C133.943 18.893 133.943 18.893 123.316 4.5z"/>
 <path stroke-width="0.11" stroke-linejoin="round" stroke-miterlimit="10" d="M123.316 4.5C123.316 2.891 125.73 1.579 128.651 1.579C131.572 1.579 133.943 2.891 133.943 4.5L133.943 4.5L133.943 4.5C133.943 4.5 133.943 4.5 123.316 18.893C123.316 20.501 125.73 21.771 128.651 21.771C131.572 21.771 133.943 20.501 133.943 18.893L133.943 18.893L133.943 18.893C133.943 18.893 133.943 18.893 123.316 4.5z"/>
 <line stroke-width="0.11" stroke-linejoin="round" stroke-miterlimit="10" x1="128.651" y1="11.696" x2="119.084" y2="11.696"/>
 <polygon stroke-width="0.11" stroke-linejoin="round" stroke-miterlimit="10" points="120.65 41.625 160.655 41.625 160.655 28.333 120.65 28.333 120.65 41.625"/>
 <text x="127.042" y="36.082" stroke="none" fill="#000000" font-family="'Arial'" font-size="3.876">P</text>
 <text x="129.538" y="36.082" stroke="none" fill="#000000" font-family="'Arial'" font-size="3.876">o</text>
 <text x="131.656" y="36.082" stroke="none" fill="#000000" font-family="'Arial'" font-size="3.876">w</text>
 <text x="134.45" y="36.082" stroke="none" fill="#000000" font-family="'Arial'" font-size="3.876">e</text>
 <text x="136.568" y="36.082" stroke="none" fill="#000000" font-family="'Arial'" font-size="3.876">r</text>
 <text x="138.007" y="36.082" stroke="none" fill="#000000" font-family="'Arial'" font-size="3.876"> </text>
 <text x="139.064" y="36.082" stroke="none" fill="#000000" font-family="'Arial'" font-size="3.876">m</text>
 <text x="142.24" y="36.082" stroke="none" fill="#000000" font-family="'Arial'" font-size="3.876">o</text>
 <text x="144.356" y="36.082" stroke="none" fill="#000000" font-family="'Arial'" font-size="3.876">d</text>
 <text x="146.473" y="36.082" stroke="none" fill="#000000" font-family="'Arial'" font-size="3.876">u</text>
 <text x="148.591" y="36.082" stroke="none" fill="#000000" font-family="'Arial'" font-size="3.876">l</text>
 <text x="149.312" y="36.082" stroke="none" fill="#000000" font-family="'Arial'" font-size="3.876">e</text>
 <text x="151.429" y="36.082" stroke="none" fill="#000000" font-family="'Arial'" font-size="3.876"> </text>
 <text x="152.106" y="36.082" stroke="none" fill="#000000" font-family="'Arial'" font-size="3.876">1</text>
 <polygon stroke-width="0.11" stroke-linejoin="round" stroke-miterlimit="10" points="120.65 54.96 160.655 54.96 160.655 41.625 120.65 41.625 120.65 54.96"/>
 <text x="127.042" y="49.457" stroke="none" fill="#000000" font-family="'Arial'" font-size="3.876">P</text>
 <text x="129.538" y="49.457" stroke="none" fill="#000000" font-family="'Arial'" font-size="3.876">o</text>
 <text x="131.656" y="49.457" stroke="none" fill="#000000" font-family="'Arial'" font-size="3.876">w</text>
 <text x="134.45" y="49.457" stroke="none" fill="#000000" font-family="'Arial'" font-size="3.876">e</text>
 <text x="136.568" y="49.457" stroke="none" fill="#000000" font-family="'Arial'" font-size="3.876">r</text>
 <text x="138.007" y="49.457" stroke="none" fill="#000000" font-family="'Arial'" font-size="3.876"> </text>
 <text x="139.064" y="49.457" stroke="none" fill="#000000" font-family="'Arial'" font-size="3.876">m</text>
 <text x="142.24" y="49.457" stroke="none" fill="#000000" font-family="'Arial'" font-size="3.876">o</text>
 <text x="144.356" y="49.457" stroke="none" fill="#000000" font-family="'Arial'" font-size="3.876">d</text>
 <text x="146.473" y="49.457" stroke="none" fill="#000000" font-family="'Arial'" font-size="3.876">u</text>
 <text x="148.591" y="49.457" stroke="none" fill="#000000" font-family="'Arial'" font-size="3.876">l</text>
 <text x="149.312" y="49.457" stroke="none" fill="#000000" font-family="'Arial'" font-size="3.876">e</text>
 <text x="151.429" y="49.457" stroke="none" fill="#000000" font-family="'Arial'" font-size="3.876"> </text>
 <text x="152.106" y="49.457" stroke="none" fill="#000000" font-family="'Arial'" font-size="3.876">2</text>
 <path stroke="none" fill="#FFFFFF" d="M93.938 71.597C93.938 65.164 99.441 59.914 106.213 59.914 112.987 59.914 118.49 65.164 118.49 71.597L118.49 71.597C118.49 78.033 112.987 83.239 106.213 83.239 99.441 83.239 93.938 78.033 93.938 71.597z"/>
 <path stroke-width="0.11" stroke-linejoin="round" stroke-miterlimit="10" d="M93.938 71.597C93.938 65.164 99.441 59.914 106.213 59.914C112.987 59.914 118.49 65.164 118.49 71.597L118.49 71.597C118.49 78.033 112.987 83.239 106.213 83.239C99.441 83.239 93.938 78.033 93.938 71.597z"/>
 <line stroke-width="0.11" stroke-linejoin="round" stroke-miterlimit="10" x1="100.075" y1="77.397" x2="112.352" y2="77.397"/>
 <text x="101.64" y="74.819" stroke="none" fill="#000000" font-family="'Arial'" font-size="10.922">M</text>
 <path stroke="none" fill="#FFFFFF" d="M123.316 64.402C123.316 62.792 125.73 61.481 128.651 61.481 131.572 61.481 133.943 62.792 133.943 64.402L133.943 64.402 133.943 64.402C133.943 64.402 133.943 64.402 123.316 78.795 123.316 80.403 125.73 81.674 128.651 81.674 131.572 81.674 133.943 80.403 133.943 78.795L133.943 78.795C133.943 78.795 133.943 78.795 123.316 64.402z"/>
 <path stroke-width="0.11" stroke-linejoin="round" stroke-miterlimit="10" d="M123.316 64.402C123.316 62.792 125.73 61.481 128.651 61.481C131.572 61.481 133.943 62.792 133.943 64.402L133.943 64.402L133.943 64.402C133.943 64.402 133.943 64.402 123.316 78.795C123.316 80.403 125.73 81.674 128.651 81.674C131.572 81.674 133.943 80.403 133.943 78.795L133.943 78.795C133.943 78.795 133.943 78.795 123.316 64.402z"/>
 <line stroke-width="0.11" stroke-linejoin="round" stroke-miterlimit="10" x1="128.651" y1="71.597" x2="119.084" y2="71.597"/>
 <polyline stroke="#FF0000" stroke-width="0.11" stroke-linejoin="round" stroke-miterlimit="10" points="93.938 71.597 87.29 71.597 87.29 88.234"/>
 <polyline stroke="#FF0000" stroke-width="0.11" stroke-linejoin="round" stroke-miterlimit="10" points="93.938 11.696 67.268 11.696 67.268 88.234"/>
 <path stroke="none" fill="#FF0000" d="M80.772 92.426C80.772 92.426 80.772 92.426 80.772 94.882 80.772 94.965 80.73 95.051 80.602 95.051 80.518 95.051 80.433 94.965 80.433 94.882 80.433 94.882 80.433 94.882 80.433 92.426 80.433 92.341 80.518 92.257 80.602 92.257L80.602 90.859C80.518 90.859 80.433 90.775 80.433 90.691 80.433 90.691 80.433 90.691 80.433 88.234 80.433 88.15 80.518 88.024 80.602 88.024 80.73 88.024 80.772 88.15 80.772 88.234 80.772 88.234 80.772 88.234 80.772 90.691 80.772 90.775 80.73 90.859 80.602 90.859L80.602 92.257C80.73 92.257 80.772 92.341 80.772 92.426z"/>
 <g>
  <path stroke="#FF0000" stroke-width="0.352" stroke-linecap="butt" stroke-linejoin="bevel" stroke-miterlimit="10" d="M80.772 88.234C80.772 88.234 80.772 88.234 80.772 90.691C80.772 90.775 80.73 90.859 80.602 90.859C80.518 90.859 80.433 90.775 80.433 90.691C80.433 90.691 80.433 90.691 80.433 88.234C80.433 88.15 80.518 88.024 80.602 88.024C80.73 88.024 80.772 88.15 80.772 88.234z"/>
  <path stroke="#FF0000" stroke-width="0.352" stroke-linecap="butt" stroke-linejoin="bevel" stroke-miterlimit="10" d="M80.772 92.426C80.772 92.426 80.772 92.426 80.772 94.882C80.772 94.965 80.73 95.051 80.602 95.051C80.518 95.051 80.433 94.965 80.433 94.882C80.433 94.882 80.433 94.882 80.433 92.426C80.433 92.341 80.518 92.257 80.602 92.257C80.73 92.257 80.772 92.341 80.772 92.426z"/>
 </g>
 <path stroke="none" fill="#FF0000" d="M67.436 92.426C67.436 92.426 67.436 92.426 67.436 94.882 67.436 94.965 67.352 95.051 67.268 95.051 67.183 95.051 67.097 94.965 67.097 94.882 67.097 94.882 67.097 94.882 67.097 92.426 67.097 92.341 67.183 92.257 67.268 92.257L67.268 90.859C67.183 90.859 67.097 90.775 67.097 90.691 67.097 90.691 67.097 90.691 67.097 88.234 67.097 88.15 67.183 88.024 67.268 88.024 67.352 88.024 67.436 88.15 67.436 88.234 67.436 88.234 67.436 88.234 67.436 90.691 67.436 90.775 67.352 90.859 67.268 90.859L67.268 92.257C67.352 92.257 67.436 92.341 67.436 92.426z"/>
 <g>
  <path stroke="#FF0000" stroke-width="0.352" stroke-linecap="butt" stroke-linejoin="bevel" stroke-miterlimit="10" d="M67.436 88.234C67.436 88.234 67.436 88.234 67.436 90.691C67.436 90.775 67.352 90.859 67.268 90.859C67.183 90.859 67.097 90.775 67.097 90.691C67.097 90.691 67.097 90.691 67.097 88.234C67.097 88.15 67.183 88.024 67.268 88.024C67.352 88.024 67.436 88.15 67.436 88.234z"/>
  <path stroke="#FF0000" stroke-width="0.352" stroke-linecap="butt" stroke-linejoin="bevel" stroke-miterlimit="10" d="M67.436 92.426C67.436 92.426 67.436 92.426 67.436 94.882C67.436 94.965 67.352 95.051 67.268 95.051C67.183 95.051 67.097 94.965 67.097 94.882C67.097 94.882 67.097 94.882 67.097 92.426C67.097 92.341 67.183 92.257 67.268 92.257C67.352 92.257 67.436 92.341 67.436 92.426z"/>
 </g>
 <path stroke="none" fill="#FF0000" d="M74.126 92.426C74.126 92.426 74.126 92.426 74.126 94.882 74.126 94.965 74.04 95.051 73.956 95.051 73.871 95.051 73.745 94.965 73.745 94.882 73.745 94.882 73.745 94.882 73.745 92.426 73.745 92.341 73.871 92.257 73.956 92.257L73.956 90.859C73.871 90.859 73.745 90.775 73.745 90.691 73.745 90.691 73.745 90.691 73.745 88.234 73.745 88.15 73.871 88.024 73.956 88.024 74.04 88.024 74.126 88.15 74.126 88.234 74.126 88.234 74.126 88.234 74.126 90.691 74.126 90.775 74.04 90.859 73.956 90.859L73.956 92.257C74.04 92.257 74.126 92.341 74.126 92.426z"/>
 <g>
  <path stroke="#FF0000" stroke-width="0.352" stroke-linecap="butt" stroke-linejoin="bevel" stroke-miterlimit="10" d="M74.126 88.234C74.126 88.234 74.126 88.234 74.126 90.691C74.126 90.775 74.04 90.859 73.956 90.859C73.871 90.859 73.745 90.775 73.745 90.691C73.745 90.691 73.745 90.691 73.745 88.234C73.745 88.15 73.871 88.024 73.956 88.024C74.04 88.024 74.126 88.15 74.126 88.234z"/>
  <path stroke="#FF0000" stroke-width="0.352" stroke-linecap="butt" stroke-linejoin="bevel" stroke-miterlimit="10" d="M74.126 92.426C74.126 92.426 74.126 92.426 74.126 94.882C74.126 94.965 74.04 95.051 73.956 95.051C73.871 95.051 73.745 94.965 73.745 94.882C73.745 94.882 73.745 94.882 73.745 92.426C73.745 92.341 73.871 92.257 73.956 92.257C74.04 92.257 74.126 92.341 74.126 92.426z"/>
 </g>
 <path stroke="none" fill="#FF0000" d="M71.501 94.712C71.501 94.712 71.501 94.712 73.956 94.712 74.04 94.712 74.126 94.796 74.126 94.882 74.126 94.965 74.04 95.051 73.956 95.051 73.956 95.051 73.956 95.051 71.501 95.051 71.415 95.051 71.331 94.965 71.331 94.882L69.935 94.882C69.935 94.965 69.849 95.051 69.765 95.051 69.765 95.051 69.765 95.051 67.268 95.051 67.183 95.051 67.097 94.965 67.097 94.882 67.097 94.796 67.183 94.712 67.268 94.712 67.268 94.712 67.268 94.712 69.765 94.712 69.849 94.712 69.935 94.796 69.935 94.882L71.331 94.882C71.331 94.796 71.415 94.712 71.501 94.712z"/>
 <g>
  <path stroke="#FF0000" stroke-width="0.352" stroke-linecap="butt" stroke-linejoin="bevel" stroke-miterlimit="10" d="M67.268 94.712C67.268 94.712 67.268 94.712 69.765 94.712C69.849 94.712 69.935 94.796 69.935 94.882C69.935 94.965 69.849 95.051 69.765 95.051C69.765 95.051 69.765 95.051 67.268 95.051C67.183 95.051 67.097 94.965 67.097 94.882C67.097 94.796 67.183 94.712 67.268 94.712z"/>
  <path stroke="#FF0000" stroke-width="0.352" stroke-linecap="butt" stroke-linejoin="bevel" stroke-miterlimit="10" d="M71.501 94.712C71.501 94.712 71.501 94.712 73.956 94.712C74.04 94.712 74.126 94.796 74.126 94.882C74.126 94.965 74.04 95.051 73.956 95.051C73.956 95.051 73.956 95.051 71.501 95.051C71.415 95.051 71.331 94.965 71.331 94.882C71.331 94.796 71.415 94.712 71.501 94.712z"/>
 </g>
 <path stroke="none" fill="#FFFFFF" d="M0.593 81.588L0.593 121.509 37.253 121.509 37.253 81.588 0.593 81.588z"/>
 <polygon stroke-width="0.11" stroke-linejoin="round" stroke-miterlimit="10" points="0.593 121.509 37.253 121.509 37.253 81.588 0.593 81.588 0.593 121.509"/>
 <text x="12.359" y="86.796" stroke="none" fill="#000000" font-family="'Arial'" font-size="3.876">A</text>
 <text x="14.814" y="86.796" stroke="none" fill="#000000" font-family="'Arial'" font-size="3.876">d</text>
 <text x="16.931" y="86.796" stroke="none" fill="#000000" font-family="'Arial'" font-size="3.876">a</text>
 <text x="19.047" y="86.796" stroke="none" fill="#000000" font-family="'Arial'" font-size="3.876">p</text>
 <text x="21.164" y="86.796" stroke="none" fill="#000000" font-family="'Arial'" font-size="3.876">t</text>
 <text x="22.222" y="86.796" stroke="none" fill="#000000" font-family="'Arial'" font-size="3.876">e</text>
 <text x="24.339" y="86.796" stroke="none" fill="#000000" font-family="'Arial'" font-size="3.876">r</text>
 <path stroke="none" fill="#FFFFFF" d="M7.238 91.579L7.238 118.165 30.606 118.165 30.606 91.579 7.238 91.579z"/>
 <polygon stroke-width="0.11" stroke-linejoin="round" stroke-miterlimit="10" points="7.238 118.165 30.606 118.165 30.606 91.579 7.238 91.579 7.238 118.165"/>
 <text x="12.701" y="106.183" stroke="none" fill="#000000" font-family="'Arial'" font-size="3.876">C</text>
 <text x="15.538" y="106.183" stroke="none" fill="#000000" font-family="'Arial'" font-size="3.876">o</text>
 <text x="17.655" y="106.183" stroke="none" fill="#000000" font-family="'Arial'" font-size="3.876">n</text>
 <text x="19.772" y="106.183" stroke="none" fill="#000000" font-family="'Arial'" font-size="3.876">t</text>
 <text x="20.83" y="106.183" stroke="none" fill="#000000" font-family="'Arial'" font-size="3.876">r</text>
 <text x="22.227" y="106.183" stroke="none" fill="#000000" font-family="'Arial'" font-size="3.876">o</text>
 <text x="24.344" y="106.183" stroke="none" fill="#000000" font-family="'Arial'" font-size="3.876">l</text>
 <line stroke="#00B050" stroke-width="0.11" stroke-linejoin="round" stroke-miterlimit="10" x1="60.579" y1="111.519" x2="30.606" y2="111.519"/>
 <line stroke="#FF0000" stroke-width="0.11" stroke-linejoin="round" stroke-miterlimit="10" x1="60.579" y1="101.528" x2="30.606" y2="101.528"/>
 <line stroke="#00B050" stroke-width="0.11" stroke-linejoin="round" stroke-miterlimit="10" x1="65.617" y1="113.17" x2="68.918" y2="109.867"/>
 <line stroke="#00B050" stroke-width="0.11" stroke-linejoin="round" stroke-miterlimit="10" x1="65.617" y1="109.867" x2="68.918" y2="113.17"/>
 <path stroke="none" fill="#00B050" d="M63.033 111.688C63.033 111.688 63.033 111.688 60.579 111.688 60.493 111.688 60.409 111.602 60.409 111.519 60.409 111.433 60.493 111.349 60.579 111.349 60.579 111.349 60.579 111.349 63.033 111.349 63.118 111.349 63.204 111.433 63.204 111.519L64.643 111.519C64.643 111.433 64.685 111.349 64.811 111.349 64.811 111.349 64.811 111.349 67.268 111.349 67.352 111.349 67.436 111.433 67.436 111.519 67.436 111.602 67.352 111.688 67.268 111.688 67.268 111.688 67.268 111.688 64.811 111.688 64.685 111.688 64.643 111.602 64.643 111.519L63.204 111.519C63.204 111.602 63.118 111.688 63.033 111.688z"/>
 <g>
  <path stroke="#00B050" stroke-width="0.352" stroke-linecap="butt" stroke-linejoin="bevel" stroke-miterlimit="10" d="M67.268 111.688C67.268 111.688 67.268 111.688 64.811 111.688C64.685 111.688 64.643 111.602 64.643 111.519C64.643 111.433 64.685 111.349 64.811 111.349C64.811 111.349 64.811 111.349 67.268 111.349C67.352 111.349 67.436 111.433 67.436 111.519C67.436 111.602 67.352 111.688 67.268 111.688z"/>
  <path stroke="#00B050" stroke-width="0.352" stroke-linecap="butt" stroke-linejoin="bevel" stroke-miterlimit="10" d="M63.033 111.688C63.033 111.688 63.033 111.688 60.579 111.688C60.493 111.688 60.409 111.602 60.409 111.519C60.409 111.433 60.493 111.349 60.579 111.349C60.579 111.349 60.579 111.349 63.033 111.349C63.118 111.349 63.204 111.433 63.204 111.519C63.204 111.602 63.118 111.688 63.033 111.688z"/>
 </g>
 <path stroke="none" fill="#FF0000" d="M75.269 94.882C75.269 94.162 74.676 93.527 73.956 93.527 73.194 93.527 72.602 94.162 72.602 94.882 72.602 95.6 73.194 96.194 73.956 96.194 74.676 96.194 75.269 95.6 75.269 94.882z"/>
 <path stroke="#FF0000" stroke-width="0.11" stroke-linejoin="round" stroke-miterlimit="10" d="M75.269 94.882C75.269 94.162 74.676 93.527 73.956 93.527C73.194 93.527 72.602 94.162 72.602 94.882C72.602 95.6 73.194 96.194 73.956 96.194C74.676 96.194 75.269 95.6 75.269 94.882z"/>
 <path stroke="none" fill="#FF0000" d="M81.956 94.882C81.956 94.162 81.364 93.527 80.602 93.527 79.882 93.527 79.29 94.162 79.29 94.882 79.29 95.6 79.882 96.194 80.602 96.194 81.364 96.194 81.956 95.6 81.956 94.882z"/>
 <path stroke="none" fill="#FF0000" d="M74.126 120.239C74.126 120.239 74.126 120.239 74.126 121.509 74.126 121.593 74.04 121.679 73.956 121.679 73.871 121.679 73.745 121.593 73.745 121.509 73.745 121.509 73.745 121.509 73.745 120.239 73.745 120.155 73.871 120.069 73.956 120.069L73.956 118.673C73.871 118.673 73.745 118.587 73.745 118.504 73.745 118.504 73.745 118.504 73.745 116.006 73.745 115.921 73.871 115.837 73.956 115.837 74.04 115.837 74.126 115.921 74.126 116.006 74.126 116.006 74.126 116.006 74.126 118.504 74.126 118.587 74.04 118.673 73.956 118.673L73.956 120.069 73.956 97.549 73.956 98.945C74.04 98.945 74.126 98.987 74.126 99.114 74.126 99.114 74.126 99.114 74.126 101.569 74.126 101.655 74.04 101.739 73.956 101.739L73.956 103.179C74.04 103.179 74.126 103.221 74.126 103.347 74.126 103.347 74.126 103.347 74.126 105.804 74.126 105.888 74.04 105.972 73.956 105.972L73.956 107.412C74.04 107.412 74.126 107.454 74.126 107.581 74.126 107.581 74.126 107.581 74.126 110.037 74.126 110.121 74.04 110.206 73.956 110.206L73.956 111.602C74.04 111.602 74.126 111.688 74.126 111.814 74.126 111.814 74.126 111.814 74.126 114.269 74.126 114.355 74.04 114.439 73.956 114.439 73.871 114.439 73.745 114.355 73.745 114.269 73.745 114.269 73.745 114.269 73.745 111.814 73.745 111.688 73.871 111.602 73.956 111.602L73.956 110.206C73.871 110.206 73.745 110.121 73.745 110.037 73.745 110.037 73.745 110.037 73.745 107.581 73.745 107.454 73.871 107.412 73.956 107.412L73.956 105.972C73.871 105.972 73.745 105.888 73.745 105.804 73.745 105.804 73.745 105.804 73.745 103.347 73.745 103.221 73.871 103.179 73.956 103.179L73.956 101.739C73.871 101.739 73.745 101.655 73.745 101.569 73.745 101.569 73.745 101.569 73.745 99.114 73.745 98.987 73.871 98.945 73.956 98.945L73.956 97.549C73.871 97.549 73.745 97.463 73.745 97.337 73.745 97.337 73.745 97.337 73.745 94.882 73.745 94.796 73.871 94.712 73.956 94.712 74.04 94.712 74.126 94.796 74.126 94.882 74.126 94.882 74.126 94.882 74.126 97.337 74.126 97.463 74.04 97.549 73.956 97.549L73.956 120.069C74.04 120.069 74.126 120.155 74.126 120.239z"/>
 <g>
  <path stroke="#FF0000" stroke-width="0.352" stroke-linecap="butt" stroke-linejoin="bevel" stroke-miterlimit="10" d="M74.126 94.882C74.126 94.882 74.126 94.882 74.126 97.337C74.126 97.463 74.04 97.549 73.956 97.549C73.871 97.549 73.745 97.463 73.745 97.337C73.745 97.337 73.745 97.337 73.745 94.882C73.745 94.796 73.871 94.712 73.956 94.712C74.04 94.712 74.126 94.796 74.126 94.882z"/>
  <path stroke="#FF0000" stroke-width="0.352" stroke-linecap="butt" stroke-linejoin="bevel" stroke-miterlimit="10" d="M74.126 99.114C74.126 99.114 74.126 99.114 74.126 101.569C74.126 101.655 74.04 101.739 73.956 101.739C73.871 101.739 73.745 101.655 73.745 101.569C73.745 101.569 73.745 101.569 73.745 99.114C73.745 98.987 73.871 98.945 73.956 98.945C74.04 98.945 74.126 98.987 74.126 99.114z"/>
  <path stroke="#FF0000" stroke-width="0.352" stroke-linecap="butt" stroke-linejoin="bevel" stroke-miterlimit="10" d="M74.126 103.347C74.126 103.347 74.126 103.347 74.126 105.804C74.126 105.888 74.04 105.972 73.956 105.972C73.871 105.972 73.745 105.888 73.745 105.804C73.745 105.804 73.745 105.804 73.745 103.347C73.745 103.221 73.871 103.179 73.956 103.179C74.04 103.179 74.126 103.221 74.126 103.347z"/>
  <path stroke="#FF0000" stroke-width="0.352" stroke-linecap="butt" stroke-linejoin="bevel" stroke-miterlimit="10" d="M74.126 107.581C74.126 107.581 74.126 107.581 74.126 110.037C74.126 110.121 74.04 110.206 73.956 110.206C73.871 110.206 73.745 110.121 73.745 110.037C73.745 110.037 73.745 110.037 73.745 107.581C73.745 107.454 73.871 107.412 73.956 107.412C74.04 107.412 74.126 107.454 74.126 107.581z"/>
  <path stroke="#FF0000" stroke-width="0.352" stroke-linecap="butt" stroke-linejoin="bevel" stroke-miterlimit="10" d="M74.126 111.814C74.126 111.814 74.126 111.814 74.126 114.269C74.126 114.355 74.04 114.439 73.956 114.439C73.871 114.439 73.745 114.355 73.745 114.269C73.745 114.269 73.745 114.269 73.745 111.814C73.745 111.688 73.871 111.602 73.956 111.602C74.04 111.602 74.126 111.688 74.126 111.814z"/>
  <path stroke="#FF0000" stroke-width="0.352" stroke-linecap="butt" stroke-linejoin="bevel" stroke-miterlimit="10" d="M74.126 116.006C74.126 116.006 74.126 116.006 74.126 118.504C74.126 118.587 74.04 118.673 73.956 118.673C73.871 118.673 73.745 118.587 73.745 118.504C73.745 118.504 73.745 118.504 73.745 116.006C73.745 115.921 73.871 115.837 73.956 115.837C74.04 115.837 74.126 115.921 74.126 116.006z"/>
  <path stroke="#FF0000" stroke-width="0.352" stroke-linecap="butt" stroke-linejoin="bevel" stroke-miterlimit="10" d="M74.126 120.239C74.126 120.239 74.126 120.239 74.126 121.509C74.126 121.593 74.04 121.679 73.956 121.679C73.871 121.679 73.745 121.593 73.745 121.509C73.745 121.509 73.745 121.509 73.745 120.239C73.745 120.155 73.871 120.069 73.956 120.069C74.04 120.069 74.126 120.155 74.126 120.239z"/>
 </g>
 <path stroke="none" fill="#FF0000" d="M80.772 120.239C80.772 120.239 80.772 120.239 80.772 121.509 80.772 121.593 80.73 121.679 80.602 121.679 80.518 121.679 80.433 121.593 80.433 121.509 80.433 121.509 80.433 121.509 80.433 120.239 80.433 120.155 80.518 120.069 80.602 120.069L80.602 118.673C80.518 118.673 80.433 118.587 80.433 118.504 80.433 118.504 80.433 118.504 80.433 116.006 80.433 115.921 80.518 115.837 80.602 115.837 80.73 115.837 80.772 115.921 80.772 116.006 80.772 116.006 80.772 116.006 80.772 118.504 80.772 118.587 80.73 118.673 80.602 118.673L80.602 120.069 80.602 97.549 80.602 98.945C80.73 98.945 80.772 98.987 80.772 99.114 80.772 99.114 80.772 99.114 80.772 101.569 80.772 101.655 80.73 101.739 80.602 101.739L80.602 103.179C80.73 103.179 80.772 103.221 80.772 103.347 80.772 103.347 80.772 103.347 80.772 105.804 80.772 105.888 80.73 105.972 80.602 105.972L80.602 107.412C80.73 107.412 80.772 107.454 80.772 107.581 80.772 107.581 80.772 107.581 80.772 110.037 80.772 110.121 80.73 110.206 80.602 110.206L80.602 111.602C80.73 111.602 80.772 111.688 80.772 111.814 80.772 111.814 80.772 111.814 80.772 114.269 80.772 114.355 80.73 114.439 80.602 114.439 80.518 114.439 80.433 114.355 80.433 114.269 80.433 114.269 80.433 114.269 80.433 111.814 80.433 111.688 80.518 111.602 80.602 111.602L80.602 110.206C80.518 110.206 80.433 110.121 80.433 110.037 80.433 110.037 80.433 110.037 80.433 107.581 80.433 107.454 80.518 107.412 80.602 107.412L80.602 105.972C80.518 105.972 80.433 105.888 80.433 105.804 80.433 105.804 80.433 105.804 80.433 103.347 80.433 103.221 80.518 103.179 80.602 103.179L80.602 101.739C80.518 101.739 80.433 101.655 80.433 101.569 80.433 101.569 80.433 101.569 80.433 99.114 80.433 98.987 80.518 98.945 80.602 98.945L80.602 97.549C80.518 97.549 80.433 97.463 80.433 97.337 80.433 97.337 80.433 97.337 80.433 94.882 80.433 94.796 80.518 94.712 80.602 94.712 80.73 94.712 80.772 94.796 80.772 94.882 80.772 94.882 80.772 94.882 80.772 97.337 80.772 97.463 80.73 97.549 80.602 97.549L80.602 120.069C80.73 120.069 80.772 120.155 80.772 120.239z"/>
 <g>
  <path stroke="#FF0000" stroke-width="0.352" stroke-linecap="butt" stroke-linejoin="bevel" stroke-miterlimit="10" d="M80.772 94.882C80.772 94.882 80.772 94.882 80.772 97.337C80.772 97.463 80.73 97.549 80.602 97.549C80.518 97.549 80.433 97.463 80.433 97.337C80.433 97.337 80.433 97.337 80.433 94.882C80.433 94.796 80.518 94.712 80.602 94.712C80.73 94.712 80.772 94.796 80.772 94.882z"/>
  <path stroke="#FF0000" stroke-width="0.352" stroke-linecap="butt" stroke-linejoin="bevel" stroke-miterlimit="10" d="M80.772 99.114C80.772 99.114 80.772 99.114 80.772 101.569C80.772 101.655 80.73 101.739 80.602 101.739C80.518 101.739 80.433 101.655 80.433 101.569C80.433 101.569 80.433 101.569 80.433 99.114C80.433 98.987 80.518 98.945 80.602 98.945C80.73 98.945 80.772 98.987 80.772 99.114z"/>
  <path stroke="#FF0000" stroke-width="0.352" stroke-linecap="butt" stroke-linejoin="bevel" stroke-miterlimit="10" d="M80.772 103.347C80.772 103.347 80.772 103.347 80.772 105.804C80.772 105.888 80.73 105.972 80.602 105.972C80.518 105.972 80.433 105.888 80.433 105.804C80.433 105.804 80.433 105.804 80.433 103.347C80.433 103.221 80.518 103.179 80.602 103.179C80.73 103.179 80.772 103.221 80.772 103.347z"/>
  <path stroke="#FF0000" stroke-width="0.352" stroke-linecap="butt" stroke-linejoin="bevel" stroke-miterlimit="10" d="M80.772 107.581C80.772 107.581 80.772 107.581 80.772 110.037C80.772 110.121 80.73 110.206 80.602 110.206C80.518 110.206 80.433 110.121 80.433 110.037C80.433 110.037 80.433 110.037 80.433 107.581C80.433 107.454 80.518 107.412 80.602 107.412C80.73 107.412 80.772 107.454 80.772 107.581z"/>
  <path stroke="#FF0000" stroke-width="0.352" stroke-linecap="butt" stroke-linejoin="bevel" stroke-miterlimit="10" d="M80.772 111.814C80.772 111.814 80.772 111.814 80.772 114.269C80.772 114.355 80.73 114.439 80.602 114.439C80.518 114.439 80.433 114.355 80.433 114.269C80.433 114.269 80.433 114.269 80.433 111.814C80.433 111.688 80.518 111.602 80.602 111.602C80.73 111.602 80.772 111.688 80.772 111.814z"/>
  <path stroke="#FF0000" stroke-width="0.352" stroke-linecap="butt" stroke-linejoin="bevel" stroke-miterlimit="10" d="M80.772 116.006C80.772 116.006 80.772 116.006 80.772 118.504C80.772 118.587 80.73 118.673 80.602 118.673C80.518 118.673 80.433 118.587 80.433 118.504C80.433 118.504 80.433 118.504 80.433 116.006C80.433 115.921 80.518 115.837 80.602 115.837C80.73 115.837 80.772 115.921 80.772 116.006z"/>
  <path stroke="#FF0000" stroke-width="0.352" stroke-linecap="butt" stroke-linejoin="bevel" stroke-miterlimit="10" d="M80.772 120.239C80.772 120.239 80.772 120.239 80.772 121.509C80.772 121.593 80.73 121.679 80.602 121.679C80.518 121.679 80.433 121.593 80.433 121.509C80.433 121.509 80.433 121.509 80.433 120.239C80.433 120.155 80.518 120.069 80.602 120.069C80.73 120.069 80.772 120.155 80.772 120.239z"/>
 </g>
 <text x="42.713" y="100.554" stroke="none" fill="#000000" font-family="'Arial'" font-size="2.819">S</text>
 <text x="44.451" y="100.554" stroke="none" fill="#000000" font-family="'Arial'" font-size="2.819">E</text>
 <text x="46.228" y="100.554" stroke="none" fill="#000000" font-family="'Arial'" font-size="2.819">L</text>
 <text x="47.627" y="100.554" stroke="none" fill="#000000" font-family="'Arial'" font-size="2.819">V</text>
 <text x="49.405" y="100.554" stroke="none" fill="#000000" font-family="'Arial'" font-size="2.819"> </text>
 <text x="50.845" y="100.554" stroke="none" fill="#000000" font-family="'Arial'" font-size="2.819">2</text>
 <text x="52.244" y="100.554" stroke="none" fill="#000000" font-family="'Arial'" font-size="2.819">4</text>
 <text x="54.023" y="100.554" stroke="none" fill="#000000" font-family="'Arial'" font-size="2.819">V</text>
 <text x="39.156" y="115.329" stroke="none" fill="#000000" font-family="'Arial'" font-size="2.819">F</text>
 <text x="40.936" y="115.329" stroke="none" fill="#000000" font-family="'Arial'" font-size="2.819">a</text>
 <text x="42.334" y="115.329" stroke="none" fill="#000000" font-family="'Arial'" font-size="2.819">n</text>
 <text x="43.774" y="115.329" stroke="none" fill="#000000" font-family="'Arial'" font-size="2.819"> </text>
 <text x="44.451" y="115.329" stroke="none" fill="#000000" font-family="'Arial'" font-size="2.819">i</text>
 <text x="45.17" y="115.329" stroke="none" fill="#000000" font-family="'Arial'" font-size="2.819">n</text>
 <text x="46.567" y="115.329" stroke="none" fill="#000000" font-family="'Arial'" font-size="2.819">o</text>
 <text x="48.008" y="115.329" stroke="none" fill="#000000" font-family="'Arial'" font-size="2.819">p</text>
 <text x="49.405" y="115.329" stroke="none" fill="#000000" font-family="'Arial'" font-size="2.819">e</text>
 <text x="50.844" y="115.329" stroke="none" fill="#000000" font-family="'Arial'" font-size="2.819">r</text>
 <text x="51.901" y="115.329" stroke="none" fill="#000000" font-family="'Arial'" font-size="2.819">a</text>
 <text x="53.298" y="115.329" stroke="none" fill="#000000" font-family="'Arial'" font-size="2.819">b</text>
 <text x="54.697" y="115.329" stroke="none" fill="#000000" font-family="'Arial'" font-size="2.819">l</text>
 <text x="55.415" y="115.329" stroke="none" fill="#000000" font-family="'Arial'" font-size="2.819">e</text>
 <text x="56.814" y="115.329" stroke="none" fill="#000000" font-family="'Arial'" font-size="2.819"> </text>
 <text x="40.936" y="118.841" stroke="none" fill="#000000" font-family="'Arial'" font-size="2.819">i</text>
 <text x="41.655" y="118.841" stroke="none" fill="#000000" font-family="'Arial'" font-size="2.819">n</text>
 <text x="43.052" y="118.841" stroke="none" fill="#000000" font-family="'Arial'" font-size="2.819">d</text>
 <text x="44.451" y="118.841" stroke="none" fill="#000000" font-family="'Arial'" font-size="2.819">i</text>
 <text x="45.17" y="118.841" stroke="none" fill="#000000" font-family="'Arial'" font-size="2.819">c</text>
 <text x="46.567" y="118.841" stroke="none" fill="#000000" font-family="'Arial'" font-size="2.819">a</text>
 <text x="48.008" y="118.841" stroke="none" fill="#000000" font-family="'Arial'" font-size="2.819">t</text>
 <text x="48.726" y="118.841" stroke="none" fill="#000000" font-family="'Arial'" font-size="2.819">o</text>
 <text x="50.125" y="118.841" stroke="none" fill="#000000" font-family="'Arial'" font-size="2.819">r</text>
 <text x="51.182" y="118.841" stroke="none" fill="#000000" font-family="'Arial'" font-size="2.819"> </text>
 <text x="51.901" y="118.841" stroke="none" fill="#000000" font-family="'Arial'" font-size="2.819">N</text>
 <text x="54.694" y="118.841" stroke="none" fill="#000000" font-family="'Arial'" font-size="2.819">1</text>
 <text x="90.719" y="47.002" stroke="none" fill="#000000" font-family="'Arial'" font-size="2.819">E</text>
 <text x="92.456" y="47.002" stroke="none" fill="#000000" font-family="'Arial'" font-size="2.819">L</text>
 <text x="93.896" y="47.002" stroke="none" fill="#000000" font-family="'Arial'" font-size="2.819">V</text>
 <text x="95.632" y="47.002" stroke="none" fill="#000000" font-family="'Arial'" font-size="2.819"> </text>
 <text x="96.689" y="47.002" stroke="none" fill="#000000" font-family="'Arial'" font-size="2.819">1</text>
 <text x="98.129" y="47.002" stroke="none" fill="#000000" font-family="'Arial'" font-size="2.819">5</text>
 <text x="99.865" y="47.002" stroke="none" fill="#000000" font-family="'Arial'" font-size="2.819">V</text>
 <text x="101.644" y="47.002" stroke="none" fill="#000000" font-family="'Arial'" font-size="2.819"> </text>
 <text x="102.701" y="47.002" stroke="none" fill="#000000" font-family="'Arial'" font-size="2.819">/</text>
 <text x="103.421" y="47.002" stroke="none" fill="#000000" font-family="'Arial'" font-size="2.819"> </text>
 <text x="104.096" y="47.002" stroke="none" fill="#000000" font-family="'Arial'" font-size="2.819">2</text>
 <text x="105.537" y="47.002" stroke="none" fill="#000000" font-family="'Arial'" font-size="2.819">4</text>
 <text x="107.274" y="47.002" stroke="none" fill="#000000" font-family="'Arial'" font-size="2.819">V</text>
 <text x="100.585" y="57.923" stroke="none" fill="#000000" font-family="'Arial'" font-size="3.876">m</text>
 <text x="103.76" y="57.923" stroke="none" fill="#000000" font-family="'Arial'" font-size="3.876">a</text>
 <text x="105.878" y="57.923" stroke="none" fill="#000000" font-family="'Arial'" font-size="3.876">x</text>
 <text x="107.995" y="57.923" stroke="none" fill="#000000" font-family="'Arial'" font-size="3.876">.</text>
 <text x="109.052" y="57.923" stroke="none" fill="#000000" font-family="'Arial'" font-size="3.876"> </text>
 <text x="109.774" y="57.923" stroke="none" fill="#000000" font-family="'Arial'" font-size="3.876">3</text>
 <text x="111.891" y="57.923" stroke="none" fill="#000000" font-family="'Arial'" font-size="3.876">x</text>
 <path stroke="none" fill="#FF0000" d="M87.46 92.426C87.46 92.426 87.46 92.426 87.46 94.882 87.46 94.965 87.376 95.051 87.29 95.051 87.164 95.051 87.121 94.965 87.121 94.882 87.121 94.882 87.121 94.882 87.121 92.426 87.121 92.341 87.164 92.257 87.29 92.257L87.29 90.859C87.164 90.859 87.121 90.775 87.121 90.691 87.121 90.691 87.121 90.691 87.121 88.234 87.121 88.15 87.164 88.024 87.29 88.024 87.376 88.024 87.46 88.15 87.46 88.234 87.46 88.234 87.46 88.234 87.46 90.691 87.46 90.775 87.376 90.859 87.29 90.859L87.29 92.257C87.376 92.257 87.46 92.341 87.46 92.426z"/>
 <g>
  <path stroke="#FF0000" stroke-width="0.352" stroke-linecap="butt" stroke-linejoin="bevel" stroke-miterlimit="10" d="M87.46 88.234C87.46 88.234 87.46 88.234 87.46 90.691C87.46 90.775 87.376 90.859 87.29 90.859C87.164 90.859 87.121 90.775 87.121 90.691C87.121 90.691 87.121 90.691 87.121 88.234C87.121 88.15 87.164 88.024 87.29 88.024C87.376 88.024 87.46 88.15 87.46 88.234z"/>
  <path stroke="#FF0000" stroke-width="0.352" stroke-linecap="butt" stroke-linejoin="bevel" stroke-miterlimit="10" d="M87.46 92.426C87.46 92.426 87.46 92.426 87.46 94.882C87.46 94.965 87.376 95.051 87.29 95.051C87.164 95.051 87.121 94.965 87.121 94.882C87.121 94.882 87.121 94.882 87.121 92.426C87.121 92.341 87.164 92.257 87.29 92.257C87.376 92.257 87.46 92.341 87.46 92.426z"/>
 </g>
 <path stroke="none" fill="#FF0000" d="M84.835 94.712C84.835 94.712 84.835 94.712 87.29 94.712 87.376 94.712 87.46 94.796 87.46 94.882 87.46 94.965 87.376 95.051 87.29 95.051 87.29 95.051 87.29 95.051 84.835 95.051 84.751 95.051 84.667 94.965 84.667 94.882L83.269 94.882C83.269 94.965 83.185 95.051 83.058 95.051 83.058 95.051 83.058 95.051 80.602 95.051 80.518 95.051 80.433 94.965 80.433 94.882 80.433 94.796 80.518 94.712 80.602 94.712 80.602 94.712 80.602 94.712 83.058 94.712 83.185 94.712 83.269 94.796 83.269 94.882L84.667 94.882C84.667 94.796 84.751 94.712 84.835 94.712z"/>
 <g>
  <path stroke="#FF0000" stroke-width="0.352" stroke-linecap="butt" stroke-linejoin="bevel" stroke-miterlimit="10" d="M80.602 94.712C80.602 94.712 80.602 94.712 83.058 94.712C83.185 94.712 83.269 94.796 83.269 94.882C83.269 94.965 83.185 95.051 83.058 95.051C83.058 95.051 83.058 95.051 80.602 95.051C80.518 95.051 80.433 94.965 80.433 94.882C80.433 94.796 80.518 94.712 80.602 94.712z"/>
  <path stroke="#FF0000" stroke-width="0.352" stroke-linecap="butt" stroke-linejoin="bevel" stroke-miterlimit="10" d="M84.835 94.712C84.835 94.712 84.835 94.712 87.29 94.712C87.376 94.712 87.46 94.796 87.46 94.882C87.46 94.965 87.376 95.051 87.29 95.051C87.29 95.051 87.29 95.051 84.835 95.051C84.751 95.051 84.667 94.965 84.667 94.882C84.667 94.796 84.751 94.712 84.835 94.712z"/>
 </g>
 <text x="90.719" y="33.965" stroke="none" fill="#000000" font-family="'Arial'" font-size="2.819">E</text>
 <text x="92.456" y="33.965" stroke="none" fill="#000000" font-family="'Arial'" font-size="2.819">L</text>
 <text x="93.896" y="33.965" stroke="none" fill="#000000" font-family="'Arial'" font-size="2.819">V</text>
 <text x="95.632" y="33.965" stroke="none" fill="#000000" font-family="'Arial'" font-size="2.819"> </text>
 <text x="96.689" y="33.965" stroke="none" fill="#000000" font-family="'Arial'" font-size="2.819">1</text>
 <text x="98.129" y="33.965" stroke="none" fill="#000000" font-family="'Arial'" font-size="2.819">5</text>
 <text x="99.865" y="33.965" stroke="none" fill="#000000" font-family="'Arial'" font-size="2.819">V</text>
 <text x="101.644" y="33.965" stroke="none" fill="#000000" font-family="'Arial'" font-size="2.819"> </text>
 <text x="102.701" y="33.965" stroke="none" fill="#000000" font-family="'Arial'" font-size="2.819">/</text>
 <text x="103.421" y="33.965" stroke="none" fill="#000000" font-family="'Arial'" font-size="2.819"> </text>
 <text x="104.096" y="33.965" stroke="none" fill="#000000" font-family="'Arial'" font-size="2.819">2</text>
 <text x="105.537" y="33.965" stroke="none" fill="#000000" font-family="'Arial'" font-size="2.819">4</text>
 <text x="107.274" y="33.965" stroke="none" fill="#000000" font-family="'Arial'" font-size="2.819">V</text>
 <polyline stroke="#FF0000" stroke-width="0.11" stroke-linejoin="round" stroke-miterlimit="10" points="80.602 88.234 80.602 48.273 120.65 48.273"/>
 <polyline stroke="#FF0000" stroke-width="0.11" stroke-linejoin="round" stroke-miterlimit="10" points="73.956 88.234 73.956 34.979 120.65 34.979"/>
 <clipPath id="iso103323" fill="none" stroke="none">
  <path d="M0 122.162L0 122.162 0 122.162 0 122.162 0 122.162z"/>
 </clipPath>
 <g clip-path="url(#iso103323)">
  <line stroke="#FFFFFF" stroke-width="0.353" stroke-linecap="butt" stroke-miterlimit="10" x1="0" y1="122.162" x2="0.353" y2="121.81"/>
 </g>
 <path stroke="none" d="M0 122.162L0 122.162 0 122.162 0 122.162 0 122.162z"/>
</svg>
