<?xml version="1.0" encoding="UTF-8"?>
<!-- Generator: PTC Arbortext IsoDraw 7.4 M001 -->
<svg xmlns="http://www.w3.org/2000/svg" xmlns:xlink="http://www.w3.org/1999/xlink" width="85mm" height="86.31mm" viewBox="0 0 85 86.31" fill-rule="evenodd" clip-rule="evenodd" stroke="#000000" stroke-linecap="round" fill="none" xml:space="preserve" preserveAspectRatio="xMidYMid meet" zoomAndPan="magnify" version="1.1" contentScriptType="text/ecmascript" contentStyleType="text/css">
 <g id="Standard_x0020_layer">
  <g>
   <path stroke-width="0.2" d="M28.756 49.189C28.756 47.854 27.673 46.773 26.339 46.773C25.004 46.773 23.923 47.854 23.923 49.189C23.923 50.524 25.004 51.606 26.339 51.606C27.673 51.606 28.756 50.524 28.756 49.189"/>
  </g>
  <g>
   <path stroke-width="0.2" d="M28.756 59.189C28.756 57.854 27.673 56.773 26.339 56.773C25.004 56.773 23.923 57.854 23.923 59.189C23.923 60.524 25.004 61.606 26.339 61.606C27.673 61.606 28.756 60.524 28.756 59.189"/>
  </g>
  <g>
   <path stroke-width="0.2" d="M28.756 69.189C28.756 67.855 27.673 66.772 26.339 66.772C25.004 66.772 23.923 67.855 23.923 69.189C23.923 70.525 25.004 71.606 26.339 71.606C27.673 71.606 28.756 70.525 28.756 69.189"/>
  </g>
  <g>
   <path stroke-width="0.2" d="M28.756 79.189C28.756 77.855 27.673 76.772 26.339 76.772C25.004 76.772 23.923 77.855 23.923 79.189C23.923 80.525 25.004 81.606 26.339 81.606C27.673 81.606 28.756 80.525 28.756 79.189"/>
  </g>
  <polyline stroke-width="0.2" points="26.339 69.189 16.35 69.189 16.35 79.224 26.339 79.224"/>
  <polygon stroke-width="0.2" points="21.515 45.09 21.515 82.932 30.146 82.932 30.146 45.09 21.515 45.09"/>
  <polygon stroke-width="0.2" points="21.515 6.341 21.515 25.382 30.146 25.382 30.146 6.341 21.515 6.341"/>
  <line stroke-width="0.2" x1="21.515" y1="15.769" x2="30.146" y2="15.769"/>
  <line stroke-width="0.2" x1="21.515" y1="25.382" x2="30.146" y2="25.382"/>
  <line stroke-width="0.2" x1="21.515" y1="10.871" x2="16.733" y2="10.871"/>
  <line stroke-width="0.2" x1="16.231" y1="11.43" x2="10.669" y2="11.43"/>
  <polyline stroke-width="0.2" points="21.515 20.722 4.403 20.722 4.403 10.932 10.387 10.932"/>
  <path stroke-width="0.2" fill="#FFFFFF" d="M10.827 10.932C10.827 10.689 10.63 10.492 10.387 10.492 10.144 10.492 9.945 10.689 9.945 10.932 9.945 11.175 10.144 11.371 10.387 11.371 10.63 11.371 10.827 11.175 10.827 10.932 10.827 10.932 10.827 10.932 10.827 10.932L10.827 10.932z"/>
  <path stroke-width="0.2" fill="#FFFFFF" d="M16.998 10.896C16.998 10.653 16.8 10.455 16.557 10.455 16.315 10.455 16.117 10.653 16.117 10.896 16.117 11.138 16.315 11.336 16.557 11.336 16.8 11.336 16.998 11.138 16.998 10.896 16.998 10.896 16.998 10.896 16.998 10.896L16.998 10.896z"/>
  <line stroke-width="0.2" x1="26.339" y1="49.277" x2="16.74" y2="49.277"/>
  <line stroke-width="0.2" x1="16.239" y1="49.838" x2="10.679" y2="49.838"/>
  <polyline stroke-width="0.2" points="26.339 59.13 4.411 59.13 4.411 49.338 10.394 49.338"/>
  <path stroke-width="0.2" fill="#FFFFFF" d="M10.835 49.338C10.835 49.095 10.637 48.899 10.394 48.899 10.151 48.899 9.955 49.095 9.955 49.338 9.955 49.582 10.151 49.779 10.394 49.779 10.637 49.779 10.835 49.582 10.835 49.338 10.835 49.338 10.835 49.338 10.835 49.338L10.835 49.338z"/>
  <path stroke-width="0.2" fill="#FFFFFF" d="M17.006 49.302C17.006 49.06 16.809 48.862 16.565 48.862 16.323 48.862 16.126 49.06 16.126 49.302 16.126 49.545 16.323 49.743 16.565 49.743 16.809 49.743 17.006 49.545 17.006 49.302 17.006 49.302 17.006 49.302 17.006 49.302L17.006 49.302z"/>
  <line stroke-width="0.2" stroke-dasharray="5 5" x1="13.458" y1="49.737" x2="13.458" y2="3.657"/>
  <line stroke-width="0.2" x1="13.458" y1="3.657" x2="13.458" y2="2.657"/>
  <path stroke-width="0.2" stroke-dasharray="3 3" d="M1.716 0.1L1.716 85.545L83.879 85.545L83.879 0.1L2.716 0.1"/>
  <line stroke-width="0.2" x1="2.716" y1="0.1" x2="1.716" y2="0.1"/>
 </g>
 <g id="83_x0020_mm_x0020_hidden_x0020_Schneider_x0020_layer_x0020_for_x0020_editor">
  <polygon stroke="none" points="0 81.31 0 86.31 85 86.31 85 81.31 0 81.31"/>
 </g>
 <g id="cutout_x0020_layer">
 </g>
 <g id="outline_x0020_layer">
 </g>
 <g id="arrow_x0020_layer">
 </g>
 <g id="_x0020_cable_x0020_layer">
 </g>
 <g id="symbol_x0020_layer">
 </g>
 <g id="_x0020_text_x0020_layer">
  <text x="72.156" y="5.051" stroke="none" fill="#000000" font-family="'Arial'" font-size="3.528">UPS</text>
 </g>
 <g id="_x0020_callout_x0020_layer">
 </g>
 <g id="Text_DO_x0020_NOT_x0020_TRANSLATE">
  <text x="31.309" y="50.57" stroke="none" fill="#000000" font-family="'Arial'" font-size="3.528">1</text>
  <text x="35.31" y="50.57" stroke="none" fill="#000000" font-family="'Arial'" font-size="3.528">+24 V</text>
  <text x="31.309" y="60.57" stroke="none" fill="#000000" font-family="'Arial'" font-size="3.528">2</text>
  <text x="35.31" y="60.57" stroke="none" fill="#000000" font-family="'Arial'" font-size="3.528">IN</text>
  <text x="31.309" y="70.57" stroke="none" fill="#000000" font-family="'Arial'" font-size="3.528">3</text>
  <text x="35.31" y="70.57" stroke="none" fill="#000000" font-family="'Arial'" font-size="3.528">RTN</text>
  <text x="31.309" y="80.57" stroke="none" fill="#000000" font-family="'Arial'" font-size="3.528">4</text>
  <text x="35.31" y="80.57" stroke="none" fill="#000000" font-family="'Arial'" font-size="3.528">GND</text>
  <text x="24.792" y="12.515" stroke="none" fill="#000000" font-family="'Arial'" font-size="3.528">1</text>
  <text x="24.792" y="22.515" stroke="none" fill="#000000" font-family="'Arial'" font-size="3.528">2</text>
  <text x="20.968" y="43.066" stroke="none" fill="#000000" font-family="'Arial'" font-size="3.528">J1602</text>
  <text x="22.539" y="4.993" stroke="none" fill="#000000" font-family="'Arial'" font-size="3.528">TB1</text>
 </g>
</svg>
