<?xml version="1.0" encoding="UTF-8"?>
<!-- Generator: PTC Arbortext IsoDraw 7.4 M001 -->
<svg xmlns="http://www.w3.org/2000/svg" xmlns:xlink="http://www.w3.org/1999/xlink" width="120mm" height="229.599mm" viewBox="0 0 120 229.599" fill-rule="evenodd" clip-rule="evenodd" stroke="#000000" stroke-linecap="round" fill="none" xml:space="preserve" preserveAspectRatio="xMidYMid meet" zoomAndPan="magnify" version="1.1" contentScriptType="text/ecmascript" contentStyleType="text/css">
 <g id="_x0020_fill_x0020_layer">
 </g>
 <g id="Standard_x0020_layer">
  <polygon stroke-width="0.2" points="55.637 1.589 55.637 67.03 79.9 67.03 79.9 1.589 55.637 1.589"/>
  <path stroke-width="0.2" fill="#008CDB" d="M56.695 12.375L56.695 23.202 61.091 23.202 61.091 12.375 56.695 12.375z"/>
  <path stroke-width="0.2" fill="#FF0D00" d="M56.695 23.242L56.695 34.069 61.091 34.069 61.091 23.242 56.695 23.242z"/>
  <path stroke-width="0.2" fill="#01889C" d="M56.695 34.107L56.695 44.933 61.091 44.933 61.091 34.107 56.695 34.107z"/>
  <path stroke-width="0.2" fill="#FFE500" d="M56.695 44.972L56.695 55.799 61.091 55.799 61.091 44.972 56.695 44.972z"/>
  <path stroke-width="0.2" fill="#BFBFBF" d="M56.695 55.838L56.695 66.665 61.091 66.665 61.091 55.838 56.695 55.838z"/>
  <path stroke-width="0.2" fill="#008CDB" d="M51.825 16.716L51.825 18.983 57.348 18.983 57.348 16.716 51.825 16.716z"/>
  <path stroke-width="0.2" fill="#FF0D00" d="M51.825 26.832L51.825 29.1 57.348 29.1 57.348 26.832 51.825 26.832z"/>
  <path stroke-width="0.2" fill="#01889C" d="M51.825 38.072L51.825 40.34 57.348 40.34 57.348 38.072 51.825 38.072z"/>
  <path stroke-width="0.2" fill="#FFE500" d="M51.825 48.938L51.825 51.206 57.348 51.206 57.348 48.938 51.825 48.938z"/>
  <path stroke-width="0.2" fill="#BFBFBF" d="M51.825 59.804L51.825 62.07 57.348 62.07 57.348 59.804 51.825 59.804z"/>
  <path stroke-width="0.2" fill="#008CDB" d="M73.93 12.375L73.93 23.202 78.325 23.202 78.325 12.375 73.93 12.375z"/>
  <path stroke-width="0.2" fill="#FF0D00" d="M73.93 23.242L73.93 34.069 78.325 34.069 78.325 23.242 73.93 23.242z"/>
  <path stroke-width="0.2" fill="#01889C" d="M73.93 34.107L73.93 44.933 78.325 44.933 78.325 34.107 73.93 34.107z"/>
  <path stroke-width="0.2" fill="#FFE500" d="M73.93 44.972L73.93 55.799 78.325 55.799 78.325 44.972 73.93 44.972z"/>
  <path stroke-width="0.2" fill="#BFBFBF" d="M73.93 55.838L73.93 66.665 78.325 66.665 78.325 55.838 73.93 55.838z"/>
  <path stroke-width="0.2" fill="#008CDB" d="M77.677 16.716L77.677 18.983 83.201 18.983 83.201 16.716 77.677 16.716z"/>
  <path stroke-width="0.2" fill="#FF0D00" d="M77.677 26.832L77.677 29.1 83.201 29.1 83.201 26.832 77.677 26.832z"/>
  <path stroke-width="0.2" fill="#01889C" d="M77.677 38.072L77.677 40.34 83.201 40.34 83.201 38.072 77.677 38.072z"/>
  <path stroke-width="0.2" fill="#FFE500" d="M77.677 48.938L77.677 51.206 83.201 51.206 83.201 48.938 77.677 48.938z"/>
  <path stroke-width="0.2" fill="#BFBFBF" d="M77.677 59.804L77.677 62.07 83.201 62.07 83.201 59.804 77.677 59.804z"/>
  <polygon stroke-width="0.2" points="57.015 2.737 57.015 11.233 78.215 11.233 78.215 2.737 57.015 2.737"/>
  <polygon stroke-width="0.2" points="38.834 36.158 38.834 42.543 51.334 42.543 51.334 36.158 38.834 36.158"/>
  <polygon stroke-width="0.2" points="38.517 46.756 38.517 53.323 51.287 53.323 51.287 46.756 38.517 46.756"/>
  <polygon stroke-width="0.2" points="90.945 2.548 90.945 13.441 118.028 13.441 118.028 2.548 90.945 2.548"/>
  <polygon stroke-width="0.2" points="92.299 2.548 92.299 13.441 95.421 13.441 95.421 2.548 92.299 2.548"/>
  <polygon stroke-width="0.2" points="85.865 6.865 85.865 9.731 90.945 9.731 90.945 6.865 85.865 6.865"/>
  <polygon stroke="none" fill="#000000" points="65.132 12.942 64.427 16.942 65.837 16.942"/>
  <line stroke-width="0.2" x1="65.132" y1="65.98" x2="65.132" y2="16.542"/>
  <line stroke-width="0.2" stroke-dasharray="1 1" x1="67.615" y1="11.233" x2="67.615" y2="64.582"/>
  <line stroke-width="0.2" x1="67.615" y1="64.582" x2="67.615" y2="65.582"/>
  <polygon stroke="none" fill="#000000" points="71.698 64.781 72.403 60.781 70.993 60.781"/>
  <line stroke-width="0.2" x1="71.698" y1="11.753" x2="71.698" y2="61.182"/>
  <polygon stroke-width="0.2" points="3.008 142.932 3.008 195.437 25.128 195.437 25.128 142.932 3.008 142.932"/>
  <polygon stroke-width="0.2" points="4.722 144.33 4.722 164.014 12.701 164.014 12.701 144.33 4.722 144.33"/>
  <polygon stroke-width="0.2" points="17.926 143.947 17.926 159.623 24.442 159.623 24.442 143.947 17.926 143.947"/>
  <path stroke-width="0.2" fill="#008CDB" d="M21.184 143.947L21.184 159.623 24.442 159.623 24.442 143.947 21.184 143.947z"/>
  <polygon stroke-width="0.2" points="17.926 160.807 17.926 176.484 24.442 176.484 24.442 160.807 17.926 160.807"/>
  <path stroke-width="0.2" fill="#BFBFBF" d="M21.184 160.807L21.184 176.484 24.442 176.484 24.442 160.807 21.184 160.807z"/>
  <polygon stroke-width="0.2" points="17.926 177.668 17.926 193.344 24.442 193.344 24.442 177.668 17.926 177.668"/>
  <path stroke-width="0.2" fill="#000000" d="M21.184 177.668L21.184 193.344 24.442 193.344 24.442 177.668 21.184 177.668z"/>
  <polygon stroke-width="0.2" points="17.926 202.77 17.926 218.448 24.442 218.448 24.442 202.77 17.926 202.77"/>
  <path stroke-width="0.2" fill="#000000" d="M21.184 202.77L21.184 218.448 24.442 218.448 24.442 202.77 21.184 202.77z"/>
  <polygon stroke-width="0.2" points="25.128 197.312 2.831 197.312 2.831 226.55 25.128 226.55 25.128 197.312"/>
  <polygon stroke-width="0.2" points="4.722 201.281 4.722 220.963 12.701 220.963 12.701 201.281 4.722 201.281"/>
  <polygon stroke-width="0.2" points="11.305 171.644 11.305 188.943 13.298 188.943 13.298 171.644 11.305 171.644"/>
  <polygon stroke-width="0.2" points="13.179 171.644 13.179 188.943 15.172 188.943 15.172 171.644 13.179 171.644"/>
  <path stroke-width="0.2" fill="#BFBFBF" d="M0.143 174.849L0.143 176.008 5.772 176.008 5.772 174.849 0.143 174.849z"/>
  <path stroke-width="0.2" fill="#BFBFBF" d="M0.143 186.84L0.143 187.997 5.772 187.997 5.772 186.84 0.143 186.84z"/>
  <path stroke-width="0.2" fill="#008CDB" d="M23.89 149.986L23.89 152.253 29.414 152.253 29.414 149.986 23.89 149.986z"/>
  <path stroke-width="0.2" fill="#BFBFBF" d="M23.89 167.596L23.89 169.864 29.414 169.864 29.414 167.596 23.89 167.596z"/>
  <path stroke-width="0.2" fill="#000000" d="M23.89 184.456L23.89 186.723 29.414 186.723 29.414 184.456 23.89 184.456z"/>
  <path stroke-width="0.2" fill="#000000" d="M23.89 208.811L23.89 211.078 29.414 211.078 29.414 208.811 23.89 208.811z"/>
  <path stroke-width="0.2" fill="#000000" d="M6.509 173.844L10.839 173.844 10.839 189 6.155 189 3.556 186.097 3.556 176.07 6.509 173.844z"/>
  <polygon stroke-width="0.2" points="83.254 185.469 83.254 191.855 95.754 191.855 95.754 185.469 83.254 185.469"/>
  <polygon stroke-width="0.2" points="83.254 196.711 83.254 203.096 95.754 203.096 95.754 196.711 83.254 196.711"/>
  <polygon stroke-width="0.2" points="83.254 207.95 83.254 214.336 95.754 214.336 95.754 207.95 83.254 207.95"/>
 </g>
 <g id="CBOX2">
  <polygon stroke-width="0.2" points="55.637 81.394 55.637 146.836 79.9 146.836 79.9 81.394 55.637 81.394"/>
  <path stroke-width="0.2" fill="#008CDB" d="M56.695 92.182L56.695 103.009 61.091 103.009 61.091 92.182 56.695 92.182z"/>
  <path stroke-width="0.2" fill="#FF0D00" d="M56.695 103.048L56.695 113.875 61.091 113.875 61.091 103.048 56.695 103.048z"/>
  <path stroke-width="0.2" fill="#01889C" d="M56.695 113.914L56.695 124.739 61.091 124.739 61.091 113.914 56.695 113.914z"/>
  <path stroke-width="0.2" fill="#FFE500" d="M56.695 124.778L56.695 135.605 61.091 135.605 61.091 124.778 56.695 124.778z"/>
  <path stroke-width="0.2" fill="#BFBFBF" d="M56.695 135.645L56.695 146.471 61.091 146.471 61.091 135.645 56.695 135.645z"/>
  <path stroke-width="0.2" fill="#008CDB" d="M51.825 96.522L51.825 98.789 57.348 98.789 57.348 96.522 51.825 96.522z"/>
  <path stroke-width="0.2" fill="#FF0D00" d="M51.825 106.638L51.825 108.906 57.348 108.906 57.348 106.638 51.825 106.638z"/>
  <path stroke-width="0.2" fill="#01889C" d="M51.825 117.878L51.825 120.146 57.348 120.146 57.348 117.878 51.825 117.878z"/>
  <path stroke-width="0.2" fill="#FFE500" d="M51.825 128.743L51.825 131.012 57.348 131.012 57.348 128.743 51.825 128.743z"/>
  <path stroke-width="0.2" fill="#BFBFBF" d="M51.825 139.61L51.825 141.877 57.348 141.877 57.348 139.61 51.825 139.61z"/>
  <path stroke-width="0.2" fill="#008CDB" d="M73.93 92.182L73.93 103.009 78.325 103.009 78.325 92.182 73.93 92.182z"/>
  <path stroke-width="0.2" fill="#FF0D00" d="M73.93 103.048L73.93 113.875 78.325 113.875 78.325 103.048 73.93 103.048z"/>
  <path stroke-width="0.2" fill="#01889C" d="M73.93 113.914L73.93 124.739 78.325 124.739 78.325 113.914 73.93 113.914z"/>
  <path stroke-width="0.2" fill="#FFE500" d="M73.93 124.778L73.93 135.605 78.325 135.605 78.325 124.778 73.93 124.778z"/>
  <path stroke-width="0.2" fill="#BFBFBF" d="M73.93 135.645L73.93 146.471 78.325 146.471 78.325 135.645 73.93 135.645z"/>
  <path stroke-width="0.2" fill="#008CDB" d="M77.677 96.522L77.677 98.789 83.201 98.789 83.201 96.522 77.677 96.522z"/>
  <path stroke-width="0.2" fill="#FF0D00" d="M77.677 106.638L77.677 108.906 83.201 108.906 83.201 106.638 77.677 106.638z"/>
  <path stroke-width="0.2" fill="#01889C" d="M77.677 117.878L77.677 120.146 83.201 120.146 83.201 117.878 77.677 117.878z"/>
  <path stroke-width="0.2" fill="#FFE500" d="M77.677 128.743L77.677 131.012 83.201 131.012 83.201 128.743 77.677 128.743z"/>
  <path stroke-width="0.2" fill="#BFBFBF" d="M77.677 139.61L77.677 141.877 83.201 141.877 83.201 139.61 77.677 139.61z"/>
  <polygon stroke-width="0.2" points="57.015 82.543 57.015 91.039 78.215 91.039 78.215 82.543 57.015 82.543"/>
  <polygon stroke="none" fill="#000000" points="65.132 92.748 64.427 96.748 65.837 96.748"/>
  <line stroke-width="0.2" x1="65.132" y1="145.787" x2="65.132" y2="96.347"/>
  <line stroke-width="0.2" stroke-dasharray="1 1" x1="67.615" y1="91.039" x2="67.615" y2="144.389"/>
  <line stroke-width="0.2" x1="67.615" y1="144.389" x2="67.615" y2="145.389"/>
  <polygon stroke="none" fill="#000000" points="71.698 144.587 72.403 140.587 70.993 140.587"/>
  <line stroke-width="0.2" x1="71.698" y1="91.56" x2="71.698" y2="140.987"/>
 </g>
 <g id="CBOX3">
  <polygon stroke-width="0.2" points="55.637 161.95 55.637 227.39 79.9 227.39 79.9 161.95 55.637 161.95"/>
  <path stroke-width="0.2" fill="#008CDB" d="M56.695 172.737L56.695 183.563 61.091 183.563 61.091 172.737 56.695 172.737z"/>
  <path stroke-width="0.2" fill="#FF0D00" d="M56.695 183.603L56.695 194.43 61.091 194.43 61.091 183.603 56.695 183.603z"/>
  <path stroke-width="0.2" fill="#01889C" d="M56.695 194.468L56.695 205.294 61.091 205.294 61.091 194.468 56.695 194.468z"/>
  <path stroke-width="0.2" fill="#FFE500" d="M56.695 205.335L56.695 216.161 61.091 216.161 61.091 205.335 56.695 205.335z"/>
  <path stroke-width="0.2" fill="#BFBFBF" d="M56.695 216.199L56.695 227.026 61.091 227.026 61.091 216.199 56.695 216.199z"/>
  <path stroke-width="0.2" fill="#008CDB" d="M51.825 177.076L51.825 179.344 57.348 179.344 57.348 177.076 51.825 177.076z"/>
  <path stroke-width="0.2" fill="#FF0D00" d="M51.825 187.193L51.825 189.461 57.348 189.461 57.348 187.193 51.825 187.193z"/>
  <path stroke-width="0.2" fill="#01889C" d="M51.825 198.433L51.825 200.7 57.348 200.7 57.348 198.433 51.825 198.433z"/>
  <path stroke-width="0.2" fill="#FFE500" d="M51.825 209.299L51.825 211.567 57.348 211.567 57.348 209.299 51.825 209.299z"/>
  <path stroke-width="0.2" fill="#BFBFBF" d="M51.825 220.164L51.825 222.431 57.348 222.431 57.348 220.164 51.825 220.164z"/>
  <path stroke-width="0.2" fill="#008CDB" d="M73.93 172.737L73.93 183.563 78.325 183.563 78.325 172.737 73.93 172.737z"/>
  <path stroke-width="0.2" fill="#FF0D00" d="M73.93 183.603L73.93 194.43 78.325 194.43 78.325 183.603 73.93 183.603z"/>
  <path stroke-width="0.2" fill="#01889C" d="M73.93 194.468L73.93 205.294 78.325 205.294 78.325 194.468 73.93 194.468z"/>
  <path stroke-width="0.2" fill="#FFE500" d="M73.93 205.335L73.93 216.161 78.325 216.161 78.325 205.335 73.93 205.335z"/>
  <path stroke-width="0.2" fill="#BFBFBF" d="M73.93 216.199L73.93 227.026 78.325 227.026 78.325 216.199 73.93 216.199z"/>
  <path stroke-width="0.2" fill="#008CDB" d="M77.677 177.076L77.677 179.344 83.201 179.344 83.201 177.076 77.677 177.076z"/>
  <path stroke-width="0.2" fill="#FF0D00" d="M77.677 187.193L77.677 189.461 83.201 189.461 83.201 187.193 77.677 187.193z"/>
  <path stroke-width="0.2" fill="#01889C" d="M77.677 198.433L77.677 200.7 83.201 200.7 83.201 198.433 77.677 198.433z"/>
  <path stroke-width="0.2" fill="#FFE500" d="M77.677 209.299L77.677 211.567 83.201 211.567 83.201 209.299 77.677 209.299z"/>
  <path stroke-width="0.2" fill="#BFBFBF" d="M77.677 220.164L77.677 222.431 83.201 222.431 83.201 220.164 77.677 220.164z"/>
  <polygon stroke-width="0.2" points="57.015 163.098 57.015 171.593 78.215 171.593 78.215 163.098 57.015 163.098"/>
  <polygon stroke="none" fill="#000000" points="65.132 173.304 64.427 177.304 65.837 177.304"/>
  <line stroke-width="0.2" x1="65.132" y1="226.342" x2="65.132" y2="176.903"/>
  <line stroke-width="0.2" stroke-dasharray="1 1" x1="67.615" y1="171.593" x2="67.615" y2="224.943"/>
  <line stroke-width="0.2" x1="67.615" y1="224.943" x2="67.615" y2="225.943"/>
  <polygon stroke="none" fill="#000000" points="71.698 225.143 72.403 221.143 70.993 221.143"/>
  <line stroke-width="0.2" x1="71.698" y1="172.115" x2="71.698" y2="221.543"/>
 </g>
 <g id="120mm_x0020_hidden_x0020_Schneider_x0020_layer_x0020_for_x0020_editor">
  <polygon stroke="none" points="0 220.247 0 229.247 120 229.247 120 220.247 0 220.247"/>
 </g>
 <g id="cutout_x0020_layer">
 </g>
 <g id="outline_x0020_layer">
 </g>
 <g id="zoom_x0020_layer">
 </g>
 <g id="outline_x0020_on_x0020_zoom_x0020_layer">
 </g>
 <g id="arrow_x0020_layer">
 </g>
 <g id="_x0020_cable_x0020_layer">
  <polyline stroke-width="0.2" points="85.865 8.298 84.778 8.298 84.778 0.1 34.587 0.1 34.587 60.807 51.825 60.807"/>
  <polyline stroke-width="0.2" points="51.588 17.754 40.853 17.754 40.853 27.672 51.652 27.672"/>
  <polyline stroke-width="0.2" points="83.201 17.85 115.132 17.85 115.132 79.489 49.817 79.489 49.817 97.594 51.825 97.594"/>
  <polyline stroke-width="0.2" points="83.201 27.966 111.974 27.966 111.974 77.215 47.598 77.215 47.598 107.808 51.677 107.808"/>
  <polyline stroke-width="0.2" points="83.201 39.206 107.879 39.206 107.879 74.599 45.295 74.599 45.295 119.2 51.825 119.2"/>
  <polyline stroke-width="0.2" points="83.201 50.072 104.575 50.072 104.575 72.091 41.988 72.091 41.988 129.733 51.573 129.733"/>
  <polyline stroke-width="0.2" points="83.201 60.936 87.76 60.936 87.76 69.736 39.005 69.736 39.005 140.735 51.621 140.735"/>
  <polyline stroke-width="0.2" points="83.201 97.656 115.281 97.656 115.281 160.699 49.826 160.699 49.826 178.455 51.71 178.455"/>
  <polyline stroke-width="0.2" points="83.403 107.614 113.503 107.614 113.503 159.383 47.887 159.383 47.887 188.524 51.74 188.524"/>
  <polyline stroke-width="0.2" points="83.189 118.897 111.548 118.897 111.548 157.538 45.945 157.538 45.945 199.76 51.707 199.76"/>
  <polyline stroke-width="0.2" points="83.201 129.877 107.628 129.877 107.628 154.233 43.03 154.233 43.03 210.409 51.825 210.409"/>
  <polyline stroke-width="0.2" points="83.201 140.742 104.313 140.742 104.313 151.377 40.194 151.377 40.194 221.352 51.825 221.352"/>
  <polyline stroke-width="0.2" points="29.414 185.591 31.823 185.591 31.823 209.948 29.414 209.948"/>
  <polyline stroke-width="0.2" points="29.414 151.121 37.281 151.121 37.281 229.5 104.543 229.5 104.543 178.229 83.201 178.229"/>
  <polyline stroke-width="0.2" points="83.201 221.299 89.245 221.299 89.245 228.569 37.92 228.569"/>
  <polyline stroke-width="0.2" points="36.704 228.569 34.299 228.569 34.299 168.884 29.414 168.884"/>
  <path stroke-width="0.2" d="M36.704 228.569C36.814 227.913 37.92 228.139 37.92 228.569"/>
 </g>
 <g id="symbol_x0020_layer">
 </g>
 <g id="text_x0020_layer">
 </g>
 <g id="text-_x0020_DO_x0020_NOT_x0020_translate">
  <text x="62.545" y="8.769" stroke="none" fill="#000000" font-family="'Arial'" font-size="2.644">CBOX1</text>
  <text x="43.53" y="23.394" stroke="none" fill="#000000" font-family="'Arial'" font-size="2.644">0W6331A</text>
  <text x="37.47" y="35.136" stroke="none" fill="#000000" font-family="'Arial'" font-size="2.644">0W6342-003</text>
  <g>
   <text x="39.521" y="38.485" stroke="none" fill="#000000" font-family="'Arial'" font-size="2.115">Terminator</text>
   <text x="39.521" y="40.956" stroke="none" fill="#000000" font-family="'Arial'" font-size="2.115">W303</text>
  </g>
  <text x="36.674" y="45.584" stroke="none" fill="#000000" font-family="'Arial'" font-size="2.644">0W6342-002</text>
  <g>
   <text x="39.38" y="49.719" stroke="none" fill="#000000" font-family="'Arial'" font-size="2.115">Terminator</text>
   <text x="39.38" y="52.189" stroke="none" fill="#000000" font-family="'Arial'" font-size="2.115">W304</text>
  </g>
  <text x="52.204" y="18.815" stroke="none" fill="#000000" font-family="'Arial'" font-size="2.644">P12</text>
  <text x="52.204" y="28.896" stroke="none" fill="#000000" font-family="'Arial'" font-size="2.644">P12</text>
  <text x="52.204" y="61.965" stroke="none" fill="#000000" font-family="'Arial'" font-size="2.644">P50</text>
  <text transform="matrix(0 -1 1 0 59.789 18.727)" stroke="none" fill="#000000" font-family="'Arial'" font-size="2.644">A</text>
  <text transform="matrix(0 -1 1 0 59.789 28.809)" stroke="none" fill="#000000" font-family="'Arial'" font-size="2.644">B</text>
  <text transform="matrix(0 -1 1 0 59.789 40.167)" stroke="none" fill="#000000" font-family="'Arial'" font-size="2.644">C</text>
  <text transform="matrix(0 -1 1 0 59.789 51.048)" stroke="none" fill="#000000" font-family="'Arial'" font-size="2.644">D</text>
  <text transform="matrix(0 -1 1 0 59.789 61.878)" stroke="none" fill="#000000" font-family="'Arial'" font-size="2.644">E</text>
  <text x="78.614" y="18.815" stroke="none" fill="#000000" font-family="'Arial'" font-size="2.644">P6</text>
  <text x="78.614" y="28.896" stroke="none" fill="#000000" font-family="'Arial'" font-size="2.644">P7</text>
  <text x="78.614" y="40.109" stroke="none" fill="#000000" font-family="'Arial'" font-size="2.644">P8</text>
  <text x="78.614" y="50.988" stroke="none" fill="#000000" font-family="'Arial'" font-size="2.644">P9</text>
  <text x="77.879" y="61.965" stroke="none" fill="#000000" font-family="'Arial'" font-size="2.644">P10</text>
  <text transform="matrix(0 -1 1 0 76.772 61.436)" stroke="none" fill="#000000" font-family="'Arial'" font-size="2.644">J</text>
  <text transform="matrix(0 -1 1 0 76.772 49.872)" stroke="none" fill="#000000" font-family="'Arial'" font-size="2.644">I</text>
  <text transform="matrix(0 -1 1 0 76.772 40.167)" stroke="none" fill="#000000" font-family="'Arial'" font-size="2.644">H</text>
  <text transform="matrix(0 -1 1 0 76.772 29.103)" stroke="none" fill="#000000" font-family="'Arial'" font-size="2.644">G</text>
  <text transform="matrix(0 -1 1 0 76.772 18.579)" stroke="none" fill="#000000" font-family="'Arial'" font-size="2.644">F</text>
  <text x="78.614" y="18.815" stroke="none" fill="#000000" font-family="'Arial'" font-size="2.644">P6</text>
  <text x="78.614" y="28.896" stroke="none" fill="#000000" font-family="'Arial'" font-size="2.644">P7</text>
  <text x="78.614" y="40.109" stroke="none" fill="#000000" font-family="'Arial'" font-size="2.644">P8</text>
  <text x="78.614" y="50.988" stroke="none" fill="#000000" font-family="'Arial'" font-size="2.644">P9</text>
  <text transform="matrix(0 -1 1 0 76.772 49.872)" stroke="none" fill="#000000" font-family="'Arial'" font-size="2.644">I</text>
  <text transform="matrix(0 -1 1 0 76.772 40.167)" stroke="none" fill="#000000" font-family="'Arial'" font-size="2.644">H</text>
  <text transform="matrix(0 -1 1 0 76.772 29.103)" stroke="none" fill="#000000" font-family="'Arial'" font-size="2.644">G</text>
  <text transform="matrix(0 -1 1 0 76.772 18.579)" stroke="none" fill="#000000" font-family="'Arial'" font-size="2.644">F</text>
  <text x="99.17" y="8.441" stroke="none" fill="#000000" font-family="'Arial'" font-size="2.644">MMI_ABUS</text>
  <text x="86.016" y="9.23" stroke="none" fill="#000000" font-family="'Arial'" font-size="2.644">P50</text>
  <text transform="matrix(0 -1 1 0 94.954 12.054)" stroke="none" fill="#000000" font-family="'Arial'" font-size="2.644">J403</text>
  <text transform="matrix(0 -1 1 0 64.236 34.24)" stroke="none" fill="#000000" font-family="'Arial'" font-size="2.644">Cable to top</text>
  <text transform="matrix(0 -1 1 0 70.902 58.201)" stroke="none" fill="#000000" font-family="'Arial'" font-size="2.644">Cable to bottom</text>
  <text x="62.545" y="88.575" stroke="none" fill="#000000" font-family="'Arial'" font-size="2.644">CBOX2</text>
  <text x="52.204" y="98.62" stroke="none" fill="#000000" font-family="'Arial'" font-size="2.644">P6</text>
  <text x="52.204" y="108.703" stroke="none" fill="#000000" font-family="'Arial'" font-size="2.644">P7</text>
  <text x="52.204" y="141.77" stroke="none" fill="#000000" font-family="'Arial'" font-size="2.644">P10</text>
  <text transform="matrix(0 -1 1 0 59.789 98.533)" stroke="none" fill="#000000" font-family="'Arial'" font-size="2.644">A</text>
  <text transform="matrix(0 -1 1 0 59.789 108.615)" stroke="none" fill="#000000" font-family="'Arial'" font-size="2.644">B</text>
  <text transform="matrix(0 -1 1 0 59.789 119.974)" stroke="none" fill="#000000" font-family="'Arial'" font-size="2.644">C</text>
  <text transform="matrix(0 -1 1 0 59.789 130.854)" stroke="none" fill="#000000" font-family="'Arial'" font-size="2.644">D</text>
  <text transform="matrix(0 -1 1 0 59.789 141.683)" stroke="none" fill="#000000" font-family="'Arial'" font-size="2.644">E</text>
  <text x="78.614" y="98.62" stroke="none" fill="#000000" font-family="'Arial'" font-size="2.644">P16</text>
  <text x="78.614" y="108.703" stroke="none" fill="#000000" font-family="'Arial'" font-size="2.644">P17</text>
  <text x="78.614" y="119.915" stroke="none" fill="#000000" font-family="'Arial'" font-size="2.644">P18</text>
  <text x="78.614" y="130.794" stroke="none" fill="#000000" font-family="'Arial'" font-size="2.644">P19</text>
  <text x="77.879" y="141.77" stroke="none" fill="#000000" font-family="'Arial'" font-size="2.644">P20</text>
  <text transform="matrix(0 -1 1 0 76.772 141.242)" stroke="none" fill="#000000" font-family="'Arial'" font-size="2.644">J</text>
  <text transform="matrix(0 -1 1 0 76.772 129.679)" stroke="none" fill="#000000" font-family="'Arial'" font-size="2.644">I</text>
  <text transform="matrix(0 -1 1 0 76.772 119.974)" stroke="none" fill="#000000" font-family="'Arial'" font-size="2.644">H</text>
  <text transform="matrix(0 -1 1 0 76.772 108.909)" stroke="none" fill="#000000" font-family="'Arial'" font-size="2.644">G</text>
  <text transform="matrix(0 -1 1 0 76.772 98.385)" stroke="none" fill="#000000" font-family="'Arial'" font-size="2.644">F</text>
  <text transform="matrix(0 -1 1 0 64.236 114.046)" stroke="none" fill="#000000" font-family="'Arial'" font-size="2.644">Cable to top</text>
  <text transform="matrix(0 -1 1 0 70.902 138.007)" stroke="none" fill="#000000" font-family="'Arial'" font-size="2.644">Cable to bottom</text>
  <text x="52.204" y="119.915" stroke="none" fill="#000000" font-family="'Arial'" font-size="2.644">P8</text>
  <text x="52.204" y="130.794" stroke="none" fill="#000000" font-family="'Arial'" font-size="2.644">P9</text>
  <text x="81.891" y="184.448" stroke="none" fill="#000000" font-family="'Arial'" font-size="2.644">0W6342-001</text>
  <text x="81.891" y="195.687" stroke="none" fill="#000000" font-family="'Arial'" font-size="2.644">0W6342-003</text>
  <text x="81.891" y="206.929" stroke="none" fill="#000000" font-family="'Arial'" font-size="2.644">0W6342-002</text>
  <text transform="matrix(0 -1 1 0 9.394 218.51)" stroke="none" fill="#000000" font-family="'Arial'" font-size="2.644">SBS board</text>
  <text transform="matrix(0 -1 1 0 20.306 216.776)" stroke="none" fill="#000000" font-family="'Arial'" font-size="1.585">SBS_CONT_IN</text>
  <text transform="matrix(0 -1 1 0 23.731 213.687)" stroke="none" fill="#FFFFFF" font-family="'Arial'" font-size="2.644">J1214</text>
  <text x="24.379" y="152.032" stroke="none" fill="#000000" font-family="'Arial'" font-size="2.644">P4</text>
  <text x="24.379" y="169.641" stroke="none" fill="#000000" font-family="'Arial'" font-size="2.644">P5</text>
  <text x="24.379" y="186.502" stroke="none" fill="#FFFFFF" font-family="'Arial'" font-size="2.644">P11</text>
  <text x="24.379" y="210.855" stroke="none" fill="#FFFFFF" font-family="'Arial'" font-size="2.644">P11</text>
  <text transform="matrix(0 -1 1 0 23.731 188.584)" stroke="none" fill="#FFFFFF" font-family="'Arial'" font-size="2.644">J663</text>
  <text transform="matrix(0 -1 1 0 23.731 171.348)" stroke="none" fill="#000000" font-family="'Arial'" font-size="2.644">J662</text>
  <text transform="matrix(0 -1 1 0 23.731 154.489)" stroke="none" fill="#000000" font-family="'Arial'" font-size="2.644">J661</text>
  <g>
   <text transform="matrix(0 -1 1 0 19.178 192.894)" stroke="none" fill="#000000" font-family="'Arial'" font-size="1.585">SBS controller, </text>
   <text transform="matrix(0 -1 1 0 20.943 192.894)" stroke="none" fill="#000000" font-family="'Arial'" font-size="1.585">status, control</text>
  </g>
  <text transform="matrix(0 -1 1 0 20.12 175.225)" stroke="none" fill="#000000" font-family="'Arial'" font-size="1.322">ABUs main controller</text>
  <g>
   <text transform="matrix(0 -1 1 0 19.178 158.167)" stroke="none" fill="#000000" font-family="'Arial'" font-size="1.585">Main controller, </text>
   <text transform="matrix(0 -1 1 0 20.943 158.167)" stroke="none" fill="#000000" font-family="'Arial'" font-size="1.585">status, control</text>
  </g>
  <text transform="matrix(0 -1 1 0 9.394 163.058)" stroke="none" fill="#000000" font-family="'Arial'" font-size="2.644">Interface board</text>
  <text transform="matrix(0 -1 1 0 5.911 174.332)" stroke="none" fill="#000000" font-family="'Arial'" font-size="2.644">0W6340</text>
  <text transform="matrix(0 -1 1 0 12.768 186.929)" stroke="none" fill="#000000" font-family="'Arial'" font-size="1.322">J670 D- Sub 15</text>
  <text transform="matrix(0 -1 1 0 14.81 186.388)" stroke="none" fill="#000000" font-family="'Arial'" font-size="1.322">ABUS relay PCB</text>
  <text x="62.545" y="169.129" stroke="none" fill="#000000" font-family="'Arial'" font-size="2.644">CBOX3</text>
  <text x="52.204" y="179.175" stroke="none" fill="#000000" font-family="'Arial'" font-size="2.644">P16</text>
  <text x="52.204" y="189.258" stroke="none" fill="#000000" font-family="'Arial'" font-size="2.644">P17</text>
  <text x="52.204" y="222.326" stroke="none" fill="#000000" font-family="'Arial'" font-size="2.644">P20</text>
  <text transform="matrix(0 -1 1 0 59.789 179.088)" stroke="none" fill="#000000" font-family="'Arial'" font-size="2.644">A</text>
  <text transform="matrix(0 -1 1 0 59.789 189.17)" stroke="none" fill="#000000" font-family="'Arial'" font-size="2.644">B</text>
  <text transform="matrix(0 -1 1 0 59.789 200.528)" stroke="none" fill="#000000" font-family="'Arial'" font-size="2.644">C</text>
  <text transform="matrix(0 -1 1 0 59.789 211.408)" stroke="none" fill="#000000" font-family="'Arial'" font-size="2.644">D</text>
  <text transform="matrix(0 -1 1 0 59.789 222.239)" stroke="none" fill="#000000" font-family="'Arial'" font-size="2.644">E</text>
  <text x="78.614" y="179.175" stroke="none" fill="#000000" font-family="'Arial'" font-size="2.644">P1</text>
  <text x="77.879" y="222.326" stroke="none" fill="#000000" font-family="'Arial'" font-size="2.644">P5</text>
  <text transform="matrix(0 -1 1 0 76.772 221.798)" stroke="none" fill="#000000" font-family="'Arial'" font-size="2.644">J</text>
  <text transform="matrix(0 -1 1 0 76.772 210.234)" stroke="none" fill="#000000" font-family="'Arial'" font-size="2.644">I</text>
  <text transform="matrix(0 -1 1 0 76.772 200.528)" stroke="none" fill="#000000" font-family="'Arial'" font-size="2.644">H</text>
  <text transform="matrix(0 -1 1 0 76.772 189.463)" stroke="none" fill="#000000" font-family="'Arial'" font-size="2.644">G</text>
  <text transform="matrix(0 -1 1 0 76.772 178.939)" stroke="none" fill="#000000" font-family="'Arial'" font-size="2.644">F</text>
  <text transform="matrix(0 -1 1 0 76.772 210.234)" stroke="none" fill="#000000" font-family="'Arial'" font-size="2.644">I</text>
  <text transform="matrix(0 -1 1 0 76.772 200.528)" stroke="none" fill="#000000" font-family="'Arial'" font-size="2.644">H</text>
  <text transform="matrix(0 -1 1 0 76.772 189.463)" stroke="none" fill="#000000" font-family="'Arial'" font-size="2.644">G</text>
  <text transform="matrix(0 -1 1 0 76.772 178.939)" stroke="none" fill="#000000" font-family="'Arial'" font-size="2.644">F</text>
  <text transform="matrix(0 -1 1 0 64.236 194.602)" stroke="none" fill="#000000" font-family="'Arial'" font-size="2.644">Cable to top</text>
  <text transform="matrix(0 -1 1 0 70.902 218.562)" stroke="none" fill="#000000" font-family="'Arial'" font-size="2.644">Cable to bottom</text>
  <text x="52.204" y="200.469" stroke="none" fill="#000000" font-family="'Arial'" font-size="2.644">P18</text>
  <text x="52.204" y="211.349" stroke="none" fill="#000000" font-family="'Arial'" font-size="2.644">P19</text>
  <g>
   <text x="83.941" y="187.798" stroke="none" fill="#000000" font-family="'Arial'" font-size="2.115">Terminator</text>
   <text x="83.941" y="190.268" stroke="none" fill="#000000" font-family="'Arial'" font-size="2.115">W102</text>
  </g>
  <g>
   <text x="83.941" y="199.038" stroke="none" fill="#000000" font-family="'Arial'" font-size="2.115">Terminator</text>
   <text x="83.941" y="201.508" stroke="none" fill="#000000" font-family="'Arial'" font-size="2.115">W103</text>
  </g>
  <g>
   <text x="83.941" y="210.278" stroke="none" fill="#000000" font-family="'Arial'" font-size="2.115">Terminator</text>
   <text x="83.941" y="212.747" stroke="none" fill="#000000" font-family="'Arial'" font-size="2.115">W104</text>
  </g>
 </g>
 <g id="callout_x0020_layer">
 </g>
</svg>
