<?xml version="1.0" encoding="UTF-8"?>
<!-- Generator: PTC Arbortext IsoDraw 7.4 M001 -->
<svg xmlns="http://www.w3.org/2000/svg" xmlns:xlink="http://www.w3.org/1999/xlink" width="120mm" height="110.463mm" viewBox="0 0 120 110.463" fill-rule="evenodd" clip-rule="evenodd" stroke="#000000" stroke-linecap="round" fill="none" xml:space="preserve" preserveAspectRatio="xMidYMid meet" zoomAndPan="magnify" version="1.1" contentScriptType="text/ecmascript" contentStyleType="text/css">
 <g id="Standard_x0020_layer">
  <polygon stroke-width="0.2" points="10.189 21.277 15.368 21.277 15.368 28.181 10.189 28.181 10.189 21.277"/>
  <g>
   <line stroke="#FFFFFF" stroke-width="2" x1="15.368" y1="22.628" x2="15.368" y2="26.832"/>
   <line stroke-width="0.7" x1="15.368" y1="21.277" x2="15.368" y2="28.181"/>
  </g>
  <g>
   <line stroke="#FFFFFF" stroke-width="2" x1="16.718" y1="24.73" x2="31.902" y2="24.73"/>
   <line stroke-width="0.7" x1="15.368" y1="24.73" x2="33.252" y2="24.73"/>
  </g>
  <polyline stroke-width="0.2" points="17.03 17.635 16.303 17.635 9.051 31.657 7.73 31.657"/>
  <polygon stroke-width="0.2" points="9.887 57.119 15.067 57.119 15.067 64.024 9.887 64.024 9.887 57.119"/>
  <line stroke-width="0.2" x1="54.445" y1="50.174" x2="95.248" y2="50.174"/>
  <line stroke-width="0.2" x1="54.445" y1="55.499" x2="95.192" y2="55.499"/>
  <line stroke-width="0.2" x1="54.445" y1="61.518" x2="95.349" y2="61.518"/>
  <line stroke-width="0.2" x1="54.445" y1="66.849" x2="95.135" y2="66.849"/>
  <g>
   <line stroke="#FFFFFF" stroke-width="2" x1="15.067" y1="58.469" x2="15.067" y2="62.673"/>
   <line stroke-width="0.7" x1="15.067" y1="57.119" x2="15.067" y2="64.024"/>
  </g>
  <g>
   <line stroke="#FFFFFF" stroke-width="2" x1="16.417" y1="60.572" x2="31.6" y2="60.572"/>
   <line stroke-width="0.7" x1="15.067" y1="60.572" x2="32.951" y2="60.572"/>
  </g>
  <polyline stroke-width="0.2" points="16.673 53.476 15.948 53.476 8.695 67.498 7.373 67.498"/>
  <path stroke-width="0.2" stroke-dasharray="2 2" d="M77.507 0.1L77.507 109.558L117.817 109.558L117.817 0.1L78.507 0.1"/>
  <line stroke-width="0.2" x1="78.507" y1="0.1" x2="77.507" y2="0.1"/>
  <g>
   <path stroke-width="0.2" d="M96.375 50.174C96.375 49.552 95.87 49.048 95.248 49.048C94.626 49.048 94.12 49.552 94.12 50.174C94.12 50.798 94.626 51.301 95.248 51.301C95.87 51.301 96.375 50.798 96.375 50.174"/>
  </g>
  <g>
   <path stroke-width="0.2" d="M96.319 55.499C96.319 54.877 95.816 54.371 95.192 54.371C94.57 54.371 94.066 54.877 94.066 55.499C94.066 56.121 94.57 56.625 95.192 56.625C95.816 56.625 96.319 56.121 96.319 55.499"/>
  </g>
  <g>
   <path stroke-width="0.2" d="M96.477 61.518C96.477 60.896 95.971 60.392 95.349 60.392C94.727 60.392 94.222 60.896 94.222 61.518C94.222 62.14 94.727 62.646 95.349 62.646C95.971 62.646 96.477 62.14 96.477 61.518"/>
  </g>
  <g>
   <path stroke-width="0.2" d="M96.262 66.849C96.262 66.227 95.757 65.722 95.135 65.722C94.513 65.722 94.007 66.227 94.007 66.849C94.007 67.471 94.513 67.977 95.135 67.977C95.757 67.977 96.262 67.471 96.262 66.849"/>
  </g>
  <polygon stroke-width="0.2" points="92.962 48.481 92.962 69.774 97.48 69.774 97.48 48.481 92.962 48.481"/>
  <g>
   <path stroke-width="0.2" d="M96.614 13.721C96.614 13.098 96.109 12.593 95.486 12.593C94.864 12.593 94.359 13.098 94.359 13.721C94.359 14.343 94.864 14.846 95.486 14.846C96.109 14.846 96.614 14.343 96.614 13.721"/>
  </g>
  <g>
   <path stroke-width="0.2" d="M96.721 19.699C96.721 19.077 96.216 18.571 95.594 18.571C94.971 18.571 94.468 19.077 94.468 19.699C94.468 20.321 94.971 20.826 95.594 20.826C96.216 20.826 96.721 20.321 96.721 19.699"/>
  </g>
  <g>
   <path stroke-width="0.2" d="M96.757 25.375C96.757 24.751 96.253 24.248 95.629 24.248C95.007 24.248 94.503 24.751 94.503 25.375C94.503 25.996 95.007 26.501 95.629 26.501C96.253 26.501 96.757 25.996 96.757 25.375"/>
  </g>
  <g>
   <path stroke-width="0.2" d="M96.614 31.422C96.614 30.8 96.109 30.295 95.486 30.295C94.864 30.295 94.359 30.8 94.359 31.422C94.359 32.045 94.864 32.549 95.486 32.549C96.109 32.549 96.614 32.045 96.614 31.422"/>
  </g>
  <polygon stroke-width="0.2" points="92.962 12.007 92.962 34.067 97.528 34.067 97.528 12.007 92.962 12.007"/>
  <polygon stroke-width="0.2" points="44.74 11.157 54.445 11.157 54.445 33.887 44.74 33.887 44.74 11.157"/>
  <polygon stroke-width="0.2" points="44.74 28.211 44.74 33.887 54.445 33.887 54.445 28.211 44.74 28.211"/>
  <polygon stroke-width="0.2" points="44.74 22.536 44.74 28.211 54.445 28.211 54.445 22.536 44.74 22.536"/>
  <polygon stroke-width="0.2" points="44.74 16.861 44.74 22.536 54.445 22.536 54.445 16.861 44.74 16.861"/>
  <line stroke-width="0.353" x1="33.252" y1="24.73" x2="44.74" y2="14.506"/>
  <line stroke-width="0.353" x1="33.252" y1="24.73" x2="44.74" y2="20.329"/>
  <line stroke-width="0.353" x1="33.252" y1="24.73" x2="44.74" y2="25.375"/>
  <line stroke-width="0.353" x1="33.252" y1="24.73" x2="44.74" y2="31.05"/>
  <line stroke-width="0.2" x1="54.445" y1="13.721" x2="95.486" y2="13.721"/>
  <line stroke-width="0.2" x1="54.445" y1="19.699" x2="95.594" y2="19.699"/>
  <line stroke-width="0.2" x1="54.445" y1="25.375" x2="95.629" y2="25.375"/>
  <line stroke-width="0.2" x1="54.445" y1="31.422" x2="95.486" y2="31.422"/>
  <polygon stroke-width="0.2" points="44.74 46.957 54.445 46.957 54.445 69.688 44.74 69.688 44.74 46.957"/>
  <polygon stroke-width="0.2" points="44.74 64.012 44.74 69.688 54.445 69.688 54.445 64.012 44.74 64.012"/>
  <polygon stroke-width="0.2" points="44.74 58.337 44.74 64.012 54.445 64.012 54.445 58.337 44.74 58.337"/>
  <polygon stroke-width="0.2" points="44.74 52.661 44.74 58.337 54.445 58.337 54.445 52.661 44.74 52.661"/>
  <line stroke-width="0.353" x1="33.252" y1="60.53" x2="44.74" y2="50.307"/>
  <line stroke-width="0.353" x1="33.252" y1="60.53" x2="44.74" y2="56.128"/>
  <line stroke-width="0.353" x1="33.252" y1="60.53" x2="44.74" y2="61.174"/>
  <line stroke-width="0.353" x1="33.252" y1="60.53" x2="44.74" y2="66.849"/>
  <path stroke-width="0.2" stroke-dasharray="2 2" d="M0.25 0.1L0.25 36.923L60.978 36.923L60.978 0.1L1.25 0.1"/>
  <line stroke-width="0.2" x1="1.25" y1="0.1" x2="0.25" y2="0.1"/>
  <path stroke-width="0.2" stroke-dasharray="2 2" d="M0.25 38.767L61.103 38.767L61.103 73.058L0.25 73.058L0.25 39.767"/>
  <line stroke-width="0.2" x1="0.25" y1="39.767" x2="0.25" y2="38.767"/>
  <polygon stroke-width="0.2" points="9.887 93.62 15.067 93.62 15.067 100.524 9.887 100.524 9.887 93.62"/>
  <line stroke-width="0.2" x1="54.445" y1="86.674" x2="95.248" y2="86.674"/>
  <line stroke-width="0.2" x1="54.445" y1="91.998" x2="95.192" y2="91.998"/>
  <line stroke-width="0.2" x1="54.445" y1="98.019" x2="95.349" y2="98.019"/>
  <line stroke-width="0.2" x1="54.445" y1="103.349" x2="95.135" y2="103.349"/>
  <g>
   <line stroke="#FFFFFF" stroke-width="2" x1="15.067" y1="94.969" x2="15.067" y2="99.174"/>
   <line stroke-width="0.7" x1="15.067" y1="93.62" x2="15.067" y2="100.524"/>
  </g>
  <g>
   <line stroke="#FFFFFF" stroke-width="2" x1="16.417" y1="97.072" x2="31.6" y2="97.072"/>
   <line stroke-width="0.7" x1="15.067" y1="97.072" x2="32.951" y2="97.072"/>
  </g>
  <polyline stroke-width="0.2" points="16.673 89.977 15.948 89.977 8.695 103.998 7.373 103.998"/>
  <g>
   <path stroke-width="0.2" d="M96.375 86.674C96.375 86.052 95.87 85.548 95.248 85.548C94.626 85.548 94.12 86.052 94.12 86.674C94.12 87.298 94.626 87.802 95.248 87.802C95.87 87.802 96.375 87.298 96.375 86.674"/>
  </g>
  <g>
   <path stroke-width="0.2" d="M96.319 91.998C96.319 91.376 95.816 90.871 95.192 90.871C94.57 90.871 94.066 91.376 94.066 91.998C94.066 92.62 94.57 93.126 95.192 93.126C95.816 93.126 96.319 92.62 96.319 91.998"/>
  </g>
  <g>
   <path stroke-width="0.2" d="M96.477 98.019C96.477 97.397 95.971 96.891 95.349 96.891C94.727 96.891 94.222 97.397 94.222 98.019C94.222 98.641 94.727 99.146 95.349 99.146C95.971 99.146 96.477 98.641 96.477 98.019"/>
  </g>
  <g>
   <path stroke-width="0.2" d="M96.262 103.349C96.262 102.727 95.757 102.222 95.135 102.222C94.513 102.222 94.007 102.727 94.007 103.349C94.007 103.971 94.513 104.477 95.135 104.477C95.757 104.477 96.262 103.971 96.262 103.349"/>
  </g>
  <polygon stroke-width="0.2" points="92.962 84.981 92.962 106.274 97.48 106.274 97.48 84.981 92.962 84.981"/>
  <polygon stroke-width="0.2" points="44.74 83.457 54.445 83.457 54.445 106.188 44.74 106.188 44.74 83.457"/>
  <polygon stroke-width="0.2" points="44.74 100.512 44.74 106.188 54.445 106.188 54.445 100.512 44.74 100.512"/>
  <polygon stroke-width="0.2" points="44.74 94.837 44.74 100.512 54.445 100.512 54.445 94.837 44.74 94.837"/>
  <polygon stroke-width="0.2" points="44.74 89.161 44.74 94.837 54.445 94.837 54.445 89.161 44.74 89.161"/>
  <line stroke-width="0.353" x1="33.252" y1="97.03" x2="44.74" y2="86.807"/>
  <line stroke-width="0.353" x1="33.252" y1="97.03" x2="44.74" y2="92.629"/>
  <line stroke-width="0.353" x1="33.252" y1="97.03" x2="44.74" y2="97.674"/>
  <line stroke-width="0.353" x1="33.252" y1="97.03" x2="44.74" y2="103.349"/>
  <path stroke-width="0.2" stroke-dasharray="2 2" d="M0.25 75.266L61.103 75.266L61.103 109.558L0.25 109.558L0.25 76.266"/>
  <line stroke-width="0.2" x1="0.25" y1="76.266" x2="0.25" y2="75.266"/>
 </g>
 <g id="120mm_x0020_hidden_x0020_Schneider_x0020_layer_x0020_for_x0020_editor">
  <polygon stroke="none" points="0 101.463 0 110.463 120 110.463 120 101.463 0 101.463"/>
 </g>
 <g id="cutout_x0020_layer">
 </g>
 <g id="outline_x0020_layer">
 </g>
 <g id="zoom_x0020_layer">
 </g>
 <g id="arrow_x0020_layer">
 </g>
 <g id="_x0020_cable_x0020_layer">
 </g>
 <g id="symbol_x0020_layer">
 </g>
 <g id="_x0020_text_x0020_layer">
  <text x="1.024" y="42.551" stroke="none" fill="#000000" font-family="'Arial'" font-size="3.528">Battery cabinet 2</text>
  <text x="1.024" y="35.915" stroke="none" fill="#000000" font-family="'Arial'" font-size="3.528">Temperature sensor</text>
  <g>
   <text x="81.808" y="3.726" stroke="none" fill="#000000" font-family="'Arial'" font-size="3.528">External connection </text>
   <text x="81.808" y="7.605" stroke="none" fill="#000000" font-family="'Arial'" font-size="3.528">board 0P2553</text>
  </g>
  <text x="1.024" y="4.046" stroke="none" fill="#000000" font-family="'Arial'" font-size="3.528">Battery cabinet 1</text>
  <text transform="matrix(0.997 0.072 0 0.997 24.553 64.54)" stroke="none" fill="#000000" font-family="'Arial'" font-size="3.528">Black</text>
  <text transform="matrix(0.981 0.102 0 0.981 35.286 50.155)" stroke="none" fill="#000000" font-family="'Arial'" font-size="3.528">Red</text>
  <text transform="matrix(0.996 0.075 0 0.996 24.564 54.671)" stroke="none" fill="#000000" font-family="'Arial'" font-size="3.528">Brown</text>
  <text transform="matrix(0.975 0.03 0 0.975 33.661 69.156)" stroke="none" fill="#000000" font-family="'Arial'" font-size="3.528">Yellow</text>
  <text x="1.024" y="71.918" stroke="none" fill="#000000" font-family="'Arial'" font-size="3.528">Temperature sensor</text>
  <g>
   <line stroke="#FFFFFF" stroke-width="1" x1="41.24" y1="53.42" x2="38.557" y2="51.042"/>
   <line stroke-width="0.106" x1="41.24" y1="53.42" x2="38.557" y2="51.042"/>
  </g>
  <g>
   <line stroke="#FFFFFF" stroke-width="1" x1="38.996" y1="58.329" x2="32.941" y2="55.74"/>
   <line stroke-width="0.106" x1="38.996" y1="58.329" x2="32.941" y2="55.74"/>
  </g>
  <g>
   <line stroke="#FFFFFF" stroke-width="1" x1="39.895" y1="60.902" x2="33.348" y2="64.32"/>
   <line stroke-width="0.106" x1="39.895" y1="60.902" x2="33.348" y2="64.32"/>
  </g>
  <g>
   <line stroke="#FFFFFF" stroke-width="1" x1="41.42" y1="65.022" x2="40.472" y2="67.094"/>
   <line stroke-width="0.106" x1="41.42" y1="65.022" x2="40.472" y2="67.094"/>
  </g>
  <text transform="matrix(0.997 0.072 0 0.997 23.885 29.262)" stroke="none" fill="#000000" font-family="'Arial'" font-size="3.528">Black</text>
  <text transform="matrix(0.981 0.102 0 0.981 34.79 14.42)" stroke="none" fill="#000000" font-family="'Arial'" font-size="3.528">Red</text>
  <text transform="matrix(0.996 0.075 0 0.996 24.068 18.937)" stroke="none" fill="#000000" font-family="'Arial'" font-size="3.528">Brown</text>
  <text transform="matrix(0.975 0.03 0 0.975 33.78 33.381)" stroke="none" fill="#000000" font-family="'Arial'" font-size="3.528">Yellow</text>
  <g>
   <line stroke="#FFFFFF" stroke-width="1" x1="40.744" y1="17.687" x2="38.063" y2="15.307"/>
   <line stroke-width="0.106" x1="40.744" y1="17.687" x2="38.063" y2="15.307"/>
  </g>
  <g>
   <line stroke="#FFFFFF" stroke-width="1" x1="38.5" y1="22.594" x2="32.445" y2="20.007"/>
   <line stroke-width="0.106" x1="38.5" y1="22.594" x2="32.445" y2="20.007"/>
  </g>
  <g>
   <line stroke="#FFFFFF" stroke-width="1" x1="39.399" y1="25.167" x2="32.853" y2="28.585"/>
   <line stroke-width="0.106" x1="39.399" y1="25.167" x2="32.853" y2="28.585"/>
  </g>
  <g>
   <line stroke="#FFFFFF" stroke-width="1" x1="40.941" y1="28.96" x2="40.097" y2="30.803"/>
   <line stroke-width="0.106" x1="40.941" y1="28.96" x2="40.097" y2="30.803"/>
  </g>
  <text x="1.024" y="79.051" stroke="none" fill="#000000" font-family="'Arial'" font-size="3.528">Battery cabinet 3</text>
  <text transform="matrix(0.997 0.072 0 0.997 24.795 101.221)" stroke="none" fill="#000000" font-family="'Arial'" font-size="3.528">Black</text>
  <text transform="matrix(0.981 0.102 0 0.981 35.286 86.655)" stroke="none" fill="#000000" font-family="'Arial'" font-size="3.528">Red</text>
  <text transform="matrix(0.996 0.075 0 0.996 24.564 91.171)" stroke="none" fill="#000000" font-family="'Arial'" font-size="3.528">Brown</text>
  <text transform="matrix(0.975 0.03 0 0.975 33.481 106.019)" stroke="none" fill="#000000" font-family="'Arial'" font-size="3.528">Yellow</text>
  <text x="1.024" y="108.418" stroke="none" fill="#000000" font-family="'Arial'" font-size="3.528">Temperature sensor</text>
  <g>
   <line stroke="#FFFFFF" stroke-width="1" x1="40.573" y1="89.608" x2="37.89" y2="87.23"/>
   <line stroke-width="0.106" x1="40.573" y1="89.608" x2="37.89" y2="87.23"/>
  </g>
  <g>
   <line stroke="#FFFFFF" stroke-width="1" x1="38.328" y1="94.518" x2="32.273" y2="91.929"/>
   <line stroke-width="0.106" x1="38.328" y1="94.518" x2="32.273" y2="91.929"/>
  </g>
  <g>
   <line stroke="#FFFFFF" stroke-width="1" x1="39.226" y1="97.09" x2="33.308" y2="100.152"/>
   <line stroke-width="0.106" x1="39.226" y1="97.09" x2="33.308" y2="100.152"/>
  </g>
  <g>
   <line stroke="#FFFFFF" stroke-width="1" x1="40.787" y1="101.23" x2="39.682" y2="103.646"/>
   <line stroke-width="0.106" x1="40.787" y1="101.23" x2="39.682" y2="103.646"/>
  </g>
 </g>
 <g id="text-_x0020_DO_x0020_NOT_x0020_translate">
  <text x="90.248" y="11.076" stroke="none" fill="#000000" font-family="'Arial'" font-size="3.528">J1603</text>
  <text x="90.248" y="47.453" stroke="none" fill="#000000" font-family="'Arial'" font-size="3.528">J1604</text>
  <text x="98.106" y="50.994" stroke="none" fill="#000000" font-family="'Arial'" font-size="3.528">1</text>
  <text x="101.18" y="50.994" stroke="none" fill="#000000" font-family="'Arial'" font-size="3.528">+24 V</text>
  <text x="98.106" y="56.325" stroke="none" fill="#000000" font-family="'Arial'" font-size="3.528">2</text>
  <text x="101.18" y="56.325" stroke="none" fill="#000000" font-family="'Arial'" font-size="3.528">IN</text>
  <text x="98.106" y="62.454" stroke="none" fill="#000000" font-family="'Arial'" font-size="3.528">3</text>
  <text x="101.18" y="62.454" stroke="none" fill="#000000" font-family="'Arial'" font-size="3.528">GND</text>
  <text x="98.106" y="67.483" stroke="none" fill="#000000" font-family="'Arial'" font-size="3.528">4</text>
  <text x="101.18" y="67.483" stroke="none" fill="#000000" font-family="'Arial'" font-size="3.528">SHLD</text>
  <text x="98.106" y="14.422" stroke="none" fill="#000000" font-family="'Arial'" font-size="3.528">1</text>
  <text x="101.18" y="14.422" stroke="none" fill="#000000" font-family="'Arial'" font-size="3.528">+24 V</text>
  <text x="98.106" y="20.65" stroke="none" fill="#000000" font-family="'Arial'" font-size="3.528">2</text>
  <text x="101.18" y="20.65" stroke="none" fill="#000000" font-family="'Arial'" font-size="3.528">IN</text>
  <text x="98.106" y="26.381" stroke="none" fill="#000000" font-family="'Arial'" font-size="3.528">3</text>
  <text x="101.18" y="26.381" stroke="none" fill="#000000" font-family="'Arial'" font-size="3.528">GND</text>
  <text x="98.106" y="32.21" stroke="none" fill="#000000" font-family="'Arial'" font-size="3.528">4</text>
  <text x="101.18" y="32.21" stroke="none" fill="#000000" font-family="'Arial'" font-size="3.528">SHLD</text>
  <text x="46.267" y="46.433" stroke="none" fill="#000000" font-family="'Arial'" font-size="3.528">TB1</text>
  <text x="46.267" y="10.5" stroke="none" fill="#000000" font-family="'Arial'" font-size="3.528">TB1</text>
  <text x="48.521" y="14.769" stroke="none" fill="#000000" font-family="'Arial'" font-size="3.528">5</text>
  <text x="48.521" y="20.181" stroke="none" fill="#000000" font-family="'Arial'" font-size="3.528">6</text>
  <text x="48.521" y="26.536" stroke="none" fill="#000000" font-family="'Arial'" font-size="3.528">7</text>
  <text x="48.521" y="31.667" stroke="none" fill="#000000" font-family="'Arial'" font-size="3.528">8</text>
  <text x="48.521" y="50.57" stroke="none" fill="#000000" font-family="'Arial'" font-size="3.528">5</text>
  <text x="48.521" y="56.389" stroke="none" fill="#000000" font-family="'Arial'" font-size="3.528">6</text>
  <text x="48.521" y="62.03" stroke="none" fill="#000000" font-family="'Arial'" font-size="3.528">7</text>
  <text x="48.521" y="67.466" stroke="none" fill="#000000" font-family="'Arial'" font-size="3.528">8</text>
  <text x="48.521" y="87.069" stroke="none" fill="#000000" font-family="'Arial'" font-size="3.528">5</text>
  <text x="48.521" y="92.888" stroke="none" fill="#000000" font-family="'Arial'" font-size="3.528">6</text>
  <text x="48.521" y="98.427" stroke="none" fill="#000000" font-family="'Arial'" font-size="3.528">7</text>
  <text x="48.521" y="103.966" stroke="none" fill="#000000" font-family="'Arial'" font-size="3.528">8</text>
  <text x="46.267" y="82.933" stroke="none" fill="#000000" font-family="'Arial'" font-size="3.528">TB1</text>
  <text x="90.248" y="83.748" stroke="none" fill="#000000" font-family="'Arial'" font-size="3.528">J1605</text>
  <text x="98.106" y="87.495" stroke="none" fill="#000000" font-family="'Arial'" font-size="3.528">1</text>
  <text x="101.18" y="87.495" stroke="none" fill="#000000" font-family="'Arial'" font-size="3.528">+24 V</text>
  <text x="98.106" y="92.825" stroke="none" fill="#000000" font-family="'Arial'" font-size="3.528">2</text>
  <text x="101.18" y="92.825" stroke="none" fill="#000000" font-family="'Arial'" font-size="3.528">IN</text>
  <text x="98.106" y="98.953" stroke="none" fill="#000000" font-family="'Arial'" font-size="3.528">3</text>
  <text x="101.18" y="98.953" stroke="none" fill="#000000" font-family="'Arial'" font-size="3.528">GND</text>
  <text x="98.106" y="103.983" stroke="none" fill="#000000" font-family="'Arial'" font-size="3.528">4</text>
  <text x="101.18" y="103.983" stroke="none" fill="#000000" font-family="'Arial'" font-size="3.528">SHLD</text>
 </g>
 <g id="_x0020_callout_x0020_layer">
 </g>
</svg>
