<?xml version="1.0" encoding="UTF-8"?>
<!-- Generator: PTC Arbortext IsoDraw 7.4 M001 -->
<svg xmlns="http://www.w3.org/2000/svg" xmlns:xlink="http://www.w3.org/1999/xlink" width="170mm" height="229.247mm" viewBox="0 0 170 229.247" fill-rule="evenodd" clip-rule="evenodd" stroke="#000000" stroke-linecap="round" fill="none" xml:space="preserve" preserveAspectRatio="xMidYMid meet" zoomAndPan="magnify" version="1.1" contentScriptType="text/ecmascript" contentStyleType="text/css">
 <g id="_x0020_fill_x0020_layer">
 </g>
 <g id="Standard_x0020_layer">
  <polygon stroke-width="0.2" points="21.637 1.589 21.637 67.03 45.899 67.03 45.899 1.589 21.637 1.589"/>
  <path stroke-width="0.2" fill="#008CDB" d="M22.696 12.375L22.696 23.202 27.091 23.202 27.091 12.375 22.696 12.375z"/>
  <path stroke-width="0.2" fill="#FF0D00" d="M22.696 23.242L22.696 34.069 27.091 34.069 27.091 23.242 22.696 23.242z"/>
  <path stroke-width="0.2" fill="#01889C" d="M22.696 34.107L22.696 44.933 27.091 44.933 27.091 34.107 22.696 34.107z"/>
  <path stroke-width="0.2" fill="#FFE500" d="M22.696 44.972L22.696 55.799 27.091 55.799 27.091 44.972 22.696 44.972z"/>
  <path stroke-width="0.2" fill="#BFBFBF" d="M22.696 55.838L22.696 66.665 27.091 66.665 27.091 55.838 22.696 55.838z"/>
  <path stroke-width="0.2" fill="#008CDB" d="M17.824 16.716L17.824 18.983 23.349 18.983 23.349 16.716 17.824 16.716z"/>
  <path stroke-width="0.2" fill="#FF0D00" d="M17.824 26.832L17.824 29.1 23.349 29.1 23.349 26.832 17.824 26.832z"/>
  <path stroke-width="0.2" fill="#01889C" d="M17.824 38.072L17.824 40.34 23.349 40.34 23.349 38.072 17.824 38.072z"/>
  <path stroke-width="0.2" fill="#FFE500" d="M17.824 48.938L17.824 51.206 23.349 51.206 23.349 48.938 17.824 48.938z"/>
  <path stroke-width="0.2" fill="#BFBFBF" d="M17.824 59.804L17.824 62.07 23.349 62.07 23.349 59.804 17.824 59.804z"/>
  <path stroke-width="0.2" fill="#008CDB" d="M39.93 12.375L39.93 23.202 44.326 23.202 44.326 12.375 39.93 12.375z"/>
  <path stroke-width="0.2" fill="#FF0D00" d="M39.93 23.242L39.93 34.069 44.326 34.069 44.326 23.242 39.93 23.242z"/>
  <path stroke-width="0.2" fill="#01889C" d="M39.93 34.107L39.93 44.933 44.326 44.933 44.326 34.107 39.93 34.107z"/>
  <path stroke-width="0.2" fill="#FFE500" d="M39.93 44.972L39.93 55.799 44.326 55.799 44.326 44.972 39.93 44.972z"/>
  <path stroke-width="0.2" fill="#BFBFBF" d="M39.93 55.838L39.93 66.665 44.326 66.665 44.326 55.838 39.93 55.838z"/>
  <path stroke-width="0.2" fill="#008CDB" d="M43.676 16.716L43.676 18.983 49.201 18.983 49.201 16.716 43.676 16.716z"/>
  <path stroke-width="0.2" fill="#FF0D00" d="M43.676 26.832L43.676 29.1 49.201 29.1 49.201 26.832 43.676 26.832z"/>
  <path stroke-width="0.2" fill="#01889C" d="M43.676 38.072L43.676 40.34 49.201 40.34 49.201 38.072 43.676 38.072z"/>
  <path stroke-width="0.2" fill="#FFE500" d="M43.676 48.938L43.676 51.206 49.201 51.206 49.201 48.938 43.676 48.938z"/>
  <path stroke-width="0.2" fill="#BFBFBF" d="M43.676 59.804L43.676 62.07 49.201 62.07 49.201 59.804 43.676 59.804z"/>
  <polygon stroke-width="0.2" points="23.015 2.737 23.015 11.233 44.216 11.233 44.216 2.737 23.015 2.737"/>
  <polygon stroke-width="0.2" points="4.833 36.158 4.833 42.543 17.333 42.543 17.333 36.158 4.833 36.158"/>
  <polygon stroke-width="0.2" points="4.517 46.756 4.517 53.323 17.288 53.323 17.288 46.756 4.517 46.756"/>
  <polygon stroke-width="0.2" points="56.945 2.548 56.945 13.441 84.028 13.441 84.028 2.548 56.945 2.548"/>
  <polygon stroke-width="0.2" points="58.299 2.548 58.299 13.441 61.42 13.441 61.42 2.548 58.299 2.548"/>
  <polygon stroke-width="0.2" points="51.865 6.865 51.865 9.731 56.945 9.731 56.945 6.865 51.865 6.865"/>
  <polygon stroke="none" fill="#000000" points="31.132 12.942 30.426 16.942 31.836 16.942"/>
  <line stroke-width="0.2" x1="31.132" y1="65.98" x2="31.132" y2="16.542"/>
  <line stroke-width="0.2" stroke-dasharray="1 1" x1="33.615" y1="11.233" x2="33.615" y2="64.582"/>
  <line stroke-width="0.2" x1="33.615" y1="64.582" x2="33.615" y2="65.582"/>
  <polygon stroke="none" fill="#000000" points="37.698 64.781 38.404 60.781 36.993 60.781"/>
  <line stroke-width="0.2" x1="37.698" y1="11.753" x2="37.698" y2="61.182"/>
  <polygon stroke-width="0.2" points="125.888 81.775 125.888 134.281 148.007 134.281 148.007 81.775 125.888 81.775"/>
  <polygon stroke-width="0.2" points="127.602 83.173 127.602 102.855 135.58 102.855 135.58 83.173 127.602 83.173"/>
  <polygon stroke-width="0.2" points="140.806 82.79 140.806 98.466 147.32 98.466 147.32 82.79 140.806 82.79"/>
  <path stroke-width="0.2" fill="#008CDB" d="M144.062 82.79L144.062 98.466 147.32 98.466 147.32 82.79 144.062 82.79z"/>
  <polygon stroke-width="0.2" points="140.806 99.65 140.806 115.326 147.32 115.326 147.32 99.65 140.806 99.65"/>
  <path stroke-width="0.2" fill="#BFBFBF" d="M144.062 99.65L144.062 115.326 147.32 115.326 147.32 99.65 144.062 99.65z"/>
  <polygon stroke-width="0.2" points="140.806 116.51 140.806 132.187 147.32 132.187 147.32 116.51 140.806 116.51"/>
  <path stroke-width="0.2" fill="#000000" d="M144.062 116.51L144.062 132.187 147.32 132.187 147.32 116.51 144.062 116.51z"/>
  <polygon stroke-width="0.2" points="140.806 141.614 140.806 157.29 147.32 157.29 147.32 141.614 140.806 141.614"/>
  <path stroke-width="0.2" fill="#000000" d="M144.062 141.614L144.062 157.29 147.32 157.29 147.32 141.614 144.062 141.614z"/>
  <polygon stroke-width="0.2" points="148.007 136.153 125.712 136.153 125.712 165.394 148.007 165.394 148.007 136.153"/>
  <polygon stroke-width="0.2" points="127.602 140.123 127.602 159.806 135.58 159.806 135.58 140.123 127.602 140.123"/>
  <polygon stroke-width="0.2" points="134.185 110.486 134.185 127.787 136.177 127.787 136.177 110.486 134.185 110.486"/>
  <polygon stroke-width="0.2" points="136.058 110.486 136.058 127.787 138.05 127.787 138.05 110.486 136.058 110.486"/>
  <path stroke-width="0.2" fill="#BFBFBF" d="M123.022 113.692L123.022 114.849 128.651 114.849 128.651 113.692 123.022 113.692z"/>
  <path stroke-width="0.2" fill="#BFBFBF" d="M123.022 125.682L123.022 126.84 128.651 126.84 128.651 125.682 123.022 125.682z"/>
  <path stroke-width="0.2" fill="#008CDB" d="M146.769 88.828L146.769 91.096 152.293 91.096 152.293 88.828 146.769 88.828z"/>
  <path stroke-width="0.2" fill="#BFBFBF" d="M146.769 106.438L146.769 108.706 152.293 108.706 152.293 106.438 146.769 106.438z"/>
  <path stroke-width="0.2" fill="#000000" d="M146.769 123.299L146.769 125.566 152.293 125.566 152.293 123.299 146.769 123.299z"/>
  <path stroke-width="0.2" fill="#000000" d="M146.769 147.652L146.769 149.92 152.293 149.92 152.293 147.652 146.769 147.652z"/>
  <path stroke-width="0.2" fill="#000000" d="M129.389 112.686L133.717 112.686 133.717 127.843 129.036 127.843 126.436 124.939 126.436 114.914 129.389 112.686z"/>
 </g>
 <g id="CBOX2">
  <polygon stroke-width="0.2" points="21.637 81.394 21.637 146.836 45.899 146.836 45.899 81.394 21.637 81.394"/>
  <path stroke-width="0.2" fill="#008CDB" d="M22.696 92.182L22.696 103.009 27.091 103.009 27.091 92.182 22.696 92.182z"/>
  <path stroke-width="0.2" fill="#FF0D00" d="M22.696 103.048L22.696 113.875 27.091 113.875 27.091 103.048 22.696 103.048z"/>
  <path stroke-width="0.2" fill="#01889C" d="M22.696 113.914L22.696 124.739 27.091 124.739 27.091 113.914 22.696 113.914z"/>
  <path stroke-width="0.2" fill="#FFE500" d="M22.696 124.778L22.696 135.605 27.091 135.605 27.091 124.778 22.696 124.778z"/>
  <path stroke-width="0.2" fill="#BFBFBF" d="M22.696 135.645L22.696 146.471 27.091 146.471 27.091 135.645 22.696 135.645z"/>
  <path stroke-width="0.2" fill="#008CDB" d="M17.824 96.522L17.824 98.789 23.349 98.789 23.349 96.522 17.824 96.522z"/>
  <path stroke-width="0.2" fill="#FF0D00" d="M17.824 106.638L17.824 108.906 23.349 108.906 23.349 106.638 17.824 106.638z"/>
  <path stroke-width="0.2" fill="#01889C" d="M17.824 117.878L17.824 120.146 23.349 120.146 23.349 117.878 17.824 117.878z"/>
  <path stroke-width="0.2" fill="#FFE500" d="M17.824 128.743L17.824 131.012 23.349 131.012 23.349 128.743 17.824 128.743z"/>
  <path stroke-width="0.2" fill="#BFBFBF" d="M17.824 139.61L17.824 141.877 23.349 141.877 23.349 139.61 17.824 139.61z"/>
  <path stroke-width="0.2" fill="#008CDB" d="M39.93 92.182L39.93 103.009 44.326 103.009 44.326 92.182 39.93 92.182z"/>
  <path stroke-width="0.2" fill="#FF0D00" d="M39.93 103.048L39.93 113.875 44.326 113.875 44.326 103.048 39.93 103.048z"/>
  <path stroke-width="0.2" fill="#01889C" d="M39.93 113.914L39.93 124.739 44.326 124.739 44.326 113.914 39.93 113.914z"/>
  <path stroke-width="0.2" fill="#FFE500" d="M39.93 124.778L39.93 135.605 44.326 135.605 44.326 124.778 39.93 124.778z"/>
  <path stroke-width="0.2" fill="#BFBFBF" d="M39.93 135.645L39.93 146.471 44.326 146.471 44.326 135.645 39.93 135.645z"/>
  <path stroke-width="0.2" fill="#008CDB" d="M43.676 96.522L43.676 98.789 49.201 98.789 49.201 96.522 43.676 96.522z"/>
  <path stroke-width="0.2" fill="#FF0D00" d="M43.676 106.638L43.676 108.906 49.201 108.906 49.201 106.638 43.676 106.638z"/>
  <path stroke-width="0.2" fill="#01889C" d="M43.676 117.878L43.676 120.146 49.201 120.146 49.201 117.878 43.676 117.878z"/>
  <path stroke-width="0.2" fill="#FFE500" d="M43.676 128.743L43.676 131.012 49.201 131.012 49.201 128.743 43.676 128.743z"/>
  <path stroke-width="0.2" fill="#BFBFBF" d="M43.676 139.61L43.676 141.877 49.201 141.877 49.201 139.61 43.676 139.61z"/>
  <polygon stroke-width="0.2" points="23.015 82.543 23.015 91.039 44.216 91.039 44.216 82.543 23.015 82.543"/>
  <polygon stroke="none" fill="#000000" points="31.132 92.748 30.426 96.748 31.836 96.748"/>
  <line stroke-width="0.2" x1="31.132" y1="145.787" x2="31.132" y2="96.347"/>
  <line stroke-width="0.2" stroke-dasharray="1 1" x1="33.615" y1="91.039" x2="33.615" y2="144.389"/>
  <line stroke-width="0.2" x1="33.615" y1="144.389" x2="33.615" y2="145.389"/>
  <polygon stroke="none" fill="#000000" points="37.698 144.587 38.404 140.587 36.993 140.587"/>
  <line stroke-width="0.2" x1="37.698" y1="91.56" x2="37.698" y2="140.987"/>
 </g>
 <g id="CBOX3">
  <polygon stroke-width="0.2" points="21.637 161.95 21.637 227.39 45.899 227.39 45.899 161.95 21.637 161.95"/>
  <path stroke-width="0.2" fill="#008CDB" d="M22.696 172.737L22.696 183.563 27.091 183.563 27.091 172.737 22.696 172.737z"/>
  <path stroke-width="0.2" fill="#FF0D00" d="M22.696 183.603L22.696 194.43 27.091 194.43 27.091 183.603 22.696 183.603z"/>
  <path stroke-width="0.2" fill="#01889C" d="M22.696 194.468L22.696 205.294 27.091 205.294 27.091 194.468 22.696 194.468z"/>
  <path stroke-width="0.2" fill="#FFE500" d="M22.696 205.335L22.696 216.161 27.091 216.161 27.091 205.335 22.696 205.335z"/>
  <path stroke-width="0.2" fill="#BFBFBF" d="M22.696 216.199L22.696 227.026 27.091 227.026 27.091 216.199 22.696 216.199z"/>
  <path stroke-width="0.2" fill="#008CDB" d="M17.824 177.076L17.824 179.344 23.349 179.344 23.349 177.076 17.824 177.076z"/>
  <path stroke-width="0.2" fill="#FF0D00" d="M17.824 187.193L17.824 189.461 23.349 189.461 23.349 187.193 17.824 187.193z"/>
  <path stroke-width="0.2" fill="#01889C" d="M17.824 198.433L17.824 200.7 23.349 200.7 23.349 198.433 17.824 198.433z"/>
  <path stroke-width="0.2" fill="#FFE500" d="M17.824 209.299L17.824 211.567 23.349 211.567 23.349 209.299 17.824 209.299z"/>
  <path stroke-width="0.2" fill="#BFBFBF" d="M17.824 220.164L17.824 222.431 23.349 222.431 23.349 220.164 17.824 220.164z"/>
  <path stroke-width="0.2" fill="#008CDB" d="M39.93 172.737L39.93 183.563 44.326 183.563 44.326 172.737 39.93 172.737z"/>
  <path stroke-width="0.2" fill="#FF0D00" d="M39.93 183.603L39.93 194.43 44.326 194.43 44.326 183.603 39.93 183.603z"/>
  <path stroke-width="0.2" fill="#01889C" d="M39.93 194.468L39.93 205.294 44.326 205.294 44.326 194.468 39.93 194.468z"/>
  <path stroke-width="0.2" fill="#FFE500" d="M39.93 205.335L39.93 216.161 44.326 216.161 44.326 205.335 39.93 205.335z"/>
  <path stroke-width="0.2" fill="#BFBFBF" d="M39.93 216.199L39.93 227.026 44.326 227.026 44.326 216.199 39.93 216.199z"/>
  <path stroke-width="0.2" fill="#008CDB" d="M43.676 177.076L43.676 179.344 49.201 179.344 49.201 177.076 43.676 177.076z"/>
  <path stroke-width="0.2" fill="#FF0D00" d="M43.676 187.193L43.676 189.461 49.201 189.461 49.201 187.193 43.676 187.193z"/>
  <path stroke-width="0.2" fill="#01889C" d="M43.676 198.433L43.676 200.7 49.201 200.7 49.201 198.433 43.676 198.433z"/>
  <path stroke-width="0.2" fill="#FFE500" d="M43.676 209.299L43.676 211.567 49.201 211.567 49.201 209.299 43.676 209.299z"/>
  <path stroke-width="0.2" fill="#BFBFBF" d="M43.676 220.164L43.676 222.431 49.201 222.431 49.201 220.164 43.676 220.164z"/>
  <polygon stroke-width="0.2" points="23.015 163.098 23.015 171.593 44.216 171.593 44.216 163.098 23.015 163.098"/>
  <polygon stroke="none" fill="#000000" points="31.132 173.304 30.426 177.304 31.836 177.304"/>
  <line stroke-width="0.2" x1="31.132" y1="226.342" x2="31.132" y2="176.903"/>
  <line stroke-width="0.2" stroke-dasharray="1 1" x1="33.615" y1="171.593" x2="33.615" y2="224.943"/>
  <line stroke-width="0.2" x1="33.615" y1="224.943" x2="33.615" y2="225.943"/>
  <polygon stroke="none" fill="#000000" points="37.698 225.143 38.404 221.143 36.993 221.143"/>
  <line stroke-width="0.2" x1="37.698" y1="172.115" x2="37.698" y2="221.543"/>
 </g>
 <g id="CBOX4">
  <polygon stroke-width="0.2" points="117.713 1.883 117.713 67.325 141.977 67.325 141.977 1.883 117.713 1.883"/>
  <path stroke-width="0.2" fill="#008CDB" d="M118.772 12.67L118.772 23.498 123.168 23.498 123.168 12.67 118.772 12.67z"/>
  <path stroke-width="0.2" fill="#FF0D00" d="M118.772 23.536L118.772 34.363 123.168 34.363 123.168 23.536 118.772 23.536z"/>
  <path stroke-width="0.2" fill="#01889C" d="M118.772 34.402L118.772 45.228 123.168 45.228 123.168 34.402 118.772 34.402z"/>
  <path stroke-width="0.2" fill="#FFE500" d="M118.772 45.268L118.772 56.094 123.168 56.094 123.168 45.268 118.772 45.268z"/>
  <path stroke-width="0.2" fill="#BFBFBF" d="M118.772 56.134L118.772 66.959 123.168 66.959 123.168 56.134 118.772 56.134z"/>
  <path stroke-width="0.2" fill="#008CDB" d="M113.9 17.01L113.9 19.277 119.426 19.277 119.426 17.01 113.9 17.01z"/>
  <path stroke-width="0.2" fill="#FF0D00" d="M113.9 27.126L113.9 29.394 119.426 29.394 119.426 27.126 113.9 27.126z"/>
  <path stroke-width="0.2" fill="#01889C" d="M113.9 38.366L113.9 40.634 119.426 40.634 119.426 38.366 113.9 38.366z"/>
  <path stroke-width="0.2" fill="#FFE500" d="M113.9 49.232L113.9 51.5 119.426 51.5 119.426 49.232 113.9 49.232z"/>
  <path stroke-width="0.2" fill="#BFBFBF" d="M113.9 60.098L113.9 62.365 119.426 62.365 119.426 60.098 113.9 60.098z"/>
  <path stroke-width="0.2" fill="#008CDB" d="M136.008 12.67L136.008 23.498 140.402 23.498 140.402 12.67 136.008 12.67z"/>
  <path stroke-width="0.2" fill="#FF0D00" d="M136.008 23.536L136.008 34.363 140.402 34.363 140.402 23.536 136.008 23.536z"/>
  <path stroke-width="0.2" fill="#01889C" d="M136.008 34.402L136.008 45.228 140.402 45.228 140.402 34.402 136.008 34.402z"/>
  <path stroke-width="0.2" fill="#FFE500" d="M136.008 45.268L136.008 56.094 140.402 56.094 140.402 45.268 136.008 45.268z"/>
  <path stroke-width="0.2" fill="#BFBFBF" d="M136.008 56.134L136.008 66.959 140.402 66.959 140.402 56.134 136.008 56.134z"/>
  <path stroke-width="0.2" fill="#008CDB" d="M139.753 17.01L139.753 19.277 145.278 19.277 145.278 17.01 139.753 17.01z"/>
  <path stroke-width="0.2" fill="#FF0D00" d="M139.753 27.126L139.753 29.394 145.278 29.394 145.278 27.126 139.753 27.126z"/>
  <path stroke-width="0.2" fill="#01889C" d="M139.753 38.366L139.753 40.634 145.278 40.634 145.278 38.366 139.753 38.366z"/>
  <path stroke-width="0.2" fill="#FFE500" d="M139.753 49.232L139.753 51.5 145.278 51.5 145.278 49.232 139.753 49.232z"/>
  <path stroke-width="0.2" fill="#BFBFBF" d="M139.753 60.098L139.753 62.365 145.278 62.365 145.278 60.098 139.753 60.098z"/>
  <polygon stroke-width="0.2" points="119.091 3.032 119.091 11.528 140.293 11.528 140.293 3.032 119.091 3.032"/>
  <polygon stroke="none" fill="#000000" points="127.209 13.237 126.503 17.236 127.914 17.236"/>
  <line stroke-width="0.2" x1="127.209" y1="66.275" x2="127.209" y2="16.836"/>
  <line stroke-width="0.2" stroke-dasharray="1 1" x1="129.692" y1="11.528" x2="129.692" y2="64.878"/>
  <line stroke-width="0.2" x1="129.692" y1="64.878" x2="129.692" y2="65.878"/>
  <polygon stroke="none" fill="#000000" points="133.776 65.076 134.48 61.076 133.069 61.076"/>
  <line stroke-width="0.2" x1="133.776" y1="12.048" x2="133.776" y2="61.476"/>
  <text transform="matrix(0 -1 1 0 138.848 50.167)" stroke="none" fill="#000000" font-family="'Arial'" font-size="2.644">I</text>
  <text transform="matrix(0 -1 1 0 138.848 40.463)" stroke="none" fill="#000000" font-family="'Arial'" font-size="2.644">H</text>
  <text transform="matrix(0 -1 1 0 138.848 29.397)" stroke="none" fill="#000000" font-family="'Arial'" font-size="2.644">G</text>
  <text transform="matrix(0 -1 1 0 138.848 18.873)" stroke="none" fill="#000000" font-family="'Arial'" font-size="2.644">F</text>
  <polygon stroke-width="0.2" points="145.349 25.42 145.349 31.806 157.849 31.806 157.849 25.42 145.349 25.42"/>
  <polygon stroke-width="0.2" points="145.349 36.661 145.349 43.046 157.849 43.046 157.849 36.661 145.349 36.661"/>
  <polygon stroke-width="0.2" points="145.349 47.902 145.349 54.287 157.849 54.287 157.849 47.902 145.349 47.902"/>
 </g>
 <g id="170mm_x0020_hidden_x0020_Schneider_x0020_layer_x0020_for_x0020_editor">
  <polygon stroke="none" points="0 220.247 0 229.247 170 229.247 170 220.247 0 220.247"/>
 </g>
 <g id="cutout_x0020_layer">
 </g>
 <g id="outline_x0020_layer">
 </g>
 <g id="zoom_x0020_layer">
 </g>
 <g id="outline_x0020_on_x0020_zoom_x0020_layer">
 </g>
 <g id="arrow_x0020_layer">
 </g>
 <g id="_x0020_cable_x0020_layer">
  <polyline stroke-width="0.2" points="51.865 8.298 50.779 8.298 50.779 0.1 0.587 0.1 0.587 60.807 17.824 60.807"/>
  <polyline stroke-width="0.2" points="17.588 17.754 6.854 17.754 6.854 27.672 17.652 27.672"/>
  <polyline stroke-width="0.2" points="49.201 17.85 81.132 17.85 81.132 79.489 15.817 79.489 15.817 97.594 17.824 97.594"/>
  <polyline stroke-width="0.2" points="49.201 27.966 77.974 27.966 77.974 77.215 13.599 77.215 13.599 107.808 17.678 107.808"/>
  <polyline stroke-width="0.2" points="49.201 39.206 73.879 39.206 73.879 74.599 11.294 74.599 11.294 119.2 17.824 119.2"/>
  <polyline stroke-width="0.2" points="49.201 50.072 70.575 50.072 70.575 72.091 7.988 72.091 7.988 129.733 17.574 129.733"/>
  <polyline stroke-width="0.2" points="49.201 60.936 53.761 60.936 53.761 69.736 5.004 69.736 5.004 140.735 17.621 140.735"/>
  <polyline stroke-width="0.2" points="49.201 97.656 81.281 97.656 81.281 160.699 15.826 160.699 15.826 178.455 17.71 178.455"/>
  <polyline stroke-width="0.2" points="49.402 107.614 79.503 107.614 79.503 159.383 13.887 159.383 13.887 188.524 17.739 188.524"/>
  <polyline stroke-width="0.2" points="49.189 118.897 77.548 118.897 77.548 157.538 11.945 157.538 11.945 199.76 17.707 199.76"/>
  <polyline stroke-width="0.2" points="49.201 129.877 73.628 129.877 73.628 154.233 9.029 154.233 9.029 210.409 17.824 210.409"/>
  <polyline stroke-width="0.2" points="49.201 140.742 70.313 140.742 70.313 151.377 6.193 151.377 6.193 221.352 17.824 221.352"/>
  <polyline stroke-width="0.2" points="113.9 61.231 113.108 61.231 113.108 221.514 49.201 221.514"/>
  <polyline stroke-width="0.2" points="113.9 50.366 110.352 50.366 110.352 210.54 49.201 210.54"/>
  <polyline stroke-width="0.2" points="113.9 39.283 107.266 39.283 107.266 199.693 49.287 199.693"/>
  <polyline stroke-width="0.2" points="113.79 28.14 105.164 28.14 105.164 188.376 49.201 188.376"/>
  <polyline stroke-width="0.2" points="113.9 18.144 100.936 18.144 100.936 178.383 49.292 178.383"/>
  <polyline stroke-width="0.2" points="152.293 124.433 159.024 124.433 159.024 148.694 152.417 148.694"/>
  <polyline stroke-width="0.2" points="152.293 107.572 163.352 107.572 163.352 61.29 145.278 61.29"/>
  <polyline stroke-width="0.2" points="152.293 89.962 159.772 89.962 162.572 89.962"/>
  <polyline stroke-width="0.2" points="163.967 89.962 165.544 89.962 165.544 18.146 145.278 18.146"/>
  <path stroke-width="0.2" d="M162.567 89.977C162.776 89.242 163.968 89.334 163.968 90.009"/>
 </g>
 <g id="symbol_x0020_layer">
 </g>
 <g id="text_x0020_layer">
 </g>
 <g id="text-_x0020_DO_x0020_NOT_x0020_translate">
  <text x="28.545" y="8.769" stroke="none" fill="#000000" font-family="'Arial'" font-size="2.644">CBOX1</text>
  <text x="9.531" y="23.394" stroke="none" fill="#000000" font-family="'Arial'" font-size="2.644">0W6331A</text>
  <text x="3.471" y="35.136" stroke="none" fill="#000000" font-family="'Arial'" font-size="2.644">0W6342-003</text>
  <g>
   <text x="5.52" y="38.485" stroke="none" fill="#000000" font-family="'Arial'" font-size="2.115">Terminator</text>
   <text x="5.52" y="40.956" stroke="none" fill="#000000" font-family="'Arial'" font-size="2.115">W303</text>
  </g>
  <text x="2.674" y="45.584" stroke="none" fill="#000000" font-family="'Arial'" font-size="2.644">0W6342-002</text>
  <g>
   <text x="5.379" y="49.719" stroke="none" fill="#000000" font-family="'Arial'" font-size="2.115">Terminator</text>
   <text x="5.379" y="52.189" stroke="none" fill="#000000" font-family="'Arial'" font-size="2.115">W304</text>
  </g>
  <text x="18.204" y="18.815" stroke="none" fill="#000000" font-family="'Arial'" font-size="2.644">P12</text>
  <text x="18.204" y="28.896" stroke="none" fill="#000000" font-family="'Arial'" font-size="2.644">P12</text>
  <text x="18.204" y="61.965" stroke="none" fill="#000000" font-family="'Arial'" font-size="2.644">P50</text>
  <text transform="matrix(0 -1 1 0 25.789 18.727)" stroke="none" fill="#000000" font-family="'Arial'" font-size="2.644">A</text>
  <text transform="matrix(0 -1 1 0 25.789 28.809)" stroke="none" fill="#000000" font-family="'Arial'" font-size="2.644">B</text>
  <text transform="matrix(0 -1 1 0 25.789 40.167)" stroke="none" fill="#000000" font-family="'Arial'" font-size="2.644">C</text>
  <text transform="matrix(0 -1 1 0 25.789 51.048)" stroke="none" fill="#000000" font-family="'Arial'" font-size="2.644">D</text>
  <text transform="matrix(0 -1 1 0 25.789 61.878)" stroke="none" fill="#000000" font-family="'Arial'" font-size="2.644">E</text>
  <text x="44.615" y="18.815" stroke="none" fill="#000000" font-family="'Arial'" font-size="2.644">P6</text>
  <text x="44.615" y="28.896" stroke="none" fill="#000000" font-family="'Arial'" font-size="2.644">P7</text>
  <text x="44.615" y="40.109" stroke="none" fill="#000000" font-family="'Arial'" font-size="2.644">P8</text>
  <text x="44.615" y="50.988" stroke="none" fill="#000000" font-family="'Arial'" font-size="2.644">P9</text>
  <text x="43.88" y="61.965" stroke="none" fill="#000000" font-family="'Arial'" font-size="2.644">P10</text>
  <text transform="matrix(0 -1 1 0 42.771 61.436)" stroke="none" fill="#000000" font-family="'Arial'" font-size="2.644">J</text>
  <text transform="matrix(0 -1 1 0 42.771 49.872)" stroke="none" fill="#000000" font-family="'Arial'" font-size="2.644">I</text>
  <text transform="matrix(0 -1 1 0 42.771 40.167)" stroke="none" fill="#000000" font-family="'Arial'" font-size="2.644">H</text>
  <text transform="matrix(0 -1 1 0 42.771 29.103)" stroke="none" fill="#000000" font-family="'Arial'" font-size="2.644">G</text>
  <text transform="matrix(0 -1 1 0 42.771 18.579)" stroke="none" fill="#000000" font-family="'Arial'" font-size="2.644">F</text>
  <text x="44.615" y="18.815" stroke="none" fill="#000000" font-family="'Arial'" font-size="2.644">P6</text>
  <text x="44.615" y="28.896" stroke="none" fill="#000000" font-family="'Arial'" font-size="2.644">P7</text>
  <text x="44.615" y="40.109" stroke="none" fill="#000000" font-family="'Arial'" font-size="2.644">P8</text>
  <text x="44.615" y="50.988" stroke="none" fill="#000000" font-family="'Arial'" font-size="2.644">P9</text>
  <text transform="matrix(0 -1 1 0 42.771 49.872)" stroke="none" fill="#000000" font-family="'Arial'" font-size="2.644">I</text>
  <text transform="matrix(0 -1 1 0 42.771 40.167)" stroke="none" fill="#000000" font-family="'Arial'" font-size="2.644">H</text>
  <text transform="matrix(0 -1 1 0 42.771 29.103)" stroke="none" fill="#000000" font-family="'Arial'" font-size="2.644">G</text>
  <text transform="matrix(0 -1 1 0 42.771 18.579)" stroke="none" fill="#000000" font-family="'Arial'" font-size="2.644">F</text>
  <text x="65.17" y="8.441" stroke="none" fill="#000000" font-family="'Arial'" font-size="2.644">MMI_ABUS</text>
  <text x="52.015" y="9.23" stroke="none" fill="#000000" font-family="'Arial'" font-size="2.644">P50</text>
  <text transform="matrix(0 -1 1 0 60.954 12.054)" stroke="none" fill="#000000" font-family="'Arial'" font-size="2.644">J403</text>
  <text transform="matrix(0 -1 1 0 30.236 34.24)" stroke="none" fill="#000000" font-family="'Arial'" font-size="2.644">Cable to top</text>
  <text transform="matrix(0 -1 1 0 36.902 58.201)" stroke="none" fill="#000000" font-family="'Arial'" font-size="2.644">Cable to bottom</text>
  <text x="28.545" y="88.575" stroke="none" fill="#000000" font-family="'Arial'" font-size="2.644">CBOX2</text>
  <text x="18.204" y="98.62" stroke="none" fill="#000000" font-family="'Arial'" font-size="2.644">P6</text>
  <text x="18.204" y="108.703" stroke="none" fill="#000000" font-family="'Arial'" font-size="2.644">P7</text>
  <text x="18.204" y="141.77" stroke="none" fill="#000000" font-family="'Arial'" font-size="2.644">P10</text>
  <text transform="matrix(0 -1 1 0 25.789 98.533)" stroke="none" fill="#000000" font-family="'Arial'" font-size="2.644">A</text>
  <text transform="matrix(0 -1 1 0 25.789 108.615)" stroke="none" fill="#000000" font-family="'Arial'" font-size="2.644">B</text>
  <text transform="matrix(0 -1 1 0 25.789 119.974)" stroke="none" fill="#000000" font-family="'Arial'" font-size="2.644">C</text>
  <text transform="matrix(0 -1 1 0 25.789 130.854)" stroke="none" fill="#000000" font-family="'Arial'" font-size="2.644">D</text>
  <text transform="matrix(0 -1 1 0 25.789 141.683)" stroke="none" fill="#000000" font-family="'Arial'" font-size="2.644">E</text>
  <text x="44.615" y="98.62" stroke="none" fill="#000000" font-family="'Arial'" font-size="2.644">P16</text>
  <text x="44.615" y="108.703" stroke="none" fill="#000000" font-family="'Arial'" font-size="2.644">P17</text>
  <text x="44.615" y="119.915" stroke="none" fill="#000000" font-family="'Arial'" font-size="2.644">P18</text>
  <text x="44.615" y="130.794" stroke="none" fill="#000000" font-family="'Arial'" font-size="2.644">P19</text>
  <text x="43.88" y="141.77" stroke="none" fill="#000000" font-family="'Arial'" font-size="2.644">P20</text>
  <text transform="matrix(0 -1 1 0 42.771 141.242)" stroke="none" fill="#000000" font-family="'Arial'" font-size="2.644">J</text>
  <text transform="matrix(0 -1 1 0 42.771 129.679)" stroke="none" fill="#000000" font-family="'Arial'" font-size="2.644">I</text>
  <text transform="matrix(0 -1 1 0 42.771 119.974)" stroke="none" fill="#000000" font-family="'Arial'" font-size="2.644">H</text>
  <text transform="matrix(0 -1 1 0 42.771 108.909)" stroke="none" fill="#000000" font-family="'Arial'" font-size="2.644">G</text>
  <text transform="matrix(0 -1 1 0 42.771 98.385)" stroke="none" fill="#000000" font-family="'Arial'" font-size="2.644">F</text>
  <text transform="matrix(0 -1 1 0 30.236 114.046)" stroke="none" fill="#000000" font-family="'Arial'" font-size="2.644">Cable to top</text>
  <text transform="matrix(0 -1 1 0 36.902 138.007)" stroke="none" fill="#000000" font-family="'Arial'" font-size="2.644">Cable to bottom</text>
  <text x="18.204" y="119.915" stroke="none" fill="#000000" font-family="'Arial'" font-size="2.644">P8</text>
  <text x="18.204" y="130.794" stroke="none" fill="#000000" font-family="'Arial'" font-size="2.644">P9</text>
  <text transform="matrix(0 -1 1 0 132.274 157.354)" stroke="none" fill="#000000" font-family="'Arial'" font-size="2.644">SBS board</text>
  <text transform="matrix(0 -1 1 0 143.186 155.618)" stroke="none" fill="#000000" font-family="'Arial'" font-size="1.585">SBS_CONT_IN</text>
  <text transform="matrix(0 -1 1 0 146.61 152.53)" stroke="none" fill="#FFFFFF" font-family="'Arial'" font-size="2.644">J1214</text>
  <text x="147.259" y="90.875" stroke="none" fill="#000000" font-family="'Arial'" font-size="2.644">P4</text>
  <text x="147.259" y="108.484" stroke="none" fill="#000000" font-family="'Arial'" font-size="2.644">P5</text>
  <text x="147.259" y="125.344" stroke="none" fill="#FFFFFF" font-family="'Arial'" font-size="2.644">P11</text>
  <text x="147.259" y="149.699" stroke="none" fill="#FFFFFF" font-family="'Arial'" font-size="2.644">P11</text>
  <text transform="matrix(0 -1 1 0 146.61 127.427)" stroke="none" fill="#FFFFFF" font-family="'Arial'" font-size="2.644">J663</text>
  <text transform="matrix(0 -1 1 0 146.61 110.191)" stroke="none" fill="#000000" font-family="'Arial'" font-size="2.644">J662</text>
  <text transform="matrix(0 -1 1 0 146.61 93.331)" stroke="none" fill="#000000" font-family="'Arial'" font-size="2.644">J661</text>
  <g>
   <text transform="matrix(0 -1 1 0 142.057 131.736)" stroke="none" fill="#000000" font-family="'Arial'" font-size="1.585">SBS controller, </text>
   <text transform="matrix(0 -1 1 0 143.822 131.736)" stroke="none" fill="#000000" font-family="'Arial'" font-size="1.585">status, control</text>
  </g>
  <text transform="matrix(0 -1 1 0 143 114.067)" stroke="none" fill="#000000" font-family="'Arial'" font-size="1.322">ABUs main controller</text>
  <g>
   <text transform="matrix(0 -1 1 0 142.057 97.01)" stroke="none" fill="#000000" font-family="'Arial'" font-size="1.585">Main controller, </text>
   <text transform="matrix(0 -1 1 0 143.822 97.01)" stroke="none" fill="#000000" font-family="'Arial'" font-size="1.585">status, control</text>
  </g>
  <text transform="matrix(0 -1 1 0 132.274 101.902)" stroke="none" fill="#000000" font-family="'Arial'" font-size="2.644">Interface board</text>
  <text transform="matrix(0 -1 1 0 128.79 113.174)" stroke="none" fill="#000000" font-family="'Arial'" font-size="2.644">0W6340</text>
  <text transform="matrix(0 -1 1 0 135.646 125.772)" stroke="none" fill="#000000" font-family="'Arial'" font-size="1.322">J670 D- Sub 15</text>
  <text transform="matrix(0 -1 1 0 137.688 125.23)" stroke="none" fill="#000000" font-family="'Arial'" font-size="1.322">ABUS relay PCB</text>
  <text x="28.545" y="169.129" stroke="none" fill="#000000" font-family="'Arial'" font-size="2.644">CBOX3</text>
  <text x="18.204" y="179.175" stroke="none" fill="#000000" font-family="'Arial'" font-size="2.644">P16</text>
  <text x="18.204" y="189.258" stroke="none" fill="#000000" font-family="'Arial'" font-size="2.644">P17</text>
  <text x="18.204" y="222.326" stroke="none" fill="#000000" font-family="'Arial'" font-size="2.644">P20</text>
  <text transform="matrix(0 -1 1 0 25.789 179.088)" stroke="none" fill="#000000" font-family="'Arial'" font-size="2.644">A</text>
  <text transform="matrix(0 -1 1 0 25.789 189.17)" stroke="none" fill="#000000" font-family="'Arial'" font-size="2.644">B</text>
  <text transform="matrix(0 -1 1 0 25.789 200.528)" stroke="none" fill="#000000" font-family="'Arial'" font-size="2.644">C</text>
  <text transform="matrix(0 -1 1 0 25.789 211.408)" stroke="none" fill="#000000" font-family="'Arial'" font-size="2.644">D</text>
  <text transform="matrix(0 -1 1 0 25.789 222.239)" stroke="none" fill="#000000" font-family="'Arial'" font-size="2.644">E</text>
  <text transform="matrix(0 -1 1 0 42.771 221.798)" stroke="none" fill="#000000" font-family="'Arial'" font-size="2.644">J</text>
  <text transform="matrix(0 -1 1 0 42.771 210.234)" stroke="none" fill="#000000" font-family="'Arial'" font-size="2.644">I</text>
  <text transform="matrix(0 -1 1 0 42.771 200.528)" stroke="none" fill="#000000" font-family="'Arial'" font-size="2.644">H</text>
  <text transform="matrix(0 -1 1 0 42.771 189.463)" stroke="none" fill="#000000" font-family="'Arial'" font-size="2.644">G</text>
  <text transform="matrix(0 -1 1 0 42.771 178.939)" stroke="none" fill="#000000" font-family="'Arial'" font-size="2.644">F</text>
  <text transform="matrix(0 -1 1 0 42.771 210.234)" stroke="none" fill="#000000" font-family="'Arial'" font-size="2.644">I</text>
  <text transform="matrix(0 -1 1 0 42.771 200.528)" stroke="none" fill="#000000" font-family="'Arial'" font-size="2.644">H</text>
  <text transform="matrix(0 -1 1 0 42.771 189.463)" stroke="none" fill="#000000" font-family="'Arial'" font-size="2.644">G</text>
  <text transform="matrix(0 -1 1 0 42.771 178.939)" stroke="none" fill="#000000" font-family="'Arial'" font-size="2.644">F</text>
  <text transform="matrix(0 -1 1 0 30.236 194.602)" stroke="none" fill="#000000" font-family="'Arial'" font-size="2.644">Cable to top</text>
  <text transform="matrix(0 -1 1 0 36.902 218.562)" stroke="none" fill="#000000" font-family="'Arial'" font-size="2.644">Cable to bottom</text>
  <text x="18.204" y="200.469" stroke="none" fill="#000000" font-family="'Arial'" font-size="2.644">P18</text>
  <text x="18.204" y="211.349" stroke="none" fill="#000000" font-family="'Arial'" font-size="2.644">P19</text>
  <text x="44.115" y="179.173" stroke="none" fill="#000000" font-family="'Arial'" font-size="2.644">P26</text>
  <text x="44.115" y="189.254" stroke="none" fill="#000000" font-family="'Arial'" font-size="2.644">P27</text>
  <text x="44.115" y="222.324" stroke="none" fill="#000000" font-family="'Arial'" font-size="2.644">P30</text>
  <text x="44.115" y="200.467" stroke="none" fill="#000000" font-family="'Arial'" font-size="2.644">P28</text>
  <text x="44.115" y="211.347" stroke="none" fill="#000000" font-family="'Arial'" font-size="2.644">P29</text>
  <text x="143.967" y="24.382" stroke="none" fill="#000000" font-family="'Arial'" font-size="2.644">0W6342-001</text>
  <text x="143.967" y="35.621" stroke="none" fill="#000000" font-family="'Arial'" font-size="2.644">0W6342-003</text>
  <text x="143.967" y="46.862" stroke="none" fill="#000000" font-family="'Arial'" font-size="2.644">0W6342-002</text>
  <text x="124.621" y="9.064" stroke="none" fill="#000000" font-family="'Arial'" font-size="2.644">CBOX4</text>
  <text x="114.28" y="19.109" stroke="none" fill="#000000" font-family="'Arial'" font-size="2.644">P26</text>
  <text x="114.28" y="29.192" stroke="none" fill="#000000" font-family="'Arial'" font-size="2.644">P27</text>
  <text x="114.28" y="62.259" stroke="none" fill="#000000" font-family="'Arial'" font-size="2.644">P30</text>
  <text transform="matrix(0 -1 1 0 121.865 19.021)" stroke="none" fill="#000000" font-family="'Arial'" font-size="2.644">A</text>
  <text transform="matrix(0 -1 1 0 121.865 40.462)" stroke="none" fill="#000000" font-family="'Arial'" font-size="2.644">C</text>
  <text transform="matrix(0 -1 1 0 121.865 51.343)" stroke="none" fill="#000000" font-family="'Arial'" font-size="2.644">D</text>
  <text transform="matrix(0 -1 1 0 121.865 62.173)" stroke="none" fill="#000000" font-family="'Arial'" font-size="2.644">E</text>
  <text x="140.692" y="19.109" stroke="none" fill="#000000" font-family="'Arial'" font-size="2.644">P1</text>
  <text x="139.955" y="62.259" stroke="none" fill="#000000" font-family="'Arial'" font-size="2.644">P5</text>
  <text transform="matrix(0 -1 1 0 138.848 61.731)" stroke="none" fill="#000000" font-family="'Arial'" font-size="2.644">J</text>
  <text transform="matrix(0 -1 1 0 138.848 50.167)" stroke="none" fill="#000000" font-family="'Arial'" font-size="2.644">I</text>
  <text transform="matrix(0 -1 1 0 138.848 40.462)" stroke="none" fill="#000000" font-family="'Arial'" font-size="2.644">H</text>
  <text transform="matrix(0 -1 1 0 138.848 29.397)" stroke="none" fill="#000000" font-family="'Arial'" font-size="2.644">G</text>
  <text transform="matrix(0 -1 1 0 138.848 18.873)" stroke="none" fill="#000000" font-family="'Arial'" font-size="2.644">F</text>
  <text transform="matrix(0 -1 1 0 126.313 34.536)" stroke="none" fill="#000000" font-family="'Arial'" font-size="2.644">Cable to top</text>
  <text transform="matrix(0 -1 1 0 132.978 58.496)" stroke="none" fill="#000000" font-family="'Arial'" font-size="2.644">Cable to bottom</text>
  <text x="114.28" y="40.404" stroke="none" fill="#000000" font-family="'Arial'" font-size="2.644">P28</text>
  <text x="114.28" y="51.283" stroke="none" fill="#000000" font-family="'Arial'" font-size="2.644">P29</text>
  <g>
   <text x="146.018" y="27.731" stroke="none" fill="#000000" font-family="'Arial'" font-size="2.115">Terminator</text>
   <text x="146.018" y="30.201" stroke="none" fill="#000000" font-family="'Arial'" font-size="2.115">W102</text>
  </g>
  <g>
   <text x="146.018" y="38.972" stroke="none" fill="#000000" font-family="'Arial'" font-size="2.115">Terminator</text>
   <text x="146.018" y="41.442" stroke="none" fill="#000000" font-family="'Arial'" font-size="2.115">W103</text>
  </g>
  <g>
   <text x="146.018" y="50.213" stroke="none" fill="#000000" font-family="'Arial'" font-size="2.115">Terminator</text>
   <text x="146.018" y="52.682" stroke="none" fill="#000000" font-family="'Arial'" font-size="2.115">W104</text>
  </g>
  <text transform="matrix(0 -1 1 0 121.865 29.105)" stroke="none" fill="#000000" font-family="'Arial'" font-size="2.644">B</text>
 </g>
 <g id="callout_x0020_layer">
 </g>
</svg>
