<?xml version="1.0" encoding="UTF-8"?>
<!-- Generator: PTC Arbortext IsoDraw 7.4 M001 -->
<svg xmlns="http://www.w3.org/2000/svg" xmlns:xlink="http://www.w3.org/1999/xlink" width="100%" height="100%" viewBox="0 0 120.057 42.112" fill-rule="evenodd" clip-rule="evenodd" stroke="#000000" stroke-linecap="round" fill="none" xml:space="preserve" preserveAspectRatio="xMidYMid meet" zoomAndPan="magnify" version="1.1" contentScriptType="text/ecmascript" contentStyleType="text/css">
 <g id="Standard_x0020_layer">
  <polygon stroke-width="0.2" points="3.815 22.513 8.875 22.513 8.875 29.262 3.815 29.262 3.815 22.513"/>
  <g>
   <line stroke="#FFFFFF" stroke-width="2" x1="8.875" y1="23.864" x2="8.875" y2="27.911"/>
   <line stroke-width="0.7" x1="8.875" y1="22.513" x2="8.875" y2="29.262"/>
  </g>
  <g>
   <line stroke="#FFFFFF" stroke-width="2" x1="10.226" y1="25.888" x2="31.004" y2="25.888"/>
   <line stroke-width="0.7" x1="8.875" y1="25.888" x2="32.354" y2="25.888"/>
  </g>
  <polyline stroke-width="0.2" points="10.5 18.954 9.791 18.954 2.702 32.658 1.411 32.658"/>
  <path stroke-width="0.2" stroke-dasharray="3 3" d="M76.942 4.293L76.942 41.433L118.632 41.433L118.632 4.293L77.942 4.293"/>
  <line stroke-width="0.2" x1="77.942" y1="4.293" x2="76.942" y2="4.293"/>
  <g>
   <path stroke-width="0.2" d="M98.781 15.128C98.781 14.519 98.287 14.025 97.68 14.025C97.072 14.025 96.578 14.519 96.578 15.128C96.578 15.736 97.072 16.228 97.68 16.228C98.287 16.228 98.781 15.736 98.781 15.128"/>
  </g>
  <g>
   <path stroke-width="0.2" d="M98.885 20.971C98.885 20.362 98.393 19.868 97.784 19.868C97.177 19.868 96.683 20.362 96.683 20.971C96.683 21.579 97.177 22.071 97.784 22.071C98.393 22.071 98.885 21.579 98.885 20.971"/>
  </g>
  <g>
   <path stroke-width="0.2" d="M98.921 26.518C98.921 25.91 98.427 25.416 97.819 25.416C97.212 25.416 96.718 25.91 96.718 26.518C96.718 27.126 97.212 27.618 97.819 27.618C98.427 27.618 98.921 27.126 98.921 26.518"/>
  </g>
  <g>
   <path stroke-width="0.2" d="M98.781 32.429C98.781 31.821 98.287 31.327 97.68 31.327C97.072 31.327 96.578 31.821 96.578 32.429C96.578 33.036 97.072 33.53 97.68 33.53C98.287 33.53 98.781 33.036 98.781 32.429"/>
  </g>
  <polygon stroke-width="0.2" points="95.212 12.622 95.212 35.441 99.674 35.441 99.674 12.622 95.212 12.622"/>
  <text x="47.706" y="16.153" stroke="none" fill="#000000" font-family="'Arial'" font-size="3.049">1</text>
  <text x="47.706" y="21.042" stroke="none" fill="#000000" font-family="'Arial'" font-size="3.049">2</text>
  <text x="47.706" y="26.855" stroke="none" fill="#000000" font-family="'Arial'" font-size="3.049">3</text>
  <text x="47.706" y="32.667" stroke="none" fill="#000000" font-family="'Arial'" font-size="3.049">4</text>
  <polygon stroke-width="0.2" points="43.582 12.622 53.069 12.622 53.069 34.838 43.582 34.838 43.582 12.622"/>
  <polygon stroke-width="0.2" points="43.582 29.291 43.582 34.838 53.069 34.838 53.069 29.291 43.582 29.291"/>
  <polygon stroke-width="0.2" points="43.582 23.743 43.582 29.291 53.069 29.291 53.069 23.743 43.582 23.743"/>
  <polygon stroke-width="0.2" points="43.582 18.196 43.582 23.743 53.069 23.743 53.069 18.196 43.582 18.196"/>
  <line stroke-width="0.353" x1="32.354" y1="25.888" x2="43.582" y2="15.896"/>
  <line stroke-width="0.353" x1="32.354" y1="25.888" x2="43.582" y2="21.585"/>
  <line stroke-width="0.353" x1="32.354" y1="25.888" x2="43.582" y2="26.518"/>
  <line stroke-width="0.353" x1="32.354" y1="25.888" x2="43.582" y2="32.064"/>
  <line stroke-width="0.2" x1="53.069" y1="15.128" x2="97.68" y2="15.128"/>
  <line stroke-width="0.2" x1="53.069" y1="20.971" x2="97.784" y2="20.971"/>
  <line stroke-width="0.2" x1="53.069" y1="26.518" x2="97.819" y2="26.518"/>
  <line stroke-width="0.2" x1="53.069" y1="32.429" x2="97.68" y2="32.429"/>
  <path stroke-width="0.2" stroke-dasharray="3 3" d="M0.1 4.304L0.1 41.168L59.56 41.168L59.56 4.304L1.1 4.304"/>
  <line stroke-width="0.2" x1="1.1" y1="4.304" x2="0.1" y2="4.304"/>
 </g>
 <g id="120mm_x0020_hidden_x0020_Schneider_x0020_layer_x0020_for_x0020_editor">
  <polygon stroke="none" points="0.057 32.552 0.057 41.552 120.057 41.552 120.057 32.552 0.057 32.552"/>
 </g>
 <g id="cutout_x0020_layer">
 </g>
 <g id="outline_x0020_layer">
 </g>
 <g id="zoom_x0020_layer">
 </g>
 <g id="arrow_x0020_layer">
 </g>
 <g id="_x0020_cable_x0020_layer">
 </g>
 <g id="symbol_x0020_layer">
 </g>
 <g id="_x0020_text_x0020_layer">
  <g>
   <line stroke="#FFFFFF" stroke-width="1" x1="39.677" y1="19.004" x2="37.057" y2="16.678"/>
   <line stroke-width="0.106" x1="39.677" y1="19.004" x2="37.057" y2="16.678"/>
  </g>
  <g>
   <line stroke="#FFFFFF" stroke-width="1" x1="37.484" y1="23.8" x2="31.567" y2="21.271"/>
   <line stroke-width="0.106" x1="37.484" y1="23.8" x2="31.567" y2="21.271"/>
  </g>
  <g>
   <line stroke="#FFFFFF" stroke-width="1" x1="38.362" y1="26.315" x2="31.966" y2="29.657"/>
   <line stroke-width="0.106" x1="38.362" y1="26.315" x2="31.966" y2="29.657"/>
  </g>
  <g>
   <line stroke="#FFFFFF" stroke-width="1" x1="39.906" y1="30.373" x2="38.454" y2="33.549"/>
   <line stroke-width="0.106" x1="39.906" y1="30.373" x2="38.454" y2="33.549"/>
  </g>
  <g>
   <text x="0.857" y="36.82" stroke="none" fill="#000000" font-family="'Arial'" font-size="3.528">Temperature </text>
   <text x="0.857" y="40.701" stroke="none" fill="#000000" font-family="'Arial'" font-size="3.528">sensor</text>
  </g>
  <g>
   <text x="77.519" y="8.023" stroke="none" fill="#000000" font-family="'Arial'" font-size="3.528">External connection board</text>
   <text x="77.519" y="11.904" stroke="none" fill="#000000" font-family="'Arial'" font-size="3.528">0P2553</text>
  </g>
  <text x="24.711" y="7.569" stroke="none" fill="#000000" font-family="'Arial'" font-size="3.528">Control terminal block</text>
  <text x="1.211" y="2.468" stroke="none" fill="#000000" font-family="'Arial'" font-size="3.528">Main battery cabinet</text>
  <text x="77.775" y="2.468" stroke="none" fill="#000000" font-family="'Arial'" font-size="3.528">UPS cabinet</text>
  <text x="33.487" y="16.027" stroke="none" fill="#000000" font-family="'Arial'" font-size="3.528">Red</text>
  <text x="21.347" y="21.579" stroke="none" fill="#000000" font-family="'Arial'" font-size="3.528">Brown</text>
  <text x="23.304" y="30.961" stroke="none" fill="#000000" font-family="'Arial'" font-size="3.528">Black</text>
  <text x="31.832" y="35.857" stroke="none" fill="#000000" font-family="'Arial'" font-size="3.528">Yellow</text>
 </g>
 <g id="text-_x0020_DO_x0020_NOT_x0020_translate">
  <text x="93.296" y="12.015" stroke="none" fill="#000000" font-family="'Arial'" font-size="3.049">J1603</text>
  <text x="100.239" y="15.813" stroke="none" fill="#000000" font-family="'Arial'" font-size="3.049">1</text>
  <text x="103.686" y="15.813" stroke="none" fill="#000000" font-family="'Arial'" font-size="3.049">+24 V</text>
  <text x="100.239" y="21.9" stroke="none" fill="#000000" font-family="'Arial'" font-size="3.049">2</text>
  <text x="103.686" y="21.9" stroke="none" fill="#000000" font-family="'Arial'" font-size="3.049">IN</text>
  <text x="100.239" y="27.501" stroke="none" fill="#000000" font-family="'Arial'" font-size="3.049">3</text>
  <text x="103.686" y="27.501" stroke="none" fill="#000000" font-family="'Arial'" font-size="3.049">GND</text>
  <text x="100.239" y="33.198" stroke="none" fill="#000000" font-family="'Arial'" font-size="3.049">4</text>
  <text x="103.686" y="33.198" stroke="none" fill="#000000" font-family="'Arial'" font-size="3.049">SHLD</text>
  <text x="45.131" y="12.015" stroke="none" fill="#000000" font-family="'Arial'" font-size="3.049">X011</text>
 </g>
 <g id="_x0020_callout_x0020_layer">
 </g>
</svg>
