<?xml version="1.0" encoding="UTF-8"?>
<!-- Generator: PTC Arbortext IsoDraw 7.4 M001 -->
<svg xmlns="http://www.w3.org/2000/svg" xmlns:xlink="http://www.w3.org/1999/xlink" width="85mm" height="85.974mm" viewBox="0 0 85 85.974" fill-rule="evenodd" clip-rule="evenodd" stroke="#000000" stroke-linecap="round" fill="none" xml:space="preserve" preserveAspectRatio="xMidYMid meet" zoomAndPan="magnify" version="1.1" contentScriptType="text/ecmascript" contentStyleType="text/css">
 <g id="Standard_x0020_layer">
  <g>
   <path stroke-width="0.2" d="M33.701 50.082C33.701 48.746 32.618 47.664 31.285 47.664C29.949 47.664 28.867 48.746 28.867 50.082C28.867 51.417 29.949 52.499 31.285 52.499C32.618 52.499 33.701 51.417 33.701 50.082"/>
  </g>
  <g>
   <path stroke-width="0.2" d="M33.701 60.082C33.701 58.746 32.618 57.664 31.285 57.664C29.949 57.664 28.867 58.746 28.867 60.082C28.867 61.417 29.949 62.499 31.285 62.499C32.618 62.499 33.701 61.417 33.701 60.082"/>
  </g>
  <g>
   <path stroke-width="0.2" d="M33.701 70.081C33.701 68.746 32.618 67.665 31.285 67.665C29.949 67.665 28.867 68.746 28.867 70.081C28.867 71.417 29.949 72.498 31.285 72.498C32.618 72.498 33.701 71.417 33.701 70.081"/>
  </g>
  <g>
   <path stroke-width="0.2" d="M33.701 80.081C33.701 78.746 32.618 77.665 31.285 77.665C29.949 77.665 28.867 78.746 28.867 80.081C28.867 81.417 29.949 82.498 31.285 82.498C32.618 82.498 33.701 81.417 33.701 80.081"/>
  </g>
  <polygon stroke-width="0.2" points="26.46 45.981 26.46 83.823 35.09 83.823 35.09 45.981 26.46 45.981"/>
  <polygon stroke-width="0.2" points="26.46 5.333 26.46 24.375 35.09 24.375 35.09 5.333 26.46 5.333"/>
  <line stroke-width="0.2" x1="26.46" y1="14.76" x2="35.09" y2="14.76"/>
  <line stroke-width="0.2" x1="26.46" y1="24.375" x2="35.09" y2="24.375"/>
  <line stroke-width="0.2" x1="26.46" y1="9.862" x2="21.678" y2="9.862"/>
  <line stroke-width="0.2" x1="21.175" y1="10.423" x2="15.615" y2="10.423"/>
  <polyline stroke-width="0.2" points="26.46 19.714 9.348 19.714 9.348 9.923 15.332 9.923"/>
  <path stroke-width="0.2" fill="#FFFFFF" d="M15.772 9.923C15.772 9.681 15.574 9.484 15.332 9.484 15.089 9.484 14.891 9.681 14.891 9.923 14.891 10.166 15.089 10.364 15.332 10.364 15.574 10.364 15.772 10.166 15.772 9.923 15.772 9.923 15.772 9.923 15.772 9.923L15.772 9.923z"/>
  <path stroke-width="0.2" fill="#FFFFFF" d="M21.943 9.887C21.943 9.644 21.745 9.448 21.503 9.448 21.26 9.448 21.062 9.644 21.062 9.887 21.062 10.131 21.26 10.327 21.503 10.327 21.745 10.327 21.943 10.131 21.943 9.887 21.943 9.887 21.943 9.887 21.943 9.887L21.943 9.887z"/>
  <line stroke-width="0.2" x1="31.285" y1="60.369" x2="21.686" y2="60.369"/>
  <line stroke-width="0.2" x1="21.184" y1="60.929" x2="15.624" y2="60.929"/>
  <polyline stroke-width="0.2" points="31.285 70.221 8.91 70.221 8.91 60.427 15.339 60.43"/>
  <path stroke-width="0.2" fill="#FFFFFF" d="M15.779 60.43C15.779 60.188 15.583 59.99 15.339 59.99 15.096 59.99 14.9 60.188 14.9 60.43 14.9 60.673 15.096 60.871 15.339 60.871 15.583 60.871 15.779 60.673 15.779 60.43 15.779 60.43 15.779 60.43 15.779 60.43L15.779 60.43z"/>
  <path stroke-width="0.2" fill="#FFFFFF" d="M21.951 60.395C21.951 60.152 21.754 59.954 21.51 59.954 21.268 59.954 21.071 60.152 21.071 60.395 21.071 60.637 21.268 60.835 21.51 60.835 21.754 60.835 21.951 60.637 21.951 60.395 21.951 60.395 21.951 60.395 21.951 60.395L21.951 60.395z"/>
  <line stroke-width="0.2" stroke-dasharray="5 5" x1="18.403" y1="60.829" x2="18.403" y2="4.181"/>
  <line stroke-width="0.2" x1="18.403" y1="4.181" x2="18.403" y2="3.181"/>
  <path stroke-width="0.2" fill="#FFFFFF" d="M13.525 65.325C13.525 62.776 11.46 60.709 8.91 60.709 6.362 60.709 4.296 62.776 4.296 65.325 4.296 67.873 6.362 69.939 8.91 69.939 11.46 69.939 13.525 67.873 13.525 65.325 13.525 65.325 13.525 65.325 13.525 65.325L13.525 65.325z"/>
  <path stroke-width="0.2" stroke-dasharray="3 3" d="M1.877 0.1L1.877 85.209L83.879 85.209L83.879 0.1L2.876 0.1"/>
  <line stroke-width="0.2" x1="2.876" y1="0.1" x2="1.877" y2="0.1"/>
 </g>
 <g id="83_x0020_mm_x0020_hidden_x0020_Schneider_x0020_layer_x0020_for_x0020_editor">
  <polygon stroke="none" points="0 80.974 0 85.974 85 85.974 85 80.974 0 80.974"/>
 </g>
 <g id="cutout_x0020_layer">
 </g>
 <g id="outline_x0020_layer">
 </g>
 <g id="arrow_x0020_layer">
 </g>
 <g id="_x0020_cable_x0020_layer">
 </g>
 <g id="symbol_x0020_layer">
 </g>
 <g id="_x0020_text_x0020_layer">
  <text x="72.156" y="4.716" stroke="none" fill="#000000" font-family="'Arial'" font-size="3.528">UPS</text>
 </g>
 <g id="_x0020_callout_x0020_layer">
 </g>
 <g id="Text_DO_x0020_NOT_x0020_TRANSLATE">
  <text x="36.255" y="51.463" stroke="none" fill="#000000" font-family="'Arial'" font-size="3.528">1</text>
  <text x="4.019" y="61.258" stroke="none" fill="#000000" font-family="'Arial'" font-size="3.528">+</text>
  <text x="36.255" y="61.463" stroke="none" fill="#000000" font-family="'Arial'" font-size="3.528">2</text>
  <text x="40.255" y="61.463" stroke="none" fill="#000000" font-family="'Arial'" font-size="3.528">IN</text>
  <text x="36.255" y="71.462" stroke="none" fill="#000000" font-family="'Arial'" font-size="3.528">3</text>
  <text x="40.255" y="71.462" stroke="none" fill="#000000" font-family="'Arial'" font-size="3.528">RTN</text>
  <text x="36.255" y="81.462" stroke="none" fill="#000000" font-family="'Arial'" font-size="3.528">4</text>
  <text x="40.255" y="81.462" stroke="none" fill="#000000" font-family="'Arial'" font-size="3.528">GND</text>
  <text x="29.693" y="11.497" stroke="none" fill="#000000" font-family="'Arial'" font-size="3.528">1</text>
  <text x="29.693" y="21.498" stroke="none" fill="#000000" font-family="'Arial'" font-size="3.528">2</text>
  <text x="25.867" y="43.948" stroke="none" fill="#000000" font-family="'Arial'" font-size="3.528">J1602</text>
  <text x="27.439" y="4.775" stroke="none" fill="#000000" font-family="'Arial'" font-size="3.528">TB1</text>
  <g>
   <text x="6.605" y="64.326" stroke="none" fill="#000000" font-family="'Arial'" font-size="3.528">24 </text>
   <text x="5.333" y="68.207" stroke="none" fill="#000000" font-family="'Arial'" font-size="3.528">VDC</text>
  </g>
  <text x="40.255" y="51.463" stroke="none" fill="#000000" font-family="'Arial'" font-size="3.528">+24 V</text>
  <text x="4.463" y="71.256" stroke="none" fill="#000000" font-family="'Arial'" font-size="3.528">-</text>
 </g>
</svg>
