<?xml version="1.0" encoding="UTF-8"?>
<!-- Generator: PTC Arbortext IsoDraw 7.4 M001 -->
<svg xmlns="http://www.w3.org/2000/svg" xmlns:xlink="http://www.w3.org/1999/xlink" width="85mm" height="134.498mm" viewBox="0 0 85 134.498" fill-rule="evenodd" clip-rule="evenodd" stroke="#000000" stroke-linecap="round" fill="none" xml:space="preserve" preserveAspectRatio="xMidYMid meet" zoomAndPan="magnify" version="1.1" contentScriptType="text/ecmascript" contentStyleType="text/css">
 <g id="_x0020_fill_x0020_layer">
 </g>
 <g id="Standard_x0020_layer">
  <polygon stroke-width="0.106" points="67.427 102.546 67.427 16.742 0.975 16.742 0.975 102.546 67.427 102.546"/>
  <g>
   <g id="870-17662.PRT_5">
    <desc>870-17662.PRT</desc>
    <path stroke-width="0.106" d="M60.994 102.546L60.856 102.546L59.42 102.546C59.235 102.546 59.314 102.578 59.185 102.448L58.302 101.567L58.206 101.471"/>
    <path stroke-width="0.045" stroke-dasharray="1 1" d="M59.281 16.774L59.185 16.873L58.302 17.754C58.173 17.884 58.206 17.806 58.206 17.989L58.206 100.469"/>
    <path stroke-width="0.045" d="M58.206 100.469L58.206 101.332L58.206 101.471"/>
    <g>
     <path stroke="none" fill="#808080" d="M60.268 27.949L60.304 28.182 60.286 28.298 60.268 28.416 60.161 28.626 60.076 28.708 59.993 28.792 59.889 28.846 59.783 28.899 59.551 28.936 59.317 28.899 59.107 28.792 59.024 28.708 58.942 28.626 58.887 28.521 58.835 28.416 58.798 28.182 58.816 28.065 58.835 27.949 58.887 27.844 58.942 27.739 59.107 27.573 59.213 27.519 59.317 27.466 59.435 27.448 59.551 27.429 59.783 27.466 59.889 27.519 59.993 27.573 60.161 27.739 60.268 27.949 60.304 28.182"/>
     <path stroke-width="0.2" d="M60.268 27.949L60.304 28.182L60.286 28.298L60.268 28.416L60.161 28.626L60.076 28.708L59.993 28.792L59.889 28.846L59.783 28.899L59.551 28.936L59.317 28.899L59.107 28.792L59.024 28.708L58.942 28.626L58.887 28.521L58.835 28.416L58.798 28.182L58.816 28.065L58.835 27.949L58.887 27.844L58.942 27.739L59.107 27.573L59.213 27.519L59.317 27.466L59.435 27.448L59.551 27.429L59.783 27.466L59.889 27.519L59.993 27.573L60.161 27.739L60.268 27.949L60.304 28.182"/>
    </g>
    <path stroke-width="0.2" fill="#808080" d="M60.304 99.21L60.268 98.977 60.161 98.768 60.076 98.683 59.993 98.6 59.889 98.548 59.783 98.493 59.551 98.456 59.317 98.493 59.107 98.6 59.024 98.683 58.942 98.768 58.887 98.873 58.835 98.977 58.798 99.21 58.816 99.326 58.835 99.442 58.887 99.548 58.942 99.653 59.107 99.819 59.213 99.873 59.317 99.927 59.435 99.944 59.551 99.963 59.783 99.927 59.889 99.873 59.993 99.819 60.161 99.653 60.268 99.442 60.304 99.21z"/>
    <path stroke-width="0.2" fill="#808080" d="M60.268 20.344L60.304 20.111 60.286 19.995 60.268 19.879 60.213 19.774 60.161 19.669 60.076 19.585 59.993 19.501 59.783 19.394 59.551 19.358 59.317 19.394 59.107 19.501 59.024 19.585 58.942 19.669 58.835 19.879 58.816 19.995 58.798 20.111 58.816 20.228 58.835 20.344 58.887 20.449 58.942 20.553 59.107 20.721 59.213 20.774 59.317 20.827 59.551 20.864 59.667 20.846 59.783 20.827 59.993 20.721 60.161 20.553 60.268 20.344z"/>
    <path stroke-width="0.2" fill="#808080" d="M60.304 59.661L60.268 59.427 60.213 59.323 60.161 59.218 59.993 59.051 59.889 58.997 59.783 58.945 59.551 58.908 59.317 58.945 59.107 59.051 59.024 59.134 58.942 59.218 58.887 59.323 58.835 59.427 58.798 59.661 58.816 59.777 58.835 59.893 58.887 59.999 58.942 60.103 59.107 60.271 59.213 60.323 59.317 60.378 59.435 60.396 59.551 60.414 59.783 60.378 59.889 60.323 59.993 60.271 60.161 60.103 60.268 59.893 60.304 59.661z"/>
    <path stroke-width="0.2" fill="#808080" d="M60.268 90.906L60.304 91.138 60.286 91.256 60.268 91.371 60.213 91.477 60.161 91.581 60.076 91.665 59.993 91.748 59.783 91.855 59.551 91.893 59.317 91.855 59.107 91.748 59.024 91.665 58.942 91.581 58.887 91.477 58.835 91.371 58.798 91.138 58.816 91.022 58.835 90.906 58.887 90.801 58.942 90.695 59.107 90.53 59.213 90.475 59.317 90.423 59.551 90.385 59.667 90.403 59.783 90.423 59.993 90.53 60.161 90.695 60.268 90.906z"/>
   </g>
  </g>
  <g>
   <g id="870-17662.PRT_5">
    <desc>870-17662.PRT</desc>
    <path stroke-width="0.106" d="M7.432 16.774L7.57 16.774L9.006 16.774C9.189 16.774 9.112 16.742 9.242 16.873L10.122 17.754L10.221 17.85"/>
    <path stroke-width="0.045" stroke-dasharray="1 1" d="M9.144 102.546L9.242 102.448L10.122 101.567C10.253 101.438 10.221 101.516 10.221 101.332L10.221 18.85"/>
    <path stroke-width="0.045" d="M10.221 18.85L10.221 17.989L10.221 17.85"/>
    <g>
     <path stroke="none" fill="#808080" d="M8.159 91.371L8.121 91.138 8.141 91.022 8.159 90.906 8.266 90.695 8.349 90.612 8.432 90.53 8.538 90.475 8.643 90.423 8.875 90.385 9.108 90.423 9.317 90.53 9.401 90.612 9.484 90.695 9.538 90.801 9.592 90.906 9.628 91.138 9.609 91.256 9.592 91.371 9.538 91.477 9.484 91.581 9.317 91.748 9.212 91.802 9.108 91.855 8.992 91.873 8.875 91.893 8.643 91.855 8.538 91.802 8.432 91.748 8.266 91.581 8.159 91.371 8.121 91.138"/>
     <path stroke-width="0.2" d="M8.159 91.371L8.121 91.138L8.141 91.022L8.159 90.906L8.266 90.695L8.349 90.612L8.432 90.53L8.538 90.475L8.643 90.423L8.875 90.385L9.108 90.423L9.317 90.53L9.401 90.612L9.484 90.695L9.538 90.801L9.592 90.906L9.628 91.138L9.609 91.256L9.592 91.371L9.538 91.477L9.484 91.581L9.317 91.748L9.212 91.802L9.108 91.855L8.992 91.873L8.875 91.893L8.643 91.855L8.538 91.802L8.432 91.748L8.266 91.581L8.159 91.371L8.121 91.138"/>
    </g>
    <path stroke-width="0.2" fill="#808080" d="M8.121 20.111L8.159 20.344 8.266 20.553 8.349 20.638 8.432 20.721 8.538 20.774 8.643 20.827 8.875 20.864 9.108 20.827 9.317 20.721 9.401 20.638 9.484 20.553 9.538 20.449 9.592 20.344 9.628 20.111 9.609 19.995 9.592 19.879 9.538 19.774 9.484 19.669 9.317 19.501 9.212 19.449 9.108 19.394 8.992 19.376 8.875 19.358 8.643 19.394 8.538 19.449 8.432 19.501 8.266 19.669 8.159 19.879 8.121 20.111z"/>
    <path stroke-width="0.2" fill="#808080" d="M8.159 98.977L8.121 99.21 8.141 99.326 8.159 99.442 8.212 99.548 8.266 99.653 8.349 99.736 8.432 99.819 8.643 99.927 8.875 99.963 9.108 99.927 9.317 99.819 9.401 99.736 9.484 99.653 9.592 99.442 9.609 99.326 9.628 99.21 9.609 99.093 9.592 98.977 9.538 98.873 9.484 98.768 9.317 98.6 9.212 98.548 9.108 98.493 8.875 98.456 8.759 98.475 8.643 98.493 8.432 98.6 8.266 98.768 8.159 98.977z"/>
    <path stroke-width="0.2" fill="#808080" d="M8.121 59.661L8.159 59.893 8.212 59.999 8.266 60.103 8.432 60.27 8.538 60.323 8.643 60.378 8.875 60.414 9.108 60.378 9.317 60.27 9.401 60.186 9.484 60.103 9.538 59.999 9.592 59.893 9.628 59.661 9.609 59.545 9.592 59.427 9.538 59.323 9.484 59.218 9.317 59.051 9.212 58.997 9.108 58.945 8.992 58.926 8.875 58.908 8.643 58.945 8.538 58.997 8.432 59.051 8.266 59.218 8.159 59.427 8.121 59.661z"/>
    <path stroke-width="0.2" fill="#808080" d="M8.159 28.416L8.121 28.182 8.141 28.065 8.159 27.949 8.212 27.844 8.266 27.739 8.349 27.657 8.432 27.573 8.643 27.466 8.875 27.429 9.108 27.466 9.317 27.573 9.401 27.657 9.484 27.739 9.538 27.844 9.592 27.949 9.628 28.182 9.609 28.298 9.592 28.416 9.538 28.521 9.484 28.626 9.317 28.792 9.212 28.846 9.108 28.899 8.875 28.936 8.759 28.917 8.643 28.899 8.432 28.792 8.266 28.626 8.159 28.416z"/>
   </g>
  </g>
 </g>
 <g id="85mm_x0020_hidden_x0020_Schneider_x0020_layer_x0020_for_x0020_editor">
  <polygon stroke="none" points="0 125.498 0 134.498 85 134.498 85 125.498 0 125.498"/>
 </g>
 <g id="cut_x0020_out_x0020_layer">
 </g>
 <g id="outline_x0020_layer">
 </g>
 <g id="zoom_x0020_layer">
 </g>
 <g id="outline_x0020_on_x0020_zoom_x0020_layer">
 </g>
 <g id="arrow_x0020_layer">
  <g>
  </g>
  <g>
  </g>
  <polygon stroke="none" fill="#000000" points="59.633 20.317 59.079 18.236 58.402 18.55"/>
  <line stroke-width="0.106" x1="55.767" y1="11.984" x2="58.829" y2="18.585"/>
  <line stroke-width="0.106" x1="55.767" y1="11.984" x2="69.81" y2="11.984"/>
  <g>
   <line stroke-width="0.106" x1="67.46" y1="16.774" x2="75.091" y2="16.774"/>
   <polygon stroke="none" fill="#000000" points="72.893 102.453 73.266 100.334 72.519 100.334"/>
   <line stroke-width="0.106" x1="72.893" y1="69.212" x2="72.893" y2="100.546"/>
   <polygon stroke="none" fill="#000000" points="72.893 16.682 72.519 18.803 73.266 18.803"/>
   <line stroke-width="0.106" x1="72.893" y1="49.923" x2="72.893" y2="18.591"/>
   <text transform="matrix(0 -1 1 0 73.597 66.575)" stroke="none" fill="#000000" font-family="'Mangal'" font-size="3.879">797 mm</text>
  </g>
  <line stroke-width="0.106" x1="8.929" y1="28.128" x2="22.327" y2="28.128"/>
  <polygon stroke="none" fill="#000000" points="20.166 59.701 20.539 57.582 19.792 57.582"/>
  <line stroke-width="0.106" x1="20.166" y1="53.64" x2="20.166" y2="57.793"/>
  <polygon stroke="none" fill="#000000" points="20.166 28.222 19.792 30.343 20.539 30.343"/>
  <line stroke-width="0.106" x1="20.166" y1="34.283" x2="20.166" y2="30.131"/>
  <text transform="matrix(0 -1 1 0 20.871 52.234)" stroke="none" fill="#000000" font-family="'Mangal'" font-size="3.879">292,5 mm</text>
  <line stroke-width="0.106" x1="9.025" y1="91.111" x2="22.343" y2="91.111"/>
  <line stroke-width="0.106" x1="8.925" y1="59.606" x2="22.304" y2="59.606"/>
  <polygon stroke="none" fill="#000000" points="20.166 90.945 20.539 88.825 19.792 88.825"/>
  <line stroke-width="0.106" x1="20.166" y1="84.816" x2="20.166" y2="89.037"/>
  <polygon stroke="none" fill="#000000" points="20.166 59.701 19.792 61.822 20.539 61.822"/>
  <line stroke-width="0.106" x1="20.166" y1="65.796" x2="20.166" y2="61.609"/>
  <text transform="matrix(0 -1 1 0 20.871 83.746)" stroke="none" fill="#000000" font-family="'Mangal'" font-size="3.879">292,5 mm</text>
  <line stroke-width="0.106" x1="20.118" y1="20.239" x2="20.118" y2="28.065"/>
  <text transform="matrix(0 -1 1 0 19.19 115.719)" stroke="none" fill="#000000" font-family="'Mangal'" font-size="3.879">75 mm</text>
  <text transform="matrix(0 -1 1 0 13.717 115.719)" stroke="none" fill="#000000" font-family="'Mangal'" font-size="3.879">31 mm</text>
  <polygon stroke="none" fill="#000000" points="14.605 102.349 14.23 104.468 14.977 104.468"/>
  <line stroke-width="0.106" x1="14.605" y1="116.343" x2="14.605" y2="104.257"/>
  <polygon stroke="none" fill="#000000" points="20.134 99.254 19.76 101.373 20.507 101.373"/>
  <line stroke-width="0.106" x1="20.134" y1="116.087" x2="20.134" y2="101.162"/>
  <line stroke-width="0.106" x1="8.88" y1="99.239" x2="22.382" y2="99.239"/>
  <line stroke-width="0.106" x1="9.172" y1="102.507" x2="16.969" y2="102.507"/>
  <line stroke-width="0.106" x1="20.134" y1="91.186" x2="20.134" y2="99.161"/>
  <line stroke-width="0.106" x1="14.605" y1="99.239" x2="14.605" y2="102.349"/>
  <text transform="matrix(0 -1 1 0 19.481 13.961)" stroke="none" fill="#000000" font-family="'Mangal'" font-size="3.879">75 mm</text>
  <text transform="matrix(0 -1 1 0 13.734 13.961)" stroke="none" fill="#000000" font-family="'Mangal'" font-size="3.879">31 mm</text>
  <polygon stroke="none" fill="#000000" points="14.605 16.675 14.977 14.554 14.23 14.554"/>
  <line stroke-width="0.106" x1="14.605" y1="1.492" x2="14.605" y2="14.766"/>
  <polygon stroke="none" fill="#000000" points="20.118 20.12 20.492 18.001 19.745 18.001"/>
  <line stroke-width="0.106" x1="20.118" y1="0.053" x2="20.118" y2="18.213"/>
  <line stroke-width="0.106" x1="9.308" y1="16.774" x2="17.094" y2="16.774"/>
  <line stroke-width="0.106" x1="8.768" y1="20.121" x2="21.059" y2="20.121"/>
  <line stroke-width="0.106" x1="14.605" y1="16.675" x2="14.605" y2="20.082"/>
  <text x="5.059" y="126.512" stroke="none" fill="#000000" font-family="'Mangal'" font-size="3.879">73,5 mm</text>
  <line stroke-width="0.106" x1="67.427" y1="102.546" x2="75.058" y2="102.546"/>
  <line stroke-width="0.106" x1="1.038" y1="133.381" x2="1.038" y2="102.635"/>
  <text x="49.985" y="126.512" stroke="none" fill="#000000" font-family="'Mangal'" font-size="3.879">73,5 mm</text>
  <line stroke-width="0.106" x1="8.88" y1="120.838" x2="1.191" y2="120.838"/>
  <polygon stroke="none" fill="#000000" points="67.429 120.871 66.346 122.733 67.049 122.99"/>
  <line stroke-width="0.106" x1="65.125" y1="127.146" x2="66.771" y2="122.662"/>
  <line stroke-width="0.106" x1="48.674" y1="127.146" x2="65.125" y2="127.146"/>
  <polygon stroke="none" fill="#000000" points="1.191 120.959 1.486 123.09 2.197 122.861"/>
  <line stroke-width="0.106" x1="3.27" y1="127.411" x2="1.777" y2="122.775"/>
  <line stroke-width="0.106" x1="19.721" y1="127.411" x2="3.27" y2="127.411"/>
  <line stroke-width="0.106" x1="59.74" y1="120.871" x2="67.429" y2="120.871"/>
  <g>
   <line stroke-width="0.106" x1="8.88" y1="99.239" x2="8.88" y2="123.039"/>
   <line stroke-width="0.106" x1="59.67" y1="99.179" x2="59.67" y2="123.191"/>
   <polygon stroke="none" fill="#000000" points="8.88 120.838 11 121.212 11 120.465"/>
   <line stroke-width="0.106" x1="24.315" y1="120.838" x2="10.788" y2="120.838"/>
   <polygon stroke="none" fill="#000000" points="59.74 120.871 57.619 120.498 57.619 121.245"/>
   <line stroke-width="0.106" x1="44.304" y1="120.871" x2="57.832" y2="120.871"/>
   <text x="26.986" y="121.545" stroke="none" fill="#000000" font-family="'Mangal'" font-size="3.879">253 mm</text>
  </g>
  <g>
   <line stroke-width="0.106" x1="1.038" y1="104.835" x2="1.038" y2="133.289"/>
   <line stroke-width="0.106" x1="67.427" y1="102.546" x2="67.427" y2="133.289"/>
   <polygon stroke="none" fill="#000000" points="1.038 131.09 3.158 131.463 3.158 130.716"/>
   <line stroke-width="0.106" x1="24.522" y1="131.09" x2="2.947" y2="131.09"/>
   <polygon stroke="none" fill="#000000" points="67.427 131.09 65.307 130.716 65.307 131.463"/>
   <line stroke-width="0.106" x1="43.942" y1="131.09" x2="65.519" y2="131.09"/>
   <text x="27.225" y="131.795" stroke="none" fill="#000000" font-family="'Mangal'" font-size="3.879">400 mm</text>
  </g>
 </g>
 <g id="_x0020_cable_x0020_layer">
 </g>
 <g id="symbol_x0020_layer">
 </g>
 <g id="text_x0020_layer">
 </g>
 <g id="text-_x0020_DO_x0020_NOT_x0020_translate">
  <text x="55.709" y="11.224" stroke="none" fill="#000000" font-family="'Arial'" font-size="3.528">10 x ø14</text>
 </g>
 <g id="callout_x0020_layer">
 </g>
</svg>
