<?xml version="1.0" encoding="UTF-8"?>
<!-- Generator: PTC Arbortext IsoDraw 7.4 M001 -->
<svg xmlns="http://www.w3.org/2000/svg" xmlns:xlink="http://www.w3.org/1999/xlink" width="85mm" height="163.743mm" viewBox="0 0 85 163.743" fill-rule="evenodd" clip-rule="evenodd" stroke="#000000" stroke-linecap="round" fill="none" xml:space="preserve" preserveAspectRatio="xMidYMid meet" zoomAndPan="magnify" version="1.1" contentScriptType="text/ecmascript" contentStyleType="text/css">
 <g id="Standard_x0020_layer">
  <g>
   <polygon stroke-width="0.2" points="53.037 119.543 53.037 161.594 65.584 161.594 65.584 119.543 53.037 119.543"/>
   <polygon stroke-width="0.2" points="53.037 119.543 53.037 126.879 65.584 126.879 65.584 119.543 53.037 119.543"/>
   <polygon stroke-width="0.2" points="53.037 154.258 53.037 161.594 65.584 161.594 65.584 154.258 53.037 154.258"/>
   <polygon stroke-width="0.2" points="53.037 146.921 53.037 154.258 65.584 154.258 65.584 146.921 53.037 146.921"/>
   <polygon stroke-width="0.2" points="53.037 139.585 53.037 146.921 65.584 146.921 65.584 139.585 53.037 139.585"/>
  </g>
  <g>
   <polygon stroke-width="0.2" points="23.097 119.543 23.097 161.594 35.643 161.594 35.643 119.543 23.097 119.543"/>
   <polygon stroke-width="0.2" points="23.097 119.543 23.097 126.879 35.643 126.879 35.643 119.543 23.097 119.543"/>
   <polygon stroke-width="0.2" points="23.097 154.258 23.097 161.594 35.643 161.594 35.643 154.258 23.097 154.258"/>
   <polygon stroke-width="0.2" points="23.097 146.921 23.097 154.258 35.643 154.258 35.643 146.921 23.097 146.921"/>
   <polygon stroke-width="0.2" points="23.097 139.585 23.097 146.921 35.643 146.921 35.643 139.585 23.097 139.585"/>
  </g>
  <line stroke-width="0.2" x1="35.643" y1="123.212" x2="53.037" y2="123.212"/>
  <line stroke-width="0.2" x1="35.643" y1="142.865" x2="53.037" y2="142.865"/>
  <line stroke-width="0.2" x1="35.643" y1="158.342" x2="53.037" y2="158.342"/>
  <polyline stroke-width="0.2" points="23.097 122.885 7.296 122.885 7.296 142.768 23.097 142.768"/>
  <polyline stroke-width="0.2" points="22.998 157.926 6.692 157.926 6.692 150.603 9.948 150.603"/>
  <line stroke-width="0.2" x1="23.001" y1="150.59" x2="11.348" y2="150.59"/>
  <line stroke-width="0.2" x1="10.016" y1="149.397" x2="10.016" y2="151.835"/>
  <line stroke-width="0.2" x1="11.333" y1="149.43" x2="11.333" y2="151.867"/>
  <path stroke-width="0.2" stroke-dasharray="2 2" d="M50.798 110.537L50.798 163.009L68.04 163.009L68.04 110.537L51.798 110.537"/>
  <line stroke-width="0.2" x1="51.798" y1="110.537" x2="50.798" y2="110.537"/>
  <g>
   <polygon stroke-width="0.2" points="23.097 63.795 23.097 105.846 35.643 105.846 35.643 63.795 23.097 63.795"/>
   <polygon stroke-width="0.2" points="23.097 63.795 23.097 71.132 35.643 71.132 35.643 63.795 23.097 63.795"/>
   <polygon stroke-width="0.2" points="23.097 98.51 23.097 105.846 35.643 105.846 35.643 98.51 23.097 98.51"/>
   <polygon stroke-width="0.2" points="23.097 91.174 23.097 98.51 35.643 98.51 35.643 91.174 23.097 91.174"/>
   <polygon stroke-width="0.2" points="23.097 83.837 23.097 91.174 35.643 91.174 35.643 83.837 23.097 83.837"/>
  </g>
  <polyline stroke-width="0.2" points="23.097 67.138 7.296 67.138 7.296 87.019 23.097 87.019"/>
  <polyline stroke-width="0.2" points="23.097 102.179 6.692 102.179 6.692 94.855 9.948 94.855"/>
  <line stroke-width="0.2" x1="23.097" y1="94.841" x2="11.348" y2="94.841"/>
  <line stroke-width="0.2" x1="10.016" y1="93.65" x2="10.016" y2="96.087"/>
  <line stroke-width="0.2" x1="11.333" y1="93.682" x2="11.333" y2="96.12"/>
  <polyline stroke-width="0.2" points="35.643 67.625 47.799 67.625 47.799 123.212"/>
  <polyline stroke-width="0.2" points="35.643 87.418 45.54 87.418 45.628 142.865"/>
  <polyline stroke-width="0.2" points="35.643 150.59 40.091 150.59 40.091 103.298 35.643 103.298"/>
  <path stroke-width="0.106" fill="#000000" d="M47.982 123.212C47.982 123.111 47.901 123.028 47.799 123.028 47.698 123.028 47.616 123.111 47.616 123.212 47.616 123.313 47.698 123.394 47.799 123.394 47.901 123.394 47.982 123.313 47.982 123.212 47.982 123.212 47.982 123.212 47.982 123.212L47.982 123.212z"/>
  <path stroke-width="0.106" fill="#000000" d="M45.804 142.885C45.804 142.784 45.722 142.703 45.621 142.703 45.52 142.703 45.438 142.784 45.438 142.885 45.438 142.986 45.52 143.068 45.621 143.068 45.722 143.068 45.804 142.986 45.804 142.885 45.804 142.885 45.804 142.885 45.804 142.885L45.804 142.885z"/>
  <g>
   <polygon stroke-width="0.2" points="23.097 7.794 23.097 49.847 35.643 49.847 35.643 7.794 23.097 7.794"/>
   <polygon stroke-width="0.2" points="23.097 7.794 23.097 15.131 35.643 15.131 35.643 7.794 23.097 7.794"/>
   <polygon stroke-width="0.2" points="23.097 42.511 23.097 49.847 35.643 49.847 35.643 42.511 23.097 42.511"/>
   <polygon stroke-width="0.2" points="23.097 35.173 23.097 42.511 35.643 42.511 35.643 35.173 23.097 35.173"/>
   <polygon stroke-width="0.2" points="23.097 27.836 23.097 35.173 35.643 35.173 35.643 27.836 23.097 27.836"/>
  </g>
  <polyline stroke-width="0.2" points="23.097 11.137 7.296 11.137 7.296 31.019 23.097 31.019"/>
  <polyline stroke-width="0.2" points="23.097 46.179 6.692 46.179 6.692 38.854 9.948 38.854"/>
  <line stroke-width="0.2" x1="23.097" y1="38.841" x2="11.348" y2="38.841"/>
  <line stroke-width="0.2" x1="10.016" y1="37.649" x2="10.016" y2="40.087"/>
  <line stroke-width="0.2" x1="11.333" y1="37.682" x2="11.333" y2="40.119"/>
  <path stroke-width="0.2" fill="#FFFFFF" d="M10.242 21.382C10.242 19.903 9.042 18.704 7.562 18.704 6.083 18.704 4.884 19.903 4.884 21.382 4.884 22.862 6.083 24.062 7.562 24.062 9.042 24.062 10.242 22.862 10.242 21.382 10.242 21.382 10.242 21.382 10.242 21.382L10.242 21.382z"/>
  <path stroke-width="0.2" stroke-dasharray="2 2" d="M1.476 0.1L1.476 51.817L36.447 51.817L36.447 0.1L2.476 0.1"/>
  <line stroke-width="0.2" x1="2.476" y1="0.1" x2="1.476" y2="0.1"/>
  <polyline stroke-width="0.2" points="47.799 67.625 47.799 44.6 47.799 10.983 35.643 10.983"/>
  <polyline stroke-width="0.2" points="45.54 87.418 45.54 59.023 45.54 30.666 35.643 30.666"/>
  <polyline stroke-width="0.2" points="35.643 94.177 38.792 94.177 38.792 45.734 35.643 45.734"/>
  <polyline stroke-width="0.2" points="53.037 150.59 42.506 150.59 42.506 38.848 35.643 38.848"/>
  <path stroke-width="0.106" fill="#000000" d="M45.723 87.418C45.723 87.317 45.642 87.236 45.54 87.236 45.439 87.236 45.357 87.317 45.357 87.418 45.357 87.519 45.439 87.602 45.54 87.602 45.642 87.602 45.723 87.519 45.723 87.418 45.723 87.418 45.723 87.418 45.723 87.418L45.723 87.418z"/>
  <path stroke-width="0.106" fill="#000000" d="M47.963 67.625C47.963 67.524 47.881 67.441 47.78 67.441 47.679 67.441 47.597 67.524 47.597 67.625 47.597 67.725 47.679 67.808 47.78 67.808 47.881 67.808 47.963 67.725 47.963 67.625 47.963 67.625 47.963 67.625 47.963 67.625L47.963 67.625z"/>
  <path stroke-width="0.2" fill="#FFFFFF" d="M10.242 77.364C10.242 75.885 9.042 74.685 7.562 74.685 6.083 74.685 4.884 75.885 4.884 77.364 4.884 78.843 6.083 80.043 7.562 80.043 9.042 80.043 10.242 78.843 10.242 77.364 10.242 77.364 10.242 77.364 10.242 77.364L10.242 77.364z"/>
  <path stroke-width="0.2" fill="#FFFFFF" d="M10.242 133.21C10.242 131.729 9.042 130.531 7.562 130.531 6.083 130.531 4.884 131.729 4.884 133.21 4.884 134.688 6.083 135.889 7.562 135.889 9.042 135.889 10.242 134.688 10.242 133.21 10.242 133.21 10.242 133.21 10.242 133.21L10.242 133.21z"/>
  <path stroke-width="0.2" stroke-dasharray="2 2" d="M1.476 56.1L1.476 107.816L36.447 107.816L36.447 56.1L2.476 56.1"/>
  <line stroke-width="0.2" x1="2.476" y1="56.1" x2="1.476" y2="56.1"/>
  <path stroke-width="0.2" stroke-dasharray="2 2" d="M1.476 110.537L1.476 162.254L36.447 162.254L36.447 110.537L2.476 110.537"/>
  <line stroke-width="0.2" x1="2.476" y1="110.537" x2="1.476" y2="110.537"/>
 </g>
 <g id="85mm_x0020_hidden_x0020_Schneider_x0020_layer_x0020_for_x0020_editor">
  <polygon stroke="none" points="0 154.743 0 163.743 85 163.743 85 154.743 0 154.743"/>
 </g>
 <g id="cutout_x0020_layer">
 </g>
 <g id="outline_x0020_layer">
 </g>
 <g id="zoom_x0020_layer">
 </g>
 <g id="arrow_x0020_layer">
 </g>
 <g id="_x0020_cable_x0020_layer">
 </g>
 <g id="symbol_x0020_layer">
 </g>
 <g id="_x0020_text_x0020_layer">
  <text x="5.192" y="114.108" stroke="none" fill="#000000" font-family="'Arial'" font-size="3.528">Battery cabinet 1</text>
  <text x="55.92" y="114.108" stroke="none" fill="#000000" font-family="'Arial'" font-size="3.528">UPS</text>
  <text x="5.192" y="59.438" stroke="none" fill="#000000" font-family="'Arial'" font-size="3.528">Battery cabinet 2</text>
  <text x="5.192" y="3.206" stroke="none" fill="#000000" font-family="'Arial'" font-size="3.528">Battery cabinet 3</text>
 </g>
 <g id="text-_x0020_DO_x0020_NOT_x0020_translate">
  <text x="28.646" y="124.218" stroke="none" fill="#000000" font-family="'Arial'" font-size="3.528">1</text>
  <text x="28.646" y="143.592" stroke="none" fill="#000000" font-family="'Arial'" font-size="3.528">2</text>
  <text x="28.646" y="151.691" stroke="none" fill="#000000" font-family="'Arial'" font-size="3.528">3</text>
  <text x="28.646" y="158.724" stroke="none" fill="#000000" font-family="'Arial'" font-size="3.528">4</text>
  <text x="57.95" y="123.817" stroke="none" fill="#000000" font-family="'Arial'" font-size="3.528">3</text>
  <text x="57.95" y="143.693" stroke="none" fill="#000000" font-family="'Arial'" font-size="3.528">4</text>
  <text x="57.95" y="151.79" stroke="none" fill="#000000" font-family="'Arial'" font-size="3.528">5</text>
  <text x="57.95" y="158.824" stroke="none" fill="#000000" font-family="'Arial'" font-size="3.528">6</text>
  <text x="5.222" y="134.596" stroke="none" fill="#000000" font-family="'Arial'" font-size="3.528">ST</text>
  <text x="10.329" y="134.504" stroke="none" fill="#000000" font-family="'Arial'" font-size="3.528">24 VDC</text>
  <text x="7.876" y="150.117" stroke="none" fill="#000000" font-family="'Arial'" font-size="3.528">1</text>
  <text x="12.519" y="150.117" stroke="none" fill="#000000" font-family="'Arial'" font-size="3.528">4</text>
  <text x="26.393" y="118.751" stroke="none" fill="#000000" font-family="'Arial'" font-size="3.528">TB1</text>
  <text x="55.695" y="118.751" stroke="none" fill="#000000" font-family="'Arial'" font-size="3.528">TB1</text>
  <text x="28.547" y="68.262" stroke="none" fill="#000000" font-family="'Arial'" font-size="3.528">1</text>
  <text x="28.646" y="87.599" stroke="none" fill="#000000" font-family="'Arial'" font-size="3.528">2</text>
  <text x="28.646" y="95.287" stroke="none" fill="#000000" font-family="'Arial'" font-size="3.528">3</text>
  <text x="28.646" y="102.977" stroke="none" fill="#000000" font-family="'Arial'" font-size="3.528">4</text>
  <text x="5.222" y="78.748" stroke="none" fill="#000000" font-family="'Arial'" font-size="3.528">ST</text>
  <text x="10.329" y="78.656" stroke="none" fill="#000000" font-family="'Arial'" font-size="3.528">24 VDC</text>
  <text x="7.876" y="94.37" stroke="none" fill="#000000" font-family="'Arial'" font-size="3.528">1</text>
  <text x="12.519" y="94.37" stroke="none" fill="#000000" font-family="'Arial'" font-size="3.528">4</text>
  <text x="26.393" y="62.902" stroke="none" fill="#000000" font-family="'Arial'" font-size="3.528">TB1</text>
  <text x="2.322" y="74.274" stroke="none" fill="#000000" font-family="'Arial'" font-size="3.528">C1</text>
  <text x="2.322" y="83.24" stroke="none" fill="#000000" font-family="'Arial'" font-size="3.528">C2</text>
  <text x="28.748" y="12.461" stroke="none" fill="#000000" font-family="'Arial'" font-size="3.528">1</text>
  <text x="28.646" y="31.699" stroke="none" fill="#000000" font-family="'Arial'" font-size="3.528">2</text>
  <text x="28.646" y="39.389" stroke="none" fill="#000000" font-family="'Arial'" font-size="3.528">3</text>
  <text x="28.646" y="47.076" stroke="none" fill="#000000" font-family="'Arial'" font-size="3.528">4</text>
  <text x="5.222" y="22.748" stroke="none" fill="#000000" font-family="'Arial'" font-size="3.528">ST</text>
  <text x="10.329" y="22.657" stroke="none" fill="#000000" font-family="'Arial'" font-size="3.528">24 VDC</text>
  <text x="7.876" y="38.369" stroke="none" fill="#000000" font-family="'Arial'" font-size="3.528">1</text>
  <text x="12.519" y="38.369" stroke="none" fill="#000000" font-family="'Arial'" font-size="3.528">4</text>
  <text x="26.393" y="7.003" stroke="none" fill="#000000" font-family="'Arial'" font-size="3.528">TB1</text>
  <text x="2.322" y="18.65" stroke="none" fill="#000000" font-family="'Arial'" font-size="3.528">C1</text>
  <text x="2.322" y="27.096" stroke="none" fill="#000000" font-family="'Arial'" font-size="3.528">C2</text>
  <text x="2.322" y="130.158" stroke="none" fill="#000000" font-family="'Arial'" font-size="3.528">C1</text>
  <text x="2.322" y="138.951" stroke="none" fill="#000000" font-family="'Arial'" font-size="3.528">C2</text>
 </g>
 <g id="_x0020_callout_x0020_layer">
 </g>
</svg>
