<?xml version="1.0" encoding="UTF-8"?>
<!-- Generator: PTC Arbortext IsoDraw 7.4 M001 -->
<svg xmlns="http://www.w3.org/2000/svg" xmlns:xlink="http://www.w3.org/1999/xlink" width="120mm" height="46.435mm" viewBox="0 0 120 46.435" fill-rule="evenodd" clip-rule="evenodd" stroke="#000000" stroke-linecap="round" fill="none" xml:space="preserve" preserveAspectRatio="xMidYMid meet" zoomAndPan="magnify" version="1.1" contentScriptType="text/ecmascript" contentStyleType="text/css">
 <g id="Standard_x0020_layer">
  <path stroke-width="0.2" fill="#E5E5E5" d="M20.881 0.197L20.881 45.253 102.748 45.253 102.748 0.1 82.677 0.1 82.731 35.896 43.93 35.877 43.93 0.197 20.881 0.197z"/>
  <line stroke-width="0.2" x1="37.661" y1="13.102" x2="45.944" y2="13.102"/>
  <line stroke-width="0.2" x1="25.246" y1="13.102" x2="33.53" y2="13.102"/>
  <line stroke-width="0.2" x1="37.661" y1="26.827" x2="45.944" y2="26.827"/>
  <line stroke-width="0.2" x1="25.246" y1="26.827" x2="33.53" y2="26.827"/>
  <line stroke-width="0.2" x1="18.801" y1="5.852" x2="64.871" y2="5.852"/>
  <line stroke-width="0.2" x1="45.944" y1="13.102" x2="58.381" y2="13.102"/>
  <line stroke-width="0.2" x1="25.246" y1="13.102" x2="18.8" y2="13.102"/>
  <line stroke-width="0.2" x1="80.635" y1="13.208" x2="87.781" y2="13.208"/>
  <line stroke-width="0.2" x1="91.424" y1="13.208" x2="107.081" y2="13.208"/>
  <line stroke-width="0.2" x1="80.625" y1="13.208" x2="71.361" y2="13.208"/>
  <line stroke-width="0.2" x1="45.944" y1="26.827" x2="58.287" y2="26.827"/>
  <line stroke-width="0.2" x1="25.246" y1="26.827" x2="18.8" y2="26.859"/>
  <polyline stroke-width="0.2" points="71.266 26.946 79.341 26.946 79.341 13.208"/>
  <line stroke-width="0.2" x1="27.586" y1="26.827" x2="27.586" y2="38.45"/>
  <line stroke-width="0.2" x1="95.228" y1="28.344" x2="95.228" y2="13.208"/>
  <polygon stroke-width="0.2" points="58.381 8.76 71.329 8.76 71.329 17.268 58.381 17.268 58.381 8.76"/>
  <line stroke-width="0.2" x1="64.871" y1="5.852" x2="64.871" y2="8.76"/>
  <line stroke-width="0.2" x1="58.381" y1="8.76" x2="64.855" y2="17.268"/>
  <line stroke-width="0.2" x1="71.361" y1="8.76" x2="64.855" y2="17.268"/>
  <text x="63.268" y="13.468" stroke="none" fill="#000000" font-family="'Arial'" font-size="5.016">=</text>
  <path stroke-width="0.2" d="M59.85 15.537C60.351 14.659 60.509 14.946 60.954 15.544C61.136 15.788 61.354 16.225 61.981 15.41"/>
  <path stroke-width="0.2" d="M67.813 15.537C68.314 14.659 68.471 14.946 68.915 15.544C69.097 15.788 69.317 16.225 69.944 15.41"/>
  <polygon stroke-width="0.2" points="58.287 23.275 58.287 33.244 71.266 33.244 71.266 23.275 58.287 23.275"/>
  <polyline stroke-width="0.2" points="27.586 38.45 67.185 38.45 95.325 38.45 95.325 32.526"/>
  <polygon stroke-width="0.2" points="45.822 0.132 45.822 34.593 81.144 34.593 81.144 0.132 45.822 0.132"/>
  <g>
   <path stroke-width="0.2" d="M33.698 13.74C33.963 13.74 34.177 13.525 34.177 13.262C34.177 12.997 33.963 12.784 33.698 12.784C33.435 12.784 33.22 12.997 33.22 13.262C33.22 13.525 33.435 13.74 33.698 13.74z"/>
   <path stroke-width="0.2" d="M37.664 13.74C37.929 13.74 38.143 13.525 38.143 13.262C38.143 12.997 37.929 12.784 37.664 12.784C37.401 12.784 37.185 12.997 37.185 13.262C37.185 13.525 37.401 13.74 37.664 13.74z"/>
   <path stroke-width="0.2" d="M33.759 12.384C34.585 11.464 36.561 11.451 37.603 12.384"/>
  </g>
  <g>
   <path stroke-width="0.2" d="M94.626 28.329C94.626 28.594 94.84 28.809 95.105 28.809C95.368 28.809 95.582 28.594 95.582 28.329C95.582 28.065 95.368 27.852 95.105 27.852C94.84 27.852 94.626 28.065 94.626 28.329z"/>
   <path stroke-width="0.2" d="M94.626 32.295C94.626 32.56 94.84 32.774 95.105 32.774C95.368 32.774 95.582 32.56 95.582 32.295C95.582 32.031 95.368 31.818 95.105 31.818C94.84 31.818 94.626 32.031 94.626 32.295z"/>
   <path stroke-width="0.2" d="M95.981 28.39C96.903 29.216 96.915 31.193 95.981 32.234"/>
  </g>
  <g>
   <path stroke-width="0.2" d="M33.469 27.484C33.734 27.484 33.948 27.268 33.948 27.004C33.948 26.74 33.734 26.527 33.469 26.527C33.206 26.527 32.99 26.74 32.99 27.004C32.99 27.268 33.206 27.484 33.469 27.484z"/>
   <path stroke-width="0.2" d="M37.435 27.484C37.7 27.484 37.914 27.268 37.914 27.004C37.914 26.74 37.7 26.527 37.435 26.527C37.17 26.527 36.957 26.74 36.957 27.004C36.957 27.268 37.17 27.484 37.435 27.484z"/>
   <path stroke-width="0.2" d="M33.53 26.128C34.356 25.207 36.332 25.193 37.375 26.128"/>
  </g>
  <g>
   <path stroke-width="0.2" d="M87.632 13.556C87.896 13.556 88.111 13.342 88.111 13.077C88.111 12.814 87.896 12.599 87.632 12.599C87.367 12.599 87.153 12.814 87.153 13.077C87.153 13.342 87.367 13.556 87.632 13.556z"/>
   <path stroke-width="0.2" d="M91.597 13.556C91.861 13.556 92.075 13.342 92.075 13.077C92.075 12.814 91.861 12.599 91.597 12.599C91.334 12.599 91.118 12.814 91.118 13.077C91.118 13.342 91.334 13.556 91.597 13.556z"/>
   <path stroke-width="0.2" d="M87.692 12.199C88.518 11.279 90.495 11.266 91.537 12.199"/>
  </g>
 </g>
 <g id="120mm_x0020_hidden_x0020_Schneider_x0020_layer_x0020_for_x0020_editor">
  <polygon stroke="none" points="0 37.435 0 46.435 120 46.435 120 37.435 0 37.435"/>
 </g>
 <g id="cutout_x0020_layer">
 </g>
 <g id="outline_x0020_layer">
 </g>
 <g id="arrow_x0020_layer">
 </g>
 <g id="_x0020_cable_x0020_layer">
 </g>
 <g id="symbol_x0020_layer">
 </g>
 <g id="_x0020_text_x0020_layer_translate">
  <text x="1.006" y="7.129" stroke="none" fill="#000000" font-family="'Arial'" font-size="4.179">Batteries</text>
  <text x="8.205" y="14.308" stroke="none" fill="#000000" font-family="'Arial'" font-size="4.179">Input</text>
  <text x="3.794" y="27.946" stroke="none" fill="#000000" font-family="'Arial'" font-size="4.179">Bypass</text>
  <text x="108.551" y="14.869" stroke="none" fill="#000000" font-family="'Arial'" font-size="4.179">Load</text>
  <g>
   <text x="58.918" y="27.291" stroke="none" fill="#000000" font-family="'Arial'" font-size="4.179">Static </text>
   <text x="58.92" y="31.876" stroke="none" fill="#000000" font-family="'Arial'" font-size="4.179">switch</text>
  </g>
  <text x="81.539" y="43.918" stroke="none" fill="#000000" font-family="'Arial'" font-size="3.971" font-weight="bold">I/O section</text>
  <text x="50.496" y="3.496" stroke="none" fill="#000000" font-family="'Arial'" font-size="3.971" font-weight="bold">Power section</text>
 </g>
 <g id="_x0020_callout_x0020_layer">
 </g>
 <g id="text_x0020_layer_do_x0020_not_x0020_translate">
  <text x="32.493" y="17.98" stroke="none" fill="#000000" font-family="'Arial'" font-size="4.179">UIB</text>
  <text x="30.489" y="32.097" stroke="none" fill="#000000" font-family="'Arial'" font-size="4.179">SSIB</text>
  <text x="83.513" y="31.746" stroke="none" fill="#000000" font-family="'Arial'" font-size="4.179">MBB</text>
  <text x="85.492" y="9.539" stroke="none" fill="#000000" font-family="'Arial'" font-size="4.179">UOB</text>
 </g>
</svg>
