<?xml version="1.0" encoding="UTF-8"?>
<!-- Generator: PTC Arbortext IsoDraw 7.4 M001 -->
<svg xmlns="http://www.w3.org/2000/svg" xmlns:xlink="http://www.w3.org/1999/xlink" width="170mm" height="74.944mm" viewBox="0 0 170 74.944" fill-rule="evenodd" clip-rule="evenodd" stroke="#000000" stroke-linecap="round" fill="none" xml:space="preserve" preserveAspectRatio="xMidYMid meet" zoomAndPan="magnify" version="1.1" contentScriptType="text/ecmascript" contentStyleType="text/css">
 <g id="Standard_x0020_layer">
  <g>
   <path stroke="none" fill="#FFFFFF" d="M110.789 49.478C105.257 47.405 92.355 42.557 92.355 42.557L129.368 27.315C129.368 27.315 141.354 31.809 147.063 33.951"/>
   <path stroke-width="0.353" d="M110.789 49.478C105.257 47.405 92.355 42.557 92.355 42.557L129.368 27.315C129.368 27.315 141.354 31.809 147.063 33.951"/>
  </g>
  <line stroke-width="0.353" x1="110.18" y1="54.11" x2="77.061" y2="68.055"/>
  <path stroke-width="0.353" fill="#000000" d="M76.617 68.506C77.043 68.465 77.331 68.468 77.685 68.465L77.209 67.325C77.123 67.421 76.754 67.774 76.423 68.04 76.069 68.325 75.736 68.558 75.51 68.683 75.76 68.617 76.162 68.549 76.617 68.506z"/>
  <path stroke-width="0.353" fill="#000000" d="M110.623 53.659C110.198 53.701 109.909 53.697 109.557 53.7L110.031 54.84C110.118 54.744 110.486 54.392 110.817 54.125 111.171 53.84 111.504 53.607 111.73 53.481 111.48 53.548 111.078 53.615 110.623 53.659z"/>
  <line stroke-width="0.353" x1="148.716" y1="37.759" x2="115.596" y2="51.704"/>
  <path stroke-width="0.353" fill="#000000" d="M115.153 52.155C115.578 52.113 115.867 52.118 116.219 52.115L115.745 50.975C115.658 51.07 115.29 51.423 114.959 51.689 114.605 51.975 114.272 52.207 114.046 52.332 114.296 52.265 114.697 52.198 115.153 52.155z"/>
  <path stroke-width="0.353" fill="#000000" d="M149.159 37.308C148.734 37.35 148.444 37.345 148.092 37.348L148.567 38.49C148.653 38.393 149.021 38.042 149.354 37.774 149.707 37.488 150.039 37.256 150.265 37.131 150.015 37.198 149.614 37.265 149.159 37.308z"/>
  <line stroke-width="0.353" x1="152.215" y1="36.164" x2="168.241" y2="29.559"/>
  <path stroke-width="0.353" fill="#000000" d="M168.693 29.091C168.268 29.132 167.979 29.128 167.626 29.131L168.1 30.271C168.187 30.175 168.556 29.823 168.888 29.556 169.241 29.271 169.574 29.039 169.8 28.913 169.55 28.98 169.147 29.047 168.693 29.091z"/>
  <path stroke-width="0.353" fill="#000000" d="M152.537 36.271C152.961 36.231 153.251 36.234 153.604 36.231L153.129 35.091C153.043 35.186 152.675 35.539 152.342 35.807 151.989 36.091 151.657 36.323 151.431 36.45 151.681 36.383 152.081 36.316 152.537 36.271z"/>
  <g>
   <path stroke="none" fill="#B2B2B2" d="M49.316 40.14C49.283 40.154 49.25 40.167 49.219 40.18"/>
   <path stroke-width="0.353" d="M49.316 40.14C49.283 40.154 49.25 40.167 49.219 40.18"/>
  </g>
  <line stroke-width="0.353" x1="110.789" y1="49.479" x2="147.091" y2="34.012"/>
  <path stroke-width="0.353" fill="#BFBFBF" d="M79.561 6.855L95.737 0.176 165.167 26.309 149.141 33.137 79.561 6.855z"/>
  <path stroke-width="0.353" fill="#BFBFBF" d="M1.221 39.387L38.235 24.146 108.373 50.509 71.882 66.057 1.221 39.387z"/>
  <polygon stroke-width="0.353" points="40.098 22.96 77.112 7.719 129.368 27.315 92.355 42.557 40.098 22.96"/>
 </g>
 <g id="170mm_x0020_hidden_x0020_Schneider_x0020_layer_x0020_for_x0020_editor">
  <polygon stroke="none" points="0.221 61.432 0.221 74.165 170 74.165 170 61.432 0.221 61.432"/>
  <polygon stroke="none" points="169.778 69.534 0 69.534 0 74.944 169.778 74.944 169.778 69.534"/>
 </g>
 <g id="cutout_x0020_layer">
 </g>
 <g id="outline_x0020_layer">
 </g>
 <g id="zoom_x0020_layer">
 </g>
 <g id="arrow_x0020_layer">
  <g>
   <path stroke-width="0.353" fill="#000000" d="M70.352 66.691C70.043 66.453 69.853 66.269 69.617 66.049L69.219 67.123C69.337 67.114 69.802 67.103 70.188 67.129 70.602 67.156 70.968 67.206 71.197 67.263 70.989 67.152 70.68 66.945 70.352 66.691z"/>
   <path stroke-width="0.353" fill="#000000" d="M53.162 60.725C53.47 60.963 53.659 61.146 53.896 61.365L54.293 60.292C54.176 60.302 53.712 60.311 53.325 60.286 52.911 60.259 52.545 60.209 52.317 60.154 52.524 60.265 52.832 60.469 53.162 60.725z"/>
   <line stroke-width="0.353" x1="53.774" y1="60.637" x2="69.433" y2="66.519"/>
  </g>
  <line stroke-width="0.353" x1="1.843" y1="40.923" x2="50.558" y2="59.415"/>
  <path stroke-width="0.353" fill="#000000" d="M51.209 59.462C50.901 59.222 50.71 59.039 50.473 58.82L50.076 59.893C50.195 59.884 50.659 59.875 51.045 59.899 51.46 59.927 51.826 59.978 52.054 60.033 51.845 59.921 51.537 59.716 51.209 59.462z"/>
  <path stroke-width="0.353" fill="#000000" d="M1.423 40.886C1.732 41.125 1.922 41.307 2.158 41.527L2.556 40.454C2.438 40.463 1.972 40.473 1.587 40.448 1.173 40.42 0.807 40.369 0.578 40.314 0.787 40.426 1.094 40.631 1.423 40.886z"/>
 </g>
 <g id="_x0020_cable_x0020_layer">
 </g>
 <g id="symbol_x0020_layer">
 </g>
 <g id="_x0020_text_x0020_layer">
  <g>
   <text x="110.055" y="38.707" stroke="none" fill="#000000" font-family="'Arial'" font-size="3.528">Transformer</text>
   <text x="110.055" y="42.587" stroke="none" fill="#000000" font-family="'Arial'" font-size="3.528">cabinet</text>
  </g>
  <g>
   <text x="79.811" y="24.66" stroke="none" fill="#000000" font-family="'Arial'" font-size="3.528">UPS</text>
   <text x="79.811" y="28.541" stroke="none" fill="#000000" font-family="'Arial'" font-size="3.528">cabinet</text>
  </g>
  <g>
   <text x="46.512" y="45.906" stroke="none" fill="#000000" font-family="'Arial'" font-size="3.528">Minimum front </text>
   <text x="46.512" y="49.786" stroke="none" fill="#000000" font-family="'Arial'" font-size="3.528">clearance</text>
  </g>
  <g>
   <text x="115.15" y="15.548" stroke="none" fill="#000000" font-family="'Arial'" font-size="3.528">Minimum </text>
   <text x="115.15" y="19.428" stroke="none" fill="#000000" font-family="'Arial'" font-size="3.528">rear clearance</text>
  </g>
 </g>
 <g id="text-_x0020_DO_x0020_NOT_x0020_translate">
  <g>
   <text x="90.138" y="65.76" stroke="none" fill="#000000" font-family="'Arial'" font-size="3.528">1000 mm</text>
   <text x="90.138" y="69.641" stroke="none" fill="#000000" font-family="'Arial'" font-size="3.528">(39.4 in)</text>
  </g>
  <g>
   <text x="128.158" y="49.676" stroke="none" fill="#000000" font-family="'Arial'" font-size="3.528">800 mm</text>
   <text x="128.158" y="53.555" stroke="none" fill="#000000" font-family="'Arial'" font-size="3.528">(31.5 in)</text>
  </g>
  <g>
   <text x="155.528" y="38.005" stroke="none" fill="#000000" font-family="'Arial'" font-size="3.528">100 mm</text>
   <text x="155.528" y="41.886" stroke="none" fill="#000000" font-family="'Arial'" font-size="3.528">(4 in)</text>
  </g>
  <g>
   <text x="50.335" y="68.158" stroke="none" fill="#000000" font-family="'Arial'" font-size="3.528">600 mm</text>
   <text x="50.335" y="72.037" stroke="none" fill="#000000" font-family="'Arial'" font-size="3.528">(23.6 in)</text>
  </g>
  <g>
   <text x="13.025" y="54.896" stroke="none" fill="#000000" font-family="'Arial'" font-size="3.528">1200 mm</text>
   <text x="13.025" y="58.777" stroke="none" fill="#000000" font-family="'Arial'" font-size="3.528">(47.2 in)</text>
  </g>
 </g>
 <g id="_x0020_callout_x0020_layer">
 </g>
</svg>
