<?xml version="1.0" encoding="UTF-8"?>
<!-- Generator: PTC Arbortext IsoDraw 7.4 M001 -->
<svg xmlns="http://www.w3.org/2000/svg" xmlns:xlink="http://www.w3.org/1999/xlink" width="120mm" height="67.778mm" viewBox="0 0 120 67.778" fill-rule="evenodd" clip-rule="evenodd" stroke="#000000" stroke-linecap="round" fill="none" xml:space="preserve" preserveAspectRatio="xMidYMid meet" zoomAndPan="magnify" version="1.1" contentScriptType="text/ecmascript" contentStyleType="text/css">
 <g id="Standard_x0020_layer">
  <path stroke="none" fill="#FFFFFF" d="M12.298 4.769L12.298 7.105C11.509 7.105 10.9 6.597 10.9 5.937 10.9 5.302 11.509 4.769 12.298 4.769z"/>
  <path stroke-width="0.395" stroke-linejoin="round" stroke-miterlimit="10" d="M12.298 4.769L12.298 7.105C11.509 7.105 10.9 6.597 10.9 5.937C10.9 5.302 11.509 4.769 12.298 4.769L12.298 4.769z"/>
  <polyline stroke-width="0.395" stroke-linejoin="round" stroke-miterlimit="10" points="9.428 6.344 12.069 11.144 12.069 15.818"/>
  <path stroke="none" fill="#FFFFFF" d="M4.982 44.292L14.457 44.292 14.457 28.417 4.982 28.417 4.982 44.292z"/>
  <polygon stroke-width="0.237" stroke-linejoin="round" stroke-miterlimit="10" points="4.982 44.292 14.457 44.292 14.457 28.417 4.982 28.417 4.982 44.292"/>
  <path stroke="none" fill="#FFFFFF" d="M48.975 52.673L55.985 52.673 55.985 20.009 48.975 20.009 48.975 52.673z"/>
  <polygon stroke-width="0.237" stroke-linejoin="round" stroke-miterlimit="10" points="48.975 52.673 55.985 52.673 55.985 20.009 48.975 20.009 48.975 52.673"/>
  <path stroke="none" fill="#FFFFFF" d="M52.811 32.912L55.375 32.912 55.375 23.108 52.811 23.108 52.811 32.912z"/>
  <polygon stroke-width="0.079" stroke-linejoin="round" stroke-miterlimit="10" points="52.811 32.912 55.375 32.912 55.375 23.108 52.811 23.108 52.811 32.912"/>
  <path stroke="none" fill="#FFFFFF" d="M5.11 19.094L56.442 19.094 56.442 12.593 5.11 12.593 5.11 19.094z"/>
  <polygon stroke-width="0.237" stroke-linejoin="round" stroke-miterlimit="10" points="5.11 19.094 56.442 19.094 56.442 12.593 5.11 12.593 5.11 19.094"/>
  <polyline stroke-width="0.079" stroke-linejoin="round" stroke-miterlimit="10" points="12.298 4.769 21.339 4.769 21.339 12.593"/>
  <polyline stroke-width="0.395" stroke-linejoin="round" stroke-miterlimit="10" points="54.106 12.593 54.106 2.28 59.719 2.28"/>
  <path stroke="none" fill="#FFFFFF" d="M14.457 56.89L26.114 56.89 26.114 48.939 14.457 48.939 14.457 56.89z"/>
  <polygon stroke-width="0.237" stroke-linejoin="round" stroke-miterlimit="10" points="14.457 56.89 26.114 56.89 26.114 48.939 14.457 48.939 14.457 56.89"/>
  <path stroke="none" fill="#FFFFFF" d="M15.524 52.115L24.844 52.115 24.844 49.575 15.524 49.575 15.524 52.115z"/>
  <polygon stroke-width="0.079" stroke-linejoin="round" stroke-miterlimit="10" points="15.524 52.115 24.844 52.115 24.844 49.575 15.524 49.575 15.524 52.115"/>
  <path stroke="none" fill="#FFFFFF" d="M21.949 53.994C21.949 53.308 21.416 52.725 20.78 52.725 20.12 52.725 19.612 53.308 19.612 53.994 19.612 54.679 20.12 55.265 20.78 55.265 21.416 55.265 21.949 54.679 21.949 53.994z"/>
  <path stroke-width="0.079" stroke-linejoin="round" stroke-miterlimit="10" d="M21.949 53.994C21.949 53.308 21.416 52.725 20.78 52.725C20.12 52.725 19.612 53.308 19.612 53.994C19.612 54.679 20.12 55.265 20.78 55.265C21.416 55.265 21.949 54.679 21.949 53.994L21.949 53.994z"/>
  <line stroke-width="0.079" stroke-linejoin="round" stroke-miterlimit="10" x1="20.78" y1="52.725" x2="20.78" y2="52.115"/>
  <line stroke-width="0.395" stroke-linejoin="round" stroke-miterlimit="10" x1="7.903" y1="28.417" x2="7.903" y2="19.094"/>
  <path stroke="none" fill="#FFFFFF" d="M14.457 27.477L26.114 27.477 26.114 20.009 14.457 20.009 14.457 27.477z"/>
  <polygon stroke-width="0.237" stroke-linejoin="round" stroke-miterlimit="10" points="14.457 27.477 26.114 27.477 26.114 20.009 14.457 20.009 14.457 27.477"/>
  <polyline stroke-width="0.395" stroke-linejoin="round" stroke-miterlimit="10" points="11.637 28.417 11.637 24.682 14.457 24.682"/>
  <polyline stroke-width="0.395" stroke-linejoin="round" stroke-miterlimit="10" points="11.637 19.094 11.637 22.829 14.457 22.829"/>
  <line stroke-width="0.237" stroke-linejoin="round" stroke-miterlimit="10" x1="52.481" y1="20.009" x2="52.53" y2="19.094"/>
  <polyline stroke-width="0.237" stroke-linejoin="round" stroke-miterlimit="10" points="48.975 46.146 21.899 46.146 21.899 42.006 14.457 42.006"/>
  <polyline stroke-width="0.237" stroke-linejoin="round" stroke-miterlimit="10" points="11.637 44.292 11.637 48.026 17.859 48.026 17.859 49.575"/>
  <path stroke-width="0.237" stroke-linejoin="round" stroke-miterlimit="10" d="M28.553 44.292L28.553 45.359C28.121 45.359 27.792 45.713 27.792 46.146C27.792 46.578 28.121 46.933 28.553 46.933L28.553 48.026L22.533 48.026L22.533 49.575"/>
  <path stroke="none" fill="#FFFFFF" d="M25.632 44.292L35.106 44.292 35.106 28.417 25.632 28.417 25.632 44.292z"/>
  <polygon stroke-width="0.237" stroke-linejoin="round" stroke-miterlimit="10" points="25.632 44.292 35.106 44.292 35.106 28.417 25.632 28.417 25.632 44.292"/>
  <line stroke-width="0.237" stroke-linejoin="round" stroke-miterlimit="10" x1="48.975" y1="42.006" x2="35.106" y2="42.006"/>
  <line stroke-width="0.237" stroke-linejoin="round" stroke-miterlimit="10" x1="48.975" y1="50.82" x2="26.114" y2="50.82"/>
  <polyline stroke-width="0.237" stroke-linejoin="round" stroke-miterlimit="10" points="26.114 52.927 37.088 52.927 37.088 54.554"/>
  <line stroke-width="0.395" stroke-linejoin="round" stroke-miterlimit="10" x1="30.553" y1="28.417" x2="30.553" y2="19.094"/>
  <path stroke="none" fill="#FFFFFF" d="M38.103 65.424C38.103 64.713 37.545 64.155 36.834 64.155 36.148 64.155 35.59 64.713 35.59 65.424 35.59 66.109 36.148 66.668 36.834 66.668 37.545 66.668 38.103 66.109 38.103 65.424z"/>
  <path stroke-width="0.079" stroke-linejoin="round" stroke-miterlimit="10" d="M38.103 65.424C38.103 64.713 37.545 64.155 36.834 64.155C36.148 64.155 35.59 64.713 35.59 65.424C35.59 66.109 36.148 66.668 36.834 66.668C37.545 66.668 38.103 66.109 38.103 65.424L38.103 65.424z"/>
  <path stroke="none" fill="#FFFFFF" d="M31.245 62.021L42.905 62.021 42.905 54.554 31.245 54.554 31.245 62.021z"/>
  <polygon stroke-width="0.237" stroke-linejoin="round" stroke-miterlimit="10" points="31.245 62.021 42.905 62.021 42.905 54.554 31.245 54.554 31.245 62.021"/>
  <polyline stroke-width="0.395" stroke-linejoin="round" stroke-miterlimit="10" points="1.833 1.34 12.17 1.34 12.17 6.953"/>
  <polyline stroke-width="0.395" stroke-linejoin="round" stroke-miterlimit="10" points="28.452 12.339 28.452 0.198 22.382 0.198"/>
 </g>
 <g id="120mm_x0020_hidden_x0020_Schneider_x0020_layer_x0020_for_x0020_editor">
  <polygon stroke="none" points="0 58.779 0 67.778 120 67.778 120 58.779 0 58.779"/>
 </g>
 <g id="cutout_x0020_layer">
 </g>
 <g id="outline_x0020_layer">
 </g>
 <g id="zoom_x0020_layer">
 </g>
 <g id="arrow_x0020_layer">
 </g>
 <g id="_x0020_cable_x0020_layer">
 </g>
 <g id="symbol_x0020_layer">
 </g>
 <g id="_x0020_text_x0020_layer">
  <g>
   <text x="20.498" y="15.545" stroke="none" fill="#000000" font-family="'Arial'" font-size="1.98">Power connection board</text>
   <text x="28.865" y="18.015" stroke="none" fill="#000000" font-family="'Arial'" font-size="1.98">A101</text>
  </g>
  <g>
   <text transform="matrix(0 -1 1 0 9.423 43.228)" stroke="none" fill="#000000" font-family="'Arial'" font-size="1.98">Power module</text>
   <text transform="matrix(0 -1 1 0 11.893 39.155)" stroke="none" fill="#000000" font-family="'Arial'" font-size="1.98">T101</text>
  </g>
  <g>
   <text transform="matrix(0 -1 1 0 30.472 43.228)" stroke="none" fill="#000000" font-family="'Arial'" font-size="1.98">Power module</text>
   <text transform="matrix(0 -1 1 0 32.942 39.155)" stroke="none" fill="#000000" font-family="'Arial'" font-size="1.98">T102</text>
  </g>
  <text transform="matrix(0 -1 1 0 51.399 50.856)" stroke="none" fill="#000000" font-family="'Arial'" font-size="1.98">Controller box  A102</text>
  <text x="15.292" y="8.948" stroke="none" fill="#000000" font-family="'Arial'" font-size="1.98">K101</text>
  <g>
   <text x="16.062" y="23.376" stroke="none" fill="#000000" font-family="'Arial'" font-size="1.98">Capacitor </text>
   <text x="15.455" y="25.847" stroke="none" fill="#000000" font-family="'Arial'" font-size="1.98">board A103</text>
  </g>
  <g>
   <text x="31.754" y="58.183" stroke="none" fill="#000000" font-family="'Arial'" font-size="1.98">Fan monitor</text>
   <text x="34.725" y="60.654" stroke="none" fill="#000000" font-family="'Arial'" font-size="1.98">A701</text>
  </g>
  <text x="40.677" y="50.625" stroke="none" fill="#000000" font-family="'Arial'" font-size="3.439"> </text>
  <text x="15.702" y="51.32" stroke="none" fill="#000000" font-family="'Arial'" font-size="1.698">Fan monitor</text>
  <text x="14.827" y="56.261" stroke="none" fill="#000000" font-family="'Arial'" font-size="1.98">E101</text>
  <text x="38.454" y="66.063" stroke="none" fill="#000000" font-family="'Arial'" font-size="1.98">E701</text>
  <text x="19.893" y="54.677" stroke="none" fill="#000000" font-family="'Arial'" font-size="1.98">M</text>
  <text x="36.015" y="66.048" stroke="none" fill="#000000" font-family="'Arial'" font-size="1.98">M</text>
  <text transform="matrix(0 -1 1 0 54.595 32.469)" stroke="none" fill="#000000" font-family="'Arial'" font-size="1.698">Service port</text>
 </g>
 <g id="text-_x0020_DO_x0020_NOT_x0020_translate">
 </g>
 <g id="_x0020_callout_x0020_layer">
 </g>
</svg>
