<?xml version="1.0" encoding="UTF-8"?>
<!-- Generator: PTC Arbortext IsoDraw 7.4 M001 -->
<svg xmlns="http://www.w3.org/2000/svg" xmlns:xlink="http://www.w3.org/1999/xlink" width="120mm" height="50.375mm" viewBox="0 0 120 50.375" fill-rule="evenodd" clip-rule="evenodd" stroke="#000000" stroke-linecap="round" fill="none" xml:space="preserve" preserveAspectRatio="xMidYMid meet" zoomAndPan="magnify" version="1.1" contentScriptType="text/ecmascript" contentStyleType="text/css">
 <g id="Standard_x0020_layer">
  <line stroke-width="0.2" x1="37.661" y1="16.042" x2="45.944" y2="16.042"/>
  <line stroke-width="0.2" x1="25.246" y1="16.042" x2="33.53" y2="16.042"/>
  <line stroke-width="0.2" x1="37.661" y1="29.768" x2="45.944" y2="29.768"/>
  <line stroke-width="0.2" x1="25.246" y1="29.768" x2="33.53" y2="29.768"/>
  <line stroke-width="0.2" x1="18.801" y1="8.792" x2="64.871" y2="8.792"/>
  <line stroke-width="0.2" x1="45.944" y1="16.042" x2="58.381" y2="16.042"/>
  <line stroke-width="0.2" x1="25.246" y1="16.042" x2="18.8" y2="16.042"/>
  <line stroke-width="0.2" x1="80.635" y1="16.147" x2="87.781" y2="16.147"/>
  <line stroke-width="0.2" x1="91.424" y1="16.147" x2="107.081" y2="16.147"/>
  <line stroke-width="0.2" x1="80.625" y1="16.147" x2="71.361" y2="16.147"/>
  <line stroke-width="0.2" x1="45.944" y1="29.768" x2="58.287" y2="29.768"/>
  <line stroke-width="0.2" x1="25.246" y1="29.768" x2="18.8" y2="29.8"/>
  <polyline stroke-width="0.2" points="71.266 29.887 80.185 29.771 80.185 16.152"/>
  <line stroke-width="0.2" x1="27.586" y1="29.768" x2="27.586" y2="41.39"/>
  <line stroke-width="0.2" x1="95.228" y1="31.285" x2="95.228" y2="16.147"/>
  <polygon stroke-width="0.2" points="58.381 11.701 71.329 11.701 71.329 20.208 58.381 20.208 58.381 11.701"/>
  <line stroke-width="0.2" x1="64.871" y1="8.792" x2="64.871" y2="11.701"/>
  <line stroke-width="0.2" x1="58.381" y1="11.701" x2="64.855" y2="20.208"/>
  <line stroke-width="0.2" x1="71.361" y1="11.701" x2="64.855" y2="20.208"/>
  <text x="63.268" y="16.408" stroke="none" fill="#000000" font-family="'Arial'" font-size="5.016">=</text>
  <path stroke-width="0.2" d="M59.85 18.477C60.351 17.599 60.509 17.887 60.954 18.483C61.136 18.727 61.354 19.166 61.981 18.35"/>
  <path stroke-width="0.2" d="M67.813 18.477C68.314 17.599 68.471 17.887 68.915 18.483C69.097 18.727 69.317 19.166 69.944 18.35"/>
  <polygon stroke-width="0.2" points="58.287 26.214 58.287 36.183 71.266 36.183 71.266 26.214 58.287 26.214"/>
  <polygon stroke-width="0.2" points="21.556 0.1 104.248 0.1 104.248 49.628 21.556 49.628 21.556 0.1"/>
  <polyline stroke-width="0.2" points="27.586 41.39 67.185 41.39 95.325 41.39 95.325 35.466"/>
  <g>
   <path stroke-width="0.2" d="M87.722 16.74C87.986 16.74 88.2 16.527 88.2 16.263C88.2 15.997 87.986 15.784 87.722 15.784C87.457 15.784 87.243 15.997 87.243 16.263C87.243 16.527 87.457 16.74 87.722 16.74z"/>
   <path stroke-width="0.2" d="M91.688 16.74C91.951 16.74 92.167 16.527 92.167 16.263C92.167 15.997 91.951 15.784 91.688 15.784C91.424 15.784 91.209 15.997 91.209 16.263C91.209 16.527 91.424 16.74 91.688 16.74z"/>
   <path stroke-width="0.2" d="M87.783 15.384C88.608 14.464 90.584 14.451 91.628 15.384"/>
  </g>
  <g>
   <path stroke-width="0.2" d="M33.68 30.283C33.945 30.283 34.159 30.07 34.159 29.804C34.159 29.541 33.945 29.327 33.68 29.327C33.417 29.327 33.203 29.541 33.203 29.804C33.203 30.07 33.417 30.283 33.68 30.283z"/>
   <path stroke-width="0.2" d="M37.646 30.283C37.911 30.283 38.125 30.07 38.125 29.804C38.125 29.541 37.911 29.327 37.646 29.327C37.383 29.327 37.167 29.541 37.167 29.804C37.167 30.07 37.383 30.283 37.646 30.283z"/>
   <path stroke-width="0.2" d="M33.741 28.928C34.567 28.007 36.543 27.993 37.585 28.928"/>
  </g>
  <g>
   <path stroke-width="0.2" d="M33.551 16.481C33.814 16.481 34.029 16.265 34.029 16.001C34.029 15.737 33.814 15.522 33.551 15.522C33.286 15.522 33.072 15.737 33.072 16.001C33.072 16.265 33.286 16.481 33.551 16.481z"/>
   <path stroke-width="0.2" d="M37.517 16.481C37.78 16.481 37.994 16.265 37.994 16.001C37.994 15.737 37.78 15.522 37.517 15.522C37.252 15.522 37.037 15.737 37.037 16.001C37.037 16.265 37.252 16.481 37.517 16.481z"/>
   <path stroke-width="0.2" d="M33.612 15.125C34.436 14.204 36.412 14.191 37.456 15.125"/>
  </g>
  <g>
   <path stroke-width="0.2" d="M94.868 31.46C94.868 31.725 95.082 31.939 95.346 31.939C95.611 31.939 95.825 31.725 95.825 31.46C95.825 31.196 95.611 30.981 95.346 30.981C95.082 30.981 94.868 31.196 94.868 31.46z"/>
   <path stroke-width="0.2" d="M94.868 35.426C94.868 35.691 95.082 35.905 95.346 35.905C95.611 35.905 95.825 35.691 95.825 35.426C95.825 35.161 95.611 34.948 95.346 34.948C95.082 34.948 94.868 35.161 94.868 35.426z"/>
   <path stroke-width="0.2" d="M96.224 31.521C97.144 32.347 97.159 34.323 96.224 35.365"/>
  </g>
 </g>
 <g id="120mm_x0020_hidden_x0020_Schneider_x0020_layer_x0020_for_x0020_editor">
  <polygon stroke="none" points="0 41.375 0 50.375 120 50.375 120 41.375 0 41.375"/>
 </g>
 <g id="cutout_x0020_layer">
 </g>
 <g id="outline_x0020_layer">
 </g>
 <g id="arrow_x0020_layer">
 </g>
 <g id="_x0020_cable_x0020_layer">
 </g>
 <g id="symbol_x0020_layer">
 </g>
 <g id="_x0020_text_x0020_layer_translate">
  <text x="1.006" y="10.07" stroke="none" fill="#000000" font-family="'Arial'" font-size="4.179">Batteries</text>
  <text x="8.205" y="17.248" stroke="none" fill="#000000" font-family="'Arial'" font-size="4.179">Input</text>
  <text x="3.794" y="30.887" stroke="none" fill="#000000" font-family="'Arial'" font-size="4.179">Bypass</text>
  <text x="108.551" y="18.809" stroke="none" fill="#000000" font-family="'Arial'" font-size="4.179">Load</text>
  <g>
   <text x="58.918" y="30.231" stroke="none" fill="#000000" font-family="'Arial'" font-size="4.179">Static </text>
   <text x="58.92" y="34.817" stroke="none" fill="#000000" font-family="'Arial'" font-size="4.179">switch</text>
  </g>
 </g>
 <g id="_x0020_callout_x0020_layer">
 </g>
 <g id="text_x0020_layer_do_x0020_not_x0020_translate">
  <text x="32.493" y="20.92" stroke="none" fill="#000000" font-family="'Arial'" font-size="4.179">UIB</text>
  <text x="30.489" y="35.036" stroke="none" fill="#000000" font-family="'Arial'" font-size="4.179">SSIB</text>
  <text x="83.513" y="34.686" stroke="none" fill="#000000" font-family="'Arial'" font-size="4.179">MBB</text>
  <text x="85.492" y="12.48" stroke="none" fill="#000000" font-family="'Arial'" font-size="4.179">UOB</text>
 </g>
</svg>
