<?xml version="1.0" encoding="UTF-8"?>
<!-- Generator: PTC Arbortext IsoDraw 7.4 M001 -->
<svg xmlns="http://www.w3.org/2000/svg" xmlns:xlink="http://www.w3.org/1999/xlink" width="120mm" height="31.841mm" viewBox="0 0 120 31.841" fill-rule="evenodd" clip-rule="evenodd" stroke="#000000" stroke-linecap="round" fill="none" xml:space="preserve" preserveAspectRatio="xMidYMid meet" zoomAndPan="magnify" version="1.1" contentScriptType="text/ecmascript" contentStyleType="text/css">
 <g id="_x0020_fill_x0020_layer">
  <path stroke="none" fill="#01889C" d="M17.942 16.099L17.942 15.205 6.564 13.807 1.911 17.929 0.655 20.016 0.655 20.995 6.155 21.67 8.255 20.762 9.026 20.067 12.173 20.452 13.939 19.378 20.263 20.153 44.103 23.082 60.537 25.099 74.802 26.85 78.489 27.303 78.248 27.521 78.248 28.596 80.578 28.882 80.45 29.745 80.45 30.811 85.983 31.489 89.156 29.576 90.156 28.675 91.081 28.789 93.775 26.361 93.775 24.423 82.403 23.027 81.388 23.94 17.942 16.099z"/>
 </g>
 <g id="Standard_x0020_layer">
  <g id="AUTOID_3677">
   <desc>Set</desc>
   <g id="870-96689.PRT">
    <desc>870-96689.PRT</desc>
    <line stroke-width="0.106" x1="78.591" y1="27.326" x2="13.929" y2="19.385"/>
    <line stroke-width="0.106" x1="91.043" y1="28.855" x2="90.121" y2="28.742"/>
    <line stroke-width="0.106" x1="93.766" y1="26.402" x2="91.043" y2="28.855"/>
    <line stroke-width="0.106" x1="93.766" y1="25.46" x2="93.766" y2="26.402"/>
    <line stroke-width="0.106" x1="91.043" y1="27.913" x2="91.043" y2="28.855"/>
    <line stroke-width="0.106" x1="93.766" y1="25.46" x2="91.043" y2="27.913"/>
    <line stroke-width="0.106" x1="79.138" y1="26.451" x2="15.223" y2="18.603"/>
    <line stroke-width="0.106" x1="81.487" y1="23.952" x2="17.946" y2="16.15"/>
   </g>
   <g id="870-96692.PRT">
    <desc>870-96692.PRT</desc>
    <line stroke-width="0.106" x1="86.237" y1="24.431" x2="86.237" y2="24.681"/>
    <line stroke-width="0.106" x1="80.667" y1="28.867" x2="78.391" y2="28.588"/>
    <line stroke-width="0.106" x1="93.766" y1="24.518" x2="82.408" y2="23.123"/>
    <line stroke-width="0.106" x1="93.766" y1="25.46" x2="93.766" y2="24.518"/>
    <line stroke-width="0.106" x1="86.072" y1="31.483" x2="86.072" y2="30.541"/>
    <line stroke-width="0.106" x1="89.135" y1="28.687" x2="89.135" y2="29.629"/>
    <line stroke-width="0.106" x1="81.503" y1="28.028" x2="78.391" y2="27.646"/>
    <line stroke-width="0.106" x1="89.367" y1="25.763" x2="89.367" y2="25.977"/>
    <line stroke-width="0.106" x1="90.022" y1="25.173" x2="90.022" y2="26.115"/>
    <path stroke-width="0.106" d="M88.365 24.522L88.314 24.443C88.251 24.376 88.144 24.332 88.061 24.303C87.772 24.204 87.468 24.195 87.165 24.193L86.924 24.21L86.7 24.243C86.585 24.266 86.453 24.303 86.347 24.356C86.287 24.388 86.206 24.44 86.179 24.51L86.174 24.591"/>
    <path stroke-width="0.106" d="M82.408 23.123L82.174 23.335L79.918 25.365L79.685 25.576L79.518 25.844L78.557 27.381L78.391 27.646L78.391 27.961L78.391 28.588"/>
    <path stroke-width="0.106" d="M80.481 30.795L80.793 30.835L85.76 31.445L86.072 31.483L86.34 31.32L88.867 29.792C89.225 29.574 89.058 29.699 89.37 29.419L93.533 25.67L93.766 25.46"/>
    <path stroke-width="0.106" d="M81.503 28.028L81.269 28.239L80.92 28.554L80.686 28.765L80.628 29.074L80.54 29.545L80.481 29.855L80.481 30.169L80.481 30.795"/>
    <path stroke-width="0.106" d="M93.766 24.518L93.533 24.73L89.37 28.478L89.135 28.687L88.867 28.85L86.34 30.378L86.072 30.541L80.481 29.855"/>
    <path stroke-width="0.106" d="M88.365 24.522L88.361 24.605C88.334 24.675 88.253 24.727 88.191 24.757C88.085 24.811 87.954 24.847 87.84 24.87L87.615 24.905L87.375 24.922C87.072 24.92 86.768 24.911 86.478 24.812C86.396 24.783 86.29 24.736 86.224 24.672L86.174 24.591"/>
    <path stroke-width="0.106" d="M91.846 25.253L91.841 25.323L91.792 25.39L91.558 25.602L91.371 25.768C91.305 25.829 91.155 25.986 91.043 26.042C90.828 26.152 90.578 26.167 90.343 26.182C90.084 26.181 89.822 26.175 89.575 26.088C89.504 26.065 89.412 26.024 89.356 25.969L89.313 25.9"/>
    <path stroke-width="0.106" d="M89.962 26.167C90.096 26.047 90.242 25.99 90.418 25.955C90.677 25.903 90.936 25.905 91.197 25.926"/>
    <path stroke-width="0.106" d="M91.846 25.253L91.802 25.184C91.746 25.128 91.656 25.088 91.584 25.065C91.337 24.978 91.075 24.972 90.816 24.969C90.581 24.986 90.331 25.001 90.117 25.111C90.004 25.167 89.853 25.324 89.787 25.384L89.602 25.551L89.367 25.763L89.317 25.83L89.313 25.9"/>
   </g>
   <g id="870-96692.PRT_1">
    <desc>870-96692.PRT</desc>
    <line stroke-width="0.106" x1="6.254" y1="21.682" x2="6.254" y2="20.74"/>
    <line stroke-width="0.106" x1="9.047" y1="20.074" x2="9.047" y2="19.132"/>
    <line stroke-width="0.106" x1="12.159" y1="20.457" x2="12.159" y2="19.515"/>
    <line stroke-width="0.106" x1="17.946" y1="15.21" x2="6.588" y2="13.814"/>
    <line stroke-width="0.106" x1="17.946" y1="15.21" x2="17.946" y2="16.15"/>
    <line stroke-width="0.106" x1="10.417" y1="15.121" x2="10.417" y2="15.371"/>
    <line stroke-width="0.106" x1="15.223" y1="17.661" x2="15.223" y2="18.603"/>
    <line stroke-width="0.106" x1="8.23" y1="19.868" x2="8.23" y2="20.809"/>
    <line stroke-width="0.106" x1="6.384" y1="14.904" x2="6.384" y2="15.846"/>
    <line stroke-width="0.106" x1="5.73" y1="15.493" x2="5.73" y2="15.708"/>
    <path stroke-width="0.106" d="M8.208 14.983L8.205 15.054L8.153 15.121L7.919 15.332L7.734 15.5C7.668 15.56 7.517 15.715 7.405 15.772C7.19 15.882 6.94 15.897 6.705 15.913C6.445 15.913 6.184 15.904 5.937 15.82C5.865 15.794 5.775 15.756 5.719 15.699L5.676 15.631"/>
    <path stroke-width="0.106" d="M6.325 15.899C6.458 15.778 6.605 15.721 6.78 15.686C7.038 15.634 7.298 15.635 7.559 15.657"/>
    <path stroke-width="0.106" d="M8.208 14.983L8.164 14.914C8.108 14.859 8.018 14.82 7.948 14.794C7.7 14.71 7.439 14.702 7.179 14.701C6.944 14.717 6.694 14.731 6.479 14.842C6.367 14.899 6.216 15.054 6.15 15.115L5.964 15.282L5.73 15.493L5.679 15.561L5.676 15.631"/>
    <path stroke-width="0.106" d="M9.047 19.132L8.813 19.343L8.462 19.658L8.23 19.868L7.942 19.995L6.543 20.614L6.254 20.74L0.665 20.053"/>
    <path stroke-width="0.106" d="M17.946 15.21L17.713 15.419L15.457 17.451L15.223 17.661L14.954 17.824L12.428 19.352L12.159 19.515L9.047 19.132"/>
    <path stroke-width="0.106" d="M0.665 20.995L0.665 20.368L0.665 20.053L0.831 19.788L1.792 18.251C2.013 17.894 1.879 18.053 2.192 17.772L6.355 14.025L6.588 13.814"/>
    <path stroke-width="0.106" d="M9.047 20.074L8.813 20.285L8.462 20.6L8.23 20.809L7.942 20.937L6.543 21.556L6.254 21.682L0.665 20.995"/>
    <path stroke-width="0.106" d="M17.946 16.15L17.713 16.361L15.457 18.393L15.223 18.603L14.954 18.765L12.428 20.294L12.159 20.457L9.047 20.074"/>
    <path stroke-width="0.106" d="M12.545 15.212L12.541 15.294C12.515 15.365 12.432 15.416 12.371 15.448C12.266 15.502 12.134 15.538 12.019 15.561L11.795 15.595L11.554 15.612C11.253 15.611 10.948 15.602 10.659 15.502C10.576 15.474 10.47 15.428 10.404 15.362L10.355 15.282"/>
    <path stroke-width="0.106" d="M12.545 15.212L12.494 15.132C12.43 15.067 12.324 15.022 12.242 14.993C11.952 14.894 11.647 14.884 11.346 14.884L11.105 14.9L10.881 14.935C10.766 14.958 10.634 14.993 10.528 15.048C10.468 15.079 10.385 15.131 10.359 15.201L10.355 15.282"/>
   </g>
  </g>
 </g>
 <g id="120mm_x0020_hidden_x0020_Schneider_x0020_layer_x0020_for_x0020_editor">
  <polygon stroke="none" points="0 22.841 0 31.841 120 31.841 120 22.841 0 22.841"/>
 </g>
 <g id="cutout_x0020_layer">
 </g>
 <g id="outline_x0020_layer">
  <path stroke-width="0.353" d="M17.942 16.099L17.942 15.205L6.564 13.807L1.911 17.929L0.655 20.016L0.655 20.995L6.155 21.67L8.255 20.762L9.026 20.067L12.173 20.452L13.939 19.378L20.263 20.153L44.103 23.082L60.537 25.099L74.802 26.85L78.489 27.303L78.248 27.521L78.248 28.596L80.578 28.882L80.45 29.745L80.45 30.811L85.983 31.489L89.156 29.576L90.156 28.675L91.081 28.789L93.775 26.361L93.775 24.423L82.403 23.027L81.388 23.94L17.942 16.099z"/>
 </g>
 <g id="zoom_x0020_layer">
 </g>
 <g id="outline_x0020_on_x0020_zoom_x0020_layer">
 </g>
 <g id="arrow_x0020_layer">
  <g>
   <polygon stroke="none" fill="#FFFFFF" points="11.346 15.378 12.678 10.406 10.013 10.406"/>
   <line stroke="#FFFFFF" stroke-width="0.6" x1="11.346" y1="0.5" x2="11.346" y2="11.006"/>
   <polygon stroke="none" fill="#000000" points="11.346 14.605 12.417 10.605 10.274 10.605"/>
   <line stroke-width="0.2" stroke-dasharray="1 1" x1="11.346" y1="0.1" x2="11.346" y2="10.006"/>
   <line stroke-width="0.2" x1="11.346" y1="10.006" x2="11.346" y2="11.006"/>
  </g>
  <g>
   <polygon stroke="none" fill="#FFFFFF" points="87.301 24.728 88.632 19.757 85.968 19.757"/>
   <line stroke="#FFFFFF" stroke-width="0.6" x1="87.301" y1="9.573" x2="87.301" y2="20.356"/>
   <polygon stroke="none" fill="#000000" points="87.301 23.957 88.373 19.957 86.228 19.957"/>
   <line stroke-width="0.2" stroke-dasharray="1 1" x1="87.301" y1="9.173" x2="87.301" y2="19.356"/>
   <line stroke-width="0.2" x1="87.301" y1="19.356" x2="87.301" y2="20.356"/>
  </g>
 </g>
 <g id="_x0020_cable_x0020_layer">
 </g>
 <g id="symbol_x0020_layer">
 </g>
 <g id="text_x0020_layer">
 </g>
 <g id="text-_x0020_DO_x0020_NOT_x0020_translate">
 </g>
 <g id="callout_x0020_layer">
 </g>
</svg>
