<?xml version="1.0" encoding="UTF-8"?>
<!-- Generator: PTC Arbortext IsoDraw 7.4 M001 -->
<svg xmlns="http://www.w3.org/2000/svg" xmlns:xlink="http://www.w3.org/1999/xlink" width="120mm" height="75.376mm" viewBox="0 0 120 75.376" fill-rule="evenodd" clip-rule="evenodd" stroke="#000000" stroke-linecap="round" fill="none" xml:space="preserve" preserveAspectRatio="xMidYMid meet" zoomAndPan="magnify" version="1.1" contentScriptType="text/ecmascript" contentStyleType="text/css">
 <g id="Standard_x0020_layer">
  <path stroke-width="0.2" fill="#E5E5E5" d="M21.556 49.628L21.556 74.628 104.248 74.628 104.248 49.628 21.556 49.628z"/>
  <line stroke-width="0.2" x1="37.661" y1="16.042" x2="42.137" y2="16.042"/>
  <line stroke-width="0.2" x1="25.246" y1="16.042" x2="33.53" y2="16.042"/>
  <line stroke-width="0.2" x1="37.661" y1="29.768" x2="45.944" y2="29.768"/>
  <line stroke-width="0.2" x1="37.409" y1="6.293" x2="64.871" y2="6.293"/>
  <line stroke-width="0.2" x1="24.995" y1="6.293" x2="33.28" y2="6.293"/>
  <line stroke-width="0.2" x1="53.316" y1="16.042" x2="58.381" y2="16.042"/>
  <line stroke-width="0.2" x1="24.995" y1="6.293" x2="18.094" y2="6.293"/>
  <line stroke-width="0.2" x1="25.246" y1="16.042" x2="18.344" y2="16.042"/>
  <line stroke-width="0.2" x1="85.024" y1="16.147" x2="99.251" y2="16.147"/>
  <line stroke-width="0.2" x1="73.838" y1="16.147" x2="71.361" y2="16.147"/>
  <line stroke-width="0.2" x1="45.944" y1="29.768" x2="49.389" y2="29.768"/>
  <line stroke-width="0.2" x1="53.284" y1="29.768" x2="58.368" y2="29.768"/>
  <polyline stroke-width="0.2" points="71.266 29.887 87.43 29.887 87.43 16.414"/>
  <g>
   <path stroke-width="0.2" d="M88.04 16.152C88.04 15.824 87.775 15.56 87.447 15.56C87.12 15.56 86.855 15.824 86.855 16.152C86.855 16.48 87.12 16.745 87.447 16.745C87.775 16.745 88.04 16.48 88.04 16.152"/>
  </g>
  <path stroke-width="0.2" fill="#000000" d="M88.04 16.157C88.04 15.878 87.727 15.564 87.447 15.564 87.168 15.564 86.855 15.878 86.855 16.157 86.855 16.435 87.168 16.75 87.447 16.75 87.727 16.75 88.04 16.435 88.04 16.157z"/>
  <g>
   <path stroke-width="0.2" d="M44.179 29.778C44.179 29.452 43.914 29.185 43.588 29.185C43.259 29.185 42.994 29.452 42.994 29.778C42.994 30.106 43.259 30.37 43.588 30.37C43.914 30.37 44.179 30.106 44.179 29.778"/>
  </g>
  <path stroke-width="0.2" fill="#000000" d="M44.179 29.778C44.179 29.638 44.121 29.475 44.006 29.359 43.89 29.243 43.726 29.185 43.588 29.185 43.448 29.185 43.283 29.243 43.168 29.359 43.052 29.475 42.994 29.638 42.994 29.778 42.994 29.919 43.052 30.082 43.168 30.198 43.283 30.312 43.448 30.37 43.588 30.37 43.726 30.37 43.89 30.312 44.006 30.198 44.121 30.082 44.179 29.919 44.179 29.778z"/>
  <line stroke-width="0.2" x1="43.587" y1="29.768" x2="43.587" y2="41.39"/>
  <g>
   <path stroke-width="0.2" d="M99.555 16.152C99.555 15.824 99.29 15.56 98.963 15.56C98.637 15.56 98.37 15.824 98.37 16.152C98.37 16.48 98.637 16.745 98.963 16.745C99.29 16.745 99.555 16.48 99.555 16.152"/>
  </g>
  <path stroke-width="0.2" fill="#000000" d="M99.555 16.152C99.555 15.872 99.242 15.56 98.963 15.56 98.685 15.56 98.37 15.872 98.37 16.152 98.37 16.431 98.685 16.745 98.963 16.745 99.242 16.745 99.555 16.431 99.555 16.152z"/>
  <polyline stroke-width="0.2" points="43.587 41.542 90.429 41.542 90.429 19.059"/>
  <polygon stroke-width="0.2" points="58.381 11.701 71.329 11.701 71.329 20.208 58.381 20.208 58.381 11.701"/>
  <line stroke-width="0.2" x1="64.871" y1="6.395" x2="64.871" y2="11.701"/>
  <line stroke-width="0.2" x1="58.381" y1="11.701" x2="64.855" y2="20.208"/>
  <line stroke-width="0.2" x1="71.361" y1="11.701" x2="64.855" y2="20.208"/>
  <text x="63.268" y="16.408" stroke="none" fill="#000000" font-family="'Arial'" font-size="5.016">=</text>
  <path stroke-width="0.2" d="M59.85 18.477C60.351 17.599 60.509 17.887 60.954 18.483C61.136 18.727 61.354 19.166 61.981 18.35"/>
  <path stroke-width="0.2" d="M67.813 18.477C68.314 17.599 68.471 17.887 68.915 18.483C69.097 18.727 69.317 19.166 69.944 18.35"/>
  <line stroke-width="0.2" x1="33.374" y1="5.732" x2="33.374" y2="6.815"/>
  <g>
   <path stroke-width="0.2" d="M34.177 6.274C34.177 6.067 34.009 5.897 33.801 5.897C33.594 5.897 33.426 6.067 33.426 6.274C33.426 6.482 33.594 6.65 33.801 6.65C34.009 6.65 34.177 6.482 34.177 6.274"/>
  </g>
  <line stroke-width="0.2" x1="37.661" y1="16.042" x2="34.182" y2="17.361"/>
  <line stroke-width="0.2" x1="33.357" y1="7.81" x2="37.409" y2="6.293"/>
  <line stroke-width="0.2" x1="33.582" y1="15.579" x2="33.582" y2="16.661"/>
  <g>
   <path stroke-width="0.2" d="M34.335 16.12C34.335 15.913 34.165 15.743 33.957 15.743C33.75 15.743 33.582 15.913 33.582 16.12C33.582 16.327 33.75 16.495 33.957 16.495C34.165 16.495 34.335 16.327 34.335 16.12"/>
  </g>
  <line stroke-width="0.2" x1="49.222" y1="29.323" x2="49.222" y2="30.405"/>
  <g>
   <path stroke-width="0.2" d="M49.973 29.864C49.973 29.657 49.805 29.487 49.597 29.487C49.39 29.487 49.222 29.657 49.222 29.864C49.222 30.071 49.39 30.24 49.597 30.24C49.805 30.24 49.973 30.071 49.973 29.864"/>
  </g>
  <polygon stroke-width="0.2" points="58.287 26.214 58.287 36.183 71.266 36.183 71.266 26.214 58.287 26.214"/>
  <line stroke-width="0.2" x1="37.661" y1="29.768" x2="34.182" y2="31.085"/>
  <path stroke-width="0.2" fill="#000000" d="M99.555 19.152C99.555 18.873 99.242 18.559 98.963 18.559 98.685 18.559 98.37 18.873 98.37 19.152 98.37 19.431 98.685 19.745 98.963 19.745 99.242 19.745 99.555 19.431 99.555 19.152z"/>
  <line stroke-width="0.2" x1="99.463" y1="19.059" x2="90.429" y2="19.059"/>
  <polyline stroke-width="0.2" points="107.733 18.103 103.076 18.103 99.251 16.323"/>
  <g>
   <path stroke-width="0.2" d="M103.67 18.103C103.67 17.775 103.403 17.51 103.076 17.51C102.75 17.51 102.484 17.775 102.484 18.103C102.484 18.429 102.75 18.695 103.076 18.695C103.403 18.695 103.67 18.429 103.67 18.103"/>
  </g>
  <path stroke-width="0.2" fill="#000000" d="M103.67 18.103C103.67 17.824 103.355 17.51 103.076 17.51 102.798 17.51 102.484 17.824 102.484 18.103 102.484 18.382 102.798 18.695 103.076 18.695 103.355 18.695 103.67 18.382 103.67 18.103z"/>
  <path stroke-width="0.2" fill="#000000" d="M99.486 16.431L99.864 17.202 100.367 16.196 99.486 16.431z"/>
  <line stroke-width="0.2" x1="53.36" y1="29.768" x2="49.881" y2="31.085"/>
  <polygon stroke-width="0.2" points="21.556 0.1 21.556 49.628 104.248 49.628 104.248 0.1 21.556 0.1"/>
  <line stroke-width="0.2" x1="38.319" y1="64.864" x2="34.84" y2="66.182"/>
  <line stroke-width="0.2" x1="38.319" y1="64.864" x2="42.537" y2="64.864"/>
  <polyline stroke-width="0.2" points="53.716 64.864 64.323 64.864 64.323 46.777 24.678 46.834 24.678 29.696 33.914 29.696"/>
  <line stroke-width="0.2" x1="33.914" y1="29.155" x2="33.914" y2="30.239"/>
  <g>
   <path stroke-width="0.2" d="M34.667 29.696C34.667 29.489 34.499 29.321 34.29 29.321C34.084 29.321 33.914 29.489 33.914 29.696C33.914 29.905 34.084 30.074 34.29 30.074C34.499 30.074 34.667 29.905 34.667 29.696"/>
  </g>
  <g>
   <g>
    <path stroke-width="0.2" stroke-dasharray="0.01 0.4" d="M48.82 16.189C48.82 15.266 48.445 14.43 47.841 13.826C46.534 12.519 44.418 12.519 43.112 13.826C42.46 14.477 42.134 15.333 42.134 16.189C42.134 17.111 42.509 17.948 43.112 18.553C44.418 19.858 46.534 19.858 47.841 18.553C48.493 17.899 48.82 17.045 48.82 16.189"/>
   </g>
   <g>
    <path stroke-width="0.2" stroke-dasharray="0.01 0.4" d="M53.32 16.189C53.32 15.266 52.945 14.43 52.341 13.826C51.034 12.519 48.918 12.519 47.612 13.826C46.96 14.477 46.634 15.333 46.634 16.189C46.634 17.111 47.009 17.948 47.612 18.553C48.918 19.858 51.034 19.858 52.341 18.553C52.993 17.899 53.32 17.045 53.32 16.189"/>
   </g>
  </g>
  <g>
   <g>
    <path stroke-width="0.2" stroke-dasharray="0.01 0.4" d="M49.219 65.027C49.219 64.103 48.845 63.268 48.24 62.662C46.936 61.357 44.819 61.357 43.514 62.662C42.86 63.316 42.534 64.171 42.534 65.027C42.534 65.95 42.908 66.786 43.514 67.391C44.819 68.695 46.936 68.695 48.24 67.391C48.893 66.737 49.219 65.882 49.219 65.027"/>
   </g>
   <g>
    <path stroke-width="0.2" stroke-dasharray="0.01 0.4" d="M53.719 65.027C53.719 64.103 53.345 63.268 52.74 62.662C51.435 61.357 49.319 61.357 48.014 62.662C47.36 63.316 47.034 64.171 47.034 65.027C47.034 65.95 47.408 66.786 48.014 67.391C49.319 68.695 51.435 68.695 52.74 67.391C53.393 66.737 53.719 65.882 53.719 65.027"/>
   </g>
  </g>
  <g>
   <g>
    <path stroke-width="0.2" stroke-dasharray="0.01 0.4" d="M80.524 16.178C80.524 15.255 80.15 14.419 79.545 13.814C78.239 12.509 76.123 12.509 74.817 13.814C74.165 14.468 73.838 15.323 73.838 16.178C73.838 17.102 74.212 17.937 74.817 18.542C76.123 19.847 78.239 19.847 79.545 18.542C80.197 17.89 80.524 17.033 80.524 16.178"/>
   </g>
   <g>
    <path stroke-width="0.2" stroke-dasharray="0.01 0.4" d="M85.024 16.178C85.024 15.255 84.65 14.419 84.045 13.814C82.739 12.509 80.623 12.509 79.317 13.814C78.665 14.468 78.338 15.323 78.338 16.178C78.338 17.102 78.712 17.937 79.317 18.542C80.623 19.847 82.739 19.847 84.045 18.542C84.697 17.89 85.024 17.033 85.024 16.178"/>
   </g>
  </g>
  <line stroke-width="0.2" x1="25.246" y1="64.768" x2="33.53" y2="64.768"/>
  <line stroke-width="0.2" x1="25.246" y1="64.768" x2="18.344" y2="64.802"/>
  <line stroke-width="0.2" x1="33.819" y1="64.322" x2="33.819" y2="65.406"/>
  <g>
   <path stroke-width="0.2" d="M34.572 64.864C34.572 64.656 34.402 64.487 34.195 64.487C33.987 64.487 33.819 64.656 33.819 64.864C33.819 65.072 33.987 65.24 34.195 65.24C34.402 65.24 34.572 65.072 34.572 64.864"/>
  </g>
 </g>
 <g id="120mm_x0020_hidden_x0020_Schneider_x0020_layer_x0020_for_x0020_editor">
  <polygon stroke="none" points="0 66.376 0 75.376 120 75.376 120 66.376 0 66.376"/>
 </g>
 <g id="cutout_x0020_layer">
 </g>
 <g id="outline_x0020_layer">
 </g>
 <g id="arrow_x0020_layer">
 </g>
 <g id="_x0020_cable_x0020_layer">
 </g>
 <g id="symbol_x0020_layer">
 </g>
 <g id="_x0020_text_x0020_layer_translate">
  <text x="0.143" y="7.57" stroke="none" fill="#000000" font-family="'Arial'" font-size="4.179">Batteries</text>
  <text x="8.605" y="17.248" stroke="none" fill="#000000" font-family="'Arial'" font-size="4.179">Input</text>
  <text x="3.966" y="65.887" stroke="none" fill="#000000" font-family="'Arial'" font-size="4.179">Bypass</text>
  <text x="108.551" y="19.41" stroke="none" fill="#000000" font-family="'Arial'" font-size="4.179">Load</text>
  <g>
   <text x="58.918" y="30.231" stroke="none" fill="#000000" font-family="'Arial'" font-size="4.179">Static </text>
   <text x="58.57" y="34.817" stroke="none" fill="#000000" font-family="'Arial'" font-size="4.179">Switch</text>
  </g>
  <text x="94.051" y="48.009" stroke="none" fill="#000000" font-family="'Arial'" font-size="4.179">UPS</text>
  <g>
   <text x="87.539" y="54.259" stroke="none" fill="#000000" font-family="'Arial'" font-size="4.179">Auxiliary</text>
   <text x="87.539" y="58.845" stroke="none" fill="#000000" font-family="'Arial'" font-size="4.179">cabinet</text>
  </g>
 </g>
 <g id="_x0020_callout_x0020_layer">
 </g>
 <g id="text_x0020_layer_do_x0020_not_x0020_translate">
  <text x="30.489" y="20.535" stroke="none" fill="#000000" font-family="'Arial'" font-size="4.179">Q001</text>
  <text x="30.489" y="35.036" stroke="none" fill="#000000" font-family="'Arial'" font-size="4.179">Q501</text>
  <text x="93.037" y="23.885" stroke="none" fill="#000000" font-family="'Arial'" font-size="4.179">Q601</text>
  <text x="30.689" y="4.557" stroke="none" fill="#000000" font-family="'Arial'" font-size="4.179">Q201</text>
  <text x="45.994" y="36.307" stroke="none" fill="#000000" font-family="'Arial'" font-size="4.179">Q528</text>
  <text x="43.329" y="60.448" stroke="none" fill="#000000" font-family="'Arial'" font-size="4.179">T501</text>
  <text x="43.621" y="12.244" stroke="none" fill="#000000" font-family="'Arial'" font-size="4.179">T001</text>
  <text x="74.965" y="12.237" stroke="none" fill="#000000" font-family="'Arial'" font-size="4.179">T401</text>
  <text x="30.312" y="69.838" stroke="none" fill="#000000" font-family="'Arial'" font-size="4.179">Q301</text>
 </g>
</svg>
