<?xml version="1.0" encoding="UTF-8"?>
<!-- Generator: PTC Arbortext IsoDraw 7.4 M001 -->
<svg xmlns="http://www.w3.org/2000/svg" xmlns:xlink="http://www.w3.org/1999/xlink" width="120mm" height="44.539mm" viewBox="0 0 120 44.539" fill-rule="evenodd" clip-rule="evenodd" stroke="#000000" stroke-linecap="round" fill="none" xml:space="preserve" preserveAspectRatio="xMidYMid meet" zoomAndPan="magnify" version="1.1" contentScriptType="text/ecmascript" contentStyleType="text/css">
 <g id="Standard_x0020_layer">
  <g id="AUTOID_3631">
   <desc>Pages from PXC Training Manual - Hardware Level 1 - 3_REV01</desc>
   <path stroke="none" fill="#FFFFFF" d="M8.644 36.079L29.621 36.079 29.621 20.242 8.644 20.242 8.644 36.079z"/>
   <polygon stroke-width="0.067" stroke-linejoin="round" stroke-miterlimit="10" points="8.644 36.079 29.621 36.079 29.621 20.242 8.644 20.242 8.644 36.079"/>
   <g>
    <g>
     <text x="17.932" y="28.727" stroke="none" fill="#000000" font-family="'Symbol'" font-size="1.85">µ</text>
    </g>
    <g>
     <text x="18.998" y="28.727" stroke="none" fill="#000000" font-family="'Arial'" font-size="1.85">C</text>
    </g>
   </g>
   <polygon stroke-width="0.067" stroke-linejoin="round" stroke-miterlimit="10" points="3.399 41.356 34.865 41.356 34.865 9.686 3.399 9.686 3.399 41.356"/>
   <g>
    <g>
     <text x="12.349" y="12.884" stroke="none" fill="#000000" font-family="'Arial'" font-size="1.85">Interface Board</text>
    </g>
   </g>
   <path stroke="none" fill="#FFFFFF" d="M50.598 36.079L71.576 36.079 71.576 20.242 50.598 20.242 50.598 36.079z"/>
   <polygon stroke-width="0.067" stroke-linejoin="round" stroke-miterlimit="10" points="50.598 36.079 71.576 36.079 71.576 20.242 50.598 20.242 50.598 36.079"/>
   <path stroke="none" fill="#FFFFFF" d="M97.799 43.996L118.775 43.996 118.775 9.686 97.799 9.686 97.799 43.996z"/>
   <polygon stroke-width="0.067" stroke-linejoin="round" stroke-miterlimit="10" points="97.799 43.996 118.775 43.996 118.775 9.686 97.799 9.686 97.799 43.996"/>
   <g>
    <path stroke="none" fill="#FFFFFF" d="M76.82 25.521C76.82 22.971 78.981 20.902 81.647 20.902 84.313 20.902 86.474 22.971 86.474 25.521 86.474 28.073 84.313 30.14 81.647 30.14 78.981 30.14 76.82 28.073 76.82 25.521z"/>
    <g>
     <path stroke-width="0.022" stroke-linejoin="round" stroke-miterlimit="10" d="M86.474 25.521C86.474 22.971 84.313 20.902 81.647 20.902C78.981 20.902 76.82 22.971 76.82 25.521C76.82 28.073 78.981 30.14 81.647 30.14C84.313 30.14 86.474 28.073 86.474 25.521"/>
    </g>
    <line stroke-width="0.022" stroke-linejoin="round" stroke-miterlimit="10" x1="79.233" y1="27.83" x2="84.06" y2="27.83"/>
    <g>
     <text x="79.858" y="26.817" stroke="none" fill="#000000" font-family="'Arial'" font-size="4.29">M</text>
    </g>
    <path stroke="none" fill="#FFFFFF" d="M88.373 22.664C88.373 22.033 89.31 21.521 90.463 21.521 91.618 21.521 92.554 22.033 92.554 22.664L88.373 28.379C88.373 29.01 89.31 29.521 90.463 29.521 91.618 29.521 92.554 29.01 92.554 28.379L88.373 22.664 88.373 22.664z"/>
    <path stroke-width="0.022" stroke-linejoin="round" stroke-miterlimit="10" d="M88.373 22.664C88.373 22.033 89.31 21.521 90.463 21.521C91.618 21.521 92.554 22.033 92.554 22.664L88.373 28.379C88.373 29.01 89.31 29.521 90.463 29.521C91.618 29.521 92.554 29.01 92.554 28.379L88.373 22.664L88.373 22.664z"/>
    <line stroke-width="0.022" stroke-linejoin="round" stroke-miterlimit="10" x1="90.463" y1="25.521" x2="86.701" y2="25.521"/>
    <g>
     <text x="80.51" y="19.219" stroke="none" fill="#000000" font-family="'Arial'" font-size="1.85">4</text>
    </g>
    <g>
     <text x="81.539" y="19.219" stroke="none" fill="#000000" font-family="'Arial'" font-size="1.85">x</text>
    </g>
    <line stroke="#008000" stroke-width="0.112" stroke-linejoin="round" stroke-miterlimit="10" x1="29.621" y1="28.161" x2="50.598" y2="28.161"/>
    <line stroke="#0033CC" stroke-width="0.022" stroke-linejoin="round" stroke-miterlimit="10" x1="71.576" y1="25.521" x2="76.82" y2="25.521"/>
    <path stroke="none" fill="#FFFFFF" d="M30.146 27.634L50.075 27.634 50.075 24.995 30.146 24.995 30.146 27.634z"/>
    <g>
     <text x="31.413" y="26.984" stroke="none" fill="#008000" font-family="'Arial'" font-size="2.22">Fan Fail IN</text>
    </g>
    <g>
     <text x="42.27" y="26.984" stroke="none" fill="#008000" font-family="'Arial'" font-size="2.22">1</text>
    </g>
    <line stroke="#FF0000" stroke-width="0.112" stroke-linejoin="round" stroke-miterlimit="10" x1="71.576" y1="33.439" x2="97.799" y2="33.439"/>
    <path stroke="none" fill="#FFFFFF" d="M72.888 33.176L96.486 33.176 96.486 30.536 72.888 30.536 72.888 33.176z"/>
    <g>
     <text x="76.108" y="32.527" stroke="none" fill="#FF0000" font-family="'Arial'" font-size="2.22">Supply</text>
    </g>
    <g>
     <text x="83.513" y="32.527" stroke="none" fill="#FF0000" font-family="'Arial'" font-size="2.22">15</text>
    </g>
    <g>
     <text x="85.983" y="32.527" stroke="none" fill="#FF0000" font-family="'Arial'" font-size="2.22">V</text>
    </g>
    <g>
     <text x="88.081" y="32.527" stroke="none" fill="#FF0000" font-family="'Arial'" font-size="2.22">/</text>
    </g>
    <g>
     <text x="89.314" y="32.527" stroke="none" fill="#FF0000" font-family="'Arial'" font-size="2.22">24</text>
    </g>
    <g>
     <text x="91.784" y="32.527" stroke="none" fill="#FF0000" font-family="'Arial'" font-size="2.22">V</text>
    </g>
    <path stroke="#008000" stroke-width="0.112" stroke-linejoin="round" stroke-miterlimit="10" stroke-dasharray="0.786 0.561" d="M50.598 28.161L55.908 28.161L55.908 30.8"/>
    <path stroke="none" fill="#FFFFFF" d="M50.598 19.716L71.575 19.716 71.575 14.438 50.598 14.438 50.598 19.716z"/>
    <g>
     <text x="54.408" y="16.518" stroke="none" fill="#000000" font-family="'Arial'" font-size="1.85">Fan Monitoring </text>
    </g>
    <g>
     <text x="58.158" y="18.753" stroke="none" fill="#000000" font-family="'Arial'" font-size="1.85">Circuit</text>
    </g>
    <line stroke="#FF0000" stroke-width="0.112" stroke-linejoin="round" stroke-miterlimit="10" x1="29.621" y1="22.884" x2="50.598" y2="22.884"/>
    <path stroke="none" fill="#FFFFFF" d="M30.146 22.356L50.075 22.356 50.075 19.716 30.146 19.716 30.146 22.356z"/>
    <g>
     <text x="31.413" y="21.707" stroke="none" fill="#FF0000" font-family="'Arial'" font-size="2.22">SELV</text>
    </g>
    <g>
     <text x="37.707" y="21.707" stroke="none" fill="#FF0000" font-family="'Arial'" font-size="2.22">24</text>
    </g>
    <g>
     <text x="40.176" y="21.707" stroke="none" fill="#FF0000" font-family="'Arial'" font-size="2.22">V</text>
    </g>
    <line stroke="#008000" stroke-width="0.112" stroke-linejoin="round" stroke-miterlimit="10" x1="54.597" y1="32.121" x2="57.219" y2="29.481"/>
    <line stroke="#008000" stroke-width="0.112" stroke-linejoin="round" stroke-miterlimit="10" x1="54.597" y1="29.481" x2="57.219" y2="32.121"/>
    <path stroke="#FF0000" stroke-width="0.112" stroke-linejoin="round" stroke-miterlimit="10" stroke-dasharray="0.786 0.561" d="M71.575 25.522L66.331 25.522L66.331 33.441L71.575 33.441"/>
    <path stroke="none" fill="#FFFFFF" d="M88.623 0.614C86.546 -0.614 83.879 0.089 82.662 2.185 81.447 4.28 82.144 6.976 84.218 8.204 85.578 9.009 87.263 9.009 88.623 8.204 90.697 9.43 93.364 8.727 94.581 6.631 95.796 4.535 95.097 1.841 93.022 0.614 91.664 -0.189 89.98 -0.189 88.623 0.614z"/>
    <path stroke-width="0.022" stroke-linejoin="round" stroke-miterlimit="10" d="M88.623 0.614C86.546 -0.614 83.879 0.089 82.662 2.185C81.447 4.28 82.144 6.976 84.218 8.205C85.578 9.009 87.263 9.009 88.623 8.205C90.697 9.43 93.364 8.727 94.581 6.631C95.796 4.535 95.097 1.841 93.022 0.615C91.664 -0.189 89.98 -0.189 88.623 0.614L88.623 0.614z"/>
    <path stroke="none" fill="#FFFFFF" d="M88.623 0.588C86.533 1.806 85.816 4.504 87.024 6.615 87.406 7.286 87.959 7.844 88.623 8.23 90.712 7.012 91.427 4.314 90.221 2.202 89.838 1.532 89.287 0.975 88.623 0.588z"/>
    <path stroke-width="0.022" stroke-linejoin="round" stroke-miterlimit="10" d="M88.623 0.588C86.533 1.806 85.816 4.504 87.024 6.615C87.406 7.285 87.959 7.844 88.623 8.23C90.712 7.012 91.427 4.314 90.221 2.202C89.838 1.532 89.287 0.975 88.623 0.588L88.623 0.588z"/>
    <path stroke="none" fill="#FFFFFF" d="M0.777 7.049L18.083 7.049 18.083 4.408 0.777 4.408 0.777 7.049z"/>
    <g>
     <text x="2.044" y="6.399" stroke="none" fill="#000000" font-family="'Arial'" font-size="2.22">Bypass</text>
    </g>
    <line stroke-width="0.112" stroke-linejoin="round" stroke-miterlimit="10" x1="82.064" y1="4.408" x2="19.132" y2="4.408"/>
    <path stroke="none" fill="#FFFFFF" d="M82.064 12.326L95.176 12.326 95.176 9.688 82.064 9.688 82.064 12.326z"/>
    <g>
     <text x="86.088" y="11.678" stroke="none" fill="#000000" font-family="'Arial'" font-size="2.22">T</text>
    </g>
    <g>
     <text x="87.444" y="11.678" stroke="none" fill="#000000" font-family="'Arial'" font-size="2.22">403</text>
    </g>
    <path stroke="none" fill="#FFFFFF" d="M108.287 8.631L118.775 8.631 118.775 4.408 108.287 4.408 108.287 8.631z"/>
    <g>
     <text x="111.629" y="5.961" stroke="none" fill="#000000" font-family="'Arial'" font-size="1.85">SBS</text>
    </g>
    <g>
     <text x="109.112" y="8.196" stroke="none" fill="#000000" font-family="'Arial'" font-size="1.85">Controller</text>
    </g>
    <line stroke="#FF0000" stroke-width="0.112" stroke-linejoin="round" stroke-miterlimit="10" stroke-dasharray="0.786 0.561" x1="105.665" y1="32.386" x2="105.665" y2="9.688"/>
    <path stroke="#FF0000" stroke-width="0.112" stroke-linejoin="round" stroke-miterlimit="10" stroke-dasharray="0.786 0.561" d="M105.665 34.628L105.665 35.915L113.531 35.915L113.531 12.326L105.665 12.326"/>
    <polyline stroke="#FF0000" stroke-width="0.112" stroke-linejoin="round" stroke-miterlimit="10" points="95.176 4.41 105.665 4.41 105.665 9.688"/>
    <line stroke="#FF0000" stroke-width="0.112" stroke-linejoin="round" stroke-miterlimit="10" stroke-dasharray="0.786 0.561" x1="97.798" y1="33.442" x2="101.207" y2="33.508"/>
    <line stroke-width="0.022" stroke-linejoin="round" stroke-miterlimit="10" x1="105.665" y1="34.628" x2="101.207" y2="33.508"/>
    <g>
     <path stroke="none" fill="#FFFFFF" d="M105.385 34.628C105.385 34.783 105.51 34.909 105.665 34.909 105.819 34.909 105.944 34.783 105.944 34.628 105.944 34.473 105.819 34.348 105.665 34.348 105.51 34.348 105.385 34.473 105.385 34.628L105.385 34.628 105.385 32.386C105.385 32.54 105.51 32.665 105.665 32.665 105.819 32.665 105.944 32.54 105.944 32.386 105.944 32.231 105.819 32.106 105.665 32.106 105.51 32.106 105.385 32.231 105.385 32.386L105.385 34.628 100.929 33.508C100.929 33.662 101.052 33.787 101.207 33.787 101.361 33.787 101.486 33.662 101.486 33.508 101.486 33.353 101.361 33.226 101.207 33.226 101.052 33.226 100.929 33.353 100.929 33.508"/>
    </g>
    <g>
     <path stroke="none" d="M105.385 34.628L101.486 33.508"/>
     <path stroke-width="0.022" stroke-linejoin="round" stroke-miterlimit="10" d="M101.486 33.508C101.486 33.353 101.361 33.228 101.207 33.228C101.052 33.228 100.929 33.353 100.929 33.508L100.929 33.508C100.929 33.662 101.052 33.787 101.207 33.787C101.361 33.787 101.486 33.662 101.486 33.508"/>
     <path stroke="none" d="M101.486 33.508L105.385 34.628"/>
     <path stroke-width="0.022" stroke-linejoin="round" stroke-miterlimit="10" d="M105.385 34.628C105.385 34.783 105.51 34.909 105.665 34.909C105.819 34.909 105.944 34.783 105.944 34.628C105.944 34.473 105.819 34.348 105.665 34.348"/>
     <path stroke="none" d="M105.665 34.348L105.665 32.665"/>
     <path stroke-width="0.022" stroke-linejoin="round" stroke-miterlimit="10" d="M105.665 32.665C105.819 32.665 105.944 32.54 105.944 32.386C105.944 32.231 105.819 32.106 105.665 32.106C105.51 32.106 105.385 32.231 105.385 32.386L105.385 32.386C105.385 32.54 105.51 32.665 105.665 32.665"/>
     <path stroke="none" d="M105.665 32.665L105.665 34.348"/>
     <path stroke-width="0.022" stroke-linejoin="round" stroke-miterlimit="10" d="M105.665 34.348C105.51 34.348 105.385 34.473 105.385 34.628L105.385 34.628"/>
    </g>
    <path stroke="none" fill="#FFFFFF" d="M101.731 40.435L105.141 40.435 105.141 37.005 101.731 37.005 101.731 40.435z"/>
    <polygon stroke-width="0.022" stroke-linejoin="round" stroke-miterlimit="10" points="101.731 40.435 105.141 40.435 105.141 37.005 101.731 37.005 101.731 40.435"/>
    <line stroke-width="0.022" stroke-linejoin="round" stroke-miterlimit="10" x1="101.731" y1="37.862" x2="105.141" y2="39.578"/>
    <line stroke-width="0.022" stroke-linejoin="round" stroke-miterlimit="10" stroke-dasharray="0.022 0.045" x1="103.436" y1="37.005" x2="103.436" y2="34.256"/>
    <line stroke="#0033CC" stroke-width="0.112" stroke-linejoin="round" stroke-miterlimit="10" x1="101.731" y1="38.72" x2="95.176" y2="38.72"/>
    <line stroke="#0000FF" stroke-width="0.112" stroke-linejoin="round" stroke-miterlimit="10" x1="106.713" y1="38.72" x2="107.239" y2="38.72"/>
    <line stroke="#0000FF" stroke-width="0.112" stroke-linejoin="round" stroke-miterlimit="10" x1="107.501" y1="38.984" x2="106.975" y2="38.457"/>
    <line stroke="#0033CC" stroke-width="0.112" stroke-linejoin="round" stroke-miterlimit="10" x1="105.141" y1="38.72" x2="106.713" y2="38.72"/>
    <polyline stroke="#0033CC" stroke-width="0.112" stroke-linejoin="round" stroke-miterlimit="10" points="95.176 38.72 42.731 38.72 42.731 33.442 29.62 33.442"/>
    <path stroke="none" fill="#FFFFFF" d="M30.408 32.914L49.811 32.914 49.811 30.274 30.408 30.274 30.408 32.914z"/>
    <g>
     <text x="31.675" y="32.154" stroke="none" fill="#0000FF" font-family="'Arial'" font-size="1.85">OUT</text>
    </g>
    <g>
     <text x="35.581" y="32.154" stroke="none" fill="#0000FF" font-family="'Arial'" font-size="1.85">1</text>
    </g>
    <g>
     <text x="77.039" y="37.96" stroke="none" fill="#0000FF" font-family="'Arial'" font-size="1.85">FANSPEED</text>
    </g>
    <g>
     <text x="87.012" y="37.96" stroke="none" fill="#0000FF" font-family="'Arial'" font-size="1.85">_</text>
    </g>
    <g>
     <text x="88.04" y="37.96" stroke="none" fill="#0000FF" font-family="'Arial'" font-size="1.85">SBS</text>
    </g>
    <path stroke="none" fill="#FFFFFF" d="M102.518 22.053L108.811 22.053 108.811 14.662 102.518 14.662 102.518 22.053z"/>
    <polygon stroke-width="0.022" stroke-linejoin="round" stroke-miterlimit="10" points="102.518 22.053 108.811 22.053 108.811 14.662 102.518 14.662 102.518 22.053"/>
    <polygon stroke="#FF0000" stroke-width="0.112" stroke-linejoin="round" stroke-miterlimit="10" points="105.665 19.94 104.615 16.774 106.713 16.774 105.665 19.94"/>
    <line stroke="#FF0000" stroke-width="0.112" stroke-linejoin="round" stroke-miterlimit="10" x1="104.615" y1="19.94" x2="106.713" y2="19.94"/>
    <line stroke="#FF0000" stroke-width="0.112" stroke-linejoin="round" stroke-miterlimit="10" x1="105.665" y1="15.718" x2="105.665" y2="20.996"/>
    <path stroke="none" fill="#FFFFFF" d="M0.777 4.41L18.083 4.41 18.083 1.772 0.777 1.772 0.777 4.41z"/>
    <g>
     <text x="2.044" y="3.762" stroke="none" fill="#000000" font-family="'Arial'" font-size="2.22">Powered from</text>
    </g>
    <path stroke="none" fill="#FFFFFF" d="M19.132 4.41C19.132 3.827 18.663 3.355 18.082 3.355 17.504 3.355 17.035 3.827 17.035 4.41 17.035 4.993 17.504 5.466 18.082 5.466 18.663 5.466 19.132 4.993 19.132 4.41z"/>
    <g>
     <path stroke-width="0.067" stroke-linejoin="round" stroke-miterlimit="10" d="M18.083 3.355C17.504 3.355 17.035 3.827 17.035 4.41C17.035 4.993 17.504 5.466 18.083 5.466C18.663 5.466 19.132 4.993 19.132 4.41C19.132 3.827 18.663 3.355 18.083 3.355"/>
    </g>
    <path stroke="none" fill="#FFFFFF" d="M110.385 22.053L116.677 22.053 116.677 14.663 110.385 14.663 110.385 22.053z"/>
    <polygon stroke-width="0.022" stroke-linejoin="round" stroke-miterlimit="10" points="110.385 22.053 116.677 22.053 116.677 14.663 110.385 14.663 110.385 22.053"/>
    <polygon stroke="#FF0000" stroke-width="0.112" stroke-linejoin="round" stroke-miterlimit="10" points="113.531 19.942 112.481 16.774 114.581 16.774 113.531 19.942"/>
    <line stroke="#FF0000" stroke-width="0.112" stroke-linejoin="round" stroke-miterlimit="10" x1="112.481" y1="19.942" x2="114.581" y2="19.942"/>
    <line stroke="#FF0000" stroke-width="0.112" stroke-linejoin="round" stroke-miterlimit="10" x1="113.531" y1="15.718" x2="113.531" y2="20.996"/>
    <g>
     <text x="99.906" y="26.196" stroke="none" fill="#000000" font-family="'Arial'" font-size="2.22">15</text>
    </g>
    <g>
     <text x="102.992" y="26.196" stroke="none" fill="#000000" font-family="'Arial'" font-size="2.22">V</text>
    </g>
    <g>
     <text x="108.165" y="26.196" stroke="none" fill="#000000" font-family="'Arial'" font-size="2.22">24</text>
    </g>
    <g>
     <text x="111.253" y="26.196" stroke="none" fill="#000000" font-family="'Arial'" font-size="2.22">V</text>
    </g>
   </g>
  </g>
 </g>
 <g id="120mm_x0020_hidden_x0020_Schneider_x0020_layer_x0020_for_x0020_editor">
  <polygon stroke="none" points="0 35.539 0 44.539 120 44.539 120 35.539 0 35.539"/>
 </g>
 <g id="cutout_x0020_layer">
 </g>
 <g id="outline_x0020_layer">
 </g>
 <g id="zoom_x0020_layer">
 </g>
 <g id="arrow_x0020_layer">
 </g>
 <g id="_x0020_cable_x0020_layer">
 </g>
 <g id="symbol_x0020_layer">
 </g>
 <g id="_x0020_text_x0020_layer">
 </g>
 <g id="text-_x0020_DO_x0020_NOT_x0020_translate">
 </g>
 <g id="_x0020_callout_x0020_layer">
 </g>
</svg>
