<?xml version="1.0" encoding="UTF-8"?>
<!-- Generator: PTC Arbortext IsoDraw 7.4 M001 -->
<svg xmlns="http://www.w3.org/2000/svg" xmlns:xlink="http://www.w3.org/1999/xlink" width="170.003mm" height="98.658mm" viewBox="0 0 170.003 98.658" fill-rule="evenodd" clip-rule="evenodd" stroke="#000000" stroke-linecap="round" fill="none" xml:space="preserve" preserveAspectRatio="xMidYMid meet" zoomAndPan="magnify" version="1.1" contentScriptType="text/ecmascript" contentStyleType="text/css">
 <g id="Standard_x0020_layer">
  <line stroke-width="0.2" x1="45.365" y1="16.605" x2="45.93" y2="16.605"/>
  <line stroke-width="0.2" x1="24.315" y1="16.605" x2="38.362" y2="16.605"/>
  <line stroke-width="0.2" x1="45.365" y1="64.879" x2="59.412" y2="64.879"/>
  <line stroke-width="0.2" x1="24.315" y1="64.879" x2="38.362" y2="64.879"/>
  <line stroke-width="0.2" x1="13.384" y1="4.31" x2="66.423" y2="4.31"/>
  <line stroke-width="0.2" x1="24.315" y1="16.605" x2="13.384" y2="16.605"/>
  <line stroke-width="0.2" x1="118.24" y1="16.783" x2="130.361" y2="16.783"/>
  <line stroke-width="0.2" x1="136.538" y1="16.783" x2="162.497" y2="16.783"/>
  <line stroke-width="0.2" x1="118.224" y1="16.783" x2="102.515" y2="16.783"/>
  <line stroke-width="0.2" x1="59.412" y1="64.879" x2="80.346" y2="64.879"/>
  <line stroke-width="0.2" x1="24.315" y1="64.879" x2="13.384" y2="64.933"/>
  <polyline stroke-width="0.2" points="102.355 65.081 117.478 64.887 117.478 16.783"/>
  <line stroke-width="0.2" x1="28.283" y1="64.879" x2="28.283" y2="94.746"/>
  <line stroke-width="0.2" x1="142.991" y1="67.453" x2="142.991" y2="16.783"/>
  <polygon stroke-width="0.2" points="80.346 58.856 80.346 75.76 102.355 75.76 102.355 58.856 80.346 58.856"/>
  <polygon stroke-width="0.2" points="17.856 0.1 17.856 98.558 158.283 98.558 158.283 0.1 17.856 0.1"/>
  <polyline stroke-width="0.2" points="28.349 94.746 95.433 94.746 143.151 94.746 143.151 75.287"/>
  <g>
   <path stroke-width="0.2" d="M130.26 17.789C130.709 17.789 131.072 17.425 131.072 16.977C131.072 16.528 130.709 16.166 130.26 16.166C129.812 16.166 129.449 16.528 129.449 16.977C129.449 17.425 129.812 17.789 130.26 17.789z"/>
   <path stroke-width="0.2" d="M136.985 17.789C137.433 17.789 137.796 17.425 137.796 16.977C137.796 16.528 137.433 16.166 136.985 16.166C136.538 16.166 136.174 16.528 136.174 16.977C136.174 17.425 136.538 17.789 136.985 17.789z"/>
   <path stroke-width="0.2" d="M130.364 15.49C131.764 13.929 135.115 13.906 136.883 15.49"/>
  </g>
  <g>
   <path stroke-width="0.2" d="M38.616 65.754C39.064 65.754 39.429 65.391 39.429 64.944C39.429 64.495 39.064 64.132 38.616 64.132C38.168 64.132 37.805 64.495 37.805 64.944C37.805 65.391 38.168 65.754 38.616 65.754z"/>
   <path stroke-width="0.2" d="M45.341 65.754C45.789 65.754 46.154 65.391 46.154 64.944C46.154 64.495 45.789 64.132 45.341 64.132C44.893 64.132 44.53 64.495 44.53 64.944C44.53 65.391 44.893 65.754 45.341 65.754z"/>
   <path stroke-width="0.2" d="M38.719 63.456C40.119 61.895 43.47 61.871 45.238 63.456"/>
  </g>
  <g>
   <path stroke-width="0.2" d="M38.396 17.347C38.844 17.347 39.207 16.984 39.207 16.536C39.207 16.088 38.844 15.724 38.396 15.724C37.948 15.724 37.585 16.088 37.585 16.536C37.585 16.984 37.948 17.347 38.396 17.347z"/>
   <path stroke-width="0.2" d="M45.121 17.347C45.569 17.347 45.932 16.984 45.932 16.536C45.932 16.088 45.569 15.724 45.121 15.724C44.673 15.724 44.31 16.088 44.31 16.536C44.31 16.984 44.673 17.347 45.121 17.347z"/>
   <path stroke-width="0.2" d="M38.499 15.048C39.899 13.487 43.25 13.464 45.018 15.048"/>
  </g>
  <g>
   <path stroke-width="0.2" d="M142.378 67.751C142.378 68.198 142.742 68.561 143.189 68.561C143.639 68.561 144.002 68.198 144.002 67.751C144.002 67.302 143.639 66.938 143.189 66.938C142.742 66.938 142.378 67.302 142.378 67.751z"/>
   <path stroke-width="0.2" d="M142.378 74.475C142.378 74.924 142.742 75.287 143.189 75.287C143.639 75.287 144.002 74.924 144.002 74.475C144.002 74.028 143.639 73.664 143.189 73.664C142.742 73.664 142.378 74.028 142.378 74.475z"/>
   <path stroke-width="0.2" d="M144.677 67.853C146.239 69.254 146.262 72.605 144.677 74.373"/>
  </g>
  <g>
   <path stroke-width="0.2" stroke-linecap="butt" fill="#FFFFFF" d="M56.307 19.129L56.307 20.74C55.765 20.74 55.344 20.39 55.344 19.934 55.344 19.496 55.765 19.129 56.307 19.129z"/>
   <path stroke-width="0.2" stroke-linejoin="round" stroke-miterlimit="10" d="M56.307 19.129L56.307 20.74C55.765 20.74 55.344 20.39 55.344 19.934C55.344 19.496 55.765 19.129 56.307 19.129L56.307 19.129z"/>
   <polyline stroke-width="0.2" stroke-linejoin="round" stroke-miterlimit="10" points="54.329 20.214 56.151 23.525 56.151 26.748"/>
   <path stroke-width="0.2" stroke-linecap="butt" fill="#FFFFFF" d="M51.262 46.386L57.796 46.386 57.796 35.438 51.262 35.438 51.262 46.386z"/>
   <polygon stroke-width="0.2" stroke-linejoin="round" stroke-miterlimit="10" points="51.262 46.386 57.796 46.386 57.796 35.438 51.262 35.438 51.262 46.386"/>
   <path stroke-width="0.2" stroke-linecap="butt" fill="#FFFFFF" d="M81.602 52.167L86.438 52.167 86.438 29.638 81.602 29.638 81.602 52.167z"/>
   <polygon stroke-width="0.2" stroke-linejoin="round" stroke-miterlimit="10" points="81.602 52.167 86.438 52.167 86.438 29.638 81.602 29.638 81.602 52.167"/>
   <path stroke-width="0.2" stroke-linecap="butt" fill="#FFFFFF" d="M84.248 38.537L86.018 38.537 86.018 31.777 84.248 31.777 84.248 38.537z"/>
   <polygon stroke-width="0.2" stroke-linejoin="round" stroke-miterlimit="10" points="84.248 38.537 86.018 38.537 86.018 31.777 84.248 31.777 84.248 38.537"/>
   <path stroke-width="0.2" stroke-linecap="butt" fill="#FFFFFF" d="M51.35 29.009L86.753 29.009 86.753 24.524 51.35 24.524 51.35 29.009z"/>
   <polygon stroke-width="0.2" stroke-linejoin="round" stroke-miterlimit="10" points="51.35 29.009 86.753 29.009 86.753 24.524 51.35 24.524 51.35 29.009"/>
   <polyline stroke-width="0.2" stroke-linejoin="round" stroke-miterlimit="10" points="56.307 19.129 62.543 19.129 62.543 24.524"/>
   <polyline stroke-width="0.2" stroke-linejoin="round" stroke-miterlimit="10" points="85.141 24.524 85.141 16.772 108.144 16.772"/>
   <path stroke-width="0.2" stroke-linecap="butt" fill="#FFFFFF" d="M57.796 55.075L65.837 55.075 65.837 49.591 57.796 49.591 57.796 55.075z"/>
   <polygon stroke-width="0.2" stroke-linejoin="round" stroke-miterlimit="10" points="57.796 55.075 65.837 55.075 65.837 49.591 57.796 49.591 57.796 55.075"/>
   <path stroke-width="0.2" stroke-linecap="butt" fill="#FFFFFF" d="M58.533 51.78L64.962 51.78 64.962 50.03 58.533 50.03 58.533 51.78z"/>
   <polygon stroke-width="0.2" stroke-linejoin="round" stroke-miterlimit="10" points="58.533 51.78 64.962 51.78 64.962 50.03 58.533 50.03 58.533 51.78"/>
   <path stroke-width="0.2" stroke-linecap="butt" fill="#FFFFFF" d="M62.965 53.078C62.965 52.604 62.597 52.201 62.158 52.201 61.704 52.201 61.353 52.604 61.353 53.078 61.353 53.551 61.704 53.954 62.158 53.954 62.597 53.954 62.965 53.551 62.965 53.078z"/>
   <path stroke-width="0.2" stroke-linejoin="round" stroke-miterlimit="10" d="M62.965 53.078C62.965 52.604 62.597 52.201 62.158 52.201C61.704 52.201 61.353 52.604 61.353 53.078C61.353 53.551 61.704 53.954 62.158 53.954C62.597 53.954 62.965 53.551 62.965 53.078L62.965 53.078z"/>
   <line stroke-width="0.2" stroke-linejoin="round" stroke-miterlimit="10" x1="62.158" y1="52.201" x2="62.158" y2="51.78"/>
   <line stroke-width="0.2" stroke-linejoin="round" stroke-miterlimit="10" x1="53.277" y1="35.438" x2="53.277" y2="29.009"/>
   <path stroke-width="0.2" stroke-linecap="butt" fill="#FFFFFF" d="M57.796 34.789L65.837 34.789 65.837 29.638 57.796 29.638 57.796 34.789z"/>
   <polygon stroke-width="0.2" stroke-linejoin="round" stroke-miterlimit="10" points="57.796 34.789 65.837 34.789 65.837 29.638 57.796 29.638 57.796 34.789"/>
   <polyline stroke-width="0.2" stroke-linejoin="round" stroke-miterlimit="10" points="55.853 35.438 55.853 32.862 57.796 32.862"/>
   <polyline stroke-width="0.2" stroke-linejoin="round" stroke-miterlimit="10" points="55.853 29.009 55.853 31.583 57.796 31.583"/>
   <line stroke-width="0.2" stroke-linejoin="round" stroke-miterlimit="10" x1="84.021" y1="29.638" x2="84.055" y2="29.009"/>
   <polyline stroke-width="0.2" stroke-linejoin="round" stroke-miterlimit="10" points="81.602 47.664 62.929 47.664 62.929 44.81 57.796 44.81"/>
   <polyline stroke-width="0.2" stroke-linejoin="round" stroke-miterlimit="10" points="55.853 46.386 55.853 48.96 60.145 48.96 60.145 50.03"/>
   <path stroke-width="0.2" stroke-linejoin="round" stroke-miterlimit="10" d="M67.519 46.386L67.519 47.121C67.221 47.121 66.993 47.366 66.993 47.664C66.993 47.963 67.221 48.207 67.519 48.207L67.519 48.96L63.368 48.96L63.368 50.03"/>
   <path stroke-width="0.2" stroke-linecap="butt" fill="#FFFFFF" d="M65.504 46.386L72.039 46.386 72.039 35.438 65.504 35.438 65.504 46.386z"/>
   <polygon stroke-width="0.2" stroke-linejoin="round" stroke-miterlimit="10" points="65.504 46.386 72.039 46.386 72.039 35.438 65.504 35.438 65.504 46.386"/>
   <line stroke-width="0.2" stroke-linejoin="round" stroke-miterlimit="10" x1="81.602" y1="44.81" x2="72.039" y2="44.81"/>
   <line stroke-width="0.2" stroke-linejoin="round" stroke-miterlimit="10" x1="81.602" y1="50.887" x2="65.837" y2="50.887"/>
   <polyline stroke-width="0.2" stroke-linejoin="round" stroke-miterlimit="10" points="65.837 52.341 73.405 52.341 73.405 53.463"/>
   <line stroke-width="0.2" stroke-linejoin="round" stroke-miterlimit="10" x1="67.594" y1="35.319" x2="67.594" y2="28.89"/>
   <path stroke-width="0.2" stroke-linecap="butt" fill="#FFFFFF" d="M74.105 60.96C74.105 60.469 73.721 60.085 73.23 60.085 72.757 60.085 72.371 60.469 72.371 60.96 72.371 61.433 72.757 61.819 73.23 61.819 73.721 61.819 74.105 61.433 74.105 60.96z"/>
   <path stroke-width="0.2" stroke-linejoin="round" stroke-miterlimit="10" d="M74.105 60.96C74.105 60.469 73.721 60.085 73.23 60.085C72.757 60.085 72.371 60.469 72.371 60.96C72.371 61.433 72.757 61.819 73.23 61.819C73.721 61.819 74.105 61.433 74.105 60.96L74.105 60.96z"/>
   <path stroke-width="0.2" stroke-linecap="butt" fill="#FFFFFF" d="M69.376 58.612L77.417 58.612 77.417 53.463 69.376 53.463 69.376 58.612z"/>
   <polygon stroke-width="0.2" stroke-linejoin="round" stroke-miterlimit="10" points="69.376 58.612 77.417 58.612 77.417 53.463 69.376 53.463 69.376 58.612"/>
   <polyline stroke-width="0.2" stroke-linejoin="round" stroke-miterlimit="10" points="44.7 16.763 56.22 16.763 56.22 20.635"/>
   <polyline stroke-width="0.2" stroke-linejoin="round" stroke-miterlimit="10" points="67.448 24.524 67.448 4.266 62.418 4.333"/>
   <g>
    <text x="61.963" y="26.561" stroke="none" fill="#000000" font-family="'Arial'" font-size="1.366">Power connection board</text>
    <text x="67.734" y="28.324" stroke="none" fill="#000000" font-family="'Arial'" font-size="1.366">A101</text>
   </g>
   <g>
    <text transform="matrix(0 -1 1 0 54.326 45.652)" stroke="none" fill="#000000" font-family="'Arial'" font-size="1.366">Power module</text>
    <text transform="matrix(0 -1 1 0 56.09 42.844)" stroke="none" fill="#000000" font-family="'Arial'" font-size="1.366">T101</text>
   </g>
   <g>
    <text transform="matrix(0 -1 1 0 68.843 45.652)" stroke="none" fill="#000000" font-family="'Arial'" font-size="1.366">Power module</text>
    <text transform="matrix(0 -1 1 0 70.606 42.844)" stroke="none" fill="#000000" font-family="'Arial'" font-size="1.366">T102</text>
   </g>
   <text transform="matrix(0 -1 1 0 83.275 50.912)" stroke="none" fill="#000000" font-family="'Arial'" font-size="1.366">Controller box  A102</text>
   <text x="58.374" y="22.01" stroke="none" fill="#000000" font-family="'Arial'" font-size="1.366">K101</text>
   <g>
    <text x="58.904" y="31.961" stroke="none" fill="#000000" font-family="'Arial'" font-size="1.366">Capacitor </text>
    <text x="58.485" y="33.725" stroke="none" fill="#000000" font-family="'Arial'" font-size="1.366">board A103</text>
   </g>
   <g>
    <text x="69.727" y="55.966" stroke="none" fill="#000000" font-family="'Arial'" font-size="1.366">Fan monitor</text>
    <text x="71.775" y="57.731" stroke="none" fill="#000000" font-family="'Arial'" font-size="1.366">A701</text>
   </g>
   <text x="75.881" y="50.755" stroke="none" fill="#000000" font-family="'Arial'" font-size="2.371"> </text>
   <text x="58.656" y="51.232" stroke="none" fill="#000000" font-family="'Arial'" font-size="1.171">Fan monitor</text>
   <text x="58.052" y="54.64" stroke="none" fill="#000000" font-family="'Arial'" font-size="1.366">E101</text>
   <text x="74.346" y="61.402" stroke="none" fill="#000000" font-family="'Arial'" font-size="1.366">E701</text>
   <text x="61.546" y="53.548" stroke="none" fill="#000000" font-family="'Arial'" font-size="1.366">M</text>
   <text x="72.665" y="61.39" stroke="none" fill="#000000" font-family="'Arial'" font-size="1.366">M</text>
   <text transform="matrix(0 -1 1 0 85.48 38.232)" stroke="none" fill="#000000" font-family="'Arial'" font-size="1.171">Service port</text>
  </g>
  <polygon stroke-width="0.2" points="69.237 77.456 69.237 84.879 99.579 84.879 99.579 77.456 69.237 77.456"/>
  <text x="70.54" y="82.918" stroke="none" fill="#000000" font-family="'Arial'" font-size="3.084">SBS controller A401</text>
  <polyline stroke-width="0.2" points="70.54 64.879 70.54 77.456 90.212 77.456 90.212 75.76 90.212 77.456 106.766 77.456 106.766 65.025"/>
  <path stroke-width="0.2" stroke-linecap="butt" fill="#FFFFFF" d="M98.126 93.477L109.793 93.477 109.793 85.521 98.126 85.521 98.126 93.477z"/>
  <polygon stroke-width="0.2" stroke-linejoin="round" stroke-miterlimit="10" points="98.126 93.477 109.793 93.477 109.793 85.521 98.126 85.521 98.126 93.477"/>
  <path stroke-width="0.2" stroke-linecap="butt" fill="#FFFFFF" d="M99.194 88.697L108.522 88.697 108.522 86.156 99.194 86.156 99.194 88.697z"/>
  <polygon stroke-width="0.2" stroke-linejoin="round" stroke-miterlimit="10" points="99.194 88.697 108.522 88.697 108.522 86.156 99.194 86.156 99.194 88.697"/>
  <path stroke-width="0.2" stroke-linecap="butt" fill="#FFFFFF" d="M105.625 90.578C105.625 89.893 105.09 89.308 104.454 89.308 103.793 89.308 103.286 89.893 103.286 90.578 103.286 91.266 103.793 91.849 104.454 91.849 105.09 91.849 105.625 91.266 105.625 90.578z"/>
  <path stroke-width="0.2" stroke-linejoin="round" stroke-miterlimit="10" d="M105.625 90.578C105.625 89.893 105.09 89.308 104.454 89.308C103.793 89.308 103.286 89.893 103.286 90.578C103.286 91.266 103.793 91.849 104.454 91.849C105.09 91.849 105.625 91.266 105.625 90.578L105.625 90.578z"/>
  <line stroke-width="0.2" stroke-linejoin="round" stroke-miterlimit="10" x1="104.454" y1="89.308" x2="104.454" y2="88.697"/>
  <text x="99.373" y="87.903" stroke="none" fill="#000000" font-family="'Arial'" font-size="1.698">Fan monitor</text>
  <text x="98.496" y="92.846" stroke="none" fill="#000000" font-family="'Arial'" font-size="1.982">E401</text>
  <text x="103.567" y="91.263" stroke="none" fill="#000000" font-family="'Arial'" font-size="1.982">M</text>
 </g>
 <g id="120mm_x0020_hidden_x0020_Schneider_x0020_layer_x0020_for_x0020_editor">
  <polygon stroke="none" points="0.194 89.307 0.194 98.307 120.194 98.307 120.194 89.307 0.194 89.307"/>
 </g>
 <g id="cutout_x0020_layer">
 </g>
 <g id="outline_x0020_layer">
 </g>
 <g id="arrow_x0020_layer">
 </g>
 <g id="_x0020_cable_x0020_layer">
 </g>
 <g id="symbol_x0020_layer">
 </g>
 <g id="_x0020_text_x0020_layer_translate">
  <text x="0" y="5.278" stroke="none" fill="#000000" font-family="'Arial'" font-size="3.528">Batteries</text>
  <text x="3.291" y="17.388" stroke="none" fill="#000000" font-family="'Arial'" font-size="3.528">Input</text>
  <text x="0.182" y="65.817" stroke="none" fill="#000000" font-family="'Arial'" font-size="3.528">Bypass</text>
  <text x="162.156" y="17.745" stroke="none" fill="#000000" font-family="'Arial'" font-size="3.528">Load</text>
  <g>
   <text x="86.361" y="65.665" stroke="none" fill="#000000" font-family="'Arial'" font-size="3.528">Static </text>
   <text x="86.362" y="69.545" stroke="none" fill="#000000" font-family="'Arial'" font-size="3.528">switch</text>
  </g>
 </g>
 <g id="_x0020_callout_x0020_layer">
 </g>
 <g id="text_x0020_layer_do_x0020_not_x0020_translate">
  <text x="38.463" y="21.829" stroke="none" fill="#000000" font-family="'Arial'" font-size="3.528">UIB</text>
  <text x="38.451" y="70.766" stroke="none" fill="#000000" font-family="'Arial'" font-size="3.528">SSIB</text>
  <text x="133.616" y="72.375" stroke="none" fill="#000000" font-family="'Arial'" font-size="3.528">MBB</text>
  <text x="129.695" y="11.917" stroke="none" fill="#000000" font-family="'Arial'" font-size="3.528">UOB</text>
 </g>
</svg>
