<?xml version="1.0" encoding="UTF-8"?>
<!-- Generator: PTC Arbortext IsoDraw 7.4 M001 -->
<svg xmlns="http://www.w3.org/2000/svg" xmlns:xlink="http://www.w3.org/1999/xlink" width="120mm" height="91.224mm" viewBox="0 0 120 91.224" fill-rule="evenodd" clip-rule="evenodd" stroke="#000000" stroke-linecap="round" fill="none" xml:space="preserve" preserveAspectRatio="xMidYMid meet" zoomAndPan="magnify" version="1.1" contentScriptType="text/ecmascript" contentStyleType="text/css">
 <g id="Standard_x0020_layer">
  <line stroke-width="0.068" stroke-linejoin="round" stroke-miterlimit="10" x1="21.896" y1="90.269" x2="21.896" y2="50.789"/>
  <path stroke="none" fill="#FFFFFF" d="M38.21 69.096L64.924 69.096 64.924 52.284 38.21 52.284 38.21 69.096z"/>
  <polygon stroke-width="0.205" stroke-linejoin="round" stroke-miterlimit="10" points="38.21 69.096 64.924 69.096 64.924 52.284 38.21 52.284 38.21 69.096"/>
  <path stroke="none" fill="#FFFFFF" d="M40.701 59.009L61.997 59.009 61.997 53.654 40.701 53.654 40.701 59.009z"/>
  <polygon stroke-width="0.068" stroke-linejoin="round" stroke-miterlimit="10" points="40.701 59.009 61.997 59.009 61.997 53.654 40.701 53.654 40.701 59.009"/>
  <path stroke="none" fill="#FFFFFF" d="M55.335 62.994C55.335 61.5 54.152 60.317 52.658 60.317 51.225 60.317 50.042 61.5 50.042 62.994 50.042 64.489 51.225 65.671 52.658 65.671 54.152 65.671 55.335 64.489 55.335 62.994z"/>
  <path stroke-width="0.068" stroke-linejoin="round" stroke-miterlimit="10" d="M55.335 62.994C55.335 61.5 54.152 60.317 52.658 60.317C51.225 60.317 50.042 61.5 50.042 62.994C50.042 64.489 51.225 65.671 52.658 65.671C54.152 65.671 55.335 64.489 55.335 62.994L55.335 62.994z"/>
  <line stroke-width="0.068" stroke-linejoin="round" stroke-miterlimit="10" x1="52.658" y1="60.317" x2="52.658" y2="59.009"/>
  <line stroke-width="0.341" stroke-linejoin="round" stroke-miterlimit="10" x1="0.788" y1="72.459" x2="84.787" y2="72.459"/>
  <path stroke-width="0.068" stroke-linejoin="round" stroke-miterlimit="10" stroke-dasharray="0.478 0.341" d="M95.436 71.65L95.436 10.938L98.611 9.07L95.436 6.081"/>
  <polyline stroke-width="0.068" stroke-linejoin="round" stroke-miterlimit="10" points="91.948 2.905 91.948 5.272 98.986 5.272 98.986 7.637"/>
  <line stroke-width="0.068" stroke-linejoin="round" stroke-miterlimit="10" stroke-dasharray="0.478 0.341" x1="101.974" y1="15.545" x2="86.283" y2="10.066"/>
  <line stroke-width="0.068" stroke-linejoin="round" stroke-miterlimit="10" x1="101.974" y1="15.545" x2="86.283" y2="21.025"/>
  <path stroke="none" fill="#000000" d="M76.569 74.203L89.084 74.203 89.084 71.712 76.569 71.712 76.569 74.203z"/>
  <path stroke="none" fill="#000000" d="M76.569 69.284L89.084 69.284 89.084 66.73 76.569 66.73 76.569 69.284z"/>
  <path stroke="none" fill="#000000" d="M111.813 64.489C111.813 63.804 111.314 63.305 110.691 63.305 110.007 63.305 109.509 63.804 109.509 64.489 109.509 65.111 110.007 65.671 110.691 65.671 111.314 65.671 111.813 65.111 111.813 64.489z"/>
  <path stroke-width="0.068" stroke-linejoin="round" stroke-miterlimit="10" d="M111.813 64.489C111.813 63.804 111.314 63.305 110.691 63.305C110.007 63.305 109.509 63.804 109.509 64.489C109.509 65.111 110.007 65.671 110.691 65.671C111.314 65.671 111.813 65.111 111.813 64.489L111.813 64.489z"/>
  <path stroke="none" fill="#FFFFFF" d="M50.54 30.676L55.521 30.676C55.521 32.295 54.401 33.603 53.03 33.603 51.661 33.603 50.54 32.295 50.54 30.676z"/>
  <polyline stroke-width="0.341" stroke-linejoin="round" stroke-miterlimit="10" points="89.396 72.584 104.59 64.676 118.787 64.676"/>
  <line stroke-width="0.341" stroke-linejoin="round" stroke-miterlimit="10" x1="50.54" y1="30.676" x2="34.133" y2="30.676"/>
  <polyline stroke-width="0.341" stroke-linejoin="round" stroke-miterlimit="10" points="26.937 30.676 6.081 30.676 6.081 72.584"/>
  <polygon stroke-width="0.205" stroke-linejoin="round" stroke-miterlimit="10" points="28.809 34.164 33.042 32.295 33.042 35.969 28.809 34.164"/>
  <line stroke-width="0.205" stroke-linejoin="round" stroke-miterlimit="10" x1="28.809" y1="35.969" x2="28.809" y2="32.295"/>
  <line stroke-width="0.205" stroke-linejoin="round" stroke-miterlimit="10" x1="30.925" y1="35.969" x2="30.925" y2="35.036"/>
  <polygon stroke-width="0.205" stroke-linejoin="round" stroke-miterlimit="10" points="32.545 26.817 28.31 24.949 28.31 28.621 32.545 26.817"/>
  <line stroke-width="0.205" stroke-linejoin="round" stroke-miterlimit="10" x1="32.545" y1="28.621" x2="32.545" y2="24.949"/>
  <line stroke-width="0.205" stroke-linejoin="round" stroke-miterlimit="10" x1="30.428" y1="28.621" x2="30.428" y2="27.687"/>
  <path stroke="none" fill="#EEF2F7" d="M26.94 30.739C26.94 30.365 26.567 30.054 26.131 30.054 25.695 30.054 25.384 30.365 25.384 30.739 25.384 31.112 25.695 31.423 26.131 31.423 26.567 31.423 26.94 31.112 26.94 30.739z"/>
  <path stroke-width="0.106" stroke-linejoin="round" stroke-miterlimit="10" fill="#000000" d="M26.94 30.739C26.94 30.365 26.567 30.054 26.131 30.054 25.695 30.054 25.384 30.365 25.384 30.739 25.384 31.112 25.695 31.423 26.131 31.423 26.567 31.423 26.94 31.112 26.94 30.739L26.94 30.739z"/>
  <path stroke="none" fill="#EEF2F7" d="M35.72 30.489C35.72 30.117 35.347 29.806 34.911 29.806 34.475 29.806 34.101 30.117 34.101 30.489 34.101 30.864 34.475 31.175 34.911 31.175 35.347 31.175 35.72 30.864 35.72 30.489z"/>
  <path stroke-width="0.106" stroke-linejoin="round" stroke-miterlimit="10" fill="#000000" d="M35.72 30.489C35.72 30.117 35.347 29.806 34.911 29.806 34.475 29.806 34.101 30.117 34.101 30.489 34.101 30.864 34.475 31.175 34.911 31.175 35.347 31.175 35.72 30.864 35.72 30.489L35.72 30.489z"/>
  <line stroke-width="0.205" stroke-linejoin="round" stroke-miterlimit="10" x1="26.131" y1="30.739" x2="23.515" y2="30.739"/>
  <line stroke-width="0.205" stroke-linejoin="round" stroke-miterlimit="10" x1="34.911" y1="30.614" x2="37.34" y2="30.614"/>
  <line stroke-width="0.068" stroke-linejoin="round" stroke-miterlimit="10" x1="11.061" y1="90.269" x2="11.061" y2="72.459"/>
  <line stroke-width="0.068" stroke-linejoin="round" stroke-miterlimit="10" x1="16.978" y1="90.269" x2="16.978" y2="72.459"/>
  <line stroke-width="0.068" stroke-linejoin="round" stroke-miterlimit="10" x1="27.439" y1="90.269" x2="27.439" y2="41.637"/>
  <polyline stroke-width="0.068" stroke-linejoin="round" stroke-miterlimit="10" points="33.789 90.269 33.789 56.706 40.701 56.706"/>
  <line stroke-width="0.068" stroke-linejoin="round" stroke-miterlimit="10" x1="12.618" y1="45.621" x2="0.788" y2="45.621"/>
  <path stroke="none" fill="#000000" d="M7.264 72.584C7.264 71.899 6.766 71.4 6.081 71.4 5.458 71.4 4.897 71.899 4.897 72.584 4.897 73.206 5.458 73.766 6.081 73.766 6.766 73.766 7.264 73.206 7.264 72.584z"/>
  <path stroke-width="0.068" stroke-linejoin="round" stroke-miterlimit="10" d="M7.264 72.584C7.264 71.899 6.766 71.4 6.081 71.4C5.458 71.4 4.897 71.899 4.897 72.584C4.897 73.206 5.458 73.766 6.081 73.766C6.766 73.766 7.264 73.206 7.264 72.584L7.264 72.584z"/>
  <line stroke-width="0.068" stroke-linejoin="round" stroke-miterlimit="10" x1="6.081" y1="72.584" x2="7.264" y2="72.584"/>
  <path stroke="none" fill="#000000" d="M11.996 72.584C11.996 71.899 11.497 71.4 10.875 71.4 10.189 71.4 9.692 71.899 9.692 72.584 9.692 73.206 10.189 73.766 10.875 73.766 11.497 73.766 11.996 73.206 11.996 72.584z"/>
  <path stroke-width="0.068" stroke-linejoin="round" stroke-miterlimit="10" d="M11.996 72.584C11.996 71.899 11.497 71.4 10.875 71.4C10.189 71.4 9.692 71.899 9.692 72.584C9.692 73.206 10.189 73.766 10.875 73.766C11.497 73.766 11.996 73.206 11.996 72.584L11.996 72.584z"/>
  <line stroke-width="0.068" stroke-linejoin="round" stroke-miterlimit="10" x1="10.875" y1="72.584" x2="11.996" y2="72.584"/>
  <path stroke="none" fill="#000000" d="M18.161 72.584C18.161 71.899 17.6 71.4 16.978 71.4 16.292 71.4 15.794 71.899 15.794 72.584 15.794 73.206 16.292 73.766 16.978 73.766 17.6 73.766 18.161 73.206 18.161 72.584z"/>
  <path stroke-width="0.068" stroke-linejoin="round" stroke-miterlimit="10" d="M18.161 72.584C18.161 71.899 17.6 71.4 16.978 71.4C16.292 71.4 15.794 71.899 15.794 72.584C15.794 73.206 16.292 73.766 16.978 73.766C17.6 73.766 18.161 73.206 18.161 72.584L18.161 72.584z"/>
  <line stroke-width="0.068" stroke-linejoin="round" stroke-miterlimit="10" x1="16.978" y1="72.584" x2="18.161" y2="72.584"/>
  <line stroke-width="0.068" stroke-linejoin="round" stroke-miterlimit="10" x1="84.165" y1="90.269" x2="84.165" y2="75.635"/>
  <polyline stroke-width="0.205" stroke-linejoin="round" stroke-miterlimit="10" points="12.868 42.881 10.066 42.881 10.003 30.989"/>
  <line stroke-width="0.205" stroke-linejoin="round" stroke-miterlimit="10" x1="30.8" y1="37.838" x2="30.8" y2="39.954"/>
  <line stroke-width="0.205" stroke-linejoin="round" stroke-miterlimit="10" x1="43.628" y1="39.954" x2="43.628" y2="30.739"/>
  <path stroke="none" fill="#000000" d="M11.249 30.864C11.249 30.24 10.689 29.681 10.066 29.681 9.381 29.681 8.882 30.24 8.882 30.864 8.882 31.486 9.381 32.046 10.066 32.046 10.689 32.046 11.249 31.486 11.249 30.864z"/>
  <path stroke-width="0.068" stroke-linejoin="round" stroke-miterlimit="10" d="M11.249 30.864C11.249 30.24 10.689 29.681 10.066 29.681C9.381 29.681 8.882 30.24 8.882 30.864C8.882 31.486 9.381 32.046 10.066 32.046C10.689 32.046 11.249 31.486 11.249 30.864L11.249 30.864z"/>
  <line stroke-width="0.068" stroke-linejoin="round" stroke-miterlimit="10" x1="10.066" y1="30.864" x2="11.249" y2="30.864"/>
  <path stroke="none" fill="#000000" d="M44.811 30.864C44.811 30.24 44.314 29.681 43.628 29.681 43.006 29.681 42.445 30.24 42.445 30.864 42.445 31.486 43.006 32.046 43.628 32.046 44.314 32.046 44.811 31.486 44.811 30.864z"/>
  <path stroke-width="0.068" stroke-linejoin="round" stroke-miterlimit="10" d="M44.811 30.864C44.811 30.24 44.314 29.681 43.628 29.681C43.006 29.681 42.445 30.24 42.445 30.864C42.445 31.486 43.006 32.046 43.628 32.046C44.314 32.046 44.811 31.486 44.811 30.864L44.811 30.864z"/>
  <line stroke-width="0.068" stroke-linejoin="round" stroke-miterlimit="10" x1="43.628" y1="30.864" x2="44.811" y2="30.864"/>
  <path stroke="none" fill="#FFFFFF" d="M12.868 50.789L46.741 50.789 46.741 39.954 12.868 39.954 12.868 50.789z"/>
  <polygon stroke-width="0.205" stroke-linejoin="round" stroke-miterlimit="10" points="12.868 50.789 46.741 50.789 46.741 39.954 12.868 39.954 12.868 50.789"/>
  <polygon stroke-width="0.341" stroke-linejoin="round" stroke-miterlimit="10" points="21.896 37.838 38.896 37.838 38.896 23.143 21.896 23.143 21.896 37.838"/>
  <polygon stroke-width="0.205" stroke-linejoin="round" stroke-miterlimit="10" points="26.131 34.412 34.911 34.412 34.911 26.817 26.131 26.817 26.131 34.412"/>
  <line stroke-width="0.353" x1="50.54" y1="30.676" x2="50.54" y2="10.028"/>
  <polyline stroke-width="0.106" points="46.741 45.372 52.552 45.372 52.552 52.284"/>
 </g>
 <g id="120mm_x0020_hidden_x0020_Schneider_x0020_layer_x0020_for_x0020_editor">
  <polygon stroke="none" points="0 82.224 0 91.224 120 91.224 120 82.224 0 82.224"/>
 </g>
 <g id="cutout_x0020_layer">
 </g>
 <g id="outline_x0020_layer">
 </g>
 <g id="zoom_x0020_layer">
 </g>
 <g id="arrow_x0020_layer">
 </g>
 <g id="_x0020_cable_x0020_layer">
 </g>
 <g id="symbol_x0020_layer">
 </g>
 <g id="_x0020_text_x0020_layer">
  <text x="24.259" y="21.876" stroke="none" fill="#000000" font-family="'Arial'" font-size="5.174">Q401</text>
  <text x="92.394" y="4.232" stroke="none" fill="#000000" font-family="'Arial'" font-size="5.174">Q601</text>
  <text x="68.73" y="11.074" stroke="none" fill="#000000" font-family="'Arial'" font-size="5.174">Bypass</text>
  <text x="75.055" y="22.085" stroke="none" fill="#000000" font-family="'Arial'" font-size="5.174">Auto</text>
  <text x="14.14" y="46.979" stroke="none" fill="#000000" font-family="'Arial'" font-size="3.464">SBS controller A401</text>
  <text x="41.47" y="57.448" stroke="none" fill="#000000" font-family="'Arial'" font-size="3.464">Fan monitor</text>
  <text x="39.337" y="67.98" stroke="none" fill="#000000" font-family="'Arial'" font-size="3.464">E401</text>
  <text x="51.274" y="64.271" stroke="none" fill="#000000" font-family="'Arial'" font-size="3.464">M</text>
 </g>
 <g id="text-_x0020_DO_x0020_NOT_x0020_translate">
 </g>
 <g id="_x0020_callout_x0020_layer">
 </g>
</svg>
