<?xml version="1.0" encoding="UTF-8"?>
<!-- Generator: PTC Arbortext IsoDraw 7.4 M001 -->
<svg xmlns="http://www.w3.org/2000/svg" xmlns:xlink="http://www.w3.org/1999/xlink" id="Standard_x0020_layer" width="5.293mm" height="4.637mm" viewBox="0 0 5.293 4.637" fill-rule="evenodd" clip-rule="evenodd" stroke="#000000" stroke-linecap="round" fill="none" xml:space="preserve" preserveAspectRatio="xMidYMid meet" zoomAndPan="magnify" version="1.1" contentScriptType="text/ecmascript" contentStyleType="text/css">
 <path stroke="none" d="M5.293 0L0 0 0 4.637 5.293 4.637 5.293 0z"/>
 <polygon stroke-width="0.408" stroke-linejoin="round" points="2.652 0.204 5.089 4.432 0.204 4.432 2.652 0.204"/>
 <path stroke="none" fill="#000000" d="M2.492 3.339L2.382 3.516 2.895 3.516 2.895 4.03 2.382 4.03 2.382 3.516 2.492 3.339 2.359 1.982 2.359 1.354 2.915 1.354 2.915 1.982 2.782 3.339 2.492 3.339z"/>
 <clipPath id="iso143967" fill="none" stroke="none">
  <path d="M0 4.637L0 4.637 0 4.637 0 4.637 0 4.637z"/>
 </clipPath>
 <g clip-path="url(#iso143967)">
  <line stroke="#FFFFFF" stroke-width="0.353" stroke-linecap="butt" stroke-miterlimit="10" x1="0" y1="4.637" x2="0.353" y2="4.283"/>
 </g>
 <path stroke="none" d="M0 4.637L0 4.637 0 4.637 0 4.637 0 4.637z"/>
</svg>
