<?xml version="1.0" encoding="UTF-8"?>
<svg xmlns="http://www.w3.org/2000/svg"
     width="210mm"
     height="45.6374mm"
     viewBox="0 0 595.2756 129.3659">
   <defs>
      <style>
      .c {
        stroke-width: 0px;
      }

      .c, .d {
        fill: #000;
      }

      .e {
        stroke-linejoin: round;
      }

      .e, .f {
        fill: none;
        stroke: #000;
        stroke-linecap: round;
        stroke-width: .75px;
      }

      .d, .g {
        font-family: ArialNarrow, Arial;
        font-size: 7.3066px;
      }

      .g {
        fill: #fff;
      }

      .f {
        stroke-miterlimit: 10;
      }
    </style>
   </defs>
   <g id="a" data-name="Layer 5">
      <path class="e" d="M4.3867,119.3536c0,3.2865,2.6641,5.9507,5.9507,5.9507"/>
      <path class="e" d="M584.9382,125.3043c3.2866,0,5.9507-2.6641,5.9507-5.9507"/>
      <path class="e" d="M11.8242,4.0616c-4.1076,0-7.4375,3.33-7.4375,7.4375"/>
      <path class="e" d="M590.8889,11.4991c0-4.1076-3.33-7.4375-7.4383-7.4375"/>
      <line class="e"
            x1="590.8889"
            y1="119.3536"
            x2="590.8889"
            y2="11.4991"/>
      <line class="e"
            x1="10.3366"
            y1="125.3043"
            x2="584.9382"
            y2="125.3043"/>
      <line class="e"
            x1="4.3867"
            y1="119.3536"
            x2="4.3867"
            y2="11.4991"/>
      <line class="e"
            x1="10.3366"
            y1="4.0616"
            x2="584.9382"
            y2="4.0616"/>
   </g>
   <g id="b" data-name="Layer 6">
      <text class="g" transform="translate(127.9033 74.7009)">
         <tspan x="0" y="0">Battery disconnected</tspan>
      </text>
      <text class="g" transform="translate(316.3838 37.9246)">
         <tspan x="0" y="0">Bypass mains fault</tspan>
      </text>
      <text class="g" transform="translate(127.9033 56.3132)">
         <tspan x="0" y="0">DC Low warning</tspan>
      </text>
      <text class="g" transform="translate(219.3853 37.9246)">
         <tspan x="0" y="0">Inverter fault</tspan>
      </text>
      <text class="g" transform="translate(219.3853 56.3132)">
         <tspan x="0" y="0">Overload Inv./Bypass</tspan>
      </text>
      <text class="g" transform="translate(219.3853 74.7009)">
         <tspan x="0" y="0">Inverter fuse blown</tspan>
      </text>
      <text class="g" transform="translate(219.3853 93.0896)">
         <tspan x="0" y="0">Asynchronous</tspan>
      </text>
      <text class="g" transform="translate(316.3838 93.0896)">
         <tspan x="0" y="0">EA Inhibited</tspan>
      </text>
      <text class="g" transform="translate(316.3838 74.7009)">
         <tspan x="0" y="0">EN Inhibited</tspan>
      </text>
      <text class="g" transform="translate(316.3838 56.3132)">
         <tspan x="0" y="0">Manual Bypass ON</tspan>
      </text>
      <text class="g" transform="translate(413.3809 37.9246)">
         <tspan x="0" y="0">Overtemperature</tspan>
      </text>
      <text class="g" transform="translate(413.3809 56.3132)">
         <tspan x="0" y="0">Fan failure</tspan>
      </text>
      <text class="g" transform="translate(413.3809 74.7009)">
         <tspan x="0" y="0">Power supply fault</tspan>
      </text>
      <text class="g" transform="translate(413.3809 93.0896)">
         <tspan x="0" y="0">Parallel cable interrupted</tspan>
      </text>
      <text class="g" transform="translate(510.3809 37.9246)">
         <tspan x="0" y="0">ISBS Inoperable</tspan>
      </text>
      <text class="g" transform="translate(510.3809 56.3132)">
         <tspan x="0" y="0">-Q200 open</tspan>
      </text>
      <text class="g" transform="translate(510.3809 93.0896)">
         <tspan x="0" y="0">Surge protection blown</tspan>
      </text>
      <text class="g" transform="translate(30.9053 74.7009)">
         <tspan x="0" y="0">DC out of tolerance</tspan>
      </text>
      <rect class="c"
            x="400.0673"
            y="88.6529"
            width="9.194"
            height="3.6775"/>
      <rect class="f"
            x="400.0673"
            y="88.6529"
            width="9.194"
            height="3.6775"/>
      <line class="f"
            x1="400.0673"
            y1="88.6529"
            x2="400.0673"
            y2="92.3304"/>
      <line class="f"
            x1="400.0673"
            y1="88.6529"
            x2="400.0673"
            y2="88.6529"/>
      <line class="f"
            x1="400.0673"
            y1="88.6529"
            x2="409.2614"
            y2="88.6529"/>
      <line class="f"
            x1="409.2614"
            y1="88.6529"
            x2="409.2614"
            y2="88.6529"/>
      <line class="f"
            x1="409.2614"
            y1="88.6529"
            x2="409.2614"
            y2="92.3304"/>
      <line class="f"
            x1="409.2614"
            y1="92.3304"
            x2="409.2614"
            y2="92.3304"/>
      <line class="f"
            x1="400.0673"
            y1="92.3304"
            x2="409.2614"
            y2="92.3304"/>
      <line class="f"
            x1="400.0673"
            y1="92.3304"
            x2="400.0673"
            y2="92.3304"/>
      <rect class="c"
            x="400.0673"
            y="70.2642"
            width="9.194"
            height="3.6781"/>
      <rect class="f"
            x="400.0673"
            y="70.2642"
            width="9.194"
            height="3.6781"/>
      <line class="f"
            x1="400.0673"
            y1="70.2642"
            x2="400.0673"
            y2="73.9423"/>
      <line class="f"
            x1="400.0673"
            y1="70.2642"
            x2="400.0673"
            y2="70.2642"/>
      <line class="f"
            x1="400.0673"
            y1="70.2642"
            x2="409.2614"
            y2="70.2642"/>
      <line class="f"
            x1="409.2614"
            y1="70.2642"
            x2="409.2614"
            y2="70.2642"/>
      <line class="f"
            x1="409.2614"
            y1="70.2642"
            x2="409.2614"
            y2="73.9423"/>
      <line class="f"
            x1="409.2614"
            y1="73.9423"
            x2="409.2614"
            y2="73.9423"/>
      <line class="f"
            x1="400.0673"
            y1="73.9423"
            x2="409.2614"
            y2="73.9423"/>
      <line class="f"
            x1="400.0673"
            y1="73.9423"
            x2="400.0673"
            y2="73.9423"/>
      <rect class="c"
            x="400.0673"
            y="51.8761"
            width="9.194"
            height="3.6775"/>
      <rect class="f"
            x="400.0673"
            y="51.8761"
            width="9.194"
            height="3.6775"/>
      <line class="f"
            x1="400.0673"
            y1="51.8761"
            x2="400.0673"
            y2="55.5536"/>
      <line class="f"
            x1="400.0673"
            y1="51.8761"
            x2="400.0673"
            y2="51.8761"/>
      <line class="f"
            x1="400.0673"
            y1="51.8761"
            x2="409.2614"
            y2="51.8761"/>
      <line class="f"
            x1="409.2614"
            y1="51.8761"
            x2="409.2614"
            y2="51.8761"/>
      <line class="f"
            x1="409.2614"
            y1="51.8761"
            x2="409.2614"
            y2="55.5536"/>
      <line class="f"
            x1="409.2614"
            y1="55.5536"
            x2="409.2614"
            y2="55.5536"/>
      <line class="f"
            x1="400.0673"
            y1="55.5536"
            x2="409.2614"
            y2="55.5536"/>
      <line class="f"
            x1="400.0673"
            y1="55.5536"
            x2="400.0673"
            y2="55.5536"/>
      <rect class="c"
            x="400.0673"
            y="33.4874"
            width="9.194"
            height="3.6781"/>
      <rect class="f"
            x="400.0673"
            y="33.4874"
            width="9.194"
            height="3.6781"/>
      <line class="f"
            x1="400.0673"
            y1="33.4874"
            x2="400.0673"
            y2="37.1656"/>
      <line class="f"
            x1="400.0673"
            y1="33.4874"
            x2="400.0673"
            y2="33.4874"/>
      <line class="f"
            x1="400.0673"
            y1="33.4874"
            x2="409.2614"
            y2="33.4874"/>
      <line class="f"
            x1="409.2614"
            y1="33.4874"
            x2="409.2614"
            y2="33.4874"/>
      <line class="f"
            x1="409.2614"
            y1="33.4874"
            x2="409.2614"
            y2="37.1656"/>
      <line class="f"
            x1="409.2614"
            y1="37.1656"
            x2="409.2614"
            y2="37.1656"/>
      <line class="f"
            x1="400.0673"
            y1="37.1656"
            x2="409.2614"
            y2="37.1656"/>
      <line class="f"
            x1="400.0673"
            y1="37.1656"
            x2="400.0673"
            y2="37.1656"/>
      <rect class="c"
            x="497.0655"
            y="88.6529"
            width="9.194"
            height="3.6775"/>
      <rect class="f"
            x="497.0655"
            y="88.6529"
            width="9.194"
            height="3.6775"/>
      <line class="f"
            x1="497.0655"
            y1="88.6529"
            x2="497.0655"
            y2="92.3304"/>
      <line class="f"
            x1="497.0655"
            y1="88.6529"
            x2="497.0655"
            y2="88.6529"/>
      <line class="f"
            x1="497.0655"
            y1="88.6529"
            x2="506.2595"
            y2="88.6529"/>
      <line class="f"
            x1="506.2595"
            y1="88.6529"
            x2="506.2595"
            y2="88.6529"/>
      <line class="f"
            x1="506.2595"
            y1="88.6529"
            x2="506.2595"
            y2="92.3304"/>
      <line class="f"
            x1="506.2595"
            y1="92.3304"
            x2="506.2595"
            y2="92.3304"/>
      <line class="f"
            x1="497.0655"
            y1="92.3304"
            x2="506.2595"
            y2="92.3304"/>
      <line class="f"
            x1="497.0655"
            y1="92.3304"
            x2="497.0655"
            y2="92.3304"/>
      <rect class="c"
            x="497.0655"
            y="70.2642"
            width="9.194"
            height="3.6781"/>
      <rect class="f"
            x="497.0655"
            y="70.2642"
            width="9.194"
            height="3.6781"/>
      <line class="f"
            x1="497.0655"
            y1="70.2642"
            x2="497.0655"
            y2="73.9423"/>
      <line class="f"
            x1="497.0655"
            y1="70.2642"
            x2="497.0655"
            y2="70.2642"/>
      <line class="f"
            x1="497.0655"
            y1="70.2642"
            x2="506.2595"
            y2="70.2642"/>
      <line class="f"
            x1="506.2595"
            y1="70.2642"
            x2="506.2595"
            y2="70.2642"/>
      <line class="f"
            x1="506.2595"
            y1="70.2642"
            x2="506.2595"
            y2="73.9423"/>
      <line class="f"
            x1="506.2595"
            y1="73.9423"
            x2="506.2595"
            y2="73.9423"/>
      <line class="f"
            x1="497.0655"
            y1="73.9423"
            x2="506.2595"
            y2="73.9423"/>
      <line class="f"
            x1="497.0655"
            y1="73.9423"
            x2="497.0655"
            y2="73.9423"/>
      <rect class="c"
            x="497.0655"
            y="51.8761"
            width="9.194"
            height="3.6775"/>
      <rect class="f"
            x="497.0655"
            y="51.8761"
            width="9.194"
            height="3.6775"/>
      <line class="f"
            x1="497.0655"
            y1="51.8761"
            x2="497.0655"
            y2="55.5536"/>
      <line class="f"
            x1="497.0655"
            y1="51.8761"
            x2="497.0655"
            y2="51.8761"/>
      <line class="f"
            x1="497.0655"
            y1="51.8761"
            x2="506.2595"
            y2="51.8761"/>
      <line class="f"
            x1="506.2595"
            y1="51.8761"
            x2="506.2595"
            y2="51.8761"/>
      <line class="f"
            x1="506.2595"
            y1="51.8761"
            x2="506.2595"
            y2="55.5536"/>
      <line class="f"
            x1="506.2595"
            y1="55.5536"
            x2="506.2595"
            y2="55.5536"/>
      <line class="f"
            x1="497.0655"
            y1="55.5536"
            x2="506.2595"
            y2="55.5536"/>
      <line class="f"
            x1="497.0655"
            y1="55.5536"
            x2="497.0655"
            y2="55.5536"/>
      <rect class="c"
            x="497.0655"
            y="33.4874"
            width="9.194"
            height="3.6781"/>
      <rect class="f"
            x="497.0655"
            y="33.4874"
            width="9.194"
            height="3.6781"/>
      <line class="f"
            x1="497.0655"
            y1="33.4874"
            x2="497.0655"
            y2="37.1656"/>
      <line class="f"
            x1="497.0655"
            y1="33.4874"
            x2="497.0655"
            y2="33.4874"/>
      <line class="f"
            x1="497.0655"
            y1="33.4874"
            x2="506.2595"
            y2="33.4874"/>
      <line class="f"
            x1="506.2595"
            y1="33.4874"
            x2="506.2595"
            y2="33.4874"/>
      <line class="f"
            x1="506.2595"
            y1="33.4874"
            x2="506.2595"
            y2="37.1656"/>
      <line class="f"
            x1="506.2595"
            y1="37.1656"
            x2="506.2595"
            y2="37.1656"/>
      <line class="f"
            x1="497.0655"
            y1="37.1656"
            x2="506.2595"
            y2="37.1656"/>
      <line class="f"
            x1="497.0655"
            y1="37.1656"
            x2="497.0655"
            y2="37.1656"/>
      <text class="d" transform="translate(127.9033 56.3132)">
         <tspan x="0" y="0">DC Low warning</tspan>
      </text>
      <text class="d" transform="translate(219.3853 37.9246)">
         <tspan x="0" y="0">Inverter fault</tspan>
      </text>
      <text class="d" transform="translate(219.3853 56.3132)">
         <tspan x="0" y="0">Overload Inv./Bypass</tspan>
      </text>
      <text class="d" transform="translate(219.3853 74.7009)">
         <tspan x="0" y="0">Inverter fuse blown</tspan>
      </text>
      <text class="d" transform="translate(316.3838 37.9246)">
         <tspan x="0" y="0">Bypass input fault</tspan>
      </text>
      <text class="d" transform="translate(316.3838 56.3132)">
         <tspan x="0" y="0">Manual Bypass ON</tspan>
      </text>
      <text class="d" transform="translate(316.3838 74.7009)">
         <tspan x="0" y="0">EN Inhibited</tspan>
      </text>
      <text class="d" transform="translate(316.3838 93.0896)">
         <tspan x="0" y="0">EA Inhibited</tspan>
      </text>
      <text class="d" transform="translate(413.3809 37.9246)">
         <tspan x="0" y="0">Overtemperature</tspan>
      </text>
      <text class="d" transform="translate(413.3809 56.3132)">
         <tspan x="0" y="0">Fan failure</tspan>
      </text>
      <text class="d" transform="translate(413.3809 74.7009)">
         <tspan x="0" y="0">Control power fault</tspan>
      </text>
      <text class="d" transform="translate(413.3809 93.0896)">
         <tspan x="0" y="0">Parallel cable interrupted</tspan>
      </text>
      <text class="d" transform="translate(510.3809 37.9246)">
         <tspan x="0" y="0">Surge protection blown</tspan>
      </text>
      <text class="d" transform="translate(510.3809 56.3132)">
         <tspan x="0" y="0">ISBS Inoperable</tspan>
      </text>
      <text class="d" transform="translate(219.3853 93.0896)">
         <tspan x="0" y="0">Asynchronous</tspan>
      </text>
      <rect class="c"
            x="17.5892"
            y="33.4874"
            width="9.1947"
            height="3.6781"/>
      <rect class="f"
            x="17.5892"
            y="33.4874"
            width="9.1947"
            height="3.6781"/>
      <line class="f"
            x1="17.5892"
            y1="33.4874"
            x2="17.5892"
            y2="37.1656"/>
      <line class="f"
            x1="17.5892"
            y1="33.4874"
            x2="17.5892"
            y2="33.4874"/>
      <line class="f"
            x1="17.5892"
            y1="33.4874"
            x2="26.7838"
            y2="33.4874"/>
      <line class="f"
            x1="26.7838"
            y1="33.4874"
            x2="26.7838"
            y2="33.4874"/>
      <line class="f"
            x1="26.7838"
            y1="33.4874"
            x2="26.7838"
            y2="37.1656"/>
      <line class="f"
            x1="26.7838"
            y1="37.1656"
            x2="26.7838"
            y2="37.1656"/>
      <line class="f"
            x1="17.5892"
            y1="37.1656"
            x2="26.7838"
            y2="37.1656"/>
      <line class="f"
            x1="17.5892"
            y1="37.1656"
            x2="17.5892"
            y2="37.1656"/>
      <rect class="c"
            x="17.5892"
            y="51.8761"
            width="9.1947"
            height="3.6775"/>
      <rect class="f"
            x="17.5892"
            y="51.8761"
            width="9.1947"
            height="3.6775"/>
      <line class="f"
            x1="17.5892"
            y1="51.8761"
            x2="17.5892"
            y2="55.5536"/>
      <line class="f"
            x1="17.5892"
            y1="51.8761"
            x2="17.5892"
            y2="51.8761"/>
      <line class="f"
            x1="17.5892"
            y1="51.8761"
            x2="26.7838"
            y2="51.8761"/>
      <line class="f"
            x1="26.7838"
            y1="51.8761"
            x2="26.7838"
            y2="51.8761"/>
      <line class="f"
            x1="26.7838"
            y1="51.8761"
            x2="26.7838"
            y2="55.5536"/>
      <line class="f"
            x1="26.7838"
            y1="55.5536"
            x2="26.7838"
            y2="55.5536"/>
      <line class="f"
            x1="17.5892"
            y1="55.5536"
            x2="26.7838"
            y2="55.5536"/>
      <line class="f"
            x1="17.5892"
            y1="55.5536"
            x2="17.5892"
            y2="55.5536"/>
      <rect class="c"
            x="17.5892"
            y="70.2642"
            width="9.1947"
            height="3.6781"/>
      <rect class="f"
            x="17.5892"
            y="70.2642"
            width="9.1947"
            height="3.6781"/>
      <line class="f"
            x1="17.5892"
            y1="70.2642"
            x2="17.5892"
            y2="73.9423"/>
      <line class="f"
            x1="17.5892"
            y1="70.2642"
            x2="17.5892"
            y2="70.2642"/>
      <line class="f"
            x1="17.5892"
            y1="70.2642"
            x2="26.7838"
            y2="70.2642"/>
      <line class="f"
            x1="26.7838"
            y1="70.2642"
            x2="26.7838"
            y2="70.2642"/>
      <line class="f"
            x1="26.7838"
            y1="70.2642"
            x2="26.7838"
            y2="73.9423"/>
      <line class="f"
            x1="26.7838"
            y1="73.9423"
            x2="26.7838"
            y2="73.9423"/>
      <line class="f"
            x1="17.5892"
            y1="73.9423"
            x2="26.7838"
            y2="73.9423"/>
      <line class="f"
            x1="17.5892"
            y1="73.9423"
            x2="17.5892"
            y2="73.9423"/>
      <rect class="c"
            x="17.5892"
            y="88.6529"
            width="9.1947"
            height="3.6775"/>
      <rect class="f"
            x="17.5892"
            y="88.6529"
            width="9.1947"
            height="3.6775"/>
      <line class="f"
            x1="17.5892"
            y1="88.6529"
            x2="17.5892"
            y2="92.3304"/>
      <line class="f"
            x1="17.5892"
            y1="88.6529"
            x2="17.5892"
            y2="88.6529"/>
      <line class="f"
            x1="17.5892"
            y1="88.6529"
            x2="26.7838"
            y2="88.6529"/>
      <line class="f"
            x1="26.7838"
            y1="88.6529"
            x2="26.7838"
            y2="88.6529"/>
      <line class="f"
            x1="26.7838"
            y1="88.6529"
            x2="26.7838"
            y2="92.3304"/>
      <line class="f"
            x1="26.7838"
            y1="92.3304"
            x2="26.7838"
            y2="92.3304"/>
      <line class="f"
            x1="17.5892"
            y1="92.3304"
            x2="26.7838"
            y2="92.3304"/>
      <line class="f"
            x1="17.5892"
            y1="92.3304"
            x2="17.5892"
            y2="92.3304"/>
      <rect class="c"
            x="114.588"
            y="88.6529"
            width="9.194"
            height="3.6775"/>
      <rect class="f"
            x="114.588"
            y="88.6529"
            width="9.194"
            height="3.6775"/>
      <line class="f"
            x1="114.588"
            y1="88.6529"
            x2="114.588"
            y2="92.3304"/>
      <line class="f"
            x1="114.588"
            y1="88.6529"
            x2="114.588"
            y2="88.6529"/>
      <line class="f"
            x1="114.588"
            y1="88.6529"
            x2="123.782"
            y2="88.6529"/>
      <line class="f"
            x1="123.782"
            y1="88.6529"
            x2="123.782"
            y2="88.6529"/>
      <line class="f"
            x1="123.782"
            y1="88.6529"
            x2="123.782"
            y2="92.3304"/>
      <line class="f"
            x1="123.782"
            y1="92.3304"
            x2="123.782"
            y2="92.3304"/>
      <line class="f"
            x1="114.588"
            y1="92.3304"
            x2="123.782"
            y2="92.3304"/>
      <line class="f"
            x1="114.588"
            y1="92.3304"
            x2="114.588"
            y2="92.3304"/>
      <rect class="c"
            x="114.588"
            y="70.2642"
            width="9.194"
            height="3.6781"/>
      <rect class="f"
            x="114.588"
            y="70.2642"
            width="9.194"
            height="3.6781"/>
      <line class="f"
            x1="114.588"
            y1="70.2642"
            x2="114.588"
            y2="73.9423"/>
      <line class="f"
            x1="114.588"
            y1="70.2642"
            x2="114.588"
            y2="70.2642"/>
      <line class="f"
            x1="114.588"
            y1="70.2642"
            x2="123.782"
            y2="70.2642"/>
      <line class="f"
            x1="123.782"
            y1="70.2642"
            x2="123.782"
            y2="70.2642"/>
      <line class="f"
            x1="123.782"
            y1="70.2642"
            x2="123.782"
            y2="73.9423"/>
      <line class="f"
            x1="123.782"
            y1="73.9423"
            x2="123.782"
            y2="73.9423"/>
      <line class="f"
            x1="114.588"
            y1="73.9423"
            x2="123.782"
            y2="73.9423"/>
      <line class="f"
            x1="114.588"
            y1="73.9423"
            x2="114.588"
            y2="73.9423"/>
      <rect class="c"
            x="114.588"
            y="51.8761"
            width="9.194"
            height="3.6775"/>
      <rect class="f"
            x="114.588"
            y="51.8761"
            width="9.194"
            height="3.6775"/>
      <line class="f"
            x1="114.588"
            y1="51.8761"
            x2="114.588"
            y2="55.5536"/>
      <line class="f"
            x1="114.588"
            y1="51.8761"
            x2="114.588"
            y2="51.8761"/>
      <line class="f"
            x1="114.588"
            y1="51.8761"
            x2="123.782"
            y2="51.8761"/>
      <line class="f"
            x1="123.782"
            y1="51.8761"
            x2="123.782"
            y2="51.8761"/>
      <line class="f"
            x1="123.782"
            y1="51.8761"
            x2="123.782"
            y2="55.5536"/>
      <line class="f"
            x1="123.782"
            y1="55.5536"
            x2="123.782"
            y2="55.5536"/>
      <line class="f"
            x1="114.588"
            y1="55.5536"
            x2="123.782"
            y2="55.5536"/>
      <line class="f"
            x1="114.588"
            y1="55.5536"
            x2="114.588"
            y2="55.5536"/>
      <rect class="c"
            x="114.588"
            y="33.4874"
            width="9.194"
            height="3.6781"/>
      <rect class="f"
            x="114.588"
            y="33.4874"
            width="9.194"
            height="3.6781"/>
      <line class="f"
            x1="114.588"
            y1="33.4874"
            x2="114.588"
            y2="37.1656"/>
      <line class="f"
            x1="114.588"
            y1="33.4874"
            x2="114.588"
            y2="33.4874"/>
      <line class="f"
            x1="114.588"
            y1="33.4874"
            x2="123.782"
            y2="33.4874"/>
      <line class="f"
            x1="123.782"
            y1="33.4874"
            x2="123.782"
            y2="33.4874"/>
      <line class="f"
            x1="123.782"
            y1="33.4874"
            x2="123.782"
            y2="37.1656"/>
      <line class="f"
            x1="123.782"
            y1="37.1656"
            x2="123.782"
            y2="37.1656"/>
      <line class="f"
            x1="114.588"
            y1="37.1656"
            x2="123.782"
            y2="37.1656"/>
      <line class="f"
            x1="114.588"
            y1="37.1656"
            x2="114.588"
            y2="37.1656"/>
      <rect class="c"
            x="206.0703"
            y="88.6529"
            width="9.194"
            height="3.6775"/>
      <rect class="f"
            x="206.0703"
            y="88.6529"
            width="9.194"
            height="3.6775"/>
      <line class="f"
            x1="206.0703"
            y1="88.6529"
            x2="206.0703"
            y2="92.3304"/>
      <line class="f"
            x1="206.0703"
            y1="88.6529"
            x2="206.0703"
            y2="88.6529"/>
      <line class="f"
            x1="206.0703"
            y1="88.6529"
            x2="215.2643"
            y2="88.6529"/>
      <line class="f"
            x1="215.2643"
            y1="88.6529"
            x2="215.2643"
            y2="88.6529"/>
      <line class="f"
            x1="215.2643"
            y1="88.6529"
            x2="215.2643"
            y2="92.3304"/>
      <line class="f"
            x1="215.2643"
            y1="92.3304"
            x2="215.2643"
            y2="92.3304"/>
      <line class="f"
            x1="206.0703"
            y1="92.3304"
            x2="215.2643"
            y2="92.3304"/>
      <line class="f"
            x1="206.0703"
            y1="92.3304"
            x2="206.0703"
            y2="92.3304"/>
      <rect class="c"
            x="206.0703"
            y="70.2642"
            width="9.194"
            height="3.6781"/>
      <rect class="f"
            x="206.0703"
            y="70.2642"
            width="9.194"
            height="3.6781"/>
      <line class="f"
            x1="206.0703"
            y1="70.2642"
            x2="206.0703"
            y2="73.9423"/>
      <line class="f"
            x1="206.0703"
            y1="70.2642"
            x2="206.0703"
            y2="70.2642"/>
      <line class="f"
            x1="206.0703"
            y1="70.2642"
            x2="215.2643"
            y2="70.2642"/>
      <line class="f"
            x1="215.2643"
            y1="70.2642"
            x2="215.2643"
            y2="70.2642"/>
      <line class="f"
            x1="215.2643"
            y1="70.2642"
            x2="215.2643"
            y2="73.9423"/>
      <line class="f"
            x1="215.2643"
            y1="73.9423"
            x2="215.2643"
            y2="73.9423"/>
      <line class="f"
            x1="206.0703"
            y1="73.9423"
            x2="215.2643"
            y2="73.9423"/>
      <line class="f"
            x1="206.0703"
            y1="73.9423"
            x2="206.0703"
            y2="73.9423"/>
      <rect class="c"
            x="206.0703"
            y="51.8761"
            width="9.194"
            height="3.6775"/>
      <rect class="f"
            x="206.0703"
            y="51.8761"
            width="9.194"
            height="3.6775"/>
      <line class="f"
            x1="206.0703"
            y1="51.8761"
            x2="206.0703"
            y2="55.5536"/>
      <line class="f"
            x1="206.0703"
            y1="51.8761"
            x2="206.0703"
            y2="51.8761"/>
      <line class="f"
            x1="206.0703"
            y1="51.8761"
            x2="215.2643"
            y2="51.8761"/>
      <line class="f"
            x1="215.2643"
            y1="51.8761"
            x2="215.2643"
            y2="51.8761"/>
      <line class="f"
            x1="215.2643"
            y1="51.8761"
            x2="215.2643"
            y2="55.5536"/>
      <line class="f"
            x1="215.2643"
            y1="55.5536"
            x2="215.2643"
            y2="55.5536"/>
      <line class="f"
            x1="206.0703"
            y1="55.5536"
            x2="215.2643"
            y2="55.5536"/>
      <line class="f"
            x1="206.0703"
            y1="55.5536"
            x2="206.0703"
            y2="55.5536"/>
      <rect class="c"
            x="206.0703"
            y="33.4874"
            width="9.194"
            height="3.6781"/>
      <rect class="f"
            x="206.0703"
            y="33.4874"
            width="9.194"
            height="3.6781"/>
      <line class="f"
            x1="206.0703"
            y1="33.4874"
            x2="206.0703"
            y2="37.1656"/>
      <line class="f"
            x1="206.0703"
            y1="33.4874"
            x2="206.0703"
            y2="33.4874"/>
      <line class="f"
            x1="206.0703"
            y1="33.4874"
            x2="215.2643"
            y2="33.4874"/>
      <line class="f"
            x1="215.2643"
            y1="33.4874"
            x2="215.2643"
            y2="33.4874"/>
      <line class="f"
            x1="215.2643"
            y1="33.4874"
            x2="215.2643"
            y2="37.1656"/>
      <line class="f"
            x1="215.2643"
            y1="37.1656"
            x2="215.2643"
            y2="37.1656"/>
      <line class="f"
            x1="206.0703"
            y1="37.1656"
            x2="215.2643"
            y2="37.1656"/>
      <line class="f"
            x1="206.0703"
            y1="37.1656"
            x2="206.0703"
            y2="37.1656"/>
      <rect class="c"
            x="303.0685"
            y="88.6529"
            width="9.194"
            height="3.6775"/>
      <rect class="f"
            x="303.0685"
            y="88.6529"
            width="9.194"
            height="3.6775"/>
      <line class="f"
            x1="303.0685"
            y1="88.6529"
            x2="303.0685"
            y2="92.3304"/>
      <line class="f"
            x1="303.0685"
            y1="88.6529"
            x2="303.0685"
            y2="88.6529"/>
      <line class="f"
            x1="303.0685"
            y1="88.6529"
            x2="312.2625"
            y2="88.6529"/>
      <line class="f"
            x1="312.2625"
            y1="88.6529"
            x2="312.2625"
            y2="88.6529"/>
      <line class="f"
            x1="312.2625"
            y1="88.6529"
            x2="312.2625"
            y2="92.3304"/>
      <line class="f"
            x1="312.2625"
            y1="92.3304"
            x2="312.2625"
            y2="92.3304"/>
      <line class="f"
            x1="303.0685"
            y1="92.3304"
            x2="312.2625"
            y2="92.3304"/>
      <line class="f"
            x1="303.0685"
            y1="92.3304"
            x2="303.0685"
            y2="92.3304"/>
      <rect class="c"
            x="303.0685"
            y="70.2642"
            width="9.194"
            height="3.6781"/>
      <rect class="f"
            x="303.0685"
            y="70.2642"
            width="9.194"
            height="3.6781"/>
      <line class="f"
            x1="303.0685"
            y1="70.2642"
            x2="303.0685"
            y2="73.9423"/>
      <line class="f"
            x1="303.0685"
            y1="70.2642"
            x2="303.0685"
            y2="70.2642"/>
      <line class="f"
            x1="303.0685"
            y1="70.2642"
            x2="312.2625"
            y2="70.2642"/>
      <line class="f"
            x1="312.2625"
            y1="70.2642"
            x2="312.2625"
            y2="70.2642"/>
      <line class="f"
            x1="312.2625"
            y1="70.2642"
            x2="312.2625"
            y2="73.9423"/>
      <line class="f"
            x1="312.2625"
            y1="73.9423"
            x2="312.2625"
            y2="73.9423"/>
      <line class="f"
            x1="303.0685"
            y1="73.9423"
            x2="312.2625"
            y2="73.9423"/>
      <line class="f"
            x1="303.0685"
            y1="73.9423"
            x2="303.0685"
            y2="73.9423"/>
      <rect class="c"
            x="303.0685"
            y="51.8761"
            width="9.194"
            height="3.6775"/>
      <rect class="f"
            x="303.0685"
            y="51.8761"
            width="9.194"
            height="3.6775"/>
      <line class="f"
            x1="303.0685"
            y1="51.8761"
            x2="303.0685"
            y2="55.5536"/>
      <line class="f"
            x1="303.0685"
            y1="51.8761"
            x2="303.0685"
            y2="51.8761"/>
      <line class="f"
            x1="303.0685"
            y1="51.8761"
            x2="312.2625"
            y2="51.8761"/>
      <line class="f"
            x1="312.2625"
            y1="51.8761"
            x2="312.2625"
            y2="51.8761"/>
      <line class="f"
            x1="312.2625"
            y1="51.8761"
            x2="312.2625"
            y2="55.5536"/>
      <line class="f"
            x1="312.2625"
            y1="55.5536"
            x2="312.2625"
            y2="55.5536"/>
      <line class="f"
            x1="303.0685"
            y1="55.5536"
            x2="312.2625"
            y2="55.5536"/>
      <line class="f"
            x1="303.0685"
            y1="55.5536"
            x2="303.0685"
            y2="55.5536"/>
      <text class="d" transform="translate(127.9033 74.7009)">
         <tspan x="0" y="0">Battery disconnected</tspan>
      </text>
      <rect class="c"
            x="303.0685"
            y="33.4874"
            width="9.194"
            height="3.6781"/>
      <rect class="f"
            x="303.0685"
            y="33.4874"
            width="9.194"
            height="3.6781"/>
      <line class="f"
            x1="303.0685"
            y1="33.4874"
            x2="303.0685"
            y2="37.1656"/>
      <line class="f"
            x1="303.0685"
            y1="33.4874"
            x2="303.0685"
            y2="33.4874"/>
      <line class="f"
            x1="303.0685"
            y1="33.4874"
            x2="312.2625"
            y2="33.4874"/>
      <line class="f"
            x1="312.2625"
            y1="33.4874"
            x2="312.2625"
            y2="33.4874"/>
      <line class="f"
            x1="312.2625"
            y1="33.4874"
            x2="312.2625"
            y2="37.1656"/>
      <line class="f"
            x1="312.2625"
            y1="37.1656"
            x2="312.2625"
            y2="37.1656"/>
      <line class="f"
            x1="303.0685"
            y1="37.1656"
            x2="312.2625"
            y2="37.1656"/>
      <line class="f"
            x1="303.0685"
            y1="37.1656"
            x2="303.0685"
            y2="37.1656"/>
      <text class="d" transform="translate(30.9053 74.7009)">
         <tspan x="0" y="0">DC out of tolerance</tspan>
      </text>
   </g>
</svg>
