<?xml version="1.0" encoding="UTF-8"?>
<svg xmlns="http://www.w3.org/2000/svg"
     id="f"
     data-name="Layer 7"
     width="64.6262mm"
     height="24.8493mm"
     viewBox="0 0 183.1924 70.439">
   <defs>
      <style>
      .j {
        font-size: 20px;
      }

      .j, .k {
        font-family: ArialMT, Arial;
      }

      .j, .l {
        fill: #000;
      }

      .m, .l {
        stroke: #000;
      }

      .m, .l, .n {
        stroke-linecap: round;
      }

      .m, .n, .o {
        fill: none;
      }

      .m, .o {
        stroke-width: .5px;
      }

      .k {
        fill: #fff;
        font-size: 16px;
        isolation: isolate;
      }

      .l {
        stroke-width: .106px;
      }

      .n {
        stroke: #fff;
      }

      .o {
        stroke: #231f20;
      }
    </style>
   </defs>
   <g id="g" data-name="ATTRIB">
      <text class="j" transform="translate(1.1071 16.7347)">
         <tspan x="0" y="0">1220256001 - UC01</tspan>
      </text>
   </g>
   <g>
      <line class="n"
            x1="39.8999"
            y1="28.439"
            x2="39.8999"
            y2="59.5347"/>
      <line class="m"
            x1="39.8999"
            y1="59.5347"
            x2="39.8999"
            y2="28.439"/>
      <circle class="l" cx="39.8999" cy="59.5347" r="9.5"/>
      <text class="k" transform="translate(33.6772 65.067)">
         <tspan x="0" y="0">Q</tspan>
      </text>
   </g>
   <g>
      <line class="n"
            x1="94.9807"
            y1="28.439"
            x2="94.9807"
            y2="59.5347"/>
      <line class="m"
            x1="94.9807"
            y1="59.5347"
            x2="94.9807"
            y2="28.439"/>
      <circle class="l" cx="94.9807" cy="59.5347" r="9.5"/>
      <text class="k" transform="translate(89.2033 65.067)">
         <tspan x="0" y="0">R</tspan>
      </text>
   </g>
   <g>
      <line class="n"
            x1="154.2683"
            y1="28.439"
            x2="154.2683"
            y2="59.5347"/>
      <line class="m"
            x1="154.2683"
            y1="59.5347"
            x2="154.2683"
            y2="28.439"/>
      <circle class="l" cx="154.2683" cy="59.5347" r="9.5"/>
      <text class="k" transform="translate(148.9324 65.067)">
         <tspan x="0" y="0">S</tspan>
      </text>
   </g>
   <polyline class="o"
             points="77.4878 20.3902 77.4878 28.439 3.2806 28.439 3.2806 20.3902"/>
   <polyline class="o"
             points="110.248 20.3902 110.248 28.439 79.7135 28.439 79.7135 20.3902"/>
   <polyline class="o"
             points="179.2195 20.3902 179.2195 28.439 129.3171 28.439 129.3171 20.3902"/>
</svg>
