<?xml version="1.0" encoding="UTF-8"?>
<svg xmlns="http://www.w3.org/2000/svg"
     id="Layer_7"
     data-name="Layer 7"
     width="110.017mm"
     height="24.8493mm"
     viewBox="0 0 311.8591 70.439">
   <defs>
      <style>
      .cls-1 {
        stroke-width: .536px;
      }

      .cls-1, .cls-2, .cls-3, .cls-4, .cls-5 {
        fill: none;
      }

      .cls-1, .cls-4, .cls-5 {
        stroke: #231f20;
      }

      .cls-6 {
        font-size: 20px;
      }

      .cls-6, .cls-7 {
        font-family: ArialMT, Arial;
      }

      .cls-6, .cls-8 {
        fill: #000;
      }

      .cls-2, .cls-8 {
        stroke: #000;
      }

      .cls-2, .cls-8, .cls-3 {
        stroke-linecap: round;
      }

      .cls-2, .cls-5 {
        stroke-width: .5px;
      }

      .cls-7 {
        fill: #fff;
        font-size: 16px;
        isolation: isolate;
      }

      .cls-8 {
        stroke-width: .106px;
      }

      .cls-3 {
        stroke: #fff;
      }

      .cls-4 {
        stroke-width: .5912px;
      }
    </style>
   </defs>
   <g id="ATTRIB">
      <text class="cls-6" transform="translate(1.1072 16.7345)">
         <tspan x="0" y="0">Reality WEW 1040-250/125-EAN-R</tspan>
      </text>
   </g>
   <g>
      <line class="cls-3"
            x1="49.3999"
            y1="28.439"
            x2="49.3999"
            y2="59.5347"/>
      <line class="cls-2"
            x1="49.3999"
            y1="59.5347"
            x2="49.3999"
            y2="28.439"/>
      <circle class="cls-8" cx="49.3999" cy="59.5347" r="9.5"/>
      <text class="cls-7" transform="translate(45.3999 65.0667)">
         <tspan x="0" y="0">J</tspan>
      </text>
   </g>
   <g>
      <line class="cls-3"
            x1="120.3171"
            y1="20.3902"
            x2="120.3171"
            y2="59.5347"/>
      <line class="cls-2"
            x1="120.3171"
            y1="59.5347"
            x2="120.3171"
            y2="28.439"/>
      <circle class="cls-8" cx="120.3171" cy="59.5347" r="9.5"/>
      <text class="cls-7" transform="translate(114.9814 65.0667)">
         <tspan x="0" y="0">K</tspan>
      </text>
   </g>
   <g>
      <line class="cls-3"
            x1="143.9594"
            y1="28.439"
            x2="143.9594"
            y2="59.5347"/>
      <line class="cls-2"
            x1="143.9594"
            y1="59.5347"
            x2="143.9594"
            y2="28.439"/>
      <circle class="cls-8" cx="143.9594" cy="59.5347" r="9.5"/>
      <text class="cls-7" transform="translate(139.5103 65.0667)">
         <tspan x="0" y="0">L</tspan>
      </text>
   </g>
   <g>
      <line class="cls-3"
            x1="222.099"
            y1="28.439"
            x2="222.099"
            y2="59.5347"/>
      <line class="cls-2"
            x1="222.099"
            y1="59.5347"
            x2="222.099"
            y2="28.439"/>
      <circle class="cls-8" cx="222.099" cy="59.5347" r="9.5"/>
      <text class="cls-7" transform="translate(216.3218 65.0667)">
         <tspan x="0" y="0">N</tspan>
      </text>
   </g>
   <g>
      <line class="cls-3"
            x1="183.047"
            y1="28.439"
            x2="183.047"
            y2="59.5347"/>
      <line class="cls-2"
            x1="183.047"
            y1="59.5347"
            x2="183.047"
            y2="28.439"/>
      <circle class="cls-8" cx="183.047" cy="59.5347" r="9.5"/>
      <text class="cls-7" transform="translate(176.3831 65.0667)">
         <tspan x="0" y="0">M</tspan>
      </text>
   </g>
   <g>
      <line class="cls-3"
            x1="265.9852"
            y1="28.439"
            x2="265.9852"
            y2="59.5347"/>
      <line class="cls-2"
            x1="265.9852"
            y1="59.5347"
            x2="265.9852"
            y2="28.439"/>
      <circle class="cls-8" cx="265.9852" cy="59.5347" r="9.5"/>
      <text class="cls-7" transform="translate(259.7627 65.0667)">
         <tspan x="0" y="0">O</tspan>
      </text>
   </g>
   <polyline class="cls-5"
             points="106.4146 20.3902 106.4146 28.439 3.2806 28.439 3.2806 20.3902"/>
   <polyline class="cls-5"
             points="159.0392 20.3902 159.0392 28.439 128.8795 28.439 128.8795 20.3902"/>
   <polyline class="cls-5"
             points="199.0548 20.3902 199.0548 28.439 167.0392 28.439 167.0392 20.3902"/>
   <polyline class="cls-1"
             points="238.3659 20.3902 238.3659 28.439 205.8321 28.439 205.8321 20.3902"/>
   <polyline class="cls-4"
             points="285.7805 20.3902 285.7805 28.439 246.1898 28.439 246.1898 20.3902"/>
   <g>
      <line class="cls-3"
            x1="299.8266"
            y1="28.439"
            x2="299.8266"
            y2="59.5347"/>
      <line class="cls-2"
            x1="299.8266"
            y1="59.5347"
            x2="299.8266"
            y2="28.439"/>
      <circle class="cls-8" cx="299.8266" cy="59.5347" r="9.5"/>
      <text class="cls-7" transform="translate(294.4909 65.0667)">
         <tspan x="0" y="0">P</tspan>
      </text>
   </g>
   <polyline class="cls-4"
             points="307 20.3902 307 28.439 292.6532 28.439 292.6532 20.3902"/>
   <polyline class="cls-4"
             points="125.7317 20.3902 125.7317 28.439 114.9024 28.439 114.9024 20.3902"/>
</svg>
