<?xml version="1.0" encoding="UTF-8"?>
<svg xmlns="http://www.w3.org/2000/svg"
     width="570"
     height="139.2723"
     viewBox="0 0 570 139.2723">
   <defs>
      <style>
      .uuid-bde223d1-5f4d-4936-a9d7-dbf86c17c4f4 {
        fill: none;
        stroke: #000;
      }

      .uuid-bde223d1-5f4d-4936-a9d7-dbf86c17c4f4, .uuid-eec25e82-39a5-48fc-bba0-f9e6e47f29d3 {
        stroke-miterlimit: 10;
        stroke-width: 1.3533px;
      }

      .uuid-eec25e82-39a5-48fc-bba0-f9e6e47f29d3 {
        fill: #fff;
        stroke: #231f20;
      }

      .uuid-209c4e78-9afc-497f-9481-66ed76b2287d {
        font-family: Arial-BoldMT, Arial;
        font-size: 18px;
        font-weight: 700;
      }

      .uuid-209c4e78-9afc-497f-9481-66ed76b2287d, .uuid-995ec42e-281a-481f-a55f-c85320e23dc6 {
        fill: #231f20;
      }

      .uuid-995ec42e-281a-481f-a55f-c85320e23dc6 {
        font-family: ArialMT, Arial;
        font-size: 16.2391px;
      }

      .uuid-b4400f22-5004-4aba-bec4-6c5254e18b9d {
        letter-spacing: -.0371em;
      }
    </style>
   </defs>
   <g id="uuid-169e4398-3a44-44f4-89f8-2ce28c5a88f9" data-name="Layer 1">
      <text class="uuid-995ec42e-281a-481f-a55f-c85320e23dc6"
            transform="translate(301.6009 44.5648)">
         <tspan x="0" y="0">X1xx:1</tspan>
      </text>
      <text class="uuid-995ec42e-281a-481f-a55f-c85320e23dc6"
            transform="translate(396.0977 44.5645)">
         <tspan x="0" y="0">NC</tspan>
      </text>
      <text class="uuid-995ec42e-281a-481f-a55f-c85320e23dc6"
            transform="translate(395.6461 97.063)">
         <tspan x="0" y="0">NO</tspan>
      </text>
      <text class="uuid-995ec42e-281a-481f-a55f-c85320e23dc6"
            transform="translate(301.6009 78.3968)">
         <tspan x="0" y="0">X1xx:2</tspan>
      </text>
      <text class="uuid-995ec42e-281a-481f-a55f-c85320e23dc6"
            transform="translate(301.6009 112.2284)">
         <tspan x="0" y="0">X1xx:3</tspan>
      </text>
      <text class="uuid-995ec42e-281a-481f-a55f-c85320e23dc6"
            transform="translate(14.7743 44.5649)">
         <tspan x="0" y="0">xx1</tspan>
      </text>
      <text class="uuid-209c4e78-9afc-497f-9481-66ed76b2287d"
            transform="translate(71.0382 18.3517)">
         <tspan x="0" y="0">A077 &amp;</tspan>
         <tspan class="uuid-b4400f22-5004-4aba-bec4-6c5254e18b9d" x="61.0312" y="0"/>
         <tspan x="65.3643" y="0">A078</tspan>
      </text>
      <text class="uuid-209c4e78-9afc-497f-9481-66ed76b2287d"
            transform="translate(409.9918 18.3517)">
         <tspan x="0" y="0">A025</tspan>
      </text>
      <text class="uuid-995ec42e-281a-481f-a55f-c85320e23dc6"
            transform="translate(93.2508 78.3969)">
         <tspan x="0" y="0">NC</tspan>
      </text>
      <text class="uuid-995ec42e-281a-481f-a55f-c85320e23dc6"
            transform="translate(92.7991 131.832)">
         <tspan x="0" y="0">NO</tspan>
      </text>
      <text class="uuid-995ec42e-281a-481f-a55f-c85320e23dc6"
            transform="translate(14.7743 78.3969)">
         <tspan x="0" y="0">xx2</tspan>
      </text>
      <text class="uuid-995ec42e-281a-481f-a55f-c85320e23dc6"
            transform="translate(14.7743 112.2285)">
         <tspan x="0" y="0">xx4</tspan>
      </text>
   </g>
   <g id="uuid-0e23a4e0-63f4-4705-a884-af4fbe00884a" data-name="Layer 2">
      <rect class="uuid-eec25e82-39a5-48fc-bba0-f9e6e47f29d3"
            x="364.9632"
            y="106.8152"
            width="19.18"
            height="19.18"
            transform="translate(258.148 490.9584) rotate(-90)"/>
      <rect class="uuid-eec25e82-39a5-48fc-bba0-f9e6e47f29d3"
            x="364.9632"
            y="72.9837"
            width="19.18"
            height="19.18"
            transform="translate(291.9795 457.1269) rotate(-90)"/>
      <rect class="uuid-eec25e82-39a5-48fc-bba0-f9e6e47f29d3"
            x="364.9632"
            y="39.1522"
            width="19.18"
            height="19.18"
            transform="translate(325.811 423.2955) rotate(-90)"/>
      <rect class="uuid-bde223d1-5f4d-4936-a9d7-dbf86c17c4f4"
            x="355.1199"
            y="28.5094"
            width="150.7341"
            height="108.1287"
            transform="translate(860.9739 165.1474) rotate(-180)"/>
      <g>
         <polyline class="uuid-bde223d1-5f4d-4936-a9d7-dbf86c17c4f4"
                   points="384.1432 116.4054 472.0225 116.4054 471.94 65.658 448.3405 65.658 427.7449 80.3953"/>
         <polyline class="uuid-bde223d1-5f4d-4936-a9d7-dbf86c17c4f4"
                   points="384.1432 82.5737 431.5073 82.5737 431.5073 74.1569"/>
         <polyline class="uuid-bde223d1-5f4d-4936-a9d7-dbf86c17c4f4"
                   points="384.1432 48.7423 431.5073 48.7423 431.5073 48.742 431.5073 57.1586"/>
      </g>
      <line class="uuid-bde223d1-5f4d-4936-a9d7-dbf86c17c4f4"
            x1="472.0225"
            y1="82.5737"
            x2="565.8538"
            y2="82.5737"/>
      <g>
         <line class="uuid-bde223d1-5f4d-4936-a9d7-dbf86c17c4f4"
               x1="565.8538"
               y1="82.5736"
               x2="537.2944"
               y2="82.5736"/>
         <polygon points="538.7752 77.5128 530.0109 82.5736 538.7752 87.6345 538.7752 77.5128"/>
      </g>
      <g>
         <rect class="uuid-eec25e82-39a5-48fc-bba0-f9e6e47f29d3"
               x="62.1162"
               y="106.8153"
               width="19.18"
               height="19.18"
               transform="translate(-44.699 188.1115) rotate(-90)"/>
         <rect class="uuid-eec25e82-39a5-48fc-bba0-f9e6e47f29d3"
               x="62.1162"
               y="72.9838"
               width="19.18"
               height="19.18"
               transform="translate(-10.8675 154.2801) rotate(-90)"/>
         <rect class="uuid-eec25e82-39a5-48fc-bba0-f9e6e47f29d3"
               x="62.1162"
               y="39.1523"
               width="19.18"
               height="19.18"
               transform="translate(22.9639 120.4486) rotate(-90)"/>
         <rect class="uuid-bde223d1-5f4d-4936-a9d7-dbf86c17c4f4"
               x="52.273"
               y="28.5095"
               width="150.7341"
               height="108.1287"
               transform="translate(255.28 165.1476) rotate(-180)"/>
         <polyline class="uuid-bde223d1-5f4d-4936-a9d7-dbf86c17c4f4"
                   points="81.2963 48.7421 169.1756 48.7421 169.0931 99.4895 145.4935 99.4895 124.8979 84.7522"/>
         <polyline class="uuid-bde223d1-5f4d-4936-a9d7-dbf86c17c4f4"
                   points="81.2963 82.5738 128.6603 82.5738 128.6603 90.9907"/>
         <polyline class="uuid-bde223d1-5f4d-4936-a9d7-dbf86c17c4f4"
                   points="81.2963 116.4053 128.6603 116.4053 128.6603 116.4055 128.6603 107.9889"/>
         <line class="uuid-bde223d1-5f4d-4936-a9d7-dbf86c17c4f4"
               x1="169.1756"
               y1="82.5738"
               x2="263.0068"
               y2="82.5738"/>
         <g>
            <line class="uuid-bde223d1-5f4d-4936-a9d7-dbf86c17c4f4"
                  x1="263.0068"
                  y1="82.5737"
                  x2="234.4474"
                  y2="82.5737"/>
            <polygon points="235.9282 77.5129 227.164 82.5737 235.9282 87.6346 235.9282 77.5129"/>
         </g>
      </g>
   </g>
</svg>
