<?xml version="1.0" encoding="UTF-8"?>
<svg xmlns="http://www.w3.org/2000/svg"
     id="Layer_1"
     data-name="Layer 1"
     width="187.5129mm"
     height="38.8091mm"
     viewBox="0 0 531.5326 110.01">
   <defs>
      <style>
      .cls-1, .cls-3, .cls-4 {
        fill: none;
        stroke: #010101;
        stroke-linecap: round;
        stroke-miterlimit: 10;
      }

      .cls-1 {
        stroke-width: 0.0953px;
      }

      .cls-2 {
        font-size: 9.5986px;
        fill: #010101;
      }

      .cls-2, .cls-5 {
        font-family: ArialMT, Arial;
      }

      .cls-3 {
        stroke-width: 0.1907px;
      }

      .cls-4 {
        stroke-width: 0.2479px;
      }

      .cls-5 {
        font-size: 8px;
        fill: #231f20;
      }
    </style>
   </defs>
   <title>Analog_Instruments</title>
   <line class="cls-1" x1="5" y1="95.0445" x2="96.517" y2="95.0445"/>
   <line class="cls-1"
         x1="96.517"
         y1="95.0445"
         x2="96.517"
         y2="101.7175"/>
   <line class="cls-1"
         x1="9.766"
         y1="106.4835"
         x2="91.75"
         y2="106.4835"/>
   <line class="cls-1" x1="5" y1="95.0445" x2="5" y2="101.7175"/>
   <path class="cls-1" d="M5,101.7175a4.7662,4.7662,0,0,0,4.766,4.766"/>
   <path class="cls-1" d="M91.75,106.4835a4.7665,4.7665,0,0,0,4.767-4.766v-.015"/>
   <line class="cls-1"
         x1="116.517"
         y1="95.0435"
         x2="208.034"
         y2="95.0435"/>
   <line class="cls-1"
         x1="208.034"
         y1="95.0435"
         x2="208.034"
         y2="101.7165"/>
   <line class="cls-1"
         x1="121.283"
         y1="106.4835"
         x2="203.267"
         y2="106.4835"/>
   <line class="cls-1"
         x1="116.517"
         y1="95.0435"
         x2="116.517"
         y2="101.7165"/>
   <path class="cls-1" d="M116.517,101.7165a4.7665,4.7665,0,0,0,4.766,4.767"/>
   <path class="cls-1"
         d="M203.267,106.4835a4.7667,4.7667,0,0,0,4.767-4.767v-.015"/>
   <text class="cls-2" transform="translate(126.0501 16.3845)">V</text>
   <line class="cls-3"
         x1="120.33"
         y1="7.3395"
         x2="204.22"
         y2="7.3395"/>
   <line class="cls-4"
         x1="116.517"
         y1="3.5265"
         x2="208.034"
         y2="3.5265"/>
   <line class="cls-3"
         x1="120.33"
         y1="7.3395"
         x2="120.33"
         y2="91.2305"/>
   <line class="cls-3"
         x1="204.22"
         y1="7.3395"
         x2="204.22"
         y2="91.2305"/>
   <path class="cls-3" d="M193.734,17.1015a66.0262,66.0262,0,0,0-66.026,66.026"/>
   <line class="cls-3"
         x1="193.734"
         y1="14.1395"
         x2="193.734"
         y2="83.1275"/>
   <line class="cls-4"
         x1="208.034"
         y1="3.5265"
         x2="208.034"
         y2="95.0435"/>
   <line class="cls-4"
         x1="116.517"
         y1="3.5265"
         x2="116.517"
         y2="95.0435"/>
   <line class="cls-3"
         x1="120.33"
         y1="91.2305"
         x2="204.22"
         y2="91.2305"/>
   <line class="cls-3"
         x1="124.746"
         y1="83.1275"
         x2="193.734"
         y2="83.1275"/>
   <line class="cls-4"
         x1="116.517"
         y1="95.0435"
         x2="208.034"
         y2="95.0435"/>
   <text class="cls-2" transform="translate(14.533 16.3846)">A</text>
   <line class="cls-3"
         x1="8.813"
         y1="7.3405"
         x2="92.703"
         y2="7.3405"/>
   <line class="cls-4" x1="5" y1="3.5275" x2="96.517" y2="3.5275"/>
   <line class="cls-3"
         x1="8.813"
         y1="7.3405"
         x2="8.813"
         y2="91.2315"/>
   <line class="cls-3"
         x1="92.703"
         y1="7.3405"
         x2="92.703"
         y2="91.2315"/>
   <path class="cls-3" d="M82.217,17.1015a66.0264,66.0264,0,0,0-66.026,66.027"/>
   <line class="cls-3"
         x1="82.217"
         y1="14.1405"
         x2="82.217"
         y2="83.1285"/>
   <line class="cls-4"
         x1="96.517"
         y1="3.5275"
         x2="96.517"
         y2="95.0445"/>
   <line class="cls-4" x1="5" y1="3.5275" x2="5" y2="95.0445"/>
   <line class="cls-3"
         x1="8.813"
         y1="91.2315"
         x2="92.703"
         y2="91.2315"/>
   <line class="cls-3"
         x1="13.229"
         y1="83.1285"
         x2="82.217"
         y2="83.1285"/>
   <line class="cls-4" x1="5" y1="95.0445" x2="96.517" y2="95.0445"/>
   <line class="cls-3"
         x1="33.4358"
         y1="34.3463"
         x2="82.217"
         y2="83.1275"/>
   <line class="cls-3"
         x1="144.9528"
         y1="34.3463"
         x2="193.734"
         y2="83.1275"/>
   <text class="cls-5" transform="translate(27.4634 33.3634)">0</text>
</svg>
