<?xml version="1.0" encoding="UTF-8"?>
<svg xmlns="http://www.w3.org/2000/svg"
     xmlns:xlink="http://www.w3.org/1999/xlink"
     width="88.8151mm"
     height="21.0529mm"
     viewBox="0 0 251.7593 59.6775">
   <defs>
      <clipPath id="a">
         <rect x="65.1133"
               y="19.0921"
               width="122.5366"
               height="50.7317"
               fill="none"/>
      </clipPath>
   </defs>
   <title>Bottom_Fastening</title>
   <g>
      <path d="M80.9406,34.222l6.002.3461.7882-1.7473.8638-.6934,1.8066.1057s2.373.5954,1.5243,10.9163-1.5847,11.7878-2.5338,12.39a2.7968,2.7968,0,0,1-2.2168.1242L86.21,54.2266l-.4023-1.1736-7.157-.4114s-2.0862-2.2254-1.2689-9.735,1.7024-7.473,1.7024-7.473Z"
            fill="#01889C"/>
      <path d="M121.2515,35.3257l2.0832.1068s2.1781.2439,1.393,9.1469-1.4185,10.1883-1.4185,10.1883l-.54,1.0753-.6468.5154-1.9131-.1109-.86-.8582-.6485-3.4435.054-7.1965.6407-4.9049.8547-3.428Z"
            fill="#01889C"/>
      <path d="M132.8292,41.3586l30.4113,1.6154.9388-2.2,1.1941-2.1917,5.294.3059a15.7361,15.7361,0,0,1,1.5479,5.0516c.41,3.006-.6142,9.8857-.6142,9.8857a11.6653,11.6653,0,0,1-1.359,3.2716,13.9662,13.9662,0,0,1-1.1856,1.2165l-5.294-.306-.2842-1.6492-.6089-.876-.2439-2.0488-30.1473-1.73-.9-.927a19.8277,19.8277,0,0,1-.2933-5.3059,26.0106,26.0106,0,0,1,.939-3.9635l.3825-.2993Z"
            fill="#01889C"/>
   </g>
   <g clip-path="url(#a)">
      <g>
         <g>
            <path d="M132.6064,41.2078c-.5557-.0427-1.1722,2.1284-1.3724,4.8463a11.5192,11.5192,0,0,0,.3442,4.7224"
                  fill="none"
                  stroke="#000"
                  stroke-linecap="round"
                  stroke-width="0.35"/>
            <path d="M132.8292,41.3586a.3258.3258,0,0,0-.2228-.1508"
                  fill="none"
                  stroke="#000"
                  stroke-linecap="round"
                  stroke-width="0.35"/>
         </g>
         <line x1="167.963"
               y1="52.2142"
               x2="162.6691"
               y2="51.9105"
               fill="none"
               stroke="gray"
               stroke-linecap="round"
               stroke-width="0.2"/>
         <line x1="132.8292"
               y1="41.3586"
               x2="132.7279"
               y2="41.4891"
               fill="none"
               stroke="gray"
               stroke-linecap="round"
               stroke-width="0.2"/>
         <path d="M170.6674,38.8882c.27,1.6627-.657,2.6369-1.8967,3.6111l-5.2984-.3015"
               fill="none"
               stroke="gray"
               stroke-linecap="round"
               stroke-width="0.2"/>
         <path d="M168.7707,42.4993a18.5946,18.5946,0,0,1-.8077,9.7149"
               fill="none"
               stroke="gray"
               stroke-linecap="round"
               stroke-width="0.2"/>
         <path d="M169.0565,58.3136a7.715,7.715,0,0,0-1.0935-6.0994"
               fill="none"
               stroke="gray"
               stroke-linecap="round"
               stroke-width="0.2"/>
         <path d="M132.6267,41.6691l-.1935.5017"
               fill="none"
               stroke="gray"
               stroke-linecap="round"
               stroke-width="0.2"/>
         <path d="M131.9517,44.5489l-.108.9877"
               fill="none"
               stroke="gray"
               stroke-linecap="round"
               stroke-width="0.2"/>
         <path d="M132.125,51.3367l.1687.2813"
               fill="none"
               stroke="gray"
               stroke-linecap="round"
               stroke-width="0.2"/>
         <path d="M131.783,49.4491l-.04-.8932"
               fill="none"
               stroke="gray"
               stroke-linecap="round"
               stroke-width="0.2"/>
         <path d="M162.6421,53.4336l-4.4952-.2565L136.9712,51.96l-4.493-.2565-.9-.927"
               fill="none"
               stroke="#000"
               stroke-linecap="round"
               stroke-width="0.35"/>
         <path d="M164.7457,39.7792c-1.2149.2137-1.4736,2.9608-1.6379,3.89a38.5362,38.5362,0,0,0-.4927,9.4472c.081,1.1384.1035,2.7.9134,3.5908"
               fill="none"
               stroke="#000"
               stroke-linecap="round"
               stroke-width="0.35"/>
         <path d="M163.7625,58.0076l5.294.306c2.3353-1.8359,2.6391-4.5065,2.945-7.3391.4388-4.0452.7627-8.4572-1.3341-12.0863"
               fill="none"
               stroke="#000"
               stroke-linecap="round"
               stroke-width="0.35"/>
         <path d="M163.7625,58.0076a36.4453,36.4453,0,0,1-.72-10.5811l.0585-.7447c.4837-5.8429-.324-3.1588,2.2723-8.1"
               fill="none"
               stroke="#000"
               stroke-linecap="round"
               stroke-width="0.35"/>
         <line x1="132.8292"
               y1="41.3586"
               x2="163.2405"
               y2="42.974"
               fill="none"
               stroke="#000"
               stroke-linecap="round"
               stroke-width="0.35"/>
         <line x1="165.3734"
               y1="38.5823"
               x2="170.6674"
               y2="38.8882"
               fill="none"
               stroke="#000"
               stroke-linecap="round"
               stroke-width="0.35"/>
      </g>
      <g>
         <path d="M123.0467,40.4024a3.6952,3.6952,0,0,1,.7065,2.5041,25.1365,25.1365,0,0,1-.3532,6.1061c-.1485.8032-.2812,1.8832-.99,2.3781"
               fill="none"
               stroke="gray"
               stroke-linecap="round"
               stroke-width="0.2"/>
         <path d="M123.3347,35.4325c-1.4016.6232-1.6424,3.2218-1.8831,4.5289a46.2836,46.2836,0,0,0-.6075,12.46c.1125,1.2036.1328,3.2218,1.278,3.9372"
               fill="none"
               stroke="gray"
               stroke-linecap="round"
               stroke-width="0.2"/>
         <path d="M124.7589,42.9987c-.0135-1.8269.4365-6.4053-1.4242-7.5662l-2.0563-.1193c-1.4017.6232-1.64,3.2218-1.8832,4.5312a46.2538,46.2538,0,0,0-.6074,12.4575c.1125,1.2037.1327,3.2218,1.2779,3.9373l2.0564.1192c1.0439-.4612,1.2981-1.9551,1.5479-2.9608A45.64,45.64,0,0,0,124.7589,42.9987Z"
               fill="none"
               stroke="#000"
               stroke-linecap="round"
               stroke-width="0.35"/>
         <path d="M123.0467,40.4024c-.8054.56-.9246,1.93-1.0664,2.8371-.342,2.1711-1.0889,6.2906.43,8.1512"
               fill="none"
               stroke="#000"
               stroke-linecap="round"
               stroke-width="0.35"/>
      </g>
      <g>
         <line x1="85.4876"
               y1="45.5253"
               x2="77.901"
               y2="45.0889"
               fill="none"
               stroke="gray"
               stroke-linecap="round"
               stroke-width="0.2"/>
         <line x1="86.626"
               y1="36.3392"
               x2="86.6305"
               y2="36.3166"
               fill="none"
               stroke="gray"
               stroke-linecap="round"
               stroke-width="0.2"/>
         <line x1="79.0462"
               y1="35.8824"
               x2="86.6305"
               y2="36.3166"
               fill="none"
               stroke="gray"
               stroke-linecap="round"
               stroke-width="0.2"/>
         <path d="M89.6385,37.4348c.6953.49.7177,1.7549.79,2.5266a28.91,28.91,0,0,1-.4,7.7913c-.1463.774-.3173,2.4344-1.179,2.7606"
               fill="none"
               stroke="gray"
               stroke-linecap="round"
               stroke-width="0.2"/>
         <path d="M89.3168,37.6148c1.2329,2.5176.6817,6.3289.3105,8.9882a8.79,8.79,0,0,1-1.0394,3.7011"
               fill="none"
               stroke="gray"
               stroke-linecap="round"
               stroke-width="0.2"/>
         <path d="M88.9343,39.4935a3.1964,3.1964,0,0,1,.5625,2.0743c.108,1.7662.369,5.53-1.1024,6.8171"
               fill="none"
               stroke="gray"
               stroke-linecap="round"
               stroke-width="0.2"/>
         <path d="M90.4012,32.2331c-1.5771.594-1.8583,3.5571-2.1216,4.9677a51.95,51.95,0,0,0-.7177,14.0212c.1238,1.4062.144,3.6515,1.4219,4.547"
               fill="none"
               stroke="gray"
               stroke-linecap="round"
               stroke-width="0.2"/>
         <path d="M85.6023,46.7223a6.7837,6.7837,0,0,1,.099-2.9473"
               fill="none"
               stroke="gray"
               stroke-linecap="round"
               stroke-width="0.2"/>
         <path d="M77.7458,40.1122c.2947-1.53,1.3611-3.3523,1.26-4.8462"
               fill="none"
               stroke="gray"
               stroke-linecap="round"
               stroke-width="0.2"/>
         <path d="M77.532,49.0936a15.49,15.49,0,0,0,1.1182,3.548"
               fill="none"
               stroke="gray"
               stroke-linecap="round"
               stroke-width="0.2"/>
         <path d="M77.66,40.7714c-.081,1.4646.2745,2.8843.2407,4.3175-.0225,1.1474-.441,2.2656-.423,3.4625"
               fill="none"
               stroke="gray"
               stroke-linecap="round"
               stroke-width="0.2"/>
         <path d="M78.65,52.6416l-.6165-1.2711c-1.3454-3.656-.7559-8.437-.1529-12.1808.3824-2.3826.6434-4.1622,3.06-4.9677l6.1263.3533"
               fill="none"
               stroke="#000"
               stroke-linecap="round"
               stroke-width="0.35"/>
         <path d="M91.9739,39.7859A54.9224,54.9224,0,0,1,90.9232,51.71c-.2722,1.2487-.567,3.5391-1.9394,4.0588l-1.8089-.1058c-1.2734-.8909-1.2936-3.1408-1.42-4.5424a52.081,52.081,0,0,1,.7177-14.0257c.2655-1.4062.5467-4.3737,2.1216-4.9677l1.8066.1057C92.2776,33.5448,91.9176,37.82,91.9739,39.7859Z"
               fill="none"
               stroke="#000"
               stroke-linecap="round"
               stroke-width="0.35"/>
         <path d="M88.8488,50.5133c-.6974-.4882-.7222-1.7549-.79-2.5266a28.905,28.905,0,0,1,.4-7.7913c.1418-.7762.315-2.4366,1.1789-2.7606"
               fill="none"
               stroke="#000"
               stroke-linecap="round"
               stroke-width="0.35"/>
         <path d="M88.4934,40.0132c.1664-.36.0405-.1688.4409-.52"
               fill="none"
               stroke="#000"
               stroke-linecap="round"
               stroke-width="0.35"/>
         <path d="M88.0456,47.8269c.16.4343.0405.25.3488.558"
               fill="none"
               stroke="#000"
               stroke-linecap="round"
               stroke-width="0.35"/>
         <line x1="86.0095"
               y1="53.0646"
               x2="78.6502"
               y2="52.6416"
               fill="none"
               stroke="#000"
               stroke-linecap="round"
               stroke-width="0.35"/>
      </g>
   </g>
   <g>
      <g>
         <line x1="153.7031"
               y1="46.479"
               x2="135.1864"
               y2="10.8638"
               fill="none"
               stroke="#fff"
               stroke-linecap="round"/>
         <line x1="135.1864"
               y1="10.8638"
               x2="153.7031"
               y2="46.479"
               fill="none"
               stroke="#000"
               stroke-linecap="round"
               stroke-width="0.5"/>
         <circle cx="135.1864"
                 cy="10.8638"
                 r="9.5"
                 stroke="#000"
                 stroke-linecap="round"
                 stroke-width="0.106"/>
         <text transform="translate(129.8504 16.3959)"
               font-size="16"
               fill="#fff"
               font-family="ArialMT, Arial"
               style="isolation: isolate">K</text>
      </g>
      <g>
         <line x1="120.0158"
               y1="39.458"
               x2="105.1864"
               y2="10.8638"
               fill="none"
               stroke="#fff"
               stroke-linecap="round"/>
         <line x1="105.1864"
               y1="10.8638"
               x2="120.0158"
               y2="39.458"
               fill="none"
               stroke="#000"
               stroke-linecap="round"
               stroke-width="0.5"/>
         <circle cx="105.1864"
                 cy="10.8638"
                 r="9.5"
                 stroke="#000"
                 stroke-linecap="round"
                 stroke-width="0.106"/>
         <text transform="translate(101.1864 16.3959)"
               font-size="16"
               fill="#fff"
               font-family="ArialMT, Arial"
               style="isolation: isolate">J</text>
      </g>
      <g>
         <line x1="86.9426"
               y1="35.4336"
               x2="74.1864"
               y2="10.8638"
               fill="none"
               stroke="#fff"
               stroke-linecap="round"/>
         <line x1="74.1864"
               y1="10.8638"
               x2="86.9426"
               y2="35.4336"
               fill="none"
               stroke="#000"
               stroke-linecap="round"
               stroke-width="0.5"/>
         <circle cx="74.1864"
                 cy="10.8638"
                 r="9.5"
                 stroke="#000"
                 stroke-linecap="round"
                 stroke-width="0.106"/>
         <text transform="translate(71.9637 16.3959)"
               font-size="16"
               fill="#fff"
               font-family="ArialMT, Arial"
               style="isolation: isolate">I</text>
      </g>
   </g>
</svg>
