<?xml version="1.0" encoding="UTF-8"?>
<svg xmlns="http://www.w3.org/2000/svg"
     width="180.0343mm"
     height="121.7178mm"
     viewBox="0 0 510.3333 345.0268">
   <defs>
      <style>
      .cls-1 {
        font-size: 5.3481px;
      }

      .cls-1, .cls-2, .cls-3, .cls-4, .cls-5, .cls-6, .cls-7, .cls-8, .cls-9, .cls-10, .cls-11, .cls-12, .cls-13, .cls-14, .cls-15, .cls-16, .cls-17, .cls-18, .cls-19, .cls-20, .cls-21, .cls-22, .cls-23, .cls-24, .cls-25, .cls-26, .cls-27, .cls-28, .cls-29, .cls-30, .cls-31, .cls-32, .cls-33, .cls-34, .cls-35, .cls-36, .cls-37, .cls-38, .cls-39 {
        font-family: ArialMT, Arial;
      }

      .cls-2 {
        font-size: 4.4847px;
      }

      .cls-3 {
        font-size: 5.3148px;
      }

      .cls-4 {
        font-size: 5.0098px;
      }

      .cls-5 {
        font-size: 4.7329px;
      }

      .cls-6 {
        font-size: 4.8717px;
      }

      .cls-7 {
        font-size: 2.7787px;
      }

      .cls-40 {
        stroke-width: .5011px;
      }

      .cls-40, .cls-41 {
        fill: none;
        stroke-linejoin: round;
      }

      .cls-40, .cls-41, .cls-42 {
        stroke: #000;
        stroke-linecap: round;
      }

      .cls-8 {
        font-size: 3.6103px;
      }

      .cls-9 {
        letter-spacing: -.0552em;
      }

      .cls-9, .cls-31 {
        fill: #fff;
        font-size: 13.1699px;
        isolation: isolate;
      }

      .cls-10 {
        font-size: 4.9587px;
      }

      .cls-11 {
        font-size: 5.0153px;
      }

      .cls-12 {
        font-size: 3.643px;
      }

      .cls-13 {
        font-size: 3.7673px;
      }

      .cls-14 {
        font-size: 4.7145px;
      }

      .cls-43 {
        fill: #01889C;
      }

      .cls-41 {
        stroke-width: 1.0021px;
      }

      .cls-15 {
        font-size: 5.0336px;
      }

      .cls-16 {
        font-size: 4.8009px;
      }

      .cls-17 {
        font-size: 3.3376px;
      }

      .cls-18 {
        font-size: 4.8039px;
      }

      .cls-19 {
        font-size: 5.0175px;
      }

      .cls-20 {
        font-size: 6.0163px;
      }

      .cls-21 {
        font-size: 3.3164px;
      }

      .cls-22 {
        font-size: 3.5816px;
      }

      .cls-23 {
        font-size: 16.1158px;
      }

      .cls-24 {
        font-size: 4.8689px;
      }

      .cls-25 {
        font-size: 3.8992px;
      }

      .cls-26 {
        font-size: 3.4429px;
      }

      .cls-27 {
        font-size: 4.6535px;
      }

      .cls-28 {
        font-size: 3.3239px;
      }

      .cls-29 {
        font-size: 4.8427px;
      }

      .cls-42 {
        stroke-width: .0873px;
      }

      .cls-30 {
        font-size: 4.9027px;
      }

      .cls-32 {
        font-size: 3.7363px;
      }

      .cls-33 {
        font-size: 5.0888px;
      }

      .cls-34 {
        font-size: 4.859px;
      }

      .cls-35 {
        font-size: 6.3619px;
      }

      .cls-36 {
        font-size: 3.4936px;
      }

      .cls-37 {
        font-size: 7.4305px;
      }

      .cls-38 {
        font-size: 2.9435px;
      }

      .cls-39 {
        font-size: 4.8741px;
      }
    </style>
   </defs>
   <g id="Layer_8" data-name="Layer 8">
      <path class="cls-40"
            d="M17.7699,11.3485c-3.3982,0-6.1526,2.7544-6.1526,6.1526"/>
      <path class="cls-40" d="M508.43,8.2722c0-3.3982-2.755-6.1526-6.1526-6.1526"/>
      <path class="cls-40" d="M8.541,2.1196c-3.3982,0-6.1526,2.7544-6.1526,6.1526"/>
      <path class="cls-40"
            d="M502.2774,343.5823c3.3976,0,6.1526-2.7544,6.1526-6.1519"/>
      <path class="cls-40"
            d="M2.3884,337.4304c0,3.3976,2.7544,6.1519,6.1526,6.1519"/>
      <path class="cls-40"
            d="M376.8901,204.7903c.5308,0,.9611-.4304,.9611-.9611,0-.5315-.4303-.9618-.9611-.9618"/>
      <path class="cls-40"
            d="M364.0974,203.1494c-.1803,.1803-.2814,.4244-.2814,.6798,0,.2547,.1011,.4995,.2814,.6798"/>
      <path class="cls-40"
            d="M367.3513,207.4915c.2122,.1889,.5155,.2361,.7749,.1197,.2594-.1164,.4257-.3738,.4257-.6578,0-.1956-.0791-.3831-.2202-.5188"/>
      <path class="cls-40"
            d="M368.3317,201.2231c.141-.1357,.2202-.3226,.2202-.5188,0-.284-.1663-.5414-.4257-.6578-.2594-.1157-.5627-.0692-.7749,.1197"/>
      <path class="cls-40"
            d="M42.3796,171.3128c0-.8494-.6891-1.5378-1.5385-1.5378s-1.5378,.6884-1.5378,1.5378,.6884,1.5385,1.5378,1.5385,1.5385-.6891,1.5385-1.5385Z"/>
      <path class="cls-40" d="M34.1119,40.5731c-.8494,0-1.5378,.6884-1.5378,1.5378"/>
      <path class="cls-40"
            d="M370.7681,169.8495c-3.3976,0-6.1526,2.755-6.1526,6.1526s2.755,6.1526,6.1526,6.1526,6.1526-2.7544,6.1526-6.1526c0-2.6519-1.6994-5.0059-4.2177-5.84"/>
      <path class="cls-40" d="M49.1089,42.1109c0-.8494-.6891-1.5378-1.5385-1.5378"/>
      <path class="cls-40"
            d="M455.5968,121.2067c-.2055,.3532-.2069,.7895-.0033,1.1441,.2035,.3545,.5807,.5727,.9897,.5727"/>
      <path class="cls-40"
            d="M469.835,122.9235c.6306,0,1.142-.5108,1.142-1.1414,0-.2022-.0539-.4004-.1556-.5753"/>
      <path class="cls-40"
            d="M464.2304,109.9099c-.1949-.3851-.59-.6285-1.0217-.6285-.4323,0-.8274,.2434-1.0217,.6285"/>
      <path class="cls-40"
            d="M456.5832,139.3818c-.4091,0-.7862,.2182-.9897,.5727-.2036,.3545-.2022,.7909,.0033,1.1441"/>
      <path class="cls-40"
            d="M470.8214,141.0986c.1018-.1749,.1556-.3731,.1556-.5753,0-.6306-.5115-1.1414-1.142-1.1414"/>
      <path class="cls-40"
            d="M462.1871,152.3954c.1943,.3851,.5894,.6285,1.0217,.6285,.4317,0,.8268-.2434,1.0217-.6285"/>
      <path class="cls-40"
            d="M30.8433,159.7772c-.8494,0-1.5378,.6884-1.5378,1.5378"/>
      <path class="cls-40" d="M52.3774,161.315c0-.8494-.6891-1.5378-1.5385-1.5378"/>
      <circle class="cls-40" cx="40.8411" cy="155.932" r="1.8458"/>
      <path class="cls-40"
            d="M42.3796,148.2409c0-.8494-.6891-1.5378-1.5385-1.5378s-1.5378,.6884-1.5378,1.5378,.6884,1.5385,1.5378,1.5385,1.5385-.6891,1.5385-1.5385Z"/>
      <path class="cls-40"
            d="M52.1466,148.2409c0-.8494-.6891-1.5378-1.5385-1.5378s-1.5378,.6884-1.5378,1.5378,.6884,1.5385,1.5378,1.5385,1.5385-.6891,1.5385-1.5385Z"/>
      <path class="cls-40"
            d="M38.1114,45.11c0-.8494-.6891-1.5378-1.5385-1.5378s-1.5378,.6884-1.5378,1.5378,.6884,1.5385,1.5378,1.5385,1.5385-.6891,1.5385-1.5385Z"/>
      <path class="cls-40"
            d="M38.1114,52.416c0-.8494-.6891-1.5378-1.5385-1.5378s-1.5378,.6884-1.5378,1.5378c0,.8501,.6884,1.5385,1.5378,1.5385s1.5385-.6884,1.5385-1.5385Z"/>
      <path class="cls-40" d="M32.574,54.4161c0,.8494,.6884,1.5378,1.5378,1.5378"/>
      <path class="cls-40" d="M47.5704,55.9539c.8494,0,1.5385-.6884,1.5385-1.5378"/>
      <path class="cls-40"
            d="M26.9981,121.3238c-.8494,0-1.5378,.6891-1.5378,1.5385"/>
      <path class="cls-40" d="M56.2227,122.8623c0-.8494-.6884-1.5385-1.5385-1.5385"/>
      <path class="cls-40"
            d="M54.6842,152.0868c.8501,0,1.5385-.6891,1.5385-1.5385v-.0133"/>
      <path class="cls-40"
            d="M25.4603,150.5483c0,.4104,.1636,.8042,.4556,1.0928,.2913,.2887,.6864,.449,1.0968,.445"/>
      <path class="cls-40"
            d="M35.4581,163.6224c-.8494,0-1.5385,.6884-1.5385,1.5378"/>
      <path class="cls-40" d="M47.7626,165.1602c0-.8494-.6884-1.5378-1.5378-1.5378"/>
      <path class="cls-40" d="M46.2248,179.0033c.8494,0,1.5378-.6884,1.5378-1.5378"/>
      <path class="cls-40" d="M33.9196,177.4654c0,.8494,.6891,1.5378,1.5385,1.5378"/>
      <path class="cls-40" d="M50.8389,182.8491c.8494,0,1.5385-.6891,1.5385-1.5385"/>
      <path class="cls-40" d="M29.3055,181.3106c0,.8494,.6884,1.5385,1.5378,1.5385"/>
      <path class="cls-40"
            d="M47.0895,138.0781c-.3811-.4742-1.0203-.6565-1.5937-.4543-.574,.2022-.9578,.7443-.9578,1.3529"/>
      <path class="cls-40"
            d="M48.4877,139.7982c.3592,.5128,1.009,.7343,1.6063,.5461,.5973-.1876,1.0037-.7416,1.0037-1.3675"/>
      <path class="cls-40"
            d="M475.5139,136.1519c0-1.2744-1.033-2.3074-2.3074-2.3074"/>
      <path class="cls-40"
            d="M473.2066,127.6919c1.2744,0,2.3074-1.033,2.3074-2.3074"/>
      <path class="cls-40"
            d="M450.9042,154.609c0,1.2744,1.033,2.3074,2.3074,2.3074"/>
      <path class="cls-40"
            d="M453.2116,163.069c-1.2744,0-2.3074,1.033-2.3074,2.3067"/>
      <path class="cls-40"
            d="M453.2116,133.8445c-1.2744,0-2.3074,1.033-2.3074,2.3074"/>
      <path class="cls-40"
            d="M450.9042,125.3845c0,1.2744,1.033,2.3074,2.3074,2.3074"/>
      <path class="cls-40"
            d="M475.5139,106.9274c0-1.2744-1.033-2.3074-2.3074-2.3074"/>
      <path class="cls-40"
            d="M453.2116,104.62c-1.2744,0-2.3074,1.033-2.3074,2.3074"/>
      <path class="cls-40"
            d="M12.8478,328.2015c0,2.7184,2.2036,4.9221,4.9221,4.9221"/>
      <path class="cls-40"
            d="M493.0485,333.1236c2.7185,0,4.9221-2.2036,4.9221-4.9221"/>
      <path class="cls-40"
            d="M233.1062,11.3485c-3.3975,0-6.1526,2.7544-6.1526,6.1526"/>
      <path class="cls-40"
            d="M341.5436,11.3485c-3.3976,0-6.1526,2.7544-6.1526,6.1526"/>
      <path class="cls-40"
            d="M18.9998,232.8382c-3.3976,0-6.1519,2.7544-6.1519,6.1519"/>
      <path class="cls-40"
            d="M499.2011,17.5011c0-3.3982-2.7544-6.1526-6.1526-6.1526"/>
      <path class="cls-40"
            d="M497.9706,238.9901c0-3.3976-2.7544-6.1519-6.1526-6.1519"/>
      <path class="cls-40"
            d="M226.9536,226.6856c0,3.3976,2.7551,6.1526,6.1526,6.1526"/>
      <path class="cls-40"
            d="M335.3917,226.6856c0,3.3976,2.7544,6.1526,6.1519,6.1526"/>
      <path class="cls-40"
            d="M11.6173,328.2015c0,3.3976,2.7544,6.1526,6.1519,6.1526"/>
      <path class="cls-40"
            d="M358.6172,213.0574c0,1.2744,1.033,2.3074,2.3067,2.3074"/>
      <path class="cls-40"
            d="M358.6172,183.8335c0,1.2738,1.033,2.3067,2.3067,2.3067"/>
      <path class="cls-40"
            d="M360.924,192.2929c-1.2738,0-2.3067,1.033-2.3067,2.3074"/>
      <path class="cls-40"
            d="M380.9196,215.3648c1.2744,0,2.3074-1.033,2.3074-2.3074"/>
      <path class="cls-40"
            d="M389.3796,213.0574c0,1.2744,1.033,2.3074,2.3067,2.3074"/>
      <path class="cls-40"
            d="M380.9196,186.1403c1.2744,0,2.3074-1.033,2.3074-2.3067"/>
      <path class="cls-40"
            d="M383.227,194.6003c0-1.2744-1.033-2.3074-2.3074-2.3074"/>
      <path class="cls-40"
            d="M389.3796,183.8335c0,1.2738,1.033,2.3067,2.3067,2.3067"/>
      <path class="cls-40"
            d="M391.6863,192.2929c-1.2737,0-2.3067,1.033-2.3067,2.3074"/>
      <path class="cls-40"
            d="M411.6819,215.3648c1.2744,0,2.3074-1.033,2.3074-2.3074"/>
      <path class="cls-40"
            d="M420.1419,213.0574c0,1.2744,1.033,2.3074,2.3067,2.3074"/>
      <path class="cls-40"
            d="M411.6819,186.1403c1.2744,0,2.3074-1.033,2.3074-2.3067"/>
      <path class="cls-40"
            d="M413.9893,194.6003c0-1.2744-1.033-2.3074-2.3074-2.3074"/>
      <path class="cls-40"
            d="M420.1419,183.8335c0,1.2738,1.033,2.3067,2.3067,2.3067"/>
      <path class="cls-40"
            d="M422.4486,192.2929c-1.2738,0-2.3067,1.033-2.3067,2.3074"/>
      <path class="cls-40"
            d="M442.4443,215.3648c1.2744,0,2.3074-1.033,2.3074-2.3074"/>
      <path class="cls-40"
            d="M442.4443,186.1403c1.2744,0,2.3074-1.033,2.3074-2.3067"/>
      <path class="cls-40"
            d="M444.7516,194.6003c0-1.2744-1.033-2.3074-2.3074-2.3074"/>
      <path class="cls-40"
            d="M358.6172,154.609c0,1.2744,1.033,2.3074,2.3067,2.3074"/>
      <path class="cls-40"
            d="M360.924,163.069c-1.2738,0-2.3067,1.033-2.3067,2.3067"/>
      <path class="cls-40"
            d="M360.924,133.8445c-1.2738,0-2.3067,1.033-2.3067,2.3074"/>
      <path class="cls-40"
            d="M358.6172,125.3845c0,1.2744,1.033,2.3074,2.3067,2.3074"/>
      <path class="cls-40"
            d="M380.9196,156.9164c1.2744,0,2.3074-1.033,2.3074-2.3074"/>
      <path class="cls-40"
            d="M383.227,165.3757c0-1.2738-1.033-2.3067-2.3074-2.3067"/>
      <path class="cls-40"
            d="M389.3796,154.609c0,1.2744,1.033,2.3074,2.3067,2.3074"/>
      <path class="cls-40"
            d="M391.6863,163.069c-1.2737,0-2.3067,1.033-2.3067,2.3067"/>
      <path class="cls-40"
            d="M383.227,136.1519c0-1.2744-1.033-2.3074-2.3074-2.3074"/>
      <path class="cls-40"
            d="M380.9196,127.6919c1.2744,0,2.3074-1.033,2.3074-2.3074"/>
      <path class="cls-40"
            d="M391.6863,133.8445c-1.2737,0-2.3067,1.033-2.3067,2.3074"/>
      <path class="cls-40"
            d="M389.3796,125.3845c0,1.2744,1.033,2.3074,2.3067,2.3074"/>
      <path class="cls-40" d="M360.924,104.62c-1.2738,0-2.3067,1.033-2.3067,2.3074"/>
      <path class="cls-40"
            d="M383.227,106.9274c0-1.2744-1.033-2.3074-2.3074-2.3074"/>
      <path class="cls-40"
            d="M391.6863,104.62c-1.2737,0-2.3067,1.033-2.3067,2.3074"/>
      <path class="cls-40"
            d="M411.6819,156.9164c1.2744,0,2.3074-1.033,2.3074-2.3074"/>
      <path class="cls-40"
            d="M413.9893,165.3757c0-1.2738-1.033-2.3067-2.3074-2.3067"/>
      <path class="cls-40"
            d="M420.1419,154.609c0,1.2744,1.033,2.3074,2.3067,2.3074"/>
      <path class="cls-40"
            d="M422.4486,163.069c-1.2738,0-2.3067,1.033-2.3067,2.3067"/>
      <path class="cls-40"
            d="M413.9893,136.1519c0-1.2744-1.033-2.3074-2.3074-2.3074"/>
      <path class="cls-40"
            d="M411.6819,127.6919c1.2744,0,2.3074-1.033,2.3074-2.3074"/>
      <path class="cls-40"
            d="M422.4486,133.8445c-1.2738,0-2.3067,1.033-2.3067,2.3074"/>
      <path class="cls-40"
            d="M420.1419,125.3845c0,1.2744,1.033,2.3074,2.3067,2.3074"/>
      <path class="cls-40"
            d="M442.4443,156.9164c1.2744,0,2.3074-1.033,2.3074-2.3074"/>
      <path class="cls-40"
            d="M444.7516,165.3757c0-1.2738-1.033-2.3067-2.3074-2.3067"/>
      <path class="cls-40"
            d="M444.7516,136.1519c0-1.2744-1.033-2.3074-2.3074-2.3074"/>
      <path class="cls-40"
            d="M442.4443,127.6919c1.2744,0,2.3074-1.033,2.3074-2.3074"/>
      <path class="cls-40"
            d="M413.9893,106.9274c0-1.2744-1.033-2.3074-2.3074-2.3074"/>
      <path class="cls-40"
            d="M422.4486,104.62c-1.2738,0-2.3067,1.033-2.3067,2.3074"/>
      <path class="cls-40"
            d="M444.7516,106.9274c0-1.2744-1.033-2.3074-2.3074-2.3074"/>
      <path class="cls-40"
            d="M473.2066,215.3648c1.2744,0,2.3074-1.033,2.3074-2.3074"/>
      <path class="cls-40"
            d="M475.5139,194.6003c0-1.2744-1.033-2.3074-2.3074-2.3074"/>
      <path class="cls-40"
            d="M473.2066,186.1403c1.2744,0,2.3074-1.033,2.3074-2.3067"/>
      <path class="cls-40"
            d="M450.9042,213.0574c0,1.2744,1.033,2.3074,2.3074,2.3074"/>
      <path class="cls-40"
            d="M450.9042,183.8335c0,1.2738,1.033,2.3067,2.3074,2.3067"/>
      <path class="cls-40"
            d="M453.2116,192.2929c-1.2744,0-2.3074,1.033-2.3074,2.3074"/>
      <path class="cls-40"
            d="M493.0485,232.8375c3.3982,0,6.1526-2.7544,6.1526-6.1519"/>
      <path class="cls-40"
            d="M493.0485,334.3541c3.3982,0,6.1526-2.755,6.1526-6.1526"/>
      <path class="cls-40"
            d="M312.504,109.8959c0-3.3982-2.7544-6.1526-6.1526-6.1526"/>
      <path class="cls-40"
            d="M290.9706,103.7433c-3.3982,0-6.1526,2.7544-6.1526,6.1526"/>
      <path class="cls-40"
            d="M306.3514,131.4294c3.3982,0,6.1526-2.7544,6.1526-6.152"/>
      <path class="cls-40" d="M284.818,125.2774c0,3.3976,2.7544,6.152,6.1526,6.152"/>
      <path class="cls-40"
            d="M475.5139,165.3757c0-1.2738-1.033-2.3067-2.3074-2.3067"/>
      <path class="cls-40"
            d="M473.2066,156.9164c1.2744,0,2.3074-1.033,2.3074-2.3074"/>
      <polyline points="101.8277 275.3051 101.8277 272.2288 109.5181 272.2288 109.5181 275.3051 101.8277 275.3051 101.8277 272.2288 109.5181 272.2288 109.5181 275.3051 101.8277 275.3051"/>
      <polyline points="101.8277 259.9243 101.8277 256.848 109.5181 256.848 109.5181 259.9243 101.8277 259.9243 101.8277 256.848 109.5181 256.848 109.5181 259.9243 101.8277 259.9243"/>
      <polyline points="179.8872 290.6866 179.8872 287.6103 187.5783 287.6103 187.5783 290.6866 179.8872 290.6866 179.8872 287.6103 187.5783 287.6103 187.5783 290.6866 179.8872 290.6866"/>
      <polyline points="179.8872 306.0674 179.8872 302.9918 187.5783 302.9918 187.5783 306.0674 179.8872 306.0674 179.8872 302.9918 187.5783 302.9918 187.5783 306.0674 179.8872 306.0674"/>
      <polyline points="101.8277 290.6866 101.8277 287.6103 109.5181 287.6103 109.5181 290.6866 101.8277 290.6866 101.8277 287.6103 109.5181 287.6103 109.5181 290.6866 101.8277 290.6866"/>
      <path class="cls-40"
            d="M361.8472,60.0146c0,3.3982,2.7544,6.1526,6.1526,6.1526"/>
      <polyline points="101.8277 306.0674 101.8277 302.9918 109.5181 302.9918 109.5181 306.0674 101.8277 306.0674 101.8277 302.9918 109.5181 302.9918 109.5181 306.0674 101.8277 306.0674"/>
      <polyline points="23.7682 275.3051 23.7682 272.2288 31.4586 272.2288 31.4586 275.3051 23.7682 275.3051 23.7682 272.2288 31.4586 272.2288 31.4586 275.3051 23.7682 275.3051"/>
      <polyline points="23.7682 259.9243 23.7682 256.848 31.4586 256.848 31.4586 259.9243 23.7682 259.9243 23.7682 256.848 31.4586 256.848 31.4586 259.9243 23.7682 259.9243"/>
      <polyline points="23.7682 290.6866 23.7682 287.6103 31.4586 287.6103 31.4586 290.6866 23.7682 290.6866 23.7682 287.6103 31.4586 287.6103 31.4586 290.6866 23.7682 290.6866"/>
      <polyline points="23.7682 306.0674 23.7682 302.9918 31.4586 302.9918 31.4586 306.0674 23.7682 306.0674 23.7682 302.9918 31.4586 302.9918 31.4586 306.0674 23.7682 306.0674"/>
      <polyline points="414.0665 259.9243 414.0665 256.848 421.7569 256.848 421.7569 259.9243 414.0665 259.9243 414.0665 256.848 421.7569 256.848 421.7569 259.9243 414.0665 259.9243"/>
      <polyline points="414.0665 275.3051 414.0665 272.2288 421.7569 272.2288 421.7569 275.3051 414.0665 275.3051 414.0665 272.2288 421.7569 272.2288 421.7569 275.3051 414.0665 275.3051"/>
      <polyline points="336.0063 259.9243 336.0063 256.848 343.6973 256.848 343.6973 259.9243 336.0063 259.9243 336.0063 256.848 343.6973 256.848 343.6973 259.9243 336.0063 259.9243"/>
      <polyline points="336.0063 275.3051 336.0063 272.2288 343.6973 272.2288 343.6973 275.3051 336.0063 275.3051 336.0063 272.2288 343.6973 272.2288 343.6973 275.3051 336.0063 275.3051"/>
      <polyline points="358.6172 86.1629 358.6172 90.7769 366.3077 90.7769 366.3077 86.1629 358.6172 86.1629 358.6172 90.7769 366.3077 90.7769 366.3077 86.1629 358.6172 86.1629"/>
      <polyline points="414.0665 290.6866 414.0665 287.6103 421.7569 287.6103 421.7569 290.6866 414.0665 290.6866 414.0665 287.6103 421.7569 287.6103 421.7569 290.6866 414.0665 290.6866"/>
      <polyline points="414.0665 306.0674 414.0665 302.9918 421.7569 302.9918 421.7569 306.0674 414.0665 306.0674 414.0665 302.9918 421.7569 302.9918 421.7569 306.0674 414.0665 306.0674"/>
      <polyline points="336.0063 290.6866 336.0063 287.6103 343.6973 287.6103 343.6973 290.6866 336.0063 290.6866 336.0063 287.6103 343.6973 287.6103 343.6973 290.6866 336.0063 290.6866"/>
      <polyline points="336.0063 306.0674 336.0063 302.9918 343.6973 302.9918 343.6973 306.0674 336.0063 306.0674 336.0063 302.9918 343.6973 302.9918 343.6973 306.0674 336.0063 306.0674"/>
      <polyline points="257.9467 259.9243 257.9467 256.848 265.6378 256.848 265.6378 259.9243 257.9467 259.9243 257.9467 256.848 265.6378 256.848 265.6378 259.9243 257.9467 259.9243"/>
      <polyline points="257.9467 275.3051 257.9467 272.2288 265.6378 272.2288 265.6378 275.3051 257.9467 275.3051 257.9467 272.2288 265.6378 272.2288 265.6378 275.3051 257.9467 275.3051"/>
      <path class="cls-40"
            d="M312.504,180.2185c0-3.3976-2.7544-6.1526-6.1526-6.1526"/>
      <path class="cls-40"
            d="M290.9706,174.0659c-3.3982,0-6.1526,2.755-6.1526,6.1526"/>
      <path class="cls-40"
            d="M306.3514,201.7526c3.3982,0,6.1526-2.755,6.1526-6.1526"/>
      <path class="cls-40" d="M284.818,195.6c0,3.3976,2.7544,6.1526,6.1526,6.1526"/>
      <path class="cls-41"
            d="M307.2534,151.6312c0-4.7458-3.8472-8.5924-8.5924-8.5924s-8.5923,3.8466-8.5923,8.5924,3.8472,8.5917,8.5923,8.5917,8.5924-3.8466,8.5924-8.5917Z"/>
      <path class="cls-41"
            d="M299.7226,196.3024c0,1.0509,.8521,1.9036,1.903,1.9036,1.0516,0,1.9036-.8527,1.9036-1.9036"/>
      <polyline points="257.9467 290.6866 257.9467 287.6103 265.6378 287.6103 265.6378 290.6866 257.9467 290.6866 257.9467 287.6103 265.6378 287.6103 265.6378 290.6866 257.9467 290.6866"/>
      <path class="cls-40"
            d="M472.5913,35.4049c0-3.3982-2.7544-6.1526-6.1519-6.1526"/>
      <path class="cls-40"
            d="M367.9998,29.2523c-3.3982,0-6.1526,2.7544-6.1526,6.1526"/>
      <polyline points="257.9467 306.0674 257.9467 302.9918 265.6378 302.9918 265.6378 306.0674 257.9467 306.0674 257.9467 302.9918 265.6378 302.9918 265.6378 306.0674 257.9467 306.0674"/>
      <path class="cls-40"
            d="M466.4394,66.1672c3.3976,0,6.1519-2.7544,6.1519-6.1526"/>
      <polyline points="179.8872 275.3051 179.8872 272.2288 187.5783 272.2288 187.5783 275.3051 179.8872 275.3051 179.8872 272.2288 187.5783 272.2288 187.5783 275.3051 179.8872 275.3051"/>
      <polyline points="179.8872 259.9243 179.8872 256.848 187.5783 256.848 187.5783 259.9243 179.8872 259.9243 179.8872 256.848 187.5783 256.848 187.5783 259.9243 179.8872 259.9243"/>
      <path class="cls-41"
            d="M294.8577,181.0752c-.7004,0-1.2684,.568-1.2684,1.2684,0,.7011,.568,1.2691,1.2684,1.2691"/>
      <path class="cls-41"
            d="M308.3934,183.6127c.701,0,1.2691-.568,1.2691-1.2691,0-.7004-.568-1.2684-1.2691-1.2684"/>
      <path class="cls-41"
            d="M291.4741,187.4579c-.7011,0-1.2691,.568-1.2691,1.2691s.568,1.2691,1.2691,1.2691"/>
      <path class="cls-41"
            d="M291.4741,192.5337c-.7011,0-1.2691,.5687-1.2691,1.2691,0,.7011,.568,1.2691,1.2691,1.2691"/>
      <path class="cls-41"
            d="M294.0123,192.5337c.7004,0,1.2685-.568,1.2685-1.2684,0-.7011-.568-1.2691-1.2685-1.2691"/>
      <path class="cls-41"
            d="M295.8301,179.4137c-1.0616-1.4859-2.9433-2.1424-4.6986-1.6396-1.7553,.5035-3.0038,2.0573-3.1169,3.8798-.1131,1.8225,.9339,3.5186,2.6133,4.235"/>
      <path class="cls-41"
            d="M294.0123,185.8888c.0798-.0339,.159-.0705,.2368-.1097"/>
      <path class="cls-40"
            d="M312.504,145.0569c0-3.3976-2.7544-6.1519-6.1526-6.1519"/>
      <path class="cls-41"
            d="M459.8405,195.6958c-3.2898,1.3622-5.4349,4.5722-5.4349,8.1334s2.1451,6.7705,5.4349,8.1334"/>
      <path class="cls-41"
            d="M466.5777,211.9626c3.2898-1.3629,5.4349-4.5729,5.4349-8.1334s-2.1451-6.7712-5.4349-8.1334"/>
      <path class="cls-41"
            d="M461.0171,198.5379c-2.1398,.886-3.5353,2.9745-3.5353,5.2912s1.3955,4.4046,3.5353,5.2912"/>
      <path class="cls-41"
            d="M465.4011,209.1204c2.1398-.8866,3.5353-2.9752,3.5353-5.2912s-1.3955-4.4053-3.5353-5.2912"/>
      <path class="cls-41"
            d="M462.2569,201.5298c-.9299,.3851-1.5365,1.2924-1.5365,2.2994,0,1.0064,.6066,1.9136,1.5365,2.2987"/>
      <path class="cls-41"
            d="M464.1612,206.1279c.9305-.3851,1.5365-1.2924,1.5365-2.2987,0-1.007-.606-1.9143-1.5365-2.2994"/>
      <path class="cls-40"
            d="M290.9706,138.9049c-3.3982,0-6.1526,2.7544-6.1526,6.1519"/>
      <path class="cls-40"
            d="M306.3514,166.591c3.3982,0,6.1526-2.7544,6.1526-6.1526"/>
      <path class="cls-40"
            d="M284.818,160.4384c0,3.3982,2.7544,6.1526,6.1526,6.1526"/>
      <text class="cls-29" transform="translate(345.236 276.074) scale(1 1.3311)">
         <tspan x="0" y="0">FAN FAILURE</tspan>
      </text>
      <text class="cls-25" transform="translate(360.9264 169.2185) scale(1 1.3793)">
         <tspan x="0" y="0">1</tspan>
      </text>
      <text class="cls-25" transform="translate(391.6882 169.2185) scale(1 1.3793)">
         <tspan x="0" y="0">2</tspan>
      </text>
      <text class="cls-25" transform="translate(422.4489 169.2185) scale(1 1.3793)">
         <tspan x="0" y="0">3</tspan>
      </text>
      <text class="cls-25" transform="translate(360.9264 139.9949) scale(1 1.3793)">
         <tspan x="0" y="0">4</tspan>
      </text>
      <text class="cls-25" transform="translate(391.6882 139.9949) scale(1 1.3793)">
         <tspan x="0" y="0">5</tspan>
      </text>
      <text class="cls-25" transform="translate(422.4489 139.9949) scale(1 1.3793)">
         <tspan x="0" y="0">6</tspan>
      </text>
      <text class="cls-25" transform="translate(391.6882 110.7712) scale(1 1.3793)">
         <tspan x="0" y="0">8</tspan>
      </text>
      <text class="cls-25" transform="translate(422.4489 110.7712) scale(1 1.3793)">
         <tspan x="0" y="0">9</tspan>
      </text>
      <text class="cls-25" transform="translate(360.9264 110.7712) scale(1 1.3793)">
         <tspan x="0" y="0">7</tspan>
      </text>
      <text class="cls-32" transform="translate(422.4489 118.0759) scale(1 1.4394)">
         <tspan x="0" y="0">OUTPUT</tspan>
      </text>
      <text class="cls-12" transform="translate(422.4489 123.4597) scale(1 1.4763)">
         <tspan x="0" y="0">VOLTAGE</tspan>
      </text>
      <text class="cls-32" transform="translate(422.4489 147.3) scale(1 1.4394)">
         <tspan x="0" y="0">OUTPUT</tspan>
      </text>
      <text class="cls-13" transform="translate(422.4489 152.6838) scale(1 1.4276)">
         <tspan x="0" y="0">CURRENT</tspan>
      </text>
      <text class="cls-8" transform="translate(391.6882 176.5256) scale(1 1.4897)">
         <tspan x="0" y="0">INVERTER</tspan>
      </text>
      <text class="cls-13" transform="translate(391.6882 181.908) scale(1 1.4276)">
         <tspan x="0" y="0">CURRENT</tspan>
      </text>
      <text class="cls-28" transform="translate(422.4489 176.3704) scale(1 1.4908)">
         <tspan x="0" y="0">OUTPUT</tspan>
      </text>
      <text class="cls-17" transform="translate(422.4489 181.3225) scale(1 1.4847)">
         <tspan x="0" y="0">FREQUENCY</tspan>
      </text>
      <text class="cls-21" transform="translate(391.6882 118.0759) scale(1 1.6241)">
         <tspan x="0" y="0">DC</tspan>
      </text>
      <text class="cls-12" transform="translate(391.6882 123.4597) scale(1 1.4763)">
         <tspan x="0" y="0">VOLTAGE</tspan>
      </text>
      <text class="cls-21" transform="translate(391.6882 147.3) scale(1 1.6241)">
         <tspan x="0" y="0">DC</tspan>
      </text>
      <text class="cls-13" transform="translate(391.6882 152.6838) scale(1 1.4276)">
         <tspan x="0" y="0">CURRENT</tspan>
      </text>
      <text class="cls-25" transform="translate(391.6882 198.4431) scale(1 1.3793)">
         <tspan x="0" y="0">0</tspan>
      </text>
      <text class="cls-23" transform="translate(426.6276 209.5959)">
         <tspan x="0" y="0">C</tspan>
      </text>
      <text class="cls-34" transform="translate(111.0558 276.074) scale(1 1.3266)">
         <tspan x="0" y="0">DC LOW WARNING</tspan>
      </text>
      <text class="cls-39" transform="translate(189.1154 291.4543) scale(1 1.3225)">
         <tspan x="0" y="0">INVERTER FUSE BLOWN</tspan>
      </text>
      <text class="cls-30" transform="translate(189.1154 276.074) scale(1 1.3148)">
         <tspan x="0" y="0">OVERLOAD INVERTER</tspan>
      </text>
      <text class="cls-14" transform="translate(189.1154 260.6926) scale(1 1.3672)">
         <tspan x="0" y="0">INVERTER FAULT</tspan>
      </text>
      <text class="cls-16" transform="translate(267.1755 306.8372) scale(1 1.3427)">
         <tspan x="0" y="0">EA INHIBITED</tspan>
      </text>
      <text class="cls-2" transform="translate(345.236 260.6926) scale(1 1.4373)">
         <tspan x="0" y="0">OVERTEMPERATURE</tspan>
      </text>
      <text class="cls-15" transform="translate(32.9958 291.4543) scale(1 1.2806)">
         <tspan x="0" y="0">DC OUT OF TOLERANCE</tspan>
      </text>
      <text class="cls-37" transform="translate(400.4919 51.554) scale(1 1.4459)">
         <tspan x="0" y="0">DISPLAY</tspan>
      </text>
      <text class="cls-7" transform="translate(38.8713 46.6477) scale(1 1.5508)">
         <tspan x="0" y="0">ON</tspan>
      </text>
      <text class="cls-35" transform="translate(55.4543 175.1838) scale(1 1.6887)">
         <tspan x="0" y="0">EA</tspan>
      </text>
      <text class="cls-38" transform="translate(38.8713 53.9543) scale(1 1.4639)">
         <tspan x="0" y="0">OFF</tspan>
      </text>
      <text class="cls-20" transform="translate(294.1491 131.3948)">
         <tspan x="0" y="0">ON</tspan>
      </text>
      <text class="cls-20" transform="translate(292.6462 166.5559)">
         <tspan x="0" y="0">OFF</tspan>
      </text>
      <text class="cls-22" transform="translate(24.8092 41.3914) scale(1 1.3454)">
         <tspan x="0" y="0">14</tspan>
      </text>
      <text class="cls-26" transform="translate(24.9269 59.2664) scale(1 1.3996)">
         <tspan x="0" y="0">15</tspan>
      </text>
      <text class="cls-36" transform="translate(28.1125 159.3816) scale(1 1.3793)">
         <tspan x="0" y="0">5</tspan>
      </text>
      <text class="cls-36" transform="translate(52.8405 157.5432) scale(1 1.3793)">
         <tspan x="0" y="0">7</tspan>
      </text>
      <text class="cls-36" transform="translate(58.6955 146.0847) scale(1 1.3793)">
         <tspan x="0" y="0">6</tspan>
      </text>
      <text class="cls-36" transform="translate(21.9318 188.0193) scale(1 1.3793)">
         <tspan x="0" y="0">8</tspan>
      </text>
      <text class="cls-5" transform="translate(367.8454 90.7761) scale(1 1.362)">
         <tspan x="0" y="0">COMMON ALARM</tspan>
      </text>
      <text class="cls-19" transform="translate(236.5046 117.1121) scale(1 1.4847)">
         <tspan x="0" y="0">SYSTEM</tspan>
      </text>
      <text class="cls-18" transform="translate(236.6344 124.5769) scale(1 1.5508)">
         <tspan x="0" y="0">ON</tspan>
      </text>
      <text class="cls-11" transform="translate(236.5046 191.3962) scale(1 1.4854)">
         <tspan x="0" y="0">LAMP</tspan>
      </text>
      <text class="cls-4" transform="translate(236.6344 198.8596) scale(1 1.487)">
         <tspan x="0" y="0">TEST</tspan>
      </text>
      <text class="cls-33" transform="translate(236.5046 154.2537) scale(1 1.4639)">
         <tspan x="0" y="0">OFF</tspan>
      </text>
      <text class="cls-10" transform="translate(273.1667 117.1121) scale(1 1.5023)">
         <tspan x="0" y="0">S1</tspan>
      </text>
      <text class="cls-1" transform="translate(273.1667 154.2537) scale(1 1.393)">
         <tspan x="0" y="0">S2</tspan>
      </text>
      <text class="cls-3" transform="translate(273.1667 191.3962) scale(1 1.4017)">
         <tspan x="0" y="0">S3</tspan>
      </text>
      <text class="cls-27" transform="translate(111.0558 291.4543) scale(1 1.3852)">
         <tspan x="0" y="0">BATTERY DISCONNECTED</tspan>
      </text>
      <text class="cls-24" transform="translate(345.236 291.4543) scale(1 1.3239)">
         <tspan x="0" y="0">CONTOL POWER FAULT</tspan>
      </text>
      <path class="cls-41"
            d="M406.4093,211.2901c.3212,.3445,.8195,.4576,1.2578,.2854,.4377-.1723,.7257-.5953,.7257-1.0656,0-.0579-.0047-.1151-.0133-.1723"/>
      <path class="cls-41"
            d="M397.6553,210.3376c-.0751,.4968,.1816,.9844,.6339,1.2032,.4516,.2182,.9937,.1171,1.3363-.2508"/>
      <path class="cls-41"
            d="M397.1917,201.7153c-.3718-.0658-.7496,.0845-.9758,.3878-.2255,.3033-.2607,.7077-.0911,1.0456s.5155,.5514,.8933,.5514"/>
      <path class="cls-41"
            d="M409.0167,203.7001c.2654,0,.5195-.1058,.707-.2933,.1876-.1876,.2927-.4417,.2927-.707,0-.2953-.1304-.576-.3572-.7656-.2261-.1902-.5255-.2701-.8161-.2188"/>
      <path class="cls-41"
            d="M404.0174,198.959c0-.5528-.4476-1.0004-.9997-1.0004-.5527,0-1.0004,.4476-1.0004,1.0004"/>
      <polyline points="402.0173 203.7041 397.0181 201.7 396.8618 201.7127 396.7095 201.7493 396.5645 201.8091 396.4308 201.8909 396.311 201.9927 396.2093 202.1124 396.1275 202.2461 396.0676 202.3911 396.031 202.5434 396.0184 202.6998 396.031 202.8567 396.0676 203.009 396.1275 203.154 396.2093 203.2877 396.311 203.4068 396.4308 203.5086 396.5645 203.5911 396.7095 203.6509 396.8618 203.6875 397.0181 203.7001 401.3908 205.649 397.6553 210.3376 397.6427 210.4826 397.6486 210.6276 397.6726 210.7713 397.7152 210.9103 397.7744 211.0434 397.8502 211.1677 397.9413 211.2808 398.0458 211.3819 398.1622 211.469 398.2892 211.5409 398.4236 211.5954 398.5646 211.6327 398.7082 211.6519 398.8539 211.6533 398.9982 211.6353 399.1393 211.5994 399.2749 211.5462 399.402 211.4757 399.5197 211.3905 399.6255 211.2901 403.0177 206.8257 406.4093 211.2901 406.5151 211.3905 406.6328 211.4757 406.7605 211.5462 406.8955 211.5994 407.0365 211.6353 407.1808 211.6533 407.3266 211.6519 407.4709 211.6327 407.6112 211.5954 407.7462 211.5409 407.8726 211.469 407.989 211.3819 408.0941 211.2808 408.1846 211.1677 408.2604 211.0434 408.3203 210.9103 408.3621 210.7713 408.3861 210.6276 408.3921 210.4826 408.3794 210.3376 404.644 205.649 409.0167 203.7001 409.173 203.6875 409.3253 203.6509 409.4703 203.5911 409.604 203.5092 409.7237 203.4068 409.8255 203.2877 409.9073 203.154 409.9678 203.009 410.0044 202.8567 410.0164 202.6998 410.0044 202.5434 409.9678 202.3911 409.9073 202.2461 409.8255 202.1124 409.7237 201.9927 409.604 201.8909 409.4703 201.8091 409.3253 201.7493 409.173 201.7127 409.0167 201.7 404.0174 203.7041 404.0174 198.959 404.0048 198.802 403.9682 198.6497 403.9083 198.5047 403.8265 198.371 403.7248 198.2519 403.605 198.1495 403.4714 198.0677 403.3263 198.0078 403.174 197.9712 403.0177 197.9586 402.8607 197.9712 402.7084 198.0078 402.5634 198.0677 402.4297 198.1495 402.3107 198.2519 402.2089 198.371 402.1264 198.5047 402.0666 198.6497 402.03 198.802 402.0173 198.959 402.0173 203.7041"/>
      <text class="cls-6" transform="translate(423.2965 260.6926) scale(1 1.3232)">
         <tspan x="0" y="0">OUTPUT BREAKER OPEN</tspan>
      </text>
      <line class="cls-40"
            x1="290.9506"
            y1="201.7526"
            x2="306.3514"
            y2="201.7526"/>
      <line class="cls-40"
            x1="290.9506"
            y1="131.4294"
            x2="292.6334"
            y2="131.4294"/>
      <line class="cls-40"
            x1="290.9506"
            y1="174.0665"
            x2="306.3713"
            y2="174.0665"/>
      <line class="cls-40"
            x1="335.391"
            y1="17.5011"
            x2="335.3917"
            y2="226.6856"/>
      <line class="cls-40"
            x1="312.504"
            y1="160.4384"
            x2="312.504"
            y2="145.0569"/>
      <line class="cls-40"
            x1="290.9506"
            y1="103.7433"
            x2="306.3713"
            y2="103.7433"/>
      <rect class="cls-40"
            x="336.0063"
            y="302.9918"
            width="7.6911"
            height="3.0756"/>
      <rect class="cls-40"
            x="336.0063"
            y="287.6103"
            width="7.6911"
            height="3.0763"/>
      <rect class="cls-40"
            x="336.0063"
            y="272.2288"
            width="7.6911"
            height="3.0763"/>
      <line class="cls-40"
            x1="304.6885"
            y1="166.591"
            x2="306.3713"
            y2="166.591"/>
      <line class="cls-40"
            x1="304.6885"
            y1="131.4294"
            x2="306.3713"
            y2="131.4294"/>
      <line class="cls-40"
            x1="312.504"
            y1="125.2774"
            x2="312.504"
            y2="109.8959"/>
      <line class="cls-40"
            x1="312.504"
            y1="195.6"
            x2="312.504"
            y2="180.2185"/>
      <line class="cls-40"
            x1="360.924"
            y1="133.8445"
            x2="380.9196"
            y2="133.8445"/>
      <line class="cls-40"
            x1="360.924"
            y1="163.069"
            x2="380.9196"
            y2="163.069"/>
      <line class="cls-40"
            x1="360.924"
            y1="104.62"
            x2="380.9196"
            y2="104.62"/>
      <line class="cls-40"
            x1="358.6172"
            y1="183.8335"
            x2="358.6172"
            y2="165.3757"/>
      <line class="cls-40"
            x1="360.924"
            y1="127.6919"
            x2="380.9196"
            y2="127.6919"/>
      <line class="cls-40"
            x1="358.6172"
            y1="154.609"
            x2="358.6172"
            y2="136.1519"/>
      <line class="cls-40"
            x1="358.6172"
            y1="125.3845"
            x2="358.6172"
            y2="106.9274"/>
      <line class="cls-40"
            x1="361.8472"
            y1="60.0146"
            x2="361.8472"
            y2="35.4049"/>
      <line class="cls-40"
            x1="364.0974"
            y1="204.509"
            x2="367.3513"
            y2="207.4915"/>
      <rect class="cls-40"
            x="336.0063"
            y="256.848"
            width="7.6911"
            height="3.0763"/>
      <line class="cls-40"
            x1="360.924"
            y1="192.2929"
            x2="380.9196"
            y2="192.2929"/>
      <line class="cls-40"
            x1="364.0974"
            y1="203.1494"
            x2="367.3513"
            y2="200.1662"/>
      <rect class="cls-40"
            x="358.6172"
            y="86.1629"
            width="7.6904"
            height="4.6141"/>
      <line class="cls-40"
            x1="366.5385"
            y1="204.7903"
            x2="368.3317"
            y2="206.4345"/>
      <line class="cls-40"
            x1="360.924"
            y1="186.1403"
            x2="380.9196"
            y2="186.1403"/>
      <line class="cls-40"
            x1="360.924"
            y1="156.9164"
            x2="380.9196"
            y2="156.9164"/>
      <line class="cls-40"
            x1="360.924"
            y1="215.3648"
            x2="380.9196"
            y2="215.3648"/>
      <line class="cls-40"
            x1="358.6172"
            y1="213.0574"
            x2="358.6172"
            y2="194.6003"/>
      <line class="cls-40"
            x1="370.1156"
            y1="204.7903"
            x2="376.8901"
            y2="204.7903"/>
      <line class="cls-40"
            x1="383.227"
            y1="183.8335"
            x2="383.227"
            y2="165.3757"/>
      <line class="cls-40"
            x1="370.7681"
            y1="176.0021"
            x2="372.703"
            y2="173.6109"/>
      <line class="cls-40"
            x1="391.6863"
            y1="215.3648"
            x2="411.6819"
            y2="215.3648"/>
      <line class="cls-40"
            x1="391.6863"
            y1="156.9164"
            x2="411.6819"
            y2="156.9164"/>
      <line class="cls-40"
            x1="367.9998"
            y1="29.2523"
            x2="466.4394"
            y2="29.2523"/>
      <line class="cls-40"
            x1="383.227"
            y1="154.609"
            x2="383.227"
            y2="136.1519"/>
      <line class="cls-40"
            x1="389.3796"
            y1="183.8335"
            x2="389.3796"
            y2="165.3757"/>
      <line class="cls-40"
            x1="389.3796"
            y1="154.609"
            x2="389.3796"
            y2="136.1519"/>
      <line class="cls-40"
            x1="389.3796"
            y1="213.0574"
            x2="389.3796"
            y2="194.6003"/>
      <line class="cls-40"
            x1="391.6863"
            y1="192.2929"
            x2="411.6819"
            y2="192.2929"/>
      <line class="cls-40"
            x1="383.227"
            y1="125.3845"
            x2="383.227"
            y2="106.9274"/>
      <rect class="cls-40"
            x="367.9998"
            y="35.4049"
            width="98.4396"
            height="24.6098"/>
      <line class="cls-40"
            x1="389.3796"
            y1="125.3845"
            x2="389.3796"
            y2="106.9274"/>
      <line class="cls-40"
            x1="391.6863"
            y1="186.1403"
            x2="411.6819"
            y2="186.1403"/>
      <line class="cls-40"
            x1="367.9998"
            y1="66.1672"
            x2="466.4394"
            y2="66.1672"/>
      <line class="cls-40"
            x1="383.227"
            y1="213.0574"
            x2="383.227"
            y2="194.6003"/>
      <polyline class="cls-40"
                points="376.8901 202.8674 366.5385 202.8674 368.3317 201.2231"/>
      <line class="cls-40"
            x1="370.7681"
            y1="176.0021"
            x2="370.7681"
            y2="169.8495"/>
      <line class="cls-40"
            x1="391.6863"
            y1="163.069"
            x2="411.6819"
            y2="163.069"/>
      <line class="cls-40"
            x1="391.6863"
            y1="127.6919"
            x2="411.6819"
            y2="127.6919"/>
      <line class="cls-40"
            x1="413.9893"
            y1="125.3845"
            x2="413.9893"
            y2="106.9274"/>
      <line class="cls-40"
            x1="391.6863"
            y1="133.8445"
            x2="411.6819"
            y2="133.8445"/>
      <line class="cls-40"
            x1="420.1419"
            y1="183.8335"
            x2="420.1419"
            y2="165.3757"/>
      <line class="cls-40"
            x1="391.6863"
            y1="104.62"
            x2="411.6819"
            y2="104.62"/>
      <line class="cls-40"
            x1="420.1419"
            y1="154.609"
            x2="420.1419"
            y2="136.1519"/>
      <rect class="cls-40"
            x="414.0665"
            y="287.6103"
            width="7.6904"
            height="3.0763"/>
      <line class="cls-40"
            x1="420.1419"
            y1="213.0574"
            x2="420.1419"
            y2="194.6003"/>
      <line class="cls-40"
            x1="413.9893"
            y1="213.0574"
            x2="413.9893"
            y2="194.6003"/>
      <line class="cls-40"
            x1="420.1419"
            y1="125.3845"
            x2="420.1419"
            y2="106.9274"/>
      <rect class="cls-40"
            x="414.0665"
            y="302.9918"
            width="7.6904"
            height="3.0756"/>
      <line class="cls-40"
            x1="413.9893"
            y1="154.609"
            x2="413.9893"
            y2="136.1519"/>
      <line class="cls-40"
            x1="413.9893"
            y1="183.8335"
            x2="413.9893"
            y2="165.3757"/>
      <line class="cls-40"
            x1="422.4486"
            y1="186.1403"
            x2="442.4443"
            y2="186.1403"/>
      <line class="cls-40"
            x1="422.4486"
            y1="127.6919"
            x2="442.4443"
            y2="127.6919"/>
      <line class="cls-40"
            x1="444.7516"
            y1="183.8335"
            x2="444.7516"
            y2="165.3757"/>
      <line class="cls-40"
            x1="422.4486"
            y1="192.2929"
            x2="442.4443"
            y2="192.2929"/>
      <line class="cls-40"
            x1="444.7516"
            y1="125.3845"
            x2="444.7516"
            y2="106.9274"/>
      <rect class="cls-40"
            x="414.0665"
            y="272.2288"
            width="7.6904"
            height="3.0763"/>
      <line class="cls-40"
            x1="422.4486"
            y1="156.9164"
            x2="442.4443"
            y2="156.9164"/>
      <line class="cls-40"
            x1="450.9042"
            y1="213.0574"
            x2="450.9042"
            y2="194.6003"/>
      <line class="cls-40"
            x1="450.9042"
            y1="154.609"
            x2="450.9042"
            y2="136.1519"/>
      <line class="cls-40"
            x1="450.9042"
            y1="125.3845"
            x2="450.9042"
            y2="106.9274"/>
      <line class="cls-40"
            x1="444.7516"
            y1="213.0574"
            x2="444.7516"
            y2="194.6003"/>
      <line class="cls-40"
            x1="422.4486"
            y1="215.3648"
            x2="442.4443"
            y2="215.3648"/>
      <line class="cls-40"
            x1="453.2116"
            y1="215.3648"
            x2="473.2066"
            y2="215.3648"/>
      <line class="cls-40"
            x1="422.4486"
            y1="104.62"
            x2="442.4443"
            y2="104.62"/>
      <line class="cls-40"
            x1="422.4486"
            y1="163.069"
            x2="442.4443"
            y2="163.069"/>
      <line class="cls-40"
            x1="444.7516"
            y1="154.609"
            x2="444.7516"
            y2="136.1519"/>
      <line class="cls-40"
            x1="450.9042"
            y1="183.8335"
            x2="450.9042"
            y2="165.3757"/>
      <rect class="cls-40"
            x="414.0665"
            y="256.848"
            width="7.6904"
            height="3.0763"/>
      <line class="cls-40"
            x1="453.2116"
            y1="192.2929"
            x2="473.2066"
            y2="192.2929"/>
      <line class="cls-40"
            x1="422.4486"
            y1="133.8445"
            x2="442.4443"
            y2="133.8445"/>
      <line class="cls-40"
            x1="453.2116"
            y1="186.1403"
            x2="473.2066"
            y2="186.1403"/>
      <line class="cls-40"
            x1="453.2116"
            y1="163.069"
            x2="473.2066"
            y2="163.069"/>
      <line class="cls-40"
            x1="453.2116"
            y1="104.62"
            x2="473.2066"
            y2="104.62"/>
      <line class="cls-40"
            x1="456.5832"
            y1="139.3818"
            x2="461.363"
            y2="139.3818"/>
      <line class="cls-40"
            x1="456.5832"
            y1="122.9235"
            x2="461.363"
            y2="122.9235"/>
      <line class="cls-40"
            x1="464.1719"
            y1="152.4979"
            x2="470.8253"
            y2="141.0913"/>
      <line class="cls-40"
            x1="465.0545"
            y1="122.9235"
            x2="469.835"
            y2="122.9235"/>
      <line class="cls-40"
            x1="475.5139"
            y1="213.0574"
            x2="475.5139"
            y2="194.6003"/>
      <line class="cls-40"
            x1="475.5139"
            y1="183.8335"
            x2="475.5139"
            y2="165.3757"/>
      <line class="cls-40"
            x1="475.5139"
            y1="154.609"
            x2="475.5139"
            y2="136.1519"/>
      <line class="cls-40"
            x1="475.5139"
            y1="125.3845"
            x2="475.5139"
            y2="106.9274"/>
      <line class="cls-40"
            x1="497.9706"
            y1="328.2015"
            x2="497.9706"
            y2="238.9901"/>
      <line class="cls-40"
            x1="453.2116"
            y1="156.9164"
            x2="473.2066"
            y2="156.9164"/>
      <line class="cls-40"
            x1="472.5913"
            y1="60.0146"
            x2="472.5913"
            y2="35.4049"/>
      <line class="cls-40"
            x1="499.2011"
            y1="328.2234"
            x2="499.2011"
            y2="17.5011"/>
      <line class="cls-40"
            x1="455.5968"
            y1="141.0986"
            x2="462.2569"
            y2="152.5152"/>
      <line class="cls-40"
            x1="453.2116"
            y1="127.6919"
            x2="473.2066"
            y2="127.6919"/>
      <line class="cls-40"
            x1="465.0545"
            y1="139.3818"
            x2="469.835"
            y2="139.3818"/>
      <line class="cls-40"
            x1="464.1719"
            y1="109.8081"
            x2="470.8253"
            y2="121.2147"/>
      <line class="cls-40"
            x1="508.43"
            y1="337.4304"
            x2="508.43"
            y2="8.2722"/>
      <line class="cls-40"
            x1="453.2116"
            y1="133.8445"
            x2="473.2066"
            y2="133.8445"/>
      <line class="cls-40"
            x1="455.5968"
            y1="121.2067"
            x2="462.2569"
            y2="109.7908"/>
      <line class="cls-40"
            x1="2.3884"
            y1="337.4304"
            x2="2.3884"
            y2="8.2722"/>
      <line class="cls-40"
            x1="17.7692"
            y1="333.1236"
            x2="493.0485"
            y2="333.1236"/>
      <line class="cls-40"
            x1="8.521"
            y1="2.1196"
            x2="502.2974"
            y2="2.1196"/>
      <polyline class="cls-40"
                points="11.6173 328.2015 11.6173 238.9901 11.6173 17.5011"/>
      <line class="cls-40"
            x1="17.7699"
            y1="11.3485"
            x2="493.0485"
            y2="11.3485"/>
      <line class="cls-40"
            x1="8.521"
            y1="343.5823"
            x2="502.2974"
            y2="343.5823"/>
      <line class="cls-40"
            x1="12.8478"
            y1="328.2015"
            x2="12.8478"
            y2="238.9901"/>
      <line class="cls-40"
            x1="17.7692"
            y1="334.3541"
            x2="493.0485"
            y2="334.3541"/>
      <line class="cls-40"
            x1="17.7692"
            y1="232.8382"
            x2="493.0485"
            y2="232.8382"/>
      <line class="cls-40"
            x1="33.9196"
            y1="177.4654"
            x2="33.9196"
            y2="173.3123"/>
      <line class="cls-40"
            x1="25.9106"
            y1="151.6358"
            x2="55.7723"
            y2="121.7748"/>
      <line class="cls-40"
            x1="25.4603"
            y1="150.5483"
            x2="25.4603"
            y2="122.8623"/>
      <line class="cls-40"
            x1="30.9232"
            y1="57.5443"
            x2="36.5729"
            y2="52.416"/>
      <line class="cls-40"
            x1="26.9835"
            y1="152.0861"
            x2="54.6995"
            y2="152.0861"/>
      <line class="cls-40"
            x1="30.8433"
            y1="182.8491"
            x2="50.8389"
            y2="182.8491"/>
      <line class="cls-40"
            x1="33.9196"
            y1="169.3134"
            x2="33.9196"
            y2="165.1602"/>
      <line class="cls-40"
            x1="26.9509"
            y1="184.9024"
            x2="40.8412"
            y2="171.3128"/>
      <rect class="cls-40"
            x="23.7682"
            y="302.9918"
            width="7.6904"
            height="3.0756"/>
      <rect class="cls-40"
            x="23.7682"
            y="272.2288"
            width="7.6904"
            height="3.0763"/>
      <polyline class="cls-40"
                points="31.4586 169.3134 33.9196 169.3134 36.3807 169.3134"/>
      <line class="cls-40"
            x1="31.6123"
            y1="125.9386"
            x2="40.0722"
            y2="125.9386"/>
      <polyline class="cls-40"
                points="23.7682 259.9243 31.4586 259.9243 31.4586 256.848 23.7682 256.848"/>
      <polygon class="cls-40"
               points="33.9196 169.3134 36.3807 173.3123 31.4586 173.3123 33.9196 169.3134"/>
      <line class="cls-40"
            x1="31.6123"
            y1="127.4764"
            x2="33.5352"
            y2="127.4764"/>
      <line class="cls-40"
            x1="34.1119"
            y1="40.5731"
            x2="47.5704"
            y2="40.5731"/>
      <line class="cls-40"
            x1="34.1119"
            y1="55.9539"
            x2="47.5704"
            y2="55.9539"/>
      <line class="cls-40"
            x1="35.0737"
            y1="127.4764"
            x2="36.6115"
            y2="127.4764"/>
      <polyline class="cls-40"
                points="31.4586 290.6866 31.4586 287.6103 23.7682 287.6103 23.7682 290.6866"/>
      <line class="cls-40"
            x1="30.8433"
            y1="159.7772"
            x2="50.8389"
            y2="159.7772"/>
      <line class="cls-40"
            x1="32.574"
            y1="54.4161"
            x2="32.574"
            y2="42.1109"/>
      <line class="cls-40"
            x1="29.3055"
            y1="181.3106"
            x2="29.3055"
            y2="161.315"/>
      <line class="cls-40"
            x1="26.9981"
            y1="121.3238"
            x2="54.6842"
            y2="121.3238"/>
      <line class="cls-40"
            x1="30.7589"
            y1="156.2945"
            x2="40.8412"
            y2="148.2409"/>
      <line class="cls-40"
            x1="30.9232"
            y1="40.5099"
            x2="36.5729"
            y2="45.11"/>
      <line class="cls-40"
            x1="35.4581"
            y1="163.6224"
            x2="46.2248"
            y2="163.6224"/>
      <line class="cls-40"
            x1="35.1502"
            y1="171.3128"
            x2="37.1496"
            y2="171.3128"/>
      <polyline class="cls-40"
                points="45.3016 173.3123 47.7626 173.3123 50.2237 173.3123"/>
      <line class="cls-40"
            x1="38.1493"
            y1="127.4764"
            x2="40.0722"
            y2="127.4764"/>
      <polyline class="cls-40"
                points="40.8412 40.5731 40.8412 31.2949 46.604 21.3464 35.079 21.3464 40.8412 31.2949"/>
      <line class="cls-40"
            x1="40.8412"
            y1="159.7772"
            x2="40.8412"
            y2="157.7778"/>
      <line class="cls-40"
            x1="40.8412"
            y1="155.932"
            x2="52.2903"
            y2="155.932"/>
      <line class="cls-40"
            x1="40.8412"
            y1="121.3238"
            x2="40.8412"
            y2="55.9539"/>
      <polygon class="cls-40"
               points="47.7626 173.3123 50.2237 169.3134 45.3016 169.3134 47.7626 173.3123"/>
      <line class="cls-40"
            x1="47.7626"
            y1="169.3134"
            x2="47.7626"
            y2="165.1602"/>
      <polyline class="cls-40" points="201.6242 198.23 40.8412 198.23 40.8412 182.8491"/>
      <line class="cls-40"
            x1="49.1089"
            y1="54.4161"
            x2="49.1089"
            y2="42.1109"/>
      <line class="cls-40"
            x1="37.7649"
            y1="182.8491"
            x2="43.9175"
            y2="182.8491"/>
      <line class="cls-40"
            x1="35.4581"
            y1="179.0033"
            x2="46.2248"
            y2="179.0033"/>
      <line class="cls-40"
            x1="52.3774"
            y1="181.3106"
            x2="52.3774"
            y2="161.315"/>
      <line class="cls-40"
            x1="47.0789"
            y1="138.0649"
            x2="48.6194"
            y2="139.9599"/>
      <line class="cls-40"
            x1="50.6081"
            y1="148.2409"
            x2="58.2673"
            y2="144.4403"/>
      <line class="cls-40"
            x1="44.5327"
            y1="171.3128"
            x2="46.5321"
            y2="171.3128"/>
      <line class="cls-40"
            x1="56.2227"
            y1="150.5616"
            x2="56.2227"
            y2="122.849"/>
      <line class="cls-40"
            x1="40.8412"
            y1="154.0862"
            x2="40.8412"
            y2="152.0868"/>
      <line class="cls-40"
            x1="47.7626"
            y1="177.4654"
            x2="47.7626"
            y2="173.3123"/>
      <rect class="cls-40"
            x="101.8277"
            y="272.2288"
            width="7.6904"
            height="3.0763"/>
      <rect class="cls-40"
            x="101.8277"
            y="302.9918"
            width="7.6904"
            height="3.0756"/>
      <polyline class="cls-40"
                points="109.5181 290.6866 109.5181 287.6103 101.8277 287.6103 101.8277 290.6866"/>
      <polyline class="cls-40"
                points="101.8277 256.848 101.8277 259.9243 109.5181 259.9243 109.5181 256.848"/>
      <rect class="cls-40"
            x="179.8872"
            y="287.6103"
            width="7.6911"
            height="3.0763"/>
      <line class="cls-40"
            x1="201.6242"
            y1="203.9928"
            x2="201.6242"
            y2="192.4678"/>
      <rect class="cls-40"
            x="179.8872"
            y="256.848"
            width="7.6911"
            height="3.0763"/>
      <polygon class="cls-40"
               points="201.6242 192.4678 201.6242 203.9928 211.5728 198.23 201.6242 192.4678"/>
      <line class="cls-40"
            x1="226.9536"
            y1="17.5011"
            x2="226.9536"
            y2="226.6856"/>
      <rect class="cls-40"
            x="179.8872"
            y="302.9918"
            width="7.6911"
            height="3.0756"/>
      <rect class="cls-40"
            x="179.8872"
            y="272.2288"
            width="7.6911"
            height="3.0763"/>
      <rect class="cls-40"
            x="257.9467"
            y="302.9918"
            width="7.6911"
            height="3.0756"/>
      <line class="cls-40"
            x1="284.818"
            y1="160.4384"
            x2="284.818"
            y2="145.0569"/>
      <rect class="cls-40"
            x="257.9467"
            y="287.6103"
            width="7.6911"
            height="3.0763"/>
      <line class="cls-40"
            x1="284.818"
            y1="195.6"
            x2="284.818"
            y2="180.2185"/>
      <line class="cls-40"
            x1="284.818"
            y1="125.2774"
            x2="284.818"
            y2="109.8959"/>
      <line class="cls-40"
            x1="290.9506"
            y1="166.591"
            x2="292.6334"
            y2="166.591"/>
      <rect class="cls-40"
            x="257.9467"
            y="256.848"
            width="7.6911"
            height="3.0763"/>
      <rect class="cls-40"
            x="257.9467"
            y="272.2288"
            width="7.6911"
            height="3.0763"/>
      <line class="cls-40"
            x1="290.9506"
            y1="138.9049"
            x2="306.3713"
            y2="138.9049"/>
      <line class="cls-41"
            x1="291.4741"
            y1="192.5337"
            x2="294.0123"
            y2="192.5337"/>
      <line class="cls-41"
            x1="291.4741"
            y1="189.9961"
            x2="294.0123"
            y2="189.9961"/>
      <polyline class="cls-41"
                points="291.4741 187.4579 294.0123 187.4579 294.0123 185.8888"/>
      <line class="cls-41"
            x1="290.628"
            y1="186.6119"
            x2="290.628"
            y2="185.8888"/>
      <line class="cls-41"
            x1="291.4741"
            y1="195.0719"
            x2="293.1662"
            y2="195.0719"/>
      <line class="cls-41"
            x1="294.8577"
            y1="181.0752"
            x2="308.3934"
            y2="181.0752"/>
      <polyline class="cls-41"
                points="299.7226 196.3024 299.7226 183.6127 294.8577 183.6127"/>
      <polyline class="cls-41"
                points="303.5292 196.3024 303.5292 183.6127 308.3934 183.6127"/>
      <line class="cls-41"
            x1="298.661"
            y1="123.7389"
            x2="298.661"
            y2="109.2002"/>
      <polyline class="cls-41"
                points="399.6255 211.2901 403.0177 206.8257 406.4093 211.2901"/>
      <polyline class="cls-41"
                points="397.0181 203.7001 401.3908 205.649 397.6553 210.3376"/>
      <polyline class="cls-41"
                points="404.0174 198.959 404.0174 203.7041 409.0167 201.7"/>
      <polyline class="cls-41"
                points="409.0167 203.7001 404.644 205.649 408.3794 210.3376"/>
      <polyline class="cls-41"
                points="397.0181 201.7 402.0173 203.7041 402.0173 198.959"/>
      <line class="cls-41"
            x1="453.9805"
            y1="180.7572"
            x2="472.4377"
            y2="180.7572"/>
      <line class="cls-41"
            x1="453.9805"
            y1="168.452"
            x2="472.4377"
            y2="168.452"/>
      <line class="cls-41"
            x1="470.131"
            y1="183.0646"
            x2="470.131"
            y2="166.1453"/>
      <line class="cls-41"
            x1="455.5955"
            y1="211.4424"
            x2="470.8227"
            y2="196.2153"/>
      <line class="cls-41"
            x1="456.2879"
            y1="183.0646"
            x2="456.2879"
            y2="166.1453"/>
   </g>
   <g id="Layer_5" data-name="Layer 5">
      <path class="cls-43"
            d="M221.2839,17.1846V226.9591H17.6712V17.1846H221.2839m2.7079-2.7079H14.9633V229.667H223.9918V14.4767h0Z"/>
      <path class="cls-43"
            d="M493.3593,238.5233v89.2678H17.6712v-89.2678H493.3593m2.7079-2.7079H14.9633v94.6837H496.0672v-94.6837h0Z"/>
      <path class="cls-43"
            d="M329.808,17.1846V226.9591h-96.9466V17.1846h96.9466m2.7079-2.7079h-102.3624V229.667h102.3624V14.4767h0Z"/>
      <path class="cls-43"
            d="M493.3594,17.1846V226.9591h-152.9671V17.1846h152.9671m2.7079-2.7079h-158.3829V229.667h158.3829V14.4767h0Z"/>
   </g>
   <g id="Layer_7" data-name="Layer 7">
      <g>
         <circle class="cls-42" cx="76.5653" cy="28.3548" r="7.8196"/>
         <text class="cls-9" transform="translate(72.537 32.9079)">
            <tspan x="0" y="0">A</tspan>
         </text>
      </g>
      <g>
         <circle class="cls-42" cx="250.8405" cy="28.3548" r="7.8196"/>
         <text class="cls-31" transform="translate(246.4483 32.9083)">
            <tspan x="0" y="0">B</tspan>
         </text>
      </g>
      <g>
         <circle class="cls-42" cx="351.6957" cy="28.3548" r="7.8196"/>
         <text class="cls-31" transform="translate(346.9398 32.9082)">
            <tspan x="0" y="0">C</tspan>
         </text>
      </g>
      <g>
         <circle class="cls-42" cx="91.1424" cy="247.2128" r="7.8196"/>
         <text class="cls-31" transform="translate(86.3872 251.7664)">
            <tspan x="0" y="0">D</tspan>
         </text>
      </g>
   </g>
</svg>
