<?xml version="1.0" encoding="UTF-8"?>
<svg xmlns="http://www.w3.org/2000/svg"
     xmlns:xlink="http://www.w3.org/1999/xlink"
     width="95mm"
     height="37mm"
     viewBox="0 0 269.2913 104.8819">
   <defs>
      <style>
      .uuid-1a60756a-b4d9-4741-a7a2-862c85604ebe {
        clip-path: url(#uuid-9707b1b4-c06e-427c-b84f-ffa59fa4d31f);
      }

      .uuid-38ed43a7-02a4-4999-be78-aed938378ddf, .uuid-6ac3c993-e2ce-44a4-b1d9-9c0419f8d568 {
        fill: #fff;
      }

      .uuid-61268478-eb67-483a-ba8e-0c09a7b40c50 {
        clip-path: url(#uuid-0dc842af-2141-40c2-9892-a0e47edf958d);
      }

      .uuid-595a6e4c-f5c1-474e-a87d-5a8ad28065b2 {
        stroke-width: 1.2522px;
      }

      .uuid-595a6e4c-f5c1-474e-a87d-5a8ad28065b2, .uuid-77328057-305d-4f48-9991-f3a414503260, .uuid-0002588b-c086-4b98-82ac-3860044dddb8, .uuid-ad3047ba-7174-4ad0-83fd-0bf1d22fd0ab, .uuid-0ac74407-1f61-40e0-98f3-a34c85ad6349, .uuid-52cebd92-8759-4a9b-b77e-98d5f76e9002, .uuid-fec5c16a-b49e-46c7-8785-1d7964e9c754, .uuid-aa01a571-cfed-4612-b0f9-8d7db83e8bf2, .uuid-20ff984c-e13b-42b2-b62c-c275a54bb4ee, .uuid-7e6745ad-fd53-4a68-b5fa-3e0b790c3207, .uuid-8abd87da-ac8e-4661-94b0-ef1ab2f1554e {
        fill: none;
      }

      .uuid-595a6e4c-f5c1-474e-a87d-5a8ad28065b2, .uuid-77328057-305d-4f48-9991-f3a414503260, .uuid-0002588b-c086-4b98-82ac-3860044dddb8, .uuid-ad3047ba-7174-4ad0-83fd-0bf1d22fd0ab, .uuid-0ac74407-1f61-40e0-98f3-a34c85ad6349, .uuid-52cebd92-8759-4a9b-b77e-98d5f76e9002, .uuid-fec5c16a-b49e-46c7-8785-1d7964e9c754, .uuid-20ff984c-e13b-42b2-b62c-c275a54bb4ee, .uuid-7e6745ad-fd53-4a68-b5fa-3e0b790c3207, .uuid-8abd87da-ac8e-4661-94b0-ef1ab2f1554e {
        stroke: #000;
      }

      .uuid-595a6e4c-f5c1-474e-a87d-5a8ad28065b2, .uuid-0002588b-c086-4b98-82ac-3860044dddb8, .uuid-ad3047ba-7174-4ad0-83fd-0bf1d22fd0ab, .uuid-52cebd92-8759-4a9b-b77e-98d5f76e9002, .uuid-fec5c16a-b49e-46c7-8785-1d7964e9c754 {
        stroke-miterlimit: 3;
      }

      .uuid-b388e550-46e2-458a-adad-a267672b295c {
        clip-path: url(#uuid-4c21afbf-237f-4a2e-9e3a-1e92bb70ad3f);
      }

      .uuid-6ac3c993-e2ce-44a4-b1d9-9c0419f8d568 {
        fill-rule: evenodd;
      }

      .uuid-0504f3c1-baf4-4857-9261-7dfe27ea20f4, .uuid-81415fbe-19cf-4e6f-9da7-05aa2b369652 {
        fill: #01889C;
      }

      .uuid-01c9333d-c625-4067-b418-4f0acaec4bc1 {
        clip-path: url(#uuid-d87f6e4d-0736-491a-80b8-338456e340d7);
      }

      .uuid-8a65b3c9-fb4c-4b4c-8272-c27c63772781 {
        clip-path: url(#uuid-c58fa3e8-fdf0-4a38-abe4-5efe1d3bd634);
      }

      .uuid-f31f5fc0-8cc8-41c1-b510-3282ee38f57c {
        clip-path: url(#uuid-482265ae-fa7c-40fb-816a-ebd2e137c99f);
      }

      .uuid-77328057-305d-4f48-9991-f3a414503260, .uuid-ad3047ba-7174-4ad0-83fd-0bf1d22fd0ab, .uuid-0ac74407-1f61-40e0-98f3-a34c85ad6349, .uuid-20ff984c-e13b-42b2-b62c-c275a54bb4ee, .uuid-7e6745ad-fd53-4a68-b5fa-3e0b790c3207, .uuid-8abd87da-ac8e-4661-94b0-ef1ab2f1554e {
        stroke-width: .75px;
      }

      .uuid-77328057-305d-4f48-9991-f3a414503260, .uuid-0ac74407-1f61-40e0-98f3-a34c85ad6349, .uuid-20ff984c-e13b-42b2-b62c-c275a54bb4ee, .uuid-7e6745ad-fd53-4a68-b5fa-3e0b790c3207, .uuid-8abd87da-ac8e-4661-94b0-ef1ab2f1554e {
        stroke-miterlimit: 10;
      }

      .uuid-0002588b-c086-4b98-82ac-3860044dddb8 {
        stroke-dasharray: 0 0 2.0034 1.0017;
      }

      .uuid-0002588b-c086-4b98-82ac-3860044dddb8, .uuid-fec5c16a-b49e-46c7-8785-1d7964e9c754 {
        stroke-width: .7513px;
      }

      .uuid-dd725120-21e0-455d-af45-176286d38aaa {
        clip-path: url(#uuid-e051dac6-9aad-4fe3-9f39-b1306fd626cd);
      }

      .uuid-56214916-a5f9-4a76-962b-eb002e71783a {
        clip-path: url(#uuid-58800822-8d9b-48b0-9ac6-c11a503ea0ca);
      }

      .uuid-648a75ab-3f4f-4c8b-912a-67c7df23c0ad {
        clip-path: url(#uuid-fec748aa-f29a-42c8-a464-a6945154606c);
      }

      .uuid-0ac74407-1f61-40e0-98f3-a34c85ad6349 {
        stroke-dasharray: 0 0 5.9636 5.9636;
      }

      .uuid-f170558c-1435-4daa-b296-7504995e8e7f {
        clip-path: url(#uuid-664072d2-e801-429d-a409-8f4927fa5e4a);
      }

      .uuid-52cebd92-8759-4a9b-b77e-98d5f76e9002 {
        stroke-width: .7087px;
      }

      .uuid-ead41d41-3de5-4bc4-836a-f553af2ba25f {
        clip-path: url(#uuid-9ebea27e-6606-4d3d-847f-d158f6e76183);
      }

      .uuid-063c55b6-213f-492f-90ed-73da5d26f4a0 {
        clip-path: url(#uuid-32345f0f-d37c-4d7a-9dc4-5bfc6e2fc73b);
      }

      .uuid-4e7876b5-0d9c-4170-9ff7-20a78748e0a9 {
        clip-path: url(#uuid-077e3b9e-2348-4193-b905-cd26a40e5d66);
      }

      .uuid-20ff984c-e13b-42b2-b62c-c275a54bb4ee {
        stroke-dasharray: 0 0 6.8059 6.8059;
      }

      .uuid-3a85ee2a-a7d7-4157-b8ad-a95dbde35f13 {
        clip-path: url(#uuid-4ff5d71d-0235-4ee3-80a0-9ca6a1e3889d);
      }

      .uuid-d0780cfc-1bc4-4766-ba23-b8591a1e276b {
        clip-path: url(#uuid-b5619d13-6ad5-4005-9850-ffbf91ee82a7);
      }

      .uuid-7e6745ad-fd53-4a68-b5fa-3e0b790c3207 {
        stroke-dasharray: 0 0 7.2959 7.2959;
      }

      .uuid-8abd87da-ac8e-4661-94b0-ef1ab2f1554e {
        stroke-dasharray: 0 0 6 6;
      }

      .uuid-81415fbe-19cf-4e6f-9da7-05aa2b369652 {
        font-family: Arial-BoldMT, Arial;
        font-size: 10px;
        font-weight: 700;
      }

      .uuid-00871549-a564-484e-a82c-a1e92d378702 {
        clip-path: url(#uuid-be4682ec-2c1c-4c02-8331-a3b062a491af);
      }
    </style>
      <clipPath id="uuid-4c21afbf-237f-4a2e-9e3a-1e92bb70ad3f">
         <rect class="uuid-aa01a571-cfed-4612-b0f9-8d7db83e8bf2"
               x="107.9488"
               y="26.827"
               width="35.4357"
               height="39.688"/>
      </clipPath>
      <clipPath id="uuid-be4682ec-2c1c-4c02-8331-a3b062a491af">
         <rect class="uuid-aa01a571-cfed-4612-b0f9-8d7db83e8bf2"
               x="107.9488"
               y="26.827"
               width="35.4357"
               height="39.688"/>
      </clipPath>
      <clipPath id="uuid-077e3b9e-2348-4193-b905-cd26a40e5d66">
         <rect class="uuid-aa01a571-cfed-4612-b0f9-8d7db83e8bf2"
               x="107.9488"
               y="26.827"
               width="35.4357"
               height="39.688"/>
      </clipPath>
      <clipPath id="uuid-d87f6e4d-0736-491a-80b8-338456e340d7">
         <rect class="uuid-aa01a571-cfed-4612-b0f9-8d7db83e8bf2"
               x="37.9051"
               y="43.6183"
               width="6.125"
               height="6.125"/>
      </clipPath>
      <clipPath id="uuid-482265ae-fa7c-40fb-816a-ebd2e137c99f">
         <rect class="uuid-aa01a571-cfed-4612-b0f9-8d7db83e8bf2"
               x="37.9051"
               y="43.6183"
               width="6.125"
               height="6.125"/>
      </clipPath>
      <clipPath id="uuid-fec748aa-f29a-42c8-a464-a6945154606c">
         <rect class="uuid-aa01a571-cfed-4612-b0f9-8d7db83e8bf2"
               x="70.591"
               y="38.5466"
               width="16.63"
               height="16.2683"/>
      </clipPath>
      <clipPath id="uuid-58800822-8d9b-48b0-9ac6-c11a503ea0ca">
         <rect class="uuid-aa01a571-cfed-4612-b0f9-8d7db83e8bf2"
               x="70.591"
               y="38.5469"
               width="16.63"
               height="16.268"/>
      </clipPath>
      <clipPath id="uuid-e051dac6-9aad-4fe3-9f39-b1306fd626cd">
         <rect class="uuid-aa01a571-cfed-4612-b0f9-8d7db83e8bf2"
               x="222.9283"
               y="43.5526"
               width="6.125"
               height="6.125"/>
      </clipPath>
      <clipPath id="uuid-9707b1b4-c06e-427c-b84f-ffa59fa4d31f">
         <rect class="uuid-aa01a571-cfed-4612-b0f9-8d7db83e8bf2"
               x="222.9283"
               y="43.5526"
               width="6.125"
               height="6.125"/>
      </clipPath>
      <clipPath id="uuid-664072d2-e801-429d-a409-8f4927fa5e4a">
         <rect class="uuid-aa01a571-cfed-4612-b0f9-8d7db83e8bf2"
               x="37.9171"
               y="79.3333"
               width="15.6504"
               height="14.7535"/>
      </clipPath>
      <clipPath id="uuid-0dc842af-2141-40c2-9892-a0e47edf958d">
         <rect class="uuid-aa01a571-cfed-4612-b0f9-8d7db83e8bf2"
               x="37.9171"
               y="79.3334"
               width="15.6509"
               height="14.7534"/>
      </clipPath>
      <clipPath id="uuid-9ebea27e-6606-4d3d-847f-d158f6e76183">
         <rect class="uuid-aa01a571-cfed-4612-b0f9-8d7db83e8bf2"
               x="37.9171"
               y="79.3334"
               width="15.6509"
               height="14.7534"/>
      </clipPath>
      <clipPath id="uuid-4ff5d71d-0235-4ee3-80a0-9ca6a1e3889d">
         <rect class="uuid-aa01a571-cfed-4612-b0f9-8d7db83e8bf2"
               x="70.591"
               y="78.5764"
               width="16.63"
               height="16.2683"/>
      </clipPath>
      <clipPath id="uuid-32345f0f-d37c-4d7a-9dc4-5bfc6e2fc73b">
         <rect class="uuid-aa01a571-cfed-4612-b0f9-8d7db83e8bf2"
               x="70.591"
               y="78.5767"
               width="16.63"
               height="16.268"/>
      </clipPath>
      <clipPath id="uuid-b5619d13-6ad5-4005-9850-ffbf91ee82a7">
         <rect class="uuid-aa01a571-cfed-4612-b0f9-8d7db83e8bf2"
               x="164.2417"
               y="40.6674"
               width="12.4579"
               height="12.1509"/>
      </clipPath>
      <clipPath id="uuid-c58fa3e8-fdf0-4a38-abe4-5efe1d3bd634">
         <rect class="uuid-aa01a571-cfed-4612-b0f9-8d7db83e8bf2"
               x="164.2417"
               y="40.6673"
               width="12.458"
               height="12.151"/>
      </clipPath>
   </defs>
   <g id="uuid-60bc8692-78a1-4749-b29e-49687278e5a5" data-name="Paths">
      <g>
         <line class="uuid-77328057-305d-4f48-9991-f3a414503260"
               x1="87.221"
               y1="86.7721"
               x2="90.221"
               y2="86.7721"/>
         <line class="uuid-0ac74407-1f61-40e0-98f3-a34c85ad6349"
               x1="96.1846"
               y1="86.7721"
               x2="236.3288"
               y2="86.7721"/>
         <polyline class="uuid-77328057-305d-4f48-9991-f3a414503260"
                   points="239.3106 86.7721 242.3106 86.7721 242.3106 83.7721"/>
         <line class="uuid-20ff984c-e13b-42b2-b62c-c275a54bb4ee"
               x1="242.3106"
               y1="76.9663"
               x2="242.3106"
               y2="53.1458"/>
         <line class="uuid-77328057-305d-4f48-9991-f3a414503260"
               x1="242.3106"
               y1="49.7429"
               x2="242.3106"
               y2="46.7429"/>
      </g>
      <line class="uuid-8abd87da-ac8e-4661-94b0-ef1ab2f1554e"
            x1="70.6981"
            y1="86.7726"
            x2="53.5675"
            y2="86.7726"/>
      <path class="uuid-ad3047ba-7174-4ad0-83fd-0bf1d22fd0ab"
            d="m225.9908,46.7428H86.2103"/>
      <path class="uuid-ad3047ba-7174-4ad0-83fd-0bf1d22fd0ab"
            d="m71.3225,46.7428h-29.4537"/>
      <g>
         <line class="uuid-77328057-305d-4f48-9991-f3a414503260"
               x1="256.2543"
               y1="46.6151"
               x2="253.2543"
               y2="46.6151"/>
         <line class="uuid-7e6745ad-fd53-4a68-b5fa-3e0b790c3207"
               x1="245.9585"
               y1="46.6151"
               x2="235.0147"
               y2="46.6151"/>
         <line class="uuid-77328057-305d-4f48-9991-f3a414503260"
               x1="231.3668"
               y1="46.6151"
               x2="228.3668"
               y2="46.6151"/>
      </g>
   </g>
   <g id="uuid-1b57a937-5392-4ca8-88b2-022b8e97a22d" data-name="Parts">
      <g id="uuid-99288801-f0b7-4659-94e3-85169c995f71" data-name="Rectifier">
         <g class="uuid-b388e550-46e2-458a-adad-a267672b295c">
            <rect class="uuid-38ed43a7-02a4-4999-be78-aed938378ddf"
                  x="108.6584"
                  y="29.6628"
                  width="34.0183"
                  height="34.0183"/>
            <g class="uuid-00871549-a564-484e-a82c-a1e92d378702">
               <rect class="uuid-52cebd92-8759-4a9b-b77e-98d5f76e9002"
                     x="108.6584"
                     y="29.6628"
                     width="34.0183"
                     height="34.0183"/>
               <line class="uuid-52cebd92-8759-4a9b-b77e-98d5f76e9002"
                     x1="142.674"
                     y1="29.6605"
                     x2="108.6566"
                     y2="63.6788"/>
            </g>
            <line class="uuid-52cebd92-8759-4a9b-b77e-98d5f76e9002"
                  x1="138.956"
                  y1="56.2369"
                  x2="129.3931"
                  y2="56.2369"/>
            <line class="uuid-52cebd92-8759-4a9b-b77e-98d5f76e9002"
                  x1="131.6446"
                  y1="58.363"
                  x2="129.3937"
                  y2="58.363"/>
            <line class="uuid-52cebd92-8759-4a9b-b77e-98d5f76e9002"
                  x1="135.3002"
                  y1="58.363"
                  x2="133.0494"
                  y2="58.363"/>
            <line class="uuid-52cebd92-8759-4a9b-b77e-98d5f76e9002"
                  x1="138.956"
                  y1="58.363"
                  x2="136.7051"
                  y2="58.363"/>
            <g class="uuid-4e7876b5-0d9c-4170-9ff7-20a78748e0a9">
               <path class="uuid-52cebd92-8759-4a9b-b77e-98d5f76e9002"
                     d="m112.4106,35.5614c.1332-1.1935,1.0858-2.0061,2.1261-2.0061,1.0413,0,1.871.5301,2.1261,2.0061.2551,1.476,1.2322,2.0042,2.1261,2.0042s2.0175-.8297,2.1261-2.0042"/>
            </g>
         </g>
      </g>
      <g id="uuid-3fc3216b-1eba-4ce1-9634-baba25437574" data-name="Artwork 13">
         <g class="uuid-01c9333d-c625-4067-b418-4f0acaec4bc1">
            <g class="uuid-f31f5fc0-8cc8-41c1-b510-3282ee38f57c">
               <path class="uuid-6ac3c993-e2ce-44a4-b1d9-9c0419f8d568"
                     d="m40.9675,44.6812c1.104,0,2,.896,2,2s-.896,2-2,2-2-.896-2-2,.896-2,2-2"/>
               <circle class="uuid-ad3047ba-7174-4ad0-83fd-0bf1d22fd0ab"
                       cx="40.9675"
                       cy="46.6812"
                       r="2"/>
            </g>
         </g>
      </g>
      <g id="uuid-cfc9474b-543a-4222-8932-6f4f4b250b08"
         data-name="Artwork 20 no white">
         <g class="uuid-648a75ab-3f4f-4c8b-912a-67c7df23c0ad">
            <g class="uuid-56214916-a5f9-4a76-962b-eb002e71783a">
               <line class="uuid-ad3047ba-7174-4ad0-83fd-0bf1d22fd0ab"
                     x1="71.5911"
                     y1="53.4581"
                     x2="86.2211"
                     y2="46.6921"/>
               <path d="m86.221,47.6964h0c-.55,0-1-.45-1-1,0-.551.45-1,1-1s1,.449,1,1c0,.55-.45,1-1,1"/>
               <path d="m71.5911,47.6964h0c-.55,0-1-.45-1-1,0-.551.45-1,1-1s1,.449,1,1c0,.55-.45,1-1,1"/>
            </g>
         </g>
      </g>
      <g id="uuid-4f027256-c3b4-4de5-aa28-e581c9a80fc0" data-name="Artwork 13">
         <g class="uuid-dd725120-21e0-455d-af45-176286d38aaa">
            <g class="uuid-1a60756a-b4d9-4741-a7a2-862c85604ebe">
               <path class="uuid-6ac3c993-e2ce-44a4-b1d9-9c0419f8d568"
                     d="m225.9907,44.6155c1.104,0,2,.896,2,2s-.896,2-2,2-2-.896-2-2,.896-2,2-2"/>
               <circle class="uuid-ad3047ba-7174-4ad0-83fd-0bf1d22fd0ab"
                       cx="225.9907"
                       cy="46.6155"
                       r="2"/>
            </g>
         </g>
      </g>
      <g id="uuid-295f846f-0b3f-45d6-b205-d88c37d3736d" data-name="Artwork 8">
         <g class="uuid-f170558c-1435-4daa-b296-7504995e8e7f">
            <g class="uuid-61268478-eb67-483a-ba8e-0c09a7b40c50">
               <line class="uuid-fec5c16a-b49e-46c7-8785-1d7964e9c754"
                     x1="40.5535"
                     y1="94.0947"
                     x2="40.5535"
                     y2="79.3413"/>
               <line class="uuid-595a6e4c-f5c1-474e-a87d-5a8ad28065b2"
                     x1="38.5354"
                     y1="90.9604"
                     x2="38.5354"
                     y2="82.4758"/>
            </g>
            <line class="uuid-0002588b-c086-4b98-82ac-3860044dddb8"
                  x1="40.3197"
                  y1="86.7099"
                  x2="51.3006"
                  y2="86.7099"/>
            <g class="uuid-ead41d41-3de5-4bc4-836a-f553af2ba25f">
               <line class="uuid-fec5c16a-b49e-46c7-8785-1d7964e9c754"
                     x1="53.3186"
                     y1="94.0868"
                     x2="53.3186"
                     y2="79.3334"/>
            </g>
            <line class="uuid-595a6e4c-f5c1-474e-a87d-5a8ad28065b2"
                  x1="51.3005"
                  y1="90.9521"
                  x2="51.3005"
                  y2="82.4675"/>
         </g>
      </g>
      <g id="uuid-507abb39-7a6d-46c9-8957-52cb48195788"
         data-name="Artwork 20 no white">
         <g class="uuid-3a85ee2a-a7d7-4157-b8ad-a95dbde35f13">
            <g class="uuid-063c55b6-213f-492f-90ed-73da5d26f4a0">
               <line class="uuid-ad3047ba-7174-4ad0-83fd-0bf1d22fd0ab"
                     x1="71.5911"
                     y1="93.4879"
                     x2="86.2211"
                     y2="86.7219"/>
               <path d="m86.221,87.7262h0c-.55,0-1-.45-1-1,0-.551.45-1,1-1s1,.449,1,1c0,.55-.45,1-1,1"/>
               <path d="m71.5911,87.7262h0c-.55,0-1-.45-1-1,0-.551.45-1,1-1s1,.449,1,1c0,.55-.45,1-1,1"/>
            </g>
         </g>
      </g>
   </g>
   <g id="uuid-544a9ee0-f49c-4c7f-bc15-023e1d2b139f" data-name="Text">
      <text class="uuid-81415fbe-19cf-4e6f-9da7-05aa2b369652"
            transform="translate(98.8751 24.6715)">
         <tspan x="0" y="0">RECTIFIER</tspan>
      </text>
      <text class="uuid-81415fbe-19cf-4e6f-9da7-05aa2b369652"
            transform="translate(205.4371 34.6145)">
         <tspan x="0" y="0">OUTPUT</tspan>
      </text>
      <text class="uuid-81415fbe-19cf-4e6f-9da7-05aa2b369652"
            transform="translate(14.5786 24.6718)">
         <tspan x="0" y="0">RECTIFIER</tspan>
         <tspan x="10.2783" y="12">MAINS</tspan>
      </text>
      <g id="uuid-aa41519b-bc2a-48a9-aa31-a8d79d64bd0f" data-name="Artwork 30">
         <g class="uuid-d0780cfc-1bc4-4766-ba23-b8591a1e276b">
            <g class="uuid-8a65b3c9-fb4c-4b4c-8272-c27c63772781">
               <line class="uuid-ad3047ba-7174-4ad0-83fd-0bf1d22fd0ab"
                     x1="176.0441"
                     y1="41.0219"
                     x2="176.0441"
                     y2="52.5749"/>
            </g>
            <polygon class="uuid-38ed43a7-02a4-4999-be78-aed938378ddf"
                     points="165.1084 51.8571 175.4034 46.6871 165.1084 41.5191 165.1084 51.8571"/>
            <path d="m165.484,42.1276l9.083,4.56-9.083,4.561v-9.121Zm-.75,10.337l11.506-5.777-11.506-5.776v11.553Z"/>
         </g>
      </g>
      <g>
         <path class="uuid-0504f3c1-baf4-4857-9261-7dfe27ea20f4"
               d="m15.6509,65.2322v-7.1582h5.3076v1.2109h-3.8623v1.5869h3.5938v1.2061h-3.5938v1.9482h3.999v1.2061h-5.4443Z"/>
         <path class="uuid-0504f3c1-baf4-4857-9261-7dfe27ea20f4"
               d="m21.5933,65.2322l2.4463-3.7354-2.2168-3.4229h1.6895l1.4355,2.2998,1.4062-2.2998h1.6748l-2.2266,3.4766,2.4463,3.6816h-1.7432l-1.5869-2.4756-1.5918,2.4756h-1.7334Z"/>
         <path class="uuid-0504f3c1-baf4-4857-9261-7dfe27ea20f4"
               d="m30.6021,65.2322v-5.9473h-2.124v-1.2109h5.6885v1.2109h-2.1191v5.9473h-1.4453Z"/>
         <path class="uuid-0504f3c1-baf4-4857-9261-7dfe27ea20f4"
               d="m35.0991,65.2322v-7.1582h5.3076v1.2109h-3.8623v1.5869h3.5938v1.2061h-3.5938v1.9482h3.999v1.2061h-5.4443Z"/>
         <path class="uuid-0504f3c1-baf4-4857-9261-7dfe27ea20f4"
               d="m41.774,65.2322v-7.1582h3.042c.7651,0,1.3208.0645,1.6675.1929s.624.3574.8325.686.3125.7046.3125,1.1279c0,.5371-.1577.9805-.4736,1.3306s-.7876.5703-1.416.6616c.3125.1821.5703.3823.7739.6006s.4775.6055.8228,1.1621l.874,1.3965h-1.7285l-1.0449-1.5576c-.3711-.5566-.625-.9072-.7617-1.0522s-.2817-.2441-.4346-.2979-.3955-.0806-.7275-.0806h-.293v2.9883h-1.4453Zm1.4453-4.1309h1.0693c.6934,0,1.1265-.0293,1.2988-.0879s.3076-.1597.4053-.3027.1465-.3223.1465-.5371c0-.2407-.0645-.4355-.1929-.5835s-.3101-.2417-.5444-.2808c-.1172-.0161-.4688-.0244-1.0547-.0244h-1.1279v1.8164Z"/>
         <path class="uuid-0504f3c1-baf4-4857-9261-7dfe27ea20f4"
               d="m49.0054,65.2322v-7.1582h1.4062l2.9297,4.7803v-4.7803h1.3428v7.1582h-1.4502l-2.8857-4.668v4.668h-1.3428Z"/>
         <path class="uuid-0504f3c1-baf4-4857-9261-7dfe27ea20f4"
               d="m62.6675,65.2322h-1.5723l-.625-1.626h-2.8613l-.5908,1.626h-1.5332l2.7881-7.1582h1.5283l2.8662,7.1582Zm-2.6611-2.832l-.9863-2.6562-.9668,2.6562h1.9531Z"/>
         <path class="uuid-0504f3c1-baf4-4857-9261-7dfe27ea20f4"
               d="m63.4732,65.2322v-7.0996h1.4453v5.8936h3.5938v1.2061h-5.0391Z"/>
         <path class="uuid-0504f3c1-baf4-4857-9261-7dfe27ea20f4"
               d="m18.9907,70.074h2.8613c.5664,0,.9888.0234,1.2671.0708s.5273.1455.7471.2954.4028.3491.5493.5981.2197.5283.2197.8374c0,.3354-.0903.6431-.271.9229s-.4258.4897-.7349.6299c.436.127.7715.3433,1.0059.6494s.3516.6655.3516,1.0791c0,.3257-.0757.6421-.2271.9497s-.3579.5532-.6201.7373-.585.2969-.9692.3394c-.2407.0259-.8218.0425-1.7432.0488h-2.4365v-7.1582Zm1.4453,1.1914v1.6553h.9473c.563,0,.9131-.0083,1.0498-.0244.2476-.0293.4419-.1147.5835-.2563s.2124-.3281.2124-.5591c0-.2212-.061-.4014-.1831-.5396s-.3037-.2222-.5444-.2515c-.1431-.0161-.5552-.0244-1.2354-.0244h-.8301Zm0,2.8467v1.9141h1.3379c.521,0,.8511-.0146.9912-.0439.2148-.0391.3896-.1343.5249-.2856s.2026-.354.2026-.6079c0-.2148-.0522-.397-.1562-.5469s-.2549-.2588-.4517-.3271-.624-.1025-1.2817-.1025h-1.167Z"/>
         <path class="uuid-0504f3c1-baf4-4857-9261-7dfe27ea20f4"
               d="m32.6626,77.2322h-1.5723l-.625-1.626h-2.8613l-.5908,1.626h-1.5332l2.7881-7.1582h1.5283l2.8662,7.1582Zm-2.6611-2.832l-.9863-2.6562-.9668,2.6562h1.9531Z"/>
         <path class="uuid-0504f3c1-baf4-4857-9261-7dfe27ea20f4"
               d="m35.0406,77.2322v-5.9473h-2.124v-1.2109h5.6885v1.2109h-2.1191v5.9473h-1.4453Z"/>
         <path class="uuid-0504f3c1-baf4-4857-9261-7dfe27ea20f4"
               d="m41.149,77.2322v-5.9473h-2.124v-1.2109h5.6885v1.2109h-2.1191v5.9473h-1.4453Z"/>
         <path class="uuid-0504f3c1-baf4-4857-9261-7dfe27ea20f4"
               d="m45.646,77.2322v-7.1582h5.3076v1.2109h-3.8623v1.5869h3.5938v1.2061h-3.5938v1.9482h3.999v1.2061h-5.4443Z"/>
         <path class="uuid-0504f3c1-baf4-4857-9261-7dfe27ea20f4"
               d="m52.3208,77.2322v-7.1582h3.042c.7651,0,1.3208.0645,1.6675.1929s.624.3574.8325.686.3125.7046.3125,1.1279c0,.5371-.1577.9805-.4736,1.3306s-.7876.5703-1.416.6616c.3125.1821.5703.3823.7739.6006s.4775.6055.8228,1.1621l.874,1.3965h-1.7285l-1.0449-1.5576c-.3711-.5566-.625-.9072-.7617-1.0522s-.2817-.2441-.4346-.2979-.3955-.0806-.7275-.0806h-.293v2.9883h-1.4453Zm1.4453-4.1309h1.0693c.6934,0,1.1265-.0293,1.2988-.0879s.3076-.1597.4053-.3027.1465-.3223.1465-.5371c0-.2407-.0645-.4355-.1929-.5835s-.3101-.2417-.5444-.2808c-.1172-.0161-.4688-.0244-1.0547-.0244h-1.1279v1.8164Z"/>
         <path class="uuid-0504f3c1-baf4-4857-9261-7dfe27ea20f4"
               d="m61.4175,77.2322v-3.0127l-2.6221-4.1455h1.6943l1.6846,2.832,1.6504-2.832h1.665l-2.6318,4.1553v3.0029h-1.4404Z"/>
      </g>
   </g>
</svg>
