<?xml version="1.0" encoding="UTF-8"?>
<svg xmlns="http://www.w3.org/2000/svg"
     width="10mm"
     height="10mm"
     viewBox="0 0 28.3465 28.3465">
   <defs>
      <style>
      .cls-1 {
        fill: none;
        stroke-width: .25px;
      }

      .cls-1, .cls-2 {
        stroke: #000;
        stroke-linecap: round;
        stroke-linejoin: round;
      }

      .cls-2 {
        fill: #e3e8d6;
        stroke-width: .3978px;
      }
    </style>
   </defs>
   <g id="Layer_1" data-name="Layer 1">
      <g id="LINE">
         <line class="cls-1"
               x1="11.0511"
               y1="11.6004"
               x2="5.8392"
               y2="11.6004"/>
      </g>
      <g id="LINE-2" data-name="LINE">
         <line class="cls-1"
               x1="11.0511"
               y1="12.9034"
               x2="9.0967"
               y2="12.9034"/>
      </g>
      <g id="LINE-3" data-name="LINE">
         <line class="cls-1"
               x1="17.8265"
               y1="16.8123"
               x2="23.0384"
               y2="16.8123"/>
      </g>
      <g id="LINE-4" data-name="LINE">
         <line class="cls-1"
               x1="17.8265"
               y1="15.5093"
               x2="19.781"
               y2="15.5093"/>
      </g>
      <g id="LWPOLYLINE">
         <rect class="cls-1"
               x="3.8848"
               y="3.7826"
               width="20.8475"
               height="20.8475"
               rx="2.6059"
               ry="2.6059"/>
      </g>
      <g id="LWPOLYLINE-2" data-name="LWPOLYLINE">
         <rect class="cls-1"
               x="8.4452"
               y="8.2127"
               width="11.9873"
               height="11.857"
               rx="1.9544"
               ry="1.9544"/>
      </g>
      <g id="LWPOLYLINE-3" data-name="LWPOLYLINE">
         <polygon class="cls-1"
                  points="11.0511 16.8123 5.8392 16.8123 8.4452 11.6004 11.0511 16.8123"/>
      </g>
      <g id="LWPOLYLINE-4" data-name="LWPOLYLINE">
         <polygon class="cls-1"
                  points="17.8265 11.6004 23.0384 11.6004 20.4325 16.8123 17.8265 11.6004"/>
      </g>
      <g id="CIRCLE">
         <path class="cls-2"
               d="M11.7026,14.8578c0-1.4392,1.1667-2.6059,2.6059-2.6059s2.6059,1.1667,2.6059,2.6059-1.1667,2.6059-2.6059,2.6059-2.6059-1.1667-2.6059-2.6059h0Z"/>
      </g>
   </g>
   <g id="White"/>
   <g id="Layer_3" data-name="Layer 3"/>
</svg>
