<?xml version="1.0" encoding="UTF-8"?>
<svg xmlns="http://www.w3.org/2000/svg"
     xmlns:xlink="http://www.w3.org/1999/xlink"
     width="95mm"
     height="37mm"
     viewBox="0 0 269.2913 104.8819">
   <defs>
      <style>
      .uuid-34c54f94-9081-442c-91a8-6c7ed447fdbb, .uuid-7e1fb521-f210-467f-8732-b5c0a780b03c {
        fill: #fff;
      }

      .uuid-2441e109-1ce4-43b3-abe2-b5a1ccffd5d2 {
        stroke-width: 1.2522px;
      }

      .uuid-2441e109-1ce4-43b3-abe2-b5a1ccffd5d2, .uuid-2b5491b0-eaad-49da-9710-866cf46500be, .uuid-b445f24f-b78b-4bca-8971-425d28801b97, .uuid-76062b77-f99c-4f58-8fe3-64de68db88e5, .uuid-39927b06-10ed-46f0-8291-03d9ab54d44d, .uuid-ad96a6a0-8c49-46d7-b49e-fdc9aae89330, .uuid-2b862290-69f2-4a53-bab2-f3fc987b959d, .uuid-1012c3b3-ced4-4982-89e2-92cba9e66ffa, .uuid-84105c10-2b6a-40db-8998-05332c21e1f9, .uuid-e534198d-382b-4876-9cb4-b9a91731cd42, .uuid-a593dc2c-1d27-4ec9-8b3e-eacdc44e0e0b, .uuid-dce12e14-5e43-46b4-b52f-f02b4455542e {
        fill: none;
      }

      .uuid-2441e109-1ce4-43b3-abe2-b5a1ccffd5d2, .uuid-2b5491b0-eaad-49da-9710-866cf46500be, .uuid-76062b77-f99c-4f58-8fe3-64de68db88e5, .uuid-39927b06-10ed-46f0-8291-03d9ab54d44d, .uuid-2b862290-69f2-4a53-bab2-f3fc987b959d, .uuid-1012c3b3-ced4-4982-89e2-92cba9e66ffa {
        stroke-miterlimit: 3;
      }

      .uuid-2441e109-1ce4-43b3-abe2-b5a1ccffd5d2, .uuid-b445f24f-b78b-4bca-8971-425d28801b97, .uuid-76062b77-f99c-4f58-8fe3-64de68db88e5, .uuid-39927b06-10ed-46f0-8291-03d9ab54d44d, .uuid-ad96a6a0-8c49-46d7-b49e-fdc9aae89330, .uuid-2b862290-69f2-4a53-bab2-f3fc987b959d, .uuid-1012c3b3-ced4-4982-89e2-92cba9e66ffa, .uuid-e534198d-382b-4876-9cb4-b9a91731cd42, .uuid-a593dc2c-1d27-4ec9-8b3e-eacdc44e0e0b, .uuid-dce12e14-5e43-46b4-b52f-f02b4455542e {
        stroke: #000;
      }

      .uuid-2b5491b0-eaad-49da-9710-866cf46500be {
        stroke: #c6c6c6;
        stroke-width: 5px;
      }

      .uuid-7e1fb521-f210-467f-8732-b5c0a780b03c {
        fill-rule: evenodd;
      }

      .uuid-d0c7ddf9-abc2-4df6-b19b-c92c5154166f {
        fill: #57b959;
      }

      .uuid-275a7f4d-6173-4033-9235-4c6db4e2a513, .uuid-5e5e6258-8bd0-429e-a534-0c2fdebdd979 {
        fill: #01889C;
      }

      .uuid-e6c91175-5196-4fd1-9d0f-772938834aa0 {
        clip-path: url(#uuid-66f6bcfa-824d-4aed-84e3-3e45a6748852);
      }

      .uuid-8bc8c49f-c4a0-48ec-94b7-149ef9a32f33 {
        clip-path: url(#uuid-36bd2010-6283-45a3-81b3-76ed1ed3d8a4);
      }

      .uuid-ecb68219-c836-4a88-8f3e-4997005432a1 {
        clip-path: url(#uuid-cffb79c5-2592-464c-800b-d1fc5798b79b);
      }

      .uuid-7159d933-16e0-480b-afc4-aa51fb9e7a86 {
        clip-path: url(#uuid-57cbdb41-4c38-45bd-86b0-258e99ac6d58);
      }

      .uuid-b445f24f-b78b-4bca-8971-425d28801b97, .uuid-39927b06-10ed-46f0-8291-03d9ab54d44d, .uuid-ad96a6a0-8c49-46d7-b49e-fdc9aae89330, .uuid-e534198d-382b-4876-9cb4-b9a91731cd42, .uuid-a593dc2c-1d27-4ec9-8b3e-eacdc44e0e0b, .uuid-dce12e14-5e43-46b4-b52f-f02b4455542e {
        stroke-width: .75px;
      }

      .uuid-b445f24f-b78b-4bca-8971-425d28801b97, .uuid-ad96a6a0-8c49-46d7-b49e-fdc9aae89330, .uuid-e534198d-382b-4876-9cb4-b9a91731cd42, .uuid-a593dc2c-1d27-4ec9-8b3e-eacdc44e0e0b, .uuid-dce12e14-5e43-46b4-b52f-f02b4455542e {
        stroke-miterlimit: 10;
      }

      .uuid-9270baea-4523-458b-a0e5-b02a7040215b {
        clip-path: url(#uuid-4aae5303-62de-4146-9a76-9f474dd45a8e);
      }

      .uuid-5518d905-0a23-44cd-a71b-1e35130d534c {
        clip-path: url(#uuid-49a40099-ce9f-4a42-a57a-7709e1ebc049);
      }

      .uuid-48fd902d-77f5-4bb2-bb39-ae9aa608f075 {
        clip-path: url(#uuid-b334bc82-ba48-47aa-bfd0-a3853b3a4fcf);
      }

      .uuid-76062b77-f99c-4f58-8fe3-64de68db88e5 {
        stroke-dasharray: 0 0 2.0034 1.0017;
      }

      .uuid-76062b77-f99c-4f58-8fe3-64de68db88e5, .uuid-1012c3b3-ced4-4982-89e2-92cba9e66ffa {
        stroke-width: .7513px;
      }

      .uuid-d1827d8b-a1e9-4a9b-9dc3-2a1e172fd5d2 {
        clip-path: url(#uuid-931d2ba4-f12b-4eca-8f75-ba822d8cf9b0);
      }

      .uuid-7ee30d1f-efbe-407d-a3e8-5b3ccbf46973 {
        clip-path: url(#uuid-43f20f93-8d31-44dc-8b06-6bdfc6097951);
      }

      .uuid-ad96a6a0-8c49-46d7-b49e-fdc9aae89330 {
        stroke-dasharray: 0 0 5.9636 5.9636;
      }

      .uuid-8a0b7dcf-3f34-4017-b301-63ec8549ed91 {
        clip-path: url(#uuid-a197ee1d-3444-4cca-866c-0e8cba20d431);
      }

      .uuid-2b862290-69f2-4a53-bab2-f3fc987b959d {
        stroke-width: .7087px;
      }

      .uuid-e38a463a-6c97-4596-96cf-d191e2845ee0 {
        clip-path: url(#uuid-916600ab-9788-4ead-985f-5f8bc325b35b);
      }

      .uuid-0d07e407-fcc4-495d-91ea-2d62dc251a28 {
        clip-path: url(#uuid-61a3db8e-38a4-40de-b91c-fd3c9fa92ebd);
      }

      .uuid-2400a39d-3a7b-4814-9662-c92b19bdaa50 {
        clip-path: url(#uuid-87b3a3a9-25e9-49bb-9abe-2606baba645d);
      }

      .uuid-e534198d-382b-4876-9cb4-b9a91731cd42 {
        stroke-dasharray: 0 0 6.8059 6.8059;
      }

      .uuid-b547afed-1515-4786-a448-1b5ec230b4f4 {
        clip-path: url(#uuid-1e93e61a-6b04-4364-97e2-fcfc17de5193);
      }

      .uuid-a593dc2c-1d27-4ec9-8b3e-eacdc44e0e0b {
        stroke-dasharray: 0 0 7.2959 7.2959;
      }

      .uuid-8eee3763-33b9-47d7-ac48-32beb99e13af {
        clip-path: url(#uuid-86c7f101-8f7b-46c6-898a-cd6c6fef5674);
      }

      .uuid-dce12e14-5e43-46b4-b52f-f02b4455542e {
        stroke-dasharray: 0 0 6 6;
      }

      .uuid-f77715ad-f5a4-4a13-aff8-2231ced62102 {
        clip-path: url(#uuid-090abb02-1b33-45d7-91c7-87996adee5b9);
      }

      .uuid-d267bad0-1c33-4381-98c5-a38ec4b20271 {
        fill: #c6c6c6;
      }

      .uuid-6dfc9741-fb4d-4938-abde-1ed220d3cd20 {
        clip-path: url(#uuid-7319073b-db99-4c96-9680-cec373f6e47f);
      }

      .uuid-bebff8c4-f834-42e2-afdf-f69111f00cd0 {
        clip-path: url(#uuid-1e1dbb3e-7c47-4730-966c-4d658e7550d9);
      }

      .uuid-5e5e6258-8bd0-429e-a534-0c2fdebdd979 {
        font-family: Arial-BoldMT, Arial;
        font-size: 10px;
        font-weight: 700;
      }
    </style>
      <clipPath id="uuid-49a40099-ce9f-4a42-a57a-7709e1ebc049">
         <rect class="uuid-84105c10-2b6a-40db-8998-05332c21e1f9"
               x="164.2417"
               y="40.8121"
               width="12.4579"
               height="12.1509"/>
      </clipPath>
      <clipPath id="uuid-4aae5303-62de-4146-9a76-9f474dd45a8e">
         <rect class="uuid-84105c10-2b6a-40db-8998-05332c21e1f9"
               x="164.2417"
               y="40.812"
               width="12.458"
               height="12.151"/>
      </clipPath>
      <clipPath id="uuid-1e93e61a-6b04-4364-97e2-fcfc17de5193">
         <rect class="uuid-84105c10-2b6a-40db-8998-05332c21e1f9"
               x="107.9488"
               y="26.827"
               width="35.4357"
               height="39.688"/>
      </clipPath>
      <clipPath id="uuid-b334bc82-ba48-47aa-bfd0-a3853b3a4fcf">
         <rect class="uuid-84105c10-2b6a-40db-8998-05332c21e1f9"
               x="107.9488"
               y="26.827"
               width="35.4357"
               height="39.688"/>
      </clipPath>
      <clipPath id="uuid-86c7f101-8f7b-46c6-898a-cd6c6fef5674">
         <rect class="uuid-84105c10-2b6a-40db-8998-05332c21e1f9"
               x="107.9488"
               y="26.827"
               width="35.4357"
               height="39.688"/>
      </clipPath>
      <clipPath id="uuid-87b3a3a9-25e9-49bb-9abe-2606baba645d">
         <rect class="uuid-84105c10-2b6a-40db-8998-05332c21e1f9"
               x="37.9051"
               y="43.6183"
               width="6.125"
               height="6.125"/>
      </clipPath>
      <clipPath id="uuid-090abb02-1b33-45d7-91c7-87996adee5b9">
         <rect class="uuid-84105c10-2b6a-40db-8998-05332c21e1f9"
               x="37.9051"
               y="43.6183"
               width="6.125"
               height="6.125"/>
      </clipPath>
      <clipPath id="uuid-61a3db8e-38a4-40de-b91c-fd3c9fa92ebd">
         <rect class="uuid-84105c10-2b6a-40db-8998-05332c21e1f9"
               x="70.591"
               y="38.5466"
               width="16.63"
               height="16.2683"/>
      </clipPath>
      <clipPath id="uuid-57cbdb41-4c38-45bd-86b0-258e99ac6d58">
         <rect class="uuid-84105c10-2b6a-40db-8998-05332c21e1f9"
               x="70.591"
               y="38.5469"
               width="16.63"
               height="16.268"/>
      </clipPath>
      <clipPath id="uuid-66f6bcfa-824d-4aed-84e3-3e45a6748852">
         <rect class="uuid-84105c10-2b6a-40db-8998-05332c21e1f9"
               x="191.085"
               y="38.5466"
               width="16.63"
               height="16.2683"/>
      </clipPath>
      <clipPath id="uuid-916600ab-9788-4ead-985f-5f8bc325b35b">
         <rect class="uuid-84105c10-2b6a-40db-8998-05332c21e1f9"
               x="191.085"
               y="38.5469"
               width="16.63"
               height="16.268"/>
      </clipPath>
      <clipPath id="uuid-931d2ba4-f12b-4eca-8f75-ba822d8cf9b0">
         <rect class="uuid-84105c10-2b6a-40db-8998-05332c21e1f9"
               x="222.9283"
               y="43.5526"
               width="6.125"
               height="6.125"/>
      </clipPath>
      <clipPath id="uuid-43f20f93-8d31-44dc-8b06-6bdfc6097951">
         <rect class="uuid-84105c10-2b6a-40db-8998-05332c21e1f9"
               x="222.9283"
               y="43.5526"
               width="6.125"
               height="6.125"/>
      </clipPath>
      <clipPath id="uuid-a197ee1d-3444-4cca-866c-0e8cba20d431">
         <rect class="uuid-84105c10-2b6a-40db-8998-05332c21e1f9"
               x="37.9171"
               y="79.3333"
               width="15.6504"
               height="14.7535"/>
      </clipPath>
      <clipPath id="uuid-36bd2010-6283-45a3-81b3-76ed1ed3d8a4">
         <rect class="uuid-84105c10-2b6a-40db-8998-05332c21e1f9"
               x="37.9171"
               y="79.3334"
               width="15.6509"
               height="14.7534"/>
      </clipPath>
      <clipPath id="uuid-7319073b-db99-4c96-9680-cec373f6e47f">
         <rect class="uuid-84105c10-2b6a-40db-8998-05332c21e1f9"
               x="37.9171"
               y="79.3334"
               width="15.6509"
               height="14.7534"/>
      </clipPath>
      <clipPath id="uuid-cffb79c5-2592-464c-800b-d1fc5798b79b">
         <rect class="uuid-84105c10-2b6a-40db-8998-05332c21e1f9"
               x="70.591"
               y="78.5764"
               width="16.63"
               height="16.2683"/>
      </clipPath>
      <clipPath id="uuid-1e1dbb3e-7c47-4730-966c-4d658e7550d9">
         <rect class="uuid-84105c10-2b6a-40db-8998-05332c21e1f9"
               x="70.591"
               y="78.5767"
               width="16.63"
               height="16.268"/>
      </clipPath>
   </defs>
   <g id="uuid-046a2e1a-67fb-4b06-a79a-a94c3ec7e3c1" data-name="Paths">
      <g>
         <line class="uuid-2b5491b0-eaad-49da-9710-866cf46500be"
               x1="40.9676"
               y1="46.7428"
               x2="257.1151"
               y2="46.7428"/>
         <polygon class="uuid-d267bad0-1c33-4381-98c5-a38ec4b20271"
                  points="255.6561 51.7292 264.2913 46.7428 255.6561 41.7565 255.6561 51.7292"/>
      </g>
      <g id="uuid-23f3ac0e-dcbd-4ea0-a85f-e5a317343574" data-name="Artwork 30">
         <g class="uuid-5518d905-0a23-44cd-a71b-1e35130d534c">
            <g class="uuid-9270baea-4523-458b-a0e5-b02a7040215b">
               <line class="uuid-39927b06-10ed-46f0-8291-03d9ab54d44d"
                     x1="176.0441"
                     y1="41.1666"
                     x2="176.0441"
                     y2="52.7196"/>
            </g>
            <path d="m165.484,42.2723l9.083,4.56-9.083,4.561v-9.121Zm-.75,10.337l11.506-5.777-11.506-5.776v11.553Z"/>
         </g>
      </g>
      <g>
         <polyline class="uuid-2b5491b0-eaad-49da-9710-866cf46500be"
                   points="242.3105 47.671 242.3105 86.7721 32.9185 86.7721"/>
         <polygon class="uuid-d267bad0-1c33-4381-98c5-a38ec4b20271"
                  points="34.3775 81.7858 25.7422 86.7721 34.3775 91.7584 34.3775 81.7858"/>
      </g>
      <path class="uuid-d0c7ddf9-abc2-4df6-b19b-c92c5154166f"
            d="m193.5261,61.1121l-1.1797-.9141c.375-.4219.7656-.8252,1.1719-1.2109.1611-.1562.2627-.2549.3047-.2969-.1299-.0205-.5029-.1064-1.1172-.2578-.4424-.1094-.7344-.1895-.875-.2422l.4609-1.375c.6826.2764,1.292.5811,1.8281.9141-.125-.8486-.1875-1.541-.1875-2.0781h1.3906c0,.3809-.0703,1.0781-.2109,2.0938.1045-.041.3281-.1426.6719-.3047.4688-.2129.9014-.3955,1.2969-.5469l.4141,1.4141c-.5781.1309-1.2471.2578-2.0078.3828l.9375,1.0547c.1875.2139.3359.3887.4453.5234l-1.1953.7891-1.0547-1.7422c-.3174.5625-.6826,1.1621-1.0938,1.7969Z"/>
   </g>
   <g id="uuid-8f462c7e-90d5-486f-adff-d97688654181" data-name="Diagrams">
      <path class="uuid-39927b06-10ed-46f0-8291-03d9ab54d44d"
            d="m191.8308,46.7428h-105.6205"/>
      <path class="uuid-39927b06-10ed-46f0-8291-03d9ab54d44d"
            d="m71.3225,46.7428h-29.4537"/>
      <g>
         <line class="uuid-b445f24f-b78b-4bca-8971-425d28801b97"
               x1="87.221"
               y1="86.7721"
               x2="90.221"
               y2="86.7721"/>
         <line class="uuid-ad96a6a0-8c49-46d7-b49e-fdc9aae89330"
               x1="96.1846"
               y1="86.7721"
               x2="236.3288"
               y2="86.7721"/>
         <polyline class="uuid-b445f24f-b78b-4bca-8971-425d28801b97"
                   points="239.3106 86.7721 242.3106 86.7721 242.3106 83.7721"/>
         <line class="uuid-e534198d-382b-4876-9cb4-b9a91731cd42"
               x1="242.3106"
               y1="76.9663"
               x2="242.3106"
               y2="53.1458"/>
         <line class="uuid-b445f24f-b78b-4bca-8971-425d28801b97"
               x1="242.3106"
               y1="49.7429"
               x2="242.3106"
               y2="46.7429"/>
      </g>
      <g>
         <line class="uuid-b445f24f-b78b-4bca-8971-425d28801b97"
               x1="256.2543"
               y1="46.6151"
               x2="253.2543"
               y2="46.6151"/>
         <line class="uuid-a593dc2c-1d27-4ec9-8b3e-eacdc44e0e0b"
               x1="245.9585"
               y1="46.6151"
               x2="235.0147"
               y2="46.6151"/>
         <line class="uuid-b445f24f-b78b-4bca-8971-425d28801b97"
               x1="231.3668"
               y1="46.6151"
               x2="228.3668"
               y2="46.6151"/>
      </g>
      <line class="uuid-dce12e14-5e43-46b4-b52f-f02b4455542e"
            x1="71.3225"
            y1="86.7726"
            x2="53.2496"
            y2="86.7726"/>
   </g>
   <g id="uuid-a48ff1c7-3456-4a40-8fda-65fdf36fa786" data-name="Symbols">
      <path class="uuid-39927b06-10ed-46f0-8291-03d9ab54d44d"
            d="m225.9908,46.7428h-19.0836"/>
      <g id="uuid-66dbe823-3882-4f57-b4ef-c998ce01ea3b" data-name="Rectifier">
         <g class="uuid-b547afed-1515-4786-a448-1b5ec230b4f4">
            <rect class="uuid-34c54f94-9081-442c-91a8-6c7ed447fdbb"
                  x="108.6584"
                  y="29.6628"
                  width="34.0183"
                  height="34.0183"/>
            <g class="uuid-48fd902d-77f5-4bb2-bb39-ae9aa608f075">
               <rect class="uuid-2b862290-69f2-4a53-bab2-f3fc987b959d"
                     x="108.6584"
                     y="29.6628"
                     width="34.0183"
                     height="34.0183"/>
               <line class="uuid-2b862290-69f2-4a53-bab2-f3fc987b959d"
                     x1="142.674"
                     y1="29.6605"
                     x2="108.6566"
                     y2="63.6788"/>
            </g>
            <line class="uuid-2b862290-69f2-4a53-bab2-f3fc987b959d"
                  x1="138.956"
                  y1="56.2369"
                  x2="129.3931"
                  y2="56.2369"/>
            <line class="uuid-2b862290-69f2-4a53-bab2-f3fc987b959d"
                  x1="131.6446"
                  y1="58.363"
                  x2="129.3937"
                  y2="58.363"/>
            <line class="uuid-2b862290-69f2-4a53-bab2-f3fc987b959d"
                  x1="135.3002"
                  y1="58.363"
                  x2="133.0494"
                  y2="58.363"/>
            <line class="uuid-2b862290-69f2-4a53-bab2-f3fc987b959d"
                  x1="138.956"
                  y1="58.363"
                  x2="136.7051"
                  y2="58.363"/>
            <g class="uuid-8eee3763-33b9-47d7-ac48-32beb99e13af">
               <path class="uuid-2b862290-69f2-4a53-bab2-f3fc987b959d"
                     d="m112.4106,35.5614c.1332-1.1935,1.0858-2.0061,2.1261-2.0061,1.0413,0,1.871.5301,2.1261,2.0061.2551,1.476,1.2322,2.0042,2.1261,2.0042s2.0175-.8297,2.1261-2.0042"/>
            </g>
         </g>
      </g>
      <g id="uuid-ff852353-2c31-4756-8706-93853496960d" data-name="Artwork 13">
         <g class="uuid-2400a39d-3a7b-4814-9662-c92b19bdaa50">
            <g class="uuid-f77715ad-f5a4-4a13-aff8-2231ced62102">
               <path class="uuid-7e1fb521-f210-467f-8732-b5c0a780b03c"
                     d="m40.9675,44.6812c1.104,0,2,.896,2,2s-.896,2-2,2-2-.896-2-2,.896-2,2-2"/>
               <circle class="uuid-39927b06-10ed-46f0-8291-03d9ab54d44d"
                       cx="40.9675"
                       cy="46.6812"
                       r="2"/>
            </g>
         </g>
      </g>
      <g id="uuid-2f6326a5-60fa-4658-8bf1-f92cd6a46fde"
         data-name="Artwork 20 no white">
         <g class="uuid-0d07e407-fcc4-495d-91ea-2d62dc251a28">
            <g class="uuid-7159d933-16e0-480b-afc4-aa51fb9e7a86">
               <line class="uuid-39927b06-10ed-46f0-8291-03d9ab54d44d"
                     x1="71.5911"
                     y1="53.4581"
                     x2="86.2211"
                     y2="46.6921"/>
               <path d="m86.221,47.6964h0c-.55,0-1-.45-1-1,0-.551.45-1,1-1s1,.449,1,1c0,.55-.45,1-1,1"/>
               <path d="m71.5911,47.6964h0c-.55,0-1-.45-1-1,0-.551.45-1,1-1s1,.449,1,1c0,.55-.45,1-1,1"/>
            </g>
         </g>
      </g>
      <g id="uuid-decfd92c-38be-4346-ba82-8627fbc29f8f"
         data-name="Artwork 20 no white">
         <g class="uuid-e6c91175-5196-4fd1-9d0f-772938834aa0">
            <g class="uuid-e38a463a-6c97-4596-96cf-d191e2845ee0">
               <line class="uuid-39927b06-10ed-46f0-8291-03d9ab54d44d"
                     x1="192.0851"
                     y1="53.4581"
                     x2="206.7151"
                     y2="46.6921"/>
               <path d="m206.715,47.6964h0c-.55,0-1-.45-1-1,0-.551.45-1,1-1s1,.449,1,1c0,.55-.45,1-1,1"/>
               <path d="m192.0851,47.6964h0c-.55,0-1-.45-1-1,0-.551.45-1,1-1s1,.449,1,1c0,.55-.45,1-1,1"/>
            </g>
         </g>
      </g>
      <g id="uuid-6c64db3d-3043-4c4b-a2e9-ff9c48dca524" data-name="Artwork 13">
         <g class="uuid-d1827d8b-a1e9-4a9b-9dc3-2a1e172fd5d2">
            <g class="uuid-7ee30d1f-efbe-407d-a3e8-5b3ccbf46973">
               <path class="uuid-7e1fb521-f210-467f-8732-b5c0a780b03c"
                     d="m225.9907,44.6155c1.104,0,2,.896,2,2s-.896,2-2,2-2-.896-2-2,.896-2,2-2"/>
               <circle class="uuid-39927b06-10ed-46f0-8291-03d9ab54d44d"
                       cx="225.9907"
                       cy="46.6155"
                       r="2"/>
            </g>
         </g>
      </g>
      <g id="uuid-6187aa08-f05b-4df5-8944-c14f936ce8d4" data-name="Artwork 8">
         <g class="uuid-8a0b7dcf-3f34-4017-b301-63ec8549ed91">
            <g class="uuid-8bc8c49f-c4a0-48ec-94b7-149ef9a32f33">
               <line class="uuid-1012c3b3-ced4-4982-89e2-92cba9e66ffa"
                     x1="40.5535"
                     y1="94.0947"
                     x2="40.5535"
                     y2="79.3413"/>
               <line class="uuid-2441e109-1ce4-43b3-abe2-b5a1ccffd5d2"
                     x1="38.5354"
                     y1="90.9604"
                     x2="38.5354"
                     y2="82.4758"/>
            </g>
            <line class="uuid-76062b77-f99c-4f58-8fe3-64de68db88e5"
                  x1="40.3197"
                  y1="86.7099"
                  x2="51.3006"
                  y2="86.7099"/>
            <g class="uuid-6dfc9741-fb4d-4938-abde-1ed220d3cd20">
               <line class="uuid-1012c3b3-ced4-4982-89e2-92cba9e66ffa"
                     x1="53.3186"
                     y1="94.0868"
                     x2="53.3186"
                     y2="79.3334"/>
            </g>
            <line class="uuid-2441e109-1ce4-43b3-abe2-b5a1ccffd5d2"
                  x1="51.3005"
                  y1="90.9521"
                  x2="51.3005"
                  y2="82.4675"/>
         </g>
      </g>
      <g id="uuid-7f841a7d-243f-4c50-bc72-1cef829d3926"
         data-name="Artwork 20 no white">
         <g class="uuid-ecb68219-c836-4a88-8f3e-4997005432a1">
            <g class="uuid-bebff8c4-f834-42e2-afdf-f69111f00cd0">
               <line class="uuid-39927b06-10ed-46f0-8291-03d9ab54d44d"
                     x1="71.5911"
                     y1="93.4879"
                     x2="86.2211"
                     y2="86.7219"/>
               <path d="m86.221,87.7262h0c-.55,0-1-.45-1-1,0-.551.45-1,1-1s1,.449,1,1c0,.55-.45,1-1,1"/>
               <path d="m71.5911,87.7262h0c-.55,0-1-.45-1-1,0-.551.45-1,1-1s1,.449,1,1c0,.55-.45,1-1,1"/>
            </g>
         </g>
      </g>
      <text class="uuid-5e5e6258-8bd0-429e-a534-0c2fdebdd979"
            transform="translate(205.4371 34.6145)">
         <tspan x="0" y="0">OUTPUT</tspan>
      </text>
      <text class="uuid-5e5e6258-8bd0-429e-a534-0c2fdebdd979"
            transform="translate(14.5786 24.6718)">
         <tspan x="0" y="0">RECTIFIER</tspan>
         <tspan x="10.2783" y="12">MAINS</tspan>
      </text>
      <text class="uuid-5e5e6258-8bd0-429e-a534-0c2fdebdd979"
            transform="translate(98.8751 24.6716)">
         <tspan x="0" y="0">RECTIFIER</tspan>
      </text>
      <g>
         <path class="uuid-275a7f4d-6173-4033-9235-4c6db4e2a513"
               d="m15.6509,65.2326v-7.1582h5.3076v1.2109h-3.8623v1.5869h3.5938v1.2061h-3.5938v1.9482h3.999v1.2061h-5.4443Z"/>
         <path class="uuid-275a7f4d-6173-4033-9235-4c6db4e2a513"
               d="m21.5933,65.2326l2.4463-3.7354-2.2168-3.4229h1.6895l1.4355,2.2998,1.4062-2.2998h1.6748l-2.2266,3.4766,2.4463,3.6816h-1.7432l-1.5869-2.4756-1.5918,2.4756h-1.7334Z"/>
         <path class="uuid-275a7f4d-6173-4033-9235-4c6db4e2a513"
               d="m30.6021,65.2326v-5.9473h-2.124v-1.2109h5.6885v1.2109h-2.1191v5.9473h-1.4453Z"/>
         <path class="uuid-275a7f4d-6173-4033-9235-4c6db4e2a513"
               d="m35.0992,65.2326v-7.1582h5.3076v1.2109h-3.8623v1.5869h3.5938v1.2061h-3.5938v1.9482h3.999v1.2061h-5.4443Z"/>
         <path class="uuid-275a7f4d-6173-4033-9235-4c6db4e2a513"
               d="m41.774,65.2326v-7.1582h3.042c.7646,0,1.3203.0645,1.667.1924.3467.1289.624.3574.833.6865.208.3281.3125.7041.3125,1.1279,0,.5371-.1582.9805-.4736,1.3301-.3164.3506-.7881.5703-1.416.6621.3125.1816.5703.3818.7734.6006.2041.2178.4775.6055.8232,1.1621l.874,1.3965h-1.7285l-1.0449-1.5576c-.3711-.5566-.625-.9072-.7617-1.0527-.1367-.1445-.2822-.2441-.4346-.2979-.1533-.0537-.3955-.0801-.7275-.0801h-.293v2.9883h-1.4453Zm1.4453-4.1309h1.0693c.6934,0,1.126-.0293,1.2988-.0879.1719-.0586.3076-.1602.4053-.3027.0977-.1436.1465-.3223.1465-.5371,0-.2412-.0645-.4355-.1934-.584-.1279-.1475-.3096-.2412-.5439-.2803-.1172-.0166-.4688-.0244-1.0547-.0244h-1.1279v1.8164Z"/>
         <path class="uuid-275a7f4d-6173-4033-9235-4c6db4e2a513"
               d="m49.0054,65.2326v-7.1582h1.4062l2.9297,4.7803v-4.7803h1.3428v7.1582h-1.4502l-2.8857-4.668v4.668h-1.3428Z"/>
         <path class="uuid-275a7f4d-6173-4033-9235-4c6db4e2a513"
               d="m62.6675,65.2326h-1.5723l-.625-1.626h-2.8613l-.5908,1.626h-1.5332l2.7881-7.1582h1.5283l2.8662,7.1582Zm-2.6611-2.832l-.9863-2.6562-.9668,2.6562h1.9531Z"/>
         <path class="uuid-275a7f4d-6173-4033-9235-4c6db4e2a513"
               d="m63.4732,65.2326v-7.0996h1.4453v5.8936h3.5938v1.2061h-5.0391Z"/>
         <path class="uuid-275a7f4d-6173-4033-9235-4c6db4e2a513"
               d="m18.9908,70.0744h2.8613c.5664,0,.9883.0234,1.2666.0703.2783.0479.5273.1455.7471.2959.2197.1494.4033.3486.5498.5977s.2197.5283.2197.8379c0,.335-.0908.6426-.2715.9229-.1807.2793-.4258.4893-.7344.6299.4355.127.7715.3428,1.0059.6494.2344.3057.3516.665.3516,1.0791,0,.3252-.0762.6416-.2275.9492s-.3574.5537-.6201.7373c-.2617.1846-.585.2969-.9688.3398-.2412.0254-.8223.042-1.7432.0488h-2.4365v-7.1582Zm1.4453,1.1914v1.6553h.9473c.5625,0,.9131-.0088,1.0498-.0244.2471-.0293.4414-.1152.583-.2568s.2129-.3281.2129-.5586c0-.2217-.0615-.4014-.1836-.54-.1221-.1377-.3037-.2217-.5439-.251-.1436-.0166-.5557-.0244-1.2354-.0244h-.8301Zm0,2.8467v1.9141h1.3379c.5205,0,.8506-.0146.9912-.0439.2148-.0391.3896-.1348.5244-.2861.1357-.1514.2031-.3535.2031-.6074,0-.2148-.0527-.3975-.1562-.5469-.1045-.1504-.2549-.2588-.4521-.3271-.1963-.0684-.624-.1025-1.2812-.1025h-1.167Z"/>
         <path class="uuid-275a7f4d-6173-4033-9235-4c6db4e2a513"
               d="m32.6626,77.2326h-1.5723l-.625-1.626h-2.8613l-.5908,1.626h-1.5332l2.7881-7.1582h1.5283l2.8662,7.1582Zm-2.6611-2.832l-.9863-2.6562-.9668,2.6562h1.9531Z"/>
         <path class="uuid-275a7f4d-6173-4033-9235-4c6db4e2a513"
               d="m35.0406,77.2326v-5.9473h-2.124v-1.2109h5.6885v1.2109h-2.1191v5.9473h-1.4453Z"/>
         <path class="uuid-275a7f4d-6173-4033-9235-4c6db4e2a513"
               d="m41.149,77.2326v-5.9473h-2.124v-1.2109h5.6885v1.2109h-2.1191v5.9473h-1.4453Z"/>
         <path class="uuid-275a7f4d-6173-4033-9235-4c6db4e2a513"
               d="m45.646,77.2326v-7.1582h5.3076v1.2109h-3.8623v1.5869h3.5938v1.2061h-3.5938v1.9482h3.999v1.2061h-5.4443Z"/>
         <path class="uuid-275a7f4d-6173-4033-9235-4c6db4e2a513"
               d="m52.3209,77.2326v-7.1582h3.042c.7646,0,1.3203.0645,1.667.1924.3467.1289.624.3574.833.6865.208.3281.3125.7041.3125,1.1279,0,.5371-.1582.9805-.4736,1.3301-.3164.3506-.7881.5703-1.416.6621.3125.1816.5703.3818.7734.6006.2041.2178.4775.6055.8232,1.1621l.874,1.3965h-1.7285l-1.0449-1.5576c-.3711-.5566-.625-.9072-.7617-1.0527-.1367-.1445-.2822-.2441-.4346-.2979-.1533-.0537-.3955-.0801-.7275-.0801h-.293v2.9883h-1.4453Zm1.4453-4.1309h1.0693c.6934,0,1.126-.0293,1.2988-.0879.1719-.0586.3076-.1602.4053-.3027.0977-.1436.1465-.3223.1465-.5371,0-.2412-.0645-.4355-.1934-.584-.1279-.1475-.3096-.2412-.5439-.2803-.1172-.0166-.4688-.0244-1.0547-.0244h-1.1279v1.8164Z"/>
         <path class="uuid-275a7f4d-6173-4033-9235-4c6db4e2a513"
               d="m61.4175,77.2326v-3.0127l-2.6221-4.1455h1.6943l1.6846,2.832,1.6504-2.832h1.665l-2.6318,4.1553v3.0029h-1.4404Z"/>
      </g>
   </g>
</svg>
