<?xml version="1.0" encoding="UTF-8"?>
<svg xmlns="http://www.w3.org/2000/svg"
     width="10mm"
     height="10mm"
     viewBox="0 0 28.3465 28.3465">
   <defs>
      <style>
      .cls-1 {
        fill: #3c57a6;
      }

      .cls-1, .cls-2 {
        stroke-width: .25px;
      }

      .cls-1, .cls-2, .cls-3 {
        stroke: #000;
        stroke-linecap: round;
        stroke-linejoin: round;
      }

      .cls-2 {
        fill: none;
      }

      .cls-3 {
        fill: #e3e8d6;
        stroke-width: .3978px;
      }
    </style>
   </defs>
   <g id="Layer_1" data-name="Layer 1">
      <g>
         <g id="LINE">
            <line class="cls-2"
                  x1="1.9068"
                  y1="26.4396"
                  x2="26.407"
                  y2="1.8748"/>
         </g>
         <g id="LINE-2" data-name="LINE">
            <line class="cls-2"
                  x1="16.7792"
                  y1="14.8247"
                  x2="25.2484"
                  y2="14.8247"/>
         </g>
         <g id="LINE-3" data-name="LINE">
            <line class="cls-2"
                  x1="16.7792"
                  y1="15.9974"
                  x2="19.089"
                  y2="15.9974"/>
         </g>
         <g id="LINE-4" data-name="LINE">
            <line class="cls-2"
                  x1="19.8589"
                  y1="15.9974"
                  x2="22.1687"
                  y2="15.9974"/>
         </g>
         <g id="LINE-5" data-name="LINE">
            <line class="cls-2"
                  x1="22.9386"
                  y1="15.9974"
                  x2="25.2484"
                  y2="15.9974"/>
         </g>
         <g id="ELLIPSE">
            <path class="cls-2" d="M5.8668,5.3782c-1.1694,0-2.1173,1.0209-2.1173,2.2802"/>
         </g>
         <g id="ELLIPSE-2" data-name="ELLIPSE">
            <path class="cls-2" d="M7.9841,7.6584c0-1.2593-.948-2.2802-2.1173-2.2802"/>
         </g>
         <g id="ELLIPSE-3" data-name="ELLIPSE">
            <path class="cls-2" d="M7.9841,7.6584c0,1.2593,.948,2.2802,2.1173,2.2802"/>
         </g>
         <g id="ELLIPSE-4" data-name="ELLIPSE">
            <path class="cls-2" d="M10.1015,9.9386c1.1694,0,2.1173-1.0209,2.1173-2.2802"/>
         </g>
         <g id="LWPOLYLINE">
            <rect class="cls-2"
                  x="1.1436"
                  y="1.1436"
                  width="26.0593"
                  height="26.0593"
                  rx="2.6059"
                  ry="2.6059"/>
         </g>
         <g id="CIRCLE">
            <path class="cls-3"
                  d="M10.9158,22.5122c0-1.4392,1.1667-2.6059,2.6059-2.6059s2.6059,1.1667,2.6059,2.6059-1.1667,2.6059-2.6059,2.6059-2.6059-1.1667-2.6059-2.6059h0Z"/>
         </g>
         <g id="CIRCLE-2" data-name="CIRCLE">
            <path class="cls-1"
                  d="M19.3851,22.5122c0-1.4392,1.1667-2.6059,2.6059-2.6059s2.6059,1.1667,2.6059,2.6059-1.1667,2.6059-2.6059,2.6059-2.6059-1.1667-2.6059-2.6059h0Z"/>
         </g>
      </g>
   </g>
   <g id="White"/>
   <g id="Layer_3" data-name="Layer 3"/>
</svg>
