<?xml version="1.0" encoding="UTF-8"?>
<svg xmlns="http://www.w3.org/2000/svg"
     width="210mm"
     height="45.6374mm"
     viewBox="0 0 595.2756 129.3659">
   <defs>
      <style>
      .cls-1, .cls-2 {
        font-family: ArialNarrow, Arial;
        font-size: 7.3889px;
      }

      .cls-3 {
        stroke-linejoin: round;
        stroke-width: .5011px;
      }

      .cls-3, .cls-4, .cls-5 {
        fill: none;
        stroke: #000;
        stroke-linecap: round;
      }

      .cls-4 {
        stroke-width: .2835px;
      }

      .cls-4, .cls-5 {
        stroke-miterlimit: 10;
      }

      .cls-2 {
        fill: #fff;
      }

      .cls-5 {
        stroke-width: .0567px;
      }
    </style>
   </defs>
   <g id="Layer_6" data-name="Layer 6">
      <path class="cls-3" d="M4.3867,119.3536c0,3.2865,2.6641,5.9507,5.9507,5.9507"/>
      <path class="cls-3"
            d="M584.9382,125.3043c3.2866,0,5.9507-2.6641,5.9507-5.9507"/>
      <path class="cls-3" d="M11.8242,4.0616c-4.1076,0-7.4375,3.33-7.4375,7.4375"/>
      <path class="cls-3" d="M590.8889,11.4991c0-4.1076-3.33-7.4375-7.4383-7.4375"/>
      <line class="cls-3"
            x1="590.8889"
            y1="119.3536"
            x2="590.8889"
            y2="11.4991"/>
      <line class="cls-3"
            x1="10.3366"
            y1="125.3043"
            x2="584.9382"
            y2="125.3043"/>
      <line class="cls-3"
            x1="4.3867"
            y1="119.3536"
            x2="4.3867"
            y2="11.4991"/>
      <line class="cls-3"
            x1="10.3366"
            y1="4.0616"
            x2="584.9382"
            y2="4.0616"/>
   </g>
   <g id="Layer_5" data-name="Layer 5">
      <text class="cls-2" transform="translate(29.1953 39.0987)">
         <tspan x="0" y="0">Rectifier mains fault</tspan>
      </text>
      <text class="cls-2" transform="translate(29.1953 57.6944)">
         <tspan x="0" y="0">Rectifier failure</tspan>
      </text>
      <text class="cls-2" transform="translate(127.2866 76.2891)">
         <tspan x="0" y="0">Rect. Overcurrent</tspan>
      </text>
      <text class="cls-2" transform="translate(127.2866 57.6944)">
         <tspan x="0" y="0">DC Fuse blown</tspan>
      </text>
      <text class="cls-2" transform="translate(127.2866 39.0987)">
         <tspan x="0" y="0">DC out of tolerance</tspan>
      </text>
      <text class="cls-2" transform="translate(317.8906 76.2891)">
         <tspan x="0" y="0">Fan failure</tspan>
      </text>
      <text class="cls-2" transform="translate(317.8906 57.6944)">
         <tspan x="0" y="0">Overtemperature</tspan>
      </text>
      <text class="cls-2" transform="translate(317.8906 39.0987)">
         <tspan x="0" y="0">Control power fault</tspan>
      </text>
      <text class="cls-2" transform="translate(415.9805 39.0987)">
         <tspan x="0" y="0">Surge Protection Blown</tspan>
      </text>
      <text class="cls-2" transform="translate(514.0723 39.0987)">
         <tspan x="0" y="0">Input Breaker Open</tspan>
      </text>
      <text class="cls-2" transform="translate(514.0723 57.6944)">
         <tspan x="0" y="0">Output Overvoltage</tspan>
      </text>
      <text class="cls-2" transform="translate(514.0723 76.2891)">
         <tspan x="0" y="0">Output Undervoltage</tspan>
      </text>
      <text class="cls-2" transform="translate(514.0723 94.8858)">
         <tspan x="0" y="0">Output Breaker Open</tspan>
      </text>
      <rect x="15.7297" y="34.6111" width="9.2982" height="3.7196"/>
      <rect class="cls-5"
            x="15.7297"
            y="34.6111"
            width="9.2982"
            height="3.7196"/>
      <line class="cls-4"
            x1="15.7297"
            y1="34.6111"
            x2="15.7297"
            y2="38.3307"/>
      <line class="cls-4"
            x1="15.7297"
            y1="34.6111"
            x2="15.7297"
            y2="34.6111"/>
      <line class="cls-4"
            x1="15.7297"
            y1="34.6111"
            x2="25.028"
            y2="34.6111"/>
      <line class="cls-4"
            x1="25.028"
            y1="34.6111"
            x2="25.028"
            y2="34.6111"/>
      <line class="cls-4"
            x1="25.028"
            y1="34.6111"
            x2="25.028"
            y2="38.3307"/>
      <line class="cls-4"
            x1="25.028"
            y1="38.3307"
            x2="25.028"
            y2="38.3307"/>
      <line class="cls-4"
            x1="15.7297"
            y1="38.3307"
            x2="25.028"
            y2="38.3307"/>
      <line class="cls-4"
            x1="15.7297"
            y1="38.3307"
            x2="15.7297"
            y2="38.3307"/>
      <rect x="15.7297" y="53.207" width="9.2982" height="3.7189"/>
      <rect class="cls-5"
            x="15.7297"
            y="53.207"
            width="9.2982"
            height="3.7189"/>
      <line class="cls-4"
            x1="15.7297"
            y1="53.207"
            x2="15.7297"
            y2="56.9259"/>
      <line class="cls-4"
            x1="15.7297"
            y1="53.207"
            x2="15.7297"
            y2="53.207"/>
      <line class="cls-4"
            x1="15.7297"
            y1="53.207"
            x2="25.028"
            y2="53.207"/>
      <line class="cls-4"
            x1="25.028"
            y1="53.207"
            x2="25.028"
            y2="53.207"/>
      <line class="cls-4"
            x1="25.028"
            y1="53.207"
            x2="25.028"
            y2="56.9259"/>
      <line class="cls-4"
            x1="25.028"
            y1="56.9259"
            x2="25.028"
            y2="56.9259"/>
      <line class="cls-4"
            x1="15.7297"
            y1="56.9259"
            x2="25.028"
            y2="56.9259"/>
      <line class="cls-4"
            x1="15.7297"
            y1="56.9259"
            x2="15.7297"
            y2="56.9259"/>
      <rect x="113.8212" y="71.8022" width="9.2976" height="3.7196"/>
      <rect class="cls-5"
            x="113.8212"
            y="71.8022"
            width="9.2976"
            height="3.7196"/>
      <line class="cls-4"
            x1="113.8212"
            y1="71.8022"
            x2="113.8212"
            y2="75.5217"/>
      <line class="cls-4"
            x1="113.8212"
            y1="71.8022"
            x2="113.8212"
            y2="71.8022"/>
      <line class="cls-4"
            x1="113.8212"
            y1="71.8022"
            x2="123.1188"
            y2="71.8022"/>
      <line class="cls-4"
            x1="123.1188"
            y1="71.8022"
            x2="123.1188"
            y2="71.8022"/>
      <line class="cls-4"
            x1="123.1188"
            y1="71.8022"
            x2="123.1188"
            y2="75.5217"/>
      <line class="cls-4"
            x1="123.1188"
            y1="75.5217"
            x2="123.1188"
            y2="75.5217"/>
      <line class="cls-4"
            x1="113.8212"
            y1="75.5217"
            x2="123.1188"
            y2="75.5217"/>
      <line class="cls-4"
            x1="113.8212"
            y1="75.5217"
            x2="113.8212"
            y2="75.5217"/>
      <rect x="113.8212" y="53.207" width="9.2976" height="3.7189"/>
      <rect class="cls-5"
            x="113.8212"
            y="53.207"
            width="9.2976"
            height="3.7189"/>
      <line class="cls-4"
            x1="113.8212"
            y1="53.207"
            x2="113.8212"
            y2="56.9259"/>
      <line class="cls-4"
            x1="113.8212"
            y1="53.207"
            x2="113.8212"
            y2="53.207"/>
      <line class="cls-4"
            x1="113.8212"
            y1="53.207"
            x2="123.1188"
            y2="53.207"/>
      <line class="cls-4"
            x1="123.1188"
            y1="53.207"
            x2="123.1188"
            y2="53.207"/>
      <line class="cls-4"
            x1="123.1188"
            y1="53.207"
            x2="123.1188"
            y2="56.9259"/>
      <line class="cls-4"
            x1="123.1188"
            y1="56.9259"
            x2="123.1188"
            y2="56.9259"/>
      <line class="cls-4"
            x1="113.8212"
            y1="56.9259"
            x2="123.1188"
            y2="56.9259"/>
      <line class="cls-4"
            x1="113.8212"
            y1="56.9259"
            x2="113.8212"
            y2="56.9259"/>
      <rect x="113.8212" y="34.6111" width="9.2976" height="3.7196"/>
      <rect class="cls-5"
            x="113.8212"
            y="34.6111"
            width="9.2976"
            height="3.7196"/>
      <line class="cls-4"
            x1="113.8212"
            y1="34.6111"
            x2="113.8212"
            y2="38.3307"/>
      <line class="cls-4"
            x1="113.8212"
            y1="34.6111"
            x2="113.8212"
            y2="34.6111"/>
      <line class="cls-4"
            x1="113.8212"
            y1="34.6111"
            x2="123.1188"
            y2="34.6111"/>
      <line class="cls-4"
            x1="123.1188"
            y1="34.6111"
            x2="123.1188"
            y2="34.6111"/>
      <line class="cls-4"
            x1="123.1188"
            y1="34.6111"
            x2="123.1188"
            y2="38.3307"/>
      <line class="cls-4"
            x1="123.1188"
            y1="38.3307"
            x2="123.1188"
            y2="38.3307"/>
      <line class="cls-4"
            x1="113.8212"
            y1="38.3307"
            x2="123.1188"
            y2="38.3307"/>
      <line class="cls-4"
            x1="113.8212"
            y1="38.3307"
            x2="113.8212"
            y2="38.3307"/>
      <rect x="304.4248" y="71.8022" width="9.2976" height="3.7196"/>
      <rect class="cls-5"
            x="304.4248"
            y="71.8022"
            width="9.2976"
            height="3.7196"/>
      <line class="cls-4"
            x1="304.4248"
            y1="71.8022"
            x2="304.4248"
            y2="75.5217"/>
      <line class="cls-4"
            x1="304.4248"
            y1="71.8022"
            x2="304.4248"
            y2="71.8022"/>
      <line class="cls-4"
            x1="304.4248"
            y1="71.8022"
            x2="313.7224"
            y2="71.8022"/>
      <line class="cls-4"
            x1="313.7224"
            y1="71.8022"
            x2="313.7224"
            y2="71.8022"/>
      <line class="cls-4"
            x1="313.7224"
            y1="71.8022"
            x2="313.7224"
            y2="75.5217"/>
      <line class="cls-4"
            x1="313.7224"
            y1="75.5217"
            x2="313.7224"
            y2="75.5217"/>
      <line class="cls-4"
            x1="304.4248"
            y1="75.5217"
            x2="313.7224"
            y2="75.5217"/>
      <line class="cls-4"
            x1="304.4248"
            y1="75.5217"
            x2="304.4248"
            y2="75.5217"/>
      <rect x="304.4248" y="53.207" width="9.2976" height="3.7189"/>
      <rect class="cls-5"
            x="304.4248"
            y="53.207"
            width="9.2976"
            height="3.7189"/>
      <line class="cls-4"
            x1="304.4248"
            y1="53.207"
            x2="304.4248"
            y2="56.9259"/>
      <line class="cls-4"
            x1="304.4248"
            y1="53.207"
            x2="304.4248"
            y2="53.207"/>
      <line class="cls-4"
            x1="304.4248"
            y1="53.207"
            x2="313.7224"
            y2="53.207"/>
      <line class="cls-4"
            x1="313.7224"
            y1="53.207"
            x2="313.7224"
            y2="53.207"/>
      <line class="cls-4"
            x1="313.7224"
            y1="53.207"
            x2="313.7224"
            y2="56.9259"/>
      <line class="cls-4"
            x1="313.7224"
            y1="56.9259"
            x2="313.7224"
            y2="56.9259"/>
      <line class="cls-4"
            x1="304.4248"
            y1="56.9259"
            x2="313.7224"
            y2="56.9259"/>
      <line class="cls-4"
            x1="304.4248"
            y1="56.9259"
            x2="304.4248"
            y2="56.9259"/>
      <rect x="304.4248" y="34.6111" width="9.2976" height="3.7196"/>
      <rect class="cls-5"
            x="304.4248"
            y="34.6111"
            width="9.2976"
            height="3.7196"/>
      <line class="cls-4"
            x1="304.4248"
            y1="34.6111"
            x2="304.4248"
            y2="38.3307"/>
      <line class="cls-4"
            x1="304.4248"
            y1="34.6111"
            x2="304.4248"
            y2="34.6111"/>
      <line class="cls-4"
            x1="304.4248"
            y1="34.6111"
            x2="313.7224"
            y2="34.6111"/>
      <line class="cls-4"
            x1="313.7224"
            y1="34.6111"
            x2="313.7224"
            y2="34.6111"/>
      <line class="cls-4"
            x1="313.7224"
            y1="34.6111"
            x2="313.7224"
            y2="38.3307"/>
      <line class="cls-4"
            x1="313.7224"
            y1="38.3307"
            x2="313.7224"
            y2="38.3307"/>
      <line class="cls-4"
            x1="304.4248"
            y1="38.3307"
            x2="313.7224"
            y2="38.3307"/>
      <line class="cls-4"
            x1="304.4248"
            y1="38.3307"
            x2="304.4248"
            y2="38.3307"/>
      <rect x="402.5163" y="34.6111" width="9.2976" height="3.7196"/>
      <rect class="cls-5"
            x="402.5163"
            y="34.6111"
            width="9.2976"
            height="3.7196"/>
      <line class="cls-4"
            x1="402.5163"
            y1="34.6111"
            x2="402.5163"
            y2="38.3307"/>
      <line class="cls-4"
            x1="402.5163"
            y1="34.6111"
            x2="402.5163"
            y2="34.6111"/>
      <line class="cls-4"
            x1="402.5163"
            y1="34.6111"
            x2="411.8139"
            y2="34.6111"/>
      <line class="cls-4"
            x1="411.8139"
            y1="34.6111"
            x2="411.8139"
            y2="34.6111"/>
      <line class="cls-4"
            x1="411.8139"
            y1="34.6111"
            x2="411.8139"
            y2="38.3307"/>
      <line class="cls-4"
            x1="411.8139"
            y1="38.3307"
            x2="411.8139"
            y2="38.3307"/>
      <line class="cls-4"
            x1="402.5163"
            y1="38.3307"
            x2="411.8139"
            y2="38.3307"/>
      <line class="cls-4"
            x1="402.5163"
            y1="38.3307"
            x2="402.5163"
            y2="38.3307"/>
      <rect x="500.6071" y="90.398" width="9.2976" height="3.7189"/>
      <rect class="cls-5"
            x="500.6071"
            y="90.398"
            width="9.2976"
            height="3.7189"/>
      <line class="cls-4"
            x1="500.6071"
            y1="90.398"
            x2="500.6071"
            y2="94.1169"/>
      <line class="cls-4"
            x1="500.6071"
            y1="90.398"
            x2="500.6071"
            y2="90.398"/>
      <line class="cls-4"
            x1="500.6071"
            y1="90.398"
            x2="509.9047"
            y2="90.398"/>
      <line class="cls-4"
            x1="509.9047"
            y1="90.398"
            x2="509.9047"
            y2="90.398"/>
      <line class="cls-4"
            x1="509.9047"
            y1="90.398"
            x2="509.9047"
            y2="94.1169"/>
      <line class="cls-4"
            x1="509.9047"
            y1="94.1169"
            x2="509.9047"
            y2="94.1169"/>
      <line class="cls-4"
            x1="500.6071"
            y1="94.1169"
            x2="509.9047"
            y2="94.1169"/>
      <line class="cls-4"
            x1="500.6071"
            y1="94.1169"
            x2="500.6071"
            y2="94.1169"/>
      <rect x="500.6071" y="71.8022" width="9.2976" height="3.7196"/>
      <rect class="cls-5"
            x="500.6071"
            y="71.8022"
            width="9.2976"
            height="3.7196"/>
      <line class="cls-4"
            x1="500.6071"
            y1="71.8022"
            x2="500.6071"
            y2="75.5217"/>
      <line class="cls-4"
            x1="500.6071"
            y1="71.8022"
            x2="500.6071"
            y2="71.8022"/>
      <line class="cls-4"
            x1="500.6071"
            y1="71.8022"
            x2="509.9047"
            y2="71.8022"/>
      <line class="cls-4"
            x1="509.9047"
            y1="71.8022"
            x2="509.9047"
            y2="71.8022"/>
      <line class="cls-4"
            x1="509.9047"
            y1="71.8022"
            x2="509.9047"
            y2="75.5217"/>
      <line class="cls-4"
            x1="509.9047"
            y1="75.5217"
            x2="509.9047"
            y2="75.5217"/>
      <line class="cls-4"
            x1="500.6071"
            y1="75.5217"
            x2="509.9047"
            y2="75.5217"/>
      <line class="cls-4"
            x1="500.6071"
            y1="75.5217"
            x2="500.6071"
            y2="75.5217"/>
      <rect x="500.6071" y="53.207" width="9.2976" height="3.7189"/>
      <rect class="cls-5"
            x="500.6071"
            y="53.207"
            width="9.2976"
            height="3.7189"/>
      <line class="cls-4"
            x1="500.6071"
            y1="53.207"
            x2="500.6071"
            y2="56.9259"/>
      <line class="cls-4"
            x1="500.6071"
            y1="53.207"
            x2="500.6071"
            y2="53.207"/>
      <line class="cls-4"
            x1="500.6071"
            y1="53.207"
            x2="509.9047"
            y2="53.207"/>
      <line class="cls-4"
            x1="509.9047"
            y1="53.207"
            x2="509.9047"
            y2="53.207"/>
      <line class="cls-4"
            x1="509.9047"
            y1="53.207"
            x2="509.9047"
            y2="56.9259"/>
      <line class="cls-4"
            x1="509.9047"
            y1="56.9259"
            x2="509.9047"
            y2="56.9259"/>
      <line class="cls-4"
            x1="500.6071"
            y1="56.9259"
            x2="509.9047"
            y2="56.9259"/>
      <line class="cls-4"
            x1="500.6071"
            y1="56.9259"
            x2="500.6071"
            y2="56.9259"/>
      <rect x="500.6071" y="34.6111" width="9.2976" height="3.7196"/>
      <rect class="cls-5"
            x="500.6071"
            y="34.6111"
            width="9.2976"
            height="3.7196"/>
      <line class="cls-4"
            x1="500.6071"
            y1="34.6111"
            x2="500.6071"
            y2="38.3307"/>
      <line class="cls-4"
            x1="500.6071"
            y1="34.6111"
            x2="500.6071"
            y2="34.6111"/>
      <line class="cls-4"
            x1="500.6071"
            y1="34.6111"
            x2="509.9047"
            y2="34.6111"/>
      <line class="cls-4"
            x1="509.9047"
            y1="34.6111"
            x2="509.9047"
            y2="34.6111"/>
      <line class="cls-4"
            x1="509.9047"
            y1="34.6111"
            x2="509.9047"
            y2="38.3307"/>
      <line class="cls-4"
            x1="509.9047"
            y1="38.3307"
            x2="509.9047"
            y2="38.3307"/>
      <line class="cls-4"
            x1="500.6071"
            y1="38.3307"
            x2="509.9047"
            y2="38.3307"/>
      <line class="cls-4"
            x1="500.6071"
            y1="38.3307"
            x2="500.6071"
            y2="38.3307"/>
      <text class="cls-1" transform="translate(29.1953 57.6944)">
         <tspan x="0" y="0">Rectifier failure</tspan>
      </text>
      <text class="cls-1" transform="translate(29.1953 39.0987)">
         <tspan x="0" y="0">Rectifier mains fault</tspan>
      </text>
      <text class="cls-1" transform="translate(127.2866 39.0987)">
         <tspan x="0" y="0">DC out of tolerance</tspan>
      </text>
      <text class="cls-1" transform="translate(127.2866 57.6944)">
         <tspan x="0" y="0">DC Fuse blown</tspan>
      </text>
      <text class="cls-1" transform="translate(127.2866 76.2891)">
         <tspan x="0" y="0">Rect. Overcurrent</tspan>
      </text>
      <text class="cls-1" transform="translate(317.8906 39.0987)">
         <tspan x="0" y="0">Control power fault</tspan>
      </text>
      <text class="cls-1" transform="translate(317.8906 57.6944)">
         <tspan x="0" y="0">Overtemperature</tspan>
      </text>
      <text class="cls-2" transform="translate(220.5047 38.7148)">
         <tspan x="0" y="0">Overtemperature</tspan>
      </text>
      <rect x="207.0389" y="34.2274" width="9.2976" height="3.7189"/>
      <rect class="cls-5"
            x="207.0389"
            y="34.2274"
            width="9.2976"
            height="3.7189"/>
      <line class="cls-4"
            x1="207.0389"
            y1="34.2274"
            x2="207.0389"
            y2="37.9463"/>
      <line class="cls-4"
            x1="207.0389"
            y1="34.2274"
            x2="207.0389"
            y2="34.2274"/>
      <line class="cls-4"
            x1="207.0389"
            y1="34.2274"
            x2="216.3365"
            y2="34.2274"/>
      <line class="cls-4"
            x1="216.3365"
            y1="34.2274"
            x2="216.3365"
            y2="34.2274"/>
      <line class="cls-4"
            x1="216.3365"
            y1="34.2274"
            x2="216.3365"
            y2="37.9463"/>
      <line class="cls-4"
            x1="216.3365"
            y1="37.9463"
            x2="216.3365"
            y2="37.9463"/>
      <line class="cls-4"
            x1="207.0389"
            y1="37.9463"
            x2="216.3365"
            y2="37.9463"/>
      <line class="cls-4"
            x1="207.0389"
            y1="37.9463"
            x2="207.0389"
            y2="37.9463"/>
      <text class="cls-1" transform="translate(220.5047 38.7148)">
         <tspan x="0" y="0">Battery discharged</tspan>
      </text>
      <text class="cls-1" transform="translate(317.8906 76.2891)">
         <tspan x="0" y="0">Fan failure</tspan>
      </text>
      <text class="cls-1" transform="translate(415.9805 39.0987)">
         <tspan x="0" y="0">Surge Protection Blown</tspan>
      </text>
      <text class="cls-1" transform="translate(514.0723 39.0987)">
         <tspan x="0" y="0">Input Breaker Open</tspan>
      </text>
      <text class="cls-1" transform="translate(514.0723 57.6944)">
         <tspan x="0" y="0">Output Overvoltage</tspan>
      </text>
      <text class="cls-1" transform="translate(514.0723 76.2891)">
         <tspan x="0" y="0">Output Undervoltage</tspan>
      </text>
      <text class="cls-1" transform="translate(514.0723 94.8858)">
         <tspan x="0" y="0">Output Breaker Open</tspan>
      </text>
   </g>
</svg>
