<?xml version="1.0" encoding="UTF-8"?>
<svg xmlns="http://www.w3.org/2000/svg"
     width="180.6693mm"
     height="92mm"
     viewBox="0 0 512.1335 260.7874">
   <defs>
      <style>
      .cls-1 {
        font-size: 12.0345px;
      }

      .cls-1, .cls-2 {
        font-family: ArialMT, Arial;
      }

      .cls-3 {
        fill: #3c57a6;
        stroke-width: .25px;
      }

      .cls-3, .cls-4, .cls-5 {
        stroke: #000;
        stroke-linecap: round;
        stroke-linejoin: round;
      }

      .cls-2 {
        font-size: 6.2537px;
      }

      .cls-4 {
        fill: #e3e8d6;
      }

      .cls-4, .cls-5 {
        stroke-width: .3978px;
      }

      .cls-5 {
        fill: none;
      }
    </style>
   </defs>
   <g id="Layer_1" data-name="Layer 1">
      <g id="LINE">
         <line class="cls-5"
               x1="195.8085"
               y1="219.8969"
               x2="195.8085"
               y2="230.8324"/>
      </g>
      <g id="LINE-2" data-name="LINE">
         <line class="cls-5"
               x1="195.8085"
               y1="125.5545"
               x2="195.8085"
               y2="209.5296"/>
      </g>
      <g id="LINE-3" data-name="LINE">
         <line class="cls-5"
               x1="143.9721"
               y1="192.9419"
               x2="143.9721"
               y2="196.0955"/>
      </g>
      <g id="LINE-4" data-name="LINE">
         <line class="cls-5"
               x1="143.9721"
               y1="103.3971"
               x2="143.9721"
               y2="182.5746"/>
      </g>
      <g id="LINE-5" data-name="LINE">
         <line class="cls-5"
               x1="23.7115"
               y1="179.3777"
               x2="23.7115"
               y2="182.5746"/>
      </g>
      <g id="LINE-6" data-name="LINE">
         <line class="cls-5"
               x1="23.7115"
               y1="192.9419"
               x2="23.7115"
               y2="196.0955"/>
      </g>
      <g id="LINE-7" data-name="LINE">
         <line class="cls-5"
               x1="23.7115"
               y1="63.2544"
               x2="23.7115"
               y2="64.9562"/>
      </g>
      <g id="LINE-8" data-name="LINE">
         <line class="cls-5"
               x1="23.7115"
               y1="51.7022"
               x2="23.7115"
               y2="53.3199"/>
      </g>
      <g id="LWPOLYLINE">
         <polygon class="cls-5"
                  points="16.4544 4.2572 30.9686 4.2572 23.7115 15.6612 16.4544 4.2572"/>
      </g>
      <g id="LWPOLYLINE-2" data-name="LWPOLYLINE">
         <polygon class="cls-5"
                  points="136.715 4.2572 151.2292 4.2572 143.9721 15.6612 136.715 4.2572"/>
      </g>
      <g id="LWPOLYLINE-3" data-name="LWPOLYLINE">
         <polygon class="cls-5"
                  points="29.6727 116.3276 29.6727 130.8418 41.0767 123.5847 29.6727 116.3276"/>
      </g>
      <g id="LWPOLYLINE-4" data-name="LWPOLYLINE">
         <polygon class="cls-5"
                  points="52.9991 116.2239 52.9991 130.7382 41.5951 123.481 52.9991 116.2239"/>
      </g>
      <g id="LWPOLYLINE-5" data-name="LWPOLYLINE">
         <polygon class="cls-5"
                  points="247.645 236.4845 247.645 250.9987 259.049 243.7416 247.645 236.4845"/>
      </g>
      <g id="LWPOLYLINE-6" data-name="LWPOLYLINE">
         <polygon class="cls-5"
                  points="188.5514 232.3376 203.0656 232.3376 195.8085 243.7416 188.5514 232.3376"/>
      </g>
      <g id="LINE-9" data-name="LINE">
         <line class="cls-5"
               x1="23.7115"
               y1="15.9039"
               x2="23.7115"
               y2="21.3099"/>
      </g>
      <g id="LINE-10" data-name="LINE">
         <line class="cls-5"
               x1="23.7115"
               y1="107.7016"
               x2="23.7115"
               y2="136.1318"/>
      </g>
      <g id="LINE-11" data-name="LINE">
         <line class="cls-5"
               x1="23.7115"
               y1="230.8324"
               x2="23.7115"
               y2="243.7416"/>
      </g>
      <g id="LINE-12" data-name="LINE">
         <line class="cls-5"
               x1="23.7115"
               y1="243.7416"
               x2="212.9211"
               y2="243.7416"/>
      </g>
      <g id="LINE-13" data-name="LINE">
         <line class="cls-5"
               x1="242.993"
               y1="243.7416"
               x2="246.9972"
               y2="243.7416"/>
      </g>
      <g id="LINE-14" data-name="LINE">
         <line class="cls-5"
               x1="143.9721"
               y1="15.9039"
               x2="143.9721"
               y2="20.9095"/>
      </g>
      <g id="LINE-15" data-name="LINE">
         <line class="cls-5"
               x1="143.9721"
               y1="51.6421"
               x2="143.9721"
               y2="72.9647"/>
      </g>
      <g id="LINE-16" data-name="LINE">
         <line class="cls-5"
               x1="143.9721"
               y1="231.3329"
               x2="143.9721"
               y2="243.3457"/>
      </g>
      <g id="LINE-17" data-name="LINE">
         <line class="cls-5"
               x1="24.501"
               y1="123.481"
               x2="28.7054"
               y2="123.481"/>
      </g>
      <g id="LINE-18" data-name="LINE">
         <line class="cls-5"
               x1="53.5919"
               y1="123.481"
               x2="56.2947"
               y2="123.481"/>
      </g>
      <g id="LINE-19" data-name="LINE">
         <line class="cls-5"
               x1="143.9721"
               y1="125.5545"
               x2="195.8085"
               y2="125.5545"/>
      </g>
      <g id="LINE-20" data-name="LINE">
         <line class="cls-5"
               x1="5.2282"
               y1="105.8861"
               x2="44.2163"
               y2="66.7952"/>
      </g>
      <g id="LINE-21" data-name="LINE">
         <line class="cls-5"
               x1="28.8951"
               y1="87.4029"
               x2="42.3726"
               y2="87.4029"/>
      </g>
      <g id="LINE-22" data-name="LINE">
         <line class="cls-5"
               x1="28.8951"
               y1="89.269"
               x2="32.5708"
               y2="89.269"/>
      </g>
      <g id="LINE-23" data-name="LINE">
         <line class="cls-5"
               x1="33.796"
               y1="89.269"
               x2="37.4717"
               y2="89.269"/>
      </g>
      <g id="LINE-24" data-name="LINE">
         <line class="cls-5"
               x1="38.6969"
               y1="89.269"
               x2="42.3726"
               y2="89.269"/>
      </g>
      <g id="ELLIPSE">
         <path class="cls-5"
               d="M11.5299,72.3703c-1.8609,0-3.3694,1.6246-3.3694,3.6286"/>
      </g>
      <g id="ELLIPSE-2" data-name="ELLIPSE">
         <path class="cls-5" d="M14.8993,75.9989c0-2.004-1.5085-3.6286-3.3694-3.6286"/>
      </g>
      <g id="ELLIPSE-3" data-name="ELLIPSE">
         <path class="cls-5" d="M14.8993,75.9989c0,2.004,1.5085,3.6286,3.3694,3.6286"/>
      </g>
      <g id="ELLIPSE-4" data-name="ELLIPSE">
         <path class="cls-5" d="M18.2687,79.6274c1.8609,0,3.3694-1.6246,3.3694-3.6286"/>
      </g>
      <g id="LWPOLYLINE-7" data-name="LWPOLYLINE">
         <rect class="cls-5"
               x="4.0136"
               y="65.6316"
               width="41.4692"
               height="41.4692"
               rx="4.1469"
               ry="4.1469"/>
      </g>
      <g id="CIRCLE">
         <path class="cls-5"
               d="M133.6048,84.0853c0-5.7257,4.6416-10.3673,10.3673-10.3673s10.3673,4.6416,10.3673,10.3673-4.6416,10.3673-10.3673,10.3673-10.3673-4.6416-10.3673-10.3673h0Z"/>
      </g>
      <g id="CIRCLE-2" data-name="CIRCLE">
         <path class="cls-5"
               d="M133.6048,92.3792c0-5.7257,4.6416-10.3673,10.3673-10.3673s10.3673,4.6416,10.3673,10.3673-4.6416,10.3673-10.3673,10.3673-10.3673-4.6416-10.3673-10.3673h0Z"/>
      </g>
      <g id="CIRCLE-3" data-name="CIRCLE">
         <path class="cls-5"
               d="M133.6048,84.0853c0-5.7257,4.6416-10.3673,10.3673-10.3673s10.3673,4.6416,10.3673,10.3673-4.6416,10.3673-10.3673,10.3673-10.3673-4.6416-10.3673-10.3673h0Z"/>
      </g>
      <g id="LINE-25" data-name="LINE">
         <line class="cls-5"
               x1="119.0906"
               y1="113.1138"
               x2="119.0906"
               y2="133.8483"/>
      </g>
      <g id="LINE-26" data-name="LINE">
         <line class="cls-5"
               x1="113.9069"
               y1="118.5047"
               x2="113.9069"
               y2="129.7014"/>
      </g>
      <g id="LWPOLYLINE-8" data-name="LWPOLYLINE">
         <rect class="cls-5"
               x="93.1723"
               y="106.8934"
               width="33.1753"
               height="33.1753"
               rx="4.1469"
               ry="4.1469"/>
      </g>
      <g id="LINE-27" data-name="LINE">
         <line class="cls-5"
               x1="6.265"
               y1="177.2131"
               x2="45.253"
               y2="138.1221"/>
      </g>
      <g id="LINE-28" data-name="LINE">
         <line class="cls-5"
               x1="11.2707"
               y1="144.2156"
               x2="24.7482"
               y2="144.2156"/>
      </g>
      <g id="LINE-29" data-name="LINE">
         <line class="cls-5"
               x1="11.2707"
               y1="146.0817"
               x2="14.9464"
               y2="146.0817"/>
      </g>
      <g id="LINE-30" data-name="LINE">
         <line class="cls-5"
               x1="16.1716"
               y1="146.0817"
               x2="19.8473"
               y2="146.0817"/>
      </g>
      <g id="LINE-31" data-name="LINE">
         <line class="cls-5"
               x1="21.0725"
               y1="146.0817"
               x2="24.7482"
               y2="146.0817"/>
      </g>
      <g id="ELLIPSE-5" data-name="ELLIPSE">
         <path class="cls-5"
               d="M32.7829,155.6196c-1.8609,0-3.3694,1.6246-3.3694,3.6286"/>
      </g>
      <g id="ELLIPSE-6" data-name="ELLIPSE">
         <path class="cls-5" d="M36.1522,159.2482c0-2.004-1.5085-3.6286-3.3694-3.6286"/>
      </g>
      <g id="ELLIPSE-7" data-name="ELLIPSE">
         <path class="cls-5" d="M36.1522,159.2482c0,2.004,1.5085,3.6286,3.3694,3.6286"/>
      </g>
      <g id="ELLIPSE-8" data-name="ELLIPSE">
         <path class="cls-5"
               d="M39.5216,162.8768c1.8609,0,3.3694-1.6246,3.3694-3.6286"/>
      </g>
      <g id="LWPOLYLINE-9" data-name="LWPOLYLINE">
         <rect class="cls-5"
               x="5.0504"
               y="136.9585"
               width="41.4692"
               height="41.4692"
               rx="4.1469"
               ry="4.1469"/>
      </g>
      <g id="LINE-32" data-name="LINE">
         <line class="cls-5"
               x1="18.5278"
               y1="209.5296"
               x2="10.234"
               y2="209.5296"/>
      </g>
      <g id="LINE-33" data-name="LINE">
         <line class="cls-5"
               x1="18.5278"
               y1="211.603"
               x2="15.4177"
               y2="211.603"/>
      </g>
      <g id="LINE-34" data-name="LINE">
         <line class="cls-5"
               x1="29.3098"
               y1="217.8234"
               x2="37.6037"
               y2="217.8234"/>
      </g>
      <g id="LINE-35" data-name="LINE">
         <line class="cls-5"
               x1="29.3098"
               y1="215.7499"
               x2="32.42"
               y2="215.7499"/>
      </g>
      <g id="LWPOLYLINE-10" data-name="LWPOLYLINE">
         <rect class="cls-5"
               x="7.1238"
               y="197.0888"
               width="33.1753"
               height="33.1753"
               rx="4.1469"
               ry="4.1469"/>
      </g>
      <g id="LWPOLYLINE-11" data-name="LWPOLYLINE">
         <rect class="cls-5"
               x="14.3809"
               y="204.1386"
               width="19.0758"
               height="18.8685"
               rx="3.1102"
               ry="3.1102"/>
      </g>
      <g id="LWPOLYLINE-12" data-name="LWPOLYLINE">
         <polygon class="cls-5"
                  points="18.5278 217.8234 10.234 217.8234 14.3809 209.5296 18.5278 217.8234"/>
      </g>
      <g id="LWPOLYLINE-13" data-name="LWPOLYLINE">
         <polygon class="cls-5"
                  points="29.3098 209.5296 37.6037 209.5296 33.4567 217.8234 29.3098 209.5296"/>
      </g>
      <g id="LINE-36" data-name="LINE">
         <line class="cls-5"
               x1="138.7884"
               y1="209.5296"
               x2="130.4946"
               y2="209.5296"/>
      </g>
      <g id="LINE-37" data-name="LINE">
         <line class="cls-5"
               x1="138.7884"
               y1="211.603"
               x2="135.6782"
               y2="211.603"/>
      </g>
      <g id="LINE-38" data-name="LINE">
         <line class="cls-5"
               x1="149.5704"
               y1="217.8234"
               x2="157.8642"
               y2="217.8234"/>
      </g>
      <g id="LINE-39" data-name="LINE">
         <line class="cls-5"
               x1="149.5704"
               y1="215.7499"
               x2="152.6806"
               y2="215.7499"/>
      </g>
      <g id="LWPOLYLINE-14" data-name="LWPOLYLINE">
         <rect class="cls-5"
               x="127.3844"
               y="197.0888"
               width="33.1753"
               height="33.1753"
               rx="4.1469"
               ry="4.1469"/>
      </g>
      <g id="LWPOLYLINE-15" data-name="LWPOLYLINE">
         <rect class="cls-5"
               x="134.6415"
               y="204.1386"
               width="19.0758"
               height="18.8685"
               rx="3.1102"
               ry="3.1102"/>
      </g>
      <g id="LWPOLYLINE-16" data-name="LWPOLYLINE">
         <polygon class="cls-5"
                  points="138.7884 217.8234 130.4946 217.8234 134.6415 209.5296 138.7884 217.8234"/>
      </g>
      <g id="LWPOLYLINE-17" data-name="LWPOLYLINE">
         <polygon class="cls-5"
                  points="149.5704 209.5296 157.8642 209.5296 153.7173 217.8234 149.5704 209.5296"/>
      </g>
      <g id="LINE-40" data-name="LINE">
         <line class="cls-5"
               x1="132.4213"
               y1="103.7832"
               x2="159.5486"
               y2="68.2042"/>
      </g>
      <g id="LWPOLYLINE-18" data-name="LWPOLYLINE">
         <polyline class="cls-5"
                   points="151.1619 71.892 159.6698 68.2042 157.5153 77.2232"/>
      </g>
      <g id="LWPOLYLINE-19" data-name="LWPOLYLINE">
         <rect class="cls-5"
               x="9.1973"
               y="21.8816"
               width="29.0284"
               height="29.0284"
               rx="4.1469"
               ry="4.1469"/>
      </g>
      <g id="LWPOLYLINE-20" data-name="LWPOLYLINE">
         <rect class="cls-5"
               x="129.4579"
               y="21.4812"
               width="29.0284"
               height="29.0284"
               rx="4.1469"
               ry="4.1469"/>
      </g>
      <g id="LINE-41" data-name="LINE">
         <line class="cls-5"
               x1="86.5669"
               y1="123.481"
               x2="92.5332"
               y2="123.481"/>
      </g>
      <g id="LWPOLYLINE-21" data-name="LWPOLYLINE">
         <rect class="cls-5"
               x="56.8868"
               y="110.0036"
               width="29.0284"
               height="29.0284"
               rx="4.1469"
               ry="4.1469"/>
      </g>
      <g id="LWPOLYLINE-22" data-name="LWPOLYLINE">
         <rect class="cls-5"
               x="213.4329"
               y="229.2274"
               width="29.0284"
               height="29.0284"
               rx="4.1469"
               ry="4.1469"/>
      </g>
      <g id="TEXT">
         <text class="cls-2" transform="translate(230.4046 239.3564)">
            <tspan x="0" y="0">ON</tspan>
         </text>
      </g>
      <g id="TEXT-2" data-name="TEXT">
         <text class="cls-2" transform="translate(227.3148 255.373)">
            <tspan x="0" y="0">OFF</tspan>
         </text>
      </g>
      <g id="TEXT-3" data-name="TEXT">
         <text class="cls-1" transform="translate(42.4349 218.5727)">
            <tspan x="0" y="0">EA</tspan>
         </text>
      </g>
      <g id="TEXT-4" data-name="TEXT">
         <text class="cls-1" transform="translate(162.3675 218.5727)">
            <tspan x="0" y="0">EN</tspan>
         </text>
      </g>
      <g id="TEXT-5" data-name="TEXT">
         <text class="cls-2" transform="translate(24.1156 46.9907)">
            <tspan x="0" y="0">OFF</tspan>
         </text>
      </g>
      <g id="TEXT-6" data-name="TEXT">
         <text class="cls-2" transform="translate(27.2064 30.9741)">
            <tspan x="0" y="0">ON</tspan>
         </text>
      </g>
      <g id="TEXT-7" data-name="TEXT">
         <text class="cls-2" transform="translate(144.3753 46.5898)">
            <tspan x="0" y="0">OFF</tspan>
         </text>
      </g>
      <g id="TEXT-8" data-name="TEXT">
         <text class="cls-2" transform="translate(147.4661 30.5732)">
            <tspan x="0" y="0">ON</tspan>
         </text>
      </g>
      <g id="TEXT-9" data-name="TEXT">
         <text class="cls-2" transform="translate(74.8958 119.0962)">
            <tspan x="0" y="0">ON</tspan>
         </text>
      </g>
      <g id="TEXT-10" data-name="TEXT">
         <text class="cls-2" transform="translate(71.805 135.1128)">
            <tspan x="0" y="0">OFF</tspan>
         </text>
      </g>
      <g id="CIRCLE-4" data-name="CIRCLE">
         <path class="cls-4"
               d="M216.5431,238.558c0-2.2903,1.8566-4.1469,4.1469-4.1469s4.1469,1.8566,4.1469,4.1469-1.8566,4.1469-4.1469,4.1469-4.1469-1.8566-4.1469-4.1469h0Z"/>
      </g>
      <g id="CIRCLE-5" data-name="CIRCLE">
         <path class="cls-5"
               d="M216.5431,248.9253c0-2.2903,1.8566-4.1469,4.1469-4.1469s4.1469,1.8566,4.1469,4.1469-1.8566,4.1469-4.1469,4.1469-4.1469-1.8566-4.1469-4.1469h0Z"/>
      </g>
      <g id="CIRCLE-6" data-name="CIRCLE">
         <path class="cls-4"
               d="M139.8251,187.7583c0-2.2903,1.8566-4.1469,4.1469-4.1469s4.1469,1.8566,4.1469,4.1469-1.8566,4.1469-4.1469,4.1469-4.1469-1.8566-4.1469-4.1469h0Z"/>
      </g>
      <g id="CIRCLE-7" data-name="CIRCLE">
         <path class="cls-5"
               d="M18.5278,58.5036c0-2.8628,2.3208-5.1836,5.1836-5.1836s5.1836,2.3208,5.1836,5.1836-2.3208,5.1836-5.1836,5.1836-5.1836-2.3208-5.1836-5.1836h0Z"/>
      </g>
      <g id="CIRCLE-8" data-name="CIRCLE">
         <path class="cls-5"
               d="M18.5278,187.7583c0-2.8628,2.3208-5.1836,5.1836-5.1836s5.1836,2.3208,5.1836,5.1836-2.3208,5.1836-5.1836,5.1836-5.1836-2.3208-5.1836-5.1836h0Z"/>
      </g>
      <g id="CIRCLE-9" data-name="CIRCLE">
         <path class="cls-4"
               d="M19.5646,187.7583c0-2.2903,1.8566-4.1469,4.1469-4.1469s4.1469,1.8566,4.1469,4.1469-1.8566,4.1469-4.1469,4.1469-4.1469-1.8566-4.1469-4.1469h0Z"/>
      </g>
      <g id="CIRCLE-10" data-name="CIRCLE">
         <path class="cls-5"
               d="M138.7884,187.7583c0-2.8628,2.3208-5.1836,5.1836-5.1836s5.1836,2.3208,5.1836,5.1836-2.3208,5.1836-5.1836,5.1836-5.1836-2.3208-5.1836-5.1836h0Z"/>
      </g>
      <g id="CIRCLE-11" data-name="CIRCLE">
         <path class="cls-5"
               d="M190.6249,214.7132c0-2.8628,2.3208-5.1836,5.1836-5.1836s5.1836,2.3208,5.1836,5.1836-2.3208,5.1836-5.1836,5.1836-5.1836-2.3208-5.1836-5.1836h0Z"/>
      </g>
      <g id="CIRCLE-12" data-name="CIRCLE">
         <path class="cls-5"
               d="M191.6616,214.7132c0-2.2903,1.8566-4.1469,4.1469-4.1469s4.1469,1.8566,4.1469,4.1469-1.8566,4.1469-4.1469,4.1469-4.1469-1.8566-4.1469-4.1469h0Z"/>
      </g>
      <g id="CIRCLE-13" data-name="CIRCLE">
         <path class="cls-5"
               d="M33.0421,99.6363c0-2.2903,1.8566-4.1469,4.1469-4.1469s4.1469,1.8566,4.1469,4.1469-1.8566,4.1469-4.1469,4.1469-4.1469-1.8566-4.1469-4.1469h0Z"/>
      </g>
      <g id="CIRCLE-14" data-name="CIRCLE">
         <path class="cls-5"
               d="M100.4294,124.5178c0-2.2903,1.8566-4.1469,4.1469-4.1469s4.1469,1.8566,4.1469,4.1469-1.8566,4.1469-4.1469,4.1469-4.1469-1.8566-4.1469-4.1469h0Z"/>
      </g>
      <g id="CIRCLE-15" data-name="CIRCLE">
         <path class="cls-4"
               d="M19.5646,171.1706c0-2.2903,1.8566-4.1469,4.1469-4.1469s4.1469,1.8566,4.1469,4.1469-1.8566,4.1469-4.1469,4.1469-4.1469-1.8566-4.1469-4.1469h0Z"/>
      </g>
      <g id="CIRCLE-16" data-name="CIRCLE">
         <path class="cls-3"
               d="M33.0421,171.1706c0-2.2903,1.8566-4.1469,4.1469-4.1469s4.1469,1.8566,4.1469,4.1469-1.8566,4.1469-4.1469,4.1469-4.1469-1.8566-4.1469-4.1469h0Z"/>
      </g>
      <g id="CIRCLE-17" data-name="CIRCLE">
         <path class="cls-4"
               d="M19.5646,214.7132c0-2.2903,1.8566-4.1469,4.1469-4.1469s4.1469,1.8566,4.1469,4.1469-1.8566,4.1469-4.1469,4.1469-4.1469-1.8566-4.1469-4.1469h0Z"/>
      </g>
      <g id="CIRCLE-18" data-name="CIRCLE">
         <path class="cls-5"
               d="M139.8251,214.7132c0-2.2903,1.8566-4.1469,4.1469-4.1469s4.1469,1.8566,4.1469,4.1469-1.8566,4.1469-4.1469,4.1469-4.1469-1.8566-4.1469-4.1469h0Z"/>
      </g>
      <g id="CIRCLE-19" data-name="CIRCLE">
         <path class="cls-5"
               d="M12.9827,40.5711c0-2.2903,1.8566-4.1469,4.1469-4.1469s4.1469,1.8566,4.1469,4.1469-1.8566,4.1469-4.1469,4.1469-4.1469-1.8566-4.1469-4.1469h0Z"/>
      </g>
      <g id="CIRCLE-20" data-name="CIRCLE">
         <path class="cls-5"
               d="M133.2433,40.1707c0-2.2903,1.8566-4.1469,4.1469-4.1469s4.1469,1.8566,4.1469,4.1469-1.8566,4.1469-4.1469,4.1469-4.1469-1.8566-4.1469-4.1469h0Z"/>
      </g>
      <g id="CIRCLE-21" data-name="CIRCLE">
         <path class="cls-4"
               d="M61.0337,118.2974c0-2.2903,1.8566-4.1469,4.1469-4.1469s4.1469,1.8566,4.1469,4.1469-1.8566,4.1469-4.1469,4.1469-4.1469-1.8566-4.1469-4.1469h0Z"/>
      </g>
      <g id="CIRCLE-22" data-name="CIRCLE">
         <path class="cls-5"
               d="M61.0337,128.6647c0-2.2903,1.8566-4.1469,4.1469-4.1469s4.1469,1.8566,4.1469,4.1469-1.8566,4.1469-4.1469,4.1469-4.1469-1.8566-4.1469-4.1469h0Z"/>
      </g>
   </g>
   <g id="White">
      <g id="CIRCLE-23" data-name="CIRCLE">
         <path class="cls-4"
               d="M19.5646,58.5036c0-2.2903,1.8566-4.1469,4.1469-4.1469s4.1469,1.8566,4.1469,4.1469-1.8566,4.1469-4.1469,4.1469-4.1469-1.8566-4.1469-4.1469h0Z"/>
      </g>
      <g id="CIRCLE-24" data-name="CIRCLE">
         <path class="cls-4"
               d="M19.5646,99.6363c0-2.2903,1.8566-4.1469,4.1469-4.1469s4.1469,1.8566,4.1469,4.1469-1.8566,4.1469-4.1469,4.1469-4.1469-1.8566-4.1469-4.1469h0Z"/>
      </g>
      <g id="CIRCLE-25" data-name="CIRCLE">
         <path class="cls-4"
               d="M12.9827,30.2039c0-2.2903,1.8566-4.1469,4.1469-4.1469s4.1469,1.8566,4.1469,4.1469-1.8566,4.1469-4.1469,4.1469-4.1469-1.8566-4.1469-4.1469h0Z"/>
      </g>
      <g id="CIRCLE-26" data-name="CIRCLE">
         <path class="cls-4"
               d="M133.2433,29.8034c0-2.2903,1.8566-4.1469,4.1469-4.1469s4.1469,1.8566,4.1469,4.1469-1.8566,4.1469-4.1469,4.1469-4.1469-1.8566-4.1469-4.1469h0Z"/>
      </g>
   </g>
   <g id="Layer_3" data-name="Layer 3"/>
</svg>
