<?xml version="1.0" encoding="UTF-8"?>
<svg xmlns="http://www.w3.org/2000/svg"
     id="Layer_5"
     data-name="Layer 5"
     width="210mm"
     height="45.6374mm"
     viewBox="0 0 595.2756 129.3659">
   <defs>
      <style>
      .cls-1, .cls-2 {
        font-family: ArialNarrow, Arial;
        font-size: 7.3932px;
      }

      .cls-2 {
        fill: #fff;
      }

      .cls-3 {
        fill: none;
        stroke: #000;
        stroke-linecap: round;
        stroke-miterlimit: 10;
        stroke-width: .6048px;
      }
    </style>
   </defs>
   <text class="cls-2" transform="translate(220.0747 38.9568)">
      <tspan x="0" y="0">Inverter fault</tspan>
   </text>
   <text class="cls-2" transform="translate(220.0747 57.5623)">
      <tspan x="0" y="0">Overload Inv./Bypass</tspan>
   </text>
   <text class="cls-2" transform="translate(220.0747 76.1687)">
      <tspan x="0" y="0">Inverter fuse blown</tspan>
   </text>
   <text class="cls-2" transform="translate(220.0747 94.7752)">
      <tspan x="0" y="0">Asynchronous</tspan>
   </text>
   <text class="cls-2" transform="translate(318.2236 94.7752)">
      <tspan x="0" y="0">EA Inhibited</tspan>
   </text>
   <text class="cls-2" transform="translate(318.2236 76.1687)">
      <tspan x="0" y="0">EN Inhibited</tspan>
   </text>
   <text class="cls-2" transform="translate(318.2236 57.5623)">
      <tspan x="0" y="0">Manual Bypass ON</tspan>
   </text>
   <text class="cls-2" transform="translate(318.2236 38.9568)">
      <tspan x="0" y="0">Bypass mains fault</tspan>
   </text>
   <text class="cls-2" transform="translate(416.373 38.9568)">
      <tspan x="0" y="0">Overtemperature</tspan>
   </text>
   <text class="cls-2" transform="translate(416.373 57.5623)">
      <tspan x="0" y="0">Fan failure</tspan>
   </text>
   <text class="cls-2" transform="translate(416.373 76.1687)">
      <tspan x="0" y="0">Power supply fault</tspan>
   </text>
   <text class="cls-2" transform="translate(514.5215 34.7693)">
      <tspan x="0" y="0">Q091/Q092/Q094/Q9.1</tspan>
   </text>
   <text class="cls-2" transform="translate(514.5215 43.1423)">
      <tspan x="0" y="0">breaker open</tspan>
   </text>
   <text class="cls-2" transform="translate(514.5215 53.3767)">
      <tspan x="0" y="0">F050/F051 Surge</tspan>
   </text>
   <text class="cls-2" transform="translate(514.5215 61.7498)">
      <tspan x="0" y="0">protection blown</tspan>
   </text>
   <text class="cls-2" transform="translate(514.5215 71.9832)">
      <tspan x="0" y="0">System output</tspan>
   </text>
   <text class="cls-2" transform="translate(514.5215 80.3552)">
      <tspan x="0" y="0">under/overvoltage</tspan>
   </text>
   <text class="cls-2" transform="translate(514.5215 94.7752)">
      <tspan x="0" y="0">ISBS controller fault</tspan>
   </text>
   <text class="cls-2" transform="translate(127.5073 38.9568)">
      <tspan x="0" y="0">Battery operation</tspan>
   </text>
   <text class="cls-2" transform="translate(127.5073 94.7752)">
      <tspan x="0" y="0">Earth fault DC</tspan>
   </text>
   <text class="cls-2" transform="translate(127.5073 76.1687)">
      <tspan x="0" y="0">Batt. disconnected</tspan>
   </text>
   <text class="cls-2" transform="translate(127.5073 57.5623)">
      <tspan x="0" y="0">Battery discharged</tspan>
   </text>
   <text class="cls-2" transform="translate(29.3589 94.7752)">
      <tspan x="0" y="0">Rectifier fuse blown</tspan>
   </text>
   <text class="cls-2" transform="translate(29.3589 76.1687)">
      <tspan x="0" y="0">DC out of tolerance</tspan>
   </text>
   <text class="cls-2" transform="translate(29.3589 57.5623)">
      <tspan x="0" y="0">Rectifier failure</tspan>
   </text>
   <text class="cls-2" transform="translate(29.3589 38.9568)">
      <tspan x="0" y="0">Rectifier mains fault</tspan>
   </text>
   <rect x="501.0473" y="34.4666" width="9.3033" height="3.721"/>
   <rect class="cls-3"
         x="501.0473"
         y="34.4666"
         width="9.3033"
         height="3.721"/>
   <line class="cls-3"
         x1="501.0473"
         y1="34.4666"
         x2="501.0473"
         y2="38.1876"/>
   <line class="cls-3"
         x1="501.0473"
         y1="34.4666"
         x2="501.0473"
         y2="34.4666"/>
   <line class="cls-3"
         x1="501.0473"
         y1="34.4666"
         x2="510.3506"
         y2="34.4666"/>
   <line class="cls-3"
         x1="510.3506"
         y1="34.4666"
         x2="510.3506"
         y2="34.4666"/>
   <line class="cls-3"
         x1="510.3506"
         y1="34.4666"
         x2="510.3506"
         y2="38.1876"/>
   <line class="cls-3"
         x1="510.3506"
         y1="38.1876"
         x2="510.3506"
         y2="38.1876"/>
   <line class="cls-3"
         x1="501.0473"
         y1="38.1876"
         x2="510.3506"
         y2="38.1876"/>
   <line class="cls-3"
         x1="501.0473"
         y1="38.1876"
         x2="501.0473"
         y2="38.1876"/>
   <path class="cls-3" d="M591.3814,11.5396c0-4.1097-3.3323-7.442-7.442-7.442"/>
   <path class="cls-3" d="M11.9793,4.0976c-4.1105,0-7.4428,3.3323-7.4428,7.442"/>
   <path class="cls-3"
         d="M585.4272,125.411c3.2885,0,5.9542-2.6655,5.9542-5.9541"/>
   <path class="cls-3" d="M4.5366,119.457c0,3.2885,2.6657,5.9541,5.9542,5.9541"/>
   <line class="cls-3"
         x1="10.4908"
         y1="125.4109"
         x2="585.428"
         y2="125.4109"/>
   <line class="cls-3"
         x1="591.3814"
         y1="11.5396"
         x2="591.3814"
         y2="119.457"/>
   <line class="cls-3"
         x1="4.5366"
         y1="11.5396"
         x2="4.5366"
         y2="119.457"/>
   <line class="cls-3"
         x1="11.9793"
         y1="4.0976"
         x2="585.428"
         y2="4.0976"/>
   <text class="cls-1" transform="translate(29.3589 94.7752)">
      <tspan x="0" y="0">Rectifier fuse blown</tspan>
   </text>
   <text class="cls-1" transform="translate(29.3589 76.1687)">
      <tspan x="0" y="0">DC out of tolerance</tspan>
   </text>
   <text class="cls-1" transform="translate(29.3589 57.5623)">
      <tspan x="0" y="0">Rectifier failure</tspan>
   </text>
   <text class="cls-1" transform="translate(29.3589 38.9568)">
      <tspan x="0" y="0">Rectifier mains fault</tspan>
   </text>
   <text class="cls-1" transform="translate(127.5073 38.9568)">
      <tspan x="0" y="0">Battery operation</tspan>
   </text>
   <text class="cls-1" transform="translate(127.5073 57.5623)">
      <tspan x="0" y="0">Battery discharged</tspan>
   </text>
   <text class="cls-1" transform="translate(127.5073 76.1687)">
      <tspan x="0" y="0">Batt. disconnected</tspan>
   </text>
   <text class="cls-1" transform="translate(127.5073 94.7752)">
      <tspan x="0" y="0">Earth fault DC</tspan>
   </text>
   <text class="cls-1" transform="translate(220.0747 57.5623)">
      <tspan x="0" y="0">Overload Inv./Bypass</tspan>
   </text>
   <text class="cls-1" transform="translate(220.0747 76.1687)">
      <tspan x="0" y="0">Inverter fuse blown</tspan>
   </text>
   <text class="cls-1" transform="translate(220.0747 94.7752)">
      <tspan x="0" y="0">Asynchronous</tspan>
   </text>
   <text class="cls-1" transform="translate(318.2236 38.9568)">
      <tspan x="0" y="0">Bypass mains fault</tspan>
   </text>
   <text class="cls-1" transform="translate(318.2236 57.5623)">
      <tspan x="0" y="0">Manual Bypass ON</tspan>
   </text>
   <text class="cls-1" transform="translate(318.2236 76.1687)">
      <tspan x="0" y="0">EN Inhibited</tspan>
   </text>
   <text class="cls-1" transform="translate(318.2236 94.7752)">
      <tspan x="0" y="0">EA Inhibited</tspan>
   </text>
   <text class="cls-1" transform="translate(416.373 38.9568)">
      <tspan x="0" y="0">Overtemperature</tspan>
   </text>
   <text class="cls-1" transform="translate(416.373 57.5623)">
      <tspan x="0" y="0">Fan failure</tspan>
   </text>
   <text class="cls-1" transform="translate(416.373 76.1687)">
      <tspan x="0" y="0">Power supply fault</tspan>
   </text>
   <text class="cls-1" transform="translate(514.5215 34.7693)">
      <tspan x="0" y="0">Q091/Q092/Q094/Q9.1</tspan>
   </text>
   <text class="cls-1" transform="translate(514.5215 43.1423)">
      <tspan x="0" y="0">breaker open</tspan>
   </text>
   <text class="cls-1" transform="translate(514.5215 53.3767)">
      <tspan x="0" y="0">F050/F051 Surge</tspan>
   </text>
   <text class="cls-1" transform="translate(514.5215 61.7498)">
      <tspan x="0" y="0">protection blown</tspan>
   </text>
   <text class="cls-1" transform="translate(514.5215 71.9832)">
      <tspan x="0" y="0">System output</tspan>
   </text>
   <text class="cls-1" transform="translate(514.5215 80.3552)">
      <tspan x="0" y="0">under/overvoltage</tspan>
   </text>
   <text class="cls-1" transform="translate(514.5215 94.7752)">
      <tspan x="0" y="0">ISBS controller fault</tspan>
   </text>
   <rect x="15.8863" y="34.4666" width="9.3033" height="3.721"/>
   <rect class="cls-3"
         x="15.8863"
         y="34.4666"
         width="9.3033"
         height="3.721"/>
   <line class="cls-3"
         x1="15.8863"
         y1="34.4666"
         x2="15.8863"
         y2="38.1876"/>
   <line class="cls-3"
         x1="15.8863"
         y1="34.4666"
         x2="15.8863"
         y2="34.4666"/>
   <line class="cls-3"
         x1="15.8863"
         y1="34.4666"
         x2="25.1896"
         y2="34.4666"/>
   <line class="cls-3"
         x1="25.1896"
         y1="34.4666"
         x2="25.1896"
         y2="34.4666"/>
   <line class="cls-3"
         x1="25.1896"
         y1="34.4666"
         x2="25.1896"
         y2="38.1876"/>
   <line class="cls-3"
         x1="25.1896"
         y1="38.1876"
         x2="25.1896"
         y2="38.1876"/>
   <line class="cls-3"
         x1="15.8863"
         y1="38.1876"
         x2="25.1896"
         y2="38.1876"/>
   <line class="cls-3"
         x1="15.8863"
         y1="38.1876"
         x2="15.8863"
         y2="38.1876"/>
   <rect x="15.8863" y="53.0724" width="9.3033" height="3.7217"/>
   <rect class="cls-3"
         x="15.8863"
         y="53.0724"
         width="9.3033"
         height="3.7217"/>
   <line class="cls-3"
         x1="15.8863"
         y1="53.0724"
         x2="15.8863"
         y2="56.7942"/>
   <line class="cls-3"
         x1="15.8863"
         y1="53.0724"
         x2="15.8863"
         y2="53.0724"/>
   <line class="cls-3"
         x1="15.8863"
         y1="53.0724"
         x2="25.1896"
         y2="53.0724"/>
   <line class="cls-3"
         x1="25.1896"
         y1="53.0724"
         x2="25.1896"
         y2="53.0724"/>
   <line class="cls-3"
         x1="25.1896"
         y1="53.0724"
         x2="25.1896"
         y2="56.7942"/>
   <line class="cls-3"
         x1="25.1896"
         y1="56.7942"
         x2="25.1896"
         y2="56.7942"/>
   <line class="cls-3"
         x1="15.8863"
         y1="56.7942"
         x2="25.1896"
         y2="56.7942"/>
   <line class="cls-3"
         x1="15.8863"
         y1="56.7942"
         x2="15.8863"
         y2="56.7942"/>
   <text class="cls-1" transform="translate(220.0747 38.9568)">
      <tspan x="0" y="0">Inverter fault</tspan>
   </text>
   <rect x="15.8863" y="71.6789" width="9.3033" height="3.7217"/>
   <rect class="cls-3"
         x="15.8863"
         y="71.6789"
         width="9.3033"
         height="3.7217"/>
   <line class="cls-3"
         x1="15.8863"
         y1="71.6789"
         x2="15.8863"
         y2="75.4007"/>
   <line class="cls-3"
         x1="15.8863"
         y1="71.6789"
         x2="15.8863"
         y2="71.6789"/>
   <line class="cls-3"
         x1="15.8863"
         y1="71.6789"
         x2="25.1896"
         y2="71.6789"/>
   <line class="cls-3"
         x1="25.1896"
         y1="71.6789"
         x2="25.1896"
         y2="71.6789"/>
   <line class="cls-3"
         x1="25.1896"
         y1="71.6789"
         x2="25.1896"
         y2="75.4007"/>
   <line class="cls-3"
         x1="25.1896"
         y1="75.4007"
         x2="25.1896"
         y2="75.4007"/>
   <line class="cls-3"
         x1="15.8863"
         y1="75.4007"
         x2="25.1896"
         y2="75.4007"/>
   <line class="cls-3"
         x1="15.8863"
         y1="75.4007"
         x2="15.8863"
         y2="75.4007"/>
   <rect x="15.8863" y="90.2854" width="9.3033" height="3.721"/>
   <rect class="cls-3"
         x="15.8863"
         y="90.2854"
         width="9.3033"
         height="3.721"/>
   <line class="cls-3"
         x1="15.8863"
         y1="90.2854"
         x2="15.8863"
         y2="94.0065"/>
   <line class="cls-3"
         x1="15.8863"
         y1="90.2854"
         x2="15.8863"
         y2="90.2854"/>
   <line class="cls-3"
         x1="15.8863"
         y1="90.2854"
         x2="25.1896"
         y2="90.2854"/>
   <line class="cls-3"
         x1="25.1896"
         y1="90.2854"
         x2="25.1896"
         y2="90.2854"/>
   <line class="cls-3"
         x1="25.1896"
         y1="90.2854"
         x2="25.1896"
         y2="94.0065"/>
   <line class="cls-3"
         x1="25.1896"
         y1="94.0065"
         x2="25.1896"
         y2="94.0065"/>
   <line class="cls-3"
         x1="15.8863"
         y1="94.0065"
         x2="25.1896"
         y2="94.0065"/>
   <line class="cls-3"
         x1="15.8863"
         y1="94.0065"
         x2="15.8863"
         y2="94.0065"/>
   <rect x="114.0351" y="90.2854" width="9.3033" height="3.721"/>
   <rect class="cls-3"
         x="114.0351"
         y="90.2854"
         width="9.3033"
         height="3.721"/>
   <line class="cls-3"
         x1="114.0351"
         y1="90.2854"
         x2="114.0351"
         y2="94.0065"/>
   <line class="cls-3"
         x1="114.0351"
         y1="90.2854"
         x2="114.0351"
         y2="90.2854"/>
   <line class="cls-3"
         x1="114.0351"
         y1="90.2854"
         x2="123.3384"
         y2="90.2854"/>
   <line class="cls-3"
         x1="123.3384"
         y1="90.2854"
         x2="123.3384"
         y2="90.2854"/>
   <line class="cls-3"
         x1="123.3384"
         y1="90.2854"
         x2="123.3384"
         y2="94.0065"/>
   <line class="cls-3"
         x1="123.3384"
         y1="94.0065"
         x2="123.3384"
         y2="94.0065"/>
   <line class="cls-3"
         x1="114.0351"
         y1="94.0065"
         x2="123.3384"
         y2="94.0065"/>
   <line class="cls-3"
         x1="114.0351"
         y1="94.0065"
         x2="114.0351"
         y2="94.0065"/>
   <rect x="114.0351" y="71.6789" width="9.3033" height="3.7217"/>
   <rect class="cls-3"
         x="114.0351"
         y="71.6789"
         width="9.3033"
         height="3.7217"/>
   <line class="cls-3"
         x1="114.0351"
         y1="71.6789"
         x2="114.0351"
         y2="75.4007"/>
   <line class="cls-3"
         x1="114.0351"
         y1="71.6789"
         x2="114.0351"
         y2="71.6789"/>
   <line class="cls-3"
         x1="114.0351"
         y1="71.6789"
         x2="123.3384"
         y2="71.6789"/>
   <line class="cls-3"
         x1="123.3384"
         y1="71.6789"
         x2="123.3384"
         y2="71.6789"/>
   <line class="cls-3"
         x1="123.3384"
         y1="71.6789"
         x2="123.3384"
         y2="75.4007"/>
   <line class="cls-3"
         x1="123.3384"
         y1="75.4007"
         x2="123.3384"
         y2="75.4007"/>
   <line class="cls-3"
         x1="114.0351"
         y1="75.4007"
         x2="123.3384"
         y2="75.4007"/>
   <line class="cls-3"
         x1="114.0351"
         y1="75.4007"
         x2="114.0351"
         y2="75.4007"/>
   <rect x="114.0351" y="53.0724" width="9.3033" height="3.7217"/>
   <rect class="cls-3"
         x="114.0351"
         y="53.0724"
         width="9.3033"
         height="3.7217"/>
   <line class="cls-3"
         x1="114.0351"
         y1="53.0724"
         x2="114.0351"
         y2="56.7942"/>
   <line class="cls-3"
         x1="114.0351"
         y1="53.0724"
         x2="114.0351"
         y2="53.0724"/>
   <line class="cls-3"
         x1="114.0351"
         y1="53.0724"
         x2="123.3384"
         y2="53.0724"/>
   <line class="cls-3"
         x1="123.3384"
         y1="53.0724"
         x2="123.3384"
         y2="53.0724"/>
   <line class="cls-3"
         x1="123.3384"
         y1="53.0724"
         x2="123.3384"
         y2="56.7942"/>
   <line class="cls-3"
         x1="123.3384"
         y1="56.7942"
         x2="123.3384"
         y2="56.7942"/>
   <line class="cls-3"
         x1="114.0351"
         y1="56.7942"
         x2="123.3384"
         y2="56.7942"/>
   <line class="cls-3"
         x1="114.0351"
         y1="56.7942"
         x2="114.0351"
         y2="56.7942"/>
   <rect x="114.0351" y="34.4666" width="9.3033" height="3.721"/>
   <rect class="cls-3"
         x="114.0351"
         y="34.4666"
         width="9.3033"
         height="3.721"/>
   <line class="cls-3"
         x1="114.0351"
         y1="34.4666"
         x2="114.0351"
         y2="38.1876"/>
   <line class="cls-3"
         x1="114.0351"
         y1="34.4666"
         x2="114.0351"
         y2="34.4666"/>
   <line class="cls-3"
         x1="114.0351"
         y1="34.4666"
         x2="123.3384"
         y2="34.4666"/>
   <line class="cls-3"
         x1="123.3384"
         y1="34.4666"
         x2="123.3384"
         y2="34.4666"/>
   <line class="cls-3"
         x1="123.3384"
         y1="34.4666"
         x2="123.3384"
         y2="38.1876"/>
   <line class="cls-3"
         x1="123.3384"
         y1="38.1876"
         x2="123.3384"
         y2="38.1876"/>
   <line class="cls-3"
         x1="114.0351"
         y1="38.1876"
         x2="123.3384"
         y2="38.1876"/>
   <line class="cls-3"
         x1="114.0351"
         y1="38.1876"
         x2="114.0351"
         y2="38.1876"/>
   <rect x="206.6017" y="90.2854" width="9.3033" height="3.721"/>
   <rect class="cls-3"
         x="206.6017"
         y="90.2854"
         width="9.3033"
         height="3.721"/>
   <line class="cls-3"
         x1="206.6017"
         y1="90.2854"
         x2="206.6017"
         y2="94.0065"/>
   <line class="cls-3"
         x1="206.6017"
         y1="90.2854"
         x2="206.6017"
         y2="90.2854"/>
   <line class="cls-3"
         x1="206.6017"
         y1="90.2854"
         x2="215.9049"
         y2="90.2854"/>
   <line class="cls-3"
         x1="215.9049"
         y1="90.2854"
         x2="215.9049"
         y2="90.2854"/>
   <line class="cls-3"
         x1="215.9049"
         y1="90.2854"
         x2="215.9049"
         y2="94.0065"/>
   <line class="cls-3"
         x1="215.9049"
         y1="94.0065"
         x2="215.9049"
         y2="94.0065"/>
   <line class="cls-3"
         x1="206.6017"
         y1="94.0065"
         x2="215.9049"
         y2="94.0065"/>
   <line class="cls-3"
         x1="206.6017"
         y1="94.0065"
         x2="206.6017"
         y2="94.0065"/>
   <rect x="206.6017" y="71.6789" width="9.3033" height="3.7217"/>
   <rect class="cls-3"
         x="206.6017"
         y="71.6789"
         width="9.3033"
         height="3.7217"/>
   <line class="cls-3"
         x1="206.6017"
         y1="71.6789"
         x2="206.6017"
         y2="75.4007"/>
   <line class="cls-3"
         x1="206.6017"
         y1="71.6789"
         x2="206.6017"
         y2="71.6789"/>
   <line class="cls-3"
         x1="206.6017"
         y1="71.6789"
         x2="215.9049"
         y2="71.6789"/>
   <line class="cls-3"
         x1="215.9049"
         y1="71.6789"
         x2="215.9049"
         y2="71.6789"/>
   <line class="cls-3"
         x1="215.9049"
         y1="71.6789"
         x2="215.9049"
         y2="75.4007"/>
   <line class="cls-3"
         x1="215.9049"
         y1="75.4007"
         x2="215.9049"
         y2="75.4007"/>
   <line class="cls-3"
         x1="206.6017"
         y1="75.4007"
         x2="215.9049"
         y2="75.4007"/>
   <line class="cls-3"
         x1="206.6017"
         y1="75.4007"
         x2="206.6017"
         y2="75.4007"/>
   <rect x="206.6017" y="53.0724" width="9.3033" height="3.7217"/>
   <rect class="cls-3"
         x="206.6017"
         y="53.0724"
         width="9.3033"
         height="3.7217"/>
   <line class="cls-3"
         x1="206.6017"
         y1="53.0724"
         x2="206.6017"
         y2="56.7942"/>
   <line class="cls-3"
         x1="206.6017"
         y1="53.0724"
         x2="206.6017"
         y2="53.0724"/>
   <line class="cls-3"
         x1="206.6017"
         y1="53.0724"
         x2="215.9049"
         y2="53.0724"/>
   <line class="cls-3"
         x1="215.9049"
         y1="53.0724"
         x2="215.9049"
         y2="53.0724"/>
   <line class="cls-3"
         x1="215.9049"
         y1="53.0724"
         x2="215.9049"
         y2="56.7942"/>
   <line class="cls-3"
         x1="215.9049"
         y1="56.7942"
         x2="215.9049"
         y2="56.7942"/>
   <line class="cls-3"
         x1="206.6017"
         y1="56.7942"
         x2="215.9049"
         y2="56.7942"/>
   <line class="cls-3"
         x1="206.6017"
         y1="56.7942"
         x2="206.6017"
         y2="56.7942"/>
   <rect x="206.6017" y="34.4666" width="9.3033" height="3.721"/>
   <rect class="cls-3"
         x="206.6017"
         y="34.4666"
         width="9.3033"
         height="3.721"/>
   <line class="cls-3"
         x1="206.6017"
         y1="34.4666"
         x2="206.6017"
         y2="38.1876"/>
   <line class="cls-3"
         x1="206.6017"
         y1="34.4666"
         x2="206.6017"
         y2="34.4666"/>
   <line class="cls-3"
         x1="206.6017"
         y1="34.4666"
         x2="215.9049"
         y2="34.4666"/>
   <line class="cls-3"
         x1="215.9049"
         y1="34.4666"
         x2="215.9049"
         y2="34.4666"/>
   <line class="cls-3"
         x1="215.9049"
         y1="34.4666"
         x2="215.9049"
         y2="38.1876"/>
   <line class="cls-3"
         x1="215.9049"
         y1="38.1876"
         x2="215.9049"
         y2="38.1876"/>
   <line class="cls-3"
         x1="206.6017"
         y1="38.1876"
         x2="215.9049"
         y2="38.1876"/>
   <line class="cls-3"
         x1="206.6017"
         y1="38.1876"
         x2="206.6017"
         y2="38.1876"/>
   <rect x="304.7505" y="90.2854" width="9.3032" height="3.721"/>
   <rect class="cls-3"
         x="304.7505"
         y="90.2854"
         width="9.3032"
         height="3.721"/>
   <line class="cls-3"
         x1="304.7505"
         y1="90.2854"
         x2="304.7505"
         y2="94.0065"/>
   <line class="cls-3"
         x1="304.7505"
         y1="90.2854"
         x2="304.7505"
         y2="90.2854"/>
   <line class="cls-3"
         x1="304.7505"
         y1="90.2854"
         x2="314.0537"
         y2="90.2854"/>
   <line class="cls-3"
         x1="314.0537"
         y1="90.2854"
         x2="314.0537"
         y2="90.2854"/>
   <line class="cls-3"
         x1="314.0537"
         y1="90.2854"
         x2="314.0537"
         y2="94.0065"/>
   <line class="cls-3"
         x1="314.0537"
         y1="94.0065"
         x2="314.0537"
         y2="94.0065"/>
   <line class="cls-3"
         x1="304.7505"
         y1="94.0065"
         x2="314.0537"
         y2="94.0065"/>
   <line class="cls-3"
         x1="304.7505"
         y1="94.0065"
         x2="304.7505"
         y2="94.0065"/>
   <rect x="304.7505" y="71.6789" width="9.3032" height="3.7217"/>
   <rect class="cls-3"
         x="304.7505"
         y="71.6789"
         width="9.3032"
         height="3.7217"/>
   <line class="cls-3"
         x1="304.7505"
         y1="71.6789"
         x2="304.7505"
         y2="75.4007"/>
   <line class="cls-3"
         x1="304.7505"
         y1="71.6789"
         x2="304.7505"
         y2="71.6789"/>
   <line class="cls-3"
         x1="304.7505"
         y1="71.6789"
         x2="314.0537"
         y2="71.6789"/>
   <line class="cls-3"
         x1="314.0537"
         y1="71.6789"
         x2="314.0537"
         y2="71.6789"/>
   <line class="cls-3"
         x1="314.0537"
         y1="71.6789"
         x2="314.0537"
         y2="75.4007"/>
   <line class="cls-3"
         x1="314.0537"
         y1="75.4007"
         x2="314.0537"
         y2="75.4007"/>
   <line class="cls-3"
         x1="304.7505"
         y1="75.4007"
         x2="314.0537"
         y2="75.4007"/>
   <line class="cls-3"
         x1="304.7505"
         y1="75.4007"
         x2="304.7505"
         y2="75.4007"/>
   <rect x="304.7505" y="53.0724" width="9.3032" height="3.7217"/>
   <rect class="cls-3"
         x="304.7505"
         y="53.0724"
         width="9.3032"
         height="3.7217"/>
   <line class="cls-3"
         x1="304.7505"
         y1="53.0724"
         x2="304.7505"
         y2="56.7942"/>
   <line class="cls-3"
         x1="304.7505"
         y1="53.0724"
         x2="304.7505"
         y2="53.0724"/>
   <line class="cls-3"
         x1="304.7505"
         y1="53.0724"
         x2="314.0537"
         y2="53.0724"/>
   <line class="cls-3"
         x1="314.0537"
         y1="53.0724"
         x2="314.0537"
         y2="53.0724"/>
   <line class="cls-3"
         x1="314.0537"
         y1="53.0724"
         x2="314.0537"
         y2="56.7942"/>
   <line class="cls-3"
         x1="314.0537"
         y1="56.7942"
         x2="314.0537"
         y2="56.7942"/>
   <line class="cls-3"
         x1="304.7505"
         y1="56.7942"
         x2="314.0537"
         y2="56.7942"/>
   <line class="cls-3"
         x1="304.7505"
         y1="56.7942"
         x2="304.7505"
         y2="56.7942"/>
   <rect x="304.7505" y="34.4666" width="9.3032" height="3.721"/>
   <rect class="cls-3"
         x="304.7505"
         y="34.4666"
         width="9.3032"
         height="3.721"/>
   <line class="cls-3"
         x1="304.7505"
         y1="34.4666"
         x2="304.7505"
         y2="38.1876"/>
   <line class="cls-3"
         x1="304.7505"
         y1="34.4666"
         x2="304.7505"
         y2="34.4666"/>
   <line class="cls-3"
         x1="304.7505"
         y1="34.4666"
         x2="314.0537"
         y2="34.4666"/>
   <line class="cls-3"
         x1="314.0537"
         y1="34.4666"
         x2="314.0537"
         y2="34.4666"/>
   <line class="cls-3"
         x1="314.0537"
         y1="34.4666"
         x2="314.0537"
         y2="38.1876"/>
   <line class="cls-3"
         x1="314.0537"
         y1="38.1876"
         x2="314.0537"
         y2="38.1876"/>
   <line class="cls-3"
         x1="304.7505"
         y1="38.1876"
         x2="314.0537"
         y2="38.1876"/>
   <line class="cls-3"
         x1="304.7505"
         y1="38.1876"
         x2="304.7505"
         y2="38.1876"/>
   <rect x="402.8993" y="90.2854" width="9.3032" height="3.721"/>
   <rect class="cls-3"
         x="402.8993"
         y="90.2854"
         width="9.3032"
         height="3.721"/>
   <line class="cls-3"
         x1="402.8993"
         y1="90.2854"
         x2="402.8993"
         y2="94.0065"/>
   <line class="cls-3"
         x1="402.8993"
         y1="90.2854"
         x2="402.8993"
         y2="90.2854"/>
   <line class="cls-3"
         x1="402.8993"
         y1="90.2854"
         x2="412.2025"
         y2="90.2854"/>
   <line class="cls-3"
         x1="412.2025"
         y1="90.2854"
         x2="412.2025"
         y2="90.2854"/>
   <line class="cls-3"
         x1="412.2025"
         y1="90.2854"
         x2="412.2025"
         y2="94.0065"/>
   <line class="cls-3"
         x1="412.2025"
         y1="94.0065"
         x2="412.2025"
         y2="94.0065"/>
   <line class="cls-3"
         x1="402.8993"
         y1="94.0065"
         x2="412.2025"
         y2="94.0065"/>
   <line class="cls-3"
         x1="402.8993"
         y1="94.0065"
         x2="402.8993"
         y2="94.0065"/>
   <rect x="402.8993" y="71.6789" width="9.3032" height="3.7217"/>
   <rect class="cls-3"
         x="402.8993"
         y="71.6789"
         width="9.3032"
         height="3.7217"/>
   <line class="cls-3"
         x1="402.8993"
         y1="71.6789"
         x2="402.8993"
         y2="75.4007"/>
   <line class="cls-3"
         x1="402.8993"
         y1="71.6789"
         x2="402.8993"
         y2="71.6789"/>
   <line class="cls-3"
         x1="402.8993"
         y1="71.6789"
         x2="412.2025"
         y2="71.6789"/>
   <line class="cls-3"
         x1="412.2025"
         y1="71.6789"
         x2="412.2025"
         y2="71.6789"/>
   <line class="cls-3"
         x1="412.2025"
         y1="71.6789"
         x2="412.2025"
         y2="75.4007"/>
   <line class="cls-3"
         x1="412.2025"
         y1="75.4007"
         x2="412.2025"
         y2="75.4007"/>
   <line class="cls-3"
         x1="402.8993"
         y1="75.4007"
         x2="412.2025"
         y2="75.4007"/>
   <line class="cls-3"
         x1="402.8993"
         y1="75.4007"
         x2="402.8993"
         y2="75.4007"/>
   <rect x="402.8993" y="53.0724" width="9.3032" height="3.7217"/>
   <rect class="cls-3"
         x="402.8993"
         y="53.0724"
         width="9.3032"
         height="3.7217"/>
   <line class="cls-3"
         x1="402.8993"
         y1="53.0724"
         x2="402.8993"
         y2="56.7942"/>
   <line class="cls-3"
         x1="402.8993"
         y1="53.0724"
         x2="402.8993"
         y2="53.0724"/>
   <line class="cls-3"
         x1="402.8993"
         y1="53.0724"
         x2="412.2025"
         y2="53.0724"/>
   <line class="cls-3"
         x1="412.2025"
         y1="53.0724"
         x2="412.2025"
         y2="53.0724"/>
   <line class="cls-3"
         x1="412.2025"
         y1="53.0724"
         x2="412.2025"
         y2="56.7942"/>
   <line class="cls-3"
         x1="412.2025"
         y1="56.7942"
         x2="412.2025"
         y2="56.7942"/>
   <line class="cls-3"
         x1="402.8993"
         y1="56.7942"
         x2="412.2025"
         y2="56.7942"/>
   <line class="cls-3"
         x1="402.8993"
         y1="56.7942"
         x2="402.8993"
         y2="56.7942"/>
   <rect x="402.8993" y="34.4666" width="9.3032" height="3.721"/>
   <rect class="cls-3"
         x="402.8993"
         y="34.4666"
         width="9.3032"
         height="3.721"/>
   <line class="cls-3"
         x1="402.8993"
         y1="34.4666"
         x2="402.8993"
         y2="38.1876"/>
   <line class="cls-3"
         x1="402.8993"
         y1="34.4666"
         x2="402.8993"
         y2="34.4666"/>
   <line class="cls-3"
         x1="402.8993"
         y1="34.4666"
         x2="412.2025"
         y2="34.4666"/>
   <line class="cls-3"
         x1="412.2025"
         y1="34.4666"
         x2="412.2025"
         y2="34.4666"/>
   <line class="cls-3"
         x1="412.2025"
         y1="34.4666"
         x2="412.2025"
         y2="38.1876"/>
   <line class="cls-3"
         x1="412.2025"
         y1="38.1876"
         x2="412.2025"
         y2="38.1876"/>
   <line class="cls-3"
         x1="402.8993"
         y1="38.1876"
         x2="412.2025"
         y2="38.1876"/>
   <line class="cls-3"
         x1="402.8993"
         y1="38.1876"
         x2="402.8993"
         y2="38.1876"/>
   <rect x="501.0473" y="90.2854" width="9.3033" height="3.721"/>
   <rect class="cls-3"
         x="501.0473"
         y="90.2854"
         width="9.3033"
         height="3.721"/>
   <line class="cls-3"
         x1="501.0473"
         y1="90.2854"
         x2="501.0473"
         y2="94.0065"/>
   <line class="cls-3"
         x1="501.0473"
         y1="90.2854"
         x2="501.0473"
         y2="90.2854"/>
   <line class="cls-3"
         x1="501.0473"
         y1="90.2854"
         x2="510.3506"
         y2="90.2854"/>
   <line class="cls-3"
         x1="510.3506"
         y1="90.2854"
         x2="510.3506"
         y2="90.2854"/>
   <line class="cls-3"
         x1="510.3506"
         y1="90.2854"
         x2="510.3506"
         y2="94.0065"/>
   <line class="cls-3"
         x1="510.3506"
         y1="94.0065"
         x2="510.3506"
         y2="94.0065"/>
   <line class="cls-3"
         x1="501.0473"
         y1="94.0065"
         x2="510.3506"
         y2="94.0065"/>
   <line class="cls-3"
         x1="501.0473"
         y1="94.0065"
         x2="501.0473"
         y2="94.0065"/>
   <rect x="501.0473" y="71.6789" width="9.3033" height="3.7217"/>
   <rect class="cls-3"
         x="501.0473"
         y="71.6789"
         width="9.3033"
         height="3.7217"/>
   <line class="cls-3"
         x1="501.0473"
         y1="71.6789"
         x2="501.0473"
         y2="75.4007"/>
   <line class="cls-3"
         x1="501.0473"
         y1="71.6789"
         x2="501.0473"
         y2="71.6789"/>
   <line class="cls-3"
         x1="501.0473"
         y1="71.6789"
         x2="510.3506"
         y2="71.6789"/>
   <line class="cls-3"
         x1="510.3506"
         y1="71.6789"
         x2="510.3506"
         y2="71.6789"/>
   <line class="cls-3"
         x1="510.3506"
         y1="71.6789"
         x2="510.3506"
         y2="75.4007"/>
   <line class="cls-3"
         x1="510.3506"
         y1="75.4007"
         x2="510.3506"
         y2="75.4007"/>
   <line class="cls-3"
         x1="501.0473"
         y1="75.4007"
         x2="510.3506"
         y2="75.4007"/>
   <line class="cls-3"
         x1="501.0473"
         y1="75.4007"
         x2="501.0473"
         y2="75.4007"/>
   <rect x="501.0473" y="53.0724" width="9.3033" height="3.7217"/>
   <rect class="cls-3"
         x="501.0473"
         y="53.0724"
         width="9.3033"
         height="3.7217"/>
   <line class="cls-3"
         x1="501.0473"
         y1="53.0724"
         x2="501.0473"
         y2="56.7942"/>
   <line class="cls-3"
         x1="501.0473"
         y1="53.0724"
         x2="501.0473"
         y2="53.0724"/>
   <line class="cls-3"
         x1="501.0473"
         y1="53.0724"
         x2="510.3506"
         y2="53.0724"/>
   <line class="cls-3"
         x1="510.3506"
         y1="53.0724"
         x2="510.3506"
         y2="53.0724"/>
   <line class="cls-3"
         x1="510.3506"
         y1="53.0724"
         x2="510.3506"
         y2="56.7942"/>
   <line class="cls-3"
         x1="510.3506"
         y1="56.7942"
         x2="510.3506"
         y2="56.7942"/>
   <line class="cls-3"
         x1="501.0473"
         y1="56.7942"
         x2="510.3506"
         y2="56.7942"/>
   <line class="cls-3"
         x1="501.0473"
         y1="56.7942"
         x2="501.0473"
         y2="56.7942"/>
</svg>
