<?xml version="1.0" encoding="UTF-8"?>
<svg xmlns="http://www.w3.org/2000/svg"
     xmlns:xlink="http://www.w3.org/1999/xlink"
     id="Layer_1"
     data-name="Layer 1"
     width="71.7735mm"
     height="66.7109mm"
     viewBox="0 0 203.4525 189.1018">
   <defs>
      <style>
      .cls-1, .cls-13, .cls-17, .cls-2, .cls-22, .cls-3, .cls-7 {
        fill: none;
      }

      .cls-17, .cls-2, .cls-3 {
        stroke: #231f20;
      }

      .cls-17, .cls-2, .cls-22, .cls-3 {
        stroke-miterlimit: 10;
      }

      .cls-17, .cls-2 {
        stroke-width: 0.9866px;
      }

      .cls-13, .cls-22, .cls-3 {
        stroke-width: 1.5px;
      }

      .cls-4 {
        fill: #231f20;
      }

      .cls-5 {
        clip-path: url(#clip-path);
      }

      .cls-12, .cls-6 {
        fill-rule: evenodd;
      }

      .cls-13, .cls-22, .cls-7 {
        stroke: #000;
      }

      .cls-13, .cls-7 {
        stroke-miterlimit: 3;
      }

      .cls-8 {
        clip-path: url(#clip-path-3);
      }

      .cls-9 {
        clip-path: url(#clip-path-4);
      }

      .cls-10 {
        clip-path: url(#clip-path-5);
      }

      .cls-11 {
        clip-path: url(#clip-path-7);
      }

      .cls-12, .cls-20 {
        fill: #fff;
      }

      .cls-14 {
        clip-path: url(#clip-path-9);
      }

      .cls-15 {
        clip-path: url(#clip-path-11);
      }

      .cls-16 {
        clip-path: url(#clip-path-13);
      }

      .cls-17 {
        stroke-dasharray: 2.0509 2.0509;
      }

      .cls-18 {
        font-size: 12px;
        font-family: ArialMT, Arial;
      }

      .cls-19 {
        clip-path: url(#clip-path-15);
      }

      .cls-21 {
        clip-path: url(#clip-path-16);
      }

      .cls-23 {
        clip-path: url(#clip-path-18);
      }

      .cls-24 {
        clip-path: url(#clip-path-19);
      }
    </style>
      <clipPath id="clip-path">
         <rect class="cls-1"
               x="4.9988"
               y="117.1111"
               width="9.1418"
               height="9.1639"/>
      </clipPath>
      <clipPath id="clip-path-3">
         <rect class="cls-1"
               x="44.9988"
               y="138.2305"
               width="9.1418"
               height="9.1639"/>
      </clipPath>
      <clipPath id="clip-path-4">
         <rect class="cls-1"
               x="44.9988"
               y="138.2304"
               width="9.142"
               height="9.164"/>
      </clipPath>
      <clipPath id="clip-path-5">
         <rect class="cls-1"
               x="123.5842"
               y="117.1111"
               width="9.1418"
               height="9.1639"/>
      </clipPath>
      <clipPath id="clip-path-7">
         <rect class="cls-1"
               x="3.4447"
               y="0.9697"
               width="12.25"
               height="12.25"/>
      </clipPath>
      <clipPath id="clip-path-9">
         <rect class="cls-1"
               x="43.4447"
               y="0.9697"
               width="12.25"
               height="12.25"/>
      </clipPath>
      <clipPath id="clip-path-11">
         <rect class="cls-1"
               x="3.4447"
               y="175.882"
               width="12.25"
               height="12.25"/>
      </clipPath>
      <clipPath id="clip-path-13">
         <rect class="cls-1"
               x="43.4447"
               y="175.882"
               width="12.25"
               height="12.25"/>
      </clipPath>
      <clipPath id="clip-path-15">
         <rect class="cls-1"
               x="111.525"
               y="126.5442"
               width="33.26"
               height="32.5366"/>
      </clipPath>
      <clipPath id="clip-path-16">
         <rect class="cls-1"
               x="111.525"
               y="126.5447"
               width="33.26"
               height="32.536"/>
      </clipPath>
      <clipPath id="clip-path-18">
         <rect class="cls-1"
               x="111.525"
               y="82.2532"
               width="33.26"
               height="32.5366"/>
      </clipPath>
      <clipPath id="clip-path-19">
         <rect class="cls-1"
               x="111.525"
               y="82.2538"
               width="33.26"
               height="32.536"/>
      </clipPath>
   </defs>
   <line class="cls-2"
         x1="9.5843"
         y1="6.5496"
         x2="9.5843"
         y2="180.8876"/>
   <line class="cls-3"
         x1="9.5697"
         y1="6.535"
         x2="9.5697"
         y2="180.8731"/>
   <line class="cls-3"
         x1="49.5697"
         y1="7.6544"
         x2="49.5697"
         y2="181.9925"/>
   <line class="cls-3"
         x1="128.1551"
         y1="121.693"
         x2="9.5697"
         y2="121.693"/>
   <polyline class="cls-3" points="145.163 177.143 188.036 177.143 188.036 71.471"/>
   <polyline class="cls-3"
             points="50.17 142.812 162.366 142.812 162.366 36.034 128.155 36.034 128.155 44.797"/>
   <line class="cls-3"
         x1="128.1551"
         y1="77.5524"
         x2="128.1551"
         y2="167.5198"/>
   <g>
      <polyline class="cls-3"
                points="113.082 59.839 108.384 59.839 108.384 36.034 79.414 36.034 79.414 98.521 148.036 98.521 148.036 60.132 143.338 60.132"/>
      <polygon class="cls-4"
               points="111.002 56.789 122.384 59.839 111.002 62.89 111.002 56.789"/>
      <polygon class="cls-4"
               points="145.419 57.082 134.036 60.132 145.419 63.183 145.419 57.082"/>
   </g>
   <g id="shape116-109">
      <g class="cls-5">
         <g class="cls-5">
            <path class="cls-6"
                  d="M9.569,119.6864a2.006,2.006,0,1,1-2,2.006,2.002,2.002,0,0,1,2-2.006"/>
            <ellipse class="cls-7" cx="9.569" cy="121.6924" rx="2" ry="2.006"/>
         </g>
      </g>
   </g>
   <g id="shape116-109-2" data-name="shape116-109">
      <g class="cls-8">
         <g class="cls-9">
            <path class="cls-6"
                  d="M49.569,140.8058a2.006,2.006,0,1,1-2,2.006,2.002,2.002,0,0,1,2-2.006"/>
            <ellipse class="cls-7" cx="49.569" cy="142.8118" rx="2" ry="2.006"/>
         </g>
      </g>
   </g>
   <g id="shape116-109-3" data-name="shape116-109">
      <g class="cls-10">
         <g class="cls-10">
            <path class="cls-6"
                  d="M128.1544,119.6864a2.006,2.006,0,1,1-2,2.006,2.002,2.002,0,0,1,2-2.006"/>
            <ellipse class="cls-7" cx="128.1544" cy="121.6924" rx="2" ry="2.006"/>
         </g>
      </g>
   </g>
   <g id="Artwork_13" data-name="Artwork 13">
      <g class="cls-11">
         <g class="cls-11">
            <path class="cls-12" d="M9.57,3.0955a4,4,0,1,1-4,4,4.0015,4.0015,0,0,1,4-4"/>
            <circle class="cls-13" cx="9.5695" cy="7.0955" r="4"/>
         </g>
      </g>
   </g>
   <g id="Artwork_13-2" data-name="Artwork 13">
      <g class="cls-14">
         <g class="cls-14">
            <path class="cls-12" d="M49.57,3.0955a4,4,0,1,1-4,4,4.0015,4.0015,0,0,1,4-4"/>
            <circle class="cls-13" cx="49.5695" cy="7.0955" r="4"/>
         </g>
      </g>
   </g>
   <g id="Artwork_13-3" data-name="Artwork 13">
      <g class="cls-15">
         <g class="cls-15">
            <path class="cls-12" d="M9.57,178.0078a4,4,0,1,1-4,4,4.0015,4.0015,0,0,1,4-4"/>
            <circle class="cls-13" cx="9.5695" cy="182.0078" r="4"/>
         </g>
      </g>
   </g>
   <g id="Artwork_13-4" data-name="Artwork 13">
      <g class="cls-16">
         <g class="cls-16">
            <path class="cls-12"
                  d="M49.57,178.0078a4,4,0,1,1-4,4,4.0015,4.0015,0,0,1,4-4"/>
            <circle class="cls-13" cx="49.5695" cy="182.0078" r="4"/>
         </g>
      </g>
   </g>
   <rect class="cls-4"
         x="43.9004"
         y="44.7967"
         width="11.3386"
         height="34.0157"/>
   <rect class="cls-4"
         x="73.9004"
         y="44.7967"
         width="11.3386"
         height="34.0157"/>
   <rect class="cls-4"
         x="122.4858"
         y="44.7967"
         width="11.3386"
         height="34.0157"/>
   <rect class="cls-3"
         x="119.6511"
         y="160.1353"
         width="17.0079"
         height="34.0157"
         transform="translate(305.2982 48.9881) rotate(90)"/>
   <circle class="cls-3" cx="188.0358" cy="60.132" r="11.3386"/>
   <g>
      <line class="cls-2"
            x1="176.6972"
            y1="60.132"
            x2="175.6972"
            y2="60.132"/>
      <line class="cls-17"
            x1="173.6463"
            y1="60.132"
            x2="150.0612"
            y2="60.132"/>
      <line class="cls-2"
            x1="149.0358"
            y1="60.132"
            x2="148.0358"
            y2="60.132"/>
   </g>
   <text class="cls-18" transform="translate(179.7007 64.4963)">M1</text>
   <text class="cls-18" transform="translate(120.4849 181.0334)">N1</text>
   <text class="cls-18" transform="translate(135.8248 51.1789)">T2</text>
   <text class="cls-18" transform="translate(87.2388 51.1789)">T1</text>
   <polygon points="5.332 24.908 13.836 24.908 9.584 36.247 5.332 24.908"/>
   <polygon points="45.318 24.908 53.822 24.908 49.57 36.247 45.318 24.908"/>
   <polygon points="5.332 157.222 13.836 157.222 9.584 168.56 5.332 157.222"/>
   <polygon points="45.318 157.222 53.822 157.222 49.57 168.56 45.318 157.222"/>
   <g id="Artwork_28" data-name="Artwork 28">
      <g class="cls-19">
         <rect class="cls-20"
               x="113.561"
               y="139.8087"
               width="29.224"
               height="5.954"/>
         <g class="cls-21">
            <line class="cls-22"
                  x1="128.1726"
                  y1="126.5449"
                  x2="128.1726"
                  y2="159.0809"/>
         </g>
         <rect class="cls-20"
               x="126.293"
               y="156.3667"
               width="3.762"
               height="2.08"/>
         <g class="cls-21">
            <path class="cls-22"
                  d="M142.74,141.66c.03.38.044.766.044,1.152a14.612,14.612,0,1,1-29.148-1.488"/>
            <path d="M142.785,144.8437h0a2,2,0,1,1,2-2,2.0059,2.0059,0,0,1-2,2"/>
            <path d="M113.5252,144.8437h0a2,2,0,1,1,2-2,2.0059,2.0059,0,0,1-2,2"/>
         </g>
      </g>
   </g>
   <g id="Artwork_28-2" data-name="Artwork 28">
      <g class="cls-23">
         <rect class="cls-20"
               x="113.561"
               y="95.5178"
               width="29.224"
               height="5.954"/>
         <g class="cls-24">
            <line class="cls-22"
                  x1="128.1726"
                  y1="82.254"
                  x2="128.1726"
                  y2="114.79"/>
         </g>
         <rect class="cls-20"
               x="126.293"
               y="112.0758"
               width="3.762"
               height="2.08"/>
         <g class="cls-24">
            <path class="cls-22"
                  d="M142.74,97.3692c.03.38.044.766.044,1.152a14.612,14.612,0,1,1-29.148-1.488"/>
            <path d="M142.785,100.5528h0a2,2,0,1,1,2-2,2.0059,2.0059,0,0,1-2,2"/>
            <path d="M113.5252,100.5528h0a2,2,0,1,1,2-2,2.0059,2.0059,0,0,1-2,2"/>
         </g>
      </g>
   </g>
</svg>
