<?xml version="1.0" encoding="UTF-8"?>
<svg xmlns="http://www.w3.org/2000/svg"
     id="e03bfaaf-0be4-4931-8f6e-47414870a3fc"
     data-name="Layer 1"
     width="20mm"
     height="22mm"
     viewBox="0 0 56.69291 62.3622">
   <title>Crate_Trasport_Symbols</title>
   <path d="M54.33174,28.91978H40.77332a11.29564,11.29564,0,0,0-2.29046-5.52765l-2.023,2.02295a8.47915,8.47915,0,0,1,1.45349,3.5047H30.95082V21.95719a8.479,8.479,0,0,1,3.50469,1.4535l2.023-2.02295a11.29558,11.29558,0,0,0-5.52764-2.29047V5.53886H28.11616V19.09727a11.29565,11.29565,0,0,0-5.52765,2.29047l2.023,2.02289a8.48007,8.48007,0,0,1,3.5047-1.45344v6.96259H21.15357a8.479,8.479,0,0,1,1.4535-3.5047l-2.023-2.02295a11.29565,11.29565,0,0,0-2.29047,5.52765H4.73524v2.83466H18.29365a11.29565,11.29565,0,0,0,2.29047,5.52765l2.023-2.02295a8.47948,8.47948,0,0,1-1.4535-3.5047h6.96259V38.717a8.47948,8.47948,0,0,1-3.5047-1.45349l-2.023,2.02295a11.29574,11.29574,0,0,0,5.52765,2.29047V55.13536h2.83466V41.57695a11.29567,11.29567,0,0,0,5.52764-2.29047l-2.023-2.02295A8.47916,8.47916,0,0,1,30.95082,38.717V31.75444H37.9134A8.4803,8.4803,0,0,1,36.46,35.25914l2.02289,2.02295a11.29564,11.29564,0,0,0,2.29046-5.52765H54.33174Z"
         fill="#231f20"/>
</svg>
