<?xml version="1.0" encoding="UTF-8"?>
<!-- Generator: Adobe Illustrator 23.0.3, SVG Export Plug-In . SVG Version: 6.00 Build 0)  -->
<svg xmlns="http://www.w3.org/2000/svg" xmlns:xlink="http://www.w3.org/1999/xlink" version="1.1" id="Layer_1" x="0px" y="0px" width="70px" height="61.32365px" viewBox="0 0 70 61.32365" style="enable-background:new 0 0 70 61.32365;" xml:space="preserve">
<path d="M67.30389,61.32365H2.69753c-0.96363,0-1.85436-0.51485-2.33731-1.34863c-0.48067-0.83833-0.48067-1.86347,0.00228-2.7018  L32.73402,1.34635C33.21698,0.51257,34.10543,0,35.06905,0h0.00228c0.96363,0,1.85436,0.51485,2.33503,1.3509L69.6412,57.27777  c0.47839,0.83833,0.47839,1.86347,0,2.69725C69.15825,60.8088,68.26524,61.32365,67.30389,61.32365z M7.37443,55.92915h55.2594  L35.0645,8.08946L7.37443,55.92915z"/>
<polygon points="38.98387,18.35925 32.14139,18.35925 25.91222,40.82738 36.12488,35.51671 34.18517,47.05828 32.4495,44.91318   33.67437,54.00328 39.90257,45.93691 36.58831,47.11052 41.90092,28.42106 32.606,32.91554 37.10027,22.49631 "/>
</svg>
