<?xml version="1.0" encoding="UTF-8"?>
<svg xmlns="http://www.w3.org/2000/svg"
     xmlns:xlink="http://www.w3.org/1999/xlink"
     width="146.2049mm"
     height="60mm"
     viewBox="0 0 414.439 170.0787">
   <defs>
      <style>
      .cls-1, .cls-16, .cls-19, .cls-21, .cls-3, .cls-30, .cls-31, .cls-32, .cls-4, .cls-6, .cls-8, .cls-9 {
        fill: none;
      }

      .cls-2 {
        clip-path: url(#clip-path);
      }

      .cls-3, .cls-6 {
        stroke: #626469;
      }

      .cls-19, .cls-21, .cls-3, .cls-30, .cls-31, .cls-32, .cls-4, .cls-6, .cls-8, .cls-9 {
        stroke-miterlimit: 3;
      }

      .cls-3, .cls-6, .cls-8 {
        stroke-width: 0.5px;
      }

      .cls-3 {
        stroke-dasharray: 2 1;
      }

      .cls-16, .cls-19, .cls-21, .cls-30, .cls-31, .cls-32, .cls-4, .cls-8, .cls-9 {
        stroke: #000;
      }

      .cls-16, .cls-4 {
        stroke-width: 0.75px;
      }

      .cls-5 {
        fill: #c6c6c6;
      }

      .cls-23, .cls-7 {
        fill-rule: evenodd;
      }

      .cls-9 {
        stroke-width: 2px;
      }

      .cls-10 {
        fill: #626469;
      }

      .cls-11 {
        isolation: isolate;
      }

      .cls-12 {
        clip-path: url(#clip-path-3);
      }

      .cls-13 {
        font-size: 6px;
      }

      .cls-13, .cls-26, .cls-39, .cls-40 {
        fill: #01889C;
      }

      .cls-13, .cls-26, .cls-39 {
        font-family: Arial-BoldMT, Arial;
        font-weight: 700;
      }

      .cls-14 {
        clip-path: url(#clip-path-4);
      }

      .cls-15 {
        clip-path: url(#clip-path-5);
      }

      .cls-16 {
        stroke-miterlimit: 10;
      }

      .cls-17 {
        clip-path: url(#clip-path-6);
      }

      .cls-18, .cls-23 {
        fill: #fff;
      }

      .cls-19 {
        stroke-width: 0.7087px;
      }

      .cls-20 {
        clip-path: url(#clip-path-9);
      }

      .cls-21 {
        stroke-width: 0.7087px;
      }

      .cls-22 {
        clip-path: url(#clip-path-12);
      }

      .cls-24 {
        clip-path: url(#clip-path-14);
      }

      .cls-25 {
        clip-path: url(#clip-path-17);
      }

      .cls-26 {
        font-size: 8px;
      }

      .cls-27 {
        clip-path: url(#clip-path-18);
      }

      .cls-28 {
        clip-path: url(#clip-path-20);
      }

      .cls-29 {
        clip-path: url(#clip-path-21);
      }

      .cls-30, .cls-32 {
        stroke-width: 0.7513px;
      }

      .cls-31 {
        stroke-width: 1.2522px;
      }

      .cls-32 {
        stroke-dasharray: 2.0034 1.0017;
      }

      .cls-33 {
        clip-path: url(#clip-path-23);
      }

      .cls-34 {
        clip-path: url(#clip-path-25);
      }

      .cls-35 {
        clip-path: url(#clip-path-27);
      }

      .cls-36 {
        clip-path: url(#clip-path-29);
      }

      .cls-37 {
        clip-path: url(#clip-path-30);
      }

      .cls-38 {
        clip-path: url(#clip-path-31);
      }

      .cls-39 {
        font-size: 10px;
      }
    </style>
      <clipPath id="clip-path">
         <rect class="cls-1"
               x="292.4808"
               y="41.2237"
               width="76.0872"
               height="111.302"/>
      </clipPath>
      <clipPath id="clip-path-3">
         <rect class="cls-1"
               x="305.6507"
               y="41.6287"
               width="24.6738"
               height="7.406"/>
      </clipPath>
      <clipPath id="clip-path-4">
         <rect class="cls-1"
               x="314.9905"
               y="47.6287"
               width="15.334"
               height="7.4061"/>
      </clipPath>
      <clipPath id="clip-path-5">
         <rect class="cls-1"
               x="313.3264"
               y="53.628"
               width="16.9981"
               height="7.4063"/>
      </clipPath>
      <clipPath id="clip-path-6">
         <rect class="cls-1"
               x="83.5434"
               y="130.3907"
               width="35.4357"
               height="39.688"/>
      </clipPath>
      <clipPath id="clip-path-9">
         <rect class="cls-1"
               x="171.9476"
               y="130.3917"
               width="35.434"
               height="39.6861"/>
      </clipPath>
      <clipPath id="clip-path-12">
         <rect class="cls-1"
               x="381.0093"
               y="138.8109"
               width="6.125"
               height="6.125"/>
      </clipPath>
      <clipPath id="clip-path-14">
         <rect class="cls-1"
               x="238.6359"
               y="90.2428"
               width="46.8331"
               height="32"/>
      </clipPath>
      <clipPath id="clip-path-17">
         <rect class="cls-1"
               x="270.3459"
               y="114.091"
               width="11.1133"
               height="9.875"/>
      </clipPath>
      <clipPath id="clip-path-18">
         <rect class="cls-1"
               x="33.4997"
               y="147.182"
               width="6.125"
               height="6.125"/>
      </clipPath>
      <clipPath id="clip-path-20">
         <rect class="cls-1"
               x="33.5117"
               y="84.7451"
               width="15.6504"
               height="14.7535"/>
      </clipPath>
      <clipPath id="clip-path-21">
         <rect class="cls-1"
               x="33.5117"
               y="84.7452"
               width="15.6509"
               height="14.7534"/>
      </clipPath>
      <clipPath id="clip-path-23">
         <rect class="cls-1"
               x="292.7866"
               y="147.9438"
               width="4.5709"
               height="4.5819"/>
      </clipPath>
      <clipPath id="clip-path-25">
         <rect class="cls-1"
               x="33.4997"
               y="29.3724"
               width="6.125"
               height="6.125"/>
      </clipPath>
      <clipPath id="clip-path-27">
         <rect class="cls-1"
               x="66.2927"
               y="24.3008"
               width="16.63"
               height="16.2683"/>
      </clipPath>
      <clipPath id="clip-path-29">
         <rect class="cls-1"
               x="66.2927"
               y="83.9882"
               width="16.63"
               height="16.2683"/>
      </clipPath>
      <clipPath id="clip-path-30">
         <rect class="cls-1"
               x="66.2927"
               y="83.9885"
               width="16.63"
               height="16.268"/>
      </clipPath>
      <clipPath id="clip-path-31">
         <rect class="cls-1"
               x="54.7317"
               y="142.1006"
               width="16.63"
               height="16.2683"/>
      </clipPath>
   </defs>
   <g id="MB_Auto" data-name="MB Auto">
      <g id="Auto">
         <g class="cls-2">
            <line class="cls-3"
                  x1="337.6438"
                  y1="145.4391"
                  x2="337.6438"
                  y2="46.9111"/>
            <line class="cls-4"
                  x1="306.5784"
                  y1="105.7755"
                  x2="323.2274"
                  y2="105.7755"/>
            <polyline class="cls-4"
                      points="323.227 81.776 306.578 81.776 306.578 73.776 323.227 73.776"/>
            <line class="cls-5"
                  x1="330.6175"
                  y1="57.1905"
                  x2="344.1785"
                  y2="50.3375"/>
            <line class="cls-6"
                  x1="330.6175"
                  y1="57.1905"
                  x2="344.1785"
                  y2="50.3375"/>
            <polyline class="cls-4"
                      points="330.13 121.775 344.032 113.776 354.154 113.776 354.154 141.751 344.032 141.751 330.13 149.775"/>
            <polyline class="cls-4"
                      points="330.13 81.776 344.032 73.776 354.154 73.776 354.154 93.776 306.579 93.776 306.579 113.776 323.228 113.776"/>
            <g class="cls-2">
               <path class="cls-7" d="M306.5784,72.7755a1,1,0,1,1-1,1,1,1,0,0,1,1-1"/>
               <circle class="cls-8" cx="306.5784" cy="73.7755" r="1"/>
               <path class="cls-7" d="M354.1541,72.7755a1,1,0,1,1-1,1,1,1,0,0,1,1-1"/>
               <circle class="cls-8" cx="354.1541" cy="73.7755" r="1"/>
               <path class="cls-7" d="M306.5784,104.7755a1,1,0,1,1-1,1,1,1,0,0,1,1-1"/>
               <circle class="cls-8" cx="306.5784" cy="105.7755" r="1"/>
               <path class="cls-7" d="M354.1507,140.776a1,1,0,1,1-1,1,1,1,0,0,1,1-1"/>
               <circle class="cls-8" cx="354.1507" cy="141.776" r="1"/>
               <line class="cls-9"
                     x1="316.1297"
                     y1="141.776"
                     x2="330.3247"
                     y2="141.776"/>
               <line class="cls-9"
                     x1="316.1297"
                     y1="133.776"
                     x2="330.3247"
                     y2="133.776"/>
               <line class="cls-9"
                     x1="316.1297"
                     y1="149.776"
                     x2="330.3247"
                     y2="149.776"/>
               <line class="cls-9"
                     x1="316.1297"
                     y1="113.7755"
                     x2="330.3247"
                     y2="113.7755"/>
               <line class="cls-9"
                     x1="316.1297"
                     y1="105.7755"
                     x2="330.3247"
                     y2="105.7755"/>
               <line class="cls-9"
                     x1="316.1297"
                     y1="121.7755"
                     x2="330.3247"
                     y2="121.7755"/>
               <line class="cls-9"
                     x1="316.1297"
                     y1="73.7755"
                     x2="330.3247"
                     y2="73.7755"/>
               <line class="cls-9"
                     x1="316.1297"
                     y1="65.7755"
                     x2="330.3247"
                     y2="65.7755"/>
               <line class="cls-9"
                     x1="316.1297"
                     y1="81.7755"
                     x2="330.3247"
                     y2="81.7755"/>
               <line class="cls-3"
                     x1="330.6175"
                     y1="50.338"
                     x2="344.1785"
                     y2="50.338"/>
               <line class="cls-10"
                     x1="330.6175"
                     y1="43.485"
                     x2="344.1785"
                     y2="50.338"/>
               <line class="cls-3"
                     x1="330.6175"
                     y1="43.485"
                     x2="344.1785"
                     y2="50.338"/>
               <g class="cls-11">
                  <g class="cls-12">
                     <text class="cls-13" transform="translate(305.6507 46.7758)">BYPASS</text>
                  </g>
               </g>
               <g class="cls-11">
                  <g class="cls-14">
                     <text class="cls-13" transform="translate(314.9906 52.7758)">TEST</text>
                  </g>
               </g>
               <g class="cls-11">
                  <g class="cls-15">
                     <text class="cls-13" transform="translate(313.3265 58.7758)">AUTO</text>
                  </g>
               </g>
            </g>
         </g>
      </g>
   </g>
   <g id="Paths">
      <polyline class="cls-16"
                points="295.073 150.244 295.073 106.243 212.878 106.243 212.878 59.266 306.582 59.266 306.582 73.875"/>
      <polyline class="cls-16" points="81.805 32.435 354.166 32.673 354.166 73.875"/>
      <path class="cls-4" d="M54.8442,150.2445H37.4634"/>
      <polyline class="cls-16" points="146.585 150.241 146.585 92.122 81.805 92.122"/>
      <line class="cls-4"
            x1="354.9268"
            y1="141.9494"
            x2="384.0718"
            y2="141.9494"/>
      <line class="cls-16"
            x1="66.2927"
            y1="92.1224"
            x2="49.1621"
            y2="92.1224"/>
      <line class="cls-16"
            x1="36.5622"
            y1="32.4349"
            x2="67.4146"
            y2="32.4349"/>
      <path class="cls-4" d="M317.561,150.2445H71.3617"/>
   </g>
   <g id="Parts">
      <g id="Rectifier">
         <g class="cls-17">
            <rect class="cls-18"
                  x="84.253"
                  y="133.2265"
                  width="34.0183"
                  height="34.0183"/>
            <g class="cls-17">
               <rect class="cls-19"
                     x="84.253"
                     y="133.2265"
                     width="34.0183"
                     height="34.0183"/>
               <line class="cls-19"
                     x1="118.2686"
                     y1="133.2243"
                     x2="84.2512"
                     y2="167.2426"/>
            </g>
            <line class="cls-19"
                  x1="114.5506"
                  y1="159.8006"
                  x2="104.9877"
                  y2="159.8006"/>
            <line class="cls-19"
                  x1="107.2392"
                  y1="161.9267"
                  x2="104.9883"
                  y2="161.9267"/>
            <line class="cls-19"
                  x1="110.8948"
                  y1="161.9267"
                  x2="108.644"
                  y2="161.9267"/>
            <line class="cls-19"
                  x1="114.5506"
                  y1="161.9267"
                  x2="112.2997"
                  y2="161.9267"/>
            <g class="cls-17">
               <path class="cls-19"
                     d="M88.0052,139.1251a2.1878,2.1878,0,0,1,2.1261-2.0061c1.0413,0,1.871.53,2.1261,2.0061a2.1383,2.1383,0,0,0,2.1262,2.0043,2.298,2.298,0,0,0,2.1261-2.0043"/>
            </g>
         </g>
      </g>
      <g id="Inverter">
         <g class="cls-20">
            <rect class="cls-18"
                  x="172.6554"
                  y="133.2255"
                  width="34.0176"
                  height="34.0166"/>
            <g class="cls-20">
               <rect class="cls-21"
                     x="172.6554"
                     y="133.2255"
                     width="34.0166"
                     height="34.0166"/>
               <line class="cls-21"
                     x1="172.6583"
                     y1="167.2443"
                     x2="206.674"
                     y2="133.2286"/>
            </g>
            <line class="cls-21"
                  x1="175.8445"
                  y1="139.6067"
                  x2="185.4079"
                  y2="139.6067"/>
            <line class="cls-21"
                  x1="178.0961"
                  y1="141.7327"
                  x2="175.8444"
                  y2="141.7327"/>
            <line class="cls-21"
                  x1="181.7516"
                  y1="141.7327"
                  x2="179.5008"
                  y2="141.7327"/>
            <line class="cls-21"
                  x1="185.4076"
                  y1="141.7327"
                  x2="183.1559"
                  y2="141.7327"/>
            <g class="cls-20">
               <path class="cls-21"
                     d="M194.9794,159.92a2.1864,2.1864,0,0,1,2.126-2.0061c1.0413,0,1.87.53,2.126,2.0061a2.1381,2.1381,0,0,0,2.1261,2.0041,2.2987,2.2987,0,0,0,2.126-2.0041"/>
            </g>
         </g>
      </g>
      <g id="Artwork_13" data-name="Artwork 13">
         <g class="cls-22">
            <g class="cls-22">
               <path class="cls-23"
                     d="M384.0717,139.8738a2,2,0,1,1-2,2,2.0007,2.0007,0,0,1,2-2"/>
               <circle class="cls-4" cx="384.0717" cy="141.8738" r="2"/>
            </g>
         </g>
      </g>
      <g id="Artwork_11" data-name="Artwork 11">
         <g class="cls-24">
            <rect class="cls-18"
                  x="240.0069"
                  y="91.5318"
                  width="29.339"
                  height="29.423"/>
            <g class="cls-24">
               <rect class="cls-4"
                     x="240.0069"
                     y="91.5318"
                     width="29.339"
                     height="29.423"/>
               <line class="cls-16"
                     x1="240.0071"
                     y1="106.2434"
                     x2="269.3461"
                     y2="106.2434"/>
            </g>
            <rect class="cls-18"
                  x="247.3369"
                  y="98.6588"
                  width="15.128"
                  height="15.171"/>
            <rect class="cls-4"
                  x="247.3369"
                  y="98.6588"
                  width="15.128"
                  height="15.171"/>
            <line class="cls-4"
                  x1="252.3049"
                  y1="117.509"
                  x2="252.3049"
                  y2="110.149"/>
            <line class="cls-4"
                  x1="255.2473"
                  y1="117.509"
                  x2="255.2363"
                  y2="115.167"/>
            <path d="M258.5022,111.3647v4.929l-4.909-2.464Zm.75-1.216-7.33,3.681,7.33,3.679Z"/>
            <line class="cls-4"
                  x1="257.9631"
                  y1="95.0315"
                  x2="257.9631"
                  y2="102.3915"/>
            <line class="cls-4"
                  x1="254.6741"
                  y1="94.9807"
                  x2="254.6741"
                  y2="96.9937"/>
            <path d="M251.759,96.1928l4.909,2.464-4.909,2.465Zm-.75-1.216v7.36l7.33-3.68Z"/>
            <g class="cls-24">
               <path class="cls-7"
                     d="M247.3371,105.2424a1,1,0,1,1-.997,1,.9984.9984,0,0,1,.997-1"/>
               <circle class="cls-4" cx="247.3371" cy="106.2424" r="0.997"/>
               <path class="cls-7"
                     d="M262.4651,105.2434a1,1,0,1,1-.997,1,.9984.9984,0,0,1,.997-1"/>
               <circle class="cls-4" cx="262.4651" cy="106.2434" r="0.997"/>
               <g class="cls-11">
                  <g class="cls-25">
                     <text class="cls-26" transform="translate(270.3454 120.9543)">EN</text>
                  </g>
               </g>
            </g>
         </g>
      </g>
      <g id="Artwork_13-2" data-name="Artwork 13">
         <g class="cls-27">
            <g class="cls-27">
               <path class="cls-23"
                     d="M36.5621,148.2449a2,2,0,1,1-2,2,2.0007,2.0007,0,0,1,2-2"/>
               <circle class="cls-4" cx="36.5621" cy="150.2449" r="2"/>
            </g>
         </g>
      </g>
      <g id="Artwork_8" data-name="Artwork 8">
         <g class="cls-28">
            <g class="cls-29">
               <line class="cls-30"
                     x1="36.1481"
                     y1="99.5065"
                     x2="36.1481"
                     y2="84.7531"/>
               <line class="cls-31"
                     x1="34.13"
                     y1="96.3722"
                     x2="34.13"
                     y2="87.8876"/>
            </g>
            <line class="cls-32"
                  x1="35.9143"
                  y1="92.1217"
                  x2="46.8952"
                  y2="92.1217"/>
            <g class="cls-29">
               <line class="cls-30"
                     x1="48.9132"
                     y1="99.4986"
                     x2="48.9132"
                     y2="84.7452"/>
            </g>
            <line class="cls-31"
                  x1="46.8951"
                  y1="96.3639"
                  x2="46.8951"
                  y2="87.8793"/>
         </g>
      </g>
      <g id="shape116-109">
         <g class="cls-33">
            <g class="cls-33">
               <path class="cls-7"
                     d="M295.0717,149.2314a1.003,1.003,0,1,1-1,1.003,1.001,1.001,0,0,1,1-1.003"/>
               <circle class="cls-8" cx="295.0717" cy="150.2344" r="1"/>
            </g>
         </g>
      </g>
      <g id="Artwork_13-3" data-name="Artwork 13">
         <g class="cls-34">
            <g class="cls-34">
               <path class="cls-23"
                     d="M36.5621,30.4353a2,2,0,1,1-2,2,2.0007,2.0007,0,0,1,2-2"/>
               <circle class="cls-4" cx="36.5621" cy="32.4353" r="2"/>
            </g>
         </g>
      </g>
      <g id="Artwork_20" data-name="Artwork 20">
         <g class="cls-35">
            <rect class="cls-18"
                  x="67.3107"
                  y="29.9341"
                  width="14.612"
                  height="5.032"/>
            <g class="cls-35">
               <line class="cls-4"
                     x1="67.2928"
                     y1="39.2123"
                     x2="81.9228"
                     y2="32.4463"/>
               <path d="M81.9227,33.4506h0a1,1,0,1,1,1-1,1.0029,1.0029,0,0,1-1,1"/>
               <path d="M67.2928,33.4506h0a1,1,0,1,1,1-1,1.0029,1.0029,0,0,1-1,1"/>
            </g>
         </g>
      </g>
      <g id="Artwork_20-2" data-name="Artwork 20">
         <g class="cls-36">
            <rect class="cls-18"
                  x="67.3107"
                  y="89.6215"
                  width="14.612"
                  height="5.032"/>
            <g class="cls-37">
               <line class="cls-4"
                     x1="67.2928"
                     y1="98.8997"
                     x2="81.9228"
                     y2="92.1337"/>
               <path d="M81.9227,93.138h0a1,1,0,1,1,1-1,1.0029,1.0029,0,0,1-1,1"/>
               <path d="M67.2928,93.138h0a1,1,0,1,1,1-1,1.0029,1.0029,0,0,1-1,1"/>
            </g>
         </g>
      </g>
      <g id="Artwork_20-3" data-name="Artwork 20">
         <g class="cls-38">
            <rect class="cls-18"
                  x="55.7497"
                  y="147.7339"
                  width="14.612"
                  height="5.032"/>
            <g class="cls-38">
               <line class="cls-4"
                     x1="55.7318"
                     y1="157.0121"
                     x2="70.3618"
                     y2="150.2461"/>
               <path d="M70.3617,151.25h0a1,1,0,1,1,1-1,1.0029,1.0029,0,0,1-1,1"/>
               <path d="M55.7318,151.25h0a1,1,0,1,1,1-1,1.0029,1.0029,0,0,1-1,1"/>
            </g>
         </g>
      </g>
   </g>
   <g id="Text">
      <text class="cls-39" transform="translate(16.001 13.2645)">BYPASS<tspan x="4.4507" y="12">MAINS</tspan>
      </text>
      <text class="cls-39" transform="translate(237.0739 74.2839)">STATIC<tspan x="-1.665" y="12">SWITCH</tspan>
      </text>
      <text class="cls-39" transform="translate(20.0478 80.1217)">BATTERY</text>
      <text class="cls-39" transform="translate(74.4694 128.2351)">RECTIFIER</text>
      <text class="cls-39" transform="translate(164.3837 128.235)">INVERTER</text>
      <text class="cls-39" transform="translate(365.5513 135.845)">OUTPUT</text>
      <g>
         <path class="cls-40"
               d="M10.9056,131.5682V124.41h3.042a5.21,5.21,0,0,1,1.6674.1929,1.6456,1.6456,0,0,1,.8326.686,2.061,2.061,0,0,1,.3125,1.128,1.91,1.91,0,0,1-.4737,1.3305,2.2745,2.2745,0,0,1-1.416.6617,3.3667,3.3667,0,0,1,.7739.6005,8.1681,8.1681,0,0,1,.8228,1.1622l.874,1.3964H15.6126l-1.0449-1.5576a10.1072,10.1072,0,0,0-.7618-1.0522,1.1087,1.1087,0,0,0-.4345-.2979,2.3828,2.3828,0,0,0-.7276-.0805h-.2929v2.9882Zm1.4453-4.1308H13.42a5.52,5.52,0,0,0,1.2988-.0879.78.78,0,0,0,.4053-.3027.9316.9316,0,0,0,.1465-.5372.8589.8589,0,0,0-.1929-.5834.8852.8852,0,0,0-.5444-.2808q-.1758-.0241-1.0547-.0244H12.3509Z"/>
         <path class="cls-40"
               d="M18.1224,131.5682V124.41H23.43v1.211H19.5677v1.5869h3.5937v1.206H19.5677v1.9483h3.999v1.206Z"/>
         <path class="cls-40"
               d="M29.3724,128.9364l1.4013.4443a3.144,3.144,0,0,1-1.0718,1.7408,3.3726,3.3726,0,0,1-4.2456-.4053,3.7279,3.7279,0,0,1-.9179-2.6636,3.9133,3.9133,0,0,1,.9228-2.7759,3.1649,3.1649,0,0,1,2.4268-.9887,2.9779,2.9779,0,0,1,2.1338.7763,2.8223,2.8223,0,0,1,.7324,1.3184l-1.4307.3418a1.4789,1.4789,0,0,0-1.5088-1.2012,1.629,1.629,0,0,0-1.2915.5713,2.8,2.8,0,0,0-.4956,1.8506,3.0021,3.0021,0,0,0,.4883,1.9336,1.585,1.585,0,0,0,1.27.5762,1.4482,1.4482,0,0,0,.9913-.3662A2.1287,2.1287,0,0,0,29.3724,128.9364Z"/>
         <path class="cls-40"
               d="M33.6253,131.5682V125.621h-2.124V124.41H37.19v1.211H35.0706v5.9472Z"/>
         <path class="cls-40" d="M38.0784,131.5682V124.41h1.4453v7.1582Z"/>
         <path class="cls-40"
               d="M40.91,131.5682V124.41h4.9073v1.211H42.3558v1.6943H45.344v1.211H42.3558v3.0419Z"/>
         <path class="cls-40" d="M46.9651,131.5682V124.41H48.41v7.1582Z"/>
         <path class="cls-40"
               d="M49.7874,131.5682V124.41H55.095v1.211H51.2327v1.5869h3.5938v1.206H51.2327v1.9483h3.999v1.206Z"/>
         <path class="cls-40"
               d="M56.4622,131.5682V124.41h3.042a5.2115,5.2115,0,0,1,1.6675.1929,1.6454,1.6454,0,0,1,.8325.686,2.06,2.06,0,0,1,.3125,1.128,1.91,1.91,0,0,1-.4736,1.3305,2.2748,2.2748,0,0,1-1.4161.6617,3.3674,3.3674,0,0,1,.774.6005,8.1695,8.1695,0,0,1,.8227,1.1622l.874,1.3964H61.1692l-1.0449-1.5576a10.1276,10.1276,0,0,0-.7617-1.0522,1.1083,1.1083,0,0,0-.4346-.2979,2.382,2.382,0,0,0-.7275-.0805h-.293v2.9882Zm1.4453-4.1308h1.0693a5.5212,5.5212,0,0,0,1.2989-.0879.78.78,0,0,0,.4052-.3027.9316.9316,0,0,0,.1465-.5372.8589.8589,0,0,0-.1928-.5834.8858.8858,0,0,0-.5445-.2808q-.1758-.0241-1.0547-.0244H57.9075Z"/>
         <path class="cls-40"
               d="M21.16,143.5682V136.41h2.1631l1.2988,4.8829,1.2842-4.8829h2.1679v7.1582H26.7308v-5.6347L25.31,143.5682H23.9183l-1.4161-5.6347v5.6347Z"/>
         <path class="cls-40"
               d="M35.9642,143.5682H34.3919l-.625-1.6259H30.9056l-.5909,1.6259H28.7815L31.57,136.41h1.5283Zm-2.6612-2.832-.9863-2.6562-.9668,2.6562Z"/>
         <path class="cls-40" d="M36.6868,143.5682V136.41h1.4453v7.1582Z"/>
         <path class="cls-40"
               d="M39.5237,143.5682V136.41H40.93l2.93,4.78v-4.78h1.3427v7.1582h-1.45L40.8665,138.9v4.6679Z"/>
         <path class="cls-40"
               d="M46.3645,141.2391l1.4063-.1367a1.7139,1.7139,0,0,0,.5151,1.04,1.5584,1.5584,0,0,0,1.0474.332,1.61,1.61,0,0,0,1.0522-.2954.8791.8791,0,0,0,.354-.6909.6521.6521,0,0,0-.1489-.4322,1.19,1.19,0,0,0-.52-.31q-.2541-.0879-1.1572-.3125a3.9249,3.9249,0,0,1-1.6309-.708,1.8632,1.8632,0,0,1-.6592-1.4405,1.8406,1.8406,0,0,1,.31-1.0229,1.9393,1.9393,0,0,1,.8935-.7251,3.5817,3.5817,0,0,1,1.4087-.249,3.02,3.02,0,0,1,2.0288.5908,2.086,2.086,0,0,1,.7154,1.5771l-1.4453.0635a1.2275,1.2275,0,0,0-.398-.7934,1.4572,1.4572,0,0,0-.9155-.2417,1.6534,1.6534,0,0,0-.9863.2587.522.522,0,0,0-.2295.4444.55.55,0,0,0,.2148.4346,3.8019,3.8019,0,0,0,1.3281.4785,7.018,7.018,0,0,1,1.56.5151,2.01,2.01,0,0,1,.791.7275,2.128,2.128,0,0,1,.2857,1.14,2.1065,2.1065,0,0,1-.3418,1.1523,2.0528,2.0528,0,0,1-.9668.7984,4.0519,4.0519,0,0,1-1.5577.2612,3.1,3.1,0,0,1-2.0849-.6274A2.73,2.73,0,0,1,46.3645,141.2391Z"/>
      </g>
      <text class="cls-39" transform="translate(286.9111 10.9322)">MANUAL BYPASS<tspan x="23.894" y="12">SWITCH</tspan>
      </text>
   </g>
</svg>
