<?xml version="1.0" encoding="UTF-8"?>
<svg xmlns="http://www.w3.org/2000/svg"
     xmlns:xlink="http://www.w3.org/1999/xlink"
     width="96.0244mm"
     height="36mm"
     viewBox="0 0 272.1951 102.0472">
   <defs>
      <style>
      .cls-1, .cls-14, .cls-15, .cls-16, .cls-2, .cls-3, .cls-6, .cls-8 {
        fill: none;
      }

      .cls-14, .cls-15, .cls-16, .cls-2, .cls-3, .cls-6, .cls-8 {
        stroke: #000;
      }

      .cls-14, .cls-15, .cls-16, .cls-2, .cls-6, .cls-8 {
        stroke-miterlimit: 3;
      }

      .cls-2, .cls-3 {
        stroke-width: 0.75px;
      }

      .cls-3 {
        stroke-miterlimit: 10;
      }

      .cls-4 {
        clip-path: url(#clip-path);
      }

      .cls-10, .cls-5 {
        fill: #fff;
      }

      .cls-6 {
        stroke-width: 0.7087px;
      }

      .cls-7 {
        clip-path: url(#clip-path-4);
      }

      .cls-8 {
        stroke-width: 0.7087px;
      }

      .cls-9 {
        clip-path: url(#clip-path-7);
      }

      .cls-10 {
        fill-rule: evenodd;
      }

      .cls-11 {
        clip-path: url(#clip-path-9);
      }

      .cls-12 {
        clip-path: url(#clip-path-11);
      }

      .cls-13 {
        clip-path: url(#clip-path-12);
      }

      .cls-14, .cls-16 {
        stroke-width: 0.7513px;
      }

      .cls-15 {
        stroke-width: 1.2522px;
      }

      .cls-16 {
        stroke-dasharray: 2.0034 1.0017;
      }

      .cls-17 {
        clip-path: url(#clip-path-14);
      }

      .cls-18 {
        clip-path: url(#clip-path-16);
      }

      .cls-19 {
        font-size: 10px;
        font-family: Arial-BoldMT, Arial;
        font-weight: 700;
      }

      .cls-19, .cls-20 {
        fill: #01889C;
      }
    </style>
      <clipPath id="clip-path">
         <rect class="cls-1"
               x="83.5434"
               y="62.3592"
               width="35.4357"
               height="39.688"/>
      </clipPath>
      <clipPath id="clip-path-4">
         <rect class="cls-1"
               x="171.9476"
               y="62.3602"
               width="35.434"
               height="39.6861"/>
      </clipPath>
      <clipPath id="clip-path-7">
         <rect class="cls-1"
               x="243.5716"
               y="79.0648"
               width="6.125"
               height="6.125"/>
      </clipPath>
      <clipPath id="clip-path-9">
         <rect class="cls-1"
               x="33.4997"
               y="79.1505"
               width="6.125"
               height="6.125"/>
      </clipPath>
      <clipPath id="clip-path-11">
         <rect class="cls-1"
               x="33.5117"
               y="16.7136"
               width="15.6504"
               height="14.7535"/>
      </clipPath>
      <clipPath id="clip-path-12">
         <rect class="cls-1"
               x="33.5117"
               y="16.7137"
               width="15.6509"
               height="14.7534"/>
      </clipPath>
      <clipPath id="clip-path-14">
         <rect class="cls-1"
               x="66.2927"
               y="15.9567"
               width="16.63"
               height="16.2683"/>
      </clipPath>
      <clipPath id="clip-path-16">
         <rect class="cls-1"
               x="54.7317"
               y="74.0691"
               width="16.63"
               height="16.2683"/>
      </clipPath>
   </defs>
   <g id="Paths">
      <path class="cls-2" d="M246.6341,82.213H71.3617"/>
      <path class="cls-2" d="M54.8442,82.213H37.4634"/>
      <polyline class="cls-3" points="146.585 82.209 146.585 24.09 81.805 24.09"/>
      <line class="cls-3"
            x1="66.2927"
            y1="24.0909"
            x2="49.1621"
            y2="24.0909"/>
   </g>
   <g id="Parts">
      <g id="Rectifier">
         <g class="cls-4">
            <rect class="cls-5"
                  x="84.253"
                  y="65.195"
                  width="34.0183"
                  height="34.0183"/>
            <g class="cls-4">
               <rect class="cls-6"
                     x="84.253"
                     y="65.195"
                     width="34.0183"
                     height="34.0183"/>
               <line class="cls-6"
                     x1="118.2686"
                     y1="65.1928"
                     x2="84.2512"
                     y2="99.2111"/>
            </g>
            <line class="cls-6"
                  x1="114.5506"
                  y1="91.7691"
                  x2="104.9877"
                  y2="91.7691"/>
            <line class="cls-6"
                  x1="107.2392"
                  y1="93.8952"
                  x2="104.9883"
                  y2="93.8952"/>
            <line class="cls-6"
                  x1="110.8948"
                  y1="93.8952"
                  x2="108.644"
                  y2="93.8952"/>
            <line class="cls-6"
                  x1="114.5506"
                  y1="93.8952"
                  x2="112.2997"
                  y2="93.8952"/>
            <g class="cls-4">
               <path class="cls-6"
                     d="M88.0052,71.0936a2.1878,2.1878,0,0,1,2.1261-2.0061c1.0413,0,1.871.53,2.1261,2.0061a2.1383,2.1383,0,0,0,2.1262,2.0043A2.298,2.298,0,0,0,96.51,71.0936"/>
            </g>
         </g>
      </g>
      <g id="Inverter">
         <g class="cls-7">
            <rect class="cls-5"
                  x="172.6554"
                  y="65.194"
                  width="34.0176"
                  height="34.0166"/>
            <g class="cls-7">
               <rect class="cls-8"
                     x="172.6554"
                     y="65.194"
                     width="34.0166"
                     height="34.0166"/>
               <line class="cls-8"
                     x1="172.6583"
                     y1="99.2128"
                     x2="206.674"
                     y2="65.1971"/>
            </g>
            <line class="cls-8"
                  x1="175.8445"
                  y1="71.5752"
                  x2="185.4079"
                  y2="71.5752"/>
            <line class="cls-8"
                  x1="178.0961"
                  y1="73.7012"
                  x2="175.8444"
                  y2="73.7012"/>
            <line class="cls-8"
                  x1="181.7516"
                  y1="73.7012"
                  x2="179.5008"
                  y2="73.7012"/>
            <line class="cls-8"
                  x1="185.4076"
                  y1="73.7012"
                  x2="183.1559"
                  y2="73.7012"/>
            <g class="cls-7">
               <path class="cls-8"
                     d="M194.9794,91.888a2.1864,2.1864,0,0,1,2.126-2.0061c1.0413,0,1.87.53,2.126,2.0061a2.1381,2.1381,0,0,0,2.1261,2.0041,2.2987,2.2987,0,0,0,2.126-2.0041"/>
            </g>
         </g>
      </g>
      <g id="Artwork_13" data-name="Artwork 13">
         <g class="cls-9">
            <g class="cls-9">
               <path class="cls-10"
                     d="M246.634,80.1277a2,2,0,1,1-2,2,2.0007,2.0007,0,0,1,2-2"/>
               <circle class="cls-2" cx="246.634" cy="82.1277" r="2"/>
            </g>
         </g>
      </g>
      <g id="Artwork_13-2" data-name="Artwork 13">
         <g class="cls-11">
            <g class="cls-11">
               <path class="cls-10"
                     d="M36.5621,80.2134a2,2,0,1,1-2,2,2.0007,2.0007,0,0,1,2-2"/>
               <circle class="cls-2" cx="36.5621" cy="82.2134" r="2"/>
            </g>
         </g>
      </g>
      <g id="Artwork_8" data-name="Artwork 8">
         <g class="cls-12">
            <g class="cls-13">
               <line class="cls-14"
                     x1="36.1481"
                     y1="31.475"
                     x2="36.1481"
                     y2="16.7216"/>
               <line class="cls-15"
                     x1="34.13"
                     y1="28.3407"
                     x2="34.13"
                     y2="19.8561"/>
            </g>
            <line class="cls-16"
                  x1="35.9143"
                  y1="24.0902"
                  x2="46.8952"
                  y2="24.0902"/>
            <g class="cls-13">
               <line class="cls-14"
                     x1="48.9132"
                     y1="31.4671"
                     x2="48.9132"
                     y2="16.7137"/>
            </g>
            <line class="cls-15"
                  x1="46.8951"
                  y1="28.3324"
                  x2="46.8951"
                  y2="19.8478"/>
         </g>
      </g>
      <g id="Artwork_20" data-name="Artwork 20">
         <g class="cls-17">
            <rect class="cls-5"
                  x="67.3107"
                  y="21.59"
                  width="14.612"
                  height="5.032"/>
            <g class="cls-17">
               <line class="cls-2"
                     x1="67.2928"
                     y1="30.8682"
                     x2="81.9228"
                     y2="24.1022"/>
               <path d="M81.9227,25.1065h0a1,1,0,1,1,1-1,1.0029,1.0029,0,0,1-1,1"/>
               <path d="M67.2928,25.1065h0a1,1,0,1,1,1-1,1.0029,1.0029,0,0,1-1,1"/>
            </g>
         </g>
      </g>
      <g id="Artwork_20-2" data-name="Artwork 20">
         <g class="cls-18">
            <rect class="cls-5"
                  x="55.7497"
                  y="79.7024"
                  width="14.612"
                  height="5.032"/>
            <g class="cls-18">
               <line class="cls-2"
                     x1="55.7318"
                     y1="88.9806"
                     x2="70.3618"
                     y2="82.2146"/>
               <path d="M70.3617,83.2189h0a1,1,0,1,1,1-1,1.0029,1.0029,0,0,1-1,1"/>
               <path d="M55.7318,83.2189h0a1,1,0,1,1,1-1,1.0029,1.0029,0,0,1-1,1"/>
            </g>
         </g>
      </g>
   </g>
   <g id="Text">
      <text class="cls-19" transform="translate(20.0477 12.0902)">BATTERY</text>
      <text class="cls-19" transform="translate(74.4694 60.2035)">RECTIFIER</text>
      <text class="cls-19" transform="translate(164.3836 60.2034)">INVERTER</text>
      <text class="cls-19" transform="translate(226.08 76.0647)">OUTPUT</text>
      <g>
         <path class="cls-20"
               d="M10.8851,63.5132l-.0425-7.1582,3.042-.0185a5.2062,5.2062,0,0,1,1.6684.1836,1.6421,1.6421,0,0,1,.8364.6806,2.06,2.06,0,0,1,.3194,1.126,1.9119,1.9119,0,0,1-.4658,1.334,2.28,2.28,0,0,1-1.4121.67,3.3564,3.3564,0,0,1,.7778.5957,8.1924,8.1924,0,0,1,.83,1.1572l.8823,1.3916-1.7285.01-1.0542-1.5508a10.0043,10.0043,0,0,0-.7681-1.0478,1.1055,1.1055,0,0,0-.4365-.2959,2.38,2.38,0,0,0-.728-.0762l-.293.002.0181,2.9882Zm1.4208-4.14,1.0694-.0059a5.5593,5.5593,0,0,0,1.2978-.0957.78.78,0,0,0,.4038-.3056.9311.9311,0,0,0,.1431-.5381.86.86,0,0,0-.1963-.5821.8816.8816,0,0,0-.5459-.2773q-.1766-.0234-1.0552-.0186l-1.1279.0069Z"/>
         <path class="cls-20"
               d="M18.1018,63.47l-.0424-7.1582,5.3071-.0313.0068,1.2109-3.8623.0225.01,1.5869,3.5937-.0215.0069,1.2061-3.5938.0215.0117,1.9482,3.9991-.0234.0073,1.206Z"/>
         <path class="cls-20"
               d="M29.3357,60.771l1.4038.4366a3.1437,3.1437,0,0,1-1.0615,1.747,3.3722,3.3722,0,0,1-4.2475-.38,3.73,3.73,0,0,1-.9341-2.6582,3.9123,3.9123,0,0,1,.9062-2.7812,3.1674,3.1674,0,0,1,2.4209-1.0039,2.9829,2.9829,0,0,1,2.1387.7637,2.8266,2.8266,0,0,1,.74,1.3144l-1.4287.3506a1.4788,1.4788,0,0,0-1.5161-1.1924,1.6285,1.6285,0,0,0-1.2881.5791A2.7982,2.7982,0,0,0,25.9851,59.8a3.0059,3.0059,0,0,0,.5,1.9307,1.5872,1.5872,0,0,0,1.2729.5684,1.4456,1.4456,0,0,0,.9893-.3721A2.1283,2.1283,0,0,0,29.3357,60.771Z"/>
         <path class="cls-20"
               d="M33.6043,63.3775,33.5686,57.43l-2.124.0127-.0068-1.2109,5.6885-.0332.0068,1.2109-2.1191.0127L35.05,63.37Z"/>
         <path class="cls-20"
               d="M38.0574,63.3511l-.0425-7.1582,1.4453-.0078.0425,7.1582Z"/>
         <path class="cls-20"
               d="M40.8894,63.3345l-.0424-7.1582,4.9067-.0293.0068,1.211-3.4614.0205.01,1.6943,2.9882-.0176.0074,1.211-2.9883.0175.0181,3.042Z"/>
         <path class="cls-20"
               d="M46.9436,63.2984,46.9012,56.14l1.4453-.0088L48.389,63.29Z"/>
         <path class="cls-20"
               d="M49.7659,63.2818l-.0425-7.1582,5.3076-.0313.0069,1.211-3.8623.0224.01,1.5869,3.5938-.0214.0068,1.206-3.5937.0215.0117,1.9482,3.999-.0234L55.21,63.25Z"/>
         <path class="cls-20"
               d="M56.4407,63.2417l-.0425-7.1582,3.042-.0175a5.2131,5.2131,0,0,1,1.6685.1826,1.64,1.64,0,0,1,.8364.6816,2.0568,2.0568,0,0,1,.3193,1.126,1.9067,1.9067,0,0,1-.4658,1.333,2.2738,2.2738,0,0,1-1.4121.67,3.38,3.38,0,0,1,.7778.5957,8.2418,8.2418,0,0,1,.83,1.1573l.8824,1.3916-1.7286.0107-1.0542-1.5518a10.1382,10.1382,0,0,0-.768-1.0478,1.1035,1.1035,0,0,0-.4365-.2949,2.38,2.38,0,0,0-.7281-.0762l-.2929.001.018,2.9883Zm1.4209-4.14,1.0693-.0059a5.5019,5.5019,0,0,0,1.2979-.0957.7777.7777,0,0,0,.4038-.3047.9335.9335,0,0,0,.1431-.538.86.86,0,0,0-.1963-.5831.8918.8918,0,0,0-.5459-.2773q-.1765-.0234-1.0552-.0176l-1.1279.0059Z"/>
         <path class="cls-20"
               d="M21.21,75.4517l-.0425-7.1582,2.1631-.0127,1.3276,4.875,1.2554-4.89,2.1679-.0137.0425,7.1582-1.3428.0078-.0336-5.6338L25.36,75.4273l-1.3916.0078-1.45-5.626.0337,5.6348Z"/>
         <path class="cls-20"
               d="M36.0144,75.3638l-1.5722.0088-.6348-1.6211-2.8613.0166L30.365,75.397l-1.5332.01,2.7456-7.1748,1.5284-.0088Zm-2.6777-2.8164-1.0024-2.65-.9507,2.6621Z"/>
         <path class="cls-20"
               d="M36.7371,75.3589l-.0425-7.1572,1.4453-.0088.0425,7.1582Z"/>
         <path class="cls-20"
               d="M39.574,75.3423l-.0425-7.1572,1.4063-.0088,2.958,4.7627-.0283-4.78,1.3427-.0078.0425,7.1572-1.45.0088-2.9135-4.65.0278,4.668Z"/>
         <path class="cls-20"
               d="M46.4007,72.9732l1.4052-.1455a1.715,1.715,0,0,0,.5215,1.0371,1.556,1.556,0,0,0,1.0494.3252,1.6092,1.6092,0,0,0,1.05-.3018.8763.8763,0,0,0,.35-.6924.65.65,0,0,0-.1513-.4306,1.1961,1.1961,0,0,0-.522-.3076q-.2548-.0866-1.1592-.3057a3.9129,3.9129,0,0,1-1.6352-.6982,1.8644,1.8644,0,0,1-.6675-1.4366,1.8381,1.8381,0,0,1,.3037-1.0244,1.9391,1.9391,0,0,1,.8892-.73,3.6,3.6,0,0,1,1.4072-.2578,3.0236,3.0236,0,0,1,2.0327.5791,2.0871,2.0871,0,0,1,.7246,1.5733l-1.4448.0713a1.23,1.23,0,0,0-.4028-.791,1.4658,1.4658,0,0,0-.917-.2364,1.6559,1.6559,0,0,0-.9849.2647.5234.5234,0,0,0-.2266.4463.5515.5515,0,0,0,.2173.4336,3.8025,3.8025,0,0,0,1.3311.47,7.0528,7.0528,0,0,1,1.563.5058,2.0156,2.0156,0,0,1,.7954.7237,2.2515,2.2515,0,0,1-.0425,2.292,2.0538,2.0538,0,0,1-.9619.8037,4.0388,4.0388,0,0,1-1.5562.2705,3.1005,3.1005,0,0,1-2.0888-.6143A2.7315,2.7315,0,0,1,46.4007,72.9732Z"/>
      </g>
   </g>
</svg>
