<?xml version="1.0" encoding="UTF-8"?>
<svg xmlns="http://www.w3.org/2000/svg"
     xmlns:xlink="http://www.w3.org/1999/xlink"
     width="146.4821mm"
     height="60.7122mm"
     viewBox="0 0 415.2249 172.0976">
   <defs>
      <style>
      .cls-1, .cls-10, .cls-21, .cls-22, .cls-23, .cls-3, .cls-32, .cls-33, .cls-34, .cls-35, .cls-4, .cls-5, .cls-8 {
        fill: none;
      }

      .cls-2 {
        fill: #c6c6c6;
      }

      .cls-3 {
        stroke: #c6c6c6;
        stroke-width: 5px;
      }

      .cls-10, .cls-21, .cls-22, .cls-23, .cls-3, .cls-32, .cls-33, .cls-34, .cls-35, .cls-5, .cls-8 {
        stroke-miterlimit: 3;
      }

      .cls-10, .cls-21, .cls-22, .cls-23, .cls-34, .cls-35, .cls-4, .cls-5, .cls-8 {
        stroke: #000;
      }

      .cls-4 {
        stroke-miterlimit: 10;
      }

      .cls-4, .cls-5 {
        stroke-width: 0.75px;
      }

      .cls-6 {
        clip-path: url(#clip-path);
      }

      .cls-12, .cls-7 {
        fill: #fff;
      }

      .cls-8 {
        stroke-width: 0.7087px;
      }

      .cls-9 {
        clip-path: url(#clip-path-4);
      }

      .cls-10 {
        stroke-width: 0.7087px;
      }

      .cls-11 {
        clip-path: url(#clip-path-7);
      }

      .cls-12, .cls-14 {
        fill-rule: evenodd;
      }

      .cls-13 {
        clip-path: url(#clip-path-9);
      }

      .cls-15 {
        isolation: isolate;
      }

      .cls-16 {
        clip-path: url(#clip-path-12);
      }

      .cls-17 {
        font-size: 8px;
      }

      .cls-17, .cls-38, .cls-42 {
        fill: #01889C;
        font-family: Arial-BoldMT, Arial;
        font-weight: 700;
      }

      .cls-18 {
        clip-path: url(#clip-path-13);
      }

      .cls-19 {
        clip-path: url(#clip-path-15);
      }

      .cls-20 {
        clip-path: url(#clip-path-16);
      }

      .cls-21, .cls-23 {
        stroke-width: 0.7513px;
      }

      .cls-22 {
        stroke-width: 1.2522px;
      }

      .cls-23 {
        stroke-dasharray: 2.0034 1.0017;
      }

      .cls-24 {
        clip-path: url(#clip-path-18);
      }

      .cls-25 {
        clip-path: url(#clip-path-20);
      }

      .cls-26 {
        clip-path: url(#clip-path-22);
      }

      .cls-27 {
        clip-path: url(#clip-path-25);
      }

      .cls-28 {
        clip-path: url(#clip-path-26);
      }

      .cls-29 {
        clip-path: url(#clip-path-27);
      }

      .cls-30 {
        clip-path: url(#clip-path-29);
      }

      .cls-31 {
        clip-path: url(#clip-path-31);
      }

      .cls-32, .cls-33 {
        stroke: #626469;
      }

      .cls-32, .cls-33, .cls-34 {
        stroke-width: 0.5px;
      }

      .cls-32 {
        stroke-dasharray: 2 1;
      }

      .cls-35 {
        stroke-width: 2px;
      }

      .cls-36 {
        fill: #626469;
      }

      .cls-37 {
        clip-path: url(#clip-path-33);
      }

      .cls-38 {
        font-size: 6px;
      }

      .cls-39 {
        clip-path: url(#clip-path-34);
      }

      .cls-40 {
        clip-path: url(#clip-path-35);
      }

      .cls-41 {
        clip-path: url(#clip-path-36);
      }

      .cls-42 {
        font-size: 10px;
      }
    </style>
      <clipPath id="clip-path">
         <rect class="cls-1"
               x="87.9488"
               y="128.0584"
               width="35.4357"
               height="39.688"/>
      </clipPath>
      <clipPath id="clip-path-4">
         <rect class="cls-1"
               x="176.353"
               y="128.0594"
               width="35.434"
               height="39.6861"/>
      </clipPath>
      <clipPath id="clip-path-7">
         <rect class="cls-1"
               x="385.4147"
               y="136.4786"
               width="6.125"
               height="6.125"/>
      </clipPath>
      <clipPath id="clip-path-9">
         <rect class="cls-1"
               x="243.0413"
               y="87.9105"
               width="46.8331"
               height="32"/>
      </clipPath>
      <clipPath id="clip-path-12">
         <rect class="cls-1"
               x="274.7513"
               y="111.7587"
               width="11.1133"
               height="9.875"/>
      </clipPath>
      <clipPath id="clip-path-13">
         <rect class="cls-1"
               x="37.9051"
               y="144.8497"
               width="6.125"
               height="6.125"/>
      </clipPath>
      <clipPath id="clip-path-15">
         <rect class="cls-1"
               x="37.9171"
               y="82.4128"
               width="15.6504"
               height="14.7535"/>
      </clipPath>
      <clipPath id="clip-path-16">
         <rect class="cls-1"
               x="37.9171"
               y="82.4129"
               width="15.6509"
               height="14.7534"/>
      </clipPath>
      <clipPath id="clip-path-18">
         <rect class="cls-1"
               x="37.9051"
               y="27.0401"
               width="6.125"
               height="6.125"/>
      </clipPath>
      <clipPath id="clip-path-20">
         <rect class="cls-1"
               x="243.0413"
               y="131.9024"
               width="46.8331"
               height="32"/>
      </clipPath>
      <clipPath id="clip-path-22">
         <rect class="cls-1"
               x="274.7513"
               y="155.7506"
               width="11.1133"
               height="9.875"/>
      </clipPath>
      <clipPath id="clip-path-25">
         <rect class="cls-1"
               x="70.591"
               y="21.9685"
               width="16.63"
               height="16.2683"/>
      </clipPath>
      <clipPath id="clip-path-26">
         <rect class="cls-1"
               x="70.591"
               y="21.9688"
               width="16.63"
               height="16.268"/>
      </clipPath>
      <clipPath id="clip-path-27">
         <rect class="cls-1"
               x="70.591"
               y="81.6559"
               width="16.63"
               height="16.2683"/>
      </clipPath>
      <clipPath id="clip-path-29">
         <rect class="cls-1"
               x="59.1371"
               y="139.778"
               width="16.63"
               height="16.2683"/>
      </clipPath>
      <clipPath id="clip-path-31">
         <rect class="cls-1"
               x="296.9523"
               y="39.1353"
               width="76.0872"
               height="111.302"/>
      </clipPath>
      <clipPath id="clip-path-33">
         <rect class="cls-1"
               x="310.1222"
               y="39.5403"
               width="24.6738"
               height="7.406"/>
      </clipPath>
      <clipPath id="clip-path-34">
         <rect class="cls-1"
               x="319.462"
               y="45.5403"
               width="15.334"
               height="7.4061"/>
      </clipPath>
      <clipPath id="clip-path-35">
         <rect class="cls-1"
               x="317.7979"
               y="51.5396"
               width="16.9981"
               height="7.4063"/>
      </clipPath>
      <clipPath id="clip-path-36">
         <rect class="cls-1"
               x="297.192"
               y="145.6115"
               width="4.5709"
               height="4.5819"/>
      </clipPath>
   </defs>
   <g id="Paths">
      <g>
         <polygon class="cls-2"
                  points="42.014 32.495 38.646 32.495 42.268 27.958 45.636 27.958 42.014 32.495"/>
         <polygon class="cls-2"
                  points="49.072 32.495 45.704 32.495 49.326 27.958 52.694 27.958 49.072 32.495"/>
         <polygon class="cls-2"
                  points="56.13 32.495 52.763 32.495 56.385 27.958 59.752 27.958 56.13 32.495"/>
         <polygon class="cls-2"
                  points="63.189 32.495 59.821 32.495 63.443 27.958 66.811 27.958 63.189 32.495"/>
         <polygon class="cls-2"
                  points="70.247 32.495 66.88 32.495 70.501 27.958 73.869 27.958 70.247 32.495"/>
         <polygon class="cls-2"
                  points="77.305 32.495 73.938 32.495 77.56 27.958 80.927 27.958 77.305 32.495"/>
         <polygon class="cls-2"
                  points="84.364 32.495 80.996 32.495 84.618 27.958 87.986 27.958 84.364 32.495"/>
         <polygon class="cls-2"
                  points="91.422 32.495 88.055 32.495 91.677 27.958 95.044 27.958 91.422 32.495"/>
         <polygon class="cls-2"
                  points="98.481 32.495 95.113 32.495 98.735 27.958 102.102 27.958 98.481 32.495"/>
         <polygon class="cls-2"
                  points="105.539 32.495 102.171 32.495 105.793 27.958 109.161 27.958 105.539 32.495"/>
         <polygon class="cls-2"
                  points="112.597 32.495 109.23 32.495 112.852 27.958 116.219 27.958 112.597 32.495"/>
         <polygon class="cls-2"
                  points="119.656 32.495 116.288 32.495 119.91 27.958 123.278 27.958 119.656 32.495"/>
         <polygon class="cls-2"
                  points="126.714 32.495 123.346 32.495 126.968 27.958 130.336 27.958 126.714 32.495"/>
         <polygon class="cls-2"
                  points="133.772 32.495 130.405 32.495 134.027 27.958 137.394 27.958 133.772 32.495"/>
         <polygon class="cls-2"
                  points="140.831 32.495 137.463 32.495 141.085 27.958 144.453 27.958 140.831 32.495"/>
         <polygon class="cls-2"
                  points="147.889 32.495 144.521 32.495 148.143 27.958 151.511 27.958 147.889 32.495"/>
         <polygon class="cls-2"
                  points="154.947 32.495 151.58 32.495 155.202 27.958 158.569 27.958 154.947 32.495"/>
         <polygon class="cls-2"
                  points="162.006 32.495 158.638 32.495 162.26 27.958 165.628 27.958 162.006 32.495"/>
         <polygon class="cls-2"
                  points="169.064 32.495 165.697 32.495 169.318 27.958 172.686 27.958 169.064 32.495"/>
         <polygon class="cls-2"
                  points="176.122 32.495 172.755 32.495 176.377 27.958 179.744 27.958 176.122 32.495"/>
         <polygon class="cls-2"
                  points="183.181 32.495 179.813 32.495 183.435 27.958 186.803 27.958 183.181 32.495"/>
         <polygon class="cls-2"
                  points="190.239 32.495 186.872 32.495 190.494 27.958 193.861 27.958 190.239 32.495"/>
         <polygon class="cls-2"
                  points="197.298 32.495 193.93 32.495 197.552 27.958 200.92 27.958 197.298 32.495"/>
         <polygon class="cls-2"
                  points="204.356 32.495 200.988 32.495 204.61 27.958 207.978 27.958 204.356 32.495"/>
         <polygon class="cls-2"
                  points="211.414 32.495 208.047 32.495 211.669 27.958 215.036 27.958 211.414 32.495"/>
         <polygon class="cls-2"
                  points="218.473 32.495 215.105 32.495 218.727 27.958 222.095 27.958 218.473 32.495"/>
         <polygon class="cls-2"
                  points="225.531 32.495 222.163 32.495 225.785 27.958 229.153 27.958 225.531 32.495"/>
         <polygon class="cls-2"
                  points="232.589 32.495 229.222 32.495 232.844 27.958 236.211 27.958 232.589 32.495"/>
         <polygon class="cls-2"
                  points="239.648 32.495 236.28 32.495 239.902 27.958 243.27 27.958 239.648 32.495"/>
         <polygon class="cls-2"
                  points="246.706 32.495 243.338 32.495 246.96 27.958 250.328 27.958 246.706 32.495"/>
         <polygon class="cls-2"
                  points="253.764 32.495 250.397 32.495 254.019 27.958 257.386 27.958 253.764 32.495"/>
         <polygon class="cls-2"
                  points="260.823 32.495 257.455 32.495 261.077 27.958 264.445 27.958 260.823 32.495"/>
         <polygon class="cls-2"
                  points="267.881 32.495 264.514 32.495 268.136 27.958 271.503 27.958 267.881 32.495"/>
         <polygon class="cls-2"
                  points="274.94 32.495 271.572 32.495 275.194 27.958 278.561 27.958 274.94 32.495"/>
         <polygon class="cls-2"
                  points="281.998 32.495 278.63 32.495 282.252 27.958 285.62 27.958 281.998 32.495"/>
         <polygon class="cls-2"
                  points="289.056 32.495 285.689 32.495 289.311 27.958 292.678 27.958 289.056 32.495"/>
         <polygon class="cls-2"
                  points="296.115 32.495 292.747 32.495 296.369 27.958 299.737 27.958 296.115 32.495"/>
         <polygon class="cls-2"
                  points="303.173 32.495 299.805 32.495 303.427 27.958 306.795 27.958 303.173 32.495"/>
         <polygon class="cls-2"
                  points="310.231 32.495 306.864 32.495 310.486 27.958 313.853 27.958 310.231 32.495"/>
         <polygon class="cls-2"
                  points="317.29 32.495 313.922 32.495 317.544 27.958 320.912 27.958 317.29 32.495"/>
         <polygon class="cls-2"
                  points="324.348 32.495 320.98 32.495 324.602 27.958 327.97 27.958 324.348 32.495"/>
         <polygon class="cls-2"
                  points="331.406 32.495 328.039 32.495 331.661 27.958 335.028 27.958 331.406 32.495"/>
         <polygon class="cls-2"
                  points="338.465 32.495 335.097 32.495 338.719 27.958 342.087 27.958 338.465 32.495"/>
         <polygon class="cls-2"
                  points="345.523 32.495 342.156 32.495 345.777 27.958 349.145 27.958 345.523 32.495"/>
         <polygon class="cls-2"
                  points="352.581 32.495 349.214 32.495 352.836 27.958 356.203 27.958 352.581 32.495"/>
         <polygon class="cls-2"
                  points="356.283 36.221 356.273 32.854 360.82 36.462 360.83 39.83 356.283 36.221"/>
         <polygon class="cls-2"
                  points="356.305 43.569 356.295 40.202 360.842 43.811 360.852 47.178 356.305 43.569"/>
         <polygon class="cls-2"
                  points="356.326 50.918 356.316 47.55 360.863 51.159 360.873 54.526 356.326 50.918"/>
         <polygon class="cls-2"
                  points="356.348 58.266 356.338 54.898 360.885 58.507 360.895 61.875 356.348 58.266"/>
         <polygon class="cls-2"
                  points="356.369 65.614 356.359 62.247 360.907 65.855 360.916 69.223 356.369 65.614"/>
         <path class="cls-2"
               d="M352.5548,69.5947h3.3676L352.3,74.1313h-2.7637l-.0067-.026a1.4394,1.4394,0,0,1-.0279-.5638c-.0159-.1879.2271-.3759.3518-.5638l.9-1.1277Z"/>
         <path class="cls-2"
               d="M344.49,71.7311l3.041-1.6741a2.24,2.24,0,0,0-.1218.2288l-.0307.1788-.0616.3576-.1231.7151-.2463,1.43-.4926,2.8605-2.95,1.624Z"/>
         <polygon class="cls-2"
                  points="337.965 75.323 340.915 73.699 339.93 79.42 336.98 81.044 337.965 75.323"/>
         <path class="cls-2"
               d="M332.1954,77.3152h2.1507l.0444-.0244a3.5286,3.5286,0,0,1,.16.8182c.0533.6238-.6615,1.2476-1.1151,1.8714l-1.4941,1.8714h-3.3676Z"/>
         <polygon class="cls-2"
                  points="324.747 77.315 328.115 77.315 324.493 81.852 321.125 81.852 324.747 77.315"/>
         <polygon class="cls-2"
                  points="317.299 77.315 320.667 77.315 317.045 81.852 313.677 81.852 317.299 77.315"/>
         <polygon class="cls-2"
                  points="313.219 72.611 313.219 75.979 308.682 72.357 308.682 68.989 313.219 72.611"/>
         <polygon class="cls-2"
                  points="313.219 64.285 313.219 67.653 308.682 64.031 308.682 60.663 313.219 64.285"/>
         <polygon class="cls-2"
                  points="304.91 54.79 308.278 54.79 304.656 59.326 301.288 59.326 304.91 54.79"/>
         <polygon class="cls-2"
                  points="297.516 54.79 300.884 54.79 297.262 59.326 293.895 59.326 297.516 54.79"/>
         <polygon class="cls-2"
                  points="290.123 54.79 293.49 54.79 289.868 59.326 286.501 59.326 290.123 54.79"/>
         <polygon class="cls-2"
                  points="282.729 54.79 286.096 54.79 282.474 59.326 279.107 59.326 282.729 54.79"/>
         <polygon class="cls-2"
                  points="275.335 54.79 278.703 54.79 275.081 59.326 271.713 59.326 275.335 54.79"/>
         <polygon class="cls-2"
                  points="267.941 54.79 271.309 54.79 267.687 59.326 264.319 59.326 267.941 54.79"/>
         <polygon class="cls-2"
                  points="260.547 54.79 263.915 54.79 260.293 59.326 256.925 59.326 260.547 54.79"/>
         <polygon class="cls-2"
                  points="253.153 54.79 256.521 54.79 252.899 59.326 249.531 59.326 253.153 54.79"/>
         <polygon class="cls-2"
                  points="245.76 54.79 249.127 54.79 245.505 59.326 242.138 59.326 245.76 54.79"/>
         <polygon class="cls-2"
                  points="238.366 54.79 241.733 54.79 238.111 59.326 234.744 59.326 238.366 54.79"/>
         <polygon class="cls-2"
                  points="230.972 54.79 234.339 54.79 230.717 59.326 227.35 59.326 230.972 54.79"/>
         <polygon class="cls-2"
                  points="223.578 54.79 226.946 54.79 223.324 59.326 219.956 59.326 223.578 54.79"/>
         <polygon class="cls-2"
                  points="215.015 62.766 215.015 59.398 219.552 63.02 219.552 66.388 215.015 62.766"/>
         <polygon class="cls-2"
                  points="215.015 69.827 215.015 66.46 219.552 70.082 219.552 73.449 215.015 69.827"/>
         <polygon class="cls-2"
                  points="215.015 76.888 215.015 73.521 219.552 77.143 219.552 80.51 215.015 76.888"/>
         <polygon class="cls-2"
                  points="215.015 83.95 215.015 80.582 219.552 84.204 219.552 87.572 215.015 83.95"/>
         <polygon class="cls-2"
                  points="215.015 91.011 215.015 87.644 219.552 91.266 219.552 94.633 215.015 91.011"/>
         <polygon class="cls-2"
                  points="215.015 98.072 215.015 94.705 219.552 98.327 219.552 101.694 215.015 98.072"/>
         <polygon class="cls-2"
                  points="222.981 106.303 219.613 106.303 223.235 101.766 226.603 101.766 222.981 106.303"/>
         <polygon class="cls-2"
                  points="230.032 106.303 226.664 106.303 230.286 101.766 233.654 101.766 230.032 106.303"/>
         <polygon class="cls-2"
                  points="237.083 106.303 233.716 106.303 237.338 101.766 240.705 101.766 237.083 106.303"/>
         <polygon class="cls-2"
                  points="244.134 106.303 240.767 106.303 244.389 101.766 247.756 101.766 244.134 106.303"/>
         <polygon class="cls-2"
                  points="251.185 106.303 247.818 106.303 251.44 101.766 254.807 101.766 251.185 106.303"/>
         <polygon class="cls-2"
                  points="258.236 106.303 254.869 106.303 258.491 101.766 261.858 101.766 258.236 106.303"/>
         <polygon class="cls-2"
                  points="265.288 106.303 261.92 106.303 265.542 101.766 268.91 101.766 265.288 106.303"/>
         <polygon class="cls-2"
                  points="272.339 106.303 268.971 106.303 272.593 101.766 275.961 101.766 272.339 106.303"/>
         <polygon class="cls-2"
                  points="279.39 106.303 276.022 106.303 279.644 101.766 283.012 101.766 279.39 106.303"/>
         <polygon class="cls-2"
                  points="286.441 106.303 283.073 106.303 286.695 101.766 290.063 101.766 286.441 106.303"/>
         <polygon class="cls-2"
                  points="293.492 106.303 290.124 106.303 293.746 101.766 297.114 101.766 293.492 106.303"/>
         <polygon class="cls-2"
                  points="297.179 109.704 297.176 106.336 301.716 109.953 301.72 113.321 297.179 109.704"/>
         <polygon class="cls-2"
                  points="297.187 116.727 297.183 113.36 301.724 116.977 301.728 120.344 297.187 116.727"/>
         <polygon class="cls-2"
                  points="297.195 123.75 297.191 120.383 301.732 124 301.735 127.367 297.195 123.75"/>
         <polygon class="cls-2"
                  points="297.202 130.773 297.199 127.406 301.739 131.023 301.743 134.39 297.202 130.773"/>
         <polygon class="cls-2"
                  points="297.21 137.797 297.206 134.429 301.747 138.046 301.751 141.414 297.21 137.797"/>
         <polygon class="cls-2"
                  points="297.218 144.82 297.214 141.452 301.755 145.069 301.758 148.437 297.218 144.82"/>
      </g>
      <g>
         <polyline class="cls-3"
                   points="36.308 89.914 150.991 89.914 150.991 148.032 334.905 148.032 349.002 139.665 394.729 139.665"/>
         <polygon class="cls-2"
                  points="393.27 144.651 401.905 139.665 393.27 134.679 393.27 144.651"/>
      </g>
      <g>
         <polygon class="cls-2"
                  points="356.36 76.379 356.38 73.012 360.894 76.661 360.874 80.029 356.36 76.379"/>
         <polygon class="cls-2"
                  points="356.309 84.531 356.33 81.163 360.844 84.813 360.823 88.181 356.309 84.531"/>
         <polygon class="cls-2"
                  points="352.761 89.315 356.128 89.315 352.506 93.852 349.139 93.852 352.761 89.315"/>
         <polygon class="cls-2"
                  points="345.62 89.315 348.988 89.315 345.366 93.852 341.998 93.852 345.62 89.315"/>
         <polygon class="cls-2"
                  points="338.479 89.315 341.847 89.315 338.225 93.852 334.857 93.852 338.479 89.315"/>
         <polygon class="cls-2"
                  points="331.338 89.315 334.706 89.315 331.084 93.852 327.717 93.852 331.338 89.315"/>
         <polygon class="cls-2"
                  points="324.198 89.315 327.565 89.315 323.943 93.852 320.576 93.852 324.198 89.315"/>
         <polygon class="cls-2"
                  points="317.057 89.315 320.425 89.315 316.803 93.852 313.435 93.852 317.057 89.315"/>
         <polygon class="cls-2"
                  points="308.733 97.759 308.745 94.391 313.269 98.03 313.256 101.397 308.733 97.759"/>
         <polygon class="cls-2"
                  points="308.706 105.305 308.718 101.937 313.241 105.575 313.229 108.943 308.706 105.305"/>
         <polygon class="cls-2"
                  points="317.451 114.036 314.083 114.036 317.705 109.499 321.073 109.499 317.451 114.036"/>
      </g>
      <polygon class="cls-2"
               points="315.922 105.769 312.555 105.769 316.177 101.232 319.544 101.232 315.922 105.769"/>
      <polygon class="cls-2"
               points="315.922 72.23 312.555 72.23 316.177 67.694 319.544 67.694 315.922 72.23"/>
      <g>
         <polygon class="cls-2"
                  points="339.529 119.275 336.615 120.962 337.478 115.221 340.393 113.535 339.529 119.275"/>
         <path class="cls-2"
               d="M346.1045,115.4714l-2.9149,1.6864.8634-5.74,3.1785-1.8389a3.2414,3.2414,0,0,0-.4794,1.5876l-.2159,1.4352Z"/>
         <path class="cls-2"
               d="M352.037,113.81h-3.0609c-.1553-.3781.34-.7561.5988-1.1342l.9055-1.1341,1.811-2.2683h3.3676Z"/>
         <polygon class="cls-2"
                  points="356.266 118.399 356.266 115.032 360.802 118.654 360.802 122.021 356.266 118.399"/>
         <polygon class="cls-2"
                  points="356.266 126.61 356.266 123.243 360.802 126.865 360.802 130.232 356.266 126.61"/>
         <polygon class="cls-2"
                  points="356.266 134.822 356.266 131.454 360.802 135.076 360.802 138.444 356.266 134.822"/>
      </g>
      <g>
         <polygon class="cls-2"
                  points="45.504 150.295 42.136 150.295 45.758 145.758 49.126 145.758 45.504 150.295"/>
         <polygon class="cls-2"
                  points="52.761 150.295 49.393 150.295 53.015 145.758 56.383 145.758 52.761 150.295"/>
         <polygon class="cls-2"
                  points="60.018 150.295 56.65 150.295 60.272 145.758 63.64 145.758 60.018 150.295"/>
         <polygon class="cls-2"
                  points="67.275 150.295 63.907 150.295 67.529 145.758 70.897 145.758 67.275 150.295"/>
         <polygon class="cls-2"
                  points="74.532 150.295 71.164 150.295 74.786 145.758 78.154 145.758 74.532 150.295"/>
         <polygon class="cls-2"
                  points="81.789 150.295 78.421 150.295 82.043 145.758 85.411 145.758 81.789 150.295"/>
         <polygon class="cls-2"
                  points="89.046 150.295 85.678 150.295 89.3 145.758 92.668 145.758 89.046 150.295"/>
         <polygon class="cls-2"
                  points="96.303 150.295 92.935 150.295 96.557 145.758 99.925 145.758 96.303 150.295"/>
         <polygon class="cls-2"
                  points="103.56 150.295 100.192 150.295 103.814 145.758 107.182 145.758 103.56 150.295"/>
         <polygon class="cls-2"
                  points="110.817 150.295 107.449 150.295 111.071 145.758 114.438 145.758 110.817 150.295"/>
         <polygon class="cls-2"
                  points="118.073 150.295 114.706 150.295 118.328 145.758 121.695 145.758 118.073 150.295"/>
         <polygon class="cls-2"
                  points="125.33 150.295 121.963 150.295 125.585 145.758 128.952 145.758 125.33 150.295"/>
         <polygon class="cls-2"
                  points="132.587 150.295 129.22 150.295 132.842 145.758 136.209 145.758 132.587 150.295"/>
         <polygon class="cls-2"
                  points="139.844 150.295 136.477 150.295 140.099 145.758 143.466 145.758 139.844 150.295"/>
         <polygon class="cls-2"
                  points="147.101 150.295 143.734 150.295 147.356 145.758 150.723 145.758 147.101 150.295"/>
      </g>
   </g>
   <g id="Diagrams">
      <polyline class="cls-4"
                points="299.479 147.974 299.479 103.973 217.283 103.973 217.283 56.996 310.988 56.996 310.988 71.605"/>
      <polyline class="cls-4" points="86.21 30.165 358.571 30.403 358.571 71.605"/>
      <path class="cls-5" d="M321.9664,147.9743H75.7671"/>
      <path class="cls-5" d="M59.25,147.9743H41.8688"/>
      <polyline class="cls-4" points="150.991 147.97 150.991 89.852 86.21 89.852"/>
      <line class="cls-5"
            x1="359.3322"
            y1="139.6791"
            x2="388.4772"
            y2="139.6791"/>
      <line class="cls-4"
            x1="70.6981"
            y1="89.8522"
            x2="53.5675"
            y2="89.8522"/>
      <line class="cls-4"
            x1="40.9676"
            y1="30.1647"
            x2="71.82"
            y2="30.1647"/>
   </g>
   <g id="Symbols">
      <g id="Rectifier">
         <g class="cls-6">
            <rect class="cls-7"
                  x="88.6584"
                  y="130.8942"
                  width="34.0183"
                  height="34.0183"/>
            <g class="cls-6">
               <rect class="cls-8"
                     x="88.6584"
                     y="130.8942"
                     width="34.0183"
                     height="34.0183"/>
               <line class="cls-8"
                     x1="122.674"
                     y1="130.892"
                     x2="88.6566"
                     y2="164.9103"/>
            </g>
            <line class="cls-8"
                  x1="118.956"
                  y1="157.4683"
                  x2="109.3931"
                  y2="157.4683"/>
            <line class="cls-8"
                  x1="111.6446"
                  y1="159.5944"
                  x2="109.3937"
                  y2="159.5944"/>
            <line class="cls-8"
                  x1="115.3002"
                  y1="159.5944"
                  x2="113.0494"
                  y2="159.5944"/>
            <line class="cls-8"
                  x1="118.956"
                  y1="159.5944"
                  x2="116.7051"
                  y2="159.5944"/>
            <g class="cls-6">
               <path class="cls-8"
                     d="M92.4106,136.7928a2.1878,2.1878,0,0,1,2.1261-2.0061c1.0413,0,1.871.53,2.1261,2.0061a2.1383,2.1383,0,0,0,2.1262,2.0043,2.298,2.298,0,0,0,2.1261-2.0043"/>
            </g>
         </g>
      </g>
      <g id="Inverter">
         <g class="cls-9">
            <rect class="cls-7"
                  x="177.0608"
                  y="130.8932"
                  width="34.0176"
                  height="34.0166"/>
            <g class="cls-9">
               <rect class="cls-10"
                     x="177.0608"
                     y="130.8932"
                     width="34.0166"
                     height="34.0166"/>
               <line class="cls-10"
                     x1="177.0637"
                     y1="164.912"
                     x2="211.0794"
                     y2="130.8963"/>
            </g>
            <line class="cls-10"
                  x1="180.2499"
                  y1="137.2744"
                  x2="189.8133"
                  y2="137.2744"/>
            <line class="cls-10"
                  x1="182.5015"
                  y1="139.4005"
                  x2="180.2498"
                  y2="139.4005"/>
            <line class="cls-10"
                  x1="186.157"
                  y1="139.4005"
                  x2="183.9062"
                  y2="139.4005"/>
            <line class="cls-10"
                  x1="189.813"
                  y1="139.4005"
                  x2="187.5613"
                  y2="139.4005"/>
            <g class="cls-9">
               <path class="cls-10"
                     d="M199.3847,157.5872a2.1865,2.1865,0,0,1,2.1261-2.0061c1.0413,0,1.87.53,2.126,2.0061a2.1381,2.1381,0,0,0,2.1261,2.0041,2.2987,2.2987,0,0,0,2.126-2.0041"/>
            </g>
         </g>
      </g>
      <g id="Artwork_13" data-name="Artwork 13">
         <g class="cls-11">
            <g class="cls-11">
               <path class="cls-12"
                     d="M388.4771,137.5415a2,2,0,1,1-2,2,2.0007,2.0007,0,0,1,2-2"/>
               <circle class="cls-5" cx="388.4771" cy="139.5415" r="2"/>
            </g>
         </g>
      </g>
      <g id="Artwork_11" data-name="Artwork 11">
         <g class="cls-13">
            <rect class="cls-7"
                  x="244.4123"
                  y="89.1995"
                  width="29.339"
                  height="29.423"/>
            <g class="cls-13">
               <rect class="cls-5"
                     x="244.4123"
                     y="89.1995"
                     width="29.339"
                     height="29.423"/>
               <line class="cls-4"
                     x1="244.4125"
                     y1="103.9111"
                     x2="273.7515"
                     y2="103.9111"/>
            </g>
            <rect class="cls-7"
                  x="251.7423"
                  y="96.3265"
                  width="15.128"
                  height="15.171"/>
            <rect class="cls-5"
                  x="251.7423"
                  y="96.3265"
                  width="15.128"
                  height="15.171"/>
            <line class="cls-5"
                  x1="256.7103"
                  y1="115.1767"
                  x2="256.7103"
                  y2="107.8167"/>
            <line class="cls-5"
                  x1="259.6527"
                  y1="115.1767"
                  x2="259.6417"
                  y2="112.8347"/>
            <path d="M262.9076,109.0324v4.929l-4.909-2.464Zm.75-1.216-7.33,3.681,7.33,3.679Z"/>
            <line class="cls-5"
                  x1="262.3685"
                  y1="92.6992"
                  x2="262.3685"
                  y2="100.0592"/>
            <line class="cls-5"
                  x1="259.0795"
                  y1="92.6484"
                  x2="259.0795"
                  y2="94.6614"/>
            <path d="M256.1644,93.8605l4.909,2.464-4.909,2.465Zm-.75-1.216v7.36l7.33-3.68Z"/>
            <g class="cls-13">
               <path class="cls-14"
                     d="M251.7425,102.91a1,1,0,1,1-.997,1,.9984.9984,0,0,1,.997-1"/>
               <circle class="cls-5" cx="251.7425" cy="103.9101" r="0.997"/>
               <path class="cls-14"
                     d="M266.8705,102.9111a1,1,0,1,1-.997,1,.9984.9984,0,0,1,.997-1"/>
               <circle class="cls-5" cx="266.8705" cy="103.9111" r="0.997"/>
               <g class="cls-15">
                  <g class="cls-16">
                     <text class="cls-17" transform="translate(274.7508 118.622)">EN</text>
                  </g>
               </g>
            </g>
         </g>
      </g>
      <g id="Artwork_13-2" data-name="Artwork 13">
         <g class="cls-18">
            <g class="cls-18">
               <path class="cls-12"
                     d="M40.9675,145.9126a2,2,0,1,1-2,2,2.0007,2.0007,0,0,1,2-2"/>
               <circle class="cls-5" cx="40.9675" cy="147.9126" r="2"/>
            </g>
         </g>
      </g>
      <g id="Artwork_8" data-name="Artwork 8">
         <g class="cls-19">
            <g class="cls-20">
               <line class="cls-21"
                     x1="40.5535"
                     y1="97.1742"
                     x2="40.5535"
                     y2="82.4208"/>
               <line class="cls-22"
                     x1="38.5354"
                     y1="94.0399"
                     x2="38.5354"
                     y2="85.5553"/>
            </g>
            <line class="cls-23"
                  x1="40.3197"
                  y1="89.7894"
                  x2="51.3006"
                  y2="89.7894"/>
            <g class="cls-20">
               <line class="cls-21"
                     x1="53.3186"
                     y1="97.1663"
                     x2="53.3186"
                     y2="82.4129"/>
            </g>
            <line class="cls-22"
                  x1="51.3005"
                  y1="94.0316"
                  x2="51.3005"
                  y2="85.547"/>
         </g>
      </g>
      <g id="Artwork_13-3" data-name="Artwork 13">
         <g class="cls-24">
            <g class="cls-24">
               <path class="cls-12"
                     d="M40.9675,28.103a2,2,0,1,1-2,2,2.0007,2.0007,0,0,1,2-2"/>
               <circle class="cls-5" cx="40.9675" cy="30.103" r="2"/>
            </g>
         </g>
      </g>
      <g id="Artwork_12" data-name="Artwork 12">
         <g class="cls-25">
            <g class="cls-25">
               <g class="cls-15">
                  <g class="cls-26">
                     <text class="cls-17" transform="translate(274.7508 162.613)">EA</text>
                  </g>
               </g>
            </g>
            <rect class="cls-7"
                  x="244.4123"
                  y="133.1904"
                  width="29.339"
                  height="29.423"/>
            <g class="cls-25">
               <rect class="cls-5"
                     x="244.4123"
                     y="133.1904"
                     width="29.339"
                     height="29.423"/>
               <line class="cls-4"
                     x1="244.4125"
                     y1="147.9029"
                     x2="273.7515"
                     y2="147.9029"/>
            </g>
            <rect class="cls-7"
                  x="251.7423"
                  y="140.3184"
                  width="15.128"
                  height="15.171"/>
            <rect class="cls-5"
                  x="251.7423"
                  y="140.3184"
                  width="15.128"
                  height="15.171"/>
            <line class="cls-5"
                  x1="256.7103"
                  y1="159.1685"
                  x2="256.7103"
                  y2="151.8085"/>
            <line class="cls-5"
                  x1="259.6527"
                  y1="159.1685"
                  x2="259.6417"
                  y2="156.8265"/>
            <path d="M262.9076,153.0242v4.929l-4.909-2.464Zm.75-1.216-7.33,3.681,7.33,3.679Z"/>
            <line class="cls-5"
                  x1="262.3685"
                  y1="136.691"
                  x2="262.3685"
                  y2="144.051"/>
            <line class="cls-5"
                  x1="259.0795"
                  y1="136.6397"
                  x2="259.0795"
                  y2="138.6527"/>
            <path d="M256.1644,137.8523l4.909,2.464-4.909,2.465Zm-.75-1.216v7.36l7.33-3.68Z"/>
            <g class="cls-25">
               <path class="cls-14"
                     d="M251.7425,146.9029a1,1,0,1,1-.997,1,.9978.9978,0,0,1,.997-1"/>
               <circle class="cls-5" cx="251.7425" cy="147.9029" r="0.997"/>
               <path class="cls-14"
                     d="M266.8705,146.9029a1,1,0,1,1-.997,1,.9984.9984,0,0,1,.997-1"/>
               <circle class="cls-5" cx="266.8705" cy="147.9029" r="0.997"/>
            </g>
         </g>
      </g>
      <g id="Artwork_20_no_white" data-name="Artwork 20 no white">
         <g class="cls-27">
            <g class="cls-28">
               <line class="cls-5"
                     x1="71.5911"
                     y1="36.88"
                     x2="86.2211"
                     y2="30.114"/>
               <path d="M86.221,31.1183h0a1,1,0,1,1,1-1,1.0029,1.0029,0,0,1-1,1"/>
               <path d="M71.5911,31.1183h0a1,1,0,1,1,1-1,1.0029,1.0029,0,0,1-1,1"/>
            </g>
         </g>
      </g>
      <g id="Artwork_20_no_white-2" data-name="Artwork 20 no white">
         <g class="cls-29">
            <g class="cls-29">
               <line class="cls-5"
                     x1="71.5911"
                     y1="96.5674"
                     x2="86.2211"
                     y2="89.8014"/>
               <path d="M86.221,90.8057h0a1,1,0,1,1,1-1,1.0029,1.0029,0,0,1-1,1"/>
               <path d="M71.5911,90.8057h0a1,1,0,1,1,1-1,1.0029,1.0029,0,0,1-1,1"/>
            </g>
         </g>
      </g>
      <g id="Artwork_20_no_white-3" data-name="Artwork 20 no white">
         <g class="cls-30">
            <g class="cls-30">
               <line class="cls-5"
                     x1="60.1372"
                     y1="154.6895"
                     x2="74.7672"
                     y2="147.9235"/>
               <path d="M74.7671,148.9278h0a1,1,0,1,1,1-1,1.0029,1.0029,0,0,1-1,1"/>
               <path d="M60.1372,148.9278h0a1,1,0,1,1,1-1,1.0029,1.0029,0,0,1-1,1"/>
            </g>
         </g>
      </g>
      <g id="Auto">
         <g class="cls-31">
            <line class="cls-32"
                  x1="342.1153"
                  y1="143.3507"
                  x2="342.1153"
                  y2="44.8227"/>
            <line class="cls-5"
                  x1="311.0499"
                  y1="103.6871"
                  x2="327.6989"
                  y2="103.6871"/>
            <polyline class="cls-5"
                      points="327.699 79.687 311.05 79.687 311.05 71.687 327.699 71.687"/>
            <line class="cls-2"
                  x1="335.089"
                  y1="55.1021"
                  x2="348.65"
                  y2="48.2491"/>
            <line class="cls-33"
                  x1="335.089"
                  y1="55.1021"
                  x2="348.65"
                  y2="48.2491"/>
            <polyline class="cls-5"
                      points="334.601 119.687 348.503 111.687 358.625 111.687 358.625 139.663 348.503 139.663 334.601 147.687"/>
            <polyline class="cls-5"
                      points="334.601 79.687 348.503 71.687 358.625 71.687 358.625 91.687 311.05 91.687 311.05 111.687 327.699 111.687"/>
            <g class="cls-31">
               <path class="cls-14" d="M311.05,70.6871a1,1,0,1,1-1,1,1,1,0,0,1,1-1"/>
               <circle class="cls-34" cx="311.0499" cy="71.6871" r="1"/>
               <path class="cls-14" d="M358.6256,70.6871a1,1,0,1,1-1,1,1,1,0,0,1,1-1"/>
               <circle class="cls-34" cx="358.6256" cy="71.6871" r="1"/>
               <path class="cls-14" d="M311.05,102.6871a1,1,0,1,1-1,1,1,1,0,0,1,1-1"/>
               <circle class="cls-34" cx="311.0499" cy="103.6871" r="1"/>
               <path class="cls-14" d="M358.6222,138.6876a1,1,0,1,1-1,1,1,1,0,0,1,1-1"/>
               <circle class="cls-34" cx="358.6222" cy="139.6876" r="1"/>
               <line class="cls-35"
                     x1="320.6012"
                     y1="139.6876"
                     x2="334.7962"
                     y2="139.6876"/>
               <line class="cls-35"
                     x1="320.6012"
                     y1="131.6876"
                     x2="334.7962"
                     y2="131.6876"/>
               <line class="cls-35"
                     x1="320.6012"
                     y1="147.6876"
                     x2="334.7962"
                     y2="147.6876"/>
               <line class="cls-35"
                     x1="320.6012"
                     y1="111.6871"
                     x2="334.7962"
                     y2="111.6871"/>
               <line class="cls-35"
                     x1="320.6012"
                     y1="103.6871"
                     x2="334.7962"
                     y2="103.6871"/>
               <line class="cls-35"
                     x1="320.6012"
                     y1="119.6871"
                     x2="334.7962"
                     y2="119.6871"/>
               <line class="cls-35"
                     x1="320.6012"
                     y1="71.6871"
                     x2="334.7962"
                     y2="71.6871"/>
               <line class="cls-35"
                     x1="320.6012"
                     y1="63.6871"
                     x2="334.7962"
                     y2="63.6871"/>
               <line class="cls-35"
                     x1="320.6012"
                     y1="79.6871"
                     x2="334.7962"
                     y2="79.6871"/>
               <line class="cls-32"
                     x1="335.089"
                     y1="48.2496"
                     x2="348.65"
                     y2="48.2496"/>
               <line class="cls-36"
                     x1="335.089"
                     y1="41.3966"
                     x2="348.65"
                     y2="48.2496"/>
               <line class="cls-32"
                     x1="335.089"
                     y1="41.3966"
                     x2="348.65"
                     y2="48.2496"/>
               <g class="cls-15">
                  <g class="cls-37">
                     <text class="cls-38" transform="translate(310.1222 44.6874)">BYPASS</text>
                  </g>
               </g>
               <g class="cls-15">
                  <g class="cls-39">
                     <text class="cls-38" transform="translate(319.4621 50.6874)">TEST</text>
                  </g>
               </g>
               <g class="cls-15">
                  <g class="cls-40">
                     <text class="cls-38" transform="translate(317.798 56.6874)">AUTO</text>
                  </g>
               </g>
            </g>
         </g>
      </g>
      <g id="shape116-109">
         <g class="cls-41">
            <g class="cls-41">
               <path class="cls-14"
                     d="M299.4771,146.8991a1.003,1.003,0,1,1-1,1.003,1.001,1.001,0,0,1,1-1.003"/>
               <circle class="cls-34" cx="299.4771" cy="147.9021" r="1"/>
            </g>
         </g>
      </g>
   </g>
   <g id="Text">
      <text class="cls-42" transform="translate(20.4065 10.9322)">BYPASS<tspan x="4.4507" y="12">MAINS</tspan>
      </text>
      <text class="cls-42" transform="translate(289.3548 10.9322)">MANUAL BYPASS<tspan x="23.894" y="12">SWITCH</tspan>
      </text>
      <text class="cls-42" transform="translate(241.4795 71.9517)">STATIC<tspan x="-8.335" y="12">SWITCHES</tspan>
      </text>
      <text class="cls-42" transform="translate(24.4533 77.7895)">BATTERY</text>
      <text class="cls-42" transform="translate(78.8751 125.9028)">RECTIFIER</text>
      <text class="cls-42" transform="translate(168.7893 125.9027)">INVERTER</text>
      <text class="cls-42" transform="translate(14.5786 125.903)">RECTIFIER<tspan x="10.2783" y="12">MAINS</tspan>
      </text>
      <text class="cls-42" transform="translate(371.1168 132.8339)">OUTPUT</text>
   </g>
</svg>
