<?xml version="1.0" encoding="UTF-8"?>
<svg xmlns="http://www.w3.org/2000/svg"
     xmlns:xlink="http://www.w3.org/1999/xlink"
     width="128.4455mm"
     height="60mm"
     viewBox="0 0 364.0976 170.0787">
   <defs>
      <style>
      .cls-1, .cls-19, .cls-2, .cls-20, .cls-21, .cls-23, .cls-3, .cls-6, .cls-8 {
        fill: none;
      }

      .cls-19, .cls-2, .cls-20, .cls-21, .cls-23, .cls-3, .cls-6, .cls-8 {
        stroke: #000;
      }

      .cls-2 {
        stroke-miterlimit: 10;
      }

      .cls-2, .cls-3 {
        stroke-width: 0.75px;
      }

      .cls-19, .cls-20, .cls-21, .cls-23, .cls-3, .cls-6, .cls-8 {
        stroke-miterlimit: 3;
      }

      .cls-4 {
        clip-path: url(#clip-path);
      }

      .cls-10, .cls-5 {
        fill: #fff;
      }

      .cls-6 {
        stroke-width: 0.7087px;
      }

      .cls-7 {
        clip-path: url(#clip-path-4);
      }

      .cls-8 {
        stroke-width: 0.7087px;
      }

      .cls-9 {
        clip-path: url(#clip-path-7);
      }

      .cls-10, .cls-12 {
        fill-rule: evenodd;
      }

      .cls-11 {
        clip-path: url(#clip-path-9);
      }

      .cls-13 {
        isolation: isolate;
      }

      .cls-14 {
        clip-path: url(#clip-path-12);
      }

      .cls-15 {
        font-size: 8px;
      }

      .cls-15, .cls-28, .cls-29 {
        fill: #01889C;
      }

      .cls-15, .cls-28 {
        font-family: Arial-BoldMT, Arial;
        font-weight: 700;
      }

      .cls-16 {
        clip-path: url(#clip-path-13);
      }

      .cls-17 {
        clip-path: url(#clip-path-15);
      }

      .cls-18 {
        clip-path: url(#clip-path-16);
      }

      .cls-19, .cls-21 {
        stroke-width: 0.7513px;
      }

      .cls-20 {
        stroke-width: 1.2522px;
      }

      .cls-21 {
        stroke-dasharray: 2.0034 1.0017;
      }

      .cls-22 {
        clip-path: url(#clip-path-18);
      }

      .cls-23 {
        stroke-width: 0.5px;
      }

      .cls-24 {
        clip-path: url(#clip-path-20);
      }

      .cls-25 {
        clip-path: url(#clip-path-22);
      }

      .cls-26 {
        clip-path: url(#clip-path-24);
      }

      .cls-27 {
        clip-path: url(#clip-path-26);
      }

      .cls-28 {
        font-size: 10px;
      }
    </style>
      <clipPath id="clip-path">
         <rect class="cls-1"
               x="83.5434"
               y="130.3907"
               width="35.4357"
               height="39.688"/>
      </clipPath>
      <clipPath id="clip-path-4">
         <rect class="cls-1"
               x="171.9476"
               y="130.3917"
               width="35.434"
               height="39.6861"/>
      </clipPath>
      <clipPath id="clip-path-7">
         <rect class="cls-1"
               x="333.6206"
               y="147.1799"
               width="6.125"
               height="6.125"/>
      </clipPath>
      <clipPath id="clip-path-9">
         <rect class="cls-1"
               x="238.6359"
               y="90.2428"
               width="46.8331"
               height="32"/>
      </clipPath>
      <clipPath id="clip-path-12">
         <rect class="cls-1"
               x="270.3459"
               y="114.091"
               width="11.1133"
               height="9.875"/>
      </clipPath>
      <clipPath id="clip-path-13">
         <rect class="cls-1"
               x="33.4997"
               y="147.182"
               width="6.125"
               height="6.125"/>
      </clipPath>
      <clipPath id="clip-path-15">
         <rect class="cls-1"
               x="33.5117"
               y="84.7451"
               width="15.6504"
               height="14.7535"/>
      </clipPath>
      <clipPath id="clip-path-16">
         <rect class="cls-1"
               x="33.5117"
               y="84.7452"
               width="15.6509"
               height="14.7534"/>
      </clipPath>
      <clipPath id="clip-path-18">
         <rect class="cls-1"
               x="292.7866"
               y="147.9438"
               width="4.5709"
               height="4.5819"/>
      </clipPath>
      <clipPath id="clip-path-20">
         <rect class="cls-1"
               x="33.4997"
               y="29.3724"
               width="6.125"
               height="6.125"/>
      </clipPath>
      <clipPath id="clip-path-22">
         <rect class="cls-1"
               x="66.2927"
               y="24.3008"
               width="16.63"
               height="16.2683"/>
      </clipPath>
      <clipPath id="clip-path-24">
         <rect class="cls-1"
               x="66.2927"
               y="83.9877"
               width="16.63"
               height="16.2683"/>
      </clipPath>
      <clipPath id="clip-path-26">
         <rect class="cls-1"
               x="54.7317"
               y="142.1006"
               width="16.63"
               height="16.2683"/>
      </clipPath>
   </defs>
   <g id="Paths">
      <polyline class="cls-2"
                points="81.805 32.435 212.878 32.673 212.878 106.243 295.073 106.243 295.073 150.244"/>
      <path class="cls-3" d="M336.7059,150.2445H70.5366"/>
      <path class="cls-3" d="M54.8442,150.2445H37.4634"/>
      <polyline class="cls-2" points="146.585 150.241 146.585 92.122 81.805 92.122"/>
      <line class="cls-2"
            x1="66.2927"
            y1="92.1224"
            x2="49.1621"
            y2="92.1224"/>
      <line class="cls-2"
            x1="36.5622"
            y1="32.4349"
            x2="67.4146"
            y2="32.4349"/>
   </g>
   <g id="Parts">
      <g id="Rectifier">
         <g class="cls-4">
            <rect class="cls-5"
                  x="84.253"
                  y="133.2265"
                  width="34.0183"
                  height="34.0183"/>
            <g class="cls-4">
               <rect class="cls-6"
                     x="84.253"
                     y="133.2265"
                     width="34.0183"
                     height="34.0183"/>
               <line class="cls-6"
                     x1="118.2686"
                     y1="133.2243"
                     x2="84.2512"
                     y2="167.2426"/>
            </g>
            <line class="cls-6"
                  x1="114.5506"
                  y1="159.8006"
                  x2="104.9877"
                  y2="159.8006"/>
            <line class="cls-6"
                  x1="107.2392"
                  y1="161.9267"
                  x2="104.9883"
                  y2="161.9267"/>
            <line class="cls-6"
                  x1="110.8948"
                  y1="161.9267"
                  x2="108.644"
                  y2="161.9267"/>
            <line class="cls-6"
                  x1="114.5506"
                  y1="161.9267"
                  x2="112.2997"
                  y2="161.9267"/>
            <g class="cls-4">
               <path class="cls-6"
                     d="M88.0052,139.1251a2.1878,2.1878,0,0,1,2.1261-2.0061c1.0413,0,1.871.53,2.1261,2.0061a2.1383,2.1383,0,0,0,2.1262,2.0043,2.298,2.298,0,0,0,2.1261-2.0043"/>
            </g>
         </g>
      </g>
      <g id="Inverter">
         <g class="cls-7">
            <rect class="cls-5"
                  x="172.6554"
                  y="133.2255"
                  width="34.0176"
                  height="34.0166"/>
            <g class="cls-7">
               <rect class="cls-8"
                     x="172.6554"
                     y="133.2255"
                     width="34.0166"
                     height="34.0166"/>
               <line class="cls-8"
                     x1="172.6583"
                     y1="167.2443"
                     x2="206.674"
                     y2="133.2286"/>
            </g>
            <line class="cls-8"
                  x1="175.8445"
                  y1="139.6067"
                  x2="185.4079"
                  y2="139.6067"/>
            <line class="cls-8"
                  x1="178.0961"
                  y1="141.7327"
                  x2="175.8444"
                  y2="141.7327"/>
            <line class="cls-8"
                  x1="181.7516"
                  y1="141.7327"
                  x2="179.5008"
                  y2="141.7327"/>
            <line class="cls-8"
                  x1="185.4076"
                  y1="141.7327"
                  x2="183.1559"
                  y2="141.7327"/>
            <g class="cls-7">
               <path class="cls-8"
                     d="M194.9794,159.92a2.1864,2.1864,0,0,1,2.126-2.0061c1.0413,0,1.87.53,2.126,2.0061a2.1381,2.1381,0,0,0,2.1261,2.0041,2.2987,2.2987,0,0,0,2.126-2.0041"/>
            </g>
         </g>
      </g>
      <g id="Artwork_13" data-name="Artwork 13">
         <g class="cls-9">
            <g class="cls-9">
               <path class="cls-10"
                     d="M336.683,148.2428a2,2,0,1,1-2,2,2.0007,2.0007,0,0,1,2-2"/>
               <circle class="cls-3" cx="336.683" cy="150.2428" r="2"/>
            </g>
         </g>
      </g>
      <g id="Artwork_11" data-name="Artwork 11">
         <g class="cls-11">
            <rect class="cls-5"
                  x="240.0069"
                  y="91.5318"
                  width="29.339"
                  height="29.423"/>
            <g class="cls-11">
               <rect class="cls-3"
                     x="240.0069"
                     y="91.5318"
                     width="29.339"
                     height="29.423"/>
               <line class="cls-2"
                     x1="240.0071"
                     y1="106.2434"
                     x2="269.3461"
                     y2="106.2434"/>
            </g>
            <rect class="cls-5"
                  x="247.3369"
                  y="98.6588"
                  width="15.128"
                  height="15.171"/>
            <rect class="cls-3"
                  x="247.3369"
                  y="98.6588"
                  width="15.128"
                  height="15.171"/>
            <line class="cls-3"
                  x1="252.3049"
                  y1="117.509"
                  x2="252.3049"
                  y2="110.149"/>
            <line class="cls-3"
                  x1="255.2473"
                  y1="117.509"
                  x2="255.2363"
                  y2="115.167"/>
            <path d="M258.5022,111.3647v4.929l-4.909-2.464Zm.75-1.216-7.33,3.681,7.33,3.679Z"/>
            <line class="cls-3"
                  x1="257.9631"
                  y1="95.0315"
                  x2="257.9631"
                  y2="102.3915"/>
            <line class="cls-3"
                  x1="254.6741"
                  y1="94.9807"
                  x2="254.6741"
                  y2="96.9937"/>
            <path d="M251.759,96.1928l4.909,2.464-4.909,2.465Zm-.75-1.216v7.36l7.33-3.68Z"/>
            <g class="cls-11">
               <path class="cls-12"
                     d="M247.3371,105.2424a1,1,0,1,1-.997,1,.9984.9984,0,0,1,.997-1"/>
               <circle class="cls-3" cx="247.3371" cy="106.2424" r="0.997"/>
               <path class="cls-12"
                     d="M262.4651,105.2434a1,1,0,1,1-.997,1,.9984.9984,0,0,1,.997-1"/>
               <circle class="cls-3" cx="262.4651" cy="106.2434" r="0.997"/>
               <g class="cls-13">
                  <g class="cls-14">
                     <text class="cls-15" transform="translate(270.3454 120.9543)">EN</text>
                  </g>
               </g>
            </g>
         </g>
      </g>
      <g id="Artwork_13-2" data-name="Artwork 13">
         <g class="cls-16">
            <g class="cls-16">
               <path class="cls-10"
                     d="M36.5621,148.2449a2,2,0,1,1-2,2,2.0007,2.0007,0,0,1,2-2"/>
               <circle class="cls-3" cx="36.5621" cy="150.2449" r="2"/>
            </g>
         </g>
      </g>
      <g id="Artwork_8" data-name="Artwork 8">
         <g class="cls-17">
            <g class="cls-18">
               <line class="cls-19"
                     x1="36.1481"
                     y1="99.5065"
                     x2="36.1481"
                     y2="84.7531"/>
               <line class="cls-20"
                     x1="34.13"
                     y1="96.3722"
                     x2="34.13"
                     y2="87.8876"/>
            </g>
            <line class="cls-21"
                  x1="35.9143"
                  y1="92.1217"
                  x2="46.8952"
                  y2="92.1217"/>
            <g class="cls-18">
               <line class="cls-19"
                     x1="48.9132"
                     y1="99.4986"
                     x2="48.9132"
                     y2="84.7452"/>
            </g>
            <line class="cls-20"
                  x1="46.8951"
                  y1="96.3639"
                  x2="46.8951"
                  y2="87.8793"/>
         </g>
      </g>
      <g id="shape116-109">
         <g class="cls-22">
            <g class="cls-22">
               <path class="cls-12"
                     d="M295.0717,149.2314a1.003,1.003,0,1,1-1,1.003,1.001,1.001,0,0,1,1-1.003"/>
               <circle class="cls-23" cx="295.0717" cy="150.2344" r="1"/>
            </g>
         </g>
      </g>
      <g id="Artwork_13-3" data-name="Artwork 13">
         <g class="cls-24">
            <g class="cls-24">
               <path class="cls-10"
                     d="M36.5621,30.4353a2,2,0,1,1-2,2,2.0007,2.0007,0,0,1,2-2"/>
               <circle class="cls-3" cx="36.5621" cy="32.4353" r="2"/>
            </g>
         </g>
      </g>
      <g id="Artwork_20" data-name="Artwork 20">
         <g class="cls-25">
            <rect class="cls-5"
                  x="67.3107"
                  y="29.9341"
                  width="14.612"
                  height="5.032"/>
            <g class="cls-25">
               <line class="cls-3"
                     x1="67.2928"
                     y1="39.2123"
                     x2="81.9228"
                     y2="32.4463"/>
               <path d="M81.9227,33.4506h0a1,1,0,1,1,1-1,1.0029,1.0029,0,0,1-1,1"/>
               <path d="M67.2928,33.4506h0a1,1,0,1,1,1-1,1.0029,1.0029,0,0,1-1,1"/>
            </g>
         </g>
      </g>
      <g id="Artwork_20-2" data-name="Artwork 20">
         <g class="cls-26">
            <rect class="cls-5"
                  x="67.3107"
                  y="89.621"
                  width="14.612"
                  height="5.032"/>
            <g class="cls-26">
               <line class="cls-3"
                     x1="67.2928"
                     y1="98.8992"
                     x2="81.9228"
                     y2="92.1332"/>
               <path d="M81.9227,93.1375h0a1,1,0,1,1,1-1,1.0029,1.0029,0,0,1-1,1"/>
               <path d="M67.2928,93.1375h0a1,1,0,1,1,1-1,1.0029,1.0029,0,0,1-1,1"/>
            </g>
         </g>
      </g>
      <g id="Artwork_20-3" data-name="Artwork 20">
         <g class="cls-27">
            <rect class="cls-5"
                  x="55.7497"
                  y="147.7339"
                  width="14.612"
                  height="5.032"/>
            <g class="cls-27">
               <line class="cls-3"
                     x1="55.7318"
                     y1="157.0121"
                     x2="70.3618"
                     y2="150.2461"/>
               <path d="M70.3617,151.25h0a1,1,0,1,1,1-1,1.0029,1.0029,0,0,1-1,1"/>
               <path d="M55.7318,151.25h0a1,1,0,1,1,1-1,1.0029,1.0029,0,0,1-1,1"/>
            </g>
         </g>
      </g>
   </g>
   <g id="Text">
      <text class="cls-28" transform="translate(16.001 13.2645)">BYPASS<tspan x="4.4507" y="12">MAINS</tspan>
      </text>
      <text class="cls-28" transform="translate(237.0739 74.2839)">STATIC<tspan x="-1.665" y="12">SWITCH</tspan>
      </text>
      <text class="cls-28" transform="translate(20.0478 80.1217)">BATTERY</text>
      <text class="cls-28" transform="translate(74.4694 128.235)">RECTIFIER</text>
      <text class="cls-28" transform="translate(164.3837 128.235)">INVERTER</text>
      <text class="cls-28" transform="translate(316.1287 144.1801)">OUTPUT</text>
      <g>
         <path class="cls-29"
               d="M10.9056,131.5684V124.41h3.042a5.2279,5.2279,0,0,1,1.6674.1924,1.6466,1.6466,0,0,1,.8326.6865,2.0587,2.0587,0,0,1,.3125,1.128,1.9083,1.9083,0,0,1-.4737,1.33,2.2748,2.2748,0,0,1-1.416.6621,3.3424,3.3424,0,0,1,.7739.6006,8.1416,8.1416,0,0,1,.8228,1.1621l.874,1.3965H15.6126l-1.0449-1.5576a10.1941,10.1941,0,0,0-.7618-1.0527,1.113,1.113,0,0,0-.4345-.2979,2.3854,2.3854,0,0,0-.7276-.08h-.2929v2.9883Zm1.4453-4.1308H13.42a5.52,5.52,0,0,0,1.2988-.0879.7822.7822,0,0,0,.4053-.3028.9322.9322,0,0,0,.1465-.5371.8607.8607,0,0,0-.1929-.584.8872.8872,0,0,0-.5444-.28q-.1758-.0249-1.0547-.0244H12.3509Z"/>
         <path class="cls-29"
               d="M18.1224,131.5684V124.41H23.43v1.211H19.5677v1.5869h3.5937v1.206H19.5677v1.9483h3.999v1.206Z"/>
         <path class="cls-29"
               d="M29.3724,128.9366l1.4013.4443a3.1408,3.1408,0,0,1-1.0718,1.74,3.3708,3.3708,0,0,1-4.2456-.4053,3.7274,3.7274,0,0,1-.9179-2.6631,3.9146,3.9146,0,0,1,.9228-2.7764,3.1646,3.1646,0,0,1,2.4268-.9883,2.9776,2.9776,0,0,1,2.1338.7764,2.8173,2.8173,0,0,1,.7324,1.3184l-1.4307.3418a1.4789,1.4789,0,0,0-1.5088-1.2012,1.6287,1.6287,0,0,0-1.2915.5713,2.7987,2.7987,0,0,0-.4956,1.8506,3.004,3.004,0,0,0,.4883,1.9336,1.5864,1.5864,0,0,0,1.27.5761,1.4477,1.4477,0,0,0,.9913-.3662A2.13,2.13,0,0,0,29.3724,128.9366Z"/>
         <path class="cls-29"
               d="M33.6253,131.5684v-5.9472h-2.124V124.41H37.19v1.211H35.0706v5.9472Z"/>
         <path class="cls-29" d="M38.0784,131.5684V124.41h1.4453v7.1582Z"/>
         <path class="cls-29"
               d="M40.91,131.5684V124.41h4.9073v1.211H42.3558v1.6943H45.344v1.2109H42.3558v3.042Z"/>
         <path class="cls-29" d="M46.9651,131.5684V124.41H48.41v7.1582Z"/>
         <path class="cls-29"
               d="M49.7874,131.5684V124.41H55.095v1.211H51.2327v1.5869h3.5938v1.206H51.2327v1.9483h3.999v1.206Z"/>
         <path class="cls-29"
               d="M56.4622,131.5684V124.41h3.042a5.2291,5.2291,0,0,1,1.6675.1924,1.6464,1.6464,0,0,1,.8325.6865,2.0578,2.0578,0,0,1,.3125,1.128,1.9082,1.9082,0,0,1-.4736,1.33,2.2751,2.2751,0,0,1-1.4161.6621,3.3431,3.3431,0,0,1,.774.6006,8.143,8.143,0,0,1,.8227,1.1621l.874,1.3965H61.1692l-1.0449-1.5576a10.2149,10.2149,0,0,0-.7617-1.0527,1.1125,1.1125,0,0,0-.4346-.2979,2.3847,2.3847,0,0,0-.7275-.08h-.293v2.9883Zm1.4453-4.1308h1.0693a5.5212,5.5212,0,0,0,1.2989-.0879.7824.7824,0,0,0,.4052-.3028.9322.9322,0,0,0,.1465-.5371.8607.8607,0,0,0-.1928-.584.8877.8877,0,0,0-.5445-.28q-.1758-.0249-1.0547-.0244H57.9075Z"/>
         <path class="cls-29"
               d="M21.16,143.5684V136.41h2.1631l1.2988,4.8828,1.2842-4.8828h2.1679v7.1582H26.7308v-5.6347L25.31,143.5684H23.9183l-1.4161-5.6347v5.6347Z"/>
         <path class="cls-29"
               d="M35.9642,143.5684H34.3919l-.625-1.626H30.9056l-.5909,1.626H28.7815L31.57,136.41h1.5283Zm-2.6612-2.832-.9863-2.6563-.9668,2.6563Z"/>
         <path class="cls-29" d="M36.6868,143.5684V136.41h1.4453v7.1582Z"/>
         <path class="cls-29"
               d="M39.5237,143.5684V136.41H40.93l2.93,4.78v-4.78h1.3427v7.1582h-1.45l-2.8857-4.6679v4.6679Z"/>
         <path class="cls-29"
               d="M46.3645,141.2393l1.4063-.1367a1.7162,1.7162,0,0,0,.5151,1.04,1.561,1.561,0,0,0,1.0474.3321,1.6081,1.6081,0,0,0,1.0522-.2959.8775.8775,0,0,0,.354-.69.6534.6534,0,0,0-.1489-.4326,1.1936,1.1936,0,0,0-.52-.31q-.2541-.0879-1.1572-.3125a3.9379,3.9379,0,0,1-1.6309-.7081,1.8636,1.8636,0,0,1-.6592-1.44,1.841,1.841,0,0,1,.31-1.0234,1.9384,1.9384,0,0,1,.8935-.7246,3.5817,3.5817,0,0,1,1.4087-.2491,3.0177,3.0177,0,0,1,2.0288.5909,2.0844,2.0844,0,0,1,.7154,1.5771l-1.4453.0635a1.2281,1.2281,0,0,0-.398-.794,1.4579,1.4579,0,0,0-.9155-.2412,1.65,1.65,0,0,0-.9863.2588.5214.5214,0,0,0-.2295.4444.5515.5515,0,0,0,.2148.4345,3.81,3.81,0,0,0,1.3281.4785,7.0477,7.0477,0,0,1,1.56.5147,2.0126,2.0126,0,0,1,.791.7275,2.2541,2.2541,0,0,1-.0561,2.293,2.0519,2.0519,0,0,1-.9668.7979,4.0419,4.0419,0,0,1-1.5577.2617,3.0972,3.0972,0,0,1-2.0849-.628A2.7272,2.7272,0,0,1,46.3645,141.2393Z"/>
      </g>
   </g>
</svg>
