<?xml version="1.0" encoding="UTF-8"?>
<svg xmlns="http://www.w3.org/2000/svg"
     xmlns:xlink="http://www.w3.org/1999/xlink"
     width="146.4821mm"
     height="60.7122mm"
     viewBox="0 0 415.2249 172.0976">
   <defs>
      <style>
      .cls-1, .cls-20, .cls-21, .cls-22, .cls-3, .cls-31, .cls-32, .cls-33, .cls-34, .cls-4, .cls-7, .cls-9 {
        fill: none;
      }

      .cls-2 {
        fill: #c6c6c6;
      }

      .cls-20, .cls-21, .cls-22, .cls-3, .cls-33, .cls-34, .cls-4, .cls-7, .cls-9 {
        stroke: #000;
      }

      .cls-3 {
        stroke-miterlimit: 10;
      }

      .cls-3, .cls-4 {
        stroke-width: 0.75px;
      }

      .cls-20, .cls-21, .cls-22, .cls-31, .cls-32, .cls-33, .cls-34, .cls-4, .cls-7, .cls-9 {
        stroke-miterlimit: 3;
      }

      .cls-5 {
        clip-path: url(#clip-path);
      }

      .cls-11, .cls-6 {
        fill: #fff;
      }

      .cls-7 {
        stroke-width: 0.7087px;
      }

      .cls-8 {
        clip-path: url(#clip-path-4);
      }

      .cls-9 {
        stroke-width: 0.7087px;
      }

      .cls-10 {
        clip-path: url(#clip-path-7);
      }

      .cls-11, .cls-13 {
        fill-rule: evenodd;
      }

      .cls-12 {
        clip-path: url(#clip-path-9);
      }

      .cls-14 {
        isolation: isolate;
      }

      .cls-15 {
        clip-path: url(#clip-path-12);
      }

      .cls-16 {
        font-size: 8px;
      }

      .cls-16, .cls-37, .cls-41 {
        fill: #01889C;
        font-family: Arial-BoldMT, Arial;
        font-weight: 700;
      }

      .cls-17 {
        clip-path: url(#clip-path-13);
      }

      .cls-18 {
        clip-path: url(#clip-path-15);
      }

      .cls-19 {
        clip-path: url(#clip-path-16);
      }

      .cls-20, .cls-22 {
        stroke-width: 0.7513px;
      }

      .cls-21 {
        stroke-width: 1.2522px;
      }

      .cls-22 {
        stroke-dasharray: 2.0034 1.0017;
      }

      .cls-23 {
        clip-path: url(#clip-path-18);
      }

      .cls-24 {
        clip-path: url(#clip-path-20);
      }

      .cls-25 {
        clip-path: url(#clip-path-22);
      }

      .cls-26 {
        clip-path: url(#clip-path-25);
      }

      .cls-27 {
        clip-path: url(#clip-path-26);
      }

      .cls-28 {
        clip-path: url(#clip-path-27);
      }

      .cls-29 {
        clip-path: url(#clip-path-29);
      }

      .cls-30 {
        clip-path: url(#clip-path-31);
      }

      .cls-31, .cls-32 {
        stroke: #626469;
      }

      .cls-31, .cls-32, .cls-33 {
        stroke-width: 0.5px;
      }

      .cls-31 {
        stroke-dasharray: 2 1;
      }

      .cls-34 {
        stroke-width: 2px;
      }

      .cls-35 {
        fill: #626469;
      }

      .cls-36 {
        clip-path: url(#clip-path-33);
      }

      .cls-37 {
        font-size: 6px;
      }

      .cls-38 {
        clip-path: url(#clip-path-34);
      }

      .cls-39 {
        clip-path: url(#clip-path-35);
      }

      .cls-40 {
        clip-path: url(#clip-path-36);
      }

      .cls-41 {
        font-size: 10px;
      }
    </style>
      <clipPath id="clip-path">
         <rect class="cls-1"
               x="87.9488"
               y="128.0584"
               width="35.4357"
               height="39.688"/>
      </clipPath>
      <clipPath id="clip-path-4">
         <rect class="cls-1"
               x="176.353"
               y="128.0594"
               width="35.434"
               height="39.6861"/>
      </clipPath>
      <clipPath id="clip-path-7">
         <rect class="cls-1"
               x="385.4147"
               y="136.4786"
               width="6.125"
               height="6.125"/>
      </clipPath>
      <clipPath id="clip-path-9">
         <rect class="cls-1"
               x="243.0413"
               y="87.9105"
               width="46.8331"
               height="32"/>
      </clipPath>
      <clipPath id="clip-path-12">
         <rect class="cls-1"
               x="274.7513"
               y="111.7587"
               width="11.1133"
               height="9.875"/>
      </clipPath>
      <clipPath id="clip-path-13">
         <rect class="cls-1"
               x="37.9051"
               y="144.8497"
               width="6.125"
               height="6.125"/>
      </clipPath>
      <clipPath id="clip-path-15">
         <rect class="cls-1"
               x="37.9171"
               y="82.4128"
               width="15.6504"
               height="14.7535"/>
      </clipPath>
      <clipPath id="clip-path-16">
         <rect class="cls-1"
               x="37.9171"
               y="82.4129"
               width="15.6509"
               height="14.7534"/>
      </clipPath>
      <clipPath id="clip-path-18">
         <rect class="cls-1"
               x="37.9051"
               y="27.0401"
               width="6.125"
               height="6.125"/>
      </clipPath>
      <clipPath id="clip-path-20">
         <rect class="cls-1"
               x="243.0413"
               y="131.9024"
               width="46.8331"
               height="32"/>
      </clipPath>
      <clipPath id="clip-path-22">
         <rect class="cls-1"
               x="274.7513"
               y="155.7506"
               width="11.1133"
               height="9.875"/>
      </clipPath>
      <clipPath id="clip-path-25">
         <rect class="cls-1"
               x="70.591"
               y="21.9685"
               width="16.63"
               height="16.2683"/>
      </clipPath>
      <clipPath id="clip-path-26">
         <rect class="cls-1"
               x="70.591"
               y="21.9688"
               width="16.63"
               height="16.268"/>
      </clipPath>
      <clipPath id="clip-path-27">
         <rect class="cls-1"
               x="70.591"
               y="81.6559"
               width="16.63"
               height="16.2683"/>
      </clipPath>
      <clipPath id="clip-path-29">
         <rect class="cls-1"
               x="59.1371"
               y="139.778"
               width="16.63"
               height="16.2683"/>
      </clipPath>
      <clipPath id="clip-path-31">
         <rect class="cls-1"
               x="296.9523"
               y="39.1353"
               width="76.0872"
               height="111.302"/>
      </clipPath>
      <clipPath id="clip-path-33">
         <rect class="cls-1"
               x="310.1222"
               y="39.5403"
               width="24.6738"
               height="7.406"/>
      </clipPath>
      <clipPath id="clip-path-34">
         <rect class="cls-1"
               x="319.462"
               y="45.5403"
               width="15.334"
               height="7.4061"/>
      </clipPath>
      <clipPath id="clip-path-35">
         <rect class="cls-1"
               x="317.7979"
               y="51.5396"
               width="16.9981"
               height="7.4063"/>
      </clipPath>
      <clipPath id="clip-path-36">
         <rect class="cls-1"
               x="297.192"
               y="145.6115"
               width="4.5709"
               height="4.5819"/>
      </clipPath>
   </defs>
   <g id="Paths">
      <g>
         <polygon class="cls-2"
                  points="41.855 92.058 38.488 92.058 42.11 87.522 45.477 87.522 41.855 92.058"/>
         <polygon class="cls-2"
                  points="49.061 92.058 45.693 92.058 49.315 87.522 52.683 87.522 49.061 92.058"/>
         <polygon class="cls-2"
                  points="56.267 92.058 52.899 92.058 56.521 87.522 59.889 87.522 56.267 92.058"/>
         <polygon class="cls-2"
                  points="63.472 92.058 60.105 92.058 63.727 87.522 67.094 87.522 63.472 92.058"/>
         <polygon class="cls-2"
                  points="70.678 92.058 67.31 92.058 70.932 87.522 74.3 87.522 70.678 92.058"/>
      </g>
      <g>
         <polygon class="cls-2"
                  points="41.855 32.371 38.488 32.371 42.11 27.834 45.477 27.834 41.855 32.371"/>
         <polygon class="cls-2"
                  points="49.061 32.371 45.693 32.371 49.315 27.834 52.683 27.834 49.061 32.371"/>
         <polygon class="cls-2"
                  points="56.267 32.371 52.899 32.371 56.521 27.834 59.889 27.834 56.267 32.371"/>
         <polygon class="cls-2"
                  points="63.472 32.371 60.105 32.371 63.727 27.834 67.094 27.834 63.472 32.371"/>
         <polygon class="cls-2"
                  points="70.678 32.371 67.31 32.371 70.932 27.834 74.3 27.834 70.678 32.371"/>
      </g>
      <g>
         <polygon class="cls-2"
                  points="42.791 150.171 39.424 150.171 43.045 145.634 46.413 145.634 42.791 150.171"/>
         <polygon class="cls-2"
                  points="50.932 150.171 47.565 150.171 51.187 145.634 54.554 145.634 50.932 150.171"/>
         <polygon class="cls-2"
                  points="59.073 150.171 55.706 150.171 59.328 145.634 62.695 145.634 59.073 150.171"/>
      </g>
   </g>
   <g id="Diagrams">
      <polyline class="cls-3"
                points="299.479 147.886 299.479 103.884 217.283 103.884 217.283 56.908 310.988 56.908 310.988 71.517"/>
      <polyline class="cls-3" points="86.21 30.077 358.571 30.314 358.571 71.517"/>
      <path class="cls-4" d="M321.9664,147.8862H75.7671"/>
      <path class="cls-4" d="M59.25,147.8862H41.8688"/>
      <polyline class="cls-3" points="150.991 147.882 150.991 89.764 86.21 89.764"/>
      <line class="cls-4"
            x1="359.3322"
            y1="139.5911"
            x2="388.4772"
            y2="139.5911"/>
      <line class="cls-3"
            x1="70.6981"
            y1="89.7641"
            x2="53.5675"
            y2="89.7641"/>
      <line class="cls-3"
            x1="40.9676"
            y1="30.0766"
            x2="71.82"
            y2="30.0766"/>
   </g>
   <g id="Symbols">
      <g id="Rectifier">
         <g class="cls-5">
            <rect class="cls-6"
                  x="88.6584"
                  y="130.8942"
                  width="34.0183"
                  height="34.0183"/>
            <g class="cls-5">
               <rect class="cls-7"
                     x="88.6584"
                     y="130.8942"
                     width="34.0183"
                     height="34.0183"/>
               <line class="cls-7"
                     x1="122.674"
                     y1="130.892"
                     x2="88.6566"
                     y2="164.9103"/>
            </g>
            <line class="cls-7"
                  x1="118.956"
                  y1="157.4683"
                  x2="109.3931"
                  y2="157.4683"/>
            <line class="cls-7"
                  x1="111.6446"
                  y1="159.5944"
                  x2="109.3937"
                  y2="159.5944"/>
            <line class="cls-7"
                  x1="115.3002"
                  y1="159.5944"
                  x2="113.0494"
                  y2="159.5944"/>
            <line class="cls-7"
                  x1="118.956"
                  y1="159.5944"
                  x2="116.7051"
                  y2="159.5944"/>
            <g class="cls-5">
               <path class="cls-7"
                     d="M92.4106,136.7928a2.1878,2.1878,0,0,1,2.1261-2.0061c1.0413,0,1.871.53,2.1261,2.0061a2.1383,2.1383,0,0,0,2.1262,2.0043,2.298,2.298,0,0,0,2.1261-2.0043"/>
            </g>
         </g>
      </g>
      <g id="Inverter">
         <g class="cls-8">
            <rect class="cls-6"
                  x="177.0608"
                  y="130.8932"
                  width="34.0176"
                  height="34.0166"/>
            <g class="cls-8">
               <rect class="cls-9"
                     x="177.0608"
                     y="130.8932"
                     width="34.0166"
                     height="34.0166"/>
               <line class="cls-9"
                     x1="177.0637"
                     y1="164.912"
                     x2="211.0794"
                     y2="130.8963"/>
            </g>
            <line class="cls-9"
                  x1="180.2499"
                  y1="137.2744"
                  x2="189.8133"
                  y2="137.2744"/>
            <line class="cls-9"
                  x1="182.5015"
                  y1="139.4005"
                  x2="180.2498"
                  y2="139.4005"/>
            <line class="cls-9"
                  x1="186.157"
                  y1="139.4005"
                  x2="183.9062"
                  y2="139.4005"/>
            <line class="cls-9"
                  x1="189.813"
                  y1="139.4005"
                  x2="187.5613"
                  y2="139.4005"/>
            <g class="cls-8">
               <path class="cls-9"
                     d="M199.3847,157.5872a2.1865,2.1865,0,0,1,2.1261-2.0061c1.0413,0,1.87.53,2.126,2.0061a2.1381,2.1381,0,0,0,2.1261,2.0041,2.2987,2.2987,0,0,0,2.126-2.0041"/>
            </g>
         </g>
      </g>
      <g id="Artwork_13" data-name="Artwork 13">
         <g class="cls-10">
            <g class="cls-10">
               <path class="cls-11"
                     d="M388.4771,137.5415a2,2,0,1,1-2,2,2.0007,2.0007,0,0,1,2-2"/>
               <circle class="cls-4" cx="388.4771" cy="139.5415" r="2"/>
            </g>
         </g>
      </g>
      <g id="Artwork_11" data-name="Artwork 11">
         <g class="cls-12">
            <rect class="cls-6"
                  x="244.4123"
                  y="89.1995"
                  width="29.339"
                  height="29.423"/>
            <g class="cls-12">
               <rect class="cls-4"
                     x="244.4123"
                     y="89.1995"
                     width="29.339"
                     height="29.423"/>
               <line class="cls-3"
                     x1="244.4125"
                     y1="103.9111"
                     x2="273.7515"
                     y2="103.9111"/>
            </g>
            <rect class="cls-6"
                  x="251.7423"
                  y="96.3265"
                  width="15.128"
                  height="15.171"/>
            <rect class="cls-4"
                  x="251.7423"
                  y="96.3265"
                  width="15.128"
                  height="15.171"/>
            <line class="cls-4"
                  x1="256.7103"
                  y1="115.1767"
                  x2="256.7103"
                  y2="107.8167"/>
            <line class="cls-4"
                  x1="259.6527"
                  y1="115.1767"
                  x2="259.6417"
                  y2="112.8347"/>
            <path d="M262.9076,109.0324v4.929l-4.909-2.464Zm.75-1.216-7.33,3.681,7.33,3.679Z"/>
            <line class="cls-4"
                  x1="262.3685"
                  y1="92.6992"
                  x2="262.3685"
                  y2="100.0592"/>
            <line class="cls-4"
                  x1="259.0795"
                  y1="92.6484"
                  x2="259.0795"
                  y2="94.6614"/>
            <path d="M256.1644,93.8605l4.909,2.464-4.909,2.465Zm-.75-1.216v7.36l7.33-3.68Z"/>
            <g class="cls-12">
               <path class="cls-13"
                     d="M251.7425,102.91a1,1,0,1,1-.997,1,.9984.9984,0,0,1,.997-1"/>
               <circle class="cls-4" cx="251.7425" cy="103.9101" r="0.997"/>
               <path class="cls-13"
                     d="M266.8705,102.9111a1,1,0,1,1-.997,1,.9984.9984,0,0,1,.997-1"/>
               <circle class="cls-4" cx="266.8705" cy="103.9111" r="0.997"/>
               <g class="cls-14">
                  <g class="cls-15">
                     <text class="cls-16" transform="translate(274.7508 118.622)">EN</text>
                  </g>
               </g>
            </g>
         </g>
      </g>
      <g id="Artwork_13-2" data-name="Artwork 13">
         <g class="cls-17">
            <g class="cls-17">
               <path class="cls-11"
                     d="M40.9675,145.9126a2,2,0,1,1-2,2,2.0007,2.0007,0,0,1,2-2"/>
               <circle class="cls-4" cx="40.9675" cy="147.9126" r="2"/>
            </g>
         </g>
      </g>
      <g id="Artwork_8" data-name="Artwork 8">
         <g class="cls-18">
            <g class="cls-19">
               <line class="cls-20"
                     x1="40.5535"
                     y1="97.1742"
                     x2="40.5535"
                     y2="82.4208"/>
               <line class="cls-21"
                     x1="38.5354"
                     y1="94.0399"
                     x2="38.5354"
                     y2="85.5553"/>
            </g>
            <line class="cls-22"
                  x1="40.3197"
                  y1="89.7894"
                  x2="51.3006"
                  y2="89.7894"/>
            <g class="cls-19">
               <line class="cls-20"
                     x1="53.3186"
                     y1="97.1663"
                     x2="53.3186"
                     y2="82.4129"/>
            </g>
            <line class="cls-21"
                  x1="51.3005"
                  y1="94.0316"
                  x2="51.3005"
                  y2="85.547"/>
         </g>
      </g>
      <g id="Artwork_13-3" data-name="Artwork 13">
         <g class="cls-23">
            <g class="cls-23">
               <path class="cls-11"
                     d="M40.9675,28.103a2,2,0,1,1-2,2,2.0007,2.0007,0,0,1,2-2"/>
               <circle class="cls-4" cx="40.9675" cy="30.103" r="2"/>
            </g>
         </g>
      </g>
      <g id="Artwork_12" data-name="Artwork 12">
         <g class="cls-24">
            <g class="cls-24">
               <g class="cls-14">
                  <g class="cls-25">
                     <text class="cls-16" transform="translate(274.7508 162.6129)">EA</text>
                  </g>
               </g>
            </g>
            <rect class="cls-6"
                  x="244.4123"
                  y="133.1904"
                  width="29.339"
                  height="29.423"/>
            <g class="cls-24">
               <rect class="cls-4"
                     x="244.4123"
                     y="133.1904"
                     width="29.339"
                     height="29.423"/>
               <line class="cls-3"
                     x1="244.4125"
                     y1="147.9029"
                     x2="273.7515"
                     y2="147.9029"/>
            </g>
            <rect class="cls-6"
                  x="251.7423"
                  y="140.3184"
                  width="15.128"
                  height="15.171"/>
            <rect class="cls-4"
                  x="251.7423"
                  y="140.3184"
                  width="15.128"
                  height="15.171"/>
            <line class="cls-4"
                  x1="256.7103"
                  y1="159.1685"
                  x2="256.7103"
                  y2="151.8085"/>
            <line class="cls-4"
                  x1="259.6527"
                  y1="159.1685"
                  x2="259.6417"
                  y2="156.8265"/>
            <path d="M262.9076,153.0242v4.929l-4.909-2.464Zm.75-1.216-7.33,3.681,7.33,3.679Z"/>
            <line class="cls-4"
                  x1="262.3685"
                  y1="136.691"
                  x2="262.3685"
                  y2="144.051"/>
            <line class="cls-4"
                  x1="259.0795"
                  y1="136.6397"
                  x2="259.0795"
                  y2="138.6527"/>
            <path d="M256.1644,137.8523l4.909,2.464-4.909,2.465Zm-.75-1.216v7.36l7.33-3.68Z"/>
            <g class="cls-24">
               <path class="cls-13"
                     d="M251.7425,146.9029a1,1,0,1,1-.997,1,.9978.9978,0,0,1,.997-1"/>
               <circle class="cls-4" cx="251.7425" cy="147.9029" r="0.997"/>
               <path class="cls-13"
                     d="M266.8705,146.9029a1,1,0,1,1-.997,1,.9984.9984,0,0,1,.997-1"/>
               <circle class="cls-4" cx="266.8705" cy="147.9029" r="0.997"/>
            </g>
         </g>
      </g>
      <g id="Artwork_20_no_white" data-name="Artwork 20 no white">
         <g class="cls-26">
            <g class="cls-27">
               <line class="cls-4"
                     x1="71.5911"
                     y1="36.88"
                     x2="86.2211"
                     y2="30.114"/>
               <path d="M86.221,31.1183h0a1,1,0,1,1,1-1,1.0029,1.0029,0,0,1-1,1"/>
               <path d="M71.5911,31.1183h0a1,1,0,1,1,1-1,1.0029,1.0029,0,0,1-1,1"/>
            </g>
         </g>
      </g>
      <g id="Artwork_20_no_white-2" data-name="Artwork 20 no white">
         <g class="cls-28">
            <g class="cls-28">
               <line class="cls-4"
                     x1="71.5911"
                     y1="96.5674"
                     x2="86.2211"
                     y2="89.8014"/>
               <path d="M86.221,90.8057h0a1,1,0,1,1,1-1,1.0029,1.0029,0,0,1-1,1"/>
               <path d="M71.5911,90.8057h0a1,1,0,1,1,1-1,1.0029,1.0029,0,0,1-1,1"/>
            </g>
         </g>
      </g>
      <g id="Artwork_20_no_white-3" data-name="Artwork 20 no white">
         <g class="cls-29">
            <g class="cls-29">
               <line class="cls-4"
                     x1="60.1372"
                     y1="154.6895"
                     x2="74.7672"
                     y2="147.9235"/>
               <path d="M74.7671,148.9278h0a1,1,0,1,1,1-1,1.0029,1.0029,0,0,1-1,1"/>
               <path d="M60.1372,148.9278h0a1,1,0,1,1,1-1,1.0029,1.0029,0,0,1-1,1"/>
            </g>
         </g>
      </g>
      <g id="Auto">
         <g class="cls-30">
            <line class="cls-31"
                  x1="342.1153"
                  y1="143.3507"
                  x2="342.1153"
                  y2="44.8227"/>
            <line class="cls-4"
                  x1="311.0499"
                  y1="103.6871"
                  x2="327.6989"
                  y2="103.6871"/>
            <polyline class="cls-4"
                      points="327.699 79.687 311.05 79.687 311.05 71.687 327.699 71.687"/>
            <line class="cls-2"
                  x1="335.089"
                  y1="55.1021"
                  x2="348.65"
                  y2="48.2491"/>
            <line class="cls-32"
                  x1="335.089"
                  y1="55.1021"
                  x2="348.65"
                  y2="48.2491"/>
            <polyline class="cls-4"
                      points="334.601 119.687 348.503 111.687 358.625 111.687 358.625 139.663 348.503 139.663 334.601 147.687"/>
            <polyline class="cls-4"
                      points="334.601 79.687 348.503 71.687 358.625 71.687 358.625 91.687 311.05 91.687 311.05 111.687 327.699 111.687"/>
            <g class="cls-30">
               <path class="cls-13" d="M311.05,70.6871a1,1,0,1,1-1,1,1,1,0,0,1,1-1"/>
               <circle class="cls-33" cx="311.0499" cy="71.6871" r="1"/>
               <path class="cls-13" d="M358.6256,70.6871a1,1,0,1,1-1,1,1,1,0,0,1,1-1"/>
               <circle class="cls-33" cx="358.6256" cy="71.6871" r="1"/>
               <path class="cls-13" d="M311.05,102.6871a1,1,0,1,1-1,1,1,1,0,0,1,1-1"/>
               <circle class="cls-33" cx="311.0499" cy="103.6871" r="1"/>
               <path class="cls-13" d="M358.6222,138.6876a1,1,0,1,1-1,1,1,1,0,0,1,1-1"/>
               <circle class="cls-33" cx="358.6222" cy="139.6876" r="1"/>
               <line class="cls-34"
                     x1="320.6012"
                     y1="139.6876"
                     x2="334.7962"
                     y2="139.6876"/>
               <line class="cls-34"
                     x1="320.6012"
                     y1="131.6876"
                     x2="334.7962"
                     y2="131.6876"/>
               <line class="cls-34"
                     x1="320.6012"
                     y1="147.6876"
                     x2="334.7962"
                     y2="147.6876"/>
               <line class="cls-34"
                     x1="320.6012"
                     y1="111.6871"
                     x2="334.7962"
                     y2="111.6871"/>
               <line class="cls-34"
                     x1="320.6012"
                     y1="103.6871"
                     x2="334.7962"
                     y2="103.6871"/>
               <line class="cls-34"
                     x1="320.6012"
                     y1="119.6871"
                     x2="334.7962"
                     y2="119.6871"/>
               <line class="cls-34"
                     x1="320.6012"
                     y1="71.6871"
                     x2="334.7962"
                     y2="71.6871"/>
               <line class="cls-34"
                     x1="320.6012"
                     y1="63.6871"
                     x2="334.7962"
                     y2="63.6871"/>
               <line class="cls-34"
                     x1="320.6012"
                     y1="79.6871"
                     x2="334.7962"
                     y2="79.6871"/>
               <line class="cls-31"
                     x1="335.089"
                     y1="48.2496"
                     x2="348.65"
                     y2="48.2496"/>
               <line class="cls-35"
                     x1="335.089"
                     y1="41.3966"
                     x2="348.65"
                     y2="48.2496"/>
               <line class="cls-31"
                     x1="335.089"
                     y1="41.3966"
                     x2="348.65"
                     y2="48.2496"/>
               <g class="cls-14">
                  <g class="cls-36">
                     <text class="cls-37" transform="translate(310.1222 44.6874)">BYPASS</text>
                  </g>
               </g>
               <g class="cls-14">
                  <g class="cls-38">
                     <text class="cls-37" transform="translate(319.4621 50.6874)">TEST</text>
                  </g>
               </g>
               <g class="cls-14">
                  <g class="cls-39">
                     <text class="cls-37" transform="translate(317.798 56.6874)">AUTO</text>
                  </g>
               </g>
            </g>
         </g>
      </g>
      <g id="shape116-109">
         <g class="cls-40">
            <g class="cls-40">
               <path class="cls-13"
                     d="M299.4771,146.8991a1.003,1.003,0,1,1-1,1.003,1.001,1.001,0,0,1,1-1.003"/>
               <circle class="cls-33" cx="299.4771" cy="147.9021" r="1"/>
            </g>
         </g>
      </g>
   </g>
   <g id="Text">
      <text class="cls-41" transform="translate(20.4065 10.9322)">BYPASS<tspan x="4.4507" y="12">MAINS</tspan>
      </text>
      <text class="cls-41" transform="translate(289.3548 10.9322)">MANUAL BYPASS<tspan x="23.894" y="12">SWITCH</tspan>
      </text>
      <text class="cls-41" transform="translate(241.4795 71.9517)">STATIC<tspan x="-8.335" y="12">SWITCHES</tspan>
      </text>
      <text class="cls-41" transform="translate(24.4533 77.7895)">BATTERY</text>
      <text class="cls-41" transform="translate(78.8751 125.9027)">RECTIFIER</text>
      <text class="cls-41" transform="translate(168.7893 125.9027)">INVERTER</text>
      <text class="cls-41" transform="translate(14.5786 125.903)">RECTIFIER<tspan x="10.2783" y="12">MAINS</tspan>
      </text>
      <text class="cls-41" transform="translate(371.1168 132.8339)">OUTPUT</text>
   </g>
</svg>
