<?xml version="1.0" encoding="UTF-8"?>
<svg xmlns="http://www.w3.org/2000/svg"
     xmlns:xlink="http://www.w3.org/1999/xlink"
     id="Layer_1"
     data-name="Layer 1"
     width="79.4008mm"
     height="64.739mm"
     viewBox="0 0 225.0732 183.5122">
   <defs>
      <style>
      .cls-1, .cls-10, .cls-16, .cls-2, .cls-20, .cls-4, .cls-5, .cls-6 {
        fill: none;
      }

      .cls-2, .cls-4, .cls-5 {
        stroke: #231f20;
      }

      .cls-2, .cls-20, .cls-4, .cls-5, .cls-6 {
        stroke-miterlimit: 10;
      }

      .cls-10, .cls-2, .cls-20, .cls-4, .cls-5 {
        stroke-width: 0.75px;
      }

      .cls-3 {
        fill: #231f20;
      }

      .cls-4 {
        stroke-dasharray: 3.7886 3.7886;
      }

      .cls-5 {
        stroke-dasharray: 4.9161 4.9161;
      }

      .cls-6 {
        stroke: #626469;
        stroke-width: 1.989px;
      }

      .cls-7 {
        fill: #626469;
      }

      .cls-8 {
        clip-path: url(#clip-path);
      }

      .cls-9 {
        fill: #fff;
      }

      .cls-10, .cls-16, .cls-20 {
        stroke: #000;
      }

      .cls-10, .cls-16 {
        stroke-miterlimit: 3;
      }

      .cls-11 {
        clip-path: url(#clip-path-4);
      }

      .cls-12 {
        font-size: 10px;
        fill: #58ba5a;
        font-family: Arial-BoldMT, Arial;
        font-weight: 700;
      }

      .cls-13 {
        font-size: 8px;
        font-family: ArialMT, Arial;
      }

      .cls-14 {
        clip-path: url(#clip-path-7);
      }

      .cls-15 {
        fill-rule: evenodd;
      }

      .cls-16 {
        stroke-width: 0.5px;
      }

      .cls-17 {
        clip-path: url(#clip-path-9);
      }

      .cls-18 {
        clip-path: url(#clip-path-11);
      }

      .cls-19 {
        clip-path: url(#clip-path-13);
      }
    </style>
      <clipPath id="clip-path">
         <rect class="cls-1"
               x="129.1463"
               y="127.8538"
               width="37.5"
               height="42"/>
      </clipPath>
      <clipPath id="clip-path-4">
         <rect class="cls-1"
               x="129.1463"
               y="62.2196"
               width="37.5"
               height="42"/>
      </clipPath>
      <clipPath id="clip-path-7">
         <rect class="cls-1"
               x="65.9052"
               y="15.2944"
               width="4.5709"
               height="4.5819"/>
      </clipPath>
      <clipPath id="clip-path-9">
         <rect class="cls-1"
               x="80.5976"
               y="15.2944"
               width="4.5709"
               height="4.5819"/>
      </clipPath>
      <clipPath id="clip-path-11">
         <rect class="cls-1"
               x="135.484"
               y="15.2944"
               width="4.5709"
               height="4.5819"/>
      </clipPath>
      <clipPath id="clip-path-13">
         <rect class="cls-1"
               x="60.0565"
               y="74.9046"
               width="16.2683"
               height="16.63"/>
      </clipPath>
   </defs>
   <g>
      <line class="cls-2"
            x1="6.0488"
            y1="83.2196"
            x2="216.5115"
            y2="83.2196"/>
      <polygon class="cls-3"
               points="215.417 86.959 221.894 83.22 215.417 79.48 215.417 86.959"/>
   </g>
   <g>
      <line class="cls-2"
            x1="6.0488"
            y1="148.8538"
            x2="216.5115"
            y2="148.8538"/>
      <polygon class="cls-3"
               points="215.417 152.594 221.894 148.854 215.417 145.114 215.417 152.594"/>
   </g>
   <g>
      <line class="cls-2"
            x1="6.0488"
            y1="17.5854"
            x2="216.5115"
            y2="17.5854"/>
      <polygon class="cls-3"
               points="215.417 21.325 221.894 17.585 215.417 13.846 215.417 21.325"/>
   </g>
   <g>
      <line class="cls-2"
            x1="137.7694"
            y1="17.5854"
            x2="137.7694"
            y2="20.0854"/>
      <line class="cls-4"
            x1="137.7694"
            y1="23.874"
            x2="137.7694"
            y2="29.5569"/>
      <polyline class="cls-2" points="137.769 31.451 137.769 33.951 140.269 33.951"/>
      <line class="cls-5"
            x1="145.1856"
            y1="33.9512"
            x2="211.5534"
            y2="33.9512"/>
      <line class="cls-2"
            x1="214.0115"
            y1="33.9512"
            x2="216.5115"
            y2="33.9512"/>
      <polygon class="cls-3"
               points="215.417 37.691 221.894 33.951 215.417 30.211 215.417 37.691"/>
   </g>
   <g>
      <line class="cls-6"
            x1="156.7154"
            y1="126.1922"
            x2="156.7154"
            y2="105.8814"/>
      <polygon class="cls-7"
               points="159.691 125.322 156.715 130.474 153.74 125.322 159.691 125.322"/>
      <polygon class="cls-7"
               points="159.691 106.752 156.715 101.599 153.74 106.752 159.691 106.752"/>
   </g>
   <g>
      <line class="cls-6"
            x1="138.9553"
            y1="126.1922"
            x2="138.9553"
            y2="105.8814"/>
      <polygon class="cls-7"
               points="141.931 125.322 138.955 130.474 135.98 125.322 141.931 125.322"/>
      <polygon class="cls-7"
               points="141.931 106.752 138.955 101.599 135.98 106.752 141.931 106.752"/>
   </g>
   <g id="Inverter">
      <g class="cls-8">
         <rect class="cls-9"
               x="129.8953"
               y="130.8528"
               width="36.001"
               height="36"/>
         <g class="cls-8">
            <rect class="cls-10"
                  x="129.8953"
                  y="130.8528"
                  width="36"
                  height="36"/>
            <line class="cls-10"
                  x1="129.8984"
                  y1="166.8551"
                  x2="165.8974"
                  y2="130.8561"/>
         </g>
         <line class="cls-10"
               x1="133.2704"
               y1="137.6061"
               x2="143.3914"
               y2="137.6061"/>
         <line class="cls-10"
               x1="135.6533"
               y1="139.8561"
               x2="133.2703"
               y2="139.8561"/>
         <line class="cls-10"
               x1="139.5219"
               y1="139.8561"
               x2="137.1399"
               y2="139.8561"/>
         <line class="cls-10"
               x1="143.3911"
               y1="139.8561"
               x2="141.0081"
               y2="139.8561"/>
         <g class="cls-8">
            <path class="cls-10"
                  d="M153.5209,159.1032a2.3139,2.3139,0,0,1,2.25-2.123c1.102,0,1.979.561,2.25,2.123a2.2627,2.2627,0,0,0,2.25,2.121,2.4327,2.4327,0,0,0,2.25-2.121"/>
         </g>
      </g>
   </g>
   <g id="Inverter-2" data-name="Inverter">
      <g class="cls-11">
         <rect class="cls-9"
               x="129.8953"
               y="65.2186"
               width="36.001"
               height="36"/>
         <g class="cls-11">
            <rect class="cls-10"
                  x="129.8953"
                  y="65.2186"
                  width="36"
                  height="36"/>
            <line class="cls-10"
                  x1="129.8984"
                  y1="101.2209"
                  x2="165.8974"
                  y2="65.2219"/>
         </g>
         <line class="cls-10"
               x1="133.2704"
               y1="71.9719"
               x2="143.3914"
               y2="71.9719"/>
         <line class="cls-10"
               x1="135.6533"
               y1="74.2219"
               x2="133.2703"
               y2="74.2219"/>
         <line class="cls-10"
               x1="139.5219"
               y1="74.2219"
               x2="137.1399"
               y2="74.2219"/>
         <line class="cls-10"
               x1="143.3911"
               y1="74.2219"
               x2="141.0081"
               y2="74.2219"/>
         <g class="cls-11">
            <path class="cls-10"
                  d="M153.5209,93.469a2.3139,2.3139,0,0,1,2.25-2.123c1.102,0,1.979.561,2.25,2.123a2.2627,2.2627,0,0,0,2.25,2.121,2.4327,2.4327,0,0,0,2.25-2.121"/>
         </g>
      </g>
   </g>
   <g>
      <polyline class="cls-2" points="82.865 17.585 82.879 72.098 123.75 72.098"/>
      <polygon class="cls-3"
               points="122.655 75.837 129.132 72.098 122.655 68.358 122.655 75.837"/>
   </g>
   <g>
      <polyline class="cls-2" points="68.191 17.585 68.22 137.805 123.764 137.805"/>
      <polygon class="cls-3"
               points="122.67 141.545 129.146 137.805 122.67 134.065 122.67 141.545"/>
   </g>
   <text class="cls-12" transform="translate(8.0788 10.5852)">BYPASS MAINS</text>
   <text class="cls-12" transform="translate(118.4455 57.9754)">INVERTER 1</text>
   <text class="cls-12" transform="translate(118.4453 181.2681)">INVERTER 2</text>
   <text class="cls-13" transform="translate(177.7334 113.256)">Parallel<tspan x="-13.5605" y="9.6001">communication</tspan>
   </text>
   <text class="cls-13" transform="translate(6.4779 45.4461)">Synchronization<tspan x="16.0098" y="9.6001">signals</tspan>
   </text>
   <g id="shape116-109">
      <g class="cls-14">
         <g class="cls-14">
            <path class="cls-15"
                  d="M68.19,16.5821a1.003,1.003,0,1,1-1,1.003,1.001,1.001,0,0,1,1-1.003"/>
            <circle class="cls-16" cx="68.1903" cy="17.5851" r="1"/>
         </g>
      </g>
   </g>
   <g id="shape116-109-2" data-name="shape116-109">
      <g class="cls-17">
         <g class="cls-17">
            <path class="cls-15"
                  d="M82.8827,16.5821a1.003,1.003,0,1,1-1,1.003,1.001,1.001,0,0,1,1-1.003"/>
            <circle class="cls-16" cx="82.8827" cy="17.5851" r="1"/>
         </g>
      </g>
   </g>
   <g id="shape116-109-3" data-name="shape116-109">
      <g class="cls-18">
         <g class="cls-18">
            <path class="cls-15"
                  d="M137.7691,16.5821a1.003,1.003,0,1,1-1,1.003,1.001,1.001,0,0,1,1-1.003"/>
            <circle class="cls-16" cx="137.7691" cy="17.5851" r="1"/>
         </g>
      </g>
   </g>
   <g id="Artwork_28" data-name="Artwork 28">
      <g class="cls-19">
         <rect class="cls-9"
               x="66.7155"
               y="75.9226"
               width="2.977"
               height="14.612"/>
         <g class="cls-19">
            <line class="cls-20"
                  x1="76.3244"
                  y1="83.2284"
                  x2="60.0564"
                  y2="83.2284"/>
         </g>
         <rect class="cls-9"
               x="60.3735"
               y="82.2886"
               width="1.04"
               height="1.881"/>
         <g class="cls-19">
            <path class="cls-20"
                  d="M68.7668,90.5121c-.19.015-.383.022-.576.022a7.306,7.306,0,1,1,.744-14.574"/>
            <path d="M67.175,90.5346h0a1,1,0,1,1,1,1,1.0029,1.0029,0,0,1-1-1"/>
            <path d="M67.175,75.9047h0a1,1,0,1,1,1,1,1.0029,1.0029,0,0,1-1-1"/>
         </g>
      </g>
   </g>
</svg>
