<?xml version="1.0" encoding="UTF-8"?>
<svg xmlns="http://www.w3.org/2000/svg"
     xmlns:xlink="http://www.w3.org/1999/xlink"
     width="105mm"
     height="69.3796mm"
     viewBox="0 0 297.6378 196.6667">
   <defs>
      <style>
      .cls-1, .cls-12, .cls-13, .cls-14, .cls-2, .cls-3, .cls-33, .cls-6 {
        fill: none;
      }

      .cls-12, .cls-13, .cls-14, .cls-2, .cls-3, .cls-33, .cls-6 {
        stroke: #000;
      }

      .cls-2 {
        stroke-miterlimit: 10;
      }

      .cls-2, .cls-3 {
        stroke-width: 0.75px;
      }

      .cls-12, .cls-13, .cls-14, .cls-3, .cls-33, .cls-6 {
        stroke-miterlimit: 3;
      }

      .cls-4 {
        clip-path: url(#clip-path);
      }

      .cls-5, .cls-8 {
        fill: #fff;
      }

      .cls-6 {
        stroke-width: 0.7087px;
      }

      .cls-7 {
        clip-path: url(#clip-path-4);
      }

      .cls-32, .cls-8 {
        fill-rule: evenodd;
      }

      .cls-9 {
        clip-path: url(#clip-path-6);
      }

      .cls-10 {
        clip-path: url(#clip-path-8);
      }

      .cls-11 {
        clip-path: url(#clip-path-9);
      }

      .cls-12, .cls-14 {
        stroke-width: 0.7513px;
      }

      .cls-13 {
        stroke-width: 1.2522px;
      }

      .cls-14 {
        stroke-dasharray: 2.0034 1.0017;
      }

      .cls-15 {
        clip-path: url(#clip-path-11);
      }

      .cls-16 {
        clip-path: url(#clip-path-14);
      }

      .cls-17 {
        clip-path: url(#clip-path-16);
      }

      .cls-18 {
        clip-path: url(#clip-path-17);
      }

      .cls-19 {
        clip-path: url(#clip-path-18);
      }

      .cls-20 {
        clip-path: url(#clip-path-19);
      }

      .cls-21 {
        clip-path: url(#clip-path-20);
      }

      .cls-22 {
        clip-path: url(#clip-path-21);
      }

      .cls-23 {
        clip-path: url(#clip-path-22);
      }

      .cls-24 {
        clip-path: url(#clip-path-24);
      }

      .cls-25 {
        clip-path: url(#clip-path-25);
      }

      .cls-26, .cls-27 {
        fill: #01889C;
      }

      .cls-27, .cls-30 {
        font-size: 10px;
      }

      .cls-27 {
        font-family: Arial-BoldMT, Arial;
        font-weight: 700;
      }

      .cls-28 {
        clip-path: url(#clip-path-26);
      }

      .cls-29 {
        clip-path: url(#clip-path-28);
      }

      .cls-30 {
        isolation: isolate;
        font-family: ArialMT, Arial;
      }

      .cls-31 {
        clip-path: url(#clip-path-30);
      }

      .cls-33 {
        stroke-width: 0.5px;
      }
    </style>
      <clipPath id="clip-path">
         <rect class="cls-1"
               x="107.9488"
               y="92.3743"
               width="35.4357"
               height="39.688"/>
      </clipPath>
      <clipPath id="clip-path-4">
         <rect class="cls-1"
               x="254.7722"
               y="74.2952"
               width="6.125"
               height="6.125"/>
      </clipPath>
      <clipPath id="clip-path-6">
         <rect class="cls-1"
               x="37.9051"
               y="109.1656"
               width="6.125"
               height="6.125"/>
      </clipPath>
      <clipPath id="clip-path-8">
         <rect class="cls-1"
               x="153.5593"
               y="174.9129"
               width="15.6504"
               height="14.7535"/>
      </clipPath>
      <clipPath id="clip-path-9">
         <rect class="cls-1"
               x="153.5593"
               y="174.913"
               width="15.6509"
               height="14.7534"/>
      </clipPath>
      <clipPath id="clip-path-11">
         <rect class="cls-1"
               x="107.9488"
               y="22.3735"
               width="35.4357"
               height="39.688"/>
      </clipPath>
      <clipPath id="clip-path-14">
         <rect class="cls-1"
               x="37.9051"
               y="39.1647"
               width="6.125"
               height="6.125"/>
      </clipPath>
      <clipPath id="clip-path-16">
         <rect class="cls-1"
               x="69.6338"
               y="104.1522"
               width="16.63"
               height="16.2683"/>
      </clipPath>
      <clipPath id="clip-path-17">
         <rect class="cls-1"
               x="69.6338"
               y="104.1525"
               width="16.63"
               height="16.268"/>
      </clipPath>
      <clipPath id="clip-path-18">
         <rect class="cls-1"
               x="69.6338"
               y="34.1514"
               width="16.63"
               height="16.2683"/>
      </clipPath>
      <clipPath id="clip-path-19">
         <rect class="cls-1"
               x="69.6338"
               y="34.1517"
               width="16.63"
               height="16.268"/>
      </clipPath>
      <clipPath id="clip-path-20">
         <rect class="cls-1"
               x="185.0695"
               y="104.1522"
               width="16.63"
               height="16.2683"/>
      </clipPath>
      <clipPath id="clip-path-21">
         <rect class="cls-1"
               x="185.0695"
               y="104.1525"
               width="16.63"
               height="16.268"/>
      </clipPath>
      <clipPath id="clip-path-22">
         <rect class="cls-1"
               x="185.0695"
               y="174.2176"
               width="16.63"
               height="16.2683"/>
      </clipPath>
      <clipPath id="clip-path-24">
         <rect class="cls-1"
               x="185.0695"
               y="34.1514"
               width="16.63"
               height="16.2683"/>
      </clipPath>
      <clipPath id="clip-path-25">
         <rect class="cls-1"
               x="185.0695"
               y="34.1517"
               width="16.63"
               height="16.268"/>
      </clipPath>
      <clipPath id="clip-path-26">
         <rect class="cls-1"
               x="157.1556"
               y="106.2109"
               width="12.4579"
               height="12.1509"/>
      </clipPath>
      <clipPath id="clip-path-28">
         <rect class="cls-1"
               x="157.1556"
               y="36.2101"
               width="12.4579"
               height="12.1509"/>
      </clipPath>
      <clipPath id="clip-path-30">
         <rect class="cls-1"
               x="213.3874"
               y="133.2061"
               width="4.5709"
               height="4.5819"/>
      </clipPath>
   </defs>
   <g id="Paths">
      <polyline class="cls-2" points="215.673 112.286 215.673 182.352 169.21 182.352"/>
      <line class="cls-3"
            x1="215.6729"
            y1="77.2281"
            x2="257.8347"
            y2="77.2281"/>
      <polyline class="cls-3"
                points="40.968 42.286 215.673 42.286 215.673 112.286 40.968 112.286"/>
   </g>
   <g id="Parts">
      <g id="Rectifier">
         <g class="cls-4">
            <rect class="cls-5"
                  x="108.6584"
                  y="95.2101"
                  width="34.0183"
                  height="34.0183"/>
            <g class="cls-4">
               <rect class="cls-6"
                     x="108.6584"
                     y="95.2101"
                     width="34.0183"
                     height="34.0183"/>
               <line class="cls-6"
                     x1="142.674"
                     y1="95.2079"
                     x2="108.6566"
                     y2="129.2262"/>
            </g>
            <line class="cls-6"
                  x1="138.956"
                  y1="121.7842"
                  x2="129.3931"
                  y2="121.7842"/>
            <line class="cls-6"
                  x1="131.6446"
                  y1="123.9103"
                  x2="129.3937"
                  y2="123.9103"/>
            <line class="cls-6"
                  x1="135.3002"
                  y1="123.9103"
                  x2="133.0494"
                  y2="123.9103"/>
            <line class="cls-6"
                  x1="138.956"
                  y1="123.9103"
                  x2="136.7051"
                  y2="123.9103"/>
            <g class="cls-4">
               <path class="cls-6"
                     d="M112.4106,101.1087a2.1878,2.1878,0,0,1,2.1261-2.0061c1.0413,0,1.871.53,2.1261,2.0061a2.1383,2.1383,0,0,0,2.1262,2.0043,2.298,2.298,0,0,0,2.1261-2.0043"/>
            </g>
         </g>
      </g>
      <g id="Artwork_13" data-name="Artwork 13">
         <g class="cls-7">
            <g class="cls-7">
               <path class="cls-8"
                     d="M257.8346,75.3581a2,2,0,1,1-2,2,2.0007,2.0007,0,0,1,2-2"/>
               <circle class="cls-3" cx="257.8346" cy="77.3581" r="2"/>
            </g>
         </g>
      </g>
      <g id="Artwork_13-2" data-name="Artwork 13">
         <g class="cls-9">
            <g class="cls-9">
               <path class="cls-8"
                     d="M40.9675,110.2285a2,2,0,1,1-2,2,2.0007,2.0007,0,0,1,2-2"/>
               <circle class="cls-3" cx="40.9675" cy="112.2285" r="2"/>
            </g>
         </g>
      </g>
      <g id="Artwork_8" data-name="Artwork 8">
         <g class="cls-10">
            <g class="cls-11">
               <line class="cls-12"
                     x1="156.1957"
                     y1="189.6743"
                     x2="156.1957"
                     y2="174.9209"/>
               <line class="cls-13"
                     x1="154.1777"
                     y1="186.54"
                     x2="154.1777"
                     y2="178.0554"/>
            </g>
            <line class="cls-14"
                  x1="155.9619"
                  y1="182.2895"
                  x2="166.9428"
                  y2="182.2895"/>
            <g class="cls-11">
               <line class="cls-12"
                     x1="168.9609"
                     y1="189.6664"
                     x2="168.9609"
                     y2="174.913"/>
            </g>
            <line class="cls-13"
                  x1="166.9427"
                  y1="186.5317"
                  x2="166.9427"
                  y2="178.0471"/>
         </g>
      </g>
      <g id="Rectifier-2" data-name="Rectifier">
         <g class="cls-15">
            <rect class="cls-5"
                  x="108.6584"
                  y="25.2093"
                  width="34.0183"
                  height="34.0183"/>
            <g class="cls-15">
               <rect class="cls-6"
                     x="108.6584"
                     y="25.2093"
                     width="34.0183"
                     height="34.0183"/>
               <line class="cls-6"
                     x1="142.674"
                     y1="25.207"
                     x2="108.6566"
                     y2="59.2253"/>
            </g>
            <line class="cls-6"
                  x1="138.956"
                  y1="51.7833"
                  x2="129.3931"
                  y2="51.7833"/>
            <line class="cls-6"
                  x1="131.6446"
                  y1="53.9095"
                  x2="129.3937"
                  y2="53.9095"/>
            <line class="cls-6"
                  x1="135.3002"
                  y1="53.9095"
                  x2="133.0494"
                  y2="53.9095"/>
            <line class="cls-6"
                  x1="138.956"
                  y1="53.9095"
                  x2="136.7051"
                  y2="53.9095"/>
            <g class="cls-15">
               <path class="cls-6"
                     d="M112.4106,31.1079a2.1879,2.1879,0,0,1,2.1261-2.0062c1.0413,0,1.871.53,2.1261,2.0062a2.1382,2.1382,0,0,0,2.1262,2.0042,2.298,2.298,0,0,0,2.1261-2.0042"/>
            </g>
         </g>
      </g>
      <g id="Artwork_13-3" data-name="Artwork 13">
         <g class="cls-16">
            <g class="cls-16">
               <path class="cls-8"
                     d="M40.9675,40.2276a2,2,0,1,1-2,2,2.0007,2.0007,0,0,1,2-2"/>
               <circle class="cls-3" cx="40.9675" cy="42.2276" r="2"/>
            </g>
         </g>
      </g>
      <g id="Artwork_20" data-name="Artwork 20">
         <g class="cls-17">
            <rect class="cls-5"
                  x="70.6518"
                  y="109.7855"
                  width="14.612"
                  height="5.032"/>
            <g class="cls-18">
               <line class="cls-3"
                     x1="70.6339"
                     y1="119.0637"
                     x2="85.2639"
                     y2="112.2977"/>
               <path d="M85.2638,113.302h0a1,1,0,1,1,1-1,1.0029,1.0029,0,0,1-1,1"/>
               <path d="M70.6339,113.302h0a1,1,0,1,1,1-1,1.0029,1.0029,0,0,1-1,1"/>
            </g>
         </g>
      </g>
      <g id="Artwork_20-2" data-name="Artwork 20">
         <g class="cls-19">
            <rect class="cls-5"
                  x="70.6518"
                  y="39.7847"
                  width="14.612"
                  height="5.032"/>
            <g class="cls-20">
               <line class="cls-3"
                     x1="70.6339"
                     y1="49.0629"
                     x2="85.2639"
                     y2="42.2969"/>
               <path d="M85.2638,43.3012h0a1,1,0,1,1,1-1,1.0029,1.0029,0,0,1-1,1"/>
               <path d="M70.6339,43.3012h0a1,1,0,1,1,1-1,1.0029,1.0029,0,0,1-1,1"/>
            </g>
         </g>
      </g>
      <g id="Artwork_20-3" data-name="Artwork 20">
         <g class="cls-21">
            <rect class="cls-5"
                  x="186.0875"
                  y="109.7855"
                  width="14.612"
                  height="5.032"/>
            <g class="cls-22">
               <line class="cls-3"
                     x1="186.0696"
                     y1="119.0637"
                     x2="200.6996"
                     y2="112.2977"/>
               <path d="M200.7,113.302h0a1,1,0,1,1,1-1,1.0029,1.0029,0,0,1-1,1"/>
               <path d="M186.07,113.302h0a1,1,0,1,1,1-1,1.0029,1.0029,0,0,1-1,1"/>
            </g>
         </g>
      </g>
      <g id="Artwork_20-4" data-name="Artwork 20">
         <g class="cls-23">
            <rect class="cls-5"
                  x="186.0875"
                  y="179.8509"
                  width="14.612"
                  height="5.032"/>
            <g class="cls-23">
               <line class="cls-3"
                     x1="186.0696"
                     y1="189.1291"
                     x2="200.6996"
                     y2="182.3631"/>
               <path d="M200.7,183.3674h0a1,1,0,1,1,1-1,1.0029,1.0029,0,0,1-1,1"/>
               <path d="M186.07,183.3674h0a1,1,0,1,1,1-1,1.0029,1.0029,0,0,1-1,1"/>
            </g>
         </g>
      </g>
      <g id="Artwork_20-5" data-name="Artwork 20">
         <g class="cls-24">
            <rect class="cls-5"
                  x="186.0875"
                  y="39.7847"
                  width="14.612"
                  height="5.032"/>
            <g class="cls-25">
               <line class="cls-3"
                     x1="186.0696"
                     y1="49.0629"
                     x2="200.6996"
                     y2="42.2969"/>
               <path d="M200.7,43.3012h0a1,1,0,1,1,1-1,1.0029,1.0029,0,0,1-1,1"/>
               <path d="M186.07,43.3012h0a1,1,0,1,1,1-1,1.0029,1.0029,0,0,1-1,1"/>
            </g>
         </g>
      </g>
   </g>
   <g id="Text">
      <g>
         <path class="cls-26"
               d="M145.6838,155.6576l1.4014.4443a3.1436,3.1436,0,0,1-1.0713,1.74,3.3712,3.3712,0,0,1-4.2461-.4053,3.73,3.73,0,0,1-.918-2.663,3.9146,3.9146,0,0,1,.9229-2.7764,3.1649,3.1649,0,0,1,2.4268-.9883,2.9765,2.9765,0,0,1,2.1337.7764,2.8084,2.8084,0,0,1,.7325,1.3183l-1.4307.3418a1.4777,1.4777,0,0,0-1.5088-1.2011,1.6276,1.6276,0,0,0-1.291.5713,2.7948,2.7948,0,0,0-.4961,1.8505,3.0068,3.0068,0,0,0,.4883,1.9336,1.5879,1.5879,0,0,0,1.2695.5762,1.446,1.446,0,0,0,.9912-.3662A2.1225,2.1225,0,0,0,145.6838,155.6576Z"/>
         <path class="cls-26"
               d="M148.0325,154.7542a4.5541,4.5541,0,0,1,.3271-1.8359,3.349,3.349,0,0,1,.667-.9815,2.7768,2.7768,0,0,1,.9248-.6445,3.9225,3.9225,0,0,1,1.543-.2832,3.363,3.363,0,0,1,2.5322.9815,4.3861,4.3861,0,0,1,.0068,5.4414,3.3318,3.3318,0,0,1-2.5195.98,3.37,3.37,0,0,1-2.5391-.9747A3.698,3.698,0,0,1,148.0325,154.7542Zm1.4892-.0488a2.682,2.682,0,0,0,.5615,1.8428,1.93,1.93,0,0,0,2.8448.0049,2.7361,2.7361,0,0,0,.5537-1.8672,2.6929,2.6929,0,0,0-.5391-1.836,2,2,0,0,0-2.874.0069A2.7073,2.7073,0,0,0,149.5217,154.7054Z"/>
         <path class="cls-26"
               d="M156.0842,158.2894v-7.1582h2.1631l1.2988,4.8828,1.2842-4.8828h2.168v7.1582h-1.3428v-5.6348l-1.4209,5.6348H158.843l-1.416-5.6348v5.6348Z"/>
         <path class="cls-26"
               d="M164.4143,158.2894v-7.1582h2.1631l1.2988,4.8828,1.2842-4.8828h2.168v7.1582h-1.3428v-5.6348l-1.4209,5.6348h-1.3916l-1.416-5.6348v5.6348Z"/>
         <path class="cls-26"
               d="M172.4709,154.7542a4.5541,4.5541,0,0,1,.3272-1.8359,3.349,3.349,0,0,1,.667-.9815,2.7758,2.7758,0,0,1,.9248-.6445,3.9225,3.9225,0,0,1,1.543-.2832,3.3631,3.3631,0,0,1,2.5322.9815,4.3861,4.3861,0,0,1,.0068,5.4414,3.3319,3.3319,0,0,1-2.5195.98,3.37,3.37,0,0,1-2.5391-.9747A3.698,3.698,0,0,1,172.4709,154.7542Zm1.4893-.0488a2.682,2.682,0,0,0,.5615,1.8428,1.93,1.93,0,0,0,2.8447.0049,2.7356,2.7356,0,0,0,.5538-1.8672,2.6929,2.6929,0,0,0-.5391-1.836,2,2,0,0,0-2.874.0069A2.7073,2.7073,0,0,0,173.96,154.7054Z"/>
         <path class="cls-26"
               d="M180.5569,158.2894v-7.1582h1.4062l2.93,4.78v-4.78h1.3428v7.1582h-1.45l-2.8858-4.668v4.668Z"/>
         <path class="cls-26"
               d="M140.8284,163.1312H143.69a8.3122,8.3122,0,0,1,1.2666.07,1.8622,1.8622,0,0,1,.7471.2959,1.8332,1.8332,0,0,1,.55.5977,1.6221,1.6221,0,0,1,.22.8378,1.6694,1.6694,0,0,1-.2715.9229,1.69,1.69,0,0,1-.7344.63,1.8825,1.8825,0,0,1,1.0059.6494,1.7217,1.7217,0,0,1,.3516,1.0791,2.1267,2.1267,0,0,1-.2276.9492,1.9054,1.9054,0,0,1-.62.7373,2.0467,2.0467,0,0,1-.9688.34q-.3618.0381-1.7431.0488h-2.4365Zm1.4453,1.1914v1.6553h.9472c.5625,0,.9131-.0088,1.05-.0244a.9552.9552,0,0,0,.583-.2569.7557.7557,0,0,0,.2129-.5586.7867.7867,0,0,0-.1836-.54.8316.8316,0,0,0-.5439-.251q-.2154-.0249-1.2354-.0244Zm0,2.8467v1.914h1.3379a6.55,6.55,0,0,0,.9912-.0439.8948.8948,0,0,0,.5244-.2861.8755.8755,0,0,0,.2031-.6075.9378.9378,0,0,0-.1562-.5468.881.881,0,0,0-.4522-.3272,4.9065,4.9065,0,0,0-1.2812-.1025Z"/>
         <path class="cls-26"
               d="M154.5,170.2894H152.928l-.625-1.626h-2.8614l-.5908,1.626h-1.5332l2.7881-7.1582h1.5283Zm-2.6611-2.832-.9863-2.6563-.9668,2.6563Z"/>
         <path class="cls-26"
               d="M156.8782,170.2894v-5.9473h-2.1241v-1.2109h5.6885v1.2109h-2.1191v5.9473Z"/>
         <path class="cls-26"
               d="M162.9866,170.2894v-5.9473h-2.1241v-1.2109h5.6885v1.2109h-2.1191v5.9473Z"/>
         <path class="cls-26"
               d="M167.4836,170.2894v-7.1582h5.3076v1.2109h-3.8623v1.5869h3.5938v1.2061h-3.5938v1.9482h3.9991v1.2061Z"/>
         <path class="cls-26"
               d="M174.1584,170.2894v-7.1582H177.2a5.2243,5.2243,0,0,1,1.667.1924,1.65,1.65,0,0,1,.833.6865,2.0617,2.0617,0,0,1,.3125,1.1279,1.9108,1.9108,0,0,1-.4736,1.33,2.2774,2.2774,0,0,1-1.416.6621,3.3231,3.3231,0,0,1,.7734.6006,8.1347,8.1347,0,0,1,.8233,1.1621l.874,1.3965h-1.7285l-1.045-1.5576a10.1926,10.1926,0,0,0-.7617-1.0528,1.1173,1.1173,0,0,0-.4345-.2978,2.3881,2.3881,0,0,0-.7276-.08h-.293v2.9883Zm1.4453-4.1309h1.0694a5.5231,5.5231,0,0,0,1.2988-.0879.7844.7844,0,0,0,.4053-.3027.9333.9333,0,0,0,.1465-.5371.8583.8583,0,0,0-.1934-.584.8849.8849,0,0,0-.5439-.28q-.1758-.0249-1.0547-.0244h-1.128Z"/>
         <path class="cls-26"
               d="M183.2551,170.2894v-3.0127l-2.6221-4.1455h1.6944l1.6846,2.832,1.65-2.832h1.6651l-2.6319,4.1553v3.0029Z"/>
      </g>
      <text class="cls-27" transform="translate(14.5787 90.2183)">RECTIFIER<tspan x="6.1084" y="12">MAINS 2</tspan>
      </text>
      <text class="cls-27" transform="translate(94.7052 90.2181)">RECTIFIER 2</text>
      <text class="cls-27" transform="translate(237.2807 65.3573)">OUTPUT</text>
      <text class="cls-27" transform="translate(14.5787 20.2182)">RECTIFIER<tspan x="6.1084" y="12">MAINS 1</tspan>
      </text>
      <text class="cls-27" transform="translate(94.7052 20.218)">RECTIFIER 1</text>
      <g id="Artwork_30" data-name="Artwork 30">
         <g class="cls-28">
            <g class="cls-28">
               <line class="cls-3"
                     x1="168.958"
                     y1="106.5654"
                     x2="168.958"
                     y2="118.1184"/>
            </g>
            <polygon class="cls-5"
                     points="158.022 117.401 168.317 112.231 158.022 107.063 158.022 117.401"/>
            <path d="M158.3979,107.6711l9.083,4.56-9.083,4.561Zm-.75,10.337,11.506-5.777-11.506-5.776Z"/>
         </g>
      </g>
      <g id="Artwork_30-2" data-name="Artwork 30">
         <g class="cls-29">
            <g class="cls-29">
               <line class="cls-3"
                     x1="168.958"
                     y1="36.5646"
                     x2="168.958"
                     y2="48.1176"/>
            </g>
            <polygon class="cls-5"
                     points="158.022 47.4 168.317 42.23 158.022 37.062 158.022 47.4"/>
            <path d="M158.3979,37.67l9.083,4.56-9.083,4.561Zm-.75,10.337,11.506-5.777-11.506-5.776Z"/>
         </g>
      </g>
      <g>
         <rect class="cls-2"
               x="228.0792"
               y="130.8333"
               width="18"
               height="11"/>
         <text class="cls-30" transform="translate(230.9634 140.1009)">A2</text>
      </g>
      <g>
         <rect class="cls-2"
               x="185.2665"
               y="130.8333"
               width="18"
               height="11"/>
         <text class="cls-30" transform="translate(188.1508 140.1009)">A1</text>
      </g>
      <g id="shape116-109">
         <g class="cls-31">
            <g class="cls-31">
               <path class="cls-32"
                     d="M215.6725,134.4937a1.003,1.003,0,1,1-1,1.003,1.001,1.001,0,0,1,1-1.003"/>
               <circle class="cls-33" cx="215.6725" cy="135.4967" r="1"/>
            </g>
         </g>
      </g>
      <line class="cls-2"
            x1="228.1208"
            y1="135.497"
            x2="203.3082"
            y2="135.497"/>
   </g>
</svg>
