<?xml version="1.0" encoding="UTF-8"?>
<svg xmlns="http://www.w3.org/2000/svg"
     xmlns:xlink="http://www.w3.org/1999/xlink"
     width="110mm"
     height="85mm"
     viewBox="0 0 311.811 240.9449">
   <defs>
      <style>
      .cls-1, .cls-10, .cls-16, .cls-17, .cls-18, .cls-3, .cls-5, .cls-7 {
        fill: none;
      }

      .cls-2 {
        fill: #c6c6c6;
      }

      .cls-3 {
        stroke: #c6c6c6;
        stroke-width: 5px;
      }

      .cls-10, .cls-16, .cls-17, .cls-18, .cls-3, .cls-5 {
        stroke-miterlimit: 3;
      }

      .cls-4 {
        clip-path: url(#clip-path);
      }

      .cls-10, .cls-16, .cls-17, .cls-18, .cls-5, .cls-7 {
        stroke: #000;
      }

      .cls-5, .cls-7 {
        stroke-width: 0.75px;
      }

      .cls-6 {
        clip-path: url(#clip-path-3);
      }

      .cls-7 {
        stroke-miterlimit: 10;
      }

      .cls-8 {
        clip-path: url(#clip-path-5);
      }

      .cls-12, .cls-9 {
        fill: #fff;
      }

      .cls-10 {
        stroke-width: 0.7087px;
      }

      .cls-11 {
        clip-path: url(#clip-path-8);
      }

      .cls-12 {
        fill-rule: evenodd;
      }

      .cls-13 {
        clip-path: url(#clip-path-10);
      }

      .cls-14 {
        clip-path: url(#clip-path-12);
      }

      .cls-15 {
        clip-path: url(#clip-path-13);
      }

      .cls-16, .cls-18 {
        stroke-width: 0.7513px;
      }

      .cls-17 {
        stroke-width: 1.2522px;
      }

      .cls-18 {
        stroke-dasharray: 2.0034 1.0017;
      }

      .cls-19 {
        clip-path: url(#clip-path-15);
      }

      .cls-20 {
        clip-path: url(#clip-path-17);
      }

      .cls-21 {
        clip-path: url(#clip-path-18);
      }

      .cls-22 {
        clip-path: url(#clip-path-19);
      }

      .cls-23 {
        clip-path: url(#clip-path-20);
      }

      .cls-24 {
        clip-path: url(#clip-path-21);
      }

      .cls-25 {
        clip-path: url(#clip-path-24);
      }

      .cls-26 {
        clip-path: url(#clip-path-26);
      }

      .cls-27 {
        clip-path: url(#clip-path-27);
      }

      .cls-28 {
        clip-path: url(#clip-path-29);
      }

      .cls-29 {
        clip-path: url(#clip-path-30);
      }

      .cls-30 {
        clip-path: url(#clip-path-31);
      }

      .cls-31 {
        clip-path: url(#clip-path-33);
      }

      .cls-32 {
        font-size: 10px;
        fill: #01889C;
        font-family: Arial-BoldMT, Arial;
        font-weight: 700;
      }
    </style>
      <clipPath id="clip-path">
         <rect class="cls-1"
               x="174.5951"
               y="209.728"
               width="12.4579"
               height="12.1509"/>
      </clipPath>
      <clipPath id="clip-path-3">
         <rect class="cls-1"
               x="174.5951"
               y="88.3524"
               width="12.4579"
               height="12.1509"/>
      </clipPath>
      <clipPath id="clip-path-5">
         <rect class="cls-1"
               x="107.9488"
               y="196.1627"
               width="35.4357"
               height="39.688"/>
      </clipPath>
      <clipPath id="clip-path-8">
         <rect class="cls-1"
               x="274.7722"
               y="152.0531"
               width="6.125"
               height="6.125"/>
      </clipPath>
      <clipPath id="clip-path-10">
         <rect class="cls-1"
               x="37.9051"
               y="212.954"
               width="6.125"
               height="6.125"/>
      </clipPath>
      <clipPath id="clip-path-12">
         <rect class="cls-1"
               x="37.9171"
               y="150.5171"
               width="15.6504"
               height="14.7535"/>
      </clipPath>
      <clipPath id="clip-path-13">
         <rect class="cls-1"
               x="37.9171"
               y="150.5172"
               width="15.6509"
               height="14.7534"/>
      </clipPath>
      <clipPath id="clip-path-15">
         <rect class="cls-1"
               x="70.591"
               y="149.7602"
               width="16.63"
               height="16.2683"/>
      </clipPath>
      <clipPath id="clip-path-17">
         <rect class="cls-1"
               x="70.591"
               y="207.8823"
               width="16.63"
               height="16.2683"/>
      </clipPath>
      <clipPath id="clip-path-18">
         <rect class="cls-1"
               x="70.591"
               y="207.8826"
               width="16.63"
               height="16.268"/>
      </clipPath>
      <clipPath id="clip-path-19">
         <rect class="cls-1"
               x="199.8979"
               y="207.8823"
               width="16.63"
               height="16.2683"/>
      </clipPath>
      <clipPath id="clip-path-20">
         <rect class="cls-1"
               x="199.8979"
               y="207.8826"
               width="16.63"
               height="16.268"/>
      </clipPath>
      <clipPath id="clip-path-21">
         <rect class="cls-1"
               x="107.9488"
               y="74.859"
               width="35.4357"
               height="39.688"/>
      </clipPath>
      <clipPath id="clip-path-24">
         <rect class="cls-1"
               x="37.9051"
               y="91.6502"
               width="6.125"
               height="6.125"/>
      </clipPath>
      <clipPath id="clip-path-26">
         <rect class="cls-1"
               x="37.9171"
               y="29.2133"
               width="15.6504"
               height="14.7535"/>
      </clipPath>
      <clipPath id="clip-path-27">
         <rect class="cls-1"
               x="37.9171"
               y="29.2134"
               width="15.6509"
               height="14.7534"/>
      </clipPath>
      <clipPath id="clip-path-29">
         <rect class="cls-1"
               x="70.591"
               y="28.4565"
               width="16.63"
               height="16.2683"/>
      </clipPath>
      <clipPath id="clip-path-30">
         <rect class="cls-1"
               x="70.591"
               y="28.4568"
               width="16.63"
               height="16.268"/>
      </clipPath>
      <clipPath id="clip-path-31">
         <rect class="cls-1"
               x="70.591"
               y="86.5786"
               width="16.63"
               height="16.2683"/>
      </clipPath>
      <clipPath id="clip-path-33">
         <rect class="cls-1"
               x="199.8979"
               y="86.5786"
               width="16.63"
               height="16.2683"/>
      </clipPath>
   </defs>
   <g id="Paths">
      <g>
         <polygon class="cls-2"
                  points="145.275 218.137 141.908 218.137 145.53 213.601 148.897 213.601 145.275 218.137"/>
         <polygon class="cls-2"
                  points="152.314 218.137 148.946 218.137 152.568 213.601 155.936 213.601 152.314 218.137"/>
         <polygon class="cls-2"
                  points="159.352 218.137 155.984 218.137 159.606 213.601 162.974 213.601 159.352 218.137"/>
         <polygon class="cls-2"
                  points="166.39 218.137 163.022 218.137 166.644 213.601 170.012 213.601 166.39 218.137"/>
         <polygon class="cls-2"
                  points="173.428 218.137 170.061 218.137 173.683 213.601 177.05 213.601 173.428 218.137"/>
         <polygon class="cls-2"
                  points="180.466 218.137 177.099 218.137 180.721 213.601 184.088 213.601 180.466 218.137"/>
         <polygon class="cls-2"
                  points="187.505 218.137 184.137 218.137 187.759 213.601 191.127 213.601 187.505 218.137"/>
         <polygon class="cls-2"
                  points="194.543 218.137 191.175 218.137 194.797 213.601 198.165 213.601 194.543 218.137"/>
         <polygon class="cls-2"
                  points="201.581 218.137 198.213 218.137 201.835 213.601 205.203 213.601 201.581 218.137"/>
         <polygon class="cls-2"
                  points="208.619 218.137 205.252 218.137 208.874 213.601 212.241 213.601 208.619 218.137"/>
         <polygon class="cls-2"
                  points="215.657 218.137 212.29 218.137 215.912 213.601 219.279 213.601 215.657 218.137"/>
         <polygon class="cls-2"
                  points="222.696 218.137 219.328 218.137 222.95 213.601 226.318 213.601 222.696 218.137"/>
         <polygon class="cls-2"
                  points="229.734 218.137 226.366 218.137 229.988 213.601 233.356 213.601 229.734 218.137"/>
         <polygon class="cls-2"
                  points="237.941 209.933 237.941 213.301 233.405 209.679 233.405 206.311 237.941 209.933"/>
         <polygon class="cls-2"
                  points="237.941 202.644 237.941 206.011 233.405 202.389 233.405 199.022 237.941 202.644"/>
         <polygon class="cls-2"
                  points="237.941 195.355 237.941 198.722 233.405 195.1 233.405 191.733 237.941 195.355"/>
         <polygon class="cls-2"
                  points="237.941 188.065 237.941 191.433 233.405 187.811 233.405 184.443 237.941 188.065"/>
         <polygon class="cls-2"
                  points="237.941 180.776 237.941 184.143 233.405 180.521 233.405 177.154 237.941 180.776"/>
         <polygon class="cls-2"
                  points="237.941 173.486 237.941 176.854 233.405 173.232 233.405 169.865 237.941 173.486"/>
         <polygon class="cls-2"
                  points="237.941 166.197 237.941 169.565 233.405 165.943 233.405 162.575 237.941 166.197"/>
         <polygon class="cls-2"
                  points="237.941 158.908 237.941 162.275 233.405 158.653 233.405 155.286 237.941 158.908"/>
      </g>
      <g>
         <polygon class="cls-2"
                  points="163.259 211.65 163.259 215.018 158.722 211.396 158.722 208.028 163.259 211.65"/>
         <polygon class="cls-2"
                  points="163.259 203.795 163.259 207.163 158.722 203.541 158.722 200.173 163.259 203.795"/>
         <polygon class="cls-2"
                  points="163.259 195.94 163.259 199.308 158.722 195.686 158.722 192.318 163.259 195.94"/>
         <polygon class="cls-2"
                  points="163.259 188.085 163.259 191.453 158.722 187.831 158.722 184.463 163.259 188.085"/>
         <polygon class="cls-2"
                  points="163.259 180.23 163.259 183.598 158.722 179.976 158.722 176.608 163.259 180.23"/>
         <polygon class="cls-2"
                  points="163.259 172.375 163.259 175.743 158.722 172.121 158.722 168.753 163.259 172.375"/>
         <polygon class="cls-2"
                  points="163.259 164.52 163.259 167.888 158.722 164.266 158.722 160.898 163.259 164.52"/>
         <polygon class="cls-2"
                  points="155.101 155.496 158.468 155.496 154.846 160.033 151.479 160.033 155.101 155.496"/>
         <polygon class="cls-2"
                  points="147.857 155.496 151.224 155.496 147.602 160.033 144.235 160.033 147.857 155.496"/>
         <polygon class="cls-2"
                  points="140.613 155.496 143.98 155.496 140.358 160.033 136.991 160.033 140.613 155.496"/>
         <polygon class="cls-2"
                  points="133.369 155.496 136.737 155.496 133.115 160.033 129.747 160.033 133.369 155.496"/>
         <polygon class="cls-2"
                  points="126.125 155.496 129.493 155.496 125.871 160.033 122.503 160.033 126.125 155.496"/>
         <polygon class="cls-2"
                  points="118.881 155.496 122.249 155.496 118.627 160.033 115.259 160.033 118.881 155.496"/>
         <polygon class="cls-2"
                  points="111.637 155.496 115.005 155.496 111.383 160.033 108.015 160.033 111.637 155.496"/>
         <polygon class="cls-2"
                  points="104.394 155.496 107.761 155.496 104.139 160.033 100.772 160.033 104.394 155.496"/>
         <polygon class="cls-2"
                  points="97.15 155.496 100.517 155.496 96.895 160.033 93.528 160.033 97.15 155.496"/>
         <polygon class="cls-2"
                  points="89.906 155.496 93.273 155.496 89.651 160.033 86.284 160.033 89.906 155.496"/>
         <polygon class="cls-2"
                  points="82.662 155.496 86.03 155.496 82.408 160.033 79.04 160.033 82.662 155.496"/>
         <polygon class="cls-2"
                  points="75.418 155.496 78.786 155.496 75.164 160.033 71.796 160.033 75.418 155.496"/>
         <polygon class="cls-2"
                  points="68.174 155.496 71.542 155.496 67.92 160.033 64.552 160.033 68.174 155.496"/>
         <polygon class="cls-2"
                  points="60.93 155.496 64.298 155.496 60.676 160.033 57.308 160.033 60.93 155.496"/>
         <polygon class="cls-2"
                  points="53.687 155.496 57.054 155.496 53.432 160.033 50.065 160.033 53.687 155.496"/>
         <polygon class="cls-2"
                  points="46.443 155.496 49.81 155.496 46.188 160.033 42.821 160.033 46.443 155.496"/>
         <polygon class="cls-2"
                  points="39.199 155.496 42.566 155.496 38.944 160.033 35.577 160.033 39.199 155.496"/>
      </g>
      <g>
         <polyline class="cls-3"
                   points="38.715 94.565 235.673 94.565 235.673 154.986 284.658 154.986"/>
         <polygon class="cls-2"
                  points="283.199 159.972 291.835 154.986 283.199 150 283.199 159.972"/>
      </g>
      <g>
         <polyline class="cls-3" points="160.991 94.579 160.991 36.461 33.718 36.461"/>
         <polygon class="cls-2"
                  points="35.177 31.475 26.542 36.461 35.177 41.447 35.177 31.475"/>
      </g>
      <g>
         <polygon class="cls-2"
                  points="41.982 218.217 38.615 218.217 42.237 213.681 45.604 213.681 41.982 218.217"/>
         <polygon class="cls-2"
                  points="49.009 218.217 45.642 218.217 49.263 213.681 52.631 213.681 49.009 218.217"/>
         <polygon class="cls-2"
                  points="56.036 218.217 52.668 218.217 56.29 213.681 59.658 213.681 56.036 218.217"/>
         <polygon class="cls-2"
                  points="63.063 218.217 59.695 218.217 63.317 213.681 66.685 213.681 63.063 218.217"/>
         <polygon class="cls-2"
                  points="70.09 218.217 66.722 218.217 70.344 213.681 73.712 213.681 70.09 218.217"/>
         <polygon class="cls-2"
                  points="77.117 218.217 73.749 218.217 77.371 213.681 80.739 213.681 77.117 218.217"/>
         <polygon class="cls-2"
                  points="84.144 218.217 80.776 218.217 84.398 213.681 87.765 213.681 84.144 218.217"/>
         <polygon class="cls-2"
                  points="91.17 218.217 87.803 218.217 91.425 213.681 94.792 213.681 91.17 218.217"/>
         <polygon class="cls-2"
                  points="98.197 218.217 94.83 218.217 98.452 213.681 101.819 213.681 98.197 218.217"/>
         <polygon class="cls-2"
                  points="105.224 218.217 101.857 218.217 105.479 213.681 108.846 213.681 105.224 218.217"/>
      </g>
      <g id="Artwork_30" data-name="Artwork 30">
         <g class="cls-4">
            <g class="cls-4">
               <line class="cls-5"
                     x1="186.3975"
                     y1="210.0825"
                     x2="186.3975"
                     y2="221.6355"/>
            </g>
            <path d="M175.8374,211.1882l9.083,4.56-9.083,4.561Zm-.75,10.337,11.506-5.777-11.506-5.776Z"/>
         </g>
      </g>
      <g id="Artwork_30-2" data-name="Artwork 30">
         <g class="cls-6">
            <g class="cls-6">
               <line class="cls-5"
                     x1="186.3975"
                     y1="88.7069"
                     x2="186.3975"
                     y2="100.2599"/>
            </g>
            <path d="M175.8374,89.8126l9.083,4.56-9.083,4.561Zm-.75,10.337,11.506-5.777-11.506-5.776Z"/>
         </g>
      </g>
   </g>
   <g id="Diagrams">
      <path class="cls-5" d="M200.917,216.0785H86.21"/>
      <path class="cls-5" d="M71.3225,216.0785H41.8688"/>
      <polyline class="cls-7" points="160.991 216.075 160.991 157.956 86.21 157.956"/>
      <polyline class="cls-5" points="215.389 216.075 235.673 216.075 235.673 154.986"/>
      <line class="cls-7"
            x1="70.6981"
            y1="157.9564"
            x2="53.5675"
            y2="157.9564"/>
      <path class="cls-5" d="M200.8333,94.7748H86.21"/>
      <path class="cls-5" d="M71.3225,94.7748H41.8688"/>
      <polyline class="cls-7" points="160.991 94.771 160.991 36.652 86.21 36.652"/>
      <polyline class="cls-5"
                points="215.556 94.771 235.673 94.771 235.673 154.986 277.835 154.986"/>
      <line class="cls-7"
            x1="70.6981"
            y1="36.6527"
            x2="53.5675"
            y2="36.6527"/>
   </g>
   <g id="Symbols">
      <g id="Rectifier">
         <g class="cls-8">
            <rect class="cls-9"
                  x="108.6584"
                  y="198.9985"
                  width="34.0183"
                  height="34.0183"/>
            <g class="cls-8">
               <rect class="cls-10"
                     x="108.6584"
                     y="198.9985"
                     width="34.0183"
                     height="34.0183"/>
               <line class="cls-10"
                     x1="142.674"
                     y1="198.9962"
                     x2="108.6566"
                     y2="233.0145"/>
            </g>
            <line class="cls-10"
                  x1="138.956"
                  y1="225.5726"
                  x2="129.3931"
                  y2="225.5726"/>
            <line class="cls-10"
                  x1="131.6446"
                  y1="227.6987"
                  x2="129.3937"
                  y2="227.6987"/>
            <line class="cls-10"
                  x1="135.3002"
                  y1="227.6987"
                  x2="133.0494"
                  y2="227.6987"/>
            <line class="cls-10"
                  x1="138.956"
                  y1="227.6987"
                  x2="136.7051"
                  y2="227.6987"/>
            <g class="cls-8">
               <path class="cls-10"
                     d="M112.4106,204.8971a2.1879,2.1879,0,0,1,2.1261-2.0062c1.0413,0,1.871.53,2.1261,2.0062a2.1382,2.1382,0,0,0,2.1262,2.0042,2.2979,2.2979,0,0,0,2.1261-2.0042"/>
            </g>
         </g>
      </g>
      <g id="Artwork_13" data-name="Artwork 13">
         <g class="cls-11">
            <g class="cls-11">
               <path class="cls-12"
                     d="M277.8346,153.116a2,2,0,1,1-2,2,2.0007,2.0007,0,0,1,2-2"/>
               <circle class="cls-5" cx="277.8346" cy="155.116" r="2"/>
            </g>
         </g>
      </g>
      <g id="Artwork_13-2" data-name="Artwork 13">
         <g class="cls-13">
            <g class="cls-13">
               <path class="cls-12"
                     d="M40.9675,214.0169a2,2,0,1,1-2,2,2.0007,2.0007,0,0,1,2-2"/>
               <circle class="cls-5" cx="40.9675" cy="216.0169" r="2"/>
            </g>
         </g>
      </g>
      <g id="Artwork_8" data-name="Artwork 8">
         <g class="cls-14">
            <g class="cls-15">
               <line class="cls-16"
                     x1="40.5535"
                     y1="165.2785"
                     x2="40.5535"
                     y2="150.5251"/>
               <line class="cls-17"
                     x1="38.5354"
                     y1="162.1442"
                     x2="38.5354"
                     y2="153.6596"/>
            </g>
            <line class="cls-18"
                  x1="40.3197"
                  y1="157.8937"
                  x2="51.3006"
                  y2="157.8937"/>
            <g class="cls-15">
               <line class="cls-16"
                     x1="53.3186"
                     y1="165.2706"
                     x2="53.3186"
                     y2="150.5172"/>
            </g>
            <line class="cls-17"
                  x1="51.3005"
                  y1="162.1359"
                  x2="51.3005"
                  y2="153.6513"/>
         </g>
      </g>
      <g id="Artwork_20_no_white" data-name="Artwork 20 no white">
         <g class="cls-19">
            <g class="cls-19">
               <line class="cls-5"
                     x1="71.5911"
                     y1="164.6717"
                     x2="86.2211"
                     y2="157.9057"/>
               <path d="M86.221,158.91h0a1,1,0,1,1,1-1,1.0029,1.0029,0,0,1-1,1"/>
               <path d="M71.5911,158.91h0a1,1,0,1,1,1-1,1.0029,1.0029,0,0,1-1,1"/>
            </g>
         </g>
      </g>
      <g id="Artwork_20_no_white-2" data-name="Artwork 20 no white">
         <g class="cls-20">
            <g class="cls-21">
               <line class="cls-5"
                     x1="71.5911"
                     y1="222.7938"
                     x2="86.2211"
                     y2="216.0278"/>
               <path d="M86.221,217.0321h0a1,1,0,1,1,1-1,1.0029,1.0029,0,0,1-1,1"/>
               <path d="M71.5911,217.0321h0a1,1,0,1,1,1-1,1.0029,1.0029,0,0,1-1,1"/>
            </g>
         </g>
      </g>
      <g id="Artwork_20_no_white-3" data-name="Artwork 20 no white">
         <g class="cls-22">
            <g class="cls-23">
               <line class="cls-5"
                     x1="200.898"
                     y1="222.7938"
                     x2="215.528"
                     y2="216.0278"/>
               <path d="M215.5279,217.0321h0a1,1,0,1,1,1-1,1.0029,1.0029,0,0,1-1,1"/>
               <path d="M200.898,217.0321h0a1,1,0,1,1,1-1,1.0029,1.0029,0,0,1-1,1"/>
            </g>
         </g>
      </g>
      <g id="Rectifier-2" data-name="Rectifier">
         <g class="cls-24">
            <rect class="cls-9"
                  x="108.6584"
                  y="77.6948"
                  width="34.0183"
                  height="34.0183"/>
            <g class="cls-24">
               <rect class="cls-10"
                     x="108.6584"
                     y="77.6948"
                     width="34.0183"
                     height="34.0183"/>
               <line class="cls-10"
                     x1="142.674"
                     y1="77.6925"
                     x2="108.6566"
                     y2="111.7108"/>
            </g>
            <line class="cls-10"
                  x1="138.956"
                  y1="104.2688"
                  x2="129.3931"
                  y2="104.2688"/>
            <line class="cls-10"
                  x1="131.6446"
                  y1="106.395"
                  x2="129.3937"
                  y2="106.395"/>
            <line class="cls-10"
                  x1="135.3002"
                  y1="106.395"
                  x2="133.0494"
                  y2="106.395"/>
            <line class="cls-10"
                  x1="138.956"
                  y1="106.395"
                  x2="136.7051"
                  y2="106.395"/>
            <g class="cls-24">
               <path class="cls-10"
                     d="M112.4106,83.5933a2.1879,2.1879,0,0,1,2.1261-2.0061c1.0413,0,1.871.53,2.1261,2.0061a2.1382,2.1382,0,0,0,2.1262,2.0043,2.298,2.298,0,0,0,2.1261-2.0043"/>
            </g>
         </g>
      </g>
      <g id="Artwork_13-3" data-name="Artwork 13">
         <g class="cls-25">
            <g class="cls-25">
               <path class="cls-12"
                     d="M40.9675,92.7131a2,2,0,1,1-2,2,2.0007,2.0007,0,0,1,2-2"/>
               <circle class="cls-5" cx="40.9675" cy="94.7131" r="2"/>
            </g>
         </g>
      </g>
      <g id="Artwork_8-2" data-name="Artwork 8">
         <g class="cls-26">
            <g class="cls-27">
               <line class="cls-16"
                     x1="40.5535"
                     y1="43.9747"
                     x2="40.5535"
                     y2="29.2214"/>
               <line class="cls-17"
                     x1="38.5354"
                     y1="40.8404"
                     x2="38.5354"
                     y2="32.3559"/>
            </g>
            <line class="cls-18"
                  x1="40.3197"
                  y1="36.5899"
                  x2="51.3006"
                  y2="36.5899"/>
            <g class="cls-27">
               <line class="cls-16"
                     x1="53.3186"
                     y1="43.9668"
                     x2="53.3186"
                     y2="29.2134"/>
            </g>
            <line class="cls-17"
                  x1="51.3005"
                  y1="40.8321"
                  x2="51.3005"
                  y2="32.3475"/>
         </g>
      </g>
      <g id="Artwork_20_no_white-4" data-name="Artwork 20 no white">
         <g class="cls-28">
            <g class="cls-29">
               <line class="cls-5"
                     x1="71.5911"
                     y1="43.368"
                     x2="86.2211"
                     y2="36.602"/>
               <path d="M86.221,37.6063h0a1,1,0,1,1,1-1,1.0029,1.0029,0,0,1-1,1"/>
               <path d="M71.5911,37.6063h0a1,1,0,1,1,1-1,1.0029,1.0029,0,0,1-1,1"/>
            </g>
         </g>
      </g>
      <g id="Artwork_20_no_white-5" data-name="Artwork 20 no white">
         <g class="cls-30">
            <g class="cls-30">
               <line class="cls-5"
                     x1="71.5911"
                     y1="101.4901"
                     x2="86.2211"
                     y2="94.7241"/>
               <path d="M86.221,95.7284h0a1,1,0,1,1,1-1,1.0029,1.0029,0,0,1-1,1"/>
               <path d="M71.5911,95.7284h0a1,1,0,1,1,1-1,1.0029,1.0029,0,0,1-1,1"/>
            </g>
         </g>
      </g>
      <g id="Artwork_20_no_white-6" data-name="Artwork 20 no white">
         <g class="cls-31">
            <g class="cls-31">
               <line class="cls-5"
                     x1="200.898"
                     y1="101.4901"
                     x2="215.528"
                     y2="94.7241"/>
               <path d="M215.5279,95.7284h0a1,1,0,1,1,1-1,1.0029,1.0029,0,0,1-1,1"/>
               <path d="M200.898,95.7284h0a1,1,0,1,1,1-1,1.0029,1.0029,0,0,1-1,1"/>
            </g>
         </g>
      </g>
   </g>
   <g id="Text">
      <text class="cls-32" transform="translate(24.4533 145.8936)">BATTERY</text>
      <text class="cls-32" transform="translate(14.5786 194.0068)">RECTIFIER<tspan x="10.2783" y="12">MAINS</tspan>
      </text>
      <text class="cls-32" transform="translate(98.8751 194.0066)">RECTIFIER</text>
      <text class="cls-32" transform="translate(257.2809 143.1153)">OUTPUT</text>
      <text class="cls-32" transform="translate(24.4533 24.59)">BATTERY</text>
      <text class="cls-32" transform="translate(14.5786 72.7036)">RECTIFIER<tspan x="10.2783" y="12">MAINS</tspan>
      </text>
      <text class="cls-32" transform="translate(98.8751 72.7034)">RECTIFIER</text>
   </g>
</svg>
