<?xml version="1.0" encoding="UTF-8"?>
<svg xmlns="http://www.w3.org/2000/svg"
     xmlns:xlink="http://www.w3.org/1999/xlink"
     width="95mm"
     height="40mm"
     viewBox="0 0 269.2913 113.3858">
   <defs>
      <style>
      .cls-1, .cls-12, .cls-13, .cls-14, .cls-2, .cls-3, .cls-6 {
        fill: none;
      }

      .cls-12, .cls-13, .cls-14, .cls-2, .cls-3, .cls-6 {
        stroke: #000;
      }

      .cls-12, .cls-13, .cls-14, .cls-2, .cls-6 {
        stroke-miterlimit: 3;
      }

      .cls-2, .cls-3 {
        stroke-width: 0.75px;
      }

      .cls-3 {
        stroke-miterlimit: 10;
      }

      .cls-4 {
        clip-path: url(#clip-path);
      }

      .cls-5, .cls-8 {
        fill: #fff;
      }

      .cls-6 {
        stroke-width: 0.7087px;
      }

      .cls-7 {
        clip-path: url(#clip-path-4);
      }

      .cls-8 {
        fill-rule: evenodd;
      }

      .cls-9 {
        clip-path: url(#clip-path-6);
      }

      .cls-10 {
        clip-path: url(#clip-path-8);
      }

      .cls-11 {
        clip-path: url(#clip-path-9);
      }

      .cls-12, .cls-14 {
        stroke-width: 0.7513px;
      }

      .cls-13 {
        stroke-width: 1.2522px;
      }

      .cls-14 {
        stroke-dasharray: 2.0034 1.0017;
      }

      .cls-15 {
        clip-path: url(#clip-path-11);
      }

      .cls-16 {
        clip-path: url(#clip-path-12);
      }

      .cls-17 {
        clip-path: url(#clip-path-13);
      }

      .cls-18 {
        clip-path: url(#clip-path-14);
      }

      .cls-19 {
        clip-path: url(#clip-path-15);
      }

      .cls-20 {
        font-size: 10px;
        fill: #01889C;
        font-family: Arial-BoldMT, Arial;
        font-weight: 700;
      }

      .cls-21 {
        clip-path: url(#clip-path-17);
      }
    </style>
      <clipPath id="clip-path">
         <rect class="cls-1"
               x="107.9488"
               y="69.2187"
               width="35.4357"
               height="39.688"/>
      </clipPath>
      <clipPath id="clip-path-4">
         <rect class="cls-1"
               x="232.9283"
               y="86.01"
               width="6.125"
               height="6.125"/>
      </clipPath>
      <clipPath id="clip-path-6">
         <rect class="cls-1"
               x="37.9051"
               y="86.01"
               width="6.125"
               height="6.125"/>
      </clipPath>
      <clipPath id="clip-path-8">
         <rect class="cls-1"
               x="37.9171"
               y="23.5731"
               width="15.6504"
               height="14.7535"/>
      </clipPath>
      <clipPath id="clip-path-9">
         <rect class="cls-1"
               x="37.9171"
               y="23.5732"
               width="15.6509"
               height="14.7534"/>
      </clipPath>
      <clipPath id="clip-path-11">
         <rect class="cls-1"
               x="70.591"
               y="22.8162"
               width="16.63"
               height="16.2683"/>
      </clipPath>
      <clipPath id="clip-path-12">
         <rect class="cls-1"
               x="70.591"
               y="22.8165"
               width="16.63"
               height="16.268"/>
      </clipPath>
      <clipPath id="clip-path-13">
         <rect class="cls-1"
               x="70.591"
               y="80.9383"
               width="16.63"
               height="16.2683"/>
      </clipPath>
      <clipPath id="clip-path-14">
         <rect class="cls-1"
               x="70.591"
               y="80.9386"
               width="16.63"
               height="16.268"/>
      </clipPath>
      <clipPath id="clip-path-15">
         <rect class="cls-1"
               x="197.5567"
               y="81.1156"
               width="16.63"
               height="16.2683"/>
      </clipPath>
      <clipPath id="clip-path-17">
         <rect class="cls-1"
               x="156.0692"
               y="83.0553"
               width="12.4579"
               height="12.1509"/>
      </clipPath>
   </defs>
   <g id="Paths">
      <path class="cls-2" d="M234.2447,89.1346H86.21"/>
      <path class="cls-2" d="M71.3225,89.1346H41.8688"/>
      <polyline class="cls-3" points="180.409 89.131 180.409 31.012 86.21 31.012"/>
      <line class="cls-3"
            x1="70.6981"
            y1="31.0125"
            x2="53.5675"
            y2="31.0125"/>
   </g>
   <g id="Parts">
      <g id="Rectifier">
         <g class="cls-4">
            <rect class="cls-5"
                  x="108.6584"
                  y="72.0545"
                  width="34.0183"
                  height="34.0183"/>
            <g class="cls-4">
               <rect class="cls-6"
                     x="108.6584"
                     y="72.0545"
                     width="34.0183"
                     height="34.0183"/>
               <line class="cls-6"
                     x1="142.674"
                     y1="72.0523"
                     x2="108.6566"
                     y2="106.0706"/>
            </g>
            <line class="cls-6"
                  x1="138.956"
                  y1="98.6286"
                  x2="129.3931"
                  y2="98.6286"/>
            <line class="cls-6"
                  x1="131.6446"
                  y1="100.7547"
                  x2="129.3937"
                  y2="100.7547"/>
            <line class="cls-6"
                  x1="135.3002"
                  y1="100.7547"
                  x2="133.0494"
                  y2="100.7547"/>
            <line class="cls-6"
                  x1="138.956"
                  y1="100.7547"
                  x2="136.7051"
                  y2="100.7547"/>
            <g class="cls-4">
               <path class="cls-6"
                     d="M112.4106,77.9531a2.1878,2.1878,0,0,1,2.1261-2.0061c1.0413,0,1.871.53,2.1261,2.0061a2.1383,2.1383,0,0,0,2.1262,2.0043,2.298,2.298,0,0,0,2.1261-2.0043"/>
            </g>
         </g>
      </g>
      <g id="Artwork_13" data-name="Artwork 13">
         <g class="cls-7">
            <g class="cls-7">
               <path class="cls-8"
                     d="M235.9907,87.0729a2,2,0,1,1-2,2,2.0007,2.0007,0,0,1,2-2"/>
               <circle class="cls-2" cx="235.9907" cy="89.0729" r="2"/>
            </g>
         </g>
      </g>
      <g id="Artwork_13-2" data-name="Artwork 13">
         <g class="cls-9">
            <g class="cls-9">
               <path class="cls-8"
                     d="M40.9675,87.0729a2,2,0,1,1-2,2,2.0007,2.0007,0,0,1,2-2"/>
               <circle class="cls-2" cx="40.9675" cy="89.0729" r="2"/>
            </g>
         </g>
      </g>
      <g id="Artwork_8" data-name="Artwork 8">
         <g class="cls-10">
            <g class="cls-11">
               <line class="cls-12"
                     x1="40.5535"
                     y1="38.3345"
                     x2="40.5535"
                     y2="23.5811"/>
               <line class="cls-13"
                     x1="38.5354"
                     y1="35.2002"
                     x2="38.5354"
                     y2="26.7156"/>
            </g>
            <line class="cls-14"
                  x1="40.3197"
                  y1="30.9497"
                  x2="51.3006"
                  y2="30.9497"/>
            <g class="cls-11">
               <line class="cls-12"
                     x1="53.3186"
                     y1="38.3266"
                     x2="53.3186"
                     y2="23.5732"/>
            </g>
            <line class="cls-13"
                  x1="51.3005"
                  y1="35.1919"
                  x2="51.3005"
                  y2="26.7073"/>
         </g>
      </g>
      <g id="Artwork_20_no_white" data-name="Artwork 20 no white">
         <g class="cls-15">
            <g class="cls-16">
               <line class="cls-2"
                     x1="71.5911"
                     y1="37.7277"
                     x2="86.2211"
                     y2="30.9617"/>
               <path d="M86.221,31.966h0a1,1,0,1,1,1-1,1.0029,1.0029,0,0,1-1,1"/>
               <path d="M71.5911,31.966h0a1,1,0,1,1,1-1,1.0029,1.0029,0,0,1-1,1"/>
            </g>
         </g>
      </g>
      <g id="Artwork_20_no_white-2" data-name="Artwork 20 no white">
         <g class="cls-17">
            <g class="cls-18">
               <line class="cls-2"
                     x1="71.5911"
                     y1="95.8498"
                     x2="86.2211"
                     y2="89.0838"/>
               <path d="M86.221,90.0881h0a1,1,0,1,1,1-1,1.0029,1.0029,0,0,1-1,1"/>
               <path d="M71.5911,90.0881h0a1,1,0,1,1,1-1,1.0029,1.0029,0,0,1-1,1"/>
            </g>
         </g>
      </g>
      <g id="Artwork_20" data-name="Artwork 20">
         <g class="cls-19">
            <rect class="cls-5"
                  x="198.5747"
                  y="86.7489"
                  width="14.612"
                  height="5.032"/>
            <g class="cls-19">
               <line class="cls-2"
                     x1="198.5568"
                     y1="96.0271"
                     x2="213.1868"
                     y2="89.2611"/>
               <path d="M213.1867,90.2654h0a1,1,0,1,1,1-1,1.0029,1.0029,0,0,1-1,1"/>
               <path d="M198.5568,90.2654h0a1,1,0,1,1,1-1,1.0029,1.0029,0,0,1-1,1"/>
            </g>
         </g>
      </g>
   </g>
   <g id="Text">
      <text class="cls-20" transform="translate(24.4533 18.9497)">BATTERY</text>
      <text class="cls-20" transform="translate(14.5786 67.0632)">RECTIFIER<tspan x="10.2783" y="12">MAINS</tspan>
      </text>
      <text class="cls-20" transform="translate(98.8751 67.063)">RECTIFIER</text>
      <text class="cls-20" transform="translate(215.4371 77.072)">OUTPUT</text>
      <g id="Artwork_30" data-name="Artwork 30">
         <g class="cls-21">
            <g class="cls-21">
               <line class="cls-2"
                     x1="167.8716"
                     y1="83.4098"
                     x2="167.8716"
                     y2="94.9628"/>
            </g>
            <polygon class="cls-5"
                     points="156.936 94.245 167.231 89.075 156.936 83.907 156.936 94.245"/>
            <path d="M157.3115,84.5155l9.083,4.56-9.083,4.561Zm-.75,10.337,11.506-5.777L156.5615,83.3Z"/>
         </g>
      </g>
   </g>
</svg>
