<?xml version="1.0" encoding="UTF-8"?>
<svg xmlns="http://www.w3.org/2000/svg"
     xmlns:xlink="http://www.w3.org/1999/xlink"
     width="145mm"
     height="107mm"
     viewBox="0 0 411.0236 303.3071">
   <defs>
      <style>
      .cls-1, .cls-14, .cls-15, .cls-17, .cls-18, .cls-25, .cls-28, .cls-3, .cls-5 {
        fill: none;
      }

      .cls-2 {
        fill: #c6c6c6;
      }

      .cls-3 {
        stroke: #c6c6c6;
        stroke-width: 5px;
      }

      .cls-14, .cls-15, .cls-17, .cls-18, .cls-28, .cls-3, .cls-5 {
        stroke-miterlimit: 3;
      }

      .cls-4 {
        clip-path: url(#clip-path);
      }

      .cls-17, .cls-18, .cls-25, .cls-28, .cls-5 {
        stroke: #000;
      }

      .cls-25, .cls-5 {
        stroke-width: 0.75px;
      }

      .cls-6 {
        clip-path: url(#clip-path-3);
      }

      .cls-7 {
        clip-path: url(#clip-path-5);
      }

      .cls-8 {
        clip-path: url(#clip-path-7);
      }

      .cls-9 {
        clip-path: url(#clip-path-9);
      }

      .cls-10 {
        clip-path: url(#clip-path-11);
      }

      .cls-11 {
        clip-path: url(#clip-path-13);
      }

      .cls-12 {
        clip-path: url(#clip-path-14);
      }

      .cls-13 {
        clip-path: url(#clip-path-15);
      }

      .cls-14, .cls-15 {
        stroke: #626469;
      }

      .cls-14, .cls-15, .cls-17 {
        stroke-width: 0.5px;
      }

      .cls-14 {
        stroke-dasharray: 2 1;
      }

      .cls-16, .cls-33 {
        fill-rule: evenodd;
      }

      .cls-18 {
        stroke-width: 2px;
      }

      .cls-19 {
        fill: #626469;
      }

      .cls-20 {
        isolation: isolate;
      }

      .cls-21 {
        clip-path: url(#clip-path-17);
      }

      .cls-22 {
        font-size: 6px;
      }

      .cls-22, .cls-31, .cls-48, .cls-49 {
        fill: #01889C;
      }

      .cls-22, .cls-31, .cls-48 {
        font-family: Arial-BoldMT, Arial;
        font-weight: 700;
      }

      .cls-23 {
        clip-path: url(#clip-path-18);
      }

      .cls-24 {
        clip-path: url(#clip-path-19);
      }

      .cls-25 {
        stroke-miterlimit: 10;
      }

      .cls-26 {
        clip-path: url(#clip-path-20);
      }

      .cls-27, .cls-33 {
        fill: #fff;
      }

      .cls-28 {
        stroke-width: 0.7087px;
      }

      .cls-29 {
        clip-path: url(#clip-path-23);
      }

      .cls-30 {
        clip-path: url(#clip-path-26);
      }

      .cls-31 {
        font-size: 8px;
      }

      .cls-32 {
        clip-path: url(#clip-path-27);
      }

      .cls-34 {
        clip-path: url(#clip-path-29);
      }

      .cls-35 {
        clip-path: url(#clip-path-31);
      }

      .cls-36 {
        clip-path: url(#clip-path-33);
      }

      .cls-37 {
        clip-path: url(#clip-path-35);
      }

      .cls-38 {
        clip-path: url(#clip-path-38);
      }

      .cls-39 {
        clip-path: url(#clip-path-41);
      }

      .cls-40 {
        clip-path: url(#clip-path-44);
      }

      .cls-41 {
        clip-path: url(#clip-path-45);
      }

      .cls-42 {
        clip-path: url(#clip-path-47);
      }

      .cls-43 {
        clip-path: url(#clip-path-49);
      }

      .cls-44 {
        clip-path: url(#clip-path-51);
      }

      .cls-45 {
        clip-path: url(#clip-path-54);
      }

      .cls-46 {
        clip-path: url(#clip-path-56);
      }

      .cls-47 {
        clip-path: url(#clip-path-58);
      }

      .cls-48 {
        font-size: 10px;
      }

      .cls-50 {
        clip-path: url(#clip-path-60);
      }
    </style>
      <clipPath id="clip-path">
         <rect class="cls-1"
               x="70.0964"
               y="24.3348"
               width="16.63"
               height="16.2683"/>
      </clipPath>
      <clipPath id="clip-path-3">
         <rect class="cls-1"
               x="70.0964"
               y="142.1295"
               width="16.63"
               height="16.2683"/>
      </clipPath>
      <clipPath id="clip-path-5">
         <rect class="cls-1"
               x="70.0964"
               y="273.1828"
               width="16.63"
               height="16.2683"/>
      </clipPath>
      <clipPath id="clip-path-7">
         <rect class="cls-1"
               x="243.0186"
               y="273.1828"
               width="16.63"
               height="16.2683"/>
      </clipPath>
      <clipPath id="clip-path-9">
         <rect class="cls-1"
               x="243.0186"
               y="142.1295"
               width="16.63"
               height="16.2683"/>
      </clipPath>
      <clipPath id="clip-path-11">
         <rect class="cls-1"
               x="243.0186"
               y="182.2426"
               width="16.63"
               height="16.2683"/>
      </clipPath>
      <clipPath id="clip-path-13">
         <rect class="cls-1"
               x="243.0186"
               y="51.1663"
               width="16.63"
               height="16.2683"/>
      </clipPath>
      <clipPath id="clip-path-14">
         <rect class="cls-1"
               x="243.0187"
               y="51.1666"
               width="16.63"
               height="16.268"/>
      </clipPath>
      <clipPath id="clip-path-15">
         <rect class="cls-1"
               x="270.7332"
               y="41.2577"
               width="76.0871"
               height="111.3019"/>
      </clipPath>
      <clipPath id="clip-path-17">
         <rect class="cls-1"
               x="283.9031"
               y="41.6627"
               width="24.6738"
               height="7.406"/>
      </clipPath>
      <clipPath id="clip-path-18">
         <rect class="cls-1"
               x="293.2429"
               y="47.6627"
               width="15.334"
               height="7.4061"/>
      </clipPath>
      <clipPath id="clip-path-19">
         <rect class="cls-1"
               x="291.5788"
               y="53.662"
               width="16.9981"
               height="7.4063"/>
      </clipPath>
      <clipPath id="clip-path-20">
         <rect class="cls-1"
               x="110.2003"
               y="130.4256"
               width="35.4339"
               height="39.686"/>
      </clipPath>
      <clipPath id="clip-path-23">
         <rect class="cls-1"
               x="176.8885"
               y="90.2768"
               width="46.833"
               height="32"/>
      </clipPath>
      <clipPath id="clip-path-26">
         <rect class="cls-1"
               x="208.5985"
               y="114.125"
               width="11.1133"
               height="9.875"/>
      </clipPath>
      <clipPath id="clip-path-27">
         <rect class="cls-1"
               x="38.2525"
               y="147.2159"
               width="6.125"
               height="6.125"/>
      </clipPath>
      <clipPath id="clip-path-29">
         <rect class="cls-1"
               x="231.0391"
               y="147.9777"
               width="4.5709"
               height="4.5819"/>
      </clipPath>
      <clipPath id="clip-path-31">
         <rect class="cls-1"
               x="38.2525"
               y="29.4065"
               width="6.125"
               height="6.125"/>
      </clipPath>
      <clipPath id="clip-path-33">
         <rect class="cls-1"
               x="176.8885"
               y="134.2687"
               width="46.833"
               height="32"/>
      </clipPath>
      <clipPath id="clip-path-35">
         <rect class="cls-1"
               x="208.5985"
               y="158.1168"
               width="11.1133"
               height="9.875"/>
      </clipPath>
      <clipPath id="clip-path-38">
         <rect class="cls-1"
               x="110.2003"
               y="261.4612"
               width="35.4339"
               height="39.686"/>
      </clipPath>
      <clipPath id="clip-path-41">
         <rect class="cls-1"
               x="176.8885"
               y="221.3124"
               width="46.833"
               height="32"/>
      </clipPath>
      <clipPath id="clip-path-44">
         <rect class="cls-1"
               x="208.5985"
               y="245.1606"
               width="11.1133"
               height="9.875"/>
      </clipPath>
      <clipPath id="clip-path-45">
         <rect class="cls-1"
               x="38.2525"
               y="278.2515"
               width="6.125"
               height="6.125"/>
      </clipPath>
      <clipPath id="clip-path-47">
         <rect class="cls-1"
               x="231.0391"
               y="279.0133"
               width="4.5709"
               height="4.5819"/>
      </clipPath>
      <clipPath id="clip-path-49">
         <rect class="cls-1"
               x="176.8885"
               y="265.3042"
               width="46.833"
               height="32"/>
      </clipPath>
      <clipPath id="clip-path-51">
         <rect class="cls-1"
               x="208.5985"
               y="289.1524"
               width="11.1133"
               height="9.875"/>
      </clipPath>
      <clipPath id="clip-path-54">
         <rect class="cls-1"
               x="374.2615"
               y="138.9095"
               width="6.125"
               height="6.125"/>
      </clipPath>
      <clipPath id="clip-path-56">
         <rect class="cls-1"
               x="272.906"
               y="56.8126"
               width="4.5709"
               height="4.5819"/>
      </clipPath>
      <clipPath id="clip-path-58">
         <rect class="cls-1"
               x="281.0401"
               y="148.0073"
               width="4.5709"
               height="4.5819"/>
      </clipPath>
      <clipPath id="clip-path-60">
         <rect class="cls-1"
               x="267.156"
               y="142.0356"
               width="16.2683"
               height="16.63"/>
      </clipPath>
   </defs>
   <g id="Paths">
      <g>
         <polygon class="cls-2"
                  points="42.679 35.286 39.311 35.285 42.936 30.75 46.303 30.752 42.679 35.286"/>
         <polygon class="cls-2"
                  points="49.769 35.29 46.402 35.289 50.026 30.754 53.394 30.756 49.769 35.29"/>
         <polygon class="cls-2"
                  points="56.86 35.294 53.493 35.293 57.117 30.758 60.485 30.76 56.86 35.294"/>
         <polygon class="cls-2"
                  points="63.951 35.298 60.583 35.297 64.208 30.762 67.576 30.764 63.951 35.298"/>
         <polygon class="cls-2"
                  points="71.042 35.302 67.674 35.301 71.299 30.766 74.666 30.768 71.042 35.302"/>
         <polygon class="cls-2"
                  points="78.133 35.306 74.765 35.305 78.39 30.77 81.757 30.772 78.133 35.306"/>
         <polygon class="cls-2"
                  points="85.223 35.311 81.856 35.309 85.48 30.774 88.848 30.776 85.223 35.311"/>
         <polygon class="cls-2"
                  points="92.314 35.315 88.947 35.313 92.571 30.778 95.939 30.78 92.314 35.315"/>
         <polygon class="cls-2"
                  points="99.405 35.319 96.037 35.317 99.662 30.782 103.029 30.784 99.405 35.319"/>
         <polygon class="cls-2"
                  points="106.496 35.323 103.128 35.321 106.753 30.786 110.12 30.788 106.496 35.323"/>
         <polygon class="cls-2"
                  points="113.587 35.327 110.219 35.325 113.843 30.79 117.211 30.792 113.587 35.327"/>
         <polygon class="cls-2"
                  points="120.677 35.331 117.31 35.329 120.934 30.794 124.302 30.796 120.677 35.331"/>
         <polygon class="cls-2"
                  points="127.768 35.335 124.401 35.333 128.025 30.798 131.393 30.8 127.768 35.335"/>
         <polygon class="cls-2"
                  points="134.859 35.339 131.491 35.337 135.116 30.802 138.483 30.804 134.859 35.339"/>
         <polygon class="cls-2"
                  points="141.95 35.343 138.582 35.341 142.207 30.806 145.574 30.808 141.95 35.343"/>
         <polygon class="cls-2"
                  points="149.04 35.347 145.673 35.345 149.297 30.81 152.665 30.812 149.04 35.347"/>
         <polygon class="cls-2"
                  points="156.131 35.351 152.764 35.349 156.388 30.814 159.756 30.816 156.131 35.351"/>
         <polygon class="cls-2"
                  points="163.222 35.355 159.854 35.353 163.479 30.818 166.847 30.82 163.222 35.355"/>
         <polygon class="cls-2"
                  points="170.313 35.359 166.945 35.357 170.57 30.822 173.937 30.824 170.313 35.359"/>
         <polygon class="cls-2"
                  points="177.404 35.363 174.036 35.361 177.661 30.827 181.028 30.828 177.404 35.363"/>
         <polygon class="cls-2"
                  points="184.494 35.367 181.127 35.365 184.751 30.831 188.119 30.832 184.494 35.367"/>
         <polygon class="cls-2"
                  points="191.585 35.371 188.218 35.369 191.842 30.835 195.21 30.837 191.585 35.371"/>
         <polygon class="cls-2"
                  points="198.676 35.375 195.308 35.373 198.933 30.839 202.301 30.841 198.676 35.375"/>
         <polygon class="cls-2"
                  points="205.767 35.379 202.399 35.377 206.024 30.843 209.391 30.845 205.767 35.379"/>
         <polygon class="cls-2"
                  points="212.858 35.383 209.49 35.381 213.115 30.847 216.482 30.849 212.858 35.383"/>
         <polygon class="cls-2"
                  points="219.948 35.387 216.581 35.385 220.205 30.851 223.573 30.853 219.948 35.387"/>
         <polygon class="cls-2"
                  points="227.039 35.391 223.672 35.389 227.296 30.855 230.664 30.857 227.039 35.391"/>
         <polygon class="cls-2"
                  points="234.13 35.395 230.762 35.393 234.387 30.859 237.755 30.861 234.13 35.395"/>
         <polygon class="cls-2"
                  points="241.221 35.399 237.853 35.397 241.478 30.863 244.845 30.865 241.221 35.399"/>
         <polygon class="cls-2"
                  points="248.312 35.403 244.944 35.401 248.569 30.867 251.936 30.869 248.312 35.403"/>
         <polygon class="cls-2"
                  points="255.402 35.407 252.035 35.405 255.659 30.871 259.027 30.873 255.402 35.407"/>
         <polygon class="cls-2"
                  points="262.493 35.411 259.126 35.41 262.75 30.875 266.118 30.877 262.493 35.411"/>
         <polygon class="cls-2"
                  points="269.584 35.415 266.216 35.414 269.841 30.879 273.208 30.881 269.584 35.415"/>
         <polygon class="cls-2"
                  points="276.675 35.419 273.307 35.418 276.932 30.883 280.299 30.885 276.675 35.419"/>
         <polygon class="cls-2"
                  points="283.766 35.423 280.398 35.422 284.022 30.887 287.39 30.889 283.766 35.423"/>
         <polygon class="cls-2"
                  points="290.856 35.427 287.489 35.426 291.113 30.891 294.481 30.893 290.856 35.427"/>
         <polygon class="cls-2"
                  points="297.947 35.431 294.58 35.43 298.204 30.895 301.572 30.897 297.947 35.431"/>
         <polygon class="cls-2"
                  points="305.038 35.436 301.67 35.434 305.295 30.899 308.662 30.901 305.038 35.436"/>
         <polygon class="cls-2"
                  points="312.129 35.44 308.761 35.438 312.386 30.903 315.753 30.905 312.129 35.44"/>
         <polygon class="cls-2"
                  points="319.219 35.444 315.852 35.442 319.476 30.907 322.844 30.909 319.219 35.444"/>
         <polygon class="cls-2"
                  points="326.31 35.448 322.943 35.446 326.567 30.911 329.935 30.913 326.31 35.448"/>
         <polygon class="cls-2"
                  points="330.036 39.005 330.034 35.637 334.573 39.255 334.576 42.623 330.036 39.005"/>
         <polygon class="cls-2"
                  points="330.042 46.181 330.039 42.814 334.579 46.432 334.581 49.8 330.042 46.181"/>
         <polygon class="cls-2"
                  points="330.047 53.358 330.045 49.991 334.584 53.609 334.587 56.977 330.047 53.358"/>
         <polygon class="cls-2"
                  points="330.053 60.535 330.05 57.167 334.59 60.786 334.592 64.153 330.053 60.535"/>
         <polygon class="cls-2"
                  points="330.059 67.712 330.056 64.344 334.595 67.963 334.598 71.33 330.059 67.712"/>
         <path class="cls-2"
               d="M326.2543,71.521h3.3676L326,76.0576h-2.6092a1.5778,1.5778,0,0,1-.0542-.2075,1.1055,1.1055,0,0,1,.3255-1.0823l.8641-1.0823Z"/>
         <polygon class="cls-2"
                  points="318.223 73.755 321.16 72.107 320.221 77.836 317.284 79.483 318.223 73.755"/>
         <polygon class="cls-2"
                  points="311.744 77.389 314.681 75.742 313.742 81.47 310.805 83.118 311.744 77.389"/>
         <path class="cls-2"
               d="M306.0924,79.6551h1.6123l.4969-.2787c-.0472.3047-.1073.6167-.144.9156a2.0422,2.0422,0,0,1,.0276.8192,4.8472,4.8472,0,0,1-1.0175,1.54l-1.23,1.54H302.47Z"/>
         <polygon class="cls-2"
                  points="298.663 79.655 302.031 79.655 298.409 84.192 295.041 84.192 298.663 79.655"/>
         <polygon class="cls-2"
                  points="291.234 79.655 294.602 79.655 290.98 84.192 287.612 84.192 291.234 79.655"/>
         <polygon class="cls-2"
                  points="287.172 74.913 287.172 78.28 282.636 74.658 282.636 71.291 287.172 74.913"/>
         <polygon class="cls-2"
                  points="287.172 66.549 287.172 69.916 282.636 66.294 282.636 62.927 287.172 66.549"/>
         <polygon class="cls-2"
                  points="279.087 57.016 282.455 57.015 278.834 61.552 275.466 61.553 279.087 57.016"/>
         <polygon class="cls-2"
                  points="271.918 57.017 275.285 57.016 271.664 61.553 268.296 61.554 271.918 57.017"/>
         <polygon class="cls-2"
                  points="264.748 57.018 268.115 57.017 264.494 61.554 261.126 61.555 264.748 57.018"/>
         <polygon class="cls-2"
                  points="257.578 57.018 260.946 57.018 257.324 61.555 253.957 61.556 257.578 57.018"/>
         <polygon class="cls-2"
                  points="250.408 57.019 253.776 57.019 250.154 61.556 246.787 61.556 250.408 57.019"/>
         <polygon class="cls-2"
                  points="243.238 57.02 246.606 57.02 242.985 61.557 239.617 61.557 243.238 57.02"/>
         <polygon class="cls-2"
                  points="236.069 57.021 239.436 57.021 235.815 61.558 232.447 61.558 236.069 57.021"/>
         <polygon class="cls-2"
                  points="228.899 57.022 232.266 57.022 228.645 61.559 225.277 61.559 228.899 57.022"/>
         <polygon class="cls-2"
                  points="221.729 57.023 225.096 57.023 221.475 61.56 218.108 61.56 221.729 57.023"/>
         <polygon class="cls-2"
                  points="214.559 57.024 217.927 57.024 214.305 61.561 210.938 61.561 214.559 57.024"/>
         <polygon class="cls-2"
                  points="207.389 57.025 210.757 57.025 207.135 61.561 203.768 61.562 207.389 57.025"/>
         <polygon class="cls-2"
                  points="200.219 57.026 203.587 57.025 199.966 61.562 196.598 61.563 200.219 57.026"/>
         <polygon class="cls-2"
                  points="193.05 57.027 196.417 57.026 192.796 61.563 189.428 61.564 193.05 57.027"/>
         <polygon class="cls-2"
                  points="185.88 57.028 189.247 57.027 185.626 61.564 182.258 61.565 185.88 57.028"/>
         <polygon class="cls-2"
                  points="178.71 57.029 182.078 57.028 178.456 61.565 175.089 61.566 178.71 57.029"/>
         <polygon class="cls-2"
                  points="171.54 57.03 174.908 57.029 171.286 61.566 167.919 61.567 171.54 57.03"/>
         <polygon class="cls-2"
                  points="164.37 57.03 167.738 57.03 164.117 61.567 160.749 61.567 164.37 57.03"/>
         <polygon class="cls-2"
                  points="157.201 57.031 160.568 57.031 156.947 61.568 153.579 61.568 157.201 57.031"/>
         <polygon class="cls-2"
                  points="148.862 65 148.862 61.632 153.399 65.254 153.399 68.622 148.862 65"/>
         <polygon class="cls-2"
                  points="148.862 72.054 148.862 68.686 153.399 72.308 153.399 75.676 148.862 72.054"/>
         <polygon class="cls-2"
                  points="148.862 79.107 148.862 75.74 153.399 79.362 153.399 82.729 148.862 79.107"/>
         <polygon class="cls-2"
                  points="148.862 86.161 148.862 82.793 153.399 86.415 153.399 89.783 148.862 86.161"/>
         <polygon class="cls-2"
                  points="148.862 93.214 148.862 89.847 153.399 93.469 153.399 96.836 148.862 93.214"/>
         <polygon class="cls-2"
                  points="148.862 100.268 148.862 96.9 153.399 100.522 153.399 103.89 148.862 100.268"/>
         <polygon class="cls-2"
                  points="156.828 108.493 153.461 108.49 157.086 103.956 160.453 103.959 156.828 108.493"/>
         <polygon class="cls-2"
                  points="163.882 108.498 160.515 108.495 164.14 103.961 167.507 103.963 163.882 108.498"/>
         <polygon class="cls-2"
                  points="170.937 108.502 167.569 108.5 171.194 103.966 174.562 103.968 170.937 108.502"/>
         <polygon class="cls-2"
                  points="177.991 108.507 174.623 108.505 178.248 103.971 181.616 103.973 177.991 108.507"/>
         <polygon class="cls-2"
                  points="185.045 108.512 181.678 108.51 185.303 103.976 188.67 103.978 185.045 108.512"/>
         <polygon class="cls-2"
                  points="192.099 108.517 188.732 108.515 192.357 103.98 195.724 103.983 192.099 108.517"/>
         <polygon class="cls-2"
                  points="199.154 108.522 195.786 108.519 199.411 103.985 202.779 103.988 199.154 108.522"/>
         <polygon class="cls-2"
                  points="206.208 108.526 202.84 108.524 206.465 103.99 209.833 103.992 206.208 108.526"/>
         <polygon class="cls-2"
                  points="213.262 108.531 209.895 108.529 213.52 103.995 216.887 103.997 213.262 108.531"/>
         <polygon class="cls-2"
                  points="220.316 108.536 216.949 108.534 220.574 104 223.941 104.002 220.316 108.536"/>
         <polygon class="cls-2"
                  points="227.371 108.541 224.003 108.539 227.628 104.005 230.996 104.007 227.371 108.541"/>
         <polygon class="cls-2"
                  points="231.057 111.924 231.057 108.556 235.594 112.178 235.594 115.546 231.057 111.924"/>
         <polygon class="cls-2"
                  points="231.057 118.926 231.057 115.558 235.594 119.18 235.594 122.548 231.057 118.926"/>
         <polygon class="cls-2"
                  points="231.057 125.928 231.057 122.561 235.593 126.183 235.593 129.55 231.057 125.928"/>
         <polygon class="cls-2"
                  points="231.057 132.93 231.057 129.563 235.593 133.185 235.593 136.552 231.057 132.93"/>
         <polygon class="cls-2"
                  points="231.057 139.932 231.057 136.565 235.593 140.187 235.593 143.555 231.057 139.932"/>
         <polygon class="cls-2"
                  points="231.056 146.935 231.056 143.567 235.593 147.189 235.593 150.557 231.056 146.935"/>
      </g>
      <g>
         <polyline class="cls-3"
                   points="39.31 150.351 308.115 150.264 322.143 141.846 383.521 142.037"/>
         <polygon class="cls-2"
                  points="382.047 147.019 390.697 142.059 382.078 137.046 382.047 147.019"/>
      </g>
      <g>
         <polygon class="cls-2"
                  points="330.13 78.408 330.13 75.041 334.667 78.662 334.667 82.03 330.13 78.408"/>
         <polygon class="cls-2"
                  points="330.13 86.632 330.13 83.264 334.667 86.886 334.667 90.254 330.13 86.632"/>
         <polygon class="cls-2"
                  points="326.607 91.488 329.975 91.488 326.353 96.024 322.985 96.024 326.607 91.488"/>
         <polygon class="cls-2"
                  points="319.462 91.488 322.83 91.488 319.208 96.024 315.841 96.024 319.462 91.488"/>
         <polygon class="cls-2"
                  points="312.318 91.488 315.685 91.488 312.063 96.024 308.696 96.024 312.318 91.488"/>
         <polygon class="cls-2"
                  points="305.173 91.488 308.54 91.488 304.918 96.024 301.551 96.024 305.173 91.488"/>
         <polygon class="cls-2"
                  points="298.028 91.488 301.395 91.488 297.773 96.024 294.406 96.024 298.028 91.488"/>
         <polygon class="cls-2"
                  points="290.883 91.488 294.25 91.488 290.628 96.024 287.261 96.024 290.883 91.488"/>
         <polygon class="cls-2"
                  points="282.569 99.907 282.569 96.54 287.105 100.161 287.105 103.529 282.569 99.907"/>
         <polygon class="cls-2"
                  points="282.569 107.412 282.569 104.045 287.105 107.666 287.105 111.034 282.569 107.412"/>
         <polygon class="cls-2"
                  points="290.636 116.086 287.268 116.086 290.89 111.55 294.258 111.55 290.636 116.086"/>
      </g>
      <polygon class="cls-2"
               points="290.946 108.024 287.578 108.024 291.2 103.488 294.568 103.488 290.946 108.024"/>
      <polygon class="cls-2"
               points="291.247 76.077 287.88 76.077 291.502 71.541 294.869 71.541 291.247 76.077"/>
      <g>
         <polygon class="cls-2"
                  points="313.027 121.763 310.106 123.438 310.991 117.701 313.912 116.026 313.027 121.763"/>
         <polygon class="cls-2"
                  points="319.745 117.911 316.823 119.586 317.709 113.849 320.63 112.174 319.745 117.911"/>
         <path class="cls-2"
               d="M325.7936,116.086h-2.8663a1.4345,1.4345,0,0,1-.0121-.567,3.62,3.62,0,0,1,.4163-.5671l.9055-1.1341,1.811-2.2683h3.3675Z"/>
         <polygon class="cls-2"
                  points="330.185 120.71 330.174 117.343 334.722 120.95 334.734 124.317 330.185 120.71"/>
         <polygon class="cls-2"
                  points="330.213 128.957 330.201 125.589 334.75 129.196 334.761 132.563 330.213 128.957"/>
         <polygon class="cls-2"
                  points="330.24 137.203 330.229 133.835 334.778 137.442 334.789 140.81 330.24 137.203"/>
      </g>
      <g>
         <polygon class="cls-2"
                  points="189.169 235.039 192.537 235.038 188.916 239.575 185.548 239.576 189.169 235.039"/>
         <polygon class="cls-2"
                  points="181.343 235.04 184.71 235.039 181.089 239.576 177.722 239.577 181.343 235.04"/>
         <polygon class="cls-2"
                  points="173.516 235.041 176.884 235.04 173.263 239.577 169.895 239.578 173.516 235.041"/>
         <polygon class="cls-2"
                  points="165.69 235.042 169.057 235.041 165.436 239.579 162.069 239.579 165.69 235.042"/>
         <polygon class="cls-2"
                  points="157.863 235.043 161.231 235.043 157.61 239.58 154.242 239.58 157.863 235.043"/>
         <polygon class="cls-2"
                  points="153.413 231.603 153.405 234.971 148.877 231.338 148.885 227.97 153.413 231.603"/>
         <polygon class="cls-2"
                  points="153.43 224.541 153.422 227.909 148.894 224.276 148.903 220.908 153.43 224.541"/>
         <polygon class="cls-2"
                  points="153.448 217.479 153.439 220.847 148.912 217.214 148.92 213.846 153.448 217.479"/>
         <polygon class="cls-2"
                  points="153.465 210.417 153.457 213.785 148.929 210.152 148.937 206.784 153.465 210.417"/>
         <polygon class="cls-2"
                  points="153.482 203.355 153.474 206.723 148.947 203.09 148.955 199.722 153.482 203.355"/>
         <polygon class="cls-2"
                  points="153.5 196.293 153.492 199.66 148.964 196.027 148.972 192.66 153.5 196.293"/>
         <polygon class="cls-2"
                  points="156.916 192.598 153.548 192.598 157.17 188.062 160.538 188.062 156.916 192.598"/>
         <polygon class="cls-2"
                  points="163.944 192.598 160.577 192.598 164.199 188.062 167.566 188.062 163.944 192.598"/>
         <polygon class="cls-2"
                  points="170.973 192.598 167.605 192.598 171.227 188.062 174.595 188.062 170.973 192.598"/>
         <polygon class="cls-2"
                  points="178.002 192.598 174.634 192.598 178.256 188.062 181.624 188.062 178.002 192.598"/>
         <polygon class="cls-2"
                  points="185.03 192.598 181.663 192.598 185.285 188.062 188.652 188.062 185.03 192.598"/>
         <polygon class="cls-2"
                  points="192.059 192.598 188.691 192.598 192.313 188.062 195.681 188.062 192.059 192.598"/>
         <polygon class="cls-2"
                  points="199.088 192.598 195.72 192.598 199.342 188.062 202.709 188.062 199.088 192.598"/>
         <polygon class="cls-2"
                  points="206.116 192.598 202.749 192.598 206.371 188.062 209.738 188.062 206.116 192.598"/>
         <polygon class="cls-2"
                  points="213.145 192.598 209.777 192.598 213.399 188.062 216.767 188.062 213.145 192.598"/>
         <polygon class="cls-2"
                  points="220.174 192.598 216.806 192.598 220.428 188.062 223.795 188.062 220.174 192.598"/>
         <polygon class="cls-2"
                  points="227.202 192.598 223.835 192.598 227.457 188.062 230.824 188.062 227.202 192.598"/>
         <polygon class="cls-2"
                  points="234.231 192.598 230.863 192.598 234.485 188.062 237.853 188.062 234.231 192.598"/>
         <polygon class="cls-2"
                  points="241.259 192.598 237.891 192.598 241.514 188.062 244.881 188.062 241.259 192.598"/>
         <polygon class="cls-2"
                  points="248.287 192.599 244.92 192.598 248.542 188.062 251.91 188.063 248.287 192.599"/>
         <polygon class="cls-2"
                  points="255.316 192.6 251.948 192.6 255.571 188.064 258.939 188.065 255.316 192.6"/>
         <polygon class="cls-2"
                  points="262.345 192.602 258.977 192.601 262.6 188.065 265.967 188.066 262.345 192.602"/>
         <polygon class="cls-2"
                  points="269.373 192.603 266.006 192.603 269.629 188.067 272.996 188.067 269.373 192.603"/>
         <polygon class="cls-2"
                  points="277.593 184.46 277.573 187.827 273.058 184.178 273.079 180.811 277.593 184.46"/>
         <polygon class="cls-2"
                  points="277.637 177.203 277.617 180.57 273.102 176.921 273.122 173.554 277.637 177.203"/>
         <polygon class="cls-2"
                  points="277.68 169.946 277.66 173.314 273.145 169.665 273.165 166.297 277.68 169.946"/>
         <path class="cls-2"
               d="M277.7247,162.42l-.0216,3.6367-2.2575-1.8245-1.1287-.9122c-.1883-.1283-.376-.357-.5647-.4029a1.4379,1.4379,0,0,0-.5672.0142l-1.4293-1.7338,2.4592-.0385c.4141-.0013.81-.0243,1.2391-.0078a6.983,6.983,0,0,1,1.5834.41A5.68,5.68,0,0,1,277.7247,162.42Z"/>
         <polygon class="cls-2"
                  points="272.944 155.508 275.086 158.106 269.282 158.197 267.14 155.598 272.944 155.508"/>
         <polygon class="cls-2"
                  points="270.523 150.802 270.419 154.168 265.997 150.407 266.102 147.041 270.523 150.802"/>
         <polygon class="cls-2"
                  points="273.488 145.619 271.235 148.121 270.287 142.394 272.54 139.891 273.488 145.619"/>
         <polygon class="cls-2"
                  points="277.726 135.55 277.726 138.918 273.19 135.296 273.19 131.928 277.726 135.55"/>
         <polygon class="cls-2"
                  points="277.726 128.309 277.726 131.677 273.19 128.055 273.19 124.687 277.726 128.309"/>
         <polygon class="cls-2"
                  points="277.726 121.068 277.726 124.436 273.19 120.814 273.19 117.446 277.726 121.068"/>
         <polygon class="cls-2"
                  points="277.726 113.827 277.726 117.194 273.19 113.572 273.19 110.205 277.726 113.827"/>
         <polygon class="cls-2"
                  points="277.726 106.586 277.726 109.953 273.19 106.331 273.19 102.964 277.726 106.586"/>
         <polygon class="cls-2"
                  points="277.726 99.345 277.726 102.712 273.19 99.09 273.19 95.723 277.726 99.345"/>
         <polygon class="cls-2"
                  points="277.726 92.104 277.726 95.471 273.19 91.849 273.19 88.482 277.726 92.104"/>
         <polygon class="cls-2"
                  points="277.726 84.863 277.726 88.23 273.19 84.608 273.19 81.241 277.726 84.863"/>
         <polygon class="cls-2"
                  points="277.726 77.622 277.726 80.989 273.19 77.367 273.19 74 277.726 77.622"/>
         <polygon class="cls-2"
                  points="277.726 70.38 277.726 73.748 273.19 70.126 273.19 66.759 277.726 70.38"/>
         <polygon class="cls-2"
                  points="277.726 63.139 277.726 66.507 273.19 62.885 273.19 59.517 277.726 63.139"/>
      </g>
      <g>
         <polygon class="cls-2"
                  points="204.212 239.581 200.844 239.581 204.466 235.044 207.834 235.044 204.212 239.581"/>
         <polygon class="cls-2"
                  points="211.76 239.581 208.393 239.581 212.014 235.044 215.382 235.044 211.76 239.581"/>
         <polygon class="cls-2"
                  points="219.308 239.581 215.941 239.581 219.563 235.044 222.93 235.044 219.308 239.581"/>
         <polygon class="cls-2"
                  points="226.856 239.581 223.489 239.581 227.111 235.044 230.478 235.044 226.856 239.581"/>
         <polygon class="cls-2"
                  points="231.037 243.702 231.037 240.334 235.574 243.956 235.574 247.323 231.037 243.702"/>
         <polygon class="cls-2"
                  points="231.037 251.444 231.037 248.077 235.574 251.699 235.574 255.066 231.037 251.444"/>
         <polygon class="cls-2"
                  points="231.037 259.187 231.037 255.82 235.574 259.442 235.574 262.809 231.037 259.187"/>
         <polygon class="cls-2"
                  points="231.037 266.93 231.037 263.562 235.574 267.184 235.574 270.552 231.037 266.93"/>
         <polygon class="cls-2"
                  points="231.037 274.673 231.037 271.305 235.574 274.927 235.574 278.295 231.037 274.673"/>
         <polygon class="cls-2"
                  points="226.852 279.047 230.22 279.048 226.597 283.584 223.229 283.583 226.852 279.047"/>
         <polygon class="cls-2"
                  points="219.045 279.046 222.413 279.046 218.79 283.582 215.423 283.581 219.045 279.046"/>
         <polygon class="cls-2"
                  points="211.239 279.044 214.606 279.044 210.983 283.58 207.616 283.579 211.239 279.044"/>
      </g>
      <g>
         <polygon class="cls-2"
                  points="237.512 283.57 234.144 283.57 237.768 279.034 241.135 279.035 237.512 283.57"/>
         <polygon class="cls-2"
                  points="245.331 283.572 241.963 283.572 245.586 279.036 248.954 279.037 245.331 283.572"/>
         <polygon class="cls-2"
                  points="253.149 283.574 249.782 283.574 253.405 279.038 256.772 279.039 253.149 283.574"/>
         <polygon class="cls-2"
                  points="260.968 283.577 257.6 283.576 261.223 279.04 264.591 279.041 260.968 283.577"/>
         <polygon class="cls-2"
                  points="268.786 283.578 265.419 283.578 269.042 279.042 272.41 279.043 268.786 283.578"/>
         <polygon class="cls-2"
                  points="276.605 283.581 273.238 283.58 276.861 279.044 280.228 279.045 276.605 283.581"/>
         <polygon class="cls-2"
                  points="285.594 275.521 285.594 278.889 281.057 275.267 281.057 271.899 285.594 275.521"/>
         <polygon class="cls-2"
                  points="285.594 268.375 285.594 271.743 281.057 268.121 281.057 264.753 285.594 268.375"/>
         <polygon class="cls-2"
                  points="285.594 261.229 285.594 264.597 281.057 260.975 281.057 257.608 285.594 261.229"/>
         <polygon class="cls-2"
                  points="285.594 254.084 285.594 257.451 281.057 253.829 281.057 250.462 285.594 254.084"/>
         <polygon class="cls-2"
                  points="285.594 246.938 285.594 250.305 281.057 246.683 281.057 243.316 285.594 246.938"/>
         <polygon class="cls-2"
                  points="285.594 239.792 285.594 243.16 281.057 239.538 281.057 236.17 285.594 239.792"/>
         <polygon class="cls-2"
                  points="285.594 232.646 285.594 236.014 281.057 232.392 281.057 229.024 285.594 232.646"/>
         <polygon class="cls-2"
                  points="285.594 225.5 285.594 228.868 281.057 225.246 281.057 221.878 285.594 225.5"/>
         <polygon class="cls-2"
                  points="285.594 218.354 285.594 221.722 281.057 218.1 281.057 214.733 285.594 218.354"/>
         <polygon class="cls-2"
                  points="285.594 211.209 285.594 214.576 281.057 210.954 281.057 207.587 285.594 211.209"/>
         <polygon class="cls-2"
                  points="285.594 204.063 285.594 207.43 281.057 203.808 281.057 200.441 285.594 204.063"/>
         <polygon class="cls-2"
                  points="285.594 196.917 285.594 200.285 281.057 196.663 281.057 193.295 285.594 196.917"/>
         <polygon class="cls-2"
                  points="285.594 189.771 285.594 193.139 281.057 189.517 281.057 186.149 285.594 189.771"/>
         <polygon class="cls-2"
                  points="285.594 182.625 285.594 185.993 281.057 182.371 281.057 179.003 285.594 182.625"/>
         <polygon class="cls-2"
                  points="285.594 175.479 285.594 178.847 281.057 175.225 281.057 171.858 285.594 175.479"/>
         <polygon class="cls-2"
                  points="285.594 168.334 285.594 171.701 281.057 168.079 281.057 164.712 285.594 168.334"/>
         <polygon class="cls-2"
                  points="285.594 161.188 285.594 164.555 281.057 160.933 281.057 157.566 285.594 161.188"/>
         <polygon class="cls-2"
                  points="285.594 154.042 285.594 157.41 281.057 153.788 281.057 150.42 285.594 154.042"/>
      </g>
      <g>
         <polygon class="cls-2"
                  points="107.528 279.03 110.896 279.03 107.274 283.567 103.907 283.567 107.528 279.03"/>
         <polygon class="cls-2"
                  points="100.348 279.03 103.715 279.03 100.093 283.567 96.726 283.567 100.348 279.03"/>
         <polygon class="cls-2"
                  points="93.167 279.03 96.534 279.03 92.912 283.567 89.545 283.567 93.167 279.03"/>
         <polygon class="cls-2"
                  points="85.986 279.03 89.353 279.03 85.732 283.567 82.364 283.567 85.986 279.03"/>
         <polygon class="cls-2"
                  points="78.805 279.03 82.173 279.03 78.551 283.567 75.183 283.567 78.805 279.03"/>
         <polygon class="cls-2"
                  points="71.624 279.03 74.992 279.03 71.37 283.567 68.002 283.567 71.624 279.03"/>
         <polygon class="cls-2"
                  points="64.443 279.03 67.811 279.03 64.189 283.567 60.821 283.567 64.443 279.03"/>
         <polygon class="cls-2"
                  points="57.262 279.03 60.63 279.03 57.008 283.567 53.641 283.567 57.262 279.03"/>
         <polygon class="cls-2"
                  points="50.082 279.03 53.449 279.03 49.827 283.567 46.46 283.567 50.082 279.03"/>
         <polygon class="cls-2"
                  points="42.901 279.03 46.268 279.03 42.646 283.567 39.279 283.567 42.901 279.03"/>
      </g>
   </g>
   <g id="Diagram">
      <g id="Artwork_20_no_white" data-name="Artwork 20 no white">
         <g class="cls-4">
            <g class="cls-4">
               <line class="cls-5"
                     x1="71.0965"
                     y1="39.2463"
                     x2="85.7265"
                     y2="32.4803"/>
               <path d="M85.7264,33.4846h0a1,1,0,1,1,1-1,1.0029,1.0029,0,0,1-1,1"/>
               <path d="M71.0965,33.4846h0a1,1,0,1,1,1-1,1.0029,1.0029,0,0,1-1,1"/>
            </g>
         </g>
      </g>
      <g id="Artwork_20_no_white-2" data-name="Artwork 20 no white">
         <g class="cls-6">
            <g class="cls-6">
               <line class="cls-5"
                     x1="71.0965"
                     y1="157.041"
                     x2="85.7265"
                     y2="150.275"/>
               <path d="M85.7264,151.2793h0a1,1,0,1,1,1-1,1.0029,1.0029,0,0,1-1,1"/>
               <path d="M71.0965,151.2793h0a1,1,0,1,1,1-1,1.0029,1.0029,0,0,1-1,1"/>
            </g>
         </g>
      </g>
      <g id="Artwork_20_no_white-3" data-name="Artwork 20 no white">
         <g class="cls-7">
            <g class="cls-7">
               <line class="cls-5"
                     x1="71.0965"
                     y1="288.0943"
                     x2="85.7265"
                     y2="281.3283"/>
               <path d="M85.7264,282.3326h0a1,1,0,1,1,1-1,1.0029,1.0029,0,0,1-1,1"/>
               <path d="M71.0965,282.3326h0a1,1,0,1,1,1-1,1.0029,1.0029,0,0,1-1,1"/>
            </g>
         </g>
      </g>
      <g id="Artwork_20_no_white-4" data-name="Artwork 20 no white">
         <g class="cls-8">
            <g class="cls-8">
               <line class="cls-5"
                     x1="244.0187"
                     y1="288.0943"
                     x2="258.6487"
                     y2="281.3283"/>
               <path d="M258.6486,282.3326h0a1,1,0,1,1,1-1,1.0029,1.0029,0,0,1-1,1"/>
               <path d="M244.0187,282.3326h0a1,1,0,1,1,1-1,1.0029,1.0029,0,0,1-1,1"/>
            </g>
         </g>
      </g>
      <g id="Artwork_20_no_white-5" data-name="Artwork 20 no white">
         <g class="cls-9">
            <g class="cls-9">
               <line class="cls-5"
                     x1="244.0187"
                     y1="157.041"
                     x2="258.6487"
                     y2="150.275"/>
               <path d="M258.6486,151.2793h0a1,1,0,1,1,1-1,1.0029,1.0029,0,0,1-1,1"/>
               <path d="M244.0187,151.2793h0a1,1,0,1,1,1-1,1.0029,1.0029,0,0,1-1,1"/>
            </g>
         </g>
      </g>
      <g id="Artwork_20_no_white-6" data-name="Artwork 20 no white">
         <g class="cls-10">
            <g class="cls-10">
               <line class="cls-5"
                     x1="258.6485"
                     y1="197.1541"
                     x2="244.0186"
                     y2="190.3881"/>
               <path d="M244.0187,191.3924h0a1,1,0,1,0-1-1,1.0029,1.0029,0,0,0,1,1"/>
               <path d="M258.6485,191.3924h0a1,1,0,1,0-1-1,1.0029,1.0029,0,0,0,1,1"/>
            </g>
         </g>
      </g>
      <g id="Artwork_20_no_white-7" data-name="Artwork 20 no white">
         <g class="cls-11">
            <g class="cls-12">
               <line class="cls-5"
                     x1="258.6485"
                     y1="66.0778"
                     x2="244.0186"
                     y2="59.3118"/>
               <path d="M244.0187,60.3161h0a1,1,0,1,0-1-1,1.0029,1.0029,0,0,0,1,1"/>
               <path d="M258.6485,60.3161h0a1,1,0,1,0-1-1,1.0029,1.0029,0,0,0,1,1"/>
            </g>
         </g>
      </g>
      <g id="Auto">
         <g class="cls-13">
            <line class="cls-14"
                  x1="315.8961"
                  y1="145.473"
                  x2="315.8961"
                  y2="46.9451"/>
            <line class="cls-5"
                  x1="284.8308"
                  y1="105.8095"
                  x2="301.4798"
                  y2="105.8095"/>
            <polyline class="cls-5"
                      points="301.48 81.809 284.831 81.809 284.831 73.81 301.48 73.81"/>
            <line class="cls-2"
                  x1="308.8699"
                  y1="57.2245"
                  x2="322.4308"
                  y2="50.3715"/>
            <line class="cls-15"
                  x1="308.8699"
                  y1="57.2245"
                  x2="322.4308"
                  y2="50.3715"/>
            <polyline class="cls-5"
                      points="308.382 121.809 322.284 113.809 332.406 113.809 332.406 141.785 322.284 141.785 308.382 149.809"/>
            <polyline class="cls-5"
                      points="308.382 81.809 322.284 73.81 332.406 73.81 332.406 93.809 284.831 93.809 284.831 113.809 301.48 113.809"/>
            <g class="cls-13">
               <path class="cls-16" d="M284.8308,72.81a1,1,0,1,1-1,1,1,1,0,0,1,1-1"/>
               <circle class="cls-17" cx="284.8308" cy="73.8095" r="1"/>
               <path class="cls-16" d="M332.4064,72.81a1,1,0,1,1-1,1,1,1,0,0,1,1-1"/>
               <circle class="cls-17" cx="332.4064" cy="73.8095" r="1"/>
               <path class="cls-16" d="M284.8308,104.81a1,1,0,1,1-1,1,1,1,0,0,1,1-1"/>
               <circle class="cls-17" cx="284.8308" cy="105.8095" r="1"/>
               <path class="cls-16" d="M332.403,140.81a1,1,0,1,1-1,1,1,1,0,0,1,1-1"/>
               <circle class="cls-17" cx="332.403" cy="141.8099" r="1"/>
               <line class="cls-18"
                     x1="294.3821"
                     y1="141.8099"
                     x2="308.5771"
                     y2="141.8099"/>
               <line class="cls-18"
                     x1="294.3821"
                     y1="133.8099"
                     x2="308.5771"
                     y2="133.8099"/>
               <line class="cls-18"
                     x1="294.3821"
                     y1="149.8099"
                     x2="308.5771"
                     y2="149.8099"/>
               <line class="cls-18"
                     x1="294.3821"
                     y1="113.8095"
                     x2="308.5771"
                     y2="113.8095"/>
               <line class="cls-18"
                     x1="294.3821"
                     y1="105.8095"
                     x2="308.5771"
                     y2="105.8095"/>
               <line class="cls-18"
                     x1="294.3821"
                     y1="121.8094"
                     x2="308.5771"
                     y2="121.8094"/>
               <line class="cls-18"
                     x1="294.3821"
                     y1="73.8095"
                     x2="308.5771"
                     y2="73.8095"/>
               <line class="cls-18"
                     x1="294.3821"
                     y1="65.8095"
                     x2="308.5771"
                     y2="65.8095"/>
               <line class="cls-18"
                     x1="294.3821"
                     y1="81.8095"
                     x2="308.5771"
                     y2="81.8095"/>
               <line class="cls-14"
                     x1="308.8699"
                     y1="50.372"
                     x2="322.4308"
                     y2="50.372"/>
               <line class="cls-19"
                     x1="308.8699"
                     y1="43.519"
                     x2="322.4308"
                     y2="50.372"/>
               <line class="cls-14"
                     x1="308.8699"
                     y1="43.519"
                     x2="322.4308"
                     y2="50.372"/>
               <g class="cls-20">
                  <g class="cls-21">
                     <text class="cls-22" transform="translate(283.9031 46.8098)">BYPASS</text>
                  </g>
               </g>
               <g class="cls-20">
                  <g class="cls-23">
                     <text class="cls-22" transform="translate(293.2429 52.8098)">TEST</text>
                  </g>
               </g>
               <g class="cls-20">
                  <g class="cls-24">
                     <text class="cls-22" transform="translate(291.5788 58.8098)">AUTO</text>
                  </g>
               </g>
            </g>
         </g>
      </g>
      <polyline class="cls-25" points="258.587 59.3 284.835 59.3 284.835 73.909"/>
      <polyline class="cls-25"
                points="233.326 150.278 233.326 106.277 151.131 106.277 151.131 59.3 243.92 59.3"/>
      <polyline class="cls-25" points="86.558 32.469 332.399 32.707 332.399 73.807"/>
      <path class="cls-5" d="M244.0733,150.2784H85.6674"/>
      <path class="cls-5" d="M71.1674,150.2784H42.2162"/>
      <line class="cls-25"
            x1="41.315"
            y1="32.469"
            x2="72.1674"
            y2="32.469"/>
      <line class="cls-25"
            x1="275.2901"
            y1="143.04"
            x2="275.2901"
            y2="59.3004"/>
      <polyline class="cls-25" points="258.636 190.336 275.29 190.336 275.29 157.762"/>
      <polyline class="cls-25"
                points="233.326 281.314 233.326 237.312 151.131 237.312 151.131 190.336 244.073 190.336"/>
      <path class="cls-5" d="M258.6566,281.314h24.669V150.2983"/>
      <path class="cls-5" d="M85.6674,281.314H244.0733"/>
      <path class="cls-5" d="M71.1674,281.314H42.2162"/>
      <line class="cls-25"
            x1="377.6167"
            y1="141.9833"
            x2="332.5938"
            y2="141.9833"/>
      <g id="Inverter">
         <g class="cls-26">
            <rect class="cls-27"
                  x="110.9081"
                  y="133.2594"
                  width="34.0175"
                  height="34.0166"/>
            <g class="cls-26">
               <rect class="cls-28"
                     x="110.9081"
                     y="133.2594"
                     width="34.0166"
                     height="34.0166"/>
               <line class="cls-28"
                     x1="110.911"
                     y1="167.2782"
                     x2="144.9266"
                     y2="133.2625"/>
            </g>
            <line class="cls-28"
                  x1="114.0972"
                  y1="139.6406"
                  x2="123.6606"
                  y2="139.6406"/>
            <line class="cls-28"
                  x1="116.3488"
                  y1="141.7667"
                  x2="114.0971"
                  y2="141.7667"/>
            <line class="cls-28"
                  x1="120.0043"
                  y1="141.7667"
                  x2="117.7535"
                  y2="141.7667"/>
            <line class="cls-28"
                  x1="123.6603"
                  y1="141.7667"
                  x2="121.4086"
                  y2="141.7667"/>
            <g class="cls-26">
               <path class="cls-28"
                     d="M133.232,159.9533a2.1864,2.1864,0,0,1,2.126-2.006c1.0413,0,1.87.53,2.1261,2.006a2.138,2.138,0,0,0,2.126,2.0042,2.2987,2.2987,0,0,0,2.1261-2.0042"/>
            </g>
         </g>
      </g>
      <g id="Artwork_11" data-name="Artwork 11">
         <g class="cls-29">
            <rect class="cls-27"
                  x="178.2595"
                  y="91.5658"
                  width="29.339"
                  height="29.423"/>
            <g class="cls-29">
               <rect class="cls-5"
                     x="178.2595"
                     y="91.5658"
                     width="29.339"
                     height="29.423"/>
               <line class="cls-25"
                     x1="178.2597"
                     y1="106.2774"
                     x2="207.5987"
                     y2="106.2774"/>
            </g>
            <rect class="cls-27"
                  x="185.5895"
                  y="98.6928"
                  width="15.128"
                  height="15.171"/>
            <rect class="cls-5"
                  x="185.5895"
                  y="98.6928"
                  width="15.128"
                  height="15.171"/>
            <line class="cls-5"
                  x1="190.5575"
                  y1="117.5429"
                  x2="190.5575"
                  y2="110.183"/>
            <line class="cls-5"
                  x1="193.4999"
                  y1="117.5429"
                  x2="193.4889"
                  y2="115.2009"/>
            <path d="M196.7548,111.3986v4.929l-4.909-2.464Zm.75-1.216-7.33,3.681,7.33,3.679Z"/>
            <line class="cls-5"
                  x1="196.2157"
                  y1="95.0655"
                  x2="196.2157"
                  y2="102.4255"/>
            <line class="cls-5"
                  x1="192.9267"
                  y1="95.0147"
                  x2="192.9267"
                  y2="97.0277"/>
            <path d="M190.0116,96.2268l4.909,2.464-4.909,2.465Zm-.75-1.216v7.36l7.33-3.68Z"/>
            <g class="cls-29">
               <path class="cls-16"
                     d="M185.59,105.2764a1,1,0,1,1-.997,1,.9984.9984,0,0,1,.997-1"/>
               <circle class="cls-5" cx="185.5897" cy="106.2764" r="0.997"/>
               <path class="cls-16"
                     d="M200.7177,105.2774a1,1,0,1,1-.997,1,.9984.9984,0,0,1,.997-1"/>
               <circle class="cls-5" cx="200.7177" cy="106.2774" r="0.997"/>
               <g class="cls-20">
                  <g class="cls-30">
                     <text class="cls-31" transform="translate(208.5979 120.9883)">EN</text>
                  </g>
               </g>
            </g>
         </g>
      </g>
      <g id="Artwork_13" data-name="Artwork 13">
         <g class="cls-32">
            <g class="cls-32">
               <path class="cls-33"
                     d="M41.3149,148.2788a2,2,0,1,1-2,2,2.0007,2.0007,0,0,1,2-2"/>
               <circle class="cls-5" cx="41.3149" cy="150.2788" r="2"/>
            </g>
         </g>
      </g>
      <g id="shape116-109">
         <g class="cls-34">
            <g class="cls-34">
               <path class="cls-16"
                     d="M233.3242,149.2653a1.003,1.003,0,1,1-1,1.003,1.001,1.001,0,0,1,1-1.003"/>
               <circle class="cls-17" cx="233.3242" cy="150.2683" r="1"/>
            </g>
         </g>
      </g>
      <g id="Artwork_13-2" data-name="Artwork 13">
         <g class="cls-35">
            <g class="cls-35">
               <path class="cls-33"
                     d="M41.3149,30.4694a2,2,0,1,1-2,2,2.0007,2.0007,0,0,1,2-2"/>
               <circle class="cls-5" cx="41.3149" cy="32.4694" r="2"/>
            </g>
         </g>
      </g>
      <g id="Artwork_12" data-name="Artwork 12">
         <g class="cls-36">
            <g class="cls-36">
               <g class="cls-20">
                  <g class="cls-37">
                     <text class="cls-31" transform="translate(208.5979 164.9791)">EA</text>
                  </g>
               </g>
            </g>
            <rect class="cls-27"
                  x="178.2595"
                  y="135.5567"
                  width="29.339"
                  height="29.423"/>
            <g class="cls-36">
               <rect class="cls-5"
                     x="178.2595"
                     y="135.5567"
                     width="29.339"
                     height="29.423"/>
               <line class="cls-25"
                     x1="178.2597"
                     y1="150.2691"
                     x2="207.5987"
                     y2="150.2691"/>
            </g>
            <rect class="cls-27"
                  x="185.5895"
                  y="142.6846"
                  width="15.128"
                  height="15.171"/>
            <rect class="cls-5"
                  x="185.5895"
                  y="142.6846"
                  width="15.128"
                  height="15.171"/>
            <line class="cls-5"
                  x1="190.5575"
                  y1="161.5347"
                  x2="190.5575"
                  y2="154.1747"/>
            <line class="cls-5"
                  x1="193.4999"
                  y1="161.5347"
                  x2="193.4889"
                  y2="159.1927"/>
            <path d="M196.7548,155.39v4.929l-4.909-2.464Zm.75-1.216-7.33,3.681,7.33,3.679Z"/>
            <line class="cls-5"
                  x1="196.2157"
                  y1="139.0572"
                  x2="196.2157"
                  y2="146.4172"/>
            <line class="cls-5"
                  x1="192.9267"
                  y1="139.0059"
                  x2="192.9267"
                  y2="141.0189"/>
            <path d="M190.0116,140.2185l4.909,2.464-4.909,2.465Zm-.75-1.216v7.36l7.33-3.68Z"/>
            <g class="cls-36">
               <path class="cls-16"
                     d="M185.59,149.2691a1,1,0,1,1-.997,1,.9978.9978,0,0,1,.997-1"/>
               <circle class="cls-5" cx="185.5897" cy="150.2691" r="0.997"/>
               <path class="cls-16"
                     d="M200.7177,149.2691a1,1,0,1,1-.997,1,.9984.9984,0,0,1,.997-1"/>
               <circle class="cls-5" cx="200.7177" cy="150.2691" r="0.997"/>
            </g>
         </g>
      </g>
      <g id="Inverter-2" data-name="Inverter">
         <g class="cls-38">
            <rect class="cls-27"
                  x="110.9081"
                  y="264.295"
                  width="34.0175"
                  height="34.0166"/>
            <g class="cls-38">
               <rect class="cls-28"
                     x="110.9081"
                     y="264.295"
                     width="34.0166"
                     height="34.0166"/>
               <line class="cls-28"
                     x1="110.911"
                     y1="298.3137"
                     x2="144.9266"
                     y2="264.2981"/>
            </g>
            <line class="cls-28"
                  x1="114.0972"
                  y1="270.6762"
                  x2="123.6606"
                  y2="270.6762"/>
            <line class="cls-28"
                  x1="116.3488"
                  y1="272.8022"
                  x2="114.0971"
                  y2="272.8022"/>
            <line class="cls-28"
                  x1="120.0043"
                  y1="272.8022"
                  x2="117.7535"
                  y2="272.8022"/>
            <line class="cls-28"
                  x1="123.6603"
                  y1="272.8022"
                  x2="121.4086"
                  y2="272.8022"/>
            <g class="cls-38">
               <path class="cls-28"
                     d="M133.232,290.9889a2.1864,2.1864,0,0,1,2.126-2.006c1.0413,0,1.87.53,2.1261,2.006a2.138,2.138,0,0,0,2.126,2.0042,2.2988,2.2988,0,0,0,2.1261-2.0042"/>
            </g>
         </g>
      </g>
      <g id="Artwork_11-2" data-name="Artwork 11">
         <g class="cls-39">
            <rect class="cls-27"
                  x="178.2595"
                  y="222.6014"
                  width="29.339"
                  height="29.423"/>
            <g class="cls-39">
               <rect class="cls-5"
                     x="178.2595"
                     y="222.6014"
                     width="29.339"
                     height="29.423"/>
               <line class="cls-25"
                     x1="178.2597"
                     y1="237.3129"
                     x2="207.5987"
                     y2="237.3129"/>
            </g>
            <rect class="cls-27"
                  x="185.5895"
                  y="229.7284"
                  width="15.128"
                  height="15.171"/>
            <rect class="cls-5"
                  x="185.5895"
                  y="229.7284"
                  width="15.128"
                  height="15.171"/>
            <line class="cls-5"
                  x1="190.5575"
                  y1="248.5785"
                  x2="190.5575"
                  y2="241.2185"/>
            <line class="cls-5"
                  x1="193.4999"
                  y1="248.5785"
                  x2="193.4889"
                  y2="246.2365"/>
            <path d="M196.7548,242.4342v4.929l-4.909-2.464Zm.75-1.216-7.33,3.681,7.33,3.679Z"/>
            <line class="cls-5"
                  x1="196.2157"
                  y1="226.1011"
                  x2="196.2157"
                  y2="233.461"/>
            <line class="cls-5"
                  x1="192.9267"
                  y1="226.0503"
                  x2="192.9267"
                  y2="228.0633"/>
            <path d="M190.0116,227.2624l4.909,2.464-4.909,2.4649Zm-.75-1.216v7.36l7.33-3.68Z"/>
            <g class="cls-39">
               <path class="cls-16"
                     d="M185.59,236.3119a1,1,0,1,1-.997,1,.9984.9984,0,0,1,.997-1"/>
               <circle class="cls-5" cx="185.5897" cy="237.3119" r="0.997"/>
               <path class="cls-16"
                     d="M200.7177,236.3129a1,1,0,1,1-.997,1,.9984.9984,0,0,1,.997-1"/>
               <circle class="cls-5" cx="200.7177" cy="237.3129" r="0.997"/>
               <g class="cls-20">
                  <g class="cls-40">
                     <text class="cls-31" transform="translate(208.5979 252.0238)">EN</text>
                  </g>
               </g>
            </g>
         </g>
      </g>
      <g id="Artwork_13-3" data-name="Artwork 13">
         <g class="cls-41">
            <g class="cls-41">
               <path class="cls-33"
                     d="M41.3149,279.3144a2,2,0,1,1-2,2,2.0007,2.0007,0,0,1,2-2"/>
               <circle class="cls-5" cx="41.3149" cy="281.3144" r="2"/>
            </g>
         </g>
      </g>
      <g id="shape116-109-2" data-name="shape116-109">
         <g class="cls-42">
            <g class="cls-42">
               <path class="cls-16"
                     d="M233.3242,280.3009a1.003,1.003,0,1,1-1,1.003,1.001,1.001,0,0,1,1-1.003"/>
               <circle class="cls-17" cx="233.3242" cy="281.3039" r="1"/>
            </g>
         </g>
      </g>
      <g id="Artwork_12-2" data-name="Artwork 12">
         <g class="cls-43">
            <g class="cls-43">
               <g class="cls-20">
                  <g class="cls-44">
                     <text class="cls-31" transform="translate(208.5979 296.0148)">EA</text>
                  </g>
               </g>
            </g>
            <rect class="cls-27"
                  x="178.2595"
                  y="266.5922"
                  width="29.339"
                  height="29.423"/>
            <g class="cls-43">
               <rect class="cls-5"
                     x="178.2595"
                     y="266.5922"
                     width="29.339"
                     height="29.423"/>
               <line class="cls-25"
                     x1="178.2597"
                     y1="281.3047"
                     x2="207.5987"
                     y2="281.3047"/>
            </g>
            <rect class="cls-27"
                  x="185.5895"
                  y="273.7202"
                  width="15.128"
                  height="15.171"/>
            <rect class="cls-5"
                  x="185.5895"
                  y="273.7202"
                  width="15.128"
                  height="15.171"/>
            <line class="cls-5"
                  x1="190.5575"
                  y1="292.5703"
                  x2="190.5575"
                  y2="285.2103"/>
            <line class="cls-5"
                  x1="193.4999"
                  y1="292.5703"
                  x2="193.4889"
                  y2="290.2283"/>
            <path d="M196.7548,286.426v4.929l-4.909-2.464Zm.75-1.216-7.33,3.681,7.33,3.679Z"/>
            <line class="cls-5"
                  x1="196.2157"
                  y1="270.0928"
                  x2="196.2157"
                  y2="277.4528"/>
            <line class="cls-5"
                  x1="192.9267"
                  y1="270.0415"
                  x2="192.9267"
                  y2="272.0545"/>
            <path d="M190.0116,271.2541l4.909,2.464-4.909,2.465Zm-.75-1.216v7.36l7.33-3.68Z"/>
            <g class="cls-43">
               <path class="cls-16"
                     d="M185.59,280.3047a1,1,0,1,1-.997,1,.9978.9978,0,0,1,.997-1"/>
               <circle class="cls-5" cx="185.5897" cy="281.3047" r="0.997"/>
               <path class="cls-16"
                     d="M200.7177,280.3047a1,1,0,1,1-.997,1,.9984.9984,0,0,1,.997-1"/>
               <circle class="cls-5" cx="200.7177" cy="281.3047" r="0.997"/>
            </g>
         </g>
      </g>
      <g id="Artwork_13-4" data-name="Artwork 13">
         <g class="cls-45">
            <g class="cls-45">
               <path class="cls-33"
                     d="M377.3239,139.9724a2,2,0,1,1-2,2,2.0007,2.0007,0,0,1,2-2"/>
               <circle class="cls-5" cx="377.3239" cy="141.9724" r="2"/>
            </g>
         </g>
      </g>
      <g id="shape116-109-3" data-name="shape116-109">
         <g class="cls-46">
            <g class="cls-46">
               <path class="cls-16"
                     d="M275.1911,58.1a1.003,1.003,0,1,1-1,1.003,1.001,1.001,0,0,1,1-1.003"/>
               <circle class="cls-17" cx="275.1911" cy="59.1033" r="1"/>
            </g>
         </g>
      </g>
      <g id="shape116-109-4" data-name="shape116-109">
         <g class="cls-47">
            <g class="cls-47">
               <path class="cls-16"
                     d="M283.3252,149.2949a1.003,1.003,0,1,1-1,1.003,1.001,1.001,0,0,1,1-1.003"/>
               <circle class="cls-17" cx="283.3252" cy="150.2979" r="1"/>
            </g>
         </g>
      </g>
      <text class="cls-48" transform="translate(20.7674 13.3089)">BYPASS<tspan x="4.4507" y="12">MAINS</tspan>
      </text>
      <text class="cls-48" transform="translate(175.3402 74.3284)">STATIC<tspan x="-8.335" y="12">SWITCHES</tspan>
      </text>
      <text class="cls-48" transform="translate(98.4802 128.2791)">INVERTER 1</text>
      <text class="cls-48" transform="translate(175.3402 205.3638)">STATIC<tspan x="-8.335" y="12">SWITCHES</tspan>
      </text>
      <text class="cls-48" transform="translate(98.4802 259.315)">INVERTER 2</text>
      <text class="cls-48" transform="translate(356.7829 135.8551)">OUTPUT</text>
      <g>
         <path class="cls-49"
               d="M18.44,124.4534h2.6416a5.1733,5.1733,0,0,1,1.3623.1367,2.3928,2.3928,0,0,1,1.0791.66,3.12,3.12,0,0,1,.6836,1.1592,5.2883,5.2883,0,0,1,.2343,1.6923,4.7073,4.7073,0,0,1-.22,1.5235,3.1569,3.1569,0,0,1-.7666,1.2637,2.5418,2.5418,0,0,1-1.0156.5722,4.388,4.388,0,0,1-1.2793.15H18.44Zm1.4453,1.2109v4.7422h1.0791a3.9808,3.9808,0,0,0,.874-.0683,1.3287,1.3287,0,0,0,.5835-.2989,1.5056,1.5056,0,0,0,.3784-.69,4.6734,4.6734,0,0,0,.1465-1.3115A4.2689,4.2689,0,0,0,22.8,126.764a1.634,1.634,0,0,0-.41-.6934,1.3778,1.3778,0,0,0-.669-.3379,6.6132,6.6132,0,0,0-1.1865-.0684Z"/>
         <path class="cls-49"
               d="M30.2465,128.9808l1.4014.4433a3.148,3.148,0,0,1-1.0718,1.7412,3.3706,3.3706,0,0,1-4.2456-.4052,3.7287,3.7287,0,0,1-.918-2.6641,3.9116,3.9116,0,0,1,.9229-2.7754,3.1641,3.1641,0,0,1,2.4267-.9883,2.9769,2.9769,0,0,1,2.1338.7754,2.8269,2.8269,0,0,1,.7324,1.3184l-1.4306.3418a1.4789,1.4789,0,0,0-1.5088-1.2012,1.6294,1.6294,0,0,0-1.2915.5723,2.7967,2.7967,0,0,0-.4956,1.85,3,3,0,0,0,.4883,1.9336,1.5836,1.5836,0,0,0,1.27.5761,1.4469,1.4469,0,0,0,.9912-.3652A2.1291,2.1291,0,0,0,30.2465,128.9808Z"/>
         <path class="cls-49" d="M35.6225,131.6116v-7.1582h1.4453v7.1582Z"/>
         <path class="cls-49"
               d="M38.4594,131.6116v-7.1582h1.4063l2.93,4.7813v-4.7813h1.3428v7.1582h-1.45l-2.8857-4.668v4.668Z"/>
         <path class="cls-49"
               d="M45.6664,131.6116v-7.1582h2.3194a8.4357,8.4357,0,0,1,1.7187.1074,1.88,1.88,0,0,1,1.03.7012,2.2208,2.2208,0,0,1,.415,1.3945,2.3288,2.3288,0,0,1-.2392,1.1075,1.965,1.965,0,0,1-.6079.706,2.0812,2.0812,0,0,1-.75.3389,8.2415,8.2415,0,0,1-1.4991.1035h-.9424v2.6992Zm1.4453-5.9473v2.0313h.7911a3.7676,3.7676,0,0,0,1.1425-.1113.9531.9531,0,0,0,.4517-.3516.9661.9661,0,0,0,.1636-.5566.9246.9246,0,0,0-.23-.6446,1,1,0,0,0-.5811-.3183,6.9751,6.9751,0,0,0-1.04-.0489Z"/>
         <path class="cls-49"
               d="M52.3266,124.4534h1.4453v3.877a8.0915,8.0915,0,0,0,.0537,1.1972,1.1588,1.1588,0,0,0,.4419.7051,1.5376,1.5376,0,0,0,.9546.2656,1.4613,1.4613,0,0,0,.9277-.2509.9932.9932,0,0,0,.376-.6182,8.0121,8.0121,0,0,0,.0635-1.2149v-3.9609h1.4453v3.76a9.678,9.678,0,0,1-.1172,1.8222,2.0183,2.0183,0,0,1-.4321.8985,2.19,2.19,0,0,1-.8423.583,3.6506,3.6506,0,0,1-1.377.2178,3.9747,3.9747,0,0,1-1.5551-.2373,2.2105,2.2105,0,0,1-.8374-.6153,1.9711,1.9711,0,0,1-.4053-.7939,8.7076,8.7076,0,0,1-.1416-1.8164Z"/>
         <path class="cls-49"
               d="M61.1694,131.6116v-5.9473H59.0453v-1.2109h5.6885v1.2109H62.6147v5.9473Z"/>
         <path class="cls-49"
               d="M23.1664,143.6116v-7.1582h2.3194a8.4357,8.4357,0,0,1,1.7187.1074,1.88,1.88,0,0,1,1.03.7012,2.2208,2.2208,0,0,1,.415,1.3945,2.3288,2.3288,0,0,1-.2392,1.1075,1.965,1.965,0,0,1-.6079.706,2.0812,2.0812,0,0,1-.75.3389,8.2415,8.2415,0,0,1-1.4991.1035h-.9424v2.6992Zm1.4453-5.9473v2.0313h.7911a3.7676,3.7676,0,0,0,1.1425-.1113.9531.9531,0,0,0,.4517-.3516.9661.9661,0,0,0,.1636-.5566.9246.9246,0,0,0-.2295-.6446,1,1,0,0,0-.5811-.3183,6.9751,6.9751,0,0,0-1.04-.0489Z"/>
         <path class="cls-49"
               d="M29.5434,140.0765a4.5541,4.5541,0,0,1,.3271-1.836,3.3542,3.3542,0,0,1,.6665-.98,2.7785,2.7785,0,0,1,.9253-.6446,3.9193,3.9193,0,0,1,1.543-.2832,3.36,3.36,0,0,1,2.5317.9805,4.3868,4.3868,0,0,1,.0074,5.4424,3.3337,3.3337,0,0,1-2.52.98,3.37,3.37,0,0,1-2.539-.9746A3.6967,3.6967,0,0,1,29.5434,140.0765Zm1.4892-.0489a2.6823,2.6823,0,0,0,.5616,1.8438,1.9316,1.9316,0,0,0,2.8442.0049,2.7364,2.7364,0,0,0,.5542-1.8682,2.6921,2.6921,0,0,0-.54-1.8359,1.9985,1.9985,0,0,0-2.8736.0078A2.7024,2.7024,0,0,0,31.0326,140.0276Z"/>
         <path class="cls-49"
               d="M38.63,143.6116l-1.709-7.1582h1.4795l1.0791,4.918,1.3086-4.918h1.7188l1.2548,5,1.0987-5h1.455l-1.7382,7.1582H43.0444L41.6186,138.26l-1.4209,5.3515Z"/>
         <path class="cls-49"
               d="M47.0532,143.6116v-7.1582h5.3076v1.2109H48.4985v1.5879h3.5937v1.2051H48.4985v1.9492h3.999v1.2051Z"/>
         <path class="cls-49"
               d="M53.728,143.6116v-7.1582H56.77a5.1935,5.1935,0,0,1,1.6675.1934,1.649,1.649,0,0,1,.8325.6855,2.0633,2.0633,0,0,1,.3125,1.1289,1.9085,1.9085,0,0,1-.4736,1.33,2.28,2.28,0,0,1-1.416.6621,3.3646,3.3646,0,0,1,.7739.6,8.2019,8.2019,0,0,1,.8228,1.1621l.874,1.3965H58.435L57.39,142.055a10.0817,10.0817,0,0,0-.7618-1.0528,1.1137,1.1137,0,0,0-.4345-.2978,2.3787,2.3787,0,0,0-.7276-.0811h-.2929v2.9883Zm1.4453-4.1308h1.0693a5.52,5.52,0,0,0,1.2988-.0879.7774.7774,0,0,0,.4053-.3028.93.93,0,0,0,.1465-.5371.858.858,0,0,0-.1929-.583.8878.8878,0,0,0-.5444-.28q-.1758-.0249-1.0547-.0254H55.1733Z"/>
      </g>
      <g>
         <path class="cls-49"
               d="M18.44,256.0091h2.6416a5.1733,5.1733,0,0,1,1.3623.1367,2.3978,2.3978,0,0,1,1.0791.6592,3.1323,3.1323,0,0,1,.6836,1.16,5.2828,5.2828,0,0,1,.2343,1.6914,4.6988,4.6988,0,0,1-.22,1.5235,3.1529,3.1529,0,0,1-.7666,1.2646,2.54,2.54,0,0,1-1.0156.5713,4.3494,4.3494,0,0,1-1.2793.1514H18.44Zm1.4453,1.2109v4.7412h1.0791a3.9185,3.9185,0,0,0,.874-.0683,1.3285,1.3285,0,0,0,.5835-.2979,1.511,1.511,0,0,0,.3784-.69,4.6734,4.6734,0,0,0,.1465-1.3115,4.2812,4.2812,0,0,0-.1465-1.2745,1.64,1.64,0,0,0-.41-.6933,1.3766,1.3766,0,0,0-.669-.3369,6.6034,6.6034,0,0,0-1.1865-.0684Z"/>
         <path class="cls-49"
               d="M30.2465,260.5354l1.4014.4444a3.1484,3.1484,0,0,1-1.0718,1.7412,3.3743,3.3743,0,0,1-4.2456-.4053,3.7283,3.7283,0,0,1-.918-2.664,3.9112,3.9112,0,0,1,.9229-2.7754,3.1648,3.1648,0,0,1,2.4267-.9893,2.9776,2.9776,0,0,1,2.1338.7764,2.827,2.827,0,0,1,.7324,1.3183l-1.4306.3418a1.4786,1.4786,0,0,0-1.5088-1.2011,1.6288,1.6288,0,0,0-1.2915.5712,2.8,2.8,0,0,0-.4956,1.8506,3,3,0,0,0,.4883,1.9336,1.5834,1.5834,0,0,0,1.27.5762,1.4478,1.4478,0,0,0,.9912-.3662A2.1258,2.1258,0,0,0,30.2465,260.5354Z"/>
         <path class="cls-49" d="M35.6225,263.1673v-7.1582h1.4453v7.1582Z"/>
         <path class="cls-49"
               d="M38.4594,263.1673v-7.1582h1.4063l2.93,4.78v-4.78h1.3428v7.1582h-1.45l-2.8857-4.668v4.668Z"/>
         <path class="cls-49"
               d="M45.6664,263.1673v-7.1582h2.3194a8.4357,8.4357,0,0,1,1.7187.1074,1.8746,1.8746,0,0,1,1.03.7012,2.22,2.22,0,0,1,.415,1.3935,2.3323,2.3323,0,0,1-.2392,1.1084,1.9654,1.9654,0,0,1-.6079.7061,2.0792,2.0792,0,0,1-.75.3388,8.2482,8.2482,0,0,1-1.4991.1026h-.9424v2.7Zm1.4453-5.9473v2.0313h.7911a3.7247,3.7247,0,0,0,1.1425-.1123.9416.9416,0,0,0,.4517-.3516.9619.9619,0,0,0,.1636-.5566.9279.9279,0,0,0-.23-.6446,1.005,1.005,0,0,0-.5811-.3174,6.9941,6.9941,0,0,0-1.04-.0488Z"/>
         <path class="cls-49"
               d="M52.3266,256.0091h1.4453v3.8769a8.0659,8.0659,0,0,0,.0537,1.1963,1.1614,1.1614,0,0,0,.4419.7061,1.544,1.544,0,0,0,.9546.2656,1.4607,1.4607,0,0,0,.9277-.251.9953.9953,0,0,0,.376-.6181,8.03,8.03,0,0,0,.0635-1.2159v-3.96h1.4453v3.76a9.66,9.66,0,0,1-.1172,1.8213,2.0132,2.0132,0,0,1-.4321.8985,2.1928,2.1928,0,0,1-.8423.584,3.6727,3.6727,0,0,1-1.377.2167,3.9775,3.9775,0,0,1-1.5551-.2363,2.2314,2.2314,0,0,1-.8374-.6152,1.9708,1.9708,0,0,1-.4053-.794,8.707,8.707,0,0,1-.1416-1.8164Z"/>
         <path class="cls-49"
               d="M61.1694,263.1673V257.22H59.0453v-1.2109h5.6885V257.22H62.6147v5.9473Z"/>
         <path class="cls-49"
               d="M23.1664,275.1673v-7.1582h2.3194a8.4357,8.4357,0,0,1,1.7187.1074,1.8746,1.8746,0,0,1,1.03.7012,2.22,2.22,0,0,1,.415,1.3935,2.3323,2.3323,0,0,1-.2392,1.1084,1.9654,1.9654,0,0,1-.6079.7061,2.0792,2.0792,0,0,1-.75.3388,8.2482,8.2482,0,0,1-1.4991.1026h-.9424v2.7Zm1.4453-5.9473v2.0313h.7911a3.7247,3.7247,0,0,0,1.1425-.1123.9416.9416,0,0,0,.4517-.3516.9619.9619,0,0,0,.1636-.5566.9279.9279,0,0,0-.2295-.6446,1.005,1.005,0,0,0-.5811-.3174,6.9941,6.9941,0,0,0-1.04-.0488Z"/>
         <path class="cls-49"
               d="M29.5434,271.6321a4.554,4.554,0,0,1,.3271-1.8359,3.3725,3.3725,0,0,1,.6665-.9815,2.8076,2.8076,0,0,1,.9253-.6445,3.9355,3.9355,0,0,1,1.543-.2832,3.3614,3.3614,0,0,1,2.5317.9814,4.3868,4.3868,0,0,1,.0074,5.4424,3.7651,3.7651,0,0,1-5.0586.0049A3.6964,3.6964,0,0,1,29.5434,271.6321Zm1.4892-.0488a2.6838,2.6838,0,0,0,.5616,1.8437,1.9313,1.9313,0,0,0,2.8442.0049,2.7361,2.7361,0,0,0,.5542-1.8681,2.6923,2.6923,0,0,0-.54-1.836,1.9987,1.9987,0,0,0-2.8736.0078A2.7027,2.7027,0,0,0,31.0326,271.5833Z"/>
         <path class="cls-49"
               d="M38.63,275.1673l-1.709-7.1582h1.4795l1.0791,4.917,1.3086-4.917h1.7188l1.2548,5,1.0987-5h1.455l-1.7382,7.1582H43.0444l-1.4258-5.3516-1.4209,5.3516Z"/>
         <path class="cls-49"
               d="M47.0532,275.1673v-7.1582h5.3076V269.22H48.4985v1.5869h3.5937v1.2061H48.4985v1.9482h3.999v1.2061Z"/>
         <path class="cls-49"
               d="M53.728,275.1673v-7.1582H56.77a5.1942,5.1942,0,0,1,1.6675.1933,1.6447,1.6447,0,0,1,.8325.6856,2.0622,2.0622,0,0,1,.3125,1.1279,1.9127,1.9127,0,0,1-.4736,1.3311,2.2742,2.2742,0,0,1-1.416.6611,3.3919,3.3919,0,0,1,.7739.6006,8.1958,8.1958,0,0,1,.8228,1.1621l.874,1.3965H58.435L57.39,273.61a10.0155,10.0155,0,0,0-.7618-1.0518,1.1031,1.1031,0,0,0-.4345-.2978,2.3756,2.3756,0,0,0-.7276-.0811h-.2929v2.9883Zm1.4453-4.1309h1.0693a5.52,5.52,0,0,0,1.2988-.0879.7777.7777,0,0,0,.4053-.3027.93.93,0,0,0,.1465-.5371.8577.8577,0,0,0-.1929-.583.8832.8832,0,0,0-.5444-.2813c-.1172-.0156-.4688-.0244-1.0547-.0244H55.1733Z"/>
      </g>
      <text class="cls-48" transform="translate(265.1766 13.3086)">MANUAL BYPASS<tspan x="23.894" y="12">SWITCH</tspan>
      </text>
      <g id="No_background_28" data-name="No background 28">
         <g class="cls-50">
            <g class="cls-50">
               <line class="cls-25"
                     x1="283.4239"
                     y1="150.3594"
                     x2="267.1559"
                     y2="150.3594"/>
            </g>
            <rect class="cls-27"
                  x="267.473"
                  y="149.4196"
                  width="1.04"
                  height="1.881"/>
            <g class="cls-50">
               <path class="cls-25"
                     d="M275.8663,157.6431c-.19.0149-.383.0219-.576.0219a7.306,7.306,0,1,1,.744-14.5739"/>
               <path d="M274.2745,157.6656h0a1,1,0,1,1,1,1,1.0029,1.0029,0,0,1-1-1"/>
               <path d="M274.2745,143.0357h0a1,1,0,1,1,1,1,1.0029,1.0029,0,0,1-1-1"/>
            </g>
         </g>
      </g>
      <line class="cls-5"
            x1="283.3256"
            y1="150.2637"
            x2="294.976"
            y2="150.2637"/>
      <line class="cls-5"
            x1="258.6427"
            y1="150.3506"
            x2="267.324"
            y2="150.3506"/>
   </g>
</svg>
