<?xml version="1.0" encoding="UTF-8"?>
<svg xmlns="http://www.w3.org/2000/svg"
     xmlns:xlink="http://www.w3.org/1999/xlink"
     width="140mm"
     height="108.7923mm"
     viewBox="0 0 396.8504 308.3875">
   <defs>
      <style>
      .cls-1, .cls-16, .cls-19, .cls-3, .cls-4, .cls-6, .cls-8, .cls-9 {
        fill: none;
      }

      .cls-2 {
        clip-path: url(#clip-path);
      }

      .cls-3, .cls-6 {
        stroke: #626469;
      }

      .cls-19, .cls-3, .cls-4, .cls-6, .cls-8, .cls-9 {
        stroke-miterlimit: 3;
      }

      .cls-3, .cls-6, .cls-8 {
        stroke-width: 0.5px;
      }

      .cls-3 {
        stroke-dasharray: 2 1;
      }

      .cls-16, .cls-19, .cls-4, .cls-8, .cls-9 {
        stroke: #000;
      }

      .cls-16, .cls-4 {
        stroke-width: 0.75px;
      }

      .cls-5 {
        fill: #c6c6c6;
      }

      .cls-24, .cls-7 {
        fill-rule: evenodd;
      }

      .cls-9 {
        stroke-width: 2px;
      }

      .cls-10 {
        fill: #626469;
      }

      .cls-11 {
        isolation: isolate;
      }

      .cls-12 {
        clip-path: url(#clip-path-3);
      }

      .cls-13 {
        font-size: 6px;
      }

      .cls-13, .cls-22, .cls-45, .cls-53 {
        fill: #01889C;
      }

      .cls-13, .cls-22, .cls-45 {
        font-family: Arial-BoldMT, Arial;
        font-weight: 700;
      }

      .cls-14 {
        clip-path: url(#clip-path-4);
      }

      .cls-15 {
        clip-path: url(#clip-path-5);
      }

      .cls-16 {
        stroke-miterlimit: 10;
      }

      .cls-17 {
        clip-path: url(#clip-path-6);
      }

      .cls-18, .cls-24 {
        fill: #fff;
      }

      .cls-19 {
        stroke-width: 0.7087px;
      }

      .cls-20 {
        clip-path: url(#clip-path-9);
      }

      .cls-21 {
        clip-path: url(#clip-path-12);
      }

      .cls-22 {
        font-size: 8px;
      }

      .cls-23 {
        clip-path: url(#clip-path-13);
      }

      .cls-25 {
        clip-path: url(#clip-path-15);
      }

      .cls-26 {
        clip-path: url(#clip-path-17);
      }

      .cls-27 {
        clip-path: url(#clip-path-19);
      }

      .cls-28 {
        clip-path: url(#clip-path-21);
      }

      .cls-29 {
        clip-path: url(#clip-path-24);
      }

      .cls-30 {
        clip-path: url(#clip-path-27);
      }

      .cls-31 {
        clip-path: url(#clip-path-30);
      }

      .cls-32 {
        clip-path: url(#clip-path-31);
      }

      .cls-33 {
        clip-path: url(#clip-path-33);
      }

      .cls-34 {
        clip-path: url(#clip-path-34);
      }

      .cls-35 {
        clip-path: url(#clip-path-35);
      }

      .cls-36 {
        clip-path: url(#clip-path-37);
      }

      .cls-37 {
        clip-path: url(#clip-path-40);
      }

      .cls-38 {
        clip-path: url(#clip-path-42);
      }

      .cls-39 {
        clip-path: url(#clip-path-44);
      }

      .cls-40 {
        clip-path: url(#clip-path-46);
      }

      .cls-41 {
        clip-path: url(#clip-path-49);
      }

      .cls-42 {
        clip-path: url(#clip-path-51);
      }

      .cls-43 {
        clip-path: url(#clip-path-52);
      }

      .cls-44 {
        clip-path: url(#clip-path-53);
      }

      .cls-45 {
        font-size: 10px;
      }

      .cls-46 {
        clip-path: url(#clip-path-55);
      }

      .cls-47 {
        clip-path: url(#clip-path-57);
      }

      .cls-48 {
        clip-path: url(#clip-path-58);
      }

      .cls-49 {
        clip-path: url(#clip-path-59);
      }

      .cls-50 {
        clip-path: url(#clip-path-60);
      }

      .cls-51 {
        clip-path: url(#clip-path-61);
      }

      .cls-52 {
        clip-path: url(#clip-path-62);
      }
    </style>
      <clipPath id="clip-path">
         <rect class="cls-1"
               x="264.5507"
               y="41.2237"
               width="76.0872"
               height="111.302"/>
      </clipPath>
      <clipPath id="clip-path-3">
         <rect class="cls-1"
               x="277.7206"
               y="41.6287"
               width="24.6738"
               height="7.406"/>
      </clipPath>
      <clipPath id="clip-path-4">
         <rect class="cls-1"
               x="287.0604"
               y="47.6287"
               width="15.334"
               height="7.4061"/>
      </clipPath>
      <clipPath id="clip-path-5">
         <rect class="cls-1"
               x="285.3963"
               y="53.628"
               width="16.9981"
               height="7.4063"/>
      </clipPath>
      <clipPath id="clip-path-6">
         <rect class="cls-1"
               x="104.0175"
               y="130.3917"
               width="35.434"
               height="39.6861"/>
      </clipPath>
      <clipPath id="clip-path-9">
         <rect class="cls-1"
               x="170.7059"
               y="90.2428"
               width="46.8331"
               height="32"/>
      </clipPath>
      <clipPath id="clip-path-12">
         <rect class="cls-1"
               x="202.4159"
               y="114.091"
               width="11.1133"
               height="9.875"/>
      </clipPath>
      <clipPath id="clip-path-13">
         <rect class="cls-1"
               x="32.0696"
               y="147.182"
               width="6.125"
               height="6.125"/>
      </clipPath>
      <clipPath id="clip-path-15">
         <rect class="cls-1"
               x="224.8565"
               y="147.9438"
               width="4.5709"
               height="4.5819"/>
      </clipPath>
      <clipPath id="clip-path-17">
         <rect class="cls-1"
               x="32.0696"
               y="29.3724"
               width="6.125"
               height="6.125"/>
      </clipPath>
      <clipPath id="clip-path-19">
         <rect class="cls-1"
               x="170.7059"
               y="134.2347"
               width="46.8331"
               height="32"/>
      </clipPath>
      <clipPath id="clip-path-21">
         <rect class="cls-1"
               x="202.4159"
               y="158.0829"
               width="11.1133"
               height="9.875"/>
      </clipPath>
      <clipPath id="clip-path-24">
         <rect class="cls-1"
               x="104.0175"
               y="261.4274"
               width="35.434"
               height="39.6861"/>
      </clipPath>
      <clipPath id="clip-path-27">
         <rect class="cls-1"
               x="170.7059"
               y="221.2785"
               width="46.8331"
               height="32"/>
      </clipPath>
      <clipPath id="clip-path-30">
         <rect class="cls-1"
               x="202.4159"
               y="245.1268"
               width="11.1133"
               height="9.875"/>
      </clipPath>
      <clipPath id="clip-path-31">
         <rect class="cls-1"
               x="32.0696"
               y="278.2177"
               width="6.125"
               height="6.125"/>
      </clipPath>
      <clipPath id="clip-path-33">
         <rect class="cls-1"
               x="224.8565"
               y="278.9795"
               width="4.5709"
               height="4.5819"/>
      </clipPath>
      <clipPath id="clip-path-34">
         <rect class="cls-1"
               x="224.8565"
               y="278.9794"
               width="4.571"
               height="4.582"/>
      </clipPath>
      <clipPath id="clip-path-35">
         <rect class="cls-1"
               x="170.7059"
               y="265.2705"
               width="46.8331"
               height="32"/>
      </clipPath>
      <clipPath id="clip-path-37">
         <rect class="cls-1"
               x="202.4159"
               y="289.1186"
               width="11.1133"
               height="9.875"/>
      </clipPath>
      <clipPath id="clip-path-40">
         <rect class="cls-1"
               x="368.0792"
               y="138.8756"
               width="6.125"
               height="6.125"/>
      </clipPath>
      <clipPath id="clip-path-42">
         <rect class="cls-1"
               x="266.7235"
               y="56.7786"
               width="4.5709"
               height="4.5819"/>
      </clipPath>
      <clipPath id="clip-path-44">
         <rect class="cls-1"
               x="274.8576"
               y="147.9734"
               width="4.5709"
               height="4.5819"/>
      </clipPath>
      <clipPath id="clip-path-46">
         <rect class="cls-1"
               x="260.8748"
               y="141.9197"
               width="16.2683"
               height="16.63"/>
      </clipPath>
      <clipPath id="clip-path-49">
         <rect class="cls-1"
               x="63.9136"
               y="24.3008"
               width="16.63"
               height="16.2683"/>
      </clipPath>
      <clipPath id="clip-path-51">
         <rect class="cls-1"
               x="63.9136"
               y="142.1103"
               width="16.63"
               height="16.2683"/>
      </clipPath>
      <clipPath id="clip-path-52">
         <rect class="cls-1"
               x="63.9136"
               y="142.1106"
               width="16.63"
               height="16.268"/>
      </clipPath>
      <clipPath id="clip-path-53">
         <rect class="cls-1"
               x="63.9136"
               y="273.1461"
               width="16.63"
               height="16.2683"/>
      </clipPath>
      <clipPath id="clip-path-55">
         <rect class="cls-1"
               x="236.8361"
               y="142.1006"
               width="16.63"
               height="16.2683"/>
      </clipPath>
      <clipPath id="clip-path-57">
         <rect class="cls-1"
               x="236.8361"
               y="273.1363"
               width="16.63"
               height="16.2683"/>
      </clipPath>
      <clipPath id="clip-path-58">
         <rect class="cls-1"
               x="236.8361"
               y="273.1366"
               width="16.63"
               height="16.268"/>
      </clipPath>
      <clipPath id="clip-path-59">
         <rect class="cls-1"
               x="236.8361"
               y="182.1933"
               width="16.63"
               height="16.2683"/>
      </clipPath>
      <clipPath id="clip-path-60">
         <rect class="cls-1"
               x="236.8361"
               y="182.1936"
               width="16.63"
               height="16.268"/>
      </clipPath>
      <clipPath id="clip-path-61">
         <rect class="cls-1"
               x="236.8361"
               y="51.1323"
               width="16.63"
               height="16.2683"/>
      </clipPath>
      <clipPath id="clip-path-62">
         <rect class="cls-1"
               x="236.8361"
               y="51.1326"
               width="16.63"
               height="16.268"/>
      </clipPath>
   </defs>
   <g id="MB_Auto" data-name="MB Auto">
      <g id="Auto">
         <g class="cls-2">
            <line class="cls-3"
                  x1="309.7137"
                  y1="145.4391"
                  x2="309.7137"
                  y2="46.9111"/>
            <line class="cls-4"
                  x1="278.6483"
                  y1="105.7755"
                  x2="295.2973"
                  y2="105.7755"/>
            <polyline class="cls-4"
                      points="295.297 81.776 278.648 81.776 278.648 73.776 295.297 73.776"/>
            <line class="cls-5"
                  x1="302.6874"
                  y1="57.1905"
                  x2="316.2484"
                  y2="50.3375"/>
            <line class="cls-6"
                  x1="302.6874"
                  y1="57.1905"
                  x2="316.2484"
                  y2="50.3375"/>
            <polyline class="cls-4"
                      points="302.2 121.775 316.102 113.776 326.224 113.776 326.224 141.751 316.102 141.751 302.2 149.775"/>
            <polyline class="cls-4"
                      points="302.2 81.776 316.102 73.776 326.224 73.776 326.224 93.776 278.649 93.776 278.649 113.776 295.298 113.776"/>
            <g class="cls-2">
               <path class="cls-7" d="M278.6483,72.7755a1,1,0,1,1-1,1,1,1,0,0,1,1-1"/>
               <circle class="cls-8" cx="278.6483" cy="73.7755" r="1"/>
               <path class="cls-7" d="M326.224,72.7755a1,1,0,1,1-1,1,1,1,0,0,1,1-1"/>
               <circle class="cls-8" cx="326.224" cy="73.7755" r="1"/>
               <path class="cls-7" d="M278.6483,104.7755a1,1,0,1,1-1,1,1,1,0,0,1,1-1"/>
               <circle class="cls-8" cx="278.6483" cy="105.7755" r="1"/>
               <path class="cls-7" d="M326.2206,140.776a1,1,0,1,1-1,1,1,1,0,0,1,1-1"/>
               <circle class="cls-8" cx="326.2206" cy="141.776" r="1"/>
               <line class="cls-9"
                     x1="288.1996"
                     y1="141.776"
                     x2="302.3946"
                     y2="141.776"/>
               <line class="cls-9"
                     x1="288.1996"
                     y1="133.776"
                     x2="302.3946"
                     y2="133.776"/>
               <line class="cls-9"
                     x1="288.1996"
                     y1="149.776"
                     x2="302.3946"
                     y2="149.776"/>
               <line class="cls-9"
                     x1="288.1996"
                     y1="113.7755"
                     x2="302.3946"
                     y2="113.7755"/>
               <line class="cls-9"
                     x1="288.1996"
                     y1="105.7755"
                     x2="302.3946"
                     y2="105.7755"/>
               <line class="cls-9"
                     x1="288.1996"
                     y1="121.7755"
                     x2="302.3946"
                     y2="121.7755"/>
               <line class="cls-9"
                     x1="288.1996"
                     y1="73.7755"
                     x2="302.3946"
                     y2="73.7755"/>
               <line class="cls-9"
                     x1="288.1996"
                     y1="65.7755"
                     x2="302.3946"
                     y2="65.7755"/>
               <line class="cls-9"
                     x1="288.1996"
                     y1="81.7755"
                     x2="302.3946"
                     y2="81.7755"/>
               <line class="cls-3"
                     x1="302.6874"
                     y1="50.338"
                     x2="316.2484"
                     y2="50.338"/>
               <line class="cls-10"
                     x1="302.6874"
                     y1="43.485"
                     x2="316.2484"
                     y2="50.338"/>
               <line class="cls-3"
                     x1="302.6874"
                     y1="43.485"
                     x2="316.2484"
                     y2="50.338"/>
               <g class="cls-11">
                  <g class="cls-12">
                     <text class="cls-13" transform="translate(277.7206 46.7758)">BYPASS</text>
                  </g>
               </g>
               <g class="cls-11">
                  <g class="cls-14">
                     <text class="cls-13" transform="translate(287.0605 52.7758)">TEST</text>
                  </g>
               </g>
               <g class="cls-11">
                  <g class="cls-15">
                     <text class="cls-13" transform="translate(285.3964 58.7758)">AUTO</text>
                  </g>
               </g>
            </g>
         </g>
      </g>
   </g>
   <g id="Paths">
      <polyline class="cls-16"
                points="227.143 150.244 227.143 106.243 144.948 106.243 144.948 59.266 278.652 59.266 278.652 73.875"/>
      <polyline class="cls-16" points="80.375 32.435 326.216 32.673 326.216 73.773"/>
      <path class="cls-4" d="M289.6309,150.2445H79.4845"/>
      <path class="cls-4" d="M64.9845,150.2445H36.0333"/>
      <line class="cls-16"
            x1="35.1321"
            y1="32.4349"
            x2="65.9845"
            y2="32.4349"/>
      <polyline class="cls-16"
                points="227.143 281.28 227.143 237.279 144.948 237.279 144.948 190.302 269.108 190.302 269.108 59.266"/>
      <path class="cls-4" d="M79.4845,281.28H277.1431V150.2644"/>
      <path class="cls-4" d="M64.9845,281.28H36.0333"/>
      <line class="cls-16"
            x1="371.4344"
            y1="141.9494"
            x2="326.4114"
            y2="141.9494"/>
   </g>
   <g id="Parts">
      <g id="Inverter">
         <g class="cls-17">
            <rect class="cls-18"
                  x="104.7253"
                  y="133.2255"
                  width="34.0176"
                  height="34.0166"/>
            <g class="cls-17">
               <rect class="cls-19"
                     x="104.7253"
                     y="133.2255"
                     width="34.0166"
                     height="34.0166"/>
               <line class="cls-19"
                     x1="104.7282"
                     y1="167.2443"
                     x2="138.7439"
                     y2="133.2286"/>
            </g>
            <line class="cls-19"
                  x1="107.9144"
                  y1="139.6067"
                  x2="117.4778"
                  y2="139.6067"/>
            <line class="cls-19"
                  x1="110.1661"
                  y1="141.7327"
                  x2="107.9143"
                  y2="141.7327"/>
            <line class="cls-19"
                  x1="113.8215"
                  y1="141.7327"
                  x2="111.5707"
                  y2="141.7327"/>
            <line class="cls-19"
                  x1="117.4775"
                  y1="141.7327"
                  x2="115.2258"
                  y2="141.7327"/>
            <g class="cls-17">
               <path class="cls-19"
                     d="M127.0493,159.92a2.1864,2.1864,0,0,1,2.126-2.0061c1.0413,0,1.87.53,2.126,2.0061a2.1381,2.1381,0,0,0,2.1261,2.0041,2.2986,2.2986,0,0,0,2.126-2.0041"/>
            </g>
         </g>
      </g>
      <g id="Artwork_11" data-name="Artwork 11">
         <g class="cls-20">
            <rect class="cls-18"
                  x="172.0769"
                  y="91.5318"
                  width="29.339"
                  height="29.423"/>
            <g class="cls-20">
               <rect class="cls-4"
                     x="172.0769"
                     y="91.5318"
                     width="29.339"
                     height="29.423"/>
               <line class="cls-16"
                     x1="172.0771"
                     y1="106.2434"
                     x2="201.4161"
                     y2="106.2434"/>
            </g>
            <rect class="cls-18"
                  x="179.4069"
                  y="98.6588"
                  width="15.128"
                  height="15.171"/>
            <rect class="cls-4"
                  x="179.4069"
                  y="98.6588"
                  width="15.128"
                  height="15.171"/>
            <line class="cls-4"
                  x1="184.3749"
                  y1="117.509"
                  x2="184.3749"
                  y2="110.149"/>
            <line class="cls-4"
                  x1="187.3173"
                  y1="117.509"
                  x2="187.3063"
                  y2="115.167"/>
            <path d="M190.5722,111.3647v4.929l-4.909-2.464Zm.75-1.216-7.33,3.681,7.33,3.679Z"/>
            <line class="cls-4"
                  x1="190.0331"
                  y1="95.0315"
                  x2="190.0331"
                  y2="102.3915"/>
            <line class="cls-4"
                  x1="186.7441"
                  y1="94.9807"
                  x2="186.7441"
                  y2="96.9937"/>
            <path d="M183.829,96.1928l4.909,2.464-4.909,2.465Zm-.75-1.216v7.36l7.33-3.68Z"/>
            <g class="cls-20">
               <path class="cls-7"
                     d="M179.4071,105.2424a1,1,0,1,1-.997,1,.9984.9984,0,0,1,.997-1"/>
               <circle class="cls-4" cx="179.4071" cy="106.2424" r="0.997"/>
               <path class="cls-7"
                     d="M194.5351,105.2434a1,1,0,1,1-.997,1,.9984.9984,0,0,1,.997-1"/>
               <circle class="cls-4" cx="194.5351" cy="106.2434" r="0.997"/>
               <g class="cls-11">
                  <g class="cls-21">
                     <text class="cls-22" transform="translate(202.4153 120.9543)">EN</text>
                  </g>
               </g>
            </g>
         </g>
      </g>
      <g id="Artwork_13" data-name="Artwork 13">
         <g class="cls-23">
            <g class="cls-23">
               <path class="cls-24"
                     d="M35.132,148.2449a2,2,0,1,1-2,2,2.0007,2.0007,0,0,1,2-2"/>
               <circle class="cls-4" cx="35.132" cy="150.2449" r="2"/>
            </g>
         </g>
      </g>
      <g id="shape116-109">
         <g class="cls-25">
            <g class="cls-25">
               <path class="cls-7"
                     d="M227.1416,149.2314a1.003,1.003,0,1,1-1,1.003,1.001,1.001,0,0,1,1-1.003"/>
               <circle class="cls-8" cx="227.1416" cy="150.2344" r="1"/>
            </g>
         </g>
      </g>
      <g id="Artwork_13-2" data-name="Artwork 13">
         <g class="cls-26">
            <g class="cls-26">
               <path class="cls-24"
                     d="M35.132,30.4353a2,2,0,1,1-2,2,2.0007,2.0007,0,0,1,2-2"/>
               <circle class="cls-4" cx="35.132" cy="32.4353" r="2"/>
            </g>
         </g>
      </g>
      <g id="Artwork_12" data-name="Artwork 12">
         <g class="cls-27">
            <g class="cls-27">
               <g class="cls-11">
                  <g class="cls-28">
                     <text class="cls-22" transform="translate(202.4153 164.9452)">EA</text>
                  </g>
               </g>
            </g>
            <rect class="cls-18"
                  x="172.0769"
                  y="135.5227"
                  width="29.339"
                  height="29.423"/>
            <g class="cls-27">
               <rect class="cls-4"
                     x="172.0769"
                     y="135.5227"
                     width="29.339"
                     height="29.423"/>
               <line class="cls-16"
                     x1="172.0771"
                     y1="150.2352"
                     x2="201.4161"
                     y2="150.2352"/>
            </g>
            <rect class="cls-18"
                  x="179.4069"
                  y="142.6507"
                  width="15.128"
                  height="15.171"/>
            <rect class="cls-4"
                  x="179.4069"
                  y="142.6507"
                  width="15.128"
                  height="15.171"/>
            <line class="cls-4"
                  x1="184.3749"
                  y1="161.5008"
                  x2="184.3749"
                  y2="154.1408"/>
            <line class="cls-4"
                  x1="187.3173"
                  y1="161.5008"
                  x2="187.3063"
                  y2="159.1588"/>
            <path d="M190.5722,155.3565v4.929l-4.909-2.464Zm.75-1.216-7.33,3.681,7.33,3.679Z"/>
            <line class="cls-4"
                  x1="190.0331"
                  y1="139.0233"
                  x2="190.0331"
                  y2="146.3833"/>
            <line class="cls-4"
                  x1="186.7441"
                  y1="138.972"
                  x2="186.7441"
                  y2="140.985"/>
            <path d="M183.829,140.1846l4.909,2.464-4.909,2.465Zm-.75-1.216v7.36l7.33-3.68Z"/>
            <g class="cls-27">
               <path class="cls-7"
                     d="M179.4071,149.2352a1,1,0,1,1-.997,1,.9978.9978,0,0,1,.997-1"/>
               <circle class="cls-4" cx="179.4071" cy="150.2352" r="0.997"/>
               <path class="cls-7"
                     d="M194.5351,149.2352a1,1,0,1,1-.997,1,.9984.9984,0,0,1,.997-1"/>
               <circle class="cls-4" cx="194.5351" cy="150.2352" r="0.997"/>
            </g>
         </g>
      </g>
      <g id="Inverter-2" data-name="Inverter">
         <g class="cls-29">
            <rect class="cls-18"
                  x="104.7253"
                  y="264.2612"
                  width="34.0176"
                  height="34.0166"/>
            <g class="cls-29">
               <rect class="cls-19"
                     x="104.7253"
                     y="264.2612"
                     width="34.0166"
                     height="34.0166"/>
               <line class="cls-19"
                     x1="104.7282"
                     y1="298.28"
                     x2="138.7439"
                     y2="264.2643"/>
            </g>
            <line class="cls-19"
                  x1="107.9144"
                  y1="270.6425"
                  x2="117.4778"
                  y2="270.6425"/>
            <line class="cls-19"
                  x1="110.1661"
                  y1="272.7685"
                  x2="107.9143"
                  y2="272.7685"/>
            <line class="cls-19"
                  x1="113.8215"
                  y1="272.7685"
                  x2="111.5707"
                  y2="272.7685"/>
            <line class="cls-19"
                  x1="117.4775"
                  y1="272.7685"
                  x2="115.2258"
                  y2="272.7685"/>
            <g class="cls-29">
               <path class="cls-19"
                     d="M127.0493,290.9552a2.1863,2.1863,0,0,1,2.126-2.006c1.0413,0,1.87.53,2.126,2.006a2.1381,2.1381,0,0,0,2.1261,2.0041,2.2986,2.2986,0,0,0,2.126-2.0041"/>
            </g>
         </g>
      </g>
      <g id="Artwork_11-2" data-name="Artwork 11">
         <g class="cls-30">
            <rect class="cls-18"
                  x="172.0769"
                  y="222.5675"
                  width="29.339"
                  height="29.423"/>
            <g class="cls-30">
               <rect class="cls-4"
                     x="172.0769"
                     y="222.5675"
                     width="29.339"
                     height="29.423"/>
               <line class="cls-16"
                     x1="172.0771"
                     y1="237.2791"
                     x2="201.4161"
                     y2="237.2791"/>
            </g>
            <rect class="cls-18"
                  x="179.4069"
                  y="229.6945"
                  width="15.128"
                  height="15.171"/>
            <rect class="cls-4"
                  x="179.4069"
                  y="229.6945"
                  width="15.128"
                  height="15.171"/>
            <line class="cls-4"
                  x1="184.3749"
                  y1="248.5447"
                  x2="184.3749"
                  y2="241.1847"/>
            <line class="cls-4"
                  x1="187.3173"
                  y1="248.5447"
                  x2="187.3063"
                  y2="246.2027"/>
            <path d="M190.5722,242.4v4.929l-4.909-2.464Zm.75-1.216-7.33,3.681,7.33,3.679Z"/>
            <line class="cls-4"
                  x1="190.0331"
                  y1="226.0672"
                  x2="190.0331"
                  y2="233.4272"/>
            <line class="cls-4"
                  x1="186.7441"
                  y1="226.0164"
                  x2="186.7441"
                  y2="228.0294"/>
            <path d="M183.829,227.2285l4.909,2.464-4.909,2.465Zm-.75-1.216v7.36l7.33-3.68Z"/>
            <g class="cls-30">
               <path class="cls-7"
                     d="M179.4071,236.2781a1,1,0,1,1-.997,1,.9984.9984,0,0,1,.997-1"/>
               <circle class="cls-4" cx="179.4071" cy="237.2781" r="0.997"/>
               <path class="cls-7"
                     d="M194.5351,236.2791a1,1,0,1,1-.997,1,.9984.9984,0,0,1,.997-1"/>
               <circle class="cls-4" cx="194.5351" cy="237.2791" r="0.997"/>
               <g class="cls-11">
                  <g class="cls-31">
                     <text class="cls-22" transform="translate(202.4153 251.99)">EN</text>
                  </g>
               </g>
            </g>
         </g>
      </g>
      <g id="Artwork_13-3" data-name="Artwork 13">
         <g class="cls-32">
            <g class="cls-32">
               <path class="cls-24"
                     d="M35.132,279.2806a2,2,0,1,1-2,2,2.0007,2.0007,0,0,1,2-2"/>
               <circle class="cls-4" cx="35.132" cy="281.2806" r="2"/>
            </g>
         </g>
      </g>
      <g id="shape116-109-2" data-name="shape116-109">
         <g class="cls-33">
            <g class="cls-34">
               <path class="cls-7"
                     d="M227.1416,280.2671a1.003,1.003,0,1,1-1,1.003,1.001,1.001,0,0,1,1-1.003"/>
               <circle class="cls-8" cx="227.1416" cy="281.2701" r="1"/>
            </g>
         </g>
      </g>
      <g id="Artwork_12-2" data-name="Artwork 12">
         <g class="cls-35">
            <g class="cls-35">
               <g class="cls-11">
                  <g class="cls-36">
                     <text class="cls-22" transform="translate(202.4153 295.981)">EA</text>
                  </g>
               </g>
            </g>
            <rect class="cls-18"
                  x="172.0769"
                  y="266.5585"
                  width="29.339"
                  height="29.423"/>
            <g class="cls-35">
               <rect class="cls-4"
                     x="172.0769"
                     y="266.5585"
                     width="29.339"
                     height="29.423"/>
               <line class="cls-16"
                     x1="172.0771"
                     y1="281.271"
                     x2="201.4161"
                     y2="281.271"/>
            </g>
            <rect class="cls-18"
                  x="179.4069"
                  y="273.6865"
                  width="15.128"
                  height="15.171"/>
            <rect class="cls-4"
                  x="179.4069"
                  y="273.6865"
                  width="15.128"
                  height="15.171"/>
            <line class="cls-4"
                  x1="184.3749"
                  y1="292.5366"
                  x2="184.3749"
                  y2="285.1766"/>
            <line class="cls-4"
                  x1="187.3173"
                  y1="292.5366"
                  x2="187.3063"
                  y2="290.1946"/>
            <path d="M190.5722,286.3923v4.929l-4.909-2.464Zm.75-1.216-7.33,3.681,7.33,3.679Z"/>
            <line class="cls-4"
                  x1="190.0331"
                  y1="270.0591"
                  x2="190.0331"
                  y2="277.4191"/>
            <line class="cls-4"
                  x1="186.7441"
                  y1="270.0078"
                  x2="186.7441"
                  y2="272.0208"/>
            <path d="M183.829,271.22l4.909,2.464-4.909,2.465Zm-.75-1.216v7.36l7.33-3.68Z"/>
            <g class="cls-35">
               <path class="cls-7"
                     d="M179.4071,280.271a1,1,0,1,1-.997,1,.9978.9978,0,0,1,.997-1"/>
               <circle class="cls-4" cx="179.4071" cy="281.271" r="0.997"/>
               <path class="cls-7"
                     d="M194.5351,280.271a1,1,0,1,1-.997,1,.9984.9984,0,0,1,.997-1"/>
               <circle class="cls-4" cx="194.5351" cy="281.271" r="0.997"/>
            </g>
         </g>
      </g>
      <g id="Artwork_13-4" data-name="Artwork 13">
         <g class="cls-37">
            <g class="cls-37">
               <path class="cls-24"
                     d="M371.1416,139.9385a2,2,0,1,1-2,2,2.0007,2.0007,0,0,1,2-2"/>
               <circle class="cls-4" cx="371.1416" cy="141.9385" r="2"/>
            </g>
         </g>
      </g>
      <g id="shape116-109-3" data-name="shape116-109">
         <g class="cls-38">
            <g class="cls-38">
               <path class="cls-7"
                     d="M269.0086,58.0663a1.003,1.003,0,1,1-1,1.003,1.001,1.001,0,0,1,1-1.003"/>
               <circle class="cls-8" cx="269.0086" cy="59.0693" r="1"/>
            </g>
         </g>
      </g>
      <g id="shape116-109-4" data-name="shape116-109">
         <g class="cls-39">
            <g class="cls-39">
               <path class="cls-7"
                     d="M277.1427,149.261a1.003,1.003,0,1,1-1,1.003,1.001,1.001,0,0,1,1-1.003"/>
               <circle class="cls-8" cx="277.1427" cy="150.264" r="1"/>
            </g>
         </g>
      </g>
      <g id="Artwork_28" data-name="Artwork 28">
         <g class="cls-40">
            <rect class="cls-18"
                  x="267.5338"
                  y="142.9377"
                  width="2.977"
                  height="14.612"/>
            <g class="cls-40">
               <line class="cls-16"
                     x1="277.1427"
                     y1="150.2435"
                     x2="260.8747"
                     y2="150.2435"/>
            </g>
            <rect class="cls-18"
                  x="261.1918"
                  y="149.3037"
                  width="1.04"
                  height="1.881"/>
            <g class="cls-40">
               <path class="cls-16"
                     d="M269.5851,157.5272c-.19.015-.383.022-.576.022a7.306,7.306,0,1,1,.744-14.574"/>
               <path d="M267.9933,157.55h0a1,1,0,1,1,1,1,1.0029,1.0029,0,0,1-1-1"/>
               <path d="M267.9933,142.92h0a1,1,0,1,1,1,1,1.0029,1.0029,0,0,1-1-1"/>
            </g>
         </g>
      </g>
      <g id="Artwork_20" data-name="Artwork 20">
         <g class="cls-41">
            <rect class="cls-18"
                  x="64.9316"
                  y="29.9341"
                  width="14.612"
                  height="5.032"/>
            <g class="cls-41">
               <line class="cls-4"
                     x1="64.9137"
                     y1="39.2123"
                     x2="79.5437"
                     y2="32.4463"/>
               <path d="M79.5436,33.4506h0a1,1,0,1,1,1-1,1.0029,1.0029,0,0,1-1,1"/>
               <path d="M64.9137,33.4506h0a1,1,0,1,1,1-1,1.0029,1.0029,0,0,1-1,1"/>
            </g>
         </g>
      </g>
      <g id="Artwork_20-2" data-name="Artwork 20">
         <g class="cls-42">
            <rect class="cls-18"
                  x="64.9316"
                  y="147.7436"
                  width="14.612"
                  height="5.032"/>
            <g class="cls-43">
               <line class="cls-4"
                     x1="64.9137"
                     y1="157.0218"
                     x2="79.5437"
                     y2="150.2558"/>
               <path d="M79.5436,151.26h0a1,1,0,1,1,1-1,1.0029,1.0029,0,0,1-1,1"/>
               <path d="M64.9137,151.26h0a1,1,0,1,1,1-1,1.0029,1.0029,0,0,1-1,1"/>
            </g>
         </g>
      </g>
      <g id="Artwork_20-3" data-name="Artwork 20">
         <g class="cls-44">
            <rect class="cls-18"
                  x="64.9316"
                  y="278.7794"
                  width="14.612"
                  height="5.032"/>
            <g class="cls-44">
               <line class="cls-4"
                     x1="64.9137"
                     y1="288.0576"
                     x2="79.5437"
                     y2="281.2916"/>
               <path d="M79.5436,282.2959h0a1,1,0,1,1,1-1,1.0029,1.0029,0,0,1-1,1"/>
               <path d="M64.9137,282.2959h0a1,1,0,1,1,1-1,1.0029,1.0029,0,0,1-1,1"/>
            </g>
         </g>
      </g>
   </g>
   <g id="Text">
      <text class="cls-45" transform="translate(14.571 13.2645)">BYPASS<tspan x="4.4507" y="12">MAINS</tspan>
      </text>
      <text class="cls-45" transform="translate(169.1441 74.2841)">STATIC<tspan x="-8.335" y="12">SWITCHES</tspan>
      </text>
      <text class="cls-45" transform="translate(92.284 128.235)">INVERTER 1</text>
      <text class="cls-45" transform="translate(169.1441 205.3198)">STATIC<tspan x="-8.335" y="12">SWITCHES</tspan>
      </text>
      <text class="cls-45" transform="translate(92.284 259.271)">INVERTER 2</text>
      <g id="Artwork_20-4" data-name="Artwork 20">
         <g class="cls-46">
            <rect class="cls-18"
                  x="237.8541"
                  y="147.7339"
                  width="14.612"
                  height="5.032"/>
            <g class="cls-46">
               <line class="cls-4"
                     x1="237.8362"
                     y1="157.0121"
                     x2="252.4662"
                     y2="150.2461"/>
               <path d="M252.4661,151.25h0a1,1,0,1,1,1-1,1.0029,1.0029,0,0,1-1,1"/>
               <path d="M237.8362,151.25h0a1,1,0,1,1,1-1,1.0029,1.0029,0,0,1-1,1"/>
            </g>
         </g>
      </g>
      <g id="Artwork_20-5" data-name="Artwork 20">
         <g class="cls-47">
            <rect class="cls-18"
                  x="237.8541"
                  y="278.7696"
                  width="14.612"
                  height="5.032"/>
            <g class="cls-48">
               <line class="cls-4"
                     x1="237.8362"
                     y1="288.0478"
                     x2="252.4662"
                     y2="281.2818"/>
               <path d="M252.4661,282.2861h0a1,1,0,1,1,1-1,1.0029,1.0029,0,0,1-1,1"/>
               <path d="M237.8362,282.2861h0a1,1,0,1,1,1-1,1.0029,1.0029,0,0,1-1,1"/>
            </g>
         </g>
      </g>
      <g id="Artwork_20_Mirror" data-name="Artwork 20 Mirror">
         <g class="cls-49">
            <rect class="cls-18"
                  x="237.8541"
                  y="187.8266"
                  width="14.612"
                  height="5.032"/>
            <g class="cls-50">
               <line class="cls-4"
                     x1="237.8362"
                     y1="190.3392"
                     x2="252.4662"
                     y2="197.1051"/>
               <path d="M252.4661,191.3431h0a1,1,0,1,1,1-1,1.0029,1.0029,0,0,1-1,1"/>
               <path d="M237.8362,191.3431h0a1,1,0,1,1,1-1,1.0029,1.0029,0,0,1-1,1"/>
            </g>
         </g>
      </g>
      <g id="Artwork_20_Mirror-2" data-name="Artwork 20 Mirror">
         <g class="cls-51">
            <rect class="cls-18"
                  x="237.8541"
                  y="56.7656"
                  width="14.612"
                  height="5.032"/>
            <g class="cls-52">
               <line class="cls-4"
                     x1="237.8362"
                     y1="59.2782"
                     x2="252.4662"
                     y2="66.0442"/>
               <path d="M252.4661,60.2821h0a1,1,0,1,1,1-1,1.0029,1.0029,0,0,1-1,1"/>
               <path d="M237.8362,60.2821h0a1,1,0,1,1,1-1,1.0029,1.0029,0,0,1-1,1"/>
            </g>
         </g>
      </g>
      <text class="cls-45" transform="translate(350.5871 135.8111)">OUTPUT</text>
      <g>
         <path class="cls-53"
               d="M12.2433,124.41h2.6416a5.1519,5.1519,0,0,1,1.3623.1367,2.3868,2.3868,0,0,1,1.0791.6592,3.1342,3.1342,0,0,1,.6836,1.16,5.283,5.283,0,0,1,.2344,1.6919,4.7031,4.7031,0,0,1-.22,1.5235,3.1508,3.1508,0,0,1-.7666,1.2646,2.54,2.54,0,0,1-1.0156.5713,4.3664,4.3664,0,0,1-1.2793.1514h-2.72Zm1.4453,1.2109v4.7412h1.0791a3.9443,3.9443,0,0,0,.8741-.0683,1.33,1.33,0,0,0,.583-.2979,1.5105,1.5105,0,0,0,.3789-.6909,4.6732,4.6732,0,0,0,.1465-1.311,4.28,4.28,0,0,0-.1465-1.2745,1.6374,1.6374,0,0,0-.41-.6933,1.3741,1.3741,0,0,0-.6689-.3369,6.5662,6.5662,0,0,0-1.1865-.0684Z"/>
         <path class="cls-53"
               d="M24.05,128.9362l1.4013.4444a3.1423,3.1423,0,0,1-1.0722,1.7407,3.3719,3.3719,0,0,1-4.2451-.4053,3.7252,3.7252,0,0,1-.918-2.6635,3.9131,3.9131,0,0,1,.9228-2.7759,3.1641,3.1641,0,0,1,2.4268-.9888,2.9767,2.9767,0,0,1,2.1338.7764,2.8133,2.8133,0,0,1,.7324,1.3183l-1.4307.3418a1.4794,1.4794,0,0,0-1.5087-1.2011,1.6266,1.6266,0,0,0-1.2911.5712,2.7968,2.7968,0,0,0-.4961,1.8506,3,3,0,0,0,.4883,1.9336,1.5852,1.5852,0,0,0,1.27.5762,1.4464,1.4464,0,0,0,.9912-.3662A2.1283,2.1283,0,0,0,24.05,128.9362Z"/>
         <path class="cls-53" d="M29.4259,131.5681V124.41h1.4454v7.1582Z"/>
         <path class="cls-53"
               d="M32.2629,131.5681V124.41h1.4062l2.93,4.78v-4.78h1.3428v7.1582h-1.45L33.6056,126.9v4.668Z"/>
         <path class="cls-53"
               d="M39.47,131.5681V124.41h2.3193a8.4023,8.4023,0,0,1,1.7188.1074,1.875,1.875,0,0,1,1.03.7007,2.2242,2.2242,0,0,1,.415,1.394,2.3385,2.3385,0,0,1-.2393,1.1084,1.9584,1.9584,0,0,1-.6084.7056,2.0833,2.0833,0,0,1-.749.3393,8.2425,8.2425,0,0,1-1.499.1026h-.9424v2.7Zm1.4453-5.9473v2.0313h.791a3.7459,3.7459,0,0,0,1.1426-.1123.9482.9482,0,0,0,.4521-.3516.9675.9675,0,0,0,.1631-.5566.9282.9282,0,0,0-.23-.6446.9974.9974,0,0,0-.581-.3174,6.9257,6.9257,0,0,0-1.04-.0488Z"/>
         <path class="cls-53"
               d="M46.13,124.41h1.4454v3.8769a8.1294,8.1294,0,0,0,.0537,1.1963,1.1626,1.1626,0,0,0,.4414.7056,1.5424,1.5424,0,0,0,.9551.2661,1.4587,1.4587,0,0,0,.9277-.2515.9888.9888,0,0,0,.376-.6176,8.101,8.101,0,0,0,.0634-1.2159v-3.96h1.4454v3.76a9.6638,9.6638,0,0,1-.1172,1.8213,2.0258,2.0258,0,0,1-.4317.8985,2.1957,2.1957,0,0,1-.8427.5835,3.6617,3.6617,0,0,1-1.377.2172,3.9721,3.9721,0,0,1-1.5557-.2368,2.2244,2.2244,0,0,1-.8369-.6152,1.964,1.964,0,0,1-.4053-.7935,8.7418,8.7418,0,0,1-.1416-1.8164Z"/>
         <path class="cls-53"
               d="M54.9728,131.5681v-5.9473h-2.124V124.41h5.6885v1.2109H56.4181v5.9473Z"/>
         <path class="cls-53"
               d="M16.97,143.5681V136.41h2.3193a8.4023,8.4023,0,0,1,1.7188.1074,1.875,1.875,0,0,1,1.03.7007,2.2242,2.2242,0,0,1,.415,1.394,2.3385,2.3385,0,0,1-.2393,1.1084,1.9584,1.9584,0,0,1-.6084.7056,2.0833,2.0833,0,0,1-.749.3393,8.2425,8.2425,0,0,1-1.499.1026h-.9424v2.7Zm1.4453-5.9473v2.0313h.791a3.7459,3.7459,0,0,0,1.1426-.1123.9482.9482,0,0,0,.4521-.3516.9675.9675,0,0,0,.1631-.5566.9282.9282,0,0,0-.2295-.6446.9974.9974,0,0,0-.581-.3174,6.9257,6.9257,0,0,0-1.04-.0488Z"/>
         <path class="cls-53"
               d="M23.3468,140.0329a4.54,4.54,0,0,1,.3272-1.8359,3.3576,3.3576,0,0,1,.666-.9815,2.7937,2.7937,0,0,1,.9258-.6445,3.9262,3.9262,0,0,1,1.543-.2832,3.36,3.36,0,0,1,2.5312.9814,4.385,4.385,0,0,1,.0078,5.4419,3.3359,3.3359,0,0,1-2.52.979,3.37,3.37,0,0,1-2.5391-.9741A3.6942,3.6942,0,0,1,23.3468,140.0329Zm1.4893-.0488a2.6845,2.6845,0,0,0,.5615,1.8433,1.9311,1.9311,0,0,0,2.8448.0048,2.7372,2.7372,0,0,0,.5537-1.8676,2.6883,2.6883,0,0,0-.54-1.836,1.9986,1.9986,0,0,0-2.873.0073A2.7011,2.7011,0,0,0,24.8361,139.9841Z"/>
         <path class="cls-53"
               d="M32.4338,143.5681l-1.709-7.1582h1.48l1.0791,4.917,1.3086-4.917h1.7187l1.2549,5,1.0986-5h1.4551l-1.7383,7.1582H36.8478l-1.4258-5.3516-1.4209,5.3516Z"/>
         <path class="cls-53"
               d="M40.8566,143.5681V136.41h5.3076v1.2109H42.3019v1.5869h3.5938v1.2061H42.3019v1.9482h3.999v1.2061Z"/>
         <path class="cls-53"
               d="M47.5314,143.5681V136.41h3.042a5.206,5.206,0,0,1,1.667.1928,1.6411,1.6411,0,0,1,.833.6861,2.0641,2.0641,0,0,1,.3125,1.1279,1.9083,1.9083,0,0,1-.4736,1.3306,2.2745,2.2745,0,0,1-1.416.6616,3.35,3.35,0,0,1,.7734.6006,8.079,8.079,0,0,1,.8232,1.1621l.8741,1.3965H52.2384l-1.0449-1.5576a10.1214,10.1214,0,0,0-.7617-1.0523,1.1044,1.1044,0,0,0-.4346-.2978,2.3835,2.3835,0,0,0-.7275-.0806h-.293v2.9883Zm1.4453-4.1309h1.0694a5.5237,5.5237,0,0,0,1.2988-.0879.7782.7782,0,0,0,.4053-.3027.9322.9322,0,0,0,.1464-.5371.8569.8569,0,0,0-.1933-.5835.8828.8828,0,0,0-.544-.2808q-.1757-.0241-1.0546-.0244h-1.128Z"/>
      </g>
      <g>
         <path class="cls-53"
               d="M12.2433,255.965h2.6416a5.1511,5.1511,0,0,1,1.3623.1368,2.3866,2.3866,0,0,1,1.0791.6591,3.1354,3.1354,0,0,1,.6836,1.16,5.2826,5.2826,0,0,1,.2344,1.6919,4.702,4.702,0,0,1-.22,1.5234,3.1519,3.1519,0,0,1-.7666,1.2647,2.5415,2.5415,0,0,1-1.0156.5713,4.3664,4.3664,0,0,1-1.2793.1514h-2.72Zm1.4453,1.211v4.7412h1.0791a3.9428,3.9428,0,0,0,.8741-.0684,1.33,1.33,0,0,0,.583-.2978,1.5111,1.5111,0,0,0,.3789-.6909,4.6735,4.6735,0,0,0,.1465-1.3111,4.28,4.28,0,0,0-.1465-1.2744,1.6368,1.6368,0,0,0-.41-.6933,1.3734,1.3734,0,0,0-.6689-.337,6.5692,6.5692,0,0,0-1.1865-.0683Z"/>
         <path class="cls-53"
               d="M24.05,260.4914l1.4013.4444a3.1423,3.1423,0,0,1-1.0722,1.7407,3.3719,3.3719,0,0,1-4.2451-.4053,3.7253,3.7253,0,0,1-.918-2.6636,3.9133,3.9133,0,0,1,.9228-2.7759,3.1643,3.1643,0,0,1,2.4268-.9887,2.9771,2.9771,0,0,1,2.1338.7763,2.8142,2.8142,0,0,1,.7324,1.3184l-1.4307.3418a1.48,1.48,0,0,0-1.5087-1.2012,1.6267,1.6267,0,0,0-1.2911.5713,2.7968,2.7968,0,0,0-.4961,1.8506,3,3,0,0,0,.4883,1.9336,1.5852,1.5852,0,0,0,1.27.5762,1.4464,1.4464,0,0,0,.9912-.3662A2.1287,2.1287,0,0,0,24.05,260.4914Z"/>
         <path class="cls-53" d="M29.4259,263.1233V255.965h1.4454v7.1583Z"/>
         <path class="cls-53"
               d="M32.2629,263.1233V255.965h1.4062l2.93,4.78v-4.78h1.3428v7.1583h-1.45l-2.8858-4.668v4.668Z"/>
         <path class="cls-53"
               d="M39.47,263.1233V255.965h2.3193a8.4,8.4,0,0,1,1.7188.1075,1.875,1.875,0,0,1,1.03.7007,2.2242,2.2242,0,0,1,.415,1.394,2.3385,2.3385,0,0,1-.2393,1.1084,1.9584,1.9584,0,0,1-.6084.7056,2.085,2.085,0,0,1-.749.3393,8.2425,8.2425,0,0,1-1.499.1026h-.9424v2.7Zm1.4453-5.9473v2.0312h.791a3.7459,3.7459,0,0,0,1.1426-.1123.948.948,0,0,0,.4521-.3515.9675.9675,0,0,0,.1631-.5567.9279.9279,0,0,0-.23-.6445.9974.9974,0,0,0-.581-.3174,6.9257,6.9257,0,0,0-1.04-.0488Z"/>
         <path class="cls-53"
               d="M46.13,255.965h1.4454v3.877a8.13,8.13,0,0,0,.0537,1.1963,1.1626,1.1626,0,0,0,.4414.7056,1.5424,1.5424,0,0,0,.9551.2661,1.4587,1.4587,0,0,0,.9277-.2515.9888.9888,0,0,0,.376-.6177,8.0985,8.0985,0,0,0,.0634-1.2158v-3.96h1.4454v3.76a9.6638,9.6638,0,0,1-.1172,1.8213,2.0249,2.0249,0,0,1-.4317.8984,2.1935,2.1935,0,0,1-.8427.5835,3.66,3.66,0,0,1-1.377.2173,3.9721,3.9721,0,0,1-1.5557-.2368,2.2244,2.2244,0,0,1-.8369-.6152,1.9646,1.9646,0,0,1-.4053-.7935,8.7418,8.7418,0,0,1-.1416-1.8164Z"/>
         <path class="cls-53"
               d="M54.9728,263.1233V257.176h-2.124v-1.211h5.6885v1.211H56.4181v5.9473Z"/>
         <path class="cls-53"
               d="M16.97,275.1233V267.965h2.3193a8.4,8.4,0,0,1,1.7188.1075,1.875,1.875,0,0,1,1.03.7007,2.2242,2.2242,0,0,1,.415,1.394,2.3385,2.3385,0,0,1-.2393,1.1084,1.9584,1.9584,0,0,1-.6084.7056,2.085,2.085,0,0,1-.749.3393,8.2425,8.2425,0,0,1-1.499.1026h-.9424v2.7Zm1.4453-5.9473v2.0312h.791a3.7459,3.7459,0,0,0,1.1426-.1123.948.948,0,0,0,.4521-.3515.9675.9675,0,0,0,.1631-.5567.9279.9279,0,0,0-.2295-.6445.9974.9974,0,0,0-.581-.3174,6.9257,6.9257,0,0,0-1.04-.0488Z"/>
         <path class="cls-53"
               d="M23.3468,271.5881a4.54,4.54,0,0,1,.3272-1.8359,3.3576,3.3576,0,0,1,.666-.9815,2.7937,2.7937,0,0,1,.9258-.6445,3.9262,3.9262,0,0,1,1.543-.2832,3.3592,3.3592,0,0,1,2.5312.9814,4.385,4.385,0,0,1,.0078,5.4419,3.3359,3.3359,0,0,1-2.52.979,3.37,3.37,0,0,1-2.5391-.9741A3.6942,3.6942,0,0,1,23.3468,271.5881Zm1.4893-.0488a2.684,2.684,0,0,0,.5615,1.8432,1.931,1.931,0,0,0,2.8448.0049,2.7373,2.7373,0,0,0,.5537-1.8677,2.6882,2.6882,0,0,0-.54-1.8359,1.9984,1.9984,0,0,0-2.873.0073A2.7009,2.7009,0,0,0,24.8361,271.5393Z"/>
         <path class="cls-53"
               d="M32.4338,275.1233l-1.709-7.1583h1.48l1.0791,4.917,1.3086-4.917h1.7187l1.2549,5,1.0986-5h1.4551l-1.7383,7.1583H36.8478l-1.4258-5.3516-1.4209,5.3516Z"/>
         <path class="cls-53"
               d="M40.8566,275.1233V267.965h5.3076v1.211H42.3019v1.5869h3.5938v1.2061H42.3019v1.9482h3.999v1.2061Z"/>
         <path class="cls-53"
               d="M47.5314,275.1233V267.965h3.042a5.2054,5.2054,0,0,1,1.667.1929,1.64,1.64,0,0,1,.833.6861,2.0638,2.0638,0,0,1,.3125,1.1279,1.9083,1.9083,0,0,1-.4736,1.3306,2.275,2.275,0,0,1-1.416.6616,3.35,3.35,0,0,1,.7734.6006,8.0731,8.0731,0,0,1,.8232,1.1621l.8741,1.3965H52.2384l-1.0449-1.5577a10.1276,10.1276,0,0,0-.7617-1.0522,1.1048,1.1048,0,0,0-.4346-.2979,2.3842,2.3842,0,0,0-.7275-.0805h-.293v2.9883Zm1.4453-4.1309h1.0694a5.5237,5.5237,0,0,0,1.2988-.0879.7788.7788,0,0,0,.4053-.3027.9322.9322,0,0,0,.1464-.5371.8567.8567,0,0,0-.1933-.5835.8828.8828,0,0,0-.544-.2808q-.1757-.0242-1.0546-.0244h-1.128Z"/>
      </g>
      <text class="cls-45" transform="translate(258.9806 13.2643)">MANUAL BYPASS<tspan x="23.894" y="12">SWITCH</tspan>
      </text>
   </g>
</svg>
