<?xml version="1.0" encoding="UTF-8"?>
<svg xmlns="http://www.w3.org/2000/svg"
     xmlns:xlink="http://www.w3.org/1999/xlink"
     width="125mm"
     height="60mm"
     viewBox="0 0 354.3307 170.0787">
   <defs>
      <style>
      .cls-1, .cls-11, .cls-12, .cls-19, .cls-22, .cls-5, .cls-8, .cls-9 {
        fill: none;
      }

      .cls-2 {
        fill: #c6c6c6;
      }

      .cls-3 {
        clip-path: url(#clip-path);
      }

      .cls-4 {
        clip-path: url(#clip-path-2);
      }

      .cls-11, .cls-12, .cls-19, .cls-22, .cls-5 {
        stroke: #000;
      }

      .cls-11, .cls-12, .cls-22, .cls-5, .cls-8, .cls-9 {
        stroke-miterlimit: 3;
      }

      .cls-19, .cls-5 {
        stroke-width: 0.75px;
      }

      .cls-6 {
        clip-path: url(#clip-path-3);
      }

      .cls-7 {
        clip-path: url(#clip-path-5);
      }

      .cls-8, .cls-9 {
        stroke: #626469;
      }

      .cls-11, .cls-8, .cls-9 {
        stroke-width: 0.5px;
      }

      .cls-8 {
        stroke-dasharray: 2 1;
      }

      .cls-10, .cls-24 {
        fill-rule: evenodd;
      }

      .cls-12 {
        stroke-width: 2px;
      }

      .cls-13 {
        fill: #626469;
      }

      .cls-14 {
        isolation: isolate;
      }

      .cls-15 {
        clip-path: url(#clip-path-7);
      }

      .cls-16 {
        font-size: 6px;
      }

      .cls-16, .cls-26, .cls-27, .cls-31 {
        fill: #01889C;
      }

      .cls-16, .cls-26, .cls-31 {
        font-family: Arial-BoldMT, Arial;
        font-weight: 700;
      }

      .cls-17 {
        clip-path: url(#clip-path-8);
      }

      .cls-18 {
        clip-path: url(#clip-path-9);
      }

      .cls-19 {
        stroke-miterlimit: 10;
      }

      .cls-20 {
        clip-path: url(#clip-path-10);
      }

      .cls-21, .cls-24 {
        fill: #fff;
      }

      .cls-22 {
        stroke-width: 0.7087px;
      }

      .cls-23 {
        clip-path: url(#clip-path-13);
      }

      .cls-25 {
        clip-path: url(#clip-path-15);
      }

      .cls-26 {
        font-size: 10px;
      }

      .cls-28 {
        clip-path: url(#clip-path-17);
      }

      .cls-29 {
        clip-path: url(#clip-path-19);
      }

      .cls-30 {
        clip-path: url(#clip-path-22);
      }

      .cls-31 {
        font-size: 8px;
      }

      .cls-32 {
        clip-path: url(#clip-path-23);
      }

      .cls-33 {
        clip-path: url(#clip-path-25);
      }

      .cls-34 {
        clip-path: url(#clip-path-27);
      }
    </style>
      <clipPath id="clip-path">
         <rect class="cls-1"
               x="69.2386"
               y="21.9593"
               width="16.63"
               height="16.2683"/>
      </clipPath>
      <clipPath id="clip-path-2">
         <rect class="cls-1"
               x="69.2386"
               y="21.9596"
               width="16.63"
               height="16.268"/>
      </clipPath>
      <clipPath id="clip-path-3">
         <rect class="cls-1"
               x="69.2386"
               y="139.7539"
               width="16.63"
               height="16.2683"/>
      </clipPath>
      <clipPath id="clip-path-5">
         <rect class="cls-1"
               x="229.9856"
               y="38.8822"
               width="76.0871"
               height="111.3019"/>
      </clipPath>
      <clipPath id="clip-path-7">
         <rect class="cls-1"
               x="243.1555"
               y="39.2872"
               width="24.6738"
               height="7.406"/>
      </clipPath>
      <clipPath id="clip-path-8">
         <rect class="cls-1"
               x="252.4953"
               y="45.2872"
               width="15.334"
               height="7.4061"/>
      </clipPath>
      <clipPath id="clip-path-9">
         <rect class="cls-1"
               x="250.8312"
               y="51.2865"
               width="16.9981"
               height="7.4063"/>
      </clipPath>
      <clipPath id="clip-path-10">
         <rect class="cls-1"
               x="109.4527"
               y="128.0501"
               width="35.4339"
               height="39.686"/>
      </clipPath>
      <clipPath id="clip-path-13">
         <rect class="cls-1"
               x="40.4685"
               y="144.8404"
               width="6.125"
               height="6.125"/>
      </clipPath>
      <clipPath id="clip-path-15">
         <rect class="cls-1"
               x="40.4685"
               y="27.0309"
               width="6.125"
               height="6.125"/>
      </clipPath>
      <clipPath id="clip-path-17">
         <rect class="cls-1"
               x="318.5139"
               y="136.4693"
               width="6.125"
               height="6.125"/>
      </clipPath>
      <clipPath id="clip-path-19">
         <rect class="cls-1"
               x="176.1409"
               y="87.9012"
               width="46.833"
               height="32"/>
      </clipPath>
      <clipPath id="clip-path-22">
         <rect class="cls-1"
               x="207.8508"
               y="111.7494"
               width="11.1133"
               height="9.875"/>
      </clipPath>
      <clipPath id="clip-path-23">
         <rect class="cls-1"
               x="230.2914"
               y="145.6021"
               width="4.5709"
               height="4.5819"/>
      </clipPath>
      <clipPath id="clip-path-25">
         <rect class="cls-1"
               x="176.1409"
               y="131.8931"
               width="46.833"
               height="32"/>
      </clipPath>
      <clipPath id="clip-path-27">
         <rect class="cls-1"
               x="207.8508"
               y="155.7412"
               width="11.1133"
               height="9.875"/>
      </clipPath>
   </defs>
   <g id="Paths">
      <g>
         <polygon class="cls-2"
                  points="43.956 32.474 40.589 32.474 44.211 27.937 47.578 27.937 43.956 32.474"/>
         <polygon class="cls-2"
                  points="51.066 32.474 47.698 32.474 51.32 27.937 54.688 27.937 51.066 32.474"/>
         <polygon class="cls-2"
                  points="58.176 32.474 54.808 32.474 58.43 27.937 61.798 27.937 58.176 32.474"/>
         <polygon class="cls-2"
                  points="65.285 32.474 61.918 32.474 65.54 27.937 68.907 27.937 65.285 32.474"/>
         <polygon class="cls-2"
                  points="72.395 32.474 69.027 32.474 72.649 27.937 76.017 27.937 72.395 32.474"/>
         <polygon class="cls-2"
                  points="79.505 32.474 76.137 32.474 79.759 27.937 83.127 27.937 79.505 32.474"/>
         <polygon class="cls-2"
                  points="86.614 32.474 83.247 32.474 86.869 27.937 90.236 27.937 86.614 32.474"/>
         <polygon class="cls-2"
                  points="93.724 32.474 90.357 32.474 93.979 27.937 97.346 27.937 93.724 32.474"/>
         <polygon class="cls-2"
                  points="100.834 32.474 97.466 32.474 101.088 27.937 104.456 27.937 100.834 32.474"/>
         <polygon class="cls-2"
                  points="107.944 32.474 104.576 32.474 108.198 27.937 111.566 27.937 107.944 32.474"/>
         <polygon class="cls-2"
                  points="115.053 32.474 111.686 32.474 115.308 27.937 118.675 27.937 115.053 32.474"/>
         <polygon class="cls-2"
                  points="122.163 32.474 118.795 32.474 122.417 27.937 125.785 27.937 122.163 32.474"/>
         <polygon class="cls-2"
                  points="129.273 32.474 125.905 32.474 129.527 27.937 132.895 27.937 129.273 32.474"/>
         <polygon class="cls-2"
                  points="136.382 32.474 133.015 32.474 136.637 27.937 140.004 27.937 136.382 32.474"/>
         <polygon class="cls-2"
                  points="143.492 32.474 140.125 32.474 143.747 27.937 147.114 27.937 143.492 32.474"/>
         <polygon class="cls-2"
                  points="150.602 32.474 147.234 32.474 150.856 27.937 154.224 27.937 150.602 32.474"/>
         <polygon class="cls-2"
                  points="157.712 32.474 154.344 32.474 157.966 27.937 161.334 27.937 157.712 32.474"/>
         <polygon class="cls-2"
                  points="164.821 32.474 161.454 32.474 165.076 27.937 168.443 27.937 164.821 32.474"/>
         <polygon class="cls-2"
                  points="171.931 32.474 168.563 32.474 172.185 27.937 175.553 27.937 171.931 32.474"/>
         <polygon class="cls-2"
                  points="179.041 32.474 175.673 32.474 179.295 27.937 182.663 27.937 179.041 32.474"/>
         <polygon class="cls-2"
                  points="186.15 32.474 182.783 32.474 186.405 27.937 189.772 27.937 186.15 32.474"/>
         <polygon class="cls-2"
                  points="193.26 32.474 189.893 32.474 193.515 27.937 196.882 27.937 193.26 32.474"/>
         <polygon class="cls-2"
                  points="200.37 32.474 197.002 32.474 200.624 27.937 203.992 27.937 200.37 32.474"/>
         <polygon class="cls-2"
                  points="207.48 32.474 204.112 32.474 207.734 27.937 211.102 27.937 207.48 32.474"/>
         <polygon class="cls-2"
                  points="214.589 32.474 211.222 32.474 214.844 27.937 218.211 27.937 214.589 32.474"/>
         <polygon class="cls-2"
                  points="221.699 32.474 218.331 32.474 221.953 27.937 225.321 27.937 221.699 32.474"/>
         <polygon class="cls-2"
                  points="228.809 32.474 225.441 32.474 229.063 27.937 232.431 27.937 228.809 32.474"/>
         <polygon class="cls-2"
                  points="235.918 32.474 232.551 32.474 236.173 27.937 239.54 27.937 235.918 32.474"/>
         <polygon class="cls-2"
                  points="243.028 32.474 239.661 32.474 243.283 27.937 246.65 27.937 243.028 32.474"/>
         <polygon class="cls-2"
                  points="250.138 32.474 246.77 32.474 250.392 27.937 253.76 27.937 250.138 32.474"/>
         <polygon class="cls-2"
                  points="257.248 32.474 253.88 32.474 257.502 27.937 260.869 27.937 257.248 32.474"/>
         <polygon class="cls-2"
                  points="264.357 32.474 260.99 32.474 264.612 27.937 267.979 27.937 264.357 32.474"/>
         <polygon class="cls-2"
                  points="271.467 32.474 268.099 32.474 271.721 27.937 275.089 27.937 271.467 32.474"/>
         <polygon class="cls-2"
                  points="278.577 32.474 275.209 32.474 278.831 27.937 282.199 27.937 278.577 32.474"/>
         <polygon class="cls-2"
                  points="285.686 32.474 282.319 32.474 285.941 27.937 289.308 27.937 285.686 32.474"/>
         <polygon class="cls-2"
                  points="289.439 36.2 289.43 32.833 293.977 36.441 293.987 39.809 289.439 36.2"/>
         <polygon class="cls-2"
                  points="289.461 43.549 289.451 40.181 293.998 43.79 294.008 47.157 289.461 43.549"/>
         <polygon class="cls-2"
                  points="289.483 50.897 289.473 47.529 294.02 51.138 294.03 54.505 289.483 50.897"/>
         <polygon class="cls-2"
                  points="289.504 58.245 289.494 54.877 294.041 58.486 294.051 61.854 289.504 58.245"/>
         <polygon class="cls-2"
                  points="289.526 65.593 289.516 62.226 294.063 65.834 294.073 69.202 289.526 65.593"/>
         <path class="cls-2"
               d="M285.7111,69.5738h3.3676l-3.622,4.5366H282.693l-.0066-.026a1.4394,1.4394,0,0,1-.0279-.5638c-.0159-.188.227-.3759.3517-.5638l.9-1.1277Z"/>
         <path class="cls-2"
               d="M277.6461,71.71l3.0411-1.6741a2.22,2.22,0,0,0-.1218.2288l-.0308.1788-.0616.3576-.1231.7151-.2463,1.43-.4925,2.8605-2.95,1.624Z"/>
         <polygon class="cls-2"
                  points="271.121 75.302 274.072 73.678 273.086 79.399 270.136 81.023 271.121 75.302"/>
         <path class="cls-2"
               d="M265.3517,77.2943h2.1508l.0443-.0244a3.5234,3.5234,0,0,1,.16.8182c.0534.6238-.6615,1.2476-1.115,1.8714l-1.4941,1.8714H261.73Z"/>
         <polygon class="cls-2"
                  points="257.904 77.294 261.271 77.294 257.649 81.831 254.282 81.831 257.904 77.294"/>
         <polygon class="cls-2"
                  points="250.456 77.294 253.823 77.294 250.201 81.831 246.834 81.831 250.456 77.294"/>
         <polygon class="cls-2"
                  points="246.375 72.59 246.375 75.958 241.839 72.336 241.839 68.968 246.375 72.59"/>
         <polygon class="cls-2"
                  points="246.375 64.264 246.375 67.632 241.839 64.01 241.839 60.642 246.375 64.264"/>
         <polygon class="cls-2"
                  points="238.073 54.769 241.441 54.769 237.819 59.306 234.451 59.306 238.073 54.769"/>
         <polygon class="cls-2"
                  points="230.686 54.769 234.054 54.769 230.432 59.306 227.064 59.306 230.686 54.769"/>
         <polygon class="cls-2"
                  points="223.299 54.769 226.666 54.769 223.044 59.306 219.677 59.306 223.299 54.769"/>
         <polygon class="cls-2"
                  points="215.911 54.769 219.279 54.769 215.657 59.306 212.289 59.306 215.911 54.769"/>
         <polygon class="cls-2"
                  points="208.524 54.769 211.892 54.769 208.27 59.306 204.902 59.306 208.524 54.769"/>
         <polygon class="cls-2"
                  points="201.137 54.769 204.504 54.769 200.882 59.306 197.515 59.306 201.137 54.769"/>
         <polygon class="cls-2"
                  points="193.749 54.769 197.117 54.769 193.495 59.306 190.127 59.306 193.749 54.769"/>
         <polygon class="cls-2"
                  points="186.362 54.769 189.73 54.769 186.108 59.306 182.74 59.306 186.362 54.769"/>
         <polygon class="cls-2"
                  points="178.975 54.769 182.342 54.769 178.72 59.306 175.353 59.306 178.975 54.769"/>
         <polygon class="cls-2"
                  points="171.587 54.769 174.955 54.769 171.333 59.306 167.966 59.306 171.587 54.769"/>
         <polygon class="cls-2"
                  points="164.2 54.769 167.568 54.769 163.946 59.306 160.578 59.306 164.2 54.769"/>
         <polygon class="cls-2"
                  points="156.813 54.769 160.18 54.769 156.558 59.306 153.191 59.306 156.813 54.769"/>
         <polygon class="cls-2"
                  points="148.256 62.745 148.256 59.377 152.793 62.999 152.793 66.367 148.256 62.745"/>
         <polygon class="cls-2"
                  points="148.256 69.806 148.256 66.439 152.793 70.061 152.793 73.428 148.256 69.806"/>
         <polygon class="cls-2"
                  points="148.256 76.868 148.256 73.5 152.793 77.122 152.793 80.489 148.256 76.868"/>
         <polygon class="cls-2"
                  points="148.256 83.929 148.256 80.561 152.793 84.183 152.793 87.551 148.256 83.929"/>
         <polygon class="cls-2"
                  points="148.256 90.99 148.256 87.623 152.793 91.245 152.793 94.612 148.256 90.99"/>
         <polygon class="cls-2"
                  points="148.256 98.052 148.256 94.684 152.793 98.306 152.793 101.673 148.256 98.052"/>
         <polygon class="cls-2"
                  points="156.979 106.282 153.612 106.282 157.234 101.745 160.601 101.745 156.979 106.282"/>
         <polygon class="cls-2"
                  points="164.788 106.282 161.42 106.282 165.042 101.745 168.409 101.745 164.788 106.282"/>
         <polygon class="cls-2"
                  points="172.596 106.282 169.228 106.282 172.85 101.745 176.218 101.745 172.596 106.282"/>
         <polygon class="cls-2"
                  points="180.404 106.282 177.036 106.282 180.658 101.745 184.026 101.745 180.404 106.282"/>
         <polygon class="cls-2"
                  points="188.212 106.282 184.845 106.282 188.466 101.745 191.834 101.745 188.212 106.282"/>
      </g>
      <g>
         <polygon class="cls-2"
                  points="80.604 145.743 83.972 145.743 80.349 150.279 76.981 150.279 80.604 145.743"/>
         <polygon class="cls-2"
                  points="73.354 145.742 76.721 145.742 73.099 150.278 69.731 150.278 73.354 145.742"/>
         <polygon class="cls-2"
                  points="66.103 145.741 69.471 145.741 65.848 150.277 62.481 150.277 66.103 145.741"/>
         <polygon class="cls-2"
                  points="58.853 145.74 62.22 145.74 58.598 150.276 55.23 150.276 58.853 145.74"/>
         <polygon class="cls-2"
                  points="51.602 145.739 54.97 145.739 51.347 150.275 47.98 150.275 51.602 145.739"/>
         <polygon class="cls-2"
                  points="44.352 145.738 47.719 145.738 44.097 150.274 40.729 150.274 44.352 145.738"/>
      </g>
      <g>
         <polygon class="cls-2"
                  points="289.516 76.358 289.537 72.991 294.051 76.64 294.03 80.008 289.516 76.358"/>
         <polygon class="cls-2"
                  points="289.465 84.51 289.486 81.142 294 84.792 293.98 88.16 289.465 84.51"/>
         <polygon class="cls-2"
                  points="285.917 89.294 289.285 89.294 285.663 93.831 282.295 93.831 285.917 89.294"/>
         <polygon class="cls-2"
                  points="278.776 89.294 282.144 89.294 278.522 93.831 275.154 93.831 278.776 89.294"/>
         <polygon class="cls-2"
                  points="271.636 89.294 275.003 89.294 271.381 93.831 268.014 93.831 271.636 89.294"/>
         <polygon class="cls-2"
                  points="264.495 89.294 267.862 89.294 264.24 93.831 260.873 93.831 264.495 89.294"/>
         <polygon class="cls-2"
                  points="257.354 89.294 260.722 89.294 257.1 93.831 253.732 93.831 257.354 89.294"/>
         <polygon class="cls-2"
                  points="250.213 89.294 253.581 89.294 249.959 93.831 246.591 93.831 250.213 89.294"/>
         <polygon class="cls-2"
                  points="241.889 97.738 241.902 94.371 246.425 98.009 246.413 101.376 241.889 97.738"/>
         <polygon class="cls-2"
                  points="241.862 105.284 241.874 101.916 246.398 105.554 246.385 108.922 241.862 105.284"/>
         <polygon class="cls-2"
                  points="250.607 114.015 247.24 114.015 250.862 109.478 254.229 109.478 250.607 114.015"/>
      </g>
      <polygon class="cls-2"
               points="249.079 105.748 245.711 105.748 249.333 101.211 252.701 101.211 249.079 105.748"/>
      <polygon class="cls-2"
               points="249.079 72.209 245.711 72.209 249.333 67.673 252.701 67.673 249.079 72.209"/>
      <g>
         <polygon class="cls-2"
                  points="123.733 145.737 127.101 145.737 123.479 150.274 120.111 150.274 123.733 145.737"/>
         <polygon class="cls-2"
                  points="116.533 145.737 119.9 145.737 116.278 150.274 112.911 150.274 116.533 145.737"/>
         <polygon class="cls-2"
                  points="109.332 145.737 112.7 145.737 109.078 150.274 105.71 150.274 109.332 145.737"/>
         <polygon class="cls-2"
                  points="102.132 145.737 105.499 145.737 101.877 150.274 98.51 150.274 102.132 145.737"/>
         <polygon class="cls-2"
                  points="94.931 145.737 98.299 145.737 94.677 150.274 91.31 150.274 94.931 145.737"/>
         <polygon class="cls-2"
                  points="87.731 145.737 91.099 145.737 87.477 150.274 84.109 150.274 87.731 145.737"/>
      </g>
   </g>
   <g id="Diagram">
      <g id="Artwork_20_no_white" data-name="Artwork 20 no white">
         <g class="cls-3">
            <g class="cls-4">
               <line class="cls-5"
                     x1="70.2387"
                     y1="36.8708"
                     x2="84.8687"
                     y2="30.1048"/>
               <path d="M84.8686,31.1091h0a1,1,0,1,1,1-1,1.0029,1.0029,0,0,1-1,1"/>
               <path d="M70.2387,31.1091h0a1,1,0,1,1,1-1,1.0029,1.0029,0,0,1-1,1"/>
            </g>
         </g>
      </g>
      <g id="Artwork_20_no_white-2" data-name="Artwork 20 no white">
         <g class="cls-6">
            <g class="cls-6">
               <line class="cls-5"
                     x1="70.2387"
                     y1="154.6653"
                     x2="84.8687"
                     y2="147.8994"/>
               <path d="M84.8686,148.9037h0a1,1,0,1,1,1-1,1.0029,1.0029,0,0,1-1,1"/>
               <path d="M70.2387,148.9037h0a1,1,0,1,1,1-1,1.0029,1.0029,0,0,1-1,1"/>
            </g>
         </g>
      </g>
      <g id="Auto">
         <g class="cls-7">
            <line class="cls-8"
                  x1="275.1485"
                  y1="143.0975"
                  x2="275.1485"
                  y2="44.5696"/>
            <line class="cls-5"
                  x1="244.0832"
                  y1="103.4339"
                  x2="260.7322"
                  y2="103.4339"/>
            <polyline class="cls-5"
                      points="260.732 79.434 244.083 79.434 244.083 71.434 260.732 71.434"/>
            <line class="cls-2"
                  x1="268.1222"
                  y1="54.849"
                  x2="281.6832"
                  y2="47.996"/>
            <line class="cls-9"
                  x1="268.1222"
                  y1="54.849"
                  x2="281.6832"
                  y2="47.996"/>
            <polyline class="cls-5"
                      points="267.634 119.434 281.536 111.434 291.658 111.434 291.658 139.41 281.536 139.41 267.634 147.434"/>
            <polyline class="cls-5"
                      points="267.634 79.434 281.536 71.434 291.658 71.434 291.658 91.434 244.083 91.434 244.083 111.434 260.732 111.434"/>
            <g class="cls-7">
               <path class="cls-10" d="M244.0832,70.434a1,1,0,1,1-1,1,1,1,0,0,1,1-1"/>
               <circle class="cls-11" cx="244.0832" cy="71.434" r="1"/>
               <path class="cls-10" d="M291.6588,70.434a1,1,0,1,1-1,1,1,1,0,0,1,1-1"/>
               <circle class="cls-11" cx="291.6588" cy="71.434" r="1"/>
               <path class="cls-10" d="M244.0832,102.4339a1,1,0,1,1-1,1,1,1,0,0,1,1-1"/>
               <circle class="cls-11" cx="244.0832" cy="103.4339" r="1"/>
               <path class="cls-10" d="M291.6554,138.4344a1,1,0,1,1-1,1,1,1,0,0,1,1-1"/>
               <circle class="cls-11" cx="291.6554" cy="139.4344" r="1"/>
               <line class="cls-12"
                     x1="253.6345"
                     y1="139.4344"
                     x2="267.8294"
                     y2="139.4344"/>
               <line class="cls-12"
                     x1="253.6345"
                     y1="131.4344"
                     x2="267.8294"
                     y2="131.4344"/>
               <line class="cls-12"
                     x1="253.6345"
                     y1="147.4344"
                     x2="267.8294"
                     y2="147.4344"/>
               <line class="cls-12"
                     x1="253.6345"
                     y1="111.4339"
                     x2="267.8294"
                     y2="111.4339"/>
               <line class="cls-12"
                     x1="253.6345"
                     y1="103.4339"
                     x2="267.8294"
                     y2="103.4339"/>
               <line class="cls-12"
                     x1="253.6345"
                     y1="119.4339"
                     x2="267.8294"
                     y2="119.4339"/>
               <line class="cls-12"
                     x1="253.6345"
                     y1="71.434"
                     x2="267.8294"
                     y2="71.434"/>
               <line class="cls-12"
                     x1="253.6345"
                     y1="63.434"
                     x2="267.8294"
                     y2="63.434"/>
               <line class="cls-12"
                     x1="253.6345"
                     y1="79.434"
                     x2="267.8294"
                     y2="79.434"/>
               <line class="cls-8"
                     x1="268.1222"
                     y1="47.9965"
                     x2="281.6832"
                     y2="47.9965"/>
               <line class="cls-13"
                     x1="268.1222"
                     y1="41.1435"
                     x2="281.6832"
                     y2="47.9965"/>
               <line class="cls-8"
                     x1="268.1222"
                     y1="41.1435"
                     x2="281.6832"
                     y2="47.9965"/>
               <g class="cls-14">
                  <g class="cls-15">
                     <text class="cls-16" transform="translate(243.1555 44.4343)">BYPASS</text>
                  </g>
               </g>
               <g class="cls-14">
                  <g class="cls-17">
                     <text class="cls-16" transform="translate(252.4953 50.4343)">TEST</text>
                  </g>
               </g>
               <g class="cls-14">
                  <g class="cls-18">
                     <text class="cls-16" transform="translate(250.8312 56.4343)">AUTO</text>
                  </g>
               </g>
            </g>
         </g>
      </g>
      <polyline class="cls-19" points="84.712 30.093 291.67 30.331 291.67 71.534"/>
      <path class="cls-5" d="M255.0657,147.9028H84.7123"/>
      <polyline class="cls-19"
                points="232.578 147.903 232.578 103.901 150.383 103.901 150.383 56.925 244.087 56.925 244.087 71.534"/>
      <line class="cls-5"
            x1="292.4315"
            y1="139.6077"
            x2="321.5764"
            y2="139.6077"/>
      <path class="cls-5" d="M70.0457,147.9028H43.5309"/>
      <line class="cls-19"
            x1="43.5313"
            y1="30.0934"
            x2="70.0457"
            y2="30.0934"/>
      <g id="Inverter">
         <g class="cls-20">
            <rect class="cls-21"
                  x="110.1604"
                  y="130.8839"
                  width="34.0175"
                  height="34.0166"/>
            <g class="cls-20">
               <rect class="cls-22"
                     x="110.1604"
                     y="130.8839"
                     width="34.0166"
                     height="34.0166"/>
               <line class="cls-22"
                     x1="110.1633"
                     y1="164.9026"
                     x2="144.1789"
                     y2="130.887"/>
            </g>
            <line class="cls-22"
                  x1="113.3495"
                  y1="137.2651"
                  x2="122.9129"
                  y2="137.2651"/>
            <line class="cls-22"
                  x1="115.6012"
                  y1="139.3911"
                  x2="113.3494"
                  y2="139.3911"/>
            <line class="cls-22"
                  x1="119.2566"
                  y1="139.3911"
                  x2="117.0058"
                  y2="139.3911"/>
            <line class="cls-22"
                  x1="122.9126"
                  y1="139.3911"
                  x2="120.6609"
                  y2="139.3911"/>
            <g class="cls-20">
               <path class="cls-22"
                     d="M132.4843,157.5778a2.1864,2.1864,0,0,1,2.1261-2.006c1.0413,0,1.87.53,2.126,2.006a2.138,2.138,0,0,0,2.126,2.0042,2.2988,2.2988,0,0,0,2.1261-2.0042"/>
            </g>
         </g>
      </g>
      <g id="Artwork_13" data-name="Artwork 13">
         <g class="cls-23">
            <g class="cls-23">
               <path class="cls-24"
                     d="M43.5309,145.9033a2,2,0,1,1-2,2,2.0007,2.0007,0,0,1,2-2"/>
               <circle class="cls-5" cx="43.5309" cy="147.9032" r="2"/>
            </g>
         </g>
      </g>
      <g id="Artwork_13-2" data-name="Artwork 13">
         <g class="cls-25">
            <g class="cls-25">
               <path class="cls-24"
                     d="M43.5309,28.0938a2,2,0,1,1-2,2,2.0007,2.0007,0,0,1,2-2"/>
               <circle class="cls-5" cx="43.5309" cy="30.0938" r="2"/>
            </g>
         </g>
      </g>
      <text class="cls-26" transform="translate(22.9829 10.9332)">BYPASS<tspan x="4.4507" y="12">MAINS</tspan>
      </text>
      <text class="cls-26" transform="translate(101.9022 125.9036)">INVERTER</text>
      <g>
         <path class="cls-27"
               d="M20.6567,122.0777h2.6416a5.1733,5.1733,0,0,1,1.3623.1367,2.3919,2.3919,0,0,1,1.0791.66,3.12,3.12,0,0,1,.6836,1.1592,5.2883,5.2883,0,0,1,.2343,1.6923,4.7073,4.7073,0,0,1-.22,1.5235,3.1558,3.1558,0,0,1-.7666,1.2636,2.5407,2.5407,0,0,1-1.0156.5723,4.388,4.388,0,0,1-1.2793.15h-2.72Zm1.4453,1.2109v4.7422h1.0791a3.9808,3.9808,0,0,0,.874-.0683,1.3287,1.3287,0,0,0,.5835-.2989,1.5056,1.5056,0,0,0,.3784-.69,4.6734,4.6734,0,0,0,.1465-1.3115,4.2692,4.2692,0,0,0-.1465-1.2735,1.6342,1.6342,0,0,0-.41-.6933,1.3778,1.3778,0,0,0-.669-.3379,6.614,6.614,0,0,0-1.1865-.0684Z"/>
         <path class="cls-27"
               d="M32.4633,126.605l1.4014.4434a3.1484,3.1484,0,0,1-1.0718,1.7412,3.3708,3.3708,0,0,1-4.2456-.4053,3.7283,3.7283,0,0,1-.918-2.664,3.9116,3.9116,0,0,1,.9229-2.7754,3.1641,3.1641,0,0,1,2.4267-.9883,2.9769,2.9769,0,0,1,2.1338.7754,2.8269,2.8269,0,0,1,.7324,1.3184l-1.4306.3417a1.4786,1.4786,0,0,0-1.5088-1.2011,1.63,1.63,0,0,0-1.2915.5722,2.7972,2.7972,0,0,0-.4956,1.85,3,3,0,0,0,.4883,1.9335,1.5834,1.5834,0,0,0,1.27.5762,1.4471,1.4471,0,0,0,.9912-.3652A2.13,2.13,0,0,0,32.4633,126.605Z"/>
         <path class="cls-27" d="M37.8393,129.2359v-7.1582h1.4453v7.1582Z"/>
         <path class="cls-27"
               d="M40.6762,129.2359v-7.1582h1.4062l2.93,4.7812v-4.7812h1.3428v7.1582h-1.45l-2.8857-4.668v4.668Z"/>
         <path class="cls-27"
               d="M47.8832,129.2359v-7.1582h2.3194a8.4357,8.4357,0,0,1,1.7187.1074,1.88,1.88,0,0,1,1.03.7012,2.2208,2.2208,0,0,1,.415,1.3945,2.3281,2.3281,0,0,1-.2392,1.1074,1.9654,1.9654,0,0,1-.6079.7061,2.0809,2.0809,0,0,1-.75.3389,8.24,8.24,0,0,1-1.499.1035h-.9424v2.6992Zm1.4453-5.9473V125.32H50.12a3.7676,3.7676,0,0,0,1.1425-.1113.9531.9531,0,0,0,.4517-.3516.9663.9663,0,0,0,.1636-.5566.9246.9246,0,0,0-.23-.6446,1,1,0,0,0-.5811-.3183,6.9751,6.9751,0,0,0-1.04-.0489Z"/>
         <path class="cls-27"
               d="M54.5434,122.0777h1.4453v3.8769a8.0922,8.0922,0,0,0,.0537,1.1973,1.1588,1.1588,0,0,0,.4419.7051,1.5376,1.5376,0,0,0,.9546.2656,1.4609,1.4609,0,0,0,.9277-.251.9929.9929,0,0,0,.376-.6181,8.0139,8.0139,0,0,0,.0635-1.2149v-3.9609h1.4453v3.76a9.6787,9.6787,0,0,1-.1172,1.8222,2.0183,2.0183,0,0,1-.4321.8985,2.19,2.19,0,0,1-.8423.583,3.6508,3.6508,0,0,1-1.377.2177,3.9728,3.9728,0,0,1-1.5551-.2373,2.21,2.21,0,0,1-.8374-.6152,1.9711,1.9711,0,0,1-.4053-.7939,8.7014,8.7014,0,0,1-.1416-1.8164Z"/>
         <path class="cls-27"
               d="M63.3862,129.2359v-5.9473H61.2621v-1.2109h5.6885v1.2109H64.8315v5.9473Z"/>
         <path class="cls-27"
               d="M25.3832,141.2359v-7.1582h2.3194a8.4357,8.4357,0,0,1,1.7187.1074,1.88,1.88,0,0,1,1.03.7012,2.2208,2.2208,0,0,1,.415,1.3945,2.3281,2.3281,0,0,1-.2392,1.1074,1.9654,1.9654,0,0,1-.6079.7061,2.0809,2.0809,0,0,1-.75.3389,8.24,8.24,0,0,1-1.499.1035h-.9424v2.6992Zm1.4453-5.9473V137.32H27.62a3.7676,3.7676,0,0,0,1.1425-.1113.9531.9531,0,0,0,.4517-.3516.9663.9663,0,0,0,.1636-.5566.9246.9246,0,0,0-.23-.6446,1,1,0,0,0-.5811-.3183,6.9751,6.9751,0,0,0-1.04-.0489Z"/>
         <path class="cls-27"
               d="M31.76,137.7007a4.554,4.554,0,0,1,.3271-1.8359,3.3547,3.3547,0,0,1,.6665-.9805,2.78,2.78,0,0,1,.9253-.6445,3.9193,3.9193,0,0,1,1.543-.2832,3.36,3.36,0,0,1,2.5317.98,4.3868,4.3868,0,0,1,.0074,5.4424,3.3336,3.3336,0,0,1-2.52.9794,3.3691,3.3691,0,0,1-2.539-.9746A3.6964,3.6964,0,0,1,31.76,137.7007Zm1.4892-.0488a2.6823,2.6823,0,0,0,.5616,1.8438,1.9314,1.9314,0,0,0,2.8442.0048,2.7359,2.7359,0,0,0,.5542-1.8681,2.6919,2.6919,0,0,0-.54-1.836,1.9985,1.9985,0,0,0-2.8735.0079A2.7024,2.7024,0,0,0,33.2494,137.6519Z"/>
         <path class="cls-27"
               d="M40.8471,141.2359l-1.709-7.1582h1.48l1.0791,4.918,1.3086-4.918H44.724l1.2549,5,1.0987-5h1.455l-1.7382,7.1582H45.2612l-1.4258-5.3516-1.4209,5.3516Z"/>
         <path class="cls-27"
               d="M49.27,141.2359v-7.1582h5.3077v1.2109H50.7153v1.5879H54.309v1.2051H50.7153v1.9492h3.999v1.2051Z"/>
         <path class="cls-27"
               d="M55.9448,141.2359v-7.1582h3.0419a5.1907,5.1907,0,0,1,1.6675.1934,1.6494,1.6494,0,0,1,.8325.6855,2.0633,2.0633,0,0,1,.3125,1.1289,1.9085,1.9085,0,0,1-.4736,1.33,2.28,2.28,0,0,1-1.416.6621,3.3618,3.3618,0,0,1,.7739.6,8.2019,8.2019,0,0,1,.8228,1.1621l.874,1.3965H60.6518l-1.0449-1.5566a10.0817,10.0817,0,0,0-.7618-1.0528,1.1137,1.1137,0,0,0-.4345-.2978,2.3787,2.3787,0,0,0-.7276-.0811H57.39v2.9883ZM57.39,137.105h1.0693a5.52,5.52,0,0,0,1.2988-.0879.7767.7767,0,0,0,.4053-.3027.93.93,0,0,0,.1465-.5371.858.858,0,0,0-.1929-.583.8873.8873,0,0,0-.5444-.28q-.1758-.0249-1.0547-.0254H57.39Z"/>
      </g>
      <g id="Artwork_13-3" data-name="Artwork 13">
         <g class="cls-28">
            <g class="cls-28">
               <path class="cls-24"
                     d="M321.5763,137.5322a2,2,0,1,1-2,2,2.0007,2.0007,0,0,1,2-2"/>
               <circle class="cls-5" cx="321.5763" cy="139.5322" r="2"/>
            </g>
         </g>
      </g>
      <g id="Artwork_11" data-name="Artwork 11">
         <g class="cls-29">
            <rect class="cls-21"
                  x="177.5118"
                  y="89.1902"
                  width="29.339"
                  height="29.423"/>
            <g class="cls-29">
               <rect class="cls-5"
                     x="177.5118"
                     y="89.1902"
                     width="29.339"
                     height="29.423"/>
               <line class="cls-19"
                     x1="177.5121"
                     y1="103.9018"
                     x2="206.851"
                     y2="103.9018"/>
            </g>
            <rect class="cls-21"
                  x="184.8418"
                  y="96.3172"
                  width="15.128"
                  height="15.171"/>
            <rect class="cls-5"
                  x="184.8418"
                  y="96.3172"
                  width="15.128"
                  height="15.171"/>
            <line class="cls-5"
                  x1="189.8098"
                  y1="115.1674"
                  x2="189.8098"
                  y2="107.8074"/>
            <line class="cls-5"
                  x1="192.7522"
                  y1="115.1674"
                  x2="192.7412"
                  y2="112.8254"/>
            <path d="M196.0071,109.0231v4.929l-4.909-2.464Zm.75-1.216-7.33,3.681,7.33,3.679Z"/>
            <line class="cls-5"
                  x1="195.468"
                  y1="92.6899"
                  x2="195.468"
                  y2="100.0499"/>
            <line class="cls-5"
                  x1="192.179"
                  y1="92.6391"
                  x2="192.179"
                  y2="94.6521"/>
            <path d="M189.2639,93.8512l4.909,2.464-4.909,2.465Zm-.75-1.216v7.36l7.33-3.68Z"/>
            <g class="cls-29">
               <path class="cls-10"
                     d="M184.842,102.9008a1,1,0,1,1-.997,1,.9984.9984,0,0,1,.997-1"/>
               <circle class="cls-5" cx="184.842" cy="103.9008" r="0.997"/>
               <path class="cls-10"
                     d="M199.97,102.9018a1,1,0,1,1-.997,1,.9984.9984,0,0,1,.997-1"/>
               <circle class="cls-5" cx="199.97" cy="103.9018" r="0.997"/>
               <g class="cls-14">
                  <g class="cls-30">
                     <text class="cls-31" transform="translate(207.8502 118.6127)">EN</text>
                  </g>
               </g>
            </g>
         </g>
      </g>
      <g id="shape116-109">
         <g class="cls-32">
            <g class="cls-32">
               <path class="cls-10"
                     d="M232.5765,146.89a1.003,1.003,0,1,1-1,1.003,1.001,1.001,0,0,1,1-1.003"/>
               <circle class="cls-11" cx="232.5765" cy="147.8928" r="1"/>
            </g>
         </g>
      </g>
      <g id="Artwork_12" data-name="Artwork 12">
         <g class="cls-33">
            <g class="cls-33">
               <g class="cls-14">
                  <g class="cls-34">
                     <text class="cls-31" transform="translate(207.8502 162.6036)">EA</text>
                  </g>
               </g>
            </g>
            <rect class="cls-21"
                  x="177.5118"
                  y="133.1811"
                  width="29.339"
                  height="29.423"/>
            <g class="cls-33">
               <rect class="cls-5"
                     x="177.5118"
                     y="133.1811"
                     width="29.339"
                     height="29.423"/>
               <line class="cls-19"
                     x1="177.5121"
                     y1="147.8936"
                     x2="206.851"
                     y2="147.8936"/>
            </g>
            <rect class="cls-21"
                  x="184.8418"
                  y="140.3091"
                  width="15.128"
                  height="15.171"/>
            <rect class="cls-5"
                  x="184.8418"
                  y="140.3091"
                  width="15.128"
                  height="15.171"/>
            <line class="cls-5"
                  x1="189.8098"
                  y1="159.1592"
                  x2="189.8098"
                  y2="151.7992"/>
            <line class="cls-5"
                  x1="192.7522"
                  y1="159.1592"
                  x2="192.7412"
                  y2="156.8172"/>
            <path d="M196.0071,153.0149v4.929l-4.909-2.464Zm.75-1.216-7.33,3.681,7.33,3.679Z"/>
            <line class="cls-5"
                  x1="195.468"
                  y1="136.6817"
                  x2="195.468"
                  y2="144.0417"/>
            <line class="cls-5"
                  x1="192.179"
                  y1="136.6304"
                  x2="192.179"
                  y2="138.6434"/>
            <path d="M189.2639,137.843l4.909,2.464-4.909,2.465Zm-.75-1.216v7.36l7.33-3.68Z"/>
            <g class="cls-33">
               <path class="cls-10"
                     d="M184.842,146.8936a1,1,0,1,1-.997,1,.9978.9978,0,0,1,.997-1"/>
               <circle class="cls-5" cx="184.842" cy="147.8936" r="0.997"/>
               <path class="cls-10"
                     d="M199.97,146.8936a1,1,0,1,1-.997,1,.9984.9984,0,0,1,.997-1"/>
               <circle class="cls-5" cx="199.97" cy="147.8936" r="0.997"/>
            </g>
         </g>
      </g>
      <text class="cls-26" transform="translate(174.5925 71.9526)">STATIC<tspan x="-8.335" y="12">SWITCHES</tspan>
      </text>
      <text class="cls-26" transform="translate(303.0694 133.5136)">OUTPUT</text>
      <text class="cls-26" transform="translate(224.4293 10.933)">MANUAL BYPASS<tspan x="23.894" y="12">SWITCH</tspan>
      </text>
   </g>
</svg>
