<?xml version="1.0" encoding="UTF-8"?>
<svg xmlns="http://www.w3.org/2000/svg"
     xmlns:xlink="http://www.w3.org/1999/xlink"
     width="125mm"
     height="60mm"
     viewBox="0 0 354.3307 170.0787">
   <defs>
      <style>
      .cls-1, .cls-11, .cls-12, .cls-19, .cls-2, .cls-22, .cls-5, .cls-8, .cls-9 {
        fill: none;
      }

      .cls-2 {
        stroke: #c6c6c6;
        stroke-width: 5px;
      }

      .cls-11, .cls-12, .cls-2, .cls-22, .cls-5, .cls-8, .cls-9 {
        stroke-miterlimit: 3;
      }

      .cls-3 {
        fill: #c6c6c6;
      }

      .cls-4 {
        clip-path: url(#clip-path);
      }

      .cls-11, .cls-12, .cls-19, .cls-22, .cls-5 {
        stroke: #000;
      }

      .cls-19, .cls-5 {
        stroke-width: 0.75px;
      }

      .cls-6 {
        clip-path: url(#clip-path-3);
      }

      .cls-7 {
        clip-path: url(#clip-path-5);
      }

      .cls-8, .cls-9 {
        stroke: #626469;
      }

      .cls-11, .cls-8, .cls-9 {
        stroke-width: 0.5px;
      }

      .cls-8 {
        stroke-dasharray: 2 1;
      }

      .cls-10, .cls-24 {
        fill-rule: evenodd;
      }

      .cls-12 {
        stroke-width: 2px;
      }

      .cls-13 {
        fill: #626469;
      }

      .cls-14 {
        isolation: isolate;
      }

      .cls-15 {
        clip-path: url(#clip-path-7);
      }

      .cls-16 {
        font-size: 6px;
      }

      .cls-16, .cls-26, .cls-27, .cls-31 {
        fill: #01889C;
      }

      .cls-16, .cls-26, .cls-31 {
        font-family: Arial-BoldMT, Arial;
        font-weight: 700;
      }

      .cls-17 {
        clip-path: url(#clip-path-8);
      }

      .cls-18 {
        clip-path: url(#clip-path-9);
      }

      .cls-19 {
        stroke-miterlimit: 10;
      }

      .cls-20 {
        clip-path: url(#clip-path-10);
      }

      .cls-21, .cls-24 {
        fill: #fff;
      }

      .cls-22 {
        stroke-width: 0.7087px;
      }

      .cls-23 {
        clip-path: url(#clip-path-13);
      }

      .cls-25 {
        clip-path: url(#clip-path-15);
      }

      .cls-26 {
        font-size: 10px;
      }

      .cls-28 {
        clip-path: url(#clip-path-17);
      }

      .cls-29 {
        clip-path: url(#clip-path-19);
      }

      .cls-30 {
        clip-path: url(#clip-path-22);
      }

      .cls-31 {
        font-size: 8px;
      }

      .cls-32 {
        clip-path: url(#clip-path-23);
      }

      .cls-33 {
        clip-path: url(#clip-path-25);
      }

      .cls-34 {
        clip-path: url(#clip-path-27);
      }
    </style>
      <clipPath id="clip-path">
         <rect class="cls-1"
               x="69.2385"
               y="22.1445"
               width="16.63"
               height="16.2683"/>
      </clipPath>
      <clipPath id="clip-path-3">
         <rect class="cls-1"
               x="69.2385"
               y="139.9391"
               width="16.63"
               height="16.2683"/>
      </clipPath>
      <clipPath id="clip-path-5">
         <rect class="cls-1"
               x="229.9856"
               y="39.0674"
               width="76.0871"
               height="111.3019"/>
      </clipPath>
      <clipPath id="clip-path-7">
         <rect class="cls-1"
               x="243.1554"
               y="39.4724"
               width="24.6738"
               height="7.406"/>
      </clipPath>
      <clipPath id="clip-path-8">
         <rect class="cls-1"
               x="252.4952"
               y="45.4724"
               width="15.334"
               height="7.4061"/>
      </clipPath>
      <clipPath id="clip-path-9">
         <rect class="cls-1"
               x="250.8311"
               y="51.4717"
               width="16.9981"
               height="7.4063"/>
      </clipPath>
      <clipPath id="clip-path-10">
         <rect class="cls-1"
               x="109.4526"
               y="128.2353"
               width="35.4339"
               height="39.686"/>
      </clipPath>
      <clipPath id="clip-path-13">
         <rect class="cls-1"
               x="40.4684"
               y="145.0256"
               width="6.125"
               height="6.125"/>
      </clipPath>
      <clipPath id="clip-path-15">
         <rect class="cls-1"
               x="40.4684"
               y="27.2161"
               width="6.125"
               height="6.125"/>
      </clipPath>
      <clipPath id="clip-path-17">
         <rect class="cls-1"
               x="318.5139"
               y="136.6545"
               width="6.125"
               height="6.125"/>
      </clipPath>
      <clipPath id="clip-path-19">
         <rect class="cls-1"
               x="176.1408"
               y="88.0864"
               width="46.833"
               height="32"/>
      </clipPath>
      <clipPath id="clip-path-22">
         <rect class="cls-1"
               x="207.8508"
               y="111.9347"
               width="11.1133"
               height="9.875"/>
      </clipPath>
      <clipPath id="clip-path-23">
         <rect class="cls-1"
               x="230.2914"
               y="145.7873"
               width="4.5709"
               height="4.5819"/>
      </clipPath>
      <clipPath id="clip-path-25">
         <rect class="cls-1"
               x="176.1408"
               y="132.0783"
               width="46.833"
               height="32"/>
      </clipPath>
      <clipPath id="clip-path-27">
         <rect class="cls-1"
               x="207.8508"
               y="155.9264"
               width="11.1133"
               height="9.875"/>
      </clipPath>
   </defs>
   <g id="Paths">
      <path class="cls-2"
            d="M41.6189,30.5558H291.6818v41.44H281.4735l-13.3963,7.9166H244.0986V57.3872H150.3337v46.9764H232.59l.0487,44.4382"/>
      <g>
         <polyline class="cls-2"
                   points="232.578 148.088 267.129 148.088 281.511 139.644 327.877 139.947"/>
         <polygon class="cls-3"
                  points="326.385 144.924 335.053 139.994 326.45 134.951 326.385 144.924"/>
      </g>
      <g>
         <polygon class="cls-3"
                  points="289.431 75.466 289.42 72.099 293.968 75.705 293.98 79.073 289.431 75.466"/>
         <polygon class="cls-3"
                  points="289.461 84.256 289.449 80.888 293.998 84.495 294.01 87.862 289.461 84.256"/>
         <polygon class="cls-3"
                  points="285.953 89.675 289.321 89.677 285.696 94.211 282.328 94.209 285.953 89.675"/>
         <polygon class="cls-3"
                  points="278.806 89.67 282.173 89.672 278.548 94.206 275.18 94.204 278.806 89.67"/>
         <polygon class="cls-3"
                  points="271.658 89.664 275.026 89.667 271.4 94.201 268.033 94.198 271.658 89.664"/>
         <polygon class="cls-3"
                  points="264.51 89.659 267.878 89.662 264.253 94.196 260.885 94.193 264.51 89.659"/>
         <polygon class="cls-3"
                  points="257.363 89.654 260.73 89.656 257.105 94.19 253.738 94.188 257.363 89.654"/>
         <polygon class="cls-3"
                  points="250.215 89.649 253.583 89.651 249.958 94.185 246.59 94.183 250.215 89.649"/>
         <polygon class="cls-3"
                  points="241.881 98.089 241.893 94.722 246.417 98.36 246.404 101.728 241.881 98.089"/>
         <polygon class="cls-3"
                  points="241.854 105.634 241.866 102.267 246.389 105.905 246.377 109.273 241.854 105.634"/>
         <polygon class="cls-3"
                  points="250.599 114.365 247.231 114.365 250.853 109.828 254.221 109.828 250.599 114.365"/>
      </g>
      <polygon class="cls-3"
               points="249.07 106.098 245.703 106.098 249.325 101.561 252.692 101.561 249.07 106.098"/>
      <polygon class="cls-3"
               points="249.07 72.559 245.703 72.559 249.325 68.023 252.692 68.023 249.07 72.559"/>
      <g>
         <polygon class="cls-3"
                  points="272.677 119.604 269.763 121.291 270.626 115.55 273.541 113.864 272.677 119.604"/>
         <path class="cls-3"
               d="M279.2525,115.8005l-2.9149,1.6863.8633-5.74,3.1785-1.8389a3.2425,3.2425,0,0,0-.4794,1.5877l-.2158,1.4351Z"/>
         <path class="cls-3"
               d="M285.185,114.1392h-3.061c-.1553-.378.34-.7561.5989-1.1341l.9055-1.1342,1.811-2.2683h3.3675Z"/>
         <polygon class="cls-3"
                  points="289.414 118.728 289.414 115.361 293.95 118.983 293.95 122.35 289.414 118.728"/>
         <polygon class="cls-3"
                  points="289.414 126.939 289.414 123.572 293.95 127.194 293.95 130.561 289.414 126.939"/>
         <polygon class="cls-3"
                  points="289.414 135.151 289.414 131.783 293.95 135.405 293.95 138.773 289.414 135.151"/>
      </g>
      <g>
         <polygon class="cls-3"
                  points="45.072 150.624 41.705 150.624 45.327 146.087 48.694 146.087 45.072 150.624"/>
         <polygon class="cls-3"
                  points="52.147 150.624 48.78 150.624 52.402 146.087 55.769 146.087 52.147 150.624"/>
         <polygon class="cls-3"
                  points="59.223 150.624 55.855 150.624 59.477 146.087 62.845 146.087 59.223 150.624"/>
         <polygon class="cls-3"
                  points="66.298 150.624 62.93 150.624 66.552 146.087 69.92 146.087 66.298 150.624"/>
         <polygon class="cls-3"
                  points="73.373 150.624 70.006 150.624 73.628 146.087 76.995 146.087 73.373 150.624"/>
         <polygon class="cls-3"
                  points="80.448 150.624 77.081 150.624 80.703 146.087 84.07 146.087 80.448 150.624"/>
         <polygon class="cls-3"
                  points="87.524 150.624 84.156 150.624 87.778 146.087 91.146 146.087 87.524 150.624"/>
         <polygon class="cls-3"
                  points="94.599 150.624 91.231 150.624 94.853 146.087 98.221 146.087 94.599 150.624"/>
         <polygon class="cls-3"
                  points="101.674 150.624 98.306 150.624 101.928 146.087 105.296 146.087 101.674 150.624"/>
         <polygon class="cls-3"
                  points="108.749 150.624 105.382 150.624 109.004 146.087 112.371 146.087 108.749 150.624"/>
         <polygon class="cls-3"
                  points="115.824 150.624 112.457 150.624 116.079 146.087 119.446 146.087 115.824 150.624"/>
         <polygon class="cls-3"
                  points="122.9 150.624 119.532 150.624 123.154 146.087 126.522 146.087 122.9 150.624"/>
         <polygon class="cls-3"
                  points="129.975 150.624 126.607 150.624 130.229 146.087 133.597 146.087 129.975 150.624"/>
         <polygon class="cls-3"
                  points="137.05 150.624 133.683 150.624 137.305 146.087 140.672 146.087 137.05 150.624"/>
         <polygon class="cls-3"
                  points="144.125 150.624 140.758 150.624 144.38 146.087 147.747 146.087 144.125 150.624"/>
         <polygon class="cls-3"
                  points="151.201 150.624 147.833 150.624 151.455 146.087 154.823 146.087 151.201 150.624"/>
         <polygon class="cls-3"
                  points="158.276 150.624 154.908 150.624 158.53 146.087 161.898 146.087 158.276 150.624"/>
         <polygon class="cls-3"
                  points="165.351 150.624 161.984 150.624 165.605 146.087 168.973 146.087 165.351 150.624"/>
         <polygon class="cls-3"
                  points="172.426 150.624 169.059 150.624 172.681 146.087 176.048 146.087 172.426 150.624"/>
         <polygon class="cls-3"
                  points="179.502 150.624 176.134 150.624 179.756 146.087 183.123 146.087 179.502 150.624"/>
         <polygon class="cls-3"
                  points="186.577 150.624 183.209 150.624 186.831 146.087 190.199 146.087 186.577 150.624"/>
         <polygon class="cls-3"
                  points="193.652 150.624 190.284 150.624 193.906 146.087 197.274 146.087 193.652 150.624"/>
         <polygon class="cls-3"
                  points="200.727 150.624 197.36 150.624 200.982 146.087 204.349 146.087 200.727 150.624"/>
         <polygon class="cls-3"
                  points="207.802 150.624 204.435 150.624 208.057 146.087 211.424 146.087 207.802 150.624"/>
         <polygon class="cls-3"
                  points="214.878 150.624 211.51 150.624 215.132 146.087 218.5 146.087 214.878 150.624"/>
         <polygon class="cls-3"
                  points="221.953 150.624 218.585 150.624 222.207 146.087 225.575 146.087 221.953 150.624"/>
         <polygon class="cls-3"
                  points="229.028 150.624 225.661 150.624 229.283 146.087 232.65 146.087 229.028 150.624"/>
      </g>
   </g>
   <g id="Diagram">
      <g id="Artwork_20_no_white" data-name="Artwork 20 no white">
         <g class="cls-4">
            <g class="cls-4">
               <line class="cls-5"
                     x1="70.2386"
                     y1="37.056"
                     x2="84.8686"
                     y2="30.29"/>
               <path d="M84.8685,31.2943h0a1,1,0,1,1,1-1,1.0029,1.0029,0,0,1-1,1"/>
               <path d="M70.2386,31.2943h0a1,1,0,1,1,1-1,1.0029,1.0029,0,0,1-1,1"/>
            </g>
         </g>
      </g>
      <g id="Artwork_20_no_white-2" data-name="Artwork 20 no white">
         <g class="cls-6">
            <g class="cls-6">
               <line class="cls-5"
                     x1="70.2386"
                     y1="154.8506"
                     x2="84.8686"
                     y2="148.0846"/>
               <path d="M84.8685,149.0889h0a1,1,0,1,1,1-1,1.0029,1.0029,0,0,1-1,1"/>
               <path d="M70.2386,149.0889h0a1,1,0,1,1,1-1,1.0029,1.0029,0,0,1-1,1"/>
            </g>
         </g>
      </g>
      <g id="Auto">
         <g class="cls-7">
            <line class="cls-8"
                  x1="275.1485"
                  y1="143.2827"
                  x2="275.1485"
                  y2="44.7548"/>
            <line class="cls-5"
                  x1="244.0831"
                  y1="103.6191"
                  x2="260.7321"
                  y2="103.6191"/>
            <polyline class="cls-5"
                      points="260.732 79.619 244.083 79.619 244.083 71.619 260.732 71.619"/>
            <line class="cls-3"
                  x1="268.1222"
                  y1="55.0342"
                  x2="281.6832"
                  y2="48.1812"/>
            <line class="cls-9"
                  x1="268.1222"
                  y1="55.0342"
                  x2="281.6832"
                  y2="48.1812"/>
            <polyline class="cls-5"
                      points="267.634 119.619 281.536 111.619 291.658 111.619 291.658 139.595 281.536 139.595 267.634 147.619"/>
            <polyline class="cls-5"
                      points="267.634 79.619 281.536 71.619 291.658 71.619 291.658 91.619 244.083 91.619 244.083 111.619 260.732 111.619"/>
            <g class="cls-7">
               <path class="cls-10" d="M244.0831,70.6192a1,1,0,1,1-1,1,1,1,0,0,1,1-1"/>
               <circle class="cls-11" cx="244.0831" cy="71.6192" r="1"/>
               <path class="cls-10" d="M291.6588,70.6192a1,1,0,1,1-1,1,1,1,0,0,1,1-1"/>
               <circle class="cls-11" cx="291.6588" cy="71.6192" r="1"/>
               <path class="cls-10" d="M244.0831,102.6191a1,1,0,1,1-1,1,1,1,0,0,1,1-1"/>
               <circle class="cls-11" cx="244.0831" cy="103.6191" r="1"/>
               <path class="cls-10" d="M291.6554,138.62a1,1,0,1,1-1,1,1,1,0,0,1,1-1"/>
               <circle class="cls-11" cx="291.6554" cy="139.6196" r="1"/>
               <line class="cls-12"
                     x1="253.6344"
                     y1="139.6196"
                     x2="267.8294"
                     y2="139.6196"/>
               <line class="cls-12"
                     x1="253.6344"
                     y1="131.6196"
                     x2="267.8294"
                     y2="131.6196"/>
               <line class="cls-12"
                     x1="253.6344"
                     y1="147.6196"
                     x2="267.8294"
                     y2="147.6196"/>
               <line class="cls-12"
                     x1="253.6344"
                     y1="111.6191"
                     x2="267.8294"
                     y2="111.6191"/>
               <line class="cls-12"
                     x1="253.6344"
                     y1="103.6191"
                     x2="267.8294"
                     y2="103.6191"/>
               <line class="cls-12"
                     x1="253.6344"
                     y1="119.6191"
                     x2="267.8294"
                     y2="119.6191"/>
               <line class="cls-12"
                     x1="253.6344"
                     y1="71.6192"
                     x2="267.8294"
                     y2="71.6192"/>
               <line class="cls-12"
                     x1="253.6344"
                     y1="63.6192"
                     x2="267.8294"
                     y2="63.6192"/>
               <line class="cls-12"
                     x1="253.6344"
                     y1="79.6192"
                     x2="267.8294"
                     y2="79.6192"/>
               <line class="cls-8"
                     x1="268.1222"
                     y1="48.1817"
                     x2="281.6832"
                     y2="48.1817"/>
               <line class="cls-13"
                     x1="268.1222"
                     y1="41.3287"
                     x2="281.6832"
                     y2="48.1817"/>
               <line class="cls-8"
                     x1="268.1222"
                     y1="41.3287"
                     x2="281.6832"
                     y2="48.1817"/>
               <g class="cls-14">
                  <g class="cls-15">
                     <text class="cls-16" transform="translate(243.1554 44.6195)">BYPASS</text>
                  </g>
               </g>
               <g class="cls-14">
                  <g class="cls-17">
                     <text class="cls-16" transform="translate(252.4953 50.6195)">TEST</text>
                  </g>
               </g>
               <g class="cls-14">
                  <g class="cls-18">
                     <text class="cls-16" transform="translate(250.8312 56.6195)">AUTO</text>
                  </g>
               </g>
            </g>
         </g>
      </g>
      <polyline class="cls-19" points="84.712 30.279 291.67 30.516 291.67 71.719"/>
      <path class="cls-5" d="M255.0657,148.0881H84.7123"/>
      <polyline class="cls-19"
                points="232.578 148.088 232.578 104.086 150.383 104.086 150.383 57.11 244.087 57.11 244.087 71.719"/>
      <line class="cls-5"
            x1="292.4315"
            y1="139.7929"
            x2="321.5764"
            y2="139.7929"/>
      <path class="cls-5" d="M70.0457,148.0881H43.5309"/>
      <line class="cls-19"
            x1="43.5313"
            y1="30.2786"
            x2="70.0457"
            y2="30.2786"/>
      <g id="Inverter">
         <g class="cls-20">
            <rect class="cls-21"
                  x="110.1603"
                  y="131.0691"
                  width="34.0175"
                  height="34.0166"/>
            <g class="cls-20">
               <rect class="cls-22"
                     x="110.1603"
                     y="131.0691"
                     width="34.0166"
                     height="34.0166"/>
               <line class="cls-22"
                     x1="110.1633"
                     y1="165.0878"
                     x2="144.1789"
                     y2="131.0722"/>
            </g>
            <line class="cls-22"
                  x1="113.3495"
                  y1="137.4503"
                  x2="122.9129"
                  y2="137.4503"/>
            <line class="cls-22"
                  x1="115.6011"
                  y1="139.5763"
                  x2="113.3494"
                  y2="139.5763"/>
            <line class="cls-22"
                  x1="119.2566"
                  y1="139.5763"
                  x2="117.0058"
                  y2="139.5763"/>
            <line class="cls-22"
                  x1="122.9126"
                  y1="139.5763"
                  x2="120.6609"
                  y2="139.5763"/>
            <g class="cls-20">
               <path class="cls-22"
                     d="M132.4843,157.763a2.1864,2.1864,0,0,1,2.126-2.006c1.0413,0,1.87.53,2.1261,2.006a2.138,2.138,0,0,0,2.126,2.0042,2.2987,2.2987,0,0,0,2.126-2.0042"/>
            </g>
         </g>
      </g>
      <g id="Artwork_13" data-name="Artwork 13">
         <g class="cls-23">
            <g class="cls-23">
               <path class="cls-24"
                     d="M43.5308,146.0885a2,2,0,1,1-2,2,2.0007,2.0007,0,0,1,2-2"/>
               <circle class="cls-5" cx="43.5308" cy="148.0885" r="2"/>
            </g>
         </g>
      </g>
      <g id="Artwork_13-2" data-name="Artwork 13">
         <g class="cls-25">
            <g class="cls-25">
               <path class="cls-24"
                     d="M43.5308,28.279a2,2,0,1,1-2,2,2.0007,2.0007,0,0,1,2-2"/>
               <circle class="cls-5" cx="43.5308" cy="30.279" r="2"/>
            </g>
         </g>
      </g>
      <text class="cls-26" transform="translate(22.9829 11.1184)">BYPASS<tspan x="4.4507" y="12">MAINS</tspan>
      </text>
      <text class="cls-26" transform="translate(101.9021 126.0888)">INVERTER</text>
      <g>
         <path class="cls-27"
               d="M20.6567,122.2631h2.6416a5.1733,5.1733,0,0,1,1.3623.1367,2.3987,2.3987,0,0,1,1.0791.6592,3.1323,3.1323,0,0,1,.6836,1.16,5.2828,5.2828,0,0,1,.2343,1.6914,4.6988,4.6988,0,0,1-.22,1.5235,3.1529,3.1529,0,0,1-.7666,1.2646,2.54,2.54,0,0,1-1.0156.5713,4.3494,4.3494,0,0,1-1.2793.1514h-2.72Zm1.4453,1.2109v4.7412h1.0791a3.9185,3.9185,0,0,0,.874-.0683,1.3285,1.3285,0,0,0,.5835-.2979,1.511,1.511,0,0,0,.3784-.69,4.6734,4.6734,0,0,0,.1465-1.3115,4.28,4.28,0,0,0-.1465-1.2744,1.64,1.64,0,0,0-.41-.6934,1.3766,1.3766,0,0,0-.669-.3369,6.614,6.614,0,0,0-1.1865-.0684Z"/>
         <path class="cls-27"
               d="M32.4633,126.79l1.4014.4443a3.1484,3.1484,0,0,1-1.0718,1.7412,3.374,3.374,0,0,1-4.2456-.4053,3.7283,3.7283,0,0,1-.918-2.664,3.9116,3.9116,0,0,1,.9229-2.7754,3.1648,3.1648,0,0,1,2.4267-.9893,2.9776,2.9776,0,0,1,2.1338.7764,2.827,2.827,0,0,1,.7324,1.3183l-1.4306.3418a1.4786,1.4786,0,0,0-1.5088-1.2011,1.6286,1.6286,0,0,0-1.2915.5713,2.8,2.8,0,0,0-.4956,1.85,3,3,0,0,0,.4883,1.9336,1.5834,1.5834,0,0,0,1.27.5762,1.4479,1.4479,0,0,0,.9912-.3662A2.1254,2.1254,0,0,0,32.4633,126.79Z"/>
         <path class="cls-27" d="M37.8393,129.4213v-7.1582h1.4453v7.1582Z"/>
         <path class="cls-27"
               d="M40.6762,129.4213v-7.1582h1.4062l2.93,4.78v-4.78h1.3428v7.1582h-1.45l-2.8857-4.668v4.668Z"/>
         <path class="cls-27"
               d="M47.8832,129.4213v-7.1582h2.3194a8.4357,8.4357,0,0,1,1.7187.1074,1.8746,1.8746,0,0,1,1.03.7012,2.22,2.22,0,0,1,.415,1.3935,2.3323,2.3323,0,0,1-.2392,1.1084,1.9654,1.9654,0,0,1-.6079.7061,2.0809,2.0809,0,0,1-.75.3389,8.2572,8.2572,0,0,1-1.499.1025h-.9424v2.7Zm1.4453-5.9473v2.0313H50.12a3.7247,3.7247,0,0,0,1.1425-.1123.9416.9416,0,0,0,.4517-.3516.9619.9619,0,0,0,.1636-.5566.9281.9281,0,0,0-.23-.6446,1.005,1.005,0,0,0-.5811-.3174,6.9941,6.9941,0,0,0-1.04-.0488Z"/>
         <path class="cls-27"
               d="M54.5434,122.2631h1.4453V126.14a8.0659,8.0659,0,0,0,.0537,1.1963,1.1614,1.1614,0,0,0,.4419.7061,1.544,1.544,0,0,0,.9546.2656,1.4609,1.4609,0,0,0,.9277-.251.9953.9953,0,0,0,.376-.6181,8.0286,8.0286,0,0,0,.0635-1.2159v-3.96h1.4453v3.76a9.66,9.66,0,0,1-.1172,1.8213,2.0132,2.0132,0,0,1-.4321.8985,2.1917,2.1917,0,0,1-.8423.584,3.6725,3.6725,0,0,1-1.377.2168,3.9753,3.9753,0,0,1-1.5551-.2364,2.2314,2.2314,0,0,1-.8374-.6152,1.9708,1.9708,0,0,1-.4053-.794,8.7,8.7,0,0,1-.1416-1.8164Z"/>
         <path class="cls-27"
               d="M63.3862,129.4213V123.474H61.2621v-1.2109h5.6885v1.2109H64.8315v5.9473Z"/>
         <path class="cls-27"
               d="M25.3832,141.4213v-7.1582h2.3194a8.4357,8.4357,0,0,1,1.7187.1074,1.8746,1.8746,0,0,1,1.03.7012,2.22,2.22,0,0,1,.415,1.3935,2.3323,2.3323,0,0,1-.2392,1.1084,1.9654,1.9654,0,0,1-.6079.7061,2.0809,2.0809,0,0,1-.75.3389,8.2572,8.2572,0,0,1-1.499.1025h-.9424v2.7Zm1.4453-5.9473v2.0313H27.62a3.7247,3.7247,0,0,0,1.1425-.1123.9416.9416,0,0,0,.4517-.3516.9619.9619,0,0,0,.1636-.5566.9281.9281,0,0,0-.23-.6446,1.005,1.005,0,0,0-.5811-.3174,6.9941,6.9941,0,0,0-1.04-.0488Z"/>
         <path class="cls-27"
               d="M31.76,137.8861a4.554,4.554,0,0,1,.3271-1.8359,3.3725,3.3725,0,0,1,.6665-.9815,2.8076,2.8076,0,0,1,.9253-.6445,3.9355,3.9355,0,0,1,1.543-.2832,3.361,3.361,0,0,1,2.5317.9815,4.3867,4.3867,0,0,1,.0074,5.4423,3.7649,3.7649,0,0,1-5.0586.0049A3.6964,3.6964,0,0,1,31.76,137.8861Zm1.4892-.0488a2.6842,2.6842,0,0,0,.5616,1.8438,1.9314,1.9314,0,0,0,2.8442.0048,2.7361,2.7361,0,0,0,.5542-1.8681,2.6919,2.6919,0,0,0-.54-1.836,1.9986,1.9986,0,0,0-2.8735.0078A2.7027,2.7027,0,0,0,33.2494,137.8373Z"/>
         <path class="cls-27"
               d="M40.8471,141.4213l-1.709-7.1582h1.48l1.0791,4.917,1.3086-4.917H44.724l1.2549,5,1.0987-5h1.455l-1.7382,7.1582H45.2612L43.8354,136.07l-1.4209,5.3516Z"/>
         <path class="cls-27"
               d="M49.27,141.4213v-7.1582h5.3077v1.2109H50.7153v1.5869H54.309v1.2061H50.7153v1.9482h3.999v1.2061Z"/>
         <path class="cls-27"
               d="M55.9448,141.4213v-7.1582h3.0419a5.1942,5.1942,0,0,1,1.6675.1933,1.6451,1.6451,0,0,1,.8325.6856,2.0622,2.0622,0,0,1,.3125,1.1279,1.9127,1.9127,0,0,1-.4736,1.3311,2.2742,2.2742,0,0,1-1.416.6611,3.3919,3.3919,0,0,1,.7739.6006,8.1958,8.1958,0,0,1,.8228,1.1621l.874,1.3965H60.6518l-1.0449-1.5576a10.0155,10.0155,0,0,0-.7618-1.0518,1.1031,1.1031,0,0,0-.4345-.2978,2.3756,2.3756,0,0,0-.7276-.0811H57.39v2.9883ZM57.39,137.29h1.0693a5.52,5.52,0,0,0,1.2988-.0879.7772.7772,0,0,0,.4053-.3027.93.93,0,0,0,.1465-.5371.8578.8578,0,0,0-.1929-.583.8832.8832,0,0,0-.5444-.2813c-.1172-.0156-.4688-.0244-1.0547-.0244H57.39Z"/>
      </g>
      <g id="Artwork_13-3" data-name="Artwork 13">
         <g class="cls-28">
            <g class="cls-28">
               <path class="cls-24"
                     d="M321.5763,137.7174a2,2,0,1,1-2,2,2.0007,2.0007,0,0,1,2-2"/>
               <circle class="cls-5" cx="321.5763" cy="139.7174" r="2"/>
            </g>
         </g>
      </g>
      <g id="Artwork_11" data-name="Artwork 11">
         <g class="cls-29">
            <rect class="cls-21"
                  x="177.5118"
                  y="89.3754"
                  width="29.339"
                  height="29.423"/>
            <g class="cls-29">
               <rect class="cls-5"
                     x="177.5118"
                     y="89.3754"
                     width="29.339"
                     height="29.423"/>
               <line class="cls-19"
                     x1="177.512"
                     y1="104.087"
                     x2="206.851"
                     y2="104.087"/>
            </g>
            <rect class="cls-21"
                  x="184.8418"
                  y="96.5024"
                  width="15.128"
                  height="15.171"/>
            <rect class="cls-5"
                  x="184.8418"
                  y="96.5024"
                  width="15.128"
                  height="15.171"/>
            <line class="cls-5"
                  x1="189.8098"
                  y1="115.3526"
                  x2="189.8098"
                  y2="107.9926"/>
            <line class="cls-5"
                  x1="192.7522"
                  y1="115.3526"
                  x2="192.7412"
                  y2="113.0106"/>
            <path d="M196.0071,109.2083v4.929l-4.909-2.464Zm.75-1.216-7.33,3.681,7.33,3.679Z"/>
            <line class="cls-5"
                  x1="195.468"
                  y1="92.8751"
                  x2="195.468"
                  y2="100.2351"/>
            <line class="cls-5"
                  x1="192.179"
                  y1="92.8243"
                  x2="192.179"
                  y2="94.8373"/>
            <path d="M189.2639,94.0364l4.909,2.464-4.909,2.465Zm-.75-1.216v7.36l7.33-3.68Z"/>
            <g class="cls-29">
               <path class="cls-10"
                     d="M184.842,103.086a1,1,0,1,1-.997,1,.9984.9984,0,0,1,.997-1"/>
               <circle class="cls-5" cx="184.842" cy="104.086" r="0.997"/>
               <path class="cls-10"
                     d="M199.97,103.087a1,1,0,1,1-.997,1,.9984.9984,0,0,1,.997-1"/>
               <circle class="cls-5" cx="199.97" cy="104.087" r="0.997"/>
               <g class="cls-14">
                  <g class="cls-30">
                     <text class="cls-31" transform="translate(207.8502 118.7979)">EN</text>
                  </g>
               </g>
            </g>
         </g>
      </g>
      <g id="shape116-109">
         <g class="cls-32">
            <g class="cls-32">
               <path class="cls-10"
                     d="M232.5765,147.075a1.003,1.003,0,1,1-1,1.003,1.001,1.001,0,0,1,1-1.003"/>
               <circle class="cls-11" cx="232.5765" cy="148.078" r="1"/>
            </g>
         </g>
      </g>
      <g id="Artwork_12" data-name="Artwork 12">
         <g class="cls-33">
            <g class="cls-33">
               <g class="cls-14">
                  <g class="cls-34">
                     <text class="cls-31" transform="translate(207.8502 162.7888)">EA</text>
                  </g>
               </g>
            </g>
            <rect class="cls-21"
                  x="177.5118"
                  y="133.3663"
                  width="29.339"
                  height="29.423"/>
            <g class="cls-33">
               <rect class="cls-5"
                     x="177.5118"
                     y="133.3663"
                     width="29.339"
                     height="29.423"/>
               <line class="cls-19"
                     x1="177.512"
                     y1="148.0788"
                     x2="206.851"
                     y2="148.0788"/>
            </g>
            <rect class="cls-21"
                  x="184.8418"
                  y="140.4943"
                  width="15.128"
                  height="15.171"/>
            <rect class="cls-5"
                  x="184.8418"
                  y="140.4943"
                  width="15.128"
                  height="15.171"/>
            <line class="cls-5"
                  x1="189.8098"
                  y1="159.3444"
                  x2="189.8098"
                  y2="151.9844"/>
            <line class="cls-5"
                  x1="192.7522"
                  y1="159.3444"
                  x2="192.7412"
                  y2="157.0024"/>
            <path d="M196.0071,153.2v4.929l-4.909-2.464Zm.75-1.216-7.33,3.681,7.33,3.679Z"/>
            <line class="cls-5"
                  x1="195.468"
                  y1="136.8669"
                  x2="195.468"
                  y2="144.2269"/>
            <line class="cls-5"
                  x1="192.179"
                  y1="136.8156"
                  x2="192.179"
                  y2="138.8286"/>
            <path d="M189.2639,138.0282l4.909,2.464-4.909,2.465Zm-.75-1.216v7.36l7.33-3.68Z"/>
            <g class="cls-33">
               <path class="cls-10"
                     d="M184.842,147.0788a1,1,0,1,1-.997,1,.9978.9978,0,0,1,.997-1"/>
               <circle class="cls-5" cx="184.842" cy="148.0788" r="0.997"/>
               <path class="cls-10"
                     d="M199.97,147.0788a1,1,0,1,1-.997,1,.9984.9984,0,0,1,.997-1"/>
               <circle class="cls-5" cx="199.97" cy="148.0788" r="0.997"/>
            </g>
         </g>
      </g>
      <text class="cls-26" transform="translate(174.5924 72.1378)">STATIC<tspan x="-8.335" y="12">SWITCHES</tspan>
      </text>
      <text class="cls-26" transform="translate(303.0694 133.6988)">OUTPUT</text>
      <text class="cls-26" transform="translate(224.4293 11.1182)">MANUAL BYPASS<tspan x="23.894" y="12">SWITCH</tspan>
      </text>
   </g>
</svg>
