<?xml version="1.0" encoding="UTF-8"?>
<svg xmlns="http://www.w3.org/2000/svg"
     xmlns:xlink="http://www.w3.org/1999/xlink"
     width="140mm"
     height="121mm"
     viewBox="0 0 396.8504 342.9921">
   <defs>
      <style>
      .cls-1, .cls-20, .cls-21, .cls-24, .cls-3, .cls-4, .cls-6, .cls-8, .cls-9 {
        fill: none;
      }

      .cls-2 {
        clip-path: url(#clip-path);
      }

      .cls-3, .cls-6 {
        stroke: #626469;
      }

      .cls-24, .cls-3, .cls-4, .cls-6, .cls-8, .cls-9 {
        stroke-miterlimit: 3;
      }

      .cls-3, .cls-6, .cls-8 {
        stroke-width: 0.5px;
      }

      .cls-3 {
        stroke-dasharray: 2 1;
      }

      .cls-20, .cls-21, .cls-24, .cls-4, .cls-8, .cls-9 {
        stroke: #000;
      }

      .cls-21, .cls-4 {
        stroke-width: 0.75px;
      }

      .cls-5 {
        fill: #c6c6c6;
      }

      .cls-26, .cls-7 {
        fill-rule: evenodd;
      }

      .cls-9 {
        stroke-width: 2px;
      }

      .cls-10 {
        fill: #626469;
      }

      .cls-11 {
        isolation: isolate;
      }

      .cls-12 {
        clip-path: url(#clip-path-3);
      }

      .cls-13 {
        font-size: 6px;
      }

      .cls-13, .cls-29, .cls-50, .cls-51 {
        fill: #01889C;
      }

      .cls-13, .cls-29, .cls-50 {
        font-family: Arial-BoldMT, Arial;
        font-weight: 700;
      }

      .cls-14 {
        clip-path: url(#clip-path-4);
      }

      .cls-15 {
        clip-path: url(#clip-path-5);
      }

      .cls-16 {
        clip-path: url(#clip-path-6);
      }

      .cls-17 {
        clip-path: url(#clip-path-8);
      }

      .cls-18 {
        clip-path: url(#clip-path-9);
      }

      .cls-19 {
        clip-path: url(#clip-path-10);
      }

      .cls-20, .cls-21 {
        stroke-miterlimit: 10;
      }

      .cls-20 {
        stroke-width: 0.5438px;
      }

      .cls-22 {
        clip-path: url(#clip-path-11);
      }

      .cls-23, .cls-26 {
        fill: #fff;
      }

      .cls-24 {
        stroke-width: 0.7087px;
      }

      .cls-25 {
        clip-path: url(#clip-path-14);
      }

      .cls-27 {
        clip-path: url(#clip-path-16);
      }

      .cls-28 {
        clip-path: url(#clip-path-19);
      }

      .cls-29 {
        font-size: 8px;
      }

      .cls-30 {
        clip-path: url(#clip-path-20);
      }

      .cls-31 {
        clip-path: url(#clip-path-22);
      }

      .cls-32 {
        clip-path: url(#clip-path-24);
      }

      .cls-33 {
        clip-path: url(#clip-path-26);
      }

      .cls-34 {
        clip-path: url(#clip-path-28);
      }

      .cls-35 {
        clip-path: url(#clip-path-31);
      }

      .cls-36 {
        clip-path: url(#clip-path-34);
      }

      .cls-37 {
        clip-path: url(#clip-path-36);
      }

      .cls-38 {
        clip-path: url(#clip-path-39);
      }

      .cls-39 {
        clip-path: url(#clip-path-40);
      }

      .cls-40 {
        clip-path: url(#clip-path-42);
      }

      .cls-41 {
        clip-path: url(#clip-path-44);
      }

      .cls-42 {
        clip-path: url(#clip-path-46);
      }

      .cls-43 {
        clip-path: url(#clip-path-49);
      }

      .cls-44 {
        clip-path: url(#clip-path-51);
      }

      .cls-45 {
        clip-path: url(#clip-path-53);
      }

      .cls-46 {
        clip-path: url(#clip-path-55);
      }

      .cls-47 {
        clip-path: url(#clip-path-56);
      }

      .cls-48 {
        clip-path: url(#clip-path-57);
      }

      .cls-49 {
        clip-path: url(#clip-path-58);
      }

      .cls-50 {
        font-size: 10px;
      }
    </style>
      <clipPath id="clip-path">
         <rect class="cls-1"
               x="233.7109"
               y="41.2237"
               width="76.0872"
               height="111.302"/>
      </clipPath>
      <clipPath id="clip-path-3">
         <rect class="cls-1"
               x="246.8808"
               y="41.6287"
               width="24.6738"
               height="7.406"/>
      </clipPath>
      <clipPath id="clip-path-4">
         <rect class="cls-1"
               x="256.2206"
               y="47.6287"
               width="15.334"
               height="7.4061"/>
      </clipPath>
      <clipPath id="clip-path-5">
         <rect class="cls-1"
               x="254.5565"
               y="53.628"
               width="16.9981"
               height="7.4063"/>
      </clipPath>
      <clipPath id="clip-path-6">
         <rect class="cls-1"
               x="233.7109"
               y="208.5576"
               width="76.0872"
               height="111.302"/>
      </clipPath>
      <clipPath id="clip-path-8">
         <rect class="cls-1"
               x="246.8808"
               y="208.9626"
               width="24.6738"
               height="7.406"/>
      </clipPath>
      <clipPath id="clip-path-9">
         <rect class="cls-1"
               x="256.2206"
               y="214.9626"
               width="15.334"
               height="7.4061"/>
      </clipPath>
      <clipPath id="clip-path-10">
         <rect class="cls-1"
               x="254.5565"
               y="220.9619"
               width="16.9981"
               height="7.4063"/>
      </clipPath>
      <clipPath id="clip-path-11">
         <rect class="cls-1"
               x="113.1777"
               y="130.3917"
               width="35.434"
               height="39.6861"/>
      </clipPath>
      <clipPath id="clip-path-14">
         <rect class="cls-1"
               x="352.2393"
               y="138.8109"
               width="6.125"
               height="6.125"/>
      </clipPath>
      <clipPath id="clip-path-16">
         <rect class="cls-1"
               x="179.866"
               y="90.2428"
               width="46.8331"
               height="32"/>
      </clipPath>
      <clipPath id="clip-path-19">
         <rect class="cls-1"
               x="211.576"
               y="114.091"
               width="11.1133"
               height="9.875"/>
      </clipPath>
      <clipPath id="clip-path-20">
         <rect class="cls-1"
               x="40.5029"
               y="147.182"
               width="6.125"
               height="6.125"/>
      </clipPath>
      <clipPath id="clip-path-22">
         <rect class="cls-1"
               x="234.0167"
               y="147.9438"
               width="4.5709"
               height="4.5819"/>
      </clipPath>
      <clipPath id="clip-path-24">
         <rect class="cls-1"
               x="40.5029"
               y="29.3724"
               width="6.125"
               height="6.125"/>
      </clipPath>
      <clipPath id="clip-path-26">
         <rect class="cls-1"
               x="179.866"
               y="134.2347"
               width="46.8331"
               height="32"/>
      </clipPath>
      <clipPath id="clip-path-28">
         <rect class="cls-1"
               x="211.576"
               y="158.0829"
               width="11.1133"
               height="9.875"/>
      </clipPath>
      <clipPath id="clip-path-31">
         <rect class="cls-1"
               x="113.1777"
               y="297.7256"
               width="35.434"
               height="39.6861"/>
      </clipPath>
      <clipPath id="clip-path-34">
         <rect class="cls-1"
               x="352.2393"
               y="306.1448"
               width="6.125"
               height="6.125"/>
      </clipPath>
      <clipPath id="clip-path-36">
         <rect class="cls-1"
               x="179.866"
               y="257.5767"
               width="46.8331"
               height="32"/>
      </clipPath>
      <clipPath id="clip-path-39">
         <rect class="cls-1"
               x="211.576"
               y="281.4249"
               width="11.1133"
               height="9.875"/>
      </clipPath>
      <clipPath id="clip-path-40">
         <rect class="cls-1"
               x="40.5029"
               y="314.5159"
               width="6.125"
               height="6.125"/>
      </clipPath>
      <clipPath id="clip-path-42">
         <rect class="cls-1"
               x="234.0167"
               y="315.2776"
               width="4.5709"
               height="4.5819"/>
      </clipPath>
      <clipPath id="clip-path-44">
         <rect class="cls-1"
               x="179.866"
               y="301.5686"
               width="46.8331"
               height="32"/>
      </clipPath>
      <clipPath id="clip-path-46">
         <rect class="cls-1"
               x="211.576"
               y="325.4168"
               width="11.1133"
               height="9.875"/>
      </clipPath>
      <clipPath id="clip-path-49">
         <rect class="cls-1"
               x="72.7682"
               y="24.3008"
               width="16.63"
               height="16.2683"/>
      </clipPath>
      <clipPath id="clip-path-51">
         <rect class="cls-1"
               x="40.5029"
               y="196.7775"
               width="6.125"
               height="6.125"/>
      </clipPath>
      <clipPath id="clip-path-53">
         <rect class="cls-1"
               x="72.7682"
               y="191.7058"
               width="16.63"
               height="16.2683"/>
      </clipPath>
      <clipPath id="clip-path-55">
         <rect class="cls-1"
               x="72.7682"
               y="142.1103"
               width="16.63"
               height="16.2683"/>
      </clipPath>
      <clipPath id="clip-path-56">
         <rect class="cls-1"
               x="72.7682"
               y="142.1106"
               width="16.63"
               height="16.268"/>
      </clipPath>
      <clipPath id="clip-path-57">
         <rect class="cls-1"
               x="72.7682"
               y="309.4442"
               width="16.63"
               height="16.2683"/>
      </clipPath>
      <clipPath id="clip-path-58">
         <rect class="cls-1"
               x="72.7682"
               y="309.4445"
               width="16.63"
               height="16.268"/>
      </clipPath>
   </defs>
   <g id="MB_Auto" data-name="MB Auto">
      <g id="Auto">
         <g class="cls-2">
            <line class="cls-3"
                  x1="278.8739"
                  y1="145.4391"
                  x2="278.8739"
                  y2="46.9111"/>
            <line class="cls-4"
                  x1="247.8085"
                  y1="105.7755"
                  x2="264.4575"
                  y2="105.7755"/>
            <polyline class="cls-4"
                      points="264.457 81.776 247.808 81.776 247.808 73.776 264.457 73.776"/>
            <line class="cls-5"
                  x1="271.8476"
                  y1="57.1905"
                  x2="285.4086"
                  y2="50.3375"/>
            <line class="cls-6"
                  x1="271.8476"
                  y1="57.1905"
                  x2="285.4086"
                  y2="50.3375"/>
            <polyline class="cls-4"
                      points="271.36 121.775 285.262 113.776 295.384 113.776 295.384 141.751 285.262 141.751 271.36 149.775"/>
            <polyline class="cls-4"
                      points="271.36 81.776 285.262 73.776 295.384 73.776 295.384 93.776 247.809 93.776 247.809 113.776 264.458 113.776"/>
            <g class="cls-2">
               <path class="cls-7" d="M247.8085,72.7755a1,1,0,1,1-1,1,1,1,0,0,1,1-1"/>
               <circle class="cls-8" cx="247.8085" cy="73.7755" r="1"/>
               <path class="cls-7" d="M295.3842,72.7755a1,1,0,1,1-1,1,1,1,0,0,1,1-1"/>
               <circle class="cls-8" cx="295.3842" cy="73.7755" r="1"/>
               <path class="cls-7" d="M247.8085,104.7755a1,1,0,1,1-1,1,1,1,0,0,1,1-1"/>
               <circle class="cls-8" cx="247.8085" cy="105.7755" r="1"/>
               <path class="cls-7" d="M295.3808,140.776a1,1,0,1,1-1,1,1,1,0,0,1,1-1"/>
               <circle class="cls-8" cx="295.3808" cy="141.776" r="1"/>
               <line class="cls-9"
                     x1="257.3598"
                     y1="141.776"
                     x2="271.5548"
                     y2="141.776"/>
               <line class="cls-9"
                     x1="257.3598"
                     y1="133.776"
                     x2="271.5548"
                     y2="133.776"/>
               <line class="cls-9"
                     x1="257.3598"
                     y1="149.776"
                     x2="271.5548"
                     y2="149.776"/>
               <line class="cls-9"
                     x1="257.3598"
                     y1="113.7755"
                     x2="271.5548"
                     y2="113.7755"/>
               <line class="cls-9"
                     x1="257.3598"
                     y1="105.7755"
                     x2="271.5548"
                     y2="105.7755"/>
               <line class="cls-9"
                     x1="257.3598"
                     y1="121.7755"
                     x2="271.5548"
                     y2="121.7755"/>
               <line class="cls-9"
                     x1="257.3598"
                     y1="73.7755"
                     x2="271.5548"
                     y2="73.7755"/>
               <line class="cls-9"
                     x1="257.3598"
                     y1="65.7755"
                     x2="271.5548"
                     y2="65.7755"/>
               <line class="cls-9"
                     x1="257.3598"
                     y1="81.7755"
                     x2="271.5548"
                     y2="81.7755"/>
               <line class="cls-3"
                     x1="271.8476"
                     y1="50.338"
                     x2="285.4086"
                     y2="50.338"/>
               <line class="cls-10"
                     x1="271.8476"
                     y1="43.485"
                     x2="285.4086"
                     y2="50.338"/>
               <line class="cls-3"
                     x1="271.8476"
                     y1="43.485"
                     x2="285.4086"
                     y2="50.338"/>
               <g class="cls-11">
                  <g class="cls-12">
                     <text class="cls-13" transform="translate(246.8808 46.7758)">BYPASS</text>
                  </g>
               </g>
               <g class="cls-11">
                  <g class="cls-14">
                     <text class="cls-13" transform="translate(256.2206 52.7758)">TEST</text>
                  </g>
               </g>
               <g class="cls-11">
                  <g class="cls-15">
                     <text class="cls-13" transform="translate(254.5565 58.7758)">AUTO</text>
                  </g>
               </g>
            </g>
         </g>
      </g>
      <g id="Auto-2" data-name="Auto">
         <g class="cls-16">
            <line class="cls-3"
                  x1="278.8739"
                  y1="312.773"
                  x2="278.8739"
                  y2="214.245"/>
            <line class="cls-4"
                  x1="247.8085"
                  y1="273.1094"
                  x2="264.4575"
                  y2="273.1094"/>
            <polyline class="cls-4"
                      points="264.457 249.109 247.808 249.109 247.808 241.109 264.457 241.109"/>
            <line class="cls-5"
                  x1="271.8476"
                  y1="224.5244"
                  x2="285.4086"
                  y2="217.6714"/>
            <line class="cls-6"
                  x1="271.8476"
                  y1="224.5244"
                  x2="285.4086"
                  y2="217.6714"/>
            <polyline class="cls-4"
                      points="271.36 289.109 285.262 281.109 295.384 281.109 295.384 309.085 285.262 309.085 271.36 317.109"/>
            <polyline class="cls-4"
                      points="271.36 249.109 285.262 241.109 295.384 241.109 295.384 261.109 247.809 261.109 247.809 281.109 264.458 281.109"/>
            <g class="cls-16">
               <path class="cls-7" d="M247.8085,240.1094a1,1,0,1,1-1,1,1,1,0,0,1,1-1"/>
               <circle class="cls-8" cx="247.8085" cy="241.1094" r="1"/>
               <path class="cls-7" d="M295.3842,240.1094a1,1,0,1,1-1,1,1,1,0,0,1,1-1"/>
               <circle class="cls-8" cx="295.3842" cy="241.1094" r="1"/>
               <path class="cls-7" d="M247.8085,272.1094a1,1,0,1,1-1,1,1,1,0,0,1,1-1"/>
               <circle class="cls-8" cx="247.8085" cy="273.1094" r="1"/>
               <path class="cls-7" d="M295.3808,308.11a1,1,0,1,1-1,1,1,1,0,0,1,1-1"/>
               <circle class="cls-8" cx="295.3808" cy="309.1099" r="1"/>
               <line class="cls-9"
                     x1="257.3598"
                     y1="309.1099"
                     x2="271.5548"
                     y2="309.1099"/>
               <line class="cls-9"
                     x1="257.3598"
                     y1="301.1099"
                     x2="271.5548"
                     y2="301.1099"/>
               <line class="cls-9"
                     x1="257.3598"
                     y1="317.1099"
                     x2="271.5548"
                     y2="317.1099"/>
               <line class="cls-9"
                     x1="257.3598"
                     y1="281.1094"
                     x2="271.5548"
                     y2="281.1094"/>
               <line class="cls-9"
                     x1="257.3598"
                     y1="273.1094"
                     x2="271.5548"
                     y2="273.1094"/>
               <line class="cls-9"
                     x1="257.3598"
                     y1="289.1094"
                     x2="271.5548"
                     y2="289.1094"/>
               <line class="cls-9"
                     x1="257.3598"
                     y1="241.1094"
                     x2="271.5548"
                     y2="241.1094"/>
               <line class="cls-9"
                     x1="257.3598"
                     y1="233.1094"
                     x2="271.5548"
                     y2="233.1094"/>
               <line class="cls-9"
                     x1="257.3598"
                     y1="249.1094"
                     x2="271.5548"
                     y2="249.1094"/>
               <line class="cls-3"
                     x1="271.8476"
                     y1="217.6719"
                     x2="285.4086"
                     y2="217.6719"/>
               <line class="cls-10"
                     x1="271.8476"
                     y1="210.8189"
                     x2="285.4086"
                     y2="217.6719"/>
               <line class="cls-3"
                     x1="271.8476"
                     y1="210.8189"
                     x2="285.4086"
                     y2="217.6719"/>
               <g class="cls-11">
                  <g class="cls-17">
                     <text class="cls-13" transform="translate(246.8808 214.1096)">BYPASS</text>
                  </g>
               </g>
               <g class="cls-11">
                  <g class="cls-18">
                     <text class="cls-13" transform="translate(256.2206 220.1096)">TEST</text>
                  </g>
               </g>
               <g class="cls-11">
                  <g class="cls-19">
                     <text class="cls-13" transform="translate(254.5565 226.1096)">AUTO</text>
                  </g>
               </g>
            </g>
         </g>
      </g>
   </g>
   <g id="Paths">
      <polyline class="cls-20" points="89.092 32.435 295.363 32.737 295.363 73.949"/>
      <path class="cls-4" d="M258.7911,150.2445H89.3982"/>
      <path class="cls-4" d="M258.7911,317.5784H89.0919"/>
      <polyline class="cls-21"
                points="236.303 150.244 236.303 106.243 154.108 106.243 154.108 59.266 247.812 59.266 247.812 73.875"/>
      <path class="cls-4" d="M73.5654,150.2445H44.4666"/>
      <line class="cls-4"
            x1="296.1569"
            y1="141.9494"
            x2="355.3018"
            y2="141.9494"/>
      <line class="cls-21"
            x1="43.5654"
            y1="32.4349"
            x2="73.5654"
            y2="32.4349"/>
      <polyline class="cls-21" points="89.092 199.84 295.384 200.078 295.384 241.136"/>
      <line class="cls-21"
            x1="43.5654"
            y1="199.84"
            x2="73.5654"
            y2="199.84"/>
      <polyline class="cls-21"
                points="236.303 317.578 236.303 273.577 154.108 273.577 154.108 226.6 247.812 226.6 247.812 241.209"/>
      <path class="cls-4" d="M73.5654,317.5784H44.4666"/>
      <line class="cls-4"
            x1="296.1569"
            y1="309.2832"
            x2="355.3018"
            y2="309.2832"/>
   </g>
   <g id="Parts">
      <g id="Inverter">
         <g class="cls-22">
            <rect class="cls-23"
                  x="113.8854"
                  y="133.2255"
                  width="34.0176"
                  height="34.0166"/>
            <g class="cls-22">
               <rect class="cls-24"
                     x="113.8854"
                     y="133.2255"
                     width="34.0166"
                     height="34.0166"/>
               <line class="cls-24"
                     x1="113.8884"
                     y1="167.2443"
                     x2="147.9041"
                     y2="133.2286"/>
            </g>
            <line class="cls-24"
                  x1="117.0746"
                  y1="139.6067"
                  x2="126.638"
                  y2="139.6067"/>
            <line class="cls-24"
                  x1="119.3262"
                  y1="141.7327"
                  x2="117.0745"
                  y2="141.7327"/>
            <line class="cls-24"
                  x1="122.9817"
                  y1="141.7327"
                  x2="120.7309"
                  y2="141.7327"/>
            <line class="cls-24"
                  x1="126.6377"
                  y1="141.7327"
                  x2="124.386"
                  y2="141.7327"/>
            <g class="cls-22">
               <path class="cls-24"
                     d="M136.2094,159.92a2.1865,2.1865,0,0,1,2.1261-2.0061c1.0413,0,1.87.53,2.126,2.0061a2.138,2.138,0,0,0,2.126,2.0041,2.2987,2.2987,0,0,0,2.1261-2.0041"/>
            </g>
         </g>
      </g>
      <g id="Artwork_13" data-name="Artwork 13">
         <g class="cls-25">
            <g class="cls-25">
               <path class="cls-26"
                     d="M355.3017,139.8738a2,2,0,1,1-2,2,2.0007,2.0007,0,0,1,2-2"/>
               <circle class="cls-4" cx="355.3017" cy="141.8738" r="2"/>
            </g>
         </g>
      </g>
      <g id="Artwork_11" data-name="Artwork 11">
         <g class="cls-27">
            <rect class="cls-23"
                  x="181.237"
                  y="91.5318"
                  width="29.339"
                  height="29.423"/>
            <g class="cls-27">
               <rect class="cls-4"
                     x="181.237"
                     y="91.5318"
                     width="29.339"
                     height="29.423"/>
               <line class="cls-21"
                     x1="181.2372"
                     y1="106.2434"
                     x2="210.5762"
                     y2="106.2434"/>
            </g>
            <rect class="cls-23"
                  x="188.567"
                  y="98.6588"
                  width="15.128"
                  height="15.171"/>
            <rect class="cls-4"
                  x="188.567"
                  y="98.6588"
                  width="15.128"
                  height="15.171"/>
            <line class="cls-4"
                  x1="193.535"
                  y1="117.509"
                  x2="193.535"
                  y2="110.149"/>
            <line class="cls-4"
                  x1="196.4774"
                  y1="117.509"
                  x2="196.4664"
                  y2="115.167"/>
            <path d="M199.7323,111.3647v4.929l-4.909-2.464Zm.75-1.216-7.33,3.681,7.33,3.679Z"/>
            <line class="cls-4"
                  x1="199.1932"
                  y1="95.0315"
                  x2="199.1932"
                  y2="102.3915"/>
            <line class="cls-4"
                  x1="195.9042"
                  y1="94.9807"
                  x2="195.9042"
                  y2="96.9937"/>
            <path d="M192.9891,96.1928l4.909,2.464-4.909,2.465Zm-.75-1.216v7.36l7.33-3.68Z"/>
            <g class="cls-27">
               <path class="cls-7"
                     d="M188.5672,105.2424a1,1,0,1,1-.997,1,.9984.9984,0,0,1,.997-1"/>
               <circle class="cls-4" cx="188.5672" cy="106.2424" r="0.997"/>
               <path class="cls-7"
                     d="M203.6952,105.2434a1,1,0,1,1-.997,1,.9984.9984,0,0,1,.997-1"/>
               <circle class="cls-4" cx="203.6952" cy="106.2434" r="0.997"/>
               <g class="cls-11">
                  <g class="cls-28">
                     <text class="cls-29" transform="translate(211.5755 120.9543)">EN</text>
                  </g>
               </g>
            </g>
         </g>
      </g>
      <g id="Artwork_13-2" data-name="Artwork 13">
         <g class="cls-30">
            <g class="cls-30">
               <path class="cls-26"
                     d="M43.5653,148.2449a2,2,0,1,1-2,2,2.0007,2.0007,0,0,1,2-2"/>
               <circle class="cls-4" cx="43.5653" cy="150.2449" r="2"/>
            </g>
         </g>
      </g>
      <g id="shape116-109">
         <g class="cls-31">
            <g class="cls-31">
               <path class="cls-7"
                     d="M236.3018,149.2314a1.003,1.003,0,1,1-1,1.003,1.001,1.001,0,0,1,1-1.003"/>
               <circle class="cls-8" cx="236.3018" cy="150.2344" r="1"/>
            </g>
         </g>
      </g>
      <g id="Artwork_13-3" data-name="Artwork 13">
         <g class="cls-32">
            <g class="cls-32">
               <path class="cls-26"
                     d="M43.5653,30.4353a2,2,0,1,1-2,2,2.0007,2.0007,0,0,1,2-2"/>
               <circle class="cls-4" cx="43.5653" cy="32.4353" r="2"/>
            </g>
         </g>
      </g>
      <g id="Artwork_12" data-name="Artwork 12">
         <g class="cls-33">
            <g class="cls-33">
               <g class="cls-11">
                  <g class="cls-34">
                     <text class="cls-29" transform="translate(211.5755 164.9452)">EA</text>
                  </g>
               </g>
            </g>
            <rect class="cls-23"
                  x="181.237"
                  y="135.5227"
                  width="29.339"
                  height="29.423"/>
            <g class="cls-33">
               <rect class="cls-4"
                     x="181.237"
                     y="135.5227"
                     width="29.339"
                     height="29.423"/>
               <line class="cls-21"
                     x1="181.2372"
                     y1="150.2352"
                     x2="210.5762"
                     y2="150.2352"/>
            </g>
            <rect class="cls-23"
                  x="188.567"
                  y="142.6507"
                  width="15.128"
                  height="15.171"/>
            <rect class="cls-4"
                  x="188.567"
                  y="142.6507"
                  width="15.128"
                  height="15.171"/>
            <line class="cls-4"
                  x1="193.535"
                  y1="161.5008"
                  x2="193.535"
                  y2="154.1408"/>
            <line class="cls-4"
                  x1="196.4774"
                  y1="161.5008"
                  x2="196.4664"
                  y2="159.1588"/>
            <path d="M199.7323,155.3565v4.929l-4.909-2.464Zm.75-1.216-7.33,3.681,7.33,3.679Z"/>
            <line class="cls-4"
                  x1="199.1932"
                  y1="139.0233"
                  x2="199.1932"
                  y2="146.3833"/>
            <line class="cls-4"
                  x1="195.9042"
                  y1="138.972"
                  x2="195.9042"
                  y2="140.985"/>
            <path d="M192.9891,140.1846l4.909,2.464-4.909,2.465Zm-.75-1.216v7.36l7.33-3.68Z"/>
            <g class="cls-33">
               <path class="cls-7"
                     d="M188.5672,149.2352a1,1,0,1,1-.997,1,.9978.9978,0,0,1,.997-1"/>
               <circle class="cls-4" cx="188.5672" cy="150.2352" r="0.997"/>
               <path class="cls-7"
                     d="M203.6952,149.2352a1,1,0,1,1-.997,1,.9984.9984,0,0,1,.997-1"/>
               <circle class="cls-4" cx="203.6952" cy="150.2352" r="0.997"/>
            </g>
         </g>
      </g>
      <g id="Inverter-2" data-name="Inverter">
         <g class="cls-35">
            <rect class="cls-23"
                  x="113.8854"
                  y="300.5594"
                  width="34.0176"
                  height="34.0166"/>
            <g class="cls-35">
               <rect class="cls-24"
                     x="113.8854"
                     y="300.5594"
                     width="34.0166"
                     height="34.0166"/>
               <line class="cls-24"
                     x1="113.8884"
                     y1="334.5782"
                     x2="147.9041"
                     y2="300.5625"/>
            </g>
            <line class="cls-24"
                  x1="117.0746"
                  y1="306.9406"
                  x2="126.638"
                  y2="306.9406"/>
            <line class="cls-24"
                  x1="119.3262"
                  y1="309.0666"
                  x2="117.0745"
                  y2="309.0666"/>
            <line class="cls-24"
                  x1="122.9817"
                  y1="309.0666"
                  x2="120.7309"
                  y2="309.0666"/>
            <line class="cls-24"
                  x1="126.6377"
                  y1="309.0666"
                  x2="124.386"
                  y2="309.0666"/>
            <g class="cls-35">
               <path class="cls-24"
                     d="M136.2094,327.2533a2.1865,2.1865,0,0,1,2.1261-2.006c1.0413,0,1.87.53,2.126,2.006a2.138,2.138,0,0,0,2.126,2.0042,2.2987,2.2987,0,0,0,2.1261-2.0042"/>
            </g>
         </g>
      </g>
      <g id="Artwork_13-4" data-name="Artwork 13">
         <g class="cls-36">
            <g class="cls-36">
               <path class="cls-26"
                     d="M355.3017,307.2077a2,2,0,1,1-2,2,2.0007,2.0007,0,0,1,2-2"/>
               <circle class="cls-4" cx="355.3017" cy="309.2077" r="2"/>
            </g>
         </g>
      </g>
      <g id="Artwork_11-2" data-name="Artwork 11">
         <g class="cls-37">
            <rect class="cls-23"
                  x="181.237"
                  y="258.8657"
                  width="29.339"
                  height="29.423"/>
            <g class="cls-37">
               <rect class="cls-4"
                     x="181.237"
                     y="258.8657"
                     width="29.339"
                     height="29.423"/>
               <line class="cls-21"
                     x1="181.2372"
                     y1="273.5773"
                     x2="210.5762"
                     y2="273.5773"/>
            </g>
            <rect class="cls-23"
                  x="188.567"
                  y="265.9927"
                  width="15.128"
                  height="15.171"/>
            <rect class="cls-4"
                  x="188.567"
                  y="265.9927"
                  width="15.128"
                  height="15.171"/>
            <line class="cls-4"
                  x1="193.535"
                  y1="284.8429"
                  x2="193.535"
                  y2="277.4829"/>
            <line class="cls-4"
                  x1="196.4774"
                  y1="284.8429"
                  x2="196.4664"
                  y2="282.5009"/>
            <path d="M199.7323,278.6986v4.929l-4.909-2.464Zm.75-1.216-7.33,3.681,7.33,3.679Z"/>
            <line class="cls-4"
                  x1="199.1932"
                  y1="262.3654"
                  x2="199.1932"
                  y2="269.7254"/>
            <line class="cls-4"
                  x1="195.9042"
                  y1="262.3146"
                  x2="195.9042"
                  y2="264.3276"/>
            <path d="M192.9891,263.5267l4.909,2.464-4.909,2.465Zm-.75-1.216v7.36l7.33-3.68Z"/>
            <g class="cls-37">
               <path class="cls-7"
                     d="M188.5672,272.5763a1,1,0,1,1-.997,1,.9984.9984,0,0,1,.997-1"/>
               <circle class="cls-4" cx="188.5672" cy="273.5763" r="0.997"/>
               <path class="cls-7"
                     d="M203.6952,272.5773a1,1,0,1,1-.997,1,.9984.9984,0,0,1,.997-1"/>
               <circle class="cls-4" cx="203.6952" cy="273.5773" r="0.997"/>
               <g class="cls-11">
                  <g class="cls-38">
                     <text class="cls-29" transform="translate(211.5755 288.2882)">EN</text>
                  </g>
               </g>
            </g>
         </g>
      </g>
      <g id="Artwork_13-5" data-name="Artwork 13">
         <g class="cls-39">
            <g class="cls-39">
               <path class="cls-26"
                     d="M43.5653,315.5788a2,2,0,1,1-2,2,2.0007,2.0007,0,0,1,2-2"/>
               <circle class="cls-4" cx="43.5653" cy="317.5788" r="2"/>
            </g>
         </g>
      </g>
      <g id="shape116-109-2" data-name="shape116-109">
         <g class="cls-40">
            <g class="cls-40">
               <path class="cls-7"
                     d="M236.3018,316.5653a1.003,1.003,0,1,1-1,1.003,1.001,1.001,0,0,1,1-1.003"/>
               <circle class="cls-8" cx="236.3018" cy="317.5683" r="1"/>
            </g>
         </g>
      </g>
      <g id="Artwork_12-2" data-name="Artwork 12">
         <g class="cls-41">
            <g class="cls-41">
               <g class="cls-11">
                  <g class="cls-42">
                     <text class="cls-29" transform="translate(211.5755 332.2791)">EA</text>
                  </g>
               </g>
            </g>
            <rect class="cls-23"
                  x="181.237"
                  y="302.8566"
                  width="29.339"
                  height="29.423"/>
            <g class="cls-41">
               <rect class="cls-4"
                     x="181.237"
                     y="302.8566"
                     width="29.339"
                     height="29.423"/>
               <line class="cls-21"
                     x1="181.2372"
                     y1="317.5691"
                     x2="210.5762"
                     y2="317.5691"/>
            </g>
            <rect class="cls-23"
                  x="188.567"
                  y="309.9846"
                  width="15.128"
                  height="15.171"/>
            <rect class="cls-4"
                  x="188.567"
                  y="309.9846"
                  width="15.128"
                  height="15.171"/>
            <line class="cls-4"
                  x1="193.535"
                  y1="328.8347"
                  x2="193.535"
                  y2="321.4747"/>
            <line class="cls-4"
                  x1="196.4774"
                  y1="328.8347"
                  x2="196.4664"
                  y2="326.4927"/>
            <path d="M199.7323,322.69v4.929l-4.909-2.464Zm.75-1.216-7.33,3.681,7.33,3.679Z"/>
            <line class="cls-4"
                  x1="199.1932"
                  y1="306.3572"
                  x2="199.1932"
                  y2="313.7172"/>
            <line class="cls-4"
                  x1="195.9042"
                  y1="306.3059"
                  x2="195.9042"
                  y2="308.3189"/>
            <path d="M192.9891,307.5185l4.909,2.464-4.909,2.465Zm-.75-1.216v7.36l7.33-3.68Z"/>
            <g class="cls-41">
               <path class="cls-7"
                     d="M188.5672,316.5691a1,1,0,1,1-.997,1,.9978.9978,0,0,1,.997-1"/>
               <circle class="cls-4" cx="188.5672" cy="317.5691" r="0.997"/>
               <path class="cls-7"
                     d="M203.6952,316.5691a1,1,0,1,1-.997,1,.9984.9984,0,0,1,.997-1"/>
               <circle class="cls-4" cx="203.6952" cy="317.5691" r="0.997"/>
            </g>
         </g>
      </g>
      <g id="Artwork_20" data-name="Artwork 20">
         <g class="cls-43">
            <rect class="cls-23"
                  x="73.7862"
                  y="29.9341"
                  width="14.612"
                  height="5.032"/>
            <g class="cls-43">
               <line class="cls-4"
                     x1="73.7683"
                     y1="39.2123"
                     x2="88.3983"
                     y2="32.4463"/>
               <path d="M88.3982,33.4506h0a1,1,0,1,1,1-1,1.0029,1.0029,0,0,1-1,1"/>
               <path d="M73.7683,33.4506h0a1,1,0,1,1,1-1,1.0029,1.0029,0,0,1-1,1"/>
            </g>
         </g>
      </g>
      <g id="Artwork_13-6" data-name="Artwork 13">
         <g class="cls-44">
            <g class="cls-44">
               <path class="cls-26"
                     d="M43.5653,197.84a2,2,0,1,1-2,2,2.0007,2.0007,0,0,1,2-2"/>
               <circle class="cls-4" cx="43.5653" cy="199.8404" r="2"/>
            </g>
         </g>
      </g>
      <g id="Artwork_20-2" data-name="Artwork 20">
         <g class="cls-45">
            <rect class="cls-23"
                  x="73.7862"
                  y="197.3391"
                  width="14.612"
                  height="5.032"/>
            <g class="cls-45">
               <line class="cls-4"
                     x1="73.7683"
                     y1="206.6173"
                     x2="88.3983"
                     y2="199.8513"/>
               <path d="M88.3982,200.8556h0a1,1,0,1,1,1-1,1.0029,1.0029,0,0,1-1,1"/>
               <path d="M73.7683,200.8556h0a1,1,0,1,1,1-1,1.0029,1.0029,0,0,1-1,1"/>
            </g>
         </g>
      </g>
      <g id="Artwork_20-3" data-name="Artwork 20">
         <g class="cls-46">
            <rect class="cls-23"
                  x="73.7862"
                  y="147.7436"
                  width="14.612"
                  height="5.032"/>
            <g class="cls-47">
               <line class="cls-4"
                     x1="73.7683"
                     y1="157.0218"
                     x2="88.3983"
                     y2="150.2558"/>
               <path d="M88.3982,151.26h0a1,1,0,1,1,1-1,1.0029,1.0029,0,0,1-1,1"/>
               <path d="M73.7683,151.26h0a1,1,0,1,1,1-1,1.0029,1.0029,0,0,1-1,1"/>
            </g>
         </g>
      </g>
      <g id="Artwork_20-4" data-name="Artwork 20">
         <g class="cls-48">
            <rect class="cls-23"
                  x="73.7862"
                  y="315.0775"
                  width="14.612"
                  height="5.032"/>
            <g class="cls-49">
               <line class="cls-4"
                     x1="73.7683"
                     y1="324.3557"
                     x2="88.3983"
                     y2="317.5897"/>
               <path d="M88.3982,318.594h0a1,1,0,1,1,1-1,1.0029,1.0029,0,0,1-1,1"/>
               <path d="M73.7683,318.594h0a1,1,0,1,1,1-1,1.0029,1.0029,0,0,1-1,1"/>
            </g>
         </g>
      </g>
   </g>
   <g id="Text">
      <text class="cls-50" transform="translate(23.0042 13.2645)">BYPASS<tspan x="4.4507" y="12">MAINS</tspan>
      </text>
      <text class="cls-50" transform="translate(23.0042 180.6696)">BYPASS<tspan x="4.4507" y="12">MAINS</tspan>
      </text>
      <text class="cls-50" transform="translate(178.3042 74.2839)">STATIC<tspan x="-8.335" y="12">SWITCHES</tspan>
      </text>
      <text class="cls-50" transform="translate(101.4441 128.235)">INVERTER 1</text>
      <text class="cls-50" transform="translate(178.3042 241.6178)">STATIC<tspan x="-8.335" y="12">SWITCHES</tspan>
      </text>
      <text class="cls-50" transform="translate(101.4441 295.5689)">INVERTER 2</text>
      <text class="cls-50" transform="translate(330.7256 135.8111)">OUTPUT 1</text>
      <text class="cls-50" transform="translate(330.7256 303.1445)">OUTPUT 2</text>
      <g>
         <path class="cls-51"
               d="M20.6771,124.41h2.6407a5.16,5.16,0,0,1,1.3633.1367,2.3842,2.3842,0,0,1,1.0781.6592,3.1234,3.1234,0,0,1,.6836,1.16,5.2861,5.2861,0,0,1,.2343,1.6919,4.7047,4.7047,0,0,1-.2187,1.5235,3.1623,3.1623,0,0,1-.7676,1.2646,2.5327,2.5327,0,0,1-1.0156.5713,4.3618,4.3618,0,0,1-1.2793.1514H20.6771Zm1.4454,1.2109v4.7412h1.0781a3.96,3.96,0,0,0,.875-.0683,1.3345,1.3345,0,0,0,.583-.2979,1.5084,1.5084,0,0,0,.3779-.6909,4.67,4.67,0,0,0,.1465-1.311,4.2766,4.2766,0,0,0-.1465-1.2745,1.6373,1.6373,0,0,0-.41-.6933,1.3754,1.3754,0,0,0-.668-.3369,6.5789,6.5789,0,0,0-1.1875-.0684Z"/>
         <path class="cls-51"
               d="M32.4838,128.9362l1.4.4444a3.1474,3.1474,0,0,1-1.0713,1.7407,3.3719,3.3719,0,0,1-4.2451-.4053,3.7256,3.7256,0,0,1-.918-2.6635,3.9123,3.9123,0,0,1,.9219-2.7759,3.1659,3.1659,0,0,1,2.4277-.9888,2.9758,2.9758,0,0,1,2.1328.7764,2.8133,2.8133,0,0,1,.7324,1.3183l-1.43.3418a1.48,1.48,0,0,0-1.51-1.2011,1.6278,1.6278,0,0,0-1.291.5712,2.8019,2.8019,0,0,0-.4961,1.8506,3.0051,3.0051,0,0,0,.4883,1.9336,1.5862,1.5862,0,0,0,1.27.5762,1.45,1.45,0,0,0,.9922-.3662A2.1343,2.1343,0,0,0,32.4838,128.9362Z"/>
         <path class="cls-51" d="M37.8588,131.5681V124.41h1.4453v7.1582Z"/>
         <path class="cls-51"
               d="M40.6967,131.5681V124.41h1.4062l2.93,4.78v-4.78h1.3418v7.1582H44.9252L42.0385,126.9v4.668Z"/>
         <path class="cls-51"
               d="M47.9037,131.5681V124.41h2.3184a8.3942,8.3942,0,0,1,1.7187.1074,1.88,1.88,0,0,1,1.0313.7007,2.2238,2.2238,0,0,1,.414,1.394,2.34,2.34,0,0,1-.2382,1.1084,1.9787,1.9787,0,0,1-.6084.7056,2.0845,2.0845,0,0,1-.7491.3393,8.2625,8.2625,0,0,1-1.5.1026H49.349v2.7Zm1.4453-5.9473v2.0313h.791a3.7459,3.7459,0,0,0,1.1426-.1123.951.951,0,0,0,.4512-.3516.9607.9607,0,0,0,.1641-.5566.9247.9247,0,0,0-.23-.6446.9954.9954,0,0,0-.58-.3174,6.94,6.94,0,0,0-1.041-.0488Z"/>
         <path class="cls-51"
               d="M54.5639,124.41h1.4453v3.8769a8.1975,8.1975,0,0,0,.0527,1.1963,1.16,1.16,0,0,0,.4424.7056,1.5413,1.5413,0,0,0,.9541.2661,1.4566,1.4566,0,0,0,.9277-.2515.9946.9946,0,0,0,.377-.6176,8.1328,8.1328,0,0,0,.0625-1.2159v-3.96h1.4453v3.76a9.6638,9.6638,0,0,1-.1172,1.8213,2.0151,2.0151,0,0,1-.4316.8985,2.1853,2.1853,0,0,1-.8418.5835,3.6617,3.6617,0,0,1-1.377.2172,3.9679,3.9679,0,0,1-1.5556-.2368,2.224,2.224,0,0,1-.837-.6152,1.9789,1.9789,0,0,1-.4062-.7935,8.7487,8.7487,0,0,1-.1406-1.8164Z"/>
         <path class="cls-51"
               d="M63.4057,131.5681v-5.9473H61.2826V124.41H66.97v1.2109H64.851v5.9473Z"/>
         <path class="cls-51"
               d="M25.4037,143.5681V136.41h2.3184a8.3942,8.3942,0,0,1,1.7187.1074,1.88,1.88,0,0,1,1.0313.7007,2.2238,2.2238,0,0,1,.414,1.394,2.34,2.34,0,0,1-.2382,1.1084,1.9787,1.9787,0,0,1-.6084.7056,2.0845,2.0845,0,0,1-.7491.3393,8.2625,8.2625,0,0,1-1.5.1026H26.849v2.7Zm1.4453-5.9473v2.0313h.791a3.7459,3.7459,0,0,0,1.1426-.1123.951.951,0,0,0,.4512-.3516.9607.9607,0,0,0,.1641-.5566.9247.9247,0,0,0-.23-.6446.9954.9954,0,0,0-.58-.3174,6.94,6.94,0,0,0-1.041-.0488Z"/>
         <path class="cls-51"
               d="M31.7807,140.0329a4.56,4.56,0,0,1,.3261-1.8359,3.3609,3.3609,0,0,1,.667-.9815,2.8012,2.8012,0,0,1,.9248-.6445,3.93,3.93,0,0,1,1.543-.2832,3.3633,3.3633,0,0,1,2.5322.9814,4.3834,4.3834,0,0,1,.0069,5.4419,3.3333,3.3333,0,0,1-2.52.979,3.37,3.37,0,0,1-2.539-.9741A3.6975,3.6975,0,0,1,31.7807,140.0329Zm1.4882-.0488a2.68,2.68,0,0,0,.5625,1.8433,1.93,1.93,0,0,0,2.8438.0048,2.7373,2.7373,0,0,0,.5547-1.8676,2.6883,2.6883,0,0,0-.54-1.836,2,2,0,0,0-2.874.0073A2.7067,2.7067,0,0,0,33.2689,139.9841Z"/>
         <path class="cls-51"
               d="M40.8666,143.5681l-1.709-7.1582h1.48l1.0781,4.917,1.3086-4.917h1.7188l1.2558,5,1.0977-5h1.455l-1.7382,7.1582H45.2807l-1.4258-5.3516-1.42,5.3516Z"/>
         <path class="cls-51"
               d="M49.29,143.5681V136.41h5.3067v1.2109H50.7357v1.5869H54.33v1.2061H50.7357v1.9482h3.9981v1.2061Z"/>
         <path class="cls-51"
               d="M55.9643,143.5681V136.41h3.0429a5.21,5.21,0,0,1,1.667.1928,1.6492,1.6492,0,0,1,.833.6861,2.0641,2.0641,0,0,1,.3125,1.1279,1.9089,1.9089,0,0,1-.4746,1.3306,2.2719,2.2719,0,0,1-1.416.6616,3.3785,3.3785,0,0,1,.7744.6006,8.1587,8.1587,0,0,1,.8233,1.1621l.873,1.3965H60.6713l-1.0449-1.5576a10.101,10.101,0,0,0-.7618-1.0523,1.109,1.109,0,0,0-.4335-.2978,2.3918,2.3918,0,0,0-.7286-.0806H57.41v2.9883Zm1.4453-4.1309h1.07a5.5231,5.5231,0,0,0,1.2988-.0879.7789.7789,0,0,0,.4043-.3027.9315.9315,0,0,0,.1465-.5371.8615.8615,0,0,0-.1924-.5835.8828.8828,0,0,0-.5439-.2808q-.1758-.0241-1.0547-.0244H57.41Z"/>
      </g>
      <g>
         <path class="cls-51"
               d="M20.6771,292.2341h2.6407a5.16,5.16,0,0,1,1.3633.1367,2.3842,2.3842,0,0,1,1.0781.6592,3.1231,3.1231,0,0,1,.6836,1.16,5.2852,5.2852,0,0,1,.2343,1.6919,4.7044,4.7044,0,0,1-.2187,1.5234,3.1623,3.1623,0,0,1-.7676,1.2646,2.5327,2.5327,0,0,1-1.0156.5713,4.3618,4.3618,0,0,1-1.2793.1514H20.6771Zm1.4454,1.2109v4.7412h1.0781a3.96,3.96,0,0,0,.875-.0683,1.3335,1.3335,0,0,0,.583-.2979,1.5084,1.5084,0,0,0,.3779-.6909,4.67,4.67,0,0,0,.1465-1.311,4.2759,4.2759,0,0,0-.1465-1.2744,1.6371,1.6371,0,0,0-.41-.6934,1.3754,1.3754,0,0,0-.668-.3369,6.5789,6.5789,0,0,0-1.1875-.0684Z"/>
         <path class="cls-51"
               d="M32.4838,296.7605l1.4.4443a3.1474,3.1474,0,0,1-1.0713,1.7407,3.3715,3.3715,0,0,1-4.2451-.4053,3.7256,3.7256,0,0,1-.918-2.6635,3.9125,3.9125,0,0,1,.9219-2.7759,3.1659,3.1659,0,0,1,2.4277-.9888,2.9758,2.9758,0,0,1,2.1328.7764,2.8133,2.8133,0,0,1,.7324,1.3183l-1.43.3418a1.48,1.48,0,0,0-1.51-1.2011,1.6276,1.6276,0,0,0-1.291.5713,2.8014,2.8014,0,0,0-.4961,1.8505,3.0049,3.0049,0,0,0,.4883,1.9336,1.5862,1.5862,0,0,0,1.27.5762,1.45,1.45,0,0,0,.9922-.3662A2.1339,2.1339,0,0,0,32.4838,296.7605Z"/>
         <path class="cls-51" d="M37.8588,299.3923v-7.1582h1.4453v7.1582Z"/>
         <path class="cls-51"
               d="M40.6967,299.3923v-7.1582h1.4062l2.93,4.78v-4.78h1.3418v7.1582H44.9252l-2.8867-4.668v4.668Z"/>
         <path class="cls-51"
               d="M47.9037,299.3923v-7.1582h2.3184a8.3942,8.3942,0,0,1,1.7187.1074,1.88,1.88,0,0,1,1.0313.7007,2.224,2.224,0,0,1,.414,1.394,2.34,2.34,0,0,1-.2382,1.1084,1.9779,1.9779,0,0,1-.6084.7056,2.0865,2.0865,0,0,1-.7491.3394,8.2734,8.2734,0,0,1-1.5.1025H49.349v2.7Zm1.4453-5.9473v2.0313h.791a3.7459,3.7459,0,0,0,1.1426-.1123.95.95,0,0,0,.4512-.3516.9607.9607,0,0,0,.1641-.5566.9247.9247,0,0,0-.23-.6446.9947.9947,0,0,0-.58-.3173,6.9208,6.9208,0,0,0-1.041-.0489Z"/>
         <path class="cls-51"
               d="M54.5639,292.2341h1.4453v3.8769a8.1975,8.1975,0,0,0,.0527,1.1963,1.1593,1.1593,0,0,0,.4424.7056,1.5413,1.5413,0,0,0,.9541.2661,1.4566,1.4566,0,0,0,.9277-.2515.9944.9944,0,0,0,.377-.6176,8.1313,8.1313,0,0,0,.0625-1.2158v-3.96h1.4453v3.76a9.6626,9.6626,0,0,1-.1172,1.8212,2.0151,2.0151,0,0,1-.4316.8985,2.1842,2.1842,0,0,1-.8418.5835,3.6615,3.6615,0,0,1-1.377.2173,3.9657,3.9657,0,0,1-1.5556-.2369,2.223,2.223,0,0,1-.837-.6152,1.9792,1.9792,0,0,1-.4062-.7934,8.75,8.75,0,0,1-.1406-1.8164Z"/>
         <path class="cls-51"
               d="M63.4057,299.3923V293.445H61.2826v-1.2109H66.97v1.2109H64.851v5.9473Z"/>
         <path class="cls-51"
               d="M25.4037,311.3923v-7.1582h2.3184a8.3942,8.3942,0,0,1,1.7187.1074,1.88,1.88,0,0,1,1.0313.7007,2.224,2.224,0,0,1,.414,1.394,2.34,2.34,0,0,1-.2382,1.1084,1.9779,1.9779,0,0,1-.6084.7056,2.0865,2.0865,0,0,1-.7491.3394,8.2734,8.2734,0,0,1-1.5.1025H26.849v2.7Zm1.4453-5.9473v2.0313h.791a3.7459,3.7459,0,0,0,1.1426-.1123.95.95,0,0,0,.4512-.3516.9607.9607,0,0,0,.1641-.5566.9247.9247,0,0,0-.23-.6446.9947.9947,0,0,0-.58-.3173,6.9208,6.9208,0,0,0-1.041-.0489Z"/>
         <path class="cls-51"
               d="M31.7807,307.8571a4.56,4.56,0,0,1,.3261-1.8359,3.36,3.36,0,0,1,.667-.9814,2.8015,2.8015,0,0,1,.9248-.6446,3.9318,3.9318,0,0,1,1.543-.2832,3.363,3.363,0,0,1,2.5322.9815,4.3834,4.3834,0,0,1,.0069,5.4419,3.3337,3.3337,0,0,1-2.52.979,3.37,3.37,0,0,1-2.539-.9742A3.6975,3.6975,0,0,1,31.7807,307.8571Zm1.4882-.0488a2.6794,2.6794,0,0,0,.5625,1.8433,1.93,1.93,0,0,0,2.8438.0049,2.7376,2.7376,0,0,0,.5547-1.8677,2.6887,2.6887,0,0,0-.54-1.836,2,2,0,0,0-2.874.0074A2.7064,2.7064,0,0,0,33.2689,307.8083Z"/>
         <path class="cls-51"
               d="M40.8666,311.3923l-1.709-7.1582h1.48l1.0781,4.917,1.3086-4.917h1.7188l1.2558,5,1.0977-5h1.455l-1.7382,7.1582H45.2807l-1.4258-5.3516-1.42,5.3516Z"/>
         <path class="cls-51"
               d="M49.29,311.3923v-7.1582h5.3067v1.2109H50.7357v1.5869H54.33v1.2061H50.7357v1.9482h3.9981v1.2061Z"/>
         <path class="cls-51"
               d="M55.9643,311.3923v-7.1582h3.0429a5.2067,5.2067,0,0,1,1.667.1929,1.6485,1.6485,0,0,1,.833.686,2.0641,2.0641,0,0,1,.3125,1.1279,1.9089,1.9089,0,0,1-.4746,1.3306,2.2719,2.2719,0,0,1-1.416.6616,3.3785,3.3785,0,0,1,.7744.6006,8.1647,8.1647,0,0,1,.8233,1.1621l.873,1.3965H60.6713l-1.0449-1.5576a10.1127,10.1127,0,0,0-.7618-1.0523,1.109,1.109,0,0,0-.4335-.2978,2.3918,2.3918,0,0,0-.7286-.0806H57.41v2.9883Zm1.4453-4.1309h1.07a5.5231,5.5231,0,0,0,1.2988-.0879.7784.7784,0,0,0,.4043-.3027.9315.9315,0,0,0,.1465-.5371.8616.8616,0,0,0-.1924-.5835.8833.8833,0,0,0-.5439-.2808q-.1758-.0242-1.0547-.0244H57.41Z"/>
      </g>
      <text class="cls-50" transform="translate(228.1412 13.2643)">MANUAL BYPASS<tspan x="23.894" y="12">SWITCH</tspan>
      </text>
      <text class="cls-50" transform="translate(228.1412 180.6696)">MANUAL BYPASS<tspan x="23.894" y="12">SWITCH</tspan>
      </text>
   </g>
</svg>
