<?xml version="1.0" encoding="UTF-8"?>
<svg xmlns="http://www.w3.org/2000/svg"
     xmlns:xlink="http://www.w3.org/1999/xlink"
     width="125mm"
     height="60mm"
     viewBox="0 0 354.3307 170.0787">
   <defs>
      <style>
      .cls-1, .cls-10, .cls-11, .cls-18, .cls-21, .cls-4, .cls-7, .cls-8 {
        fill: none;
      }

      .cls-2 {
        fill: #c6c6c6;
      }

      .cls-3 {
        clip-path: url(#clip-path);
      }

      .cls-10, .cls-11, .cls-18, .cls-21, .cls-4 {
        stroke: #000;
      }

      .cls-10, .cls-11, .cls-21, .cls-4, .cls-7, .cls-8 {
        stroke-miterlimit: 3;
      }

      .cls-18, .cls-4 {
        stroke-width: 0.75px;
      }

      .cls-5 {
        clip-path: url(#clip-path-3);
      }

      .cls-6 {
        clip-path: url(#clip-path-5);
      }

      .cls-7, .cls-8 {
        stroke: #626469;
      }

      .cls-10, .cls-7, .cls-8 {
        stroke-width: 0.5px;
      }

      .cls-7 {
        stroke-dasharray: 2 1;
      }

      .cls-23, .cls-9 {
        fill-rule: evenodd;
      }

      .cls-11 {
        stroke-width: 2px;
      }

      .cls-12 {
        fill: #626469;
      }

      .cls-13 {
        isolation: isolate;
      }

      .cls-14 {
        clip-path: url(#clip-path-7);
      }

      .cls-15 {
        font-size: 6px;
      }

      .cls-15, .cls-25, .cls-26, .cls-30 {
        fill: #01889C;
      }

      .cls-15, .cls-25, .cls-30 {
        font-family: Arial-BoldMT, Arial;
        font-weight: 700;
      }

      .cls-16 {
        clip-path: url(#clip-path-8);
      }

      .cls-17 {
        clip-path: url(#clip-path-9);
      }

      .cls-18 {
        stroke-miterlimit: 10;
      }

      .cls-19 {
        clip-path: url(#clip-path-10);
      }

      .cls-20, .cls-23 {
        fill: #fff;
      }

      .cls-21 {
        stroke-width: 0.7087px;
      }

      .cls-22 {
        clip-path: url(#clip-path-13);
      }

      .cls-24 {
        clip-path: url(#clip-path-15);
      }

      .cls-25 {
        font-size: 10px;
      }

      .cls-27 {
        clip-path: url(#clip-path-17);
      }

      .cls-28 {
        clip-path: url(#clip-path-19);
      }

      .cls-29 {
        clip-path: url(#clip-path-22);
      }

      .cls-30 {
        font-size: 8px;
      }

      .cls-31 {
        clip-path: url(#clip-path-23);
      }

      .cls-32 {
        clip-path: url(#clip-path-25);
      }

      .cls-33 {
        clip-path: url(#clip-path-27);
      }
    </style>
      <clipPath id="clip-path">
         <rect class="cls-1"
               x="69.2386"
               y="22.42"
               width="16.63"
               height="16.2683"/>
      </clipPath>
      <clipPath id="clip-path-3">
         <rect class="cls-1"
               x="69.2386"
               y="140.2146"
               width="16.63"
               height="16.2683"/>
      </clipPath>
      <clipPath id="clip-path-5">
         <rect class="cls-1"
               x="229.9856"
               y="39.3429"
               width="76.0871"
               height="111.3019"/>
      </clipPath>
      <clipPath id="clip-path-7">
         <rect class="cls-1"
               x="243.1555"
               y="39.7479"
               width="24.6738"
               height="7.406"/>
      </clipPath>
      <clipPath id="clip-path-8">
         <rect class="cls-1"
               x="252.4953"
               y="45.7479"
               width="15.334"
               height="7.4061"/>
      </clipPath>
      <clipPath id="clip-path-9">
         <rect class="cls-1"
               x="250.8312"
               y="51.7472"
               width="16.9981"
               height="7.4063"/>
      </clipPath>
      <clipPath id="clip-path-10">
         <rect class="cls-1"
               x="109.4527"
               y="128.5108"
               width="35.4339"
               height="39.686"/>
      </clipPath>
      <clipPath id="clip-path-13">
         <rect class="cls-1"
               x="40.4685"
               y="145.3011"
               width="6.125"
               height="6.125"/>
      </clipPath>
      <clipPath id="clip-path-15">
         <rect class="cls-1"
               x="40.4685"
               y="27.4917"
               width="6.125"
               height="6.125"/>
      </clipPath>
      <clipPath id="clip-path-17">
         <rect class="cls-1"
               x="318.5139"
               y="136.93"
               width="6.125"
               height="6.125"/>
      </clipPath>
      <clipPath id="clip-path-19">
         <rect class="cls-1"
               x="176.1409"
               y="88.362"
               width="46.833"
               height="32"/>
      </clipPath>
      <clipPath id="clip-path-22">
         <rect class="cls-1"
               x="207.8508"
               y="112.2102"
               width="11.1133"
               height="9.875"/>
      </clipPath>
      <clipPath id="clip-path-23">
         <rect class="cls-1"
               x="230.2914"
               y="146.0628"
               width="4.5709"
               height="4.5819"/>
      </clipPath>
      <clipPath id="clip-path-25">
         <rect class="cls-1"
               x="176.1409"
               y="132.3538"
               width="46.833"
               height="32"/>
      </clipPath>
      <clipPath id="clip-path-27">
         <rect class="cls-1"
               x="207.8508"
               y="156.2019"
               width="11.1133"
               height="9.875"/>
      </clipPath>
   </defs>
   <g id="Paths">
      <g>
         <polygon class="cls-2"
                  points="65.29 27.835 68.658 27.835 65.036 32.371 61.669 32.371 65.29 27.835"/>
         <polygon class="cls-2"
                  points="56.913 27.835 60.281 27.835 56.659 32.371 53.291 32.371 56.913 27.835"/>
         <polygon class="cls-2"
                  points="48.536 27.835 51.904 27.835 48.282 32.371 44.914 32.371 48.536 27.835"/>
      </g>
      <g>
         <polygon class="cls-2"
                  points="48.52 150.171 45.152 150.171 48.774 145.634 52.142 145.634 48.52 150.171"/>
         <polygon class="cls-2"
                  points="56.661 150.171 53.294 150.171 56.916 145.634 60.283 145.634 56.661 150.171"/>
         <polygon class="cls-2"
                  points="64.802 150.171 61.435 150.171 65.057 145.634 68.424 145.634 64.802 150.171"/>
      </g>
   </g>
   <g id="Diagram">
      <g id="Artwork_20_no_white" data-name="Artwork 20 no white">
         <g class="cls-3">
            <g class="cls-3">
               <line class="cls-4"
                     x1="70.2387"
                     y1="37.3315"
                     x2="84.8687"
                     y2="30.5655"/>
               <path d="M84.8686,31.57h0a1,1,0,1,1,1-1,1.0029,1.0029,0,0,1-1,1"/>
               <path d="M70.2387,31.57h0a1,1,0,1,1,1-1,1.0029,1.0029,0,0,1-1,1"/>
            </g>
         </g>
      </g>
      <g id="Artwork_20_no_white-2" data-name="Artwork 20 no white">
         <g class="cls-5">
            <g class="cls-5">
               <line class="cls-4"
                     x1="70.2387"
                     y1="155.1261"
                     x2="84.8687"
                     y2="148.3601"/>
               <path d="M84.8686,149.3644h0a1,1,0,1,1,1-1,1.0029,1.0029,0,0,1-1,1"/>
               <path d="M70.2387,149.3644h0a1,1,0,1,1,1-1,1.0029,1.0029,0,0,1-1,1"/>
            </g>
         </g>
      </g>
      <g id="Auto">
         <g class="cls-6">
            <line class="cls-7"
                  x1="275.1485"
                  y1="143.5582"
                  x2="275.1485"
                  y2="45.0303"/>
            <line class="cls-4"
                  x1="244.0832"
                  y1="103.8946"
                  x2="260.7322"
                  y2="103.8946"/>
            <polyline class="cls-4"
                      points="260.732 79.895 244.083 79.895 244.083 71.895 260.732 71.895"/>
            <line class="cls-2"
                  x1="268.1222"
                  y1="55.3097"
                  x2="281.6832"
                  y2="48.4567"/>
            <line class="cls-8"
                  x1="268.1222"
                  y1="55.3097"
                  x2="281.6832"
                  y2="48.4567"/>
            <polyline class="cls-4"
                      points="267.634 119.895 281.536 111.895 291.658 111.895 291.658 139.871 281.536 139.871 267.634 147.895"/>
            <polyline class="cls-4"
                      points="267.634 79.895 281.536 71.895 291.658 71.895 291.658 91.895 244.083 91.895 244.083 111.895 260.732 111.895"/>
            <g class="cls-6">
               <path class="cls-9" d="M244.0832,70.8947a1,1,0,1,1-1,1,1,1,0,0,1,1-1"/>
               <circle class="cls-10" cx="244.0832" cy="71.8947" r="1"/>
               <path class="cls-9" d="M291.6588,70.8947a1,1,0,1,1-1,1,1,1,0,0,1,1-1"/>
               <circle class="cls-10" cx="291.6588" cy="71.8947" r="1"/>
               <path class="cls-9" d="M244.0832,102.8946a1,1,0,1,1-1,1,1,1,0,0,1,1-1"/>
               <circle class="cls-10" cx="244.0832" cy="103.8946" r="1"/>
               <path class="cls-9" d="M291.6554,138.8951a1,1,0,1,1-1,1,1,1,0,0,1,1-1"/>
               <circle class="cls-10" cx="291.6554" cy="139.8951" r="1"/>
               <line class="cls-11"
                     x1="253.6345"
                     y1="139.8951"
                     x2="267.8294"
                     y2="139.8951"/>
               <line class="cls-11"
                     x1="253.6345"
                     y1="131.8951"
                     x2="267.8294"
                     y2="131.8951"/>
               <line class="cls-11"
                     x1="253.6345"
                     y1="147.8951"
                     x2="267.8294"
                     y2="147.8951"/>
               <line class="cls-11"
                     x1="253.6345"
                     y1="111.8946"
                     x2="267.8294"
                     y2="111.8946"/>
               <line class="cls-11"
                     x1="253.6345"
                     y1="103.8946"
                     x2="267.8294"
                     y2="103.8946"/>
               <line class="cls-11"
                     x1="253.6345"
                     y1="119.8946"
                     x2="267.8294"
                     y2="119.8946"/>
               <line class="cls-11"
                     x1="253.6345"
                     y1="71.8947"
                     x2="267.8294"
                     y2="71.8947"/>
               <line class="cls-11"
                     x1="253.6345"
                     y1="63.8947"
                     x2="267.8294"
                     y2="63.8947"/>
               <line class="cls-11"
                     x1="253.6345"
                     y1="79.8947"
                     x2="267.8294"
                     y2="79.8947"/>
               <line class="cls-7"
                     x1="268.1222"
                     y1="48.4572"
                     x2="281.6832"
                     y2="48.4572"/>
               <line class="cls-12"
                     x1="268.1222"
                     y1="41.6042"
                     x2="281.6832"
                     y2="48.4572"/>
               <line class="cls-7"
                     x1="268.1222"
                     y1="41.6042"
                     x2="281.6832"
                     y2="48.4572"/>
               <g class="cls-13">
                  <g class="cls-14">
                     <text class="cls-15" transform="translate(243.1555 44.895)">BYPASS</text>
                  </g>
               </g>
               <g class="cls-13">
                  <g class="cls-16">
                     <text class="cls-15" transform="translate(252.4953 50.895)">TEST</text>
                  </g>
               </g>
               <g class="cls-13">
                  <g class="cls-17">
                     <text class="cls-15" transform="translate(250.8312 56.895)">AUTO</text>
                  </g>
               </g>
            </g>
         </g>
      </g>
      <polyline class="cls-18" points="84.712 30.554 291.67 30.792 291.67 71.994"/>
      <path class="cls-4" d="M255.0657,148.3636H84.7123"/>
      <polyline class="cls-18"
                points="232.578 148.364 232.578 104.362 150.383 104.362 150.383 57.386 244.087 57.386 244.087 71.994"/>
      <line class="cls-4"
            x1="292.4315"
            y1="140.0684"
            x2="321.5764"
            y2="140.0684"/>
      <path class="cls-4" d="M70.0457,148.3636H43.5309"/>
      <line class="cls-18"
            x1="43.5313"
            y1="30.5542"
            x2="70.0457"
            y2="30.5542"/>
      <g id="Inverter">
         <g class="cls-19">
            <rect class="cls-20"
                  x="110.1604"
                  y="131.3446"
                  width="34.0175"
                  height="34.0166"/>
            <g class="cls-19">
               <rect class="cls-21"
                     x="110.1604"
                     y="131.3446"
                     width="34.0166"
                     height="34.0166"/>
               <line class="cls-21"
                     x1="110.1633"
                     y1="165.3633"
                     x2="144.1789"
                     y2="131.3477"/>
            </g>
            <line class="cls-21"
                  x1="113.3495"
                  y1="137.7258"
                  x2="122.9129"
                  y2="137.7258"/>
            <line class="cls-21"
                  x1="115.6012"
                  y1="139.8518"
                  x2="113.3494"
                  y2="139.8518"/>
            <line class="cls-21"
                  x1="119.2566"
                  y1="139.8518"
                  x2="117.0058"
                  y2="139.8518"/>
            <line class="cls-21"
                  x1="122.9126"
                  y1="139.8518"
                  x2="120.6609"
                  y2="139.8518"/>
            <g class="cls-19">
               <path class="cls-21"
                     d="M132.4843,158.0385a2.1865,2.1865,0,0,1,2.1261-2.006c1.0413,0,1.87.53,2.126,2.006a2.138,2.138,0,0,0,2.126,2.0042,2.2988,2.2988,0,0,0,2.1261-2.0042"/>
            </g>
         </g>
      </g>
      <g id="Artwork_13" data-name="Artwork 13">
         <g class="cls-22">
            <g class="cls-22">
               <path class="cls-23"
                     d="M43.5309,146.364a2,2,0,1,1-2,2,2.0007,2.0007,0,0,1,2-2"/>
               <circle class="cls-4" cx="43.5309" cy="148.364" r="2"/>
            </g>
         </g>
      </g>
      <g id="Artwork_13-2" data-name="Artwork 13">
         <g class="cls-24">
            <g class="cls-24">
               <path class="cls-23"
                     d="M43.5309,28.5546a2,2,0,1,1-2,2,2.0007,2.0007,0,0,1,2-2"/>
               <circle class="cls-4" cx="43.5309" cy="30.5546" r="2"/>
            </g>
         </g>
      </g>
      <text class="cls-25" transform="translate(22.9829 11.394)">BYPASS<tspan x="4.4507" y="12">MAINS</tspan>
      </text>
      <text class="cls-25" transform="translate(101.9022 126.3643)">INVERTER</text>
      <g>
         <path class="cls-26"
               d="M20.6567,122.5388h2.6416a5.1682,5.1682,0,0,1,1.3623.1368,2.39,2.39,0,0,1,1.0791.6591,3.1335,3.1335,0,0,1,.6836,1.16,5.2824,5.2824,0,0,1,.2343,1.6914,4.6978,4.6978,0,0,1-.22,1.5234,3.154,3.154,0,0,1-.7666,1.2647,2.5408,2.5408,0,0,1-1.0156.5713,4.3528,4.3528,0,0,1-1.2793.1514h-2.72Zm1.4453,1.211v4.7412h1.0791a3.973,3.973,0,0,0,.874-.0684,1.3389,1.3389,0,0,0,.5835-.2978,1.5116,1.5116,0,0,0,.3784-.69,4.6741,4.6741,0,0,0,.1465-1.3116,4.2763,4.2763,0,0,0-.1465-1.2744,1.6336,1.6336,0,0,0-.41-.6933,1.3759,1.3759,0,0,0-.669-.337,6.5206,6.5206,0,0,0-1.1865-.0683Z"/>
         <path class="cls-26"
               d="M32.4633,127.0652l1.4014.4444a3.1484,3.1484,0,0,1-1.0718,1.7412,3.3729,3.3729,0,0,1-4.2456-.4063,3.7258,3.7258,0,0,1-.918-2.6631,3.9154,3.9154,0,0,1,.9229-2.7763,3.1676,3.1676,0,0,1,2.4267-.9883,2.9779,2.9779,0,0,1,2.1338.7763,2.8178,2.8178,0,0,1,.7324,1.3184l-1.4306.3418a1.4789,1.4789,0,0,0-1.5088-1.2012,1.6289,1.6289,0,0,0-1.2915.5713,2.8,2.8,0,0,0-.4956,1.8506,3,3,0,0,0,.4883,1.9336,1.5864,1.5864,0,0,0,1.27.5762,1.4479,1.4479,0,0,0,.9912-.3662A2.13,2.13,0,0,0,32.4633,127.0652Z"/>
         <path class="cls-26" d="M37.8393,129.6971v-7.1583h1.4453v7.1583Z"/>
         <path class="cls-26"
               d="M40.6762,129.6971v-7.1583h1.4062l2.93,4.78v-4.78h1.3428v7.1583h-1.45l-2.8857-4.668v4.668Z"/>
         <path class="cls-26"
               d="M47.8832,129.6971v-7.1583h2.3194a8.4331,8.4331,0,0,1,1.7187.1075,1.8781,1.8781,0,0,1,1.03.7,2.2226,2.2226,0,0,1,.415,1.3945,2.3354,2.3354,0,0,1-.2392,1.1084,1.9726,1.9726,0,0,1-.6079.706,2.1121,2.1121,0,0,1-.75.3389,8.2462,8.2462,0,0,1-1.499.1026h-.9424v2.7Zm1.4453-5.9473v2.0312H50.12a3.7576,3.7576,0,0,0,1.1425-.1123.9414.9414,0,0,0,.4517-.3515.9664.9664,0,0,0,.1636-.5567.9278.9278,0,0,0-.23-.6445.994.994,0,0,0-.5811-.3174,6.9941,6.9941,0,0,0-1.04-.0488Z"/>
         <path class="cls-26"
               d="M54.5434,122.5388h1.4453v3.877a8.0678,8.0678,0,0,0,.0537,1.1963,1.1563,1.1563,0,0,0,.4419.7051,1.5377,1.5377,0,0,0,.9546.2666,1.4609,1.4609,0,0,0,.9277-.251.9955.9955,0,0,0,.376-.6182,8.027,8.027,0,0,0,.0635-1.2158v-3.96h1.4453v3.76a9.6675,9.6675,0,0,1-.1172,1.8213,2.0123,2.0123,0,0,1-.4321.8984,2.1906,2.1906,0,0,1-.8423.584,3.67,3.67,0,0,1-1.377.2168,3.9775,3.9775,0,0,1-1.5551-.2363,2.2314,2.2314,0,0,1-.8374-.6152,1.9778,1.9778,0,0,1-.4053-.794,8.7,8.7,0,0,1-.1416-1.8164Z"/>
         <path class="cls-26"
               d="M63.3862,129.6971V123.75H61.2621v-1.211h5.6885v1.211H64.8315v5.9473Z"/>
         <path class="cls-26"
               d="M25.3832,141.6971v-7.1583h2.3194a8.4331,8.4331,0,0,1,1.7187.1075,1.8781,1.8781,0,0,1,1.03.7,2.2226,2.2226,0,0,1,.415,1.3945,2.3354,2.3354,0,0,1-.2392,1.1084,1.9726,1.9726,0,0,1-.6079.706,2.1121,2.1121,0,0,1-.75.3389,8.2462,8.2462,0,0,1-1.499.1026h-.9424v2.7Zm1.4453-5.9473v2.0312H27.62a3.7576,3.7576,0,0,0,1.1425-.1123.9414.9414,0,0,0,.4517-.3515.9664.9664,0,0,0,.1636-.5567.9278.9278,0,0,0-.23-.6445.994.994,0,0,0-.5811-.3174,6.9941,6.9941,0,0,0-1.04-.0488Z"/>
         <path class="cls-26"
               d="M31.76,138.1619a4.5506,4.5506,0,0,1,.3271-1.8359,3.3592,3.3592,0,0,1,.6665-.9815,2.8061,2.8061,0,0,1,.9253-.6445,3.9176,3.9176,0,0,1,1.543-.2832,3.361,3.361,0,0,1,2.5317.9814,4.3868,4.3868,0,0,1,.0074,5.4424,3.7637,3.7637,0,0,1-5.0586.0039A3.6924,3.6924,0,0,1,31.76,138.1619Zm1.4892-.0488a2.6793,2.6793,0,0,0,.5616,1.8427,1.93,1.93,0,0,0,2.8442.0059,2.738,2.738,0,0,0,.5542-1.8682,2.69,2.69,0,0,0-.54-1.8359,2,2,0,0,0-2.8735.0068A2.7071,2.7071,0,0,0,33.2494,138.1131Z"/>
         <path class="cls-26"
               d="M40.8471,141.6971l-1.709-7.1583h1.48l1.0791,4.917,1.3086-4.917H44.724l1.2549,5,1.0987-5h1.455l-1.7382,7.1583H45.2612l-1.4258-5.3516-1.4209,5.3516Z"/>
         <path class="cls-26"
               d="M49.27,141.6971v-7.1583h5.3077v1.211H50.7153v1.5869H54.309v1.2061H50.7153v1.9482h3.999v1.2061Z"/>
         <path class="cls-26"
               d="M55.9448,141.6971v-7.1583h3.0419a5.2287,5.2287,0,0,1,1.6675.1924,1.6466,1.6466,0,0,1,.8325.6866,2.06,2.06,0,0,1,.3125,1.1279,1.9085,1.9085,0,0,1-.4736,1.33,2.2753,2.2753,0,0,1-1.416.6621,3.3642,3.3642,0,0,1,.7739.6006,8.13,8.13,0,0,1,.8228,1.1621l.874,1.3965H60.6518l-1.0449-1.5577a10.1941,10.1941,0,0,0-.7618-1.0527,1.1014,1.1014,0,0,0-.4345-.2969,2.348,2.348,0,0,0-.7276-.081H57.39v2.9883Zm1.4453-4.1309h1.0693a5.52,5.52,0,0,0,1.2988-.0879.7777.7777,0,0,0,.4053-.3027.9326.9326,0,0,0,.1465-.5371.8563.8563,0,0,0-.1929-.5831.8836.8836,0,0,0-.5444-.2812c-.1172-.0156-.4688-.0244-1.0547-.0244H57.39Z"/>
      </g>
      <g id="Artwork_13-3" data-name="Artwork 13">
         <g class="cls-27">
            <g class="cls-27">
               <path class="cls-23"
                     d="M321.5763,137.9929a2,2,0,1,1-2,2,2.0007,2.0007,0,0,1,2-2"/>
               <circle class="cls-4" cx="321.5763" cy="139.9929" r="2"/>
            </g>
         </g>
      </g>
      <g id="Artwork_11" data-name="Artwork 11">
         <g class="cls-28">
            <rect class="cls-20"
                  x="177.5118"
                  y="89.651"
                  width="29.339"
                  height="29.423"/>
            <g class="cls-28">
               <rect class="cls-4"
                     x="177.5118"
                     y="89.651"
                     width="29.339"
                     height="29.423"/>
               <line class="cls-18"
                     x1="177.5121"
                     y1="104.3625"
                     x2="206.851"
                     y2="104.3625"/>
            </g>
            <rect class="cls-20"
                  x="184.8418"
                  y="96.7779"
                  width="15.128"
                  height="15.171"/>
            <rect class="cls-4"
                  x="184.8418"
                  y="96.7779"
                  width="15.128"
                  height="15.171"/>
            <line class="cls-4"
                  x1="189.8098"
                  y1="115.6281"
                  x2="189.8098"
                  y2="108.2681"/>
            <line class="cls-4"
                  x1="192.7522"
                  y1="115.6281"
                  x2="192.7412"
                  y2="113.2861"/>
            <path d="M196.0071,109.4838v4.929l-4.909-2.464Zm.75-1.216-7.33,3.681,7.33,3.679Z"/>
            <line class="cls-4"
                  x1="195.468"
                  y1="93.1506"
                  x2="195.468"
                  y2="100.5106"/>
            <line class="cls-4"
                  x1="192.179"
                  y1="93.0998"
                  x2="192.179"
                  y2="95.1128"/>
            <path d="M189.2639,94.3119l4.909,2.464-4.909,2.465Zm-.75-1.216v7.36l7.33-3.68Z"/>
            <g class="cls-28">
               <path class="cls-9"
                     d="M184.842,103.3615a1,1,0,1,1-.997,1,.9984.9984,0,0,1,.997-1"/>
               <circle class="cls-4" cx="184.842" cy="104.3615" r="0.997"/>
               <path class="cls-9"
                     d="M199.97,103.3625a1,1,0,1,1-.997,1,.9984.9984,0,0,1,.997-1"/>
               <circle class="cls-4" cx="199.97" cy="104.3625" r="0.997"/>
               <g class="cls-13">
                  <g class="cls-29">
                     <text class="cls-30" transform="translate(207.8502 119.0734)">EN</text>
                  </g>
               </g>
            </g>
         </g>
      </g>
      <g id="shape116-109">
         <g class="cls-31">
            <g class="cls-31">
               <path class="cls-9"
                     d="M232.5765,147.3505a1.003,1.003,0,1,1-1,1.003,1.001,1.001,0,0,1,1-1.003"/>
               <circle class="cls-10" cx="232.5765" cy="148.3535" r="1"/>
            </g>
         </g>
      </g>
      <g id="Artwork_12" data-name="Artwork 12">
         <g class="cls-32">
            <g class="cls-32">
               <g class="cls-13">
                  <g class="cls-33">
                     <text class="cls-30" transform="translate(207.8502 163.0643)">EA</text>
                  </g>
               </g>
            </g>
            <rect class="cls-20"
                  x="177.5118"
                  y="133.6418"
                  width="29.339"
                  height="29.423"/>
            <g class="cls-32">
               <rect class="cls-4"
                     x="177.5118"
                     y="133.6418"
                     width="29.339"
                     height="29.423"/>
               <line class="cls-18"
                     x1="177.5121"
                     y1="148.3543"
                     x2="206.851"
                     y2="148.3543"/>
            </g>
            <rect class="cls-20"
                  x="184.8418"
                  y="140.7698"
                  width="15.128"
                  height="15.171"/>
            <rect class="cls-4"
                  x="184.8418"
                  y="140.7698"
                  width="15.128"
                  height="15.171"/>
            <line class="cls-4"
                  x1="189.8098"
                  y1="159.6199"
                  x2="189.8098"
                  y2="152.2599"/>
            <line class="cls-4"
                  x1="192.7522"
                  y1="159.6199"
                  x2="192.7412"
                  y2="157.2779"/>
            <path d="M196.0071,153.4756v4.929l-4.909-2.464Zm.75-1.216-7.33,3.681,7.33,3.679Z"/>
            <line class="cls-4"
                  x1="195.468"
                  y1="137.1424"
                  x2="195.468"
                  y2="144.5024"/>
            <line class="cls-4"
                  x1="192.179"
                  y1="137.0911"
                  x2="192.179"
                  y2="139.1041"/>
            <path d="M189.2639,138.3037l4.909,2.464-4.909,2.465Zm-.75-1.216v7.36l7.33-3.68Z"/>
            <g class="cls-32">
               <path class="cls-9"
                     d="M184.842,147.3543a1,1,0,1,1-.997,1,.9978.9978,0,0,1,.997-1"/>
               <circle class="cls-4" cx="184.842" cy="148.3543" r="0.997"/>
               <path class="cls-9"
                     d="M199.97,147.3543a1,1,0,1,1-.997,1,.9984.9984,0,0,1,.997-1"/>
               <circle class="cls-4" cx="199.97" cy="148.3543" r="0.997"/>
            </g>
         </g>
      </g>
      <text class="cls-25" transform="translate(174.5925 72.4134)">STATIC<tspan x="-8.335" y="12">SWITCHES</tspan>
      </text>
      <text class="cls-25" transform="translate(303.0694 133.9743)">OUTPUT</text>
      <text class="cls-25" transform="translate(224.4293 11.3937)">MANUAL BYPASS<tspan x="23.894" y="12">SWITCH</tspan>
      </text>
   </g>
</svg>
