<?xml version="1.0" encoding="UTF-8"?>
<svg xmlns="http://www.w3.org/2000/svg"
     xmlns:xlink="http://www.w3.org/1999/xlink"
     width="125mm"
     height="60mm"
     viewBox="0 0 354.3307 170.0787">
   <defs>
      <style>
      .cls-1, .cls-11, .cls-12, .cls-19, .cls-22, .cls-3, .cls-5, .cls-8, .cls-9 {
        fill: none;
      }

      .cls-2 {
        fill: #c6c6c6;
      }

      .cls-3 {
        stroke: #c6c6c6;
        stroke-width: 5px;
      }

      .cls-11, .cls-12, .cls-22, .cls-3, .cls-5, .cls-8, .cls-9 {
        stroke-miterlimit: 3;
      }

      .cls-4 {
        clip-path: url(#clip-path);
      }

      .cls-11, .cls-12, .cls-19, .cls-22, .cls-5 {
        stroke: #000;
      }

      .cls-19, .cls-5 {
        stroke-width: 0.75px;
      }

      .cls-6 {
        clip-path: url(#clip-path-3);
      }

      .cls-7 {
        clip-path: url(#clip-path-5);
      }

      .cls-8, .cls-9 {
        stroke: #626469;
      }

      .cls-11, .cls-8, .cls-9 {
        stroke-width: 0.5px;
      }

      .cls-8 {
        stroke-dasharray: 2 1;
      }

      .cls-10, .cls-24 {
        fill-rule: evenodd;
      }

      .cls-12 {
        stroke-width: 2px;
      }

      .cls-13 {
        fill: #626469;
      }

      .cls-14 {
        isolation: isolate;
      }

      .cls-15 {
        clip-path: url(#clip-path-7);
      }

      .cls-16 {
        font-size: 6px;
      }

      .cls-16, .cls-26, .cls-27, .cls-31 {
        fill: #01889C;
      }

      .cls-16, .cls-26, .cls-31 {
        font-family: Arial-BoldMT, Arial;
        font-weight: 700;
      }

      .cls-17 {
        clip-path: url(#clip-path-8);
      }

      .cls-18 {
        clip-path: url(#clip-path-9);
      }

      .cls-19 {
        stroke-miterlimit: 10;
      }

      .cls-20 {
        clip-path: url(#clip-path-10);
      }

      .cls-21, .cls-24 {
        fill: #fff;
      }

      .cls-22 {
        stroke-width: 0.7087px;
      }

      .cls-23 {
        clip-path: url(#clip-path-13);
      }

      .cls-25 {
        clip-path: url(#clip-path-15);
      }

      .cls-26 {
        font-size: 10px;
      }

      .cls-28 {
        clip-path: url(#clip-path-17);
      }

      .cls-29 {
        clip-path: url(#clip-path-19);
      }

      .cls-30 {
        clip-path: url(#clip-path-22);
      }

      .cls-31 {
        font-size: 8px;
      }

      .cls-32 {
        clip-path: url(#clip-path-23);
      }

      .cls-33 {
        clip-path: url(#clip-path-25);
      }

      .cls-34 {
        clip-path: url(#clip-path-27);
      }
    </style>
      <clipPath id="clip-path">
         <rect class="cls-1"
               x="69.2385"
               y="21.9805"
               width="16.63"
               height="16.2683"/>
      </clipPath>
      <clipPath id="clip-path-3">
         <rect class="cls-1"
               x="69.2385"
               y="139.7751"
               width="16.63"
               height="16.2683"/>
      </clipPath>
      <clipPath id="clip-path-5">
         <rect class="cls-1"
               x="229.9855"
               y="38.9034"
               width="76.0871"
               height="111.3019"/>
      </clipPath>
      <clipPath id="clip-path-7">
         <rect class="cls-1"
               x="243.1554"
               y="39.3084"
               width="24.6738"
               height="7.406"/>
      </clipPath>
      <clipPath id="clip-path-8">
         <rect class="cls-1"
               x="252.4952"
               y="45.3084"
               width="15.334"
               height="7.4061"/>
      </clipPath>
      <clipPath id="clip-path-9">
         <rect class="cls-1"
               x="250.8311"
               y="51.3077"
               width="16.9981"
               height="7.4063"/>
      </clipPath>
      <clipPath id="clip-path-10">
         <rect class="cls-1"
               x="109.4526"
               y="128.0713"
               width="35.4339"
               height="39.686"/>
      </clipPath>
      <clipPath id="clip-path-13">
         <rect class="cls-1"
               x="40.4684"
               y="144.8616"
               width="6.125"
               height="6.125"/>
      </clipPath>
      <clipPath id="clip-path-15">
         <rect class="cls-1"
               x="40.4684"
               y="27.0522"
               width="6.125"
               height="6.125"/>
      </clipPath>
      <clipPath id="clip-path-17">
         <rect class="cls-1"
               x="318.5139"
               y="136.4905"
               width="6.125"
               height="6.125"/>
      </clipPath>
      <clipPath id="clip-path-19">
         <rect class="cls-1"
               x="176.1408"
               y="87.9225"
               width="46.833"
               height="32"/>
      </clipPath>
      <clipPath id="clip-path-22">
         <rect class="cls-1"
               x="207.8507"
               y="111.7707"
               width="11.1133"
               height="9.875"/>
      </clipPath>
      <clipPath id="clip-path-23">
         <rect class="cls-1"
               x="230.2913"
               y="145.6234"
               width="4.5709"
               height="4.5819"/>
      </clipPath>
      <clipPath id="clip-path-25">
         <rect class="cls-1"
               x="176.1408"
               y="131.9143"
               width="46.833"
               height="32"/>
      </clipPath>
      <clipPath id="clip-path-27">
         <rect class="cls-1"
               x="207.8507"
               y="155.7625"
               width="11.1133"
               height="9.875"/>
      </clipPath>
   </defs>
   <g id="Paths">
      <g>
         <polygon class="cls-2"
                  points="46.942 32.496 43.574 32.496 47.196 27.959 50.564 27.959 46.942 32.496"/>
         <polygon class="cls-2"
                  points="53.974 32.496 50.606 32.496 54.228 27.959 57.596 27.959 53.974 32.496"/>
         <polygon class="cls-2"
                  points="61.006 32.496 57.639 32.496 61.26 27.959 64.628 27.959 61.006 32.496"/>
         <polygon class="cls-2"
                  points="68.038 32.496 64.671 32.496 68.293 27.959 71.66 27.959 68.038 32.496"/>
         <polygon class="cls-2"
                  points="75.071 32.496 71.703 32.496 75.325 27.959 78.693 27.959 75.071 32.496"/>
         <polygon class="cls-2"
                  points="82.103 32.496 78.735 32.496 82.357 27.959 85.725 27.959 82.103 32.496"/>
         <polygon class="cls-2"
                  points="89.135 32.496 85.768 32.496 89.39 27.959 92.757 27.959 89.135 32.496"/>
         <polygon class="cls-2"
                  points="96.167 32.496 92.8 32.496 96.422 27.959 99.789 27.959 96.167 32.496"/>
         <polygon class="cls-2"
                  points="103.2 32.496 99.832 32.496 103.454 27.959 106.822 27.959 103.2 32.496"/>
         <polygon class="cls-2"
                  points="110.232 32.496 106.864 32.496 110.486 27.959 113.854 27.959 110.232 32.496"/>
         <polygon class="cls-2"
                  points="117.264 32.496 113.897 32.496 117.519 27.959 120.886 27.959 117.264 32.496"/>
         <polygon class="cls-2"
                  points="124.296 32.496 120.929 32.496 124.551 27.959 127.918 27.959 124.296 32.496"/>
         <polygon class="cls-2"
                  points="131.329 32.496 127.961 32.496 131.583 27.959 134.951 27.959 131.329 32.496"/>
         <polygon class="cls-2"
                  points="138.361 32.496 134.993 32.496 138.615 27.959 141.983 27.959 138.361 32.496"/>
         <polygon class="cls-2"
                  points="145.393 32.496 142.026 32.496 145.648 27.959 149.015 27.959 145.393 32.496"/>
         <polygon class="cls-2"
                  points="152.425 32.496 149.058 32.496 152.68 27.959 156.047 27.959 152.425 32.496"/>
         <polygon class="cls-2"
                  points="159.458 32.496 156.09 32.496 159.712 27.959 163.08 27.959 159.458 32.496"/>
         <polygon class="cls-2"
                  points="166.49 32.496 163.122 32.496 166.744 27.959 170.112 27.959 166.49 32.496"/>
         <polygon class="cls-2"
                  points="173.522 32.496 170.155 32.496 173.777 27.959 177.144 27.959 173.522 32.496"/>
         <polygon class="cls-2"
                  points="180.554 32.496 177.187 32.496 180.809 27.959 184.176 27.959 180.554 32.496"/>
         <polygon class="cls-2"
                  points="187.587 32.496 184.219 32.496 187.841 27.959 191.209 27.959 187.587 32.496"/>
         <polygon class="cls-2"
                  points="194.619 32.496 191.251 32.496 194.873 27.959 198.241 27.959 194.619 32.496"/>
         <polygon class="cls-2"
                  points="201.651 32.496 198.284 32.496 201.906 27.959 205.273 27.959 201.651 32.496"/>
         <polygon class="cls-2"
                  points="208.684 32.496 205.316 32.496 208.938 27.959 212.306 27.959 208.684 32.496"/>
         <polygon class="cls-2"
                  points="215.716 32.496 212.348 32.496 215.97 27.959 219.338 27.959 215.716 32.496"/>
         <polygon class="cls-2"
                  points="222.748 32.496 219.38 32.496 223.002 27.959 226.37 27.959 222.748 32.496"/>
         <polygon class="cls-2"
                  points="229.78 32.496 226.413 32.496 230.035 27.959 233.402 27.959 229.78 32.496"/>
         <polygon class="cls-2"
                  points="236.813 32.496 233.445 32.496 237.067 27.959 240.435 27.959 236.813 32.496"/>
         <polygon class="cls-2"
                  points="243.845 32.496 240.477 32.496 244.099 27.959 247.467 27.959 243.845 32.496"/>
         <polygon class="cls-2"
                  points="250.877 32.496 247.51 32.496 251.131 27.959 254.499 27.959 250.877 32.496"/>
         <polygon class="cls-2"
                  points="257.909 32.496 254.542 32.496 258.164 27.959 261.531 27.959 257.909 32.496"/>
         <polygon class="cls-2"
                  points="264.942 32.496 261.574 32.496 265.196 27.959 268.564 27.959 264.942 32.496"/>
         <polygon class="cls-2"
                  points="271.974 32.496 268.606 32.496 272.228 27.959 275.596 27.959 271.974 32.496"/>
         <polygon class="cls-2"
                  points="279.006 32.496 275.639 32.496 279.261 27.959 282.628 27.959 279.006 32.496"/>
         <polygon class="cls-2"
                  points="286.038 32.496 282.671 32.496 286.293 27.959 289.66 27.959 286.038 32.496"/>
         <polygon class="cls-2"
                  points="289.714 36.215 289.704 32.847 294.251 36.456 294.261 39.824 289.714 36.215"/>
         <polygon class="cls-2"
                  points="289.735 43.556 289.726 40.188 294.273 43.797 294.283 47.165 289.735 43.556"/>
         <polygon class="cls-2"
                  points="289.757 50.897 289.747 47.529 294.294 51.138 294.304 54.505 289.757 50.897"/>
         <polygon class="cls-2"
                  points="289.778 58.238 289.769 54.87 294.316 58.479 294.326 61.846 289.778 58.238"/>
         <polygon class="cls-2"
                  points="289.8 65.579 289.79 62.211 294.337 65.82 294.347 69.187 289.8 65.579"/>
         <path class="cls-2"
               d="M285.9665,69.4791l3.367.0639-3.7074,4.467-3.2695-.0621c.0054-.0471-.0146-.0948.0184-.1414l.1158-.14.2318-.2792.4634-.5584.9268-1.1168Z"/>
         <path class="cls-2"
               d="M277.7615,71.3939l3.3948-2.0062.1352.0026-.1128.0826a6.2534,6.2534,0,0,0-.9307,3.1355l-.3975,2.82-2.8992,1.7133Z"/>
         <polygon class="cls-2"
                  points="271.332 75.193 274.232 73.48 273.421 79.228 270.522 80.941 271.332 75.193"/>
         <path class="cls-2"
               d="M265.6854,77.3162H267.74l.0626-.037a.2616.2616,0,0,0,.04.2286,1.5091,1.5091,0,0,1,.0736.2086,1.832,1.832,0,0,1,.0615.4676c.0433.6115-.6229,1.2229-1.0816,1.8344l-1.4646,1.8343h-3.3675Z"/>
         <polygon class="cls-2"
                  points="258.218 77.316 261.585 77.316 257.963 81.853 254.596 81.853 258.218 77.316"/>
         <polygon class="cls-2"
                  points="250.75 77.316 254.118 77.316 250.496 81.853 247.128 81.853 250.75 77.316"/>
         <polygon class="cls-2"
                  points="246.65 72.612 246.65 75.98 242.113 72.358 242.113 68.99 246.65 72.612"/>
         <polygon class="cls-2"
                  points="246.65 64.286 246.65 67.653 242.113 64.032 242.113 60.664 246.65 64.286"/>
         <polygon class="cls-2"
                  points="238.317 54.791 241.684 54.791 238.062 59.327 234.695 59.327 238.317 54.791"/>
         <polygon class="cls-2"
                  points="230.899 54.791 234.266 54.791 230.644 59.327 227.277 59.327 230.899 54.791"/>
         <polygon class="cls-2"
                  points="223.48 54.791 226.848 54.791 223.226 59.327 219.858 59.327 223.48 54.791"/>
         <polygon class="cls-2"
                  points="216.062 54.791 219.43 54.791 215.808 59.327 212.44 59.327 216.062 54.791"/>
         <polygon class="cls-2"
                  points="208.644 54.791 212.011 54.791 208.389 59.327 205.022 59.327 208.644 54.791"/>
         <polygon class="cls-2"
                  points="201.226 54.791 204.593 54.791 200.971 59.327 197.604 59.327 201.226 54.791"/>
         <polygon class="cls-2"
                  points="193.807 54.791 197.175 54.791 193.553 59.327 190.185 59.327 193.807 54.791"/>
         <polygon class="cls-2"
                  points="186.389 54.791 189.757 54.791 186.135 59.327 182.767 59.327 186.389 54.791"/>
         <polygon class="cls-2"
                  points="178.971 54.791 182.338 54.791 178.716 59.327 175.349 59.327 178.971 54.791"/>
         <polygon class="cls-2"
                  points="171.552 54.791 174.92 54.791 171.298 59.327 167.931 59.327 171.552 54.791"/>
         <polygon class="cls-2"
                  points="164.134 54.791 167.502 54.791 163.88 59.327 160.512 59.327 164.134 54.791"/>
         <polygon class="cls-2"
                  points="156.716 54.791 160.084 54.791 156.462 59.327 153.094 59.327 156.716 54.791"/>
         <polygon class="cls-2"
                  points="148.15 62.795 148.129 59.427 152.688 63.021 152.709 66.389 148.15 62.795"/>
         <polygon class="cls-2"
                  points="148.193 69.856 148.173 66.489 152.731 70.082 152.752 73.45 148.193 69.856"/>
         <polygon class="cls-2"
                  points="148.237 76.917 148.216 73.55 152.775 77.144 152.796 80.511 148.237 76.917"/>
         <polygon class="cls-2"
                  points="148.28 83.979 148.26 80.611 152.818 84.205 152.839 87.573 148.28 83.979"/>
         <polygon class="cls-2"
                  points="148.324 91.04 148.303 87.672 152.862 91.266 152.883 94.634 148.324 91.04"/>
         <polygon class="cls-2"
                  points="148.367 98.101 148.347 94.734 152.905 98.328 152.926 101.695 148.367 98.101"/>
         <polygon class="cls-2"
                  points="156.36 106.304 152.993 106.304 156.615 101.767 159.982 101.767 156.36 106.304"/>
         <polygon class="cls-2"
                  points="163.416 106.304 160.049 106.304 163.671 101.767 167.038 101.767 163.416 106.304"/>
         <polygon class="cls-2"
                  points="170.472 106.304 167.104 106.304 170.726 101.767 174.094 101.767 170.472 106.304"/>
         <polygon class="cls-2"
                  points="177.528 106.304 174.16 106.304 177.782 101.767 181.15 101.767 177.528 106.304"/>
         <polygon class="cls-2"
                  points="184.584 106.304 181.216 106.304 184.838 101.767 188.206 101.767 184.584 106.304"/>
         <polygon class="cls-2"
                  points="191.639 106.304 188.272 106.304 191.894 101.767 195.261 101.767 191.639 106.304"/>
         <polygon class="cls-2"
                  points="198.695 106.304 195.328 106.304 198.95 101.767 202.317 101.767 198.695 106.304"/>
         <polygon class="cls-2"
                  points="205.751 106.304 202.383 106.304 206.005 101.767 209.373 101.767 205.751 106.304"/>
         <polygon class="cls-2"
                  points="212.807 106.304 209.439 106.304 213.061 101.767 216.429 101.767 212.807 106.304"/>
         <polygon class="cls-2"
                  points="219.863 106.304 216.495 106.304 220.117 101.767 223.485 101.767 219.863 106.304"/>
         <polygon class="cls-2"
                  points="226.918 106.304 223.551 106.304 227.173 101.767 230.54 101.767 226.918 106.304"/>
         <polygon class="cls-2"
                  points="230.61 109.705 230.607 106.337 235.147 109.954 235.151 113.322 230.61 109.705"/>
         <polygon class="cls-2"
                  points="230.618 116.728 230.614 113.36 235.155 116.977 235.159 120.345 230.618 116.728"/>
         <polygon class="cls-2"
                  points="230.626 123.751 230.622 120.384 235.163 124.001 235.166 127.368 230.626 123.751"/>
         <polygon class="cls-2"
                  points="230.633 130.774 230.63 127.407 235.17 131.024 235.174 134.391 230.633 130.774"/>
         <polygon class="cls-2"
                  points="230.641 137.797 230.637 134.43 235.178 138.047 235.182 141.414 230.641 137.797"/>
         <polygon class="cls-2"
                  points="230.649 144.821 230.645 141.453 235.186 145.07 235.189 148.438 230.649 144.821"/>
      </g>
      <g>
         <polyline class="cls-3"
                   points="43.531 148.033 267.698 147.269 281.746 139.454 328.159 139.703"/>
         <polygon class="cls-2"
                  points="326.674 144.682 335.336 139.742 326.727 134.709 326.674 144.682"/>
      </g>
      <g>
         <polygon class="cls-2"
                  points="289.79 76.38 289.811 73.012 294.325 76.662 294.305 80.03 289.79 76.38"/>
         <polygon class="cls-2"
                  points="289.74 84.532 289.761 81.164 294.275 84.814 294.254 88.182 289.74 84.532"/>
         <polygon class="cls-2"
                  points="286.192 89.316 289.559 89.316 285.937 93.853 282.57 93.853 286.192 89.316"/>
         <polygon class="cls-2"
                  points="279.051 89.316 282.418 89.316 278.797 93.853 275.429 93.853 279.051 89.316"/>
         <polygon class="cls-2"
                  points="271.91 89.316 275.278 89.316 271.656 93.853 268.288 93.853 271.91 89.316"/>
         <polygon class="cls-2"
                  points="264.769 89.316 268.137 89.316 264.515 93.853 261.147 93.853 264.769 89.316"/>
         <polygon class="cls-2"
                  points="257.629 89.316 260.996 89.316 257.374 93.853 254.007 93.853 257.629 89.316"/>
         <polygon class="cls-2"
                  points="250.488 89.316 253.855 89.316 250.234 93.853 246.866 93.853 250.488 89.316"/>
         <polygon class="cls-2"
                  points="242.164 97.76 242.176 94.392 246.7 98.031 246.687 101.398 242.164 97.76"/>
         <polygon class="cls-2"
                  points="242.137 105.305 242.149 101.938 246.672 105.576 246.66 108.944 242.137 105.305"/>
         <polygon class="cls-2"
                  points="250.882 114.036 247.514 114.036 251.136 109.5 254.504 109.5 250.882 114.036"/>
      </g>
      <polygon class="cls-2"
               points="249.353 105.769 245.986 105.769 249.608 101.233 252.975 101.233 249.353 105.769"/>
      <polygon class="cls-2"
               points="249.353 72.231 245.986 72.231 249.608 67.694 252.975 67.694 249.353 72.231"/>
      <g>
         <polygon class="cls-2"
                  points="272.96 119.276 270.045 120.963 270.909 115.222 273.824 113.536 272.96 119.276"/>
         <path class="cls-2"
               d="M279.5354,115.4723l-2.9149,1.6864.8633-5.74,3.1785-1.8389a3.2433,3.2433,0,0,0-.4794,1.5876l-.2158,1.4352Z"/>
         <path class="cls-2"
               d="M285.4679,113.8111H282.407c-.1554-.3781.34-.7561.5988-1.1342l.9055-1.1342,1.811-2.2682H289.09Z"/>
         <polygon class="cls-2"
                  points="289.696 118.4 289.696 115.033 294.233 118.655 294.233 122.022 289.696 118.4"/>
         <polygon class="cls-2"
                  points="289.696 126.611 289.696 123.244 294.233 126.866 294.233 130.233 289.696 126.611"/>
         <polygon class="cls-2"
                  points="289.696 134.822 289.696 131.455 294.233 135.077 294.233 138.444 289.696 134.822"/>
      </g>
   </g>
   <g id="Diagram">
      <g id="Artwork_20_no_white" data-name="Artwork 20 no white">
         <g class="cls-4">
            <g class="cls-4">
               <line class="cls-5"
                     x1="70.2386"
                     y1="36.892"
                     x2="84.8686"
                     y2="30.126"/>
               <path d="M84.8685,31.13h0a1,1,0,1,1,1-1,1.0029,1.0029,0,0,1-1,1"/>
               <path d="M70.2386,31.13h0a1,1,0,1,1,1-1,1.0029,1.0029,0,0,1-1,1"/>
            </g>
         </g>
      </g>
      <g id="Artwork_20_no_white-2" data-name="Artwork 20 no white">
         <g class="cls-6">
            <g class="cls-6">
               <line class="cls-5"
                     x1="70.2386"
                     y1="154.6866"
                     x2="84.8686"
                     y2="147.9206"/>
               <path d="M84.8685,148.9249h0a1,1,0,1,1,1-1,1.0029,1.0029,0,0,1-1,1"/>
               <path d="M70.2386,148.9249h0a1,1,0,1,1,1-1,1.0029,1.0029,0,0,1-1,1"/>
            </g>
         </g>
      </g>
      <g id="Auto">
         <g class="cls-7">
            <line class="cls-8"
                  x1="275.1485"
                  y1="143.1187"
                  x2="275.1485"
                  y2="44.5908"/>
            <line class="cls-5"
                  x1="244.0831"
                  y1="103.4551"
                  x2="260.7321"
                  y2="103.4551"/>
            <polyline class="cls-5"
                      points="260.732 79.455 244.083 79.455 244.083 71.455 260.732 71.455"/>
            <line class="cls-2"
                  x1="268.1222"
                  y1="54.8702"
                  x2="281.6831"
                  y2="48.0172"/>
            <line class="cls-9"
                  x1="268.1222"
                  y1="54.8702"
                  x2="281.6831"
                  y2="48.0172"/>
            <polyline class="cls-5"
                      points="267.634 119.455 281.536 111.455 291.658 111.455 291.658 139.431 281.536 139.431 267.634 147.455"/>
            <polyline class="cls-5"
                      points="267.634 79.455 281.536 71.455 291.658 71.455 291.658 91.455 244.083 91.455 244.083 111.455 260.732 111.455"/>
            <g class="cls-7">
               <path class="cls-10" d="M244.0831,70.4552a1,1,0,1,1-1,1,1,1,0,0,1,1-1"/>
               <circle class="cls-11" cx="244.0831" cy="71.4552" r="1"/>
               <path class="cls-10" d="M291.6587,70.4552a1,1,0,1,1-1,1,1,1,0,0,1,1-1"/>
               <circle class="cls-11" cx="291.6587" cy="71.4552" r="1"/>
               <path class="cls-10" d="M244.0831,102.4551a1,1,0,1,1-1,1,1,1,0,0,1,1-1"/>
               <circle class="cls-11" cx="244.0831" cy="103.4551" r="1"/>
               <path class="cls-10" d="M291.6553,138.4556a1,1,0,1,1-1,1,1,1,0,0,1,1-1"/>
               <circle class="cls-11" cx="291.6553" cy="139.4556" r="1"/>
               <line class="cls-12"
                     x1="253.6344"
                     y1="139.4556"
                     x2="267.8294"
                     y2="139.4556"/>
               <line class="cls-12"
                     x1="253.6344"
                     y1="131.4556"
                     x2="267.8294"
                     y2="131.4556"/>
               <line class="cls-12"
                     x1="253.6344"
                     y1="147.4556"
                     x2="267.8294"
                     y2="147.4556"/>
               <line class="cls-12"
                     x1="253.6344"
                     y1="111.4551"
                     x2="267.8294"
                     y2="111.4551"/>
               <line class="cls-12"
                     x1="253.6344"
                     y1="103.4551"
                     x2="267.8294"
                     y2="103.4551"/>
               <line class="cls-12"
                     x1="253.6344"
                     y1="119.4551"
                     x2="267.8294"
                     y2="119.4551"/>
               <line class="cls-12"
                     x1="253.6344"
                     y1="71.4552"
                     x2="267.8294"
                     y2="71.4552"/>
               <line class="cls-12"
                     x1="253.6344"
                     y1="63.4552"
                     x2="267.8294"
                     y2="63.4552"/>
               <line class="cls-12"
                     x1="253.6344"
                     y1="79.4552"
                     x2="267.8294"
                     y2="79.4552"/>
               <line class="cls-8"
                     x1="268.1222"
                     y1="48.0177"
                     x2="281.6831"
                     y2="48.0177"/>
               <line class="cls-13"
                     x1="268.1222"
                     y1="41.1647"
                     x2="281.6831"
                     y2="48.0177"/>
               <line class="cls-8"
                     x1="268.1222"
                     y1="41.1647"
                     x2="281.6831"
                     y2="48.0177"/>
               <g class="cls-14">
                  <g class="cls-15">
                     <text class="cls-16" transform="translate(243.1554 44.4555)">BYPASS</text>
                  </g>
               </g>
               <g class="cls-14">
                  <g class="cls-17">
                     <text class="cls-16" transform="translate(252.4952 50.4555)">TEST</text>
                  </g>
               </g>
               <g class="cls-14">
                  <g class="cls-18">
                     <text class="cls-16" transform="translate(250.8312 56.4555)">AUTO</text>
                  </g>
               </g>
            </g>
         </g>
      </g>
      <polyline class="cls-19" points="84.712 30.115 291.67 30.352 291.67 71.555"/>
      <path class="cls-5" d="M255.0657,147.9241H84.7122"/>
      <polyline class="cls-19"
                points="232.578 147.924 232.578 103.922 150.383 103.922 150.383 56.946 244.087 56.946 244.087 71.555"/>
      <line class="cls-5"
            x1="292.4315"
            y1="139.629"
            x2="321.5764"
            y2="139.629"/>
      <path class="cls-5" d="M70.0457,147.9241H43.5309"/>
      <line class="cls-19"
            x1="43.5312"
            y1="30.1147"
            x2="70.0457"
            y2="30.1147"/>
      <g id="Inverter">
         <g class="cls-20">
            <rect class="cls-21"
                  x="110.1603"
                  y="130.9051"
                  width="34.0175"
                  height="34.0166"/>
            <g class="cls-20">
               <rect class="cls-22"
                     x="110.1603"
                     y="130.9051"
                     width="34.0166"
                     height="34.0166"/>
               <line class="cls-22"
                     x1="110.1633"
                     y1="164.9238"
                     x2="144.1789"
                     y2="130.9082"/>
            </g>
            <line class="cls-22"
                  x1="113.3495"
                  y1="137.2863"
                  x2="122.9129"
                  y2="137.2863"/>
            <line class="cls-22"
                  x1="115.6011"
                  y1="139.4123"
                  x2="113.3494"
                  y2="139.4123"/>
            <line class="cls-22"
                  x1="119.2565"
                  y1="139.4123"
                  x2="117.0058"
                  y2="139.4123"/>
            <line class="cls-22"
                  x1="122.9126"
                  y1="139.4123"
                  x2="120.6609"
                  y2="139.4123"/>
            <g class="cls-20">
               <path class="cls-22"
                     d="M132.4843,157.599a2.1864,2.1864,0,0,1,2.126-2.006c1.0413,0,1.87.53,2.126,2.006a2.1381,2.1381,0,0,0,2.1261,2.0042,2.2988,2.2988,0,0,0,2.126-2.0042"/>
            </g>
         </g>
      </g>
      <g id="Artwork_13" data-name="Artwork 13">
         <g class="cls-23">
            <g class="cls-23">
               <path class="cls-24"
                     d="M43.5308,145.9245a2,2,0,1,1-2,2,2.0007,2.0007,0,0,1,2-2"/>
               <circle class="cls-5" cx="43.5308" cy="147.9245" r="2"/>
            </g>
         </g>
      </g>
      <g id="Artwork_13-2" data-name="Artwork 13">
         <g class="cls-25">
            <g class="cls-25">
               <path class="cls-24"
                     d="M43.5308,28.1151a2,2,0,1,1-2,2,2.0007,2.0007,0,0,1,2-2"/>
               <circle class="cls-5" cx="43.5308" cy="30.1151" r="2"/>
            </g>
         </g>
      </g>
      <text class="cls-26" transform="translate(22.9829 10.9544)">BYPASS<tspan x="4.4507" y="12">MAINS</tspan>
      </text>
      <text class="cls-26" transform="translate(101.9021 125.9248)">INVERTER</text>
      <g>
         <path class="cls-27"
               d="M20.6567,122.099h2.6416a5.1733,5.1733,0,0,1,1.3623.1367,2.4,2.4,0,0,1,1.0791.6592,3.1327,3.1327,0,0,1,.6836,1.16,5.2824,5.2824,0,0,1,.2343,1.6914,4.6986,4.6986,0,0,1-.22,1.5234,3.154,3.154,0,0,1-.7666,1.2647,2.542,2.542,0,0,1-1.0156.5713,4.3533,4.3533,0,0,1-1.2793.1513h-2.72Zm1.4453,1.211v4.7412h1.0791a3.9171,3.9171,0,0,0,.874-.0684,1.3283,1.3283,0,0,0,.5835-.2978,1.512,1.512,0,0,0,.3784-.6905,4.6734,4.6734,0,0,0,.1465-1.3115,4.2809,4.2809,0,0,0-.1465-1.2744,1.64,1.64,0,0,0-.41-.6934,1.3766,1.3766,0,0,0-.669-.3369,6.6171,6.6171,0,0,0-1.1865-.0683Z"/>
         <path class="cls-27"
               d="M32.4633,126.6254l1.4014.4443a3.1477,3.1477,0,0,1-1.0718,1.7412,3.3741,3.3741,0,0,1-4.2456-.4052,3.7285,3.7285,0,0,1-.918-2.6641,3.9116,3.9116,0,0,1,.9229-2.7754,3.1647,3.1647,0,0,1,2.4267-.9892,2.9775,2.9775,0,0,1,2.1338.7763,2.8274,2.8274,0,0,1,.7324,1.3184l-1.4306.3418a1.4789,1.4789,0,0,0-1.5088-1.2012,1.6286,1.6286,0,0,0-1.2915.5713,2.8,2.8,0,0,0-.4956,1.8506,3,3,0,0,0,.4883,1.9336,1.5836,1.5836,0,0,0,1.27.5761,1.4475,1.4475,0,0,0,.9912-.3662A2.1254,2.1254,0,0,0,32.4633,126.6254Z"/>
         <path class="cls-27" d="M37.8393,129.2572V122.099h1.4453v7.1582Z"/>
         <path class="cls-27"
               d="M40.6762,129.2572V122.099h1.4062l2.93,4.78v-4.78h1.3428v7.1582h-1.45l-2.8857-4.6679v4.6679Z"/>
         <path class="cls-27"
               d="M47.8832,129.2572V122.099h2.3194a8.4433,8.4433,0,0,1,1.7187.1074,1.8757,1.8757,0,0,1,1.03.7012,2.22,2.22,0,0,1,.415,1.3936,2.3329,2.3329,0,0,1-.2392,1.1084,1.965,1.965,0,0,1-.6079.706,2.0809,2.0809,0,0,1-.75.3389,8.2572,8.2572,0,0,1-1.499.1025h-.9424v2.7Zm1.4453-5.9472v2.0312H50.12a3.7247,3.7247,0,0,0,1.1425-.1123.941.941,0,0,0,.4517-.3516.9616.9616,0,0,0,.1636-.5566.9276.9276,0,0,0-.23-.6445,1.0045,1.0045,0,0,0-.5811-.3174,6.9941,6.9941,0,0,0-1.04-.0488Z"/>
         <path class="cls-27"
               d="M54.5434,122.099h1.4453v3.877a8.0678,8.0678,0,0,0,.0537,1.1963,1.1612,1.1612,0,0,0,.4419.706,1.5434,1.5434,0,0,0,.9546.2656,1.4609,1.4609,0,0,0,.9277-.2509.9958.9958,0,0,0,.376-.6182,8.027,8.027,0,0,0,.0635-1.2158v-3.96h1.4453v3.76a9.66,9.66,0,0,1-.1172,1.8213,2.0128,2.0128,0,0,1-.4321.8984,2.1906,2.1906,0,0,1-.8423.584,3.6725,3.6725,0,0,1-1.377.2168,3.9775,3.9775,0,0,1-1.5551-.2363,2.2305,2.2305,0,0,1-.8374-.6153,1.9711,1.9711,0,0,1-.4053-.7939,8.7007,8.7007,0,0,1-.1416-1.8164Z"/>
         <path class="cls-27"
               d="M63.3862,129.2572V123.31H61.2621v-1.211h5.6885v1.211H64.8315v5.9472Z"/>
         <path class="cls-27"
               d="M25.3832,141.2572V134.099h2.3194a8.4433,8.4433,0,0,1,1.7187.1074,1.8757,1.8757,0,0,1,1.03.7012,2.22,2.22,0,0,1,.415,1.3936,2.3329,2.3329,0,0,1-.2392,1.1084,1.965,1.965,0,0,1-.6079.706,2.0809,2.0809,0,0,1-.75.3389,8.2572,8.2572,0,0,1-1.499.1025h-.9424v2.7Zm1.4453-5.9472v2.0312H27.62a3.7247,3.7247,0,0,0,1.1425-.1123.941.941,0,0,0,.4517-.3516.9616.9616,0,0,0,.1636-.5566.9276.9276,0,0,0-.23-.6445,1.0045,1.0045,0,0,0-.5811-.3174,6.9941,6.9941,0,0,0-1.04-.0488Z"/>
         <path class="cls-27"
               d="M31.76,137.7221a4.5545,4.5545,0,0,1,.3271-1.836,3.372,3.372,0,0,1,.6665-.9814,2.8061,2.8061,0,0,1,.9253-.6445,3.9355,3.9355,0,0,1,1.543-.2832,3.361,3.361,0,0,1,2.5317.9814,4.3868,4.3868,0,0,1,.0074,5.4424,3.7651,3.7651,0,0,1-5.0586.0049A3.6967,3.6967,0,0,1,31.76,137.7221Zm1.4892-.0489a2.6841,2.6841,0,0,0,.5616,1.8438,1.9316,1.9316,0,0,0,2.8442.0049,2.7364,2.7364,0,0,0,.5542-1.8682,2.6916,2.6916,0,0,0-.54-1.8359,1.9984,1.9984,0,0,0-2.8735.0078A2.7024,2.7024,0,0,0,33.2494,137.6732Z"/>
         <path class="cls-27"
               d="M40.8471,141.2572l-1.709-7.1582h1.48l1.0791,4.917,1.3086-4.917H44.724l1.2549,5,1.0987-5h1.455l-1.7382,7.1582H45.2612l-1.4258-5.3515-1.4209,5.3515Z"/>
         <path class="cls-27"
               d="M49.27,141.2572V134.099h5.3077v1.211H50.7153v1.5869H54.309v1.206H50.7153v1.9483h3.999v1.206Z"/>
         <path class="cls-27"
               d="M55.9448,141.2572V134.099h3.0419a5.1935,5.1935,0,0,1,1.6675.1934,1.6444,1.6444,0,0,1,.8325.6855,2.0623,2.0623,0,0,1,.3125,1.128,1.9125,1.9125,0,0,1-.4736,1.331,2.2742,2.2742,0,0,1-1.416.6611,3.3975,3.3975,0,0,1,.7739.6006,8.2019,8.2019,0,0,1,.8228,1.1621l.874,1.3965H60.6518L59.6069,139.7a10.0387,10.0387,0,0,0-.7618-1.0518,1.1031,1.1031,0,0,0-.4345-.2978,2.3787,2.3787,0,0,0-.7276-.0811H57.39v2.9883Zm1.4453-4.1308h1.0693a5.52,5.52,0,0,0,1.2988-.0879.7774.7774,0,0,0,.4053-.3028.93.93,0,0,0,.1465-.5371.858.858,0,0,0-.1929-.583.8831.8831,0,0,0-.5444-.2812q-.1758-.0235-1.0547-.0244H57.39Z"/>
      </g>
      <g id="Artwork_13-3" data-name="Artwork 13">
         <g class="cls-28">
            <g class="cls-28">
               <path class="cls-24"
                     d="M321.5763,137.5534a2,2,0,1,1-2,2,2.0007,2.0007,0,0,1,2-2"/>
               <circle class="cls-5" cx="321.5763" cy="139.5534" r="2"/>
            </g>
         </g>
      </g>
      <g id="Artwork_11" data-name="Artwork 11">
         <g class="cls-29">
            <rect class="cls-21"
                  x="177.5118"
                  y="89.2115"
                  width="29.339"
                  height="29.423"/>
            <g class="cls-29">
               <rect class="cls-5"
                     x="177.5118"
                     y="89.2115"
                     width="29.339"
                     height="29.423"/>
               <line class="cls-19"
                     x1="177.512"
                     y1="103.923"
                     x2="206.8509"
                     y2="103.923"/>
            </g>
            <rect class="cls-21"
                  x="184.8418"
                  y="96.3385"
                  width="15.128"
                  height="15.171"/>
            <rect class="cls-5"
                  x="184.8418"
                  y="96.3385"
                  width="15.128"
                  height="15.171"/>
            <line class="cls-5"
                  x1="189.8098"
                  y1="115.1886"
                  x2="189.8098"
                  y2="107.8286"/>
            <line class="cls-5"
                  x1="192.7522"
                  y1="115.1886"
                  x2="192.7412"
                  y2="112.8466"/>
            <path d="M196.0071,109.0443v4.929l-4.909-2.464Zm.75-1.216-7.33,3.681,7.33,3.679Z"/>
            <line class="cls-5"
                  x1="195.468"
                  y1="92.7112"
                  x2="195.468"
                  y2="100.0711"/>
            <line class="cls-5"
                  x1="192.179"
                  y1="92.6604"
                  x2="192.179"
                  y2="94.6734"/>
            <path d="M189.2639,93.8725l4.909,2.4639-4.909,2.465Zm-.75-1.216v7.36l7.33-3.68Z"/>
            <g class="cls-29">
               <path class="cls-10"
                     d="M184.842,102.922a1,1,0,1,1-.997,1,.9984.9984,0,0,1,.997-1"/>
               <circle class="cls-5" cx="184.842" cy="103.922" r="0.997"/>
               <path class="cls-10"
                     d="M199.97,102.923a1,1,0,1,1-.997,1,.9984.9984,0,0,1,.997-1"/>
               <circle class="cls-5" cx="199.9699" cy="103.923" r="0.997"/>
               <g class="cls-14">
                  <g class="cls-30">
                     <text class="cls-31" transform="translate(207.8502 118.6339)">EN</text>
                  </g>
               </g>
            </g>
         </g>
      </g>
      <g id="shape116-109">
         <g class="cls-32">
            <g class="cls-32">
               <path class="cls-10"
                     d="M232.5764,146.911a1.003,1.003,0,1,1-1,1.003,1.001,1.001,0,0,1,1-1.003"/>
               <circle class="cls-11" cx="232.5764" cy="147.914" r="1"/>
            </g>
         </g>
      </g>
      <g id="Artwork_12" data-name="Artwork 12">
         <g class="cls-33">
            <g class="cls-33">
               <g class="cls-14">
                  <g class="cls-34">
                     <text class="cls-31" transform="translate(207.8502 162.6248)">EA</text>
                  </g>
               </g>
            </g>
            <rect class="cls-21"
                  x="177.5118"
                  y="133.2023"
                  width="29.339"
                  height="29.423"/>
            <g class="cls-33">
               <rect class="cls-5"
                     x="177.5118"
                     y="133.2023"
                     width="29.339"
                     height="29.423"/>
               <line class="cls-19"
                     x1="177.512"
                     y1="147.9148"
                     x2="206.8509"
                     y2="147.9148"/>
            </g>
            <rect class="cls-21"
                  x="184.8418"
                  y="140.3303"
                  width="15.128"
                  height="15.171"/>
            <rect class="cls-5"
                  x="184.8418"
                  y="140.3303"
                  width="15.128"
                  height="15.171"/>
            <line class="cls-5"
                  x1="189.8098"
                  y1="159.1804"
                  x2="189.8098"
                  y2="151.8204"/>
            <line class="cls-5"
                  x1="192.7522"
                  y1="159.1804"
                  x2="192.7412"
                  y2="156.8384"/>
            <path d="M196.0071,153.0361v4.929l-4.909-2.464Zm.75-1.216-7.33,3.681,7.33,3.679Z"/>
            <line class="cls-5"
                  x1="195.468"
                  y1="136.7029"
                  x2="195.468"
                  y2="144.0629"/>
            <line class="cls-5"
                  x1="192.179"
                  y1="136.6516"
                  x2="192.179"
                  y2="138.6646"/>
            <path d="M189.2639,137.8642l4.909,2.464-4.909,2.465Zm-.75-1.216v7.36l7.33-3.68Z"/>
            <g class="cls-33">
               <path class="cls-10"
                     d="M184.842,146.9148a1,1,0,1,1-.997,1,.9978.9978,0,0,1,.997-1"/>
               <circle class="cls-5" cx="184.842" cy="147.9148" r="0.997"/>
               <path class="cls-10"
                     d="M199.97,146.9148a1,1,0,1,1-.997,1,.9984.9984,0,0,1,.997-1"/>
               <circle class="cls-5" cx="199.9699" cy="147.9148" r="0.997"/>
            </g>
         </g>
      </g>
      <text class="cls-26" transform="translate(174.5924 71.9738)">STATIC<tspan x="-8.335" y="12">SWITCHES</tspan>
      </text>
      <text class="cls-26" transform="translate(303.0694 133.5348)">OUTPUT</text>
      <text class="cls-26" transform="translate(224.4293 10.9542)">MANUAL BYPASS<tspan x="23.894" y="12">SWITCH</tspan>
      </text>
   </g>
</svg>
