<?xml version="1.0" encoding="UTF-8"?>
<svg xmlns="http://www.w3.org/2000/svg"
     width="80.7861mm"
     height="73.2116mm"
     viewBox="0 0 229 207.5289">
   <defs>
      <style>
      .cls-1, .cls-2, .cls-3, .cls-6, .cls-7 {
        fill: none;
      }

      .cls-1, .cls-2, .cls-3, .cls-4, .cls-7, .cls-8 {
        stroke: #000;
      }

      .cls-1, .cls-2, .cls-3, .cls-4 {
        stroke-miterlimit: 10;
      }

      .cls-2 {
        stroke-dasharray: 0.9951 1.9902;
      }

      .cls-3 {
        stroke-dasharray: 3.9805 1.9902 0.9951 1.9902;
      }

      .cls-10, .cls-4, .cls-5, .cls-9 {
        fill: #fff;
      }

      .cls-6 {
        stroke: #fff;
      }

      .cls-6, .cls-7, .cls-8 {
        stroke-linecap: round;
      }

      .cls-7 {
        stroke-width: 0.5px;
      }

      .cls-8 {
        stroke-width: 0.106px;
      }

      .cls-10, .cls-9 {
        isolation: isolate;
        font-size: 16px;
        font-family: ArialMT, Arial;
      }

      .cls-9 {
        letter-spacing: -0.0552em;
      }
    </style>
   </defs>
   <g id="Layer_2" data-name="Layer 2">
      <g>
         <line class="cls-1"
               x1="107.6389"
               y1="10.3333"
               x2="107.6389"
               y2="12.3333"/>
         <line class="cls-2"
               x1="107.6389"
               y1="14.3236"
               x2="107.6389"
               y2="16.3138"/>
         <line class="cls-3"
               x1="107.6389"
               y1="17.3089"
               x2="107.6389"
               y2="186.4781"/>
         <line class="cls-1"
               x1="107.6389"
               y1="187.4732"
               x2="107.6389"
               y2="189.4732"/>
      </g>
      <rect class="cls-4"
            x="69.8889"
            y="172.1111"
            width="75.5"
            height="17.2778"/>
      <rect class="cls-4"
            x="87.2778"
            y="98.6111"
            width="40.7222"
            height="4.7222"/>
      <g>
         <rect class="cls-4"
               x="95.1111"
               y="21.6667"
               width="25.0556"
               height="8.7778"/>
         <rect class="cls-4"
               x="83.2222"
               y="21.6667"
               width="11.8889"
               height="8.7778"/>
         <rect class="cls-4"
               x="120.1667"
               y="21.6667"
               width="11.8889"
               height="8.7778"/>
         <rect class="cls-4"
               x="98.3889"
               y="73.4944"
               width="18.5"
               height="4.7833"/>
         <rect class="cls-4"
               x="98.3889"
               y="68.7111"
               width="18.5"
               height="4.7833"/>
         <rect class="cls-4"
               x="98.3889"
               y="63.9278"
               width="18.5"
               height="4.7833"/>
         <rect class="cls-4"
               x="98.3889"
               y="59.1444"
               width="18.5"
               height="4.7833"/>
         <rect class="cls-4"
               x="98.3889"
               y="54.3611"
               width="18.5"
               height="4.7833"/>
         <rect class="cls-4"
               x="98.3889"
               y="49.5778"
               width="18.5"
               height="4.7833"/>
         <rect class="cls-4"
               x="98.3889"
               y="44.7944"
               width="18.5"
               height="4.7833"/>
         <rect class="cls-4"
               x="98.3889"
               y="40.0111"
               width="18.5"
               height="4.7833"/>
         <rect class="cls-4"
               x="98.3889"
               y="35.2278"
               width="18.5"
               height="4.7833"/>
         <rect class="cls-4"
               x="98.3889"
               y="30.4444"
               width="18.5"
               height="4.7833"/>
      </g>
      <g>
         <g>
            <path class="cls-5"
                  d="M154.75,137.0833s21.6667.8334,35.75-2.25C205.26,131.6018,218.9167,122,218.9167,122v22s-12.5834,8.0833-27.5834,11c-14.1267,2.7469-36.5833,2.2151-36.5833,2.2151Z"/>
            <path class="cls-1"
                  d="M154.75,137.0833s21.6667.8334,35.75-2.25C205.26,131.6018,218.9167,122,218.9167,122v22s-12.5834,8.0833-27.5834,11c-14.1267,2.7469-36.5833,2.2151-36.5833,2.2151Z"/>
         </g>
         <polygon class="cls-4"
                  points="88.667 162.083 160.25 162.083 160.25 133.917 132.917 133.917 132.917 149.417 88.667 149.417 88.667 162.083"/>
      </g>
      <g>
         <rect class="cls-4"
               x="87.2778"
               y="86.3889"
               width="40.7222"
               height="4.7222"/>
         <polygon class="cls-4"
                  points="107.063 84.389 107 89.208 87.216 91.115 87.278 86.389 107.063 84.389"/>
      </g>
      <g>
         <rect class="cls-4"
               x="81.8889"
               y="134.8333"
               width="46.1111"
               height="4.7222"/>
         <g>
            <path class="cls-5"
                  d="M8.6667,117.1667s18.7777,9.7777,27.1666,11.6111a66.4134,66.4134,0,0,0,16.0556,1.3889v9.7777a49.0248,49.0248,0,0,1-22.6667-3.3888c-11.8333-4.8334-20.5555-9.4445-20.5555-9.4445Z"/>
            <path class="cls-1"
                  d="M8.6667,117.1667s18.7777,9.7777,27.1666,11.6111a66.4134,66.4134,0,0,0,16.0556,1.3889v9.7777a49.0248,49.0248,0,0,1-22.6667-3.3888c-11.8333-4.8334-20.5555-9.4445-20.5555-9.4445Z"/>
         </g>
         <g>
            <rect class="cls-5"
                  x="50.5"
                  y="129.3889"
                  width="31.6667"
                  height="12.1667"
                  rx="1.4173"/>
            <rect class="cls-1"
                  x="50.5"
                  y="129.3889"
                  width="31.6667"
                  height="12.1667"
                  rx="1.4173"/>
         </g>
      </g>
      <g>
         <rect class="cls-4"
               x="81.8889"
               y="114.8333"
               width="46.1111"
               height="4.7222"/>
         <g>
            <path class="cls-5"
                  d="M8.6667,97.1667s18.7777,9.7777,27.1666,11.6111a66.4134,66.4134,0,0,0,16.0556,1.3889v9.7777a49.0248,49.0248,0,0,1-22.6667-3.3888c-11.8333-4.8334-20.5555-9.4445-20.5555-9.4445Z"/>
            <path class="cls-1"
                  d="M8.6667,97.1667s18.7777,9.7777,27.1666,11.6111a66.4134,66.4134,0,0,0,16.0556,1.3889v9.7777a49.0248,49.0248,0,0,1-22.6667-3.3888c-11.8333-4.8334-20.5555-9.4445-20.5555-9.4445Z"/>
         </g>
         <g>
            <rect class="cls-5"
                  x="50.5"
                  y="109.3889"
                  width="31.6667"
                  height="12.1667"
                  rx="1.4173"/>
            <rect class="cls-1"
                  x="50.5"
                  y="109.3889"
                  width="31.6667"
                  height="12.1667"
                  rx="1.4173"/>
         </g>
      </g>
   </g>
   <g id="Layer_3" data-name="Layer 3">
      <g>
         <line class="cls-6"
               x1="126.1111"
               y1="27.0735"
               x2="168.6279"
               y2="14.397"/>
         <line class="cls-7"
               x1="168.6279"
               y1="14.397"
               x2="126.1111"
               y2="27.0735"/>
         <circle class="cls-8" cx="168.6279" cy="14.397" r="9.5"/>
         <text class="cls-9" transform="translate(163.7334 19.9293)">A</text>
      </g>
      <g>
         <line class="cls-6"
               x1="126.1111"
               y1="88.75"
               x2="168.6279"
               y2="39.397"/>
         <line class="cls-7"
               x1="168.6279"
               y1="39.397"
               x2="126.1111"
               y2="88.75"/>
         <circle class="cls-8" cx="168.6279" cy="39.397" r="9.5"/>
         <text class="cls-10" transform="translate(163.292 44.9293)">B</text>
      </g>
      <g>
         <line class="cls-6"
               x1="126.1111"
               y1="100.9722"
               x2="168.6279"
               y2="64.397"/>
         <line class="cls-7"
               x1="168.6279"
               y1="64.397"
               x2="126.1111"
               y2="100.9722"/>
         <circle class="cls-8" cx="168.6279" cy="64.397" r="9.5"/>
         <text class="cls-10" transform="translate(162.8506 69.9293)">C</text>
      </g>
      <g>
         <line class="cls-6"
               x1="126.1111"
               y1="117.1944"
               x2="168.6279"
               y2="89.397"/>
         <line class="cls-7"
               x1="168.6279"
               y1="89.397"
               x2="126.1111"
               y2="117.1944"/>
         <line class="cls-6"
               x1="126.1111"
               y1="137.1944"
               x2="168.6279"
               y2="89.397"/>
         <line class="cls-7"
               x1="168.6279"
               y1="89.397"
               x2="126.1111"
               y2="137.1944"/>
         <circle class="cls-8" cx="168.6279" cy="89.397" r="9.5"/>
         <text class="cls-10" transform="translate(162.8506 94.9293)">D</text>
      </g>
      <g>
         <line class="cls-6"
               x1="145.3889"
               y1="157.2565"
               x2="168.6279"
               y2="170.397"/>
         <line class="cls-7"
               x1="168.6279"
               y1="170.397"
               x2="145.3889"
               y2="157.2565"/>
         <circle class="cls-8" cx="168.6279" cy="170.397" r="9.5"/>
         <text class="cls-10" transform="translate(163.292 175.9293)">E</text>
      </g>
      <g>
         <line class="cls-6"
               x1="141.4444"
               y1="180.75"
               x2="168.6279"
               y2="195.397"/>
         <line class="cls-7"
               x1="168.6279"
               y1="195.397"
               x2="141.4444"
               y2="180.75"/>
         <circle class="cls-8" cx="168.6279" cy="195.397" r="9.5"/>
         <text class="cls-10" transform="translate(163.7412 200.9293)">F</text>
      </g>
   </g>
</svg>
