<?xml version="1.0" encoding="UTF-8"?>
<svg xmlns="http://www.w3.org/2000/svg"
     width="32.5832mm"
     height="27.3207mm"
     viewBox="0 0 92.3619 77.4444">
   <defs>
      <style>
      .cls-1, .cls-2, .cls-3 {
        fill: none;
      }

      .cls-1, .cls-3, .cls-4 {
        stroke: #010101;
      }

      .cls-1, .cls-2, .cls-3, .cls-4 {
        stroke-linecap: round;
      }

      .cls-1 {
        stroke-linejoin: round;
        stroke-width: 0.405px;
      }

      .cls-2 {
        stroke: #fff;
      }

      .cls-3 {
        stroke-width: 0.5px;
      }

      .cls-4 {
        fill: #010101;
        stroke-width: 0.106px;
      }

      .cls-5, .cls-6 {
        isolation: isolate;
        font-size: 16px;
        fill: #fff;
        font-family: ArialMT, Arial;
      }

      .cls-5 {
        letter-spacing: -0.0552em;
      }
    </style>
   </defs>
   <g id="Layer_1" data-name="Layer 1">
      <line class="cls-1"
            x1="67.4783"
            y1="34.4051"
            x2="67.4783"
            y2="55.9213"/>
      <line class="cls-1"
            x1="55.8236"
            y1="34.4051"
            x2="67.4783"
            y2="34.4051"/>
      <line class="cls-1"
            x1="55.8236"
            y1="55.9213"
            x2="55.8236"
            y2="34.4051"/>
      <line class="cls-1"
            x1="67.4783"
            y1="55.9213"
            x2="55.8236"
            y2="55.9213"/>
      <line class="cls-1"
            x1="39.4135"
            y1="55.9213"
            x2="39.4135"
            y2="34.4051"/>
      <line class="cls-1"
            x1="52.4602"
            y1="55.9213"
            x2="39.4135"
            y2="55.9213"/>
      <line class="cls-1"
            x1="52.4602"
            y1="34.4051"
            x2="52.4602"
            y2="55.9213"/>
      <line class="cls-1"
            x1="39.4135"
            y1="34.4051"
            x2="52.4602"
            y2="34.4051"/>
      <line class="cls-1"
            x1="24.3954"
            y1="55.9213"
            x2="24.3954"
            y2="34.4051"/>
      <line class="cls-1"
            x1="36.0501"
            y1="55.9213"
            x2="24.3954"
            y2="55.9213"/>
      <line class="cls-1"
            x1="36.0501"
            y1="34.4051"
            x2="36.0501"
            y2="55.9213"/>
      <line class="cls-1"
            x1="24.3954"
            y1="34.4051"
            x2="36.0501"
            y2="34.4051"/>
      <line class="cls-1"
            x1="21.2644"
            y1="57.3297"
            x2="70.6094"
            y2="57.3297"/>
      <line class="cls-1"
            x1="21.2644"
            y1="27.984"
            x2="21.2644"
            y2="57.3297"/>
      <line class="cls-1"
            x1="70.6094"
            y1="27.984"
            x2="21.2644"
            y2="27.984"/>
      <line class="cls-1"
            x1="70.6094"
            y1="57.3297"
            x2="70.6094"
            y2="27.984"/>
      <line class="cls-1"
            x1="21.2644"
            y1="57.9496"
            x2="70.6094"
            y2="57.9496"/>
      <line class="cls-1"
            x1="21.2644"
            y1="57.3297"
            x2="21.2644"
            y2="57.9496"/>
      <line class="cls-1"
            x1="70.6094"
            y1="57.3297"
            x2="70.6094"
            y2="57.9496"/>
      <polyline class="cls-1"
                points="67.421 55.921 67.073 47.417 67.073 37.222 67.478 34.405"/>
      <polyline class="cls-1" points="67.073 37.222 57.099 37.222 56.23 35.87"/>
      <polyline class="cls-1" points="55.824 34.405 56.23 35.87 56.23 52.429"/>
      <line class="cls-1"
            x1="55.9971"
            y1="55.9213"
            x2="56.2295"
            y2="52.4294"/>
      <line class="cls-1"
            x1="52.4602"
            y1="34.4051"
            x2="52.1122"
            y2="35.8697"/>
      <line class="cls-1"
            x1="51.2427"
            y1="37.2219"
            x2="52.1122"
            y2="35.8697"/>
      <line class="cls-1"
            x1="40.631"
            y1="37.2219"
            x2="51.2427"
            y2="37.2219"/>
      <line class="cls-1"
            x1="39.7615"
            y1="35.8697"
            x2="40.631"
            y2="37.2219"/>
      <line class="cls-1"
            x1="39.4135"
            y1="34.4051"
            x2="39.7615"
            y2="35.8697"/>
      <line class="cls-1"
            x1="52.3446"
            y1="55.9212"
            x2="52.1123"
            y2="52.4294"/>
      <line class="cls-1"
            x1="52.1123"
            y1="35.8696"
            x2="52.1123"
            y2="52.4293"/>
      <polyline class="cls-1" points="39.762 35.87 39.762 52.429 39.529 55.921"/>
      <line class="cls-1"
            x1="36.0501"
            y1="34.405"
            x2="35.6443"
            y2="35.8696"/>
      <line class="cls-1"
            x1="34.7748"
            y1="37.2218"
            x2="35.6443"
            y2="35.8695"/>
      <line class="cls-1"
            x1="24.8012"
            y1="37.2218"
            x2="34.7748"
            y2="37.2218"/>
      <line class="cls-1"
            x1="24.3954"
            y1="34.405"
            x2="24.8012"
            y2="37.2218"/>
      <line class="cls-1"
            x1="35.8766"
            y1="55.9212"
            x2="35.6443"
            y2="52.4293"/>
      <line class="cls-1"
            x1="35.6443"
            y1="35.8695"
            x2="35.6443"
            y2="52.4292"/>
      <line class="cls-1"
            x1="24.8012"
            y1="47.4166"
            x2="24.8012"
            y2="37.2218"/>
      <line class="cls-1"
            x1="24.4532"
            y1="55.9212"
            x2="24.8012"
            y2="47.4166"/>
      <line class="cls-1"
            x1="57.099"
            y1="47.4166"
            x2="67.0725"
            y2="47.4166"/>
      <line class="cls-1"
            x1="57.099"
            y1="47.4166"
            x2="56.2295"
            y2="52.4292"/>
      <line class="cls-1"
            x1="40.631"
            y1="47.4166"
            x2="39.7615"
            y2="52.4292"/>
      <line class="cls-1"
            x1="51.2427"
            y1="47.4166"
            x2="40.631"
            y2="47.4166"/>
      <line class="cls-1"
            x1="51.2427"
            y1="47.4166"
            x2="52.1122"
            y2="52.4292"/>
      <line class="cls-1"
            x1="34.7747"
            y1="47.4166"
            x2="24.8012"
            y2="47.4166"/>
      <line class="cls-1"
            x1="34.7747"
            y1="47.4166"
            x2="35.6442"
            y2="52.4292"/>
      <line class="cls-1"
            x1="21.2643"
            y1="72.8189"
            x2="70.6094"
            y2="72.8189"/>
      <line class="cls-1"
            x1="21.2643"
            y1="57.9495"
            x2="21.2643"
            y2="72.8189"/>
      <line class="cls-1"
            x1="70.6094"
            y1="72.8189"
            x2="70.6094"
            y2="57.9495"/>
      <line class="cls-1"
            x1="21.2643"
            y1="73.4389"
            x2="70.6094"
            y2="73.4389"/>
      <line class="cls-1"
            x1="21.2643"
            y1="72.8189"
            x2="21.2643"
            y2="73.4389"/>
      <line class="cls-1"
            x1="70.6094"
            y1="72.8189"
            x2="70.6094"
            y2="73.4389"/>
      <polyline class="cls-1" points="70.609 75.241 21.264 75.241 21.264 73.439"/>
      <line class="cls-1"
            x1="70.6094"
            y1="73.4389"
            x2="70.6094"
            y2="75.2415"/>
      <line class="cls-1"
            x1="57.099"
            y1="37.2208"
            x2="57.099"
            y2="47.4156"/>
      <line class="cls-1"
            x1="51.2427"
            y1="37.2208"
            x2="51.2427"
            y2="47.4156"/>
      <line class="cls-1"
            x1="40.631"
            y1="37.2208"
            x2="40.631"
            y2="47.4156"/>
      <line class="cls-1"
            x1="34.7748"
            y1="37.2208"
            x2="34.7748"
            y2="47.4156"/>
      <line class="cls-1"
            x1="21.2644"
            y1="75.8604"
            x2="70.6094"
            y2="75.8604"/>
      <line class="cls-1"
            x1="21.2644"
            y1="75.2405"
            x2="21.2644"
            y2="75.8604"/>
      <line class="cls-1"
            x1="70.6094"
            y1="75.2405"
            x2="70.6094"
            y2="75.8604"/>
      <line class="cls-1"
            x1="50.6045"
            y1="37.2198"
            x2="50.6045"
            y2="47.4146"/>
      <line class="cls-1"
            x1="34.1944"
            y1="37.2198"
            x2="34.1944"
            y2="47.4146"/>
      <line class="cls-1"
            x1="57.6783"
            y1="37.2198"
            x2="57.6783"
            y2="47.4146"/>
      <line class="cls-1"
            x1="41.2682"
            y1="37.2198"
            x2="41.2682"
            y2="47.4146"/>
      <line class="cls-1"
            x1="60.8672"
            y1="70.7345"
            x2="62.4905"
            y2="70.7345"/>
      <line class="cls-1"
            x1="60.8672"
            y1="69.4956"
            x2="60.8672"
            y2="70.7345"/>
      <line class="cls-1"
            x1="62.4905"
            y1="69.4956"
            x2="60.8672"
            y2="69.4956"/>
      <line class="cls-1"
            x1="62.4905"
            y1="70.7345"
            x2="62.4905"
            y2="69.4956"/>
      <line class="cls-1"
            x1="60.8672"
            y1="69.4956"
            x2="60.8672"
            y2="69.4956"/>
      <line class="cls-1"
            x1="62.4905"
            y1="69.4956"
            x2="60.8672"
            y2="69.4956"/>
      <polyline class="cls-1" points="64.578 67.13 64.578 67.13 58.837 67.13"/>
      <line class="cls-1"
            x1="64.5776"
            y1="67.1302"
            x2="58.837"
            y2="67.1302"/>
      <line class="cls-1"
            x1="58.837"
            y1="68.3691"
            x2="64.5776"
            y2="68.3691"/>
      <line class="cls-1"
            x1="58.837"
            y1="67.1302"
            x2="58.837"
            y2="68.3691"/>
      <line class="cls-1"
            x1="64.5776"
            y1="68.3691"
            x2="64.5776"
            y2="67.1302"/>
      <line class="cls-1"
            x1="62.3739"
            y1="64.7638"
            x2="62.3739"
            y2="60.0892"/>
      <line class="cls-1"
            x1="66.6068"
            y1="64.7638"
            x2="62.3739"
            y2="64.7638"/>
      <line class="cls-1"
            x1="66.6068"
            y1="66.0598"
            x2="66.6068"
            y2="64.7638"/>
      <line class="cls-1"
            x1="56.7489"
            y1="66.0598"
            x2="66.6068"
            y2="66.0598"/>
      <line class="cls-1"
            x1="56.7489"
            y1="64.7638"
            x2="56.7489"
            y2="66.0598"/>
      <line class="cls-1"
            x1="61.0397"
            y1="64.7638"
            x2="56.7489"
            y2="64.7638"/>
      <line class="cls-1"
            x1="61.0397"
            y1="60.0892"
            x2="61.0397"
            y2="64.7638"/>
      <polyline class="cls-1" points="62.373 60.089 61.04 60.089 61.04 60.033"/>
      <line class="cls-1"
            x1="62.3729"
            y1="60.0331"
            x2="61.0397"
            y2="60.0331"/>
      <line class="cls-1"
            x1="62.3729"
            y1="60.0892"
            x2="62.3729"
            y2="60.0331"/>
      <polyline class="cls-1" points="66.606 64.764 66.606 64.764 62.373 64.764"/>
      <line class="cls-1"
            x1="56.7479"
            y1="64.7638"
            x2="56.7479"
            y2="64.7638"/>
      <line class="cls-1"
            x1="61.0387"
            y1="64.7638"
            x2="56.7479"
            y2="64.7638"/>
      <line class="cls-1"
            x1="29.5526"
            y1="64.7638"
            x2="25.2619"
            y2="64.7638"/>
      <line class="cls-1"
            x1="29.5526"
            y1="60.7082"
            x2="29.5526"
            y2="64.7638"/>
      <line class="cls-1"
            x1="30.8858"
            y1="60.7082"
            x2="29.5526"
            y2="60.7082"/>
      <line class="cls-1"
            x1="30.8858"
            y1="64.7638"
            x2="30.8858"
            y2="60.7082"/>
      <line class="cls-1"
            x1="35.1187"
            y1="64.7638"
            x2="30.8858"
            y2="64.7638"/>
      <line class="cls-1"
            x1="35.1187"
            y1="66.0598"
            x2="35.1187"
            y2="64.7638"/>
      <line class="cls-1"
            x1="30.8858"
            y1="66.0598"
            x2="35.1187"
            y2="66.0598"/>
      <line class="cls-1"
            x1="30.8858"
            y1="70.1155"
            x2="30.8858"
            y2="66.0598"/>
      <line class="cls-1"
            x1="29.5526"
            y1="70.1155"
            x2="30.8858"
            y2="70.1155"/>
      <line class="cls-1"
            x1="29.5526"
            y1="66.0598"
            x2="29.5526"
            y2="70.1155"/>
      <line class="cls-1"
            x1="25.2619"
            y1="66.0598"
            x2="29.5526"
            y2="66.0598"/>
      <line class="cls-1"
            x1="25.2619"
            y1="64.7638"
            x2="25.2619"
            y2="66.0598"/>
      <line class="cls-1"
            x1="30.8868"
            y1="60.7082"
            x2="30.8868"
            y2="60.7082"/>
      <line class="cls-1"
            x1="29.5536"
            y1="60.7082"
            x2="29.5536"
            y2="60.7082"/>
      <line class="cls-1"
            x1="30.8868"
            y1="60.7082"
            x2="29.5536"
            y2="60.7082"/>
      <polyline class="cls-1" points="35.12 64.764 35.12 64.764 30.887 64.764"/>
      <line class="cls-1"
            x1="25.2619"
            y1="64.7638"
            x2="25.2619"
            y2="64.7638"/>
      <line class="cls-1"
            x1="29.5526"
            y1="64.7638"
            x2="25.2619"
            y2="64.7638"/>
      <line class="cls-1"
            x1="50.8906"
            y1="64.7638"
            x2="41.0328"
            y2="64.7638"/>
      <line class="cls-1"
            x1="50.8906"
            y1="66.0598"
            x2="50.8906"
            y2="64.7638"/>
      <line class="cls-1"
            x1="41.0328"
            y1="66.0598"
            x2="50.8906"
            y2="66.0598"/>
      <line class="cls-1"
            x1="41.0328"
            y1="64.7638"
            x2="41.0328"
            y2="66.0598"/>
      <line class="cls-1"
            x1="41.0328"
            y1="64.7638"
            x2="41.0328"
            y2="64.7638"/>
      <line class="cls-1"
            x1="50.8906"
            y1="64.7638"
            x2="41.0328"
            y2="64.7638"/>
      <line class="cls-1"
            x1="50.8906"
            y1="64.7638"
            x2="50.8906"
            y2="64.7638"/>
   </g>
   <g id="Layer_2" data-name="Layer 2">
      <line class="cls-2"
            x1="29.788"
            y1="39.6351"
            x2="15.7625"
            y2="11.2738"/>
      <line class="cls-3"
            x1="15.7625"
            y1="11.2738"
            x2="29.788"
            y2="39.6351"/>
      <circle class="cls-4" cx="15.7625" cy="11.2738" r="9.5"/>
      <text class="cls-5" transform="translate(10.868 16.8058)">A</text>
      <line class="cls-2"
            x1="45.9617"
            y1="39.6351"
            x2="45.7625"
            y2="11.2738"/>
      <line class="cls-3"
            x1="45.7625"
            y1="11.2738"
            x2="45.9617"
            y2="39.6351"/>
      <circle class="cls-4" cx="45.7625" cy="11.2738" r="9.5"/>
      <text class="cls-6" transform="translate(40.4266 16.8058)">B</text>
      <line class="cls-2"
            x1="62.3739"
            y1="39.6351"
            x2="75.7625"
            y2="11.2738"/>
      <line class="cls-3"
            x1="75.7625"
            y1="11.2738"
            x2="62.3739"
            y2="39.6351"/>
      <circle class="cls-4" cx="75.7625" cy="11.2738" r="9.5"/>
      <text class="cls-6" transform="translate(69.9852 16.8058)">C</text>
   </g>
</svg>
