<?xml version="1.0" encoding="UTF-8"?>
<svg xmlns="http://www.w3.org/2000/svg"
     width="180.6693mm"
     height="92mm"
     viewBox="0 0 512.1335 260.7874">
   <defs>
      <style>
      .cls-1 {
        fill: none;
      }

      .cls-1, .cls-4, .cls-5 {
        stroke: #000;
        stroke-linecap: round;
        stroke-linejoin: round;
        stroke-width: 0.3978px;
      }

      .cls-2 {
        font-size: 6.2537px;
      }

      .cls-2, .cls-3 {
        font-family: ArialMT, Arial;
      }

      .cls-3 {
        font-size: 12.0345px;
      }

      .cls-4 {
        fill: #01889C;
      }

      .cls-5 {
        fill: #FFBF01;
      }
    </style>
   </defs>
   <g id="Layer_3" data-name="Layer 3">
      <g id="LINE">
         <line class="cls-1"
               x1="195.8085"
               y1="219.4772"
               x2="195.8085"
               y2="230.4127"/>
      </g>
      <g id="LINE-2" data-name="LINE">
         <line class="cls-1"
               x1="195.8085"
               y1="125.1349"
               x2="195.8085"
               y2="209.1099"/>
      </g>
      <g id="LINE-3" data-name="LINE">
         <line class="cls-1"
               x1="143.9721"
               y1="192.5222"
               x2="143.9721"
               y2="195.6758"/>
      </g>
      <g id="LINE-4" data-name="LINE">
         <line class="cls-1"
               x1="143.9721"
               y1="102.9774"
               x2="143.9721"
               y2="182.155"/>
      </g>
      <g id="LINE-5" data-name="LINE">
         <line class="cls-1"
               x1="23.7115"
               y1="178.9581"
               x2="23.7115"
               y2="182.155"/>
      </g>
      <g id="LINE-6" data-name="LINE">
         <line class="cls-1"
               x1="23.7115"
               y1="192.5222"
               x2="23.7115"
               y2="195.6758"/>
      </g>
      <g id="LINE-7" data-name="LINE">
         <line class="cls-1"
               x1="23.7115"
               y1="62.8348"
               x2="23.7115"
               y2="135.7122"/>
      </g>
      <g id="LINE-8" data-name="LINE">
         <line class="cls-1"
               x1="23.7115"
               y1="51.2825"
               x2="23.7115"
               y2="52.9003"/>
      </g>
      <g id="LWPOLYLINE">
         <polygon class="cls-1"
                  points="16.454 3.838 30.969 3.838 23.711 15.242 16.454 3.838"/>
      </g>
      <g id="LWPOLYLINE-2" data-name="LWPOLYLINE">
         <polygon class="cls-1"
                  points="136.715 3.838 151.229 3.838 143.972 15.242 136.715 3.838"/>
      </g>
      <g id="LWPOLYLINE-3" data-name="LWPOLYLINE">
         <polygon class="cls-1"
                  points="247.645 236.065 247.645 250.579 259.049 243.322 247.645 236.065"/>
      </g>
      <g id="LWPOLYLINE-4" data-name="LWPOLYLINE">
         <polygon class="cls-1"
                  points="188.551 231.918 203.066 231.918 195.809 243.322 188.551 231.918"/>
      </g>
      <g id="LINE-9" data-name="LINE">
         <line class="cls-1"
               x1="23.7115"
               y1="15.4843"
               x2="23.7115"
               y2="20.8902"/>
      </g>
      <g id="LINE-10" data-name="LINE">
         <line class="cls-1"
               x1="23.7115"
               y1="230.4127"
               x2="23.7115"
               y2="243.322"/>
      </g>
      <g id="LINE-11" data-name="LINE">
         <line class="cls-1"
               x1="23.7115"
               y1="243.322"
               x2="212.9211"
               y2="243.322"/>
      </g>
      <g id="LINE-12" data-name="LINE">
         <line class="cls-1"
               x1="242.993"
               y1="243.322"
               x2="246.9972"
               y2="243.322"/>
      </g>
      <g id="LINE-13" data-name="LINE">
         <line class="cls-1"
               x1="143.9721"
               y1="15.4843"
               x2="143.9721"
               y2="20.4898"/>
      </g>
      <g id="LINE-14" data-name="LINE">
         <line class="cls-1"
               x1="143.9721"
               y1="51.2225"
               x2="143.9721"
               y2="72.5451"/>
      </g>
      <g id="LINE-15" data-name="LINE">
         <line class="cls-1"
               x1="143.9721"
               y1="230.9133"
               x2="143.9721"
               y2="242.926"/>
      </g>
      <g id="LINE-16" data-name="LINE">
         <line class="cls-1"
               x1="143.9721"
               y1="125.1349"
               x2="195.8085"
               y2="125.1349"/>
      </g>
      <g id="CIRCLE">
         <path class="cls-1"
               d="M133.6048,83.6657A10.3673,10.3673,0,1,1,143.9721,94.033a10.3673,10.3673,0,0,1-10.3673-10.3673Z"/>
      </g>
      <g id="CIRCLE-2" data-name="CIRCLE">
         <path class="cls-1"
               d="M133.6048,91.96a10.3673,10.3673,0,1,1,10.3673,10.3673A10.3673,10.3673,0,0,1,133.6048,91.96Z"/>
      </g>
      <g id="CIRCLE-3" data-name="CIRCLE">
         <path class="cls-1"
               d="M133.6048,83.6657A10.3673,10.3673,0,1,1,143.9721,94.033a10.3673,10.3673,0,0,1-10.3673-10.3673Z"/>
      </g>
      <g id="LINE-17" data-name="LINE">
         <line class="cls-1"
               x1="6.265"
               y1="176.7934"
               x2="45.253"
               y2="137.7025"/>
      </g>
      <g id="LINE-18" data-name="LINE">
         <line class="cls-1"
               x1="11.2707"
               y1="143.796"
               x2="24.7482"
               y2="143.796"/>
      </g>
      <g id="LINE-19" data-name="LINE">
         <line class="cls-1"
               x1="11.2707"
               y1="145.6621"
               x2="14.9464"
               y2="145.6621"/>
      </g>
      <g id="LINE-20" data-name="LINE">
         <line class="cls-1"
               x1="16.1716"
               y1="145.6621"
               x2="19.8473"
               y2="145.6621"/>
      </g>
      <g id="LINE-21" data-name="LINE">
         <line class="cls-1"
               x1="21.0725"
               y1="145.6621"
               x2="24.7482"
               y2="145.6621"/>
      </g>
      <g id="ELLIPSE">
         <path class="cls-1" d="M32.7829,155.2a3.5062,3.5062,0,0,0-3.3694,3.6286"/>
      </g>
      <g id="ELLIPSE-2" data-name="ELLIPSE">
         <path class="cls-1" d="M36.1522,158.8286A3.5062,3.5062,0,0,0,32.7829,155.2"/>
      </g>
      <g id="ELLIPSE-3" data-name="ELLIPSE">
         <path class="cls-1" d="M36.1522,158.8286a3.5062,3.5062,0,0,0,3.3694,3.6285"/>
      </g>
      <g id="ELLIPSE-4" data-name="ELLIPSE">
         <path class="cls-1" d="M39.5216,162.4571a3.5062,3.5062,0,0,0,3.3694-3.6285"/>
      </g>
      <g id="LWPOLYLINE-5" data-name="LWPOLYLINE">
         <rect class="cls-1"
               x="5.0504"
               y="136.5389"
               width="41.4692"
               height="41.4692"
               rx="4.1469"/>
      </g>
      <g id="LINE-22" data-name="LINE">
         <line class="cls-1"
               x1="18.5278"
               y1="209.1099"
               x2="10.234"
               y2="209.1099"/>
      </g>
      <g id="LINE-23" data-name="LINE">
         <line class="cls-1"
               x1="18.5278"
               y1="211.1834"
               x2="15.4177"
               y2="211.1834"/>
      </g>
      <g id="LINE-24" data-name="LINE">
         <line class="cls-1"
               x1="29.3098"
               y1="217.4037"
               x2="37.6037"
               y2="217.4037"/>
      </g>
      <g id="LINE-25" data-name="LINE">
         <line class="cls-1"
               x1="29.3098"
               y1="215.3303"
               x2="32.42"
               y2="215.3303"/>
      </g>
      <g id="LWPOLYLINE-6" data-name="LWPOLYLINE">
         <rect class="cls-1"
               x="7.1238"
               y="196.6692"
               width="33.1753"
               height="33.1753"
               rx="4.1469"/>
      </g>
      <g id="LWPOLYLINE-7" data-name="LWPOLYLINE">
         <rect class="cls-1"
               x="14.3809"
               y="203.7189"
               width="19.0758"
               height="18.8685"
               rx="3.1102"/>
      </g>
      <g id="LWPOLYLINE-8" data-name="LWPOLYLINE">
         <polygon class="cls-1"
                  points="18.528 217.404 10.234 217.404 14.381 209.11 18.528 217.404"/>
      </g>
      <g id="LWPOLYLINE-9" data-name="LWPOLYLINE">
         <polygon class="cls-1"
                  points="29.31 209.11 37.604 209.11 33.457 217.404 29.31 209.11"/>
      </g>
      <g id="LINE-26" data-name="LINE">
         <line class="cls-1"
               x1="138.7884"
               y1="209.1099"
               x2="130.4946"
               y2="209.1099"/>
      </g>
      <g id="LINE-27" data-name="LINE">
         <line class="cls-1"
               x1="138.7884"
               y1="211.1834"
               x2="135.6782"
               y2="211.1834"/>
      </g>
      <g id="LINE-28" data-name="LINE">
         <line class="cls-1"
               x1="149.5704"
               y1="217.4037"
               x2="157.8642"
               y2="217.4037"/>
      </g>
      <g id="LINE-29" data-name="LINE">
         <line class="cls-1"
               x1="149.5704"
               y1="215.3303"
               x2="152.6806"
               y2="215.3303"/>
      </g>
      <g id="LWPOLYLINE-10" data-name="LWPOLYLINE">
         <rect class="cls-1"
               x="127.3844"
               y="196.6692"
               width="33.1753"
               height="33.1753"
               rx="4.1469"/>
      </g>
      <g id="LWPOLYLINE-11" data-name="LWPOLYLINE">
         <rect class="cls-1"
               x="134.6415"
               y="203.7189"
               width="19.0758"
               height="18.8685"
               rx="3.1102"/>
      </g>
      <g id="LWPOLYLINE-12" data-name="LWPOLYLINE">
         <polygon class="cls-1"
                  points="138.788 217.404 130.495 217.404 134.642 209.11 138.788 217.404"/>
      </g>
      <g id="LWPOLYLINE-13" data-name="LWPOLYLINE">
         <polygon class="cls-1"
                  points="149.57 209.11 157.864 209.11 153.717 217.404 149.57 209.11"/>
      </g>
      <g id="LINE-30" data-name="LINE">
         <line class="cls-1"
               x1="132.4213"
               y1="103.3635"
               x2="159.5486"
               y2="67.7845"/>
      </g>
      <g id="LWPOLYLINE-14" data-name="LWPOLYLINE">
         <polyline class="cls-1" points="151.162 71.472 159.67 67.785 157.515 76.804"/>
      </g>
      <g id="LWPOLYLINE-15" data-name="LWPOLYLINE">
         <rect class="cls-1"
               x="9.1973"
               y="21.4619"
               width="29.0284"
               height="29.0284"
               rx="4.1469"/>
      </g>
      <g id="LWPOLYLINE-16" data-name="LWPOLYLINE">
         <rect class="cls-1"
               x="129.4579"
               y="21.0615"
               width="29.0284"
               height="29.0284"
               rx="4.1469"/>
      </g>
      <g id="LWPOLYLINE-17" data-name="LWPOLYLINE">
         <rect class="cls-1"
               x="213.4329"
               y="228.8078"
               width="29.0284"
               height="29.0284"
               rx="4.1469"/>
      </g>
      <g id="TEXT">
         <text class="cls-2" transform="translate(230.4046 238.9368)">ON</text>
      </g>
      <g id="TEXT-2" data-name="TEXT">
         <text class="cls-2" transform="translate(227.3148 254.9534)">OFF</text>
      </g>
      <g id="TEXT-3" data-name="TEXT">
         <text class="cls-3" transform="translate(42.4349 218.1531)">EA</text>
      </g>
      <g id="TEXT-4" data-name="TEXT">
         <text class="cls-3" transform="translate(162.3675 218.1531)">EN</text>
      </g>
      <g id="TEXT-5" data-name="TEXT">
         <text class="cls-2" transform="translate(24.1156 46.5711)">OFF</text>
      </g>
      <g id="TEXT-6" data-name="TEXT">
         <text class="cls-2" transform="translate(27.2064 30.5545)">ON</text>
      </g>
      <g id="TEXT-7" data-name="TEXT">
         <text class="cls-2" transform="translate(144.3754 46.1702)">OFF</text>
      </g>
      <g id="TEXT-8" data-name="TEXT">
         <text class="cls-2" transform="translate(147.4662 30.1536)">ON</text>
      </g>
      <g id="CIRCLE-4" data-name="CIRCLE">
         <path class="cls-4"
               d="M216.5431,238.1383a4.1469,4.1469,0,1,1,4.1469,4.1469,4.1469,4.1469,0,0,1-4.1469-4.1469Z"/>
      </g>
      <g id="CIRCLE-5" data-name="CIRCLE">
         <path class="cls-1"
               d="M216.5431,248.5056a4.1469,4.1469,0,1,1,4.1469,4.1469,4.1469,4.1469,0,0,1-4.1469-4.1469Z"/>
      </g>
      <g id="CIRCLE-6" data-name="CIRCLE">
         <path class="cls-4"
               d="M139.8251,187.3386a4.147,4.147,0,1,1,4.147,4.1469,4.1469,4.1469,0,0,1-4.147-4.1469Z"/>
      </g>
      <g id="CIRCLE-7" data-name="CIRCLE">
         <path class="cls-4"
               d="M19.5646,58.0839a4.1469,4.1469,0,1,1,4.1469,4.1469,4.1469,4.1469,0,0,1-4.1469-4.1469Z"/>
      </g>
      <g id="CIRCLE-8" data-name="CIRCLE">
         <path class="cls-1"
               d="M18.5278,58.0839a5.1837,5.1837,0,1,1,5.1837,5.1837,5.1837,5.1837,0,0,1-5.1837-5.1837Z"/>
      </g>
      <g id="CIRCLE-9" data-name="CIRCLE">
         <path class="cls-1"
               d="M18.5278,187.3386a5.1837,5.1837,0,1,1,5.1837,5.1836,5.1837,5.1837,0,0,1-5.1837-5.1836Z"/>
      </g>
      <g id="CIRCLE-10" data-name="CIRCLE">
         <path class="cls-4"
               d="M19.5646,187.3386a4.1469,4.1469,0,1,1,4.1469,4.1469,4.1469,4.1469,0,0,1-4.1469-4.1469Z"/>
      </g>
      <g id="CIRCLE-11" data-name="CIRCLE">
         <path class="cls-1"
               d="M138.7884,187.3386a5.1837,5.1837,0,1,1,5.1837,5.1836,5.1837,5.1837,0,0,1-5.1837-5.1836Z"/>
      </g>
      <g id="CIRCLE-12" data-name="CIRCLE">
         <path class="cls-1"
               d="M190.6249,214.2936a5.1837,5.1837,0,1,1,5.1836,5.1836,5.1837,5.1837,0,0,1-5.1836-5.1836Z"/>
      </g>
      <g id="CIRCLE-13" data-name="CIRCLE">
         <path class="cls-1"
               d="M191.6616,214.2936a4.1469,4.1469,0,1,1,4.1469,4.1469,4.1469,4.1469,0,0,1-4.1469-4.1469Z"/>
      </g>
      <g id="CIRCLE-14" data-name="CIRCLE">
         <path class="cls-4"
               d="M19.5646,170.7509a4.1469,4.1469,0,1,1,4.1469,4.147,4.1469,4.1469,0,0,1-4.1469-4.147Z"/>
      </g>
      <g id="CIRCLE-15" data-name="CIRCLE">
         <path class="cls-5"
               d="M33.0421,170.7509a4.1469,4.1469,0,1,1,4.1469,4.147,4.1469,4.1469,0,0,1-4.1469-4.147Z"/>
      </g>
      <g id="CIRCLE-16" data-name="CIRCLE">
         <path class="cls-4"
               d="M19.5646,214.2936a4.1469,4.1469,0,1,1,4.1469,4.1469,4.1469,4.1469,0,0,1-4.1469-4.1469Z"/>
      </g>
      <g id="CIRCLE-17" data-name="CIRCLE">
         <path class="cls-1"
               d="M139.8251,214.2936a4.147,4.147,0,1,1,4.147,4.1469,4.147,4.147,0,0,1-4.147-4.1469Z"/>
      </g>
      <g id="CIRCLE-18" data-name="CIRCLE">
         <path class="cls-4"
               d="M12.9827,29.7842A4.1469,4.1469,0,1,1,17.13,33.9311a4.1469,4.1469,0,0,1-4.1469-4.1469Z"/>
      </g>
      <g id="CIRCLE-19" data-name="CIRCLE">
         <path class="cls-1"
               d="M12.9827,40.1515A4.1469,4.1469,0,1,1,17.13,44.2984a4.1469,4.1469,0,0,1-4.1469-4.1469Z"/>
      </g>
      <g id="CIRCLE-20" data-name="CIRCLE">
         <path class="cls-4"
               d="M133.2433,29.3838a4.1469,4.1469,0,1,1,4.1469,4.1469,4.1469,4.1469,0,0,1-4.1469-4.1469Z"/>
      </g>
      <g id="CIRCLE-21" data-name="CIRCLE">
         <path class="cls-1"
               d="M133.2433,39.7511A4.1469,4.1469,0,1,1,137.39,43.898a4.1469,4.1469,0,0,1-4.1469-4.1469Z"/>
      </g>
   </g>
</svg>
