<?xml version="1.0" encoding="UTF-8"?>
<svg xmlns="http://www.w3.org/2000/svg"
     width="187.0822mm"
     height="124.522mm"
     viewBox="0 0 530.3117 352.9756">
   <defs>
      <style>
      .cls-1, .cls-4, .cls-5 {
        fill: none;
      }

      .cls-1 {
        stroke: #231f20;
      }

      .cls-1, .cls-4, .cls-5, .cls-6 {
        stroke-linecap: round;
      }

      .cls-1, .cls-5 {
        stroke-width: 0.5px;
      }

      .cls-2, .cls-3, .cls-7 {
        isolation: isolate;
        font-family: ArialMT, Arial;
      }

      .cls-2 {
        font-size: 6px;
      }

      .cls-3 {
        font-size: 9.9146px;
      }

      .cls-4 {
        stroke: #fff;
      }

      .cls-5, .cls-6 {
        stroke: #000;
      }

      .cls-6 {
        stroke-width: 0.106px;
      }

      .cls-7 {
        font-size: 16px;
        fill: #fff;
      }
    </style>
   </defs>
   <g id="Layer_1" data-name="Layer 1">
      <g id="b047e8b2-93b7-4c69-9396-6d12a34dc9e7">
         <path class="cls-1"
               d="M323.0883,167.5064h-6.3439a1.632,1.632,0,0,1-1.4245-2.4152q4.6113-8.3932,9.231-16.7952a1.6287,1.6287,0,0,1,2.8659.0255q4.4709,8.3934,8.9546,16.7868a1.6282,1.6282,0,0,1-1.4372,2.3981h-6.3864"/>
         <path class="cls-1"
               d="M323.6665,193.0692h-6.3481a1.6318,1.6318,0,0,0-1.4244,2.4151q4.6111,8.3934,9.2309,16.7953a1.6288,1.6288,0,0,0,2.8659-.0255q4.4837-8.3934,8.9546-16.7868a1.6281,1.6281,0,0,0-1.4371-2.3981h-6.3822"/>
         <line class="cls-1"
               x1="316.604"
               y1="239.1435"
               x2="337.073"
               y2="239.1435"/>
         <line class="cls-1"
               x1="316.2936"
               y1="252.9964"
               x2="337.073"
               y2="252.9964"/>
         <line class="cls-1"
               x1="319.759"
               y1="235.759"
               x2="319.759"
               y2="256.4575"/>
         <line class="cls-1"
               x1="333.6119"
               y1="235.6824"
               x2="333.6119"
               y2="256.4575"/>
         <path class="cls-1"
               d="M199.3475,241.8223q-2.2,2.1876-4.388,4.3837v-9.9283a9.8314,9.8314,0,0,0-7.5,3.2358,10.0705,10.0705,0,0,0-1.9644,10.7277,9.5583,9.5583,0,0,0,7.39,6.008,11.3529,11.3529,0,0,0,8.1936-1.6158,11.1175,11.1175,0,0,0,3.9926-7.8534,10.1016,10.1016,0,0,0-6.5608-9.92"/>
         <path class="cls-1"
               d="M196.3839,291.8806c3.1167-.0382,6.2292-.0637,9.3459-.0935a2.1649,2.1649,0,0,0,1.5307-.6548,2.1191,2.1191,0,0,0,.5442-1.569,2.1875,2.1875,0,0,0-.6675-1.4839,2.2313,2.2313,0,0,0-1.5223-.591h-14.89c.9524-.9482,1.8921-1.9092,2.8446-2.8616a1.7424,1.7424,0,0,0-.2977-2.0367,2.0646,2.0646,0,0,0-2.1387-.2764q-3.2655,2.9594-6.5268,5.91a1.7842,1.7842,0,0,0-.57,1.2245,1.8239,1.8239,0,0,0,.4592,1.2756q3.1508,2.9083,6.3014,5.8125a1.7035,1.7035,0,0,0,2.47-2.2153q-1.4413-1.518-2.8871-3.0487"/>
         <path class="cls-1"
               d="M242.0032,287.3353c-.17-2.1983-.3359-4.388-.4974-6.582a1.5736,1.5736,0,0,0-.54-1.0333,1.5339,1.5339,0,0,0-1.1056-.3444c-.2551.0128-.5144.0255-.7653.0383a1.5068,1.5068,0,0,0-1.2841,1.3181q-.3062,3.3229-.591,6.6416-3.1762-.791-6.3525-1.569a1.7291,1.7291,0,0,0-1.8155.625c-.14.3911-.2722.7908-.404,1.182a1.4054,1.4054,0,0,0,.57,1.4839q3.2145,1.384,6.4162,2.7723c-1.148,1.8708-2.2833,3.746-3.4313,5.6168a1.5287,1.5287,0,0,0,.3064,2.14l.004.0029c.2551.1616.5059.3275.7653.4891a1.7128,1.7128,0,0,0,2.0239-.4933q2.1558-2.5256,4.3158-5.0513c1.518,1.7731,3.0444,3.5461,4.5623,5.3192a1.5714,1.5714,0,0,0,1.9177.0766c.3359-.2679.6633-.5358.9992-.8079a1.59,1.59,0,0,0-.0383-1.4882c-1.2033-1.9347-2.3981-3.8693-3.6057-5.8039,2.1643-.9014,4.3158-1.7987,6.4715-2.6958a1.5651,1.5651,0,0,0,.6166-1.569c-.1149-.3827-.23-.77-.3487-1.1523a1.9488,1.9488,0,0,0-1.6838-.6463C246.3445,286.3106,244.1675,286.8208,242.0032,287.3353Z"/>
         <path class="cls-1" d="M289.8889,285.3751a7.3014,7.3014,0,0,0-13.3937,0"/>
         <path class="cls-1" d="M276.4952,294.232a6.8585,6.8585,0,0,0,13.16,0"/>
         <path class="cls-1" d="M276.4952,285.3751a13.8449,13.8449,0,0,0,0,8.8569"/>
         <path class="cls-1" d="M324.0322,287.1567a4.6637,4.6637,0,0,0-.1148,7.8491"/>
         <g>
            <path class="cls-1" d="M331.5879,291.12a4.6643,4.6643,0,0,0-2.1982-3.9628"/>
            <path class="cls-1" d="M329.5045,295.0058a4.6733,4.6733,0,0,0,2.0835-3.8863"/>
         </g>
         <path class="cls-1" d="M321.6086,283.2279a9.14,9.14,0,0,0-.2339,15.4729"/>
         <path class="cls-1" d="M319.3,279.3118a14.0805,14.0805,0,0,0-.23,23.5389"/>
         <g>
            <path class="cls-1" d="M336.2056,291.0345a9.1476,9.1476,0,0,0-4.3923-7.8067"/>
            <path class="cls-1" d="M332.0429,298.7008a9.1517,9.1517,0,0,0,4.1627-7.6663"/>
         </g>
         <g>
            <path class="cls-1"
                  d="M340.5894,291.1578a14.0961,14.0961,0,0,0-6.4673-11.846"/>
            <path class="cls-1"
                  d="M334.3517,302.8507a14.0718,14.0718,0,0,0,6.2377-11.6929"/>
         </g>
         <line class="cls-1"
               x1="311.6802"
               y1="299.3854"
               x2="340.9933"
               y2="282.5391"/>
         <text class="cls-2" transform="translate(222.8866 191.7064)">5</text>
         <text class="cls-2" transform="translate(266.7362 191.7064)">6</text>
         <text class="cls-2" transform="translate(222.8866 235.5658)">2</text>
         <text class="cls-2" transform="translate(222.8866 279.3123)">0</text>
         <text class="cls-2" transform="translate(266.7362 235.5658)">3</text>
         <text class="cls-2" transform="translate(179.0311 235.5658)">1</text>
         <text class="cls-2" transform="translate(266.7362 147.8509)">9</text>
         <text class="cls-2" transform="translate(222.8866 147.8509)">8</text>
         <text class="cls-2" transform="translate(179.0311 147.8509)">7</text>
         <text class="cls-2" transform="translate(179.0311 191.7064)">4</text>
         <polygon class="cls-1"
                  points="177.871 114.991 177.871 121.675 177.871 121.675 189.007 121.675 189.007 121.675 189.007 114.991 189.007 114.991 177.871 114.991"/>
         <path class="cls-1" d="M182.5522,77.1138a8.9081,8.9081,0,0,0,8.9036,8.9121"/>
         <line class="cls-1"
               x1="334.0499"
               y1="77.1138"
               x2="191.4558"
               y2="77.1138"/>
         <line class="cls-1"
               x1="334.0499"
               y1="86.0259"
               x2="191.4558"
               y2="86.0259"/>
         <line class="cls-1"
               x1="334.0499"
               y1="41.4653"
               x2="334.0499"
               y2="77.1138"/>
         <line class="cls-1"
               x1="342.9577"
               y1="41.4653"
               x2="342.9577"
               y2="77.1138"/>
         <line class="cls-1"
               x1="191.4558"
               y1="77.1138"
               x2="191.4558"
               y2="41.4653"/>
         <line class="cls-1"
               x1="182.5522"
               y1="77.1138"
               x2="182.5522"
               y2="41.4653"/>
         <path class="cls-1" d="M342.9577,41.4653a8.9117,8.9117,0,0,0-8.9078-8.9122"/>
         <path class="cls-1" d="M191.4558,32.5531a8.9082,8.9082,0,0,0-8.9036,8.9122"/>
         <line class="cls-1"
               x1="191.4558"
               y1="41.4653"
               x2="334.0499"
               y2="41.4653"/>
         <line class="cls-1"
               x1="191.4558"
               y1="32.5531"
               x2="334.0499"
               y2="32.5531"/>
         <path class="cls-1" d="M334.05,86.0259a8.9117,8.9117,0,0,0,8.9078-8.9121"/>
         <path class="cls-1" d="M372.5939,327.4526a8.9154,8.9154,0,0,0,8.9122-8.9121"/>
         <path class="cls-1" d="M144.2292,318.5405a8.9117,8.9117,0,0,0,8.9079,8.9121"/>
         <path class="cls-1"
               d="M381.5061,15.5367a8.9072,8.9072,0,0,0-8.9022-8.9121h-.01"/>
         <path class="cls-1"
               d="M153.1371,6.6246a8.9035,8.9035,0,0,0-8.9079,8.8992v.0129"/>
         <line class="cls-1"
               x1="381.5061"
               y1="15.5367"
               x2="381.5061"
               y2="318.5405"/>
         <line class="cls-1"
               x1="144.2292"
               y1="15.5367"
               x2="144.2292"
               y2="318.5405"/>
         <line class="cls-1"
               x1="153.1371"
               y1="6.6246"
               x2="372.5939"
               y2="6.6246"/>
         <line class="cls-1"
               x1="153.1371"
               y1="327.4526"
               x2="372.5939"
               y2="327.4526"/>
         <path class="cls-1"
               d="M182.42,307.2387h25.397a4.6164,4.6164,0,0,0,4.6134-4.6176V277.2284a4.6165,4.6165,0,0,0-4.6134-4.6177H182.42a4.6093,4.6093,0,0,0-4.6134,4.6051v25.4053a4.6092,4.6092,0,0,0,4.6008,4.6176Z"/>
         <path class="cls-1"
               d="M226.2752,307.2387h25.397a4.6237,4.6237,0,0,0,4.6134-4.6176V277.2284a4.6238,4.6238,0,0,0-4.6134-4.6177h-25.397a4.6238,4.6238,0,0,0-4.6134,4.6177v25.3927A4.6237,4.6237,0,0,0,226.2752,307.2387Z"/>
         <path class="cls-1"
               d="M270.13,307.2387h25.397a4.6237,4.6237,0,0,0,4.6134-4.6176V277.2284a4.6238,4.6238,0,0,0-4.6134-4.6177H270.13a4.6165,4.6165,0,0,0-4.6134,4.6177v25.3927A4.6164,4.6164,0,0,0,270.13,307.2387Z"/>
         <path class="cls-1"
               d="M313.9891,307.2387h25.3927a4.6091,4.6091,0,0,0,4.6134-4.605V277.2284a4.6092,4.6092,0,0,0-4.6007-4.6177H313.9891a4.6166,4.6166,0,0,0-4.6177,4.6153v25.3951a4.6164,4.6164,0,0,0,4.6153,4.6176h.0024Z"/>
         <path class="cls-1"
               d="M182.42,263.3839h25.397a4.6164,4.6164,0,0,0,4.6134-4.6176V233.3736a4.6164,4.6164,0,0,0-4.6134-4.6176H182.42a4.6092,4.6092,0,0,0-4.6134,4.605v25.4053a4.6092,4.6092,0,0,0,4.6008,4.6176Z"/>
         <path class="cls-1"
               d="M226.2752,263.3839h25.397a4.6237,4.6237,0,0,0,4.6134-4.6176V233.3736a4.6237,4.6237,0,0,0-4.6134-4.6176h-25.397a4.6237,4.6237,0,0,0-4.6134,4.6176v25.3927A4.6237,4.6237,0,0,0,226.2752,263.3839Z"/>
         <path class="cls-1"
               d="M270.13,263.3839h25.397a4.6237,4.6237,0,0,0,4.6134-4.6176V233.3736a4.6237,4.6237,0,0,0-4.6134-4.6176H270.13a4.6164,4.6164,0,0,0-4.6134,4.6176v25.3927A4.6164,4.6164,0,0,0,270.13,263.3839Z"/>
         <path class="cls-1"
               d="M313.9891,263.3839h25.3927a4.6091,4.6091,0,0,0,4.6134-4.605V233.3736a4.609,4.609,0,0,0-4.6007-4.6176H313.9891a4.6164,4.6164,0,0,0-4.6177,4.6152v25.3951a4.6164,4.6164,0,0,0,4.6153,4.6176h.0024Z"/>
         <path class="cls-1"
               d="M182.42,219.5292h25.397a4.6165,4.6165,0,0,0,4.6134-4.6176V189.5188a4.6164,4.6164,0,0,0-4.6134-4.6176H182.42a4.6092,4.6092,0,0,0-4.6134,4.605v25.4053a4.6093,4.6093,0,0,0,4.6008,4.6177Z"/>
         <path class="cls-1"
               d="M226.2752,219.5292h25.397a4.6238,4.6238,0,0,0,4.6134-4.6176V189.5188a4.6237,4.6237,0,0,0-4.6134-4.6176h-25.397a4.6237,4.6237,0,0,0-4.6134,4.6176v25.3927a4.6239,4.6239,0,0,0,4.6134,4.6177Z"/>
         <path class="cls-1"
               d="M270.13,219.5293h25.397a4.6238,4.6238,0,0,0,4.6134-4.6177V189.5189a4.6238,4.6238,0,0,0-4.6134-4.6177H270.13a4.6165,4.6165,0,0,0-4.6134,4.6177v25.3927a4.6165,4.6165,0,0,0,4.6134,4.6176Z"/>
         <path class="cls-1"
               d="M313.9891,219.5292h25.3927a4.6092,4.6092,0,0,0,4.6134-4.605V189.5188a4.6091,4.6091,0,0,0-4.6008-4.6176H313.9891a4.6164,4.6164,0,0,0-4.6177,4.6152v25.3951a4.6166,4.6166,0,0,0,4.6153,4.6177h.0024Z"/>
         <path class="cls-1"
               d="M182.42,175.6744h25.397a4.6165,4.6165,0,0,0,4.6134-4.6176V145.664a4.6237,4.6237,0,0,0-4.6134-4.6176H182.42a4.6164,4.6164,0,0,0-4.6134,4.6176v25.3928a4.6093,4.6093,0,0,0,4.6008,4.6176Z"/>
         <path class="cls-1"
               d="M226.2752,175.6744h25.397a4.6237,4.6237,0,0,0,4.6134-4.6176V145.664a4.6309,4.6309,0,0,0-4.6134-4.6176h-25.397a4.6309,4.6309,0,0,0-4.6134,4.6176v25.3928A4.6237,4.6237,0,0,0,226.2752,175.6744Z"/>
         <path class="cls-1"
               d="M270.13,175.6744h25.397a4.6237,4.6237,0,0,0,4.6134-4.6176V145.664a4.6309,4.6309,0,0,0-4.6134-4.6176H270.13a4.6237,4.6237,0,0,0-4.6134,4.6176v25.3928A4.6165,4.6165,0,0,0,270.13,175.6744Z"/>
         <path class="cls-1"
               d="M313.9891,175.6744h25.3927a4.6092,4.6092,0,0,0,4.6134-4.605V145.664a4.6163,4.6163,0,0,0-4.6134-4.6176H313.9891a4.6237,4.6237,0,0,0-4.6177,4.6176v25.3928a4.6165,4.6165,0,0,0,4.6153,4.6176h.0024Z"/>
      </g>
      <path class="cls-1"
            d="M98.6158,243.3893h4.142a4.6008,4.6008,0,0,0,4.5993-4.6024V206.58a4.6008,4.6008,0,0,0-4.5986-4.6031H70.5476a4.6009,4.6009,0,0,0-4.6031,4.5987v32.2109a4.6009,4.6009,0,0,0,4.5987,4.6031h4.5812"/>
      <path class="cls-1"
            d="M70.5476,296.3058h32.21a4.5944,4.5944,0,0,0,4.5994-4.5895V259.5a4.6074,4.6074,0,0,0-4.5994-4.6068h-32.21A4.6073,4.6073,0,0,0,65.9445,259.5v32.2065a4.5944,4.5944,0,0,0,4.59,4.5993Z"/>
      <path class="cls-1"
            d="M98.1585,190.469h4.5993a4.5946,4.5946,0,0,0,4.5994-4.59V153.6556a4.5944,4.5944,0,0,0-4.5934-4.5955H70.5476a4.5945,4.5945,0,0,0-4.6031,4.5858v32.2275a4.5945,4.5945,0,0,0,4.5933,4.5956H74.66"/>
      <path class="cls-1"
            d="M98.1585,220.3852a11.5039,11.5039,0,1,0-11.5077,11.5,11.5039,11.5039,0,0,0,11.5077-11.5"/>
      <line class="cls-1"
            x1="86.6508"
            y1="178.9688"
            x2="86.6508"
            y2="155.9572"/>
      <path class="cls-1"
            d="M84.5442,271.0265a1.9581,1.9581,0,0,1-1.9679-1.9418v-.0487a1.9123,1.9123,0,0,1,.5885-1.3044,1.9641,1.9641,0,0,1,1.3307-.521.7107.7107,0,0,0,.1237.0075q7.6187-.0282,15.2224-.0525a2.7721,2.7721,0,0,0,.3036-.0113,1.5484,1.5484,0,0,1,1.6231,1.8293,3.0826,3.0826,0,0,0-.0563.416,1.8912,1.8912,0,0,1-1.5556,1.5481l-.1012.0075H99.0244a4.6009,4.6009,0,0,0-4.6031,4.5881q-.0168,6.23-.0412,12.471a.7284.7284,0,0,1-.0112.1574,2.188,2.188,0,0,1-2.264,1.8818.6185.6185,0,0,0-.12-.0075,2.1761,2.1761,0,0,1-2.1516-2.1516V273.6766a2.6621,2.6621,0,0,0-2.6464-2.65Z"/>
      <path class="cls-1"
            d="M84.6792,264.0281a2.6957,2.6957,0,0,0-1.4357-2.05c-.0412-.0225-.1162-.0562-.1162-.0562a6.9184,6.9184,0,0,0-7.3244.6147c-.0487.0412-.09.0751-.135.1088a7.8693,7.8693,0,0,0-2.7738,5.2327c-.0038.0451-.0038.0825-.0113.1275a5.8481,5.8481,0,0,0,1.26,4.232l.0337.0375a1.7793,1.7793,0,0,0,1.5519.611,1.1932,1.1932,0,0,1,.431.0225,1.7962,1.7962,0,0,1,.0338,3.486"/>
      <path class="cls-1"
            d="M80.7808,286.7248a3.98,3.98,0,0,1-3.2424.1987A1.4787,1.4787,0,0,1,77.31,286.8a1.7632,1.7632,0,0,1-.6823-1.0233,1.2067,1.2067,0,0,1,.2324-.9709,1.3219,1.3219,0,0,1,1.102-.446,3.9467,3.9467,0,0,0,.4686.03c.8734.0113,1.743.0225,2.6164.0412q.1463,0,.2924.0113a1.8134,1.8134,0,0,0,1.6793-1.0646,1.3338,1.3338,0,0,0,.075-.39,1.7775,1.7775,0,0,0-1.0234-1.5519,1.2187,1.2187,0,0,0-.4085-.0824c-1.297-.0338-2.6052-.0751-3.9059-.1087a1.1334,1.1334,0,0,1-.7084-.27,1.803,1.803,0,0,1-.5286-.75,1.1865,1.1865,0,0,1,.0713-.9446,1.5947,1.5947,0,0,1,1.2632-.7909H77.94c1.1433.0337,2.294.0674,3.4335.1012.0975.0074.1912.0112.2887.0187a.7743.7743,0,0,0,.5922-.1986.8318.8318,0,0,0,.2474-.5886c0-.045-.0075-.09-.0075-.1274q0-1.4394-.0037-2.8676a1.3469,1.3469,0,0,1,.0262-.2436,1.6,1.6,0,0,1,1.2482-1.1508"/>
      <text class="cls-3" transform="translate(77.7601 243.6901)">OFF</text>
      <text class="cls-3" transform="translate(78.9711 190.7721)">ON</text>
      <path class="cls-1" d="M43.4689,318.0468a8.8858,8.8858,0,0,0,8.8838,8.8838"/>
      <path class="cls-1"
            d="M52.2927,6.2974A8.8833,8.8833,0,0,0,43.4089,15.18v.0008"/>
      <line class="cls-1"
            x1="43.409"
            y1="15.1811"
            x2="43.4089"
            y2="318.0468"/>
      <line class="cls-1"
            x1="52.2927"
            y1="6.2974"
            x2="153.1371"
            y2="6.6246"/>
      <line class="cls-1"
            x1="52.3527"
            y1="326.9306"
            x2="153.1371"
            y2="327.4526"/>
   </g>
   <g id="Layer_2" data-name="Layer 2">
      <g>
         <line class="cls-4"
               x1="338.9952"
               y1="258.3839"
               x2="396.512"
               y2="230.7687"/>
         <line class="cls-5"
               x1="396.512"
               y1="230.7687"
               x2="338.9952"
               y2="258.3839"/>
         <circle class="cls-6" cx="396.512" cy="230.7687" r="9.5"/>
         <text class="cls-7" transform="translate(390.2895 236.3008)">G</text>
      </g>
      <g>
         <line class="cls-4"
               x1="338.9952"
               y1="302.2387"
               x2="396.512"
               y2="274.6235"/>
         <line class="cls-5"
               x1="396.512"
               y1="274.6235"
               x2="338.9952"
               y2="302.2387"/>
         <circle class="cls-6" cx="396.512" cy="274.6235" r="9.5"/>
         <text class="cls-7" transform="translate(390.7348 280.1555)">H</text>
      </g>
      <g>
         <circle class="cls-6" cx="238.9737" cy="246.0637" r="9.5"/>
         <text class="cls-7" transform="translate(232.3714 251.5958)">M</text>
      </g>
      <g>
         <circle class="cls-6" cx="283.1636" cy="246.064" r="9.5"/>
         <text class="cls-7" transform="translate(277.3917 251.5287)">N</text>
      </g>
      <g>
         <circle class="cls-6" cx="239.0356" cy="201.9984" r="9.5"/>
         <text class="cls-7" transform="translate(233.6377 207.5305)">P</text>
      </g>
      <g>
         <circle class="cls-6" cx="239.0356" cy="157.48" r="9.5"/>
         <text class="cls-7" transform="translate(233.6377 163.0121)">S</text>
      </g>
      <g>
         <circle class="cls-6" cx="194.9075" cy="201.9984" r="9.5"/>
         <text class="cls-7" transform="translate(188.6229 207.5305)">O</text>
      </g>
      <g>
         <circle class="cls-6" cx="194.9075" cy="157.48" r="9.5"/>
         <text class="cls-7" transform="translate(189.0682 163.0121)">R</text>
      </g>
      <g>
         <circle class="cls-6" cx="283.1636" cy="201.9985" r="9.5"/>
         <text class="cls-7" transform="translate(276.879 207.5306)">Q</text>
      </g>
      <g>
         <circle class="cls-6" cx="283.1636" cy="157.48" r="9.5"/>
         <text class="cls-7" transform="translate(278.215 163.0121)">T</text>
      </g>
      <g>
         <line class="cls-4"
               x1="338.9952"
               y1="214.5292"
               x2="396.512"
               y2="186.914"/>
         <line class="cls-5"
               x1="396.512"
               y1="186.914"
               x2="338.9952"
               y2="214.5292"/>
         <circle class="cls-6" cx="396.512" cy="186.914" r="9.5"/>
         <text class="cls-7" transform="translate(391.6255 192.4461)">F</text>
      </g>
      <g>
         <line class="cls-4"
               x1="338.9952"
               y1="170.6745"
               x2="396.512"
               y2="143.0593"/>
         <line class="cls-5"
               x1="396.512"
               y1="143.0593"
               x2="338.9952"
               y2="170.6745"/>
         <circle class="cls-6" cx="396.512" cy="143.0593" r="9.5"/>
         <text class="cls-7" transform="translate(391.1762 148.5913)">E</text>
      </g>
      <g>
         <line class="cls-4"
               x1="182.5603"
               y1="258.4438"
               x2="127.8895"
               y2="230.8286"/>
         <line class="cls-5"
               x1="127.8895"
               y1="230.8286"
               x2="182.5603"
               y2="258.4438"/>
         <circle class="cls-6" cx="127.8895" cy="230.8286" r="9.5"/>
         <text class="cls-7" transform="translate(123.4403 236.3607)">L</text>
      </g>
      <g>
         <line class="cls-4"
               x1="182.5603"
               y1="118.685"
               x2="127.8895"
               y2="91.0698"/>
         <line class="cls-5"
               x1="127.8895"
               y1="91.0698"
               x2="182.5603"
               y2="118.685"/>
         <circle class="cls-6" cx="127.8895" cy="91.0698" r="9.5"/>
         <text class="cls-7" transform="translate(122.1122 96.6019)">U</text>
      </g>
      <g>
         <line class="cls-4"
               x1="182.5603"
               y1="301.7854"
               x2="127.8895"
               y2="274.1702"/>
         <line class="cls-5"
               x1="127.8895"
               y1="274.1702"
               x2="182.5603"
               y2="301.7854"/>
         <circle class="cls-6" cx="127.8895" cy="274.1702" r="9.5"/>
         <text class="cls-7" transform="translate(122.5536 279.7023)">K</text>
      </g>
      <g>
         <line class="cls-4"
               x1="70.9445"
               y1="291.3058"
               x2="16.2738"
               y2="263.6906"/>
         <line class="cls-5"
               x1="16.2738"
               y1="263.6906"
               x2="70.9445"
               y2="291.3058"/>
         <circle class="cls-6" cx="16.2738" cy="263.6906" r="9.5"/>
         <text class="cls-7" transform="translate(10.9379 269.2227)">A</text>
      </g>
      <g>
         <line class="cls-4"
               x1="70.9445"
               y1="238.3893"
               x2="16.2738"
               y2="210.7741"/>
         <line class="cls-5"
               x1="16.2738"
               y1="210.7741"
               x2="70.9445"
               y2="238.3893"/>
         <circle class="cls-6" cx="16.2738" cy="210.7741" r="9.5"/>
         <text class="cls-7" transform="translate(10.9379 216.3062)">B</text>
      </g>
      <g>
         <line class="cls-4"
               x1="70.9445"
               y1="185.469"
               x2="16.2738"
               y2="157.8537"/>
         <line class="cls-5"
               x1="16.2738"
               y1="157.8537"
               x2="70.9445"
               y2="185.469"/>
         <circle class="cls-6" cx="16.2738" cy="157.8537" r="9.5"/>
         <text class="cls-7" transform="translate(10.4964 163.3858)">C</text>
      </g>
      <g>
         <line class="cls-4"
               x1="329.0499"
               y1="72.1138"
               x2="397.6535"
               y2="39.1755"/>
         <line class="cls-5"
               x1="397.6535"
               y1="39.1755"
               x2="329.0499"
               y2="72.1138"/>
         <circle class="cls-6" cx="397.6535" cy="39.1755" r="9.5"/>
         <text class="cls-7" transform="translate(391.876 44.7075)">D</text>
      </g>
      <g>
         <line class="cls-4"
               x1="208.1451"
               y1="337.854"
               x2="226.6618"
               y2="302.2387"/>
         <line class="cls-5"
               x1="226.6618"
               y1="302.2387"
               x2="208.1451"
               y2="337.854"/>
         <circle class="cls-6" cx="207.6618" cy="338.2387" r="9.5"/>
         <text class="cls-7" transform="translate(203.6617 343.7709)">J</text>
      </g>
      <g>
         <line class="cls-4"
               x1="251.9999"
               y1="337.854"
               x2="270.5166"
               y2="302.2387"/>
         <line class="cls-5"
               x1="270.5166"
               y1="302.2387"
               x2="251.9999"
               y2="337.854"/>
         <circle class="cls-6" cx="251.5166" cy="338.2387" r="9.5"/>
         <text class="cls-7" transform="translate(249.2942 343.7709)">I</text>
      </g>
   </g>
</svg>
