<?xml version="1.0" encoding="UTF-8"?>
<svg xmlns="http://www.w3.org/2000/svg"
     width="70.07371mm"
     height="56.22073mm"
     viewBox="0 0 198.63415 159.36585">
   <title>Modbus-Wiring_Diagrams</title>
   <g id="ba112da5-4eb5-43f6-b93a-90a64c508a4c" data-name="Layer 1">
      <g>
         <rect x="40.75839"
               y="52.29505"
               width="14.17323"
               height="14.17323"
               fill="#fff"
               stroke="#231f20"
               stroke-miterlimit="10"/>
         <text transform="translate(20.08438 66.46814)"
               font-size="12"
               fill="#231f20"
               font-family="ArialMT, Arial">D+</text>
         <rect x="40.75839"
               y="72.29505"
               width="14.17323"
               height="14.17323"
               fill="#fff"
               stroke="#231f20"
               stroke-miterlimit="10"/>
         <text transform="translate(23.0961 86.46814)"
               font-size="12"
               fill="#231f20"
               font-family="ArialMT, Arial">D-</text>
         <rect x="40.75839"
               y="97.29505"
               width="14.17323"
               height="14.17323"
               fill="#fff"
               stroke="#231f20"
               stroke-miterlimit="10"/>
         <text transform="translate(10.42227 111.46814)"
               font-size="12"
               fill="#231f20"
               font-family="ArialMT, Arial">Com</text>
         <rect x="40.75839"
               y="117.29505"
               width="14.17323"
               height="14.17323"
               fill="#fff"
               stroke="#231f20"
               stroke-miterlimit="10"/>
         <text transform="translate(13.07657 131.46814)"
               font-size="12"
               fill="#231f20"
               font-family="ArialMT, Arial">Gnd</text>
      </g>
      <rect x="120.74515"
            y="72.9817"
            width="14.17323"
            height="14.17323"
            fill="#fff"
            stroke="#231f20"
            stroke-miterlimit="10"/>
      <rect x="120.74515"
            y="97.9817"
            width="14.17323"
            height="14.17323"
            fill="#fff"
            stroke="#231f20"
            stroke-miterlimit="10"/>
      <text transform="translate(124.4949 62.88158)"
            font-size="12"
            fill="#231f20"
            font-family="ArialMT, Arial">0</text>
      <text transform="translate(124.4949 137.60995)"
            font-size="12"
            fill="#231f20"
            font-family="ArialMT, Arial">0</text>
      <rect x="145.74515"
            y="72.9817"
            width="14.17323"
            height="14.17323"
            fill="#fff"
            stroke="#231f20"
            stroke-miterlimit="10"/>
      <rect x="145.74515"
            y="97.9817"
            width="14.17323"
            height="14.17323"
            fill="#fff"
            stroke="#231f20"
            stroke-miterlimit="10"/>
      <text transform="translate(149.49489 62.88158)"
            font-size="12"
            fill="#231f20"
            font-family="ArialMT, Arial">1</text>
      <text transform="translate(149.49489 137.60995)"
            font-size="12"
            fill="#231f20"
            font-family="ArialMT, Arial">1</text>
      <rect x="170.74515"
            y="72.9817"
            width="14.17323"
            height="14.17323"
            fill="#fff"
            stroke="#231f20"
            stroke-miterlimit="10"/>
      <rect x="170.74515"
            y="97.9817"
            width="14.17323"
            height="14.17323"
            fill="#fff"
            stroke="#231f20"
            stroke-miterlimit="10"/>
      <g>
         <path d="M177.21651,44.87012l1.13672.28711A3.82648,3.82648,0,0,1,177.0671,47.293a3.5438,3.5438,0,0,1-2.27051.73535,4.08016,4.08016,0,0,1-2.25879-.56543,3.53062,3.53062,0,0,1-1.32422-1.63769,5.84346,5.84346,0,0,1-.4541-2.30274,5.06163,5.06163,0,0,1,.5127-2.34082,3.51275,3.51275,0,0,1,1.459-1.51758,4.26293,4.26293,0,0,1,2.083-.51855,3.52143,3.52143,0,0,1,2.168.65625,3.408,3.408,0,0,1,1.22461,1.8457l-1.11915.26367a2.65463,2.65463,0,0,0-.86718-1.36523,2.31083,2.31083,0,0,0-1.42969-.42774,2.77715,2.77715,0,0,0-1.65527.47461,2.50628,2.50628,0,0,0-.93457,1.27442,5.13062,5.13062,0,0,0-.26954,1.64941,5.24156,5.24156,0,0,0,.31934,1.91309,2.37885,2.37885,0,0,0,.99316,1.22168,2.78539,2.78539,0,0,0,1.459.40429,2.4448,2.4448,0,0,0,1.61719-.55078A2.81875,2.81875,0,0,0,177.21651,44.87012Z"
               fill="#231f20"/>
         <path d="M179.61885,47.88184V39.292h1.05469v3.082a2.35619,2.35619,0,0,1,1.86328-.85547,2.51259,2.51259,0,0,1,1.20118.27247,1.59976,1.59976,0,0,1,.72949.75293,3.471,3.471,0,0,1,.21972,1.39453v3.94336h-1.05468V43.93848a1.62932,1.62932,0,0,0-.34278-1.15137,1.27455,1.27455,0,0,0-.96972-.36035,1.70991,1.70991,0,0,0-.88184.24316,1.37344,1.37344,0,0,0-.58887.65918,3.02774,3.02774,0,0,0-.17578,1.14844v3.4043Z"
               fill="#231f20"/>
         <path d="M171.43624,58.9126V57.90479l3.63867-.00586v3.1875a6.42519,6.42519,0,0,1-1.72852,1.00488,5.12659,5.12659,0,0,1-1.82812.33691,4.878,4.878,0,0,1-2.29981-.542,3.58281,3.58281,0,0,1-1.56152-1.56738,4.93512,4.93512,0,0,1-.52734-2.291A5.31614,5.31614,0,0,1,167.654,55.687a3.48763,3.48763,0,0,1,1.50879-1.61426,4.72832,4.72832,0,0,1,2.26758-.52734,4.49282,4.49282,0,0,1,1.68457.30176,2.7929,2.7929,0,0,1,1.18066.84082,3.7293,3.7293,0,0,1,.65039,1.40625l-1.02539.28125a3.17342,3.17342,0,0,0-.48047-1.03125,1.971,1.971,0,0,0-.82031-.60059,3.0084,3.0084,0,0,0-1.18359-.22558,3.48516,3.48516,0,0,0-1.34766.2373,2.51521,2.51521,0,0,0-.917.624,2.97578,2.97578,0,0,0-.542.84961,4.49552,4.49552,0,0,0-.32813,1.72852,4.19406,4.19406,0,0,0,.39551,1.92187,2.53116,2.53116,0,0,0,1.15137,1.14844,3.5647,3.5647,0,0,0,1.60547.375,3.81394,3.81394,0,0,0,1.4414-.28418,3.72014,3.72014,0,0,0,1.06641-.60644V58.9126Z"
               fill="#231f20"/>
         <path d="M176.61593,62.28174V56.05908h.94921v.88477a2.23685,2.23685,0,0,1,1.98047-1.02539,2.598,2.598,0,0,1,1.03418.20215,1.62664,1.62664,0,0,1,.70606.53027,2.03539,2.03539,0,0,1,.32812.7793,6.03925,6.03925,0,0,1,.0586,1.02539v3.82617h-1.05469V58.49658a2.8414,2.8414,0,0,0-.12305-.96387,1.01384,1.01384,0,0,0-.43652-.50976,1.38855,1.38855,0,0,0-.73535-.19043,1.70878,1.70878,0,0,0-1.16309.42773,2.11008,2.11008,0,0,0-.48926,1.623v3.39844Z"
               fill="#231f20"/>
         <path d="M187.32686,62.28174v-.78516a1.93543,1.93543,0,0,1-1.74023.92578,2.44027,2.44027,0,0,1-1.36817-.41015,2.69726,2.69726,0,0,1-.96679-1.14551,3.95907,3.95907,0,0,1-.34278-1.69043,4.42451,4.42451,0,0,1,.31055-1.69043,2.44935,2.44935,0,0,1,.93164-1.16309,2.49077,2.49077,0,0,1,1.38867-.40429,2.07508,2.07508,0,0,1,1.7168.85547v-3.082h1.04883v8.58985Zm-3.334-3.10547a2.70248,2.70248,0,0,0,.5039,1.78711,1.51945,1.51945,0,0,0,1.18946.5918,1.4916,1.4916,0,0,0,1.1748-.56543,2.60685,2.60685,0,0,0,.4834-1.72559,2.92623,2.92623,0,0,0-.49219-1.875,1.51385,1.51385,0,0,0-1.21289-.59766,1.4613,1.4613,0,0,0-1.1748.57422A2.8341,2.8341,0,0,0,183.99288,59.17627Z"
               fill="#231f20"/>
      </g>
      <text transform="translate(165.16384 137.60995)"
            font-size="12"
            fill="#231f20"
            font-family="ArialMT, Arial">Com</text>
      <text transform="translate(128.33198 47.88149)"
            font-size="12"
            fill="#231f20"
            font-family="ArialMT, Arial">TXD</text>
      <text transform="translate(127.66401 153.00011)"
            font-size="12"
            fill="#231f20"
            font-family="ArialMT, Arial">RXD</text>
      <g>
         <path d="M26.1169,19.07324V10.4834h1.71094l2.0332,6.082q.28125.84962.41016,1.27148.14647-.46875.457-1.377l2.05664-5.97656h1.5293v8.58984H33.21846V11.88379l-2.49609,7.18945H29.697l-2.48438-7.3125v7.3125Z"
               fill="#231f20"/>
         <path d="M35.62081,15.96191a3.20733,3.20733,0,0,1,.96094-2.56054,2.8955,2.8955,0,0,1,1.957-.69141,2.79183,2.79183,0,0,1,2.09765.84082,3.19887,3.19887,0,0,1,.81446,2.32324,4.11648,4.11648,0,0,1-.36036,1.88965A2.55086,2.55086,0,0,1,40.04171,18.833a3.05365,3.05365,0,0,1-1.50293.38086,2.7971,2.7971,0,0,1-2.11231-.83789A3.34683,3.34683,0,0,1,35.62081,15.96191Zm1.084,0a2.65044,2.65044,0,0,0,.52149,1.79,1.73636,1.73636,0,0,0,2.61914-.00293,2.71326,2.71326,0,0,0,.52148-1.82226,2.571,2.571,0,0,0-.52441-1.749,1.73877,1.73877,0,0,0-2.61621-.00293A2.63854,2.63854,0,0,0,36.70479,15.96191Z"
               fill="#231f20"/>
         <path d="M46.72432,19.07324v-.78515a1.93545,1.93545,0,0,1-1.74023.92578,2.44017,2.44017,0,0,1-1.36816-.41016,2.69715,2.69715,0,0,1-.9668-1.14551,3.959,3.959,0,0,1-.34278-1.69043,4.42451,4.42451,0,0,1,.31055-1.69043,2.44927,2.44927,0,0,1,.93164-1.16308,2.4908,2.4908,0,0,1,1.38867-.4043,2.07515,2.07515,0,0,1,1.7168.85547v-3.082h1.04883v8.58984Zm-3.334-3.10547a2.7024,2.7024,0,0,0,.50391,1.78711,1.51942,1.51942,0,0,0,1.18945.5918,1.4916,1.4916,0,0,0,1.1748-.56543,2.60683,2.60683,0,0,0,.4834-1.72559,2.92623,2.92623,0,0,0-.49219-1.875,1.51386,1.51386,0,0,0-1.21289-.59765,1.46127,1.46127,0,0,0-1.1748.57422A2.83411,2.83411,0,0,0,43.39034,15.96777Z"
               fill="#231f20"/>
         <path d="M50.3337,19.07324h-.97852V10.4834h1.05469v3.06445A2.08693,2.08693,0,0,1,52.115,12.71a2.61134,2.61134,0,0,1,1.08691.23145,2.21951,2.21951,0,0,1,.84375.65039,3.14375,3.14375,0,0,1,.51856,1.01074,4.16716,4.16716,0,0,1,.1875,1.26562,3.55457,3.55457,0,0,1-.791,2.47266,2.47409,2.47409,0,0,1-1.89844.873A1.98145,1.98145,0,0,1,50.3337,18.294ZM50.322,15.915a3.22959,3.22959,0,0,0,.30469,1.61719,1.5075,1.5075,0,0,0,2.543.21386,2.72916,2.72916,0,0,0,.5039-1.79,2.77632,2.77632,0,0,0-.4834-1.79882,1.47212,1.47212,0,0,0-1.16894-.58008,1.51688,1.51688,0,0,0-1.19531.60058A2.63653,2.63653,0,0,0,50.322,15.915Z"
               fill="#231f20"/>
         <path d="M60.113,19.07324v-.91406a2.27763,2.27763,0,0,1-1.97461,1.05469,2.51637,2.51637,0,0,1-1.02832-.21094,1.69381,1.69381,0,0,1-.709-.53027,1.98728,1.98728,0,0,1-.32519-.78223,5.35536,5.35536,0,0,1-.06446-.98438V12.85059h1.05469v3.45117a6.15013,6.15013,0,0,0,.06445,1.11328,1.1,1.1,0,0,0,.42188.65332,1.3071,1.3071,0,0,0,.79687.2373A1.73585,1.73585,0,0,0,59.24,18.0625a1.35208,1.35208,0,0,0,.58887-.66211,3.3225,3.3225,0,0,0,.17285-1.21582v-3.334h1.05468v6.22265Z"
               fill="#231f20"/>
         <path d="M62.28682,17.21582l1.043-.16406a1.45777,1.45777,0,0,0,.48926.96094,1.70529,1.70529,0,0,0,1.12207.334,1.64846,1.64846,0,0,0,1.07813-.2959.8849.8849,0,0,0,.35156-.69433.64055.64055,0,0,0-.31055-.5625,4.57407,4.57407,0,0,0-1.07812-.35743,9.8379,9.8379,0,0,1-1.6084-.50683,1.53516,1.53516,0,0,1-.91114-1.42676,1.60269,1.60269,0,0,1,.19043-.77051,1.70762,1.70762,0,0,1,.51856-.58887,2.1739,2.1739,0,0,1,.6709-.30761,3.19006,3.19006,0,0,1,.91113-.126,3.60142,3.60142,0,0,1,1.28613.21094,1.74929,1.74929,0,0,1,.81739.57129,2.2324,2.2324,0,0,1,.36328.96386l-1.03125.14063a1.128,1.128,0,0,0-.40723-.75,1.48948,1.48948,0,0,0-.95215-.26953,1.72434,1.72434,0,0,0-1.03711.24023.6994.6994,0,0,0-.31054.5625.58216.58216,0,0,0,.1289.36914.93015.93015,0,0,0,.4043.28125q.15821.05861.93164.26953a12.97,12.97,0,0,1,1.56152.48926,1.58435,1.58435,0,0,1,.69434.55371,1.54558,1.54558,0,0,1,.252.90235,1.77078,1.77078,0,0,1-.30761.99316,1.98821,1.98821,0,0,1-.8877.7207,3.23106,3.23106,0,0,1-1.3125.25489A2.92384,2.92384,0,0,1,63.09835,18.71,2.34336,2.34336,0,0,1,62.28682,17.21582Z"
               fill="#231f20"/>
         <path d="M27.6169,30.46143l1.13672.28711a3.82648,3.82648,0,0,1-1.28613,2.13574,3.5438,3.5438,0,0,1-2.27051.73535,4.08016,4.08016,0,0,1-2.25879-.56543A3.53059,3.53059,0,0,1,21.614,31.4165a5.84337,5.84337,0,0,1-.4541-2.30273,5.0616,5.0616,0,0,1,.5127-2.34082,3.51264,3.51264,0,0,1,1.459-1.51758,4.263,4.263,0,0,1,2.083-.51855,3.52143,3.52143,0,0,1,2.168.65625,3.408,3.408,0,0,1,1.22461,1.8457l-1.11914.26367a2.65471,2.65471,0,0,0-.86719-1.36523,2.31083,2.31083,0,0,0-1.42969-.42774,2.77715,2.77715,0,0,0-1.65527.47461,2.50628,2.50628,0,0,0-.93457,1.27442,5.13057,5.13057,0,0,0-.26953,1.64941,5.24161,5.24161,0,0,0,.31933,1.91309,2.37886,2.37886,0,0,0,.99317,1.22168,2.78533,2.78533,0,0,0,1.459.40429,2.4448,2.4448,0,0,0,1.61719-.55078A2.81878,2.81878,0,0,0,27.6169,30.46143Z"
               fill="#231f20"/>
         <path d="M29.62667,30.36182a3.20738,3.20738,0,0,1,.96093-2.56055,2.89553,2.89553,0,0,1,1.957-.69141,2.79188,2.79188,0,0,1,2.09765.84082,3.19888,3.19888,0,0,1,.81446,2.32325,4.11643,4.11643,0,0,1-.36036,1.88964,2.55086,2.55086,0,0,1-1.04882,1.06934,3.05357,3.05357,0,0,1-1.50293.38086,2.7971,2.7971,0,0,1-2.11231-.83789A3.34681,3.34681,0,0,1,29.62667,30.36182Zm1.084,0a2.65048,2.65048,0,0,0,.52149,1.79,1.73638,1.73638,0,0,0,2.61914-.00293,2.71329,2.71329,0,0,0,.52148-1.82227,2.571,2.571,0,0,0-.52441-1.749,1.73875,1.73875,0,0,0-2.61621-.00293A2.63851,2.63851,0,0,0,30.71065,30.36182Z"
               fill="#231f20"/>
         <path d="M36.69307,33.47314V27.25049h.94922v.88476a2.23686,2.23686,0,0,1,1.98047-1.02539,2.59816,2.59816,0,0,1,1.03418.20215,1.62679,1.62679,0,0,1,.70606.53028,2.03541,2.03541,0,0,1,.32812.77929,6.03954,6.03954,0,0,1,.05859,1.02539v3.82617H40.695V29.688a2.84136,2.84136,0,0,0-.123-.96387,1.01384,1.01384,0,0,0-.43652-.50976,1.38849,1.38849,0,0,0-.73536-.19043,1.70873,1.70873,0,0,0-1.16308.42773,2.11007,2.11007,0,0,0-.48926,1.623v3.39843Z"
               fill="#231f20"/>
         <path d="M45.66964,32.52979l.15234.93164a3.91217,3.91217,0,0,1-.79688.09375,1.80409,1.80409,0,0,1-.89062-.18164,1.01706,1.01706,0,0,1-.44531-.47754,3.77616,3.77616,0,0,1-.12891-1.24512V28.0708h-.77344v-.82031h.77344v-1.541l1.04883-.63281v2.17383h1.06055v.82031H44.60909v3.63867a1.83813,1.83813,0,0,0,.05566.58008.43926.43926,0,0,0,.18164.20508.70169.70169,0,0,0,.36036.07617A3.43152,3.43152,0,0,0,45.66964,32.52979Z"
               fill="#231f20"/>
         <path d="M46.68917,33.47314V27.25049h.94922v.94336a2.5743,2.5743,0,0,1,.67089-.87305,1.17116,1.17116,0,0,1,.67676-.21094,2.05717,2.05717,0,0,1,1.084.33985l-.36328.97851a1.50912,1.50912,0,0,0-.77344-.22851,1.00445,1.00445,0,0,0-.6211.208,1.1268,1.1268,0,0,0-.39257.57715,4.1081,4.1081,0,0,0-.17579,1.23047v3.25781Z"
               fill="#231f20"/>
         <path d="M50.3044,30.36182a3.20735,3.20735,0,0,1,.96094-2.56055,2.89552,2.89552,0,0,1,1.957-.69141,2.79189,2.79189,0,0,1,2.09766.84082,3.19888,3.19888,0,0,1,.81445,2.32325,4.11657,4.11657,0,0,1-.36035,1.88964,2.55094,2.55094,0,0,1-1.04883,1.06934,3.05351,3.05351,0,0,1-1.50293.38086,2.7971,2.7971,0,0,1-2.1123-.83789A3.34681,3.34681,0,0,1,50.3044,30.36182Zm1.084,0a2.65048,2.65048,0,0,0,.52148,1.79,1.73638,1.73638,0,0,0,2.61914-.00293,2.71324,2.71324,0,0,0,.52149-1.82227,2.571,2.571,0,0,0-.52442-1.749,1.73875,1.73875,0,0,0-2.61621-.00293A2.63851,2.63851,0,0,0,51.38839,30.36182Z"
               fill="#231f20"/>
         <path d="M57.34737,33.47314V24.8833h1.05469v8.58984Z" fill="#231f20"/>
         <path d="M60.01339,33.47314V24.8833h1.05468v8.58984Z" fill="#231f20"/>
         <path d="M66.9626,31.46924l1.08985.13476a2.65912,2.65912,0,0,1-.95508,1.48243,3.2356,3.2356,0,0,1-3.94629-.31348,3.28544,3.28544,0,0,1-.7998-2.3584,3.43843,3.43843,0,0,1,.80859-2.4375,2.73708,2.73708,0,0,1,2.09766-.86719,2.66032,2.66032,0,0,1,2.03906.84961,3.37574,3.37574,0,0,1,.791,2.39063q0,.09375-.00585.28125H63.44112a2.3912,2.3912,0,0,0,.58008,1.57031,1.7265,1.7265,0,0,0,1.30078.54492,1.61379,1.61379,0,0,0,.99023-.30469A2.02244,2.02244,0,0,0,66.9626,31.46924Zm-3.46289-1.70508h3.47461a2.10794,2.10794,0,0,0-.39843-1.17773,1.61644,1.61644,0,0,0-1.30664-.60938,1.67545,1.67545,0,0,0-1.22168.48633A1.92482,1.92482,0,0,0,63.49971,29.76416Z"
               fill="#231f20"/>
         <path d="M69.36495,33.47314V27.25049h.94922v.94336a2.57417,2.57417,0,0,1,.6709-.87305,1.17111,1.17111,0,0,1,.67675-.21094,2.05717,2.05717,0,0,1,1.084.33985l-.36328.97851a1.50912,1.50912,0,0,0-.77344-.22851,1.0044,1.0044,0,0,0-.62109.208,1.12675,1.12675,0,0,0-.39258.57715,4.10811,4.10811,0,0,0-.17578,1.23047v3.25781Z"
               fill="#231f20"/>
      </g>
   </g>
   <g id="f358dcc4-c8b5-4ac6-addc-3831037d7621" data-name="Layer 2">
      <polyline points="125.832 105.068 116.745 105.068 116.745 80.068 125.832 80.068"
                fill="none"
                stroke="#c6c6c5"
                stroke-miterlimit="10"/>
      <polyline points="150.832 105.068 141.745 105.068 141.745 80.068 150.832 80.068"
                fill="none"
                stroke="#079547"
                stroke-miterlimit="10"/>
      <polyline points="127.832 107.068 127.832 116.155 105.659 116.155 105.659 68.183 97.779 68.183"
                fill="none"
                stroke="#c6c6c5"
                stroke-miterlimit="10"/>
      <polyline points="152.832 107.068 152.832 120.155 101.659 120.155 101.659 71.037 97.695 71.037"
                fill="none"
                stroke="#079547"
                stroke-miterlimit="10"/>
      <g>
         <path d="M63.78913,68.18293a3.21,3.21,0,0,1,2.91949,1.42683h0a2.99224,2.99224,0,0,0,2.83464,1.42683,2.78827,2.78827,0,0,0,2.74981-1.42683h0a3.52917,3.52917,0,0,1,5.66929,0h0a3.14324,3.14324,0,0,0,2.894,1.42683,2.99226,2.99226,0,0,0,2.83465-1.42683h0a2.78827,2.78827,0,0,1,2.7498-1.42683,3.14324,3.14324,0,0,1,2.894,1.42683h0a3.52917,3.52917,0,0,0,5.66929,0h0a2.848,2.848,0,0,1,2.77525-1.42683"
               fill="none"
               stroke="#c6c6c5"
               stroke-miterlimit="10"/>
         <path d="M97.69459,71.03659a2.78827,2.78827,0,0,1-2.7498-1.42683h0a2.99226,2.99226,0,0,0-2.83465-1.42683,2.78827,2.78827,0,0,0-2.7498,1.42683h0a2.99226,2.99226,0,0,1-2.83465,1.42683,3.21,3.21,0,0,1-2.91949-1.42683h0a2.99224,2.99224,0,0,0-2.83464-1.42683,2.78827,2.78827,0,0,0-2.74981,1.42683h0a2.99224,2.99224,0,0,1-2.83464,1.42683h-.0594a3.21,3.21,0,0,1-2.91949-1.42683h0a2.99224,2.99224,0,0,0-2.83464-1.42683,2.78827,2.78827,0,0,0-2.7498,1.42683h0a2.99226,2.99226,0,0,1-2.83465,1.42683"
               fill="none"
               stroke="#079547"
               stroke-miterlimit="10"/>
      </g>
      <polyline points="50.845 59.382 60.223 59.382 60.223 68.183 63.789 68.183"
                fill="none"
                stroke="#c6c6c5"
                stroke-miterlimit="10"/>
      <polyline points="50.845 79.382 60.186 79.382 60.186 71.037 63.789 71.037"
                fill="none"
                stroke="#079547"
                stroke-miterlimit="10"/>
      <path d="M177.83181,78.06831V68.18293H110.63419v18.972H108.0147a.13777.13777,0,0,1-.13592-.1044c-.13148-.51014-.88709-2.71629-4.12264-2.71629-3.31053,0-3.94,2.30958-4.02977,2.749a.09044.09044,0,0,1-.09429.07172H86.2439v13.76619a.20839.20839,0,0,0,.13281.19868,3.52957,3.52957,0,0,1,2.37939,3.26186,3.64525,3.64525,0,0,1-2.36324,3.31769.24236.24236,0,0,0-.149.22887v16.45344H49.84509"
            fill="none"
            stroke="#626469"
            stroke-miterlimit="10"/>
      <polyline points="177.832 107.068 177.832 124.155 97.659 124.155 97.659 104.382 49.845 104.382"
                fill="none"
                stroke="#626469"
                stroke-miterlimit="10"/>
      <g>
         <line x1="47.84496"
               y1="126.38166"
               x2="47.84496"
               y2="141.46827"
               fill="none"
               stroke="#626469"
               stroke-miterlimit="3"/>
         <line x1="55.20906"
               y1="141.51186"
               x2="40.48095"
               y2="141.51186"
               fill="none"
               stroke="#626469"
               stroke-miterlimit="3"/>
         <line x1="52.34191"
               y1="143.52581"
               x2="43.34801"
               y2="143.52581"
               fill="none"
               stroke="#626469"
               stroke-miterlimit="3"/>
         <line x1="49.47918"
               y1="145.54073"
               x2="46.21097"
               y2="145.54073"
               fill="none"
               stroke="#626469"
               stroke-miterlimit="3"/>
      </g>
   </g>
</svg>
