<?xml version="1.0" encoding="UTF-8"?>
<svg xmlns="http://www.w3.org/2000/svg"
     width="120mm"
     height="50mm"
     viewBox="0 0 340.1575 141.7323">
   <defs>
      <style>
      .cls-1, .cls-2, .cls-3, .cls-4 {
        fill: none;
      }

      .cls-1 {
        stroke: gray;
        stroke-width: 0.1317px;
      }

      .cls-1, .cls-2, .cls-3, .cls-4, .cls-5 {
        stroke-linecap: round;
      }

      .cls-1, .cls-2 {
        stroke-miterlimit: 4.3551;
      }

      .cls-2, .cls-4, .cls-5 {
        stroke: #000;
      }

      .cls-2 {
        stroke-width: 0.2305px;
      }

      .cls-3 {
        stroke: #fff;
      }

      .cls-4 {
        stroke-width: 0.5px;
      }

      .cls-5 {
        stroke-width: 0.106px;
      }

      .cls-6 {
        isolation: isolate;
        font-size: 16px;
        fill: #fff;
        font-family: ArialMT, Arial;
        letter-spacing: -0.0552em;
      }
    </style>
   </defs>
   <g id="Layer_1" data-name="Layer 1">
      <g id="ID_1003" data-name="ID 1003">
         <g id="ID_1004" data-name="ID 1004">
            <g id="ID_1005" data-name="ID 1005">
               <g id="ID_1006" data-name="ID 1006">
                  <g id="ID_1007" data-name="ID 1007">
                     <g id="ID_1064" data-name="ID 1064">
                        <g id="ID_1065" data-name="ID 1065">
                           <g id="ID_1066" data-name="ID 1066">
                              <path class="cls-1" d="M253.5794,21.1944l-.5124-.4651"/>
                              <path class="cls-2"
                                    d="M253.5794,21.1944c-.249.2411-.1067.1634-.4215.245l-2.5861.5007L39.9257,62.6011l-2.5874.498"/>
                              <path class="cls-2" d="M253.5979,20.32c-.4269.15-.1462.08-.8643.0843"/>
                              <line class="cls-2"
                                    x1="253.5979"
                                    y1="20.3196"
                                    x2="253.6506"
                                    y2="9.2759"/>
                              <line class="cls-2"
                                    x1="253.067"
                                    y1="20.7293"
                                    x2="252.7336"
                                    y2="20.4039"/>
                              <line class="cls-2"
                                    x1="253.5794"
                                    y1="21.1944"
                                    x2="253.2277"
                                    y2="20.4"/>
                           </g>
                        </g>
                     </g>
                     <g id="ID_1046" data-name="ID 1046">
                        <g id="ID_1060" data-name="ID 1060">
                           <g>
                              <path class="cls-2"
                                    d="M247.3875,77.8148c-.18-.0343-.3715.1884-.4281.498-.054.2951.0382.5638.2055.6112"/>
                              <path class="cls-2" d="M247.43,77.8266a.1352.1352,0,0,0-.0422-.0118"/>
                           </g>
                           <g>
                              <path class="cls-2"
                                    d="M247.38,83.0766c-.1818-.0316-.3728.19-.4281.498-.0541.2977.0355.5651.2055.6126"/>
                              <path class="cls-2" d="M247.4191,83.0884l-.0395-.0118"/>
                           </g>
                           <g>
                              <path class="cls-2"
                                    d="M236.0708,71.5675c-.1818-.0329-.3728.19-.4281.4993-.054.2951.0355.5613.2055.6113"/>
                              <path class="cls-2" d="M236.11,71.5794a.2.2,0,0,0-.04-.0119"/>
                           </g>
                           <g>
                              <path class="cls-2"
                                    d="M236.0616,76.8306c-.18-.0316-.3715.19-.4295.498-.054.2978.0382.5639.2082.6126"/>
                              <path class="cls-2" d="M236.1025,76.8425a.2524.2524,0,0,0-.0409-.0119"/>
                           </g>
                           <line class="cls-1"
                                 x1="260.127"
                                 y1="90.1024"
                                 x2="260.1297"
                                 y2="87.8799"/>
                           <line class="cls-1"
                                 x1="260.2219"
                                 y1="30.2952"
                                 x2="260.2193"
                                 y2="32.6613"/>
                           <line class="cls-1"
                                 x1="250.8735"
                                 y1="80.4141"
                                 x2="250.8735"
                                 y2="80.9713"/>
                           <line class="cls-1"
                                 x1="250.7931"
                                 y1="78.2074"
                                 x2="250.6837"
                                 y2="78.2311"/>
                           <line class="cls-1"
                                 x1="252.4043"
                                 y1="32.8062"
                                 x2="252.3094"
                                 y2="32.8233"/>
                           <line class="cls-1"
                                 x1="251.4597"
                                 y1="33.486"
                                 x2="251.4623"
                                 y2="31.8787"/>
                           <line class="cls-1"
                                 x1="249.4783"
                                 y1="33.1751"
                                 x2="250.411"
                                 y2="33.6902"/>
                           <line class="cls-1"
                                 x1="251.382"
                                 y1="82.4468"
                                 x2="252.1975"
                                 y2="82.2901"/>
                           <line class="cls-1"
                                 x1="252.2001"
                                 y1="80.7395"
                                 x2="252.1975"
                                 y2="82.2901"/>
                           <line class="cls-1"
                                 x1="250.8642"
                                 y1="86.2331"
                                 x2="250.8655"
                                 y2="85.6759"/>
                           <line class="cls-1"
                                 x1="239.5567"
                                 y1="74.1681"
                                 x2="239.5541"
                                 y2="74.7254"/>
                           <line class="cls-1"
                                 x1="239.4738"
                                 y1="71.9614"
                                 x2="239.3657"
                                 y2="71.9852"/>
                           <line class="cls-1"
                                 x1="240.0626"
                                 y1="76.2022"
                                 x2="240.8808"
                                 y2="76.0455"/>
                           <line class="cls-1"
                                 x1="240.8834"
                                 y1="74.4935"
                                 x2="240.8808"
                                 y2="76.0455"/>
                           <line class="cls-1"
                                 x1="239.5462"
                                 y1="79.9872"
                                 x2="239.5462"
                                 y2="79.4299"/>
                           <path class="cls-1"
                                 d="M260.2772,90.0721l.0027-2.6348L260.3681,32.9l.0027-2.6348.0066-.664"/>
                           <path class="cls-1" d="M260.3708,30.2649l-.1489.03-.4954-.2727"/>
                           <path class="cls-1" d="M248.4573,34.067l-1.22-.6732-.1739-.1858"/>
                           <path class="cls-1" d="M246.9923,78.1836l.1739.1845,3.7073,2.046,2.175-.4625"/>
                           <path class="cls-1"
                                 d="M249.4019,80.3192c2.4623,1.3583,1.6534.5546,2.7956,1.9709"/>
                           <path class="cls-1" d="M248.59,83.59c2.4557,1.3556,1.6508.5493,2.7864,1.9774"/>
                           <path class="cls-1"
                                 d="M248.5943,80.4812l2.1632,1.1923c1.1448.8076.62,2.7218.6192,3.8943"/>
                           <path class="cls-1"
                                 d="M251.3767,85.5678l-.5112.1081-3.7085-2.0434-.1726-.187"/>
                           <path class="cls-1"
                                 d="M235.6756,71.9377l.1739.1845,3.7072,2.0459,2.1751-.4624"/>
                           <path class="cls-1"
                                 d="M238.0839,74.0733c2.4635,1.3582,1.6546.5546,2.7969,1.9722"/>
                           <path class="cls-1"
                                 d="M237.2736,77.3444c2.4557,1.3557,1.65.5494,2.7864,1.9775"/>
                           <path class="cls-1"
                                 d="M237.2763,74.2353l2.1645,1.1923c1.1435.8076.6192,2.7218.6192,3.8943"/>
                           <path class="cls-1" d="M240.06,79.3219l-.5138.108-3.7046-2.0459-.1752-.1845"/>
                           <path class="cls-2" d="M240.9071,79.7514l-1.3609.2358-3.7059-2.046"/>
                           <path class="cls-2"
                                 d="M241.7279,76.6581c.0026-1.1212.49-2.9089-.5837-3.6928l-1.7785-.98"/>
                           <path class="cls-2" d="M240.8834,74.4935l-1.3293.2319-3.7059-2.0473"/>
                           <path class="cls-2" d="M235.4477,59.5526a2.3459,2.3459,0,0,1-.2411-1.1448"/>
                           <path class="cls-2" d="M247.157,84.1872l3.7072,2.0459,1.36-.2345"/>
                           <path class="cls-2"
                                 d="M253.0459,82.904c.0013-1.1211.49-2.9089-.585-3.6928l-1.7772-.98"/>
                           <path class="cls-2" d="M247.1649,78.924l3.7086,2.0473L252.2,80.74"/>
                           <path class="cls-2"
                                 d="M249.4137,32.2739l-1.9129.5771c-.3333.1594-.4374.1726-.4374.5309"/>
                           <path class="cls-2"
                                 d="M249.5033,32.2568c1.5309.8445,1.0131.3412,1.7614,1.2687"/>
                           <path class="cls-2" d="M252.8114,32.2779c-.3294-.41-.1476-.27-.502-.4677"/>
                           <path class="cls-2" d="M260.2772,90.0721l-.15.03L259.3,89.644"/>
                           <path class="cls-2"
                                 d="M260.2772,90.0721l.0053-.664.0026-2.6348.087-54.5376.0053-2.6348"/>
                           <line class="cls-2"
                                 x1="234.4636"
                                 y1="68.8708"
                                 x2="234.453"
                                 y2="75.9335"/>
                           <line class="cls-2"
                                 x1="236.1025"
                                 y1="76.8425"
                                 x2="234.453"
                                 y2="75.9335"/>
                           <line class="cls-2"
                                 x1="237.2736"
                                 y1="77.3444"
                                 x2="237.2763"
                                 y2="74.2353"/>
                           <line class="cls-2"
                                 x1="238.0839"
                                 y1="74.0733"
                                 x2="238.0852"
                                 y2="73.9139"/>
                           <line class="cls-2"
                                 x1="238.0839"
                                 y1="74.0733"
                                 x2="237.2763"
                                 y2="74.2353"/>
                           <line class="cls-2"
                                 x1="236.1025"
                                 y1="76.8425"
                                 x2="237.275"
                                 y2="76.4894"/>
                           <line class="cls-2"
                                 x1="240.9124"
                                 y1="76.8148"
                                 x2="240.9071"
                                 y2="79.7514"/>
                           <line class="cls-2"
                                 x1="241.7279"
                                 y1="76.6581"
                                 x2="240.9124"
                                 y2="76.8148"/>
                           <line class="cls-2"
                                 x1="236.1104"
                                 y1="71.5794"
                                 x2="238.2196"
                                 y2="70.9444"/>
                           <line class="cls-2"
                                 x1="234.4754"
                                 y1="61.5287"
                                 x2="234.4741"
                                 y2="62.5458"/>
                           <line class="cls-2"
                                 x1="234.486"
                                 y1="54.6096"
                                 x2="234.4847"
                                 y2="56.3684"/>
                           <line class="cls-2"
                                 x1="247.4191"
                                 y1="83.0884"
                                 x2="245.7197"
                                 y2="82.1504"/>
                           <line class="cls-2"
                                 x1="248.5903"
                                 y1="83.5904"
                                 x2="248.5943"
                                 y2="80.4812"/>
                           <line class="cls-2"
                                 x1="249.4019"
                                 y1="80.3192"
                                 x2="249.4019"
                                 y2="80.1598"/>
                           <line class="cls-2"
                                 x1="249.4019"
                                 y1="80.3192"
                                 x2="248.5943"
                                 y2="80.4812"/>
                           <line class="cls-2"
                                 x1="248.5917"
                                 y1="82.7354"
                                 x2="247.4191"
                                 y2="83.0884"/>
                           <line class="cls-2"
                                 x1="252.2291"
                                 y1="83.0608"
                                 x2="252.2238"
                                 y2="85.9986"/>
                           <line class="cls-2"
                                 x1="253.0459"
                                 y1="82.904"
                                 x2="252.2291"
                                 y2="83.0608"/>
                           <line class="cls-2"
                                 x1="249.5363"
                                 y1="77.1903"
                                 x2="247.4297"
                                 y2="77.8266"/>
                           <line class="cls-2"
                                 x1="252.3094"
                                 y1="32.8233"
                                 x2="252.3094"
                                 y2="31.714"/>
                           <line class="cls-2"
                                 x1="249.4783"
                                 y1="32.2608"
                                 x2="249.4783"
                                 y2="33.1751"/>
                           <line class="cls-2"
                                 x1="253.1196"
                                 y1="35.6189"
                                 x2="252.8667"
                                 y2="35.6624"/>
                           <line class="cls-2"
                                 x1="253.1196"
                                 y1="35.6189"
                                 x2="253.1196"
                                 y2="35.5754"/>
                           <line class="cls-2"
                                 x1="259.7279"
                                 y1="29.0291"
                                 x2="260.3774"
                                 y2="29.6009"/>
                        </g>
                        <g id="ID_1055" data-name="ID 1055">
                           <line class="cls-1"
                                 x1="220.7781"
                                 y1="63.4614"
                                 x2="220.7755"
                                 y2="65.348"/>
                           <line class="cls-1"
                                 x1="220.7623"
                                 y1="72.6742"
                                 x2="220.7702"
                                 y2="68.1923"/>
                           <line class="cls-1"
                                 x1="220.2788"
                                 y1="72.0247"
                                 x2="218.1038"
                                 y2="70.8245"/>
                           <path class="cls-1"
                                 d="M229.074,61.8067l-.0066,4.18c-.0606.2582.0066.1252-.2727.3531l-3.5413.6837"/>
                           <path class="cls-2"
                                 d="M228.5892,61.8989l-.0066,3.8206c-.0593.2569.0053.1238-.2714.353l-3.0578.59"/>
                           <path class="cls-2"
                                 d="M233.66,68.6916l-.0052,2.6348-.0013.145-.0027,2.6348c-.162.419-.3017.7246-.7575.855"/>
                           <path class="cls-2" d="M233.0961,75.3762c.2911-.3649.195-.1449.2266-.6824"/>
                           <line class="cls-2"
                                 x1="220.2788"
                                 y1="71.4173"
                                 x2="218.1038"
                                 y2="70.2172"/>
                           <line class="cls-2"
                                 x1="220.2841"
                                 y1="68.2845"
                                 x2="220.2775"
                                 y2="72.7677"/>
                           <line class="cls-2"
                                 x1="220.292"
                                 y1="63.4206"
                                 x2="220.2894"
                                 y2="65.4415"/>
                           <line class="cls-2"
                                 x1="227.0992"
                                 y1="49.386"
                                 x2="226.4707"
                                 y2="49.5072"/>
                           <line class="cls-2"
                                 x1="228.659"
                                 y1="46.9567"
                                 x2="227.6182"
                                 y2="49.1304"/>
                           <line class="cls-2"
                                 x1="228.4021"
                                 y1="46.045"
                                 x2="228.4442"
                                 y2="46.1175"/>
                           <line class="cls-2"
                                 x1="233.6718"
                                 y1="60.3365"
                                 x2="233.6692"
                                 y2="62.2797"/>
                           <line class="cls-2"
                                 x1="233.6823"
                                 y1="54.7334"
                                 x2="233.6771"
                                 y2="56.7649"/>
                        </g>
                        <g id="ID_1053" data-name="ID 1053">
                           <line class="cls-1"
                                 x1="215.4044"
                                 y1="97.1875"
                                 x2="215.2107"
                                 y2="97.285"/>
                           <path class="cls-1" d="M216.0815,39.9809c-.2029.4861-.3965.7667-.9235.8787"/>
                           <path class="cls-2"
                                 d="M215.4373,98.0623l-.0343.0211-2.5874.5006-172.89,33.3718-2.5874.5006"/>
                           <path class="cls-2"
                                 d="M215.5282,39.25c.4519.249.42.1752.5533.7312l-.0039,2.6349-.083,51.7458-.0027,2.6349"/>
                           <path class="cls-2" d="M215.9919,96.9965l-.17.0079-.3755-.0237-.3768.0975"/>
                           <path class="cls-2" d="M215.4373,98.0623l-.2266-.7773-.08-.0461"/>
                           <path class="cls-2" d="M215.158,40.86c.4519-1.8865.3886-1.02.34-2.5821"/>
                           <line class="cls-2"
                                 x1="215.4373"
                                 y1="98.0623"
                                 x2="215.0697"
                                 y2="97.0782"/>
                           <line class="cls-2"
                                 x1="215.4044"
                                 y1="97.1875"
                                 x2="215.1685"
                                 y2="97.0558"/>
                           <line class="cls-2"
                                 x1="215.9919"
                                 y1="96.9965"
                                 x2="215.2107"
                                 y2="97.0466"/>
                           <line class="cls-2"
                                 x1="215.4044"
                                 y1="97.1875"
                                 x2="215.403"
                                 y2="97.9477"/>
                           <line class="cls-2"
                                 x1="215.2568"
                                 y1="38.1444"
                                 x2="215.4979"
                                 y2="38.2775"/>
                        </g>
                        <g id="ID_1047" data-name="ID 1047">
                           <g>
                              <path class="cls-2"
                                    d="M254.7493,61.2837a.7408.7408,0,0,0,.2661-.0066c.8695-.166,1.2937-1.764.946-3.5649-.311-1.6139-1.137-2.847-1.9419-2.9643"/>
                              <path class="cls-1"
                                    d="M253.7547,54.7532c-.8709.1686-1.2951,1.7667-.946,3.5663.3109,1.6152,1.137,2.8469,1.9406,2.9642"/>
                              <path class="cls-1" d="M254.02,54.7479a.7673.7673,0,0,0-.2648.0053"/>
                           </g>
                           <path class="cls-2"
                                 d="M241.5171,39.0165a.8526.8526,0,0,0,.2608-.0052c.8629-.1634,1.2924-1.7377.9565-3.5176-.0158-.0882-.033-.1725-.0514-.2476"/>
                           <g>
                              <path class="cls-2"
                                    d="M241.467,68.92a.8752.8752,0,0,0,.2648-.0053c.8708-.1686,1.295-1.7653.9486-3.5662-.3136-1.6165-1.1383-2.847-1.9432-2.9643"/>
                              <path class="cls-1"
                                    d="M240.4737,62.389c-.87.1686-1.2937,1.7641-.9459,3.5663.3109,1.6152,1.1369,2.8443,1.9392,2.9642"/>
                              <path class="cls-1" d="M240.7372,62.3837a.7631.7631,0,0,0-.2635.0053"/>
                           </g>
                           <path class="cls-2"
                                 d="M234.9655,60.6382c.3992-.1054.5863-.8564.4269-1.6916-.1436-.7365-.51-1.3056-.8788-1.4018"/>
                           <g>
                              <path class="cls-2"
                                    d="M234.3371,56.1352c-.9.1937-1.34,1.6823-.9828,3.3225a5.0212,5.0212,0,0,0,.577,1.5045"/>
                              <path class="cls-2" d="M235.0709,56.2551a1.0592,1.0592,0,0,0-.7338-.12"/>
                           </g>
                           <g>
                              <path class="cls-2" d="M235.0735,63.22a2.1842,2.1842,0,0,0-1.1422-2.2581"/>
                              <path class="cls-2" d="M235.0577,63.28a.5.5,0,0,0,.0158-.0593"/>
                           </g>
                           <path class="cls-2"
                                 d="M232.7509,55.5674a5.5626,5.5626,0,0,0-.6574.9446c-1.1382,2.0644-.8365,4.4555.6442,5.632"/>
                           <g>
                              <path class="cls-2" d="M234.681,54.6966c-.5178-.3254-1.3544.0606-1.9314.8708"/>
                              <path class="cls-2" d="M234.8917,56.5c.3281-.8023.2279-1.5229-.2107-1.8035"/>
                           </g>
                           <g>
                              <path class="cls-1"
                                    d="M228.6656,45.9528c-.0382-.0211-.0777-.0408-.1146-.0567"/>
                              <path class="cls-1"
                                    d="M226.6367,49.888a2.0792,2.0792,0,0,0,2.5321-1.1278,2.037,2.037,0,0,0-.5032-2.8074"/>
                              <path class="cls-2"
                                    d="M228.551,45.8961a2.0819,2.0819,0,0,0-2.5321,1.1251,2.04,2.04,0,0,0,.5059,2.8088,1.1783,1.1783,0,0,0,.1119.058"/>
                           </g>
                           <path class="cls-2"
                                 d="M226.1888,49.48a2.0579,2.0579,0,0,0,2.2291-1.2765,2.2714,2.2714,0,0,0,.0145-2.129"/>
                           <path class="cls-2"
                                 d="M253.8232,90.0668a3.69,3.69,0,0,0,3.395.722,3.8123,3.8123,0,0,0,2.68-1.9156"/>
                           <line class="cls-1"
                                 x1="245.4259"
                                 y1="89.8297"
                                 x2="243.347"
                                 y2="90.2328"/>
                           <line class="cls-1"
                                 x1="237.2934"
                                 y1="82.489"
                                 x2="237.2921"
                                 y2="83.983"/>
                           <line class="cls-1"
                                 x1="234.0038"
                                 y1="78.4037"
                                 x2="233.9998"
                                 y2="79.8976"/>
                           <line class="cls-1"
                                 x1="235.1289"
                                 y1="34.3094"
                                 x2="235.1289"
                                 y2="34.4938"/>
                           <line class="cls-1"
                                 x1="234.0314"
                                 y1="35.6149"
                                 x2="233.9287"
                                 y2="35.25"/>
                           <line class="cls-1"
                                 x1="234.5136"
                                 y1="57.5448"
                                 x2="234.1039"
                                 y2="57.6779"/>
                           <line class="cls-1"
                                 x1="238.7966"
                                 y1="88.9431"
                                 x2="238.7979"
                                 y2="87.9787"/>
                           <line class="cls-1"
                                 x1="247.871"
                                 y1="32.573"
                                 x2="248.0673"
                                 y2="32.681"/>
                           <line class="cls-1"
                                 x1="235.9523"
                                 y1="86.4571"
                                 x2="235.8021"
                                 y2="85.884"/>
                           <line class="cls-1"
                                 x1="226.3851"
                                 y1="93.5066"
                                 x2="224.3062"
                                 y2="93.9071"/>
                           <line class="cls-1"
                                 x1="254.9509"
                                 y1="88.6401"
                                 x2="255.051"
                                 y2="88.6954"/>
                           <line class="cls-1"
                                 x1="235.9075"
                                 y1="92.3157"
                                 x2="236.0076"
                                 y2="92.3723"/>
                           <line class="cls-1"
                                 x1="223.7595"
                                 y1="65.373"
                                 x2="218.1104"
                                 y2="66.4625"/>
                           <line class="cls-1"
                                 x1="224.5684"
                                 y1="81.0899"
                                 x2="224.571"
                                 y2="80.1282"/>
                           <line class="cls-1"
                                 x1="218.6913"
                                 y1="90.055"
                                 x2="218.0721"
                                 y2="89.7138"/>
                           <line class="cls-1"
                                 x1="218.1512"
                                 y1="39.9835"
                                 x2="218.1551"
                                 y2="38.4869"/>
                           <path class="cls-1"
                                 d="M255.1169,90.7809a7.1786,7.1786,0,0,1-1.6442-1.3636l-.2239-.1462"/>
                           <path class="cls-1"
                                 d="M259.0942,30.946l-1.2239-.1239c-2.33.4493-2.8338.9684-4.308,2.872a1.6806,1.6806,0,0,1-.772.498l-3.45.6666-.282.0132-.2621-.0685"/>
                           <path class="cls-1"
                                 d="M248.1147,36.2289c-.9353-.6074-.3583-.1924-1.6454-1.3609l-.224-.1489"/>
                           <path class="cls-1"
                                 d="M245.2968,74.8479l-.0053,2.6349v.1133l-.0053,2.6348a1.6476,1.6476,0,0,1-1.0882,1.407"/>
                           <path class="cls-1"
                                 d="M241.5144,39.0165c-1.2107-.6784-1.4452-1.45-1.8944-2.7468l-.0474-.4229"/>
                           <path class="cls-1"
                                 d="M242.63,85.4335l-2.3081-1.274L239.6,83.76l-2.3068-1.2713-2.1751.4189"/>
                           <path class="cls-1"
                                 d="M236.0761,94.4552c-.9354-.6087-.3583-.1924-1.6455-1.3635l-.2252-.1463"/>
                           <path class="cls-1" d="M234.9181,39.5857a1.5287,1.5287,0,0,1-.776-.3518"/>
                           <path class="cls-1"
                                 d="M233.8655,56.4883l.6508-.0646c.2042.0962.0817.058.3754.0764"/>
                           <path class="cls-1"
                                 d="M234.1039,57.6779c-.4321,1.0276-.3715,2.5743.8616,2.96"/>
                           <path class="cls-1"
                                 d="M234.88,63.5088a.911.911,0,0,1-.5691-.2239,13.6507,13.6507,0,0,1-1.2951-.8643"/>
                           <path class="cls-1" d="M240.0916,88.6928l-1.2937-.7141L229.82,89.7111"/>
                           <path class="cls-1"
                                 d="M246.9277,33.2936l-.5915-.1541-.6323.029-8.309,1.6059c-1.42.4783-1.9512,1.4018-2.876,2.5954a1.6757,1.6757,0,0,1-.7707.4979l-3.45.6667-.282.0131-.2608-.0685"/>
                           <path class="cls-1" d="M236.9785,80.0452l-2.9747-1.6415-5.0075.9643"/>
                           <path class="cls-1"
                                 d="M235.8021,85.884a8.3894,8.3894,0,0,0-4.1-.9011c-1.4176.1475-2.49.1607-3.5848,1.1079"/>
                           <path class="cls-1"
                                 d="M229.0727,39.9045c-.9367-.6073-.3584-.1937-1.6455-1.3622l-.2253-.1476"/>
                           <path class="cls-1"
                                 d="M229.8038,61.7514l.0791.1963-.0066,4.4858c-.1041.3-.0119.1845-.2714.3531l-4.0814.7878-.191-.0527"/>
                           <path class="cls-1" d="M224.4287,72.3527l.6785.07,7.6187-1.47"/>
                           <path class="cls-1"
                                 d="M224.6738,72.1459c-1.2463-1.133-.8129-2.2778-.8089-4.0327l.0026-1.62.0026-2.6349c-.1422-.5585,0-.3293-.4044-.6982"/>
                           <path class="cls-1"
                                 d="M258.4118,32.3728c.5414.49.3517.1857.5414.9287l-.0026,2.6349-.0777,49.1558-.0053,2.6349c-.3373,1.432-1.1462,1.4162-2.5242,1.6823l-.2806.0145-.2635-.07"/>
                           <path class="cls-1"
                                 d="M253.9312,87.8443l-.5915-.1554c-1.577.0777-4.0235.23-5.3093,1.2937l-.5072.5256-1.1422,1.4729a1.6843,1.6843,0,0,1-.7694.4993l-8.31,1.606-.2819.0118-.2609-.0671"/>
                           <path class="cls-1"
                                 d="M234.8878,91.5213l-.59-.1555c-1.577.0751-4.0234.2279-5.3092,1.2937l-.5086.5257-1.1409,1.4742a1.7074,1.7074,0,0,1-.7694.498l-7.421,1.4307-.5428-.054"/>
                           <path class="cls-1"
                                 d="M222.1812,68.0078l.079.1963-.0079,4.4859c-.1054.299-.0131.1818-.2727.35l-3.8824.7483"/>
                           <path class="cls-1" d="M225.8621,80.8409l-1.2911-.7127L218.0866,81.38"/>
                           <path class="cls-1"
                                 d="M227.8843,36.9693l-.59-.1542-.6337.029-8.5053,1.6428-1.2107-.6679"/>
                           <path class="cls-1"
                                 d="M216.7942,39.3485l-.0065,2.6349-.08,51.2479c-.0026,2.18-.3623,3.2949,1.216,4.7282"/>
                           <path class="cls-1" d="M218.1525,39.0851l-1.3583.2634-1.2858-.71"/>
                           <path class="cls-2"
                                 d="M234.2054,92.9454l-.2609-.0672-.2832.0132-3.45.6666a1.6758,1.6758,0,0,0-.7694.498c-.9248,1.1923-1.4557,2.1171-2.8759,2.5953l-7.4184,1.4321c-1.9551-.1976-.8643.0738-3.1553-1.19"/>
                           <path class="cls-2"
                                 d="M233.7008,92.89A5.1159,5.1159,0,0,0,237.3,94.58l8.3077-1.6033c1.4215-.4808,1.95-1.403,2.8746-2.5966a1.6969,1.6969,0,0,1,.7707-.498l3.45-.6666a.9046.9046,0,0,1,.5455.0553"/>
                           <path class="cls-2" d="M252.7416,89.2131a4.4,4.4,0,0,0,1.0829.8537"/>
                           <path class="cls-2"
                                 d="M259.8978,88.8732c.5309-2.2633.3307-.9261.3333-4.0431l.0791-49.1559c.0052-2.4939.32-3.8824-1.9393-5.1287"/>
                           <path class="cls-2"
                                 d="M218.1512,39.9835q4.2546-.824,8.5079-1.6428a.9084.9084,0,0,1,.5428.054"/>
                           <path class="cls-2"
                                 d="M226.6973,38.3381c1.8115,1.6468,2.9972,1.8075,5.3251,1.3582a6.221,6.221,0,0,0,2.9484-.9288l.51-.5256,1.1422-1.4742a1.6727,1.6727,0,0,1,.7694-.498L245.7,34.6638a.9244.9244,0,0,1,.5454.0553"/>
                           <path class="cls-2"
                                 d="M245.7381,34.6624c1.8115,1.6468,2.9985,1.8076,5.3251,1.3583a6.212,6.212,0,0,0,2.95-.9288l.5085-.5256,1.1435-1.4742a1.6862,1.6862,0,0,1,.7694-.498c1.6139-.3136.9486-.3267,1.9775-.2213"/>
                           <path class="cls-2"
                                 d="M218.1525,39.0851,218.15,41.72l-.083,51.2492-.0027,2.6349c.1884.7417,0,.4387.5415.93"/>
                           <path class="cls-2"
                                 d="M221.4513,68.0605l-.0065,4.1829c-.1054.2977-.0145.1831-.2741.3517l-3.0722.5929"/>
                           <path class="cls-2" d="M218.1051,68.7074l3.8824-.7509.1937.0513"/>
                           <path class="cls-2" d="M223.76,65.373l-.8089-.4453-4.8389.9341"/>
                           <path class="cls-2"
                                 d="M224.4287,72.3527c-.6785-.6152-.4426-.2345-.6785-1.1633l.0053-2.6348v-.5468l.004-2.6348"/>
                           <path class="cls-2" d="M223.06,64.987l.0013-1.577-.0711-.2793"/>
                           <path class="cls-2"
                                 d="M218.1169,62.497c1.8761,1.0369,2.84,1.025,4.94.6192l.4084.0435"/>
                           <path class="cls-2" d="M223.9769,71.9417l.3227.0342.0474-.01"/>
                           <path class="cls-2"
                                 d="M223.8833,71.71c1.0276.5678.4914.4045,1.606.5178l7.2366-1.3965"/>
                           <path class="cls-2"
                                 d="M232.7259,70.9523l-.004,1.5769c-.0013.805-.2648,2.5335.6416,3.1289l1.2107.668,1.2108.6692"/>
                           <path class="cls-2"
                                 d="M239.4751,71.636l-2.3068-1.2713-.3992-.22-2.3068-1.2739a2.5158,2.5158,0,0,0-1.1014-.2042l-.6324.0566"/>
                           <path class="cls-2"
                                 d="M225.2758,94.4433a1.7,1.7,0,0,0,.7694-.498c1.5862-2.0459,2.071-2.4425,4.5991-2.9312.805-.1542,2.075-.6126,2.95-.2082a10.4543,10.4543,0,0,1,2.9378,2.0776l.2266.1476"/>
                           <path class="cls-2"
                                 d="M229.8038,61.7514l-.191-.05-4.0814.7878c-.26.1687-.166.0527-.2714.3531l-.0066,4.4859.0791.1936"/>
                           <path class="cls-2"
                                 d="M229.074,61.8067l-.0066,4.18c-.1041.2991-.0119.1845-.2727.3531l-3.5413.6837"/>
                           <path class="cls-2"
                                 d="M229.7551,38.479l-.2266-.1449A8.3831,8.3831,0,0,0,226,36.1l-.2015.0118"/>
                           <path class="cls-2"
                                 d="M228.9673,37.823l3.4885-.6693a1.6794,1.6794,0,0,0,.7694-.498,8.85,8.85,0,0,1,2.2409-2.3832l.2108-.0685"/>
                           <path class="cls-2" d="M233.3965,35.3528a1.61,1.61,0,0,0,.2107.8115"/>
                           <path class="cls-2"
                                 d="M228.2677,86.6613c2.1566,1.1988,5.715,1.4979,7.6846-.2042"/>
                           <path class="cls-2"
                                 d="M235.1842,87.0381l-.2911-.1608a9.693,9.693,0,0,0-3.2014-.3978,7.2823,7.2823,0,0,0-2.8074.5256"/>
                           <path class="cls-2" d="M236.9785,80.0452l-5.0075.9656-2.9747-1.6428"/>
                           <path class="cls-2"
                                 d="M240.0916,88.6928q-4.49.8674-8.9782,1.7324l-1.2938-.7141"/>
                           <path class="cls-2" d="M234.97,80.4312l-.97-.5336-2.9971.58"/>
                           <path class="cls-2" d="M232.5586,61.9108l2.2422.743.3123.1449"/>
                           <path class="cls-2" d="M235.2237,58.4446a1.4616,1.4616,0,0,0,.1173.7865"/>
                           <path class="cls-2" d="M232.025,37.2367l-.2371-.31-.2438-1.216"/>
                           <path class="cls-2" d="M235.1183,38.6147a1.112,1.112,0,0,1-.2.971"/>
                           <path class="cls-2"
                                 d="M242.63,85.4335l-2.1777.4189L238.1471,84.58l-.722-.3979-2.3068-1.274"/>
                           <path class="cls-2" d="M240.62,85.8208l-3.3278-1.8378-.1673.0316"/>
                           <path class="cls-2"
                                 d="M242.3326,68.382l-.2438-.1331c-1.1105-1.5914-1.9-3.7546-.8576-5.5911"/>
                           <path class="cls-2"
                                 d="M242.38,38.4777l-.2437-.1317a4.8506,4.8506,0,0,1-1.1554-2.3306l-.0488-.4294"/>
                           <path class="cls-2"
                                 d="M244.3179,90.7664a1.6862,1.6862,0,0,0,.7694-.498c1.5849-2.0446,2.07-2.44,4.6005-2.93.8023-.1555,2.0723-.6113,2.95-.2069a10.4037,10.4037,0,0,1,2.9365,2.075l.2253.1475"/>
                           <path class="cls-2"
                                 d="M246.655,75.5989c-.0052,2.4438.448,4.7677-1.1132,6.7794"/>
                           <path class="cls-2"
                                 d="M248.7959,34.8034l-.2253-.1449a10.96,10.96,0,0,0-2.3688-1.764"/>
                           <path class="cls-2"
                                 d="M248.0107,34.1473l3.4885-.6692a1.6862,1.6862,0,0,0,.7694-.498l1.1409-1.4742"/>
                           <path class="cls-2"
                                 d="M254.5135,55.0233c-1.0434,1.8352-.2543,4,.855,5.59l.2437.1331"/>
                           <line class="cls-2"
                                 x1="253.3963"
                                 y1="89.7862"
                                 x2="248.1595"
                                 y2="90.7967"/>
                           <line class="cls-2"
                                 x1="234.3529"
                                 y1="93.4632"
                                 x2="229.1161"
                                 y2="94.475"/>
                           <line class="cls-2"
                                 x1="218.1525"
                                 y1="39.0851"
                                 x2="216.1421"
                                 y2="37.9758"/>
                           <line class="cls-2"
                                 x1="218.6913"
                                 y1="90.055"
                                 x2="218.0721"
                                 y2="90.1736"/>
                           <line class="cls-2"
                                 x1="225.8621"
                                 y1="80.8409"
                                 x2="218.0853"
                                 y2="82.3428"/>
                           <line class="cls-2"
                                 x1="232.7285"
                                 y1="68.7232"
                                 x2="232.7259"
                                 y2="70.8311"/>
                           <line class="cls-2"
                                 x1="232.7259"
                                 y1="70.9523"
                                 x2="232.5638"
                                 y2="70.8627"/>
                           <line class="cls-2"
                                 x1="239.4738"
                                 y1="72.0444"
                                 x2="239.4751"
                                 y2="71.636"/>
                           <line class="cls-2"
                                 x1="225.2758"
                                 y1="94.4433"
                                 x2="224.3062"
                                 y2="93.9071"/>
                           <line class="cls-2"
                                 x1="235.972"
                                 y1="92.3737"
                                 x2="236.0076"
                                 y2="92.3723"/>
                           <line class="cls-2"
                                 x1="228.1939"
                                 y1="45.8593"
                                 x2="228.4324"
                                 y2="46.074"/>
                           <line class="cls-2"
                                 x1="227.1439"
                                 y1="36.5595"
                                 x2="234.3885"
                                 y2="35.1618"/>
                           <line class="cls-2"
                                 x1="228.2677"
                                 y1="86.6613"
                                 x2="228.1175"
                                 y2="86.0908"/>
                           <line class="cls-2"
                                 x1="232.7377"
                                 y1="62.144"
                                 x2="233.0157"
                                 y2="62.4206"/>
                           <line class="cls-2"
                                 x1="234.8799"
                                 y1="63.5088"
                                 x2="235.0577"
                                 y2="63.2796"/>
                           <line class="cls-2"
                                 x1="235.4213"
                                 y1="59.5131"
                                 x2="235.4424"
                                 y2="59.5803"/>
                           <line class="cls-2"
                                 x1="235.1513"
                                 y1="38.8756"
                                 x2="234.9484"
                                 y2="38.7807"/>
                           <line class="cls-2"
                                 x1="244.3179"
                                 y1="90.7664"
                                 x2="243.347"
                                 y2="90.2328"/>
                           <line class="cls-2"
                                 x1="255.0141"
                                 y1="88.6967"
                                 x2="255.051"
                                 y2="88.6954"/>
                           <line class="cls-2"
                                 x1="247.103"
                                 y1="83.2413"
                                 x2="244.198"
                                 y2="81.6379"/>
                           <line class="cls-2"
                                 x1="250.7931"
                                 y1="77.882"
                                 x2="245.2968"
                                 y2="74.8479"/>
                           <line class="cls-2"
                                 x1="250.7931"
                                 y1="78.2904"
                                 x2="250.7931"
                                 y2="77.882"/>
                           <line class="cls-2"
                                 x1="249.253"
                                 y1="32.3214"
                                 x2="249.2293"
                                 y2="32.3095"/>
                        </g>
                     </g>
                     <g id="ID_1008" data-name="ID 1008">
                        <g id="ID_1023" data-name="ID 1023">
                           <g id="ID_1026" data-name="ID 1026">
                              <path class="cls-1"
                                    d="M259.7358,23.218a1.1952,1.1952,0,0,1-.7668.3952l-2.5874.4993-16.369,3.1618-2.5875.498-.158.0145-.1581-.0145-3.8417-2.0934"/>
                              <path class="cls-2"
                                    d="M259.1508,22.7015c.2635.1449.527.2108.585.5165l-.0093,6.8176a1.2088,1.2088,0,0,1-.7667.3966l-2.5887.4993-16.37,3.16-2.5874.498-.1581.0158-.1581-.0158-.9393-.49"/>
                           </g>
                           <g id="ID_1024" data-name="ID 1024">
                              <path class="cls-2"
                                    d="M259.8,9.2759l-.0039,2.6349-.0461,7.7659-.0066,2.6349c-.3228.4176-.0962.2226-.7733.4505a46.1416,46.1416,0,0,1-4.5992.8063,3.1527,3.1527,0,0,1-1.378-.2543l-2.27-1.2555-.35-.08"/>
                           </g>
                        </g>
                        <g id="ID_1009" data-name="ID 1009">
                           <g id="ID_1012" data-name="ID 1012">
                              <path class="cls-2"
                                    d="M236.2,34.092l-.573.1212-2.5862.5006L39.9257,71.9891l-2.5874.5006"/>
                              <path class="cls-2"
                                    d="M233.0829,25.3166a1.29,1.29,0,0,0,.3043.4769l2.25,1.2437a2.4907,2.4907,0,0,1,.8076,1.9419A16.6662,16.6662,0,0,1,236.2,34.092"/>
                           </g>
                        </g>
                     </g>
                  </g>
               </g>
            </g>
         </g>
      </g>
   </g>
   <g id="Layer_2" data-name="Layer 2">
      <g>
         <line class="cls-3"
               x1="232.5638"
               y1="86.6613"
               x2="312.9855"
               y2="56.703"/>
         <line class="cls-4"
               x1="312.9855"
               y1="56.703"
               x2="232.5638"
               y2="86.6613"/>
         <circle class="cls-5" cx="312.9855" cy="56.703" r="9.5"/>
         <text class="cls-6" transform="translate(308.0911 62.2353)">A</text>
      </g>
   </g>
</svg>
