<?xml version="1.0" encoding="UTF-8"?>
<svg xmlns="http://www.w3.org/2000/svg"
     xmlns:xlink="http://www.w3.org/1999/xlink"
     width="120mm"
     height="55mm"
     viewBox="0 0 340.1575 155.9055">
   <defs>
      <style>
      .cls-1 {
        clip-path: url(#clippath-20);
      }

      .cls-2 {
        clip-path: url(#clippath-11);
      }

      .cls-3 {
        clip-path: url(#clippath-16);
      }

      .cls-4 {
        stroke-width: .645px;
      }

      .cls-4, .cls-5, .cls-6, .cls-7, .cls-8, .cls-9 {
        fill: none;
      }

      .cls-4, .cls-7, .cls-8, .cls-9 {
        stroke-miterlimit: 3;
      }

      .cls-4, .cls-7, .cls-9 {
        stroke: #000;
      }

      .cls-10 {
        clip-path: url(#clippath-2);
      }

      .cls-11, .cls-12, .cls-13, .cls-6, .cls-14, .cls-15, .cls-16, .cls-17 {
        stroke-width: 0px;
      }

      .cls-11, .cls-14 {
        fill: #010101;
      }

      .cls-12, .cls-14, .cls-16 {
        fill-rule: evenodd;
      }

      .cls-18 {
        clip-path: url(#clippath-13);
      }

      .cls-19 {
        clip-path: url(#clippath-25);
      }

      .cls-20 {
        clip-path: url(#clippath-15);
      }

      .cls-21 {
        clip-path: url(#clippath-6);
      }

      .cls-22 {
        clip-path: url(#clippath-26);
      }

      .cls-5 {
        stroke-miterlimit: 10;
      }

      .cls-5, .cls-7, .cls-8 {
        stroke-width: .75px;
      }

      .cls-5, .cls-8 {
        stroke: #010101;
      }

      .cls-23 {
        clip-path: url(#clippath-7);
      }

      .cls-24 {
        clip-path: url(#clippath-21);
      }

      .cls-25 {
        clip-path: url(#clippath-1);
      }

      .cls-26 {
        clip-path: url(#clippath-4);
      }

      .cls-27 {
        clip-path: url(#clippath-27);
      }

      .cls-28 {
        clip-path: url(#clippath-12);
      }

      .cls-15, .cls-16 {
        fill: #fff;
      }

      .cls-29 {
        clip-path: url(#clippath-24);
      }

      .cls-30 {
        clip-path: url(#clippath-22);
      }

      .cls-31 {
        clip-path: url(#clippath-9);
      }

      .cls-32 {
        clip-path: url(#clippath);
      }

      .cls-33 {
        clip-path: url(#clippath-19);
      }

      .cls-34 {
        clip-path: url(#clippath-3);
      }

      .cls-17 {
        fill: #c6c6c6;
      }

      .cls-35 {
        clip-path: url(#clippath-8);
      }

      .cls-36 {
        clip-path: url(#clippath-29);
      }

      .cls-37 {
        clip-path: url(#clippath-18);
      }

      .cls-38 {
        clip-path: url(#clippath-14);
      }

      .cls-39 {
        clip-path: url(#clippath-17);
      }

      .cls-40 {
        clip-path: url(#clippath-5);
      }

      .cls-41 {
        clip-path: url(#clippath-10);
      }

      .cls-42 {
        clip-path: url(#clippath-23);
      }

      .cls-43 {
        clip-path: url(#clippath-28);
      }

      .cls-9 {
        stroke-width: .5px;
      }

      .cls-44 {
        fill: #01889C;
        font-family: Arial-BoldMT, Arial;
        font-size: 10px;
        font-weight: 700;
      }
    </style>
      <clipPath id="clippath">
         <rect class="cls-6"
               x="147.8353"
               y="98.4739"
               width="4.5709"
               height="4.5819"/>
      </clipPath>
      <clipPath id="clippath-1">
         <rect class="cls-6"
               x="147.8353"
               y="98.4738"
               width="4.571"
               height="4.582"/>
      </clipPath>
      <clipPath id="clippath-2">
         <rect class="cls-6"
               x="235.9239"
               y="98.4739"
               width="4.5709"
               height="4.5819"/>
      </clipPath>
      <clipPath id="clippath-3">
         <rect class="cls-6"
               x="235.9239"
               y="98.4738"
               width="4.571"
               height="4.582"/>
      </clipPath>
      <clipPath id="clippath-4">
         <rect class="cls-6"
               x="147.8353"
               y="38.4739"
               width="4.5709"
               height="4.5819"/>
      </clipPath>
      <clipPath id="clippath-5">
         <rect class="cls-6"
               x="147.8353"
               y="38.4738"
               width="4.571"
               height="4.582"/>
      </clipPath>
      <clipPath id="clippath-6">
         <rect class="cls-6"
               x="291.7768"
               y="97.6403"
               width="6.125"
               height="6.125"/>
      </clipPath>
      <clipPath id="clippath-7">
         <rect class="cls-6"
               x="291.7768"
               y="97.6403"
               width="6.125"
               height="6.125"/>
      </clipPath>
      <clipPath id="clippath-8">
         <rect class="cls-6"
               x="33.0209"
               y="97.6403"
               width="6.125"
               height="6.125"/>
      </clipPath>
      <clipPath id="clippath-9">
         <rect class="cls-6"
               x="33.0209"
               y="97.6403"
               width="6.125"
               height="6.125"/>
      </clipPath>
      <clipPath id="clippath-10">
         <rect class="cls-6"
               x="33.0209"
               y="37.6403"
               width="6.125"
               height="6.125"/>
      </clipPath>
      <clipPath id="clippath-11">
         <rect class="cls-6"
               x="33.0209"
               y="37.6403"
               width="6.125"
               height="6.125"/>
      </clipPath>
      <clipPath id="clippath-12">
         <rect class="cls-6"
               x="97.3368"
               y="80.9411"
               width="38.2419"
               height="40.5368"/>
      </clipPath>
      <clipPath id="clippath-13">
         <rect class="cls-6"
               x="103.3358"
               y="85.3669"
               width="32.242"
               height="36.111"/>
      </clipPath>
      <clipPath id="clippath-14">
         <rect class="cls-6"
               x="100.3368"
               y="83.1859"
               width="32.242"
               height="36.112"/>
      </clipPath>
      <clipPath id="clippath-15">
         <rect class="cls-6"
               x="97.3368"
               y="80.9409"
               width="32.242"
               height="36.112"/>
      </clipPath>
      <clipPath id="clippath-16">
         <rect class="cls-6"
               x="97.3368"
               y="80.9409"
               width="32.242"
               height="36.112"/>
      </clipPath>
      <clipPath id="clippath-17">
         <rect class="cls-6"
               x="60.7068"
               y="32.6307"
               width="16.63"
               height="16.2683"/>
      </clipPath>
      <clipPath id="clippath-18">
         <rect class="cls-6"
               x="60.7068"
               y="32.631"
               width="16.63"
               height="16.268"/>
      </clipPath>
      <clipPath id="clippath-19">
         <rect class="cls-6"
               x="60.7068"
               y="92.5686"
               width="16.63"
               height="16.2683"/>
      </clipPath>
      <clipPath id="clippath-20">
         <rect class="cls-6"
               x="60.7068"
               y="92.5689"
               width="16.63"
               height="16.268"/>
      </clipPath>
      <clipPath id="clippath-21">
         <rect class="cls-6"
               x="214.0451"
               y="32.6307"
               width="16.63"
               height="16.2683"/>
      </clipPath>
      <clipPath id="clippath-22">
         <rect class="cls-6"
               x="214.0451"
               y="32.631"
               width="16.63"
               height="16.268"/>
      </clipPath>
      <clipPath id="clippath-23">
         <rect class="cls-6"
               x="214.0451"
               y="134.5081"
               width="16.63"
               height="16.2683"/>
      </clipPath>
      <clipPath id="clippath-24">
         <rect class="cls-6"
               x="214.0451"
               y="134.5084"
               width="16.63"
               height="16.268"/>
      </clipPath>
      <clipPath id="clippath-25">
         <rect class="cls-6"
               x="258.2093"
               y="92.6307"
               width="16.63"
               height="16.2683"/>
      </clipPath>
      <clipPath id="clippath-26">
         <rect class="cls-6"
               x="258.2093"
               y="92.631"
               width="16.63"
               height="16.268"/>
      </clipPath>
      <clipPath id="clippath-27">
         <rect class="cls-6"
               x="165.1207"
               y="56.304"
               width="38.0886"
               height="59.5948"/>
      </clipPath>
      <clipPath id="clippath-28">
         <rect class="cls-6"
               x="165.1207"
               y="56.3038"
               width="38.089"
               height="59.595"/>
      </clipPath>
      <clipPath id="clippath-29">
         <rect class="cls-6"
               x="165.1207"
               y="56.3038"
               width="38.089"
               height="59.595"/>
      </clipPath>
   </defs>
   <g id="Layer_4" data-name="Layer 4">
      <g>
         <polygon class="cls-17"
                  points="57.1467 98.4455 60.5143 98.4373 56.9033 102.9827 53.5358 102.9908 57.1467 98.4455"/>
         <polygon class="cls-17"
                  points="49.0012 98.4653 52.3688 98.4571 48.7578 103.0024 45.3902 103.0106 49.0012 98.4653"/>
         <polygon class="cls-17"
                  points="40.8556 98.485 44.2231 98.4768 40.6122 103.0222 37.2446 103.0303 40.8556 98.485"/>
      </g>
      <g>
         <polygon class="cls-17"
                  points="56.1777 38.4765 59.5453 38.4683 55.9344 43.0137 52.5668 43.0219 56.1777 38.4765"/>
         <polygon class="cls-17"
                  points="48.0321 38.4963 51.3997 38.4881 47.7887 43.0335 44.4212 43.0416 48.0321 38.4963"/>
         <polygon class="cls-17"
                  points="39.8866 38.516 43.2542 38.5079 39.6432 43.0532 36.2757 43.0614 39.8866 38.516"/>
      </g>
   </g>
   <g id="Paths">
      <path class="cls-7" d="m61.6758,100.7649h-25.5924"/>
      <path class="cls-7" d="m258.7666,100.7649H76.3009"/>
      <path class="cls-7" d="m294.8207,100.7649h-20.45"/>
      <path class="cls-7" d="m214.7874,40.7649H76.3009"/>
      <path class="cls-7" d="m61.4383,40.7649h-24.4537"/>
      <polyline class="cls-7"
                points="238.2093 100.7028 238.2093 40.7649 230.3985 40.7649"/>
      <polyline class="cls-7"
                points="230.2596 142.6422 238.2093 142.6422 238.2093 100.7649"/>
      <polyline class="cls-7"
                points="150.1207 100.7028 150.1207 142.6422 214.593 142.6422"/>
      <polyline class="cls-7"
                points="150.1207 40.7649 150.1207 71.5332 165.1207 71.5332"/>
      <g id="Connect">
         <g class="cls-32">
            <g class="cls-25">
               <path class="cls-12"
                     d="m150.1204,99.7615c.553,0,1,.449,1,1.003,0,.555-.447,1.003-1,1.003-.552,0-1-.448-1-1.003,0-.554.448-1.003,1-1.003"/>
               <circle class="cls-9" cx="150.1204" cy="100.7645" r="1"/>
            </g>
         </g>
      </g>
      <g id="Connect-2" data-name="Connect">
         <g class="cls-10">
            <g class="cls-34">
               <path class="cls-12"
                     d="m238.209,99.7615c.553,0,1,.449,1,1.003,0,.555-.447,1.003-1,1.003-.552,0-1-.448-1-1.003,0-.554.448-1.003,1-1.003"/>
               <circle class="cls-9" cx="238.209" cy="100.7645" r="1"/>
            </g>
         </g>
      </g>
      <g id="Connect-3" data-name="Connect">
         <g class="cls-26">
            <g class="cls-40">
               <path class="cls-12"
                     d="m150.1204,39.7615c.553,0,1,.449,1,1.003,0,.555-.447,1.003-1,1.003-.552,0-1-.448-1-1.003,0-.554.448-1.003,1-1.003"/>
               <circle class="cls-9" cx="150.1204" cy="40.7645" r="1"/>
            </g>
         </g>
      </g>
   </g>
   <g id="Parts">
      <g id="Artwork_13" data-name="Artwork 13">
         <g class="cls-21">
            <g class="cls-23">
               <path class="cls-16"
                     d="m294.8392,98.7032c1.104,0,2,.896,2,2s-.896,2-2,2-2-.896-2-2,.896-2,2-2"/>
               <circle class="cls-7" cx="294.8392" cy="100.7032" r="2"/>
            </g>
         </g>
      </g>
      <g id="Artwork_13-2" data-name="Artwork 13">
         <g class="cls-35">
            <g class="cls-31">
               <path class="cls-16"
                     d="m36.0833,98.7032c1.104,0,2,.896,2,2s-.896,2-2,2-2-.896-2-2,.896-2,2-2"/>
               <circle class="cls-7" cx="36.0833" cy="100.7032" r="2"/>
            </g>
         </g>
      </g>
      <g id="Artwork_13-3" data-name="Artwork 13">
         <g class="cls-41">
            <g class="cls-2">
               <path class="cls-16"
                     d="m36.0833,38.7032c1.104,0,2,.896,2,2s-.896,2-2,2-2-.896-2-2,.896-2,2-2"/>
               <circle class="cls-7" cx="36.0833" cy="40.7032" r="2"/>
            </g>
         </g>
      </g>
      <g id="Modular_Inverter" data-name="Modular Inverter">
         <g class="cls-28">
            <rect class="cls-15"
                  x="103.9808"
                  y="87.9459"
                  width="30.952"
                  height="30.952"/>
            <rect class="cls-4"
                  x="103.9806"
                  y="87.9456"
                  width="30.952"
                  height="30.952"/>
            <line class="cls-4"
                  x1="103.9831"
                  y1="118.8998"
                  x2="134.9341"
                  y2="87.9478"/>
            <line class="cls-4"
                  x1="107.366"
                  y1="94.7188"
                  x2="116.067"
                  y2="94.7188"/>
            <line class="cls-4"
                  x1="114.0184"
                  y1="92.7843"
                  x2="116.0664"
                  y2="92.7843"/>
            <line class="cls-4"
                  x1="110.6922"
                  y1="92.7843"
                  x2="112.7402"
                  y2="92.7843"/>
            <line class="cls-4"
                  x1="107.366"
                  y1="92.7843"
                  x2="109.414"
                  y2="92.7843"/>
            <g class="cls-18">
               <path class="cls-4"
                     d="m131.5189,113.5308c-.121,1.086-.988,1.825-1.935,1.825s-1.702-.482-1.934-1.825c-.232-1.343-1.121-1.824-1.935-1.824-.813,0-1.835.755-1.934,1.824"/>
            </g>
            <rect class="cls-15"
                  x="100.9808"
                  y="85.7649"
                  width="30.952"
                  height="30.952"/>
            <rect class="cls-4"
                  x="100.9806"
                  y="85.7654"
                  width="30.952"
                  height="30.952"/>
            <line class="cls-4"
                  x1="100.9831"
                  y1="116.7196"
                  x2="131.9341"
                  y2="85.7676"/>
            <line class="cls-4"
                  x1="104.366"
                  y1="92.5387"
                  x2="113.067"
                  y2="92.5387"/>
            <line class="cls-4"
                  x1="111.0184"
                  y1="90.6042"
                  x2="113.0664"
                  y2="90.6042"/>
            <line class="cls-4"
                  x1="107.6922"
                  y1="90.6042"
                  x2="109.7402"
                  y2="90.6042"/>
            <line class="cls-4"
                  x1="104.366"
                  y1="90.6042"
                  x2="106.414"
                  y2="90.6042"/>
            <g class="cls-38">
               <path class="cls-4"
                     d="m128.5189,111.3506c-.121,1.086-.988,1.825-1.935,1.825s-1.702-.482-1.934-1.825c-.232-1.343-1.121-1.824-1.935-1.824-.813,0-1.835.755-1.934,1.824"/>
            </g>
            <rect class="cls-15"
                  x="97.9798"
                  y="83.5189"
                  width="30.953"
                  height="30.953"/>
            <g class="cls-20">
               <rect class="cls-4"
                     x="97.9806"
                     y="83.5198"
                     width="30.952"
                     height="30.952"/>
               <line class="cls-4"
                     x1="97.9831"
                     y1="114.474"
                     x2="128.9341"
                     y2="83.522"/>
            </g>
            <line class="cls-4"
                  x1="101.366"
                  y1="90.2931"
                  x2="110.067"
                  y2="90.2931"/>
            <line class="cls-4"
                  x1="108.0184"
                  y1="88.3585"
                  x2="110.0664"
                  y2="88.3585"/>
            <line class="cls-4"
                  x1="104.6922"
                  y1="88.3585"
                  x2="106.7402"
                  y2="88.3585"/>
            <line class="cls-4"
                  x1="101.366"
                  y1="88.3585"
                  x2="103.414"
                  y2="88.3585"/>
            <g class="cls-3">
               <path class="cls-4"
                     d="m125.5189,109.105c-.121,1.086-.988,1.825-1.935,1.825s-1.702-.482-1.934-1.825c-.232-1.343-1.121-1.824-1.935-1.824-.813,0-1.835.755-1.934,1.824"/>
            </g>
         </g>
      </g>
      <g id="Artwork_20_no_white" data-name="Artwork 20 no white">
         <g class="cls-39">
            <g class="cls-37">
               <line class="cls-7"
                     x1="61.7069"
                     y1="47.5422"
                     x2="76.3369"
                     y2="40.7762"/>
               <path class="cls-13"
                     d="m76.3368,41.7805h0c-.55,0-1-.45-1-1,0-.551.45-1,1-1s1,.449,1,1c0,.55-.45,1-1,1"/>
               <path class="cls-13"
                     d="m61.7069,41.7805h0c-.55,0-1-.45-1-1,0-.551.45-1,1-1s1,.449,1,1c0,.55-.45,1-1,1"/>
            </g>
         </g>
      </g>
      <g id="Artwork_20_no_white-2" data-name="Artwork 20 no white">
         <g class="cls-33">
            <g class="cls-1">
               <line class="cls-7"
                     x1="61.7069"
                     y1="107.4801"
                     x2="76.3369"
                     y2="100.7141"/>
               <path class="cls-13"
                     d="m76.3368,101.7184h0c-.55,0-1-.45-1-1,0-.551.45-1,1-1s1,.449,1,1c0,.55-.45,1-1,1"/>
               <path class="cls-13"
                     d="m61.7069,101.7184h0c-.55,0-1-.45-1-1,0-.551.45-1,1-1s1,.449,1,1c0,.55-.45,1-1,1"/>
            </g>
         </g>
      </g>
      <g id="Artwork_20_no_white-3" data-name="Artwork 20 no white">
         <g class="cls-24">
            <g class="cls-30">
               <line class="cls-7"
                     x1="215.0452"
                     y1="47.5422"
                     x2="229.6752"
                     y2="40.7762"/>
               <path class="cls-13"
                     d="m229.6751,41.7805h0c-.55,0-1-.45-1-1,0-.551.45-1,1-1s1,.449,1,1c0,.55-.45,1-1,1"/>
               <path class="cls-13"
                     d="m215.0452,41.7805h0c-.55,0-1-.45-1-1,0-.551.45-1,1-1s1,.449,1,1c0,.55-.45,1-1,1"/>
            </g>
         </g>
      </g>
      <g id="Artwork_20_no_white-4" data-name="Artwork 20 no white">
         <g class="cls-42">
            <g class="cls-29">
               <line class="cls-7"
                     x1="215.0452"
                     y1="149.4196"
                     x2="229.6752"
                     y2="142.6536"/>
               <path class="cls-13"
                     d="m229.6751,143.6579h0c-.55,0-1-.45-1-1,0-.551.45-1,1-1s1,.449,1,1c0,.55-.45,1-1,1"/>
               <path class="cls-13"
                     d="m215.0452,143.6579h0c-.55,0-1-.45-1-1,0-.551.45-1,1-1s1,.449,1,1c0,.55-.45,1-1,1"/>
            </g>
         </g>
      </g>
      <g id="Artwork_20_no_white-5" data-name="Artwork 20 no white">
         <g class="cls-19">
            <g class="cls-22">
               <line class="cls-7"
                     x1="259.2094"
                     y1="107.5422"
                     x2="273.8394"
                     y2="100.7762"/>
               <path class="cls-13"
                     d="m273.8393,101.7805h0c-.55,0-1-.45-1-1,0-.551.45-1,1-1s1,.449,1,1c0,.55-.45,1-1,1"/>
               <path class="cls-13"
                     d="m259.2094,101.7805h0c-.55,0-1-.45-1-1,0-.551.45-1,1-1s1,.449,1,1c0,.55-.45,1-1,1"/>
            </g>
         </g>
      </g>
      <g id="Modular-SSW">
         <g class="cls-27">
            <rect class="cls-15"
                  x="165.4957"
                  y="56.6788"
                  width="37.338"
                  height="58.845"/>
            <g class="cls-43">
               <rect class="cls-8"
                     x="165.4957"
                     y="56.6788"
                     width="37.339"
                     height="58.845"/>
               <polyline class="cls-5"
                         points="165.4957 100.8133 194.8347 100.8133 194.8347 71.3913 165.4957 71.3913"/>
            </g>
            <rect class="cls-15"
                  x="172.8257"
                  y="93.2278"
                  width="15.128"
                  height="15.171"/>
            <rect class="cls-8"
                  x="172.8257"
                  y="93.2278"
                  width="15.128"
                  height="15.171"/>
            <line class="cls-8"
                  x1="177.7934"
                  y1="112.0787"
                  x2="177.7934"
                  y2="104.7187"/>
            <line class="cls-8"
                  x1="180.7355"
                  y1="112.0787"
                  x2="180.7255"
                  y2="109.7367"/>
            <path class="cls-11"
                  d="m183.9903,105.9347v4.928l-4.908-2.464,4.908-2.464Zm.75-1.216l-7.33,3.68,7.33,3.68v-7.36Z"/>
            <line class="cls-8"
                  x1="183.4519"
                  y1="89.6014"
                  x2="183.4519"
                  y2="96.9614"/>
            <line class="cls-8"
                  x1="180.1631"
                  y1="89.5501"
                  x2="180.1631"
                  y2="91.5631"/>
            <path class="cls-11"
                  d="m177.2481,90.7625l4.908,2.464-4.908,2.464v-4.928Zm-.75-1.216v7.36l7.33-3.68-7.33-3.68Z"/>
            <g class="cls-36">
               <path class="cls-14"
                     d="m172.8261,99.8126c.551,0,.997.448.997,1s-.446,1-.997,1-.997-.448-.997-1,.446-1,.997-1"/>
               <circle class="cls-8" cx="172.8261" cy="100.8126" r=".997"/>
               <path class="cls-14"
                     d="m187.9538,99.8133c.551,0,.997.448.997,1s-.446,1-.997,1-.997-.448-.997-1,.446-1,.997-1"/>
               <circle class="cls-8" cx="187.9538" cy="100.8133" r=".997"/>
               <rect class="cls-15"
                     x="172.8257"
                     y="63.8058"
                     width="15.128"
                     height="15.171"/>
               <rect class="cls-8"
                     x="172.8257"
                     y="63.8058"
                     width="15.128"
                     height="15.171"/>
               <line class="cls-8"
                     x1="177.7934"
                     y1="82.6563"
                     x2="177.7934"
                     y2="75.2963"/>
               <line class="cls-8"
                     x1="180.7355"
                     y1="82.6563"
                     x2="180.7255"
                     y2="80.3143"/>
               <path class="cls-11"
                     d="m183.9903,76.5123v4.928l-4.908-2.464,4.908-2.464Zm.75-1.216l-7.33,3.68,7.33,3.68v-7.36Z"/>
               <line class="cls-8"
                     x1="183.4519"
                     y1="60.179"
                     x2="183.4519"
                     y2="67.539"/>
               <line class="cls-8"
                     x1="180.1631"
                     y1="60.1277"
                     x2="180.1631"
                     y2="62.1407"/>
               <path class="cls-11"
                     d="m177.2481,61.3401l4.908,2.464-4.908,2.464v-4.928Zm-.75-1.216v7.36l7.33-3.68-7.33-3.68Z"/>
               <path class="cls-14"
                     d="m172.8261,70.3902c.551,0,.997.448.997,1s-.446,1-.997,1-.997-.448-.997-1,.446-1,.997-1"/>
               <circle class="cls-8" cx="172.8261" cy="71.3902" r=".997"/>
               <path class="cls-14"
                     d="m187.9538,70.3909c.551,0,.997.448.997,1s-.446,1-.997,1-.997-.448-.997-1,.446-1,.997-1"/>
               <circle class="cls-8" cx="187.9538" cy="71.3909" r=".997"/>
               <line class="cls-5"
                     x1="202.8343"
                     y1="100.8126"
                     x2="194.8343"
                     y2="100.8126"/>
               <path class="cls-14"
                     d="m194.8343,99.8133c.551,0,.997.448.997,1s-.446,1-.997,1-.997-.448-.997-1,.446-1,.997-1"/>
               <circle class="cls-8" cx="194.8343" cy="100.8133" r=".997"/>
            </g>
         </g>
      </g>
   </g>
   <g id="Text">
      <text class="cls-44" transform="translate(15.5216 18.6936)">
         <tspan x="0" y="0">BYPASS</tspan>
         <tspan x="4.4507" y="12">MAINS</tspan>
      </text>
      <text class="cls-44" transform="translate(91.1767 78.6933)">
         <tspan x="0" y="0">INVERTER</tspan>
      </text>
      <text class="cls-44" transform="translate(265.6556 94.0576)">
         <tspan x="0" y="0">AC OUTPUT</tspan>
      </text>
      <text class="cls-44" transform="translate(12.4723 94.0576)">
         <tspan x="0" y="0">DC INPUT</tspan>
      </text>
      <text class="cls-44" transform="translate(152.025 18.6938)">
         <tspan x="0" y="0">STATIC</tspan>
      </text>
      <text class="cls-44" transform="translate(150.3599 30.6936)">
         <tspan x="0" y="0">SWITCH</tspan>
      </text>
      <text class="cls-44" transform="translate(209.0127 18.6938)">
         <tspan x="0" y="0">MANUAL</tspan>
      </text>
      <text class="cls-44" transform="translate(210.1138 30.6938)">
         <tspan x="0" y="0">BYPASS</tspan>
      </text>
   </g>
</svg>
