<?xml version="1.0" encoding="UTF-8"?>
<svg xmlns="http://www.w3.org/2000/svg"
     xmlns:xlink="http://www.w3.org/1999/xlink"
     width="120mm"
     height="55mm"
     viewBox="0 0 340.1575 155.9055">
   <defs>
      <style>
      .cls-1 {
        clip-path: url(#clippath-20);
      }

      .cls-2 {
        clip-path: url(#clippath-11);
      }

      .cls-3 {
        clip-path: url(#clippath-16);
      }

      .cls-4 {
        stroke: #c6c6c6;
        stroke-width: 5px;
      }

      .cls-4, .cls-5, .cls-6, .cls-7, .cls-8, .cls-9, .cls-10 {
        fill: none;
      }

      .cls-4, .cls-5, .cls-8, .cls-9, .cls-10 {
        stroke-miterlimit: 3;
      }

      .cls-5 {
        stroke-width: .645px;
      }

      .cls-5, .cls-8, .cls-10 {
        stroke: #000;
      }

      .cls-11 {
        clip-path: url(#clippath-2);
      }

      .cls-12, .cls-13, .cls-14, .cls-7, .cls-15, .cls-16, .cls-17, .cls-18 {
        stroke-width: 0px;
      }

      .cls-12, .cls-15 {
        fill: #010101;
      }

      .cls-13, .cls-15, .cls-17 {
        fill-rule: evenodd;
      }

      .cls-19 {
        clip-path: url(#clippath-13);
      }

      .cls-20 {
        clip-path: url(#clippath-25);
      }

      .cls-21 {
        clip-path: url(#clippath-15);
      }

      .cls-22 {
        clip-path: url(#clippath-6);
      }

      .cls-23 {
        clip-path: url(#clippath-26);
      }

      .cls-6 {
        stroke-miterlimit: 10;
      }

      .cls-6, .cls-8, .cls-9 {
        stroke-width: .75px;
      }

      .cls-6, .cls-9 {
        stroke: #010101;
      }

      .cls-24 {
        clip-path: url(#clippath-7);
      }

      .cls-25 {
        clip-path: url(#clippath-21);
      }

      .cls-26 {
        clip-path: url(#clippath-1);
      }

      .cls-27 {
        clip-path: url(#clippath-4);
      }

      .cls-28 {
        clip-path: url(#clippath-27);
      }

      .cls-29 {
        clip-path: url(#clippath-12);
      }

      .cls-16, .cls-17 {
        fill: #fff;
      }

      .cls-30 {
        clip-path: url(#clippath-24);
      }

      .cls-31 {
        clip-path: url(#clippath-22);
      }

      .cls-32 {
        clip-path: url(#clippath-9);
      }

      .cls-33 {
        clip-path: url(#clippath);
      }

      .cls-34 {
        clip-path: url(#clippath-19);
      }

      .cls-35 {
        clip-path: url(#clippath-3);
      }

      .cls-18 {
        fill: #c6c6c6;
      }

      .cls-36 {
        clip-path: url(#clippath-8);
      }

      .cls-37 {
        clip-path: url(#clippath-29);
      }

      .cls-38 {
        clip-path: url(#clippath-18);
      }

      .cls-39 {
        clip-path: url(#clippath-14);
      }

      .cls-40 {
        clip-path: url(#clippath-17);
      }

      .cls-41 {
        clip-path: url(#clippath-5);
      }

      .cls-42 {
        clip-path: url(#clippath-10);
      }

      .cls-43 {
        clip-path: url(#clippath-23);
      }

      .cls-44 {
        clip-path: url(#clippath-28);
      }

      .cls-10 {
        stroke-width: .5px;
      }

      .cls-45 {
        fill: #01889C;
        font-family: Arial-BoldMT, Arial;
        font-size: 10px;
        font-weight: 700;
      }
    </style>
      <clipPath id="clippath">
         <rect class="cls-7"
               x="147.8353"
               y="98.4739"
               width="4.5709"
               height="4.5819"/>
      </clipPath>
      <clipPath id="clippath-1">
         <rect class="cls-7"
               x="147.8353"
               y="98.4738"
               width="4.571"
               height="4.582"/>
      </clipPath>
      <clipPath id="clippath-2">
         <rect class="cls-7"
               x="235.9239"
               y="98.4739"
               width="4.5709"
               height="4.5819"/>
      </clipPath>
      <clipPath id="clippath-3">
         <rect class="cls-7"
               x="235.9239"
               y="98.4738"
               width="4.571"
               height="4.582"/>
      </clipPath>
      <clipPath id="clippath-4">
         <rect class="cls-7"
               x="147.8353"
               y="38.4739"
               width="4.5709"
               height="4.5819"/>
      </clipPath>
      <clipPath id="clippath-5">
         <rect class="cls-7"
               x="147.8353"
               y="38.4738"
               width="4.571"
               height="4.582"/>
      </clipPath>
      <clipPath id="clippath-6">
         <rect class="cls-7"
               x="291.7768"
               y="97.6403"
               width="6.125"
               height="6.125"/>
      </clipPath>
      <clipPath id="clippath-7">
         <rect class="cls-7"
               x="291.7768"
               y="97.6403"
               width="6.125"
               height="6.125"/>
      </clipPath>
      <clipPath id="clippath-8">
         <rect class="cls-7"
               x="33.0209"
               y="97.6403"
               width="6.125"
               height="6.125"/>
      </clipPath>
      <clipPath id="clippath-9">
         <rect class="cls-7"
               x="33.0209"
               y="97.6403"
               width="6.125"
               height="6.125"/>
      </clipPath>
      <clipPath id="clippath-10">
         <rect class="cls-7"
               x="33.0209"
               y="37.6403"
               width="6.125"
               height="6.125"/>
      </clipPath>
      <clipPath id="clippath-11">
         <rect class="cls-7"
               x="33.0209"
               y="37.6403"
               width="6.125"
               height="6.125"/>
      </clipPath>
      <clipPath id="clippath-12">
         <rect class="cls-7"
               x="97.3368"
               y="80.9411"
               width="38.2419"
               height="40.5368"/>
      </clipPath>
      <clipPath id="clippath-13">
         <rect class="cls-7"
               x="103.3358"
               y="85.3669"
               width="32.242"
               height="36.111"/>
      </clipPath>
      <clipPath id="clippath-14">
         <rect class="cls-7"
               x="100.3368"
               y="83.1859"
               width="32.242"
               height="36.112"/>
      </clipPath>
      <clipPath id="clippath-15">
         <rect class="cls-7"
               x="97.3368"
               y="80.9409"
               width="32.242"
               height="36.112"/>
      </clipPath>
      <clipPath id="clippath-16">
         <rect class="cls-7"
               x="97.3368"
               y="80.9409"
               width="32.242"
               height="36.112"/>
      </clipPath>
      <clipPath id="clippath-17">
         <rect class="cls-7"
               x="60.7068"
               y="32.6307"
               width="16.63"
               height="16.2683"/>
      </clipPath>
      <clipPath id="clippath-18">
         <rect class="cls-7"
               x="60.7068"
               y="32.631"
               width="16.63"
               height="16.268"/>
      </clipPath>
      <clipPath id="clippath-19">
         <rect class="cls-7"
               x="60.7068"
               y="92.5686"
               width="16.63"
               height="16.2683"/>
      </clipPath>
      <clipPath id="clippath-20">
         <rect class="cls-7"
               x="60.7068"
               y="92.5689"
               width="16.63"
               height="16.268"/>
      </clipPath>
      <clipPath id="clippath-21">
         <rect class="cls-7"
               x="214.0451"
               y="32.6307"
               width="16.63"
               height="16.2683"/>
      </clipPath>
      <clipPath id="clippath-22">
         <rect class="cls-7"
               x="214.0451"
               y="32.631"
               width="16.63"
               height="16.268"/>
      </clipPath>
      <clipPath id="clippath-23">
         <rect class="cls-7"
               x="214.0451"
               y="134.5081"
               width="16.63"
               height="16.2683"/>
      </clipPath>
      <clipPath id="clippath-24">
         <rect class="cls-7"
               x="214.0451"
               y="134.5084"
               width="16.63"
               height="16.268"/>
      </clipPath>
      <clipPath id="clippath-25">
         <rect class="cls-7"
               x="258.2093"
               y="92.6307"
               width="16.63"
               height="16.2683"/>
      </clipPath>
      <clipPath id="clippath-26">
         <rect class="cls-7"
               x="258.2093"
               y="92.631"
               width="16.63"
               height="16.268"/>
      </clipPath>
      <clipPath id="clippath-27">
         <rect class="cls-7"
               x="165.1207"
               y="56.304"
               width="38.0886"
               height="59.5948"/>
      </clipPath>
      <clipPath id="clippath-28">
         <rect class="cls-7"
               x="165.1207"
               y="56.3038"
               width="38.089"
               height="59.595"/>
      </clipPath>
      <clipPath id="clippath-29">
         <rect class="cls-7"
               x="165.1207"
               y="56.3038"
               width="38.089"
               height="59.595"/>
      </clipPath>
   </defs>
   <g id="Layer_4" data-name="Layer 4">
      <g>
         <polyline class="cls-4"
                   points="300.6631 100.7649 238.2093 100.7649 238.2093 40.7649 36.0831 40.7649"/>
         <polygon class="cls-18"
                  points="299.2041 95.7785 307.8393 100.7649 299.2041 105.7512 299.2041 95.7785"/>
      </g>
      <g>
         <polygon class="cls-18"
                  points="147.8524 46.9148 147.8524 43.5472 152.389 47.1692 152.389 50.5368 147.8524 46.9148"/>
         <polygon class="cls-18"
                  points="147.8524 55.475 147.8524 52.1073 152.389 55.7294 152.389 59.0969 147.8524 55.475"/>
         <polygon class="cls-18"
                  points="147.8524 64.0351 147.8524 60.6675 152.389 64.2895 152.389 67.657 147.8524 64.0351"/>
         <polygon class="cls-18"
                  points="155.9217 73.7642 152.5541 73.7642 156.176 69.2276 159.5437 69.2276 155.9217 73.7642"/>
         <polygon class="cls-18"
                  points="163.0763 73.7642 159.7087 73.7642 163.3307 69.2276 166.6982 69.2276 163.0763 73.7642"/>
      </g>
      <g>
         <polygon class="cls-18"
                  points="232.7694 144.8976 229.4018 144.9124 233.0039 140.36 236.3715 140.3452 232.7694 144.8976"/>
         <polygon class="cls-18"
                  points="240.4777 136.5827 240.4777 139.9502 235.941 136.3283 235.941 132.9607 240.4777 136.5827"/>
         <polygon class="cls-18"
                  points="240.4777 129.1963 240.4777 132.5639 235.941 128.9419 235.941 125.5744 240.4777 129.1963"/>
         <polygon class="cls-18"
                  points="240.4777 121.81 240.4777 125.1776 235.941 121.5556 235.941 118.188 240.4777 121.81"/>
         <polygon class="cls-18"
                  points="240.4777 114.4236 240.4777 117.7912 235.941 114.1693 235.941 110.8017 240.4777 114.4236"/>
         <polygon class="cls-18"
                  points="240.4777 107.0373 240.4777 110.4049 235.941 106.7829 235.941 103.4153 240.4777 107.0373"/>
      </g>
      <g>
         <polygon class="cls-18"
                  points="93.9222 98.4385 97.2898 98.4352 93.6724 102.9754 90.3048 102.9787 93.9222 98.4385"/>
         <polygon class="cls-18"
                  points="86.2711 98.4462 89.6387 98.4429 86.0212 102.9831 82.6537 102.9864 86.2711 98.4462"/>
         <polygon class="cls-18"
                  points="78.62 98.4539 81.9875 98.4505 78.3701 102.9907 75.0026 102.9941 78.62 98.4539"/>
         <polygon class="cls-18"
                  points="70.9689 98.4615 74.3364 98.4582 70.719 102.9984 67.3514 103.0018 70.9689 98.4615"/>
         <polygon class="cls-18"
                  points="63.3177 98.4692 66.6853 98.4659 63.0679 103.0061 59.7003 103.0094 63.3177 98.4692"/>
         <polygon class="cls-18"
                  points="55.6666 98.4769 59.0342 98.4736 55.4167 103.0138 52.0492 103.0171 55.6666 98.4769"/>
         <polygon class="cls-18"
                  points="48.0155 98.4846 51.383 98.4812 47.7656 103.0214 44.3981 103.0248 48.0155 98.4846"/>
         <polygon class="cls-18"
                  points="40.3644 98.4923 43.7319 98.4889 40.1145 103.0291 36.7469 103.0325 40.3644 98.4923"/>
      </g>
      <g>
         <polygon class="cls-18"
                  points="232.8832 98.4367 236.2508 98.4346 232.6316 102.9734 229.264 102.9755 232.8832 98.4367"/>
         <polygon class="cls-18"
                  points="225.6923 98.4411 229.0598 98.439 225.4407 102.9778 222.0731 102.9799 225.6923 98.4411"/>
         <polygon class="cls-18"
                  points="218.5013 98.4455 221.8689 98.4435 218.2497 102.9823 214.8822 102.9844 218.5013 98.4455"/>
         <polygon class="cls-18"
                  points="211.3103 98.4499 214.678 98.4479 211.0587 102.9867 207.6912 102.9888 211.3103 98.4499"/>
         <polygon class="cls-18"
                  points="204.1194 98.4544 207.4869 98.4523 203.8678 102.9911 200.5002 102.9932 204.1194 98.4544"/>
         <polygon class="cls-18"
                  points="196.9285 98.4588 200.296 98.4567 196.6769 102.9955 193.3093 102.9976 196.9285 98.4588"/>
         <polygon class="cls-18"
                  points="189.7374 98.4632 193.105 98.4612 189.4858 103 186.1183 103.0021 189.7374 98.4632"/>
         <polygon class="cls-18"
                  points="182.5465 98.4676 185.9141 98.4656 182.2949 103.0044 178.9274 103.0065 182.5465 98.4676"/>
         <polygon class="cls-18"
                  points="175.3556 98.4721 178.7231 98.47 175.104 103.0088 171.7364 103.0109 175.3556 98.4721"/>
         <polygon class="cls-18"
                  points="168.1645 98.4765 171.5321 98.4744 167.913 103.0132 164.5454 103.0153 168.1645 98.4765"/>
         <polygon class="cls-18"
                  points="160.9736 98.4809 164.3412 98.4789 160.722 103.0177 157.3545 103.0198 160.9736 98.4809"/>
         <polygon class="cls-18"
                  points="153.7827 98.4853 157.1503 98.4833 153.5311 103.0221 150.1634 103.0242 153.7827 98.4853"/>
         <polygon class="cls-18"
                  points="146.5917 98.4898 149.9592 98.4877 146.3401 103.0265 142.9725 103.0286 146.5917 98.4898"/>
         <polygon class="cls-18"
                  points="139.4007 98.4942 142.7683 98.4921 139.1492 103.0309 135.7816 103.033 139.4007 98.4942"/>
      </g>
      <g>
         <polygon class="cls-18"
                  points="147.8524 106.7105 147.8524 103.3429 152.389 106.9648 152.389 110.3324 147.8524 106.7105"/>
         <polygon class="cls-18"
                  points="147.8524 114.1095 147.8524 110.7419 152.389 114.3639 152.389 117.7314 147.8524 114.1095"/>
         <polygon class="cls-18"
                  points="147.8524 121.5085 147.8524 118.1409 152.389 121.7629 152.389 125.1304 147.8524 121.5085"/>
         <polygon class="cls-18"
                  points="147.8524 128.9075 147.8524 125.5399 152.389 129.1619 152.389 132.5294 147.8524 128.9075"/>
         <polygon class="cls-18"
                  points="147.8524 136.3064 147.8524 132.9389 152.389 136.5608 152.389 139.9284 147.8524 136.3064"/>
         <polygon class="cls-18"
                  points="156.4527 144.8768 153.0852 144.8749 156.7097 140.3404 160.0774 140.3423 156.4527 144.8768"/>
         <polygon class="cls-18"
                  points="164.1411 144.8813 160.7735 144.8793 164.3981 140.3448 167.7656 140.3468 164.1411 144.8813"/>
         <polygon class="cls-18"
                  points="171.8293 144.8857 168.4618 144.8838 172.0864 140.3493 175.454 140.3512 171.8293 144.8857"/>
         <polygon class="cls-18"
                  points="179.5177 144.8902 176.1501 144.8882 179.7746 140.3537 183.1422 140.3557 179.5177 144.8902"/>
         <polygon class="cls-18"
                  points="187.206 144.8946 183.8384 144.8927 187.463 140.3582 190.8306 140.3602 187.206 144.8946"/>
         <polygon class="cls-18"
                  points="194.8943 144.8991 191.5267 144.8971 195.1514 140.3627 198.5189 140.3646 194.8943 144.8991"/>
         <polygon class="cls-18"
                  points="202.5826 144.9035 199.2151 144.9016 202.8396 140.3671 206.2071 140.3691 202.5826 144.9035"/>
         <polygon class="cls-18"
                  points="210.2709 144.908 206.9033 144.9061 210.5279 140.3716 213.8955 140.3735 210.2709 144.908"/>
      </g>
   </g>
   <g id="Paths">
      <path class="cls-8" d="m61.6758,100.7649h-25.5924"/>
      <path class="cls-8" d="m258.7666,100.7649H76.3009"/>
      <path class="cls-8" d="m294.8207,100.7649h-20.45"/>
      <path class="cls-8" d="m214.7874,40.7649H76.3009"/>
      <path class="cls-8" d="m61.4383,40.7649h-24.4537"/>
      <polyline class="cls-8"
                points="238.2093 100.7028 238.2093 40.7649 230.3985 40.7649"/>
      <polyline class="cls-8"
                points="230.2596 142.6422 238.2093 142.6422 238.2093 100.7649"/>
      <polyline class="cls-8"
                points="150.1207 100.7028 150.1207 142.6422 214.593 142.6422"/>
      <polyline class="cls-8"
                points="150.1207 40.7649 150.1207 71.5332 165.1207 71.5332"/>
      <g id="Connect">
         <g class="cls-33">
            <g class="cls-26">
               <path class="cls-13"
                     d="m150.1204,99.7615c.553,0,1,.449,1,1.003,0,.555-.447,1.003-1,1.003-.552,0-1-.448-1-1.003,0-.554.448-1.003,1-1.003"/>
               <circle class="cls-10" cx="150.1204" cy="100.7645" r="1"/>
            </g>
         </g>
      </g>
      <g id="Connect-2" data-name="Connect">
         <g class="cls-11">
            <g class="cls-35">
               <path class="cls-13"
                     d="m238.209,99.7615c.553,0,1,.449,1,1.003,0,.555-.447,1.003-1,1.003-.552,0-1-.448-1-1.003,0-.554.448-1.003,1-1.003"/>
               <circle class="cls-10" cx="238.209" cy="100.7645" r="1"/>
            </g>
         </g>
      </g>
      <g id="Connect-3" data-name="Connect">
         <g class="cls-27">
            <g class="cls-41">
               <path class="cls-13"
                     d="m150.1204,39.7615c.553,0,1,.449,1,1.003,0,.555-.447,1.003-1,1.003-.552,0-1-.448-1-1.003,0-.554.448-1.003,1-1.003"/>
               <circle class="cls-10" cx="150.1204" cy="40.7645" r="1"/>
            </g>
         </g>
      </g>
   </g>
   <g id="Parts">
      <g id="Artwork_13" data-name="Artwork 13">
         <g class="cls-22">
            <g class="cls-24">
               <path class="cls-17"
                     d="m294.8392,98.7032c1.104,0,2,.896,2,2s-.896,2-2,2-2-.896-2-2,.896-2,2-2"/>
               <circle class="cls-8" cx="294.8392" cy="100.7032" r="2"/>
            </g>
         </g>
      </g>
      <g id="Artwork_13-2" data-name="Artwork 13">
         <g class="cls-36">
            <g class="cls-32">
               <path class="cls-17"
                     d="m36.0833,98.7032c1.104,0,2,.896,2,2s-.896,2-2,2-2-.896-2-2,.896-2,2-2"/>
               <circle class="cls-8" cx="36.0833" cy="100.7032" r="2"/>
            </g>
         </g>
      </g>
      <g id="Artwork_13-3" data-name="Artwork 13">
         <g class="cls-42">
            <g class="cls-2">
               <path class="cls-17"
                     d="m36.0833,38.7032c1.104,0,2,.896,2,2s-.896,2-2,2-2-.896-2-2,.896-2,2-2"/>
               <circle class="cls-8" cx="36.0833" cy="40.7032" r="2"/>
            </g>
         </g>
      </g>
      <g id="Modular_Inverter" data-name="Modular Inverter">
         <g class="cls-29">
            <rect class="cls-16"
                  x="103.9808"
                  y="87.9459"
                  width="30.952"
                  height="30.952"/>
            <rect class="cls-5"
                  x="103.9806"
                  y="87.9456"
                  width="30.952"
                  height="30.952"/>
            <line class="cls-5"
                  x1="103.9831"
                  y1="118.8998"
                  x2="134.9341"
                  y2="87.9478"/>
            <line class="cls-5"
                  x1="107.366"
                  y1="94.7188"
                  x2="116.067"
                  y2="94.7188"/>
            <line class="cls-5"
                  x1="114.0184"
                  y1="92.7843"
                  x2="116.0664"
                  y2="92.7843"/>
            <line class="cls-5"
                  x1="110.6922"
                  y1="92.7843"
                  x2="112.7402"
                  y2="92.7843"/>
            <line class="cls-5"
                  x1="107.366"
                  y1="92.7843"
                  x2="109.414"
                  y2="92.7843"/>
            <g class="cls-19">
               <path class="cls-5"
                     d="m131.5189,113.5308c-.121,1.086-.988,1.825-1.935,1.825s-1.702-.482-1.934-1.825c-.232-1.343-1.121-1.824-1.935-1.824-.813,0-1.835.755-1.934,1.824"/>
            </g>
            <rect class="cls-16"
                  x="100.9808"
                  y="85.7649"
                  width="30.952"
                  height="30.952"/>
            <rect class="cls-5"
                  x="100.9806"
                  y="85.7654"
                  width="30.952"
                  height="30.952"/>
            <line class="cls-5"
                  x1="100.9831"
                  y1="116.7196"
                  x2="131.9341"
                  y2="85.7676"/>
            <line class="cls-5"
                  x1="104.366"
                  y1="92.5387"
                  x2="113.067"
                  y2="92.5387"/>
            <line class="cls-5"
                  x1="111.0184"
                  y1="90.6042"
                  x2="113.0664"
                  y2="90.6042"/>
            <line class="cls-5"
                  x1="107.6922"
                  y1="90.6042"
                  x2="109.7402"
                  y2="90.6042"/>
            <line class="cls-5"
                  x1="104.366"
                  y1="90.6042"
                  x2="106.414"
                  y2="90.6042"/>
            <g class="cls-39">
               <path class="cls-5"
                     d="m128.5189,111.3506c-.121,1.086-.988,1.825-1.935,1.825s-1.702-.482-1.934-1.825c-.232-1.343-1.121-1.824-1.935-1.824-.813,0-1.835.755-1.934,1.824"/>
            </g>
            <rect class="cls-16"
                  x="97.9798"
                  y="83.5189"
                  width="30.953"
                  height="30.953"/>
            <g class="cls-21">
               <rect class="cls-5"
                     x="97.9806"
                     y="83.5198"
                     width="30.952"
                     height="30.952"/>
               <line class="cls-5"
                     x1="97.9831"
                     y1="114.474"
                     x2="128.9341"
                     y2="83.522"/>
            </g>
            <line class="cls-5"
                  x1="101.366"
                  y1="90.2931"
                  x2="110.067"
                  y2="90.2931"/>
            <line class="cls-5"
                  x1="108.0184"
                  y1="88.3585"
                  x2="110.0664"
                  y2="88.3585"/>
            <line class="cls-5"
                  x1="104.6922"
                  y1="88.3585"
                  x2="106.7402"
                  y2="88.3585"/>
            <line class="cls-5"
                  x1="101.366"
                  y1="88.3585"
                  x2="103.414"
                  y2="88.3585"/>
            <g class="cls-3">
               <path class="cls-5"
                     d="m125.5189,109.105c-.121,1.086-.988,1.825-1.935,1.825s-1.702-.482-1.934-1.825c-.232-1.343-1.121-1.824-1.935-1.824-.813,0-1.835.755-1.934,1.824"/>
            </g>
         </g>
      </g>
      <g id="Artwork_20_no_white" data-name="Artwork 20 no white">
         <g class="cls-40">
            <g class="cls-38">
               <line class="cls-8"
                     x1="61.7069"
                     y1="47.5422"
                     x2="76.3369"
                     y2="40.7762"/>
               <path class="cls-14"
                     d="m76.3368,41.7805h0c-.55,0-1-.45-1-1,0-.551.45-1,1-1s1,.449,1,1c0,.55-.45,1-1,1"/>
               <path class="cls-14"
                     d="m61.7069,41.7805h0c-.55,0-1-.45-1-1,0-.551.45-1,1-1s1,.449,1,1c0,.55-.45,1-1,1"/>
            </g>
         </g>
      </g>
      <g id="Artwork_20_no_white-2" data-name="Artwork 20 no white">
         <g class="cls-34">
            <g class="cls-1">
               <line class="cls-8"
                     x1="61.7069"
                     y1="107.4801"
                     x2="76.3369"
                     y2="100.7141"/>
               <path class="cls-14"
                     d="m76.3368,101.7184h0c-.55,0-1-.45-1-1,0-.551.45-1,1-1s1,.449,1,1c0,.55-.45,1-1,1"/>
               <path class="cls-14"
                     d="m61.7069,101.7184h0c-.55,0-1-.45-1-1,0-.551.45-1,1-1s1,.449,1,1c0,.55-.45,1-1,1"/>
            </g>
         </g>
      </g>
      <g id="Artwork_20_no_white-3" data-name="Artwork 20 no white">
         <g class="cls-25">
            <g class="cls-31">
               <line class="cls-8"
                     x1="215.0452"
                     y1="47.5422"
                     x2="229.6752"
                     y2="40.7762"/>
               <path class="cls-14"
                     d="m229.6751,41.7805h0c-.55,0-1-.45-1-1,0-.551.45-1,1-1s1,.449,1,1c0,.55-.45,1-1,1"/>
               <path class="cls-14"
                     d="m215.0452,41.7805h0c-.55,0-1-.45-1-1,0-.551.45-1,1-1s1,.449,1,1c0,.55-.45,1-1,1"/>
            </g>
         </g>
      </g>
      <g id="Artwork_20_no_white-4" data-name="Artwork 20 no white">
         <g class="cls-43">
            <g class="cls-30">
               <line class="cls-8"
                     x1="215.0452"
                     y1="149.4196"
                     x2="229.6752"
                     y2="142.6536"/>
               <path class="cls-14"
                     d="m229.6751,143.6579h0c-.55,0-1-.45-1-1,0-.551.45-1,1-1s1,.449,1,1c0,.55-.45,1-1,1"/>
               <path class="cls-14"
                     d="m215.0452,143.6579h0c-.55,0-1-.45-1-1,0-.551.45-1,1-1s1,.449,1,1c0,.55-.45,1-1,1"/>
            </g>
         </g>
      </g>
      <g id="Artwork_20_no_white-5" data-name="Artwork 20 no white">
         <g class="cls-20">
            <g class="cls-23">
               <line class="cls-8"
                     x1="259.2094"
                     y1="107.5422"
                     x2="273.8394"
                     y2="100.7762"/>
               <path class="cls-14"
                     d="m273.8393,101.7805h0c-.55,0-1-.45-1-1,0-.551.45-1,1-1s1,.449,1,1c0,.55-.45,1-1,1"/>
               <path class="cls-14"
                     d="m259.2094,101.7805h0c-.55,0-1-.45-1-1,0-.551.45-1,1-1s1,.449,1,1c0,.55-.45,1-1,1"/>
            </g>
         </g>
      </g>
      <g id="Modular-SSW">
         <g class="cls-28">
            <rect class="cls-16"
                  x="165.4957"
                  y="56.6788"
                  width="37.338"
                  height="58.845"/>
            <g class="cls-44">
               <rect class="cls-9"
                     x="165.4957"
                     y="56.6788"
                     width="37.339"
                     height="58.845"/>
               <polyline class="cls-6"
                         points="165.4957 100.8133 194.8347 100.8133 194.8347 71.3913 165.4957 71.3913"/>
            </g>
            <rect class="cls-16"
                  x="172.8257"
                  y="93.2278"
                  width="15.128"
                  height="15.171"/>
            <rect class="cls-9"
                  x="172.8257"
                  y="93.2278"
                  width="15.128"
                  height="15.171"/>
            <line class="cls-9"
                  x1="177.7934"
                  y1="112.0787"
                  x2="177.7934"
                  y2="104.7187"/>
            <line class="cls-9"
                  x1="180.7355"
                  y1="112.0787"
                  x2="180.7255"
                  y2="109.7367"/>
            <path class="cls-12"
                  d="m183.9903,105.9347v4.928l-4.908-2.464,4.908-2.464Zm.75-1.216l-7.33,3.68,7.33,3.68v-7.36Z"/>
            <line class="cls-9"
                  x1="183.4519"
                  y1="89.6014"
                  x2="183.4519"
                  y2="96.9614"/>
            <line class="cls-9"
                  x1="180.1631"
                  y1="89.5501"
                  x2="180.1631"
                  y2="91.5631"/>
            <path class="cls-12"
                  d="m177.2481,90.7625l4.908,2.464-4.908,2.464v-4.928Zm-.75-1.216v7.36l7.33-3.68-7.33-3.68Z"/>
            <g class="cls-37">
               <path class="cls-15"
                     d="m172.8261,99.8126c.551,0,.997.448.997,1s-.446,1-.997,1-.997-.448-.997-1,.446-1,.997-1"/>
               <circle class="cls-9" cx="172.8261" cy="100.8126" r=".997"/>
               <path class="cls-15"
                     d="m187.9538,99.8133c.551,0,.997.448.997,1s-.446,1-.997,1-.997-.448-.997-1,.446-1,.997-1"/>
               <circle class="cls-9" cx="187.9538" cy="100.8133" r=".997"/>
               <rect class="cls-16"
                     x="172.8257"
                     y="63.8058"
                     width="15.128"
                     height="15.171"/>
               <rect class="cls-9"
                     x="172.8257"
                     y="63.8058"
                     width="15.128"
                     height="15.171"/>
               <line class="cls-9"
                     x1="177.7934"
                     y1="82.6563"
                     x2="177.7934"
                     y2="75.2963"/>
               <line class="cls-9"
                     x1="180.7355"
                     y1="82.6563"
                     x2="180.7255"
                     y2="80.3143"/>
               <path class="cls-12"
                     d="m183.9903,76.5123v4.928l-4.908-2.464,4.908-2.464Zm.75-1.216l-7.33,3.68,7.33,3.68v-7.36Z"/>
               <line class="cls-9"
                     x1="183.4519"
                     y1="60.179"
                     x2="183.4519"
                     y2="67.539"/>
               <line class="cls-9"
                     x1="180.1631"
                     y1="60.1277"
                     x2="180.1631"
                     y2="62.1407"/>
               <path class="cls-12"
                     d="m177.2481,61.3401l4.908,2.464-4.908,2.464v-4.928Zm-.75-1.216v7.36l7.33-3.68-7.33-3.68Z"/>
               <path class="cls-15"
                     d="m172.8261,70.3902c.551,0,.997.448.997,1s-.446,1-.997,1-.997-.448-.997-1,.446-1,.997-1"/>
               <circle class="cls-9" cx="172.8261" cy="71.3902" r=".997"/>
               <path class="cls-15"
                     d="m187.9538,70.3909c.551,0,.997.448.997,1s-.446,1-.997,1-.997-.448-.997-1,.446-1,.997-1"/>
               <circle class="cls-9" cx="187.9538" cy="71.3909" r=".997"/>
               <line class="cls-6"
                     x1="202.8343"
                     y1="100.8126"
                     x2="194.8343"
                     y2="100.8126"/>
               <path class="cls-15"
                     d="m194.8343,99.8133c.551,0,.997.448.997,1s-.446,1-.997,1-.997-.448-.997-1,.446-1,.997-1"/>
               <circle class="cls-9" cx="194.8343" cy="100.8133" r=".997"/>
            </g>
         </g>
      </g>
   </g>
   <g id="Text">
      <text class="cls-45" transform="translate(15.5216 18.6937)">
         <tspan x="0" y="0">BYPASS</tspan>
         <tspan x="4.4507" y="12">MAINS</tspan>
      </text>
      <text class="cls-45" transform="translate(91.1767 78.6934)">
         <tspan x="0" y="0">INVERTER</tspan>
      </text>
      <text class="cls-45" transform="translate(265.6556 94.0575)">
         <tspan x="0" y="0">AC OUTPUT</tspan>
      </text>
      <text class="cls-45" transform="translate(12.4723 94.0575)">
         <tspan x="0" y="0">DC INPUT</tspan>
      </text>
      <text class="cls-45" transform="translate(152.025 18.6938)">
         <tspan x="0" y="0">STATIC</tspan>
      </text>
      <text class="cls-45" transform="translate(150.3599 30.6936)">
         <tspan x="0" y="0">SWITCH</tspan>
      </text>
      <text class="cls-45" transform="translate(209.0127 18.6938)">
         <tspan x="0" y="0">MANUAL</tspan>
      </text>
      <text class="cls-45" transform="translate(210.1138 30.6938)">
         <tspan x="0" y="0">BYPASS</tspan>
      </text>
   </g>
</svg>
