<?xml version="1.0" encoding="UTF-8"?>
<svg xmlns="http://www.w3.org/2000/svg"
     id="uuid-b29cf902-b379-4da1-ada8-da07cf97d654"
     data-name="Layer 2"
     width="120mm"
     height="50mm"
     viewBox="0 0 340.1575 141.7323">
   <defs>
      <style>
      .uuid-164b112c-0cf7-4f42-b0f3-5140aa2c94d9 {
        stroke-width: .1013px;
      }

      .uuid-164b112c-0cf7-4f42-b0f3-5140aa2c94d9, .uuid-fe766dca-590b-4f5b-a30d-a963e1533ee5 {
        fill: none;
        stroke: #000;
        stroke-linecap: round;
        stroke-miterlimit: 2.2902;
      }

      .uuid-fe766dca-590b-4f5b-a30d-a963e1533ee5 {
        stroke-width: .2532px;
      }
    </style>
   </defs>
   <g id="uuid-8a8e4983-dd42-4e6e-92b1-2827f543a3d2" data-name="ID 1003">
      <g id="uuid-5cfc57be-18e6-4fac-a4cc-18b655cd6fa6" data-name="ID 1004">
         <g id="uuid-513c31ed-857c-4cd3-97c8-3e10cf768b9e" data-name="ID 1005">
            <g id="uuid-7114540b-f36a-4eca-805f-deff4af77732" data-name="ID 1617">
               <g id="uuid-ae47cf27-86bc-4d3d-9850-825216c8de44" data-name="ID 1841">
                  <g id="uuid-f54a5c9c-0c16-43f8-9d5d-384b0c670b65" data-name="ID 1872">
                     <g id="uuid-1ce71b8d-72ac-4618-8306-08d71e290dba" data-name="ID 1873">
                        <line class="uuid-164b112c-0cf7-4f42-b0f3-5140aa2c94d9"
                              x1="137.9314"
                              y1="40.3029"
                              x2="137.9111"
                              y2="40.2846"/>
                        <line class="uuid-164b112c-0cf7-4f42-b0f3-5140aa2c94d9"
                              x1="137.6924"
                              y1="39.4866"
                              x2="137.587"
                              y2="39.3306"/>
                        <line class="uuid-fe766dca-590b-4f5b-a30d-a963e1533ee5"
                              x1="137.8787"
                              y1="38.8505"
                              x2="137.7653"
                              y2="38.652"/>
                     </g>
                  </g>
                  <g id="uuid-cf44d31a-9e10-4a98-afe0-2ca03b482020" data-name="ID 1866">
                     <g id="uuid-e394cbe5-d10c-4e9b-851b-f5a3dc579c4c" data-name="ID 1867">
                        <g id="uuid-c4b064e9-3e54-46a7-88ae-97f9ff7fcd1d" data-name="ID 1870">
                           <polygon class="uuid-164b112c-0cf7-4f42-b0f3-5140aa2c94d9"
                                    points="82.7095 115.7443 82.5555 116.6316 82.0815 117.3527 81.3523 117.7963 80.4854 117.8955 79.6123 117.6322 78.8588 117.0509 78.3463 116.2406 78.1519 115.323 78.2997 114.4338 78.7717 113.7106 79.5009 113.265 80.3679 113.1658 81.245 113.423 81.9985 114.0044 82.511 114.8207 82.7095 115.7443"/>
                           <polygon class="uuid-164b112c-0cf7-4f42-b0f3-5140aa2c94d9"
                                    points="80.0802 36.5677 80.2362 35.6096 80.0316 34.6373 79.5009 33.7967 78.7271 33.2173 77.8217 32.9884 76.9264 33.1464 76.181 33.663 75.6928 34.459 75.5388 35.4151 75.7434 36.3874 76.2721 37.2219 77.0479 37.7992 77.9513 38.0281 78.8426 37.8762 79.59 37.3637 80.0802 36.5677"/>
                           <polygon class="uuid-164b112c-0cf7-4f42-b0f3-5140aa2c94d9"
                                    points="56.1579 113.2852 56.0181 114.1583 55.5685 114.8693 54.8717 115.3068 54.0351 115.404 53.1884 115.1468 52.4571 114.5796 51.9548 113.7815 51.7522 112.8781 51.8879 112.001 52.3356 111.29 53.0324 110.8525 53.869 110.7492 54.7177 111.0064 55.453 111.5777 55.9574 112.3758 56.1579 113.2852"/>
                           <polygon class="uuid-164b112c-0cf7-4f42-b0f3-5140aa2c94d9"
                                    points="53.8791 34.5198 53.7393 35.4597 53.2755 36.2436 52.5604 36.75 51.6975 36.8999 50.8225 36.6771 50.071 36.1099 49.5504 35.2875 49.3418 34.3314 49.4815 33.3895 49.9413 32.6056 50.6564 32.0972 51.5213 31.9432 52.3943 32.1681 53.1539 32.7352 53.6745 33.5637 53.8791 34.5198"/>
                           <line class="uuid-164b112c-0cf7-4f42-b0f3-5140aa2c94d9"
                                 x1="41.8086"
                                 y1="106.939"
                                 x2="41.0733"
                                 y2="107.3685"/>
                           <polyline class="uuid-164b112c-0cf7-4f42-b0f3-5140aa2c94d9"
                                     points="93.2608 112.0456 41.0733 107.3685 38.4339 43.2967"/>
                           <line class="uuid-164b112c-0cf7-4f42-b0f3-5140aa2c94d9"
                                 x1="95.2966"
                                 y1="30.1526"
                                 x2="97.1723"
                                 y2="130.434"/>
                           <polyline class="uuid-164b112c-0cf7-4f42-b0f3-5140aa2c94d9"
                                     points="95.8961 29.9622 95.2966 30.1526 34.3827 27.8657"/>
                           <polyline class="uuid-fe766dca-590b-4f5b-a30d-a963e1533ee5"
                                     points="68.4371 127.5293 97.1723 130.434 97.7415 129.9195 95.8961 29.9622 35.1626 27.6935 34.3827 27.8657 38.4927 124.503 58.8398 126.5631"/>
                           <polyline class="uuid-fe766dca-590b-4f5b-a30d-a963e1533ee5"
                                     points="93.2608 112.0456 91.928 45.8409 38.4339 43.2967"/>
                           <polyline class="uuid-fe766dca-590b-4f5b-a30d-a963e1533ee5"
                                     points="39.2117 43.3332 41.8086 106.939 93.2527 111.5331"/>
                           <polygon class="uuid-fe766dca-590b-4f5b-a30d-a963e1533ee5"
                                    points="53.3585 34.3193 53.2897 34.8115 53.0466 35.2206 52.7002 35.4617 52.3842 35.5204 51.9304 35.4009 51.5375 35.1072 51.2641 34.6758 51.1567 34.1795 51.2296 33.6873 51.4686 33.2781 51.8191 33.035 52.131 32.9783 52.5848 33.0958 52.9797 33.3936 53.2512 33.821 53.3585 34.3193"/>
                           <line class="uuid-fe766dca-590b-4f5b-a30d-a963e1533ee5"
                                 x1="51.8191"
                                 y1="33.035"
                                 x2="51.6793"
                                 y2="33.0593"/>
                           <polygon class="uuid-fe766dca-590b-4f5b-a30d-a963e1533ee5"
                                    points="55.5745 113.2974 55.6454 112.8396 55.5401 112.3656 55.2768 111.9504 54.896 111.6506 54.4503 111.5169 54.0148 111.5696 53.8102 111.6992 53.5732 112.0719 53.5044 112.5277 53.6077 112.9997 53.873 113.4129 54.2538 113.7106 54.6934 113.8443 55.1309 113.7957 55.3396 113.662 55.5745 113.2974"/>
                           <line class="uuid-fe766dca-590b-4f5b-a30d-a963e1533ee5"
                                 x1="53.8102"
                                 y1="111.6992"
                                 x2="53.6502"
                                 y2="111.7985"/>
                           <polygon class="uuid-fe766dca-590b-4f5b-a30d-a963e1533ee5"
                                    points="79.6184 35.403 79.5354 35.9053 79.2822 36.3185 78.9317 36.5575 78.5712 36.6203 78.0992 36.5008 77.6981 36.199 77.4227 35.7635 77.3153 35.2571 77.3963 34.7608 77.6495 34.3436 78.002 34.1005 78.3605 34.0377 78.8284 34.1572 79.2335 34.459 79.5111 34.8966 79.6184 35.403"/>
                           <line class="uuid-fe766dca-590b-4f5b-a30d-a963e1533ee5"
                                 x1="78.002"
                                 y1="34.1005"
                                 x2="77.8906"
                                 y2="34.1207"/>
                           <line class="uuid-fe766dca-590b-4f5b-a30d-a963e1533ee5"
                                 x1="78.9317"
                                 y1="36.5575"
                                 x2="78.8932"
                                 y2="36.5859"/>
                           <polygon class="uuid-fe766dca-590b-4f5b-a30d-a963e1533ee5"
                                    points="82.0228 115.7464 82.1018 115.2805 81.9985 114.8004 81.7311 114.375 81.3361 114.0732 80.8783 113.9395 80.4266 113.9881 80.1694 114.1461 79.9405 114.4945 79.8655 114.9604 79.9648 115.4385 80.2322 115.8618 80.6251 116.1636 81.0829 116.3014 81.5367 116.2507 81.7939 116.0887 82.0228 115.7464"/>
                           <line class="uuid-fe766dca-590b-4f5b-a30d-a963e1533ee5"
                                 x1="80.1694"
                                 y1="114.1461"
                                 x2="80.0478"
                                 y2="114.2211"/>
                        </g>
                        <g id="uuid-d59f0526-447e-437d-8644-91ec998d00ce" data-name="ID 1868">
                           <polyline class="uuid-164b112c-0cf7-4f42-b0f3-5140aa2c94d9"
                                     points="69.7922 126.0587 69.6018 126.2896 69.3891 126.4942 69.1542 126.6745"/>
                           <polyline class="uuid-164b112c-0cf7-4f42-b0f3-5140aa2c94d9"
                                     points="70.0981 125.5401 70.2115 125.2525 70.2925 124.9507 70.3472 124.6428 70.3675 124.3207"/>
                           <line class="uuid-164b112c-0cf7-4f42-b0f3-5140aa2c94d9"
                                 x1="70.25"
                                 y1="123.3464"
                                 x2="70.1528"
                                 y2="123.0284"/>
                           <polyline class="uuid-164b112c-0cf7-4f42-b0f3-5140aa2c94d9"
                                     points="69.8732 122.4167 69.6909 122.127 69.4864 121.8576 69.2615 121.6064 69.0164 121.3755"/>
                           <polyline class="uuid-164b112c-0cf7-4f42-b0f3-5140aa2c94d9"
                                     points="68.4715 120.9866 68.1839 120.8367 67.8841 120.7091 67.5762 120.6179 67.2643 120.5551"/>
                           <line class="uuid-164b112c-0cf7-4f42-b0f3-5140aa2c94d9"
                                 x1="66.3447"
                                 y1="120.5572"
                                 x2="66.0509"
                                 y2="120.6199"/>
                           <line class="uuid-164b112c-0cf7-4f42-b0f3-5140aa2c94d9"
                                 x1="65.498"
                                 y1="120.8387"
                                 x2="65.2448"
                                 y2="120.9947"/>
                           <line class="uuid-164b112c-0cf7-4f42-b0f3-5140aa2c94d9"
                                 x1="62.9173"
                                 y1="122.0075"
                                 x2="62.6479"
                                 y2="122.2161"/>
                           <polyline class="uuid-164b112c-0cf7-4f42-b0f3-5140aa2c94d9"
                                     points="61.1773 123.4761 61.5237 123.4011 61.8802 123.3606"/>
                           <line class="uuid-164b112c-0cf7-4f42-b0f3-5140aa2c94d9"
                                 x1="63.0328"
                                 y1="128.2159"
                                 x2="62.498"
                                 y2="128.1046"/>
                           <line class="uuid-164b112c-0cf7-4f42-b0f3-5140aa2c94d9"
                                 x1="62.3238"
                                 y1="128.5076"
                                 x2="62.5527"
                                 y2="128.3132"/>
                           <polyline class="uuid-164b112c-0cf7-4f42-b0f3-5140aa2c94d9"
                                     points="61.9329 128.06 62.1658 127.902 62.3765 127.4969 62.5122 127.3834"/>
                           <line class="uuid-164b112c-0cf7-4f42-b0f3-5140aa2c94d9"
                                 x1="61.9329"
                                 y1="128.06"
                                 x2="61.9532"
                                 y2="127.746"/>
                           <line class="uuid-164b112c-0cf7-4f42-b0f3-5140aa2c94d9"
                                 x1="61.9329"
                                 y1="128.06"
                                 x2="62.3724"
                                 y2="127.4928"/>
                           <line class="uuid-164b112c-0cf7-4f42-b0f3-5140aa2c94d9"
                                 x1="62.8971"
                                 y1="128.0235"
                                 x2="62.6722"
                                 y2="127.9749"/>
                           <line class="uuid-164b112c-0cf7-4f42-b0f3-5140aa2c94d9"
                                 x1="62.5163"
                                 y1="130.1545"
                                 x2="62.0058"
                                 y2="128.2058"/>
                           <line class="uuid-164b112c-0cf7-4f42-b0f3-5140aa2c94d9"
                                 x1="63.1543"
                                 y1="127.6934"
                                 x2="62.7168"
                                 y2="127.7602"/>
                           <line class="uuid-164b112c-0cf7-4f42-b0f3-5140aa2c94d9"
                                 x1="62.6884"
                                 y1="130.0248"
                                 x2="62.18"
                                 y2="128.0802"/>
                           <polyline class="uuid-164b112c-0cf7-4f42-b0f3-5140aa2c94d9"
                                     points="63.1361 130.4705 63.3934 130.3854 63.6324 130.278"/>
                           <line class="uuid-164b112c-0cf7-4f42-b0f3-5140aa2c94d9"
                                 x1="61.8215"
                                 y1="127.8027"
                                 x2="61.783"
                                 y2="128.3497"/>
                           <polyline class="uuid-164b112c-0cf7-4f42-b0f3-5140aa2c94d9"
                                     points="60.4805 129.7757 60.7155 129.9641 60.9647 130.1281"/>
                           <line class="uuid-164b112c-0cf7-4f42-b0f3-5140aa2c94d9"
                                 x1="61.2462"
                                 y1="127.4321"
                                 x2="61.3637"
                                 y2="127.8736"/>
                           <polyline class="uuid-164b112c-0cf7-4f42-b0f3-5140aa2c94d9"
                                     points="61.6108 128.4813 61.783 128.3497 62.18 128.0802"/>
                           <line class="uuid-164b112c-0cf7-4f42-b0f3-5140aa2c94d9"
                                 x1="61.8114"
                                 y1="127.2761"
                                 x2="61.6493"
                                 y2="127.0391"/>
                           <line class="uuid-164b112c-0cf7-4f42-b0f3-5140aa2c94d9"
                                 x1="61.783"
                                 y1="127.4969"
                                 x2="61.7283"
                                 y2="127.2902"/>
                           <polyline class="uuid-164b112c-0cf7-4f42-b0f3-5140aa2c94d9"
                                     points="59.4596 128.2909 59.5751 128.5745 59.7128 128.8439"/>
                           <polyline class="uuid-164b112c-0cf7-4f42-b0f3-5140aa2c94d9"
                                     points="60.5271 125.1654 60.4481 125.2262 60.2719 125.3984 60.1159 125.5908 59.9762 125.8014 59.8627 126.0242 59.7716 126.2633 59.7068 126.5145 59.6642 126.7717 59.648 127.037 59.65 127.1383"/>
                           <polyline class="uuid-164b112c-0cf7-4f42-b0f3-5140aa2c94d9"
                                     points="61.5966 124.5962 61.8742 124.5982 62.1517 124.6246"/>
                           <line class="uuid-164b112c-0cf7-4f42-b0f3-5140aa2c94d9"
                                 x1="61.9471"
                                 y1="127.0715"
                                 x2="61.7871"
                                 y2="126.4577"/>
                           <line class="uuid-164b112c-0cf7-4f42-b0f3-5140aa2c94d9"
                                 x1="62.3806"
                                 y1="126.9986"
                                 x2="62.577"
                                 y2="126.8649"/>
                           <polyline class="uuid-164b112c-0cf7-4f42-b0f3-5140aa2c94d9"
                                     points="61.0619 124.6833 60.8087 124.7684 60.5656 124.8778"/>
                           <polyline class="uuid-164b112c-0cf7-4f42-b0f3-5140aa2c94d9"
                                     points="64.0253 123.9136 63.681 123.7313 63.3306 123.5854 62.97 123.4761 62.6054 123.4011"/>
                           <line class="uuid-164b112c-0cf7-4f42-b0f3-5140aa2c94d9"
                                 x1="61.7"
                                 y1="127.0512"
                                 x2="61.1834"
                                 y2="125.0783"/>
                           <line class="uuid-164b112c-0cf7-4f42-b0f3-5140aa2c94d9"
                                 x1="61.4812"
                                 y1="127.3956"
                                 x2="61.1692"
                                 y2="126.9378"/>
                           <polyline class="uuid-164b112c-0cf7-4f42-b0f3-5140aa2c94d9"
                                     points="61.1875 128.0012 61.3637 127.8736 61.8215 127.8027"/>
                           <polyline class="uuid-164b112c-0cf7-4f42-b0f3-5140aa2c94d9"
                                     points="61.388 127.8331 61.783 127.4969 62.5122 127.3834 62.6155 127.7825"/>
                           <line class="uuid-164b112c-0cf7-4f42-b0f3-5140aa2c94d9"
                                 x1="63.1199"
                                 y1="127.5637"
                                 x2="62.7209"
                                 y2="127.6245"/>
                           <line class="uuid-164b112c-0cf7-4f42-b0f3-5140aa2c94d9"
                                 x1="61.6108"
                                 y1="128.4813"
                                 x2="61.6453"
                                 y2="127.9283"/>
                           <polyline class="uuid-164b112c-0cf7-4f42-b0f3-5140aa2c94d9"
                                     points="62.3724 127.4928 61.9532 127.746 61.388 127.8331 61.2807 127.424"/>
                           <polyline class="uuid-164b112c-0cf7-4f42-b0f3-5140aa2c94d9"
                                     points="59.7675 125.5726 59.6197 125.7954 59.4981 126.0384"/>
                           <polyline class="uuid-164b112c-0cf7-4f42-b0f3-5140aa2c94d9"
                                     points="61.8215 127.8027 61.6453 127.9283 61.1875 128.0012 61.0477 127.4604"/>
                           <polyline class="uuid-164b112c-0cf7-4f42-b0f3-5140aa2c94d9"
                                     points="62.5953 128.4671 62.3238 128.5076 62.1658 127.902"/>
                           <polyline class="uuid-164b112c-0cf7-4f42-b0f3-5140aa2c94d9"
                                     points="62.6013 130.5555 62.3238 130.5535 62.0463 130.5211"/>
                           <polyline class="uuid-164b112c-0cf7-4f42-b0f3-5140aa2c94d9"
                                     points="60.4664 125.2019 60.2719 125.3538 60.0977 125.5259 59.9377 125.7184 59.7999 125.925 59.6885 126.1519 59.5954 126.3909 59.5285 126.64 59.488 126.9013 59.4698 127.1667 59.4779 127.4341 59.5123 127.7075 59.571 127.9749 59.6541 128.2403 59.7574 128.5016 59.887 128.7487 60.0349 128.9877 60.2051 129.2166 60.3934 129.4232 60.598 129.6157 60.8188 129.7878 61.0477 129.9397 61.2908 130.0714 61.5379 130.1727 61.7911 130.2537 62.0504 130.3064 62.3076 130.3367 62.5669 130.3388 62.8181 130.3125 63.0632 130.2618 63.2961 130.1808 63.521 130.0815 63.7337 129.9519"/>
                           <line class="uuid-164b112c-0cf7-4f42-b0f3-5140aa2c94d9"
                                 x1="60.5312"
                                 y1="123.7313"
                                 x2="60.2334"
                                 y2="123.9115"/>
                           <polyline class="uuid-164b112c-0cf7-4f42-b0f3-5140aa2c94d9"
                                     points="62.7067 124.9892 62.5325 124.9385 62.3076 124.896 62.0828 124.8737 61.86 124.8717"/>
                           <line class="uuid-164b112c-0cf7-4f42-b0f3-5140aa2c94d9"
                                 x1="62.4251"
                                 y1="127.0553"
                                 x2="62.4109"
                                 y2="127.0067"/>
                           <line class="uuid-164b112c-0cf7-4f42-b0f3-5140aa2c94d9"
                                 x1="61.4751"
                                 y1="127.0026"
                                 x2="61.6554"
                                 y2="127.266"/>
                           <polyline class="uuid-164b112c-0cf7-4f42-b0f3-5140aa2c94d9"
                                     points="63.7823 129.6744 63.9301 129.5387 64.0719 129.3766 64.2016 129.2004 64.3089 129.01 64.398 128.8074 64.4689 128.5968 64.5196 128.3719 64.552 128.145 64.5621 127.9141 64.552 127.6772 64.5196 127.4422 64.4689 127.2052 64.398 126.9743 64.3089 126.7454 64.1975 126.5266 64.0719 126.3139 63.9301 126.1134 63.7721 125.925 63.5979 125.7488 63.4136 125.5888 63.2192 125.447 63.0125 125.3214 62.7999 125.216 62.5811 125.131 62.3562 125.0662 62.1334 125.0216 61.8904 124.9973 61.6837 124.9973"/>
                           <polyline class="uuid-164b112c-0cf7-4f42-b0f3-5140aa2c94d9"
                                     points="60.598 125.3457 60.7844 125.2363 60.9788 125.1452 61.1834 125.0783 61.3576 124.9507"/>
                           <polyline class="uuid-164b112c-0cf7-4f42-b0f3-5140aa2c94d9"
                                     points="63.7256 125.37 63.4906 125.1816 63.2374 125.0195"/>
                           <polyline class="uuid-164b112c-0cf7-4f42-b0f3-5140aa2c94d9"
                                     points="64.6594 124.3693 64.951 124.6428 65.2184 124.9385 65.4574 125.2586 65.6681 125.5989"/>
                           <polyline class="uuid-164b112c-0cf7-4f42-b0f3-5140aa2c94d9"
                                     points="66.2576 127.8412 66.2312 128.2159 66.1684 128.5826 66.0712 128.9371 65.9416 129.2733"/>
                           <polyline class="uuid-164b112c-0cf7-4f42-b0f3-5140aa2c94d9"
                                     points="64.4953 126.3078 64.635 126.5773 64.7525 126.8608"/>
                           <polyline class="uuid-164b112c-0cf7-4f42-b0f3-5140aa2c94d9"
                                     points="66.0023 126.32 66.1158 126.6967 66.1988 127.0776"/>
                           <polyline class="uuid-164b112c-0cf7-4f42-b0f3-5140aa2c94d9"
                                     points="63.9443 129.5549 64.1043 129.409 64.2461 129.249 64.3717 129.0728 64.4831 128.8804 64.5723 128.6778 64.6411 128.4671 64.6938 128.2443 64.7242 128.0154 64.7323 127.8189"/>
                           <polyline class="uuid-164b112c-0cf7-4f42-b0f3-5140aa2c94d9"
                                     points="64.4345 129.5893 64.5824 129.3604 64.708 129.1194"/>
                           <line class="uuid-164b112c-0cf7-4f42-b0f3-5140aa2c94d9"
                                 x1="62.7897"
                                 y1="127.8676"
                                 x2="62.5993"
                                 y2="127.8291"/>
                           <polyline class="uuid-164b112c-0cf7-4f42-b0f3-5140aa2c94d9"
                                     points="61.7141 130.0451 61.9673 130.1221 62.2246 130.1788 62.4839 130.2051 62.7371 130.2051 62.9903 130.1808 63.2333 130.1302 63.4724 130.0512 63.6952 129.9499 63.8896 129.8324"/>
                           <polyline class="uuid-164b112c-0cf7-4f42-b0f3-5140aa2c94d9"
                                     points="64.8356 130.6041 65.1131 130.3955 65.3602 130.1545 65.5851 129.883"/>
                           <polyline class="uuid-164b112c-0cf7-4f42-b0f3-5140aa2c94d9"
                                     points="64.9024 127.4402 64.9369 127.7339 64.947 128.0235"/>
                           <line class="uuid-164b112c-0cf7-4f42-b0f3-5140aa2c94d9"
                                 x1="62.8181"
                                 y1="127.3348"
                                 x2="63.049"
                                 y2="127.3004"/>
                           <line class="uuid-164b112c-0cf7-4f42-b0f3-5140aa2c94d9"
                                 x1="62.8971"
                                 y1="127.6346"
                                 x2="63.13"
                                 y2="127.5982"/>
                           <polyline class="uuid-164b112c-0cf7-4f42-b0f3-5140aa2c94d9"
                                     points="60.7743 125.2181 60.9586 125.1087 61.153 125.0216 61.3576 124.9507 61.8742 126.9257"/>
                           <polyline class="uuid-164b112c-0cf7-4f42-b0f3-5140aa2c94d9"
                                     points="59.3077 127.7176 59.2733 127.4219 59.2652 127.1322"/>
                           <polygon class="uuid-fe766dca-590b-4f5b-a30d-a963e1533ee5"
                                    points="68.8604 125.5037 68.8706 125.8784 68.8422 126.2511 68.7835 126.6117 68.6862 126.9621 68.5586 127.2963 68.3986 127.6083 68.2042 127.9 67.9813 128.1673 67.7362 128.4043 67.4608 128.613 64.8356 130.6041 64.5378 130.7844 64.2218 130.9282 63.8896 131.0376 63.5453 131.1105 63.1888 131.145 62.8282 131.145 62.4636 131.1024 62.103 131.0275 61.7425 130.9161 61.3921 130.7682 61.0518 130.5879 60.7256 130.3732 60.4177 130.1322 60.1321 129.8587 59.8688 129.565 59.6298 129.249 59.4191 128.9107 59.2348 128.5562 59.089 128.1917 58.9715 127.8189 58.8904 127.4402 58.8418 127.0593 58.8317 126.6806 58.856 126.3038 58.9148 125.9392 59.0079 125.5867 59.1376 125.2505 59.2976 124.9345 59.488 124.6367 59.7128 124.3693 59.96 124.1263 60.2334 123.9115 62.9173 122.0075 63.2131 121.8272 63.525 121.6814 63.8511 121.572 64.1935 121.4991 64.5439 121.4626 64.9024 121.4606 65.263 121.497 65.6235 121.572 65.98 121.6814 66.3305 121.8252 66.6667 122.0034 66.9908 122.2121 67.2947 122.4531 67.5823 122.7205 67.8436 123.0122 68.0826 123.3302 68.2913 123.6624 68.4715 124.0128 68.6194 124.3775 68.7349 124.7461 68.8139 125.1249 68.8604 125.5037"/>
                           <polyline class="uuid-fe766dca-590b-4f5b-a30d-a963e1533ee5"
                                     points="69.3203 126.5529 69.5532 126.3706 69.7679 126.1661 69.9583 125.9371 70.1224 125.686 70.2642 125.4166 70.3756 125.1289 70.4546 124.8292 70.5073 124.5172 70.5316 124.2012 70.5214 123.8751 70.483 123.549 70.4161 123.2249 70.3169 122.9089 70.1913 122.5969 70.0353 122.2951 69.855 122.0075 69.6504 121.7381 69.4276 121.4869 69.1785 121.256 68.9151 121.0494 68.6376 120.8691 68.35 120.7172 68.0482 120.5916 67.7423 120.4984 67.4304 120.4356 67.1225 120.4032 66.8126 120.4032 66.5108 120.4377 66.217 120.4984 65.9355 120.5957 65.664 120.7192 65.4149 120.8731 65.2448 120.9947 65.0138 121.175 64.8011 121.3795 64.7323 121.4606"/>
                           <polyline class="uuid-fe766dca-590b-4f5b-a30d-a963e1533ee5"
                                     points="68.7004 126.9216 68.901 126.8284 69.1542 126.6745"/>
                           <polyline class="uuid-fe766dca-590b-4f5b-a30d-a963e1533ee5"
                                     points="60.7743 125.2181 60.598 125.3457 60.4279 125.4753 60.2719 125.6191 60.1301 125.7812 60.0045 125.9594 59.8931 126.1499 59.806 126.3484 59.7331 126.5631 59.6845 126.7818 59.6541 127.0107 59.644 127.2416 59.6541 127.4786 59.6885 127.7136 59.7371 127.9506 59.8101 128.1795 59.9012 128.4084 60.0086 128.6251 60.1362 128.8358 60.278 129.0363 60.434 129.2267 60.6082 129.3989 60.7925 129.5569 60.9869 129.6987 61.1915 129.8243 61.4022 129.9296 61.621 130.0167 61.8417 130.0835 62.0686 130.1302 62.2935 130.1524 62.5163 130.1545 62.6884 130.0248"/>
                           <polyline class="uuid-fe766dca-590b-4f5b-a30d-a963e1533ee5"
                                     points="62.6722 127.9749 62.498 128.1046 63.0146 130.0754 63.2192 130.0086 63.4177 129.9174 63.602 129.8101 63.7742 129.6845 63.9443 129.5549"/>
                           <polyline class="uuid-fe766dca-590b-4f5b-a30d-a963e1533ee5"
                                     points="62.5527 127.2254 63.0125 127.1545 63.1543 127.6934"/>
                           <line class="uuid-fe766dca-590b-4f5b-a30d-a963e1533ee5"
                                 x1="61.5926"
                                 y1="127.3125"
                                 x2="61.6554"
                                 y2="127.266"/>
                           <polyline class="uuid-fe766dca-590b-4f5b-a30d-a963e1533ee5"
                                     points="62.4251 127.0553 62.3117 127.1039 61.8114 127.2761 61.5926 127.3125 61.4812 127.3956 61.0477 127.4604"/>
                           <polyline class="uuid-fe766dca-590b-4f5b-a30d-a963e1533ee5"
                                     points="61.8742 126.9257 61.7 127.0512 61.1692 126.9378"/>
                           <polyline class="uuid-fe766dca-590b-4f5b-a30d-a963e1533ee5"
                                     points="63.7337 129.9519 63.9281 129.804 64.1043 129.6339 64.2644 129.4415 64.4021 129.2308 64.5176 129.008 64.6107 128.769 64.6756 128.5178 64.7221 128.2565 64.7384 127.9911 64.7323 127.7217 64.6978 127.4483 64.6411 127.1789 64.5581 126.9135 64.4507 126.6502 64.3231 126.399 64.1732 126.162 64.001 125.9351 63.8127 125.7224 63.6081 125.53 63.3852 125.3578 63.1543 125.2059 62.9113 125.0783 62.6641 124.973 62.4089 124.896 62.1476 124.8393 61.8883 124.815 61.6351 124.815 61.3819 124.8393 61.1348 124.892 60.8998 124.973 60.677 125.0763 60.4664 125.2019"/>
                           <polyline class="uuid-fe766dca-590b-4f5b-a30d-a963e1533ee5"
                                     points="61.86 124.8717 61.6837 124.9973 62.1962 126.9479"/>
                           <polyline class="uuid-fe766dca-590b-4f5b-a30d-a963e1533ee5"
                                     points="62.893 127.6346 62.7168 127.7602 63.0328 128.2159"/>
                           <polyline class="uuid-fe766dca-590b-4f5b-a30d-a963e1533ee5"
                                     points="62.3421 126.8446 62.3806 126.9986 62.5669 127.0472"/>
                           <polyline class="uuid-fe766dca-590b-4f5b-a30d-a963e1533ee5"
                                     points="62.7857 127.7116 62.7209 127.6245 62.7269 127.4442 62.8181 127.3348"/>
                           <polyline class="uuid-fe766dca-590b-4f5b-a30d-a963e1533ee5"
                                     points="62.7371 127.4483 62.5993 127.8291 62.6439 127.9972"/>
                           <polyline class="uuid-fe766dca-590b-4f5b-a30d-a963e1533ee5"
                                     points="61.7324 127.0269 61.9471 127.0715 62.3117 127.1039"/>
                           <line class="uuid-fe766dca-590b-4f5b-a30d-a963e1533ee5"
                                 x1="62.5527"
                                 y1="127.2254"
                                 x2="62.5912"
                                 y2="126.6725"/>
                           <line class="uuid-fe766dca-590b-4f5b-a30d-a963e1533ee5"
                                 x1="62.1962"
                                 y1="126.9479"
                                 x2="62.5912"
                                 y2="126.6725"/>
                           <line class="uuid-fe766dca-590b-4f5b-a30d-a963e1533ee5"
                                 x1="61.7871"
                                 y1="126.4577"
                                 x2="62.0544"
                                 y2="126.4172"/>
                        </g>
                     </g>
                  </g>
                  <g id="uuid-84a6ec6b-8360-40fb-88b6-2302c7053092" data-name="ID 1856">
                     <g id="uuid-5c02add5-6d09-4041-be3f-289cd3f3cc10" data-name="ID 1857">
                        <line class="uuid-164b112c-0cf7-4f42-b0f3-5140aa2c94d9"
                              x1="154.3367"
                              y1="14.6608"
                              x2="154.0876"
                              y2="71.0394"/>
                        <line class="uuid-164b112c-0cf7-4f42-b0f3-5140aa2c94d9"
                              x1="81.3361"
                              y1="115.005"
                              x2="81.0262"
                              y2="115.2379"/>
                        <polyline class="uuid-164b112c-0cf7-4f42-b0f3-5140aa2c94d9"
                                  points="81.7838 116.2771 81.2693 116.3358 80.7487 116.1819 80.3051 115.8355 80.0012 115.3534 79.8817 114.8085 79.9729 114.2798 80.2544 113.8545"/>
                        <line class="uuid-164b112c-0cf7-4f42-b0f3-5140aa2c94d9"
                              x1="78.8446"
                              y1="35.7108"
                              x2="78.5226"
                              y2="35.8101"/>
                        <line class="uuid-164b112c-0cf7-4f42-b0f3-5140aa2c94d9"
                              x1="78.4841"
                              y1="34.3415"
                              x2="78.8061"
                              y2="34.2423"/>
                        <polyline class="uuid-164b112c-0cf7-4f42-b0f3-5140aa2c94d9"
                                  points="78.7656 36.7398 78.2309 36.6062 77.763 36.2476 77.4571 35.7655 77.3356 35.1923 77.4267 34.6251 77.7184 34.1532"/>
                        <polyline class="uuid-164b112c-0cf7-4f42-b0f3-5140aa2c94d9"
                                  points="92.7463 111.8937 91.928 111.6526 75.0689 110.1456 74.2769 110.2387"/>
                        <line class="uuid-164b112c-0cf7-4f42-b0f3-5140aa2c94d9"
                              x1="54.6975"
                              y1="107.1517"
                              x2="53.3788"
                              y2="107.9599"/>
                        <polyline class="uuid-fe766dca-590b-4f5b-a30d-a963e1533ee5"
                                  points="93.0421 111.6688 92.2237 111.4278 75.3869 109.9248 74.5969 110.02"/>
                        <polyline class="uuid-fe766dca-590b-4f5b-a30d-a963e1533ee5"
                                  points="78.8973 34.2058 78.8061 34.2423 78.5428 34.9654 78.8446 35.7108 79.4726 36.0106"/>
                        <line class="uuid-fe766dca-590b-4f5b-a30d-a963e1533ee5"
                              x1="79.2133"
                              y1="36.1443"
                              x2="79.4483"
                              y2="36.0491"/>
                        <polyline class="uuid-fe766dca-590b-4f5b-a30d-a963e1533ee5"
                                  points="82.0957 115.323 82.0046 115.3514 81.3361 115.005 81.0404 114.292 81.1477 114.0165"/>
                        <line class="uuid-fe766dca-590b-4f5b-a30d-a963e1533ee5"
                              x1="154.4643"
                              y1="14.6183"
                              x2="154.2152"
                              y2="70.932"/>
                     </g>
                  </g>
                  <g id="uuid-48563471-9fff-4a0a-a5aa-bbbbe18f9313" data-name="ID 1849">
                     <g id="uuid-63143760-26c7-42f3-88ff-f6966ad8e6e8" data-name="ID 1852">
                        <line class="uuid-164b112c-0cf7-4f42-b0f3-5140aa2c94d9"
                              x1="78.7271"
                              y1="52.3977"
                              x2="79.3409"
                              y2="76.5166"/>
                        <polyline class="uuid-164b112c-0cf7-4f42-b0f3-5140aa2c94d9"
                                  points="80.9675 75.8015 81.7311 75.3438 82.4563 74.8232 83.1348 74.2398 83.7709 73.6017 84.3563 72.909 84.8829 72.1696 85.3549 71.3797 85.7681 70.5512 86.1186 69.6863 86.4021 68.7869 86.6209 67.8652 86.7749 66.9172 86.8539 65.9551 86.868 64.9848 86.8133 64.0085 86.6878 63.0321 86.4933 62.0598 86.23 61.1038 85.9038 60.1619 85.5109 59.2443 85.0571 58.355 84.5447 57.5002 83.9755 56.6819 83.3536 55.9081 82.6811 55.1809 81.9641 54.5064 81.2045 53.8845 80.4124 53.3275 79.584 52.8272 78.7271 52.3977 78.2653 52.5821 76.7805 55.268 75.5814 57.4881 74.6233 59.3293 73.8617 60.8627 73.2641 62.1388 72.7962 63.2043 72.4356 64.1077"/>
                        <polyline class="uuid-164b112c-0cf7-4f42-b0f3-5140aa2c94d9"
                                  points="72.8934 91.2589 72.1541 64.9119 71.755 64.2779 71.2871 63.7006 70.7564 63.1881 70.1771 62.7465 69.5492 62.386 68.8969 62.1105 68.2183 61.9282 67.5337 61.8411 66.8551 61.8512 66.1887 61.9525 65.5506 62.151 64.947 62.4366 64.396 62.8093 63.8998 63.261 63.4703 63.7816 63.1118 64.363"/>
                        <polyline class="uuid-fe766dca-590b-4f5b-a30d-a963e1533ee5"
                                  points="63.1989 67.1097 63.0004 66.4027 62.8039 65.4507 62.6722 64.4926 62.6094 63.5284 62.6094 62.5723 62.6824 61.6223 62.8201 60.6845 63.0227 59.7669 63.2921 58.8756 63.6263 58.0086 64.0213 57.1802 64.475 56.3902 64.9895 55.6427 65.5567 54.9419 66.1786 54.2917 66.847 53.6982 67.558 53.1614 68.3115 52.6894 69.1055 52.2803 69.4357 52.1425"/>
                        <polygon class="uuid-fe766dca-590b-4f5b-a30d-a963e1533ee5"
                                 points="63.9443 90.5641 72.8934 91.2589 79.6144 87.2968 79.3409 76.5166 80.1673 76.1925 80.9675 75.8015 82.3104 75.0824 83.3131 74.5092 84.2489 73.8266 85.1098 73.0427 85.8897 72.1656 86.5763 71.2055 87.1658 70.1643 87.6519 69.0623 88.0307 67.8976 88.2941 66.6924 88.4419 65.4568 88.4743 64.1969 88.3872 62.9288 88.1826 61.6689 87.8667 60.4211 87.4332 59.2038 86.8964 58.0289 86.2543 56.9067 85.519 55.8473 84.6925 54.8609 83.7851 53.9595 82.8027 53.1513 81.7615 52.4464 80.6697 51.8468 79.5354 51.3606 78.3727 50.992 77.1917 50.7469 76.0047 50.6233 74.8218 50.6253 73.653 50.7489 72.5146 51.0001 71.4147 51.3667 69.4458 52.1223 67.9023 54.7981 66.6566 57.008 65.662 58.8391 64.87 60.3604 64.2502 61.6264 63.7742 62.6777 63.4035 63.575 63.1118 64.363 63.9443 90.5641"/>
                     </g>
                     <g id="uuid-18b010dc-ac78-442d-a3a7-30668da8b8ca" data-name="ID 1850">
                        <polyline class="uuid-fe766dca-590b-4f5b-a30d-a963e1533ee5"
                                  points="63.7681 85.0383 56.0121 84.463 54.6043 44.0664"/>
                        <line class="uuid-fe766dca-590b-4f5b-a30d-a963e1533ee5"
                              x1="92.7605"
                              y1="87.1773"
                              x2="79.588"
                              y2="86.205"/>
                     </g>
                  </g>
                  <g id="uuid-fc63915c-e13b-4bbb-a1f2-cb69e28deb33" data-name="ID 1845">
                     <g id="uuid-c029a189-96f4-4363-bd39-dd6950dc5300" data-name="ID 1846">
                        <g id="uuid-43fb7e1a-9450-4a61-9797-422ac63569f2" data-name="ID 1847">
                           <polyline class="uuid-fe766dca-590b-4f5b-a30d-a963e1533ee5"
                                     points="93.2365 110.7816 54.975 107.3826 54.7218 107.2003 54.5415 106.8033 54.4645 106.2504 54.3896 105.8857 54.1951 105.5596 53.9135 105.3105 53.5773 105.1788 51.3674 43.9125"/>
                        </g>
                     </g>
                  </g>
                  <g id="uuid-423309c2-ce8f-48d5-9723-deafe9a75438" data-name="ID 1842">
                     <g id="uuid-70d6b096-a0f0-44ad-9199-4db04d8571e7" data-name="ID 1843">
                        <polyline class="uuid-164b112c-0cf7-4f42-b0f3-5140aa2c94d9"
                                  points="143.7955 11.4462 143.595 11.3955 143.1716 11.355 142.5862 11.3267 141.9299 11.3226 141.306 11.3368 140.7996 11.3712 140.4978 11.4198 140.4391 11.4745"/>
                        <polyline class="uuid-164b112c-0cf7-4f42-b0f3-5140aa2c94d9"
                                  points="138.0246 41.7411 138.219 41.5101 138.3811 41.0463 138.4925 40.4285 138.5269 39.7398 138.4864 39.0916 138.379 38.5791 138.2129 38.2793 138.0185 38.2368"/>
                        <polyline class="uuid-164b112c-0cf7-4f42-b0f3-5140aa2c94d9"
                                  points="116.4742 13.2854 116.304 13.2267 115.8888 13.1801 115.2912 13.1537 114.6046 13.1457 113.9321 13.1639 113.375 13.2024 113.0124 13.253 112.9091 13.3118"/>
                        <polyline class="uuid-164b112c-0cf7-4f42-b0f3-5140aa2c94d9"
                                  points="64.9672 24.1487 64.8437 24.0535 64.3879 23.9786 63.6628 23.934 62.7857 23.9219 61.8843 23.9543 61.0963 24.0171 60.5352 24.1021 60.2962 24.2014"/>
                        <line class="uuid-164b112c-0cf7-4f42-b0f3-5140aa2c94d9"
                              x1="93.5404"
                              y1="30.027"
                              x2="59.6987"
                              y2="28.759"/>
                        <line class="uuid-164b112c-0cf7-4f42-b0f3-5140aa2c94d9"
                              x1="59.0991"
                              y1="28.5868"
                              x2="59.089"
                              y2="28.3944"/>
                        <polyline class="uuid-164b112c-0cf7-4f42-b0f3-5140aa2c94d9"
                                  points="60.5757 28.447 59.9863 28.3822 59.089 28.3944 58.4084 28.4754 58.2868 28.5564"/>
                        <line class="uuid-164b112c-0cf7-4f42-b0f3-5140aa2c94d9"
                              x1="55.1451"
                              y1="112.5419"
                              x2="54.7278"
                              y2="112.8072"/>
                        <polyline class="uuid-164b112c-0cf7-4f42-b0f3-5140aa2c94d9"
                                  points="55.4024 113.822 54.9061 113.8808 54.4037 113.7309 53.9662 113.3906 53.6705 112.9166 53.5489 112.3818 53.63 111.8633 53.8994 111.442"/>
                        <line class="uuid-164b112c-0cf7-4f42-b0f3-5140aa2c94d9"
                              x1="52.3781"
                              y1="33.2801"
                              x2="52.7164"
                              y2="33.193"/>
                        <line class="uuid-164b112c-0cf7-4f42-b0f3-5140aa2c94d9"
                              x1="52.8623"
                              y1="34.6089"
                              x2="52.4288"
                              y2="34.7264"/>
                        <polyline class="uuid-164b112c-0cf7-4f42-b0f3-5140aa2c94d9"
                                  points="51.9892 32.792 51.5618 33.0938 51.2884 33.5556 51.2053 34.1147 51.3289 34.6798 51.6388 35.17 52.0865 35.5063 52.603 35.6399"/>
                        <polyline class="uuid-164b112c-0cf7-4f42-b0f3-5140aa2c94d9"
                                  points="59.012 108.8755 58.2281 108.6385 42.9469 107.2733 42.1873 107.3685"/>
                        <polyline class="uuid-fe766dca-590b-4f5b-a30d-a963e1533ee5"
                                  points="97.5895 121.5862 153.9032 73.6585 154.1504 73.306 154.2395 72.8745 154.5069 12.7405 154.4238 12.2787 154.1747 11.8857 153.7999 11.6143 153.3564 11.5151 116.1136 10.5914 115.5242 10.5873 114.9449 10.5995 114.4668 10.6319 114.1589 10.6724 38.5696 27.734 38.44 27.8171"/>
                        <polyline class="uuid-fe766dca-590b-4f5b-a30d-a963e1533ee5"
                                  points="59.3563 108.6568 58.5724 108.4218 43.3095 107.0586 42.554 107.1517"/>
                        <polyline class="uuid-fe766dca-590b-4f5b-a30d-a963e1533ee5"
                                  points="53.2856 34.8135 52.8623 34.6089 52.5645 33.8777 52.7833 33.2437"/>
                        <line class="uuid-fe766dca-590b-4f5b-a30d-a963e1533ee5"
                              x1="53.158"
                              y1="35.0302"
                              x2="53.1013"
                              y2="35.0525"/>
                        <polyline class="uuid-fe766dca-590b-4f5b-a30d-a963e1533ee5"
                                  points="55.6373 112.7951 55.1451 112.5419 54.8575 111.841 54.9203 111.6708"/>
                        <polyline class="uuid-fe766dca-590b-4f5b-a30d-a963e1533ee5"
                                  points="60.5757 28.447 60.5109 28.5524 59.6987 28.759"/>
                        <polyline class="uuid-fe766dca-590b-4f5b-a30d-a963e1533ee5"
                                  points="64.9672 24.1487 64.7323 24.248 64.1773 24.3351 63.3832 24.3999 62.4737 24.4283 61.5865 24.4181 60.8614 24.3715 60.4096 24.2966 60.2962 24.2014"/>
                        <polyline class="uuid-fe766dca-590b-4f5b-a30d-a963e1533ee5"
                                  points="116.4742 13.2854 116.3749 13.3442 116.0205 13.3948 115.4594 13.4333 114.7788 13.4515 114.088 13.4454 113.4885 13.4191 113.0752 13.3725 112.9091 13.3118"/>
                        <polyline class="uuid-fe766dca-590b-4f5b-a30d-a963e1533ee5"
                                  points="138.0185 38.2368 137.824 38.4636 137.66 38.9234 137.5466 39.5473 137.5121 40.2421 137.5526 40.8944 137.664 41.4068 137.8301 41.7066 138.0246 41.7411"/>
                        <polyline class="uuid-fe766dca-590b-4f5b-a30d-a963e1533ee5"
                                  points="137.6741 41.4291 137.82 41.022 137.9273 40.4042 137.9658 39.7175 137.9233 39.0673 137.8139 38.5548 137.7998 38.5305"/>
                        <polyline class="uuid-fe766dca-590b-4f5b-a30d-a963e1533ee5"
                                  points="143.7955 11.4462 143.7449 11.5029 143.443 11.5495 142.9366 11.5839 142.3047 11.6001 141.6463 11.592 141.0589 11.5657 140.6335 11.5272 140.4391 11.4745"/>
                     </g>
                  </g>
               </g>
            </g>
         </g>
      </g>
   </g>
</svg>
