<?xml version="1.0" encoding="UTF-8"?>
<svg xmlns="http://www.w3.org/2000/svg"
     xmlns:xlink="http://www.w3.org/1999/xlink"
     width="145mm"
     height="55mm"
     viewBox="0 0 411.0236 155.9055">
   <defs>
      <style>
      .cls-1 {
        clip-path: url(#clippath-20);
      }

      .cls-2 {
        clip-path: url(#clippath-11);
      }

      .cls-3 {
        clip-path: url(#clippath-16);
      }

      .cls-4 {
        clip-path: url(#clippath-33);
      }

      .cls-5 {
        stroke-width: 1.2522px;
      }

      .cls-5, .cls-6, .cls-7, .cls-8, .cls-9, .cls-10, .cls-11, .cls-12, .cls-13, .cls-14, .cls-15 {
        fill: none;
      }

      .cls-5, .cls-6, .cls-7, .cls-11, .cls-12, .cls-13, .cls-14, .cls-15 {
        stroke-miterlimit: 3;
      }

      .cls-5, .cls-7, .cls-9, .cls-11, .cls-12, .cls-14, .cls-15 {
        stroke: #000;
      }

      .cls-6 {
        stroke: #c6c6c6;
        stroke-width: 5px;
      }

      .cls-16 {
        clip-path: url(#clippath-41);
      }

      .cls-17 {
        clip-path: url(#clippath-32);
      }

      .cls-7 {
        stroke-width: .645px;
      }

      .cls-18 {
        clip-path: url(#clippath-2);
      }

      .cls-19, .cls-20, .cls-21, .cls-10, .cls-22, .cls-23, .cls-24, .cls-25 {
        stroke-width: 0px;
      }

      .cls-19, .cls-22 {
        fill: #010101;
      }

      .cls-20, .cls-22, .cls-24 {
        fill-rule: evenodd;
      }

      .cls-26 {
        clip-path: url(#clippath-13);
      }

      .cls-27 {
        clip-path: url(#clippath-37);
      }

      .cls-28 {
        clip-path: url(#clippath-25);
      }

      .cls-29 {
        clip-path: url(#clippath-15);
      }

      .cls-30 {
        clip-path: url(#clippath-6);
      }

      .cls-31 {
        clip-path: url(#clippath-40);
      }

      .cls-32 {
        clip-path: url(#clippath-26);
      }

      .cls-8, .cls-9 {
        stroke-miterlimit: 10;
      }

      .cls-8, .cls-9, .cls-12, .cls-13 {
        stroke-width: .75px;
      }

      .cls-8, .cls-13 {
        stroke: #010101;
      }

      .cls-33 {
        clip-path: url(#clippath-7);
      }

      .cls-34 {
        clip-path: url(#clippath-21);
      }

      .cls-35 {
        clip-path: url(#clippath-34);
      }

      .cls-36 {
        clip-path: url(#clippath-1);
      }

      .cls-37 {
        clip-path: url(#clippath-4);
      }

      .cls-38 {
        clip-path: url(#clippath-38);
      }

      .cls-39 {
        clip-path: url(#clippath-36);
      }

      .cls-40 {
        clip-path: url(#clippath-27);
      }

      .cls-11 {
        stroke-dasharray: 0 0 2.0034 1.0017;
      }

      .cls-11, .cls-14 {
        stroke-width: .7513px;
      }

      .cls-41 {
        clip-path: url(#clippath-12);
      }

      .cls-23, .cls-24 {
        fill: #fff;
      }

      .cls-42 {
        clip-path: url(#clippath-24);
      }

      .cls-43 {
        clip-path: url(#clippath-30);
      }

      .cls-44 {
        clip-path: url(#clippath-22);
      }

      .cls-45 {
        clip-path: url(#clippath-9);
      }

      .cls-46 {
        clip-path: url(#clippath);
      }

      .cls-47 {
        clip-path: url(#clippath-39);
      }

      .cls-48 {
        clip-path: url(#clippath-19);
      }

      .cls-49 {
        clip-path: url(#clippath-31);
      }

      .cls-50 {
        clip-path: url(#clippath-3);
      }

      .cls-25 {
        fill: #c6c6c6;
      }

      .cls-51 {
        clip-path: url(#clippath-8);
      }

      .cls-52 {
        clip-path: url(#clippath-29);
      }

      .cls-53 {
        clip-path: url(#clippath-18);
      }

      .cls-54 {
        clip-path: url(#clippath-14);
      }

      .cls-55 {
        clip-path: url(#clippath-17);
      }

      .cls-56 {
        clip-path: url(#clippath-5);
      }

      .cls-57 {
        clip-path: url(#clippath-42);
      }

      .cls-58 {
        clip-path: url(#clippath-10);
      }

      .cls-59 {
        clip-path: url(#clippath-23);
      }

      .cls-60 {
        clip-path: url(#clippath-28);
      }

      .cls-15 {
        stroke-width: .5px;
      }

      .cls-61 {
        fill: #01889C;
        font-family: Arial-BoldMT, Arial;
        font-size: 10px;
        font-weight: 700;
      }

      .cls-62 {
        clip-path: url(#clippath-35);
      }
    </style>
      <clipPath id="clippath">
         <rect class="cls-10"
               x="158.7053"
               y="98.4739"
               width="4.5709"
               height="4.5819"/>
      </clipPath>
      <clipPath id="clippath-1">
         <rect class="cls-10"
               x="158.7053"
               y="98.4738"
               width="4.571"
               height="4.582"/>
      </clipPath>
      <clipPath id="clippath-2">
         <rect class="cls-10"
               x="227.0479"
               y="98.4739"
               width="4.5709"
               height="4.5819"/>
      </clipPath>
      <clipPath id="clippath-3">
         <rect class="cls-10"
               x="227.0479"
               y="98.4738"
               width="4.571"
               height="4.582"/>
      </clipPath>
      <clipPath id="clippath-4">
         <rect class="cls-10"
               x="315.1365"
               y="98.4739"
               width="4.5709"
               height="4.5819"/>
      </clipPath>
      <clipPath id="clippath-5">
         <rect class="cls-10"
               x="315.1365"
               y="98.4738"
               width="4.571"
               height="4.582"/>
      </clipPath>
      <clipPath id="clippath-6">
         <rect class="cls-10"
               x="227.0479"
               y="38.4739"
               width="4.5709"
               height="4.5819"/>
      </clipPath>
      <clipPath id="clippath-7">
         <rect class="cls-10"
               x="227.0479"
               y="38.4738"
               width="4.571"
               height="4.582"/>
      </clipPath>
      <clipPath id="clippath-8">
         <rect class="cls-10"
               x="370.9894"
               y="97.6403"
               width="6.125"
               height="6.125"/>
      </clipPath>
      <clipPath id="clippath-9">
         <rect class="cls-10"
               x="370.9894"
               y="97.6403"
               width="6.125"
               height="6.125"/>
      </clipPath>
      <clipPath id="clippath-10">
         <rect class="cls-10"
               x="37.9209"
               y="135.2034"
               width="15.6504"
               height="14.7535"/>
      </clipPath>
      <clipPath id="clippath-11">
         <rect class="cls-10"
               x="37.9209"
               y="135.2035"
               width="15.6509"
               height="14.7534"/>
      </clipPath>
      <clipPath id="clippath-12">
         <rect class="cls-10"
               x="37.9209"
               y="135.2035"
               width="15.6509"
               height="14.7534"/>
      </clipPath>
      <clipPath id="clippath-13">
         <rect class="cls-10"
               x="106.5494"
               y="80.8538"
               width="38.2419"
               height="39.685"/>
      </clipPath>
      <clipPath id="clippath-14">
         <rect class="cls-10"
               x="112.5494"
               y="84.4278"
               width="32.242"
               height="36.111"/>
      </clipPath>
      <clipPath id="clippath-15">
         <rect class="cls-10"
               x="112.5494"
               y="84.4278"
               width="32.242"
               height="36.111"/>
      </clipPath>
      <clipPath id="clippath-16">
         <rect class="cls-10"
               x="109.5494"
               y="82.6078"
               width="32.243"
               height="36.111"/>
      </clipPath>
      <clipPath id="clippath-17">
         <rect class="cls-10"
               x="106.5494"
               y="80.8538"
               width="32.242"
               height="36.111"/>
      </clipPath>
      <clipPath id="clippath-18">
         <rect class="cls-10"
               x="106.5494"
               y="80.8538"
               width="32.242"
               height="36.111"/>
      </clipPath>
      <clipPath id="clippath-19">
         <rect class="cls-10"
               x="176.5494"
               y="80.9411"
               width="38.2419"
               height="40.5368"/>
      </clipPath>
      <clipPath id="clippath-20">
         <rect class="cls-10"
               x="182.5484"
               y="85.3669"
               width="32.242"
               height="36.111"/>
      </clipPath>
      <clipPath id="clippath-21">
         <rect class="cls-10"
               x="179.5494"
               y="83.1859"
               width="32.242"
               height="36.112"/>
      </clipPath>
      <clipPath id="clippath-22">
         <rect class="cls-10"
               x="176.5494"
               y="80.9409"
               width="32.242"
               height="36.112"/>
      </clipPath>
      <clipPath id="clippath-23">
         <rect class="cls-10"
               x="176.5494"
               y="80.9409"
               width="32.242"
               height="36.112"/>
      </clipPath>
      <clipPath id="clippath-24">
         <rect class="cls-10"
               x="70.591"
               y="32.6307"
               width="16.63"
               height="16.2683"/>
      </clipPath>
      <clipPath id="clippath-25">
         <rect class="cls-10"
               x="70.591"
               y="32.631"
               width="16.63"
               height="16.268"/>
      </clipPath>
      <clipPath id="clippath-26">
         <rect class="cls-10"
               x="293.2577"
               y="32.6307"
               width="16.63"
               height="16.2683"/>
      </clipPath>
      <clipPath id="clippath-27">
         <rect class="cls-10"
               x="293.2577"
               y="32.631"
               width="16.63"
               height="16.268"/>
      </clipPath>
      <clipPath id="clippath-28">
         <rect class="cls-10"
               x="70.591"
               y="92.5621"
               width="16.63"
               height="16.2683"/>
      </clipPath>
      <clipPath id="clippath-29">
         <rect class="cls-10"
               x="70.591"
               y="92.5624"
               width="16.63"
               height="16.268"/>
      </clipPath>
      <clipPath id="clippath-30">
         <rect class="cls-10"
               x="70.591"
               y="134.5086"
               width="16.63"
               height="16.2683"/>
      </clipPath>
      <clipPath id="clippath-31">
         <rect class="cls-10"
               x="70.591"
               y="134.5089"
               width="16.63"
               height="16.268"/>
      </clipPath>
      <clipPath id="clippath-32">
         <rect class="cls-10"
               x="293.2577"
               y="134.5086"
               width="16.63"
               height="16.2683"/>
      </clipPath>
      <clipPath id="clippath-33">
         <rect class="cls-10"
               x="293.2577"
               y="134.5089"
               width="16.63"
               height="16.268"/>
      </clipPath>
      <clipPath id="clippath-34">
         <rect class="cls-10"
               x="337.4219"
               y="92.6307"
               width="16.63"
               height="16.2683"/>
      </clipPath>
      <clipPath id="clippath-35">
         <rect class="cls-10"
               x="337.4219"
               y="92.631"
               width="16.63"
               height="16.268"/>
      </clipPath>
      <clipPath id="clippath-36">
         <rect class="cls-10"
               x="244.3333"
               y="56.304"
               width="38.0886"
               height="59.5948"/>
      </clipPath>
      <clipPath id="clippath-37">
         <rect class="cls-10"
               x="244.3333"
               y="56.3038"
               width="38.089"
               height="59.595"/>
      </clipPath>
      <clipPath id="clippath-38">
         <rect class="cls-10"
               x="244.3333"
               y="56.3038"
               width="38.089"
               height="59.595"/>
      </clipPath>
      <clipPath id="clippath-39">
         <rect class="cls-10"
               x="42.6798"
               y="97.6403"
               width="6.125"
               height="6.125"/>
      </clipPath>
      <clipPath id="clippath-40">
         <rect class="cls-10"
               x="42.6798"
               y="97.6403"
               width="6.125"
               height="6.125"/>
      </clipPath>
      <clipPath id="clippath-41">
         <rect class="cls-10"
               x="42.6794"
               y="37.6403"
               width="6.125"
               height="6.125"/>
      </clipPath>
      <clipPath id="clippath-42">
         <rect class="cls-10"
               x="42.6794"
               y="37.6403"
               width="6.125"
               height="6.125"/>
      </clipPath>
   </defs>
   <g id="Layer_4" data-name="Layer 4">
      <g>
         <polygon class="cls-25"
                  points="46.9221 43.0332 43.5545 43.0332 47.1765 38.4966 50.544 38.4966 46.9221 43.0332"/>
         <polygon class="cls-25"
                  points="54.0777 43.0332 50.7101 43.0332 54.332 38.4966 57.6996 38.4966 54.0777 43.0332"/>
         <polygon class="cls-25"
                  points="61.2333 43.0332 57.8657 43.0332 61.4876 38.4966 64.8552 38.4966 61.2333 43.0332"/>
         <polygon class="cls-25"
                  points="68.3889 43.0332 65.0212 43.0332 68.6432 38.4966 72.0108 38.4966 68.3889 43.0332"/>
         <polygon class="cls-25"
                  points="75.5444 43.0332 72.1769 43.0332 75.7988 38.4966 79.1664 38.4966 75.5444 43.0332"/>
         <polygon class="cls-25"
                  points="82.7 43.0332 79.3325 43.0332 82.9544 38.4966 86.322 38.4966 82.7 43.0332"/>
         <polygon class="cls-25"
                  points="89.8556 43.0332 86.488 43.0332 90.11 38.4966 93.4775 38.4966 89.8556 43.0332"/>
         <polygon class="cls-25"
                  points="97.0112 43.0332 93.6436 43.0332 97.2656 38.4966 100.6331 38.4966 97.0112 43.0332"/>
         <polygon class="cls-25"
                  points="104.1668 43.0332 100.7992 43.0332 104.4211 38.4966 107.7887 38.4966 104.1668 43.0332"/>
         <polygon class="cls-25"
                  points="111.3223 43.0332 107.9548 43.0332 111.5767 38.4966 114.9443 38.4966 111.3223 43.0332"/>
         <polygon class="cls-25"
                  points="118.4779 43.0332 115.1104 43.0332 118.7323 38.4966 122.0999 38.4966 118.4779 43.0332"/>
         <polygon class="cls-25"
                  points="125.6335 43.0332 122.2659 43.0332 125.8879 38.4966 129.2555 38.4966 125.6335 43.0332"/>
         <polygon class="cls-25"
                  points="132.7891 43.0332 129.4215 43.0332 133.0435 38.4966 136.4111 38.4966 132.7891 43.0332"/>
         <polygon class="cls-25"
                  points="139.9447 43.0332 136.5772 43.0332 140.1991 38.4966 143.5667 38.4966 139.9447 43.0332"/>
         <polygon class="cls-25"
                  points="147.1003 43.0332 143.7327 43.0332 147.3547 38.4966 150.7222 38.4966 147.1003 43.0332"/>
         <polygon class="cls-25"
                  points="154.2559 43.0332 150.8883 43.0332 154.5103 38.4966 157.8778 38.4966 154.2559 43.0332"/>
         <polygon class="cls-25"
                  points="161.4114 43.0332 158.0439 43.0332 161.6658 38.4966 165.0334 38.4966 161.4114 43.0332"/>
         <polygon class="cls-25"
                  points="168.567 43.0332 165.1995 43.0332 168.8214 38.4966 172.189 38.4966 168.567 43.0332"/>
         <polygon class="cls-25"
                  points="175.7226 43.0332 172.355 43.0332 175.977 38.4966 179.3445 38.4966 175.7226 43.0332"/>
         <polygon class="cls-25"
                  points="182.8782 43.0332 179.5106 43.0332 183.1326 38.4966 186.5002 38.4966 182.8782 43.0332"/>
         <polygon class="cls-25"
                  points="190.0338 43.0332 186.6662 43.0332 190.2882 38.4966 193.6558 38.4966 190.0338 43.0332"/>
         <polygon class="cls-25"
                  points="197.1894 43.0332 193.8218 43.0332 197.4437 38.4966 200.8113 38.4966 197.1894 43.0332"/>
         <polygon class="cls-25"
                  points="204.345 43.0332 200.9774 43.0332 204.5994 38.4966 207.9669 38.4966 204.345 43.0332"/>
         <polygon class="cls-25"
                  points="211.5006 43.0332 208.133 43.0332 211.7549 38.4966 215.1225 38.4966 211.5006 43.0332"/>
         <polygon class="cls-25"
                  points="218.6561 43.0332 215.2886 43.0332 218.9105 38.4966 222.2781 38.4966 218.6561 43.0332"/>
         <polygon class="cls-25"
                  points="225.8117 43.0332 222.4442 43.0332 226.0661 38.4966 229.4337 38.4966 225.8117 43.0332"/>
         <polygon class="cls-25"
                  points="232.9673 43.0332 229.5997 43.0332 233.2217 38.4966 236.5892 38.4966 232.9673 43.0332"/>
         <polygon class="cls-25"
                  points="240.1229 43.0332 236.7553 43.0332 240.3773 38.4966 243.7448 38.4966 240.1229 43.0332"/>
         <polygon class="cls-25"
                  points="247.2784 43.0332 243.9109 43.0332 247.5328 38.4966 250.9005 38.4966 247.2784 43.0332"/>
         <polygon class="cls-25"
                  points="254.4341 43.0332 251.0665 43.0332 254.6884 38.4966 258.056 38.4966 254.4341 43.0332"/>
         <polygon class="cls-25"
                  points="261.5897 43.0332 258.222 43.0332 261.844 38.4966 265.2116 38.4966 261.5897 43.0332"/>
         <polygon class="cls-25"
                  points="268.7452 43.0332 265.3777 43.0332 268.9996 38.4966 272.3672 38.4966 268.7452 43.0332"/>
         <polygon class="cls-25"
                  points="275.9008 43.0332 272.5333 43.0332 276.1552 38.4966 279.5228 38.4966 275.9008 43.0332"/>
         <polygon class="cls-25"
                  points="283.0564 43.0332 279.6888 43.0332 283.3108 38.4966 286.6783 38.4966 283.0564 43.0332"/>
         <polygon class="cls-25"
                  points="290.212 43.0332 286.8444 43.0332 290.4664 38.4966 293.8339 38.4966 290.212 43.0332"/>
      </g>
      <g>
         <line class="cls-6"
               x1="43.3468"
               y1="100.6963"
               x2="380.3572"
               y2="100.6963"/>
         <polygon class="cls-25"
                  points="378.8982 105.6826 387.5334 100.6963 378.8982 95.7099 378.8982 105.6826"/>
      </g>
      <g>
         <polyline class="cls-6"
                   points="160.9908 100.6963 160.9908 142.6422 32.0814 142.6422"/>
         <polygon class="cls-25"
                  points="33.5403 137.6559 24.9051 142.6422 33.5403 147.6285 33.5403 137.6559"/>
      </g>
      <g>
         <polygon class="cls-25"
                  points="227.0651 46.9521 227.0651 43.5845 231.6016 47.2065 231.6016 50.5741 227.0651 46.9521"/>
         <polygon class="cls-25"
                  points="227.0651 55.5122 227.0651 52.1447 231.6016 55.7666 231.6016 59.1342 227.0651 55.5122"/>
         <polygon class="cls-25"
                  points="227.0651 64.0724 227.0651 60.7048 231.6016 64.3267 231.6016 67.6943 227.0651 64.0724"/>
         <polygon class="cls-25"
                  points="236.22 73.8015 232.8525 73.8015 236.4744 69.2649 239.842 69.2649 236.22 73.8015"/>
         <polygon class="cls-25"
                  points="244.4604 73.8015 241.0928 73.8015 244.7148 69.2649 248.0823 69.2649 244.4604 73.8015"/>
      </g>
      <g>
         <polygon class="cls-25"
                  points="227.0651 106.8185 227.0651 103.4509 231.6016 107.0729 231.6016 110.4404 227.0651 106.8185"/>
         <polygon class="cls-25"
                  points="227.0651 114.2031 227.0651 110.8355 231.6016 114.4575 231.6016 117.825 227.0651 114.2031"/>
         <polygon class="cls-25"
                  points="227.0651 121.5877 227.0651 118.2201 231.6016 121.8421 231.6016 125.2096 227.0651 121.5877"/>
         <polygon class="cls-25"
                  points="227.0651 128.9723 227.0651 125.6047 231.6016 129.2267 231.6016 132.5942 227.0651 128.9723"/>
         <polygon class="cls-25"
                  points="227.0651 136.3569 227.0651 132.9893 231.6016 136.6113 231.6016 139.9789 227.0651 136.3569"/>
         <polygon class="cls-25"
                  points="235.6679 144.9105 232.3002 144.9105 235.9222 140.3739 239.2898 140.3739 235.6679 144.9105"/>
         <polygon class="cls-25"
                  points="243.356 144.9105 239.9884 144.9105 243.6104 140.3739 246.978 140.3739 243.356 144.9105"/>
         <polygon class="cls-25"
                  points="251.0441 144.9105 247.6766 144.9105 251.2985 140.3739 254.6661 140.3739 251.0441 144.9105"/>
         <polygon class="cls-25"
                  points="258.7323 144.9105 255.3647 144.9105 258.9867 140.3739 262.3543 140.3739 258.7323 144.9105"/>
         <polygon class="cls-25"
                  points="266.4205 144.9105 263.0529 144.9105 266.6749 140.3739 270.0424 140.3739 266.4205 144.9105"/>
         <polygon class="cls-25"
                  points="274.1086 144.9105 270.7411 144.9105 274.363 140.3739 277.7306 140.3739 274.1086 144.9105"/>
         <polygon class="cls-25"
                  points="281.7968 144.9105 278.4293 144.9105 282.0512 140.3739 285.4188 140.3739 281.7968 144.9105"/>
         <polygon class="cls-25"
                  points="289.485 144.9105 286.1174 144.9105 289.7394 140.3739 293.1069 140.3739 289.485 144.9105"/>
      </g>
      <g>
         <polygon class="cls-25"
                  points="311.9216 144.911 308.5541 144.911 312.176 140.3745 315.5436 140.3745 311.9216 144.911"/>
         <polygon class="cls-25"
                  points="319.6902 136.6117 319.6902 139.9793 315.1536 136.3573 315.1536 132.9898 319.6902 136.6117"/>
         <polygon class="cls-25"
                  points="319.6902 129.227 319.6902 132.5946 315.1536 128.9726 315.1536 125.6051 319.6902 129.227"/>
         <polygon class="cls-25"
                  points="319.6902 121.8423 319.6902 125.2099 315.1536 121.588 315.1536 118.2204 319.6902 121.8423"/>
         <polygon class="cls-25"
                  points="319.6902 114.4576 319.6902 117.8252 315.1536 114.2033 315.1536 110.8357 319.6902 114.4576"/>
         <polygon class="cls-25"
                  points="319.6902 107.073 319.6902 110.4405 315.1536 106.8186 315.1536 103.451 319.6902 107.073"/>
      </g>
      <g>
         <polygon class="cls-25"
                  points="319.6902 95.9473 319.6902 99.3148 315.1536 95.6929 315.1536 92.3253 319.6902 95.9473"/>
         <polygon class="cls-25"
                  points="319.6902 88.912 319.6902 92.2796 315.1536 88.6577 315.1536 85.2901 319.6902 88.912"/>
         <polygon class="cls-25"
                  points="319.6902 81.8768 319.6902 85.2444 315.1536 81.6225 315.1536 78.2549 319.6902 81.8768"/>
         <polygon class="cls-25"
                  points="319.6902 74.8416 319.6902 78.2092 315.1536 74.5872 315.1536 71.2197 319.6902 74.8416"/>
         <polygon class="cls-25"
                  points="319.6902 67.8064 319.6902 71.174 315.1536 67.552 315.1536 64.1845 319.6902 67.8064"/>
         <polygon class="cls-25"
                  points="319.6902 60.7712 319.6902 64.1388 315.1536 60.5168 315.1536 57.1493 319.6902 60.7712"/>
         <polygon class="cls-25"
                  points="319.6902 53.736 319.6902 57.1036 315.1536 53.4816 315.1536 50.114 319.6902 53.736"/>
         <polygon class="cls-25"
                  points="319.6902 46.7008 319.6902 50.0684 315.1536 46.4464 315.1536 43.0788 319.6902 46.7008"/>
         <polygon class="cls-25"
                  points="312.176 38.4966 315.5436 38.4966 311.9216 43.0332 308.5541 43.0332 312.176 38.4966"/>
      </g>
   </g>
   <g id="Paths">
      <path class="cls-12" d="m337.9792,100.7649H86.6667"/>
      <path class="cls-12" d="m374.0333,100.7649h-20.45"/>
      <path class="cls-12" d="m71.3225,100.7649l-25.5802-.0686"/>
      <path class="cls-12" d="m294,40.7649H86.6667"/>
      <path class="cls-12" d="m71.3225,40.7649h-25.5802"/>
      <polyline class="cls-9"
                points="160.9908 100.7611 160.9908 142.6422 86.2103 142.6422"/>
      <line class="cls-9"
            x1="70.6981"
            y1="142.6428"
            x2="53.5675"
            y2="142.6428"/>
      <polyline class="cls-12"
                points="317.4219 100.7028 317.4219 40.7649 309.6111 40.7649"/>
      <polyline class="cls-12"
                points="309.4722 142.6422 317.4219 142.6422 317.4219 100.7649"/>
      <polyline class="cls-12"
                points="229.3333 100.7028 229.3333 142.6422 293.8056 142.6422"/>
      <polyline class="cls-12"
                points="229.3333 40.7649 229.3333 71.5332 244.3333 71.5332"/>
      <g id="Connect">
         <g class="cls-46">
            <g class="cls-36">
               <path class="cls-20"
                     d="m160.9904,99.7615c.553,0,1,.449,1,1.003,0,.555-.447,1.003-1,1.003-.552,0-1-.448-1-1.003,0-.554.448-1.003,1-1.003"/>
               <circle class="cls-15" cx="160.9904" cy="100.7645" r="1"/>
            </g>
         </g>
      </g>
      <g id="Connect-2" data-name="Connect">
         <g class="cls-18">
            <g class="cls-50">
               <path class="cls-20"
                     d="m229.333,99.7615c.553,0,1,.449,1,1.003,0,.555-.447,1.003-1,1.003-.552,0-1-.448-1-1.003,0-.554.448-1.003,1-1.003"/>
               <circle class="cls-15" cx="229.333" cy="100.7645" r="1"/>
            </g>
         </g>
      </g>
      <g id="Connect-3" data-name="Connect">
         <g class="cls-37">
            <g class="cls-56">
               <path class="cls-20"
                     d="m317.4216,99.7615c.553,0,1,.449,1,1.003,0,.555-.447,1.003-1,1.003-.552,0-1-.448-1-1.003,0-.554.448-1.003,1-1.003"/>
               <circle class="cls-15" cx="317.4216" cy="100.7645" r="1"/>
            </g>
         </g>
      </g>
      <g id="Connect-4" data-name="Connect">
         <g class="cls-30">
            <g class="cls-33">
               <path class="cls-20"
                     d="m229.333,39.7615c.553,0,1,.449,1,1.003,0,.555-.447,1.003-1,1.003-.552,0-1-.448-1-1.003,0-.554.448-1.003,1-1.003"/>
               <circle class="cls-15" cx="229.333" cy="40.7645" r="1"/>
            </g>
         </g>
      </g>
   </g>
   <g id="Parts">
      <g id="Artwork_13" data-name="Artwork 13">
         <g class="cls-51">
            <g class="cls-45">
               <path class="cls-24"
                     d="m374.0518,98.7032c1.104,0,2,.896,2,2s-.896,2-2,2-2-.896-2-2,.896-2,2-2"/>
               <circle class="cls-12" cx="374.0518" cy="100.7032" r="2"/>
            </g>
         </g>
      </g>
      <g id="Artwork_8" data-name="Artwork 8">
         <g class="cls-58">
            <g class="cls-2">
               <line class="cls-14"
                     x1="40.5573"
                     y1="149.9648"
                     x2="40.5573"
                     y2="135.2114"/>
               <line class="cls-5"
                     x1="38.5393"
                     y1="146.8305"
                     x2="38.5393"
                     y2="138.3459"/>
            </g>
            <line class="cls-11"
                  x1="40.3235"
                  y1="142.58"
                  x2="51.3044"
                  y2="142.58"/>
            <g class="cls-41">
               <line class="cls-14"
                     x1="53.3225"
                     y1="149.9569"
                     x2="53.3225"
                     y2="135.2035"/>
            </g>
            <line class="cls-5"
                  x1="51.3043"
                  y1="146.8222"
                  x2="51.3043"
                  y2="138.3376"/>
         </g>
      </g>
      <g id="Modular_Rectifier" data-name="Modular Rectifier">
         <g class="cls-26">
            <rect class="cls-23"
                  x="113.1954"
                  y="87.0078"
                  width="30.952"
                  height="30.952"/>
            <g class="cls-54">
               <rect class="cls-7"
                     x="113.1953"
                     y="87.0083"
                     width="30.952"
                     height="30.952"/>
               <line class="cls-7"
                     x1="144.1448"
                     y1="87.006"
                     x2="113.1938"
                     y2="117.958"/>
            </g>
            <line class="cls-7"
                  x1="140.7619"
                  y1="111.187"
                  x2="132.0609"
                  y2="111.187"/>
            <line class="cls-7"
                  x1="134.1095"
                  y1="113.1215"
                  x2="132.0615"
                  y2="113.1215"/>
            <line class="cls-7"
                  x1="137.4357"
                  y1="113.1215"
                  x2="135.3877"
                  y2="113.1215"/>
            <line class="cls-7"
                  x1="140.7619"
                  y1="113.1215"
                  x2="138.7139"
                  y2="113.1215"/>
            <g class="cls-29">
               <path class="cls-7"
                     d="m116.609,92.375c.121-1.086.988-1.825,1.935-1.825s1.702.482,1.934,1.825c.232,1.343,1.121,1.824,1.935,1.824.813,0,1.835-.755,1.934-1.824"/>
            </g>
            <rect class="cls-23"
                  x="110.1954"
                  y="85.1888"
                  width="30.952"
                  height="30.952"/>
            <rect class="cls-7"
                  x="110.1953"
                  y="85.1885"
                  width="30.952"
                  height="30.952"/>
            <line class="cls-7"
                  x1="141.1448"
                  y1="85.1862"
                  x2="110.1938"
                  y2="116.1382"/>
            <line class="cls-7"
                  x1="137.7619"
                  y1="109.3672"
                  x2="129.0609"
                  y2="109.3672"/>
            <line class="cls-7"
                  x1="131.1095"
                  y1="111.3017"
                  x2="129.0615"
                  y2="111.3017"/>
            <line class="cls-7"
                  x1="134.4357"
                  y1="111.3017"
                  x2="132.3877"
                  y2="111.3017"/>
            <line class="cls-7"
                  x1="137.7619"
                  y1="111.3017"
                  x2="135.7139"
                  y2="111.3017"/>
            <g class="cls-3">
               <path class="cls-7"
                     d="m113.609,90.5552c.121-1.086.988-1.825,1.935-1.825s1.702.482,1.934,1.825c.232,1.343,1.121,1.824,1.935,1.824.813,0,1.835-.755,1.934-1.824"/>
            </g>
            <rect class="cls-23"
                  x="107.1944"
                  y="83.4338"
                  width="30.953"
                  height="30.953"/>
            <g class="cls-55">
               <rect class="cls-7"
                     x="107.1953"
                     y="83.4341"
                     width="30.952"
                     height="30.952"/>
               <line class="cls-7"
                     x1="138.1448"
                     y1="83.4318"
                     x2="107.1938"
                     y2="114.3838"/>
            </g>
            <line class="cls-7"
                  x1="134.7619"
                  y1="107.6128"
                  x2="126.0609"
                  y2="107.6128"/>
            <line class="cls-7"
                  x1="128.1095"
                  y1="109.5473"
                  x2="126.0615"
                  y2="109.5473"/>
            <line class="cls-7"
                  x1="131.4357"
                  y1="109.5473"
                  x2="129.3877"
                  y2="109.5473"/>
            <line class="cls-7"
                  x1="134.7619"
                  y1="109.5473"
                  x2="132.7139"
                  y2="109.5473"/>
            <g class="cls-53">
               <path class="cls-7"
                     d="m110.609,88.8008c.121-1.086.988-1.825,1.935-1.825s1.702.482,1.934,1.825c.232,1.343,1.121,1.824,1.935,1.824.813,0,1.835-.755,1.934-1.824"/>
            </g>
         </g>
      </g>
      <g id="Modular_Inverter" data-name="Modular Inverter">
         <g class="cls-48">
            <rect class="cls-23"
                  x="183.1934"
                  y="87.9459"
                  width="30.952"
                  height="30.952"/>
            <rect class="cls-7"
                  x="183.1932"
                  y="87.9456"
                  width="30.952"
                  height="30.952"/>
            <line class="cls-7"
                  x1="183.1957"
                  y1="118.8998"
                  x2="214.1467"
                  y2="87.9478"/>
            <line class="cls-7"
                  x1="186.5786"
                  y1="94.7188"
                  x2="195.2796"
                  y2="94.7188"/>
            <line class="cls-7"
                  x1="193.231"
                  y1="92.7843"
                  x2="195.279"
                  y2="92.7843"/>
            <line class="cls-7"
                  x1="189.9048"
                  y1="92.7843"
                  x2="191.9528"
                  y2="92.7843"/>
            <line class="cls-7"
                  x1="186.5786"
                  y1="92.7843"
                  x2="188.6266"
                  y2="92.7843"/>
            <g class="cls-1">
               <path class="cls-7"
                     d="m210.7315,113.5308c-.121,1.086-.988,1.825-1.935,1.825s-1.702-.482-1.934-1.825c-.232-1.343-1.121-1.824-1.935-1.824-.813,0-1.835.755-1.934,1.824"/>
            </g>
            <rect class="cls-23"
                  x="180.1934"
                  y="85.7649"
                  width="30.952"
                  height="30.952"/>
            <rect class="cls-7"
                  x="180.1932"
                  y="85.7654"
                  width="30.952"
                  height="30.952"/>
            <line class="cls-7"
                  x1="180.1957"
                  y1="116.7196"
                  x2="211.1467"
                  y2="85.7676"/>
            <line class="cls-7"
                  x1="183.5786"
                  y1="92.5387"
                  x2="192.2796"
                  y2="92.5387"/>
            <line class="cls-7"
                  x1="190.231"
                  y1="90.6042"
                  x2="192.279"
                  y2="90.6042"/>
            <line class="cls-7"
                  x1="186.9048"
                  y1="90.6042"
                  x2="188.9528"
                  y2="90.6042"/>
            <line class="cls-7"
                  x1="183.5786"
                  y1="90.6042"
                  x2="185.6266"
                  y2="90.6042"/>
            <g class="cls-34">
               <path class="cls-7"
                     d="m207.7315,111.3506c-.121,1.086-.988,1.825-1.935,1.825s-1.702-.482-1.934-1.825c-.232-1.343-1.121-1.824-1.935-1.824-.813,0-1.835.755-1.934,1.824"/>
            </g>
            <rect class="cls-23"
                  x="177.1924"
                  y="83.5189"
                  width="30.953"
                  height="30.953"/>
            <g class="cls-44">
               <rect class="cls-7"
                     x="177.1932"
                     y="83.5198"
                     width="30.952"
                     height="30.952"/>
               <line class="cls-7"
                     x1="177.1957"
                     y1="114.474"
                     x2="208.1467"
                     y2="83.522"/>
            </g>
            <line class="cls-7"
                  x1="180.5786"
                  y1="90.2931"
                  x2="189.2796"
                  y2="90.2931"/>
            <line class="cls-7"
                  x1="187.231"
                  y1="88.3585"
                  x2="189.279"
                  y2="88.3585"/>
            <line class="cls-7"
                  x1="183.9048"
                  y1="88.3585"
                  x2="185.9528"
                  y2="88.3585"/>
            <line class="cls-7"
                  x1="180.5786"
                  y1="88.3585"
                  x2="182.6266"
                  y2="88.3585"/>
            <g class="cls-59">
               <path class="cls-7"
                     d="m204.7315,109.105c-.121,1.086-.988,1.825-1.935,1.825s-1.702-.482-1.934-1.825c-.232-1.343-1.121-1.824-1.935-1.824-.813,0-1.835.755-1.934,1.824"/>
            </g>
         </g>
      </g>
      <g id="Artwork_20_no_white" data-name="Artwork 20 no white">
         <g class="cls-42">
            <g class="cls-28">
               <line class="cls-12"
                     x1="71.5911"
                     y1="47.5422"
                     x2="86.2211"
                     y2="40.7762"/>
               <path class="cls-21"
                     d="m86.221,41.7805h0c-.55,0-1-.45-1-1,0-.551.45-1,1-1s1,.449,1,1c0,.55-.45,1-1,1"/>
               <path class="cls-21"
                     d="m71.5911,41.7805h0c-.55,0-1-.45-1-1,0-.551.45-1,1-1s1,.449,1,1c0,.55-.45,1-1,1"/>
            </g>
         </g>
      </g>
      <g id="Artwork_20_no_white-2" data-name="Artwork 20 no white">
         <g class="cls-32">
            <g class="cls-40">
               <line class="cls-12"
                     x1="294.2578"
                     y1="47.5422"
                     x2="308.8878"
                     y2="40.7762"/>
               <path class="cls-21"
                     d="m308.8877,41.7805h0c-.55,0-1-.45-1-1,0-.551.45-1,1-1s1,.449,1,1c0,.55-.45,1-1,1"/>
               <path class="cls-21"
                     d="m294.2578,41.7805h0c-.55,0-1-.45-1-1,0-.551.45-1,1-1s1,.449,1,1c0,.55-.45,1-1,1"/>
            </g>
         </g>
      </g>
      <g id="Artwork_20_no_white-3" data-name="Artwork 20 no white">
         <g class="cls-60">
            <g class="cls-52">
               <line class="cls-12"
                     x1="71.5911"
                     y1="107.4736"
                     x2="86.2211"
                     y2="100.7076"/>
               <path class="cls-21"
                     d="m86.221,101.7119h0c-.55,0-1-.45-1-1,0-.551.45-1,1-1s1,.449,1,1c0,.55-.45,1-1,1"/>
               <path class="cls-21"
                     d="m71.5911,101.7119h0c-.55,0-1-.45-1-1,0-.551.45-1,1-1s1,.449,1,1c0,.55-.45,1-1,1"/>
            </g>
         </g>
      </g>
      <g id="Artwork_20_no_white-4" data-name="Artwork 20 no white">
         <g class="cls-43">
            <g class="cls-49">
               <line class="cls-12"
                     x1="71.5911"
                     y1="149.4201"
                     x2="86.2211"
                     y2="142.6541"/>
               <path class="cls-21"
                     d="m86.221,143.6584h0c-.55,0-1-.45-1-1,0-.551.45-1,1-1s1,.449,1,1c0,.55-.45,1-1,1"/>
               <path class="cls-21"
                     d="m71.5911,143.6584h0c-.55,0-1-.45-1-1,0-.551.45-1,1-1s1,.449,1,1c0,.55-.45,1-1,1"/>
            </g>
         </g>
      </g>
      <g id="Artwork_20_no_white-5" data-name="Artwork 20 no white">
         <g class="cls-17">
            <g class="cls-4">
               <line class="cls-12"
                     x1="294.2578"
                     y1="149.4201"
                     x2="308.8878"
                     y2="142.6541"/>
               <path class="cls-21"
                     d="m308.8877,143.6584h0c-.55,0-1-.45-1-1,0-.551.45-1,1-1s1,.449,1,1c0,.55-.45,1-1,1"/>
               <path class="cls-21"
                     d="m294.2578,143.6584h0c-.55,0-1-.45-1-1,0-.551.45-1,1-1s1,.449,1,1c0,.55-.45,1-1,1"/>
            </g>
         </g>
      </g>
      <g id="Artwork_20_no_white-6" data-name="Artwork 20 no white">
         <g class="cls-35">
            <g class="cls-62">
               <line class="cls-12"
                     x1="338.422"
                     y1="107.5422"
                     x2="353.052"
                     y2="100.7762"/>
               <path class="cls-21"
                     d="m353.0519,101.7805h0c-.55,0-1-.45-1-1,0-.551.45-1,1-1s1,.449,1,1c0,.55-.45,1-1,1"/>
               <path class="cls-21"
                     d="m338.422,101.7805h0c-.55,0-1-.45-1-1,0-.551.45-1,1-1s1,.449,1,1c0,.55-.45,1-1,1"/>
            </g>
         </g>
      </g>
      <g id="Modular-SSW">
         <g class="cls-39">
            <rect class="cls-23"
                  x="244.7083"
                  y="56.6788"
                  width="37.338"
                  height="58.845"/>
            <g class="cls-27">
               <rect class="cls-13"
                     x="244.7083"
                     y="56.6788"
                     width="37.339"
                     height="58.845"/>
               <polyline class="cls-8"
                         points="244.7083 100.8133 274.0473 100.8133 274.0473 71.3913 244.7083 71.3913"/>
            </g>
            <rect class="cls-23"
                  x="252.0383"
                  y="93.2278"
                  width="15.128"
                  height="15.171"/>
            <rect class="cls-13"
                  x="252.0383"
                  y="93.2278"
                  width="15.128"
                  height="15.171"/>
            <line class="cls-13"
                  x1="257.006"
                  y1="112.0787"
                  x2="257.006"
                  y2="104.7187"/>
            <line class="cls-13"
                  x1="259.9481"
                  y1="112.0787"
                  x2="259.9381"
                  y2="109.7367"/>
            <path class="cls-19"
                  d="m263.2029,105.9347v4.928l-4.908-2.464,4.908-2.464Zm.75-1.216l-7.33,3.68,7.33,3.68v-7.36Z"/>
            <line class="cls-13"
                  x1="262.6645"
                  y1="89.6014"
                  x2="262.6645"
                  y2="96.9614"/>
            <line class="cls-13"
                  x1="259.3757"
                  y1="89.5501"
                  x2="259.3757"
                  y2="91.5631"/>
            <path class="cls-19"
                  d="m256.4607,90.7625l4.908,2.464-4.908,2.464v-4.928Zm-.75-1.216v7.36l7.33-3.68-7.33-3.68Z"/>
            <g class="cls-38">
               <path class="cls-22"
                     d="m252.0387,99.8126c.551,0,.997.448.997,1s-.446,1-.997,1-.997-.448-.997-1,.446-1,.997-1"/>
               <circle class="cls-13" cx="252.0387" cy="100.8126" r=".997"/>
               <path class="cls-22"
                     d="m267.1664,99.8133c.551,0,.997.448.997,1s-.446,1-.997,1-.997-.448-.997-1,.446-1,.997-1"/>
               <circle class="cls-13" cx="267.1664" cy="100.8133" r=".997"/>
               <rect class="cls-23"
                     x="252.0383"
                     y="63.8058"
                     width="15.128"
                     height="15.171"/>
               <rect class="cls-13"
                     x="252.0383"
                     y="63.8058"
                     width="15.128"
                     height="15.171"/>
               <line class="cls-13"
                     x1="257.006"
                     y1="82.6563"
                     x2="257.006"
                     y2="75.2963"/>
               <line class="cls-13"
                     x1="259.9481"
                     y1="82.6563"
                     x2="259.9381"
                     y2="80.3143"/>
               <path class="cls-19"
                     d="m263.2029,76.5123v4.928l-4.908-2.464,4.908-2.464Zm.75-1.216l-7.33,3.68,7.33,3.68v-7.36Z"/>
               <line class="cls-13"
                     x1="262.6645"
                     y1="60.179"
                     x2="262.6645"
                     y2="67.539"/>
               <line class="cls-13"
                     x1="259.3757"
                     y1="60.1277"
                     x2="259.3757"
                     y2="62.1407"/>
               <path class="cls-19"
                     d="m256.4607,61.3401l4.908,2.464-4.908,2.464v-4.928Zm-.75-1.216v7.36l7.33-3.68-7.33-3.68Z"/>
               <path class="cls-22"
                     d="m252.0387,70.3902c.551,0,.997.448.997,1s-.446,1-.997,1-.997-.448-.997-1,.446-1,.997-1"/>
               <circle class="cls-13" cx="252.0387" cy="71.3902" r=".997"/>
               <path class="cls-22"
                     d="m267.1664,70.3909c.551,0,.997.448.997,1s-.446,1-.997,1-.997-.448-.997-1,.446-1,.997-1"/>
               <circle class="cls-13" cx="267.1664" cy="71.3909" r=".997"/>
               <line class="cls-8"
                     x1="282.0469"
                     y1="100.8126"
                     x2="274.0469"
                     y2="100.8126"/>
               <path class="cls-22"
                     d="m274.0469,99.8133c.551,0,.997.448.997,1s-.446,1-.997,1-.997-.448-.997-1,.446-1,.997-1"/>
               <circle class="cls-13" cx="274.0469" cy="100.8133" r=".997"/>
            </g>
         </g>
      </g>
      <g id="Artwork_13-2" data-name="Artwork 13">
         <g class="cls-47">
            <g class="cls-31">
               <path class="cls-24"
                     d="m45.7422,98.7032c1.104,0,2,.896,2,2s-.896,2-2,2-2-.896-2-2,.896-2,2-2"/>
               <circle class="cls-12" cx="45.7422" cy="100.7032" r="2"/>
            </g>
         </g>
      </g>
      <g id="Artwork_13-3" data-name="Artwork 13">
         <g class="cls-16">
            <g class="cls-57">
               <path class="cls-24"
                     d="m45.7418,38.7032c1.104,0,2,.896,2,2s-.896,2-2,2-2-.896-2-2,.896-2,2-2"/>
               <circle class="cls-12" cx="45.7418" cy="40.7032" r="2"/>
            </g>
         </g>
      </g>
   </g>
   <g id="Text">
      <text class="cls-61" transform="translate(22.1251 130.5797)">
         <tspan x="0" y="0">BATTERY</tspan>
      </text>
      <text class="cls-61" transform="translate(19.3539 78.6937)">
         <tspan x="0" y="0">RECTIFIER</tspan>
         <tspan x="10.2783" y="12">MAINS</tspan>
      </text>
      <text class="cls-61" transform="translate(288.017 18.6938)">
         <tspan x="0" y="0">MANUAL</tspan>
      </text>
      <text class="cls-61" transform="translate(289.118 30.6938)">
         <tspan x="0" y="0">BYPASS</tspan>
      </text>
      <text class="cls-61" transform="translate(231.279 18.6938)">
         <tspan x="0" y="0">STATIC</tspan>
      </text>
      <text class="cls-61" transform="translate(229.6139 30.6936)">
         <tspan x="0" y="0">SWITCH</tspan>
      </text>
      <text class="cls-61" transform="translate(25.1816 18.6938)">
         <tspan x="0" y="0">BYPASS</tspan>
         <tspan x="4.4507" y="12">MAINS</tspan>
      </text>
      <text class="cls-61" transform="translate(98.8751 78.6934)">
         <tspan x="0" y="0">RECTIFIER</tspan>
      </text>
      <text class="cls-61" transform="translate(170.3898 78.6934)">
         <tspan x="0" y="0">INVERTER</tspan>
      </text>
      <text class="cls-61" transform="translate(344.8686 94.0576)">
         <tspan x="0" y="0">AC OUTPUT</tspan>
      </text>
   </g>
</svg>
