<?xml version="1.0" encoding="UTF-8"?>
<svg xmlns="http://www.w3.org/2000/svg"
     xmlns:xlink="http://www.w3.org/1999/xlink"
     width="158mm"
     height="65mm"
     viewBox="0 0 447.874 184.252">
   <defs>
      <style>
      .cls-1 {
        clip-path: url(#clippath-45);
      }

      .cls-2 {
        clip-path: url(#clippath-20);
      }

      .cls-3 {
        clip-path: url(#clippath-11);
      }

      .cls-4 {
        clip-path: url(#clippath-16);
      }

      .cls-5 {
        clip-path: url(#clippath-33);
      }

      .cls-6 {
        clip-path: url(#clippath-47);
      }

      .cls-7 {
        stroke-width: 1.2522px;
      }

      .cls-7, .cls-8, .cls-9, .cls-10, .cls-11, .cls-12, .cls-13, .cls-14, .cls-15, .cls-16 {
        fill: none;
      }

      .cls-7, .cls-8, .cls-10, .cls-12, .cls-13, .cls-15, .cls-16 {
        stroke: #000;
      }

      .cls-7, .cls-8, .cls-12, .cls-13, .cls-14, .cls-15, .cls-16 {
        stroke-miterlimit: 3;
      }

      .cls-17 {
        clip-path: url(#clippath-41);
      }

      .cls-18 {
        clip-path: url(#clippath-32);
      }

      .cls-8 {
        stroke-width: .645px;
      }

      .cls-19 {
        clip-path: url(#clippath-2);
      }

      .cls-20, .cls-21, .cls-22, .cls-11, .cls-23, .cls-24, .cls-25 {
        stroke-width: 0px;
      }

      .cls-20, .cls-23 {
        fill: #010101;
      }

      .cls-21, .cls-23, .cls-25 {
        fill-rule: evenodd;
      }

      .cls-26 {
        clip-path: url(#clippath-13);
      }

      .cls-27 {
        clip-path: url(#clippath-37);
      }

      .cls-28 {
        clip-path: url(#clippath-46);
      }

      .cls-29 {
        clip-path: url(#clippath-25);
      }

      .cls-30 {
        clip-path: url(#clippath-15);
      }

      .cls-31 {
        clip-path: url(#clippath-6);
      }

      .cls-32 {
        clip-path: url(#clippath-40);
      }

      .cls-33 {
        clip-path: url(#clippath-26);
      }

      .cls-9, .cls-10 {
        stroke-miterlimit: 10;
      }

      .cls-9, .cls-10, .cls-13, .cls-14 {
        stroke-width: .75px;
      }

      .cls-9, .cls-14 {
        stroke: #010101;
      }

      .cls-34 {
        clip-path: url(#clippath-7);
      }

      .cls-35 {
        clip-path: url(#clippath-21);
      }

      .cls-36 {
        clip-path: url(#clippath-34);
      }

      .cls-37 {
        clip-path: url(#clippath-1);
      }

      .cls-38 {
        clip-path: url(#clippath-4);
      }

      .cls-39 {
        clip-path: url(#clippath-38);
      }

      .cls-40 {
        clip-path: url(#clippath-36);
      }

      .cls-41 {
        clip-path: url(#clippath-27);
      }

      .cls-12 {
        stroke-dasharray: 0 0 2.0034 1.0017;
      }

      .cls-12, .cls-15 {
        stroke-width: .7513px;
      }

      .cls-42 {
        clip-path: url(#clippath-44);
      }

      .cls-43 {
        clip-path: url(#clippath-12);
      }

      .cls-24, .cls-25 {
        fill: #fff;
      }

      .cls-44 {
        clip-path: url(#clippath-24);
      }

      .cls-45 {
        clip-path: url(#clippath-30);
      }

      .cls-46 {
        clip-path: url(#clippath-22);
      }

      .cls-47 {
        clip-path: url(#clippath-9);
      }

      .cls-48 {
        clip-path: url(#clippath);
      }

      .cls-49 {
        clip-path: url(#clippath-50);
      }

      .cls-50 {
        clip-path: url(#clippath-48);
      }

      .cls-51 {
        clip-path: url(#clippath-39);
      }

      .cls-52 {
        clip-path: url(#clippath-19);
      }

      .cls-53 {
        clip-path: url(#clippath-31);
      }

      .cls-54 {
        clip-path: url(#clippath-3);
      }

      .cls-55 {
        clip-path: url(#clippath-43);
      }

      .cls-56 {
        clip-path: url(#clippath-8);
      }

      .cls-57 {
        clip-path: url(#clippath-29);
      }

      .cls-58 {
        clip-path: url(#clippath-18);
      }

      .cls-59 {
        clip-path: url(#clippath-14);
      }

      .cls-60 {
        clip-path: url(#clippath-17);
      }

      .cls-61 {
        clip-path: url(#clippath-5);
      }

      .cls-62 {
        clip-path: url(#clippath-42);
      }

      .cls-63 {
        clip-path: url(#clippath-10);
      }

      .cls-64 {
        clip-path: url(#clippath-23);
      }

      .cls-65 {
        clip-path: url(#clippath-49);
      }

      .cls-66 {
        clip-path: url(#clippath-28);
      }

      .cls-16 {
        stroke-width: .5px;
      }

      .cls-67 {
        fill: #01889C;
        font-family: Arial-BoldMT, Arial;
        font-size: 10px;
        font-weight: 700;
      }

      .cls-68 {
        clip-path: url(#clippath-35);
      }
    </style>
      <clipPath id="clippath">
         <rect class="cls-11"
               x="355.1371"
               y="98.4739"
               width="4.5709"
               height="4.5819"/>
      </clipPath>
      <clipPath id="clippath-1">
         <rect class="cls-11"
               x="355.1371"
               y="98.4738"
               width="4.571"
               height="4.582"/>
      </clipPath>
      <clipPath id="clippath-2">
         <rect class="cls-11"
               x="176.7053"
               y="98.4739"
               width="4.5709"
               height="4.5819"/>
      </clipPath>
      <clipPath id="clippath-3">
         <rect class="cls-11"
               x="176.7053"
               y="98.4738"
               width="4.571"
               height="4.582"/>
      </clipPath>
      <clipPath id="clippath-4">
         <rect class="cls-11"
               x="158.7059"
               y="98.4739"
               width="4.5709"
               height="4.5819"/>
      </clipPath>
      <clipPath id="clippath-5">
         <rect class="cls-11"
               x="158.7059"
               y="98.4738"
               width="4.571"
               height="4.582"/>
      </clipPath>
      <clipPath id="clippath-6">
         <rect class="cls-11"
               x="267.0485"
               y="98.4739"
               width="4.5709"
               height="4.5819"/>
      </clipPath>
      <clipPath id="clippath-7">
         <rect class="cls-11"
               x="267.0485"
               y="98.4738"
               width="4.571"
               height="4.582"/>
      </clipPath>
      <clipPath id="clippath-8">
         <rect class="cls-11"
               x="267.0485"
               y="38.4739"
               width="4.5709"
               height="4.5819"/>
      </clipPath>
      <clipPath id="clippath-9">
         <rect class="cls-11"
               x="267.0485"
               y="38.4738"
               width="4.571"
               height="4.582"/>
      </clipPath>
      <clipPath id="clippath-10">
         <rect class="cls-11"
               x="410.99"
               y="97.6403"
               width="6.125"
               height="6.125"/>
      </clipPath>
      <clipPath id="clippath-11">
         <rect class="cls-11"
               x="410.99"
               y="97.6403"
               width="6.125"
               height="6.125"/>
      </clipPath>
      <clipPath id="clippath-12">
         <rect class="cls-11"
               x="106.55"
               y="80.8538"
               width="38.2419"
               height="39.685"/>
      </clipPath>
      <clipPath id="clippath-13">
         <rect class="cls-11"
               x="112.55"
               y="84.4278"
               width="32.242"
               height="36.111"/>
      </clipPath>
      <clipPath id="clippath-14">
         <rect class="cls-11"
               x="112.55"
               y="84.4278"
               width="32.242"
               height="36.111"/>
      </clipPath>
      <clipPath id="clippath-15">
         <rect class="cls-11"
               x="109.55"
               y="82.6078"
               width="32.243"
               height="36.111"/>
      </clipPath>
      <clipPath id="clippath-16">
         <rect class="cls-11"
               x="106.55"
               y="80.8538"
               width="32.242"
               height="36.111"/>
      </clipPath>
      <clipPath id="clippath-17">
         <rect class="cls-11"
               x="106.55"
               y="80.8538"
               width="32.242"
               height="36.111"/>
      </clipPath>
      <clipPath id="clippath-18">
         <rect class="cls-11"
               x="216.55"
               y="80.9411"
               width="38.2419"
               height="40.5368"/>
      </clipPath>
      <clipPath id="clippath-19">
         <rect class="cls-11"
               x="222.549"
               y="85.3669"
               width="32.242"
               height="36.111"/>
      </clipPath>
      <clipPath id="clippath-20">
         <rect class="cls-11"
               x="219.55"
               y="83.1859"
               width="32.242"
               height="36.112"/>
      </clipPath>
      <clipPath id="clippath-21">
         <rect class="cls-11"
               x="216.55"
               y="80.9409"
               width="32.242"
               height="36.112"/>
      </clipPath>
      <clipPath id="clippath-22">
         <rect class="cls-11"
               x="216.55"
               y="80.9409"
               width="32.242"
               height="36.112"/>
      </clipPath>
      <clipPath id="clippath-23">
         <rect class="cls-11"
               x="284.3339"
               y="56.304"
               width="38.0886"
               height="59.5948"/>
      </clipPath>
      <clipPath id="clippath-24">
         <rect class="cls-11"
               x="284.3339"
               y="56.3038"
               width="38.089"
               height="59.595"/>
      </clipPath>
      <clipPath id="clippath-25">
         <rect class="cls-11"
               x="284.3339"
               y="56.3038"
               width="38.089"
               height="59.595"/>
      </clipPath>
      <clipPath id="clippath-26">
         <rect class="cls-11"
               x="70.5916"
               y="32.6307"
               width="16.63"
               height="16.2683"/>
      </clipPath>
      <clipPath id="clippath-27">
         <rect class="cls-11"
               x="70.5916"
               y="32.631"
               width="16.63"
               height="16.268"/>
      </clipPath>
      <clipPath id="clippath-28">
         <rect class="cls-11"
               x="70.5916"
               y="92.5621"
               width="16.63"
               height="16.2683"/>
      </clipPath>
      <clipPath id="clippath-29">
         <rect class="cls-11"
               x="70.5916"
               y="92.5624"
               width="16.63"
               height="16.268"/>
      </clipPath>
      <clipPath id="clippath-30">
         <rect class="cls-11"
               x="190.5981"
               y="92.5621"
               width="16.63"
               height="16.2683"/>
      </clipPath>
      <clipPath id="clippath-31">
         <rect class="cls-11"
               x="190.5981"
               y="92.5624"
               width="16.63"
               height="16.268"/>
      </clipPath>
      <clipPath id="clippath-32">
         <rect class="cls-11"
               x="333.2583"
               y="134.5086"
               width="16.63"
               height="16.2683"/>
      </clipPath>
      <clipPath id="clippath-33">
         <rect class="cls-11"
               x="333.2583"
               y="134.5089"
               width="16.63"
               height="16.268"/>
      </clipPath>
      <clipPath id="clippath-34">
         <rect class="cls-11"
               x="333.2583"
               y="32.5621"
               width="16.63"
               height="16.2683"/>
      </clipPath>
      <clipPath id="clippath-35">
         <rect class="cls-11"
               x="333.2583"
               y="32.5624"
               width="16.63"
               height="16.268"/>
      </clipPath>
      <clipPath id="clippath-36">
         <rect class="cls-11"
               x="377.4225"
               y="92.5621"
               width="16.63"
               height="16.2683"/>
      </clipPath>
      <clipPath id="clippath-37">
         <rect class="cls-11"
               x="377.4225"
               y="92.5624"
               width="16.63"
               height="16.268"/>
      </clipPath>
      <clipPath id="clippath-38">
         <rect class="cls-11"
               x="42.6804"
               y="97.6403"
               width="6.125"
               height="6.125"/>
      </clipPath>
      <clipPath id="clippath-39">
         <rect class="cls-11"
               x="42.6804"
               y="97.6403"
               width="6.125"
               height="6.125"/>
      </clipPath>
      <clipPath id="clippath-40">
         <rect class="cls-11"
               x="42.68"
               y="37.6403"
               width="6.125"
               height="6.125"/>
      </clipPath>
      <clipPath id="clippath-41">
         <rect class="cls-11"
               x="42.68"
               y="37.6403"
               width="6.125"
               height="6.125"/>
      </clipPath>
      <clipPath id="clippath-42">
         <rect class="cls-11"
               x="410.9894"
               y="166.9647"
               width="6.125"
               height="6.125"/>
      </clipPath>
      <clipPath id="clippath-43">
         <rect class="cls-11"
               x="410.9894"
               y="166.9647"
               width="6.125"
               height="6.125"/>
      </clipPath>
      <clipPath id="clippath-44">
         <rect class="cls-11"
               x="377.4219"
               y="161.893"
               width="16.63"
               height="16.2683"/>
      </clipPath>
      <clipPath id="clippath-45">
         <rect class="cls-11"
               x="377.4219"
               y="161.8933"
               width="16.63"
               height="16.268"/>
      </clipPath>
      <clipPath id="clippath-46">
         <rect class="cls-11"
               x="37.9209"
               y="135.2034"
               width="15.6504"
               height="14.7535"/>
      </clipPath>
      <clipPath id="clippath-47">
         <rect class="cls-11"
               x="37.9209"
               y="135.2035"
               width="15.6509"
               height="14.7534"/>
      </clipPath>
      <clipPath id="clippath-48">
         <rect class="cls-11"
               x="37.9209"
               y="135.2035"
               width="15.6509"
               height="14.7534"/>
      </clipPath>
      <clipPath id="clippath-49">
         <rect class="cls-11"
               x="70.591"
               y="134.5086"
               width="16.63"
               height="16.2683"/>
      </clipPath>
      <clipPath id="clippath-50">
         <rect class="cls-11"
               x="70.591"
               y="134.5089"
               width="16.63"
               height="16.268"/>
      </clipPath>
   </defs>
   <g id="Paths">
      <path class="cls-13" d="m414.0333,170.0892h-20.45"/>
      <polyline class="cls-10"
                points="178.9908 100.7649 178.9908 170.0272 377.9792 170.0272"/>
      <path class="cls-13" d="m191.5829,100.7649h-104.9156"/>
      <path class="cls-13" d="m377.9798,100.7649h-171.7024"/>
      <path class="cls-13" d="m414.0339,100.7649h-20.45"/>
      <path class="cls-13" d="m71.3231,100.7649h-25.5866"/>
      <path class="cls-13" d="m334.0006,40.7649H86.6673"/>
      <path class="cls-13" d="m71.3231,40.7649h-25.5866"/>
      <polyline class="cls-13"
                points="357.4225 100.7028 357.4225 40.7649 349.6117 40.7649"/>
      <polyline class="cls-13"
                points="349.4728 142.6422 357.4225 142.6422 357.4225 100.7649"/>
      <polyline class="cls-13"
                points="269.3339 100.7028 269.3339 142.6422 333.8062 142.6422"/>
      <polyline class="cls-13"
                points="269.3339 40.7649 269.3339 71.5332 284.3339 71.5332"/>
      <g id="Connect">
         <g class="cls-48">
            <g class="cls-37">
               <path class="cls-21"
                     d="m357.4222,99.7615c.553,0,1,.449,1,1.003,0,.555-.447,1.003-1,1.003-.552,0-1-.448-1-1.003,0-.554.448-1.003,1-1.003"/>
               <circle class="cls-16" cx="357.4222" cy="100.7645" r="1"/>
            </g>
         </g>
      </g>
   </g>
   <g id="Parts">
      <g id="Connect-2" data-name="Connect">
         <g class="cls-19">
            <g class="cls-54">
               <path class="cls-21"
                     d="m178.9904,99.7615c.553,0,1,.449,1,1.003,0,.555-.447,1.003-1,1.003-.552,0-1-.448-1-1.003,0-.554.448-1.003,1-1.003"/>
               <circle class="cls-16" cx="178.9904" cy="100.7645" r="1"/>
            </g>
         </g>
      </g>
      <g id="Connect-3" data-name="Connect">
         <g class="cls-38">
            <g class="cls-61">
               <path class="cls-21"
                     d="m160.991,99.7615c.553,0,1,.449,1,1.003,0,.555-.447,1.003-1,1.003-.552,0-1-.448-1-1.003,0-.554.448-1.003,1-1.003"/>
               <circle class="cls-16" cx="160.991" cy="100.7645" r="1"/>
            </g>
         </g>
      </g>
      <g id="Connect-4" data-name="Connect">
         <g class="cls-31">
            <g class="cls-34">
               <path class="cls-21"
                     d="m269.3336,99.7615c.553,0,1,.449,1,1.003,0,.555-.447,1.003-1,1.003-.552,0-1-.448-1-1.003,0-.554.448-1.003,1-1.003"/>
               <circle class="cls-16" cx="269.3336" cy="100.7645" r="1"/>
            </g>
         </g>
      </g>
      <g id="Connect-5" data-name="Connect">
         <g class="cls-56">
            <g class="cls-47">
               <path class="cls-21"
                     d="m269.3336,39.7615c.553,0,1,.449,1,1.003,0,.555-.447,1.003-1,1.003-.552,0-1-.448-1-1.003,0-.554.448-1.003,1-1.003"/>
               <circle class="cls-16" cx="269.3336" cy="40.7645" r="1"/>
            </g>
         </g>
      </g>
      <g id="Artwork_13" data-name="Artwork 13">
         <g class="cls-63">
            <g class="cls-3">
               <path class="cls-25"
                     d="m414.0524,98.7032c1.104,0,2,.896,2,2s-.896,2-2,2-2-.896-2-2,.896-2,2-2"/>
               <circle class="cls-13" cx="414.0524" cy="100.7032" r="2"/>
            </g>
         </g>
      </g>
      <g id="Modular_Rectifier" data-name="Modular Rectifier">
         <g class="cls-43">
            <rect class="cls-24"
                  x="113.196"
                  y="87.0078"
                  width="30.952"
                  height="30.952"/>
            <g class="cls-26">
               <rect class="cls-8"
                     x="113.1959"
                     y="87.0083"
                     width="30.952"
                     height="30.952"/>
               <line class="cls-8"
                     x1="144.1454"
                     y1="87.006"
                     x2="113.1944"
                     y2="117.958"/>
            </g>
            <line class="cls-8"
                  x1="140.7625"
                  y1="111.187"
                  x2="132.0615"
                  y2="111.187"/>
            <line class="cls-8"
                  x1="134.1101"
                  y1="113.1215"
                  x2="132.0621"
                  y2="113.1215"/>
            <line class="cls-8"
                  x1="137.4363"
                  y1="113.1215"
                  x2="135.3883"
                  y2="113.1215"/>
            <line class="cls-8"
                  x1="140.7625"
                  y1="113.1215"
                  x2="138.7145"
                  y2="113.1215"/>
            <g class="cls-59">
               <path class="cls-8"
                     d="m116.6096,92.375c.121-1.086.988-1.825,1.935-1.825s1.702.482,1.934,1.825c.232,1.343,1.121,1.824,1.935,1.824.813,0,1.835-.755,1.934-1.824"/>
            </g>
            <rect class="cls-24"
                  x="110.196"
                  y="85.1888"
                  width="30.952"
                  height="30.952"/>
            <rect class="cls-8"
                  x="110.1959"
                  y="85.1885"
                  width="30.952"
                  height="30.952"/>
            <line class="cls-8"
                  x1="141.1454"
                  y1="85.1862"
                  x2="110.1944"
                  y2="116.1382"/>
            <line class="cls-8"
                  x1="137.7625"
                  y1="109.3672"
                  x2="129.0615"
                  y2="109.3672"/>
            <line class="cls-8"
                  x1="131.1101"
                  y1="111.3017"
                  x2="129.0621"
                  y2="111.3017"/>
            <line class="cls-8"
                  x1="134.4363"
                  y1="111.3017"
                  x2="132.3883"
                  y2="111.3017"/>
            <line class="cls-8"
                  x1="137.7625"
                  y1="111.3017"
                  x2="135.7145"
                  y2="111.3017"/>
            <g class="cls-30">
               <path class="cls-8"
                     d="m113.6096,90.5552c.121-1.086.988-1.825,1.935-1.825s1.702.482,1.934,1.825c.232,1.343,1.121,1.824,1.935,1.824.813,0,1.835-.755,1.934-1.824"/>
            </g>
            <rect class="cls-24"
                  x="107.195"
                  y="83.4338"
                  width="30.953"
                  height="30.953"/>
            <g class="cls-4">
               <rect class="cls-8"
                     x="107.1959"
                     y="83.4341"
                     width="30.952"
                     height="30.952"/>
               <line class="cls-8"
                     x1="138.1454"
                     y1="83.4318"
                     x2="107.1944"
                     y2="114.3838"/>
            </g>
            <line class="cls-8"
                  x1="134.7625"
                  y1="107.6128"
                  x2="126.0615"
                  y2="107.6128"/>
            <line class="cls-8"
                  x1="128.1101"
                  y1="109.5473"
                  x2="126.0621"
                  y2="109.5473"/>
            <line class="cls-8"
                  x1="131.4363"
                  y1="109.5473"
                  x2="129.3883"
                  y2="109.5473"/>
            <line class="cls-8"
                  x1="134.7625"
                  y1="109.5473"
                  x2="132.7145"
                  y2="109.5473"/>
            <g class="cls-60">
               <path class="cls-8"
                     d="m110.6096,88.8008c.121-1.086.988-1.825,1.935-1.825s1.702.482,1.934,1.825c.232,1.343,1.121,1.824,1.935,1.824.813,0,1.835-.755,1.934-1.824"/>
            </g>
         </g>
      </g>
      <g id="Modular_Inverter" data-name="Modular Inverter">
         <g class="cls-58">
            <rect class="cls-24"
                  x="223.194"
                  y="87.9459"
                  width="30.952"
                  height="30.952"/>
            <rect class="cls-8"
                  x="223.1938"
                  y="87.9456"
                  width="30.952"
                  height="30.952"/>
            <line class="cls-8"
                  x1="223.1963"
                  y1="118.8998"
                  x2="254.1473"
                  y2="87.9478"/>
            <line class="cls-8"
                  x1="226.5792"
                  y1="94.7188"
                  x2="235.2802"
                  y2="94.7188"/>
            <line class="cls-8"
                  x1="233.2316"
                  y1="92.7843"
                  x2="235.2796"
                  y2="92.7843"/>
            <line class="cls-8"
                  x1="229.9054"
                  y1="92.7843"
                  x2="231.9534"
                  y2="92.7843"/>
            <line class="cls-8"
                  x1="226.5792"
                  y1="92.7843"
                  x2="228.6272"
                  y2="92.7843"/>
            <g class="cls-52">
               <path class="cls-8"
                     d="m250.7321,113.5308c-.121,1.086-.988,1.825-1.935,1.825s-1.702-.482-1.934-1.825c-.232-1.343-1.121-1.824-1.935-1.824-.813,0-1.835.755-1.934,1.824"/>
            </g>
            <rect class="cls-24"
                  x="220.194"
                  y="85.7649"
                  width="30.952"
                  height="30.952"/>
            <rect class="cls-8"
                  x="220.1938"
                  y="85.7654"
                  width="30.952"
                  height="30.952"/>
            <line class="cls-8"
                  x1="220.1963"
                  y1="116.7196"
                  x2="251.1473"
                  y2="85.7676"/>
            <line class="cls-8"
                  x1="223.5792"
                  y1="92.5387"
                  x2="232.2802"
                  y2="92.5387"/>
            <line class="cls-8"
                  x1="230.2316"
                  y1="90.6042"
                  x2="232.2796"
                  y2="90.6042"/>
            <line class="cls-8"
                  x1="226.9054"
                  y1="90.6042"
                  x2="228.9534"
                  y2="90.6042"/>
            <line class="cls-8"
                  x1="223.5792"
                  y1="90.6042"
                  x2="225.6272"
                  y2="90.6042"/>
            <g class="cls-2">
               <path class="cls-8"
                     d="m247.7321,111.3506c-.121,1.086-.988,1.825-1.935,1.825s-1.702-.482-1.934-1.825c-.232-1.343-1.121-1.824-1.935-1.824-.813,0-1.835.755-1.934,1.824"/>
            </g>
            <rect class="cls-24"
                  x="217.193"
                  y="83.5189"
                  width="30.953"
                  height="30.953"/>
            <g class="cls-35">
               <rect class="cls-8"
                     x="217.1938"
                     y="83.5198"
                     width="30.952"
                     height="30.952"/>
               <line class="cls-8"
                     x1="217.1963"
                     y1="114.474"
                     x2="248.1473"
                     y2="83.522"/>
            </g>
            <line class="cls-8"
                  x1="220.5792"
                  y1="90.2931"
                  x2="229.2802"
                  y2="90.2931"/>
            <line class="cls-8"
                  x1="227.2316"
                  y1="88.3585"
                  x2="229.2796"
                  y2="88.3585"/>
            <line class="cls-8"
                  x1="223.9054"
                  y1="88.3585"
                  x2="225.9534"
                  y2="88.3585"/>
            <line class="cls-8"
                  x1="220.5792"
                  y1="88.3585"
                  x2="222.6272"
                  y2="88.3585"/>
            <g class="cls-46">
               <path class="cls-8"
                     d="m244.7321,109.105c-.121,1.086-.988,1.825-1.935,1.825s-1.702-.482-1.934-1.825c-.232-1.343-1.121-1.824-1.935-1.824-.813,0-1.835.755-1.934,1.824"/>
            </g>
         </g>
      </g>
      <g id="Modular-SSW">
         <g class="cls-64">
            <rect class="cls-24"
                  x="284.7089"
                  y="56.6788"
                  width="37.338"
                  height="58.845"/>
            <g class="cls-44">
               <rect class="cls-14"
                     x="284.7089"
                     y="56.6788"
                     width="37.339"
                     height="58.845"/>
               <polyline class="cls-9"
                         points="284.7089 100.8133 314.0479 100.8133 314.0479 71.3913 284.7089 71.3913"/>
            </g>
            <rect class="cls-24"
                  x="292.0389"
                  y="93.2278"
                  width="15.128"
                  height="15.171"/>
            <rect class="cls-14"
                  x="292.0389"
                  y="93.2278"
                  width="15.128"
                  height="15.171"/>
            <line class="cls-14"
                  x1="297.0066"
                  y1="112.0787"
                  x2="297.0066"
                  y2="104.7187"/>
            <line class="cls-14"
                  x1="299.9487"
                  y1="112.0787"
                  x2="299.9387"
                  y2="109.7367"/>
            <path class="cls-20"
                  d="m303.2035,105.9347v4.928l-4.908-2.464,4.908-2.464Zm.75-1.216l-7.33,3.68,7.33,3.68v-7.36Z"/>
            <line class="cls-14"
                  x1="302.6651"
                  y1="89.6014"
                  x2="302.6651"
                  y2="96.9614"/>
            <line class="cls-14"
                  x1="299.3763"
                  y1="89.5501"
                  x2="299.3763"
                  y2="91.5631"/>
            <path class="cls-20"
                  d="m296.4613,90.7625l4.908,2.464-4.908,2.464v-4.928Zm-.75-1.216v7.36l7.33-3.68-7.33-3.68Z"/>
            <g class="cls-29">
               <path class="cls-23"
                     d="m292.0393,99.8126c.551,0,.997.448.997,1s-.446,1-.997,1-.997-.448-.997-1,.446-1,.997-1"/>
               <circle class="cls-14" cx="292.0393" cy="100.8126" r=".997"/>
               <path class="cls-23"
                     d="m307.167,99.8133c.551,0,.997.448.997,1s-.446,1-.997,1-.997-.448-.997-1,.446-1,.997-1"/>
               <circle class="cls-14" cx="307.167" cy="100.8133" r=".997"/>
               <rect class="cls-24"
                     x="292.0389"
                     y="63.8058"
                     width="15.128"
                     height="15.171"/>
               <rect class="cls-14"
                     x="292.0389"
                     y="63.8058"
                     width="15.128"
                     height="15.171"/>
               <line class="cls-14"
                     x1="297.0066"
                     y1="82.6563"
                     x2="297.0066"
                     y2="75.2963"/>
               <line class="cls-14"
                     x1="299.9487"
                     y1="82.6563"
                     x2="299.9387"
                     y2="80.3143"/>
               <path class="cls-20"
                     d="m303.2035,76.5123v4.928l-4.908-2.464,4.908-2.464Zm.75-1.216l-7.33,3.68,7.33,3.68v-7.36Z"/>
               <line class="cls-14"
                     x1="302.6651"
                     y1="60.179"
                     x2="302.6651"
                     y2="67.539"/>
               <line class="cls-14"
                     x1="299.3763"
                     y1="60.1277"
                     x2="299.3763"
                     y2="62.1407"/>
               <path class="cls-20"
                     d="m296.4613,61.3401l4.908,2.464-4.908,2.464v-4.928Zm-.75-1.216v7.36l7.33-3.68-7.33-3.68Z"/>
               <path class="cls-23"
                     d="m292.0393,70.3902c.551,0,.997.448.997,1s-.446,1-.997,1-.997-.448-.997-1,.446-1,.997-1"/>
               <circle class="cls-14" cx="292.0393" cy="71.3902" r=".997"/>
               <path class="cls-23"
                     d="m307.167,70.3909c.551,0,.997.448.997,1s-.446,1-.997,1-.997-.448-.997-1,.446-1,.997-1"/>
               <circle class="cls-14" cx="307.167" cy="71.3909" r=".997"/>
               <line class="cls-9"
                     x1="322.0475"
                     y1="100.8126"
                     x2="314.0475"
                     y2="100.8126"/>
               <path class="cls-23"
                     d="m314.0475,99.8133c.551,0,.997.448.997,1s-.446,1-.997,1-.997-.448-.997-1,.446-1,.997-1"/>
               <circle class="cls-14" cx="314.0475" cy="100.8133" r=".997"/>
            </g>
         </g>
      </g>
      <g id="Artwork_20_no_white" data-name="Artwork 20 no white">
         <g class="cls-33">
            <g class="cls-41">
               <line class="cls-13"
                     x1="71.5917"
                     y1="47.5422"
                     x2="86.2217"
                     y2="40.7762"/>
               <path class="cls-22"
                     d="m86.2216,41.7805h0c-.55,0-1-.45-1-1,0-.551.45-1,1-1s1,.449,1,1c0,.55-.45,1-1,1"/>
               <path class="cls-22"
                     d="m71.5917,41.7805h0c-.55,0-1-.45-1-1,0-.551.45-1,1-1s1,.449,1,1c0,.55-.45,1-1,1"/>
            </g>
         </g>
      </g>
      <g id="Artwork_20_no_white-2" data-name="Artwork 20 no white">
         <g class="cls-66">
            <g class="cls-57">
               <line class="cls-13"
                     x1="71.5917"
                     y1="107.4736"
                     x2="86.2217"
                     y2="100.7076"/>
               <path class="cls-22"
                     d="m86.2216,101.7119h0c-.55,0-1-.45-1-1,0-.551.45-1,1-1s1,.449,1,1c0,.55-.45,1-1,1"/>
               <path class="cls-22"
                     d="m71.5917,101.7119h0c-.55,0-1-.45-1-1,0-.551.45-1,1-1s1,.449,1,1c0,.55-.45,1-1,1"/>
            </g>
         </g>
      </g>
      <g id="Artwork_20_no_white-3" data-name="Artwork 20 no white">
         <g class="cls-45">
            <g class="cls-53">
               <line class="cls-13"
                     x1="191.5982"
                     y1="107.4736"
                     x2="206.2282"
                     y2="100.7076"/>
               <path class="cls-22"
                     d="m206.2281,101.7119h0c-.55,0-1-.45-1-1,0-.551.45-1,1-1s1,.449,1,1c0,.55-.45,1-1,1"/>
               <path class="cls-22"
                     d="m191.5982,101.7119h0c-.55,0-1-.45-1-1,0-.551.45-1,1-1s1,.449,1,1c0,.55-.45,1-1,1"/>
            </g>
         </g>
      </g>
      <g id="Artwork_20_no_white-4" data-name="Artwork 20 no white">
         <g class="cls-18">
            <g class="cls-5">
               <line class="cls-13"
                     x1="334.2584"
                     y1="149.4201"
                     x2="348.8884"
                     y2="142.6541"/>
               <path class="cls-22"
                     d="m348.8883,143.6584h0c-.55,0-1-.45-1-1,0-.551.45-1,1-1s1,.449,1,1c0,.55-.45,1-1,1"/>
               <path class="cls-22"
                     d="m334.2584,143.6584h0c-.55,0-1-.45-1-1,0-.551.45-1,1-1s1,.449,1,1c0,.55-.45,1-1,1"/>
            </g>
         </g>
      </g>
      <g id="Artwork_20_no_white-5" data-name="Artwork 20 no white">
         <g class="cls-36">
            <g class="cls-68">
               <line class="cls-13"
                     x1="334.2584"
                     y1="47.4736"
                     x2="348.8884"
                     y2="40.7076"/>
               <path class="cls-22"
                     d="m348.8883,41.7119h0c-.55,0-1-.45-1-1,0-.551.45-1,1-1s1,.449,1,1c0,.55-.45,1-1,1"/>
               <path class="cls-22"
                     d="m334.2584,41.7119h0c-.55,0-1-.45-1-1,0-.551.45-1,1-1s1,.449,1,1c0,.55-.45,1-1,1"/>
            </g>
         </g>
      </g>
      <g id="Artwork_20_no_white-6" data-name="Artwork 20 no white">
         <g class="cls-40">
            <g class="cls-27">
               <line class="cls-13"
                     x1="378.4226"
                     y1="107.4736"
                     x2="393.0526"
                     y2="100.7076"/>
               <path class="cls-22"
                     d="m393.0525,101.7119h0c-.55,0-1-.45-1-1,0-.551.45-1,1-1s1,.449,1,1c0,.55-.45,1-1,1"/>
               <path class="cls-22"
                     d="m378.4226,101.7119h0c-.55,0-1-.45-1-1,0-.551.45-1,1-1s1,.449,1,1c0,.55-.45,1-1,1"/>
            </g>
         </g>
      </g>
      <g id="Artwork_13-2" data-name="Artwork 13">
         <g class="cls-39">
            <g class="cls-51">
               <path class="cls-25"
                     d="m45.7428,98.7032c1.104,0,2,.896,2,2s-.896,2-2,2-2-.896-2-2,.896-2,2-2"/>
               <circle class="cls-13" cx="45.7428" cy="100.7032" r="2"/>
            </g>
         </g>
      </g>
      <g id="Artwork_13-3" data-name="Artwork 13">
         <g class="cls-32">
            <g class="cls-17">
               <path class="cls-25"
                     d="m45.7424,38.7032c1.104,0,2,.896,2,2s-.896,2-2,2-2-.896-2-2,.896-2,2-2"/>
               <circle class="cls-13" cx="45.7424" cy="40.7032" r="2"/>
            </g>
         </g>
      </g>
      <g id="Artwork_13-4" data-name="Artwork 13">
         <g class="cls-62">
            <g class="cls-55">
               <path class="cls-25"
                     d="m414.0518,168.0276c1.104,0,2,.896,2,2s-.896,2-2,2-2-.896-2-2,.896-2,2-2"/>
               <circle class="cls-13" cx="414.0518" cy="170.0276" r="2"/>
            </g>
         </g>
      </g>
      <g id="Artwork_20" data-name="Artwork 20">
         <g class="cls-42">
            <rect class="cls-24"
                  x="378.4399"
                  y="167.5263"
                  width="14.612"
                  height="5.032"/>
            <g class="cls-1">
               <line class="cls-13"
                     x1="378.422"
                     y1="176.8045"
                     x2="393.052"
                     y2="170.0385"/>
               <path class="cls-22"
                     d="m393.0519,171.0428h0c-.55,0-1-.45-1-1,0-.551.45-1,1-1s1,.449,1,1c0,.55-.45,1-1,1"/>
               <path class="cls-22"
                     d="m378.422,171.0428h0c-.55,0-1-.45-1-1,0-.551.45-1,1-1s1,.449,1,1c0,.55-.45,1-1,1"/>
            </g>
         </g>
      </g>
   </g>
   <g id="Text">
      <text class="cls-67" transform="translate(384.8689 94.0577)">
         <tspan x="0" y="0">AC OUTPUT</tspan>
      </text>
      <text class="cls-67" transform="translate(384.8677 163.3819)">
         <tspan x="0" y="0">DC OUTPUT</tspan>
      </text>
      <text class="cls-67" transform="translate(98.8751 78.6936)">
         <tspan x="0" y="0">RECTIFIER</tspan>
      </text>
      <text class="cls-67" transform="translate(210.3901 78.6936)">
         <tspan x="0" y="0">INVERTER</tspan>
      </text>
      <text class="cls-67" transform="translate(19.3544 78.6937)">
         <tspan x="0" y="0">RECTIFIER</tspan>
         <tspan x="10.2783" y="12">MAINS</tspan>
      </text>
      <text class="cls-67" transform="translate(25.1827 18.6938)">
         <tspan x="0" y="0">BYPASS</tspan>
         <tspan x="4.4507" y="12">MAINS</tspan>
      </text>
      <polyline class="cls-10"
                points="160.9908 100.7611 160.9908 142.6422 86.2103 142.6422"/>
      <line class="cls-10"
            x1="70.6981"
            y1="142.6428"
            x2="53.5675"
            y2="142.6428"/>
      <g id="Artwork_8" data-name="Artwork 8">
         <g class="cls-28">
            <g class="cls-6">
               <line class="cls-15"
                     x1="40.5573"
                     y1="149.9648"
                     x2="40.5573"
                     y2="135.2114"/>
               <line class="cls-7"
                     x1="38.5393"
                     y1="146.8305"
                     x2="38.5393"
                     y2="138.3459"/>
            </g>
            <line class="cls-12"
                  x1="40.3235"
                  y1="142.58"
                  x2="51.3044"
                  y2="142.58"/>
            <g class="cls-50">
               <line class="cls-15"
                     x1="53.3225"
                     y1="149.9569"
                     x2="53.3225"
                     y2="135.2035"/>
            </g>
            <line class="cls-7"
                  x1="51.3043"
                  y1="146.8222"
                  x2="51.3043"
                  y2="138.3376"/>
         </g>
      </g>
      <g id="Artwork_20_no_white-7" data-name="Artwork 20 no white">
         <g class="cls-65">
            <g class="cls-49">
               <line class="cls-13"
                     x1="71.5911"
                     y1="149.4201"
                     x2="86.2211"
                     y2="142.6541"/>
               <path class="cls-22"
                     d="m86.221,143.6584h0c-.55,0-1-.45-1-1,0-.551.45-1,1-1s1,.449,1,1c0,.55-.45,1-1,1"/>
               <path class="cls-22"
                     d="m71.5911,143.6584h0c-.55,0-1-.45-1-1,0-.551.45-1,1-1s1,.449,1,1c0,.55-.45,1-1,1"/>
            </g>
         </g>
      </g>
      <text class="cls-67" transform="translate(22.1251 130.5797)">
         <tspan x="0" y="0">BATTERY</tspan>
      </text>
      <text class="cls-67" transform="translate(327.9495 18.6938)">
         <tspan x="0" y="0">MANUAL</tspan>
      </text>
      <text class="cls-67" transform="translate(329.0505 30.6938)">
         <tspan x="0" y="0">BYPASS</tspan>
      </text>
      <text class="cls-67" transform="translate(271.2116 18.6938)">
         <tspan x="0" y="0">STATIC</tspan>
      </text>
      <text class="cls-67" transform="translate(269.5465 30.6936)">
         <tspan x="0" y="0">SWITCH</tspan>
      </text>
   </g>
</svg>
