<?xml version="1.0" encoding="UTF-8"?>
<svg xmlns="http://www.w3.org/2000/svg"
     xmlns:xlink="http://www.w3.org/1999/xlink"
     width="115mm"
     height="55mm"
     viewBox="0 0 325.9843 155.9055">
   <defs>
      <style>
      .cls-1 {
        clip-path: url(#clippath-20);
      }

      .cls-2 {
        clip-path: url(#clippath-11);
      }

      .cls-3 {
        clip-path: url(#clippath-16);
      }

      .cls-4, .cls-5 {
        stroke: #c6c6c6;
        stroke-width: 5px;
      }

      .cls-4, .cls-5, .cls-6, .cls-7, .cls-8, .cls-9, .cls-10, .cls-11 {
        fill: none;
      }

      .cls-4, .cls-7 {
        stroke-miterlimit: 10;
      }

      .cls-5, .cls-6, .cls-9, .cls-10, .cls-11 {
        stroke-miterlimit: 3;
      }

      .cls-6 {
        stroke-width: .645px;
      }

      .cls-6, .cls-9, .cls-11 {
        stroke: #000;
      }

      .cls-12 {
        clip-path: url(#clippath-2);
      }

      .cls-13, .cls-14, .cls-15, .cls-8, .cls-16, .cls-17, .cls-18, .cls-19 {
        stroke-width: 0px;
      }

      .cls-13, .cls-16 {
        fill: #010101;
      }

      .cls-14, .cls-16, .cls-18 {
        fill-rule: evenodd;
      }

      .cls-20 {
        clip-path: url(#clippath-13);
      }

      .cls-21 {
        clip-path: url(#clippath-25);
      }

      .cls-22 {
        clip-path: url(#clippath-15);
      }

      .cls-23 {
        clip-path: url(#clippath-6);
      }

      .cls-7, .cls-9, .cls-10 {
        stroke-width: .75px;
      }

      .cls-7, .cls-10 {
        stroke: #010101;
      }

      .cls-24 {
        clip-path: url(#clippath-7);
      }

      .cls-25 {
        clip-path: url(#clippath-21);
      }

      .cls-26 {
        clip-path: url(#clippath-1);
      }

      .cls-27 {
        clip-path: url(#clippath-4);
      }

      .cls-28 {
        clip-path: url(#clippath-12);
      }

      .cls-17, .cls-18 {
        fill: #fff;
      }

      .cls-29 {
        clip-path: url(#clippath-24);
      }

      .cls-30 {
        clip-path: url(#clippath-22);
      }

      .cls-31 {
        clip-path: url(#clippath-9);
      }

      .cls-32 {
        clip-path: url(#clippath);
      }

      .cls-33 {
        clip-path: url(#clippath-19);
      }

      .cls-34 {
        clip-path: url(#clippath-3);
      }

      .cls-19 {
        fill: #c6c6c6;
      }

      .cls-35 {
        clip-path: url(#clippath-8);
      }

      .cls-36 {
        clip-path: url(#clippath-18);
      }

      .cls-37 {
        clip-path: url(#clippath-14);
      }

      .cls-38 {
        clip-path: url(#clippath-17);
      }

      .cls-39 {
        clip-path: url(#clippath-5);
      }

      .cls-40 {
        clip-path: url(#clippath-10);
      }

      .cls-41 {
        clip-path: url(#clippath-23);
      }

      .cls-11 {
        stroke-width: .5px;
      }

      .cls-42 {
        fill: #01889C;
        font-family: Arial-BoldMT, Arial;
        font-size: 10px;
        font-weight: 700;
      }
    </style>
      <clipPath id="clippath">
         <rect class="cls-8"
               x="133.6621"
               y="98.4739"
               width="4.5709"
               height="4.5819"/>
      </clipPath>
      <clipPath id="clippath-1">
         <rect class="cls-8"
               x="133.6621"
               y="98.4738"
               width="4.571"
               height="4.582"/>
      </clipPath>
      <clipPath id="clippath-2">
         <rect class="cls-8"
               x="221.7507"
               y="98.4739"
               width="4.5709"
               height="4.5819"/>
      </clipPath>
      <clipPath id="clippath-3">
         <rect class="cls-8"
               x="221.7507"
               y="98.4738"
               width="4.571"
               height="4.582"/>
      </clipPath>
      <clipPath id="clippath-4">
         <rect class="cls-8"
               x="133.6621"
               y="38.4739"
               width="4.5709"
               height="4.5819"/>
      </clipPath>
      <clipPath id="clippath-5">
         <rect class="cls-8"
               x="133.6621"
               y="38.4738"
               width="4.571"
               height="4.582"/>
      </clipPath>
      <clipPath id="clippath-6">
         <rect class="cls-8"
               x="277.6036"
               y="97.6403"
               width="6.125"
               height="6.125"/>
      </clipPath>
      <clipPath id="clippath-7">
         <rect class="cls-8"
               x="277.6036"
               y="97.6403"
               width="6.125"
               height="6.125"/>
      </clipPath>
      <clipPath id="clippath-8">
         <rect class="cls-8"
               x="37.5424"
               y="37.6403"
               width="6.125"
               height="6.125"/>
      </clipPath>
      <clipPath id="clippath-9">
         <rect class="cls-8"
               x="37.5424"
               y="37.6403"
               width="6.125"
               height="6.125"/>
      </clipPath>
      <clipPath id="clippath-10">
         <rect class="cls-8"
               x="83.1636"
               y="80.9411"
               width="38.2419"
               height="40.5368"/>
      </clipPath>
      <clipPath id="clippath-11">
         <rect class="cls-8"
               x="89.1626"
               y="85.3669"
               width="32.242"
               height="36.111"/>
      </clipPath>
      <clipPath id="clippath-12">
         <rect class="cls-8"
               x="86.1636"
               y="83.1859"
               width="32.242"
               height="36.112"/>
      </clipPath>
      <clipPath id="clippath-13">
         <rect class="cls-8"
               x="83.1636"
               y="80.9409"
               width="32.242"
               height="36.112"/>
      </clipPath>
      <clipPath id="clippath-14">
         <rect class="cls-8"
               x="83.1636"
               y="80.9409"
               width="32.242"
               height="36.112"/>
      </clipPath>
      <clipPath id="clippath-15">
         <rect class="cls-8"
               x="65.2284"
               y="32.6307"
               width="16.63"
               height="16.2683"/>
      </clipPath>
      <clipPath id="clippath-16">
         <rect class="cls-8"
               x="65.2284"
               y="32.631"
               width="16.63"
               height="16.268"/>
      </clipPath>
      <clipPath id="clippath-17">
         <rect class="cls-8"
               x="199.8719"
               y="32.6307"
               width="16.63"
               height="16.2683"/>
      </clipPath>
      <clipPath id="clippath-18">
         <rect class="cls-8"
               x="199.8719"
               y="32.631"
               width="16.63"
               height="16.268"/>
      </clipPath>
      <clipPath id="clippath-19">
         <rect class="cls-8"
               x="199.8719"
               y="134.5081"
               width="16.63"
               height="16.2683"/>
      </clipPath>
      <clipPath id="clippath-20">
         <rect class="cls-8"
               x="199.8719"
               y="134.5084"
               width="16.63"
               height="16.268"/>
      </clipPath>
      <clipPath id="clippath-21">
         <rect class="cls-8"
               x="244.0361"
               y="92.6307"
               width="16.63"
               height="16.2683"/>
      </clipPath>
      <clipPath id="clippath-22">
         <rect class="cls-8"
               x="244.0361"
               y="92.631"
               width="16.63"
               height="16.268"/>
      </clipPath>
      <clipPath id="clippath-23">
         <rect class="cls-8"
               x="150.9475"
               y="56.304"
               width="38.0886"
               height="59.5948"/>
      </clipPath>
      <clipPath id="clippath-24">
         <rect class="cls-8"
               x="150.9475"
               y="56.3038"
               width="38.089"
               height="59.595"/>
      </clipPath>
      <clipPath id="clippath-25">
         <rect class="cls-8"
               x="150.9475"
               y="56.3038"
               width="38.089"
               height="59.595"/>
      </clipPath>
   </defs>
   <g id="Layer_4" data-name="Layer 4">
      <g>
         <polygon class="cls-19"
                  points="139.4997 42.9806 136.1322 42.9798 139.7552 38.4441 143.1228 38.445 139.4997 42.9806"/>
         <polygon class="cls-19"
                  points="146.6744 42.9824 143.3069 42.9816 146.9299 38.4459 150.2975 38.4467 146.6744 42.9824"/>
         <polygon class="cls-19"
                  points="153.8491 42.9842 150.4815 42.9834 154.1046 38.4477 157.4723 38.4485 153.8491 42.9842"/>
         <polygon class="cls-19"
                  points="161.0238 42.986 157.6562 42.9852 161.2794 38.4495 164.647 38.4503 161.0238 42.986"/>
         <polygon class="cls-19"
                  points="168.1986 42.9878 164.831 42.987 168.4541 38.4512 171.8216 38.4521 168.1986 42.9878"/>
         <polygon class="cls-19"
                  points="175.3733 42.9895 172.0057 42.9887 175.6288 38.453 178.9963 38.4539 175.3733 42.9895"/>
         <polygon class="cls-19"
                  points="182.548 42.9913 179.1804 42.9905 182.8034 38.4548 186.171 38.4557 182.548 42.9913"/>
         <polygon class="cls-19"
                  points="189.7226 42.9931 186.3551 42.9923 189.9783 38.4566 193.3458 38.4574 189.7226 42.9931"/>
         <polygon class="cls-19"
                  points="196.8974 42.9949 193.5299 42.9941 197.1529 38.4584 200.5205 38.4592 196.8974 42.9949"/>
      </g>
      <g>
         <line class="cls-5"
               x1="189.0361"
               y1="100.7648"
               x2="286.4898"
               y2="100.7648"/>
         <polygon class="cls-19"
                  points="285.0309 105.7512 293.6661 100.7648 285.0309 95.7785 285.0309 105.7512"/>
      </g>
      <polyline class="cls-4"
                points="152.6901 71.4959 135.9475 71.4959 135.9475 40.7115 40.6049 40.7649"/>
      <g>
         <polygon class="cls-19"
                  points="45.99 103.017 42.6224 103.014 46.2484 98.4806 49.6159 98.4837 45.99 103.017"/>
         <polygon class="cls-19"
                  points="54.0978 103.0243 50.7302 103.0213 54.3563 98.4879 57.7239 98.4909 54.0978 103.0243"/>
         <polygon class="cls-19"
                  points="62.2057 103.0315 58.8381 103.0285 62.4641 98.4952 65.8316 98.4982 62.2057 103.0315"/>
         <polygon class="cls-19"
                  points="70.3135 103.0388 66.9459 103.0358 70.5719 98.5025 73.9396 98.5055 70.3135 103.0388"/>
         <polygon class="cls-19"
                  points="78.4214 103.0461 75.0537 103.043 78.6798 98.5097 82.0473 98.5127 78.4214 103.0461"/>
      </g>
      <g>
         <polygon class="cls-19"
                  points="218.5962 144.8976 215.2286 144.9124 218.8307 140.36 222.1982 140.3452 218.5962 144.8976"/>
         <polygon class="cls-19"
                  points="226.3044 136.5827 226.3044 139.9503 221.7678 136.3283 221.7678 132.9607 226.3044 136.5827"/>
         <polygon class="cls-19"
                  points="226.3044 129.1963 226.3044 132.5639 221.7678 128.942 221.7678 125.5744 226.3044 129.1963"/>
         <polygon class="cls-19"
                  points="226.3044 121.81 226.3044 125.1776 221.7678 121.5556 221.7678 118.1881 226.3044 121.81"/>
         <polygon class="cls-19"
                  points="226.3044 114.4237 226.3044 117.7912 221.7678 114.1693 221.7678 110.8017 226.3044 114.4237"/>
         <polygon class="cls-19"
                  points="226.3044 107.0373 226.3044 110.4049 221.7678 106.7829 221.7678 103.4154 226.3044 107.0373"/>
      </g>
      <g>
         <polygon class="cls-19"
                  points="226.3044 95.913 226.3044 99.2806 221.7678 95.6586 221.7678 92.291 226.3044 95.913"/>
         <polygon class="cls-19"
                  points="226.3044 88.8808 226.3044 92.2484 221.7678 88.6264 221.7678 85.2588 226.3044 88.8808"/>
         <polygon class="cls-19"
                  points="226.3044 81.8486 226.3044 85.2162 221.7678 81.5942 221.7678 78.2267 226.3044 81.8486"/>
         <polygon class="cls-19"
                  points="226.3044 74.8164 226.3044 78.184 221.7678 74.5621 221.7678 71.1945 226.3044 74.8164"/>
         <polygon class="cls-19"
                  points="226.3044 67.7843 226.3044 71.1518 221.7678 67.5299 221.7678 64.1623 226.3044 67.7843"/>
         <polygon class="cls-19"
                  points="226.3044 60.7521 226.3044 64.1196 221.7678 60.4977 221.7678 57.1301 226.3044 60.7521"/>
         <polygon class="cls-19"
                  points="226.3044 53.7199 226.3044 57.0874 221.7678 53.4655 221.7678 50.0979 226.3044 53.7199"/>
         <polygon class="cls-19"
                  points="226.3044 46.6877 226.3044 50.0553 221.7678 46.4333 221.7678 43.0658 226.3044 46.6877"/>
         <polygon class="cls-19"
                  points="218.8508 38.4735 222.2184 38.4884 218.5763 43.0089 215.2087 42.9939 218.8508 38.4735"/>
      </g>
   </g>
   <g id="Paths">
      <path class="cls-9" d="m244.5933,100.7649H40.6049"/>
      <path class="cls-9" d="m280.6475,100.7649h-20.45"/>
      <path class="cls-9" d="m200.6142,40.7649h-119.3102"/>
      <path class="cls-9" d="m65.9598,40.7649h-24.4537"/>
      <polyline class="cls-9"
                points="224.0361 100.7028 224.0361 40.7649 216.2253 40.7649"/>
      <polyline class="cls-9"
                points="216.0864 142.6422 224.0361 142.6422 224.0361 100.7649"/>
      <polyline class="cls-9"
                points="135.9475 100.7028 135.9475 142.6422 200.4197 142.6422"/>
      <polyline class="cls-9"
                points="135.9475 40.7649 135.9475 71.5332 150.9475 71.5332"/>
      <g id="Connect">
         <g class="cls-32">
            <g class="cls-26">
               <path class="cls-14"
                     d="m135.9472,99.7615c.553,0,1,.449,1,1.003,0,.555-.447,1.003-1,1.003-.552,0-1-.448-1-1.003,0-.554.448-1.003,1-1.003"/>
               <circle class="cls-11" cx="135.9472" cy="100.7645" r="1"/>
            </g>
         </g>
      </g>
      <g id="Connect-2" data-name="Connect">
         <g class="cls-12">
            <g class="cls-34">
               <path class="cls-14"
                     d="m224.0358,99.7615c.553,0,1,.449,1,1.003,0,.555-.447,1.003-1,1.003-.552,0-1-.448-1-1.003,0-.554.448-1.003,1-1.003"/>
               <circle class="cls-11" cx="224.0358" cy="100.7645" r="1"/>
            </g>
         </g>
      </g>
      <g id="Connect-3" data-name="Connect">
         <g class="cls-27">
            <g class="cls-39">
               <path class="cls-14"
                     d="m135.9472,39.7615c.553,0,1,.449,1,1.003,0,.555-.447,1.003-1,1.003-.552,0-1-.448-1-1.003,0-.554.448-1.003,1-1.003"/>
               <circle class="cls-11" cx="135.9472" cy="40.7645" r="1"/>
            </g>
         </g>
      </g>
   </g>
   <g id="Parts">
      <g id="Artwork_13" data-name="Artwork 13">
         <g class="cls-23">
            <g class="cls-24">
               <path class="cls-18"
                     d="m280.666,98.7032c1.104,0,2,.896,2,2s-.896,2-2,2-2-.896-2-2,.896-2,2-2"/>
               <circle class="cls-9" cx="280.666" cy="100.7032" r="2"/>
            </g>
         </g>
      </g>
      <g id="Artwork_13-2" data-name="Artwork 13">
         <g class="cls-35">
            <g class="cls-31">
               <path class="cls-18"
                     d="m40.6048,38.7032c1.104,0,2,.896,2,2s-.896,2-2,2-2-.896-2-2,.896-2,2-2"/>
               <circle class="cls-9" cx="40.6048" cy="40.7032" r="2"/>
            </g>
         </g>
      </g>
      <g id="Modular_Inverter" data-name="Modular Inverter">
         <g class="cls-40">
            <rect class="cls-17"
                  x="89.8076"
                  y="87.9459"
                  width="30.952"
                  height="30.952"/>
            <rect class="cls-6"
                  x="89.8074"
                  y="87.9456"
                  width="30.952"
                  height="30.952"/>
            <line class="cls-6"
                  x1="89.8099"
                  y1="118.8998"
                  x2="120.7609"
                  y2="87.9478"/>
            <line class="cls-6"
                  x1="93.1928"
                  y1="94.7188"
                  x2="101.8938"
                  y2="94.7188"/>
            <line class="cls-6"
                  x1="99.8452"
                  y1="92.7843"
                  x2="101.8932"
                  y2="92.7843"/>
            <line class="cls-6"
                  x1="96.519"
                  y1="92.7843"
                  x2="98.567"
                  y2="92.7843"/>
            <line class="cls-6"
                  x1="93.1928"
                  y1="92.7843"
                  x2="95.2408"
                  y2="92.7843"/>
            <g class="cls-2">
               <path class="cls-6"
                     d="m117.3457,113.5308c-.121,1.086-.988,1.825-1.935,1.825s-1.702-.482-1.934-1.825c-.232-1.343-1.121-1.824-1.935-1.824-.813,0-1.835.755-1.934,1.824"/>
            </g>
            <rect class="cls-17"
                  x="86.8076"
                  y="85.7649"
                  width="30.952"
                  height="30.952"/>
            <rect class="cls-6"
                  x="86.8074"
                  y="85.7654"
                  width="30.952"
                  height="30.952"/>
            <line class="cls-6"
                  x1="86.8099"
                  y1="116.7196"
                  x2="117.7609"
                  y2="85.7676"/>
            <line class="cls-6"
                  x1="90.1928"
                  y1="92.5387"
                  x2="98.8938"
                  y2="92.5387"/>
            <line class="cls-6"
                  x1="96.8452"
                  y1="90.6042"
                  x2="98.8932"
                  y2="90.6042"/>
            <line class="cls-6"
                  x1="93.519"
                  y1="90.6042"
                  x2="95.567"
                  y2="90.6042"/>
            <line class="cls-6"
                  x1="90.1928"
                  y1="90.6042"
                  x2="92.2408"
                  y2="90.6042"/>
            <g class="cls-28">
               <path class="cls-6"
                     d="m114.3457,111.3506c-.121,1.086-.988,1.825-1.935,1.825s-1.702-.482-1.934-1.825c-.232-1.343-1.121-1.824-1.935-1.824-.813,0-1.835.755-1.934,1.824"/>
            </g>
            <rect class="cls-17"
                  x="83.8066"
                  y="83.5189"
                  width="30.953"
                  height="30.953"/>
            <g class="cls-20">
               <rect class="cls-6"
                     x="83.8074"
                     y="83.5198"
                     width="30.952"
                     height="30.952"/>
               <line class="cls-6"
                     x1="83.8099"
                     y1="114.474"
                     x2="114.7609"
                     y2="83.522"/>
            </g>
            <line class="cls-6"
                  x1="87.1928"
                  y1="90.2931"
                  x2="95.8938"
                  y2="90.2931"/>
            <line class="cls-6"
                  x1="93.8452"
                  y1="88.3585"
                  x2="95.8932"
                  y2="88.3585"/>
            <line class="cls-6"
                  x1="90.519"
                  y1="88.3585"
                  x2="92.567"
                  y2="88.3585"/>
            <line class="cls-6"
                  x1="87.1928"
                  y1="88.3585"
                  x2="89.2408"
                  y2="88.3585"/>
            <g class="cls-37">
               <path class="cls-6"
                     d="m111.3457,109.105c-.121,1.086-.988,1.825-1.935,1.825s-1.702-.482-1.934-1.825c-.232-1.343-1.121-1.824-1.935-1.824-.813,0-1.835.755-1.934,1.824"/>
            </g>
         </g>
      </g>
      <g id="Artwork_20_no_white" data-name="Artwork 20 no white">
         <g class="cls-22">
            <g class="cls-3">
               <line class="cls-9"
                     x1="66.2285"
                     y1="47.5422"
                     x2="80.8584"
                     y2="40.7762"/>
               <path class="cls-15"
                     d="m80.8584,41.7805h0c-.55,0-1-.45-1-1,0-.551.45-1,1-1s1,.449,1,1c0,.55-.45,1-1,1"/>
               <path class="cls-15"
                     d="m66.2285,41.7805h0c-.55,0-1-.45-1-1,0-.551.45-1,1-1s1,.449,1,1c0,.55-.45,1-1,1"/>
            </g>
         </g>
      </g>
      <g id="Artwork_20_no_white-2" data-name="Artwork 20 no white">
         <g class="cls-38">
            <g class="cls-36">
               <line class="cls-9"
                     x1="200.872"
                     y1="47.5422"
                     x2="215.502"
                     y2="40.7762"/>
               <path class="cls-15"
                     d="m215.5019,41.7805h0c-.55,0-1-.45-1-1,0-.551.45-1,1-1s1,.449,1,1c0,.55-.45,1-1,1"/>
               <path class="cls-15"
                     d="m200.872,41.7805h0c-.55,0-1-.45-1-1,0-.551.45-1,1-1s1,.449,1,1c0,.55-.45,1-1,1"/>
            </g>
         </g>
      </g>
      <g id="Artwork_20_no_white-3" data-name="Artwork 20 no white">
         <g class="cls-33">
            <g class="cls-1">
               <line class="cls-9"
                     x1="200.872"
                     y1="149.4196"
                     x2="215.502"
                     y2="142.6536"/>
               <path class="cls-15"
                     d="m215.5019,143.6579h0c-.55,0-1-.45-1-1,0-.551.45-1,1-1s1,.449,1,1c0,.55-.45,1-1,1"/>
               <path class="cls-15"
                     d="m200.872,143.6579h0c-.55,0-1-.45-1-1,0-.551.45-1,1-1s1,.449,1,1c0,.55-.45,1-1,1"/>
            </g>
         </g>
      </g>
      <g id="Artwork_20_no_white-4" data-name="Artwork 20 no white">
         <g class="cls-25">
            <g class="cls-30">
               <line class="cls-9"
                     x1="245.0362"
                     y1="107.5422"
                     x2="259.6662"
                     y2="100.7762"/>
               <path class="cls-15"
                     d="m259.6661,101.7805h0c-.55,0-1-.45-1-1,0-.551.45-1,1-1s1,.449,1,1c0,.55-.45,1-1,1"/>
               <path class="cls-15"
                     d="m245.0362,101.7805h0c-.55,0-1-.45-1-1,0-.551.45-1,1-1s1,.449,1,1c0,.55-.45,1-1,1"/>
            </g>
         </g>
      </g>
      <g id="Modular-SSW">
         <g class="cls-41">
            <rect class="cls-17"
                  x="151.3225"
                  y="56.6788"
                  width="37.338"
                  height="58.845"/>
            <g class="cls-29">
               <rect class="cls-10"
                     x="151.3225"
                     y="56.6788"
                     width="37.339"
                     height="58.845"/>
               <polyline class="cls-7"
                         points="151.3225 100.8133 180.6615 100.8133 180.6615 71.3913 151.3225 71.3913"/>
            </g>
            <rect class="cls-17"
                  x="158.6525"
                  y="93.2278"
                  width="15.128"
                  height="15.171"/>
            <rect class="cls-10"
                  x="158.6525"
                  y="93.2278"
                  width="15.128"
                  height="15.171"/>
            <line class="cls-10"
                  x1="163.6202"
                  y1="112.0787"
                  x2="163.6202"
                  y2="104.7187"/>
            <line class="cls-10"
                  x1="166.5623"
                  y1="112.0787"
                  x2="166.5523"
                  y2="109.7367"/>
            <path class="cls-13"
                  d="m169.8171,105.9347v4.928l-4.908-2.464,4.908-2.464Zm.75-1.216l-7.33,3.68,7.33,3.68v-7.36Z"/>
            <line class="cls-10"
                  x1="169.2787"
                  y1="89.6014"
                  x2="169.2787"
                  y2="96.9614"/>
            <line class="cls-10"
                  x1="165.9899"
                  y1="89.5501"
                  x2="165.9899"
                  y2="91.5631"/>
            <path class="cls-13"
                  d="m163.0749,90.7625l4.908,2.464-4.908,2.464v-4.928Zm-.75-1.216v7.36l7.33-3.68-7.33-3.68Z"/>
            <g class="cls-21">
               <path class="cls-16"
                     d="m158.6529,99.8126c.551,0,.997.448.997,1s-.446,1-.997,1-.997-.448-.997-1,.446-1,.997-1"/>
               <circle class="cls-10" cx="158.6529" cy="100.8126" r=".997"/>
               <path class="cls-16"
                     d="m173.7806,99.8133c.551,0,.997.448.997,1s-.446,1-.997,1-.997-.448-.997-1,.446-1,.997-1"/>
               <circle class="cls-10" cx="173.7806" cy="100.8133" r=".997"/>
               <rect class="cls-17"
                     x="158.6525"
                     y="63.8058"
                     width="15.128"
                     height="15.171"/>
               <rect class="cls-10"
                     x="158.6525"
                     y="63.8058"
                     width="15.128"
                     height="15.171"/>
               <line class="cls-10"
                     x1="163.6202"
                     y1="82.6563"
                     x2="163.6202"
                     y2="75.2963"/>
               <line class="cls-10"
                     x1="166.5623"
                     y1="82.6563"
                     x2="166.5523"
                     y2="80.3143"/>
               <path class="cls-13"
                     d="m169.8171,76.5123v4.928l-4.908-2.464,4.908-2.464Zm.75-1.216l-7.33,3.68,7.33,3.68v-7.36Z"/>
               <line class="cls-10"
                     x1="169.2787"
                     y1="60.179"
                     x2="169.2787"
                     y2="67.539"/>
               <line class="cls-10"
                     x1="165.9899"
                     y1="60.1277"
                     x2="165.9899"
                     y2="62.1407"/>
               <path class="cls-13"
                     d="m163.0749,61.3401l4.908,2.464-4.908,2.464v-4.928Zm-.75-1.216v7.36l7.33-3.68-7.33-3.68Z"/>
               <path class="cls-16"
                     d="m158.6529,70.3902c.551,0,.997.448.997,1s-.446,1-.997,1-.997-.448-.997-1,.446-1,.997-1"/>
               <circle class="cls-10" cx="158.6529" cy="71.3902" r=".997"/>
               <path class="cls-16"
                     d="m173.7806,70.3909c.551,0,.997.448.997,1s-.446,1-.997,1-.997-.448-.997-1,.446-1,.997-1"/>
               <circle class="cls-10" cx="173.7806" cy="71.3909" r=".997"/>
               <line class="cls-7"
                     x1="188.6611"
                     y1="100.8126"
                     x2="180.6611"
                     y2="100.8126"/>
               <path class="cls-16"
                     d="m180.6611,99.8133c.551,0,.997.448.997,1s-.446,1-.997,1-.997-.448-.997-1,.446-1,.997-1"/>
               <circle class="cls-10" cx="180.6611" cy="100.8133" r=".997"/>
            </g>
         </g>
      </g>
   </g>
   <g id="Text">
      <text class="cls-42" transform="translate(20.0431 18.6937)">
         <tspan x="0" y="0">BYPASS</tspan>
         <tspan x="4.4507" y="12">MAINS</tspan>
      </text>
      <text class="cls-42" transform="translate(77.0035 78.6934)">
         <tspan x="0" y="0">INVERTER</tspan>
      </text>
      <text class="cls-42" transform="translate(251.4824 94.0575)">
         <tspan x="0" y="0">AC OUTPUT</tspan>
      </text>
      <text class="cls-42" transform="translate(16.9938 94.0575)">
         <tspan x="0" y="0">DC INPUT</tspan>
      </text>
      <text class="cls-42" transform="translate(138.1916 18.6938)">
         <tspan x="0" y="0">STATIC</tspan>
      </text>
      <text class="cls-42" transform="translate(136.5265 30.6936)">
         <tspan x="0" y="0">SWITCH</tspan>
      </text>
      <text class="cls-42" transform="translate(194.5628 18.6938)">
         <tspan x="0" y="0">MANUAL</tspan>
      </text>
      <text class="cls-42" transform="translate(195.6639 30.6938)">
         <tspan x="0" y="0">BYPASS</tspan>
      </text>
   </g>
</svg>
