<?xml version="1.0" encoding="UTF-8"?>
<svg xmlns="http://www.w3.org/2000/svg"
     xmlns:xlink="http://www.w3.org/1999/xlink"
     width="145mm"
     height="55mm"
     viewBox="0 0 411.0236 155.9055">
   <defs>
      <style>
      .cls-1 {
        clip-path: url(#clippath-20);
      }

      .cls-2 {
        clip-path: url(#clippath-11);
      }

      .cls-3 {
        clip-path: url(#clippath-16);
      }

      .cls-4 {
        clip-path: url(#clippath-33);
      }

      .cls-5 {
        stroke-width: 1.2522px;
      }

      .cls-5, .cls-6, .cls-7, .cls-8, .cls-9, .cls-10, .cls-11, .cls-12, .cls-13, .cls-14 {
        fill: none;
      }

      .cls-5, .cls-6, .cls-8, .cls-10, .cls-11, .cls-13, .cls-14 {
        stroke: #000;
      }

      .cls-5, .cls-6, .cls-10, .cls-11, .cls-12, .cls-13, .cls-14 {
        stroke-miterlimit: 3;
      }

      .cls-15 {
        clip-path: url(#clippath-41);
      }

      .cls-16 {
        clip-path: url(#clippath-32);
      }

      .cls-6 {
        stroke-width: .645px;
      }

      .cls-17 {
        clip-path: url(#clippath-2);
      }

      .cls-18, .cls-19, .cls-20, .cls-9, .cls-21, .cls-22, .cls-23, .cls-24 {
        stroke-width: 0px;
      }

      .cls-18, .cls-21 {
        fill: #010101;
      }

      .cls-19, .cls-21, .cls-23 {
        fill-rule: evenodd;
      }

      .cls-25 {
        clip-path: url(#clippath-13);
      }

      .cls-26 {
        clip-path: url(#clippath-37);
      }

      .cls-27 {
        clip-path: url(#clippath-25);
      }

      .cls-28 {
        clip-path: url(#clippath-15);
      }

      .cls-29 {
        clip-path: url(#clippath-6);
      }

      .cls-30 {
        clip-path: url(#clippath-40);
      }

      .cls-31 {
        clip-path: url(#clippath-26);
      }

      .cls-7, .cls-8 {
        stroke-miterlimit: 10;
      }

      .cls-7, .cls-8, .cls-11, .cls-12 {
        stroke-width: .75px;
      }

      .cls-7, .cls-12 {
        stroke: #010101;
      }

      .cls-32 {
        clip-path: url(#clippath-7);
      }

      .cls-33 {
        clip-path: url(#clippath-21);
      }

      .cls-34 {
        clip-path: url(#clippath-34);
      }

      .cls-35 {
        clip-path: url(#clippath-1);
      }

      .cls-36 {
        clip-path: url(#clippath-4);
      }

      .cls-37 {
        clip-path: url(#clippath-38);
      }

      .cls-38 {
        clip-path: url(#clippath-36);
      }

      .cls-39 {
        clip-path: url(#clippath-27);
      }

      .cls-10 {
        stroke-dasharray: 0 0 2.0034 1.0017;
      }

      .cls-10, .cls-13 {
        stroke-width: .7513px;
      }

      .cls-40 {
        clip-path: url(#clippath-12);
      }

      .cls-22, .cls-23 {
        fill: #fff;
      }

      .cls-41 {
        clip-path: url(#clippath-24);
      }

      .cls-42 {
        clip-path: url(#clippath-30);
      }

      .cls-43 {
        clip-path: url(#clippath-22);
      }

      .cls-44 {
        clip-path: url(#clippath-9);
      }

      .cls-45 {
        clip-path: url(#clippath);
      }

      .cls-46 {
        clip-path: url(#clippath-39);
      }

      .cls-47 {
        clip-path: url(#clippath-19);
      }

      .cls-48 {
        clip-path: url(#clippath-31);
      }

      .cls-49 {
        clip-path: url(#clippath-3);
      }

      .cls-24 {
        fill: #c6c6c6;
      }

      .cls-50 {
        clip-path: url(#clippath-8);
      }

      .cls-51 {
        clip-path: url(#clippath-29);
      }

      .cls-52 {
        clip-path: url(#clippath-18);
      }

      .cls-53 {
        clip-path: url(#clippath-14);
      }

      .cls-54 {
        clip-path: url(#clippath-17);
      }

      .cls-55 {
        clip-path: url(#clippath-5);
      }

      .cls-56 {
        clip-path: url(#clippath-42);
      }

      .cls-57 {
        clip-path: url(#clippath-10);
      }

      .cls-58 {
        clip-path: url(#clippath-23);
      }

      .cls-59 {
        clip-path: url(#clippath-28);
      }

      .cls-14 {
        stroke-width: .5px;
      }

      .cls-60 {
        fill: #01889C;
        font-family: Arial-BoldMT, Arial;
        font-size: 10px;
        font-weight: 700;
      }

      .cls-61 {
        clip-path: url(#clippath-35);
      }
    </style>
      <clipPath id="clippath">
         <rect class="cls-9"
               x="158.7053"
               y="98.4739"
               width="4.5709"
               height="4.5819"/>
      </clipPath>
      <clipPath id="clippath-1">
         <rect class="cls-9"
               x="158.7053"
               y="98.4738"
               width="4.571"
               height="4.582"/>
      </clipPath>
      <clipPath id="clippath-2">
         <rect class="cls-9"
               x="227.0479"
               y="98.4739"
               width="4.5709"
               height="4.5819"/>
      </clipPath>
      <clipPath id="clippath-3">
         <rect class="cls-9"
               x="227.0479"
               y="98.4738"
               width="4.571"
               height="4.582"/>
      </clipPath>
      <clipPath id="clippath-4">
         <rect class="cls-9"
               x="315.1365"
               y="98.4739"
               width="4.5709"
               height="4.5819"/>
      </clipPath>
      <clipPath id="clippath-5">
         <rect class="cls-9"
               x="315.1365"
               y="98.4738"
               width="4.571"
               height="4.582"/>
      </clipPath>
      <clipPath id="clippath-6">
         <rect class="cls-9"
               x="227.0479"
               y="38.4739"
               width="4.5709"
               height="4.5819"/>
      </clipPath>
      <clipPath id="clippath-7">
         <rect class="cls-9"
               x="227.0479"
               y="38.4738"
               width="4.571"
               height="4.582"/>
      </clipPath>
      <clipPath id="clippath-8">
         <rect class="cls-9"
               x="370.9894"
               y="97.6403"
               width="6.125"
               height="6.125"/>
      </clipPath>
      <clipPath id="clippath-9">
         <rect class="cls-9"
               x="370.9894"
               y="97.6403"
               width="6.125"
               height="6.125"/>
      </clipPath>
      <clipPath id="clippath-10">
         <rect class="cls-9"
               x="37.9171"
               y="135.2034"
               width="15.6504"
               height="14.7535"/>
      </clipPath>
      <clipPath id="clippath-11">
         <rect class="cls-9"
               x="37.9171"
               y="135.2035"
               width="15.6509"
               height="14.7534"/>
      </clipPath>
      <clipPath id="clippath-12">
         <rect class="cls-9"
               x="37.9171"
               y="135.2035"
               width="15.6509"
               height="14.7534"/>
      </clipPath>
      <clipPath id="clippath-13">
         <rect class="cls-9"
               x="106.5494"
               y="80.8538"
               width="38.2419"
               height="39.685"/>
      </clipPath>
      <clipPath id="clippath-14">
         <rect class="cls-9"
               x="112.5494"
               y="84.4278"
               width="32.242"
               height="36.111"/>
      </clipPath>
      <clipPath id="clippath-15">
         <rect class="cls-9"
               x="112.5494"
               y="84.4278"
               width="32.242"
               height="36.111"/>
      </clipPath>
      <clipPath id="clippath-16">
         <rect class="cls-9"
               x="109.5494"
               y="82.6078"
               width="32.243"
               height="36.111"/>
      </clipPath>
      <clipPath id="clippath-17">
         <rect class="cls-9"
               x="106.5494"
               y="80.8538"
               width="32.242"
               height="36.111"/>
      </clipPath>
      <clipPath id="clippath-18">
         <rect class="cls-9"
               x="106.5494"
               y="80.8538"
               width="32.242"
               height="36.111"/>
      </clipPath>
      <clipPath id="clippath-19">
         <rect class="cls-9"
               x="176.5494"
               y="80.9411"
               width="38.2419"
               height="40.5368"/>
      </clipPath>
      <clipPath id="clippath-20">
         <rect class="cls-9"
               x="182.5484"
               y="85.3669"
               width="32.242"
               height="36.111"/>
      </clipPath>
      <clipPath id="clippath-21">
         <rect class="cls-9"
               x="179.5494"
               y="83.1859"
               width="32.242"
               height="36.112"/>
      </clipPath>
      <clipPath id="clippath-22">
         <rect class="cls-9"
               x="176.5494"
               y="80.9409"
               width="32.242"
               height="36.112"/>
      </clipPath>
      <clipPath id="clippath-23">
         <rect class="cls-9"
               x="176.5494"
               y="80.9409"
               width="32.242"
               height="36.112"/>
      </clipPath>
      <clipPath id="clippath-24">
         <rect class="cls-9"
               x="70.591"
               y="32.6307"
               width="16.63"
               height="16.2683"/>
      </clipPath>
      <clipPath id="clippath-25">
         <rect class="cls-9"
               x="70.591"
               y="32.631"
               width="16.63"
               height="16.268"/>
      </clipPath>
      <clipPath id="clippath-26">
         <rect class="cls-9"
               x="70.591"
               y="92.5621"
               width="16.63"
               height="16.2683"/>
      </clipPath>
      <clipPath id="clippath-27">
         <rect class="cls-9"
               x="70.591"
               y="92.5624"
               width="16.63"
               height="16.268"/>
      </clipPath>
      <clipPath id="clippath-28">
         <rect class="cls-9"
               x="70.591"
               y="134.5086"
               width="16.63"
               height="16.2683"/>
      </clipPath>
      <clipPath id="clippath-29">
         <rect class="cls-9"
               x="70.591"
               y="134.5089"
               width="16.63"
               height="16.268"/>
      </clipPath>
      <clipPath id="clippath-30">
         <rect class="cls-9"
               x="293.2577"
               y="134.5086"
               width="16.63"
               height="16.2683"/>
      </clipPath>
      <clipPath id="clippath-31">
         <rect class="cls-9"
               x="293.2577"
               y="134.5089"
               width="16.63"
               height="16.268"/>
      </clipPath>
      <clipPath id="clippath-32">
         <rect class="cls-9"
               x="337.4219"
               y="92.6307"
               width="16.63"
               height="16.2683"/>
      </clipPath>
      <clipPath id="clippath-33">
         <rect class="cls-9"
               x="337.4219"
               y="92.631"
               width="16.63"
               height="16.268"/>
      </clipPath>
      <clipPath id="clippath-34">
         <rect class="cls-9"
               x="293.2577"
               y="32.6307"
               width="16.63"
               height="16.2683"/>
      </clipPath>
      <clipPath id="clippath-35">
         <rect class="cls-9"
               x="293.2577"
               y="32.631"
               width="16.63"
               height="16.268"/>
      </clipPath>
      <clipPath id="clippath-36">
         <rect class="cls-9"
               x="244.3333"
               y="56.304"
               width="38.0886"
               height="59.5948"/>
      </clipPath>
      <clipPath id="clippath-37">
         <rect class="cls-9"
               x="244.3333"
               y="56.3038"
               width="38.089"
               height="59.595"/>
      </clipPath>
      <clipPath id="clippath-38">
         <rect class="cls-9"
               x="244.3333"
               y="56.3038"
               width="38.089"
               height="59.595"/>
      </clipPath>
      <clipPath id="clippath-39">
         <rect class="cls-9"
               x="42.6798"
               y="97.6403"
               width="6.125"
               height="6.125"/>
      </clipPath>
      <clipPath id="clippath-40">
         <rect class="cls-9"
               x="42.6798"
               y="97.6403"
               width="6.125"
               height="6.125"/>
      </clipPath>
      <clipPath id="clippath-41">
         <rect class="cls-9"
               x="42.6794"
               y="37.6403"
               width="6.125"
               height="6.125"/>
      </clipPath>
      <clipPath id="clippath-42">
         <rect class="cls-9"
               x="42.6794"
               y="37.6403"
               width="6.125"
               height="6.125"/>
      </clipPath>
   </defs>
   <g id="Layer_4" data-name="Layer 4">
      <g>
         <polygon class="cls-24"
                  points="46.6179 102.9646 43.2503 102.9646 46.8723 98.428 50.2398 98.428 46.6179 102.9646"/>
         <polygon class="cls-24"
                  points="53.6359 102.9646 50.2684 102.9646 53.8903 98.428 57.2579 98.428 53.6359 102.9646"/>
         <polygon class="cls-24"
                  points="60.654 102.9646 57.2864 102.9646 60.9083 98.428 64.2759 98.428 60.654 102.9646"/>
         <polygon class="cls-24"
                  points="67.672 102.9646 64.3044 102.9646 67.9264 98.428 71.2939 98.428 67.672 102.9646"/>
      </g>
      <g>
         <polygon class="cls-24"
                  points="44.8145 144.911 41.447 144.911 45.0689 140.3745 48.4365 140.3745 44.8145 144.911"/>
         <polygon class="cls-24"
                  points="52.2835 144.911 48.9158 144.911 52.5378 140.3745 55.9054 140.3745 52.2835 144.911"/>
         <polygon class="cls-24"
                  points="59.7523 144.911 56.3847 144.911 60.0067 140.3745 63.3743 140.3745 59.7523 144.911"/>
         <polygon class="cls-24"
                  points="67.2212 144.911 63.8536 144.911 67.4756 140.3745 70.8431 140.3745 67.2212 144.911"/>
      </g>
      <g>
         <polygon class="cls-24"
                  points="46.6846 42.9711 43.317 42.9711 46.9389 38.4345 50.3065 38.4345 46.6846 42.9711"/>
         <polygon class="cls-24"
                  points="53.6859 42.9711 50.3184 42.9711 53.9403 38.4345 57.3079 38.4345 53.6859 42.9711"/>
         <polygon class="cls-24"
                  points="60.6873 42.9711 57.3197 42.9711 60.9417 38.4345 64.3093 38.4345 60.6873 42.9711"/>
         <polygon class="cls-24"
                  points="67.6887 42.9711 64.3211 42.9711 67.9431 38.4345 71.3106 38.4345 67.6887 42.9711"/>
      </g>
   </g>
   <g id="Paths">
      <path class="cls-11" d="m337.9792,100.7649H86.6667"/>
      <path class="cls-11" d="m374.0333,100.7649h-20.45"/>
      <path class="cls-11" d="m71.3225,100.7649h-25.5866"/>
      <path class="cls-11" d="m294,40.7649H86.6667"/>
      <path class="cls-11" d="m71.3225,40.7649h-25.5866"/>
      <polyline class="cls-8"
                points="160.9908 100.7611 160.9908 142.6422 86.2103 142.6422"/>
      <line class="cls-8"
            x1="70.6981"
            y1="142.6428"
            x2="53.5675"
            y2="142.6428"/>
      <polyline class="cls-11"
                points="317.4219 100.7028 317.4219 40.7649 309.6111 40.7649"/>
      <polyline class="cls-11"
                points="309.4722 142.6422 317.4219 142.6422 317.4219 100.7649"/>
      <polyline class="cls-11"
                points="229.3333 100.7028 229.3333 142.6422 293.8056 142.6422"/>
      <polyline class="cls-11"
                points="229.3333 40.7649 229.3333 71.5332 244.3333 71.5332"/>
      <g id="Connect">
         <g class="cls-45">
            <g class="cls-35">
               <path class="cls-19"
                     d="m160.9904,99.7615c.553,0,1,.449,1,1.003,0,.555-.447,1.003-1,1.003-.552,0-1-.448-1-1.003,0-.554.448-1.003,1-1.003"/>
               <circle class="cls-14" cx="160.9904" cy="100.7645" r="1"/>
            </g>
         </g>
      </g>
      <g id="Connect-2" data-name="Connect">
         <g class="cls-17">
            <g class="cls-49">
               <path class="cls-19"
                     d="m229.333,99.7615c.553,0,1,.449,1,1.003,0,.555-.447,1.003-1,1.003-.552,0-1-.448-1-1.003,0-.554.448-1.003,1-1.003"/>
               <circle class="cls-14" cx="229.333" cy="100.7645" r="1"/>
            </g>
         </g>
      </g>
      <g id="Connect-3" data-name="Connect">
         <g class="cls-36">
            <g class="cls-55">
               <path class="cls-19"
                     d="m317.4216,99.7615c.553,0,1,.449,1,1.003,0,.555-.447,1.003-1,1.003-.552,0-1-.448-1-1.003,0-.554.448-1.003,1-1.003"/>
               <circle class="cls-14" cx="317.4216" cy="100.7645" r="1"/>
            </g>
         </g>
      </g>
      <g id="Connect-4" data-name="Connect">
         <g class="cls-29">
            <g class="cls-32">
               <path class="cls-19"
                     d="m229.333,39.7615c.553,0,1,.449,1,1.003,0,.555-.447,1.003-1,1.003-.552,0-1-.448-1-1.003,0-.554.448-1.003,1-1.003"/>
               <circle class="cls-14" cx="229.333" cy="40.7645" r="1"/>
            </g>
         </g>
      </g>
   </g>
   <g id="Parts">
      <g id="Artwork_13" data-name="Artwork 13">
         <g class="cls-50">
            <g class="cls-44">
               <path class="cls-23"
                     d="m374.0518,98.7032c1.104,0,2,.896,2,2s-.896,2-2,2-2-.896-2-2,.896-2,2-2"/>
               <circle class="cls-11" cx="374.0518" cy="100.7032" r="2"/>
            </g>
         </g>
      </g>
      <g id="Artwork_8" data-name="Artwork 8">
         <g class="cls-57">
            <g class="cls-2">
               <line class="cls-13"
                     x1="40.5535"
                     y1="149.9648"
                     x2="40.5535"
                     y2="135.2114"/>
               <line class="cls-5"
                     x1="38.5354"
                     y1="146.8305"
                     x2="38.5354"
                     y2="138.3459"/>
            </g>
            <line class="cls-10"
                  x1="40.3197"
                  y1="142.58"
                  x2="51.3006"
                  y2="142.58"/>
            <g class="cls-40">
               <line class="cls-13"
                     x1="53.3186"
                     y1="149.9569"
                     x2="53.3186"
                     y2="135.2035"/>
            </g>
            <line class="cls-5"
                  x1="51.3005"
                  y1="146.8222"
                  x2="51.3005"
                  y2="138.3376"/>
         </g>
      </g>
      <g id="Modular_Rectifier" data-name="Modular Rectifier">
         <g class="cls-25">
            <rect class="cls-22"
                  x="113.1954"
                  y="87.0078"
                  width="30.952"
                  height="30.952"/>
            <g class="cls-53">
               <rect class="cls-6"
                     x="113.1953"
                     y="87.0083"
                     width="30.952"
                     height="30.952"/>
               <line class="cls-6"
                     x1="144.1448"
                     y1="87.006"
                     x2="113.1938"
                     y2="117.958"/>
            </g>
            <line class="cls-6"
                  x1="140.7619"
                  y1="111.187"
                  x2="132.0609"
                  y2="111.187"/>
            <line class="cls-6"
                  x1="134.1095"
                  y1="113.1215"
                  x2="132.0615"
                  y2="113.1215"/>
            <line class="cls-6"
                  x1="137.4357"
                  y1="113.1215"
                  x2="135.3877"
                  y2="113.1215"/>
            <line class="cls-6"
                  x1="140.7619"
                  y1="113.1215"
                  x2="138.7139"
                  y2="113.1215"/>
            <g class="cls-28">
               <path class="cls-6"
                     d="m116.609,92.375c.121-1.086.988-1.825,1.935-1.825s1.702.482,1.934,1.825c.232,1.343,1.121,1.824,1.935,1.824.813,0,1.835-.755,1.934-1.824"/>
            </g>
            <rect class="cls-22"
                  x="110.1954"
                  y="85.1888"
                  width="30.952"
                  height="30.952"/>
            <rect class="cls-6"
                  x="110.1953"
                  y="85.1885"
                  width="30.952"
                  height="30.952"/>
            <line class="cls-6"
                  x1="141.1448"
                  y1="85.1862"
                  x2="110.1938"
                  y2="116.1382"/>
            <line class="cls-6"
                  x1="137.7619"
                  y1="109.3672"
                  x2="129.0609"
                  y2="109.3672"/>
            <line class="cls-6"
                  x1="131.1095"
                  y1="111.3017"
                  x2="129.0615"
                  y2="111.3017"/>
            <line class="cls-6"
                  x1="134.4357"
                  y1="111.3017"
                  x2="132.3877"
                  y2="111.3017"/>
            <line class="cls-6"
                  x1="137.7619"
                  y1="111.3017"
                  x2="135.7139"
                  y2="111.3017"/>
            <g class="cls-3">
               <path class="cls-6"
                     d="m113.609,90.5552c.121-1.086.988-1.825,1.935-1.825s1.702.482,1.934,1.825c.232,1.343,1.121,1.824,1.935,1.824.813,0,1.835-.755,1.934-1.824"/>
            </g>
            <rect class="cls-22"
                  x="107.1944"
                  y="83.4338"
                  width="30.953"
                  height="30.953"/>
            <g class="cls-54">
               <rect class="cls-6"
                     x="107.1953"
                     y="83.4341"
                     width="30.952"
                     height="30.952"/>
               <line class="cls-6"
                     x1="138.1448"
                     y1="83.4318"
                     x2="107.1938"
                     y2="114.3838"/>
            </g>
            <line class="cls-6"
                  x1="134.7619"
                  y1="107.6128"
                  x2="126.0609"
                  y2="107.6128"/>
            <line class="cls-6"
                  x1="128.1095"
                  y1="109.5473"
                  x2="126.0615"
                  y2="109.5473"/>
            <line class="cls-6"
                  x1="131.4357"
                  y1="109.5473"
                  x2="129.3877"
                  y2="109.5473"/>
            <line class="cls-6"
                  x1="134.7619"
                  y1="109.5473"
                  x2="132.7139"
                  y2="109.5473"/>
            <g class="cls-52">
               <path class="cls-6"
                     d="m110.609,88.8008c.121-1.086.988-1.825,1.935-1.825s1.702.482,1.934,1.825c.232,1.343,1.121,1.824,1.935,1.824.813,0,1.835-.755,1.934-1.824"/>
            </g>
         </g>
      </g>
      <g id="Modular_Inverter" data-name="Modular Inverter">
         <g class="cls-47">
            <rect class="cls-22"
                  x="183.1934"
                  y="87.9459"
                  width="30.952"
                  height="30.952"/>
            <rect class="cls-6"
                  x="183.1932"
                  y="87.9456"
                  width="30.952"
                  height="30.952"/>
            <line class="cls-6"
                  x1="183.1957"
                  y1="118.8998"
                  x2="214.1467"
                  y2="87.9478"/>
            <line class="cls-6"
                  x1="186.5786"
                  y1="94.7188"
                  x2="195.2796"
                  y2="94.7188"/>
            <line class="cls-6"
                  x1="193.231"
                  y1="92.7843"
                  x2="195.279"
                  y2="92.7843"/>
            <line class="cls-6"
                  x1="189.9048"
                  y1="92.7843"
                  x2="191.9528"
                  y2="92.7843"/>
            <line class="cls-6"
                  x1="186.5786"
                  y1="92.7843"
                  x2="188.6266"
                  y2="92.7843"/>
            <g class="cls-1">
               <path class="cls-6"
                     d="m210.7315,113.5308c-.121,1.086-.988,1.825-1.935,1.825s-1.702-.482-1.934-1.825c-.232-1.343-1.121-1.824-1.935-1.824-.813,0-1.835.755-1.934,1.824"/>
            </g>
            <rect class="cls-22"
                  x="180.1934"
                  y="85.7649"
                  width="30.952"
                  height="30.952"/>
            <rect class="cls-6"
                  x="180.1932"
                  y="85.7654"
                  width="30.952"
                  height="30.952"/>
            <line class="cls-6"
                  x1="180.1957"
                  y1="116.7196"
                  x2="211.1467"
                  y2="85.7676"/>
            <line class="cls-6"
                  x1="183.5786"
                  y1="92.5387"
                  x2="192.2796"
                  y2="92.5387"/>
            <line class="cls-6"
                  x1="190.231"
                  y1="90.6042"
                  x2="192.279"
                  y2="90.6042"/>
            <line class="cls-6"
                  x1="186.9048"
                  y1="90.6042"
                  x2="188.9528"
                  y2="90.6042"/>
            <line class="cls-6"
                  x1="183.5786"
                  y1="90.6042"
                  x2="185.6266"
                  y2="90.6042"/>
            <g class="cls-33">
               <path class="cls-6"
                     d="m207.7315,111.3506c-.121,1.086-.988,1.825-1.935,1.825s-1.702-.482-1.934-1.825c-.232-1.343-1.121-1.824-1.935-1.824-.813,0-1.835.755-1.934,1.824"/>
            </g>
            <rect class="cls-22"
                  x="177.1924"
                  y="83.5189"
                  width="30.953"
                  height="30.953"/>
            <g class="cls-43">
               <rect class="cls-6"
                     x="177.1932"
                     y="83.5198"
                     width="30.952"
                     height="30.952"/>
               <line class="cls-6"
                     x1="177.1957"
                     y1="114.474"
                     x2="208.1467"
                     y2="83.522"/>
            </g>
            <line class="cls-6"
                  x1="180.5786"
                  y1="90.2931"
                  x2="189.2796"
                  y2="90.2931"/>
            <line class="cls-6"
                  x1="187.231"
                  y1="88.3585"
                  x2="189.279"
                  y2="88.3585"/>
            <line class="cls-6"
                  x1="183.9048"
                  y1="88.3585"
                  x2="185.9528"
                  y2="88.3585"/>
            <line class="cls-6"
                  x1="180.5786"
                  y1="88.3585"
                  x2="182.6266"
                  y2="88.3585"/>
            <g class="cls-58">
               <path class="cls-6"
                     d="m204.7315,109.105c-.121,1.086-.988,1.825-1.935,1.825s-1.702-.482-1.934-1.825c-.232-1.343-1.121-1.824-1.935-1.824-.813,0-1.835.755-1.934,1.824"/>
            </g>
         </g>
      </g>
      <g id="Artwork_20_no_white" data-name="Artwork 20 no white">
         <g class="cls-41">
            <g class="cls-27">
               <line class="cls-11"
                     x1="71.5911"
                     y1="47.5422"
                     x2="86.2211"
                     y2="40.7762"/>
               <path class="cls-20"
                     d="m86.221,41.7805h0c-.55,0-1-.45-1-1,0-.551.45-1,1-1s1,.449,1,1c0,.55-.45,1-1,1"/>
               <path class="cls-20"
                     d="m71.5911,41.7805h0c-.55,0-1-.45-1-1,0-.551.45-1,1-1s1,.449,1,1c0,.55-.45,1-1,1"/>
            </g>
         </g>
      </g>
      <g id="Artwork_20_no_white-2" data-name="Artwork 20 no white">
         <g class="cls-31">
            <g class="cls-39">
               <line class="cls-11"
                     x1="71.5911"
                     y1="107.4736"
                     x2="86.2211"
                     y2="100.7076"/>
               <path class="cls-20"
                     d="m86.221,101.7119h0c-.55,0-1-.45-1-1,0-.551.45-1,1-1s1,.449,1,1c0,.55-.45,1-1,1"/>
               <path class="cls-20"
                     d="m71.5911,101.7119h0c-.55,0-1-.45-1-1,0-.551.45-1,1-1s1,.449,1,1c0,.55-.45,1-1,1"/>
            </g>
         </g>
      </g>
      <g id="Artwork_20_no_white-3" data-name="Artwork 20 no white">
         <g class="cls-59">
            <g class="cls-51">
               <line class="cls-11"
                     x1="71.5911"
                     y1="149.4201"
                     x2="86.2211"
                     y2="142.6541"/>
               <path class="cls-20"
                     d="m86.221,143.6584h0c-.55,0-1-.45-1-1,0-.551.45-1,1-1s1,.449,1,1c0,.55-.45,1-1,1"/>
               <path class="cls-20"
                     d="m71.5911,143.6584h0c-.55,0-1-.45-1-1,0-.551.45-1,1-1s1,.449,1,1c0,.55-.45,1-1,1"/>
            </g>
         </g>
      </g>
      <g id="Artwork_20_no_white-4" data-name="Artwork 20 no white">
         <g class="cls-42">
            <g class="cls-48">
               <line class="cls-11"
                     x1="294.2578"
                     y1="149.4201"
                     x2="308.8878"
                     y2="142.6541"/>
               <path class="cls-20"
                     d="m308.8877,143.6584h0c-.55,0-1-.45-1-1,0-.551.45-1,1-1s1,.449,1,1c0,.55-.45,1-1,1"/>
               <path class="cls-20"
                     d="m294.2578,143.6584h0c-.55,0-1-.45-1-1,0-.551.45-1,1-1s1,.449,1,1c0,.55-.45,1-1,1"/>
            </g>
         </g>
      </g>
      <g id="Artwork_20_no_white-5" data-name="Artwork 20 no white">
         <g class="cls-16">
            <g class="cls-4">
               <line class="cls-11"
                     x1="338.422"
                     y1="107.5422"
                     x2="353.052"
                     y2="100.7762"/>
               <path class="cls-20"
                     d="m353.0519,101.7805h0c-.55,0-1-.45-1-1,0-.551.45-1,1-1s1,.449,1,1c0,.55-.45,1-1,1"/>
               <path class="cls-20"
                     d="m338.422,101.7805h0c-.55,0-1-.45-1-1,0-.551.45-1,1-1s1,.449,1,1c0,.55-.45,1-1,1"/>
            </g>
         </g>
      </g>
      <g id="Artwork_20_no_white-6" data-name="Artwork 20 no white">
         <g class="cls-34">
            <g class="cls-61">
               <line class="cls-11"
                     x1="294.2578"
                     y1="47.5422"
                     x2="308.8878"
                     y2="40.7762"/>
               <path class="cls-20"
                     d="m308.8877,41.7805h0c-.55,0-1-.45-1-1,0-.551.45-1,1-1s1,.449,1,1c0,.55-.45,1-1,1"/>
               <path class="cls-20"
                     d="m294.2578,41.7805h0c-.55,0-1-.45-1-1,0-.551.45-1,1-1s1,.449,1,1c0,.55-.45,1-1,1"/>
            </g>
         </g>
      </g>
      <g id="Modular-SSW">
         <g class="cls-38">
            <rect class="cls-22"
                  x="244.7083"
                  y="56.6788"
                  width="37.338"
                  height="58.845"/>
            <g class="cls-26">
               <rect class="cls-12"
                     x="244.7083"
                     y="56.6788"
                     width="37.339"
                     height="58.845"/>
               <polyline class="cls-7"
                         points="244.7083 100.8133 274.0473 100.8133 274.0473 71.3913 244.7083 71.3913"/>
            </g>
            <rect class="cls-22"
                  x="252.0383"
                  y="93.2278"
                  width="15.128"
                  height="15.171"/>
            <rect class="cls-12"
                  x="252.0383"
                  y="93.2278"
                  width="15.128"
                  height="15.171"/>
            <line class="cls-12"
                  x1="257.006"
                  y1="112.0787"
                  x2="257.006"
                  y2="104.7187"/>
            <line class="cls-12"
                  x1="259.9481"
                  y1="112.0787"
                  x2="259.9381"
                  y2="109.7367"/>
            <path class="cls-18"
                  d="m263.2029,105.9347v4.928l-4.908-2.464,4.908-2.464Zm.75-1.216l-7.33,3.68,7.33,3.68v-7.36Z"/>
            <line class="cls-12"
                  x1="262.6645"
                  y1="89.6014"
                  x2="262.6645"
                  y2="96.9614"/>
            <line class="cls-12"
                  x1="259.3757"
                  y1="89.5501"
                  x2="259.3757"
                  y2="91.5631"/>
            <path class="cls-18"
                  d="m256.4607,90.7625l4.908,2.464-4.908,2.464v-4.928Zm-.75-1.216v7.36l7.33-3.68-7.33-3.68Z"/>
            <g class="cls-37">
               <path class="cls-21"
                     d="m252.0387,99.8126c.551,0,.997.448.997,1s-.446,1-.997,1-.997-.448-.997-1,.446-1,.997-1"/>
               <circle class="cls-12" cx="252.0387" cy="100.8126" r=".997"/>
               <path class="cls-21"
                     d="m267.1664,99.8133c.551,0,.997.448.997,1s-.446,1-.997,1-.997-.448-.997-1,.446-1,.997-1"/>
               <circle class="cls-12" cx="267.1664" cy="100.8133" r=".997"/>
               <rect class="cls-22"
                     x="252.0383"
                     y="63.8058"
                     width="15.128"
                     height="15.171"/>
               <rect class="cls-12"
                     x="252.0383"
                     y="63.8058"
                     width="15.128"
                     height="15.171"/>
               <line class="cls-12"
                     x1="257.006"
                     y1="82.6563"
                     x2="257.006"
                     y2="75.2963"/>
               <line class="cls-12"
                     x1="259.9481"
                     y1="82.6563"
                     x2="259.9381"
                     y2="80.3143"/>
               <path class="cls-18"
                     d="m263.2029,76.5123v4.928l-4.908-2.464,4.908-2.464Zm.75-1.216l-7.33,3.68,7.33,3.68v-7.36Z"/>
               <line class="cls-12"
                     x1="262.6645"
                     y1="60.179"
                     x2="262.6645"
                     y2="67.539"/>
               <line class="cls-12"
                     x1="259.3757"
                     y1="60.1277"
                     x2="259.3757"
                     y2="62.1407"/>
               <path class="cls-18"
                     d="m256.4607,61.3401l4.908,2.464-4.908,2.464v-4.928Zm-.75-1.216v7.36l7.33-3.68-7.33-3.68Z"/>
               <path class="cls-21"
                     d="m252.0387,70.3902c.551,0,.997.448.997,1s-.446,1-.997,1-.997-.448-.997-1,.446-1,.997-1"/>
               <circle class="cls-12" cx="252.0387" cy="71.3902" r=".997"/>
               <path class="cls-21"
                     d="m267.1664,70.3909c.551,0,.997.448.997,1s-.446,1-.997,1-.997-.448-.997-1,.446-1,.997-1"/>
               <circle class="cls-12" cx="267.1664" cy="71.3909" r=".997"/>
               <line class="cls-7"
                     x1="282.0469"
                     y1="100.8126"
                     x2="274.0469"
                     y2="100.8126"/>
               <path class="cls-21"
                     d="m274.0469,99.8133c.551,0,.997.448.997,1s-.446,1-.997,1-.997-.448-.997-1,.446-1,.997-1"/>
               <circle class="cls-12" cx="274.0469" cy="100.8133" r=".997"/>
            </g>
         </g>
      </g>
      <g id="Artwork_13-2" data-name="Artwork 13">
         <g class="cls-46">
            <g class="cls-30">
               <path class="cls-23"
                     d="m45.7422,98.7032c1.104,0,2,.896,2,2s-.896,2-2,2-2-.896-2-2,.896-2,2-2"/>
               <circle class="cls-11" cx="45.7422" cy="100.7032" r="2"/>
            </g>
         </g>
      </g>
      <g id="Artwork_13-3" data-name="Artwork 13">
         <g class="cls-15">
            <g class="cls-56">
               <path class="cls-23"
                     d="m45.7418,38.7032c1.104,0,2,.896,2,2s-.896,2-2,2-2-.896-2-2,.896-2,2-2"/>
               <circle class="cls-11" cx="45.7418" cy="40.7032" r="2"/>
            </g>
         </g>
      </g>
   </g>
   <g id="Text">
      <text class="cls-60" transform="translate(98.8751 78.6934)">
         <tspan x="0" y="0">RECTIFIER</tspan>
      </text>
      <text class="cls-60" transform="translate(170.3898 78.6934)">
         <tspan x="0" y="0">INVERTER</tspan>
      </text>
      <text class="cls-60" transform="translate(344.8686 94.0576)">
         <tspan x="0" y="0">AC OUTPUT</tspan>
      </text>
      <text class="cls-60" transform="translate(22.1251 130.5797)">
         <tspan x="0" y="0">BATTERY</tspan>
      </text>
      <text class="cls-60" transform="translate(19.3539 78.6937)">
         <tspan x="0" y="0">RECTIFIER</tspan>
         <tspan x="10.2783" y="12">MAINS</tspan>
      </text>
      <text class="cls-60" transform="translate(25.1816 18.6938)">
         <tspan x="0" y="0">BYPASS</tspan>
         <tspan x="4.4507" y="12">MAINS</tspan>
      </text>
      <text class="cls-60" transform="translate(287.8101 18.6938)">
         <tspan x="0" y="0">MANUAL</tspan>
      </text>
      <text class="cls-60" transform="translate(288.9111 30.6938)">
         <tspan x="0" y="0">BYPASS</tspan>
      </text>
      <text class="cls-60" transform="translate(231.0721 18.6938)">
         <tspan x="0" y="0">STATIC</tspan>
      </text>
      <text class="cls-60" transform="translate(229.407 30.6936)">
         <tspan x="0" y="0">SWITCH</tspan>
      </text>
   </g>
</svg>
