<?xml version="1.0" encoding="UTF-8"?>
<svg xmlns="http://www.w3.org/2000/svg"
     width="120mm"
     height="50mm"
     viewBox="0 0 340.1575 141.7323">
   <defs>
      <style>
      .cls-1 {
        fill: #01889C;
      }

      .cls-2, .cls-3, .cls-4, .cls-5 {
        fill: none;
      }

      .cls-2 {
        stroke: gray;
        stroke-width: 0.1317px;
      }

      .cls-2, .cls-3, .cls-4, .cls-5, .cls-6 {
        stroke-linecap: round;
      }

      .cls-2, .cls-3 {
        stroke-miterlimit: 4.3551;
      }

      .cls-3, .cls-5, .cls-6 {
        stroke: #000;
      }

      .cls-3 {
        stroke-width: 0.2305px;
      }

      .cls-4 {
        stroke: #fff;
      }

      .cls-5 {
        stroke-width: 0.5px;
      }

      .cls-6 {
        stroke-width: 0.106px;
      }

      .cls-7 {
        isolation: isolate;
        font-size: 16px;
        font-family: ArialMT, Arial;
      }

      .cls-7, .cls-8 {
        fill: #fff;
      }
    </style>
   </defs>
   <g id="Layer_3" data-name="Layer 3">
      <path class="cls-1"
            d="M216.9984,38.6519l43.1655-8.3327.04,59.8085-1.5544.7514-2.8314.6667s-34.9333,6.7216-34.9856,6.732-1.83.23-1.83.23l-2.0516-.0732Z"/>
   </g>
   <g id="Layer_1" data-name="Layer 1">
      <g id="ID_1003" data-name="ID 1003">
         <g id="ID_1004" data-name="ID 1004">
            <g id="ID_1005" data-name="ID 1005">
               <g id="ID_1006" data-name="ID 1006">
                  <g id="ID_1007" data-name="ID 1007">
                     <g id="ID_1065" data-name="ID 1065">
                        <g id="ID_1066" data-name="ID 1066">
                           <g id="ID_1067" data-name="ID 1067">
                              <path class="cls-2" d="M253.5794,21.1944l-.5124-.4651"/>
                              <path class="cls-3"
                                    d="M253.5794,21.1944c-.249.2411-.1067.1634-.4215.245l-2.5861.5007L39.9257,62.6011l-2.5874.498"/>
                              <path class="cls-3" d="M253.5979,20.32c-.4269.15-.1462.08-.8643.0843"/>
                              <line class="cls-3"
                                    x1="253.5979"
                                    y1="20.3196"
                                    x2="253.6506"
                                    y2="9.2759"/>
                              <line class="cls-3"
                                    x1="253.067"
                                    y1="20.7293"
                                    x2="252.7336"
                                    y2="20.4039"/>
                              <line class="cls-3"
                                    x1="253.5794"
                                    y1="21.1944"
                                    x2="253.2277"
                                    y2="20.4"/>
                           </g>
                        </g>
                     </g>
                     <g id="ID_1046" data-name="ID 1046">
                        <g id="ID_1061" data-name="ID 1061">
                           <line class="cls-2"
                                 x1="260.2219"
                                 y1="30.2952"
                                 x2="260.2219"
                                 y2="30.4164"/>
                           <line class="cls-2"
                                 x1="251.4623"
                                 y1="31.8787"
                                 x2="251.4623"
                                 y2="32.0592"/>
                           <path class="cls-2"
                                 d="M260.3774,29.6009l-.0066.664L260.3681,32.9,260.28,87.4373l-.0027,2.6348"/>
                           <path class="cls-2" d="M260.3708,30.2649l-.1489.03-.4954-.2727"/>
                           <path class="cls-3"
                                 d="M260.3774,29.6009l-.0053,2.6348-.087,54.5376-.0026,2.6348-.0053.664"/>
                           <line class="cls-3"
                                 x1="249.4137"
                                 y1="32.2739"
                                 x2="247.7617"
                                 y2="32.7719"/>
                           <line class="cls-3"
                                 x1="249.5033"
                                 y1="32.2568"
                                 x2="249.7457"
                                 y2="32.3886"/>
                           <line class="cls-3"
                                 x1="249.4783"
                                 y1="32.4413"
                                 x2="249.4783"
                                 y2="32.2608"/>
                           <line class="cls-3"
                                 x1="252.3094"
                                 y1="31.714"
                                 x2="252.3094"
                                 y2="31.8945"/>
                           <line class="cls-3"
                                 x1="252.4201"
                                 y1="31.8721"
                                 x2="252.3094"
                                 y2="31.8102"/>
                           <line class="cls-3"
                                 x1="260.3774"
                                 y1="29.6009"
                                 x2="259.7279"
                                 y2="29.0291"/>
                           <line class="cls-3"
                                 x1="260.1508"
                                 y1="90.0985"
                                 x2="260.2772"
                                 y2="90.0721"/>
                        </g>
                        <g id="ID_1057" data-name="ID 1057">
                           <line class="cls-2"
                                 x1="217.0459"
                                 y1="38.7675"
                                 x2="216.951"
                                 y2="98.5735"/>
                           <path class="cls-2"
                                 d="M216.9576,38.7188a29.2177,29.2177,0,0,0,6.6188-.6745l31.5774-6.0971a14.3711,14.3711,0,0,0,5.0918-1.5176"/>
                           <path class="cls-3"
                                 d="M260.1508,90.2368a14.3744,14.3744,0,0,1-5.0919,1.5177L223.4815,97.85l-2.5861.4993-1.9076.2306-2.1251-.0554"/>
                           <path class="cls-3"
                                 d="M216.9576,38.7188l2.5874-.5006,38.0236-7.3394,2.5874-.498.09.0488"/>
                           <line class="cls-3"
                                 x1="216.9576"
                                 y1="38.7188"
                                 x2="216.8627"
                                 y2="98.5247"/>
                           <line class="cls-3"
                                 x1="260.2456"
                                 y1="30.4296"
                                 x2="260.1508"
                                 y2="90.2368"/>
                        </g>
                        <g id="ID_1053" data-name="ID 1053">
                           <line class="cls-2"
                                 x1="215.4044"
                                 y1="97.1875"
                                 x2="215.2107"
                                 y2="97.285"/>
                           <path class="cls-2" d="M216.0815,39.9809c-.2029.4861-.3965.7667-.9235.8787"/>
                           <path class="cls-3"
                                 d="M215.4373,98.0623l-.0343.0211-2.5874.5006-172.89,33.3718-2.5874.5006"/>
                           <path class="cls-3"
                                 d="M215.5282,39.25c.4519.249.42.1752.5533.7312l-.0039,2.6349-.083,51.7458-.0027,2.6349"/>
                           <path class="cls-3" d="M215.9919,96.9965l-.17.0079-.3755-.0237-.3768.0975"/>
                           <path class="cls-3" d="M215.4373,98.0623l-.2266-.7773-.08-.0461"/>
                           <path class="cls-3" d="M215.158,40.86c.4519-1.8865.3886-1.02.34-2.5821"/>
                           <line class="cls-3"
                                 x1="215.4373"
                                 y1="98.0623"
                                 x2="215.0697"
                                 y2="97.0782"/>
                           <line class="cls-3"
                                 x1="215.4044"
                                 y1="97.1875"
                                 x2="215.1685"
                                 y2="97.0558"/>
                           <line class="cls-3"
                                 x1="215.9919"
                                 y1="96.9965"
                                 x2="215.2107"
                                 y2="97.0466"/>
                           <line class="cls-3"
                                 x1="215.4044"
                                 y1="97.1875"
                                 x2="215.403"
                                 y2="97.9477"/>
                           <line class="cls-3"
                                 x1="215.2568"
                                 y1="38.1444"
                                 x2="215.4979"
                                 y2="38.2775"/>
                        </g>
                        <g id="ID_1047" data-name="ID 1047">
                           <line class="cls-2"
                                 x1="248.0673"
                                 y1="32.681"
                                 x2="247.871"
                                 y2="32.573"/>
                           <line class="cls-2"
                                 x1="235.1289"
                                 y1="34.3094"
                                 x2="235.1289"
                                 y2="34.4938"/>
                           <line class="cls-2"
                                 x1="233.9814"
                                 y1="35.4331"
                                 x2="233.9287"
                                 y2="35.25"/>
                           <path class="cls-2"
                                 d="M258.4829,30.8827l-.6126-.0606a8.1673,8.1673,0,0,0-2.0684.49"/>
                           <path class="cls-2" d="M246.3362,33.14l-.6323.029-8.309,1.6059-.6351.2135"/>
                           <path class="cls-2"
                                 d="M227.2941,36.8151l-.6337.029-8.5053,1.6428-1.2107-.6679"/>
                           <path class="cls-2"
                                 d="M217.0287,97.1493c-.5414-2.1342-.3267-.8431-.3214-3.918l.08-51.2479.0065-2.6349"/>
                           <path class="cls-2" d="M216.9576,39.3169l-.1634.0316-1.2858-.71"/>
                           <path class="cls-3"
                                 d="M227.4009,36.7031A3.1268,3.1268,0,0,0,226,36.1l-.2015.0118"/>
                           <path class="cls-3"
                                 d="M234.2093,35.39a4.6725,4.6725,0,0,1,1.2568-1.1172l.2108-.0685"/>
                           <path class="cls-3"
                                 d="M260.1508,32.3978l.1646.6416-.0052,2.6348L260.2311,84.83l-.0026,2.6348-.1647.7048"/>
                           <line class="cls-3"
                                 x1="216.8641"
                                 y1="97.3759"
                                 x2="215.9919"
                                 y2="96.8937"/>
                           <line class="cls-3"
                                 x1="217.3502"
                                 y1="38.6424"
                                 x2="216.1421"
                                 y2="37.9758"/>
                           <line class="cls-3"
                                 x1="227.1439"
                                 y1="36.5595"
                                 x2="234.3885"
                                 y2="35.1618"/>
                           <line class="cls-3"
                                 x1="233.4215"
                                 y1="35.5412"
                                 x2="233.3965"
                                 y2="35.3528"/>
                           <line class="cls-3"
                                 x1="231.581"
                                 y1="35.8956"
                                 x2="231.5441"
                                 y2="35.7111"/>
                           <line class="cls-3"
                                 x1="246.4429"
                                 y1="33.0275"
                                 x2="246.2018"
                                 y2="32.8945"/>
                           <line class="cls-3"
                                 x1="249.253"
                                 y1="32.3214"
                                 x2="249.2293"
                                 y2="32.3095"/>
                           <line class="cls-3"
                                 x1="253.4095"
                                 y1="31.5059"
                                 x2="253.2501"
                                 y2="31.714"/>
                           <line class="cls-3"
                                 x1="258.6094"
                                 y1="30.6785"
                                 x2="258.3709"
                                 y2="30.5455"/>
                        </g>
                     </g>
                     <g id="ID_1008" data-name="ID 1008">
                        <g id="ID_1023" data-name="ID 1023">
                           <g id="ID_1026" data-name="ID 1026">
                              <path class="cls-2"
                                    d="M259.7358,23.218a1.1952,1.1952,0,0,1-.7668.3952l-2.5874.4993-16.369,3.1618-2.5875.498-.158.0145-.1581-.0145-3.8417-2.0934"/>
                              <path class="cls-3"
                                    d="M259.1508,22.7015c.2635.1449.527.2108.585.5165l-.0093,6.8176a1.2088,1.2088,0,0,1-.7667.3966l-2.5887.4993-16.37,3.16-2.5874.498-.1581.0158-.1581-.0158-.9393-.49"/>
                           </g>
                           <g id="ID_1024" data-name="ID 1024">
                              <path class="cls-3"
                                    d="M259.8,9.2759l-.0039,2.6349-.0461,7.7659-.0066,2.6349c-.3228.4176-.0962.2226-.7733.4505a46.1416,46.1416,0,0,1-4.5992.8063,3.1527,3.1527,0,0,1-1.378-.2543l-2.27-1.2555-.35-.08"/>
                           </g>
                        </g>
                        <g id="ID_1009" data-name="ID 1009">
                           <g id="ID_1012" data-name="ID 1012">
                              <path class="cls-3"
                                    d="M236.2,34.092l-.573.1212-2.5862.5006L39.9257,71.9891l-2.5874.5006"/>
                              <path class="cls-3"
                                    d="M233.0829,25.3166a1.29,1.29,0,0,0,.3043.4769l2.25,1.2437a2.4907,2.4907,0,0,1,.8076,1.9419A16.6662,16.6662,0,0,1,236.2,34.092"/>
                           </g>
                        </g>
                     </g>
                  </g>
               </g>
            </g>
         </g>
      </g>
   </g>
   <g id="Layer_5" data-name="Layer 5">
      <polyline class="cls-2" points="258.135 51.463 249.469 63.574 258.135 72.256"/>
   </g>
   <g id="Layer_2" data-name="Layer 2">
      <g>
         <line class="cls-4"
               x1="250.3728"
               y1="69.6835"
               x2="312.9855"
               y2="45.6498"/>
         <line class="cls-5"
               x1="312.9855"
               y1="45.6498"
               x2="250.3728"
               y2="69.6835"/>
         <circle class="cls-6" cx="312.9855" cy="45.6498" r="9.5"/>
         <text class="cls-7" transform="translate(307.2084 51.182)">D</text>
      </g>
      <g>
         <path d="M229.7144,102.5841c-5.8312,1.0671-12.2262,10.602-17.6821,11.6l-.18-.9856c5.425-.9928,11.3043-10.4333,17.682-11.6l-.3731-2.04,5.7083,1.574-4.7818,3.4924Z"/>
         <path class="cls-8"
               d="M229.32,99.7315l5.2668,1.4524-4.4119,3.2222-.36-1.9674c-6.0839,1.1134-12.3593,10.6264-17.682,11.6l-.1352-.74c5.3225-.974,11.0856-10.3933,17.6819-11.6l-.36-1.9674m-.3176-.3469.0717.3919.3148,1.7215c-6.0327,1.104-12.6463,10.6789-17.436,11.5554l-.2459.045.045.2459.1353.74.0449.2459.246-.0449c5.2508-.961,11.9874-10.5584,17.4359-11.5555l.3148,1.7215.0717.3918.3217-.2349,4.412-3.2222.418-.3053-.499-.1376-5.2668-1.4524-.3841-.1059Z"/>
      </g>
   </g>
</svg>
