<?xml version="1.0" encoding="UTF-8"?>
<svg xmlns="http://www.w3.org/2000/svg"
     xmlns:xlink="http://www.w3.org/1999/xlink"
     width="115mm"
     height="55mm"
     viewBox="0 0 325.9843 155.9055">
   <defs>
      <style>
      .cls-1 {
        clip-path: url(#clippath-20);
      }

      .cls-2 {
        clip-path: url(#clippath-11);
      }

      .cls-3 {
        clip-path: url(#clippath-16);
      }

      .cls-4 {
        stroke-width: .645px;
      }

      .cls-4, .cls-5, .cls-6, .cls-7, .cls-8, .cls-9 {
        fill: none;
      }

      .cls-4, .cls-7, .cls-8, .cls-9 {
        stroke-miterlimit: 3;
      }

      .cls-4, .cls-7, .cls-9 {
        stroke: #000;
      }

      .cls-10 {
        clip-path: url(#clippath-2);
      }

      .cls-11, .cls-12, .cls-13, .cls-6, .cls-14, .cls-15, .cls-16 {
        stroke-width: 0px;
      }

      .cls-11, .cls-14 {
        fill: #010101;
      }

      .cls-12, .cls-14, .cls-16 {
        fill-rule: evenodd;
      }

      .cls-17 {
        clip-path: url(#clippath-13);
      }

      .cls-18 {
        clip-path: url(#clippath-25);
      }

      .cls-19 {
        clip-path: url(#clippath-15);
      }

      .cls-20 {
        clip-path: url(#clippath-6);
      }

      .cls-5 {
        stroke-miterlimit: 10;
      }

      .cls-5, .cls-7, .cls-8 {
        stroke-width: .75px;
      }

      .cls-5, .cls-8 {
        stroke: #010101;
      }

      .cls-21 {
        clip-path: url(#clippath-7);
      }

      .cls-22 {
        clip-path: url(#clippath-21);
      }

      .cls-23 {
        clip-path: url(#clippath-1);
      }

      .cls-24 {
        clip-path: url(#clippath-4);
      }

      .cls-25 {
        clip-path: url(#clippath-12);
      }

      .cls-15, .cls-16 {
        fill: #fff;
      }

      .cls-26 {
        clip-path: url(#clippath-24);
      }

      .cls-27 {
        clip-path: url(#clippath-22);
      }

      .cls-28 {
        clip-path: url(#clippath-9);
      }

      .cls-29 {
        clip-path: url(#clippath);
      }

      .cls-30 {
        clip-path: url(#clippath-19);
      }

      .cls-31 {
        clip-path: url(#clippath-3);
      }

      .cls-32 {
        clip-path: url(#clippath-8);
      }

      .cls-33 {
        clip-path: url(#clippath-18);
      }

      .cls-34 {
        clip-path: url(#clippath-14);
      }

      .cls-35 {
        clip-path: url(#clippath-17);
      }

      .cls-36 {
        clip-path: url(#clippath-5);
      }

      .cls-37 {
        clip-path: url(#clippath-10);
      }

      .cls-38 {
        clip-path: url(#clippath-23);
      }

      .cls-9 {
        stroke-width: .5px;
      }

      .cls-39 {
        fill: #01889C;
        font-family: Arial-BoldMT, Arial;
        font-size: 10px;
        font-weight: 700;
      }
    </style>
      <clipPath id="clippath">
         <rect class="cls-6"
               x="133.6621"
               y="98.4739"
               width="4.5709"
               height="4.5819"/>
      </clipPath>
      <clipPath id="clippath-1">
         <rect class="cls-6"
               x="133.6621"
               y="98.4738"
               width="4.571"
               height="4.582"/>
      </clipPath>
      <clipPath id="clippath-2">
         <rect class="cls-6"
               x="221.7507"
               y="98.4739"
               width="4.5709"
               height="4.5819"/>
      </clipPath>
      <clipPath id="clippath-3">
         <rect class="cls-6"
               x="221.7507"
               y="98.4738"
               width="4.571"
               height="4.582"/>
      </clipPath>
      <clipPath id="clippath-4">
         <rect class="cls-6"
               x="133.6621"
               y="38.4739"
               width="4.5709"
               height="4.5819"/>
      </clipPath>
      <clipPath id="clippath-5">
         <rect class="cls-6"
               x="133.6621"
               y="38.4738"
               width="4.571"
               height="4.582"/>
      </clipPath>
      <clipPath id="clippath-6">
         <rect class="cls-6"
               x="277.6036"
               y="97.6403"
               width="6.125"
               height="6.125"/>
      </clipPath>
      <clipPath id="clippath-7">
         <rect class="cls-6"
               x="277.6036"
               y="97.6403"
               width="6.125"
               height="6.125"/>
      </clipPath>
      <clipPath id="clippath-8">
         <rect class="cls-6"
               x="33.5424"
               y="37.6403"
               width="6.125"
               height="6.125"/>
      </clipPath>
      <clipPath id="clippath-9">
         <rect class="cls-6"
               x="33.5424"
               y="37.6403"
               width="6.125"
               height="6.125"/>
      </clipPath>
      <clipPath id="clippath-10">
         <rect class="cls-6"
               x="65.2284"
               y="32.5686"
               width="16.63"
               height="16.2683"/>
      </clipPath>
      <clipPath id="clippath-11">
         <rect class="cls-6"
               x="65.2284"
               y="32.5689"
               width="16.63"
               height="16.268"/>
      </clipPath>
      <clipPath id="clippath-12">
         <rect class="cls-6"
               x="199.8719"
               y="134.446"
               width="16.63"
               height="16.2683"/>
      </clipPath>
      <clipPath id="clippath-13">
         <rect class="cls-6"
               x="199.8719"
               y="134.4463"
               width="16.63"
               height="16.268"/>
      </clipPath>
      <clipPath id="clippath-14">
         <rect class="cls-6"
               x="199.8719"
               y="32.6307"
               width="16.63"
               height="16.2683"/>
      </clipPath>
      <clipPath id="clippath-15">
         <rect class="cls-6"
               x="199.8719"
               y="32.631"
               width="16.63"
               height="16.268"/>
      </clipPath>
      <clipPath id="clippath-16">
         <rect class="cls-6"
               x="244.0361"
               y="92.5686"
               width="16.63"
               height="16.2683"/>
      </clipPath>
      <clipPath id="clippath-17">
         <rect class="cls-6"
               x="244.0361"
               y="92.5689"
               width="16.63"
               height="16.268"/>
      </clipPath>
      <clipPath id="clippath-18">
         <rect class="cls-6"
               x="83.1636"
               y="80.9411"
               width="38.2419"
               height="40.5368"/>
      </clipPath>
      <clipPath id="clippath-19">
         <rect class="cls-6"
               x="89.1626"
               y="85.3669"
               width="32.242"
               height="36.111"/>
      </clipPath>
      <clipPath id="clippath-20">
         <rect class="cls-6"
               x="86.1636"
               y="83.1859"
               width="32.242"
               height="36.112"/>
      </clipPath>
      <clipPath id="clippath-21">
         <rect class="cls-6"
               x="83.1636"
               y="80.9409"
               width="32.242"
               height="36.112"/>
      </clipPath>
      <clipPath id="clippath-22">
         <rect class="cls-6"
               x="83.1636"
               y="80.9409"
               width="32.242"
               height="36.112"/>
      </clipPath>
      <clipPath id="clippath-23">
         <rect class="cls-6"
               x="150.9475"
               y="56.304"
               width="38.0886"
               height="59.5948"/>
      </clipPath>
      <clipPath id="clippath-24">
         <rect class="cls-6"
               x="150.9475"
               y="56.3038"
               width="38.089"
               height="59.595"/>
      </clipPath>
      <clipPath id="clippath-25">
         <rect class="cls-6"
               x="150.9475"
               y="56.3038"
               width="38.089"
               height="59.595"/>
      </clipPath>
   </defs>
   <g id="Paths">
      <path class="cls-7" d="m244.5933,100.7649H36.6049"/>
      <path class="cls-7" d="m280.6475,100.7649h-20.45"/>
      <path class="cls-7" d="m200.6142,40.7649h-119.3102"/>
      <path class="cls-7" d="m65.9598,40.7649h-28.4537"/>
      <polyline class="cls-7"
                points="224.0361 100.7028 224.0361 40.7649 216.2253 40.7649"/>
      <polyline class="cls-7"
                points="216.0864 142.6422 224.0361 142.6422 224.0361 100.7649"/>
      <polyline class="cls-7"
                points="135.9475 100.7028 135.9475 142.6422 200.4197 142.6422"/>
      <polyline class="cls-7"
                points="135.9475 40.7649 135.9475 71.5332 150.9475 71.5332"/>
      <g id="Connect">
         <g class="cls-29">
            <g class="cls-23">
               <path class="cls-12"
                     d="m135.9472,99.7615c.553,0,1,.449,1,1.003,0,.555-.447,1.003-1,1.003-.552,0-1-.448-1-1.003,0-.554.448-1.003,1-1.003"/>
               <circle class="cls-9" cx="135.9472" cy="100.7645" r="1"/>
            </g>
         </g>
      </g>
      <g id="Connect-2" data-name="Connect">
         <g class="cls-10">
            <g class="cls-31">
               <path class="cls-12"
                     d="m224.0358,99.7615c.553,0,1,.449,1,1.003,0,.555-.447,1.003-1,1.003-.552,0-1-.448-1-1.003,0-.554.448-1.003,1-1.003"/>
               <circle class="cls-9" cx="224.0358" cy="100.7645" r="1"/>
            </g>
         </g>
      </g>
      <g id="Connect-3" data-name="Connect">
         <g class="cls-24">
            <g class="cls-36">
               <path class="cls-12"
                     d="m135.9472,39.7615c.553,0,1,.449,1,1.003,0,.555-.447,1.003-1,1.003-.552,0-1-.448-1-1.003,0-.554.448-1.003,1-1.003"/>
               <circle class="cls-9" cx="135.9472" cy="40.7645" r="1"/>
            </g>
         </g>
      </g>
   </g>
   <g id="Parts">
      <g id="Artwork_13" data-name="Artwork 13">
         <g class="cls-20">
            <g class="cls-21">
               <path class="cls-16"
                     d="m280.666,98.7032c1.104,0,2,.896,2,2s-.896,2-2,2-2-.896-2-2,.896-2,2-2"/>
               <circle class="cls-7" cx="280.666" cy="100.7032" r="2"/>
            </g>
         </g>
      </g>
      <g id="Artwork_13-2" data-name="Artwork 13">
         <g class="cls-32">
            <g class="cls-28">
               <path class="cls-16"
                     d="m36.6048,38.7032c1.104,0,2,.896,2,2s-.896,2-2,2-2-.896-2-2,.896-2,2-2"/>
               <circle class="cls-7" cx="36.6048" cy="40.7032" r="2"/>
            </g>
         </g>
      </g>
      <g id="Artwork_20" data-name="Artwork 20">
         <g class="cls-37">
            <rect class="cls-15"
                  x="66.2464"
                  y="38.2019"
                  width="14.612"
                  height="5.032"/>
            <g class="cls-2">
               <line class="cls-7"
                     x1="66.2285"
                     y1="47.4801"
                     x2="80.8584"
                     y2="40.7141"/>
               <path class="cls-13"
                     d="m80.8584,41.7184h0c-.55,0-1-.45-1-1,0-.551.45-1,1-1s1,.449,1,1c0,.55-.45,1-1,1"/>
               <path class="cls-13"
                     d="m66.2285,41.7184h0c-.55,0-1-.45-1-1,0-.551.45-1,1-1s1,.449,1,1c0,.55-.45,1-1,1"/>
            </g>
         </g>
      </g>
      <g id="Artwork_20-2" data-name="Artwork 20">
         <g class="cls-25">
            <rect class="cls-15"
                  x="200.8899"
                  y="140.0793"
                  width="14.612"
                  height="5.032"/>
            <g class="cls-17">
               <line class="cls-7"
                     x1="200.872"
                     y1="149.3575"
                     x2="215.502"
                     y2="142.5915"/>
               <path class="cls-13"
                     d="m215.5019,143.5958h0c-.55,0-1-.45-1-1,0-.551.45-1,1-1s1,.449,1,1c0,.55-.45,1-1,1"/>
               <path class="cls-13"
                     d="m200.872,143.5958h0c-.55,0-1-.45-1-1,0-.551.45-1,1-1s1,.449,1,1c0,.55-.45,1-1,1"/>
            </g>
         </g>
      </g>
      <g id="Artwork_20-3" data-name="Artwork 20">
         <g class="cls-34">
            <rect class="cls-15"
                  x="200.8899"
                  y="38.264"
                  width="14.612"
                  height="5.032"/>
            <g class="cls-19">
               <line class="cls-7"
                     x1="200.872"
                     y1="47.5422"
                     x2="215.502"
                     y2="40.7762"/>
               <path class="cls-13"
                     d="m215.5019,41.7805h0c-.55,0-1-.45-1-1,0-.551.45-1,1-1s1,.449,1,1c0,.55-.45,1-1,1"/>
               <path class="cls-13"
                     d="m200.872,41.7805h0c-.55,0-1-.45-1-1,0-.551.45-1,1-1s1,.449,1,1c0,.55-.45,1-1,1"/>
            </g>
         </g>
      </g>
      <g id="Artwork_20-4" data-name="Artwork 20">
         <g class="cls-3">
            <rect class="cls-15"
                  x="245.0541"
                  y="98.2019"
                  width="14.612"
                  height="5.032"/>
            <g class="cls-35">
               <line class="cls-7"
                     x1="245.0362"
                     y1="107.4801"
                     x2="259.6662"
                     y2="100.7141"/>
               <path class="cls-13"
                     d="m259.6661,101.7184h0c-.55,0-1-.45-1-1,0-.551.45-1,1-1s1,.449,1,1c0,.55-.45,1-1,1"/>
               <path class="cls-13"
                     d="m245.0362,101.7184h0c-.55,0-1-.45-1-1,0-.551.45-1,1-1s1,.449,1,1c0,.55-.45,1-1,1"/>
            </g>
         </g>
      </g>
      <g id="Modular_Inverter" data-name="Modular Inverter">
         <g class="cls-33">
            <rect class="cls-15"
                  x="89.8076"
                  y="87.9459"
                  width="30.952"
                  height="30.952"/>
            <rect class="cls-4"
                  x="89.8074"
                  y="87.9456"
                  width="30.952"
                  height="30.952"/>
            <line class="cls-4"
                  x1="89.8099"
                  y1="118.8998"
                  x2="120.7609"
                  y2="87.9478"/>
            <line class="cls-4"
                  x1="93.1928"
                  y1="94.7188"
                  x2="101.8938"
                  y2="94.7188"/>
            <line class="cls-4"
                  x1="99.8452"
                  y1="92.7843"
                  x2="101.8932"
                  y2="92.7843"/>
            <line class="cls-4"
                  x1="96.519"
                  y1="92.7843"
                  x2="98.567"
                  y2="92.7843"/>
            <line class="cls-4"
                  x1="93.1928"
                  y1="92.7843"
                  x2="95.2408"
                  y2="92.7843"/>
            <g class="cls-30">
               <path class="cls-4"
                     d="m117.3457,113.5308c-.121,1.086-.988,1.825-1.935,1.825s-1.702-.482-1.934-1.825c-.232-1.343-1.121-1.824-1.935-1.824-.813,0-1.835.755-1.934,1.824"/>
            </g>
            <rect class="cls-15"
                  x="86.8076"
                  y="85.7649"
                  width="30.952"
                  height="30.952"/>
            <rect class="cls-4"
                  x="86.8074"
                  y="85.7654"
                  width="30.952"
                  height="30.952"/>
            <line class="cls-4"
                  x1="86.8099"
                  y1="116.7196"
                  x2="117.7609"
                  y2="85.7676"/>
            <line class="cls-4"
                  x1="90.1928"
                  y1="92.5387"
                  x2="98.8938"
                  y2="92.5387"/>
            <line class="cls-4"
                  x1="96.8452"
                  y1="90.6042"
                  x2="98.8932"
                  y2="90.6042"/>
            <line class="cls-4"
                  x1="93.519"
                  y1="90.6042"
                  x2="95.567"
                  y2="90.6042"/>
            <line class="cls-4"
                  x1="90.1928"
                  y1="90.6042"
                  x2="92.2408"
                  y2="90.6042"/>
            <g class="cls-1">
               <path class="cls-4"
                     d="m114.3457,111.3506c-.121,1.086-.988,1.825-1.935,1.825s-1.702-.482-1.934-1.825c-.232-1.343-1.121-1.824-1.935-1.824-.813,0-1.835.755-1.934,1.824"/>
            </g>
            <rect class="cls-15"
                  x="83.8066"
                  y="83.5189"
                  width="30.953"
                  height="30.953"/>
            <g class="cls-22">
               <rect class="cls-4"
                     x="83.8074"
                     y="83.5198"
                     width="30.952"
                     height="30.952"/>
               <line class="cls-4"
                     x1="83.8099"
                     y1="114.474"
                     x2="114.7609"
                     y2="83.522"/>
            </g>
            <line class="cls-4"
                  x1="87.1928"
                  y1="90.2931"
                  x2="95.8938"
                  y2="90.2931"/>
            <line class="cls-4"
                  x1="93.8452"
                  y1="88.3585"
                  x2="95.8932"
                  y2="88.3585"/>
            <line class="cls-4"
                  x1="90.519"
                  y1="88.3585"
                  x2="92.567"
                  y2="88.3585"/>
            <line class="cls-4"
                  x1="87.1928"
                  y1="88.3585"
                  x2="89.2408"
                  y2="88.3585"/>
            <g class="cls-27">
               <path class="cls-4"
                     d="m111.3457,109.105c-.121,1.086-.988,1.825-1.935,1.825s-1.702-.482-1.934-1.825c-.232-1.343-1.121-1.824-1.935-1.824-.813,0-1.835.755-1.934,1.824"/>
            </g>
         </g>
      </g>
   </g>
   <g id="Text">
      <text class="cls-39" transform="translate(16.0431 18.6937)">
         <tspan x="0" y="0">BYPASS</tspan>
         <tspan x="4.4507" y="12">MAINS</tspan>
      </text>
      <text class="cls-39" transform="translate(77.0035 78.6935)">
         <tspan x="0" y="0">INVERTER</tspan>
      </text>
      <text class="cls-39" transform="translate(251.4824 94.0576)">
         <tspan x="0" y="0">AC OUTPUT</tspan>
      </text>
      <text class="cls-39" transform="translate(12.9938 94.0576)">
         <tspan x="0" y="0">DC INPUT</tspan>
      </text>
      <g id="Modular-SSW">
         <g class="cls-38">
            <rect class="cls-15"
                  x="151.3225"
                  y="56.6788"
                  width="37.338"
                  height="58.845"/>
            <g class="cls-26">
               <rect class="cls-8"
                     x="151.3225"
                     y="56.6788"
                     width="37.339"
                     height="58.845"/>
               <polyline class="cls-5"
                         points="151.3225 100.8133 180.6615 100.8133 180.6615 71.3913 151.3225 71.3913"/>
            </g>
            <rect class="cls-15"
                  x="158.6525"
                  y="93.2278"
                  width="15.128"
                  height="15.171"/>
            <rect class="cls-8"
                  x="158.6525"
                  y="93.2278"
                  width="15.128"
                  height="15.171"/>
            <line class="cls-8"
                  x1="163.6202"
                  y1="112.0787"
                  x2="163.6202"
                  y2="104.7187"/>
            <line class="cls-8"
                  x1="166.5623"
                  y1="112.0787"
                  x2="166.5523"
                  y2="109.7367"/>
            <path class="cls-11"
                  d="m169.8171,105.9347v4.928l-4.908-2.464,4.908-2.464Zm.75-1.216l-7.33,3.68,7.33,3.68v-7.36Z"/>
            <line class="cls-8"
                  x1="169.2787"
                  y1="89.6014"
                  x2="169.2787"
                  y2="96.9614"/>
            <line class="cls-8"
                  x1="165.9899"
                  y1="89.5501"
                  x2="165.9899"
                  y2="91.5631"/>
            <path class="cls-11"
                  d="m163.0749,90.7625l4.908,2.464-4.908,2.464v-4.928Zm-.75-1.216v7.36l7.33-3.68-7.33-3.68Z"/>
            <g class="cls-18">
               <path class="cls-14"
                     d="m158.6529,99.8126c.551,0,.997.448.997,1s-.446,1-.997,1-.997-.448-.997-1,.446-1,.997-1"/>
               <circle class="cls-8" cx="158.6529" cy="100.8126" r=".997"/>
               <path class="cls-14"
                     d="m173.7806,99.8133c.551,0,.997.448.997,1s-.446,1-.997,1-.997-.448-.997-1,.446-1,.997-1"/>
               <circle class="cls-8" cx="173.7806" cy="100.8133" r=".997"/>
               <rect class="cls-15"
                     x="158.6525"
                     y="63.8058"
                     width="15.128"
                     height="15.171"/>
               <rect class="cls-8"
                     x="158.6525"
                     y="63.8058"
                     width="15.128"
                     height="15.171"/>
               <line class="cls-8"
                     x1="163.6202"
                     y1="82.6563"
                     x2="163.6202"
                     y2="75.2963"/>
               <line class="cls-8"
                     x1="166.5623"
                     y1="82.6563"
                     x2="166.5523"
                     y2="80.3143"/>
               <path class="cls-11"
                     d="m169.8171,76.5123v4.928l-4.908-2.464,4.908-2.464Zm.75-1.216l-7.33,3.68,7.33,3.68v-7.36Z"/>
               <line class="cls-8"
                     x1="169.2787"
                     y1="60.179"
                     x2="169.2787"
                     y2="67.539"/>
               <line class="cls-8"
                     x1="165.9899"
                     y1="60.1277"
                     x2="165.9899"
                     y2="62.1407"/>
               <path class="cls-11"
                     d="m163.0749,61.3401l4.908,2.464-4.908,2.464v-4.928Zm-.75-1.216v7.36l7.33-3.68-7.33-3.68Z"/>
               <path class="cls-14"
                     d="m158.6529,70.3902c.551,0,.997.448.997,1s-.446,1-.997,1-.997-.448-.997-1,.446-1,.997-1"/>
               <circle class="cls-8" cx="158.6529" cy="71.3902" r=".997"/>
               <path class="cls-14"
                     d="m173.7806,70.3909c.551,0,.997.448.997,1s-.446,1-.997,1-.997-.448-.997-1,.446-1,.997-1"/>
               <circle class="cls-8" cx="173.7806" cy="71.3909" r=".997"/>
               <line class="cls-5"
                     x1="188.6611"
                     y1="100.8126"
                     x2="180.6611"
                     y2="100.8126"/>
               <path class="cls-14"
                     d="m180.6611,99.8133c.551,0,.997.448.997,1s-.446,1-.997,1-.997-.448-.997-1,.446-1,.997-1"/>
               <circle class="cls-8" cx="180.6611" cy="100.8133" r=".997"/>
            </g>
         </g>
      </g>
      <text class="cls-39" transform="translate(137.9919 18.6938)">
         <tspan x="0" y="0">STATIC</tspan>
      </text>
      <text class="cls-39" transform="translate(136.3268 30.6936)">
         <tspan x="0" y="0">SWITCH</tspan>
      </text>
      <text class="cls-39" transform="translate(194.5625 18.6938)">
         <tspan x="0" y="0">MANUAL</tspan>
      </text>
      <text class="cls-39" transform="translate(195.6636 30.6938)">
         <tspan x="0" y="0">BYPASS</tspan>
      </text>
   </g>
</svg>
