<?xml version="1.0" encoding="UTF-8"?>
<svg xmlns="http://www.w3.org/2000/svg"
     xmlns:xlink="http://www.w3.org/1999/xlink"
     width="85mm"
     height="25mm"
     viewBox="0 0 240.9449 70.8661">
   <defs>
      <style>
      .cls-1 {
        clip-path: url(#clippath-11);
      }

      .cls-2 {
        clip-path: url(#clippath-16);
      }

      .cls-3 {
        clip-path: url(#clippath-13);
      }

      .cls-4, .cls-5, .cls-6, .cls-7, .cls-8 {
        stroke-width: 0px;
      }

      .cls-9 {
        clip-path: url(#clippath-15);
      }

      .cls-10 {
        clip-path: url(#clippath-6);
      }

      .cls-5, .cls-11, .cls-12 {
        fill: none;
      }

      .cls-13 {
        clip-path: url(#clippath-7);
      }

      .cls-14 {
        clip-path: url(#clippath-1);
      }

      .cls-15 {
        clip-path: url(#clippath-4);
      }

      .cls-11 {
        stroke-width: .75px;
      }

      .cls-11, .cls-12 {
        stroke: #000;
        stroke-miterlimit: 3;
      }

      .cls-12 {
        stroke-width: .6448px;
      }

      .cls-16 {
        clip-path: url(#clippath-12);
      }

      .cls-6, .cls-7 {
        fill: #fff;
      }

      .cls-7 {
        fill-rule: evenodd;
      }

      .cls-17 {
        clip-path: url(#clippath-9);
      }

      .cls-18 {
        clip-path: url(#clippath);
      }

      .cls-19 {
        clip-path: url(#clippath-3);
      }

      .cls-8 {
        fill: #c6c6c6;
      }

      .cls-20 {
        clip-path: url(#clippath-14);
      }

      .cls-21 {
        clip-path: url(#clippath-10);
      }

      .cls-22 {
        fill: #01889C;
        font-family: Arial-BoldMT, Arial;
        font-size: 10px;
        font-weight: 700;
      }
    </style>
      <clipPath id="clippath">
         <rect class="cls-5"
               x="109.5494"
               y="27.9479"
               width="32.2419"
               height="36.1109"/>
      </clipPath>
      <clipPath id="clippath-1">
         <rect class="cls-5"
               x="109.5494"
               y="27.9479"
               width="32.2419"
               height="36.1109"/>
      </clipPath>
      <clipPath id="clippath-3">
         <rect class="cls-5"
               x="106.5494"
               y="25.9479"
               width="32.2419"
               height="36.1109"/>
      </clipPath>
      <clipPath id="clippath-4">
         <rect class="cls-5"
               x="106.5494"
               y="25.9479"
               width="32.2419"
               height="36.1109"/>
      </clipPath>
      <clipPath id="clippath-6">
         <rect class="cls-5"
               x="103.5494"
               y="23.9479"
               width="32.2419"
               height="36.1109"/>
      </clipPath>
      <clipPath id="clippath-7">
         <rect class="cls-5"
               x="103.5494"
               y="23.9479"
               width="32.2419"
               height="36.1109"/>
      </clipPath>
      <clipPath id="clippath-9">
         <rect class="cls-5"
               x="198.6238"
               y="40.9474"
               width="6.125"
               height="6.125"/>
      </clipPath>
      <clipPath id="clippath-10">
         <rect class="cls-5"
               x="198.6238"
               y="40.9474"
               width="6.125"
               height="6.125"/>
      </clipPath>
      <clipPath id="clippath-11">
         <rect class="cls-5"
               x="40.551"
               y="40.9474"
               width="6.125"
               height="6.125"/>
      </clipPath>
      <clipPath id="clippath-12">
         <rect class="cls-5"
               x="40.551"
               y="40.9474"
               width="6.125"
               height="6.125"/>
      </clipPath>
      <clipPath id="clippath-13">
         <rect class="cls-5"
               x="67.591"
               y="35.8757"
               width="16.63"
               height="16.2683"/>
      </clipPath>
      <clipPath id="clippath-14">
         <rect class="cls-5"
               x="67.591"
               y="35.876"
               width="16.63"
               height="16.268"/>
      </clipPath>
      <clipPath id="clippath-15">
         <rect class="cls-5"
               x="161.1744"
               y="35.8757"
               width="16.63"
               height="16.2683"/>
      </clipPath>
      <clipPath id="clippath-16">
         <rect class="cls-5"
               x="161.1744"
               y="35.876"
               width="16.63"
               height="16.268"/>
      </clipPath>
   </defs>
   <g id="Paths">
      <g>
         <polygon class="cls-8"
                  points="45.2452 46.3402 41.8777 46.3402 45.4996 41.8037 48.8672 41.8037 45.2452 46.3402"/>
         <polygon class="cls-8"
                  points="52.3089 46.3402 48.9414 46.3402 52.5633 41.8037 55.9309 41.8037 52.3089 46.3402"/>
         <polygon class="cls-8"
                  points="59.3726 46.3402 56.005 46.3402 59.627 41.8037 62.9946 41.8037 59.3726 46.3402"/>
         <polygon class="cls-8"
                  points="66.4363 46.3402 63.0688 46.3402 66.6907 41.8037 70.0583 41.8037 66.4363 46.3402"/>
      </g>
   </g>
   <g id="Text">
      <path class="cls-11" d="M162.0694,44.0719h-78.8592"/>
      <path class="cls-11" d="M201.6863,44.0719h-24.8669"/>
      <path class="cls-11" d="M68.3225,44.0719h-24.709"/>
      <g id="Rectifier">
         <g class="cls-18">
            <rect class="cls-6"
                  x="110.3514"
                  y="30.5281"
                  width="30.9522"
                  height="30.9522"/>
            <g class="cls-14">
               <rect class="cls-12"
                     x="110.1951"
                     y="30.5281"
                     width="30.9522"
                     height="30.9522"/>
               <line class="cls-12"
                     x1="141.1449"
                     y1="30.526"
                     x2="110.1935"
                     y2="61.4783"/>
            </g>
            <line class="cls-12"
                  x1="137.762"
                  y1="54.707"
                  x2="129.0609"
                  y2="54.707"/>
            <line class="cls-12"
                  x1="131.1096"
                  y1="56.6415"
                  x2="129.0616"
                  y2="56.6415"/>
            <line class="cls-12"
                  x1="134.4357"
                  y1="56.6415"
                  x2="132.3877"
                  y2="56.6415"/>
            <line class="cls-12"
                  x1="137.762"
                  y1="56.6415"
                  x2="135.714"
                  y2="56.6415"/>
            <line class="cls-12"
                  x1="121.8365"
                  y1="35.0422"
                  x2="113.1355"
                  y2="35.0422"/>
            <line class="cls-12"
                  x1="115.1841"
                  y1="36.9767"
                  x2="113.1361"
                  y2="36.9767"/>
            <line class="cls-12"
                  x1="118.5103"
                  y1="36.9678"
                  x2="116.4623"
                  y2="36.9678"/>
            <line class="cls-12"
                  x1="121.8365"
                  y1="36.9678"
                  x2="119.7885"
                  y2="36.9678"/>
         </g>
      </g>
      <g id="Rectifier-2" data-name="Rectifier">
         <g class="cls-19">
            <rect class="cls-6"
                  x="107.3514"
                  y="28.5281"
                  width="30.9522"
                  height="30.9522"/>
            <g class="cls-15">
               <rect class="cls-12"
                     x="107.1951"
                     y="28.5281"
                     width="30.9522"
                     height="30.9522"/>
               <line class="cls-12"
                     x1="138.1449"
                     y1="28.526"
                     x2="107.1935"
                     y2="59.4783"/>
            </g>
            <line class="cls-12"
                  x1="134.762"
                  y1="52.707"
                  x2="126.0609"
                  y2="52.707"/>
            <line class="cls-12"
                  x1="128.1096"
                  y1="54.6415"
                  x2="126.0616"
                  y2="54.6415"/>
            <line class="cls-12"
                  x1="131.4357"
                  y1="54.6415"
                  x2="129.3877"
                  y2="54.6415"/>
            <line class="cls-12"
                  x1="134.762"
                  y1="54.6415"
                  x2="132.714"
                  y2="54.6415"/>
            <line class="cls-12"
                  x1="118.8365"
                  y1="33.0422"
                  x2="110.1355"
                  y2="33.0422"/>
            <line class="cls-12"
                  x1="112.1841"
                  y1="34.9767"
                  x2="110.1361"
                  y2="34.9767"/>
            <line class="cls-12"
                  x1="115.5103"
                  y1="34.9678"
                  x2="113.4623"
                  y2="34.9678"/>
            <line class="cls-12"
                  x1="118.8365"
                  y1="34.9678"
                  x2="116.7885"
                  y2="34.9678"/>
         </g>
      </g>
      <g id="Rectifier-3" data-name="Rectifier">
         <g class="cls-10">
            <rect class="cls-6"
                  x="104.3514"
                  y="26.5281"
                  width="30.9522"
                  height="30.9522"/>
            <g class="cls-13">
               <rect class="cls-12"
                     x="104.1951"
                     y="26.5281"
                     width="30.9522"
                     height="30.9522"/>
               <line class="cls-12"
                     x1="135.1449"
                     y1="26.526"
                     x2="104.1935"
                     y2="57.4783"/>
            </g>
            <line class="cls-12"
                  x1="131.762"
                  y1="50.707"
                  x2="123.0609"
                  y2="50.707"/>
            <line class="cls-12"
                  x1="125.1096"
                  y1="52.6415"
                  x2="123.0616"
                  y2="52.6415"/>
            <line class="cls-12"
                  x1="128.4357"
                  y1="52.6415"
                  x2="126.3877"
                  y2="52.6415"/>
            <line class="cls-12"
                  x1="131.762"
                  y1="52.6415"
                  x2="129.714"
                  y2="52.6415"/>
            <line class="cls-12"
                  x1="115.8365"
                  y1="31.0422"
                  x2="107.1355"
                  y2="31.0422"/>
            <line class="cls-12"
                  x1="109.1841"
                  y1="32.9767"
                  x2="107.1361"
                  y2="32.9767"/>
            <line class="cls-12"
                  x1="112.5103"
                  y1="32.9678"
                  x2="110.4623"
                  y2="32.9678"/>
            <line class="cls-12"
                  x1="115.8365"
                  y1="32.9678"
                  x2="113.7885"
                  y2="32.9678"/>
         </g>
      </g>
      <g id="Artwork_13" data-name="Artwork 13">
         <g class="cls-17">
            <g class="cls-21">
               <path class="cls-7"
                     d="M201.6862,42.0103c1.104,0,2,.896,2,2s-.896,2-2,2-2-.896-2-2,.896-2,2-2"/>
               <circle class="cls-11" cx="201.6862" cy="44.0103" r="2"/>
            </g>
         </g>
      </g>
      <g id="Artwork_13-2" data-name="Artwork 13">
         <g class="cls-1">
            <g class="cls-16">
               <path class="cls-7"
                     d="M43.6134,42.0103c1.104,0,2,.896,2,2s-.896,2-2,2-2-.896-2-2,.896-2,2-2"/>
               <circle class="cls-11" cx="43.6134" cy="44.0103" r="2"/>
            </g>
         </g>
      </g>
      <g id="Artwork_20_no_white" data-name="Artwork 20 no white">
         <g class="cls-3">
            <g class="cls-20">
               <line class="cls-11"
                     x1="68.5911"
                     y1="50.7872"
                     x2="83.2211"
                     y2="44.0212"/>
               <path class="cls-4"
                     d="M83.221,45.0255h0c-.55,0-1-.45-1-1,0-.551.45-1,1-1s1,.449,1,1c0,.55-.45,1-1,1"/>
               <path class="cls-4"
                     d="M68.5911,45.0255h0c-.55,0-1-.45-1-1,0-.551.45-1,1-1s1,.449,1,1c0,.55-.45,1-1,1"/>
            </g>
         </g>
      </g>
      <g id="Artwork_20_no_white-2" data-name="Artwork 20 no white">
         <g class="cls-9">
            <g class="cls-2">
               <line class="cls-11"
                     x1="162.1745"
                     y1="50.7872"
                     x2="176.8045"
                     y2="44.0212"/>
               <path class="cls-4"
                     d="M176.8044,45.0255h0c-.55,0-1-.45-1-1,0-.551.45-1,1-1s1,.449,1,1c0,.55-.45,1-1,1"/>
               <path class="cls-4"
                     d="M162.1745,45.0255h0c-.55,0-1-.45-1-1,0-.551.45-1,1-1s1,.449,1,1c0,.55-.45,1-1,1"/>
            </g>
         </g>
      </g>
      <text class="cls-22" transform="translate(106.4317 10.7327)">
         <tspan x="0" y="0">DC/DC</tspan>
      </text>
      <text class="cls-22" transform="translate(90.8727 22.8528)">
         <tspan x="0" y="0">CONVERTER</tspan>
      </text>
      <text class="cls-22" transform="translate(181.1322 34.0094)">
         <tspan x="0" y="0">OUTPUT</tspan>
      </text>
      <text class="cls-22" transform="translate(20.0023 34.0094)">
         <tspan x="0" y="0">DC INPUT</tspan>
      </text>
   </g>
</svg>
