<?xml version="1.0" encoding="UTF-8"?>
<!-- Generator: Adobe Illustrator 23.0.3, SVG Export Plug-In . SVG Version: 6.00 Build 0)  -->
<svg xmlns="http://www.w3.org/2000/svg" xmlns:xlink="http://www.w3.org/1999/xlink" version="1.1" x="0px" y="0px" width="464.4px" height="355.1px" viewBox="0 0 464.4 355.1" style="enable-background:new 0 0 464.4 355.1;" xml:space="preserve">
<style type="text/css">
	.st0{fill:none;stroke:#01889C;stroke-miterlimit:10;}
	.st1{fill:none;stroke:#9FA0A4;stroke-miterlimit:10;}
	.st2{fill:none;}
	.st3{fill:#9FA0A4;}
	.st4{font-family:'Arial-BoldMT';}
	.st5{font-size:11px;}
	.st6{fill:#01889C;}
	.st7{fill:#FFFFFF;}
	.st8{font-family:'ArialMT';}
	.st9{fill:#01889C;}
	.st10{fill:#76787C;}
	.st11{display:none;}
	.st12{display:inline;fill:none;}
	.st13{display:inline;}
	.st14{fill:#626469;}
	.st15{fill:#56D36D;}
	.st16{fill:#5ABEE9;}
	.st17{display:inline;fill:none;stroke:#01889C;stroke-width:2;stroke-miterlimit:10;}
	.st18{clip-path:url(#SVGID_2_);}
	.st19{fill:none;stroke:#01889C;stroke-miterlimit:10;}
	.st20{fill:none;stroke:#01889C;stroke-width:3;stroke-miterlimit:10;stroke-dasharray:6,3;}
	.st21{fill:none;stroke:#01889C;stroke-width:3;stroke-miterlimit:10;stroke-dasharray:6,3;}
</style>
<g id="Layer_4">
	<path class="st0" d="M440.3,186.2h-415c-1.7,0-3-1.3-3-3v-139c0-1.7,1.3-3,3-3h415c1.7,0,3,1.3,3,3v139   C443.3,184.8,441.9,186.2,440.3,186.2z"/>
	<path class="st1" d="M454.3,196.2h-293c-1.6,0-3,1.3-3,3l-1,145.9c0,1.6-1.4,3-3,3h-144c-1.7,0-3-1.3-3-3V10.2c0-1.7,1.3-3,3-3h444   c1.7,0,3,1.3,3,3v183C457.3,194.8,455.9,196.2,454.3,196.2z"/>
	<rect x="12" y="12.4" class="st2" width="211" height="16.3"/>
	<text transform="matrix(1 0 0 1 12.0002 20.2664)" class="st3 st4 st5">The UPS or Inverter System </text>
	<rect x="27" y="46.4" class="st2" width="257.2" height="16.3"/>
	<text transform="matrix(1 0 0 1 27.0002 54.2664)" class="st6 st4 st5">The Network Monitoring System </text>
</g>
<g id="Boards">
	<g>
		<path class="st6" d="M40.8,165.3c-2.5,0-4.5-2-4.5-4.5v-90c0-2.5,2-4.5,4.5-4.5h90c2.5,0,4.5,2,4.5,4.5v90c0,2.5-2,4.5-4.5,4.5    H40.8z"/>
		<path class="st6" d="M130.8,66.8c2.2,0,4,1.8,4,4v90c0,2.2-1.8,4-4,4h-90c-2.2,0-4-1.8-4-4v-90c0-2.2,1.8-4,4-4H130.8 M130.8,65.8    h-90c-2.8,0-5,2.2-5,5v90c0,2.8,2.2,5,5,5h90c2.8,0,5-2.2,5-5v-90C135.8,68,133.5,65.8,130.8,65.8L130.8,65.8z"/>
	</g>
	<g>
		<path class="st3" d="M130.8,327h-90c-2.8,0-5-2.2-5-5v-90c0-2.8,2.2-5,5-5h90c2.8,0,5,2.2,5,5v90C135.8,324.7,133.5,327,130.8,327    z"/>
	</g>
	<g>
		<path class="st6" d="M187.8,165.3c-2.5,0-4.5-2-4.5-4.5v-90c0-2.5,2-4.5,4.5-4.5h90c2.5,0,4.5,2,4.5,4.5v90c0,2.5-2,4.5-4.5,4.5    H187.8z"/>
		<path class="st6" d="M277.8,66.8c2.2,0,4,1.8,4,4v90c0,2.2-1.8,4-4,4h-90c-2.2,0-4-1.8-4-4v-90c0-2.2,1.8-4,4-4H277.8 M277.8,65.8    h-90c-2.8,0-5,2.2-5,5v90c0,2.8,2.2,5,5,5h90c2.8,0,5-2.2,5-5v-90C282.8,68,280.5,65.8,277.8,65.8L277.8,65.8z"/>
	</g>
	<g>
		<path class="st6" d="M334.8,110.7c-2.5,0-4.5-2-4.5-4.5v-35c0-2.5,2-4.5,4.5-4.5h90c2.5,0,4.5,2,4.5,4.5v35c0,2.5-2,4.5-4.5,4.5    H334.8z"/>
		<path class="st6" d="M424.8,67.2c2.2,0,4,1.8,4,4v35c0,2.2-1.8,4-4,4h-90c-2.2,0-4-1.8-4-4v-35c0-2.2,1.8-4,4-4H424.8 M424.8,66.2    h-90c-2.8,0-5,2.2-5,5v35c0,2.8,2.2,5,5,5h90c2.8,0,5-2.2,5-5v-35C429.8,68.4,427.5,66.2,424.8,66.2L424.8,66.2z"/>
	</g>
	<g>
		<path class="st6" d="M334.8,165.7c-2.5,0-4.5-2-4.5-4.5v-35c0-2.5,2-4.5,4.5-4.5h90c2.5,0,4.5,2,4.5,4.5v35c0,2.5-2,4.5-4.5,4.5    H334.8z"/>
		<path class="st6" d="M424.8,122.2c2.2,0,4,1.8,4,4v35c0,2.2-1.8,4-4,4h-90c-2.2,0-4-1.8-4-4v-35c0-2.2,1.8-4,4-4H424.8     M424.8,121.2h-90c-2.8,0-5,2.2-5,5v35c0,2.8,2.2,5,5,5h90c2.8,0,5-2.2,5-5v-35C429.8,123.4,427.5,121.2,424.8,121.2L424.8,121.2z    "/>
	</g>
</g>
<g id="Layer_2">
	<rect x="43.8" y="101.6" class="st2" width="87" height="21.2"/>
	<text transform="matrix(1 0 0 1 49.0461 109.4283)"><tspan x="0" y="0" class="st7 st8 st5">Communication </tspan><tspan x="16.8" y="11" class="st7 st8 st5">Interface</tspan></text>
	<rect x="43.3" y="266.8" class="st2" width="87" height="21.2"/>
	<text transform="matrix(1 0 0 1 62.9138 274.6438)"><tspan x="0" y="0" class="st7 st8 st5">Controller</tspan><tspan x="9.2" y="11" class="st7 st8 st5">Board</tspan></text>
	<rect x="189.8" y="101.6" class="st2" width="87" height="21.2"/>
	<text transform="matrix(1 0 0 1 207.5823 109.4283)"><tspan x="0" y="0" class="st7 st8 st5">Smart Slot </tspan><tspan x="0.9" y="11" class="st7 st8 st5">Translator</tspan></text>
	<rect x="336.8" y="129" class="st2" width="87" height="31.3"/>
	<text transform="matrix(1 0 0 1 360.0852 136.8901)"><tspan x="0" y="0" class="st7 st8 st5">Network </tspan><tspan x="-11.9" y="11" class="st7 st8 st5">Management </tspan><tspan x="8.3" y="22" class="st7 st8 st5">Card</tspan></text>
	<rect x="336.8" y="80.9" class="st2" width="87" height="21.6"/>
	<text transform="matrix(1 0 0 1 361.3015 88.7666)"><tspan x="0" y="0" class="st7 st8 st5">Options</tspan><tspan x="9.5" y="11" class="st7 st8 st5">Slot</tspan></text>
</g>
<g id="Signals">
	<g>
		<line class="st9" x1="136.8" y1="112.2" x2="181.8" y2="112.2"/>
		<g>
			<g>
				<polygon class="st10" points="136.8,114.1 172.6,114.1 172.6,117.4 181.8,112.2 172.6,106.9 172.6,110.3 136.8,110.3     "/>
			</g>
		</g>
	</g>
	<g>
		<line class="st9" x1="283.8" y1="96.2" x2="328.8" y2="96.2"/>
		<g>
			<g>
				<polygon class="st10" points="283.8,98.1 319.6,98.1 319.6,101.4 328.8,96.2 319.6,90.9 319.6,94.3 283.8,94.3     "/>
			</g>
		</g>
	</g>
	<g>
		<line class="st9" x1="328.8" y1="82.2" x2="283.8" y2="82.2"/>
		<g>
			<g>
				<polygon class="st10" points="328.8,80.3 292.9,80.3 292.9,76.9 283.8,82.2 292.9,87.4 292.9,84.1 328.8,84.1     "/>
			</g>
		</g>
	</g>
	<g>
		<line class="st9" x1="328.8" y1="137.2" x2="283.8" y2="137.2"/>
		<g>
			<g>
				<polygon class="st10" points="328.8,135.3 292.9,135.3 292.9,131.9 283.8,137.2 292.9,142.4 292.9,139.1 328.8,139.1     "/>
			</g>
		</g>
	</g>
	<g>
		<line class="st9" x1="284.8" y1="151.2" x2="329.8" y2="151.2"/>
		<g>
			<g>
				<polygon class="st10" points="284.8,153.1 320.6,153.1 320.6,156.4 329.8,151.2 320.6,145.9 320.6,149.3 284.8,149.3     "/>
			</g>
		</g>
	</g>
</g>
<g id="Layer_5" class="st11">
	<rect x="188.8" y="272.1" class="st12" width="87" height="55"/>
	<text transform="matrix(1 0 0 1 208.1077 279.9979)" class="st13"><tspan x="0" y="0" class="st14 st8 st5">Computer</tspan><tspan x="-1.2" y="13.2" class="st14 st8 st5">connected</tspan><tspan x="-4.6" y="26.4" class="st14 st8 st5">directly with</tspan><tspan x="6.4" y="39.6" class="st14 st8 st5">a cable</tspan></text>
	<rect x="335.8" y="272.1" class="st12" width="87" height="55"/>
	<text transform="matrix(1 0 0 1 355.1077 279.9979)" class="st13"><tspan x="0" y="0" class="st14 st8 st5">Computer </tspan><tspan x="-1.2" y="13.2" class="st14 st8 st5">connected</tspan><tspan x="2.7" y="26.4" class="st14 st8 st5"> over the</tspan><tspan x="4.3" y="39.6" class="st14 st8 st5"> internet</tspan></text>
	<g class="st13">
		<path class="st9" d="M277.8,250.1c2.2,0,4,1.8,4,4v90c0,2.2-1.8,4-4,4h-90c-2.2,0-4-1.8-4-4v-90c0-2.2,1.8-4,4-4H277.8     M277.8,249.1h-90c-2.8,0-5,2.2-5,5v90c0,2.8,2.2,5,5,5h90c2.8,0,5-2.2,5-5v-90C282.8,251.4,280.5,249.1,277.8,249.1L277.8,249.1z    "/>
	</g>
	<g class="st13">
		<path class="st9" d="M424.8,250.1c2.2,0,4,1.8,4,4v90c0,2.2-1.8,4-4,4h-90c-2.2,0-4-1.8-4-4v-90c0-2.2,1.8-4,4-4H424.8     M424.8,249.1h-90c-2.8,0-5,2.2-5,5v90c0,2.8,2.2,5,5,5h90c2.8,0,5-2.2,5-5v-90C429.8,251.4,427.5,249.1,424.8,249.1L424.8,249.1z    "/>
	</g>
	<g class="st13">
		<line class="st9" x1="227.8" y1="248.1" x2="227.8" y2="200.1"/>
		<g>
			<g>
				<polygon class="st15" points="229.2,248.1 229.2,207 231.7,207 227.8,200.1 223.8,207 226.3,207 226.3,248.1     "/>
			</g>
		</g>
	</g>
	<g class="st13">
		<line class="st9" x1="237.8" y1="200.1" x2="237.8" y2="248.1"/>
		<g>
			<g>
				<polygon class="st16" points="236.3,200.1 236.3,241.3 233.8,241.3 237.8,248.1 241.7,241.3 239.2,241.3 239.2,200.1     "/>
			</g>
		</g>
	</g>
	<g class="st13">
		<line class="st9" x1="374.8" y1="248.1" x2="374.8" y2="200.1"/>
		<g>
			<g>
				<polygon class="st15" points="376.2,248.1 376.2,207 378.7,207 374.8,200.1 370.8,207 373.3,207 373.3,248.1     "/>
			</g>
		</g>
	</g>
	<g class="st13">
		<line class="st9" x1="384.8" y1="200.1" x2="384.8" y2="248.1"/>
		<g>
			<g>
				<polygon class="st16" points="383.3,200.1 383.3,241.3 380.8,241.3 384.8,248.1 388.7,241.3 386.2,241.3 386.2,200.1     "/>
			</g>
		</g>
	</g>
</g>
<g id="Layer_6" class="st11">
	<path class="st17" d="M256.2,284.5h-45c-1.1,0-2-0.9-2-2v-29.4c0-1.1,0.9-2,2-2h45c1.1,0,2,0.9,2,2v29.4   C258.2,283.6,257.3,284.5,256.2,284.5z"/>
	<path class="st17" d="M265.3,302.2h-63.2c-0.8,0-1.4-0.6-1.4-1.4l7.1-14.9c0.7-1.4,0.6-1.4,1.4-1.4h49c0.8,0,0.7,0,1.4,1.4   l7.1,14.9C266.8,301.6,266.1,302.2,265.3,302.2z"/>
	<path class="st17" d="M403.2,353.5h-45c-1.1,0-2-0.9-2-2v-29.4c0-1.1,0.9-2,2-2h45c1.1,0,2,0.9,2,2v29.4   C405.2,352.6,404.3,353.5,403.2,353.5z"/>
	<path class="st17" d="M412.3,371.2h-63.2c-0.8,0-1.4-0.6-1.4-1.4l7.1-14.9c0.7-1.4,0.6-1.4,1.4-1.4h49c0.8,0,0.7,0,1.4,1.4   l7.1,14.9C413.8,370.6,413.1,371.2,412.3,371.2z"/>
	<g class="st13">
		<defs>
			<circle id="SVGID_1_" cx="380.3" cy="255.6" r="20.5"/>
		</defs>
		<clipPath id="SVGID_2_">
			<use xlink:href="#SVGID_1_" style="overflow:visible;"/>
		</clipPath>
		<g class="st18">
			<path class="st19" d="M400.8,254.1c0,3.3-9.2,6-20.5,6s-20.5-2.7-20.5-6"/>
			<path class="st19" d="M400.8,244.1c0,3.3-9.2,6-20.5,6s-20.5-2.7-20.5-6"/>
			<path class="st19" d="M401.8,257.9c0,5.2-9.6,9.4-21.5,9.4s-21.5-4.2-21.5-9.4"/>
			<path class="st19" d="M399.8,263.7c0,4.8-8.7,8.7-19.5,8.7s-19.5-3.9-19.5-8.7"/>
			<path class="st19" d="M396.8,239.1c0,2.4-7.4,4.4-16.5,4.4s-16.5-2-16.5-4.4"/>
			<path class="st19" d="M391.8,235.5c0,1.3-5.1,2.4-11.5,2.4c-6.4,0-11.5-1.1-11.5-2.4"/>
			<path class="st19" d="M380,235.2c3.2,0,5.7,10.7,5.7,24c0,13.2-2.6,24-5.7,24"/>
			<path class="st19" d="M379.8,235c7.7,0,14,10.8,14,24s-6.3,24-14,24"/>
			<path class="st19" d="M380.3,235c9.7,0,17.5,10.8,17.5,24s-7.8,24-17.5,24"/>
			<path class="st19" d="M380.5,235.2c-3.2,0-5.7,10.7-5.7,24c0,13.2,2.6,24,5.7,24"/>
			<path class="st19" d="M380.8,235c-7.7,0-14,10.8-14,24s6.3,24,14,24"/>
			<path class="st19" d="M380.3,235c-9.7,0-17.5,10.8-17.5,24s7.8,24,17.5,24"/>
		</g>
		<use xlink:href="#SVGID_1_" style="overflow:visible;fill:none;stroke:#01889C;stroke-miterlimit:10;"/>
	</g>
	<circle class="st17" cx="380.3" cy="254.6" r="20.5"/>
	<g class="st13">
		<line class="st9" x1="227.8" y1="248.1" x2="227.8" y2="200.1"/>
		<g>
			<g>
				<polygon class="st15" points="229.2,248.1 229.2,207 231.7,207 227.8,200.1 223.8,207 226.3,207 226.3,248.1     "/>
			</g>
		</g>
	</g>
	<g class="st13">
		<line class="st9" x1="237.8" y1="200.1" x2="237.8" y2="248.1"/>
		<g>
			<g>
				<polygon class="st16" points="236.3,200.1 236.3,241.3 233.8,241.3 237.8,248.1 241.7,241.3 239.2,241.3 239.2,200.1     "/>
			</g>
		</g>
	</g>
	<g class="st13">
		<line class="st9" x1="384.8" y1="200.1" x2="384.8" y2="232.1"/>
		<g>
			<line class="st20" x1="384.8" y1="200.1" x2="384.8" y2="226.5"/>
			<g>
				<polygon class="st9" points="380.9,225.4 384.8,232.1 388.6,225.4     "/>
			</g>
		</g>
	</g>
	<g class="st13">
		<line class="st9" x1="374.8" y1="232.1" x2="374.8" y2="200.1"/>
		<g>
			<line class="st21" x1="374.8" y1="232.1" x2="374.8" y2="205.7"/>
			<g>
				<polygon class="st6" points="378.6,206.9 374.8,200.1 370.9,206.9     "/>
			</g>
		</g>
	</g>
	<g class="st13">
		<line class="st9" x1="385.3" y1="279.1" x2="385.3" y2="311.1"/>
		<g>
			<line class="st20" x1="385.3" y1="279.1" x2="385.3" y2="305.5"/>
			<g>
				<polygon class="st9" points="381.4,304.4 385.3,311.1 389.1,304.4     "/>
			</g>
		</g>
	</g>
	<g class="st13">
		<line class="st9" x1="375.3" y1="311.1" x2="375.3" y2="279.1"/>
		<g>
			<line class="st21" x1="375.3" y1="311.1" x2="375.3" y2="284.7"/>
			<g>
				<polygon class="st6" points="379.1,285.9 375.3,279.1 371.4,285.9     "/>
			</g>
		</g>
	</g>
</g>
<g id="Layer_7">
	<g>
		<g>
			<path class="st3" d="M251.4,224.2v23.5h-37.3v-23.5H251.4 M252.4,221.2h-39.3c-1.1,0-2,0.9-2,2v25.5c0,1.1,0.9,2,2,2h39.3     c1.1,0,2-0.9,2-2v-25.5C254.4,222.1,253.5,221.2,252.4,221.2L252.4,221.2z"/>
		</g>
		<path class="st3" d="M260.7,266.3h-55.8c-0.7,0-1.3-0.6-1.3-1.3l6.3-13.2c0.6-1.3,0.6-1.3,1.3-1.3h43.3c0.7,0,0.6,0,1.3,1.3    l6.3,13.2C261.9,265.7,261.4,266.3,260.7,266.3z"/>
	</g>
	<g>
		<g>
			<path class="st3" d="M434.2,305.8v23.5H397v-23.5H434.2 M435.2,302.8H396c-1.1,0-2,0.9-2,2v25.5c0,1.1,0.9,2,2,2h39.3     c1.1,0,2-0.9,2-2v-25.5C437.2,303.7,436.3,302.8,435.2,302.8L435.2,302.8z"/>
		</g>
		<path class="st3" d="M443.5,348h-55.8c-0.7,0-1.3-0.6-1.3-1.3l6.3-13.2c0.6-1.3,0.6-1.3,1.3-1.3h43.3c0.7,0,0.6,0,1.3,1.3    l6.3,13.2C444.7,347.4,444.2,348,443.5,348z"/>
	</g>
	<g>
		<line class="st9" x1="225.8" y1="215.2" x2="225.8" y2="167.2"/>
		<g>
			<g>
				<polygon class="st10" points="227.7,215.2 227.7,176.3 231,176.3 225.8,167.2 220.5,176.3 223.9,176.3 223.9,215.2     "/>
			</g>
		</g>
	</g>
	<g>
		<line class="st9" x1="85.8" y1="226" x2="85.8" y2="167.2"/>
		<g>
			<g>
				<polygon class="st10" points="87.7,226 87.7,176.3 91,176.3 85.8,167.2 80.5,176.3 83.9,176.3 83.9,226     "/>
			</g>
		</g>
	</g>
	<g>
		<line class="st9" x1="239.8" y1="167.2" x2="239.8" y2="215.2"/>
		<g>
			<g>
				<polygon class="st10" points="237.9,167.2 237.9,206 234.5,206 239.8,215.2 245,206 241.7,206 241.7,167.2     "/>
			</g>
		</g>
	</g>
	<g>
		<g>
			<path class="st3" d="M362.9,224.2v23.5h-37.3v-23.5H362.9 M363.9,221.2h-39.3c-1.1,0-2,0.9-2,2v25.5c0,1.1,0.9,2,2,2h39.3     c1.1,0,2-0.9,2-2v-25.5C365.9,222.1,365,221.2,363.9,221.2L363.9,221.2z"/>
		</g>
		<path class="st3" d="M372.2,266.3h-55.8c-0.7,0-1.3-0.6-1.3-1.3l6.3-13.2c0.6-1.3,0.6-1.3,1.3-1.3h43.3c0.7,0,0.6,0,1.3,1.3    l6.3,13.2C373.4,265.7,372.8,266.3,372.2,266.3z"/>
	</g>
	<g>
		<line class="st9" x1="337.2" y1="215.2" x2="337.2" y2="167.2"/>
		<g>
			<g>
				<polygon class="st10" points="339.2,215.2 339.2,176.3 342.5,176.3 337.2,167.2 332,176.3 335.3,176.3 335.3,215.2     "/>
			</g>
		</g>
	</g>
	<g>
		<line class="st9" x1="351.2" y1="167.2" x2="351.2" y2="215.2"/>
		<g>
			<g>
				<polygon class="st10" points="349.3,167.2 349.3,206 346,206 351.2,215.2 356.5,206 353.2,206 353.2,167.2     "/>
			</g>
		</g>
	</g>
	<g>
		<line class="st9" x1="408.6" y1="215.2" x2="408.6" y2="167.2"/>
		<g>
			<g>
				<polygon class="st10" points="410.5,215.2 410.5,176.3 413.8,176.3 408.6,167.2 403.3,176.3 406.7,176.3 406.7,215.2     "/>
			</g>
		</g>
	</g>
	<g>
		<line class="st9" x1="422.6" y1="167.2" x2="422.6" y2="215.2"/>
		<g>
			<g>
				<polygon class="st10" points="420.7,167.2 420.7,206 417.3,206 422.6,215.2 427.8,206 424.5,206 424.5,167.2     "/>
			</g>
		</g>
	</g>
	<g>
		<line class="st9" x1="408.6" y1="299.9" x2="408.6" y2="270"/>
		<g>
			<g>
				<polygon class="st10" points="410.5,299.9 410.5,279.1 413.8,279.1 408.6,270 403.3,279.1 406.7,279.1 406.7,299.9     "/>
			</g>
		</g>
	</g>
	<g>
		<line class="st9" x1="422.6" y1="270" x2="422.6" y2="299.9"/>
		<g>
			<g>
				<polygon class="st10" points="420.7,270 420.7,290.8 417.3,290.8 422.6,299.9 427.8,290.8 424.5,290.8 424.5,270     "/>
			</g>
		</g>
	</g>
	<g>
		<g>
			<g>
				<path class="st3" d="M398.3,232.6l11.3,6.3v27.8l-11.3-6.3V232.6 M397.5,231.3v29.5l12.8,7.1v-29.5L397.5,231.3L397.5,231.3z"/>
			</g>
			<g>
				<path class="st3" d="M431.9,224.7v27.6l-20.8,14.3v-27.7L431.9,224.7 M432.6,223.2l-22.3,15.2V268l22.3-15.4V223.2L432.6,223.2z      "/>
			</g>
			<g>
				<path class="st3" d="M420.5,217l10.7,6.3l-20.9,14.3l-11.3-6.3L420.5,217 M420.5,216.2l-23,15.2l12.8,7.1l22.3-15.2L420.5,216.2      L420.5,216.2z"/>
			</g>
			<g>
				<path class="st3" d="M420.5,217.6l10.9,6.3v28l-21.1,14.5l-11.5-6.4V232L420.5,217.6 M420.5,216.2l-23,15.2v29.5l12.8,7.1      l22.3-15.4v-29.4L420.5,216.2L420.5,216.2z"/>
			</g>
		</g>
		<g>
			<polygon class="st9" points="402.7,238.2 402.7,237.6 408.3,240.7 408.3,241.3    "/>
			<polygon class="st3" points="402.3,237 402.3,238.4 408.6,242 408.6,240.5 402.3,237    "/>
		</g>
		<g>
			<polygon class="st9" points="400,237.4 400,236.2 400.9,236.7 400.9,237.9    "/>
			<path class="st3" d="M400.4,236.8l0.2,0.1v0.4l-0.2-0.1V236.8 M399.6,235.6v2.1l1.7,0.9v-2.1L399.6,235.6L399.6,235.6z"/>
		</g>
		<g>
			<polygon class="st9" points="402.7,248.2 402.7,247.6 408.3,250.7 408.3,251.3    "/>
			<polygon class="st3" points="402.3,247 402.3,248.4 408.6,252 408.6,250.5 402.3,247    "/>
		</g>
		<g>
			<polygon class="st9" points="400,247.4 400,246.2 400.9,246.7 400.9,247.9    "/>
			<path class="st3" d="M400.4,246.8l0.2,0.1v0.4l-0.2-0.1V246.8 M399.6,245.6v2.1l1.7,0.9v-2.1L399.6,245.6L399.6,245.6z"/>
		</g>
		<g>
			<polygon class="st9" points="402.7,243.2 402.7,242.6 408.3,245.7 408.3,246.3    "/>
			<polygon class="st3" points="402.3,242 402.3,243.4 408.6,247 408.6,245.5 402.3,242    "/>
		</g>
		<g>
			<polygon class="st9" points="400,242.4 400,241.2 400.9,241.7 400.9,242.9    "/>
			<path class="st3" d="M400.4,241.8l0.2,0.1v0.4l-0.2-0.1V241.8 M399.6,240.6v2.1l1.7,0.9v-2.1L399.6,240.6L399.6,240.6z"/>
		</g>
		<g>
			<polygon class="st9" points="402.7,253.2 402.7,252.6 408.3,255.7 408.3,256.3    "/>
			<polygon class="st3" points="402.3,252 402.3,253.4 408.6,257 408.6,255.5 402.3,252    "/>
		</g>
		<g>
			<polygon class="st9" points="400,252.4 400,251.2 400.9,251.7 400.9,252.9    "/>
			<path class="st3" d="M400.4,251.8l0.2,0.1v0.4l-0.2-0.1V251.8 M399.6,250.6v2.1l1.7,0.9v-2.1L399.6,250.6L399.6,250.6z"/>
		</g>
	</g>
</g>
<g id="Layer_8" class="st11">
	<g class="st13">
		<g>
			<path class="st9" d="M290.1,263l18.1,10.1v6.7l-18.1-10.1V263 M289.3,261.7v8.4l19.6,10.9v-8.4L289.3,261.7L289.3,261.7z"/>
		</g>
		<g>
			<path class="st9" d="M330.5,258.9v6.4l-20.8,14.3v-6.6L330.5,258.9 M331.2,257.5L309,272.7v8.4l22.3-15.4V257.5L331.2,257.5z"/>
		</g>
		<g>
			<path class="st9" d="M312.3,247.4l17.5,10.1l-20.9,14.3l-18.1-10.1L312.3,247.4 M312.3,246.5l-23,15.2l19.6,10.9l22.3-15.2     L312.3,246.5L312.3,246.5z"/>
		</g>
		<g>
			<path class="st9" d="M312.3,248l17.6,10.2v6.9l-21.1,14.5l-18.3-10.2v-7L312.3,248 M312.3,246.5l-23,15.2v8.4l19.6,10.9     l22.3-15.4v-8.3L312.3,246.5L312.3,246.5z"/>
		</g>
	</g>
	<g class="st13">
		<polygon class="st9" points="295.3,268.9 295.3,268 306.7,274.3 306.7,275.2   "/>
		<path class="st9" d="M295.6,268.6l10.7,5.9v0.1L295.6,268.6L295.6,268.6 M294.9,267.3v1.8l12.2,6.8v-1.8L294.9,267.3L294.9,267.3z    "/>
	</g>
	<g class="st13">
		<polygon class="st9" points="291.8,268 291.8,266.1 293.7,267.2 293.7,269   "/>
		<path class="st9" d="M292.2,266.8l1.2,0.6v1l-1.2-0.6V266.8 M291.4,265.5v2.7l2.7,1.5V267L291.4,265.5L291.4,265.5z"/>
	</g>
</g>
</svg>
