<?xml version="1.0" encoding="UTF-8"?>
<svg xmlns="http://www.w3.org/2000/svg"
     width="456"
     height="395.2801"
     viewBox="0 0 456 395.2801">
   <defs>
      <style>
      .cls-1, .cls-12, .cls-2 {
        fill: none;
        stroke-miterlimit: 10;
      }

      .cls-1 {
        stroke: #01889C;
      }

      .cls-2 {
        stroke: #9fa0a4;
      }

      .cls-3, .cls-5 {
        font-size: 13px;
        font-family: Arial-BoldMT, Arial;
        font-weight: 700;
      }

      .cls-3, .cls-7 {
        fill: #9fa0a4;
      }

      .cls-4 {
        letter-spacing: -0.0371em;
      }

      .cls-5, .cls-6 {
        fill: #01889C;
      }

      .cls-8 {
        fill: #626469;
      }

      .cls-9 {
        fill: #c6c6c6;
      }

      .cls-10 {
        font-size: 14px;
      }

      .cls-10, .cls-11 {
        fill: #fff;
        font-family: ArialMT, Arial;
      }

      .cls-11 {
        font-size: 11px;
      }

      .cls-12 {
        stroke: #626469;
        stroke-width: 4px;
      }

      .cls-13 {
        fill: #01889C;
      }
    </style>
   </defs>
   <title>Network-Management-System-Overview</title>
   <g id="Layer_4" data-name="Layer 4">
      <rect class="cls-1"
            x="17.7683"
            y="23.6098"
            width="421"
            height="219.0105"
            rx="3"/>
      <path class="cls-2"
            d="M449.7683,252.62H156.7474a3,3,0,0,0-3,2.9791l-.9584,135.0432a3,3,0,0,1-3,2.979H5.7683a3,3,0,0,1-3-3V6.61a3,3,0,0,1,3-3h444a3,3,0,0,1,3,3V249.62A3,3,0,0,1,449.7683,252.62Z"/>
      <text class="cls-3" transform="translate(7.5121 18.1484)">
         <tspan class="cls-4">A</tspan>
         <tspan x="8.9058" y="0"/>
      </text>
      <text class="cls-5" transform="translate(22.5121 38.1484)">B </text>
   </g>
   <g id="Boards">
      <g>
         <rect class="cls-6"
               x="31.7683"
               y="42.7409"
               width="99"
               height="179"
               rx="4.5"/>
         <path class="cls-6"
               d="M126.2683,43.2409a4.0045,4.0045,0,0,1,4,4v170a4.0045,4.0045,0,0,1-4,4h-90a4.0045,4.0045,0,0,1-4-4v-170a4.0044,4.0044,0,0,1,4-4h90m0-1h-90a5,5,0,0,0-5,5v170a5,5,0,0,0,5,5h90a5,5,0,0,0,5-5v-170a5,5,0,0,0-5-5Z"/>
      </g>
      <rect class="cls-7"
            x="31.2683"
            y="272.6098"
            width="100"
            height="100"
            rx="5"/>
      <g>
         <rect class="cls-6"
               x="178.7683"
               y="42.7409"
               width="99"
               height="179"
               rx="4.5"/>
         <path class="cls-6"
               d="M273.2683,43.2409a4.0045,4.0045,0,0,1,4,4v170a4.0045,4.0045,0,0,1-4,4h-90a4.0045,4.0045,0,0,1-4-4v-170a4.0044,4.0044,0,0,1,4-4h90m0-1h-90a5,5,0,0,0-5,5v170a5,5,0,0,0,5,5h90a5,5,0,0,0,5-5v-170a5,5,0,0,0-5-5Z"/>
      </g>
      <g>
         <rect class="cls-6"
               x="325.7683"
               y="157.2047"
               width="99"
               height="64.9053"
               rx="4.5"/>
         <path class="cls-6"
               d="M420.2683,157.7043a4.0045,4.0045,0,0,1,4,4V217.61a4.0046,4.0046,0,0,1-4,4h-90a4.0045,4.0045,0,0,1-4-4V161.7043a4.0045,4.0045,0,0,1,4-4h90m0-1h-90a5,5,0,0,0-5,5V217.61a5,5,0,0,0,5,5h90a5,5,0,0,0,5-5V161.7043a5,5,0,0,0-5-5Z"/>
      </g>
      <g>
         <rect class="cls-6"
               x="325.7683"
               y="71.2067"
               width="99"
               height="64.9053"
               rx="4.5"/>
         <path class="cls-6"
               d="M420.2683,71.7066a4.0045,4.0045,0,0,1,4,4V131.612a4.0045,4.0045,0,0,1-4,4h-90a4.0045,4.0045,0,0,1-4-4V75.7066a4.0045,4.0045,0,0,1,4-4h90m0-1h-90a5,5,0,0,0-5,5V131.612a5,5,0,0,0,5,5h90a5,5,0,0,0,5-5V75.7066a5,5,0,0,0-5-5Z"/>
      </g>
   </g>
   <g id="Layer_2" data-name="Layer 2">
      <path class="cls-8"
            d="M58.5,272.61h45.5366a0,0,0,0,1,0,0v13.1463a5,5,0,0,1-5,5H63.5a5,5,0,0,1-5-5V272.61A0,0,0,0,1,58.5,272.61Z"/>
      <path class="cls-8"
            d="M58.5,204.0945h45.5366a0,0,0,0,1,0,0v13.1463a5,5,0,0,1-5,5H63.5a5,5,0,0,1-5-5V204.0945A0,0,0,0,1,58.5,204.0945Z"
            transform="translate(162.5366 426.3354) rotate(180)"/>
      <path class="cls-8"
            d="M99.3049,180.3994h45.5366a0,0,0,0,1,0,0v13.1463a5,5,0,0,1-5,5H104.3049a5,5,0,0,1-5-5V180.3994A0,0,0,0,1,99.3049,180.3994Z"
            transform="translate(311.5457 67.3994) rotate(90)"/>
      <path class="cls-9"
            d="M99.3049,121.0418h45.5366a0,0,0,0,1,0,0v13.1463a5,5,0,0,1-5,5H104.3049a5,5,0,0,1-5-5V121.0418A0,0,0,0,1,99.3049,121.0418Z"
            transform="translate(252.1882 8.0418) rotate(90)"/>
      <path class="cls-8"
            d="M246.4268,180.3994h45.5366a0,0,0,0,1,0,0v13.1463a5,5,0,0,1-5,5H251.4268a5,5,0,0,1-5-5V180.3994A0,0,0,0,1,246.4268,180.3994Z"
            transform="translate(458.6677 -79.7226) rotate(90)"/>
      <path class="cls-8"
            d="M164.5732,180.3994H210.11a0,0,0,0,1,0,0v13.1463a5,5,0,0,1-5,5H169.5732a5,5,0,0,1-5-5V180.3994A0,0,0,0,1,164.5732,180.3994Z"
            transform="translate(-2.1311 376.814) rotate(-90)"/>
      <path class="cls-8"
            d="M311.5732,180.3994H357.11a0,0,0,0,1,0,0v13.1463a5,5,0,0,1-5,5H316.5732a5,5,0,0,1-5-5V180.3994A0,0,0,0,1,311.5732,180.3994Z"
            transform="translate(144.8689 523.814) rotate(-90)"/>
      <path class="cls-8"
            d="M311.5732,94.4939H357.11a0,0,0,0,1,0,0V107.64a5,5,0,0,1-5,5H316.5732a5,5,0,0,1-5-5V94.4939A0,0,0,0,1,311.5732,94.4939Z"
            transform="translate(230.7744 437.9085) rotate(-90)"/>
      <path class="cls-8"
            d="M206,204.0945h45.5366a0,0,0,0,1,0,0v13.1463a5,5,0,0,1-5,5H211a5,5,0,0,1-5-5V204.0945A0,0,0,0,1,206,204.0945Z"
            transform="translate(457.5366 426.3354) rotate(180)"/>
      <path class="cls-9"
            d="M246.4268,65.6677h45.5366a0,0,0,0,1,0,0V78.814a5,5,0,0,1-5,5H251.4268a5,5,0,0,1-5-5V65.6677A0,0,0,0,1,246.4268,65.6677Z"
            transform="translate(343.936 -194.4543) rotate(90)"/>
      <path class="cls-8"
            d="M246.4268,121.0418h45.5366a0,0,0,0,1,0,0v13.1463a5,5,0,0,1-5,5H251.4268a5,5,0,0,1-5-5V121.0418A0,0,0,0,1,246.4268,121.0418Z"
            transform="translate(399.3101 -139.0801) rotate(90)"/>
      <text class="cls-10" transform="translate(64.9201 136.9616)">A025</text>
      <text class="cls-10" transform="translate(211.9201 136.9616)">A091</text>
      <text class="cls-10" transform="translate(358.9199 194.3777)">A092</text>
      <text class="cls-10" transform="translate(358.9199 108.3801)">A093</text>
      <text class="cls-10" transform="translate(64.9201 327.3307)">A070</text>
      <text class="cls-11" transform="translate(125.7683 197.4205) rotate(-90)">X2</text>
      <text class="cls-11" transform="translate(125.7683 136.8404) rotate(-90)">X1</text>
      <path class="cls-9"
            d="M99.3049,67.1673h45.5366a0,0,0,0,1,0,0V80.3136a5,5,0,0,1-5,5H104.3049a5,5,0,0,1-5-5V67.1673A0,0,0,0,1,99.3049,67.1673Z"
            transform="translate(198.3136 -45.8327) rotate(90)"/>
      <text class="cls-11" transform="translate(125.7683 82.9654) rotate(-90)">X3</text>
      <text class="cls-11" transform="translate(183.2971 184.8873) rotate(90)">J8</text>
      <text class="cls-11" transform="translate(330.7756 179.9996) rotate(90)">GF1</text>
      <text class="cls-11" transform="translate(330.7756 92.9629) rotate(90)">GF1</text>
      <text class="cls-11" transform="translate(272.7683 196.5016) rotate(-90)">J3</text>
      <text class="cls-11" transform="translate(272.7683 135.9215) rotate(-90)">J2</text>
      <text class="cls-11" transform="translate(272.7683 80.5465) rotate(-90)">J1</text>
      <text class="cls-11" transform="translate(74.541 217.1021)">X5</text>
      <text class="cls-11" transform="translate(222.96 217.1021)">J6</text>
      <text class="cls-11" transform="translate(74.541 285.3692)">X5</text>
   </g>
   <g id="Signals">
      <g>
         <line class="cls-12"
               x1="132.2683"
               y1="190.6947"
               x2="168.6568"
               y2="190.6947"/>
         <polygon class="cls-8"
                  points="166.906 196.678 177.268 190.695 166.906 184.711 166.906 196.678"/>
      </g>
      <g>
         <line class="cls-12"
               x1="287.8798"
               y1="190.6947"
               x2="315.6568"
               y2="190.6947"/>
         <polygon class="cls-8"
                  points="289.631 196.678 279.268 190.695 289.631 184.711 289.631 196.678"/>
         <polygon class="cls-8"
                  points="313.906 196.678 324.268 190.695 313.906 184.711 313.906 196.678"/>
      </g>
      <g>
         <line class="cls-12"
               x1="393.1341"
               y1="232.3581"
               x2="393.1341"
               y2="257.8637"/>
         <polygon class="cls-8"
                  points="387.151 234.109 393.134 223.747 399.118 234.109 387.151 234.109"/>
         <polygon class="cls-8"
                  points="387.151 256.113 393.134 266.475 399.118 256.113 387.151 256.113"/>
      </g>
      <g>
         <line class="cls-12"
               x1="358.0488"
               y1="232.3581"
               x2="358.0488"
               y2="338.1321"/>
         <polygon class="cls-8"
                  points="352.065 234.109 358.049 223.747 364.032 234.109 352.065 234.109"/>
         <polygon class="cls-8"
                  points="352.065 336.381 358.049 346.744 364.032 336.381 352.065 336.381"/>
      </g>
      <g>
         <line class="cls-12"
               x1="228.7683"
               y1="232.3581"
               x2="228.7683"
               y2="277.05"/>
         <polygon class="cls-8"
                  points="222.785 234.109 228.768 223.747 234.752 234.109 222.785 234.109"/>
         <polygon class="cls-8"
                  points="222.785 275.299 228.768 285.661 234.752 275.299 222.785 275.299"/>
      </g>
      <g>
         <line class="cls-12"
               x1="393.1341"
               y1="321.3667"
               x2="393.1341"
               y2="338.132"/>
         <polygon class="cls-8"
                  points="387.151 323.118 393.134 312.755 399.118 323.118 387.151 323.118"/>
         <polygon class="cls-8"
                  points="387.151 336.381 393.134 346.744 399.118 336.381 387.151 336.381"/>
      </g>
      <g>
         <polyline class="cls-12"
                   points="287.88 130.115 301.768 130.115 301.768 103.567 315.657 103.567"/>
         <polygon class="cls-8"
                  points="289.631 136.099 279.268 130.115 289.631 124.131 289.631 136.099"/>
         <polygon class="cls-8"
                  points="313.906 109.551 324.268 103.567 313.906 97.583 313.906 109.551"/>
      </g>
      <g>
         <line class="cls-12"
               x1="81.2683"
               y1="270.8899"
               x2="81.2683"
               y2="232.3581"/>
         <polygon class="cls-8"
                  points="87.252 234.109 81.268 223.747 75.285 234.109 87.252 234.109"/>
      </g>
   </g>
   <g id="Layer_7" data-name="Layer 7">
      <g>
         <path class="cls-7"
               d="M246.8706,291.1817V313.93H210.666v-22.748h36.2046m1-3H209.666a2,2,0,0,0-2,2V314.93a2,2,0,0,0,2,2h38.2046a2,2,0,0,0,2-2v-24.748a2,2,0,0,0-2-2Z"/>
         <path class="cls-7"
               d="M255.9871,332.2212H201.5494a1.2233,1.2233,0,0,1-1.2233-1.2233l6.1166-12.8449c.6117-1.2233.5477-1.2233,1.2233-1.2233h42.2046c.6756,0,.6116,0,1.2233,1.2233l6.1166,12.8449A1.2233,1.2233,0,0,1,255.9871,332.2212Z"/>
      </g>
      <g>
         <path class="cls-7"
               d="M393.8706,350.9235v22.748H357.666v-22.748h36.2046m1-3H356.666a2,2,0,0,0-2,2v24.748a2,2,0,0,0,2,2h38.2046a2,2,0,0,0,2-2v-24.748a2,2,0,0,0-2-2Z"/>
         <path class="cls-7"
               d="M402.9871,391.963H348.5494a1.2233,1.2233,0,0,1-1.2233-1.2233l6.1166-12.8449c.6117-1.2233.5477-1.2233,1.2233-1.2233h42.2046c.6756,0,.6116,0,1.2233,1.2233l6.1166,12.8449A1.2233,1.2233,0,0,1,402.9871,391.963Z"/>
      </g>
      <g>
         <g>
            <path class="cls-7"
                  d="M377.9119,280.3137l10.2731,5.6724v25.3678l-10.2731-5.6724V280.3137m-.75-1.2709v27.0813l11.7731,6.5007V285.5435l-11.7731-6.5007Z"/>
            <path class="cls-7"
                  d="M408.6159,273.0325V298.151L389.685,311.1971V285.94l18.9309-12.9074m.75-1.4191-20.4309,13.93v27.0813l20.4309-14.08V271.6134Z"/>
            <path class="cls-7"
                  d="M398.2466,265.9955l9.7155,5.6673-19.0684,13.0011-10.2849-5.6789,19.6378-12.99m-.0248-.8828-21.06,13.93,11.7731,6.5007,20.4309-13.93-11.1441-6.5007Z"/>
            <path class="cls-7"
                  d="M398.2632,266.584l9.8527,5.7474v25.5569l-19.2535,13.2685-10.45-5.77V279.7147l19.8513-13.1307m-.0414-1.4713-21.06,13.93v27.0813l11.7731,6.5007,20.4309-14.08V271.6134l-11.1441-6.5007Z"/>
         </g>
         <g>
            <polygon class="cls-13"
                     points="381.891 285.332 381.891 284.825 386.971 287.632 386.971 288.138 381.891 285.332"/>
            <polygon class="cls-7"
                     points="381.516 284.189 381.516 285.553 387.347 288.775 387.347 287.41 381.516 284.189 381.516 284.189"/>
         </g>
         <g>
            <polygon class="cls-13"
                     points="379.449 284.586 379.449 283.546 380.244 283.986 380.244 285.026 379.449 284.586"/>
            <path class="cls-7"
                  d="M379.8237,284.1813l.0461.0255v.1835l-.0461-.0255v-.1835m-.75-1.2712v1.8972l1.5461.8542v-1.8972l-1.5461-.8542Z"/>
         </g>
         <g>
            <polygon class="cls-13"
                     points="381.891 294.503 381.891 293.996 386.971 296.803 386.971 297.31 381.891 294.503"/>
            <polygon class="cls-7"
                     points="381.516 293.36 381.516 294.725 387.347 297.946 387.347 296.582 381.516 293.36 381.516 293.36"/>
         </g>
         <g>
            <polygon class="cls-13"
                     points="379.449 293.757 379.449 292.717 380.244 293.157 380.244 294.197 379.449 293.757"/>
            <path class="cls-7"
                  d="M379.8237,293.3526l.0461.0255v.1835l-.0461-.0255v-.1835m-.75-1.2711v1.8971l1.5461.8543v-1.8973l-1.5461-.8541Z"/>
         </g>
         <g>
            <polygon class="cls-13"
                     points="381.891 289.918 381.891 289.41 386.971 292.217 386.971 292.724 381.891 289.918"/>
            <polygon class="cls-7"
                     points="381.516 288.775 381.516 290.139 387.347 293.36 387.347 291.996 381.516 288.775 381.516 288.775"/>
         </g>
         <g>
            <polygon class="cls-13"
                     points="379.449 289.172 379.449 288.132 380.244 288.572 380.244 289.611 379.449 289.172"/>
            <path class="cls-7"
                  d="M379.8237,288.7669l.0461.0256v.1835l-.0461-.0255v-.1836m-.75-1.2711v1.8972l1.5461.8542V288.35l-1.5461-.8541Z"/>
         </g>
         <g>
            <polygon class="cls-13"
                     points="381.891 299.089 381.891 298.582 386.971 301.389 386.971 301.896 381.891 299.089"/>
            <polygon class="cls-7"
                     points="381.516 297.946 381.516 299.31 387.347 302.532 387.347 301.167 381.516 297.946 381.516 297.946"/>
         </g>
         <g>
            <polygon class="cls-13"
                     points="379.449 298.342 379.449 297.302 380.244 297.743 380.244 298.783 379.449 298.342"/>
            <path class="cls-7"
                  d="M379.8237,297.9383l.0461.0255v.1835l-.0461-.0255v-.1835m-.75-1.2712v1.8972l1.5461.8543v-1.8973l-1.5461-.8542Z"/>
         </g>
      </g>
   </g>
</svg>
