<?xml version="1.0" encoding="UTF-8"?>
<svg xmlns="http://www.w3.org/2000/svg"
     xmlns:xlink="http://www.w3.org/1999/xlink"
     id="Layer_1"
     data-name="Layer 1"
     width="160.4951mm"
     height="63.087mm"
     viewBox="0 0 454.9468 178.8293">
   <defs>
      <style>
      .cls-1, .cls-10, .cls-2, .cls-3, .cls-5, .cls-6 {
        fill: none;
      }

      .cls-10, .cls-2, .cls-3, .cls-5, .cls-6 {
        stroke: #231f20;
        stroke-miterlimit: 10;
      }

      .cls-3 {
        stroke-width: 0.5px;
      }

      .cls-4 {
        fill: #231f20;
      }

      .cls-5 {
        stroke-width: 0.9589px;
      }

      .cls-6 {
        stroke-width: 0.75px;
      }

      .cls-7 {
        font-size: 10px;
        fill: #58ba5a;
        font-family: Arial-BoldMT, Arial;
        font-weight: 700;
      }

      .cls-8 {
        clip-path: url(#clip-path);
      }

      .cls-9 {
        fill: #fff;
      }

      .cls-10 {
        stroke-width: 0.7467px;
      }

      .cls-11 {
        clip-path: url(#clip-path-3);
      }
    </style>
      <clipPath id="clip-path">
         <rect class="cls-1"
               x="220.0173"
               y="154.521"
               width="15.0078"
               height="4.5822"/>
      </clipPath>
      <clipPath id="clip-path-3">
         <rect class="cls-1"
               x="220.0173"
               y="174.521"
               width="15.0078"
               height="4.5822"/>
      </clipPath>
   </defs>
   <g>
      <rect class="cls-2"
            x="66.3656"
            y="14.2925"
            width="116.6929"
            height="122.5197"/>
      <g>
         <rect class="cls-2"
               x="134.7121"
               y="54.2925"
               width="28.3465"
               height="42.5197"/>
         <line class="cls-3"
               x1="148.8853"
               y1="59.2925"
               x2="148.8853"
               y2="68.4657"/>
         <rect class="cls-4"
               x="146.7593"
               y="68.4657"
               width="4.252"
               height="7.0866"/>
      </g>
      <g>
         <rect class="cls-2"
               x="86.3656"
               y="54.2925"
               width="28.3465"
               height="42.5197"/>
         <line class="cls-3"
               x1="100.5388"
               y1="59.2925"
               x2="100.5388"
               y2="68.4657"/>
         <path class="cls-5" d="M93.4522,75.5523a7.0867,7.0867,0,0,1,14.1733,0"/>
      </g>
      <rect class="cls-2"
            x="271.405"
            y="14.2925"
            width="116.6929"
            height="122.5197"/>
      <g>
         <rect class="cls-2"
               x="339.7514"
               y="54.2925"
               width="28.3465"
               height="42.5197"/>
         <line class="cls-3"
               x1="353.9247"
               y1="59.2925"
               x2="353.9247"
               y2="68.4657"/>
         <rect class="cls-4"
               x="351.7987"
               y="68.4657"
               width="4.252"
               height="7.0866"/>
      </g>
      <g>
         <rect class="cls-2"
               x="291.405"
               y="54.2925"
               width="28.3465"
               height="42.5197"/>
         <line class="cls-3"
               x1="305.5782"
               y1="59.2925"
               x2="305.5782"
               y2="68.4657"/>
         <path class="cls-2" d="M298.4916,75.5523a7.0866,7.0866,0,0,1,14.1732,0"/>
      </g>
      <rect class="cls-4"
            x="98.4129"
            y="75.5523"
            width="4.252"
            height="7.0866"
            transform="translate(201.0777 158.1912) rotate(180)"/>
      <path class="cls-5" d="M155.9719,75.5523a7.0866,7.0866,0,0,1-14.1732,0"/>
      <g>
         <polyline class="cls-6"
                   points="305.578 82.639 305.578 176.812 100.539 176.812 100.539 82.639"/>
         <rect class="cls-4"
               x="303.4522"
               y="75.5523"
               width="4.252"
               height="7.0866"
               transform="translate(611.1564 158.1912) rotate(180)"/>
      </g>
      <g>
         <polyline class="cls-6"
                   points="353.925 82.639 353.925 156.812 148.885 156.812 148.885 82.639"/>
         <path class="cls-2" d="M361.0113,75.5523a7.0866,7.0866,0,0,1-14.1732,0"/>
      </g>
      <text class="cls-7" transform="translate(88.8618 50.2926)">X020</text>
      <text class="cls-7" transform="translate(108.8772 10.2926)">UNIT 1</text>
      <text class="cls-7" transform="translate(313.9163 10.2926)">UNIT 2</text>
      <text class="cls-7" transform="translate(137.2081 50.2926)">X021</text>
      <text class="cls-7" transform="translate(293.9012 50.2926)">X020</text>
      <text class="cls-7" transform="translate(342.2476 50.2926)">X021</text>
   </g>
   <g id="Artwork_31" data-name="Artwork 31">
      <g class="cls-8">
         <rect class="cls-9"
               x="220.5271"
               y="155.4273"
               width="13.9881"
               height="2.7689"/>
         <g class="cls-8">
            <line class="cls-10"
                  x1="220.0174"
                  y1="156.8123"
                  x2="225.6618"
                  y2="156.8123"/>
            <line class="cls-10"
                  x1="229.3804"
                  y1="156.8123"
                  x2="235.0248"
                  y2="156.8123"/>
            <line class="cls-10"
                  x1="227.3847"
                  y1="158.8079"
                  x2="231.3763"
                  y2="154.8163"/>
            <line class="cls-10"
                  x1="223.6661"
                  y1="158.8079"
                  x2="227.6577"
                  y2="154.8163"/>
         </g>
      </g>
   </g>
   <g id="Artwork_31-2" data-name="Artwork 31">
      <g class="cls-11">
         <rect class="cls-9"
               x="220.5271"
               y="175.4273"
               width="13.9881"
               height="2.7689"/>
         <g class="cls-11">
            <line class="cls-10"
                  x1="220.0174"
                  y1="176.8123"
                  x2="225.6618"
                  y2="176.8123"/>
            <line class="cls-10"
                  x1="229.3804"
                  y1="176.8123"
                  x2="235.0248"
                  y2="176.8123"/>
            <line class="cls-10"
                  x1="227.3847"
                  y1="178.8079"
                  x2="231.3763"
                  y2="174.8163"/>
            <line class="cls-10"
                  x1="223.6661"
                  y1="178.8079"
                  x2="227.6577"
                  y2="174.8163"/>
         </g>
      </g>
   </g>
</svg>
