<?xml version="1.0" encoding="UTF-8"?>
<svg xmlns="http://www.w3.org/2000/svg"
     width="670"
     height="285.7834"
     viewBox="0 0 670 285.7834">
   <defs>
      <style>
      .cls-1 {
        fill: #455661;
      }

      .cls-1, .cls-2, .cls-3 {
        font-family: 72-Bold, 72;
        font-weight: 700;
      }

      .cls-1, .cls-3 {
        font-size: 17px;
      }

      .cls-4 {
        stroke: #d3d7da;
      }

      .cls-4, .cls-5, .cls-6, .cls-7, .cls-8, .cls-9, .cls-10, .cls-11, .cls-12 {
        fill: none;
      }

      .cls-4, .cls-5, .cls-6, .cls-7, .cls-8, .cls-9, .cls-10, .cls-12 {
        stroke-miterlimit: 10;
      }

      .cls-4, .cls-12 {
        stroke-width: 4px;
      }

      .cls-5 {
        stroke: #98da6c;
      }

      .cls-5, .cls-6, .cls-7 {
        stroke-width: 2px;
      }

      .cls-6, .cls-8 {
        stroke: #ffbf01;
      }

      .cls-2 {
        font-size: 12px;
      }

      .cls-2, .cls-13, .cls-14, .cls-15 {
        fill: #fff;
      }

      .cls-16 {
        stroke: #000;
        stroke-width: .106px;
      }

      .cls-16, .cls-8, .cls-9, .cls-11 {
        stroke-linecap: round;
      }

      .cls-7, .cls-9 {
        stroke: #ff4900;
      }

      .cls-17 {
        fill: #98da6c;
      }

      .cls-17, .cls-13, .cls-18, .cls-19, .cls-20, .cls-21, .cls-22 {
        stroke-width: 0px;
      }

      .cls-18 {
        fill: #a7afb5;
      }

      .cls-19, .cls-3 {
        fill: #ff4900;
      }

      .cls-8, .cls-9 {
        stroke-width: 3px;
      }

      .cls-10, .cls-11 {
        stroke: #fff;
        stroke-width: 1.9px;
      }

      .cls-14 {
        letter-spacing: -.0552em;
      }

      .cls-14, .cls-15 {
        font-family: ArialMT, Arial;
        font-size: 16px;
        isolation: isolate;
      }

      .cls-11 {
        stroke-linejoin: round;
      }

      .cls-20 {
        fill: #ffbf01;
      }

      .cls-21 {
        fill: #eaebed;
      }

      .cls-12 {
        stroke: #336784;
      }

      .cls-22 {
        fill: #336784;
      }
    </style>
   </defs>
   <g id="Layer_2" data-name="Layer 2">
      <g>
         <line class="cls-6"
               x1="227.2278"
               y1="65"
               x2="227.2278"
               y2="134.259"/>
         <polygon class="cls-20"
                  points="223.2388 133.0918 227.2278 140 231.2168 133.0918 223.2388 133.0918"/>
      </g>
      <g>
         <line class="cls-6"
               x1="143.0847"
               y1="65"
               x2="143.0847"
               y2="134.259"/>
         <polygon class="cls-20"
                  points="139.0957 133.0918 143.0847 140 147.0737 133.0918 139.0957 133.0918"/>
      </g>
      <g>
         <line class="cls-12" x1="196.4868" y1="210" x2="85.741" y2="210"/>
         <polygon class="cls-22"
                  points="195.3196 206.0109 202.2278 210 195.3196 213.9891 195.3196 206.0109"/>
         <polygon class="cls-22"
                  points="86.9082 206.0109 80 210 86.9082 213.9891 86.9082 206.0109"/>
      </g>
      <g>
         <line class="cls-6"
               x1="333.3416"
               y1="65"
               x2="333.3416"
               y2="134.259"/>
         <polygon class="cls-20"
                  points="329.3525 133.0918 333.3416 140 337.3308 133.0918 329.3525 133.0918"/>
      </g>
      <g>
         <line class="cls-6"
               x1="429.4556"
               y1="65"
               x2="429.4556"
               y2="134.259"/>
         <polygon class="cls-20"
                  points="425.4666 133.0918 429.4556 140 433.4446 133.0918 425.4666 133.0918"/>
      </g>
      <g>
         <polyline class="cls-6" points="80 65 515.5693 65 515.5693 134.259"/>
         <polygon class="cls-20"
                  points="511.5803 133.0918 515.5693 140 519.5583 133.0918 511.5803 133.0918"/>
      </g>
      <g>
         <polyline class="cls-7"
                   points="586.6833 43.5669 247.2278 43.5669 247.2278 134.259"/>
         <polygon class="cls-19"
                  points="243.2388 133.0918 247.2278 140 251.2168 133.0918 243.2388 133.0918"/>
      </g>
      <g>
         <line class="cls-7"
               x1="535.5693"
               y1="43.5669"
               x2="535.5693"
               y2="134.259"/>
         <polygon class="cls-19"
                  points="531.5803 133.0918 535.5693 140 539.5586 133.0918 531.5803 133.0918"/>
      </g>
      <g>
         <line class="cls-5"
               x1="374.0828"
               y1="266.1138"
               x2="388.7146"
               y2="266.1138"/>
         <polygon class="cls-17"
                  points="375.2498 270.1029 368.3418 266.1138 375.2498 262.1248 375.2498 270.1029"/>
         <polygon class="cls-17"
                  points="387.5474 270.1029 394.4556 266.1138 387.5474 262.1248 387.5474 270.1029"/>
      </g>
      <g>
         <line class="cls-5"
               x1="470.1965"
               y1="266.1138"
               x2="484.8284"
               y2="266.1138"/>
         <polygon class="cls-17"
                  points="471.3638 270.1029 464.4556 266.1138 471.3638 262.1248 471.3638 270.1029"/>
         <polygon class="cls-17"
                  points="483.6614 270.1029 490.5693 266.1138 483.6614 262.1248 483.6614 270.1029"/>
      </g>
      <g>
         <line class="cls-7"
               x1="601.1833"
               y1="10"
               x2="601.1833"
               y2="24.259"/>
         <polygon class="cls-19"
                  points="597.1943 23.0918 601.1833 30 605.1724 23.0918 597.1943 23.0918"/>
      </g>
      <g>
         <line class="cls-7"
               x1="642.1833"
               y1="10"
               x2="642.1833"
               y2="24.259"/>
         <polygon class="cls-19"
                  points="638.1943 23.0918 642.1833 30 646.1724 23.0918 638.1943 23.0918"/>
      </g>
      <polyline class="cls-4"
                points="168.0847 140 168.0847 110 212.2278 110 212.2278 140"/>
      <polyline class="cls-4"
                points="262.2278 140.2803 262.2278 110.2803 308.3417 110.2803 308.3417 140.2803"/>
      <polyline class="cls-4"
                points="358.3417 140.2803 358.3417 110.2803 404.4556 110.2803 404.4556 140.2803"/>
      <polyline class="cls-4"
                points="454.4556 140.2803 454.4556 110.2803 500.5694 110.2803 500.5694 140"/>
   </g>
   <g id="Layer_1" data-name="Layer 1">
      <rect class="cls-21"
            x="215.2278"
            y="184.4617"
            width="70"
            height="55.5383"/>
      <text class="cls-1" transform="translate(275.3976 199.4621)">
         <tspan x="0" y="0">*</tspan>
      </text>
      <rect class="cls-21" x="121.0847" y="150" width="70" height="50"/>
      <text class="cls-1" transform="translate(181.1449 165)">
         <tspan x="0" y="0">*</tspan>
      </text>
      <rect class="cls-20" x="10" y="30" width="70" height="70"/>
      <rect class="cls-18" x="10" y="140" width="70" height="136.1139"/>
      <rect class="cls-18" x="108.0847" y="140" width="70" height="50"/>
      <rect class="cls-18" x="202.2278" y="140" width="70" height="90"/>
      <rect class="cls-18"
            x="298.3417"
            y="140"
            width="70"
            height="136.1139"/>
      <rect class="cls-18"
            x="394.4556"
            y="140"
            width="70"
            height="136.1139"/>
      <rect class="cls-18"
            x="490.5694"
            y="140"
            width="70"
            height="136.1139"/>
      <rect class="cls-19" x="586.6833" y="30" width="70" height="70"/>
      <g>
         <line class="cls-6" x1="45" y1="10" x2="45" y2="24.259"/>
         <polygon class="cls-20"
                  points="41.011 23.0918 45 30 48.989 23.0918 41.011 23.0918"/>
      </g>
      <text class="cls-3" transform="translate(645.5534 21.0773)">
         <tspan x="0" y="0">*</tspan>
      </text>
   </g>
   <g id="Layer_3" data-name="Layer 3">
      <g>
         <circle class="cls-16" cx="601.1833" cy="44.5" r="9.5"/>
         <text class="cls-15" transform="translate(595.8475 50.0322)">
            <tspan x="0" y="0">B</tspan>
         </text>
      </g>
      <g>
         <circle class="cls-16" cx="24.5" cy="44.5" r="9.5"/>
         <text class="cls-14" transform="translate(19.6056 50.0322)">
            <tspan x="0" y="0">A</tspan>
         </text>
      </g>
      <g>
         <circle class="cls-16" cx="24.5" cy="154.5" r="9.5"/>
         <text class="cls-15" transform="translate(18.7229 160.0322)">
            <tspan x="0" y="0">D</tspan>
         </text>
      </g>
      <g>
         <circle class="cls-16" cx="120.6139" cy="154.5" r="9.5"/>
         <text class="cls-15" transform="translate(115.7274 160.0322)">
            <tspan x="0" y="0">F</tspan>
         </text>
      </g>
      <g>
         <circle class="cls-16" cx="216.7278" cy="154.5" r="9.5"/>
         <text class="cls-15" transform="translate(210.5055 160.0322)">
            <tspan x="0" y="0">G</tspan>
         </text>
      </g>
      <g>
         <circle class="cls-16" cx="312.8417" cy="154.5" r="9.5"/>
         <text class="cls-15" transform="translate(307.0646 160.0322)">
            <tspan x="0" y="0">H</tspan>
         </text>
      </g>
      <g>
         <circle class="cls-16" cx="408.9556" cy="154.5" r="9.5"/>
         <text class="cls-15" transform="translate(406.7333 160.0322)">
            <tspan x="0" y="0">I</tspan>
         </text>
      </g>
      <g>
         <circle class="cls-16" cx="505.0694" cy="154.5" r="9.5"/>
         <text class="cls-15" transform="translate(501.0698 160.0322)">
            <tspan x="0" y="0">J</tspan>
         </text>
      </g>
      <g id="Artwork_16" data-name="Artwork 16">
         <g>
            <path class="cls-13"
                  d="M348.6337,205.2363h-13.1068c-.532,0-.9637.4318-.9637.9637s.4318.9637.9637.9637h13.1068c.532,0,.9637-.4318.9637-.9637s-.4318-.9637-.9637-.9637"/>
            <path class="cls-13"
                  d="M348.6337,209.6058h-13.1068c-.532,0-.9637.4318-.9637.9637s.4318.9637.9637.9637h13.1068c.532,0,.9637-.4318.9637-.9637s-.4318-.9637-.9637-.9637"/>
            <path class="cls-13"
                  d="M317.094,187.992c.4343.2917,1.1025.0732,1.4083-.3508.7196-1.0164,1.7052-1.4983,2.6034-1.5535.9149.0116,1.7913.5294,2.5854,1.578.0206.0424.045.0835.072.1208.0077.0129.0154.0244.0244.0373.0077.0129.0167.0231.0244.0347.0193.0334.0424.0655.0642.0989.0527.0822.1067.1581.1568.2107,1.0832,1.47,2.5314,2.2757,4.0875,2.2757.0398,0,.081,0,.1195-.0026,1.6178-.0424,3.1521-.9881,4.2109-2.5995.293-.4446.1683-1.0421-.2763-1.3351-.4459-.2968-1.0447-.1683-1.3351.2763-.7157,1.0909-1.6589,1.7065-2.6496,1.7334-.9496.0501-1.8774-.5063-2.5751-1.4533-.0334-.0475-.0681-.1002-.1067-.1555-.0167-.0347-.036-.0694-.0617-.1054-.0398-.0655-.0887-.1246-.1426-.1773-1.0691-1.5471-2.5854-2.4453-4.1723-2.4646-1.6229.0822-3.1019.8172-4.2006,2.3605-.0064.0103-.167.2519-.1735.2596-.2891.4382-.0977.9136.3367,1.2117"/>
            <rect class="cls-13"
                  x="304.1528"
                  y="195.5362"
                  width="58.3783"
                  height="1.9276"
                  transform="translate(-41.3129 293.2619) rotate(-45)"/>
            <path class="cls-13"
                  d="M350.8303,173.9999h-34.9784c-2.7627,0-5.0101,2.2461-5.0101,5.0101v34.9527c0,2.7781,2.2474,5.0371,5.0101,5.0371h34.9784c2.7627,0,5.0114-2.259,5.0114-5.0371v-34.9527c0-2.764-2.2487-5.0101-5.0114-5.0101M354.5567,213.9627c0,2.0675-1.6718,3.7521-3.7264,3.7521h-34.9784c-2.0534,0-3.7252-1.6846-3.7252-3.7521v-34.9527c0-2.0534,1.6718-3.7252,3.7252-3.7252h34.9784c2.0547,0,3.7264,1.6718,3.7264,3.7252v34.9527Z"/>
         </g>
      </g>
      <g id="Artwork_17" data-name="Artwork 17">
         <g>
            <path class="cls-13"
                  d="M445.8252,206.0151c-.4459-.2891-1.0434-.1658-1.3338.284-.7183,1.1012-1.6538,1.7232-2.6355,1.7489-.965-.018-1.8581-.5089-2.6548-1.5882-.0514-.1259-.1285-.2364-.2236-.329-1.0704-1.5484-2.5314-2.417-4.1222-2.4466-1.6525-.0488-3.1148.8005-4.2623,2.3759l-.1465.2184c-.2994.4395-.1863,1.0395.2531,1.3402.4382.2981,1.0383.1838,1.3389-.2506l.1375-.2082c.7401-1.019,1.6563-1.5445,2.6432-1.5484.8931.0141,1.7514.5217,2.5443,1.5548.027.0527.0565.1067.0925.1542.0103.0141.0218.0321.0334.0475.0167.0296.036.0578.0553.0848.0681.1028.1478.221.1658.221,1.082,1.488,2.5276,2.3014,4.0785,2.3014h.1169c1.6114-.0424,3.1431-1.001,4.2019-2.6278.2891-.4446.1632-1.0408-.2827-1.3325"/>
            <path class="cls-13"
                  d="M414.2541,182.2932h13.1068c.532,0,.9637-.4318.9637-.9637s-.4318-.9637-.9637-.9637h-13.1068c-.532,0-.9637.4318-.9637.9637s.4318.9637.9637.9637"/>
            <path class="cls-13"
                  d="M414.2541,186.6627h13.1068c.532,0,.9637-.4318.9637-.9637s-.4318-.9637-.9637-.9637h-13.1068c-.532,0-.9637.4318-.9637.9637s.4318.9637.9637.9637"/>
            <rect class="cls-13"
                  x="400.2669"
                  y="194.232"
                  width="58.3783"
                  height="1.9276"
                  transform="translate(-12.2395 360.8428) rotate(-45)"/>
            <path class="cls-13"
                  d="M446.9444,172.6956h-34.9784c-2.7627,0-5.0101,2.2461-5.0101,5.0101v34.9527c0,2.7781,2.2474,5.0371,5.0101,5.0371h34.9784c2.7627,0,5.0114-2.259,5.0114-5.0371v-34.9527c0-2.764-2.2487-5.0101-5.0114-5.0101M450.6708,212.6585c0,2.0675-1.6718,3.7521-3.7264,3.7521h-34.9784c-2.0534,0-3.7252-1.6846-3.7252-3.7521v-34.9527c0-2.0534,1.6718-3.7252,3.7252-3.7252h34.9784c2.0547,0,3.7264,1.6718,3.7264,3.7252v34.9527Z"/>
         </g>
      </g>
      <g id="Artwork_19" data-name="Artwork 19">
         <g>
            <path class="cls-13"
                  d="M537.2778,194.8933v-9.3007c0-.532-.4318-.9637-.9637-.9637h-4.9292l1.9326-.9663c.3264-.1632.532-.4973.532-.8609v-4.7531c0-.532-.4318-.9637-.9637-.9637s-.9637.4318-.9637.9637v4.1582l-.798.3996v-2.5301c0-.532-.4318-.9637-.9637-.9637s-.9637.4318-.9637.9637v3.8896l-9.5024-4.7506c-.2955-.1529-.6515-.1349-.938.0398-.284.176-.4575.487-.4575.8211v4.5527h-3.8395c-.532,0-.9637.4318-.9637.9637v9.5243c-.2159.1503-.3945.3392-.5217.5718h-4.9664v1.9275h5.1309c.1028.1311.2223.2377.3572.3341v9.4973c0,.532.4318.9637.9637.9637h5.1977l-1.8015.9008c-.3264.1632-.532.4973-.532.8609v4.7788c0,.532.4318.9637.9637.9637s.9637-.4318.9637-.9637v-4.1839l.798-.3996v2.5276c0,.532.4318.9637.9637.9637s.9637-.4318.9637-.9637v-3.8909l9.5294,4.7544c.1349.0681.2814.1002.4292.1002.176,0,.3508-.0475.5063-.1426.284-.176.4575-.487.4575-.8211v-4.4846h3.4155c.532,0,.9637-.4318.9637-.9637v-9.2686c.3123-.1118.5692-.3084.7723-.5628h5.5524v-1.9275h-5.3841c-.2082-.3688-.532-.6528-.9406-.7954M520.2261,181.6348l5.9867,2.994h-5.9867v-2.994ZM520.2261,186.5563h5.7336l-5.7336,2.8784v-2.8784ZM530.9711,211.3371l-5.8685-2.9259h5.8685v2.9259ZM530.9711,206.4838h-5.8685l5.8685-2.9272v2.9272ZM535.3503,195.4317c-.2441.3007-.4099.6695-.4099,1.0935s.1658.798.4099,1.1038v8.8548h-2.4517v-4.4846c0-.3341-.1735-.6451-.4575-.8211-.2878-.176-.6399-.1927-.9355-.0424l-9.5294,4.7531v-3.8896c0-.532-.4318-.9637-.9637-.9637s-.9637.4318-.9637.9637v4.4846h-4.6259v-8.4989c.478-.3174.8083-.8391.8083-1.4597s-.3302-1.1321-.8083-1.4417v-8.5271h2.8758v4.4422c0,.3341.1735.6451.4575.8211.1555.0951.3315.1426.5063.1426.1491,0,.2968-.0347.4318-.1028l9.5024-4.7724v3.9115c0,.532.4318.9637.9637.9637s.9637-.4318.9637-.9637v-4.4422h4.2263v8.8754Z"/>
            <path class="cls-13"
                  d="M543.293,173.9999h-34.9784c-2.7627,0-5.0101,2.2461-5.0101,5.0101v34.9527c0,2.7781,2.2474,5.0371,5.0101,5.0371h34.9784c2.7627,0,5.0114-2.259,5.0114-5.0371v-34.9527c0-2.764-2.2487-5.0101-5.0114-5.0101M547.0195,213.9627c0,2.0675-1.6718,3.7521-3.7264,3.7521h-34.9784c-2.0534,0-3.7252-1.6846-3.7252-3.7521v-34.9527c0-2.0534,1.6718-3.7252,3.7252-3.7252h34.9784c2.0547,0,3.7264,1.6718,3.7264,3.7252v34.9527Z"/>
         </g>
      </g>
      <g>
         <polyline class="cls-11" points="259.7278 165 236.8463 165 236.8463 171.1895"/>
         <polyline class="cls-11"
                   points="259.7278 195.1956 236.8463 195.1956 236.8463 188.7284"/>
         <polyline class="cls-11"
                   points="214.7278 180.0743 227.6921 180.0743 237.8139 174.875"/>
      </g>
      <g>
         <path class="cls-11"
               d="M132.5369,181.6227c0,2.4946,2.0223,4.5169,4.5168,4.5169s4.5169-2.0223,4.5169-4.5169c0-1.708-.9592-3.1766-2.3578-3.9443v-14.9876c0-1.019-.6384-1.9913-1.6285-2.2325-1.4142-.3444-2.6897.7373-2.6897,2.1038v15.1163c-1.3985.7677-2.3578,2.2363-2.3578,3.9443Z"/>
         <line class="cls-11"
               x1="139.2128"
               y1="176.0176"
               x2="137.6921"
               y2="176.0176"/>
         <line class="cls-11"
               x1="139.2128"
               y1="171.5008"
               x2="137.6921"
               y2="171.5008"/>
         <line class="cls-11"
               x1="139.2128"
               y1="166.9839"
               x2="137.6921"
               y2="166.9839"/>
      </g>
      <g>
         <circle class="cls-11" cx="159.2612" cy="160.6271" r="3.3756"/>
         <path class="cls-11"
               d="M171.3632,162.9762c-.4892-.2935-3.8159,1.2231-6.6891,1.0265-1.0953-.0749-2.1004-.5347-2.942-1.0905.5569-.6019.9047-1.4005.9047-2.2852,0-.2898-.0477-.5662-.1164-.8345,1.3525-.4356,2.8815-1.0516,4.0799-1.8745,3.6788-2.5261,3.7181-6.1153,3.7181-6.1153,0,0-.2935-1.8101-3.0821-3.2288-1.9336-.9838-5.3325-.5381-5.6261-.049-.2935.4892,1.2231,3.8159,1.0266,6.6891-.0749,1.0953-.5347,2.1004-1.0905,2.942-.6019-.5569-1.4005-.9047-2.2852-.9047-.3055,0-.5958.0536-.8772.1297-.433-1.3206-1.0345-2.7907-1.8317-3.9517-2.5262-3.6788-6.1153-3.7181-6.1153-3.7181,0,0-1.8101.2935-3.2289,3.0821-.9837,1.9336-.5381,5.3325-.0489,5.6261.4892.2935,3.8159-1.2231,6.6891-1.0266,1.0627.0727,2.0395.5084,2.8655,1.0417-.5092.5912-.8282,1.351-.8282,2.1925,0,.3069.0541.5985.1309.881-1.3177.4328-2.7827,1.033-3.9404,1.828-3.6788,2.5261-3.7181,6.1153-3.7181,6.1153,0,0,.2935,1.8101,3.0821,3.2288,1.9336.9837,5.3325.5381,5.626.0489.2935-.4892-1.2231-3.8159-1.0265-6.6891.0725-1.0598.5061-2.0341,1.0374-2.8588.5901.5051,1.3466.8215,2.1842.8215.2898,0,.5662-.0477.8345-.1164.4356,1.3525,1.0516,2.8815,1.8745,4.0799,2.5261,3.6788,6.1153,3.7181,6.1153,3.7181,0,0,1.8101-.2935,3.2289-3.0821.9837-1.9336.5381-5.3325.0489-5.626Z"/>
      </g>
      <g>
         <circle class="cls-11" cx="332.2105" cy="247.5569" r="3.3756"/>
         <path class="cls-11"
               d="M344.3126,249.906c-.4892-.2935-3.8159,1.2231-6.6891,1.0265-1.0953-.0749-2.1004-.5347-2.942-1.0905.5569-.6019.9047-1.4005.9047-2.2852,0-.2898-.0477-.5662-.1164-.8345,1.3525-.4356,2.8815-1.0516,4.0799-1.8745,3.6788-2.5261,3.7181-6.1153,3.7181-6.1153,0,0-.2935-1.8101-3.0821-3.2288-1.9336-.9838-5.3325-.5381-5.6261-.049-.2935.4892,1.2231,3.8159,1.0266,6.6891-.0749,1.0953-.5347,2.1004-1.0905,2.942-.6019-.5569-1.4005-.9047-2.2852-.9047-.3055,0-.5958.0536-.8772.1297-.433-1.3206-1.0345-2.7907-1.8317-3.9517-2.5262-3.6788-6.1153-3.7181-6.1153-3.7181,0,0-1.8101.2935-3.2289,3.0821-.9837,1.9336-.5381,5.3325-.0489,5.6261.4892.2935,3.8159-1.2231,6.6891-1.0266,1.0627.0727,2.0395.5084,2.8655,1.0417-.5092.5912-.8282,1.351-.8282,2.1925,0,.3069.0541.5985.1309.881-1.3177.4328-2.7827,1.033-3.9404,1.828-3.6788,2.5261-3.7181,6.1153-3.7181,6.1153,0,0,.2935,1.8101,3.0821,3.2288,1.9336.9837,5.3325.5381,5.626.0489.2935-.4892-1.2231-3.8159-1.0265-6.6891.0725-1.0598.5061-2.0341,1.0374-2.8588.5901.5051,1.3466.8215,2.1842.8215.2898,0,.5662-.0477.8345-.1164.4356,1.3525,1.0516,2.8815,1.8745,4.0799,2.5261,3.6788,6.1153,3.7181,6.1153,3.7181,0,0,1.8101-.2935,3.2289-3.0821.9837-1.9336.5381-5.3325.0489-5.626Z"/>
      </g>
      <g>
         <circle class="cls-11" cx="429.4558" cy="247.5569" r="3.3756"/>
         <path class="cls-11"
               d="M441.5579,249.906c-.4892-.2935-3.8159,1.2231-6.6891,1.0265-1.0953-.0749-2.1004-.5347-2.942-1.0905.5569-.6019.9047-1.4005.9047-2.2852,0-.2898-.0477-.5662-.1164-.8345,1.3525-.4356,2.8815-1.0516,4.0799-1.8745,3.6788-2.5261,3.7181-6.1153,3.7181-6.1153,0,0-.2935-1.8101-3.0821-3.2288-1.9336-.9838-5.3325-.5381-5.6261-.049-.2935.4892,1.2231,3.8159,1.0266,6.6891-.0749,1.0953-.5347,2.1004-1.0905,2.942-.6019-.5569-1.4005-.9047-2.2852-.9047-.3055,0-.5958.0536-.8772.1297-.433-1.3206-1.0345-2.7907-1.8317-3.9517-2.5262-3.6788-6.1153-3.7181-6.1153-3.7181,0,0-1.8101.2935-3.2289,3.0821-.9837,1.9336-.5381,5.3325-.0489,5.6261.4892.2935,3.8159-1.2231,6.6891-1.0266,1.0627.0727,2.0395.5084,2.8655,1.0417-.5092.5912-.8282,1.351-.8282,2.1925,0,.3069.0541.5985.1309.881-1.3177.4328-2.7827,1.033-3.9404,1.828-3.6788,2.5261-3.7181,6.1153-3.7181,6.1153,0,0,.2935,1.8101,3.0821,3.2288,1.9336.9837,5.3325.5381,5.626.0489.2935-.4892-1.2231-3.8159-1.0265-6.6891.0725-1.0598.5061-2.0341,1.0374-2.8588.5901.5051,1.3466.8215,2.1842.8215.2898,0,.5662-.0477.8345-.1164.4356,1.3525,1.0516,2.8815,1.8745,4.0799,2.5261,3.6788,6.1153,3.7181,6.1153,3.7181,0,0,1.8101-.2935,3.2289-3.0821.9837-1.9336.5381-5.3325.0489-5.626Z"/>
      </g>
      <g>
         <circle class="cls-11" cx="525.8044" cy="247.5569" r="3.3756"/>
         <path class="cls-11"
               d="M537.9065,249.906c-.4892-.2935-3.8159,1.2231-6.6891,1.0265-1.0953-.0749-2.1004-.5347-2.942-1.0905.5569-.6019.9047-1.4005.9047-2.2852,0-.2898-.0477-.5662-.1164-.8345,1.3525-.4356,2.8815-1.0516,4.0799-1.8745,3.6788-2.5261,3.7181-6.1153,3.7181-6.1153,0,0-.2935-1.8101-3.0821-3.2288-1.9336-.9838-5.3325-.5381-5.6261-.049-.2935.4892,1.2231,3.8159,1.0266,6.6891-.0749,1.0953-.5347,2.1004-1.0905,2.942-.6019-.5569-1.4005-.9047-2.2852-.9047-.3055,0-.5958.0536-.8772.1297-.433-1.3206-1.0345-2.7907-1.8317-3.9517-2.5262-3.6788-6.1153-3.7181-6.1153-3.7181,0,0-1.8101.2935-3.2289,3.0821-.9837,1.9336-.5381,5.3325-.0489,5.6261.4892.2935,3.8159-1.2231,6.6891-1.0266,1.0627.0727,2.0395.5084,2.8655,1.0417-.5092.5912-.8282,1.351-.8282,2.1925,0,.3069.0541.5985.1309.881-1.3177.4328-2.7827,1.033-3.9404,1.828-3.6788,2.5261-3.7181,6.1153-3.7181,6.1153,0,0,.2935,1.8101,3.0821,3.2288,1.9336.9837,5.3325.5381,5.626.0489.2935-.4892-1.2231-3.8159-1.0265-6.6891.0725-1.0598.5061-2.0341,1.0374-2.8588.5901.5051,1.3466.8215,2.1842.8215.2898,0,.5662-.0477.8345-.1164.4356,1.3525,1.0516,2.8815,1.8745,4.0799,2.5261,3.6788,6.1153,3.7181,6.1153,3.7181,0,0,1.8101-.2935,3.2289-3.0821.9837-1.9336.5381-5.3325.0489-5.626Z"/>
      </g>
      <g>
         <circle class="cls-11" cx="243.8384" cy="209.6761" r="4.4741"/>
         <polyline class="cls-11"
                   points="250.9385 209.7615 257.3722 209.7615 257.3722 216.0608 265.2464 209.7615 257.3722 203.4621 257.3722 205.0369"/>
         <polyline class="cls-11"
                   points="223.5171 209.7615 217.0834 209.7615 217.0834 203.4621 209.2092 209.7615 217.0834 216.0608 217.0834 214.486"/>
         <line class="cls-11"
               x1="227.6442"
               y1="205.3965"
               x2="227.6442"
               y2="213.9556"/>
         <line class="cls-11"
               x1="232.945"
               y1="214.3209"
               x2="236.7382"
               y2="205.202"/>
         <line class="cls-11"
               x1="226.3074"
               y1="214.3209"
               x2="229.0308"
               y2="214.3209"/>
         <line class="cls-11"
               x1="226.3074"
               y1="205.0312"
               x2="229.0308"
               y2="205.0312"/>
      </g>
      <g>
         <circle class="cls-10" cx="30.5297" cy="78.2322" r="13.7254"/>
         <circle class="cls-10" cx="30.4546" cy="78.2322" r="9.7603"/>
         <circle class="cls-10" cx="30.4922" cy="78.2322" r="5.4902"/>
         <line class="cls-10"
               x1="44.18"
               y1="64.5068"
               x2="16.525"
               y2="92.1618"/>
         <line class="cls-10"
               x1="44.2551"
               y1="92.0327"
               x2="16.7292"
               y2="64.5068"/>
         <circle class="cls-13" cx="44.2551" cy="92.0327" r="1.525"/>
         <circle class="cls-13" cx="44.18" cy="64.5068" r="1.525"/>
         <circle class="cls-13" cx="16.525" cy="92.1618" r="1.525"/>
         <circle class="cls-13" cx="16.8044" cy="64.5068" r="1.525"/>
      </g>
      <polyline class="cls-11"
                points="59.4552 87.9925 64.8782 76.1296 57.0826 77.4006 62.082 67.0629"/>
      <g>
         <circle class="cls-10" cx="607.2131" cy="78.2322" r="13.7254"/>
         <circle class="cls-10" cx="607.138" cy="78.2322" r="9.7603"/>
         <circle class="cls-10" cx="607.1755" cy="78.2322" r="5.4902"/>
         <line class="cls-10"
               x1="620.8633"
               y1="64.5068"
               x2="593.2084"
               y2="92.1618"/>
         <line class="cls-10"
               x1="620.9385"
               y1="92.0327"
               x2="593.4126"
               y2="64.5068"/>
         <circle class="cls-13" cx="620.9384" cy="92.0327" r="1.525"/>
         <circle class="cls-13" cx="620.8633" cy="64.5068" r="1.525"/>
         <circle class="cls-13" cx="593.2084" cy="92.1618" r="1.525"/>
         <circle class="cls-13" cx="593.4877" cy="64.5068" r="1.525"/>
      </g>
      <polyline class="cls-11"
                points="636.1385 87.9925 641.5616 76.1296 633.766 77.4006 638.7653 67.0629"/>
      <text class="cls-2" transform="translate(613.9613 54.3437)">
         <tspan x="0" y="0">24 V</tspan>
      </text>
      <line class="cls-11"
            x1="641.3694"
            y1="48.2634"
            x2="649.7389"
            y2="48.2634"/>
      <line class="cls-11"
            x1="649.051"
            y1="52.2311"
            x2="649.7389"
            y2="52.2311"/>
      <line class="cls-11"
            x1="641.3694"
            y1="52.2311"
            x2="642.0573"
            y2="52.2311"/>
      <line class="cls-11"
            x1="645.2102"
            y1="52.2311"
            x2="645.8981"
            y2="52.2311"/>
      <text class="cls-2" transform="translate(38.0001 54.3437)">
         <tspan x="0" y="0">24 V</tspan>
      </text>
      <line class="cls-11"
            x1="65.4082"
            y1="48.2634"
            x2="73.7776"
            y2="48.2634"/>
      <line class="cls-11"
            x1="73.0897"
            y1="52.2311"
            x2="73.7776"
            y2="52.2311"/>
      <line class="cls-11"
            x1="65.4082"
            y1="52.2311"
            x2="66.0961"
            y2="52.2311"/>
      <line class="cls-11"
            x1="69.2489"
            y1="52.2311"
            x2="69.9368"
            y2="52.2311"/>
      <g>
         <line class="cls-8" x1="55.719" y1="12" x2="70.4844" y2="12"/>
         <line class="cls-8" x1="69.2708" y1="19" x2="70.4844" y2="19"/>
         <line class="cls-8" x1="55.719" y1="19" x2="56.9326" y2="19"/>
         <line class="cls-8" x1="62.4949" y1="19" x2="63.7085" y2="19"/>
      </g>
      <g>
         <path class="cls-11"
               d="M29.172,207.6476h-3.6809c-1.0996,0-1.9911-.8914-1.9911-1.9911v-24.275c0-1.0996.8914-1.9911,1.9911-1.9911h39.0179c1.0996,0,1.9911.8914,1.9911,1.9911v24.275c0,1.0996-.8914,1.9911-1.9911,1.9911h-29.6045"/>
         <line class="cls-11" x1="25.2739" y1="177" x2="28.0255" y2="177"/>
         <line class="cls-11"
               x1="26.1911"
               y1="182.0446"
               x2="26.1911"
               y2="204.8981"/>
         <line class="cls-11"
               x1="31.0828"
               y1="182.5796"
               x2="37.2739"
               y2="182.5796"/>
         <polyline class="cls-11"
                   points="31.3885 198.1911 42.6242 198.1911 60.2038 198.1911"/>
         <line class="cls-11"
               x1="40.7516"
               y1="203.9714"
               x2="40.7516"
               y2="198.43"/>
         <polyline class="cls-11"
                   points="54.242 197.9522 54.242 193.2803 47.1338 193.2803 47.1338 189.9172 57.8344 189.9172 57.8344 197.9045"/>
         <polyline class="cls-11"
                   points="57.8344 189.9172 57.8344 186.6306 31.3885 186.6306"/>
         <rect class="cls-11"
               x="40.035"
               y="202.8917"
               width="1.4331"
               height="1.4331"/>
         <rect class="cls-11"
               x="35.5255"
               y="197.1879"
               width="1.4331"
               height="1.4331"/>
         <rect class="cls-11"
               x="44.4777"
               y="197.1879"
               width="1.4331"
               height="1.4331"/>
         <rect class="cls-11"
               x="49.5796"
               y="197.1879"
               width="1.4331"
               height="1.4331"/>
         <rect class="cls-11"
               x="49.5796"
               y="192.5016"
               width="1.4331"
               height="1.4331"/>
      </g>
      <g>
         <circle class="cls-16" cx="190.6452" cy="95.5" r="9.5"/>
         <text class="cls-15" transform="translate(184.868 101.0322)">
            <tspan x="0" y="0">C</tspan>
         </text>
      </g>
      <g>
         <circle class="cls-16" cx="98.5847" cy="226.0322" r="9.5"/>
         <text class="cls-15" transform="translate(93.249 231.5645)">
            <tspan x="0" y="0">E</tspan>
         </text>
      </g>
      <g>
         <circle class="cls-16" cx="381.3986" cy="251.9809" r="9.5"/>
         <text class="cls-15" transform="translate(376.0631 257.5132)">
            <tspan x="0" y="0">K</tspan>
         </text>
      </g>
      <path class="cls-9"
            d="M630.3195,15.2511c-.5773,2.0298-1.7252,3.4714-3.8534,3.4714s-3.3347-1.3523-3.8534-3.4714c-.5752-2.0197-1.7252-3.5286-3.8534-3.5286s-3.3836,1.3523-3.8534,3.5286"/>
   </g>
</svg>
