<?xml version="1.0" encoding="UTF-8"?>
<svg xmlns="http://www.w3.org/2000/svg"
     width="120mm"
     height="50mm"
     viewBox="0 0 340.1575 141.7323">
   <defs>
      <style>
      .uuid-751000a5-ef8b-4102-843f-d3e794d4a4d0 {
        fill: #010101;
        stroke-width: .106px;
      }

      .uuid-751000a5-ef8b-4102-843f-d3e794d4a4d0, .uuid-29d631c3-85f2-40d0-b978-aeb9deffae52, .uuid-e1014a63-6807-4d7f-b7fe-3f702a0b099b, .uuid-177f326d-f008-4c5e-b25a-81b0a4284e35 {
        stroke: #010101;
      }

      .uuid-751000a5-ef8b-4102-843f-d3e794d4a4d0, .uuid-29d631c3-85f2-40d0-b978-aeb9deffae52, .uuid-e1014a63-6807-4d7f-b7fe-3f702a0b099b, .uuid-177f326d-f008-4c5e-b25a-81b0a4284e35, .uuid-fd897a69-81c5-4252-9e22-c4b6dfcbd102 {
        stroke-linecap: round;
      }

      .uuid-29d631c3-85f2-40d0-b978-aeb9deffae52 {
        stroke-width: .4768px;
      }

      .uuid-29d631c3-85f2-40d0-b978-aeb9deffae52, .uuid-e1014a63-6807-4d7f-b7fe-3f702a0b099b, .uuid-177f326d-f008-4c5e-b25a-81b0a4284e35, .uuid-fd897a69-81c5-4252-9e22-c4b6dfcbd102 {
        fill: none;
      }

      .uuid-29d631c3-85f2-40d0-b978-aeb9deffae52, .uuid-177f326d-f008-4c5e-b25a-81b0a4284e35 {
        stroke-miterlimit: 10.2833;
      }

      .uuid-e1014a63-6807-4d7f-b7fe-3f702a0b099b {
        stroke-width: .5px;
      }

      .uuid-177f326d-f008-4c5e-b25a-81b0a4284e35 {
        stroke-width: .1907px;
      }

      .uuid-fd897a69-81c5-4252-9e22-c4b6dfcbd102 {
        stroke: #fff;
      }

      .uuid-663bc847-0582-4f9b-9fed-020270f0d117 {
        fill: #231f20;
        font-size: 12px;
      }

      .uuid-663bc847-0582-4f9b-9fed-020270f0d117, .uuid-72308bab-c33c-4eb0-8191-fc7e6c18a29f, .uuid-587b5250-d42f-49c8-8cd1-e70512c53feb {
        font-family: ArialMT, Arial;
      }

      .uuid-72308bab-c33c-4eb0-8191-fc7e6c18a29f {
        letter-spacing: -.0552em;
      }

      .uuid-72308bab-c33c-4eb0-8191-fc7e6c18a29f, .uuid-587b5250-d42f-49c8-8cd1-e70512c53feb {
        fill: #fff;
        font-size: 16px;
        isolation: isolate;
      }
    </style>
   </defs>
   <g id="uuid-e9747467-1bd2-47bf-b82b-7aefd1a443b2" data-name="Layer 1">
      <g id="uuid-1db379a7-fb21-4d88-8b8f-c4c977f5e092" data-name="ID 1003">
         <g id="uuid-36356e06-ce13-40d7-a6b8-739c95f22fdb" data-name="ID 1004">
            <g id="uuid-46745fd1-0115-4794-b7a8-aa7d2b4fef8b" data-name="ID 1005">
               <g id="uuid-82ba3bac-e9da-48a9-96a7-91f129e7bf89" data-name="ID 4455">
                  <g id="uuid-b00b29c9-5d37-49e9-acb5-b1bced8cfb4a" data-name="ID 4484">
                     <polyline class="uuid-177f326d-f008-4c5e-b25a-81b0a4284e35"
                               points="133.9127 63.2908 133.9746 63.2661 134.2913 63.267"/>
                     <polyline class="uuid-177f326d-f008-4c5e-b25a-81b0a4284e35"
                               points="134.2941 63.2584 134.0071 63.019 133.884 62.69 133.2803 56.0074 133.3404 55.707"/>
                     <polyline class="uuid-177f326d-f008-4c5e-b25a-81b0a4284e35"
                               points="132.5765 63.8974 132.4392 63.8421 132.2513 63.6714 132.0243 63.225 131.4235 56.5758"/>
                     <line class="uuid-177f326d-f008-4c5e-b25a-81b0a4284e35"
                           x1="136.7966"
                           y1="67.015"
                           x2="124.2622"
                           y2="72.6953"/>
                     <line class="uuid-177f326d-f008-4c5e-b25a-81b0a4284e35"
                           x1="136.1119"
                           y1="66.748"
                           x2="123.5783"
                           y2="72.4263"/>
                     <polyline class="uuid-177f326d-f008-4c5e-b25a-81b0a4284e35"
                               points="123.6813 106.2245 123.6947 107.0399 123.8759 107.554"/>
                     <line class="uuid-177f326d-f008-4c5e-b25a-81b0a4284e35"
                           x1="123.8788"
                           y1="107.7342"
                           x2="120.2747"
                           y2="109.3679"/>
                     <polyline class="uuid-177f326d-f008-4c5e-b25a-81b0a4284e35"
                               points="123.688 110.0011 123.1454 110.1604 120.825 109.7293 120.2747 109.3679 120.0392 108.6946 119.9972 106.0214 120.2128 105.4339"/>
                     <polyline class="uuid-177f326d-f008-4c5e-b25a-81b0a4284e35"
                               points="121.6204 68.8595 121.6709 68.8395 121.9342 68.8624 121.958 68.87 123.1082 69.3879 123.2303 69.5681 123.4658 72.1641 123.5783 72.4263 123.8053 72.5503 124.0352 72.5713 124.2622 72.6953 124.3766 72.9575 125.0547 83.6752 125.4953 94.3605 125.6965 105.0047 125.6574 115.6032 125.5229 121.8871 125.3942 122.5165 125.0614 123.0001 124.5759 123.2719"/>
                     <polyline class="uuid-177f326d-f008-4c5e-b25a-81b0a4284e35"
                               points="121.1941 69.3764 120.8317 69.529 120.7774 69.5242 120.3787 69.3068 120.2175 69.1227 120.0201 68.6649 119.3192 60.9047 119.3163 60.8494 119.4364 60.4708 119.5662 60.3124"/>
                     <line class="uuid-177f326d-f008-4c5e-b25a-81b0a4284e35"
                           x1="119.5337"
                           y1="57.8395"
                           x2="120.9557"
                           y2="57.1814"/>
                     <polyline class="uuid-177f326d-f008-4c5e-b25a-81b0a4284e35"
                               points="119.4889 55.0423 119.2543 55.6822 119.2753 57.108 119.5337 57.8395 120.1327 58.2334 120.7239 58.0608"/>
                     <line class="uuid-177f326d-f008-4c5e-b25a-81b0a4284e35"
                           x1="115.1944"
                           y1="51.5832"
                           x2="115.0914"
                           y2="45.0914"/>
                     <polyline class="uuid-177f326d-f008-4c5e-b25a-81b0a4284e35"
                               points="127.746 47.8733 127.1404 47.4413 126.0132 47.1199 115.0914 45.0914 112.8864 45.4166 110.8665 45.84 109.0783 46.3474 107.5715 46.9311 106.3793 47.572 105.5363 48.2539 105.0594 48.9634 104.9612 49.6825"/>
                     <polyline class="uuid-177f326d-f008-4c5e-b25a-81b0a4284e35"
                               points="108.8904 120.4852 104.1439 135.3782 103.7156 136.0333"/>
                     <polyline class="uuid-177f326d-f008-4c5e-b25a-81b0a4284e35"
                               points="103.2255 128.5344 103.5669 128.2702 103.689 127.7991 103.6489 125.2241 103.5507 124.7864 103.2913 124.4182 101.957 123.1622 101.6967 122.7931 101.5994 122.3544 101.5488 119.1214"/>
                     <line class="uuid-177f326d-f008-4c5e-b25a-81b0a4284e35"
                           x1="101.5145"
                           y1="43.4062"
                           x2="101.5078"
                           y2="42.9341"/>
                     <line class="uuid-177f326d-f008-4c5e-b25a-81b0a4284e35"
                           x1="106.8362"
                           y1="45.2345"
                           x2="99.9056"
                           y2="48.3759"/>
                     <polyline class="uuid-177f326d-f008-4c5e-b25a-81b0a4284e35"
                               points="98.6792 136.3633 98.9929 135.8083 98.9815 135.0892 98.6487 134.413 98.5457 134.1355 98.4913 130.6783"/>
                     <line class="uuid-177f326d-f008-4c5e-b25a-81b0a4284e35"
                           x1="106.8181"
                           y1="44.1663"
                           x2="98.2185"
                           y2="48.0612"/>
                     <polyline class="uuid-177f326d-f008-4c5e-b25a-81b0a4284e35"
                               points="97.4804 131.1361 97.8218 130.8729 97.9448 130.4027 97.9038 127.8258 97.8056 127.388 97.5471 127.0209 96.212 125.7648 95.9535 125.3958 95.8543 124.958 95.7885 120.716 95.9487 119.7251 96.437 118.9516 97.1819 118.5129"/>
                     <polyline class="uuid-177f326d-f008-4c5e-b25a-81b0a4284e35"
                               points="92.9341 138.966 93.2479 138.4109 93.2364 137.6909 92.9045 137.0166 92.8015 136.7391 92.7414 132.888 92.8149 132.6057 93.0209 132.4474"/>
                     <polyline class="uuid-177f326d-f008-4c5e-b25a-81b0a4284e35"
                               points="112.0233 44.8873 101.5078 42.9341 92.5259 47.0045"/>
                     <polyline class="uuid-177f326d-f008-4c5e-b25a-81b0a4284e35"
                               points="95.552 129.5959 95.2354 129.7294 94.7728 129.6436 94.624 129.6502 92.2779 130.3388"/>
                     <line class="uuid-177f326d-f008-4c5e-b25a-81b0a4284e35"
                           x1="93.9994"
                           y1="124.5994"
                           x2="91.7257"
                           y2="125.6294"/>
                     <polyline class="uuid-177f326d-f008-4c5e-b25a-81b0a4284e35"
                               points="94.9197 43.4796 90.9828 42.7481 90.7082 42.5937 90.5384 42.2847"/>
                     <polyline class="uuid-177f326d-f008-4c5e-b25a-81b0a4284e35"
                               points="91.7057 44.9369 90.2542 44.667 89.8985 44.4 89.7745 44.1921 89.6781 43.6895 89.6877 43.6227 89.908 43.1792 90.4621 42.6804 90.4926 42.6166 90.5384 42.2847"/>
                     <polyline class="uuid-177f326d-f008-4c5e-b25a-81b0a4284e35"
                               points="91.597 127.2555 91.8011 127.1363 91.8764 126.8788 91.8612 125.9871 91.7257 125.6294 91.4215 125.4644 90.5937 125.2651 89.8203 124.7644 89.5456 124.3906 89.4397 123.9366 89.5456 123.495 90.0062 122.4164 90.2475 121.209 90.5842 117.8568 90.8321 117.3504"/>
                     <polyline class="uuid-177f326d-f008-4c5e-b25a-81b0a4284e35"
                               points="122.3262 60.6987 122.4139 60.5375 122.1803 57.9396 122.1783 57.9091 122.2556 57.6831"/>
                     <polyline class="uuid-177f326d-f008-4c5e-b25a-81b0a4284e35"
                               points="88.0206 47.406 88.2371 47.3412 121.1874 53.4649 121.7415 53.6842 122.226 54.1105 122.577 54.6847 122.7486 55.3341 122.9613 57.2921 122.8936 57.5391"/>
                     <polyline class="uuid-177f326d-f008-4c5e-b25a-81b0a4284e35"
                               points="87.8518 48.1432 87.6334 48.2071 85.4027 47.7932"/>
                     <line class="uuid-177f326d-f008-4c5e-b25a-81b0a4284e35"
                           x1="87.7297"
                           y1="40.1131"
                           x2="75.1962"
                           y2="45.7914"/>
                     <line class="uuid-177f326d-f008-4c5e-b25a-81b0a4284e35"
                           x1="87.5371"
                           y1="39.3072"
                           x2="75.0036"
                           y2="44.9874"/>
                     <polyline class="uuid-177f326d-f008-4c5e-b25a-81b0a4284e35"
                               points="85.2949 51.2332 84.9163 51.3448 78.25 50.106 77.8647 49.8532 77.7159 49.6558 77.549 49.1847 77.549 49.1227 77.6997 48.7116 78.1699 48.2491 78.1889 48.1919 78.1842 47.8876 78.1813 47.8581 77.796 46.501 77.6472 46.3512 75.4165 45.9373 75.1962 45.7914 75.1028 45.5225 75.098 45.2564 75.0036 44.9874 74.7842 44.8415 72.5573 44.4276 71.6752 44.5859"/>
                     <line class="uuid-177f326d-f008-4c5e-b25a-81b0a4284e35"
                           x1="63.4333"
                           y1="63.2403"
                           x2="63.3513"
                           y2="58.0636"/>
                     <line class="uuid-177f326d-f008-4c5e-b25a-81b0a4284e35"
                           x1="70.3314"
                           y1="60.7559"
                           x2="62.0209"
                           y2="64.5221"/>
                     <line class="uuid-177f326d-f008-4c5e-b25a-81b0a4284e35"
                           x1="64.3021"
                           y1="57.6335"
                           x2="70.2999"
                           y2="58.7484"/>
                     <line class="uuid-177f326d-f008-4c5e-b25a-81b0a4284e35"
                           x1="64.3088"
                           y1="57.0184"
                           x2="51.7762"
                           y2="62.6967"/>
                     <polyline class="uuid-177f326d-f008-4c5e-b25a-81b0a4284e35"
                               points="43.0956 117.3589 43.0117 117.8892 43.0661 118.2087 43.0737 118.6951 42.9764 118.9764"/>
                     <polyline class="uuid-177f326d-f008-4c5e-b25a-81b0a4284e35"
                               points="54.5935 35.768 54.3846 35.4352 53.9583 35.1233 53.3307 34.8458 52.5277 34.6121 51.5788 34.4319 50.5202 34.3117 49.3939 34.2564 48.2428 34.2698 47.1079 34.347 46.0378 34.4882 45.0707 34.6875 44.2448 34.9374 43.5916 35.2292 43.1357 35.5487 42.8944 35.8853 42.8782 36.2287"/>
                     <polyline class="uuid-177f326d-f008-4c5e-b25a-81b0a4284e35"
                               points="41.1768 120.2057 41.3103 119.9921 41.4772 119.2597 41.812 118.9955"/>
                     <polyline class="uuid-177f326d-f008-4c5e-b25a-81b0a4284e35"
                               points="41.812 120.2858 42.1448 120.2706 43.0575 120.7188 43.2931 121.107 43.314 122.4307 43.2978 122.6253 42.4586 125.5407 41.1224 128.1129 40.5168 128.7957 39.7625 129.2592"/>
                     <polyline class="uuid-177f326d-f008-4c5e-b25a-81b0a4284e35"
                               points="40.4482 107.9316 40.1735 108.3121 38.7611 113.9104 37.8579 119.7461 37.8484 119.9902 37.9752 120.694 38.3205 121.3349 38.8278 121.8137 39.421 122.0588 39.9761 122.1627 40.494 122.1742 40.9689 122.012"/>
                     <line class="uuid-177f326d-f008-4c5e-b25a-81b0a4284e35"
                           x1="40.5722"
                           y1="32.9212"
                           x2="33.6416"
                           y2="36.0618"/>
                     <line class="uuid-177f326d-f008-4c5e-b25a-81b0a4284e35"
                           x1="40.554"
                           y1="31.8531"
                           x2="31.9545"
                           y2="35.749"/>
                     <polyline class="uuid-177f326d-f008-4c5e-b25a-81b0a4284e35"
                               points="35.5538 121.8871 35.1084 121.9682 31.388 121.2777 30.8377 120.9153 30.6012 120.242 30.6041 120.1447 30.9694 116.7505 31.5053 113.4211 32.2092 110.1642 33.0761 106.9932 33.3526 106.6127"/>
                     <line class="uuid-177f326d-f008-4c5e-b25a-81b0a4284e35"
                           x1="38.7592"
                           y1="37.0136"
                           x2="47.3587"
                           y2="33.1177"/>
                     <line class="uuid-177f326d-f008-4c5e-b25a-81b0a4284e35"
                           x1="37.4087"
                           y1="31.0243"
                           x2="37.4125"
                           y2="31.2685"/>
                     <polyline class="uuid-177f326d-f008-4c5e-b25a-81b0a4284e35"
                               points="28.7081 35.1453 28.9513 35.0356 31.5597 34.2659 33.7818 33.3971 35.57 32.4482 36.8899 31.4382 37.3076 31.2494"/>
                     <polyline class="uuid-177f326d-f008-4c5e-b25a-81b0a4284e35"
                               points="47.9242 32.9775 37.4087 31.0243 36.8861 31.2608 35.5671 32.2689 33.7789 33.2178 31.5559 34.0876 28.9494 34.8563 28.4259 35.0938"/>
                     <polyline class="uuid-177f326d-f008-4c5e-b25a-81b0a4284e35"
                               points="35.4889 30.2995 24.5681 28.271 23.0918 28.1079 21.4886 28.1289 20.0056 28.3292 18.8688 28.6801 11.0351 32.2279"/>
                     <polyline class="uuid-177f326d-f008-4c5e-b25a-81b0a4284e35"
                               points="28.3781 120.5529 27.9309 120.6359 10.4019 117.379 9.8506 117.0156 9.6151 116.3442 9.6179 116.246 9.9842 112.8508 10.5182 109.5214 11.2192 106.2646 12.087 103.0944 12.3627 102.712"/>
                     <line class="uuid-177f326d-f008-4c5e-b25a-81b0a4284e35"
                           x1="7.7563"
                           y1="39.4541"
                           x2="7.247"
                           y2="39.8594"/>
                     <line class="uuid-177f326d-f008-4c5e-b25a-81b0a4284e35"
                           x1="7.3405"
                           y1="36.9916"
                           x2="8.7634"
                           y2="36.3336"/>
                     <polyline class="uuid-177f326d-f008-4c5e-b25a-81b0a4284e35"
                               points="8.5317 37.2129 7.9413 37.3874 7.3405 36.9916 7.084 36.2601 7.062 34.8344 7.2966 34.1935"/>
                     <polyline class="uuid-177f326d-f008-4c5e-b25a-81b0a4284e35"
                               points="70.1893 66.1186 69.6466 66.2778 52.3265 63.0591 51.7762 62.6967 51.5397 62.0253 51.2803 45.5444 51.0743 44.2903 50.1826 41.4397 49.6027 40.4831 48.711 39.9977 6.7292 32.1955 6.1798 32.2107"/>
                     <polyline class="uuid-177f326d-f008-4c5e-b25a-81b0a4284e35"
                               points="9.4005 84.9885 9.4138 85.8048 9.595 86.3208"/>
                     <line class="uuid-177f326d-f008-4c5e-b25a-81b0a4284e35"
                           x1="9.5989"
                           y1="86.4991"
                           x2="5.9948"
                           y2="88.1328"/>
                     <polyline class="uuid-177f326d-f008-4c5e-b25a-81b0a4284e35"
                               points="9.4072 88.767 8.8655 88.9263 6.5451 88.4952 5.9948 88.1328 5.7583 87.4595 5.7163 84.7872 5.9328 84.1988"/>
                     <polyline class="uuid-177f326d-f008-4c5e-b25a-81b0a4284e35"
                               points="8.0405 48.4332 7.6476 48.5028 7.5951 48.4866 7.2232 48.1976 6.7816 47.5233 6.7292 47.4823 6.464 47.407 6.4392 47.4041 5.2977 47.4966"/>
                     <polyline class="uuid-177f326d-f008-4c5e-b25a-81b0a4284e35"
                               points="4.9219 50.3777 4.6968 50.4178 4.466 50.353 4.241 50.393"/>
                     <polyline class="uuid-177f326d-f008-4c5e-b25a-81b0a4284e35"
                               points="7.4149 119.7804 6.7645 119.9721 5.7736 119.788 5.2395 119.4456 4.9896 118.8009 4.8523 116.5721 4.8876 116.2441 4.8876 115.1588 4.8494 114.9852 4.6739 114.4692 4.3602 114.0305 3.9501 113.7244 3.4971 113.5966 3.0651 113.6614"/>
                     <polyline class="uuid-29d631c3-85f2-40d0-b978-aeb9deffae52"
                               points="54.8595 120.0417 53.6035 122.4584 52.9979 123.1412 52.2435 123.6047 39.7625 129.2592 38.9003 129.4766 37.981 129.4328 5.8537 123.4645 4.7083 122.9991 3.7183 122.0979 3.0202 120.8867 2.7131 119.5353 2.407 114.8927 2.4032 114.8078 2.4785 114.31 2.7084 113.9104 3.0651 113.6614 8.9885 110.9758"/>
                     <polyline class="uuid-29d631c3-85f2-40d0-b978-aeb9deffae52"
                               points="7.4149 119.7804 7.6752 119.0756 7.6342 116.4558 7.7258 116.04 7.8383 115.7558 8.6328 112.6973 9.2813 109.5682 9.781 106.3733 10.1329 103.1231 9.9298 102.3925 9.349 101.9891 6.0931 101.3835 5.4998 101.1384 4.9915 100.6578 4.6482 100.0188 4.5185 99.314 4.1895 93.0329 3.7422 78.5558 3.7307 64.5383 4.1351 50.6143 4.241 50.393 5.0354 50.0335"/>
                     <polyline class="uuid-29d631c3-85f2-40d0-b978-aeb9deffae52"
                               points="4.9219 50.3777 5.0278 50.1565 5.1823 47.633 5.2977 47.4966 8.4973 46.046"/>
                     <polyline class="uuid-29d631c3-85f2-40d0-b978-aeb9deffae52"
                               points="8.2255 39.4159 7.247 39.8594 7.1927 39.868 6.9295 39.7926 6.9047 39.7812 5.8136 39.0507 5.7173 38.858 5.8718 36.3278 5.7965 36.0541 5.5857 35.8892 5.353 35.8233 5.1499 35.6727 5.065 35.4171 5.0659 35.3846 5.2176 33.4954 5.3701 32.9069 5.7049 32.4587 6.1798 32.2107 18.7124 26.5324 19.2627 26.5171 61.2446 34.3174 62.1363 34.8048 62.7161 35.7604 63.6078 38.612 63.8138 39.8642 64.0732 56.347 64.3088 57.0184 64.8591 57.3817 70.2933 58.3917"/>
                     <polyline class="uuid-29d631c3-85f2-40d0-b978-aeb9deffae52"
                               points="7.7563 39.4541 8.1502 39.3854 8.2036 39.3997 8.5755 39.6887 8.7119 39.8975 8.8435 40.3754 8.3829 47.9201 8.1969 48.3082 8.0405 48.4332"/>
                     <polyline class="uuid-29d631c3-85f2-40d0-b978-aeb9deffae52"
                               points="9.4072 88.767 9.6237 88.1786 9.5826 85.5044 9.3461 84.833 8.7949 84.4706 6.4764 84.0395 5.9328 84.1988"/>
                     <polyline class="uuid-29d631c3-85f2-40d0-b978-aeb9deffae52"
                               points="8.5317 37.2129 8.7663 36.5739 8.7443 35.1472 8.4868 34.4147 7.887 34.0218 7.2966 34.1935"/>
                     <polyline class="uuid-29d631c3-85f2-40d0-b978-aeb9deffae52"
                               points="35.4889 30.2995 35.3907 31.0177 34.9138 31.7272 34.0708 32.41 32.8787 33.0509 31.3718 33.6336 29.5836 34.141 27.5637 34.5645 25.3578 34.8906 11.0351 32.2279"/>
                     <polyline class="uuid-29d631c3-85f2-40d0-b978-aeb9deffae52"
                               points="28.3781 120.5529 28.6528 120.1724 29.5178 117.0004 30.2169 113.7444 30.749 110.4132 31.1114 107.0189 30.9074 106.2893 30.3285 105.8859 12.8071 102.631 12.3627 102.712"/>
                     <polyline class="uuid-29d631c3-85f2-40d0-b978-aeb9deffae52"
                               points="22.8953 104.505 22.4633 107.1963 22.099 110.5905 22.3021 111.3201 22.8829 111.7235 30.3199 113.1045"/>
                     <polyline class="uuid-29d631c3-85f2-40d0-b978-aeb9deffae52"
                               points="47.9242 32.9775 38.9423 37.0469 28.4259 35.0938"/>
                     <polyline class="uuid-29d631c3-85f2-40d0-b978-aeb9deffae52"
                               points="33.8114 36.0932 42.4109 32.1983 47.3587 33.1177 47.3606 33.2321"/>
                     <polyline class="uuid-29d631c3-85f2-40d0-b978-aeb9deffae52"
                               points="35.5538 121.8871 35.8285 121.5056 36.6916 118.3336 37.3897 115.0758 37.9199 111.7445 38.2823 108.3493 38.0782 107.6217 37.4974 107.2183 33.798 106.5316 33.3526 106.6127"/>
                     <polyline class="uuid-29d631c3-85f2-40d0-b978-aeb9deffae52"
                               points="40.7419 32.9537 40.5722 32.9212 40.554 31.8531 37.3076 31.2494"/>
                     <polyline class="uuid-29d631c3-85f2-40d0-b978-aeb9deffae52"
                               points="43.5706 110.8852 41.9589 113.1512 41.2645 114.3424 40.762 115.6823 40.4644 117.1377 40.3824 118.6731 40.4005 119.7976 40.494 120.0655 40.7143 120.2115 40.9432 120.2525 41.1768 120.2057 45.7851 118.1171"/>
                     <polyline class="uuid-29d631c3-85f2-40d0-b978-aeb9deffae52"
                               points="41.812 118.9955 42.7275 119.0718 42.9764 118.9764 45.0631 118.0313"/>
                     <polyline class="uuid-29d631c3-85f2-40d0-b978-aeb9deffae52"
                               points="94.0232 126.1568 91.597 127.2555 91.3252 127.2898 90.525 127.1411 89.1813 126.4801 88.7798 126.3447 49.6809 119.0785 48.2294 118.5825 47.8098 118.5053 47.4064 118.4729 47.0144 118.2659 46.6892 117.9178 46.4784 117.4743 46.2324 117.0328 45.4942 116.0734 44.9029 114.9966 44.4747 113.8465 44.2306 112.6581 44.1829 112.2872 43.9149 111.6844 43.6355 111.2085 43.5296 110.6754 43.7031 110.0126 43.8185 109.4223 43.7842 109.16 43.5181 108.5582 43.005 108.2416 40.8936 107.8496 40.4482 107.9316"/>
                     <polyline class="uuid-29d631c3-85f2-40d0-b978-aeb9deffae52"
                               points="46.7922 118.0275 41.812 120.2858 41.6661 120.6101 41.6727 121.0564 41.6403 121.2376 41.3609 121.6916 40.9689 122.012"/>
                     <polyline class="uuid-29d631c3-85f2-40d0-b978-aeb9deffae52"
                               points="43.0956 117.3589 43.5553 117.2893 45.1461 118.0723 45.5467 118.1458 46.7626 117.996"/>
                     <polyline class="uuid-29d631c3-85f2-40d0-b978-aeb9deffae52"
                               points="54.5935 35.768 54.5772 36.1094 54.335 36.4461 53.8801 36.7675 53.2268 37.0574 52.4 37.3073 51.4339 37.5076 50.3619 37.6487 49.2289 37.7269 48.0778 37.7384 46.9505 37.6831 45.8909 37.5638 44.942 37.3826 44.139 37.1499 43.5134 36.8715 43.0871 36.5606 42.8782 36.2287"/>
                     <polyline class="uuid-29d631c3-85f2-40d0-b978-aeb9deffae52"
                               points="70.3199 60.1179 61.0147 64.3351 52.8577 62.8197"/>
                     <line class="uuid-29d631c3-85f2-40d0-b978-aeb9deffae52"
                           x1="64.3021"
                           y1="57.6335"
                           x2="52.8577"
                           y2="62.8197"/>
                     <polyline class="uuid-29d631c3-85f2-40d0-b978-aeb9deffae52"
                               points="70.2265 66.0156 70.1779 66.0375 62.0209 64.5221"/>
                     <polyline class="uuid-29d631c3-85f2-40d0-b978-aeb9deffae52"
                               points="70.1893 66.1186 70.4048 65.5311 70.1464 49.0493 70.3133 47.8657 71.123 45.3298 71.6752 44.5859 84.2087 38.9057 85.089 38.7493 87.3168 39.1632 87.5371 39.3072 87.6315 39.5771 87.6363 39.8441 87.7297 40.1131 87.9501 40.259 90.1808 40.6729 90.3295 40.8226 90.7129 42.1797 90.7177 42.2074 90.7196 42.2923"/>
                     <line class="uuid-29d631c3-85f2-40d0-b978-aeb9deffae52"
                           x1="90.5451"
                           y1="42.2818"
                           x2="90.5403"
                           y2="42.2589"/>
                     <polyline class="uuid-29d631c3-85f2-40d0-b978-aeb9deffae52"
                               points="95.1028 43.3976 91.164 42.6661 90.877 42.5183 90.6729 42.2246 90.6643 42.2017"/>
                     <polyline class="uuid-29d631c3-85f2-40d0-b978-aeb9deffae52"
                               points="85.2949 51.2332 85.4399 51.0911 85.5906 50.6791 85.5906 50.6162 85.4256 50.146 84.9373 49.5061 84.9173 49.4412 84.9125 49.137 84.9144 49.1103 85.2587 47.8895 85.4027 47.7932 97.9362 42.113 99.1856 42.3457"/>
                     <polyline class="uuid-29d631c3-85f2-40d0-b978-aeb9deffae52"
                               points="122.2556 57.6831 122.4549 57.6068 122.6866 57.6259 122.8936 57.5391 135.4262 51.8598 135.4949 51.6137 135.2822 49.6558 135.1095 49.0073 134.7596 48.4303 134.275 48.0049 133.721 47.7856 100.7697 41.6629 100.5522 41.7258 88.0206 47.406 87.9338 47.6406 87.9386 47.9077 87.8518 48.1432"/>
                     <polyline class="uuid-29d631c3-85f2-40d0-b978-aeb9deffae52"
                               points="119.5662 60.3124 119.9314 60.1618 119.9858 60.1646 120.3825 60.383 120.9051 60.9762 120.9671 61.0086 121.2266 61.0306 121.2494 61.0277 122.3262 60.6987 134.8578 55.0204 134.9474 54.8592 134.7138 52.2613 134.7109 52.2308 134.73 52.1764"/>
                     <polyline class="uuid-29d631c3-85f2-40d0-b978-aeb9deffae52"
                               points="95.552 129.5959 95.5863 129.1905 95.531 128.8625 95.5243 128.4867 95.572 128.1748 95.5272 127.7638 95.2173 127.5072 94.4123 127.3194 94.1462 127.1334 94.0328 126.8063 93.904 118.5883 93.6675 117.9169 93.1172 117.5544 91.3385 117.2226 90.8321 117.3504"/>
                     <polyline class="uuid-29d631c3-85f2-40d0-b978-aeb9deffae52"
                               points="98.6792 136.3633 92.9341 138.966 92.3867 139.1968 91.9212 139.2244 91.5808 139.1558 91.2718 138.924 91.0563 138.5759 90.9742 138.1791 90.8865 132.5418 90.9742 131.7856 91.2537 131.1294 91.7009 130.6344 92.2779 130.3388 95.531 128.8644"/>
                     <polyline class="uuid-29d631c3-85f2-40d0-b978-aeb9deffae52"
                               points="98.1766 136.5903 103.0299 136.3032 103.7156 136.0333 104.7609 135.5594 105.1872 134.9051 109.7354 120.6425"/>
                     <polyline class="uuid-29d631c3-85f2-40d0-b978-aeb9deffae52"
                               points="107.8929 126.4181 110.0139 125.4578 110.3553 125.1945 110.4783 124.7234 110.4373 122.1484 110.3391 121.7097 110.0797 121.3416 109.6438 120.9296"/>
                     <polyline class="uuid-29d631c3-85f2-40d0-b978-aeb9deffae52"
                               points="112.0233 44.8873 111.5017 45.1257 108.8943 45.8954 106.6712 46.7623 104.883 47.7122 103.564 48.7221 103.0414 48.9577 92.5259 47.0045"/>
                     <polyline class="uuid-29d631c3-85f2-40d0-b978-aeb9deffae52"
                               points="93.2707 47.1419 101.8702 43.246 106.8181 44.1663 106.8362 45.2345 107.0059 45.2669"/>
                     <polyline class="uuid-29d631c3-85f2-40d0-b978-aeb9deffae52"
                               points="100.0754 48.4065 108.6749 44.5106 111.6409 45.0618"/>
                     <polyline class="uuid-29d631c3-85f2-40d0-b978-aeb9deffae52"
                               points="103.2255 128.5344 97.4804 131.1361 93.0209 132.4474"/>
                     <polyline class="uuid-29d631c3-85f2-40d0-b978-aeb9deffae52"
                               points="134.401 63.1783 134.4677 63.184 134.4906 63.1898 135.6417 63.7076 135.7638 63.8879 135.9974 66.4867 136.1119 66.748 136.3389 66.8729 136.5697 66.8911 136.7966 67.015 136.9092 67.2773 137.6683 79.5886 138.1128 91.8551 138.2415 104.0653 138.0555 116.2097 137.9258 116.8382 137.5949 117.3227 137.1095 117.5945 124.5759 123.2719 124.0047 123.2938 98.065 118.4738 97.1819 118.5129"/>
                     <polyline class="uuid-29d631c3-85f2-40d0-b978-aeb9deffae52"
                               points="133.9127 63.2908 121.6204 68.8595 121.1941 69.3764"/>
                     <line class="uuid-29d631c3-85f2-40d0-b978-aeb9deffae52"
                           x1="134.2941"
                           y1="63.2584"
                           x2="134.3161"
                           y2="63.268"/>
                     <line class="uuid-29d631c3-85f2-40d0-b978-aeb9deffae52"
                           x1="134.2913"
                           y1="63.267"
                           x2="134.3142"
                           y2="63.2699"/>
                     <polyline class="uuid-29d631c3-85f2-40d0-b978-aeb9deffae52"
                               points="134.44 63.2117 134.4219 63.2002 134.1787 62.9494 134.0672 62.608 133.4635 55.9245 133.5102 55.6317"/>
                     <polyline class="uuid-29d631c3-85f2-40d0-b978-aeb9deffae52"
                               points="127.746 47.8733 127.7375 48.3483 127.1176 48.7937 119.2848 52.3424 104.9612 49.6825"/>
                     <polyline class="uuid-29d631c3-85f2-40d0-b978-aeb9deffae52"
                               points="120.7239 58.0608 120.9586 57.4208 120.9376 55.9951 120.6801 55.2636 120.0802 54.8678 119.4889 55.0423"/>
                     <polyline class="uuid-29d631c3-85f2-40d0-b978-aeb9deffae52"
                               points="123.688 110.0011 123.9045 109.4137 123.8626 106.7405 123.627 106.0671 123.0758 105.7057 120.7564 105.2746 120.2128 105.4339"/>
                  </g>
               </g>
            </g>
         </g>
      </g>
      <text class="uuid-663bc847-0582-4f9b-9fed-020270f0d117"
            transform="translate(37.1069 90.6941)">
         <tspan x="0" y="0">≤ 16 mm²</tspan>
      </text>
   </g>
   <g id="uuid-bd49f7ef-252c-427a-ac11-a64c56521bfe" data-name="Layer 2">
      <g>
         <line class="uuid-fd897a69-81c5-4252-9e22-c4b6dfcbd102"
               x1="101.8153"
               y1="44.8873"
               x2="81.567"
               y2="14.3629"/>
         <line class="uuid-e1014a63-6807-4d7f-b7fe-3f702a0b099b"
               x1="81.567"
               y1="14.3629"
               x2="101.8153"
               y2="44.8873"/>
         <circle class="uuid-751000a5-ef8b-4102-843f-d3e794d4a4d0"
                 cx="81.567"
                 cy="14.3629"
                 r="9.5"/>
         <text class="uuid-72308bab-c33c-4eb0-8191-fc7e6c18a29f"
               transform="translate(76.6725 19.8951)">
            <tspan x="0" y="0">A</tspan>
         </text>
      </g>
      <g>
         <line class="uuid-fd897a69-81c5-4252-9e22-c4b6dfcbd102"
               x1="118.4395"
               y1="48.4065"
               x2="141.567"
               y2="14.3629"/>
         <line class="uuid-e1014a63-6807-4d7f-b7fe-3f702a0b099b"
               x1="141.567"
               y1="14.3629"
               x2="118.4395"
               y2="48.4065"/>
         <circle class="uuid-751000a5-ef8b-4102-843f-d3e794d4a4d0"
                 cx="141.567"
                 cy="14.3629"
                 r="9.5"/>
         <text class="uuid-587b5250-d42f-49c8-8cd1-e70512c53feb"
               transform="translate(136.2311 19.8951)">
            <tspan x="0" y="0">B</tspan>
         </text>
      </g>
   </g>
</svg>
