<?xml version="1.0" encoding="UTF-8"?>
<svg xmlns="http://www.w3.org/2000/svg"
     id="Layer_1"
     data-name="Layer 1"
     width="10mm"
     height="10mm"
     viewBox="0 0 28.3465 28.3465">
   <defs>
      <style>
      .cls-1 {
        fill: none;
        stroke: #000;
        stroke-linecap: round;
        stroke-linejoin: round;
        stroke-width: 0.212px;
      }
    </style>
   </defs>
   <title>PxW_WxW_SDC_Mimic_Diagram</title>
   <g id="CIRCLE">
      <path class="cls-1"
            d="M1.4675,13.189a5.5239,5.5239,0,1,1,5.5239,5.524,5.5239,5.5239,0,0,1-5.5239-5.524Z"/>
   </g>
   <g id="CIRCLE-2" data-name="CIRCLE">
      <path class="cls-1"
            d="M1.4675,17.6082a5.5239,5.5239,0,1,1,5.5239,5.5239,5.5239,5.5239,0,0,1-5.5239-5.5239Z"/>
   </g>
   <g id="CIRCLE-3" data-name="CIRCLE">
      <path class="cls-1"
            d="M1.4675,13.189a5.5239,5.5239,0,1,1,5.5239,5.524,5.5239,5.5239,0,0,1-5.5239-5.524Z"/>
   </g>
   <g id="CIRCLE-4" data-name="CIRCLE">
      <path class="cls-1"
            d="M13.8888,13.189a5.5239,5.5239,0,1,1,5.5239,5.524,5.5239,5.5239,0,0,1-5.5239-5.524Z"/>
   </g>
   <g id="CIRCLE-5" data-name="CIRCLE">
      <path class="cls-1"
            d="M13.8888,17.6082a5.5239,5.5239,0,1,1,5.5239,5.5239,5.5239,5.5239,0,0,1-5.5239-5.5239Z"/>
   </g>
   <g id="CIRCLE-6" data-name="CIRCLE">
      <path class="cls-1"
            d="M13.8888,13.189a5.5239,5.5239,0,1,1,5.5239,5.524,5.5239,5.5239,0,0,1-5.5239-5.524Z"/>
   </g>
   <g id="LINE">
      <line class="cls-1"
            x1="13.0682"
            y1="23.6845"
            x2="27.5222"
            y2="4.7272"/>
   </g>
   <g id="LWPOLYLINE">
      <polyline class="cls-1" points="22.989 6.692 27.522 4.727 26.374 9.533"/>
   </g>
</svg>
