<?xml version="1.0" encoding="UTF-8"?>
<svg xmlns="http://www.w3.org/2000/svg"
     width="145mm"
     height="124.522mm"
     viewBox="0 0 411.0236 352.9756">
   <defs>
      <style>
      .cls-1, .cls-3, .cls-4 {
        fill: none;
      }

      .cls-1 {
        stroke: #231f20;
      }

      .cls-1, .cls-3, .cls-4, .cls-5 {
        stroke-linecap: round;
      }

      .cls-1, .cls-4 {
        stroke-width: 0.5px;
      }

      .cls-2, .cls-6 {
        isolation: isolate;
        font-family: ArialMT, Arial;
      }

      .cls-2 {
        font-size: 6px;
      }

      .cls-3 {
        stroke: #fff;
      }

      .cls-4, .cls-5 {
        stroke: #000;
      }

      .cls-5 {
        stroke-width: 0.106px;
      }

      .cls-6 {
        font-size: 16px;
        fill: #fff;
      }
    </style>
   </defs>
   <g id="Layer_1" data-name="Layer 1">
      <g id="b047e8b2-93b7-4c69-9396-6d12a34dc9e7">
         <path class="cls-1"
               d="M321.0883,167.5064h-6.3439a1.632,1.632,0,0,1-1.4245-2.4152q4.6113-8.3932,9.231-16.7952a1.6287,1.6287,0,0,1,2.8659.0255q4.4709,8.3934,8.9546,16.7868a1.6282,1.6282,0,0,1-1.4372,2.3981h-6.3864"/>
         <path class="cls-1"
               d="M321.6665,193.0692h-6.3481a1.6318,1.6318,0,0,0-1.4244,2.4151q4.6111,8.3934,9.2309,16.7953a1.6288,1.6288,0,0,0,2.8659-.0255q4.4837-8.3934,8.9546-16.7868a1.6281,1.6281,0,0,0-1.4371-2.3981h-6.3822"/>
         <line class="cls-1"
               x1="314.604"
               y1="239.1435"
               x2="335.073"
               y2="239.1435"/>
         <line class="cls-1"
               x1="314.2936"
               y1="252.9964"
               x2="335.073"
               y2="252.9964"/>
         <line class="cls-1"
               x1="317.759"
               y1="235.759"
               x2="317.759"
               y2="256.4575"/>
         <line class="cls-1"
               x1="331.6119"
               y1="235.6824"
               x2="331.6119"
               y2="256.4575"/>
         <path class="cls-1"
               d="M197.3475,241.8223q-2.2,2.1876-4.388,4.3837v-9.9283a9.8314,9.8314,0,0,0-7.5,3.2358,10.0705,10.0705,0,0,0-1.9644,10.7277,9.5583,9.5583,0,0,0,7.39,6.008,11.3529,11.3529,0,0,0,8.1936-1.6158,11.1175,11.1175,0,0,0,3.9926-7.8534,10.1016,10.1016,0,0,0-6.5608-9.92"/>
         <path class="cls-1"
               d="M194.3839,291.8806c3.1167-.0382,6.2292-.0637,9.3459-.0935a2.1649,2.1649,0,0,0,1.5307-.6548,2.1191,2.1191,0,0,0,.5442-1.569,2.1875,2.1875,0,0,0-.6675-1.4839,2.2313,2.2313,0,0,0-1.5223-.591h-14.89c.9524-.9482,1.8921-1.9092,2.8446-2.8616a1.7424,1.7424,0,0,0-.2977-2.0367,2.0646,2.0646,0,0,0-2.1387-.2764q-3.2655,2.9594-6.5268,5.91a1.7842,1.7842,0,0,0-.57,1.2245,1.8239,1.8239,0,0,0,.4592,1.2756q3.1508,2.9083,6.3014,5.8125a1.7035,1.7035,0,0,0,2.47-2.2153q-1.4413-1.518-2.8871-3.0487"/>
         <path class="cls-1"
               d="M240.0032,287.3353c-.17-2.1983-.3359-4.388-.4974-6.582a1.5736,1.5736,0,0,0-.54-1.0333,1.5339,1.5339,0,0,0-1.1056-.3444c-.2551.0128-.5144.0255-.7653.0383a1.5068,1.5068,0,0,0-1.2841,1.3181q-.3062,3.3229-.591,6.6416-3.1762-.791-6.3525-1.569a1.7291,1.7291,0,0,0-1.8155.625c-.14.3911-.2722.7908-.404,1.182a1.4054,1.4054,0,0,0,.57,1.4839q3.2145,1.384,6.4162,2.7723c-1.148,1.8708-2.2833,3.746-3.4313,5.6168a1.5287,1.5287,0,0,0,.3064,2.14l.004.0029c.2551.1616.5059.3275.7653.4891a1.7128,1.7128,0,0,0,2.0239-.4933q2.1558-2.5256,4.3158-5.0513c1.518,1.7731,3.0444,3.5461,4.5623,5.3192a1.5714,1.5714,0,0,0,1.9177.0766c.3359-.2679.6633-.5358.9992-.8079a1.59,1.59,0,0,0-.0383-1.4882c-1.2033-1.9347-2.3981-3.8693-3.6057-5.8039,2.1643-.9014,4.3158-1.7987,6.4715-2.6958a1.5651,1.5651,0,0,0,.6166-1.569c-.1149-.3827-.23-.77-.3487-1.1523a1.9488,1.9488,0,0,0-1.6838-.6463C244.3445,286.3106,242.1675,286.8208,240.0032,287.3353Z"/>
         <path class="cls-1" d="M287.8889,285.3751a7.3014,7.3014,0,0,0-13.3937,0"/>
         <path class="cls-1" d="M274.4952,294.232a6.8585,6.8585,0,0,0,13.16,0"/>
         <path class="cls-1" d="M274.4952,285.3751a13.8449,13.8449,0,0,0,0,8.8569"/>
         <path class="cls-1" d="M322.0322,287.1567a4.6637,4.6637,0,0,0-.1148,7.8491"/>
         <g>
            <path class="cls-1" d="M329.5879,291.12a4.6643,4.6643,0,0,0-2.1982-3.9628"/>
            <path class="cls-1" d="M327.5045,295.0058a4.6733,4.6733,0,0,0,2.0835-3.8863"/>
         </g>
         <path class="cls-1" d="M319.6086,283.2279a9.14,9.14,0,0,0-.2339,15.4729"/>
         <path class="cls-1" d="M317.3,279.3118a14.0805,14.0805,0,0,0-.23,23.5389"/>
         <g>
            <path class="cls-1" d="M334.2056,291.0345a9.1476,9.1476,0,0,0-4.3923-7.8067"/>
            <path class="cls-1" d="M330.0429,298.7008a9.1517,9.1517,0,0,0,4.1627-7.6663"/>
         </g>
         <g>
            <path class="cls-1"
                  d="M338.5894,291.1578a14.0961,14.0961,0,0,0-6.4673-11.846"/>
            <path class="cls-1"
                  d="M332.3517,302.8507a14.0718,14.0718,0,0,0,6.2377-11.6929"/>
         </g>
         <line class="cls-1"
               x1="309.6802"
               y1="299.3854"
               x2="338.9933"
               y2="282.5391"/>
         <text class="cls-2" transform="translate(220.8866 191.7064)">5</text>
         <text class="cls-2" transform="translate(264.7362 191.7064)">6</text>
         <text class="cls-2" transform="translate(220.8866 235.5658)">2</text>
         <text class="cls-2" transform="translate(264.7362 235.5658)">3</text>
         <text class="cls-2" transform="translate(177.0311 235.5658)">1</text>
         <text class="cls-2" transform="translate(264.7362 147.8509)">9</text>
         <text class="cls-2" transform="translate(220.8866 147.8509)">8</text>
         <text class="cls-2" transform="translate(177.0311 147.8509)">7</text>
         <text class="cls-2" transform="translate(177.0311 191.7064)">4</text>
         <polygon class="cls-1"
                  points="175.871 114.991 175.871 121.675 175.871 121.675 187.007 121.675 187.007 121.675 187.007 114.991 187.007 114.991 175.871 114.991"/>
         <path class="cls-1" d="M180.5522,77.1138a8.9081,8.9081,0,0,0,8.9036,8.9121"/>
         <line class="cls-1"
               x1="332.0499"
               y1="77.1138"
               x2="189.4558"
               y2="77.1138"/>
         <line class="cls-1"
               x1="332.0499"
               y1="86.0259"
               x2="189.4558"
               y2="86.0259"/>
         <line class="cls-1"
               x1="332.0499"
               y1="41.4653"
               x2="332.0499"
               y2="77.1138"/>
         <line class="cls-1"
               x1="340.9577"
               y1="41.4653"
               x2="340.9577"
               y2="77.1138"/>
         <line class="cls-1"
               x1="189.4558"
               y1="77.1138"
               x2="189.4558"
               y2="41.4653"/>
         <line class="cls-1"
               x1="180.5522"
               y1="77.1138"
               x2="180.5522"
               y2="41.4653"/>
         <path class="cls-1" d="M340.9577,41.4653a8.9117,8.9117,0,0,0-8.9078-8.9122"/>
         <path class="cls-1" d="M189.4558,32.5531a8.9082,8.9082,0,0,0-8.9036,8.9122"/>
         <line class="cls-1"
               x1="189.4558"
               y1="41.4653"
               x2="332.0499"
               y2="41.4653"/>
         <line class="cls-1"
               x1="189.4558"
               y1="32.5531"
               x2="332.0499"
               y2="32.5531"/>
         <path class="cls-1" d="M332.05,86.0259a8.9117,8.9117,0,0,0,8.9078-8.9121"/>
         <path class="cls-1" d="M370.5939,327.4526a8.9154,8.9154,0,0,0,8.9122-8.9121"/>
         <path class="cls-1" d="M142.2292,318.5405a8.9117,8.9117,0,0,0,8.9079,8.9121"/>
         <path class="cls-1"
               d="M379.5061,15.5367a8.9072,8.9072,0,0,0-8.9022-8.9121h-.01"/>
         <path class="cls-1"
               d="M151.1371,6.6246a8.9035,8.9035,0,0,0-8.9079,8.8992v.0129"/>
         <line class="cls-1"
               x1="379.5061"
               y1="15.5367"
               x2="379.5061"
               y2="318.5405"/>
         <line class="cls-1"
               x1="142.2292"
               y1="15.5367"
               x2="142.2292"
               y2="318.5405"/>
         <line class="cls-1"
               x1="151.1371"
               y1="6.6246"
               x2="370.5939"
               y2="6.6246"/>
         <line class="cls-1"
               x1="151.1371"
               y1="327.4526"
               x2="370.5939"
               y2="327.4526"/>
         <path class="cls-1"
               d="M180.42,307.2387h25.397a4.6164,4.6164,0,0,0,4.6134-4.6176V277.2284a4.6165,4.6165,0,0,0-4.6134-4.6177H180.42a4.6093,4.6093,0,0,0-4.6134,4.6051v25.4053a4.6092,4.6092,0,0,0,4.6008,4.6176Z"/>
         <path class="cls-1"
               d="M224.2752,307.2387h25.397a4.6237,4.6237,0,0,0,4.6134-4.6176V277.2284a4.6238,4.6238,0,0,0-4.6134-4.6177h-25.397a4.6238,4.6238,0,0,0-4.6134,4.6177v25.3927A4.6237,4.6237,0,0,0,224.2752,307.2387Z"/>
         <path class="cls-1"
               d="M268.13,307.2387h25.397a4.6237,4.6237,0,0,0,4.6134-4.6176V277.2284a4.6238,4.6238,0,0,0-4.6134-4.6177H268.13a4.6165,4.6165,0,0,0-4.6134,4.6177v25.3927A4.6164,4.6164,0,0,0,268.13,307.2387Z"/>
         <path class="cls-1"
               d="M311.9891,307.2387h25.3927a4.6091,4.6091,0,0,0,4.6134-4.605V277.2284a4.6092,4.6092,0,0,0-4.6007-4.6177H311.9891a4.6166,4.6166,0,0,0-4.6177,4.6153v25.3951a4.6164,4.6164,0,0,0,4.6153,4.6176h.0024Z"/>
         <path class="cls-1"
               d="M180.42,263.3839h25.397a4.6164,4.6164,0,0,0,4.6134-4.6176V233.3736a4.6164,4.6164,0,0,0-4.6134-4.6176H180.42a4.6092,4.6092,0,0,0-4.6134,4.605v25.4053a4.6092,4.6092,0,0,0,4.6008,4.6176Z"/>
         <path class="cls-1"
               d="M224.2752,263.3839h25.397a4.6237,4.6237,0,0,0,4.6134-4.6176V233.3736a4.6237,4.6237,0,0,0-4.6134-4.6176h-25.397a4.6237,4.6237,0,0,0-4.6134,4.6176v25.3927A4.6237,4.6237,0,0,0,224.2752,263.3839Z"/>
         <path class="cls-1"
               d="M268.13,263.3839h25.397a4.6237,4.6237,0,0,0,4.6134-4.6176V233.3736a4.6237,4.6237,0,0,0-4.6134-4.6176H268.13a4.6164,4.6164,0,0,0-4.6134,4.6176v25.3927A4.6164,4.6164,0,0,0,268.13,263.3839Z"/>
         <path class="cls-1"
               d="M311.9891,263.3839h25.3927a4.6091,4.6091,0,0,0,4.6134-4.605V233.3736a4.609,4.609,0,0,0-4.6007-4.6176H311.9891a4.6164,4.6164,0,0,0-4.6177,4.6152v25.3951a4.6164,4.6164,0,0,0,4.6153,4.6176h.0024Z"/>
         <path class="cls-1"
               d="M180.42,219.5292h25.397a4.6165,4.6165,0,0,0,4.6134-4.6176V189.5188a4.6164,4.6164,0,0,0-4.6134-4.6176H180.42a4.6092,4.6092,0,0,0-4.6134,4.605v25.4053a4.6093,4.6093,0,0,0,4.6008,4.6177Z"/>
         <path class="cls-1"
               d="M224.2752,219.5292h25.397a4.6238,4.6238,0,0,0,4.6134-4.6176V189.5188a4.6237,4.6237,0,0,0-4.6134-4.6176h-25.397a4.6237,4.6237,0,0,0-4.6134,4.6176v25.3927a4.6239,4.6239,0,0,0,4.6134,4.6177Z"/>
         <path class="cls-1"
               d="M268.13,219.5293h25.397a4.6238,4.6238,0,0,0,4.6134-4.6177V189.5189a4.6238,4.6238,0,0,0-4.6134-4.6177H268.13a4.6165,4.6165,0,0,0-4.6134,4.6177v25.3927a4.6165,4.6165,0,0,0,4.6134,4.6176Z"/>
         <path class="cls-1"
               d="M311.9891,219.5292h25.3927a4.6092,4.6092,0,0,0,4.6134-4.605V189.5188a4.6091,4.6091,0,0,0-4.6008-4.6176H311.9891a4.6164,4.6164,0,0,0-4.6177,4.6152v25.3951a4.6166,4.6166,0,0,0,4.6153,4.6177h.0024Z"/>
         <path class="cls-1"
               d="M180.42,175.6744h25.397a4.6165,4.6165,0,0,0,4.6134-4.6176V145.664a4.6237,4.6237,0,0,0-4.6134-4.6176H180.42a4.6164,4.6164,0,0,0-4.6134,4.6176v25.3928a4.6093,4.6093,0,0,0,4.6008,4.6176Z"/>
         <path class="cls-1"
               d="M224.2752,175.6744h25.397a4.6237,4.6237,0,0,0,4.6134-4.6176V145.664a4.6309,4.6309,0,0,0-4.6134-4.6176h-25.397a4.6309,4.6309,0,0,0-4.6134,4.6176v25.3928A4.6237,4.6237,0,0,0,224.2752,175.6744Z"/>
         <path class="cls-1"
               d="M268.13,175.6744h25.397a4.6237,4.6237,0,0,0,4.6134-4.6176V145.664a4.6309,4.6309,0,0,0-4.6134-4.6176H268.13a4.6237,4.6237,0,0,0-4.6134,4.6176v25.3928A4.6165,4.6165,0,0,0,268.13,175.6744Z"/>
         <path class="cls-1"
               d="M311.9891,175.6744h25.3927a4.6092,4.6092,0,0,0,4.6134-4.605V145.664a4.6163,4.6163,0,0,0-4.6134-4.6176H311.9891a4.6237,4.6237,0,0,0-4.6177,4.6176v25.3928a4.6165,4.6165,0,0,0,4.6153,4.6176h.0024Z"/>
      </g>
      <g id="b047e8b2-93b7-4c69-9396-6d12a34dc9e7-2"
         data-name="b047e8b2-93b7-4c69-9396-6d12a34dc9e7">
         <text class="cls-2" transform="translate(220.8866 279.3116)">0</text>
      </g>
   </g>
   <g id="Layer_2" data-name="Layer 2">
      <g>
         <line class="cls-3"
               x1="336.9952"
               y1="258.3839"
               x2="394.512"
               y2="230.7687"/>
         <line class="cls-4"
               x1="394.512"
               y1="230.7687"
               x2="336.9952"
               y2="258.3839"/>
         <circle class="cls-5" cx="394.512" cy="230.7687" r="9.5"/>
         <text class="cls-6" transform="translate(388.7348 236.3008)">D</text>
      </g>
      <g>
         <line class="cls-3"
               x1="336.9952"
               y1="214.5292"
               x2="394.512"
               y2="186.914"/>
         <line class="cls-4"
               x1="394.512"
               y1="186.914"
               x2="336.9952"
               y2="214.5292"/>
         <circle class="cls-5" cx="394.512" cy="186.914" r="9.5"/>
         <text class="cls-6" transform="translate(388.7349 192.4461)">C</text>
      </g>
      <g>
         <line class="cls-3"
               x1="336.9952"
               y1="170.6745"
               x2="394.512"
               y2="143.0593"/>
         <line class="cls-4"
               x1="394.512"
               y1="143.0593"
               x2="336.9952"
               y2="170.6745"/>
         <circle class="cls-5" cx="394.512" cy="143.0593" r="9.5"/>
         <text class="cls-6" transform="translate(389.1762 148.5913)">B</text>
      </g>
      <g>
         <line class="cls-3"
               x1="180.5603"
               y1="258.4438"
               x2="125.8895"
               y2="230.8286"/>
         <line class="cls-4"
               x1="125.8895"
               y1="230.8286"
               x2="180.5603"
               y2="258.4438"/>
         <circle class="cls-5" cx="125.8895" cy="230.8286" r="9.5"/>
         <text class="cls-6" transform="translate(119.6669 236.3607)">G</text>
      </g>
      <g>
         <line class="cls-3"
               x1="180.5603"
               y1="301.7854"
               x2="125.8895"
               y2="274.1702"/>
         <line class="cls-4"
               x1="125.8895"
               y1="274.1702"
               x2="180.5603"
               y2="301.7854"/>
         <circle class="cls-5" cx="125.8895" cy="274.1702" r="9.5"/>
         <text class="cls-6" transform="translate(121.0028 279.7023)">F</text>
      </g>
      <g>
         <line class="cls-3"
               x1="327.0499"
               y1="72.1138"
               x2="395.6535"
               y2="39.1755"/>
         <line class="cls-4"
               x1="395.6535"
               y1="39.1755"
               x2="327.0499"
               y2="72.1138"/>
         <circle class="cls-5" cx="395.6535" cy="39.1755" r="9.5"/>
         <text class="cls-6" transform="translate(390.3174 44.7075)">A</text>
      </g>
      <g>
         <line class="cls-3"
               x1="206.1451"
               y1="337.854"
               x2="224.6618"
               y2="302.2387"/>
         <line class="cls-4"
               x1="224.6618"
               y1="302.2387"
               x2="206.1451"
               y2="337.854"/>
         <circle class="cls-5" cx="205.6618" cy="338.2387" r="9.5"/>
         <text class="cls-6" transform="translate(200.3258 343.7708)">E</text>
      </g>
   </g>
</svg>
