<?xml version="1.0" encoding="UTF-8"?>
<svg xmlns="http://www.w3.org/2000/svg"
     width="110.017mm"
     height="24.8493mm"
     viewBox="0 0 311.8591 70.439">
   <defs>
      <style>
      .cls-1 {
        font-size: 20px;
      }

      .cls-1, .cls-5 {
        font-family: ArialMT, Arial;
      }

      .cls-2, .cls-3, .cls-6, .cls-7, .cls-8 {
        fill: none;
      }

      .cls-2 {
        stroke: #fff;
      }

      .cls-2, .cls-3, .cls-4 {
        stroke-linecap: round;
      }

      .cls-3, .cls-4 {
        stroke: #000;
      }

      .cls-3, .cls-6 {
        stroke-width: 0.5px;
      }

      .cls-4 {
        stroke-width: 0.106px;
      }

      .cls-5 {
        isolation: isolate;
        font-size: 16px;
        fill: #fff;
      }

      .cls-6, .cls-7, .cls-8 {
        stroke: #231f20;
      }

      .cls-7 {
        stroke-width: 0.536px;
      }

      .cls-8 {
        stroke-width: 0.5912px;
      }
    </style>
   </defs>
   <g id="Layer_7" data-name="Layer 7">
      <g id="ATTRIB">
         <text class="cls-1" transform="translate(1.1072 16.7345)">Reality WDW 3015-220/400-EAN-D</text>
      </g>
      <g>
         <line class="cls-2"
               x1="49.3999"
               y1="28.439"
               x2="49.3999"
               y2="59.5347"/>
         <line class="cls-3"
               x1="49.3999"
               y1="59.5347"
               x2="49.3999"
               y2="28.439"/>
         <circle class="cls-4" cx="49.3999" cy="59.5347" r="9.5"/>
         <text class="cls-5" transform="translate(45.3999 65.0667)">J</text>
      </g>
      <g>
         <line class="cls-2"
               x1="120.3171"
               y1="20.3902"
               x2="120.3171"
               y2="59.5347"/>
         <line class="cls-3"
               x1="120.3171"
               y1="59.5347"
               x2="120.3171"
               y2="28.439"/>
         <circle class="cls-4" cx="120.3171" cy="59.5347" r="9.5"/>
         <text class="cls-5" transform="translate(114.9814 65.0667)">K</text>
      </g>
      <g>
         <line class="cls-2"
               x1="143.9594"
               y1="28.439"
               x2="143.9594"
               y2="59.5347"/>
         <line class="cls-3"
               x1="143.9594"
               y1="59.5347"
               x2="143.9594"
               y2="28.439"/>
         <circle class="cls-4" cx="143.9594" cy="59.5347" r="9.5"/>
         <text class="cls-5" transform="translate(139.5103 65.0667)">L</text>
      </g>
      <g>
         <line class="cls-2"
               x1="222.099"
               y1="28.439"
               x2="222.099"
               y2="59.5347"/>
         <line class="cls-3"
               x1="222.099"
               y1="59.5347"
               x2="222.099"
               y2="28.439"/>
         <circle class="cls-4" cx="222.099" cy="59.5347" r="9.5"/>
         <text class="cls-5" transform="translate(216.3218 65.0667)">N</text>
      </g>
      <g>
         <line class="cls-2"
               x1="183.047"
               y1="28.439"
               x2="183.047"
               y2="59.5347"/>
         <line class="cls-3"
               x1="183.047"
               y1="59.5347"
               x2="183.047"
               y2="28.439"/>
         <circle class="cls-4" cx="183.047" cy="59.5347" r="9.5"/>
         <text class="cls-5" transform="translate(176.3831 65.0667)">M</text>
      </g>
      <g>
         <line class="cls-2"
               x1="265.9852"
               y1="28.439"
               x2="265.9852"
               y2="59.5347"/>
         <line class="cls-3"
               x1="265.9852"
               y1="59.5347"
               x2="265.9852"
               y2="28.439"/>
         <circle class="cls-4" cx="265.9852" cy="59.5347" r="9.5"/>
         <text class="cls-5" transform="translate(259.7627 65.0667)">O</text>
      </g>
      <polyline class="cls-6"
                points="106.415 20.39 106.415 28.439 3.281 28.439 3.281 20.39"/>
      <polyline class="cls-6"
                points="159.039 20.39 159.039 28.439 128.88 28.439 128.88 20.39"/>
      <polyline class="cls-6"
                points="199.055 20.39 199.055 28.439 167.039 28.439 167.039 20.39"/>
      <polyline class="cls-7"
                points="238.366 20.39 238.366 28.439 205.832 28.439 205.832 20.39"/>
      <polyline class="cls-8"
                points="285.78 20.39 285.78 28.439 246.19 28.439 246.19 20.39"/>
      <g>
         <line class="cls-2"
               x1="299.8266"
               y1="28.439"
               x2="299.8266"
               y2="59.5347"/>
         <line class="cls-3"
               x1="299.8266"
               y1="59.5347"
               x2="299.8266"
               y2="28.439"/>
         <circle class="cls-4" cx="299.8266" cy="59.5347" r="9.5"/>
         <text class="cls-5" transform="translate(294.4909 65.0667)">P</text>
      </g>
      <polyline class="cls-8"
                points="307 20.39 307 28.439 292.653 28.439 292.653 20.39"/>
      <polyline class="cls-8"
                points="125.732 20.39 125.732 28.439 114.902 28.439 114.902 20.39"/>
   </g>
</svg>
