<?xml version="1.0" encoding="UTF-8"?>
<svg xmlns="http://www.w3.org/2000/svg"
     xmlns:xlink="http://www.w3.org/1999/xlink"
     id="Parts"
     width="12.3479mm"
     height="12.3541mm"
     viewBox="0 0 35.002 35.0195">
   <defs>
      <style>
      .cls-1 {
        fill: none;
      }

      .cls-1, .cls-2, .cls-3, .cls-4 {
        stroke-width: 0px;
      }

      .cls-2 {
        fill: #01889c;
      }

      .cls-5 {
        clip-path: url(#clippath-1);
      }

      .cls-3 {
        fill: #fff;
      }

      .cls-6 {
        clip-path: url(#clippath);
      }

      .cls-4 {
        fill: #243746;
      }
    </style>
      <clipPath id="clippath">
         <rect class="cls-1" width="35.002" height="35.0195"/>
      </clipPath>
      <clipPath id="clippath-1">
         <rect class="cls-1" y="-.0005" width="35.002" height="35.02"/>
      </clipPath>
   </defs>
   <g id="Artwork_16" data-name="Artwork 16">
      <g class="cls-6">
         <g class="cls-5">
            <path class="cls-3"
                  d="m31.4027.6552H3.5967C1.9647.6552.6367,1.9842.6367,3.6182v27.783c0,1.634,1.328,2.963,2.96,2.963h27.806c1.634,0,2.963-1.329,2.963-2.963V3.6182c0-1.634-1.329-2.963-2.963-2.963"/>
            <path class="cls-2"
                  d="m29.4013,24.3085h-10.2c-.414,0-.75.336-.75.75s.336.75.75.75h10.2c.414,0,.75-.336.75-.75s-.336-.75-.75-.75"/>
            <path class="cls-2"
                  d="m29.4013,27.7089h-10.2c-.414,0-.75.336-.75.75s.336.75.75.75h10.2c.414,0,.75-.336.75-.75s-.336-.75-.75-.75"/>
            <path class="cls-2"
                  d="m4.8564,10.8886c.338.227.858.057,1.096-.273.56-.791,1.327-1.166,2.026-1.209.712.009,1.394.412,2.012,1.228.016.033.035.065.056.094.006.01.012.019.019.029.006.01.013.018.019.027.015.026.033.051.05.077.041.064.083.123.122.164.843,1.144,1.97,1.771,3.181,1.771.031,0,.063,0,.093-.002,1.259-.033,2.453-.769,3.277-2.023.228-.346.131-.811-.215-1.039-.347-.231-.813-.131-1.039.215-.557.849-1.291,1.328-2.062,1.349-.739.039-1.461-.394-2.004-1.131-.026-.037-.053-.078-.083-.121-.013-.027-.028-.054-.048-.082-.031-.051-.069-.097-.111-.138-.832-1.204-2.012-1.903-3.247-1.918-1.263.064-2.414.636-3.269,1.837-.005.008-.13.196-.135.202-.225.341-.076.711.262.943"/>
            <rect class="cls-2"
                  x="-5.2147"
                  y="16.7597"
                  width="45.4313"
                  height="1.5001"
                  transform="translate(-7.2554 17.5035) rotate(-45)"/>
            <path class="cls-4"
                  d="m31.1107-.0004H3.8897C1.7397-.0004-.0093,1.7476-.0093,3.8986v27.201c0,2.162,1.749,3.92,3.899,3.92h27.221c2.15,0,3.9-1.758,3.9-3.92V3.8986C35.0107,1.7476,33.2607-.0004,31.1107-.0004m2.9,31.1c0,1.609-1.301,2.92-2.9,2.92H3.8897c-1.598,0-2.899-1.311-2.899-2.92V3.8986C.9907,2.3006,2.2917.9996,3.8897.9996h27.221c1.599,0,2.9,1.301,2.9,2.899v27.201Z"/>
         </g>
      </g>
   </g>
</svg>
