<?xml version="1.0" encoding="UTF-8"?>
<svg xmlns="http://www.w3.org/2000/svg"
     id="Layer_7"
     data-name="Layer 7"
     width="64.6262mm"
     height="24.8493mm"
     viewBox="0 0 183.1924 70.439">
   <defs>
      <style>
      .cls-1 {
        stroke: #231f20;
      }

      .cls-1, .cls-2, .cls-3 {
        fill: none;
      }

      .cls-1, .cls-3 {
        stroke-width: .5px;
      }

      .cls-2 {
        stroke: #fff;
      }

      .cls-2, .cls-4, .cls-3 {
        stroke-linecap: round;
      }

      .cls-4 {
        stroke-width: .106px;
      }

      .cls-4, .cls-3 {
        stroke: #000;
      }

      .cls-5 {
        font-size: 20px;
      }

      .cls-5, .cls-6 {
        font-family: ArialMT, Arial;
      }

      .cls-6 {
        fill: #fff;
        font-size: 16px;
        isolation: isolate;
      }
    </style>
   </defs>
   <g id="ATTRIB">
      <text class="cls-5" transform="translate(1.1071 16.7347)">
         <tspan x="0" y="0">1231234001 - UC01</tspan>
      </text>
   </g>
   <g>
      <line class="cls-2"
            x1="39.8999"
            y1="28.439"
            x2="39.8999"
            y2="59.5347"/>
      <line class="cls-3"
            x1="39.8999"
            y1="59.5347"
            x2="39.8999"
            y2="28.439"/>
      <circle class="cls-4" cx="39.8999" cy="59.5347" r="9.5"/>
      <text class="cls-6" transform="translate(35.0131 65.067)">
         <tspan x="0" y="0">T</tspan>
      </text>
   </g>
   <g>
      <line class="cls-2"
            x1="94.9807"
            y1="28.439"
            x2="94.9807"
            y2="59.5347"/>
      <line class="cls-3"
            x1="94.9807"
            y1="59.5347"
            x2="94.9807"
            y2="28.439"/>
      <circle class="cls-4" cx="94.9807" cy="59.5347" r="9.5"/>
      <text class="cls-6" transform="translate(89.2033 65.067)">
         <tspan x="0" y="0">U</tspan>
      </text>
   </g>
   <g>
      <line class="cls-2"
            x1="154.2683"
            y1="28.439"
            x2="154.2683"
            y2="59.5347"/>
      <line class="cls-3"
            x1="154.2683"
            y1="59.5347"
            x2="154.2683"
            y2="28.439"/>
      <circle class="cls-4" cx="154.2683" cy="59.5347" r="9.5"/>
      <text class="cls-6" transform="translate(148.9324 65.067)">
         <tspan x="0" y="0">V</tspan>
      </text>
   </g>
   <polyline class="cls-1"
             points="77.4878 20.3902 77.4878 28.439 3.2806 28.439 3.2806 20.3902"/>
   <polyline class="cls-1"
             points="110.248 20.3902 110.248 28.439 79.7135 28.439 79.7135 20.3902"/>
   <polyline class="cls-1"
             points="179.2195 20.3902 179.2195 28.439 129.3171 28.439 129.3171 20.3902"/>
</svg>
