<?xml version="1.0" encoding="UTF-8"?>
<svg xmlns="http://www.w3.org/2000/svg"
     width="180mm"
     height="180mm"
     viewBox="0 0 510.2362 510.2362">
   <defs>
      <style>
      .a, .d, .e, .g {
        fill: none;
      }

      .a, .c, .d, .e {
        stroke: #01889C;
      }

      .a, .c, .d, .e, .g {
        stroke-miterlimit: 10;
      }

      .a {
        stroke-width: 5px;
      }

      .b {
        fill: #01889C;
      }

      .c, .f {
        fill: #fff;
      }

      .c {
        stroke-width: 4px;
      }

      .d {
        stroke-linecap: round;
        stroke-width: 10px;
      }

      .e {
        stroke-width: 16px;
      }

      .g {
        stroke: #f1f2f2;
        stroke-width: 8px;
      }
    </style>
   </defs>
   <title>Reality_Cyber_Security-01</title>
   <g>
      <line class="a"
            x1="353.7398"
            y1="263.523"
            x2="384.4715"
            y2="263.523"/>
      <g>
         <path class="a"
               d="M312.6772,188.1138h62.9809a12.7637,12.7637,0,0,0,5.4685-1.2308l57.49-27.26a11.0935,11.0935,0,0,1,4.753-1.07h40.4381"/>
         <path class="a"
               d="M408.5488,173.8682a11.0935,11.0935,0,0,1,4.7531-1.07H453.74"/>
         <circle class="b" cx="483.8073" cy="158.5528" r="4.6829"/>
         <circle class="b" cx="453.7399" cy="172.7984" r="4.6829"/>
      </g>
      <g>
         <path class="a"
               d="M210.3431,331.1565v25.9547a9.176,9.176,0,0,1-.8851,3.932l-13.65,28.7873a9.177,9.177,0,0,0-.8851,3.9206L194.88,442.97"/>
         <circle class="b" cx="194.8799" cy="442.9695" r="4.6829"/>
      </g>
      <circle class="b" cx="383.8049" cy="263.6694" r="4.6829"/>
      <g>
         <path class="a"
               d="M326.5169,282.8868h62.9809a12.7637,12.7637,0,0,1,5.4685,1.2308l34.1859,16.21"/>
         <circle class="b" cx="429.1522" cy="300.3278" r="4.6829"/>
      </g>
      <line class="a"
            x1="324.7361"
            y1="207.0027"
            x2="419.8581"
            y2="207.0027"/>
      <circle class="c" cx="419.8581" cy="207.0027" r="6.5122"/>
      <g>
         <path class="a"
               d="M315.1639,301.4472h62.9808a12.7642,12.7642,0,0,1,5.4686,1.2308l23.6639,11.2209a5.03,5.03,0,0,1,2.875,4.5712L410,348.0976"/>
         <circle class="c" cx="410.1523" cy="348.0976" r="6.5122"/>
      </g>
      <path class="a"
            d="M365.56,244.7805h62.8574a13.3118,13.3118,0,0,0,5.7036-1.2838l37.1276-17.6051"/>
      <path class="a"
            d="M177.0147,244.7972H114.0338a12.7637,12.7637,0,0,0-5.4685,1.2308L84.5505,257.4153a10.2081,10.2081,0,0,1-4.3819.9845l-33.9735-.0259"/>
      <g>
         <line class="a"
               x1="415"
               y1="263.6694"
               x2="465.1707"
               y2="263.6694"/>
         <circle class="b" cx="465.1707" cy="263.8157" r="4.6829"/>
         <circle class="c" cx="415" cy="263.6694" r="6.5122"/>
      </g>
      <g>
         <line class="a"
               x1="323.53"
               y1="333.3318"
               x2="323.53"
               y2="380.1463"/>
         <circle class="b" cx="323.53" cy="380.1463" r="4.6829"/>
      </g>
      <g>
         <line class="a"
               x1="304.7875"
               y1="333.3318"
               x2="304.7875"
               y2="400.1463"/>
         <circle class="b" cx="304.7875" cy="400.1463" r="4.6829"/>
      </g>
      <g>
         <line class="a"
               x1="285.8986"
               y1="333.3318"
               x2="285.8986"
               y2="420.1463"/>
         <circle class="b" cx="285.8986" cy="420.1463" r="4.6829"/>
      </g>
      <g>
         <path class="a"
               d="M194.7433,188.1138H131.7624a12.7637,12.7637,0,0,1-5.4685-1.2308l-26.1614-12.4052"/>
         <circle class="b" cx="100.1325" cy="174.4778" r="4.6829"/>
      </g>
      <path class="a"
            d="M177.9741,244.7972H114.9932a12.7638,12.7638,0,0,1-5.4685-1.2309L85.7041,232.2711a11.51,11.51,0,0,0-4.9314-1.11H18.5366"/>
      <path class="a"
            d="M248.1375,334.2912V359.163a12.7642,12.7642,0,0,0,1.2308,5.4686l11.3873,24.0148a10.2073,10.2073,0,0,1,.9845,4.3818l-.0258,33.9735"/>
      <path class="a"
            d="M248.1375,333.3318v24.8718a12.7642,12.7642,0,0,1-1.2308,5.4686l-11.2952,23.8205a11.5088,11.5088,0,0,0-1.11,4.9314v12.4052"/>
      <circle class="b" cx="18.5366" cy="231.1445" r="4.6829"/>
      <circle class="b" cx="46.1951" cy="259.0909" r="4.6829"/>
      <g>
         <path class="a"
               d="M189.4013,207.0027H126.42a12.7637,12.7637,0,0,1-5.4685-1.2308l-38.71-18.3553a12.5124,12.5124,0,0,0-5.361-1.2066H35.7952"/>
         <circle class="c" cx="35.7952" cy="186.21" r="6.5122"/>
      </g>
      <g>
         <line class="a"
               x1="234.5015"
               y1="467.061"
               x2="234.5015"
               y2="428.2439"/>
         <circle class="b" cx="234.3552" cy="428.2439" r="4.6829"/>
         <circle class="c" cx="234.5015" cy="467.061" r="6.5122"/>
      </g>
      <circle class="b" cx="179.9332" cy="423.561" r="4.6829"/>
      <g>
         <path class="a"
               d="M58.9366,307.5847h22.11a12.7637,12.7637,0,0,0,5.4685-1.2308l26.1613-12.4051"/>
         <circle class="b" cx="112.6761" cy="293.9488" r="4.6829"/>
         <circle class="c" cx="58.9366" cy="307.5847" r="6.5122"/>
      </g>
      <line class="a"
            x1="242.4135"
            y1="225.8916"
            x2="147.2916"
            y2="225.8916"/>
      <g>
         <circle class="b" cx="124.7375" cy="311.143" r="4.6829"/>
         <path class="a"
               d="M211.0389,301.4472H148.058a12.7637,12.7637,0,0,0-5.4685,1.2308l-17.852,8.465"/>
      </g>
      <circle class="c" cx="147.2916" cy="225.8916" r="6.5122"/>
      <g>
         <line class="a"
               x1="225.535"
               y1="282.5583"
               x2="130.4131"
               y2="282.5583"/>
         <circle class="c" cx="130.4131" cy="282.5583" r="6.5122"/>
      </g>
      <circle class="b" cx="471.2486" cy="225.8916" r="4.6829"/>
      <circle class="c" cx="234.3552" cy="404.8293" r="6.5122"/>
      <circle class="c" cx="261.7401" cy="427.0017" r="6.5122"/>
      <line class="a"
            x1="196.1524"
            y1="389.075"
            x2="179.9332"
            y2="423.561"/>
   </g>
   <g>
      <g>
         <line class="d"
               x1="210.3431"
               y1="329.8199"
               x2="210.3431"
               y2="343.9931"/>
         <line class="d"
               x1="229.2319"
               y1="329.8199"
               x2="229.2319"
               y2="343.9931"/>
         <line class="d"
               x1="248.1208"
               y1="329.8199"
               x2="248.1208"
               y2="343.9931"/>
         <line class="d"
               x1="267.0097"
               y1="329.8199"
               x2="267.0097"
               y2="343.9931"/>
         <line class="d"
               x1="285.8986"
               y1="329.8199"
               x2="285.8986"
               y2="343.9931"/>
         <line class="d"
               x1="304.7875"
               y1="329.8199"
               x2="304.7875"
               y2="343.9931"/>
         <line class="d"
               x1="323.6764"
               y1="329.8199"
               x2="323.6764"
               y2="343.9931"/>
      </g>
      <g>
         <line class="d"
               x1="352.0491"
               y1="301.4472"
               x2="366.2223"
               y2="301.4472"/>
         <line class="d"
               x1="352.0491"
               y1="282.5583"
               x2="366.2223"
               y2="282.5583"/>
         <line class="d"
               x1="352.0491"
               y1="263.6694"
               x2="366.2223"
               y2="263.6694"/>
         <line class="d"
               x1="352.0491"
               y1="244.7805"
               x2="366.2223"
               y2="244.7805"/>
         <line class="d"
               x1="352.0491"
               y1="225.8916"
               x2="366.2223"
               y2="225.8916"/>
         <line class="d"
               x1="352.0491"
               y1="207.0027"
               x2="366.2223"
               y2="207.0027"/>
         <line class="d"
               x1="352.0491"
               y1="188.1138"
               x2="366.2223"
               y2="188.1138"/>
      </g>
      <g>
         <line class="d"
               x1="167.7971"
               y1="301.4472"
               x2="181.9704"
               y2="301.4472"/>
         <line class="d"
               x1="167.7971"
               y1="282.5583"
               x2="181.9704"
               y2="282.5583"/>
         <line class="d"
               x1="167.7971"
               y1="263.6694"
               x2="181.9704"
               y2="263.6694"/>
         <line class="d"
               x1="167.7971"
               y1="244.7805"
               x2="181.9704"
               y2="244.7805"/>
         <line class="d"
               x1="167.7971"
               y1="225.8916"
               x2="181.9704"
               y2="225.8916"/>
         <line class="d"
               x1="167.7971"
               y1="207.0027"
               x2="181.9704"
               y2="207.0027"/>
         <line class="d"
               x1="167.7971"
               y1="188.1138"
               x2="181.9704"
               y2="188.1138"/>
      </g>
   </g>
   <g>
      <rect class="b"
            x="181.9704"
            y="159.7411"
            width="170.0787"
            height="170.0787"
            rx="19.8425"/>
      <path class="e"
            d="M217.7649,160.2029V119.5862a49.2448,49.2448,0,0,1,98.49,0v40.6167"/>
      <g>
         <circle class="f" cx="267.0097" cy="237.5475" r="17.0079"/>
         <path class="f"
               d="M260.566,243.3721,251.4841,282.81c-.3733,2.0787.9113,4.0489,2.64,4.0489h25.7717c1.72,0,3.0022-1.9511,2.6445-4.0226l-8.8109-39.4379a2.9064,2.9064,0,0,0-2.6445-2.6371h-7.8788A2.9,2.9,0,0,0,260.566,243.3721Z"/>
      </g>
      <path class="g"
            d="M307.8315,311.4472H208.9683a8.6252,8.6252,0,0,1-8.6252-8.6253V186.739a8.6252,8.6252,0,0,1,8.6252-8.6252H325.0512a8.6253,8.6253,0,0,1,8.6252,8.6252v91.8674a12.7441,12.7441,0,0,1-2.2359,7.21l-14.18,20.6648A12.2168,12.2168,0,0,1,307.8315,311.4472Z"/>
   </g>
</svg>
