<?xml version="1.0" encoding="UTF-8"?>
<svg xmlns="http://www.w3.org/2000/svg"
     xmlns:xlink="http://www.w3.org/1999/xlink"
     id="Parts"
     width="12.3541mm"
     height="12.3472mm"
     viewBox="0 0 35.0195 35">
   <defs>
      <style>
      .cls-1 {
        fill: none;
      }

      .cls-1, .cls-2, .cls-3, .cls-4 {
        stroke-width: 0px;
      }

      .cls-2 {
        fill: #01889c;
      }

      .cls-5 {
        clip-path: url(#clippath-1);
      }

      .cls-3 {
        fill: #fff;
      }

      .cls-6 {
        clip-path: url(#clippath);
      }

      .cls-4 {
        fill: #243746;
      }
    </style>
      <clipPath id="clippath">
         <rect class="cls-1" width="35.0195" height="35"/>
      </clipPath>
      <clipPath id="clippath-1">
         <rect class="cls-1" width="35.02" height="35"/>
      </clipPath>
   </defs>
   <g id="Artwork_19" data-name="Artwork 19">
      <g class="cls-6">
         <g class="cls-5">
            <path class="cls-3"
                  d="m31.4115.6454H3.6055C1.9735.6454.6455,1.9744.6455,3.6084v27.783c0,1.634,1.328,2.963,2.96,2.963h27.806c1.634,0,2.963-1.329,2.963-2.963V3.6084c0-1.634-1.329-2.963-2.963-2.963"/>
            <path class="cls-2"
                  d="m26.4383,16.2495v-7.238c0-.414-.336-.75-.75-.75h-3.836l1.504-.752c.254-.127.414-.387.414-.67v-3.699c0-.414-.336-.75-.75-.75s-.75.336-.75.75v3.236l-.621.311v-1.969c0-.414-.336-.75-.75-.75s-.75.336-.75.75v3.027l-7.395-3.697c-.23-.119-.507-.105-.73.031-.221.137-.356.379-.356.639v3.543h-2.988c-.414,0-.75.336-.75.75v7.412c-.168.117-.307.264-.406.445h-3.865v1.5h3.993c.08.102.173.185.278.26v7.391c0,.414.336.75.75.75h4.045l-1.402.701c-.254.127-.414.387-.414.67v3.719c0,.414.336.75.75.75s.75-.336.75-.75v-3.256l.621-.311v1.967c0,.414.336.75.75.75s.75-.336.75-.75v-3.028l7.416,3.7c.105.053.219.078.334.078.137,0,.273-.037.394-.111.221-.137.356-.379.356-.639v-3.49h2.658c.414,0,.75-.336.75-.75v-7.213c.243-.087.443-.24.601-.438h4.321v-1.5h-4.19c-.162-.287-.414-.508-.732-.619M13.1683,5.9315l4.659,2.33h-4.659v-2.33Zm0,3.83h4.462l-4.462,2.24v-2.24Zm8.362,19.285l-4.567-2.277h4.567v2.277Zm0-3.777h-4.567l4.567-2.278v2.278Zm3.408-8.601c-.19.234-.319.521-.319.851s.129.621.319.859v6.891h-1.908v-3.49c0-.26-.135-.502-.356-.639-.224-.137-.498-.15-.728-.033l-7.416,3.699v-3.027c0-.414-.336-.75-.75-.75s-.75.336-.75.75v3.49h-3.6v-6.614c.372-.247.629-.653.629-1.136s-.257-.881-.629-1.122v-6.636h2.238v3.457c0,.26.135.502.356.639.121.074.258.111.394.111.116,0,.231-.027.336-.08l7.395-3.714v3.044c0,.414.336.75.75.75s.75-.336.75-.75v-3.457h3.289v6.907Z"/>
            <path class="cls-4"
                  d="m31.1195-.0102H3.8985C1.7485-.0102-.0005,1.7378-.0005,3.8888v27.201c0,2.162,1.749,3.92,3.899,3.92h27.221c2.15,0,3.9-1.758,3.9-3.92V3.8888C35.0195,1.7378,33.2695-.0102,31.1195-.0102m2.9,31.1c0,1.609-1.301,2.92-2.9,2.92H3.8985c-1.598,0-2.899-1.311-2.899-2.92V3.8888C.9995,2.2908,2.3005.9898,3.8985.9898h27.221c1.599,0,2.9,1.301,2.9,2.899v27.201Z"/>
         </g>
      </g>
   </g>
</svg>
