<?xml version="1.0" encoding="UTF-8"?>
<svg xmlns="http://www.w3.org/2000/svg"
     width="108.1393mm"
     height="24.8493mm"
     viewBox="0 0 306.5366 70.439">
   <defs>
      <style>
      .cls-1, .cls-2 {
        stroke: #231f20;
      }

      .cls-1, .cls-2, .cls-3, .cls-4 {
        fill: none;
      }

      .cls-1, .cls-4 {
        stroke-width: .5px;
      }

      .cls-2 {
        stroke-width: .5912px;
      }

      .cls-3 {
        stroke: #fff;
      }

      .cls-3, .cls-5, .cls-4 {
        stroke-linecap: round;
      }

      .cls-5 {
        stroke-width: .106px;
      }

      .cls-5, .cls-4 {
        stroke: #000;
      }

      .cls-6 {
        font-size: 20px;
      }

      .cls-6, .cls-7 {
        font-family: ArialMT, Arial;
      }

      .cls-7 {
        fill: #fff;
        font-size: 16px;
        isolation: isolate;
      }
    </style>
   </defs>
   <g id="Layer_7" data-name="Layer 7">
      <g>
         <line class="cls-3"
               x1="16.1402"
               y1="28.439"
               x2="16.1402"
               y2="59.5347"/>
         <line class="cls-4"
               x1="16.1402"
               y1="59.5347"
               x2="16.1402"
               y2="28.439"/>
         <circle class="cls-5" cx="16.1402" cy="59.5347" r="9.5"/>
         <text class="cls-7" transform="translate(12.1403 65.0667)">
            <tspan x="0" y="0">J</tspan>
         </text>
      </g>
      <g>
         <line class="cls-3"
               x1="118.7018"
               y1="28.439"
               x2="118.7018"
               y2="59.5347"/>
         <line class="cls-4"
               x1="118.7018"
               y1="59.5347"
               x2="118.7018"
               y2="28.439"/>
         <circle class="cls-5" cx="118.7018" cy="59.5347" r="9.5"/>
         <text class="cls-7" transform="translate(112.9247 65.0667)">
            <tspan x="0" y="0">N</tspan>
         </text>
      </g>
      <polyline class="cls-1"
                points="30.0643 20.3902 30.0643 28.439 2.216 28.439 2.216 20.3902"/>
      <g>
         <line class="cls-3"
               x1="37.7612"
               y1="28.439"
               x2="37.7612"
               y2="59.5347"/>
         <line class="cls-4"
               x1="37.7612"
               y1="59.5347"
               x2="37.7612"
               y2="28.439"/>
         <circle class="cls-5" cx="37.7612" cy="59.5347" r="9.5"/>
         <text class="cls-7" transform="translate(32.4254 65.0667)">
            <tspan x="0" y="0">K</tspan>
         </text>
      </g>
      <polyline class="cls-1"
                points="45.3509 20.3902 45.3509 28.439 33.7612 28.439 33.7612 20.3902"/>
      <g>
         <line class="cls-3"
               x1="58.9751"
               y1="28.439"
               x2="58.9751"
               y2="59.5347"/>
         <line class="cls-4"
               x1="58.9751"
               y1="59.5347"
               x2="58.9751"
               y2="28.439"/>
         <circle class="cls-5" cx="58.9751" cy="59.5347" r="9.5"/>
         <text class="cls-7" transform="translate(54.5261 65.0667)">
            <tspan x="0" y="0">L</tspan>
         </text>
      </g>
      <polyline class="cls-1"
                points="61.0388 20.3902 61.0388 28.439 51.3854 28.439 51.3854 20.3902"/>
      <g>
         <line class="cls-3"
               x1="225.4856"
               y1="28.439"
               x2="225.4856"
               y2="59.5347"/>
         <line class="cls-4"
               x1="225.4856"
               y1="59.5347"
               x2="225.4856"
               y2="28.439"/>
         <circle class="cls-5" cx="225.4856" cy="59.5347" r="9.5"/>
         <text class="cls-7" transform="translate(219.2631 65.0667)">
            <tspan x="0" y="0">Q</tspan>
         </text>
      </g>
      <polyline class="cls-1"
                points="233.0753 20.3902 233.0753 28.439 221.4856 28.439 221.4856 20.3902"/>
      <g>
         <line class="cls-3"
               x1="246.6995"
               y1="28.439"
               x2="246.6995"
               y2="59.5347"/>
         <line class="cls-4"
               x1="246.6995"
               y1="59.5347"
               x2="246.6995"
               y2="28.439"/>
         <circle class="cls-5" cx="246.6995" cy="59.5347" r="9.5"/>
         <text class="cls-7" transform="translate(240.9223 65.0667)">
            <tspan x="0" y="0">R</tspan>
         </text>
      </g>
      <polyline class="cls-1"
                points="250.6995 20.3902 250.6995 28.439 239.1098 28.439 239.1098 20.3902"/>
      <g>
         <line class="cls-3"
               x1="80.8019"
               y1="28.439"
               x2="80.8019"
               y2="59.5347"/>
         <line class="cls-4"
               x1="80.8019"
               y1="59.5347"
               x2="80.8019"
               y2="28.439"/>
         <circle class="cls-5" cx="80.8019" cy="59.5347" r="9.5"/>
         <text class="cls-7" transform="translate(74.138 65.0667)">
            <tspan x="0" y="0">M</tspan>
         </text>
      </g>
      <polyline class="cls-1"
                points="96.2974 20.3902 96.2974 28.439 63.3701 28.439 63.3701 20.3902"/>
      <polyline class="cls-1"
                points="133.8596 20.3902 133.8596 28.439 103.544 28.439 103.544 20.3902"/>
      <g>
         <line class="cls-3"
               x1="157.5361"
               y1="28.439"
               x2="157.5361"
               y2="59.5347"/>
         <line class="cls-4"
               x1="157.5361"
               y1="59.5347"
               x2="157.5361"
               y2="28.439"/>
         <circle class="cls-5" cx="157.5361" cy="59.5347" r="9.5"/>
         <text class="cls-7" transform="translate(151.3137 65.0667)">
            <tspan x="0" y="0">O</tspan>
         </text>
      </g>
      <polyline class="cls-1"
                points="172.694 20.3902 172.694 28.439 142.3784 28.439 142.3784 20.3902"/>
      <g>
         <line class="cls-3"
               x1="195.8291"
               y1="28.439"
               x2="195.8291"
               y2="59.5347"/>
         <line class="cls-4"
               x1="195.8291"
               y1="59.5347"
               x2="195.8291"
               y2="28.439"/>
         <circle class="cls-5" cx="195.8291" cy="59.5347" r="9.5"/>
         <text class="cls-7" transform="translate(190.4934 65.0667)">
            <tspan x="0" y="0">P</tspan>
         </text>
      </g>
      <polyline class="cls-1"
                points="210.987 20.3902 210.987 28.439 180.6714 28.439 180.6714 20.3902"/>
      <g>
         <line class="cls-3"
               x1="272.128"
               y1="28.439"
               x2="272.128"
               y2="59.5347"/>
         <line class="cls-4"
               x1="272.128"
               y1="59.5347"
               x2="272.128"
               y2="28.439"/>
         <circle class="cls-5" cx="272.128" cy="59.5347" r="9.5"/>
         <text class="cls-7" transform="translate(266.7923 65.0667)">
            <tspan x="0" y="0">S</tspan>
         </text>
      </g>
      <polyline class="cls-2"
                points="283.0579 20.3902 283.0579 28.439 261.1981 28.439 261.1981 20.3902"/>
   </g>
   <g id="Layer_8" data-name="Layer 8">
      <g id="ATTRIB">
         <text class="cls-6" transform="translate(1.1072 16.7345)">
            <tspan x="0" y="0">PMC 1040-400/220/230-CW-S1</tspan>
         </text>
      </g>
   </g>
</svg>
