<?xml version="1.0" encoding="UTF-8"?>
<svg xmlns="http://www.w3.org/2000/svg"
     id="Layer_10"
     data-name="Layer 10"
     width="64.5mm"
     height="21.5mm"
     viewBox="0 0 182.8346 60.9449">
   <defs>
      <style>
      .cls-1 {
        stroke: #231f20;
      }

      .cls-1, .cls-2, .cls-3 {
        fill: none;
      }

      .cls-1, .cls-3 {
        stroke-width: .5px;
      }

      .cls-2 {
        stroke: #fff;
      }

      .cls-2, .cls-4, .cls-3 {
        stroke-linecap: round;
      }

      .cls-4 {
        stroke-width: .106px;
      }

      .cls-4, .cls-3 {
        stroke: #000;
      }

      .cls-5 {
        font-size: 20px;
      }

      .cls-5, .cls-6 {
        font-family: ArialMT, Arial;
      }

      .cls-6 {
        fill: #fff;
        font-size: 16px;
        isolation: isolate;
      }
    </style>
   </defs>
   <g id="ATTRIB">
      <text class="cls-5" transform="translate(1.1073 16.7346)">
         <tspan x="0" y="0">1217654001 - UC01</tspan>
      </text>
   </g>
   <g>
      <line class="cls-2"
            x1="94.9807"
            y1="29.2058"
            x2="94.9807"
            y2="50.3015"/>
      <line class="cls-3"
            x1="94.9807"
            y1="50.3015"
            x2="94.9807"
            y2="29.2058"/>
      <circle class="cls-4" cx="94.9807" cy="50.3015" r="9.5"/>
      <text class="cls-6" transform="translate(88.7582 55.8337)">
         <tspan x="0" y="0">Q</tspan>
      </text>
   </g>
   <g>
      <line class="cls-2"
            x1="157.4867"
            y1="28.8874"
            x2="157.4867"
            y2="49.9831"/>
      <line class="cls-3"
            x1="157.4867"
            y1="49.9831"
            x2="157.4867"
            y2="28.8874"/>
      <circle class="cls-4" cx="157.4867" cy="49.9831" r="9.5"/>
      <text class="cls-6" transform="translate(151.7095 55.5153)">
         <tspan x="0" y="0">R</tspan>
      </text>
   </g>
   <polyline class="cls-1"
             points="77.4878 20.3902 77.4878 28.439 3.2806 28.439 3.2806 20.3902"/>
   <polyline class="cls-1"
             points="110.248 20.3902 110.248 28.439 79.7135 28.439 79.7135 20.3902"/>
   <polyline class="cls-1"
             points="179.2195 20.3902 179.2195 28.439 129.3171 28.439 129.3171 20.3902"/>
   <g>
      <line class="cls-2"
            x1="38.0961"
            y1="28.313"
            x2="38.0961"
            y2="49.4087"/>
      <line class="cls-3"
            x1="38.0961"
            y1="49.4087"
            x2="38.0961"
            y2="28.313"/>
      <circle class="cls-4" cx="38.0961" cy="49.4087" r="9.5"/>
      <text class="cls-6" transform="translate(32.7601 54.9409)">
         <tspan x="0" y="0">P</tspan>
      </text>
   </g>
</svg>
