<?xml version="1.0" encoding="UTF-8"?>
<svg xmlns="http://www.w3.org/2000/svg"
     width="108.1393mm"
     height="24.8493mm"
     viewBox="0 0 306.5366 70.439">
   <defs>
      <style>
      .cls-1 {
        font-size: 20px;
      }

      .cls-1, .cls-5 {
        font-family: ArialMT, Arial;
      }

      .cls-2, .cls-3, .cls-6, .cls-7, .cls-8 {
        fill: none;
      }

      .cls-2 {
        stroke: #fff;
      }

      .cls-2, .cls-3, .cls-4 {
        stroke-linecap: round;
      }

      .cls-3, .cls-4 {
        stroke: #000;
      }

      .cls-3, .cls-6 {
        stroke-width: 0.5px;
      }

      .cls-4 {
        stroke-width: 0.106px;
      }

      .cls-5 {
        isolation: isolate;
        font-size: 16px;
        fill: #fff;
      }

      .cls-6, .cls-7, .cls-8 {
        stroke: #231f20;
      }

      .cls-7 {
        stroke-width: 0.536px;
      }

      .cls-8 {
        stroke-width: 0.5912px;
      }
    </style>
   </defs>
   <g id="Layer_7" data-name="Layer 7">
      <g id="ATTRIB">
         <text class="cls-1" transform="translate(1.1072 16.7345)">Reality PDW 3120-220/415-EAN-D</text>
      </g>
      <g>
         <line class="cls-2"
               x1="49.3999"
               y1="28.439"
               x2="49.3999"
               y2="59.5347"/>
         <line class="cls-3"
               x1="49.3999"
               y1="59.5347"
               x2="49.3999"
               y2="28.439"/>
         <circle class="cls-4" cx="49.3999" cy="59.5347" r="9.5"/>
         <text class="cls-5" transform="translate(45.3999 65.0667)">J</text>
      </g>
      <g>
         <line class="cls-2"
               x1="113.9147"
               y1="20.3902"
               x2="113.9147"
               y2="59.5347"/>
         <line class="cls-3"
               x1="113.9147"
               y1="59.5347"
               x2="113.9147"
               y2="28.439"/>
         <circle class="cls-4" cx="113.9147" cy="59.5347" r="9.5"/>
         <text class="cls-5" transform="translate(108.579 65.0667)">K</text>
      </g>
      <g>
         <line class="cls-2"
               x1="136.635"
               y1="28.439"
               x2="136.635"
               y2="59.5347"/>
         <line class="cls-3"
               x1="136.635"
               y1="59.5347"
               x2="136.635"
               y2="28.439"/>
         <circle class="cls-4" cx="136.635" cy="59.5347" r="9.5"/>
         <text class="cls-5" transform="translate(132.1859 65.0667)">L</text>
      </g>
      <g>
         <line class="cls-2"
               x1="215.6966"
               y1="28.439"
               x2="215.6966"
               y2="59.5347"/>
         <line class="cls-3"
               x1="215.6966"
               y1="59.5347"
               x2="215.6966"
               y2="28.439"/>
         <circle class="cls-4" cx="215.6966" cy="59.5347" r="9.5"/>
         <text class="cls-5" transform="translate(209.9195 65.0667)">N</text>
      </g>
      <g>
         <line class="cls-2"
               x1="178.4946"
               y1="28.439"
               x2="178.4946"
               y2="59.5347"/>
         <line class="cls-3"
               x1="178.4946"
               y1="59.5347"
               x2="178.4946"
               y2="28.439"/>
         <circle class="cls-4" cx="178.4946" cy="59.5347" r="9.5"/>
         <text class="cls-5" transform="translate(171.8307 65.0667)">M</text>
      </g>
      <g>
         <line class="cls-2"
               x1="259.5828"
               y1="28.439"
               x2="259.5828"
               y2="59.5347"/>
         <line class="cls-3"
               x1="259.5828"
               y1="59.5347"
               x2="259.5828"
               y2="28.439"/>
         <circle class="cls-4" cx="259.5828" cy="59.5347" r="9.5"/>
         <text class="cls-5" transform="translate(253.3603 65.0667)">O</text>
      </g>
      <polyline class="cls-6"
                points="100.012 20.39 100.012 28.439 3.281 28.439 3.281 20.39"/>
      <polyline class="cls-6"
                points="150.793 20.39 150.793 28.439 122.477 28.439 122.477 20.39"/>
      <polyline class="cls-6"
                points="192.652 20.39 192.652 28.439 164.337 28.439 164.337 20.39"/>
      <polyline class="cls-7"
                points="231.963 20.39 231.963 28.439 199.43 28.439 199.43 20.39"/>
      <polyline class="cls-8"
                points="279.378 20.39 279.378 28.439 239.787 28.439 239.787 20.39"/>
      <g>
         <line class="cls-2"
               x1="294.4242"
               y1="28.439"
               x2="294.4242"
               y2="59.5347"/>
         <line class="cls-3"
               x1="294.4242"
               y1="59.5347"
               x2="294.4242"
               y2="28.439"/>
         <circle class="cls-4" cx="294.4242" cy="59.5347" r="9.5"/>
         <text class="cls-5" transform="translate(289.0885 65.0667)">P</text>
      </g>
      <polyline class="cls-8"
                points="301.598 20.39 301.598 28.439 287.251 28.439 287.251 20.39"/>
      <polyline class="cls-8"
                points="119.329 20.39 119.329 28.439 108.5 28.439 108.5 20.39"/>
   </g>
</svg>
