<?xml version="1.0" encoding="UTF-8"?>
<svg xmlns="http://www.w3.org/2000/svg"
     id="Layer_10"
     data-name="Layer 10"
     width="96.0942mm"
     height="21.5mm"
     viewBox="0 0 272.3929 60.9449">
   <defs>
      <style>
      .cls-1, .cls-2 {
        stroke: #231f20;
      }

      .cls-1, .cls-2, .cls-3, .cls-4 {
        fill: none;
      }

      .cls-1, .cls-4 {
        stroke-width: .5px;
      }

      .cls-2 {
        stroke-width: .5912px;
      }

      .cls-3 {
        stroke: #fff;
      }

      .cls-3, .cls-5, .cls-4 {
        stroke-linecap: round;
      }

      .cls-5 {
        stroke-width: .106px;
      }

      .cls-5, .cls-4 {
        stroke: #000;
      }

      .cls-6 {
        font-size: 20px;
      }

      .cls-6, .cls-7 {
        font-family: ArialMT, Arial;
      }

      .cls-7 {
        fill: #fff;
        font-size: 16px;
        isolation: isolate;
      }
    </style>
   </defs>
   <g id="ATTRIB">
      <text class="cls-6" transform="translate(.4733 15.1408)">
         <tspan x="0" y="0">GUMDDC-0.8 24/24-25/2N+1</tspan>
      </text>
   </g>
   <g>
      <line class="cls-3"
            x1="140.4079"
            y1="21.7669"
            x2="140.4079"
            y2="50.9114"/>
      <line class="cls-4"
            x1="140.4079"
            y1="50.9114"
            x2="140.4079"
            y2="29.8157"/>
      <circle class="cls-5" cx="140.4079" cy="50.9114" r="9.5"/>
      <text class="cls-7" transform="translate(133.7441 56.4435)">
         <tspan x="0" y="0">M</tspan>
      </text>
   </g>
   <g>
      <line class="cls-3"
            x1="24.1712"
            y1="29.1712"
            x2="24.1712"
            y2="50.2669"/>
      <line class="cls-4"
            x1="24.1712"
            y1="50.2669"
            x2="24.1712"
            y2="29.1712"/>
      <circle class="cls-5" cx="24.1712" cy="50.2669" r="9.5"/>
      <text class="cls-7" transform="translate(20.1714 55.799)">
         <tspan x="0" y="0">J</tspan>
      </text>
   </g>
   <g>
      <line class="cls-3"
            x1="111.8918"
            y1="29.4934"
            x2="111.8918"
            y2="50.5891"/>
      <line class="cls-4"
            x1="111.8918"
            y1="50.5891"
            x2="111.8918"
            y2="29.4934"/>
      <circle class="cls-5" cx="111.8918" cy="50.5891" r="9.5"/>
      <text class="cls-7" transform="translate(107.4429 56.1213)">
         <tspan x="0" y="0">L</tspan>
      </text>
   </g>
   <polyline class="cls-1"
             points="45.329 21.1224 45.329 29.1712 3.0135 29.1712 3.0135 21.1224"/>
   <g>
      <line class="cls-3"
            x1="68.9473"
            y1="29.1712"
            x2="68.9473"
            y2="50.2669"/>
      <line class="cls-4"
            x1="68.9473"
            y1="50.2669"
            x2="68.9473"
            y2="29.1712"/>
      <circle class="cls-5" cx="68.9473" cy="50.2669" r="9.5"/>
      <text class="cls-7" transform="translate(63.6116 55.799)">
         <tspan x="0" y="0">K</tspan>
      </text>
   </g>
   <polyline class="cls-1"
             points="90.1051 21.1224 90.1051 29.1712 47.7896 29.1712 47.7896 21.1224"/>
   <polyline class="cls-1"
             points="124.0497 21.4447 124.0497 29.4934 99.7341 29.4934 99.7341 21.4447"/>
   <g>
      <line class="cls-3"
            x1="168.8192"
            y1="30.0098"
            x2="168.8192"
            y2="51.1055"/>
      <line class="cls-4"
            x1="168.8192"
            y1="51.1055"
            x2="168.8192"
            y2="30.0098"/>
      <circle class="cls-5" cx="168.8192" cy="51.1055" r="9.5"/>
      <text class="cls-7" transform="translate(163.0421 56.6376)">
         <tspan x="0" y="0">N</tspan>
      </text>
   </g>
   <polyline class="cls-1"
             points="179.2437 21.4447 179.2437 29.4934 158.3947 29.4934 158.3947 21.4447"/>
   <polyline class="cls-2"
             points="150.9279 21.4447 150.9279 29.4934 129.8879 29.4934 129.8879 21.4447"/>
   <g>
      <line class="cls-3"
            x1="220.2696"
            y1="22.0871"
            x2="220.2696"
            y2="51.2316"/>
      <line class="cls-4"
            x1="220.2696"
            y1="51.2316"
            x2="220.2696"
            y2="30.1359"/>
      <circle class="cls-5" cx="220.2696" cy="51.2316" r="9.5"/>
      <text class="cls-7" transform="translate(214.934 56.7637)">
         <tspan x="0" y="0">P</tspan>
      </text>
   </g>
   <polyline class="cls-2"
             points="224.9179 22.0871 224.9179 30.1359 214.855 30.1359 214.855 22.0871"/>
   <g>
      <line class="cls-3"
            x1="196.9587"
            y1="30.0098"
            x2="196.9587"
            y2="51.1055"/>
      <line class="cls-4"
            x1="196.9587"
            y1="51.1055"
            x2="196.9587"
            y2="30.0098"/>
      <circle class="cls-5" cx="196.9587" cy="51.1055" r="9.5"/>
      <text class="cls-7" transform="translate(190.736 56.638)">
         <tspan x="0" y="0">O</tspan>
      </text>
   </g>
   <polyline class="cls-1"
             points="206.7156 21.3945 206.7156 29.4433 187.2019 29.4433 187.2019 21.3945"/>
   <g>
      <line class="cls-3"
            x1="246.0368"
            y1="30.3321"
            x2="246.0368"
            y2="51.4278"/>
      <line class="cls-4"
            x1="246.0368"
            y1="51.4278"
            x2="246.0368"
            y2="30.3321"/>
      <circle class="cls-5" cx="246.0368" cy="51.4278" r="9.5"/>
      <text class="cls-7" transform="translate(239.8143 56.9602)">
         <tspan x="0" y="0">Q</tspan>
      </text>
   </g>
   <polyline class="cls-1"
             points="260.0969 22.2833 260.0969 30.3321 229.7696 30.3321 229.7696 22.2833"/>
</svg>
