<?xml version="1.0" encoding="UTF-8"?>
<svg xmlns="http://www.w3.org/2000/svg"
     xmlns:xlink="http://www.w3.org/1999/xlink"
     id="Parts"
     width="4.4767mm"
     height="2.6671mm"
     viewBox="0 0 12.6899 7.5603">
   <defs>
      <style>
      .cls-1 {
        fill: none;
      }

      .cls-1, .cls-2, .cls-3 {
        stroke-width: 0px;
      }

      .cls-2 {
        fill: #01889c;
      }

      .cls-4 {
        clip-path: url(#clippath-1);
      }

      .cls-3 {
        fill: #fff;
      }

      .cls-5 {
        clip-path: url(#clippath);
      }
    </style>
      <clipPath id="clippath">
         <rect class="cls-1" y="0" width="12.6899" height="7.5603"/>
      </clipPath>
      <clipPath id="clippath-1">
         <rect class="cls-1" y=".0003" width="12.69" height="7.56"/>
      </clipPath>
   </defs>
   <g id="Artwork_22" data-name="Artwork 22">
      <g class="cls-5">
         <polygon class="cls-3" points=".75 6.6967 10.947 3.7889 .75 .8827 .75 6.6967"/>
         <g class="cls-4">
            <path class="cls-2"
                  d="m12.4177,3.4289L.4777.0247c-.1102-.0338-.2332-.009-.3285.06-.0952.0713-.1493.183-.1493.3v6.81c0,.117.054.2288.1493.3.066.0487.1455.075.2257.075.0352,0,.069-.0045.1027-.0143l11.94-3.4057c.1605-.0458.2723-.1935.2723-.3608s-.1118-.315-.2723-.36M.75,6.6967V.8827l10.197,2.9062L.75,6.6967Z"/>
         </g>
      </g>
   </g>
</svg>
