<?xml version="1.0" encoding="UTF-8"?>
<svg xmlns="http://www.w3.org/2000/svg"
     xmlns:xlink="http://www.w3.org/1999/xlink"
     id="Parts"
     width="12.3444mm"
     height="12.3541mm"
     viewBox="0 0 34.9921 35.0196">
   <defs>
      <style>
      .cls-1 {
        fill: none;
      }

      .cls-1, .cls-2, .cls-3, .cls-4 {
        stroke-width: 0px;
      }

      .cls-2 {
        fill: #01889c;
      }

      .cls-5 {
        clip-path: url(#clippath-1);
      }

      .cls-3 {
        fill: #fff;
      }

      .cls-6 {
        clip-path: url(#clippath);
      }

      .cls-4 {
        fill: #243746;
      }
    </style>
      <clipPath id="clippath">
         <rect class="cls-1" width="34.9921" height="35.0196"/>
      </clipPath>
      <clipPath id="clippath-1">
         <rect class="cls-1" y="-.0004" width="34.992" height="35.02"/>
      </clipPath>
   </defs>
   <g id="Artwork_17" data-name="Artwork 17">
      <g class="cls-6">
         <g class="cls-5">
            <path class="cls-3"
                  d="m31.3978.6553H3.5918C1.9598.6553.6318,1.9843.6318,3.6183v27.783c0,1.634,1.328,2.963,2.96,2.963h27.806c1.634,0,2.963-1.329,2.963-2.963V3.6183c0-1.634-1.329-2.963-2.963-2.963"/>
            <path class="cls-2"
                  d="m30.2348,25.9297c-.347-.225-.812-.129-1.038.221-.559.857-1.287,1.341-2.051,1.361-.751-.014-1.446-.396-2.066-1.236-.04-.098-.1-.184-.174-.256-.833-1.205-1.97-1.881-3.208-1.904-1.286-.038-2.424.623-3.317,1.849l-.114.17c-.233.342-.145.809.197,1.043.341.232.808.143,1.042-.195l.107-.162c.576-.793,1.289-1.202,2.057-1.205.695.011,1.363.406,1.98,1.21.021.041.044.083.072.12.008.011.017.025.026.037.013.023.028.045.043.066.053.08.115.172.129.172.842,1.158,1.967,1.791,3.174,1.791h.091c1.254-.033,2.446-.779,3.27-2.045.225-.346.127-.81-.22-1.037"/>
            <path class="cls-2"
                  d="m5.6655,7.4688h10.2c.414,0,.75-.336.75-.75s-.336-.75-.75-.75H5.6655c-.414,0-.75.336-.75.75s.336.75.75.75"/>
            <path class="cls-2"
                  d="m5.6655,10.8692h10.2c.414,0,.75-.336.75-.75s-.336-.75-.75-.75H5.6655c-.414,0-.75.336-.75.75s.336.75.75.75"/>
            <rect class="cls-2"
                  x="-5.2196"
                  y="16.7598"
                  width="45.4313"
                  height="1.5001"
                  transform="translate(-7.2569 17.5001) rotate(-45)"/>
            <path class="cls-4"
                  d="m31.1058-.0003H3.8848C1.7348-.0003-.0142,1.7477-.0142,3.8987v27.201c0,2.162,1.749,3.92,3.899,3.92h27.221c2.15,0,3.9-1.758,3.9-3.92V3.8987C35.0058,1.7477,33.2558-.0003,31.1058-.0003m2.9,31.1c0,1.609-1.301,2.92-2.9,2.92H3.8848c-1.598,0-2.899-1.311-2.899-2.92V3.8987C.9858,2.3007,2.2868.9997,3.8848.9997h27.221c1.599,0,2.9,1.301,2.9,2.899v27.201Z"/>
         </g>
      </g>
   </g>
</svg>
