<?xml version="1.0" encoding="UTF-8"?>
<svg xmlns="http://www.w3.org/2000/svg"
     id="Layer_1"
     data-name="Layer 1"
     width="390"
     height="190"
     viewBox="0 0 390 190">
   <defs>
      <style>
      .cls-1 {
        fill: #01889C;
      }

      .cls-2 {
        fill: none;
        stroke: #231f20;
        stroke-miterlimit: 10;
        stroke-width: 2px;
      }

      .cls-3, .cls-4 {
        fill: #231f20;
      }

      .cls-4 {
        font-size: 12px;
        font-family: ArialMT, Arial;
      }
    </style>
   </defs>
   <rect class="cls-1"
         x="133.9393"
         y="9.1667"
         width="40"
         height="40"
         rx="4"/>
   <rect class="cls-1"
         x="133.9393"
         y="69.1667"
         width="40"
         height="40"
         rx="4"/>
   <rect class="cls-1"
         x="133.9393"
         y="129.1667"
         width="40"
         height="40"
         rx="4"/>
   <g>
      <polyline class="cls-2"
                points="133.939 39.167 123.939 39.167 123.939 79.167 129.634 79.167"/>
      <polygon class="cls-3"
               points="128.758 82.158 133.939 79.167 128.758 76.175 128.758 82.158"/>
   </g>
   <g>
      <polyline class="cls-2"
                points="133.939 99.167 123.939 99.167 123.939 139.167 129.634 139.167"/>
      <polygon class="cls-3"
               points="128.758 142.158 133.939 139.167 128.758 136.175 128.758 142.158"/>
   </g>
   <g>
      <line class="cls-2"
            x1="133.9393"
            y1="159.1667"
            x2="98.3057"
            y2="159.1667"/>
      <polygon class="cls-3"
               points="99.181 156.175 94 159.167 99.181 162.158 99.181 156.175"/>
   </g>
   <text class="cls-4" transform="translate(183.9391 32.1665)">Sensor using 1 digital input</text>
   <text class="cls-4" transform="translate(183.9391 92.1665)">Sensor using 1 analog input</text>
   <text class="cls-4" transform="translate(183.9391 152.1665)">Sensor using 1 analog input</text>
   <text class="cls-4" transform="translate(14.0899 179.3902)">Sensormanager port</text>
</svg>
