<?xml version="1.0" encoding="UTF-8"?>
<svg xmlns="http://www.w3.org/2000/svg"
     xmlns:xlink="http://www.w3.org/1999/xlink"
     id="Layer_1"
     data-name="Layer 1"
     width="68.878"
     height="135.72"
     viewBox="0 0 68.878 135.72">
   <defs>
      <style>
      .cls-1, .cls-3, .cls-4 {
        fill: none;
      }

      .cls-2 {
        clip-path: url(#clip-path);
      }

      .cls-3, .cls-4 {
        stroke: #000;
        stroke-linecap: round;
      }

      .cls-3 {
        stroke-miterlimit: 10;
        stroke-width: 1.445px;
      }

      .cls-4 {
        stroke-linejoin: round;
        stroke-width: 1.084px;
      }

      .cls-5 {
        fill-rule: evenodd;
      }

      .cls-6 {
        fill: #231f20;
      }

      .cls-7 {
        clip-path: url(#clip-path-2);
      }

      .cls-8 {
        font-size: 10.02px;
        font-family: Arial;
      }
    </style>
      <clipPath id="clip-path">
         <rect class="cls-1"
               x="-5.6079"
               y="61.62"
               width="73.02"
               height="74.1"/>
      </clipPath>
      <clipPath id="clip-path-2">
         <rect class="cls-1" x="-5.6079" width="73.02" height="73.74"/>
      </clipPath>
   </defs>
   <title>Set-profibus-address_rev1</title>
   <g class="cls-2">
      <rect class="cls-3"
            x="2.1921"
            y="69.48"
            width="63.9"
            height="64.2"/>
   </g>
   <path class="cls-4"
         d="M61.7721,101.46a27.72,27.72,0,1,0-27.72,27.84A27.7448,27.7448,0,0,0,61.7721,101.46Z"/>
   <path class="cls-5"
         d="M12.9921,103.14c4.843.191,4.819-3.615,0-3.42-4.819-.195-4.843,3.611,0,3.42m0,1.08c-2.038-.24-4.325-.252-4.5-2.88.799-2.572.951-1.619,2.52-2.52l.72-.18h1.26l1.44.18,1.08.18.72.36.72.54C18.9091,103.086,15.4651,104.346,12.9921,104.22Z"/>
   <polyline class="cls-5"
             points="52.832 98.82 52.832 99.9 52.112 100.08 51.572 100.44 51.212 101.52 51.392 102.24 51.752 102.78 52.472 103.14 53.372 103.32 54.092 103.14 54.812 102.78 55.172 102.24 55.352 101.52 55.352 100.98 55.172 100.62 54.452 99.9 54.632 99.54 54.632 99 56.972 99.36 59.132 99.72 59.132 103.86 58.232 103.86 58.232 100.62 56.972 100.44 55.712 100.08 56.252 100.98 56.432 101.7 56.252 102.78 55.532 103.5 54.632 104.22 53.552 104.4 52.292 104.22 51.392 103.68 50.672 102.78 50.312 101.52 50.492 100.44 51.032 99.54 51.752 99 52.832 98.82"/>
   <polyline class="cls-5"
             points="21.632 90.84 21.452 91.2 21.092 91.56 18.392 89.58 15.512 87.42 15.512 89.4 15.332 89.94 14.972 89.58 14.432 89.22 14.612 88.32 14.612 87.42 14.432 86.7 14.072 85.98 14.252 85.8 14.432 85.44 21.632 90.84"/>
   <path class="cls-5"
         d="M31.1721,83.94l.18.6.18.54-5.4,1.62V85.44l.18-.72.36-.96.54-.9.72-1.26.36-.54v-.54c1.347-3.355-3.795-3.154-2.88-.18l-.54.18h-.54V79.44l.18-.9.72-.72.9-.54a2.4908,2.4908,0,0,1,3.42,2.16v.54l-.18.54-.18.72-.36.72-.54,1.26-.54.9-.36.42v.36l-.18.36,1.98-.54,1.98-.78"/>
   <path class="cls-5"
         d="M38.0121,82.86l1.08.36v.72l.18.78.36.36.54.18.72.18.54-.18.54-.54.36-.6.18-.72-.18-.54-.36-.54-.72-.36h-.36l-.36-.18.18-.36.18-.36h.18l.72.18.54-.18.54-.36.36-.54V79.08l-.36-.36-1.08-.36-.54.18-.54.36-.36.54-.36-.18-.54-.36c1.149-1.926,2.705-1.736,4.32-.54l.42.36.18.72v1.08l-.36.54-.42.36-.36.18-.72.18c4.122,3.813-4.896,7.441-4.5,1.08"/>
   <path class="cls-5"
         d="M49.2321,90.84l1.62-1.08,1.62-1.26-4.68.36.72,1.08.72.9m-2.52,1.8.9-.54.9-.72-1.08-1.26-.9-1.44.72-.72,6.84-.36.36.36.18.36-4.68,3.24.36.54.18.36-.72.72-.36-.54-.36-.36-.72.54-.9.72-.36-.36Z"/>
   <path class="cls-5"
         d="M14.7921,112.74c-2.279,1.452-.214,4.154,1.98,2.7l.54-.54.36-.72v-.72l-.36-.54-.54-.54-.54-.18-.72.18-.72.36m5.58,1.08-.72-.72c.877-1.141.781-1.721-.36-2.52a3.717,3.717,0,0,0-3.24,1.08c2.037-.131,2.764,1.344,2.52,3.24l-.36.54-.9.72-1.08.54-1.08.18-.9-.18-.9-.9-.18-.72c-1.088-2.68,2.384-4.512,4.32-5.4l.9-.18.9.18.72.36.72.72.36.9.18.72-.36.72Z"/>
   <path class="cls-5"
         d="M29.9121,119.64l.18-.36-.18-.54-.18-.42-.18-.36-.36-.36-.36-.18-.72-.18-.54.18-.54.54a1.7283,1.7283,0,1,0,2.88,1.68m-1.62,3.78.18-.54-.18-.54-.36-.36-.54-.36h-.54l-.72.36-.36.54-.18.54.18.54.36.36.54.36h.54l.54-.18.36-.36Zm.36-1.8c1.896,1.376.393,3.972-1.8,3.6l-.54-.18-.9-.36-.54-.72-.18-.9v-.9l.36-.54.36-.36.36-.18.72-.18-.54-.54-.36-.72-.18-.72.18-.78.54-.9.9-.54.9-.36,1.26.18.9.54.72.9.36.96-.18,1.08-.36.72-.54.54Z"/>
   <path class="cls-5"
         d="M45.2721,123.24l.36,1.08-2.58.9-2.7.72v-.36l-.18-.54.36-1.26.36-1.44.18-1.62v-1.8l-.18-1.32-.18-1.26,1.08-.36a14.7645,14.7645,0,0,1-.54,8.52l1.98-.54,2.04-.72"/>
   <path class="cls-5"
         d="M49.9521,110.94l-.36-.18-1.08-.36-.54.18c-.957.685-1.32,1.248-.54,2.52,1.701,2.298,5.123-.073,2.52-2.16m.54,5.58.36-.36.18-.54c1.272.55,1.433.46,2.16-.72l.18-.36-.18-.72-.36-.54-.54-.72-.9-.72.18.54v.72l-.36,1.08-.72.72-.9.18-1.08-.18-1.08-.36-.54-.54-.54-.72-.36-1.44.36-.54.18-.72.9-.72,1.26-.36,1.26.36.9.36.9.54.9.72.72.72.54.72.18.72.18.54v.72l-.54,1.08-.72.54-.72.36h-.9Z"/>
   <path class="cls-6"
         d="M34.795,92.1619l.38.6326.5145.8574.8575-.5144.668-.4009.1927.7065.2631.9648.9648-.2631.7169-.1955v1.9375l1.083-.09.7476-.0623-.1773.67-.2559.9667.9667.2559.8193.2169-.3658.6858-.4539.8511.8341.4843.7119.4133-.5422.52-.7515.7214.7515.7214.5422.52-.7119.4133-.9623.5588.6581.8973.4336.5913-.7636.1857-1.0748.2615.3682,1.043.25.7072H39.6253l.09,1.083.064.7681-.8049-.2013-1.0508-.2627-.1781,1.0685-.1186.7112-.5405-.3243-.8575-.5145-.5145.8575-.421.7017-.5344-.5343-.75-.75-.7046.7926-.5356.6025-.38-.6326-.5145-.8575-.8575.5145-.6681.4008-.1926-.7064-.2632-.9648-.9647.2631-.82.2237-.08-.962-.0836-1.004-1.0034.0912-.6774.0616.1327-.7519.1585-.8985-.88-.24-.7064-.1926.4008-.6681.5145-.8574-.8575-.5146-.7018-.421.5344-.5344.75-.75-.7927-.7046-.6024-.5356.6326-.38.8575-.5145-.5145-.8575-.4008-.6681.7064-.1926.9576-.2612-.254-.9595-.2076-.7841h1.6809V94.3092l.7169.1955.9855.2688.2477-.991.2127-.8507.6427.3857.926.5555.4829-.9658.3165-.6329.6447.5731.7474.6643.6644-.7474.5355-.6024m.1571-1.6819-1.44,1.62-1.62-1.44-.9,1.8-1.8-1.08-.54,2.16-1.98-.54v2.16h-1.98l.54,2.04-1.98.54,1.08,1.8-1.8,1.08,1.62,1.44-1.44,1.44,1.8,1.08-1.08,1.8,1.98.54-.36,2.04,1.98-.18.18,2.16,1.98-.54.54,1.98,1.8-1.08,1.08,1.8,1.44-1.62,1.44,1.44,1.08-1.8,1.8,1.08.36-2.16,2.16.54-.18-2.16h2.16l-.72-2.04,2.22-.54-1.32-1.8,1.86-1.08-1.5-1.44,1.5-1.44L43.0521,99l.96-1.8-2.04-.54.54-2.04-2.16.18V92.64l-1.98.54-.54-1.98-1.8,1.08-1.08-1.8Z"/>
   <path class="cls-4"
         d="M24.1521,94.62c-8.483,13.103,9.381,26.532,19.26,14.16C52.2611,95.306,34.5151,82.342,24.1521,94.62Z"/>
   <path class="cls-6"
         d="M32.4923,92.078a3.9441,3.9441,0,0,1,.7056.0629l-2.0328,2.1524-.0417.0442-.0361.0488-1.2083,1.638-.5962.8082.8108.5927,1.6843,1.2314.4171.3049.49-.1637a3.6958,3.6958,0,0,1,1.1715-.197,3.3284,3.3284,0,0,1,2.458,1.0794,3.1487,3.1487,0,0,1,.87,2.3474l-.04.5522.4469.3268,4.0669,2.9731-1.347,1.86-4.0238-2.9417-.4358-.3186-.5055.19-.9355.3508H33.1843l-1.22-.5422-.8057-.94-.4267-1.28v-1.5208l-.41-.3-1.5632-1.1429-.824-.6024-.5854.8362-1.4968,2.1383-.032.0457-.0267.0489-1.4366,2.6338c-.9684-1.851-.2732-4.1974.1318-5.248,1.5028-3.898,5.0929-7.0691,8.0029-7.0689m0-1c-6.093-.0005-12.8078,10.75-7.98,15.122l2.16-3.96,1.4968-2.1383,1.5632,1.1428V102.42l.54,1.62,1.08,1.26,1.62.72h1.62l1.1053-.4145,4.8347,3.5345,2.52-3.48-4.87-3.5606a4.3216,4.3216,0,0,0-4.3251-4.4985,4.6852,4.6852,0,0,0-1.4884.2485L30.6838,96.618l1.2083-1.638,3.06-3.24a4.8359,4.8359,0,0,0-2.46-.662Z"/>
   <g class="cls-7">
      <rect class="cls-3"
            x="2.1921"
            y="1.62"
            width="63.9"
            height="64.2"/>
   </g>
   <path class="cls-4"
         d="M61.9521,33.6a27.72,27.72,0,1,0-27.72,27.84A27.7448,27.7448,0,0,0,61.9521,33.6Z"/>
   <path class="cls-5"
         d="M12.9921,35.28c3.96.303,5.185-2.853,1.08-3.42-1.424.018-3.341-.232-4.32,1.08-.842,2.104,1.812,2.39,3.24,2.34m0,1.08c-2.234-.395-3.977-.06-4.32-2.88-.24-1.856,1.827-2.37,3.24-2.7,2.129.124,5.299-.171,5.58,2.7l-.18,1.26-.18.36-1.08.72-.9.36-.9.18Z"/>
   <path class="cls-5"
         d="M52.8321,30.96l.18.54v.54c-3.27.662-1.561,4.108,1.26,3.24l.72-.36.36-.54.18-.72-.18-.54c-.601-1.545-1.042-.568-.54-1.98l2.16.36,2.34.36V36h-1.08V32.76l-1.08-.18-1.26-.36.36.9.18.72-.18,1.08-.72.72-.9.72-1.08.18-1.08-.18-1.08-.54-.72-.9-.36-1.26.18-1.08.54-.9.9-.54.9-.18"/>
   <polyline class="cls-5"
             points="21.812 22.98 21.092 23.7 18.392 21.72 15.512 19.56 15.692 20.28 15.692 20.82 15.512 21.54 15.512 22.08 14.972 21.72 14.612 21.36 14.612 19.56 14.252 18.12 14.432 17.94 14.612 17.58 21.812 22.98"/>
   <path class="cls-5"
         d="M31.1721,16.08l.18.6.18.54-2.7.9-2.52.72-.18-.36v-.36l.18-.54.18-.72c.91-3.099,1.56-1.918,2.16-4.92a1.6067,1.6067,0,1,0-3.06.54l-.54.18h-.54l-.18-1.08.36-.9.72-.72.9-.54,1.08-.18.9.36.72.54.54.9.18.54c.001,2.126-1.724,3.867-2.52,5.82l1.98-.54,1.98-.78"/>
   <path class="cls-5"
         d="M38.1921,15l.54.18.36.18v.72l.18.78.36.36.54.18.72.18.72-.18.54-.54.36-.6v-.72l-.18-.54-.36-.54-.54-.36h-.36l-.36-.18.36-.72h.18l.54.18.72-.18.36-.36.36-.54.18-.54-.18-.54-.36-.36-1.08-.36-.54.18-.36.36-.36.54-1.08-.54c1.76-2.04,2.881-1.792,4.74-.18l.18.72.18.54-.36,1.08-.42.36-1.08.36.54.54.36.54v.9l-.18.78-.36.9-.9.54-1.08.36h-.54l-.54-.18-.9-.36-.72-.9-.36-.96.18-1.08"/>
   <path class="cls-5"
         d="M49.4121,22.98l1.62-1.08,1.62-1.26-4.68.36.72,1.08.72.9m-2.52,1.8.9-.54.72-.72-.9-1.26-1.08-1.44.72-.72,6.84-.36.36.36.18.36-4.68,3.24.36.54.36.36-.36.36-.54.36-.18-.54-.36-.36-.9.54-.9.72-.18-.36Z"/>
   <path class="cls-5"
         d="M14.7921,44.88c-2.229,1.84-.174,3.997,1.98,2.7l.54-.54.36-.72V45.6l-.72-1.08-.72-.18-.72.18-.72.36m5.58,1.08-.18-.36-.36-.36.36-.54.18-.36V43.8l-.36-.54-.54-.54h-1.44l-.54.18-1.08.72h-.18v.18c4.89.513,2.111,6.311-1.98,5.04-2.658-2.409-.408-5.385,2.16-6.48,1.402-.871,3.445-1.153,4.32.54l.36.36.18.54v.72l-.18.72Z"/>
   <path class="cls-5"
         d="M29.9121,51.78l.18-.36v-.54l-.18-.42-.18-.36-.36-.36-1.08-.36-.72.18-.54.54c-1.769,2.236,2.25,4.502,2.88,1.68m-1.44,3.78a1.4235,1.4235,0,0,0-2.7-.9v.54l.18.54.72.72h.54l.54-.18Zm.36-1.8.36.54.36.36v.54l-.18.72-.36.72-.72.54-.9.18h-.36l-.54-.18-.9-.36-.54-.72-.36-.9c.382-1.827.186-1.649,1.8-2.16l-.54-.54-.36-1.44.18-.78.54-.9.72-.54,1.08-.36,1.08.18,1.08.54.36.36.18.54.36.96C31.0011,52.792,30.5261,53.507,28.8321,53.76Z"/>
   <path class="cls-5"
         d="M45.4521,55.38l.36,1.08-5.46,1.62v-.36l-.18-.54.36-1.26.36-1.44.18-1.62.18-1.8-.18-1.32-.36-1.26,1.08-.36c.526,4.224.968,4.262-.36,8.52l1.98-.54,2.04-.72"/>
   <path class="cls-5"
         d="M50.1321,43.08l-1.62-.54-.36.18c-.767.737-1.717.899-.72,2.52l.72.54.72.36h.72l.54-.18.54-.36.18-.54v-.72l-.18-.72-.54-.54m.54,5.58.36-.36.18-.54.54.18.36.18,1.08-.72.18-.36v-.36l-.18-.72-.18-.54-.54-.72-.9-.72.18.54v.72l-.18.54-.36.54-.72.72-.9.18-1.08-.18-1.08-.36-.54-.54-.72-1.44v-.72l.18-.54.36-.72.72-.72,1.26-.36,1.44.36.72.36.9.54.9.72.72.72.54.72.36.72v1.26l-.54,1.08-.54.54-.9.36h-.72Z"/>
   <path class="cls-6"
         d="M34.2091,23.5819l.5356.6025.7046.7927.75-.75.4589-.4589.28.559.4634.927.91-.4963.7459-.4068.1289.7733.1781,1.0684,1.0508-.2627.7941-.1985-.0525.5778-.0914,1.0057,1.0064.0816.89.0722-.3036.794-.4054,1.06,1.1031.2684.7977.194-.42.6008-.6153.8789.92.5521.7017.421-.5343.5344-.7071.7071.7071.7071.5343.5344-.7017.421-.7941.4765.4142.8282.3.601-.72.127-1.0769.19.2853,1.0557.2291.8475-.8029-.0651-1.0808-.0876v1.935l-.7169-.1955-.9648-.2631-.2631.9648-.1926.7064-.6681-.4008-.8176-.4906-.529.7934-.4033.605-.5775-.5774-.6667-.6668-.7048.6265-.6447.5731-.3165-.6329-.4472-.8945-.8944.4473L31.2759,42l-.2191-.8032-.2631-.9647-.9648.2631-.7168.1955V38.84H27.4312l.2076-.7841.254-.9595-.9576-.2612-.7065-.1926.4009-.6681.5145-.8576-.8575-.5144-.7017-.421.5343-.5344.7071-.7071-.7071-.7071-.495-.495.8067-.44.9147-.499-.536-.8934-.4009-.6681.7065-.1926.88-.24-.1585-.8985L27.684,27.04h1.7881V25.3408l.9175.2293.95.2374.2576-.9444.1926-.7064.6681.4008.8575.5145.5145-.8575.38-.6326M34.0521,21.9l-1.08,1.8-1.8-1.08-.54,1.98-2.16-.54v1.98h-1.98l.36,2.04-1.98.54,1.08,1.8-1.98,1.08,1.44,1.44-1.44,1.44,1.8,1.08-1.08,1.8,1.98.54-.54,2.04h1.98V42l1.98-.54.54,1.98,1.8-.9.9,1.8,1.62-1.44,1.44,1.44,1.08-1.62,1.8,1.08.54-1.98,1.98.54V40.2l2.22.18-.6-2.22,2.04-.36-.9-1.8,1.8-1.08-1.44-1.44,1.44-1.44-1.8-1.08,1.26-1.8-2.22-.54.78-2.04-2.22-.18.18-1.98-2.16.54-.36-2.16-1.98,1.08-.9-1.8-1.44,1.44-1.44-1.62Z"/>
   <path class="cls-4"
         d="M25.5921,40.02a11.8606,11.8606,0,0,0,16.56,2.7c5.354-3.661,6.439-11.736,2.58-16.86C34.7291,13.521,16.8181,26.985,25.5921,40.02Z"/>
   <path class="cls-6"
         d="M41.58,26.7135l1.3878,1.8719L38.87,31.57l-.4832.352.0812.5922a3.304,3.304,0,0,1-.7842,2.6208,3.02,3.02,0,0,1-2.2613,1.0639,3.1738,3.1738,0,0,1-1.4607-.3726l-.5482-.2824-.4985.3631-1.738,1.2658-.839.611.6419.8157,1.746,2.219.0279.0354.031.0328,2.0293,2.1486a3.9365,3.9365,0,0,1-.68.0583c-2.983,0-6.6571-3.2255-8.19-7.19-.399-1.0318-1.0851-3.3439-.1145-5.1652l1.6239,2.7469.991,1.5247.5758.8858.8529-.6235,1.7435-1.2747.4807-.3513-.08-.59a2.7621,2.7621,0,0,1,1.9416-3.0016l.5089-.2544H35.69l.6564.2187.49.1632.4167-.3046L41.58,26.7135m.2117-1.3935-5.13,3.75-.81-.27h-1.62l-.72.36a3.7033,3.7033,0,0,0-2.4853,4.03l-1.7436,1.2747L28.2921,32.94l-2.34-3.96c-4.837,4.3983,2.0864,15.1135,8.1824,15.1135a4.7816,4.7816,0,0,0,2.4376-.6535l-3.06-3.24L31.766,37.981l1.738-1.2658a4.091,4.091,0,0,0,5.9549-4.3369L44.3721,28.8l-2.58-3.48Z"/>
   <text class="cls-8" transform="translate(67.4122 135.72)"/>
</svg>
