<?xml version="1.0" encoding="UTF-8"?>
<!-- Generator: PTC Arbortext IsoDraw 7.4 M001 -->
<svg xmlns="http://www.w3.org/2000/svg" xmlns:xlink="http://www.w3.org/1999/xlink" width="120mm" height="86.75mm" viewBox="0 0 120 86.75" fill-rule="evenodd" clip-rule="evenodd" stroke="#000000" stroke-linecap="round" fill="none" xml:space="preserve" preserveAspectRatio="xMidYMid meet" zoomAndPan="magnify" version="1.1" contentScriptType="text/ecmascript" contentStyleType="text/css">
 <g id="Standard_x0020_layer">
  <polygon stroke-width="0.353" points="8.288 81.766 112.929 81.766 112.929 11.499 8.288 11.499 8.288 81.766"/>
  <g>
   <path stroke-width="0.353" d="M24.847 67.942C24.847 67.128 24.187 66.468 23.373 66.468C22.559 66.468 21.899 67.128 21.899 67.942C21.899 68.757 22.559 69.417 23.373 69.417C24.187 69.417 24.847 68.757 24.847 67.942"/>
  </g>
  <g>
   <path stroke-width="0.353" d="M24.847 25.748C24.847 24.932 24.187 24.272 23.373 24.272C22.559 24.272 21.899 24.932 21.899 25.748C21.899 26.562 22.559 27.222 23.373 27.222C24.187 27.222 24.847 26.562 24.847 25.748"/>
  </g>
  <g>
   <path stroke-width="0.353" d="M99.543 67.942C99.543 67.128 98.884 66.468 98.069 66.468C97.254 66.468 96.594 67.128 96.594 67.942C96.594 68.757 97.254 69.417 98.069 69.417C98.884 69.417 99.543 68.757 99.543 67.942"/>
  </g>
  <g>
   <path stroke-width="0.353" d="M99.543 25.748C99.543 24.932 98.884 24.272 98.069 24.272C97.254 24.272 96.594 24.932 96.594 25.748C96.594 26.562 97.254 27.222 98.069 27.222C98.884 27.222 99.543 26.562 99.543 25.748"/>
  </g>
 </g>
 <g id="120mm_x0020_hidden_x0020_Schneider_x0020_layer_x0020_for_x0020_editor">
  <polygon stroke="none" points="0 77.01 0 86.01 120 86.01 120 77.01 0 77.01"/>
 </g>
 <g id="cutout_x0020_layer">
 </g>
 <g id="outline_x0020_layer">
 </g>
 <g id="zoom_x0020_layer">
 </g>
 <g id="arrow_x0020_layer">
  <polygon stroke="none" fill="#000000" points="98.408 67.942 102.408 68.647 102.408 67.236"/>
  <polygon stroke="none" fill="#000000" points="112.629 67.942 108.629 67.236 108.629 68.647"/>
  <line stroke-width="0.2" x1="102.007" y1="67.942" x2="109.03" y2="67.942"/>
  <polygon stroke="none" fill="#000000" points="98.408 81.766 99.112 77.766 97.701 77.766"/>
  <polygon stroke="none" fill="#000000" points="98.408 67.942 97.701 71.942 99.112 71.942"/>
  <line stroke-width="0.2" x1="98.408" y1="78.167" x2="98.408" y2="71.543"/>
  <polygon stroke="none" fill="#000000" points="23.202 67.942 27.202 68.647 27.202 67.236"/>
  <polygon stroke="none" fill="#000000" points="98.408 67.942 94.408 67.236 94.408 68.647"/>
  <line stroke-width="0.2" x1="26.803" y1="67.942" x2="94.808" y2="67.942"/>
  <polygon stroke="none" fill="#000000" points="23.373 67.942 24.079 63.942 22.667 63.942"/>
  <polygon stroke="none" fill="#000000" points="23.373 25.361 22.667 29.361 24.079 29.361"/>
  <line stroke-width="0.2" x1="23.373" y1="64.343" x2="23.373" y2="28.961"/>
  <polygon stroke="none" fill="#000000" points="8.689 67.942 12.689 68.647 12.689 67.236"/>
  <polygon stroke="none" fill="#000000" points="23.373 67.942 19.373 67.236 19.373 68.647"/>
  <line stroke-width="0.2" x1="12.289" y1="67.942" x2="19.772" y2="67.942"/>
  <polygon stroke="none" fill="#000000" points="23.373 81.766 24.079 77.766 22.667 77.766"/>
  <polygon stroke="none" fill="#000000" points="23.373 67.942 22.667 71.942 24.079 71.942"/>
  <line stroke-width="0.2" x1="23.373" y1="78.167" x2="23.373" y2="71.543"/>
  <polygon stroke="none" fill="#000000" points="98.325 25.774 102.325 26.48 102.325 25.068"/>
  <polygon stroke="none" fill="#000000" points="112.783 25.774 108.783 25.068 108.783 26.48"/>
  <line stroke-width="0.2" x1="101.924" y1="25.774" x2="109.183" y2="25.774"/>
  <polygon stroke="none" fill="#000000" points="98.325 25.774 99.03 21.774 97.62 21.774"/>
  <polygon stroke="none" fill="#000000" points="98.325 11.666 97.62 15.666 99.03 15.666"/>
  <line stroke-width="0.2" x1="98.325" y1="22.173" x2="98.325" y2="15.266"/>
  <polygon stroke="none" fill="#000000" points="8.689 25.361 12.689 26.067 12.689 24.655"/>
  <polygon stroke="none" fill="#000000" points="23.373 25.361 19.373 24.655 19.373 26.067"/>
  <line stroke-width="0.2" x1="12.289" y1="25.361" x2="19.772" y2="25.361"/>
  <polygon stroke="none" fill="#000000" points="23.373 25.361 24.079 21.361 22.667 21.361"/>
  <polygon stroke="none" fill="#000000" points="23.373 11.538 22.667 15.538 24.079 15.538"/>
  <line stroke-width="0.2" x1="23.373" y1="21.762" x2="23.373" y2="15.137"/>
  <polygon stroke="none" fill="#000000" points="23.202 25.943 27.202 26.647 27.202 25.236"/>
  <polygon stroke="none" fill="#000000" points="98.408 25.943 94.408 25.236 94.408 26.647"/>
  <line stroke-width="0.2" x1="26.803" y1="25.943" x2="94.808" y2="25.943"/>
  <polygon stroke="none" fill="#000000" points="98.408 67.942 99.112 63.942 97.701 63.942"/>
  <polygon stroke="none" fill="#000000" points="98.408 25.361 97.701 29.361 99.112 29.361"/>
  <line stroke-width="0.2" x1="98.408" y1="64.343" x2="98.408" y2="28.961"/>
  <polygon stroke="none" fill="#000000" points="2.605 81.462 3.31 77.462 1.899 77.462"/>
  <polygon stroke="none" fill="#000000" points="2.605 11.499 1.899 15.499 3.31 15.499"/>
  <line stroke-width="0.2" x1="2.605" y1="77.862" x2="2.605" y2="15.099"/>
  <polygon stroke="none" fill="#000000" points="7.376 4.503 11.375 5.208 11.375 3.798"/>
  <polygon stroke="none" fill="#000000" points="113.233 4.503 109.233 3.798 109.233 5.208"/>
  <line stroke-width="0.2" x1="10.975" y1="4.503" x2="109.632" y2="4.503"/>
 </g>
 <g id="_x0020_cable_x0020_layer">
 </g>
 <g id="symbol_x0020_layer">
 </g>
 <g id="_x0020_text_x0020_layer">
  <text x="55.084" y="3.174" stroke="none" fill="#000000" font-family="'Arial'" font-size="4.232">Rear</text>
  <text x="54.731" y="85.337" stroke="none" fill="#000000" font-family="'Arial'" font-size="4.232">Front</text>
  <text x="47.905" y="46.838" stroke="none" fill="#000000" font-family="'Arial'" font-size="4.232">UPS cabinet</text>
 </g>
 <g id="text-_x0020_DO_x0020_NOT_x0020_translate">
  <text x="48.637" y="8.037" stroke="none" fill="#000000" font-family="'Arial'" font-size="3.095">1200 mm (47.2 in) </text>
  <text x="49.067" y="66.935" stroke="none" fill="#000000" font-family="'Arial'" font-size="3.095">1135 mm (44.7 in)</text>
  <text x="49.067" y="24.934" stroke="none" fill="#000000" font-family="'Arial'" font-size="3.095">1135 mm (44.7 in)</text>
  <g>
   <text transform="matrix(0 -1 1 0 26.974 23.893)" stroke="none" fill="#000000" font-family="'Arial'" font-size="3.095">31 mm</text>
   <text transform="matrix(0 -1 1 0 30.501 23.893)" stroke="none" fill="#000000" font-family="'Arial'" font-size="3.095">(1.22 in)</text>
  </g>
  <g>
   <text x="100.367" y="29.582" stroke="none" fill="#000000" font-family="'Arial'" font-size="3.095">32.5 mm</text>
   <text x="100.367" y="33.11" stroke="none" fill="#000000" font-family="'Arial'" font-size="3.095">(1.28 in)</text>
  </g>
  <g>
   <text transform="matrix(0 -1 1 0 92.632 24.217)" stroke="none" fill="#000000" font-family="'Arial'" font-size="3.095">31 mm</text>
   <text transform="matrix(0 -1 1 0 96.159 24.217)" stroke="none" fill="#000000" font-family="'Arial'" font-size="3.095">(1.22 in)</text>
  </g>
  <g>
   <text x="100.367" y="62.371" stroke="none" fill="#000000" font-family="'Arial'" font-size="3.095">32.5 mm</text>
   <text x="100.367" y="65.9" stroke="none" fill="#000000" font-family="'Arial'" font-size="3.095">(1.28 in)</text>
  </g>
  <g>
   <text transform="matrix(0 -1 1 0 92.632 80.959)" stroke="none" fill="#000000" font-family="'Arial'" font-size="3.095">31 mm</text>
   <text transform="matrix(0 -1 1 0 96.159 80.959)" stroke="none" fill="#000000" font-family="'Arial'" font-size="3.095">(1.22 in)</text>
  </g>
  <g>
   <text x="9.842" y="62.649" stroke="none" fill="#000000" font-family="'Arial'" font-size="3.095">32.5 mm</text>
   <text x="9.842" y="66.177" stroke="none" fill="#000000" font-family="'Arial'" font-size="3.095">(1.28 in)</text>
  </g>
  <g>
   <text transform="matrix(0 -1 1 0 26.974 80.793)" stroke="none" fill="#000000" font-family="'Arial'" font-size="3.095">31 mm</text>
   <text transform="matrix(0 -1 1 0 30.501 80.793)" stroke="none" fill="#000000" font-family="'Arial'" font-size="3.095">(1.22 in)</text>
  </g>
  <g>
   <text x="9.842" y="19.326" stroke="none" fill="#000000" font-family="'Arial'" font-size="3.095">32.5 mm</text>
   <text x="9.842" y="22.853" stroke="none" fill="#000000" font-family="'Arial'" font-size="3.095">(1.28 in)</text>
  </g>
  <text transform="matrix(0 -1 1 0 22.268 54.496)" stroke="none" fill="#000000" font-family="'Arial'" font-size="3.095">738 mm (29.1 in)</text>
  <text transform="matrix(0 -1 1 0 5.799 55.356)" stroke="none" fill="#000000" font-family="'Arial'" font-size="3.095">800 mm (31.5 in) </text>
  <text transform="matrix(0 -1 1 0 97.429 54.496)" stroke="none" fill="#000000" font-family="'Arial'" font-size="3.095">738 mm (29.1 in)</text>
  <line stroke="none" x1="46.771" y1="2.525" x2="59.545" y2="2.525"/>
 </g>
 <g id="_x0020_callout_x0020_layer">
 </g>
 <g id="Layer_x0020_13">
 </g>
</svg>
