<?xml version="1.0" encoding="UTF-8"?>
<!-- Generator: PTC Arbortext IsoDraw 7.4 M001 -->
<svg xmlns="http://www.w3.org/2000/svg" xmlns:xlink="http://www.w3.org/1999/xlink" width="120.084mm" height="83.198mm" viewBox="0 0 120.084 83.198" fill-rule="evenodd" clip-rule="evenodd" stroke="#000000" stroke-linecap="round" fill="none" xml:space="preserve" preserveAspectRatio="xMidYMid meet" zoomAndPan="magnify" version="1.1" contentScriptType="text/ecmascript" contentStyleType="text/css">
 <g id="Standard_x0020_layer">
  <path stroke="none" fill="#FFFFFF" d="M18.894 33.036L30.484 33.036 30.484 25.917 18.894 25.917 18.894 33.036z"/>
  <path stroke="none" fill="#FFFFFF" d="M18.539 72.585L31.155 72.585 31.155 65.466 18.539 65.466 18.539 72.585z"/>
  <path stroke="none" fill="#FFFFFF" d="M18.539 51.031L30.484 51.031 30.484 43.912 18.539 43.912 18.539 51.031z"/>
  <path stroke="none" fill="#FFFFFF" d="M18.539 9.426L32.104 9.426 32.104 2.266 18.539 2.266 18.539 9.426z"/>
  <line stroke-width="0.456" stroke-linejoin="round" stroke-miterlimit="10" x1="103.492" y1="11.166" x2="103.492" y2="53.009"/>
  <line stroke-width="0.456" stroke-linejoin="round" stroke-miterlimit="10" x1="103.492" y1="11.166" x2="119.628" y2="11.166"/>
  <line stroke-width="0.456" stroke-linejoin="round" stroke-miterlimit="10" x1="11.182" y1="11.166" x2="11.182" y2="53.009"/>
  <line stroke-width="0.456" stroke-linejoin="round" stroke-miterlimit="10" x1="11.182" y1="11.166" x2="0.228" y2="11.166"/>
  <path stroke="none" fill="#FFFFFF" d="M71.14 81.563L90.48 81.563 90.48 63.805 71.14 63.805 71.14 81.563z"/>
  <polygon stroke-width="0.105" stroke-linejoin="round" stroke-miterlimit="10" points="71.14 81.563 90.48 81.563 90.48 63.805 71.14 63.805 71.14 81.563"/>
  <line stroke-width="0.105" stroke-linejoin="round" stroke-miterlimit="10" x1="90.48" y1="63.805" x2="71.14" y2="81.563"/>
  <path stroke-width="0.105" stroke-linejoin="round" stroke-miterlimit="10" d="M80.829 77.766C81.897 76.066 83.597 76.066 84.665 77.766"/>
  <path stroke-width="0.105" stroke-linejoin="round" stroke-miterlimit="10" d="M84.665 77.766C85.774 79.429 87.474 79.429 88.542 77.766"/>
  <line stroke-width="0.105" stroke-linejoin="round" stroke-miterlimit="10" x1="72.406" y1="68.631" x2="76.281" y2="68.631"/>
  <line stroke-width="0.105" stroke-linejoin="round" stroke-miterlimit="10" x1="72.406" y1="67.84" x2="76.281" y2="67.84"/>
  <polygon stroke-width="0.105" stroke-linejoin="round" stroke-miterlimit="10" points="34.121 82.513 91.231 82.513 91.231 63.173 34.121 63.173 34.121 82.513"/>
  <path stroke="none" fill="#FFFFFF" d="M37.484 81.801L56.862 81.801 56.862 63.884 37.484 63.884 37.484 81.801z"/>
  <polygon stroke-width="0.105" stroke-linejoin="round" stroke-miterlimit="10" points="37.484 81.801 56.862 81.801 56.862 63.884 37.484 63.884 37.484 81.801"/>
  <line stroke-width="0.105" stroke-linejoin="round" stroke-miterlimit="10" x1="56.862" y1="63.884" x2="37.484" y2="81.801"/>
  <path stroke-width="0.105" stroke-linejoin="round" stroke-miterlimit="10" d="M39.223 66.099C40.292 64.4 42.031 64.4 43.1 66.099"/>
  <path stroke-width="0.105" stroke-linejoin="round" stroke-miterlimit="10" d="M43.1 66.099C44.167 67.76 45.908 67.76 46.975 66.099"/>
  <line stroke-width="0.105" stroke-linejoin="round" stroke-miterlimit="10" x1="39.223" y1="72.743" x2="43.1" y2="72.743"/>
  <line stroke-width="0.105" stroke-linejoin="round" stroke-miterlimit="10" x1="39.223" y1="71.953" x2="43.1" y2="71.953"/>
  <line stroke-width="0.105" stroke-linejoin="round" stroke-miterlimit="10" x1="51.682" y1="78.123" x2="55.557" y2="78.123"/>
  <line stroke-width="0.105" stroke-linejoin="round" stroke-miterlimit="10" x1="51.682" y1="77.331" x2="55.557" y2="77.331"/>
  <path stroke="none" fill="#FFFFFF" d="M71.14 61.274L90.48 61.274 90.48 43.518 71.14 43.518 71.14 61.274z"/>
  <polygon stroke-width="0.105" stroke-linejoin="round" stroke-miterlimit="10" points="71.14 61.274 90.48 61.274 90.48 43.518 71.14 43.518 71.14 61.274"/>
  <line stroke-width="0.105" stroke-linejoin="round" stroke-miterlimit="10" x1="90.48" y1="43.518" x2="71.14" y2="61.274"/>
  <path stroke-width="0.105" stroke-linejoin="round" stroke-miterlimit="10" d="M80.829 57.478C81.897 55.777 83.597 55.777 84.665 57.478"/>
  <path stroke-width="0.105" stroke-linejoin="round" stroke-miterlimit="10" d="M84.665 57.478C85.774 59.14 87.474 59.14 88.542 57.478"/>
  <line stroke-width="0.105" stroke-linejoin="round" stroke-miterlimit="10" x1="72.406" y1="48.341" x2="76.281" y2="48.341"/>
  <line stroke-width="0.105" stroke-linejoin="round" stroke-miterlimit="10" x1="72.406" y1="47.551" x2="76.281" y2="47.551"/>
  <polygon stroke-width="0.105" stroke-linejoin="round" stroke-miterlimit="10" points="34.121 62.145 91.231 62.145 91.231 42.804 34.121 42.804 34.121 62.145"/>
  <path stroke="none" fill="#FFFFFF" d="M37.484 61.472L56.862 61.472 56.862 43.597 37.484 43.597 37.484 61.472z"/>
  <polygon stroke-width="0.105" stroke-linejoin="round" stroke-miterlimit="10" points="37.484 61.472 56.862 61.472 56.862 43.597 37.484 43.597 37.484 61.472"/>
  <line stroke-width="0.105" stroke-linejoin="round" stroke-miterlimit="10" x1="56.862" y1="43.597" x2="37.484" y2="61.472"/>
  <path stroke-width="0.105" stroke-linejoin="round" stroke-miterlimit="10" d="M39.223 45.771C40.292 44.109 42.031 44.109 43.1 45.771"/>
  <path stroke-width="0.105" stroke-linejoin="round" stroke-miterlimit="10" d="M43.1 45.771C44.167 47.472 45.908 47.472 46.975 45.771"/>
  <line stroke-width="0.105" stroke-linejoin="round" stroke-miterlimit="10" x1="39.223" y1="52.456" x2="43.1" y2="52.456"/>
  <line stroke-width="0.105" stroke-linejoin="round" stroke-miterlimit="10" x1="39.223" y1="51.664" x2="43.1" y2="51.664"/>
  <line stroke-width="0.105" stroke-linejoin="round" stroke-miterlimit="10" x1="51.682" y1="57.834" x2="55.557" y2="57.834"/>
  <line stroke-width="0.105" stroke-linejoin="round" stroke-miterlimit="10" x1="51.682" y1="57.042" x2="55.557" y2="57.042"/>
  <line stroke-width="0.456" stroke-linejoin="round" stroke-miterlimit="10" x1="71.14" y1="53.009" x2="56.862" y2="53.009"/>
  <line stroke-width="0.456" stroke-linejoin="round" stroke-miterlimit="10" x1="56.862" y1="73.614" x2="71.14" y2="73.614"/>
  <line stroke-width="0.456" stroke-linejoin="round" stroke-miterlimit="10" x1="63.942" y1="53.009" x2="63.942" y2="73.614"/>
  <polygon stroke-width="0.105" stroke-linejoin="round" stroke-miterlimit="10" points="16.364 83.146 97.677 83.146 97.677 41.936 16.364 41.936 16.364 83.146"/>
  <line stroke-width="0.456" stroke-linejoin="round" stroke-miterlimit="10" x1="37.484" y1="53.009" x2="22.811" y2="53.009"/>
  <line stroke-width="0.456" stroke-linejoin="round" stroke-miterlimit="10" x1="37.484" y1="73.298" x2="32.5" y2="73.298"/>
  <line stroke-width="0.456" stroke-linejoin="round" stroke-miterlimit="10" x1="32.5" y1="73.298" x2="32.5" y2="53.009"/>
  <line stroke-width="0.456" stroke-linejoin="round" stroke-miterlimit="10" x1="90.48" y1="53.009" x2="103.492" y2="53.009"/>
  <line stroke-width="0.456" stroke-linejoin="round" stroke-miterlimit="10" x1="95.424" y1="53.009" x2="95.424" y2="73.614"/>
  <line stroke-width="0.456" stroke-linejoin="round" stroke-miterlimit="10" x1="90.48" y1="73.614" x2="95.424" y2="73.614"/>
  <polyline stroke-width="0.456" stroke-linejoin="round" stroke-miterlimit="10" points="22.811 50.478 18.301 53.009 11.182 53.009"/>
  <path stroke="none" fill="#FFFFFF" d="M71.14 39.68L90.48 39.68 90.48 21.923 71.14 21.923 71.14 39.68z"/>
  <polygon stroke-width="0.105" stroke-linejoin="round" stroke-miterlimit="10" points="71.14 39.68 90.48 39.68 90.48 21.923 71.14 21.923 71.14 39.68"/>
  <line stroke-width="0.105" stroke-linejoin="round" stroke-miterlimit="10" x1="90.48" y1="21.923" x2="71.14" y2="39.68"/>
  <path stroke-width="0.105" stroke-linejoin="round" stroke-miterlimit="10" d="M80.829 35.884C81.897 34.183 83.597 34.183 84.665 35.884"/>
  <path stroke-width="0.105" stroke-linejoin="round" stroke-miterlimit="10" d="M84.665 35.884C85.774 37.585 87.474 37.585 88.542 35.884"/>
  <line stroke-width="0.105" stroke-linejoin="round" stroke-miterlimit="10" x1="72.406" y1="26.788" x2="76.281" y2="26.788"/>
  <line stroke-width="0.105" stroke-linejoin="round" stroke-miterlimit="10" x1="72.406" y1="25.996" x2="76.281" y2="25.996"/>
  <polygon stroke-width="0.105" stroke-linejoin="round" stroke-miterlimit="10" points="34.121 40.67 91.231 40.67 91.231 21.291 34.121 21.291 34.121 40.67"/>
  <path stroke="none" fill="#FFFFFF" d="M37.484 39.918L56.862 39.918 56.862 22.003 37.484 22.003 37.484 39.918z"/>
  <polygon stroke-width="0.105" stroke-linejoin="round" stroke-miterlimit="10" points="37.484 39.918 56.862 39.918 56.862 22.003 37.484 22.003 37.484 39.918"/>
  <line stroke-width="0.105" stroke-linejoin="round" stroke-miterlimit="10" x1="56.862" y1="22.003" x2="37.484" y2="39.918"/>
  <path stroke-width="0.105" stroke-linejoin="round" stroke-miterlimit="10" d="M39.223 24.216C40.292 22.516 42.031 22.516 43.1 24.216"/>
  <path stroke-width="0.105" stroke-linejoin="round" stroke-miterlimit="10" d="M43.1 24.216C44.167 25.917 45.908 25.917 46.975 24.216"/>
  <line stroke-width="0.105" stroke-linejoin="round" stroke-miterlimit="10" x1="39.223" y1="30.861" x2="43.1" y2="30.861"/>
  <line stroke-width="0.105" stroke-linejoin="round" stroke-miterlimit="10" x1="39.223" y1="30.071" x2="43.1" y2="30.071"/>
  <line stroke-width="0.105" stroke-linejoin="round" stroke-miterlimit="10" x1="51.682" y1="36.28" x2="55.557" y2="36.28"/>
  <line stroke-width="0.105" stroke-linejoin="round" stroke-miterlimit="10" x1="51.682" y1="35.488" x2="55.557" y2="35.488"/>
  <path stroke="none" fill="#FFFFFF" d="M71.14 19.391L90.48 19.391 90.48 1.635 71.14 1.635 71.14 19.391z"/>
  <polygon stroke-width="0.105" stroke-linejoin="round" stroke-miterlimit="10" points="71.14 19.391 90.48 19.391 90.48 1.635 71.14 1.635 71.14 19.391"/>
  <line stroke-width="0.105" stroke-linejoin="round" stroke-miterlimit="10" x1="90.48" y1="1.635" x2="71.14" y2="19.391"/>
  <path stroke-width="0.105" stroke-linejoin="round" stroke-miterlimit="10" d="M80.829 15.596C81.897 13.894 83.597 13.894 84.665 15.596"/>
  <path stroke-width="0.105" stroke-linejoin="round" stroke-miterlimit="10" d="M84.665 15.596C85.774 17.295 87.474 17.295 88.542 15.596"/>
  <line stroke-width="0.105" stroke-linejoin="round" stroke-miterlimit="10" x1="72.406" y1="6.498" x2="76.281" y2="6.498"/>
  <line stroke-width="0.105" stroke-linejoin="round" stroke-miterlimit="10" x1="72.406" y1="5.708" x2="76.281" y2="5.708"/>
  <polygon stroke-width="0.105" stroke-linejoin="round" stroke-miterlimit="10" points="34.121 20.301 91.231 20.301 91.231 0.962 34.121 0.962 34.121 20.301"/>
  <path stroke="none" fill="#FFFFFF" d="M37.484 19.629L56.862 19.629 56.862 1.714 37.484 1.714 37.484 19.629z"/>
  <polygon stroke-width="0.105" stroke-linejoin="round" stroke-miterlimit="10" points="37.484 19.629 56.862 19.629 56.862 1.714 37.484 1.714 37.484 19.629"/>
  <line stroke-width="0.105" stroke-linejoin="round" stroke-miterlimit="10" x1="56.862" y1="1.714" x2="37.484" y2="19.629"/>
  <path stroke-width="0.105" stroke-linejoin="round" stroke-miterlimit="10" d="M39.223 3.927C40.292 2.228 42.031 2.228 43.1 3.927"/>
  <path stroke-width="0.105" stroke-linejoin="round" stroke-miterlimit="10" d="M43.1 3.927C44.167 5.628 45.908 5.628 46.975 3.927"/>
  <line stroke-width="0.105" stroke-linejoin="round" stroke-miterlimit="10" x1="39.223" y1="10.573" x2="43.1" y2="10.573"/>
  <line stroke-width="0.105" stroke-linejoin="round" stroke-miterlimit="10" x1="39.223" y1="9.782" x2="43.1" y2="9.782"/>
  <line stroke-width="0.105" stroke-linejoin="round" stroke-miterlimit="10" x1="51.682" y1="15.99" x2="55.557" y2="15.99"/>
  <line stroke-width="0.105" stroke-linejoin="round" stroke-miterlimit="10" x1="51.682" y1="15.199" x2="55.557" y2="15.199"/>
  <line stroke-width="0.456" stroke-linejoin="round" stroke-miterlimit="10" x1="71.14" y1="11.166" x2="56.862" y2="11.166"/>
  <line stroke-width="0.456" stroke-linejoin="round" stroke-miterlimit="10" x1="56.862" y1="31.771" x2="71.14" y2="31.771"/>
  <line stroke-width="0.456" stroke-linejoin="round" stroke-miterlimit="10" x1="63.942" y1="11.166" x2="63.942" y2="31.771"/>
  <polygon stroke-width="0.105" stroke-linejoin="round" stroke-miterlimit="10" points="16.364 41.302 97.677 41.302 97.677 0.053 16.364 0.053 16.364 41.302"/>
  <line stroke-width="0.456" stroke-linejoin="round" stroke-miterlimit="10" x1="37.484" y1="11.166" x2="22.811" y2="11.166"/>
  <line stroke-width="0.456" stroke-linejoin="round" stroke-miterlimit="10" x1="37.484" y1="31.454" x2="32.5" y2="31.454"/>
  <line stroke-width="0.456" stroke-linejoin="round" stroke-miterlimit="10" x1="32.5" y1="31.454" x2="32.5" y2="11.166"/>
  <line stroke-width="0.456" stroke-linejoin="round" stroke-miterlimit="10" x1="90.48" y1="11.166" x2="103.492" y2="11.166"/>
  <line stroke-width="0.456" stroke-linejoin="round" stroke-miterlimit="10" x1="95.424" y1="11.166" x2="95.424" y2="31.771"/>
  <line stroke-width="0.456" stroke-linejoin="round" stroke-miterlimit="10" x1="90.48" y1="31.771" x2="95.424" y2="31.771"/>
  <polyline stroke-width="0.456" stroke-linejoin="round" stroke-miterlimit="10" points="22.811 8.634 18.301 11.166 11.182 11.166"/>
 </g>
 <g id="120mm_x0020_hidden_x0020_Schneider_x0020_layer_x0020_for_x0020_editor">
  <polygon stroke="none" points="0.085 73.894 0.085 82.894 120.084 82.894 120.084 73.894 0.085 73.894"/>
 </g>
 <g id="cutout_x0020_layer">
 </g>
 <g id="outline_x0020_layer">
 </g>
 <g id="zoom_x0020_layer">
 </g>
 <g id="arrow_x0020_layer">
 </g>
 <g id="_x0020_cable_x0020_layer">
 </g>
 <g id="symbol_x0020_layer">
 </g>
 <g id="_x0020_text_x0020_layer">
  <text x="18.134" y="4.53" stroke="none" fill="#000000" font-family="'Arial'" font-size="3.317">12.5 kVA</text>
  <text x="18.134" y="24.818" stroke="none" fill="#000000" font-family="'Arial'" font-size="3.317">25 kVA</text>
  <text x="18.134" y="46.374" stroke="none" fill="#000000" font-family="'Arial'" font-size="3.317">37.5 kVA</text>
  <text x="18.134" y="66.662" stroke="none" fill="#000000" font-family="'Arial'" font-size="3.317">50 kVA</text>
  <text transform="matrix(0 -1 1 0 18.739 82.769)" stroke="none" fill="#000000" font-family="'Arial'" font-size="2.577">Power block</text>
  <text transform="matrix(0 -1 1 0 18.739 40.841)" stroke="none" fill="#000000" font-family="'Arial'" font-size="2.577">Power block</text>
  <g>
   <text x="59.881" y="3.786" stroke="none" fill="#000000" font-family="'Arial'" font-size="2.577">Power </text>
   <text x="59.665" y="6.609" stroke="none" fill="#000000" font-family="'Arial'" font-size="2.577">module</text>
  </g>
  <g>
   <text x="59.881" y="36.356" stroke="none" fill="#000000" font-family="'Arial'" font-size="2.577">Power </text>
   <text x="59.665" y="39.177" stroke="none" fill="#000000" font-family="'Arial'" font-size="2.577">module</text>
  </g>
  <g>
   <text x="59.881" y="45.82" stroke="none" fill="#000000" font-family="'Arial'" font-size="2.577">Power </text>
   <text x="59.665" y="48.642" stroke="none" fill="#000000" font-family="'Arial'" font-size="2.577">module</text>
  </g>
  <g>
   <text x="59.881" y="78.531" stroke="none" fill="#000000" font-family="'Arial'" font-size="2.577">Power </text>
   <text x="59.665" y="81.353" stroke="none" fill="#000000" font-family="'Arial'" font-size="2.577">module</text>
  </g>
 </g>
 <g id="text-_x0020_DO_x0020_NOT_x0020_translate">
 </g>
 <g id="_x0020_callout_x0020_layer">
 </g>
</svg>
