<?xml version="1.0" encoding="UTF-8"?>
<!-- Generator: PTC Arbortext IsoDraw 7.4 M001 -->
<svg xmlns="http://www.w3.org/2000/svg" xmlns:xlink="http://www.w3.org/1999/xlink" width="120.132mm" height="49.6mm" viewBox="0 0 120.132 49.6" fill-rule="evenodd" clip-rule="evenodd" stroke="#000000" stroke-linecap="round" fill="none" xml:space="preserve" preserveAspectRatio="xMidYMid meet" zoomAndPan="magnify" version="1.1" contentScriptType="text/ecmascript" contentStyleType="text/css">
 <g id="Green_x0020_fill_x0020_layer">
  <path stroke="none" fill="#01889C" d="M51.332 12.428L27.969 33.465 58.417 37.203 81.688 16.25 51.32 12.521"/>
 </g>
 <g id="Standard_x0020_layer">
 </g>
 <g id="120mm_x0020_hidden_x0020_Schneider_x0020_layer_x0020_for_x0020_editor">
  <polygon stroke="none" points="0.133 40.271 0.133 49.271 120.132 49.271 120.132 40.271 0.133 40.271"/>
 </g>
 <g id="Cut_x0020_out_x0020_layer">
  <clipPath id="iso2914638" fill="none" stroke="none">
   <path d="M0.176 0.176L0.176 49.423 93.364 49.423 93.364 0.176 0.176 0.176z"/>
  </clipPath>
  <g clip-path="url(#iso2914638)">
   <g id="PM-BLOCK_02_NAM.ASM">
    <desc>PM-BLOCK_02_NAM.ASM</desc>
    <g id="870-17653.ASM_1">
     <desc>870-17653.ASM</desc>
     <g id="870-17653_1.PRT_1">
      <desc>870-17653_1.PRT</desc>
      <path stroke-width="0.106" d="M19.591 37.122L19.591 37.158C19.591 37.158 19.591 43.524 19.591 49.601"/>
     </g>
    </g>
   </g>
   <g id="NSYSFC68.PRT">
    <desc>NSYSFC68.PRT</desc>
    <line stroke-width="0.106" x1="22.507" y1="33.243" x2="22.507" y2="33.116"/>
    <path stroke-width="0.106" d="M22.41 33.529C22.408 33.506 22.405 33.482 22.405 33.46L22.411 33.392L22.414 33.356L22.42 33.322L22.426 33.292L22.434 33.258L22.446 33.223L22.451 33.21L22.463 33.176L22.481 33.151C22.501 33.121 22.507 33.116 22.507 33.116"/>
    <path stroke-width="0.106" d="M25.653 32.634L25.628 32.658L24.986 33.235L24.96 33.259L24.899 33.292L24.867 33.31L24.833 33.317L24.763 33.335L24.728 33.343L24.693 33.345L24.597 33.353L24.561 33.356C24.503 33.353 24.446 33.353 24.388 33.347L24.353 33.343L22.542 33.121L22.507 33.116"/>
    <path stroke-width="0.106" d="M22.457 33.485C22.455 33.463 22.451 33.441 22.452 33.418L22.458 33.35L22.466 33.32L22.475 33.289L22.486 33.27C22.501 33.247 22.507 33.243 22.507 33.243"/>
    <path stroke-width="0.106" d="M22.507 33.243L22.542 33.246L24.353 33.469C24.41 33.476 24.468 33.478 24.525 33.481L24.561 33.482L24.597 33.479L24.693 33.472L24.728 33.469L24.763 33.46L24.833 33.444L24.867 33.435L24.899 33.418L24.96 33.386L24.986 33.362L25.628 32.784L25.653 32.761"/>
    <path stroke-width="0.106" d="M-19.966 27.902C-19.966 27.902 -19.974 27.907 -19.993 27.936L-20.012 27.96L-20.024 27.995L-20.03 28.009L-20.042 28.042L-20.048 28.077L-20.054 28.106L-20.062 28.14L-20.064 28.176L-20.068 28.245C-20.07 28.271 -20.067 28.297 -20.065 28.321"/>
    <path stroke-width="0.106" d="M-20.033 28.019L-20.068 28.015L-21.812 27.8C-21.861 27.795 -21.911 27.783 -21.96 27.772L-21.995 27.765L-22.028 27.751L-22.065 27.734L-22.097 27.719L-22.138 27.664L-22.138 27.628L-22.138 27.574L-22.138 27.538L-22.111 27.481L-22.083 27.457L-21.443 26.879L-21.416 26.856"/>
    <path stroke-width="0.106" d="M0.44 7.176L0.415 7.173L0.379 7.176L0.354 7.177L0.318 7.181L0.287 7.198L0.269 7.208L0.238 7.224L0.211 7.248L-21.591 26.881L-21.617 26.905L-21.638 26.932L-21.652 26.949L-21.672 26.978L-21.684 27.038"/>
    <path stroke-width="0.106" d="M3.585 6.694L3.549 6.689L1.741 6.468L1.706 6.464C1.648 6.458 1.589 6.458 1.532 6.453L1.496 6.456L1.401 6.464L1.365 6.468L1.33 6.476L1.26 6.493L1.225 6.501L1.193 6.517L1.133 6.551L1.106 6.575L0.466 7.152L0.44 7.176"/>
    <path stroke-width="0.106" d="M3.585 6.694C3.585 6.694 3.591 6.687 3.613 6.679L3.631 6.674L3.665 6.677L47.963 12.157C48.006 12.163 46.097 11.881 46.121 11.903L46.136 11.916L46.137 11.919"/>
    <path stroke-width="0.106" d="M-19.966 27.902L-20.003 27.896L-21.812 27.675C-21.859 27.669 -21.835 27.673 -21.882 27.664L-21.96 27.647L-21.995 27.64L-22.028 27.625L-22.065 27.609L-22.097 27.594L-22.138 27.538"/>
    <path stroke-width="0.106" d="M-21.617 26.905L-21.586 26.887L-21.568 26.876L-21.538 26.859L-21.501 26.856L-21.477 26.855L-21.44 26.852L-21.416 26.856"/>
   </g>
   <g id="NSYSFC68_UPPER.ASM">
    <desc>NSYSFC68_UPPER.ASM</desc>
    <g id="NSYSFC68_CORNER.PRT_7">
     <desc>NSYSFC68_CORNER.PRT</desc>
     <line stroke-width="0.106" x1="-19.917" y1="31.661" x2="-19.998" y2="31.65"/>
     <path stroke-width="0.106" d="M-20.047 31.193L-20.047 31.158L-20.047 29.78L-20.047 29.743L-20.047 29.742"/>
     <path stroke-width="0.106" d="M-20.042 29.751L-20.047 29.743z"/>
    </g>
    <g id="NSYSFC68__PROFILE_W_600.PRT_3">
     <desc>NSYSFC68__PROFILE_W_600.PRT</desc>
     <line stroke-width="0.106" x1="22.588" y1="36.213" x2="22.422" y2="36.192"/>
     <line stroke-width="0.106" x1="22.588" y1="36.213" x2="22.635" y2="36.171"/>
     <line stroke-width="0.106" x1="-19.838" y1="31.004" x2="-20.006" y2="30.983"/>
     <line stroke-width="0.106" x1="22.082" y1="34.737" x2="22.123" y2="34.741"/>
     <line stroke-width="0.106" x1="22.048" y1="34.377" x2="22.123" y2="34.386"/>
     <line stroke-width="0.106" x1="21.995" y1="36.948" x2="21.992" y2="36.948"/>
     <line stroke-width="0.106" x1="22.454" y1="34.801" x2="-20.14" y2="29.571"/>
     <path stroke-width="0.106" d="M22.75 34.85L22.722 34.875L22.693 34.901L22.667 34.924L22.647 34.935L22.62 34.932"/>
     <path stroke-width="0.106" d="M22.468 36.198L22.468 36.234L22.468 36.618C22.468 36.648 22.466 36.676 22.464 36.704L22.461 36.74L22.451 36.795"/>
     <path stroke-width="0.106" d="M22.556 34.81L22.574 34.841L22.596 34.881C22.609 34.908 22.615 34.914 22.625 34.945L22.629 34.966C22.635 35.003 22.635 35.039 22.635 35.076L22.635 36.136L22.635 36.171"/>
     <path stroke-width="0.106" d="M21.989 37.223L22.044 37.229C22.074 37.226 22.077 37.216 22.1 37.197L22.143 37.158L22.17 37.134"/>
     <path stroke-width="0.106" d="M21.992 36.948L21.989 36.994L21.989 37.218L21.992 37.273L21.998 37.283"/>
     <path stroke-width="0.106" d="M22.024 36.823C21.992 36.811 22.01 36.817 21.969 36.811L-20.222 31.632L-20.257 31.626"/>
     <path stroke-width="0.106" d="M-19.838 31.004L-19.838 31.039L-19.838 31.471C-19.838 31.515 -19.838 31.561 -19.858 31.602C-19.867 31.62 -19.896 31.643 -19.896 31.643L-19.897 31.643L-19.923 31.667"/>
     <path stroke-width="0.106" d="M-20.14 29.57L-20.14 29.571L-20.123 29.602L-20.032 29.769C-20.019 29.792 -20.01 29.806 -20.007 29.83L-20.006 29.888L-20.006 30.948L-20.006 30.983"/>
     <path stroke-width="0.106" d="M22.17 37.259L22.143 37.283L22.032 37.384C21.998 37.412 22.016 37.404 21.981 37.415L21.946 37.411L-20.243 32.231L-20.278 32.226C-20.3 32.219 -20.3 32.204 -20.306 32.188L-20.312 32.167L-20.315 32.137C-20.318 32.094 -20.317 32.116 -20.317 32.07L-20.317 31.847C-20.317 31.801 -20.318 31.824 -20.315 31.78L-20.312 31.748L-20.304 31.719C-20.297 31.681 -20.303 31.699 -20.289 31.667L-20.278 31.646L-20.257 31.626"/>
     <path stroke-width="0.106" d="M22.024 36.823L22.036 36.857L22.039 36.884C22.044 36.923 22.042 36.963 22.042 37.002C22.042 37.02 22.042 37.048 22.045 37.067L22.051 37.088L22.06 37.097"/>
     <path stroke-width="0.106" d="M22.359 33.575C22.35 33.552 22.352 33.539 22.326 33.527L22.289 33.521L-20.234 28.3L-20.268 28.297C-20.309 28.31 -20.291 28.3 -20.326 28.33L-20.489 28.478L-20.515 28.501L-20.545 28.545L-20.556 28.579L-20.57 28.611L-20.576 28.646L-20.579 28.66L-20.585 28.695L-20.588 28.73C-20.591 28.759 -20.591 28.788 -20.591 28.817L-20.591 29.332C-20.591 29.359 -20.591 29.382 -20.588 29.408L-20.585 29.445L-20.577 29.471C-20.571 29.493 -20.571 29.509 -20.545 29.519L-20.51 29.524L22.015 34.746L22.05 34.75C22.077 34.747 22.083 34.735 22.102 34.719L22.123 34.7"/>
     <path stroke-width="0.106" d="M22.068 34.618L22.057 34.609L22.051 34.588C22.047 34.569 22.048 34.539 22.048 34.521L22.048 34.005C22.048 33.96 22.047 33.914 22.068 33.875L22.102 33.838L22.123 33.817"/>
     <path stroke-width="0.106" d="M22.05 34.75L22.024 34.726L22.016 34.701L22.009 34.674L22.006 34.639C22.004 34.612 22.003 34.59 22.003 34.564L22.003 34.046C22.003 34.018 22.004 33.988 22.006 33.96L22.009 33.924L22.015 33.89L22.018 33.877L22.024 33.841L22.038 33.808L22.05 33.774L22.079 33.731L22.106 33.707L22.269 33.561C22.303 33.53 22.285 33.54 22.326 33.527"/>
     <path stroke-width="0.106" d="M22.123 34.573L22.079 34.613L22.068 34.618"/>
     <path stroke-width="0.106" d="M22.647 34.935L22.629 34.93L22.596 34.881L22.574 34.841L22.556 34.81"/>
     <path stroke-width="0.106" d="M22.403 36.789C22.413 36.762 22.416 36.759 22.42 36.731C22.422 36.707 22.422 36.683 22.422 36.659L22.422 36.228L22.422 36.192"/>
     <path stroke-width="0.106" d="M21.998 37.283C22.016 37.28 22.004 37.283 22.032 37.258L22.047 37.244L22.073 37.22"/>
     <path stroke-width="0.106" d="M22.06 37.097C22.085 37.09 22.07 37.097 22.1 37.07L22.143 37.03L22.17 37.006"/>
     <path stroke-width="0.106" d="M21.995 36.948L21.995 36.954L21.995 36.99L21.995 37.043L21.995 37.079L21.998 37.115L21.998 37.119C22.003 37.164 21.998 37.143 22.01 37.18L22.018 37.207L22.044 37.229"/>
     <path stroke-width="0.106" d="M21.981 37.415L21.961 37.398L21.954 37.377L21.949 37.356L21.946 37.326C21.943 37.283 21.943 37.304 21.943 37.259L21.943 37.036C21.943 36.99 21.943 37.012 21.946 36.969L21.949 36.936L21.955 36.908C21.964 36.871 21.958 36.887 21.972 36.856L21.981 36.835L22.004 36.816"/>
     <path stroke-width="0.106" d="M22.588 36.213L22.588 36.177L22.588 35.118L22.588 35.06C22.585 35.036 22.574 35.021 22.562 35L22.471 34.832L22.454 34.801L22.454 34.798"/>
    </g>
    <g id="NSYSFC68__PROFILE_W_600.PRT_2">
     <desc>NSYSFC68__PROFILE_W_600.PRT</desc>
     <path stroke-width="0.106" d="M46.671 11.683C46.664 11.66 46.664 11.647 46.639 11.634L46.603 11.631L4.078 6.408L4.043 6.405L4.014 6.416L3.987 6.439L3.823 6.586L3.798 6.61L3.767 6.653L3.754 6.689"/>
    </g>
    <g id="NSYSFC68_CORNER.PRT_6">
     <desc>NSYSFC68_CORNER.PRT</desc>
     <path stroke-width="0.106" d="M22.75 34.96L22.734 34.975L22.718 34.99L22.716 34.99L22.675 35L22.632 34.994"/>
    </g>
    <g id="NSYSFC68_PROFILE_D_800.PRT_3">
     <desc>NSYSFC68_PROFILE_D_800.PRT</desc>
     <path stroke-width="0.106" d="M-22.082 26.989C-22.103 26.972 -22.089 26.981 -22.129 26.968L-22.14 26.963L-22.175 26.952L-22.21 26.949L-22.725 26.885L-22.76 26.881L-22.795 26.884L-22.804 26.885L-22.841 26.888L-22.853 26.893"/>
     <path stroke-width="0.106" d="M-22.871 26.891L-22.846 26.867L-1.034 7.229L-1.008 7.205L-0.976 7.187L-0.972 7.185L-0.94 7.168L-0.905 7.166L-0.895 7.165L-0.86 7.161L-0.824 7.166L-0.31 7.23L-0.275 7.234L-0.241 7.245L-0.228 7.248L-0.194 7.259L-0.167 7.282L-0.155 7.291L-0.127 7.312L-0.109 7.344L-0.101 7.355L-0.082 7.387L-0.075 7.421L-0.073 7.434L-0.066 7.469L-0.066 7.498"/>
    </g>
   </g>
   <g id="NSYSFV20_Reality.ASM_2">
    <desc>NSYSFV20_Reality.ASM</desc>
    <g id="NSYSFV20_04_Reality.PRT_5">
     <desc>NSYSFV20_04_Reality.PRT</desc>
     <path stroke-width="0.106" d="M0.401 5.889C0.373 5.892 0.346 5.897 0.32 5.903C0.299 5.908 0.29 5.91 0.268 5.921C0.248 5.931 0.219 5.96 0.219 5.96L-0.987 7.046L-1.012 7.07L-1.016 7.073L-1.016 7.11L-1.016 7.176L-1.016 7.213"/>
     <path stroke-width="0.106" d="M0.291 5.926C0.319 5.913 0.347 5.9 0.377 5.894C0.432 5.883 0.487 5.887 0.542 5.894L3.852 6.301L3.889 6.304L3.948 6.32"/>
     <path stroke-width="0.106" d="M0.516 5.891L0.532 5.892L0.567 5.897L3.905 6.307L3.94 6.31L3.952 6.312L3.961 6.317L3.969 6.36L3.969 6.419L3.969 6.455"/>
     <path stroke-width="0.106" d="M0.224 7.237L0.189 7.232L-0.951 7.092L-0.987 7.089L-1.016 7.073"/>
     <path stroke-width="0.106" d="M3.565 6.692L3.592 6.668L3.94 6.354L3.967 6.33L3.969 6.325"/>
    </g>
   </g>
   <g id="NSYSFV20_Reality.ASM">
    <desc>NSYSFV20_Reality.ASM</desc>
    <g id="NSYSFV20_04_Reality.PRT_1">
     <desc>NSYSFV20_04_Reality.PRT</desc>
     <line stroke-width="0.106" x1="-20.062" y1="29.713" x2="-20.062" y2="31.192"/>
     <path stroke-width="0.106" d="M-24.295 28.054L-24.286 28.071C-24.266 28.089 -24.239 28.097 -24.216 28.103C-24.182 28.112 -24.149 28.117 -24.115 28.121L-20.777 28.532C-20.753 28.535 -20.728 28.539 -20.702 28.533L-20.686 28.527L-20.658 28.503L-20.138 28.033L-20.111 28.01"/>
     <path stroke-width="0.106" d="M-20.589 29.399L-20.615 29.422L-20.658 29.46L-20.686 29.484L-20.728 29.493L-20.742 29.492L-20.777 29.489L-24.115 29.079C-24.149 29.074 -24.182 29.071 -24.216 29.062C-24.236 29.056 -24.243 29.054 -24.265 29.044L-24.295 29.013L-24.295 28.977L-24.295 28.091L-24.295 28.054L-24.295 28.038L-24.283 28.021L-24.257 27.998L-23.05 26.913L-23.024 26.888L-23.007 26.882C-22.983 26.876 -22.957 26.881 -22.931 26.884L-21.661 27.039L-21.626 27.045"/>
     <path stroke-width="0.106" d="M-21.626 27.045L-21.661 27.041L-22.931 26.885L-22.966 26.881L-22.992 26.885"/>
    </g>
    <g id="NSYSFV20_12_Reality.PRT">
     <desc>NSYSFV20_12_Reality.PRT</desc>
     <line stroke-width="0.106" x1="-22.551" y1="49.6" x2="-22.551" y2="29.262"/>
     <line stroke-width="0.106" x1="-19.998" y1="31.199" x2="-20.123" y2="31.184"/>
     <line stroke-width="0.106" x1="-19.998" y1="31.658" x2="-19.998" y2="31.199"/>
     <line stroke-width="0.106" x1="-20.373" y1="31.536" x2="-20.317" y2="31.812"/>
     <line stroke-width="0.106" x1="-20.306" y1="31.129" x2="-20.417" y2="29.536"/>
     <line stroke-width="0.106" x1="-20.503" y1="31.524" x2="-20.504" y2="31.519"/>
     <line stroke-width="0.106" x1="-20.498" y1="31.521" x2="-20.373" y2="31.536"/>
     <line stroke-width="0.106" x1="-22.51" y1="49.6" x2="-22.51" y2="29.266"/>
     <line stroke-width="0.106" x1="-20.216" y1="31.266" x2="-20.091" y2="31.282"/>
     <line stroke-width="0.106" x1="-20.315" y1="31.222" x2="-20.189" y2="31.237"/>
     <line stroke-width="0.106" x1="-20.353" y1="31.172" x2="-20.306" y2="31.129"/>
     <line stroke-width="0.106" x1="-20.353" y1="31.172" x2="-20.466" y2="29.53"/>
     <path stroke-width="0.106" d="M-24.297 49.601C-24.297 31.676 -24.297 29.155 -24.297 29.155L-24.297 29.12L-24.283 29.1L-24.236 29.056"/>
     <path stroke-width="0.106" d="M-23.365 29.17L-23.385 29.189L-23.405 29.207L-23.413 29.211C-23.435 29.225 -23.464 29.225 -23.489 29.227C-23.512 29.225 -23.533 29.222 -23.556 29.219L-24.07 29.157L-24.105 29.152L-24.118 29.15C-24.118 29.15 -24.158 29.143 -24.164 29.125"/>
     <path stroke-width="0.106" d="M-20.504 31.519C-20.547 31.515 -20.589 31.51 -20.632 31.504C-20.655 31.512 -20.678 31.515 -20.701 31.515C-20.766 31.513 -20.832 31.498 -20.896 31.495C-20.931 31.495 -20.966 31.498 -21 31.507L-21.042 31.533L-21.045 31.541L-21.045 31.576C-21.045 31.576 -21.045 38.628 -21.045 49.554"/>
     <path stroke-width="0.106" d="M-20.271 31.64L-20.265 31.605L-20.222 31.301L-20.216 31.266L-20.19 31.242L-20.15 31.207L-20.123 31.184"/>
     <path stroke-width="0.106" d="M-20.306 31.129C-20.266 31.135 -20.224 31.141 -20.189 31.164L-20.161 31.193L-20.161 31.216"/>
     <path stroke-width="0.106" d="M-20.295 31.199L-20.3 31.21L-20.315 31.222L-20.32 31.257L-20.361 31.535L-20.365 31.57"/>
     <path stroke-width="0.106" d="M-23.24 29.187C-23.24 29.187 -23.274 29.219 -23.294 29.231C-23.312 29.243 -23.333 29.251 -23.356 29.256C-23.405 29.268 -23.454 29.271 -23.504 29.271C-23.538 29.268 -23.57 29.265 -23.602 29.262L-24.115 29.199C-24.161 29.193 -24.21 29.189 -24.251 29.17C-24.251 29.17 -24.292 29.149 -24.297 29.131L-24.297 29.12"/>
     <path stroke-width="0.106" d="M-24.117 29.079L-24.138 29.097L-24.164 29.125"/>
     <path stroke-width="0.106" d="M-20.143 31.64L-20.138 31.606L-20.096 31.317L-20.091 31.282L-20.064 31.257L-20.025 31.222L-19.998 31.199"/>
     <path stroke-width="0.106" d="M-21.045 31.541L-21.044 31.548L-21.032 31.562L-20.99 31.579L-20.972 31.583L-20.951 31.588L-20.917 31.591L-20.695 31.618C-20.638 31.626 -20.58 31.629 -20.524 31.621C-20.501 31.617 -20.478 31.612 -20.457 31.605C-20.435 31.594 -20.422 31.58 -20.405 31.565L-20.399 31.559L-20.373 31.536"/>
     <path stroke-width="0.106" d="M-20.161 31.204L-20.175 31.225L-20.19 31.242"/>
     <path stroke-width="0.106" d="M-20.295 31.199L-20.315 31.181L-20.353 31.172"/>
    </g>
   </g>
   <g>
    <g id="0G-PXCUPSN050">
     <desc>0G-PXCUPSN050</desc>
     <g id="NSYSF20680_CPL_NAM.ASM">
      <desc>NSYSF20680_CPL_NAM.ASM</desc>
      <g id="NSYSF20680_Reality.ASM">
       <desc>NSYSF20680_Reality.ASM</desc>
       <g id="NSYSFV20_Reality.ASM_3">
        <desc>NSYSFV20_Reality.ASM</desc>
        <g id="NSYSFV20_04_Reality.PRT_7">
         <desc>NSYSFV20_04_Reality.PRT</desc>
         <path stroke-width="0.106" d="M50.42 11.827L50.42 11.803L50.389 11.772C50.368 11.76 50.359 11.759 50.338 11.753C50.307 11.744 50.273 11.74 50.24 11.736L46.893 11.324L46.857 11.32L46.844 11.32L46.801 11.33L46.774 11.353L46.423 11.669L46.398 11.692"/>
         <path stroke-width="0.106" d="M46.832 11.327C46.871 11.32 46.85 11.32 46.895 11.326L50.213 11.734C50.244 11.737 50.276 11.74 50.305 11.75C50.326 11.757 50.345 11.768 50.365 11.776"/>
         <path stroke-width="0.106" d="M49.119 12.98L49.115 12.98L49.101 12.981L49.088 12.98L49.052 12.977L47.78 12.82L47.744 12.816"/>
         <path stroke-width="0.106" d="M50.42 11.803C50.418 11.824 50.411 11.832 50.411 11.832"/>
        </g>
       </g>
       <g id="NSYSFC68_UPPER.ASM">
        <desc>NSYSFC68_UPPER.ASM</desc>
        <g id="NSYSFC68__PROFILE_W_600.PRT_3">
         <desc>NSYSFC68__PROFILE_W_600.PRT</desc>
         <line stroke-width="0.106" x1="22.085" y1="34.54" x2="22.045" y2="34.536"/>
         <line stroke-width="0.106" x1="22.01" y1="34.174" x2="22.085" y2="34.183"/>
         <line stroke-width="0.106" x1="21.957" y1="36.753" x2="21.954" y2="36.753"/>
         <path stroke-width="0.106" d="M22.132 36.938L22.106 36.962L22.062 37.002L22.035 37.024L22.006 37.034L21.951 37.029"/>
         <path stroke-width="0.106" d="M22.599 35.973L22.599 35.938L22.599 34.875C22.599 34.838 22.599 34.801 22.591 34.765L22.588 34.743C22.579 34.715 22.574 34.707 22.559 34.679L22.536 34.64L22.519 34.609"/>
         <path stroke-width="0.106" d="M21.958 37.088L21.954 37.078L21.951 37.023L21.951 36.799L21.954 36.753"/>
         <path stroke-width="0.106" d="M22.022 36.902L22.013 36.893L22.007 36.871C22.003 36.853 22.004 36.825 22.004 36.807C22.004 36.767 22.004 36.728 22.001 36.689L21.998 36.661L21.984 36.628"/>
         <path stroke-width="0.106" d="M22.414 36.598L22.425 36.543L22.428 36.509C22.429 36.479 22.431 36.451 22.431 36.421L22.431 36.036L22.431 36"/>
         <path stroke-width="0.106" d="M22.085 33.615L22.064 33.634C22.064 33.634 22.038 33.654 22.03 33.671C22.01 33.712 22.01 33.758 22.01 33.801L22.01 34.32C22.01 34.338 22.01 34.366 22.013 34.386L22.019 34.406L22.03 34.417"/>
         <path stroke-width="0.106" d="M22.713 34.649L22.687 34.673L22.658 34.7L22.631 34.723L22.611 34.734L22.582 34.731"/>
         <path stroke-width="0.106" d="M22.519 34.609L22.536 34.64L22.559 34.679L22.591 34.729L22.611 34.734"/>
         <path stroke-width="0.106" d="M22.365 36.593C22.376 36.567 22.378 36.564 22.382 36.533C22.385 36.509 22.385 36.487 22.385 36.463L22.385 36.03L22.385 35.994"/>
         <path stroke-width="0.106" d="M22.012 34.548L21.986 34.526L21.978 34.5L21.971 34.472L21.968 34.438C21.966 34.411 21.964 34.387 21.964 34.362L21.964 33.844C21.964 33.814 21.966 33.786 21.968 33.758L21.971 33.722L21.978 33.686L21.98 33.673L21.986 33.639L21.998 33.606L22.012 33.57L22.042 33.527L22.068 33.505L22.231 33.356C22.265 33.326 22.246 33.337 22.288 33.323"/>
         <path stroke-width="0.106" d="M22.085 34.372L22.042 34.411L22.03 34.417"/>
         <path stroke-width="0.106" d="M22.551 36.015L22.551 35.979L22.551 34.917L22.55 34.86C22.548 34.837 22.538 34.82 22.525 34.798L22.434 34.631L22.417 34.6L22.417 34.597"/>
         <path stroke-width="0.106" d="M22.035 37.024L22.009 37.049L21.993 37.063C21.964 37.088 21.978 37.085 21.958 37.088"/>
         <path stroke-width="0.106" d="M22.022 36.902C22.045 36.895 22.032 36.901 22.062 36.875L22.106 36.835L22.132 36.811"/>
         <path stroke-width="0.106" d="M21.957 36.753L21.957 36.759L21.957 36.793L21.957 36.847L21.957 36.884L21.96 36.92L21.96 36.923C21.964 36.969 21.96 36.948 21.972 36.985L21.981 37.012L22.004 37.034"/>
         <path stroke-width="0.106" d="M21.943 37.222L21.923 37.203L21.917 37.182L21.91 37.161L21.908 37.131C21.903 37.088 21.905 37.109 21.905 37.064L21.905 36.841C21.905 36.795 21.903 36.817 21.908 36.774L21.91 36.741L21.917 36.712C21.925 36.674 21.92 36.692 21.934 36.661L21.943 36.639L21.966 36.619"/>
        </g>
        <g id="NSYSFC68__PROFILE_W_600.PRT_2">
         <desc>NSYSFC68__PROFILE_W_600.PRT</desc>
         <path stroke-width="0.106" d="M46.692 11.426C46.686 11.403 46.686 11.39 46.659 11.378L46.624 11.374L3.998 6.139L3.961 6.136L3.931 6.147L3.906 6.169L3.742 6.317L3.716 6.341L3.686 6.384L3.673 6.419"/>
        </g>
        <g id="NSYSFC68_CORNER.PRT_6">
         <desc>NSYSFC68_CORNER.PRT</desc>
         <path stroke-width="0.106" d="M22.713 34.761L22.696 34.774L22.681 34.789L22.679 34.79L22.638 34.798L22.596 34.795"/>
        </g>
        <g id="NSYSFC68_PROFILE_D_800.PRT_3">
         <desc>NSYSFC68_PROFILE_D_800.PRT</desc>
         <path stroke-width="0.106" d="M-0.158 7.232L-0.158 7.203L-0.164 7.168L-0.167 7.155L-0.174 7.12L-0.192 7.089L-0.2 7.076L-0.219 7.046L-0.247 7.024L-0.258 7.014L-0.286 6.993L-0.32 6.982L-0.333 6.977L-0.367 6.966L-0.402 6.963L-0.918 6.899L-0.953 6.894L-0.989 6.897L-0.998 6.897L-1.034 6.9L-1.064 6.918L-1.07 6.921L-1.1 6.937L-1.128 6.961L-22.992 26.649L-23.018 26.672"/>
        </g>
        <g id="NSYSFC68_PROFILE_D_800.PRT_2">
         <desc>NSYSFC68_PROFILE_D_800.PRT</desc>
         <path stroke-width="0.106" d="M49.073 13.164L49.054 13.134L49.046 13.124L49.027 13.093L49 13.07L48.988 13.061L48.96 13.039L48.926 13.028L48.914 13.025L48.88 13.012L48.844 13.009L48.329 12.945L48.293 12.941L48.259 12.943L48.249 12.945L48.213 12.948L48.182 12.964L48.176 12.968L48.146 12.984L48.118 13.009L26.256 32.695L26.23 32.718"/>
         <path stroke-width="0.106" d="M27.019 32.816C26.998 32.798 27.013 32.807 26.974 32.795L26.96 32.79L26.926 32.78L26.891 32.776L26.376 32.712L26.341 32.707L26.304 32.71L26.295 32.712L26.26 32.715L26.248 32.72"/>
        </g>
       </g>
       <g id="NSYSFV20_Reality.ASM_2">
        <desc>NSYSFV20_Reality.ASM</desc>
        <g id="NSYSFV20_04_Reality.PRT_5">
         <desc>NSYSFV20_04_Reality.PRT</desc>
         <path stroke-width="0.106" d="M0.426 5.621L0.442 5.621L0.477 5.626L3.823 6.036L3.859 6.041L3.871 6.043L3.881 6.046L3.887 6.091L3.887 6.15L3.887 6.185"/>
         <path stroke-width="0.106" d="M3.866 6.051L3.806 6.035L3.77 6.03L0.452 5.623C0.429 5.621 0.406 5.618 0.384 5.617L0.35 5.617C0.32 5.618 0.29 5.621 0.26 5.629C0.24 5.637 0.22 5.647 0.2 5.655"/>
         <path stroke-width="0.106" d="M-1.11 6.945L-1.11 6.91L-1.11 6.843L-1.11 6.807L-1.106 6.801L-1.08 6.778L0.129 5.689C0.129 5.689 0.158 5.66 0.178 5.65C0.2 5.639 0.208 5.639 0.229 5.633C0.256 5.626 0.283 5.621 0.311 5.62"/>
         <path stroke-width="0.106" d="M3.887 6.056L3.884 6.06L3.859 6.084L3.508 6.4L3.482 6.423"/>
         <path stroke-width="0.106" d="M-1.11 6.807L-1.08 6.82L-1.044 6.825L0.098 6.966L0.134 6.969"/>
        </g>
       </g>
       <g id="NSYSFV20_Reality.ASM_1">
        <desc>NSYSFV20_Reality.ASM</desc>
        <g id="NSYSFV20_04_Reality.PRT_3">
         <desc>NSYSFV20_04_Reality.PRT</desc>
         <line stroke-width="0.106" x1="22.713" y1="34.633" x2="22.713" y2="36.265"/>
         <path stroke-width="0.106" d="M22.664 33.061L22.638 33.085L22.114 33.557L22.088 33.579L22.085 33.585L22.085 33.621L22.085 34.509L22.094 34.554L22.103 34.557L22.114 34.558L22.15 34.564L25.496 34.973C25.524 34.978 25.553 34.981 25.58 34.982C25.621 34.984 25.663 34.982 25.702 34.975C25.725 34.972 25.75 34.968 25.772 34.96"/>
         <path stroke-width="0.106" d="M25.782 33.996C25.734 34.015 25.682 34.02 25.631 34.023L25.58 34.023C25.553 34.021 25.524 34.018 25.496 34.015L22.15 33.603L22.114 33.598L22.085 33.585"/>
         <path stroke-width="0.106" d="M27.071 32.847L27.083 32.835"/>
         <path stroke-width="0.106" d="M27.062 32.829L27.003 32.814L26.966 32.81L25.573 32.639L25.536 32.634"/>
         <path stroke-width="0.106" d="M27.083 32.845L27.082 32.829L27.067 32.822L27.054 32.82L27.018 32.816L25.573 32.637L25.538 32.634"/>
        </g>
        <g id="NSYSFV20_12_Reality.PRT_1">
         <desc>NSYSFV20_12_Reality.PRT</desc>
         <line stroke-width="0.106" x1="22.46" y1="36.603" x2="22.332" y2="36.588"/>
         <line stroke-width="0.106" x1="22.327" y1="36.587" x2="22.201" y2="36.572"/>
         <line stroke-width="0.106" x1="22.327" y1="36.587" x2="22.329" y2="36.597"/>
         <line stroke-width="0.106" x1="22.899" y1="36.289" x2="23.013" y2="34.67"/>
         <line stroke-width="0.106" x1="25.169" y1="35.006" x2="25.169" y2="34.933"/>
         <path stroke-width="0.106" d="M24.8 49.6C24.8 36.273 24.8 34.987 24.8 34.987L24.8 34.951L24.814 34.932L24.853 34.896"/>
         <path stroke-width="0.106" d="M22.594 36.642L22.6 36.606L22.64 36.34L22.644 36.304L22.658 36.292C22.658 36.292 22.692 36.271 22.71 36.265C22.771 36.244 22.838 36.241 22.902 36.244"/>
         <path stroke-width="0.106" d="M22.46 36.603C22.464 36.621 22.504 36.63 22.504 36.63L22.518 36.631L22.554 36.637L22.605 36.643C22.637 36.646 22.669 36.649 22.699 36.661L22.731 36.68L22.734 36.725C22.734 36.725 22.734 40.578 22.734 49.585"/>
         <path stroke-width="0.106" d="M22.132 49.6C22.132 37.709 22.132 36.677 22.132 36.677L22.132 36.642L22.143 36.624C22.161 36.606 22.182 36.588 22.201 36.572"/>
         <path stroke-width="0.106" d="M22.327 36.662L22.327 36.609L22.327 36.598L22.332 36.588"/>
         <path stroke-width="0.106" d="M22.265 36.646L22.295 36.658L22.33 36.662L22.554 36.689L22.591 36.695"/>
         <path stroke-width="0.106" d="M22.576 36.234L22.55 36.258L22.51 36.293L22.484 36.317L22.478 36.353L22.446 36.567L22.442 36.601"/>
         <path stroke-width="0.106" d="M24.934 34.957C24.939 34.975 24.978 34.982 24.978 34.982L24.992 34.984L25.027 34.99L25.542 35.052C25.576 35.057 25.606 35.06 25.64 35.057L25.687 35.043L25.693 35.039L25.719 35.015L25.772 34.968"/>
         <path stroke-width="0.106" d="M22.701 36.25L22.675 36.274L22.635 36.308L22.609 36.332L22.603 36.368L22.57 36.603L22.564 36.637"/>
         <path stroke-width="0.106" d="M25.78 35.076C25.721 35.1 25.658 35.103 25.594 35.103C25.562 35.101 25.53 35.098 25.496 35.094L24.981 35.03C24.936 35.026 24.888 35.021 24.844 35.002C24.844 35.002 24.804 34.982 24.8 34.963L24.8 34.951"/>
         <path stroke-width="0.106" d="M24.98 34.911L24.96 34.929L24.934 34.957"/>
         <path stroke-width="0.106" d="M22.719 36.67L22.724 36.634L22.765 36.356L22.771 36.32L22.8 36.298C22.832 36.286 22.867 36.286 22.899 36.289"/>
         <path stroke-width="0.106" d="M22.327 36.609L22.332 36.619C22.344 36.64 22.37 36.649 22.391 36.656C22.419 36.665 22.446 36.67 22.472 36.673C22.512 36.68 22.551 36.688 22.591 36.695"/>
         <path stroke-width="0.106" d="M22.265 36.646L22.268 36.64C22.286 36.621 22.307 36.604 22.327 36.587"/>
         <path stroke-width="0.106" d="M22.132 36.642L22.132 36.652L22.147 36.67C22.147 36.67 22.181 36.686 22.199 36.691C22.228 36.698 22.256 36.701 22.283 36.704L22.506 36.731C22.533 36.735 22.561 36.738 22.588 36.738C22.623 36.74 22.661 36.735 22.693 36.725L22.733 36.697L22.734 36.689"/>
        </g>
       </g>
      </g>
      <g id="NSYSFC68.PRT">
       <desc>NSYSFC68.PRT</desc>
       <line stroke-width="0.106" x1="22.471" y1="32.911" x2="22.471" y2="33.037"/>
       <line stroke-width="0.106" x1="25.625" y1="32.554" x2="25.625" y2="32.429"/>
       <path stroke-width="0.106" d="M47.533 12.702L47.557 12.705L47.591 12.717L47.621 12.725L47.655 12.737L47.682 12.759L47.707 12.778C47.744 12.808 47.729 12.791 47.755 12.832L47.771 12.859L47.789 12.888L47.796 12.923L47.802 12.954L47.808 12.989L47.808 13.007C47.807 13.032 47.801 13.055 47.795 13.08L47.737 13.326L47.728 13.361"/>
       <path stroke-width="0.106" d="M46.155 11.663L46.155 11.66L46.14 11.647C46.116 11.625 46.131 11.634 46.09 11.628L3.584 6.41L3.548 6.405L3.512 6.418L3.503 6.426"/>
       <path stroke-width="0.106" d="M0.35 6.908L0.376 6.884L1.018 6.306L1.044 6.282L1.106 6.25L1.137 6.232L1.171 6.224L1.242 6.206L1.277 6.198L1.312 6.195L1.409 6.187L1.445 6.185L1.48 6.187C1.539 6.19 1.597 6.192 1.653 6.198L3.468 6.421L3.503 6.426"/>
       <path stroke-width="0.106" d="M0.35 6.908L0.325 6.905L0.289 6.908L0.263 6.91L0.228 6.913L0.197 6.931L0.178 6.94L0.147 6.958L0.12 6.982L-21.734 26.661L-21.762 26.684L-21.783 26.713L-21.795 26.73L-21.815 26.759L-21.827 26.818"/>
       <path stroke-width="0.106" d="M47.64 12.731L47.667 12.708L48.203 12.226L48.228 12.201L48.256 12.144L48.256 12.108L48.256 12.054L48.256 12.018L48.235 11.99L48.216 11.962L48.183 11.946L48.146 11.931L48.115 11.916L48.079 11.909C48.03 11.897 47.981 11.887 47.929 11.881L46.115 11.657L46.081 11.653"/>
       <path stroke-width="0.106" d="M47.533 12.702L47.56 12.678L48.203 12.099L48.228 12.076L48.256 12.018"/>
       <path stroke-width="0.106" d="M25.625 32.554L25.597 32.579L24.955 33.158L24.928 33.182L24.867 33.215L24.836 33.231L24.801 33.24L24.731 33.256L24.696 33.265L24.661 33.268L24.565 33.276L24.528 33.279C24.471 33.276 24.413 33.274 24.356 33.27L24.32 33.265L22.506 33.042L22.471 33.037"/>
       <path stroke-width="0.106" d="M22.42 33.281C22.419 33.259 22.414 33.237 22.414 33.215L22.422 33.146L22.429 33.115L22.439 33.085L22.449 33.066C22.463 33.042 22.471 33.037 22.471 33.037"/>
       <path stroke-width="0.106" d="M25.765 32.661L25.757 32.634L25.734 32.609L25.713 32.582L25.681 32.57C25.641 32.554 25.661 32.56 25.625 32.554"/>
       <path stroke-width="0.106" d="M22.471 32.911L22.506 32.915L24.32 33.139C24.378 33.146 24.434 33.146 24.492 33.149L24.528 33.152L24.565 33.149L24.661 33.142L24.696 33.139L24.731 33.131L24.801 33.113L24.836 33.104L24.867 33.088L24.928 33.055L24.955 33.031L25.597 32.453L25.625 32.429"/>
       <path stroke-width="0.106" d="M25.893 32.676L25.881 32.615L25.862 32.585L25.846 32.557L25.826 32.527L25.798 32.506L25.774 32.485L25.745 32.463L25.713 32.451L25.684 32.442L25.649 32.432L25.625 32.429"/>
       <path stroke-width="0.106" d="M22.373 33.325C22.37 33.301 22.367 33.279 22.368 33.256L22.373 33.188L22.376 33.152L22.382 33.118L22.388 33.088L22.396 33.052L22.408 33.02L22.414 33.005L22.425 32.972L22.443 32.945C22.463 32.915 22.471 32.911 22.471 32.911"/>
      </g>
     </g>
    </g>
    <g id="0m-top_entry_6feb">
     <desc>0m-top_entry_6feb</desc>
     <g id="NSYSFC48_TOP_COVER.PRT">
      <desc>NSYSFC48_TOP_COVER.PRT</desc>
      <line stroke-width="0.106" x1="55.939" y1="37.167" x2="55.939" y2="37.042"/>
      <line stroke-width="0.106" x1="59.093" y1="36.558" x2="59.093" y2="36.685"/>
      <path stroke-width="0.106" d="M50.567 13.095L50.542 13.092L50.508 13.095L50.481 13.096L50.447 13.099L50.414 13.117L50.396 13.127L50.365 13.144L50.338 13.167L28.484 32.847L28.457 32.871L28.435 32.899L28.423 32.915L28.402 32.945L28.39 33.003"/>
      <path stroke-width="0.106" d="M30.045 33.988L30.01 33.984L28.263 33.77C28.222 33.765 28.181 33.756 28.14 33.749L28.106 33.741L28.071 33.729L28.045 33.72L28.01 33.709L27.981 33.686L27.952 33.667L27.945 33.643L27.936 33.619L27.936 33.585L27.936 33.53L27.936 33.493L27.949 33.47C27.969 33.438 27.957 33.454 27.989 33.423L28.632 32.845L28.66 32.822"/>
      <path stroke-width="0.106" d="M30.111 33.869C30.111 33.869 30.105 33.875 30.085 33.905L30.067 33.93L30.054 33.963L30.05 33.978L30.036 34.012L30.03 34.046L30.024 34.076L30.016 34.11L30.015 34.146L30.01 34.215C30.009 34.24 30.012 34.265 30.015 34.292"/>
      <path stroke-width="0.106" d="M53.722 12.612L53.686 12.608L51.872 12.384L51.837 12.381C51.792 12.377 51.746 12.375 51.7 12.371L51.664 12.372L51.597 12.375L51.561 12.377L51.526 12.382L51.469 12.391L51.435 12.397L51.366 12.417L51.332 12.428L51.301 12.445L51.295 12.449L51.264 12.468L51.237 12.492L50.594 13.07L50.567 13.095"/>
      <path stroke-width="0.106" d="M53.722 12.612C53.722 12.612 53.726 12.605 53.749 12.598L53.767 12.59L53.801 12.596L79.558 15.757C79.599 15.762 79.584 15.753 79.608 15.775L79.623 15.789L79.623 15.792"/>
      <path stroke-width="0.106" d="M79.548 15.782L79.584 15.788L81.397 16.01C81.438 16.015 81.478 16.022 81.519 16.03L81.555 16.038L81.588 16.05L81.615 16.059L81.65 16.071L81.707 16.114L81.715 16.137C81.727 16.17 81.724 16.152 81.724 16.195L81.724 16.25L81.724 16.286L81.697 16.332L81.671 16.356L81.135 16.838L81.108 16.861"/>
      <path stroke-width="0.106" d="M81.195 17.49L81.203 17.455L81.263 17.208C81.268 17.185 81.275 17.161 81.277 17.138L81.277 17.117L81.269 17.082L81.265 17.053L81.257 17.018L81.239 16.987L81.221 16.96C81.197 16.92 81.212 16.937 81.176 16.908L81.15 16.888L81.123 16.867L81.088 16.855L81.06 16.846L81.025 16.835L81.001 16.832"/>
      <path stroke-width="0.106" d="M28.66 32.822L28.635 32.819L28.599 32.822L28.573 32.823L28.538 32.826L28.507 32.844L28.487 32.853L28.457 32.871"/>
      <path stroke-width="0.106" d="M30.111 33.869L30.077 33.865L28.263 33.643C28.222 33.637 28.181 33.631 28.14 33.622L28.106 33.615L28.071 33.603L28.045 33.594C28 33.578 28.019 33.588 27.981 33.561L27.952 33.539L27.936 33.493"/>
      <path stroke-width="0.106" d="M55.939 37.167L55.973 37.171L57.787 37.395L57.823 37.399L57.859 37.402L57.924 37.405L57.96 37.408L57.996 37.406L58.064 37.404L58.098 37.402L58.134 37.396L58.189 37.389L58.225 37.383L58.293 37.362L58.328 37.351L58.359 37.334L58.365 37.329L58.396 37.31L58.423 37.287L59.066 36.709L59.093 36.685"/>
      <path stroke-width="0.106" d="M59.235 36.79C59.231 36.771 59.234 36.783 59.219 36.758L59.206 36.735L59.185 36.719L59.165 36.703L59.142 36.695C59.109 36.685 59.125 36.689 59.093 36.685"/>
      <path stroke-width="0.106" d="M55.887 37.411C55.886 37.389 55.881 37.366 55.883 37.344L55.887 37.292L55.892 37.267C55.898 37.235 55.893 37.25 55.904 37.222L55.911 37.201C55.923 37.179 55.939 37.167 55.939 37.167"/>
      <path stroke-width="0.106" d="M79.548 15.782L79.558 15.775L79.593 15.762"/>
      <path stroke-width="0.106" d="M81.001 16.832L81.028 16.807L81.671 16.228L81.697 16.204L81.724 16.16"/>
      <path stroke-width="0.106" d="M59.093 36.558L59.066 36.582L58.423 37.161L58.396 37.185L58.365 37.203L58.359 37.207L58.328 37.225L58.293 37.235L58.225 37.256L58.189 37.262L58.134 37.271L58.098 37.276L58.064 37.277L57.996 37.28L57.96 37.281C57.914 37.279 57.868 37.277 57.823 37.273L57.787 37.268L55.973 37.045L55.939 37.042"/>
      <path stroke-width="0.106" d="M55.841 37.454C55.838 37.432 55.835 37.408 55.837 37.386L55.841 37.317L55.844 37.281L55.85 37.246L55.856 37.218L55.863 37.182L55.877 37.149L55.881 37.134L55.893 37.101L55.911 37.076C55.932 37.046 55.939 37.042 55.939 37.042"/>
      <path stroke-width="0.106" d="M59.093 36.558L59.118 36.561L59.151 36.573L59.179 36.582L59.213 36.593L59.241 36.615L59.267 36.634L59.295 36.658L59.314 36.688L59.331 36.715L59.348 36.744L59.36 36.807"/>
     </g>
     <g id="NSY2SP208_Reality.PRT_2">
      <desc>NSY2SP208_Reality.PRT</desc>
      <path stroke-width="0.106" d="M59.72 39.204C59.701 39.192 59.683 39.179 59.664 39.168C59.628 39.149 59.59 39.134 59.551 39.122L59.524 39.115L59.517 39.113"/>
     </g>
     <g id="870-30631.ASM_1">
      <desc>870-30631.ASM</desc>
      <g id="870-30631.PRT_1">
       <desc>870-30631.PRT</desc>
       <path stroke-width="0.106" d="M30.294 49.6C30.294 47.978 30.294 38.302 30.294 38.302L30.294 38.267"/>
       <path stroke-width="0.106" d="M30.169 38.252L30.169 38.286C30.169 38.286 30.169 47.988 30.169 49.6"/>
      </g>
     </g>
     <g id="0M-82818.ASM">
      <desc>0M-82818.ASM</desc>
      <g id="NSYSF20480.ASM">
       <desc>NSYSF20480.ASM</desc>
       <g id="NSYSFC48_UPPER.ASM">
        <desc>NSYSFC48_UPPER.ASM</desc>
        <g id="NSYSFC48__PROFILE_W_400.PRT_1">
         <desc>NSYSFC48__PROFILE_W_400.PRT</desc>
         <path stroke-width="0.106" d="M80.121 15.49C80.087 15.506 80.103 15.496 80.07 15.525L79.908 15.673C79.876 15.701 79.888 15.688 79.868 15.712L79.856 15.728L79.846 15.753L79.835 15.778L79.825 15.817"/>
         <path stroke-width="0.106" d="M80.165 15.553L80.159 15.532L80.143 15.5L80.085 15.486L54.21 12.308L54.174 12.304C54.14 12.32 54.156 12.31 54.125 12.339L53.96 12.487L53.935 12.51L53.909 12.542L53.899 12.567C53.887 12.596 53.89 12.583 53.884 12.605"/>
        </g>
        <g id="NSYSFC68_CORNER.PRT_3_1">
         <desc>NSYSFC68_CORNER.PRT</desc>
         <line stroke-width="0.106" x1="30.178" y1="37.624" x2="30.079" y2="37.612"/>
         <line stroke-width="0.106" x1="30.032" y1="37.17" x2="30.032" y2="35.715"/>
        </g>
        <g id="NSYSFC68_PROFILE_D_800.PRT_1_1">
         <desc>NSYSFC68_PROFILE_D_800.PRT</desc>
         <path stroke-width="0.106" d="M60.487 36.945C60.466 36.927 60.481 36.936 60.442 36.924L60.429 36.92L60.395 36.909L60.359 36.905L59.844 36.841L59.808 36.837L59.773 36.84L59.764 36.841L59.728 36.844L59.716 36.85"/>
         <path stroke-width="0.106" d="M60.551 37.865L60.588 37.814L60.595 37.779L60.597 37.77L60.604 37.734L60.604 37.698L60.604 37.18L60.604 37.146L60.597 37.11L60.594 37.097L60.588 37.063L60.551 37.003"/>
         <path stroke-width="0.106" d="M60.551 37.868L60.578 37.844L82.469 18.134L82.495 18.109L82.516 18.08L82.519 18.077L82.54 18.047L82.549 18.013L82.549 18.004L82.558 17.969L82.558 17.932L82.558 17.414L82.558 17.379L82.551 17.344L82.548 17.33L82.54 17.295L82.522 17.265L82.515 17.253L82.495 17.222L82.468 17.201L82.456 17.192L82.429 17.169L82.394 17.158L82.382 17.153L82.347 17.143L82.313 17.138L81.796 17.076L81.762 17.071L81.725 17.074L81.716 17.074L81.68 17.077L81.65 17.094L81.644 17.097L81.614 17.114L81.587 17.138L59.723 36.823L59.697 36.847"/>
        </g>
        <g id="NSYSFC68_CORNER.PRT_1_1">
         <desc>NSYSFC68_CORNER.PRT</desc>
         <path stroke-width="0.106" d="M56.18 38.923L56.14 38.932C56.115 38.932 56.088 38.926 56.064 38.923"/>
        </g>
        <g id="NSYSFC68_PROFILE_D_800.PRT_4">
         <desc>NSYSFC68_PROFILE_D_800.PRT</desc>
         <path stroke-width="0.106" d="M27.992 32.954C27.969 32.938 27.984 32.947 27.946 32.935L27.932 32.929L27.899 32.92L27.864 32.914L27.347 32.851L27.312 32.847L27.277 32.85L27.266 32.85L27.231 32.853L27.219 32.86"/>
         <path stroke-width="0.106" d="M27.199 32.859L27.227 32.835L49.091 13.148L49.116 13.125L49.149 13.106L49.154 13.105L49.185 13.086L49.219 13.083L49.229 13.083L49.265 13.08L49.301 13.085L49.816 13.148L49.851 13.153L49.886 13.163L49.899 13.167L49.932 13.179L49.96 13.201L49.972 13.211L50 13.233L50.018 13.262L50.026 13.275L50.045 13.305L50.051 13.34L50.054 13.353L50.06 13.388L50.06 13.419"/>
        </g>
        <g id="NSYSFC48__PROFILE_W_400.PRT">
         <desc>NSYSFC48__PROFILE_W_400.PRT</desc>
         <line stroke-width="0.106" x1="56.02" y1="40.146" x2="56.067" y2="40.103"/>
         <line stroke-width="0.106" x1="55.554" y1="38.314" x2="55.478" y2="38.304"/>
         <line stroke-width="0.106" x1="56.02" y1="40.146" x2="55.853" y2="40.125"/>
         <line stroke-width="0.106" x1="55.554" y1="38.67" x2="55.512" y2="38.665"/>
         <line stroke-width="0.106" x1="30.073" y1="36.96" x2="30.24" y2="36.979"/>
         <line stroke-width="0.106" x1="55.884" y1="38.729" x2="29.937" y2="35.543"/>
         <line stroke-width="0.106" x1="55.424" y1="40.883" x2="55.423" y2="40.881"/>
         <path stroke-width="0.106" d="M56.18 38.78L56.155 38.802L56.125 38.829L56.098 38.853L56.079 38.863L56.051 38.86"/>
         <path stroke-width="0.106" d="M55.987 38.737L56.005 38.77L56.027 38.81C56.04 38.837 56.046 38.844 56.055 38.874L56.06 38.896C56.066 38.932 56.067 38.969 56.067 39.005L56.067 40.067L56.067 40.103"/>
         <path stroke-width="0.106" d="M55.42 41.158L55.478 41.165C55.5 41.162 55.53 41.131 55.53 41.131L55.573 41.091L55.6 41.067"/>
         <path stroke-width="0.106" d="M55.6 41.194L55.573 41.218L55.462 41.319C55.429 41.347 55.445 41.338 55.415 41.351L55.38 41.347L29.839 38.212L29.786 38.198L29.768 38.154L29.763 38.134C29.76 38.106 29.76 38.078 29.76 38.048L29.76 37.826L29.76 37.79L29.763 37.762C29.765 37.735 29.768 37.707 29.775 37.682L29.783 37.661C29.791 37.642 29.811 37.61 29.811 37.61L29.864 37.609L55.405 40.744L55.442 40.749C55.46 40.756 55.468 40.798 55.468 40.798L55.469 40.822C55.473 40.871 55.469 40.921 55.472 40.972L55.481 41.023L55.49 41.031"/>
         <path stroke-width="0.106" d="M55.426 41.218L55.421 41.207L55.42 41.152L55.42 40.929L55.423 40.881"/>
         <path stroke-width="0.106" d="M55.883 40.728L55.884 40.725L55.89 40.689L55.895 40.655C55.899 40.621 55.899 40.585 55.899 40.551L55.899 40.165L55.899 40.13"/>
         <path stroke-width="0.106" d="M55.554 37.743L55.531 37.764C55.531 37.764 55.506 37.783 55.497 37.801C55.478 37.841 55.478 37.887 55.478 37.932L55.478 38.45C55.478 38.469 55.478 38.496 55.481 38.515L55.487 38.536L55.497 38.545"/>
         <path stroke-width="0.106" d="M55.554 38.628L55.509 38.667L55.485 38.679L55.45 38.674L29.574 35.497L29.516 35.482C29.501 35.465 29.5 35.448 29.495 35.427L29.489 35.402L29.486 35.371L29.486 35.341L29.486 35.305L29.486 34.787C29.486 34.753 29.486 34.718 29.489 34.682C29.492 34.649 29.5 34.616 29.509 34.584C29.519 34.545 29.513 34.563 29.527 34.529L29.539 34.503L29.55 34.487C29.57 34.462 29.557 34.476 29.589 34.448L29.753 34.301C29.753 34.301 29.783 34.268 29.803 34.265L29.838 34.27L55.715 37.448L55.75 37.451C55.774 37.457 55.784 37.475 55.789 37.5"/>
         <path stroke-width="0.106" d="M30.073 36.96L30.073 36.923L30.073 35.86L30.071 35.804C30.068 35.78 30.059 35.765 30.047 35.743L29.954 35.575L29.937 35.543L29.937 35.542"/>
         <path stroke-width="0.106" d="M30.155 37.645L30.182 37.619C30.182 37.619 30.213 37.597 30.222 37.579C30.242 37.539 30.24 37.493 30.24 37.448L30.24 37.015L30.24 36.979"/>
         <path stroke-width="0.106" d="M55.485 38.679L55.463 38.668C55.448 38.651 55.447 38.634 55.442 38.613L55.435 38.588L55.433 38.557L55.432 38.527L55.432 38.49L55.432 37.973C55.432 37.939 55.432 37.904 55.435 37.868C55.439 37.835 55.447 37.801 55.456 37.77C55.466 37.731 55.46 37.749 55.475 37.713L55.485 37.689L55.497 37.673L55.509 37.658L55.536 37.634L55.7 37.487C55.732 37.457 55.716 37.468 55.75 37.451"/>
         <path stroke-width="0.106" d="M55.554 38.502L55.509 38.542L55.497 38.545"/>
         <path stroke-width="0.106" d="M56.079 38.863L56.06 38.859L56.027 38.81L56.005 38.77L55.987 38.738"/>
         <path stroke-width="0.106" d="M56.02 40.146L56.02 40.109L56.02 39.046L56.02 39.011L56.018 38.99C56.017 38.966 56.006 38.951 55.993 38.929L55.902 38.761L55.884 38.729L55.884 38.725"/>
         <path stroke-width="0.106" d="M55.834 40.722C55.844 40.695 55.845 40.694 55.85 40.664C55.853 40.64 55.853 40.616 55.853 40.594L55.853 40.161L55.853 40.125"/>
         <path stroke-width="0.106" d="M55.503 41.155L55.476 41.179L55.462 41.192C55.432 41.218 55.447 41.215 55.426 41.218"/>
         <path stroke-width="0.106" d="M55.49 41.031C55.514 41.024 55.5 41.03 55.53 41.003L55.573 40.965L55.6 40.941"/>
         <path stroke-width="0.106" d="M55.424 40.883L55.426 40.887L55.426 40.923C55.426 40.963 55.424 41.003 55.427 41.043L55.429 41.076L55.435 41.1C55.439 41.121 55.441 41.137 55.457 41.155L55.478 41.165"/>
         <path stroke-width="0.106" d="M55.442 40.749L55.423 40.756C55.423 40.756 55.402 40.786 55.396 40.804L55.387 40.826C55.375 40.874 55.372 40.923 55.372 40.97L55.372 41.194C55.372 41.222 55.372 41.252 55.375 41.28L55.381 41.298L55.399 41.343L55.415 41.351"/>
        </g>
       </g>
       <g id="NSYSFV20_Reality.ASM_3_1">
        <desc>NSYSFV20_Reality.ASM</desc>
        <g id="NSYSFV20_04_Reality.PRT_7_1">
         <desc>NSYSFV20_04_Reality.PRT</desc>
         <line stroke-width="0.106" x1="30.015" y1="37.167" x2="30.015" y2="35.686"/>
         <path stroke-width="0.106" d="M25.772 34.024L25.783 34.04C25.801 34.058 25.829 34.067 25.853 34.073C25.885 34.082 25.919 34.087 25.952 34.091L29.298 34.502C29.324 34.505 29.35 34.509 29.375 34.505L29.391 34.496L29.419 34.472L29.94 34.003L29.968 33.978"/>
         <path stroke-width="0.106" d="M29.486 35.371L29.46 35.396L29.419 35.432L29.391 35.457L29.349 35.466L29.335 35.466L29.298 35.462L25.952 35.051C25.919 35.046 25.885 35.042 25.853 35.033C25.832 35.027 25.824 35.027 25.803 35.015L25.772 34.984L25.772 34.948L25.772 34.06L25.772 34.024L25.774 34.008L25.786 33.99L25.812 33.966L27.021 32.878L27.047 32.854L27.065 32.847C27.089 32.841 27.114 32.847 27.14 32.85L28.413 33.006L28.449 33.011"/>
         <path stroke-width="0.106" d="M27.079 32.853C27.117 32.844 27.097 32.845 27.141 32.85L28.413 33.006L28.448 33.012"/>
        </g>
        <g id="NSYSFV20_12_Reality.PRT_3_1">
         <desc>NSYSFV20_12_Reality.PRT</desc>
         <line stroke-width="0.106" x1="27.521" y1="49.6" x2="27.521" y2="35.234"/>
         <line stroke-width="0.106" x1="29.646" y1="37.566" x2="29.646" y2="49.6"/>
         <line stroke-width="0.106" x1="29.646" y1="49.6" x2="29.646" y2="37.566"/>
         <line stroke-width="0.106" x1="29.954" y1="37.161" x2="30.079" y2="37.176"/>
         <line stroke-width="0.106" x1="30.079" y1="37.176" x2="30.079" y2="37.634"/>
         <line stroke-width="0.106" x1="29.704" y1="37.514" x2="29.76" y2="37.789"/>
         <line stroke-width="0.106" x1="29.704" y1="37.514" x2="29.579" y2="37.497"/>
         <line stroke-width="0.106" x1="29.574" y1="37.497" x2="29.574" y2="37.503"/>
         <line stroke-width="0.106" x1="29.661" y1="35.509" x2="29.771" y2="37.106"/>
         <line stroke-width="0.106" x1="27.562" y1="35.238" x2="27.562" y2="49.6"/>
         <line stroke-width="0.106" x1="29.611" y1="35.503" x2="29.725" y2="37.149"/>
         <line stroke-width="0.106" x1="29.771" y1="37.106" x2="29.725" y2="37.149"/>
         <line stroke-width="0.106" x1="29.89" y1="37.215" x2="29.763" y2="37.2"/>
         <line stroke-width="0.106" x1="29.987" y1="37.259" x2="29.862" y2="37.243"/>
         <path stroke-width="0.106" d="M25.771 49.6C25.771 36.387 25.771 35.127 25.771 35.127L25.771 35.091L25.786 35.07L25.832 35.027"/>
         <path stroke-width="0.106" d="M29.574 37.497C29.53 37.493 29.487 37.487 29.445 37.481C29.422 37.49 29.399 37.491 29.376 37.493C29.309 37.49 29.245 37.475 29.179 37.472C29.144 37.473 29.111 37.475 29.077 37.485L29.033 37.511L29.032 37.518L29.032 37.554C29.032 37.554 29.032 40.786 29.032 49.594"/>
         <path stroke-width="0.106" d="M29.954 37.161L29.928 37.185L29.888 37.219L29.862 37.243L29.856 37.279L29.812 37.581L29.806 37.616"/>
         <path stroke-width="0.106" d="M29.771 37.106C29.812 37.112 29.855 37.118 29.89 37.14L29.917 37.17L29.917 37.194"/>
         <path stroke-width="0.106" d="M29.175 37.518L29.21 37.523L29.428 37.554C29.454 37.557 29.49 37.567 29.516 37.554L29.521 37.551L29.548 37.527L29.553 37.521L29.579 37.497"/>
         <path stroke-width="0.106" d="M29.711 37.548L29.718 37.512L29.759 37.234L29.763 37.2L29.778 37.186L29.783 37.176"/>
         <path stroke-width="0.106" d="M25.905 35.097C25.91 35.115 25.949 35.122 25.949 35.122L25.963 35.125L25.998 35.128L26.515 35.192C26.547 35.195 26.579 35.201 26.611 35.197L26.658 35.183L26.664 35.179L26.684 35.161L26.704 35.143"/>
         <path stroke-width="0.106" d="M26.83 35.158C26.83 35.158 26.797 35.192 26.777 35.204C26.759 35.216 26.736 35.222 26.716 35.228C26.667 35.24 26.617 35.243 26.565 35.243C26.533 35.24 26.501 35.237 26.469 35.234L25.952 35.17C25.907 35.164 25.859 35.159 25.817 35.142C25.817 35.142 25.777 35.121 25.771 35.101L25.771 35.091"/>
         <path stroke-width="0.106" d="M25.951 35.051L25.931 35.067L25.905 35.097"/>
         <path stroke-width="0.106" d="M29.934 37.616L29.94 37.582L29.983 37.295L29.987 37.259L30.015 37.234L30.053 37.2L30.079 37.176"/>
         <path stroke-width="0.106" d="M29.917 37.18L29.903 37.201L29.888 37.219"/>
         <path stroke-width="0.106" d="M29.783 37.176L29.763 37.156L29.725 37.149"/>
         <path stroke-width="0.106" d="M29.175 37.518C29.268 37.529 29.361 37.545 29.455 37.531C29.496 37.527 29.536 37.517 29.574 37.497"/>
         <path stroke-width="0.106" d="M29.032 37.518L29.032 37.526L29.045 37.539L29.085 37.557L29.103 37.561L29.125 37.564L29.16 37.569L29.382 37.597C29.44 37.603 29.496 37.607 29.554 37.598C29.576 37.595 29.599 37.591 29.62 37.582C29.641 37.573 29.655 37.557 29.673 37.542L29.678 37.537L29.704 37.514"/>
        </g>
       </g>
       <g id="NSYSFV20_Reality.ASM_2_1">
        <desc>NSYSFV20_Reality.ASM</desc>
        <g id="NSYSFV20_04_Reality.PRT_5_1">
         <desc>NSYSFV20_04_Reality.PRT</desc>
         <path stroke-width="0.106" d="M82.528 18.067C82.549 18.07 82.572 18.074 82.596 18.068L82.612 18.062L82.64 18.038L83.849 16.949L83.875 16.925L83.887 16.908L83.888 16.893L83.888 16.856L83.888 15.968C83.888 15.943 83.878 15.916 83.878 15.916C83.858 15.897 83.831 15.89 83.807 15.882C83.774 15.874 83.74 15.869 83.707 15.865L80.361 15.455L80.325 15.451L80.311 15.449L80.268 15.46L80.242 15.483L79.891 15.798L79.865 15.821"/>
         <path stroke-width="0.106" d="M80.299 15.457C80.338 15.448 80.317 15.451 80.362 15.455L83.682 15.862C83.712 15.867 83.743 15.869 83.774 15.88C83.793 15.887 83.813 15.897 83.834 15.906"/>
         <path stroke-width="0.106" d="M83.888 15.932L83.887 15.948L83.849 15.99L82.64 17.077L82.612 17.102L82.569 17.111L82.555 17.111L82.521 17.106L81.248 16.949L81.212 16.946"/>
        </g>
        <g id="NSYSFV20_12_Reality.PRT_2_1">
         <desc>NSYSFV20_12_Reality.PRT</desc>
         <path stroke-width="0.106" d="M83.888 17.024L83.884 17.035L83.875 17.045L83.849 17.068L83.685 17.216L83.646 17.25C83.626 17.262 83.605 17.268 83.584 17.274C83.546 17.283 83.51 17.286 83.471 17.288"/>
         <path stroke-width="0.106" d="M83.888 49.601C83.888 23.431 83.888 17.059 83.888 17.059L83.888 17.024L83.888 17.013L83.875 16.993L83.826 16.969"/>
        </g>
       </g>
       <g id="NSYSFV20_Reality.ASM_1_1">
        <desc>NSYSFV20_Reality.ASM</desc>
        <g id="NSYSFV20_04_Reality.PRT_3_1">
         <desc>NSYSFV20_04_Reality.PRT</desc>
         <line stroke-width="0.106" x1="56.18" y1="40.393" x2="56.18" y2="38.762"/>
         <path stroke-width="0.106" d="M59.006 36.762L59.04 36.768L60.487 36.945L60.523 36.95L60.534 36.951L60.549 36.96L60.551 36.963L60.551 37L60.551 37.887L60.551 37.923L60.548 37.929L60.521 37.951L59.314 39.04C59.314 39.04 59.284 39.07 59.264 39.079C59.243 39.091 59.234 39.091 59.213 39.097C59.174 39.106 59.137 39.109 59.098 39.112L59.048 39.112C59.021 39.11 58.993 39.107 58.965 39.103L55.618 38.692L55.561 38.682L55.554 38.639L55.554 37.75L55.554 37.713L55.557 37.71L55.582 37.686L56.106 37.216L56.133 37.191"/>
         <path stroke-width="0.106" d="M60.53 36.96L60.469 36.944L60.435 36.939L59.039 36.768L59.005 36.764"/>
         <path stroke-width="0.106" d="M60.551 36.963L60.548 36.969L60.521 36.993L59.314 38.081C59.314 38.081 59.284 38.109 59.264 38.119C59.243 38.131 59.234 38.131 59.213 38.137C59.174 38.146 59.137 38.149 59.098 38.152L59.048 38.152C59.021 38.151 58.993 38.148 58.965 38.143L55.618 37.734L55.582 37.728L55.554 37.713"/>
        </g>
        <g id="NSYSFV20_12_Reality.PRT_1_1">
         <desc>NSYSFV20_12_Reality.PRT</desc>
         <line stroke-width="0.106" x1="56.078" y1="40.462" x2="55.951" y2="40.447"/>
         <line stroke-width="0.106" x1="56.112" y1="40.435" x2="56.238" y2="40.45"/>
         <line stroke-width="0.106" x1="58.637" y1="39.136" x2="58.637" y2="39.064"/>
         <line stroke-width="0.106" x1="55.795" y1="40.716" x2="55.668" y2="40.701"/>
         <line stroke-width="0.106" x1="56.368" y1="40.418" x2="56.481" y2="38.798"/>
         <line stroke-width="0.106" x1="55.799" y1="40.718" x2="55.929" y2="40.734"/>
         <line stroke-width="0.106" x1="55.796" y1="40.726" x2="55.795" y2="40.716"/>
         <line stroke-width="0.106" x1="56.17" y1="40.38" x2="56.17" y2="40.399"/>
         <line stroke-width="0.106" x1="56.17" y1="40.38" x2="56.043" y2="40.363"/>
         <path stroke-width="0.106" d="M59.517 38.969L59.512 38.978L59.503 38.99L59.476 39.014L59.314 39.161L59.274 39.194C59.255 39.206 59.232 39.213 59.212 39.218C59.162 39.229 59.112 39.232 59.061 39.232C59.03 39.231 58.997 39.228 58.965 39.223L58.45 39.161C58.404 39.155 58.356 39.151 58.313 39.131C58.313 39.131 58.273 39.112 58.268 39.093L58.268 39.082"/>
         <path stroke-width="0.106" d="M56.368 40.418L56.337 40.417C56.317 40.417 56.298 40.418 56.28 40.424L56.253 40.436L56.238 40.45L56.232 40.485L56.192 40.765L56.186 40.799"/>
         <path stroke-width="0.106" d="M56.17 40.38L56.143 40.402L56.103 40.438L56.078 40.462L56.072 40.497L56.037 40.731L56.031 40.768"/>
         <path stroke-width="0.106" d="M55.795 40.738L55.799 40.75C55.813 40.77 55.838 40.78 55.859 40.786C55.887 40.795 55.914 40.798 55.941 40.804C55.979 40.81 56.02 40.817 56.058 40.823"/>
         <path stroke-width="0.106" d="M55.734 40.776L55.737 40.77C55.755 40.752 55.776 40.734 55.795 40.716"/>
         <path stroke-width="0.106" d="M55.6 40.771L55.6 40.781L55.615 40.798C55.615 40.798 55.649 40.816 55.667 40.82C55.695 40.829 55.723 40.831 55.752 40.835L55.973 40.862C56.002 40.865 56.027 40.868 56.055 40.868C56.091 40.868 56.128 40.865 56.161 40.854L56.201 40.826L56.201 40.819"/>
         <path stroke-width="0.106" d="M58.448 39.04L58.427 39.058L58.402 39.087"/>
         <path stroke-width="0.106" d="M58.322 39.024L58.281 39.06L58.268 39.082L58.268 39.118C58.268 39.118 58.268 42.99 58.268 49.554"/>
         <path stroke-width="0.106" d="M59.517 49.601C59.517 39.679 59.517 39.005 59.517 39.005L59.517 38.969L59.517 38.959L59.503 38.938L59.456 38.912"/>
         <path stroke-width="0.106" d="M59.258 39.082L59.231 39.106L59.188 39.145L59.146 39.177C59.124 39.186 59.1 39.188 59.076 39.189C59.054 39.188 59.033 39.185 59.011 39.182L58.496 39.118L58.46 39.115L58.447 39.112C58.447 39.112 58.406 39.104 58.402 39.087"/>
         <path stroke-width="0.106" d="M55.799 40.718L55.795 40.728L55.795 40.738L55.795 40.792"/>
         <path stroke-width="0.106" d="M55.668 40.701C55.651 40.718 55.628 40.737 55.61 40.753L55.6 40.771L55.6 40.807C55.6 40.807 55.6 44.021 55.6 49.569"/>
         <path stroke-width="0.106" d="M56.201 49.6C56.201 41.326 56.201 40.854 56.201 40.854L56.198 40.811L56.167 40.789C56.137 40.779 56.104 40.777 56.073 40.773L56.023 40.767L55.987 40.762L55.972 40.759C55.972 40.759 55.932 40.752 55.929 40.734"/>
         <path stroke-width="0.106" d="M56.371 40.374L56.351 40.372C56.286 40.372 56.218 40.375 56.158 40.402L56.127 40.421L56.112 40.435L56.107 40.469L56.067 40.735L56.063 40.771"/>
         <path stroke-width="0.106" d="M56.058 40.823L56.023 40.82L55.798 40.792L55.762 40.787L55.734 40.776"/>
         <path stroke-width="0.106" d="M55.909 40.731L55.914 40.695L55.947 40.481L55.951 40.447L55.978 40.423L56.017 40.387L56.043 40.363"/>
        </g>
       </g>
       <g id="NSYSFV20_Reality.ASM_4">
        <desc>NSYSFV20_Reality.ASM</desc>
        <g id="NSYSFV20_04_Reality.PRT_1_1">
         <desc>NSYSFV20_04_Reality.PRT</desc>
         <path stroke-width="0.106" d="M50.529 11.806C50.502 11.807 50.473 11.813 50.448 11.818C50.426 11.824 50.417 11.826 50.396 11.836C50.377 11.846 50.347 11.875 50.347 11.875L49.137 12.964L49.112 12.987L49.109 12.993L49.109 13.028L49.109 13.096L49.109 13.131"/>
         <path stroke-width="0.106" d="M50.418 11.842C50.447 11.83 50.475 11.816 50.505 11.81C50.561 11.798 50.615 11.803 50.67 11.81L53.99 12.217L54.024 12.221L54.085 12.237"/>
         <path stroke-width="0.106" d="M50.645 11.807L50.659 11.807L50.695 11.813L54.042 12.223L54.078 12.227L54.09 12.23L54.098 12.234L54.106 12.278L54.106 12.32L54.106 12.355"/>
         <path stroke-width="0.106" d="M50.351 13.156L50.317 13.151L49.173 13.012L49.137 13.006L49.109 12.993"/>
         <path stroke-width="0.106" d="M53.701 12.609L53.728 12.586L54.078 12.271L54.103 12.246L54.106 12.243"/>
        </g>
       </g>
      </g>
     </g>
    </g>
   </g>
  </g>
  <path stroke-width="0.353" d="M0.176 0.176L0.176 49.423 93.364 49.423 93.364 0.176 0.176 0.176z"/>
 </g>
 <g id="top_x0020_entry_x0020_cabinet_x0020_with_x0020_front_x0020_plates_x0020_on">
 </g>
 <g id="outline_x0020_layer">
  <line stroke-width="0.353" x1="50.39" y1="12.058" x2="0.5" y2="5.663"/>
  <polyline stroke-width="0.353" points="50.39 12.058 83.808 16.015 83.808 49.408"/>
  <polyline stroke-width="0.353" points="51.332 12.428 27.969 33.465 58.417 37.203 81.688 16.25 51.32 12.521"/>
 </g>
 <g id="_x0020_cable_x0020_layer">
 </g>
 <g id="symbol_x0020_layer">
 </g>
 <g id="arrow_x0020_layer">
  <g>
   <polygon stroke="none" fill="#FFFFFF" points="55.682 3.427 54.348 8.4 57.014 8.4"/>
   <line stroke="#FFFFFF" stroke-width="0.6" x1="55.682" y1="24.481" x2="55.682" y2="7.801"/>
   <polygon stroke="none" fill="#000000" points="55.682 4.2 54.609 8.201 56.753 8.201"/>
   <line stroke-width="0.2" stroke-dasharray="1 1" x1="55.682" y1="24.881" x2="55.682" y2="8.801"/>
   <line stroke-width="0.2" x1="55.682" y1="8.801" x2="55.682" y2="7.801"/>
  </g>
  <path stroke-width="0.106" stroke-dasharray="5 1 1 1" d="M38.567 30.751L32.518 30.007L28.981 33.192L35.031 33.935L37.825 31.42"/>
  <line stroke-width="0.106" x1="37.825" y1="31.42" x2="38.567" y2="30.751"/>
  <path stroke-width="0.106" stroke-dasharray="5 1 1 1" d="M34.524 29.222L60.911 32.462L77.965 17.106L51.578 13.867L35.267 28.553"/>
  <line stroke-width="0.106" x1="35.267" y1="28.553" x2="34.524" y2="29.222"/>
 </g>
 <g id="_x0020_text_x0020_layer">
  <text x="25.946" y="7.296" stroke="none" fill="#000000" font-family="'Arial'" font-size="3.528">Signal cables</text>
  <g>
   <line stroke="#FFFFFF" stroke-width="1" x1="68.123" y1="22.135" x2="68.123" y2="11.064"/>
   <line stroke-width="0.106" x1="68.123" y1="22.135" x2="68.123" y2="11.064"/>
  </g>
  <text x="64.694" y="10.124" stroke="none" fill="#000000" font-family="'Arial'" font-size="3.528">Power cables</text>
  <g>
   <line stroke="#FFFFFF" stroke-width="1" x1="34.279" y1="31.461" x2="34.279" y2="8.409"/>
   <line stroke-width="0.106" x1="34.279" y1="31.461" x2="34.279" y2="8.409"/>
  </g>
 </g>
 <g id="text-_x0020_DO_x0020_NOT_x0020_translate">
 </g>
 <g id="_x0020_callout_x0020_layer">
 </g>
</svg>
