<?xml version="1.0" encoding="UTF-8"?>
<!-- Generator: PTC Arbortext IsoDraw 7.4 M001 -->
<svg xmlns="http://www.w3.org/2000/svg" xmlns:xlink="http://www.w3.org/1999/xlink" width="120.156mm" height="58.128mm" viewBox="0 0 120.156 58.128" fill-rule="evenodd" clip-rule="evenodd" stroke="#000000" stroke-linecap="round" fill="none" xml:space="preserve" preserveAspectRatio="xMidYMid meet" zoomAndPan="magnify" version="1.1" contentScriptType="text/ecmascript" contentStyleType="text/css">
 <g id="Standard_x0020_layer">
  <path stroke-width="0.353" fill="#B2B2B2" d="M24.681 53.564L3.459 45.606 33.524 33.226 54.747 41.185 24.681 53.564z"/>
  <path stroke-width="0.353" fill="#FFFFFF" d="M56.261 40.222L35.037 32.264 65.103 19.884 86.325 27.841 56.261 40.222z"/>
  <path stroke-width="0.353" fill="#B2B2B2" d="M88.177 27.205L66.953 19.246 80.231 13.756 101.349 21.722 88.177 27.205z"/>
  <line stroke-width="0.353" x1="55.226" y1="43.241" x2="28.324" y2="54.567"/>
  <path stroke-width="0.353" fill="#000000" d="M27.964 54.935C28.309 54.902 28.545 54.905 28.832 54.902L28.446 53.975C28.375 54.052 28.076 54.34 27.806 54.557 27.519 54.789 27.25 54.976 27.065 55.079 27.269 55.024 27.594 54.97 27.964 54.935z"/>
  <path stroke-width="0.353" fill="#000000" d="M55.588 42.875C55.241 42.908 55.008 42.905 54.72 42.908L55.106 43.835C55.176 43.756 55.475 43.47 55.744 43.253 56.033 43.021 56.302 42.834 56.485 42.731 56.283 42.786 55.957 42.84 55.588 42.875z"/>
  <line stroke-width="0.353" x1="86.528" y1="29.96" x2="59.627" y2="41.286"/>
  <path stroke-width="0.353" fill="#000000" d="M59.265 41.654C59.612 41.619 59.845 41.624 60.133 41.621L59.747 40.695C59.676 40.771 59.378 41.058 59.109 41.274 58.82 41.506 58.551 41.695 58.368 41.798 58.57 41.743 58.896 41.689 59.265 41.654z"/>
  <path stroke-width="0.353" fill="#000000" d="M86.888 29.594C86.543 29.626 86.308 29.623 86.022 29.626L86.406 30.553C86.477 30.475 86.778 30.189 87.046 29.972 87.334 29.74 87.603 29.551 87.787 29.449 87.584 29.504 87.257 29.557 86.888 29.594z"/>
  <line stroke-width="0.353" x1="89.37" y1="28.664" x2="102.388" y2="23.3"/>
  <path stroke-width="0.353" fill="#000000" d="M102.756 22.919C102.411 22.951 102.176 22.949 101.888 22.951L102.274 23.878C102.344 23.8 102.644 23.513 102.914 23.297 103.2 23.065 103.471 22.876 103.655 22.774 103.45 22.829 103.125 22.882 102.756 22.919z"/>
  <path stroke-width="0.353" fill="#000000" d="M89.632 28.751C89.977 28.719 90.212 28.722 90.5 28.719L90.114 27.792C90.043 27.87 89.743 28.157 89.474 28.373 89.186 28.606 88.917 28.794 88.733 28.896 88.936 28.841 89.263 28.788 89.632 28.751z"/>
  <polygon stroke="none" points="120 10.374 0 10.374 0 58.128 120 58.128 120 10.374"/>
  <line stroke-width="0.353" x1="49.162" y1="30.721" x2="48.738" y2="1.535"/>
  <path stroke-width="0.353" fill="#000000" d="M48.533 1.064C48.435 1.397 48.344 1.613 48.24 1.879L49.243 1.87C49.198 1.774 49.043 1.39 48.944 1.06 48.837 0.706 48.762 0.385 48.737 0.177 48.71 0.386 48.639 0.708 48.533 1.064z"/>
  <path stroke-width="0.353" fill="#000000" d="M49.368 31.193C49.466 30.859 49.557 30.643 49.661 30.376L48.658 30.387C48.704 30.481 48.857 30.867 48.957 31.196 49.064 31.55 49.139 31.871 49.164 32.079 49.191 31.87 49.262 31.548 49.368 31.193z"/>
 </g>
 <g id="120mm_x0020_hidden_x0020_Schneider_x0020_layer_x0020_for_x0020_editor">
  <polygon stroke="none" points="0.157 48.822 0.157 57.822 120.156 57.822 120.156 48.822 0.157 48.822"/>
 </g>
 <g id="cutout_x0020_layer">
 </g>
 <g id="outline_x0020_layer">
 </g>
 <g id="zoom_x0020_layer">
 </g>
 <g id="arrow_x0020_layer">
 </g>
 <g id="_x0020_cable_x0020_layer">
 </g>
 <g id="symbol_x0020_layer">
 </g>
 <g id="_x0020_text_x0020_layer">
  <g>
   <text x="19.024" y="42.942" stroke="none" fill="#000000" font-family="'Arial'" font-size="3.174">Minimum front </text>
   <text x="19.024" y="46.47" stroke="none" fill="#000000" font-family="'Arial'" font-size="3.174">clearance</text>
  </g>
  <g>
   <text x="74.777" y="18.533" stroke="none" fill="#000000" font-family="'Arial'" font-size="3.174">Minimum </text>
   <text x="74.777" y="22.062" stroke="none" fill="#000000" font-family="'Arial'" font-size="3.174">rear clearance</text>
  </g>
  <g>
   <text x="54.892" y="29.006" stroke="none" fill="#000000" font-family="'Arial'" font-size="3.174">Battery</text>
   <text x="54.892" y="32.533" stroke="none" fill="#000000" font-family="'Arial'" font-size="3.174">cabinet</text>
  </g>
  <g>
   <text x="29.579" y="6.291" stroke="none" fill="#000000" font-family="'Arial'" font-size="3.174">Minimum top </text>
   <text x="29.579" y="9.818" stroke="none" fill="#000000" font-family="'Arial'" font-size="3.174">clearance:</text>
  </g>
 </g>
 <g id="text-_x0020_DO_x0020_NOT_x0020_translate">
  <g>
   <text x="39.884" y="52.658" stroke="none" fill="#000000" font-family="'Arial'" font-size="3.174">600 mm/</text>
   <text x="39.884" y="56.185" stroke="none" fill="#000000" font-family="'Arial'" font-size="3.174">800 mm</text>
  </g>
  <text x="69.865" y="39.865" stroke="none" fill="#000000" font-family="'Arial'" font-size="3.174">800 mm</text>
  <text x="96.462" y="28.574" stroke="none" fill="#000000" font-family="'Arial'" font-size="3.174">17 mm</text>
  <text x="29.579" y="13.791" stroke="none" fill="#000000" font-family="'Arial'" font-size="3.174">530 mm</text>
 </g>
 <g id="_x0020_callout_x0020_layer">
 </g>
</svg>
