<?xml version="1.0" encoding="UTF-8"?>
<!-- Generator: PTC Arbortext IsoDraw 7.4 M001 -->
<svg xmlns="http://www.w3.org/2000/svg" xmlns:xlink="http://www.w3.org/1999/xlink" width="120mm" height="51.905mm" viewBox="0 0 120 51.905" fill-rule="evenodd" clip-rule="evenodd" stroke="#000000" stroke-linecap="round" fill="none" xml:space="preserve" preserveAspectRatio="xMidYMid meet" zoomAndPan="magnify" version="1.1" contentScriptType="text/ecmascript" contentStyleType="text/css">
 <g id="Standard_x0020_layer">
  <path stroke-width="0.353" fill="#FFFFFF" d="M56.104 26.836L34.881 18.879 64.947 6.498 86.17 14.457 56.104 26.836z"/>
  <path stroke-width="0.353" fill="#B2B2B2" d="M87.658 13.625L66.435 5.668 79.712 0.176 100.831 8.141 87.658 13.625z"/>
  <line stroke-width="0.353" x1="64.947" y1="6.498" x2="99.73" y2="19.606"/>
  <line stroke-width="0.353" x1="34.881" y1="18.879" x2="69.51" y2="32.237"/>
  <line stroke-width="0.353" x1="99.575" y1="19.856" x2="69.51" y2="32.237"/>
  <path stroke-width="0.353" fill="#B2B2B2" d="M33.368 19.841L3.302 32.222 38.393 45.332 67.87 32.859 33.368 19.841z"/>
  <path stroke-width="0.353" fill="#B2B2B2" d="M79.712 0.176L113.7 12.954 100.924 18.69 66.435 5.668 79.712 0.176z"/>
 </g>
 <g id="120mm_x0020_hidden_x0020_Schneider_x0020_layer_x0020_for_x0020_editor">
  <polygon stroke="none" points="0 42.865 0 51.865 120 51.865 120 42.865 0 42.865"/>
 </g>
 <g id="cutout_x0020_layer">
 </g>
 <g id="outline_x0020_layer">
 </g>
 <g id="zoom_x0020_layer">
 </g>
 <g id="arrow_x0020_layer">
  <g>
   <line stroke-width="0.353" x1="101.265" y1="20.106" x2="114.281" y2="14.742"/>
   <path stroke-width="0.353" fill="#000000" d="M114.65 14.359C114.304 14.393 114.069 14.39 113.783 14.393L114.168 15.319C114.239 15.242 114.537 14.955 114.807 14.737 115.094 14.506 115.364 14.317 115.548 14.215 115.344 14.269 115.019 14.323 114.65 14.359z"/>
   <path stroke-width="0.353" fill="#000000" d="M101.527 20.193C101.871 20.16 102.106 20.164 102.393 20.161L102.007 19.234C101.936 19.312 101.638 19.599 101.368 19.815 101.081 20.047 100.811 20.236 100.628 20.338 100.831 20.283 101.156 20.228 101.527 20.193z"/>
  </g>
  <g>
   <line stroke-width="0.353" x1="98.784" y1="21.597" x2="71.882" y2="32.923"/>
   <path stroke-width="0.353" fill="#000000" d="M71.522 33.289C71.867 33.256 72.102 33.259 72.39 33.256L72.004 32.331C71.933 32.408 71.634 32.695 71.364 32.911 71.076 33.143 70.807 33.332 70.623 33.435 70.826 33.38 71.153 33.326 71.522 33.289z"/>
   <path stroke-width="0.353" fill="#000000" d="M99.144 21.231C98.799 21.263 98.564 21.26 98.278 21.263L98.664 22.19C98.734 22.111 99.034 21.826 99.302 21.609 99.59 21.376 99.861 21.189 100.043 21.085 99.84 21.14 99.515 21.195 99.144 21.231z"/>
  </g>
  <g>
   <line stroke-width="0.353" x1="67.483" y1="34.878" x2="40.582" y2="46.204"/>
   <path stroke-width="0.353" fill="#000000" d="M40.22 46.57C40.567 46.537 40.801 46.54 41.088 46.539L40.703 45.612C40.631 45.689 40.332 45.975 40.064 46.192 39.776 46.424 39.506 46.612 39.323 46.716 39.526 46.661 39.851 46.606 40.22 46.57z"/>
   <path stroke-width="0.353" fill="#000000" d="M67.843 34.512C67.498 34.545 67.263 34.542 66.977 34.545L67.361 35.47C67.433 35.393 67.733 35.106 68.001 34.89 68.289 34.658 68.558 34.469 68.742 34.366 68.539 34.421 68.212 34.475 67.843 34.512z"/>
  </g>
  <g>
   <line stroke-width="0.353" x1="2.137" y1="34.14" x2="35.167" y2="47.149"/>
   <path stroke-width="0.353" fill="#000000" d="M1.6 34.168C1.887 34.39 2.064 34.561 2.285 34.767L2.655 33.765C2.546 33.774 2.112 33.783 1.75 33.759 1.365 33.734 1.024 33.686 0.811 33.636 1.004 33.738 1.292 33.93 1.6 34.168z"/>
   <path stroke-width="0.353" fill="#000000" d="M35.759 47.136C35.472 46.914 35.295 46.741 35.075 46.537L34.704 47.539C34.814 47.53 35.246 47.521 35.607 47.545 35.993 47.57 36.335 47.616 36.548 47.668 36.353 47.564 36.067 47.372 35.759 47.136z"/>
  </g>
 </g>
 <g id="_x0020_cable_x0020_layer">
 </g>
 <g id="symbol_x0020_layer">
 </g>
 <g id="_x0020_text_x0020_layer">
  <g>
   <text x="29.091" y="32.213" stroke="none" fill="#000000" font-family="'Arial'" font-size="3.174">Minimum front </text>
   <text x="29.091" y="35.741" stroke="none" fill="#000000" font-family="'Arial'" font-size="3.174">clearance</text>
  </g>
  <text x="53.819" y="15.865" stroke="none" fill="#000000" font-family="'Arial'" font-size="3.174">UPS cabinet</text>
  <g>
   <text x="79.129" y="6.761" stroke="none" fill="#000000" font-family="'Arial'" font-size="3.174">Minimum </text>
   <text x="79.129" y="10.288" stroke="none" fill="#000000" font-family="'Arial'" font-size="3.174">rear clearance</text>
  </g>
  <g>
   <text x="72.784" y="22.361" stroke="none" fill="#000000" font-family="'Arial'" font-size="3.174">Top entry </text>
   <text x="74.813" y="25.89" stroke="none" fill="#000000" font-family="'Arial'" font-size="3.174">cabinet</text>
  </g>
 </g>
 <g id="text-_x0020_DO_x0020_NOT_x0020_translate">
  <g>
   <text x="50.726" y="46.966" stroke="none" fill="#000000" font-family="'Arial'" font-size="3.174">800 mm</text>
   <text x="50.726" y="50.493" stroke="none" fill="#000000" font-family="'Arial'" font-size="3.174">(31.5 in)</text>
  </g>
  <g>
   <text x="81.73" y="33.78" stroke="none" fill="#000000" font-family="'Arial'" font-size="3.174">800 mm</text>
   <text x="81.73" y="37.308" stroke="none" fill="#000000" font-family="'Arial'" font-size="3.174">(31.5 in)</text>
  </g>
  <g>
   <text x="6.387" y="44.021" stroke="none" fill="#000000" font-family="'Arial'" font-size="3.174">1000 mm</text>
   <text x="6.387" y="47.548" stroke="none" fill="#000000" font-family="'Arial'" font-size="3.174">(39.4 in)</text>
  </g>
  <g>
   <text x="107.162" y="21.344" stroke="none" fill="#000000" font-family="'Arial'" font-size="3.174">100 mm</text>
   <text x="107.162" y="24.87" stroke="none" fill="#000000" font-family="'Arial'" font-size="3.174">(4 in)</text>
  </g>
 </g>
 <g id="_x0020_callout_x0020_layer">
 </g>
</svg>
