<?xml version="1.0" encoding="UTF-8"?>
<!-- Generator: PTC Arbortext IsoDraw 7.4 M001 -->
<svg xmlns="http://www.w3.org/2000/svg" xmlns:xlink="http://www.w3.org/1999/xlink" width="100%" height="100%" viewBox="0 0 85 60.978" fill-rule="evenodd" clip-rule="evenodd" stroke="#000000" stroke-linecap="round" fill="none" xml:space="preserve" preserveAspectRatio="xMidYMid meet" zoomAndPan="magnify" version="1.1" contentScriptType="text/ecmascript" contentStyleType="text/css">
 <g id="Standard_x0020_layer">
  <g>
   <polygon stroke-width="0.2" points="51.034 12.88 51.034 54.993 63.6 54.993 63.6 12.88 51.034 12.88"/>
   <polygon stroke-width="0.2" points="51.034 12.88 51.034 20.228 63.6 20.228 63.6 12.88 51.034 12.88"/>
   <polygon stroke-width="0.2" points="51.034 47.646 51.034 54.993 63.6 54.993 63.6 47.646 51.034 47.646"/>
   <polygon stroke-width="0.2" points="51.034 40.298 51.034 47.646 63.6 47.646 63.6 40.298 51.034 40.298"/>
   <polygon stroke-width="0.2" points="51.034 32.951 51.034 40.298 63.6 40.298 63.6 32.951 51.034 32.951"/>
  </g>
  <g>
   <polygon stroke-width="0.2" points="21.15 12.88 21.15 54.993 33.716 54.993 33.716 12.88 21.15 12.88"/>
   <polygon stroke-width="0.2" points="21.15 12.88 21.15 20.228 33.716 20.228 33.716 12.88 21.15 12.88"/>
   <polygon stroke-width="0.2" points="21.15 47.646 21.15 54.993 33.716 54.993 33.716 47.646 21.15 47.646"/>
   <polygon stroke-width="0.2" points="21.15 40.298 21.15 47.646 33.716 47.646 33.716 40.298 21.15 40.298"/>
   <polygon stroke-width="0.2" points="21.15 32.951 21.15 40.298 33.716 40.298 33.716 32.951 21.15 32.951"/>
  </g>
  <line stroke-width="0.2" x1="33.615" y1="16.553" x2="51.034" y2="16.553"/>
  <line stroke-width="0.2" x1="33.615" y1="36.237" x2="51.034" y2="36.237"/>
  <line stroke-width="0.2" x1="33.615" y1="43.972" x2="51.034" y2="43.972"/>
  <line stroke-width="0.2" x1="33.615" y1="51.737" x2="51.034" y2="51.737"/>
  <polyline stroke-width="0.2" points="21.15 16.076 5.814 16.076 5.814 35.987 21.15 35.987"/>
  <polyline stroke-width="0.2" points="21.15 51.32 4.421 51.32 4.421 43.984 7.682 43.984"/>
  <line stroke-width="0.2" x1="21.15" y1="43.972" x2="9.085" y2="43.972"/>
  <line stroke-width="0.2" x1="7.751" y1="42.777" x2="7.751" y2="45.219"/>
  <line stroke-width="0.2" x1="9.069" y1="42.811" x2="9.069" y2="45.252"/>
  <path stroke-width="0.2" fill="#FFFFFF" d="M8.477 26.477C8.477 24.952 7.242 23.718 5.718 23.718 4.193 23.718 2.959 24.952 2.959 26.477 2.959 28 4.193 29.234 5.718 29.234 7.242 29.234 8.477 28 8.477 26.477 8.477 26.477 8.477 26.477 8.477 26.477L8.477 26.477z"/>
  <path stroke-width="0.2" stroke-dasharray="2 2" d="M0.352 0.398L0.352 60.1L35.348 60.1L35.348 0.398L1.351 0.398"/>
  <line stroke-width="0.2" x1="1.351" y1="0.398" x2="0.352" y2="0.398"/>
  <path stroke-width="0.2" stroke-dasharray="2 2" d="M48.362 0.1L48.362 60.011L65.557 60.011L65.557 0.1L49.362 0.1"/>
  <line stroke-width="0.2" x1="49.362" y1="0.1" x2="48.362" y2="0.1"/>
 </g>
 <g id="85mm_x0020_hidden">
  <polygon stroke="none" points="0 54.695 0 60.978 85 60.978 85 54.695 0 54.695"/>
 </g>
 <g id="cutout_x0020_layer">
 </g>
 <g id="outline_x0020_layer">
 </g>
 <g id="zoom_x0020_layer">
 </g>
 <g id="arrow_x0020_layer">
 </g>
 <g id="_x0020_cable_x0020_layer">
 </g>
 <g id="symbol_x0020_layer">
 </g>
 <g id="_x0020_text_x0020_layer">
  <g>
   <text x="2.001" y="3.54" stroke="none" fill="#000000" font-family="'Arial'" font-size="3.528">Battery cabinet or</text>
   <text x="2.001" y="7.421" stroke="none" fill="#000000" font-family="'Arial'" font-size="3.528">battery breaker box</text>
  </g>
  <text x="53.319" y="3.54" stroke="none" fill="#000000" font-family="'Arial'" font-size="3.528">UPS</text>
 </g>
 <g id="text-_x0020_DO_x0020_NOT_x0020_translate">
  <text x="26.594" y="17.059" stroke="none" fill="#000000" font-family="'Arial'" font-size="3.528">1</text>
  <text x="26.594" y="36.965" stroke="none" fill="#000000" font-family="'Arial'" font-size="3.528">2</text>
  <text x="26.594" y="45.075" stroke="none" fill="#000000" font-family="'Arial'" font-size="3.528">3</text>
  <text x="26.594" y="52.119" stroke="none" fill="#000000" font-family="'Arial'" font-size="3.528">4</text>
  <text x="56.652" y="17.059" stroke="none" fill="#000000" font-family="'Arial'" font-size="3.528">3</text>
  <text x="56.652" y="36.965" stroke="none" fill="#000000" font-family="'Arial'" font-size="3.528">4</text>
  <text x="56.652" y="45.075" stroke="none" fill="#000000" font-family="'Arial'" font-size="3.528">5</text>
  <text x="56.652" y="52.119" stroke="none" fill="#000000" font-family="'Arial'" font-size="3.528">6</text>
  <text x="3.416" y="27.721" stroke="none" fill="#000000" font-family="'Arial'" font-size="3.528">ST</text>
  <text x="8.66" y="27.644" stroke="none" fill="#000000" font-family="'Arial'" font-size="3.528">24 VDC</text>
  <text x="5.184" y="43.5" stroke="none" fill="#000000" font-family="'Arial'" font-size="3.528">1</text>
  <text x="9.593" y="43.5" stroke="none" fill="#000000" font-family="'Arial'" font-size="3.528">4</text>
  <text x="24.339" y="12.108" stroke="none" fill="#000000" font-family="'Arial'" font-size="3.528">TB1</text>
  <text x="54.399" y="11.987" stroke="none" fill="#000000" font-family="'Arial'" font-size="3.528">TB1</text>
  <text x="0.992" y="23.361" stroke="none" fill="#000000" font-family="'Arial'" font-size="3.528">C1</text>
  <text x="0.992" y="32.143" stroke="none" fill="#000000" font-family="'Arial'" font-size="3.528">C2</text>
 </g>
 <g id="_x0020_callout_x0020_layer">
 </g>
</svg>
