<?xml version="1.0" encoding="UTF-8"?>
<!-- Generator: PTC Arbortext IsoDraw 7.4 M001 -->
<svg xmlns="http://www.w3.org/2000/svg" xmlns:xlink="http://www.w3.org/1999/xlink" width="85mm" height="108.73mm" viewBox="0 0 85 108.73" fill-rule="evenodd" clip-rule="evenodd" stroke="#000000" stroke-linecap="round" fill="none" xml:space="preserve" preserveAspectRatio="xMidYMid meet" zoomAndPan="magnify" version="1.1" contentScriptType="text/ecmascript" contentStyleType="text/css">
 <g id="Standard_x0020_layer">
  <g>
   <polygon stroke-width="0.2" points="52.557 64.132 52.557 106.185 65.105 106.185 65.105 64.132 52.557 64.132"/>
   <polygon stroke-width="0.2" points="52.557 64.132 52.557 71.469 65.105 71.469 65.105 64.132 52.557 64.132"/>
   <polygon stroke-width="0.2" points="52.557 98.847 52.557 106.185 65.105 106.185 65.105 98.847 52.557 98.847"/>
   <polygon stroke-width="0.2" points="52.557 91.51 52.557 98.847 65.105 98.847 65.105 91.51 52.557 91.51"/>
   <polygon stroke-width="0.2" points="52.557 84.174 52.557 91.51 65.105 91.51 65.105 84.174 52.557 84.174"/>
  </g>
  <g>
   <polygon stroke-width="0.2" points="22.617 64.132 22.617 106.185 35.164 106.185 35.164 64.132 22.617 64.132"/>
   <polygon stroke-width="0.2" points="22.617 64.132 22.617 71.469 35.164 71.469 35.164 64.132 22.617 64.132"/>
   <polygon stroke-width="0.2" points="22.617 98.847 22.617 106.185 35.164 106.185 35.164 98.847 22.617 98.847"/>
   <polygon stroke-width="0.2" points="22.617 91.51 22.617 98.847 35.164 98.847 35.164 91.51 22.617 91.51"/>
   <polygon stroke-width="0.2" points="22.617 84.174 22.617 91.51 35.164 91.51 35.164 84.174 22.617 84.174"/>
  </g>
  <line stroke-width="0.2" x1="35.164" y1="67.801" x2="52.557" y2="67.801"/>
  <line stroke-width="0.2" x1="35.164" y1="87.454" x2="52.557" y2="87.454"/>
  <line stroke-width="0.2" x1="35.164" y1="102.932" x2="52.557" y2="102.932"/>
  <polyline stroke-width="0.2" points="22.617 67.141 7.147 67.141 7.147 87.024 22.617 87.024"/>
  <polyline stroke-width="0.2" points="22.518 102.516 6.213 102.516 6.213 95.191 9.468 95.191"/>
  <line stroke-width="0.2" x1="22.521" y1="95.18" x2="10.868" y2="95.18"/>
  <line stroke-width="0.2" x1="9.537" y1="93.986" x2="9.537" y2="96.424"/>
  <line stroke-width="0.2" x1="10.853" y1="94.019" x2="10.853" y2="96.456"/>
  <path stroke-width="0.2" fill="#FFFFFF" d="M10.131 77.527C10.131 75.962 8.862 74.694 7.298 74.694 5.732 74.694 4.464 75.962 4.464 77.527 4.464 79.091 5.732 80.359 7.298 80.359 8.862 80.359 10.131 79.091 10.131 77.527 10.131 77.527 10.131 77.527 10.131 77.527L10.131 77.527z"/>
  <path stroke-width="0.2" stroke-dasharray="2 2" d="M50.32 55.892L50.32 107.599L67.561 107.599L67.561 55.892L51.32 55.892"/>
  <line stroke-width="0.2" x1="51.32" y1="55.892" x2="50.32" y2="55.892"/>
  <g>
   <polygon stroke-width="0.2" points="22.617 8.384 22.617 50.436 35.164 50.436 35.164 8.384 22.617 8.384"/>
   <polygon stroke-width="0.2" points="22.617 8.384 22.617 15.721 35.164 15.721 35.164 8.384 22.617 8.384"/>
   <polygon stroke-width="0.2" points="22.617 43.1 22.617 50.436 35.164 50.436 35.164 43.1 22.617 43.1"/>
   <polygon stroke-width="0.2" points="22.617 35.762 22.617 43.1 35.164 43.1 35.164 35.762 22.617 35.762"/>
   <polygon stroke-width="0.2" points="22.617 28.425 22.617 35.762 35.164 35.762 35.164 28.425 22.617 28.425"/>
  </g>
  <polyline stroke-width="0.2" points="22.617 11.589 7.094 11.589 7.094 31.471 22.617 31.471"/>
  <polyline stroke-width="0.2" points="22.617 46.768 6.213 46.768 6.213 39.444 9.468 39.444"/>
  <line stroke-width="0.2" x1="22.617" y1="39.43" x2="10.868" y2="39.43"/>
  <line stroke-width="0.2" x1="9.537" y1="38.238" x2="9.537" y2="40.676"/>
  <line stroke-width="0.2" x1="10.853" y1="38.271" x2="10.853" y2="40.709"/>
  <polyline stroke-width="0.2" points="35.164 12.214 47.32 12.214 47.32 67.801"/>
  <polyline stroke-width="0.2" points="35.164 32.009 45.061 32.009 45.149 87.454"/>
  <polyline stroke-width="0.2" points="35.164 95.18 39.612 95.18 39.612 47.887 35.164 47.887"/>
  <polyline stroke-width="0.2" points="35.164 39.32 41.921 39.32 41.951 95.197 52.557 95.197"/>
  <path stroke-width="0.106" fill="#000000" d="M47.503 67.801C47.503 67.7 47.42 67.617 47.32 67.617 47.219 67.617 47.137 67.7 47.137 67.801 47.137 67.902 47.219 67.983 47.32 67.983 47.42 67.983 47.503 67.902 47.503 67.801 47.503 67.801 47.503 67.801 47.503 67.801L47.503 67.801z"/>
  <path stroke-width="0.106" fill="#000000" d="M45.323 87.474C45.323 87.373 45.241 87.292 45.14 87.292 45.039 87.292 44.957 87.373 44.957 87.474 44.957 87.575 45.039 87.658 45.14 87.658 45.241 87.658 45.323 87.575 45.323 87.474 45.323 87.474 45.323 87.474 45.323 87.474L45.323 87.474z"/>
  <path stroke-width="0.2" stroke-dasharray="2 2" d="M0.748 0.1L0.748 52.405L36.085 52.405L36.085 0.1L1.748 0.1"/>
  <line stroke-width="0.2" x1="1.748" y1="0.1" x2="0.748" y2="0.1"/>
  <path stroke-width="0.2" fill="#FFFFFF" d="M10.086 21.846C10.086 20.28 8.817 19.013 7.253 19.013 5.687 19.013 4.419 20.28 4.419 21.846 4.419 23.41 5.687 24.678 7.253 24.678 8.817 24.678 10.086 23.41 10.086 21.846 10.086 21.846 10.086 21.846 10.086 21.846L10.086 21.846z"/>
  <path stroke-width="0.2" stroke-dasharray="2 2" d="M0.748 55.692L0.748 108L36.085 108L36.085 55.692L1.748 55.692"/>
  <line stroke-width="0.2" x1="1.748" y1="55.692" x2="0.748" y2="55.692"/>
 </g>
 <g id="85mm_x0020_hidden_x0020_Schneider_x0020_layer_x0020_for_x0020_editor">
  <polygon stroke="none" points="0 99.73 0 108.73 85 108.73 85 99.73 0 99.73"/>
 </g>
 <g id="cutout_x0020_layer">
 </g>
 <g id="outline_x0020_layer">
 </g>
 <g id="zoom_x0020_layer">
 </g>
 <g id="arrow_x0020_layer">
 </g>
 <g id="_x0020_cable_x0020_layer">
 </g>
 <g id="symbol_x0020_layer">
 </g>
 <g id="_x0020_text_x0020_layer">
  <text x="4.868" y="59.222" stroke="none" fill="#000000" font-family="'Arial'" font-size="3.528">Battery cabinet 1</text>
  <text x="54.884" y="59.222" stroke="none" fill="#000000" font-family="'Arial'" font-size="3.528">UPS</text>
  <text x="4.868" y="3.805" stroke="none" fill="#000000" font-family="'Arial'" font-size="3.528">Battery cabinet 2</text>
 </g>
 <g id="text-_x0020_DO_x0020_NOT_x0020_translate">
  <text x="27.806" y="68.715" stroke="none" fill="#000000" font-family="'Arial'" font-size="3.528">1</text>
  <text x="27.806" y="88.59" stroke="none" fill="#000000" font-family="'Arial'" font-size="3.528">2</text>
  <text x="27.806" y="96.688" stroke="none" fill="#000000" font-family="'Arial'" font-size="3.528">3</text>
  <text x="27.806" y="103.722" stroke="none" fill="#000000" font-family="'Arial'" font-size="3.528">4</text>
  <text x="57.53" y="68.307" stroke="none" fill="#000000" font-family="'Arial'" font-size="3.528">3</text>
  <text x="57.53" y="88.183" stroke="none" fill="#000000" font-family="'Arial'" font-size="3.528">4</text>
  <text x="57.53" y="96.28" stroke="none" fill="#000000" font-family="'Arial'" font-size="3.528">5</text>
  <text x="57.53" y="103.313" stroke="none" fill="#000000" font-family="'Arial'" font-size="3.528">6</text>
  <text x="5.073" y="78.852" stroke="none" fill="#000000" font-family="'Arial'" font-size="3.528">ST</text>
  <text x="10.198" y="78.954" stroke="none" fill="#000000" font-family="'Arial'" font-size="3.528">24 VDC</text>
  <text x="7.397" y="94.706" stroke="none" fill="#000000" font-family="'Arial'" font-size="3.528">1</text>
  <text x="12.041" y="94.706" stroke="none" fill="#000000" font-family="'Arial'" font-size="3.528">4</text>
  <text x="25.553" y="63.649" stroke="none" fill="#000000" font-family="'Arial'" font-size="3.528">TB1</text>
  <text x="55.276" y="63.649" stroke="none" fill="#000000" font-family="'Arial'" font-size="3.528">TB1</text>
  <text x="27.806" y="12.15" stroke="none" fill="#000000" font-family="'Arial'" font-size="3.528">1</text>
  <text x="27.806" y="32.189" stroke="none" fill="#000000" font-family="'Arial'" font-size="3.528">2</text>
  <text x="27.806" y="39.878" stroke="none" fill="#000000" font-family="'Arial'" font-size="3.528">3</text>
  <text x="27.806" y="47.566" stroke="none" fill="#000000" font-family="'Arial'" font-size="3.528">4</text>
  <text x="5.019" y="23.153" stroke="none" fill="#000000" font-family="'Arial'" font-size="3.528">ST</text>
  <text x="10.198" y="23.153" stroke="none" fill="#000000" font-family="'Arial'" font-size="3.528">24 VDC</text>
  <text x="7.397" y="38.959" stroke="none" fill="#000000" font-family="'Arial'" font-size="3.528">1</text>
  <text x="12.041" y="38.959" stroke="none" fill="#000000" font-family="'Arial'" font-size="3.528">4</text>
  <text x="25.553" y="7.493" stroke="none" fill="#000000" font-family="'Arial'" font-size="3.528">TB1</text>
  <text x="1.407" y="18.565" stroke="none" fill="#000000" font-family="'Arial'" font-size="3.528">C1</text>
  <text x="1.407" y="27.713" stroke="none" fill="#000000" font-family="'Arial'" font-size="3.528">C2</text>
  <text x="1.407" y="74.852" stroke="none" fill="#000000" font-family="'Arial'" font-size="3.528">C1</text>
  <text x="1.407" y="82.945" stroke="none" fill="#000000" font-family="'Arial'" font-size="3.528">C2</text>
 </g>
 <g id="_x0020_callout_x0020_layer">
 </g>
</svg>
