<?xml version="1.0" encoding="UTF-8"?>
<!-- Generator: PTC Arbortext IsoDraw 7.4 M001 -->
<svg xmlns="http://www.w3.org/2000/svg" xmlns:xlink="http://www.w3.org/1999/xlink" width="24.92mm" height="10.464mm" viewBox="0 0 24.92 10.464" fill-rule="evenodd" clip-rule="evenodd" stroke="#000000" stroke-linecap="round" fill="none" xml:space="preserve" preserveAspectRatio="xMidYMid meet" zoomAndPan="magnify" version="1.1" contentScriptType="text/ecmascript" contentStyleType="text/css">
 <g id="Standard_x0020_layer">
  <g id="Layer_2">
   <path stroke="none" fill="#E3E4E5" d="M19.054 7.674C19.054 9.076 17.917 10.214 16.515 10.214L3.535 10.214C2.132 10.214 0.995 9.076 0.995 7.674L0.995 2.54C0.995 1.137 2.132 0 3.535 0L16.515 0C17.917 0 19.054 1.137 19.054 2.54L19.054 7.674 19.054 7.674z"/>
   <line stroke="#4B5056" stroke-width="0.423" stroke-linecap="butt" stroke-miterlimit="10" x1="14.964" y1="2.24" x2="14.964" y2="6.394"/>
   <line stroke="#4B5056" stroke-width="0.423" stroke-linecap="butt" stroke-miterlimit="10" x1="13.378" y1="2.24" x2="14.964" y2="2.24"/>
   <line stroke="#4B5056" stroke-width="0.423" stroke-linecap="butt" stroke-miterlimit="10" x1="13.378" y1="4.753" x2="13.378" y2="2.24"/>
   <line stroke="#4B5056" stroke-width="0.423" stroke-linecap="butt" stroke-miterlimit="10" x1="10.202" y1="6.394" x2="14.964" y2="6.394"/>
   <line stroke="#4B5056" stroke-width="0.423" stroke-linecap="butt" stroke-miterlimit="10" x1="13.378" y1="4.753" x2="7.689" y2="4.753"/>
   <line stroke="#4B5056" stroke-width="0.423" stroke-linecap="butt" stroke-miterlimit="10" x1="9.355" y1="3.351" x2="7.689" y2="4.753"/>
   <line stroke="#4B5056" stroke-width="0.423" stroke-linecap="butt" stroke-miterlimit="10" x1="8.522" y1="2.346" x2="9.355" y2="3.033"/>
   <line stroke="#4B5056" stroke-width="0.423" stroke-linecap="butt" stroke-miterlimit="10" x1="8.522" y1="2.346" x2="4.355" y2="5.336"/>
   <line stroke="#4B5056" stroke-width="0.423" stroke-linecap="butt" stroke-miterlimit="10" x1="4.355" y1="5.336" x2="8.323" y2="8.589"/>
   <line stroke="#4B5056" stroke-width="0.423" stroke-linecap="butt" stroke-miterlimit="10" x1="8.323" y1="8.589" x2="9.355" y2="7.689"/>
   <line stroke="#4B5056" stroke-width="0.423" stroke-linecap="butt" stroke-miterlimit="10" x1="7.689" y1="6.394" x2="9.196" y2="7.689"/>
  </g>
 </g>
 <g id="25mm_x0020_hidden_x0020_Schneider_x0020_layer_x0020_for_x0020_editor">
  <polygon stroke="none" points="0 9.15 0 10.464 24.92 10.464 24.92 9.15 0 9.15"/>
 </g>
 <g id="cutout_x0020_layer">
 </g>
 <g id="outline_x0020_layer">
 </g>
 <g id="zoom_x0020_layer">
 </g>
 <g id="arrow_x0020_layer">
 </g>
 <g id="_x0020_cable_x0020_layer">
 </g>
 <g id="symbol_x0020_layer">
 </g>
 <g id="_x0020_text_x0020_layer">
 </g>
 <g id="text-_x0020_DO_x0020_NOT_x0020_translate">
 </g>
 <g id="_x0020_callout_x0020_layer">
 </g>
</svg>
