<?xml version="1.0" encoding="UTF-8"?>
<!-- Generator: PTC Arbortext IsoDraw 7.4 M001 -->
<svg xmlns="http://www.w3.org/2000/svg" xmlns:xlink="http://www.w3.org/1999/xlink" width="85mm" height="35.262mm" viewBox="0 0 85 35.262" fill-rule="evenodd" clip-rule="evenodd" stroke="#000000" stroke-linecap="round" fill="none" xml:space="preserve" preserveAspectRatio="xMidYMid meet" zoomAndPan="magnify" version="1.1" contentScriptType="text/ecmascript" contentStyleType="text/css">
 <g id="Standard_x0020_layer">
  <g>
   <path stroke-width="0.106" d="M64.325 2.469C64.325 1.135 63.243 0.053 61.909 0.053C60.575 0.053 59.493 1.135 59.493 2.469C59.493 3.804 60.575 4.886 61.909 4.886C63.243 4.886 64.325 3.804 64.325 2.469"/>
  </g>
  <g>
   <path stroke-width="0.106" d="M64.325 12.47C64.325 11.134 63.243 10.053 61.909 10.053C60.575 10.053 59.493 11.134 59.493 12.47C59.493 13.804 60.575 14.885 61.909 14.885C63.243 14.885 64.325 13.804 64.325 12.47"/>
  </g>
  <g>
   <path stroke-width="0.106" d="M64.325 22.469C64.325 21.135 63.243 20.053 61.909 20.053C60.575 20.053 59.493 21.135 59.493 22.469C59.493 23.803 60.575 24.885 61.909 24.885C63.243 24.885 64.325 23.803 64.325 22.469"/>
  </g>
  <g>
   <path stroke-width="0.106" d="M64.325 32.469C64.325 31.135 63.243 30.053 61.909 30.053C60.575 30.053 59.493 31.135 59.493 32.469C59.493 33.804 60.575 34.886 61.909 34.886C63.243 34.886 64.325 33.804 64.325 32.469"/>
  </g>
  <text x="65.879" y="3.851" stroke="none" fill="#000000" font-family="'Arial'" font-size="4.232">1</text>
  <text x="70.879" y="3.851" stroke="none" fill="#000000" font-family="'Arial'" font-size="4.232">+24 V</text>
  <text x="65.879" y="13.85" stroke="none" fill="#000000" font-family="'Arial'" font-size="4.232">2</text>
  <text x="70.879" y="13.85" stroke="none" fill="#000000" font-family="'Arial'" font-size="4.232">IN</text>
  <text x="65.879" y="23.85" stroke="none" fill="#000000" font-family="'Arial'" font-size="4.232">3</text>
  <text x="70.879" y="23.85" stroke="none" fill="#000000" font-family="'Arial'" font-size="4.232">RTN</text>
  <text x="65.879" y="33.85" stroke="none" fill="#000000" font-family="'Arial'" font-size="4.232">4</text>
  <text x="70.879" y="33.85" stroke="none" fill="#000000" font-family="'Arial'" font-size="4.232">GND</text>
  <text x="7.187" y="19.059" stroke="none" fill="#000000" font-family="'Arial'" font-size="4.232">24 VDC</text>
  <polyline stroke-width="0.106" points="61.225 12.297 42.432 12.297 42.432 9.016"/>
  <polyline stroke-width="0.106" points="61.225 22.297 26.553 22.297 26.553 12.124 36.909 12.124 43.987 9.535"/>
  <g>
   <path stroke-width="0.106" d="M29.998 17.21C29.998 15.307 28.455 13.765 26.553 13.765C24.649 13.765 23.106 15.307 23.106 17.21C23.106 19.114 24.649 20.655 26.553 20.655C28.455 20.655 29.998 19.114 29.998 17.21"/>
  </g>
 </g>
 <g id="83_x0020_mm_x0020_hidden_x0020_Schneider_x0020_layer_x0020_for_x0020_editor">
  <polygon stroke="none" points="0 30.234 0 35.234 85 35.234 85 30.234 0 30.234"/>
 </g>
 <g id="cutout_x0020_layer">
 </g>
 <g id="outline_x0020_layer">
 </g>
 <g id="arrow_x0020_layer">
 </g>
 <g id="_x0020_cable_x0020_layer">
 </g>
 <g id="symbol_x0020_layer">
 </g>
 <g id="_x0020_text_x0020_layer">
 </g>
 <g id="_x0020_callout_x0020_layer">
 </g>
</svg>
