<?xml version="1.0" encoding="UTF-8"?>
<!-- Generator: PTC Arbortext IsoDraw 7.4 M001 -->
<svg xmlns="http://www.w3.org/2000/svg" xmlns:xlink="http://www.w3.org/1999/xlink" width="120mm" height="41.226mm" viewBox="0 0 120 41.226" fill-rule="evenodd" clip-rule="evenodd" stroke="#000000" stroke-linecap="round" fill="none" xml:space="preserve" preserveAspectRatio="xMidYMid meet" zoomAndPan="magnify" version="1.1" contentScriptType="text/ecmascript" contentStyleType="text/css">
 <g id="Standard_x0020_layer">
  <line stroke-width="0.2" x1="19.489" y1="5.408" x2="37.53" y2="5.408"/>
  <line stroke-width="0.2" x1="19.489" y1="5.237" x2="19.489" y2="16.734"/>
  <line stroke-width="0.2" x1="19.489" y1="16.734" x2="65.192" y2="16.734"/>
  <line stroke-width="0.2" x1="64.891" y1="21.846" x2="50.25" y2="21.846"/>
  <line stroke-width="0.2" x1="50.25" y1="33.343" x2="65.569" y2="33.343"/>
  <path stroke-width="0.2" fill="#FFFFFF" d="M65.868 5.408C65.868 5.126 65.641 4.899 65.358 4.899 65.078 4.899 64.849 5.126 64.849 5.408 64.849 5.689 65.078 5.918 65.358 5.918 65.641 5.918 65.868 5.689 65.868 5.408 65.868 5.408 65.868 5.408 65.868 5.408L65.868 5.408z"/>
  <path stroke-width="0.2" fill="#FFFFFF" d="M65.868 16.734C65.868 16.454 65.641 16.225 65.358 16.225 65.078 16.225 64.849 16.454 64.849 16.734 64.849 17.016 65.078 17.245 65.358 17.245 65.641 17.245 65.868 17.016 65.868 16.734 65.868 16.734 65.868 16.734 65.868 16.734L65.868 16.734z"/>
  <path stroke-width="0.2" fill="#FFFFFF" d="M65.868 21.846C65.868 21.564 65.641 21.335 65.358 21.335 65.078 21.335 64.849 21.564 64.849 21.846 64.849 22.126 65.078 22.355 65.358 22.355 65.641 22.355 65.868 22.126 65.868 21.846 65.868 21.846 65.868 21.846 65.868 21.846L65.868 21.846z"/>
  <path stroke-width="0.2" fill="#FFFFFF" d="M65.868 33.271C65.868 32.99 65.641 32.762 65.358 32.762 65.078 32.762 64.849 32.99 64.849 33.271 64.849 33.554 65.078 33.781 65.358 33.781 65.641 33.781 65.868 33.554 65.868 33.271 65.868 33.271 65.868 33.271 65.868 33.271L65.868 33.271z"/>
  <line stroke-width="0.2" x1="50.25" y1="21.846" x2="50.25" y2="33.343"/>
  <line stroke-width="0.2" x1="37.53" y1="5.408" x2="48.049" y2="0.1"/>
  <polyline stroke-width="0.2" points="45.475 0.1 45.475 5.408 64.849 5.408"/>
 </g>
 <g id="120mm_x0020_hidden_x0020_Schneider_x0020_layer_x0020_for_x0020_editor">
  <polygon stroke="none" points="0 32.226 0 41.226 120 41.226 120 32.226 0 32.226"/>
 </g>
 <g id="cutout_x0020_layer">
 </g>
 <g id="outline_x0020_layer">
 </g>
 <g id="zoom_x0020_layer">
 </g>
 <g id="arrow_x0020_layer">
 </g>
 <g id="_x0020_cable_x0020_layer">
 </g>
 <g id="symbol_x0020_layer">
 </g>
 <g id="_x0020_text_x0020_layer">
 </g>
 <g id="text-_x0020_DO_x0020_NOT_x0020_translate">
  <text x="67.274" y="7.027" stroke="none" fill="#000000" font-family="'Arial'" font-size="4.232">1 +24 V</text>
  <text x="67.274" y="18.07" stroke="none" fill="#000000" font-family="'Arial'" font-size="4.232">2 IN</text>
  <text x="67.274" y="23.207" stroke="none" fill="#000000" font-family="'Arial'" font-size="4.232">3 RTN</text>
  <text x="67.274" y="34.204" stroke="none" fill="#000000" font-family="'Arial'" font-size="4.232">4 GND</text>
 </g>
 <g id="_x0020_callout_x0020_layer">
 </g>
</svg>
