<?xml version="1.0" encoding="UTF-8"?>
<!-- Generator: PTC Arbortext IsoDraw 7.4 M001 -->
<svg xmlns="http://www.w3.org/2000/svg" xmlns:xlink="http://www.w3.org/1999/xlink" id="Standard_x0020_layer" width="13.41mm" height="11.426mm" viewBox="0 0 13.41 11.426" fill-rule="evenodd" clip-rule="evenodd" stroke="#000000" stroke-linecap="round" fill="none" xml:space="preserve" preserveAspectRatio="xMidYMid meet" zoomAndPan="magnify" version="1.1" contentScriptType="text/ecmascript" contentStyleType="text/css">
 <path stroke="none" fill="#000000" d="M0.101 10.837C0.101 10.837 -0.048 11.137 0.015 11.237 0.089 11.355 0.27 11.426 0.27 11.426 0.27 11.426 0.27 11.426 13.14 11.426 13.14 11.426 13.394 11.324 13.41 11.182 13.419 11.099 13.308 10.837 13.308 10.837 13.308 10.837 13.308 10.837 6.873 0.171 6.873 0.171 6.778 0 6.66 0 6.535 0 6.45 0.171 6.45 0.171 6.45 0.171 6.45 0.171 0.101 10.837z"/>
 <path stroke="none" fill="#FFFFFF" d="M6.535 2.286C6.535 2.286 6.62 2.201 6.705 2.201 6.788 2.201 6.873 2.286 6.873 2.286 8.397 4.827 11.531 10.076 11.531 10.076 11.531 10.076 11.599 10.205 11.585 10.249 11.56 10.323 11.452 10.336 11.452 10.336 11.452 10.336 11.452 10.336 2.019 10.33 2.019 10.33 1.889 10.317 1.849 10.246 1.81 10.176 1.879 10.076 1.879 10.076 1.879 10.076 5.011 4.911 6.535 2.286z"/>
 <path stroke="none" fill="#000000" d="M7.323 3.363L6.08 3.363 4.948 7.447 6.804 6.482 6.45 8.579 6.136 8.189 6.359 9.84 7.49 8.375 6.887 8.587 7.854 5.192 6.165 6.009 6.98 4.115 7.323 3.363z"/>
 <clipPath id="iso74054" fill="none" stroke="none">
  <path d="M0.015 11.426L0.015 11.426 0.015 11.426 0.015 11.426 0.015 11.426z"/>
 </clipPath>
 <g clip-path="url(#iso74054)">
  <line stroke="#FFFFFF" stroke-width="0.353" stroke-linecap="butt" stroke-miterlimit="10" x1="0.015" y1="11.426" x2="0.368" y2="11.073"/>
 </g>
 <path stroke="none" d="M0.015 11.426L0.015 11.426 0.015 11.426 0.015 11.426 0.015 11.426z"/>
</svg>
