<?xml version="1.0" encoding="UTF-8"?>
<!-- Generator: PTC Arbortext IsoDraw 7.4 M001 -->
<svg xmlns="http://www.w3.org/2000/svg" xmlns:xlink="http://www.w3.org/1999/xlink" width="85mm" height="70.644mm" viewBox="0 0 85 70.644" fill-rule="evenodd" clip-rule="evenodd" stroke="#000000" stroke-linecap="round" fill="none" xml:space="preserve" preserveAspectRatio="xMidYMid meet" zoomAndPan="magnify" version="1.1" contentScriptType="text/ecmascript" contentStyleType="text/css">
 <g id="_x0020_fill_x0020_layer">
 </g>
 <g id="Standard_x0020_layer">
  <polygon stroke-width="0.353" points="0.921 3.884 0.921 50.271 18.92 50.271 18.92 3.884 0.921 3.884"/>
  <g>
   <polygon stroke-width="0.353" points="65.281 3.884 65.281 50.271 83.281 50.271 83.281 3.884 65.281 3.884"/>
   <polygon stroke-width="0.353" points="46.06 3.884 46.06 50.271 64.061 50.271 64.061 3.884 46.06 3.884"/>
   <polygon stroke-width="0.353" points="26.664 3.884 26.664 50.271 44.664 50.271 44.664 3.884 26.664 3.884"/>
  </g>
 </g>
 <g id="120mm_x0020_hidden_x0020_Schneider_x0020_layer_x0020_for_x0020_editor">
  <polygon stroke="none" points="0 64.063 0 70.438 85 70.438 85 64.063 0 64.063"/>
 </g>
 <g id="cutout_x0020_layer">
 </g>
 <g id="outline_x0020_layer">
 </g>
 <g id="zoom_x0020_layer">
 </g>
 <g id="outline_x0020_on_x0020_zoom_x0020_layer">
 </g>
 <g id="arrow_x0020_layer">
 </g>
 <g id="_x0020_cable_x0020_layer">
  <g>
   <line stroke="#FFFFFF" stroke-width="2" x1="3.833" y1="63.359" x2="13.069" y2="63.359"/>
   <line stroke-width="0.7" x1="2.483" y1="63.359" x2="14.419" y2="63.359"/>
  </g>
  <g>
   <line stroke="#FFFFFF" stroke-width="1" x1="3.233" y1="68.427" x2="13.669" y2="68.427"/>
   <line stroke="#01889C" stroke-width="0.5" x1="2.483" y1="68.427" x2="14.419" y2="68.427"/>
  </g>
  <g>
   <line stroke="#FFFFFF" stroke-width="2" x1="40.918" y1="44.679" x2="49.581" y2="44.679"/>
   <line stroke-width="0.7" x1="39.569" y1="44.679" x2="50.93" y2="44.679"/>
  </g>
  <g>
   <line stroke="#FFFFFF" stroke-width="2" x1="60.259" y1="44.679" x2="69.102" y2="44.679"/>
   <line stroke-width="0.7" x1="58.908" y1="44.679" x2="70.453" y2="44.679"/>
  </g>
  <g>
   <path stroke="#FFFFFF" stroke-width="2" d="M11.106 51.805L11.106 54.655L33.341 54.655L33.341 51.844"/>
   <polyline stroke-width="0.7" points="11.106 50.456 11.106 54.655 33.341 54.655 33.341 50.493"/>
  </g>
  <g>
   <path stroke="#FFFFFF" stroke-width="0.6" d="M6.597 50.68L6.597 57.371L38.103 57.371L38.103 50.679"/>
   <polyline stroke="#01889C" stroke-width="0.5" points="6.597 50.68 6.597 57.371 38.103 57.371 38.103 50.679"/>
  </g>
 </g>
 <g id="symbol_x0020_layer">
  <g id="AUTOID_3744">
   <desc>battery</desc>
   <g id="AUTOID_3745">
    <desc>Layer 1</desc>
    <path stroke-width="0.13" fill="#000000" d="M72.686 43.551L72.415 43.551 72.415 43.241C72.415 43.176 72.368 43.125 72.313 43.125L72.106 43.125C72.049 43.125 72.004 43.176 72.004 43.241L72.004 43.551 71.731 43.551C71.676 43.551 71.629 43.603 71.629 43.667L71.629 43.902C71.629 43.966 71.676 44.018 71.731 44.018L72.004 44.018 72.004 44.329C72.004 44.393 72.049 44.445 72.106 44.445L72.313 44.445C72.368 44.445 72.415 44.393 72.415 44.329L72.415 44.018 72.686 44.018C72.742 44.018 72.79 43.966 72.79 43.902L72.79 43.667C72.79 43.603 72.742 43.551 72.686 43.551z"/>
    <path stroke="none" fill="#000000" d="M72.686 43.551L72.415 43.551 72.415 43.241C72.415 43.176 72.368 43.125 72.313 43.125L72.106 43.125C72.049 43.125 72.004 43.176 72.004 43.241L72.004 43.551 71.731 43.551C71.676 43.551 71.629 43.603 71.629 43.667L71.629 43.902C71.629 43.966 71.676 44.018 71.731 44.018L72.004 44.018 72.004 44.329C72.004 44.393 72.049 44.445 72.106 44.445L72.313 44.445C72.368 44.445 72.415 44.393 72.415 44.329L72.415 44.018 72.686 44.018C72.742 44.018 72.79 43.966 72.79 43.902L72.79 43.667C72.79 43.603 72.742 43.551 72.686 43.551z"/>
    <path stroke-width="0.13" fill="#000000" d="M77.617 41.792L77.346 41.792C77.26 41.473 77.028 41.25 76.751 41.25L76.075 41.25C75.799 41.25 75.567 41.473 75.48 41.792L73.082 41.792C72.995 41.473 72.763 41.25 72.487 41.25L71.811 41.25C71.536 41.25 71.305 41.473 71.216 41.792L70.945 41.792C70.596 41.792 70.313 42.161 70.313 42.613L70.313 47.185C70.313 47.639 70.596 48.008 70.945 48.008L71.93 48.008C72.06 48.008 72.165 47.887 72.165 47.738 72.165 47.591 72.06 47.47 71.93 47.47L70.945 47.47C70.87 47.47 70.784 47.348 70.784 47.185L70.784 42.613C70.784 42.451 70.87 42.329 70.945 42.329L71.647 42.329 71.652 42.064C71.653 41.902 71.737 41.786 71.811 41.786L72.487 41.786C72.561 41.786 72.646 41.901 72.649 42.064L72.652 42.329 75.912 42.329 75.915 42.064C75.918 41.901 76.003 41.786 76.075 41.786L76.751 41.786C76.825 41.786 76.909 41.901 76.912 42.064L76.917 42.329 77.617 42.329C77.694 42.329 77.78 42.451 77.78 42.613L77.78 47.185C77.78 47.348 77.694 47.47 77.617 47.47L73.441 47.47C73.311 47.47 73.206 47.591 73.206 47.738 73.206 47.887 73.311 48.008 73.441 48.008L77.617 48.008C77.966 48.008 78.251 47.639 78.251 47.185L78.251 42.613C78.251 42.161 77.966 41.792 77.617 41.792z"/>
    <path stroke="none" fill="#000000" d="M77.617 41.792L77.346 41.792C77.26 41.473 77.028 41.25 76.751 41.25L76.075 41.25C75.799 41.25 75.567 41.473 75.48 41.792L73.082 41.792C72.995 41.473 72.763 41.25 72.487 41.25L71.811 41.25C71.536 41.25 71.305 41.473 71.216 41.792L70.945 41.792C70.596 41.792 70.313 42.161 70.313 42.613L70.313 47.185C70.313 47.639 70.596 48.008 70.945 48.008L71.93 48.008C72.06 48.008 72.165 47.887 72.165 47.738 72.165 47.591 72.06 47.47 71.93 47.47L70.945 47.47C70.87 47.47 70.784 47.348 70.784 47.185L70.784 42.613C70.784 42.451 70.87 42.329 70.945 42.329L71.647 42.329 71.652 42.064C71.653 41.902 71.737 41.786 71.811 41.786L72.487 41.786C72.561 41.786 72.646 41.901 72.649 42.064L72.652 42.329 75.912 42.329 75.915 42.064C75.918 41.901 76.003 41.786 76.075 41.786L76.751 41.786C76.825 41.786 76.909 41.901 76.912 42.064L76.917 42.329 77.617 42.329C77.694 42.329 77.78 42.451 77.78 42.613L77.78 47.185C77.78 47.348 77.694 47.47 77.617 47.47L73.441 47.47C73.311 47.47 73.206 47.591 73.206 47.738 73.206 47.887 73.311 48.008 73.441 48.008L77.617 48.008C77.966 48.008 78.251 47.639 78.251 47.185L78.251 42.613C78.251 42.161 77.966 41.792 77.617 41.792z"/>
    <path stroke-width="0.13" fill="#000000" d="M76.838 44.018C76.894 44.018 76.941 43.966 76.941 43.902L76.941 43.667C76.941 43.603 76.894 43.551 76.838 43.551L75.884 43.551C75.826 43.551 75.781 43.603 75.781 43.667L75.781 43.902C75.781 43.966 75.826 44.018 75.884 44.018L76.838 44.018z"/>
   </g>
  </g>
  <g id="AUTOID_3751">
   <desc>battery</desc>
   <g id="AUTOID_3752">
    <desc>Layer 1</desc>
    <path stroke-width="0.13" fill="#000000" d="M53.466 43.551L53.194 43.551 53.194 43.241C53.194 43.176 53.148 43.125 53.091 43.125L52.884 43.125C52.829 43.125 52.783 43.176 52.783 43.241L52.783 43.551 52.511 43.551C52.454 43.551 52.408 43.603 52.408 43.667L52.408 43.902C52.408 43.966 52.454 44.018 52.511 44.018L52.783 44.018 52.783 44.329C52.783 44.393 52.829 44.445 52.884 44.445L53.091 44.445C53.148 44.445 53.194 44.393 53.194 44.329L53.194 44.018 53.466 44.018C53.521 44.018 53.567 43.966 53.567 43.902L53.567 43.667C53.567 43.603 53.521 43.551 53.466 43.551z"/>
    <path stroke="none" fill="#000000" d="M53.466 43.551L53.194 43.551 53.194 43.241C53.194 43.176 53.148 43.125 53.091 43.125L52.884 43.125C52.829 43.125 52.783 43.176 52.783 43.241L52.783 43.551 52.511 43.551C52.454 43.551 52.408 43.603 52.408 43.667L52.408 43.902C52.408 43.966 52.454 44.018 52.511 44.018L52.783 44.018 52.783 44.329C52.783 44.393 52.829 44.445 52.884 44.445L53.091 44.445C53.148 44.445 53.194 44.393 53.194 44.329L53.194 44.018 53.466 44.018C53.521 44.018 53.567 43.966 53.567 43.902L53.567 43.667C53.567 43.603 53.521 43.551 53.466 43.551z"/>
    <path stroke-width="0.13" fill="#000000" d="M58.396 41.792L58.125 41.792C58.039 41.473 57.807 41.25 57.53 41.25L56.854 41.25C56.579 41.25 56.347 41.473 56.259 41.792L53.862 41.792C53.774 41.473 53.542 41.25 53.267 41.25L52.591 41.25C52.314 41.25 52.082 41.473 51.996 41.792L51.725 41.792C51.375 41.792 51.091 42.161 51.091 42.613L51.091 47.185C51.091 47.639 51.375 48.008 51.725 48.008L52.707 48.008C52.838 48.008 52.944 47.887 52.944 47.738 52.944 47.591 52.838 47.47 52.707 47.47L51.725 47.47C51.649 47.47 51.563 47.348 51.563 47.185L51.563 42.613C51.563 42.451 51.649 42.329 51.725 42.329L52.426 42.329 52.429 42.064C52.432 41.902 52.517 41.786 52.591 41.786L53.267 41.786C53.341 41.786 53.424 41.901 53.426 42.064L53.43 42.329 56.691 42.329 56.695 42.064C56.697 41.901 56.78 41.786 56.854 41.786L57.53 41.786C57.604 41.786 57.689 41.901 57.691 42.064L57.695 42.329 58.396 42.329C58.472 42.329 58.557 42.451 58.557 42.613L58.557 47.185C58.557 47.348 58.472 47.47 58.396 47.47L54.22 47.47C54.09 47.47 53.984 47.591 53.984 47.738 53.984 47.887 54.09 48.008 54.22 48.008L58.396 48.008C58.746 48.008 59.03 47.639 59.03 47.185L59.03 42.613C59.03 42.161 58.746 41.792 58.396 41.792z"/>
    <path stroke="none" fill="#000000" d="M58.396 41.792L58.125 41.792C58.039 41.473 57.807 41.25 57.53 41.25L56.854 41.25C56.579 41.25 56.347 41.473 56.259 41.792L53.862 41.792C53.774 41.473 53.542 41.25 53.267 41.25L52.591 41.25C52.314 41.25 52.082 41.473 51.996 41.792L51.725 41.792C51.375 41.792 51.091 42.161 51.091 42.613L51.091 47.185C51.091 47.639 51.375 48.008 51.725 48.008L52.707 48.008C52.838 48.008 52.944 47.887 52.944 47.738 52.944 47.591 52.838 47.47 52.707 47.47L51.725 47.47C51.649 47.47 51.563 47.348 51.563 47.185L51.563 42.613C51.563 42.451 51.649 42.329 51.725 42.329L52.426 42.329 52.429 42.064C52.432 41.902 52.517 41.786 52.591 41.786L53.267 41.786C53.341 41.786 53.424 41.901 53.426 42.064L53.43 42.329 56.691 42.329 56.695 42.064C56.697 41.901 56.78 41.786 56.854 41.786L57.53 41.786C57.604 41.786 57.689 41.901 57.691 42.064L57.695 42.329 58.396 42.329C58.472 42.329 58.557 42.451 58.557 42.613L58.557 47.185C58.557 47.348 58.472 47.47 58.396 47.47L54.22 47.47C54.09 47.47 53.984 47.591 53.984 47.738 53.984 47.887 54.09 48.008 54.22 48.008L58.396 48.008C58.746 48.008 59.03 47.639 59.03 47.185L59.03 42.613C59.03 42.161 58.746 41.792 58.396 41.792z"/>
    <path stroke-width="0.13" fill="#000000" d="M57.616 44.018C57.673 44.018 57.719 43.966 57.719 43.902L57.719 43.667C57.719 43.603 57.673 43.551 57.616 43.551L56.661 43.551C56.606 43.551 56.56 43.603 56.56 43.667L56.56 43.902C56.56 43.966 56.606 44.018 56.661 44.018L57.616 44.018z"/>
   </g>
  </g>
  <g id="AUTOID_3758">
   <desc>battery</desc>
   <g id="AUTOID_3759">
    <desc>Layer 1</desc>
    <path stroke-width="0.13" fill="#000000" d="M34.07 43.551L33.798 43.551 33.798 43.241C33.798 43.176 33.752 43.125 33.695 43.125L33.49 43.125C33.432 43.125 33.387 43.176 33.387 43.241L33.387 43.551 33.115 43.551C33.058 43.551 33.012 43.603 33.012 43.667L33.012 43.902C33.012 43.966 33.058 44.018 33.115 44.018L33.387 44.018 33.387 44.329C33.387 44.393 33.432 44.445 33.49 44.445L33.695 44.445C33.752 44.445 33.798 44.393 33.798 44.329L33.798 44.018 34.07 44.018C34.125 44.018 34.171 43.966 34.171 43.902L34.171 43.667C34.171 43.603 34.125 43.551 34.07 43.551z"/>
    <path stroke="none" fill="#000000" d="M34.07 43.551L33.798 43.551 33.798 43.241C33.798 43.176 33.752 43.125 33.695 43.125L33.49 43.125C33.432 43.125 33.387 43.176 33.387 43.241L33.387 43.551 33.115 43.551C33.058 43.551 33.012 43.603 33.012 43.667L33.012 43.902C33.012 43.966 33.058 44.018 33.115 44.018L33.387 44.018 33.387 44.329C33.387 44.393 33.432 44.445 33.49 44.445L33.695 44.445C33.752 44.445 33.798 44.393 33.798 44.329L33.798 44.018 34.07 44.018C34.125 44.018 34.171 43.966 34.171 43.902L34.171 43.667C34.171 43.603 34.125 43.551 34.07 43.551z"/>
    <path stroke-width="0.13" fill="#000000" d="M39 41.792L38.729 41.792C38.643 41.473 38.411 41.25 38.134 41.25L37.459 41.25C37.182 41.25 36.951 41.473 36.863 41.792L34.466 41.792C34.378 41.473 34.146 41.25 33.871 41.25L33.195 41.25C32.918 41.25 32.686 41.473 32.6 41.792L32.329 41.792C31.98 41.792 31.696 42.161 31.696 42.613L31.696 47.185C31.696 47.639 31.98 48.008 32.329 48.008L33.311 48.008C33.442 48.008 33.548 47.887 33.548 47.738 33.548 47.591 33.442 47.47 33.311 47.47L32.329 47.47C32.253 47.47 32.167 47.348 32.167 47.185L32.167 42.613C32.167 42.451 32.253 42.329 32.329 42.329L33.03 42.329 33.034 42.064C33.036 41.902 33.121 41.786 33.195 41.786L33.871 41.786C33.945 41.786 34.029 41.901 34.03 42.064L34.034 42.329 37.295 42.329 37.298 42.064C37.301 41.901 37.384 41.786 37.459 41.786L38.134 41.786C38.209 41.786 38.292 41.901 38.295 42.064L38.299 42.329 39 42.329C39.076 42.329 39.161 42.451 39.161 42.613L39.161 47.185C39.161 47.348 39.076 47.47 39 47.47L34.825 47.47C34.695 47.47 34.588 47.591 34.588 47.738 34.588 47.887 34.695 48.008 34.825 48.008L39 48.008C39.35 48.008 39.634 47.639 39.634 47.185L39.634 42.613C39.634 42.161 39.35 41.792 39 41.792z"/>
    <path stroke="none" fill="#000000" d="M39 41.792L38.729 41.792C38.643 41.473 38.411 41.25 38.134 41.25L37.459 41.25C37.182 41.25 36.951 41.473 36.863 41.792L34.466 41.792C34.378 41.473 34.146 41.25 33.871 41.25L33.195 41.25C32.918 41.25 32.686 41.473 32.6 41.792L32.329 41.792C31.98 41.792 31.696 42.161 31.696 42.613L31.696 47.185C31.696 47.639 31.98 48.008 32.329 48.008L33.311 48.008C33.442 48.008 33.548 47.887 33.548 47.738 33.548 47.591 33.442 47.47 33.311 47.47L32.329 47.47C32.253 47.47 32.167 47.348 32.167 47.185L32.167 42.613C32.167 42.451 32.253 42.329 32.329 42.329L33.03 42.329 33.034 42.064C33.036 41.902 33.121 41.786 33.195 41.786L33.871 41.786C33.945 41.786 34.029 41.901 34.03 42.064L34.034 42.329 37.295 42.329 37.298 42.064C37.301 41.901 37.384 41.786 37.459 41.786L38.134 41.786C38.209 41.786 38.292 41.901 38.295 42.064L38.299 42.329 39 42.329C39.076 42.329 39.161 42.451 39.161 42.613L39.161 47.185C39.161 47.348 39.076 47.47 39 47.47L34.825 47.47C34.695 47.47 34.588 47.591 34.588 47.738 34.588 47.887 34.695 48.008 34.825 48.008L39 48.008C39.35 48.008 39.634 47.639 39.634 47.185L39.634 42.613C39.634 42.161 39.35 41.792 39 41.792z"/>
    <path stroke-width="0.13" fill="#000000" d="M38.22 44.018C38.277 44.018 38.323 43.966 38.323 43.902L38.323 43.667C38.323 43.603 38.277 43.551 38.22 43.551L37.267 43.551C37.21 43.551 37.164 43.603 37.164 43.667L37.164 43.902C37.164 43.966 37.21 44.018 37.267 44.018L38.22 44.018z"/>
   </g>
  </g>
 </g>
 <g id="text_x0020_layer">
  <text x="6.113" y="2.468" stroke="none" fill="#000000" font-family="'Arial'" font-size="3.528">UPS</text>
  <text x="16.431" y="64.632" stroke="none" fill="#000000" font-family="'Arial'" font-size="3.174">Power cable</text>
  <text x="16.431" y="69.233" stroke="none" fill="#000000" font-family="'Arial'" font-size="3.174">Signal cables</text>
  <text x="42.326" y="2.468" stroke="none" fill="#000000" font-family="'Arial'" font-size="3.528">Battery cabinets</text>
 </g>
 <g id="text-_x0020_DO_x0020_NOT_x0020_translate">
 </g>
 <g id="callout_x0020_layer">
 </g>
</svg>
