<?xml version="1.0" encoding="UTF-8"?>
<!-- Generator: PTC Arbortext IsoDraw 7.4 M001 -->
<svg xmlns="http://www.w3.org/2000/svg" xmlns:xlink="http://www.w3.org/1999/xlink" width="120mm" height="97.495mm" viewBox="0 0 120 97.495" fill-rule="evenodd" clip-rule="evenodd" stroke="#000000" stroke-linecap="round" fill="none" xml:space="preserve" preserveAspectRatio="xMidYMid meet" zoomAndPan="magnify" version="1.1" contentScriptType="text/ecmascript" contentStyleType="text/css">
 <g id="_x0020_fill_x0020_layer">
 </g>
 <g id="Standard_x0020_layer">
  <g id="AUTOID_3672">
   <desc>Layer 1</desc>
   <polyline stroke-width="0.106" points="91.409 17.986 91.457 17.986 91.506 18.012 91.578 18.012 91.626 18.036"/>
   <line stroke-width="0.106" x1="91.096" y1="18.539" x2="91.096" y2="18.492"/>
   <line stroke-width="0.106" x1="90.881" y1="18.155" x2="90.881" y2="18.324"/>
   <polyline stroke-width="0.106" points="91.817 18.324 91.817 18.179 91.793 18.155"/>
   <line stroke-width="0.106" x1="91.24" y1="17.986" x2="91.072" y2="18.036"/>
   <line stroke-width="0.106" x1="91.793" y1="18.155" x2="91.793" y2="18.132"/>
   <line stroke-width="0.106" x1="91.265" y1="17.986" x2="91.24" y2="17.986"/>
   <polyline stroke-width="0.106" points="91.29 18.036 91.29 17.986 91.265 17.986"/>
   <line stroke-width="0.106" x1="90.905" y1="18.132" x2="90.881" y2="18.155"/>
   <polyline stroke-width="0.106" points="91.265 18.036 91.409 18.036 91.409 17.986"/>
   <line stroke-width="0.106" x1="91.626" y1="18.036" x2="91.793" y2="18.132"/>
   <line stroke-width="0.106" x1="91.072" y1="18.036" x2="90.905" y2="18.132"/>
   <line stroke-width="0.106" x1="91.072" y1="18.036" x2="91.072" y2="18.012"/>
   <line stroke-width="0.106" x1="90.905" y1="18.132" x2="91.337" y2="18.132"/>
   <polyline stroke-width="0.106" points="91.29 17.986 91.29 18.012 91.265 18.036"/>
   <line stroke-width="0.106" x1="90.881" y1="18.179" x2="91.337" y2="18.179"/>
   <line stroke-width="0.106" x1="91.409" y1="18.036" x2="91.409" y2="17.986"/>
   <line stroke-width="0.106" x1="91.337" y1="18.132" x2="91.793" y2="18.132"/>
   <line stroke-width="0.106" x1="91.337" y1="18.179" x2="91.817" y2="18.179"/>
   <line stroke-width="0.106" x1="30.861" y1="87.451" x2="30.861" y2="87.501"/>
   <polyline stroke-width="0.106" points="30.693 17.986 30.718 17.986 30.789 18.012 30.838 18.012 30.885 18.036"/>
   <line stroke-width="0.106" x1="30.861" y1="18.539" x2="30.861" y2="18.492"/>
   <line stroke-width="0.106" x1="30.885" y1="18.036" x2="30.885" y2="18.012"/>
   <polyline stroke-width="0.106" points="30.164 18.155 30.14 18.179 30.14 18.324"/>
   <line stroke-width="0.106" x1="31.077" y1="18.324" x2="31.077" y2="18.155"/>
   <line stroke-width="0.106" x1="30.501" y1="17.986" x2="30.332" y2="18.036"/>
   <line stroke-width="0.106" x1="31.077" y1="18.155" x2="31.053" y2="18.132"/>
   <polyline stroke-width="0.106" points="30.501 17.986 30.55 17.986 30.55 18.036"/>
   <line stroke-width="0.106" x1="30.55" y1="17.986" x2="30.55" y2="17.963"/>
   <line stroke-width="0.106" x1="30.164" y1="18.132" x2="30.164" y2="18.155"/>
   <line stroke-width="0.106" x1="30.55" y1="18.036" x2="30.693" y2="18.036"/>
   <polyline stroke-width="0.106" points="30.67 18.036 30.67 17.986 30.693 17.986"/>
   <line stroke-width="0.106" x1="30.885" y1="18.036" x2="31.053" y2="18.132"/>
   <line stroke-width="0.106" x1="30.332" y1="18.036" x2="30.164" y2="18.132"/>
   <line stroke-width="0.106" x1="30.332" y1="18.036" x2="30.332" y2="18.012"/>
   <line stroke-width="0.106" x1="30.164" y1="18.132" x2="30.621" y2="18.132"/>
   <line stroke-width="0.106" x1="30.55" y1="17.986" x2="30.55" y2="18.036"/>
   <line stroke-width="0.106" x1="30.14" y1="18.179" x2="30.621" y2="18.179"/>
   <polyline stroke-width="0.106" points="30.693 18.036 30.67 18.012 30.67 17.986"/>
   <line stroke-width="0.106" x1="30.621" y1="18.132" x2="31.053" y2="18.132"/>
   <line stroke-width="0.106" x1="30.621" y1="18.179" x2="31.077" y2="18.179"/>
   <line stroke-width="0.106" x1="91.096" y1="87.451" x2="91.096" y2="87.501"/>
   <line stroke-width="0.106" x1="29.804" y1="18.539" x2="31.606" y2="18.539"/>
   <line stroke-width="0.106" x1="29.804" y1="18.539" x2="29.804" y2="18.611"/>
   <polyline stroke-width="0.106" points="31.39 18.611 31.318 18.564 31.295 18.564 31.271 18.539"/>
   <polyline stroke-width="0.106" points="31.702 18.611 31.631 18.564 31.606 18.539"/>
   <line stroke-width="0.106" x1="92.155" y1="87.451" x2="90.352" y2="87.451"/>
   <line stroke-width="0.106" x1="92.155" y1="87.451" x2="92.155" y2="87.379"/>
   <polyline stroke-width="0.106" points="90.567 87.379 90.641 87.427 90.665 87.453 90.688 87.453"/>
   <polyline stroke-width="0.106" points="90.256 87.379 90.328 87.453 90.352 87.453"/>
   <line stroke-width="0.106" x1="90.352" y1="18.539" x2="92.155" y2="18.539"/>
   <line stroke-width="0.106" x1="90.352" y1="18.539" x2="90.256" y2="18.611"/>
   <polyline stroke-width="0.106" points="90.688 18.539 90.665 18.564 90.567 18.611"/>
   <line stroke-width="0.106" x1="92.155" y1="18.611" x2="92.155" y2="18.539"/>
   <line stroke-width="0.106" x1="31.606" y1="87.451" x2="29.804" y2="87.451"/>
   <line stroke-width="0.106" x1="31.606" y1="87.451" x2="31.702" y2="87.379"/>
   <polyline stroke-width="0.106" points="31.271 87.451 31.295 87.451 31.39 87.379"/>
   <line stroke-width="0.106" x1="29.804" y1="87.379" x2="29.804" y2="87.453"/>
   <line stroke-width="0.106" x1="95.447" y1="87.427" x2="95.471" y2="87.379"/>
   <line stroke-width="0.106" x1="95.424" y1="87.403" x2="95.447" y2="87.379"/>
   <line stroke-width="0.106" x1="95.471" y1="18.611" x2="95.447" y2="18.588"/>
   <line stroke-width="0.106" x1="95.447" y1="18.611" x2="95.424" y2="18.588"/>
   <line stroke-width="0.106" x1="26.512" y1="18.588" x2="26.487" y2="18.611"/>
   <line stroke-width="0.106" x1="26.536" y1="18.588" x2="26.512" y2="18.611"/>
   <line stroke-width="0.106" x1="26.896" y1="87.379" x2="26.632" y2="87.379"/>
   <line stroke-width="0.106" x1="87.731" y1="87.549" x2="87.78" y2="87.549"/>
   <polyline stroke-width="0.106" points="26.463 87.525 26.512 87.644 26.632 87.668"/>
   <polyline stroke-width="0.106" points="26.632 87.379 26.512 87.427 26.463 87.525"/>
   <polyline stroke-width="0.106" points="34.179 87.668 34.179 87.549 34.226 87.549"/>
   <line stroke-width="0.106" x1="95.063" y1="87.379" x2="95.328" y2="87.379"/>
   <line stroke-width="0.106" x1="34.226" y1="87.668" x2="34.226" y2="87.453"/>
   <line stroke-width="0.106" x1="87.731" y1="87.379" x2="87.731" y2="87.453"/>
   <line stroke-width="0.106" x1="87.299" y1="86.947" x2="83.813" y2="86.947"/>
   <line stroke-width="0.106" x1="81.986" y1="86.947" x2="78.334" y2="86.947"/>
   <line stroke-width="0.106" x1="76.507" y1="86.947" x2="72.853" y2="86.947"/>
   <line stroke-width="0.106" x1="71.027" y1="86.947" x2="67.373" y2="86.947"/>
   <line stroke-width="0.106" x1="65.546" y1="86.947" x2="61.893" y2="86.947"/>
   <line stroke-width="0.106" x1="60.066" y1="86.947" x2="56.412" y2="86.947"/>
   <line stroke-width="0.106" x1="54.585" y1="86.947" x2="50.932" y2="86.947"/>
   <line stroke-width="0.106" x1="49.106" y1="86.947" x2="45.451" y2="86.947"/>
   <line stroke-width="0.106" x1="43.625" y1="86.947" x2="39.972" y2="86.947"/>
   <line stroke-width="0.106" x1="38.145" y1="86.947" x2="34.659" y2="86.947"/>
   <line stroke-width="0.106" x1="87.731" y1="87.379" x2="87.299" y2="86.947"/>
   <polyline stroke-width="0.106" points="34.226 87.451 34.226 87.379 34.659 86.947"/>
   <polyline stroke-width="0.106" points="95.328 87.668 95.447 87.644 95.495 87.525 95.4 87.379 95.328 87.379"/>
   <line stroke-width="0.106" x1="87.78" y1="87.668" x2="87.78" y2="87.549"/>
   <line stroke-width="0.106" x1="95.328" y1="87.668" x2="92.466" y2="87.668"/>
   <line stroke-width="0.106" x1="90.641" y1="87.668" x2="87.78" y2="87.668"/>
   <line stroke-width="0.106" x1="34.226" y1="87.668" x2="38.145" y2="87.668"/>
   <line stroke-width="0.106" x1="39.972" y1="87.668" x2="43.625" y2="87.668"/>
   <line stroke-width="0.106" x1="45.451" y1="87.668" x2="49.106" y2="87.668"/>
   <line stroke-width="0.106" x1="50.932" y1="87.668" x2="54.585" y2="87.668"/>
   <line stroke-width="0.106" x1="56.412" y1="87.668" x2="60.066" y2="87.668"/>
   <line stroke-width="0.106" x1="61.893" y1="87.668" x2="65.546" y2="87.668"/>
   <line stroke-width="0.106" x1="67.373" y1="87.668" x2="71.027" y2="87.668"/>
   <line stroke-width="0.106" x1="72.853" y1="87.668" x2="76.507" y2="87.668"/>
   <line stroke-width="0.106" x1="78.334" y1="87.668" x2="81.986" y2="87.668"/>
   <line stroke-width="0.106" x1="83.813" y1="87.668" x2="87.731" y2="87.668"/>
   <line stroke-width="0.106" x1="34.226" y1="87.668" x2="34.179" y2="87.668"/>
   <line stroke-width="0.106" x1="87.731" y1="87.451" x2="87.731" y2="87.668"/>
   <line stroke-width="0.106" x1="34.179" y1="87.668" x2="31.318" y2="87.668"/>
   <line stroke-width="0.106" x1="29.492" y1="87.668" x2="26.632" y2="87.668"/>
   <line stroke-width="0.106" x1="87.731" y1="87.668" x2="87.78" y2="87.668"/>
   <line stroke-width="0.106" x1="87.731" y1="87.451" x2="83.813" y2="87.451"/>
   <line stroke-width="0.106" x1="81.986" y1="87.451" x2="78.334" y2="87.451"/>
   <line stroke-width="0.106" x1="76.507" y1="87.451" x2="72.853" y2="87.451"/>
   <line stroke-width="0.106" x1="71.027" y1="87.451" x2="67.373" y2="87.451"/>
   <line stroke-width="0.106" x1="65.546" y1="87.451" x2="61.893" y2="87.451"/>
   <line stroke-width="0.106" x1="60.066" y1="87.451" x2="56.412" y2="87.451"/>
   <line stroke-width="0.106" x1="54.585" y1="87.451" x2="50.932" y2="87.451"/>
   <line stroke-width="0.106" x1="49.106" y1="87.451" x2="45.451" y2="87.451"/>
   <line stroke-width="0.106" x1="43.625" y1="87.451" x2="39.972" y2="87.451"/>
   <line stroke-width="0.106" x1="38.145" y1="87.451" x2="34.226" y2="87.451"/>
   <polyline stroke-width="0.106" points="87.78 18.324 87.78 18.443 87.731 18.443"/>
   <line stroke-width="0.106" x1="87.731" y1="18.324" x2="83.813" y2="18.324"/>
   <line stroke-width="0.106" x1="81.986" y1="18.324" x2="78.334" y2="18.324"/>
   <line stroke-width="0.106" x1="76.507" y1="18.324" x2="72.853" y2="18.324"/>
   <line stroke-width="0.106" x1="71.027" y1="18.324" x2="67.373" y2="18.324"/>
   <line stroke-width="0.106" x1="65.546" y1="18.324" x2="61.893" y2="18.324"/>
   <line stroke-width="0.106" x1="60.066" y1="18.324" x2="56.412" y2="18.324"/>
   <line stroke-width="0.106" x1="54.585" y1="18.324" x2="50.932" y2="18.324"/>
   <line stroke-width="0.106" x1="49.106" y1="18.324" x2="45.451" y2="18.324"/>
   <line stroke-width="0.106" x1="43.625" y1="18.324" x2="39.972" y2="18.324"/>
   <line stroke-width="0.106" x1="38.145" y1="18.324" x2="34.226" y2="18.324"/>
   <line stroke-width="0.106" x1="87.731" y1="18.324" x2="87.731" y2="18.539"/>
   <line stroke-width="0.106" x1="34.226" y1="18.539" x2="34.226" y2="18.324"/>
   <line stroke-width="0.106" x1="34.226" y1="18.443" x2="34.179" y2="18.443"/>
   <polyline stroke-width="0.106" points="34.226 18.324 34.179 18.324 34.179 18.443"/>
   <polyline stroke-width="0.106" points="95.328 18.611 95.447 18.588 95.495 18.468 95.447 18.371 95.328 18.324"/>
   <polyline stroke-width="0.106" points="26.463 18.468 26.559 18.611 26.632 18.611"/>
   <polyline stroke-width="0.106" points="26.632 18.324 26.512 18.371 26.463 18.468"/>
   <line stroke-width="0.106" x1="95.063" y1="18.611" x2="95.328" y2="18.611"/>
   <line stroke-width="0.106" x1="26.896" y1="18.611" x2="26.632" y2="18.611"/>
   <line stroke-width="0.106" x1="26.632" y1="18.324" x2="29.492" y2="18.324"/>
   <line stroke-width="0.106" x1="31.318" y1="18.324" x2="34.179" y2="18.324"/>
   <line stroke-width="0.106" x1="87.731" y1="18.324" x2="90.641" y2="18.324"/>
   <line stroke-width="0.106" x1="92.466" y1="18.324" x2="95.328" y2="18.324"/>
   <line stroke-width="0.106" x1="34.226" y1="18.539" x2="38.145" y2="18.539"/>
   <line stroke-width="0.106" x1="39.972" y1="18.539" x2="43.625" y2="18.539"/>
   <line stroke-width="0.106" x1="45.451" y1="18.539" x2="49.106" y2="18.539"/>
   <line stroke-width="0.106" x1="50.932" y1="18.539" x2="54.585" y2="18.539"/>
   <line stroke-width="0.106" x1="56.412" y1="18.539" x2="60.066" y2="18.539"/>
   <line stroke-width="0.106" x1="61.893" y1="18.539" x2="65.546" y2="18.539"/>
   <line stroke-width="0.106" x1="67.373" y1="18.539" x2="71.027" y2="18.539"/>
   <line stroke-width="0.106" x1="72.853" y1="18.539" x2="76.507" y2="18.539"/>
   <line stroke-width="0.106" x1="78.334" y1="18.539" x2="81.986" y2="18.539"/>
   <line stroke-width="0.106" x1="83.813" y1="18.539" x2="87.731" y2="18.539"/>
   <line stroke-width="0.106" x1="31.39" y1="18.611" x2="31.727" y2="18.611"/>
   <line stroke-width="0.106" x1="31.727" y1="87.379" x2="31.39" y2="87.379"/>
   <polyline stroke-width="0.106" points="33.024 87.379 33.89 86.515 33.89 84.039"/>
   <line stroke-width="0.106" x1="33.89" y1="82.212" x2="33.89" y2="78.558"/>
   <line stroke-width="0.106" x1="33.89" y1="76.731" x2="33.89" y2="73.078"/>
   <line stroke-width="0.106" x1="33.89" y1="71.251" x2="33.89" y2="67.597"/>
   <line stroke-width="0.106" x1="33.89" y1="65.772" x2="33.89" y2="62.118"/>
   <line stroke-width="0.106" x1="33.89" y1="60.29" x2="33.89" y2="56.661"/>
   <line stroke-width="0.106" x1="33.89" y1="54.835" x2="33.89" y2="51.182"/>
   <line stroke-width="0.106" x1="33.89" y1="49.354" x2="33.89" y2="45.701"/>
   <line stroke-width="0.106" x1="33.89" y1="43.875" x2="33.89" y2="40.22"/>
   <line stroke-width="0.106" x1="33.89" y1="38.393" x2="33.89" y2="34.74"/>
   <line stroke-width="0.106" x1="33.89" y1="32.914" x2="33.89" y2="29.26"/>
   <line stroke-width="0.106" x1="33.89" y1="27.434" x2="33.89" y2="23.78"/>
   <polyline stroke-width="0.106" points="33.89 21.952 33.89 19.478 33.024 18.611 31.727 18.611"/>
   <line stroke-width="0.106" x1="31.727" y1="87.379" x2="33.024" y2="87.379"/>
   <polygon stroke-width="0.106" points="33.409 21.303 33.362 21.064 33.241 20.871 33.048 20.728 32.808 20.704 32.593 20.728 32.375 20.871 32.256 21.064 32.207 21.303 32.256 21.521 32.375 21.713 32.593 21.856 32.808 21.905 33.048 21.856 33.241 21.713 33.362 21.521 33.409 21.303"/>
   <polygon stroke-width="0.106" points="33.409 78.222 33.362 78.006 33.241 77.813 33.048 77.67 32.808 77.621 32.593 77.67 32.375 77.813 32.256 78.006 32.207 78.222 32.256 78.462 32.375 78.655 32.593 78.799 32.808 78.847 33.048 78.799 33.241 78.655 33.362 78.462 33.409 78.222"/>
   <polygon stroke-width="0.106" points="33.409 84.712 33.362 84.471 33.241 84.28 33.048 84.135 32.808 84.087 32.593 84.135 32.375 84.28 32.256 84.471 32.207 84.712 32.256 84.929 32.375 85.12 32.593 85.265 32.808 85.313 33.048 85.265 33.241 85.12 33.362 84.929 33.409 84.712"/>
   <polygon stroke-width="0.106" points="33.409 27.769 33.362 27.53 33.241 27.338 33.048 27.216 32.808 27.169 32.593 27.216 32.375 27.338 32.256 27.53 32.207 27.769 32.256 27.986 32.375 28.202 32.593 28.323 32.808 28.37 33.048 28.323 33.241 28.202 33.362 27.986 33.409 27.769"/>
   <polygon stroke-width="0.106" points="33.409 53.008 33.362 52.768 33.241 52.576 33.048 52.432 32.808 52.383 32.593 52.432 32.375 52.576 32.256 52.768 32.207 53.008 32.256 53.225 32.375 53.417 32.593 53.561 32.808 53.609 33.048 53.561 33.241 53.417 33.362 53.225 33.409 53.008"/>
   <line stroke-width="0.106" x1="31.39" y1="18.611" x2="31.39" y2="21.952"/>
   <line stroke-width="0.106" x1="31.39" y1="23.78" x2="31.39" y2="27.434"/>
   <line stroke-width="0.106" x1="31.39" y1="29.26" x2="31.39" y2="32.914"/>
   <line stroke-width="0.106" x1="31.39" y1="34.74" x2="31.39" y2="38.393"/>
   <line stroke-width="0.106" x1="31.39" y1="40.22" x2="31.39" y2="43.875"/>
   <line stroke-width="0.106" x1="31.39" y1="45.701" x2="31.39" y2="49.354"/>
   <line stroke-width="0.106" x1="31.39" y1="51.182" x2="31.39" y2="54.835"/>
   <line stroke-width="0.106" x1="31.39" y1="56.661" x2="31.39" y2="60.29"/>
   <line stroke-width="0.106" x1="31.39" y1="62.118" x2="31.39" y2="65.772"/>
   <line stroke-width="0.106" x1="31.39" y1="67.597" x2="31.39" y2="71.251"/>
   <line stroke-width="0.106" x1="31.39" y1="73.078" x2="31.39" y2="76.731"/>
   <line stroke-width="0.106" x1="31.39" y1="78.558" x2="31.39" y2="82.212"/>
   <line stroke-width="0.106" x1="31.39" y1="84.039" x2="31.39" y2="87.379"/>
   <line stroke-width="0.106" x1="31.727" y1="87.379" x2="31.727" y2="84.039"/>
   <line stroke-width="0.106" x1="31.727" y1="82.212" x2="31.727" y2="78.558"/>
   <line stroke-width="0.106" x1="31.727" y1="76.731" x2="31.727" y2="73.078"/>
   <line stroke-width="0.106" x1="31.727" y1="71.251" x2="31.727" y2="67.597"/>
   <line stroke-width="0.106" x1="31.727" y1="65.772" x2="31.727" y2="62.118"/>
   <line stroke-width="0.106" x1="31.727" y1="60.29" x2="31.727" y2="56.661"/>
   <line stroke-width="0.106" x1="31.727" y1="54.835" x2="31.727" y2="51.182"/>
   <line stroke-width="0.106" x1="31.727" y1="49.354" x2="31.727" y2="45.701"/>
   <line stroke-width="0.106" x1="31.727" y1="43.875" x2="31.727" y2="40.22"/>
   <line stroke-width="0.106" x1="31.727" y1="38.393" x2="31.727" y2="34.74"/>
   <line stroke-width="0.106" x1="31.727" y1="32.914" x2="31.727" y2="29.26"/>
   <line stroke-width="0.106" x1="31.727" y1="27.434" x2="31.727" y2="23.78"/>
   <line stroke-width="0.106" x1="31.727" y1="21.952" x2="31.727" y2="18.611"/>
   <line stroke-width="0.106" x1="90.567" y1="87.379" x2="90.231" y2="87.379"/>
   <line stroke-width="0.106" x1="90.231" y1="18.611" x2="90.567" y2="18.611"/>
   <polyline stroke-width="0.106" points="88.933 18.611 88.069 19.478 88.069 22.074"/>
   <line stroke-width="0.106" x1="88.069" y1="23.78" x2="88.069" y2="27.434"/>
   <line stroke-width="0.106" x1="88.069" y1="29.26" x2="88.069" y2="32.914"/>
   <line stroke-width="0.106" x1="88.069" y1="34.74" x2="88.069" y2="38.393"/>
   <line stroke-width="0.106" x1="88.069" y1="40.22" x2="88.069" y2="43.875"/>
   <line stroke-width="0.106" x1="88.069" y1="45.701" x2="88.069" y2="49.354"/>
   <line stroke-width="0.106" x1="88.069" y1="51.182" x2="88.069" y2="54.835"/>
   <line stroke-width="0.106" x1="88.069" y1="56.661" x2="88.069" y2="60.29"/>
   <line stroke-width="0.106" x1="88.069" y1="62.118" x2="88.069" y2="65.772"/>
   <line stroke-width="0.106" x1="88.069" y1="67.597" x2="88.069" y2="71.251"/>
   <line stroke-width="0.106" x1="88.069" y1="73.078" x2="88.069" y2="76.731"/>
   <line stroke-width="0.106" x1="88.069" y1="78.558" x2="88.069" y2="82.212"/>
   <polyline stroke-width="0.106" points="88.069 84.039 88.069 86.515 88.933 87.379 90.231 87.379"/>
   <line stroke-width="0.106" x1="90.231" y1="18.611" x2="88.933" y2="18.611"/>
   <polygon stroke-width="0.106" points="88.549 84.712 88.596 84.929 88.718 85.12 88.909 85.265 89.15 85.313 89.367 85.265 89.582 85.12 89.703 84.929 89.751 84.712 89.703 84.471 89.582 84.28 89.367 84.135 89.15 84.087 88.909 84.135 88.718 84.28 88.596 84.471 88.549 84.712"/>
   <polygon stroke-width="0.106" points="88.549 27.769 88.596 27.986 88.718 28.202 88.909 28.323 89.15 28.37 89.367 28.323 89.582 28.202 89.703 27.986 89.751 27.769 89.703 27.53 89.582 27.338 89.367 27.216 89.15 27.169 88.909 27.216 88.718 27.338 88.596 27.53 88.549 27.769"/>
   <polygon stroke-width="0.106" points="88.549 21.303 88.596 21.521 88.718 21.713 88.909 21.856 89.15 21.905 89.367 21.856 89.582 21.713 89.703 21.521 89.751 21.303 89.703 21.064 89.582 20.871 89.367 20.728 89.15 20.704 88.909 20.728 88.718 20.871 88.596 21.064 88.549 21.303"/>
   <polygon stroke-width="0.106" points="88.549 78.222 88.596 78.462 88.718 78.655 88.909 78.799 89.15 78.847 89.367 78.799 89.582 78.655 89.703 78.462 89.751 78.222 89.703 78.006 89.582 77.813 89.367 77.67 89.15 77.621 88.909 77.67 88.718 77.813 88.596 78.006 88.549 78.222"/>
   <polygon stroke-width="0.106" points="88.549 53.008 88.596 53.225 88.718 53.417 88.909 53.561 89.15 53.609 89.367 53.561 89.582 53.417 89.703 53.225 89.751 53.008 89.703 52.768 89.582 52.576 89.367 52.432 89.15 52.383 88.909 52.432 88.718 52.576 88.596 52.768 88.549 53.008"/>
   <line stroke-width="0.106" x1="90.567" y1="87.379" x2="90.567" y2="84.039"/>
   <line stroke-width="0.106" x1="90.567" y1="82.212" x2="90.567" y2="78.558"/>
   <line stroke-width="0.106" x1="90.567" y1="76.731" x2="90.567" y2="73.078"/>
   <line stroke-width="0.106" x1="90.567" y1="71.251" x2="90.567" y2="67.597"/>
   <line stroke-width="0.106" x1="90.567" y1="65.772" x2="90.567" y2="62.118"/>
   <line stroke-width="0.106" x1="90.567" y1="60.29" x2="90.567" y2="56.661"/>
   <line stroke-width="0.106" x1="90.567" y1="54.835" x2="90.567" y2="51.182"/>
   <line stroke-width="0.106" x1="90.567" y1="49.354" x2="90.567" y2="45.701"/>
   <line stroke-width="0.106" x1="90.567" y1="43.875" x2="90.567" y2="40.22"/>
   <line stroke-width="0.106" x1="90.567" y1="38.393" x2="90.567" y2="34.74"/>
   <line stroke-width="0.106" x1="90.567" y1="32.914" x2="90.567" y2="29.26"/>
   <line stroke-width="0.106" x1="90.567" y1="27.434" x2="90.567" y2="23.78"/>
   <line stroke-width="0.106" x1="90.567" y1="21.952" x2="90.567" y2="18.611"/>
   <line stroke-width="0.106" x1="90.231" y1="18.611" x2="90.231" y2="21.952"/>
   <line stroke-width="0.106" x1="90.231" y1="23.78" x2="90.231" y2="27.434"/>
   <line stroke-width="0.106" x1="90.231" y1="29.26" x2="90.231" y2="32.914"/>
   <line stroke-width="0.106" x1="90.231" y1="34.74" x2="90.231" y2="38.393"/>
   <line stroke-width="0.106" x1="90.231" y1="40.22" x2="90.231" y2="43.875"/>
   <line stroke-width="0.106" x1="90.231" y1="45.701" x2="90.231" y2="49.354"/>
   <line stroke-width="0.106" x1="90.231" y1="51.182" x2="90.231" y2="54.835"/>
   <line stroke-width="0.106" x1="90.231" y1="56.661" x2="90.231" y2="60.29"/>
   <line stroke-width="0.106" x1="90.231" y1="62.118" x2="90.231" y2="65.772"/>
   <line stroke-width="0.106" x1="90.231" y1="67.597" x2="90.231" y2="71.251"/>
   <line stroke-width="0.106" x1="90.231" y1="73.078" x2="90.231" y2="76.731"/>
   <line stroke-width="0.106" x1="90.231" y1="78.558" x2="90.231" y2="82.212"/>
   <line stroke-width="0.106" x1="90.231" y1="84.039" x2="90.231" y2="87.379"/>
   <line stroke-width="0.106" x1="91.096" y1="18.492" x2="87.731" y2="18.492"/>
   <line stroke-width="0.106" x1="34.226" y1="18.492" x2="30.861" y2="18.492"/>
   <line stroke-width="0.106" x1="88.069" y1="86.466" x2="83.813" y2="86.466"/>
   <line stroke-width="0.106" x1="81.986" y1="86.466" x2="78.334" y2="86.466"/>
   <line stroke-width="0.106" x1="76.507" y1="86.466" x2="72.853" y2="86.466"/>
   <line stroke-width="0.106" x1="71.027" y1="86.466" x2="67.373" y2="86.466"/>
   <line stroke-width="0.106" x1="65.546" y1="86.466" x2="61.893" y2="86.466"/>
   <line stroke-width="0.106" x1="60.066" y1="86.466" x2="56.412" y2="86.466"/>
   <line stroke-width="0.106" x1="54.585" y1="86.466" x2="50.932" y2="86.466"/>
   <line stroke-width="0.106" x1="49.106" y1="86.466" x2="45.451" y2="86.466"/>
   <line stroke-width="0.106" x1="43.625" y1="86.466" x2="39.972" y2="86.466"/>
   <line stroke-width="0.106" x1="38.145" y1="86.466" x2="33.89" y2="86.466"/>
   <line stroke-width="0.106" x1="30.861" y1="87.501" x2="34.226" y2="87.501"/>
   <line stroke-width="0.106" x1="87.731" y1="87.501" x2="91.096" y2="87.501"/>
   <line stroke-width="0.106" x1="33.89" y1="85.697" x2="34.155" y2="85.697"/>
   <line stroke-width="0.106" x1="87.804" y1="85.697" x2="88.069" y2="85.697"/>
   <line stroke-width="0.106" x1="88.837" y1="87.284" x2="87.635" y2="87.284"/>
   <line stroke-width="0.106" x1="34.323" y1="87.284" x2="33.121" y2="87.284"/>
   <line stroke-width="0.106" x1="88.069" y1="86.442" x2="83.813" y2="86.442"/>
   <line stroke-width="0.106" x1="81.986" y1="86.442" x2="78.334" y2="86.442"/>
   <line stroke-width="0.106" x1="76.507" y1="86.442" x2="72.853" y2="86.442"/>
   <line stroke-width="0.106" x1="71.027" y1="86.442" x2="67.373" y2="86.442"/>
   <line stroke-width="0.106" x1="65.546" y1="86.442" x2="61.893" y2="86.442"/>
   <line stroke-width="0.106" x1="60.066" y1="86.442" x2="56.412" y2="86.442"/>
   <line stroke-width="0.106" x1="54.585" y1="86.442" x2="50.932" y2="86.442"/>
   <line stroke-width="0.106" x1="49.106" y1="86.442" x2="45.451" y2="86.442"/>
   <line stroke-width="0.106" x1="43.625" y1="86.442" x2="39.972" y2="86.442"/>
   <line stroke-width="0.106" x1="38.145" y1="86.442" x2="33.89" y2="86.442"/>
   <line stroke-width="0.106" x1="33.722" y1="86.683" x2="38.145" y2="86.683"/>
   <line stroke-width="0.106" x1="39.972" y1="86.683" x2="43.625" y2="86.683"/>
   <line stroke-width="0.106" x1="45.451" y1="86.683" x2="49.106" y2="86.683"/>
   <line stroke-width="0.106" x1="50.932" y1="86.683" x2="54.585" y2="86.683"/>
   <line stroke-width="0.106" x1="56.412" y1="86.683" x2="60.066" y2="86.683"/>
   <line stroke-width="0.106" x1="61.893" y1="86.683" x2="65.546" y2="86.683"/>
   <line stroke-width="0.106" x1="67.373" y1="86.683" x2="71.027" y2="86.683"/>
   <line stroke-width="0.106" x1="72.853" y1="86.683" x2="76.507" y2="86.683"/>
   <line stroke-width="0.106" x1="78.334" y1="86.683" x2="81.986" y2="86.683"/>
   <line stroke-width="0.106" x1="83.813" y1="86.683" x2="88.236" y2="86.683"/>
   <polygon stroke-width="0.106" points="92.082 21.303 92.131 21.521 92.251 21.713 92.442 21.856 92.683 21.905 92.924 21.856 93.115 21.713 93.236 21.521 93.284 21.303 93.236 21.064 93.115 20.871 92.924 20.728 92.683 20.704 92.442 20.728 92.251 20.871 92.131 21.064 92.082 21.303"/>
   <polygon stroke-width="0.106" points="92.082 84.712 92.131 84.929 92.251 85.12 92.442 85.265 92.683 85.313 92.924 85.265 93.115 85.12 93.236 84.929 93.284 84.712 93.236 84.471 93.115 84.28 92.924 84.135 92.683 84.087 92.442 84.135 92.251 84.28 92.131 84.471 92.082 84.712"/>
   <line stroke-width="0.106" x1="90.567" y1="18.611" x2="90.567" y2="21.952"/>
   <line stroke-width="0.106" x1="90.567" y1="23.78" x2="90.567" y2="27.434"/>
   <line stroke-width="0.106" x1="90.567" y1="29.26" x2="90.567" y2="32.914"/>
   <line stroke-width="0.106" x1="90.567" y1="34.74" x2="90.567" y2="38.393"/>
   <line stroke-width="0.106" x1="90.567" y1="40.22" x2="90.567" y2="43.875"/>
   <line stroke-width="0.106" x1="90.567" y1="45.701" x2="90.567" y2="49.354"/>
   <line stroke-width="0.106" x1="90.567" y1="51.182" x2="90.567" y2="54.835"/>
   <line stroke-width="0.106" x1="90.567" y1="56.661" x2="90.567" y2="60.29"/>
   <line stroke-width="0.106" x1="90.567" y1="62.118" x2="90.567" y2="65.772"/>
   <line stroke-width="0.106" x1="90.567" y1="67.597" x2="90.567" y2="71.251"/>
   <line stroke-width="0.106" x1="90.567" y1="73.078" x2="90.567" y2="76.731"/>
   <line stroke-width="0.106" x1="90.567" y1="78.558" x2="90.567" y2="82.212"/>
   <line stroke-width="0.106" x1="90.567" y1="84.039" x2="90.567" y2="87.379"/>
   <line stroke-width="0.106" x1="90.905" y1="87.379" x2="90.567" y2="87.379"/>
   <line stroke-width="0.106" x1="87.804" y1="85.65" x2="88.069" y2="85.65"/>
   <line stroke-width="0.106" x1="87.804" y1="85.65" x2="87.804" y2="83.918"/>
   <path stroke-width="0.106" d="M90.567 18.611L90.832 18.611C92.299 18.611 93.765 18.611 95.23 18.611L95.28 18.611"/>
   <line stroke-width="0.106" x1="95.328" y1="18.611" x2="95.495" y2="18.611"/>
   <line stroke-width="0.106" x1="95.495" y1="87.379" x2="95.495" y2="84.039"/>
   <line stroke-width="0.106" x1="95.495" y1="82.212" x2="95.495" y2="78.558"/>
   <line stroke-width="0.106" x1="95.495" y1="76.731" x2="95.495" y2="73.078"/>
   <line stroke-width="0.106" x1="95.495" y1="71.251" x2="95.495" y2="67.597"/>
   <line stroke-width="0.106" x1="95.495" y1="65.772" x2="95.495" y2="62.118"/>
   <line stroke-width="0.106" x1="95.495" y1="60.29" x2="95.495" y2="56.661"/>
   <line stroke-width="0.106" x1="95.495" y1="54.835" x2="95.495" y2="51.182"/>
   <line stroke-width="0.106" x1="95.495" y1="49.354" x2="95.495" y2="45.701"/>
   <line stroke-width="0.106" x1="95.495" y1="43.875" x2="95.495" y2="40.22"/>
   <line stroke-width="0.106" x1="95.495" y1="38.393" x2="95.495" y2="34.74"/>
   <line stroke-width="0.106" x1="95.495" y1="32.914" x2="95.495" y2="29.26"/>
   <line stroke-width="0.106" x1="95.495" y1="27.434" x2="95.495" y2="23.78"/>
   <line stroke-width="0.106" x1="95.495" y1="21.952" x2="95.495" y2="18.611"/>
   <line stroke-width="0.106" x1="95.495" y1="87.379" x2="95.328" y2="87.379"/>
   <line stroke-width="0.106" x1="95.28" y1="87.379" x2="90.905" y2="87.379"/>
   <line stroke-width="0.106" x1="87.804" y1="83.918" x2="88.069" y2="83.918"/>
   <line stroke-width="0.106" x1="90.905" y1="87.379" x2="90.905" y2="84.039"/>
   <line stroke-width="0.106" x1="90.905" y1="82.212" x2="90.905" y2="78.558"/>
   <line stroke-width="0.106" x1="90.905" y1="76.731" x2="90.905" y2="73.078"/>
   <line stroke-width="0.106" x1="90.905" y1="71.251" x2="90.905" y2="67.597"/>
   <line stroke-width="0.106" x1="90.905" y1="65.772" x2="90.905" y2="62.118"/>
   <line stroke-width="0.106" x1="90.905" y1="60.29" x2="90.905" y2="56.661"/>
   <line stroke-width="0.106" x1="90.905" y1="54.835" x2="90.905" y2="51.182"/>
   <line stroke-width="0.106" x1="90.905" y1="49.354" x2="90.905" y2="45.701"/>
   <line stroke-width="0.106" x1="90.905" y1="43.875" x2="90.905" y2="40.22"/>
   <line stroke-width="0.106" x1="90.905" y1="38.393" x2="90.905" y2="34.74"/>
   <line stroke-width="0.106" x1="90.905" y1="32.914" x2="90.905" y2="29.26"/>
   <line stroke-width="0.106" x1="90.905" y1="27.434" x2="90.905" y2="23.78"/>
   <line stroke-width="0.106" x1="90.905" y1="21.952" x2="90.905" y2="18.611"/>
   <line stroke-width="0.106" x1="95.135" y1="18.611" x2="95.135" y2="21.952"/>
   <line stroke-width="0.106" x1="95.135" y1="23.78" x2="95.135" y2="27.434"/>
   <line stroke-width="0.106" x1="95.135" y1="29.26" x2="95.135" y2="32.914"/>
   <line stroke-width="0.106" x1="95.135" y1="34.74" x2="95.135" y2="38.393"/>
   <line stroke-width="0.106" x1="95.135" y1="40.22" x2="95.135" y2="43.875"/>
   <line stroke-width="0.106" x1="95.135" y1="45.701" x2="95.135" y2="49.354"/>
   <line stroke-width="0.106" x1="95.135" y1="51.182" x2="95.135" y2="54.835"/>
   <line stroke-width="0.106" x1="95.135" y1="56.661" x2="95.135" y2="60.29"/>
   <line stroke-width="0.106" x1="95.135" y1="62.118" x2="95.135" y2="65.772"/>
   <line stroke-width="0.106" x1="95.135" y1="67.597" x2="95.135" y2="71.251"/>
   <line stroke-width="0.106" x1="95.135" y1="73.078" x2="95.135" y2="76.731"/>
   <line stroke-width="0.106" x1="95.135" y1="78.558" x2="95.135" y2="82.212"/>
   <line stroke-width="0.106" x1="95.135" y1="84.039" x2="95.135" y2="87.379"/>
   <polygon stroke-width="0.106" points="29.876 84.712 29.829 84.471 29.707 84.28 29.515 84.135 29.275 84.087 29.035 84.135 28.843 84.28 28.722 84.471 28.675 84.712 28.722 84.929 28.843 85.12 29.035 85.265 29.275 85.313 29.515 85.265 29.707 85.12 29.829 84.929 29.876 84.712"/>
   <polygon stroke-width="0.106" points="29.876 21.303 29.829 21.064 29.707 20.871 29.515 20.728 29.275 20.704 29.035 20.728 28.843 20.871 28.722 21.064 28.675 21.303 28.722 21.521 28.843 21.713 29.035 21.856 29.275 21.905 29.515 21.856 29.707 21.713 29.829 21.521 29.876 21.303"/>
   <line stroke-width="0.106" x1="31.39" y1="87.379" x2="31.39" y2="84.039"/>
   <line stroke-width="0.106" x1="31.39" y1="82.212" x2="31.39" y2="78.558"/>
   <line stroke-width="0.106" x1="31.39" y1="76.731" x2="31.39" y2="73.078"/>
   <line stroke-width="0.106" x1="31.39" y1="71.251" x2="31.39" y2="67.597"/>
   <line stroke-width="0.106" x1="31.39" y1="65.772" x2="31.39" y2="62.118"/>
   <line stroke-width="0.106" x1="31.39" y1="60.29" x2="31.39" y2="56.661"/>
   <line stroke-width="0.106" x1="31.39" y1="54.835" x2="31.39" y2="51.182"/>
   <line stroke-width="0.106" x1="31.39" y1="49.354" x2="31.39" y2="45.701"/>
   <line stroke-width="0.106" x1="31.39" y1="43.875" x2="31.39" y2="40.22"/>
   <line stroke-width="0.106" x1="31.39" y1="38.393" x2="31.39" y2="34.74"/>
   <line stroke-width="0.106" x1="31.39" y1="32.914" x2="31.39" y2="29.26"/>
   <line stroke-width="0.106" x1="31.39" y1="27.434" x2="31.39" y2="23.78"/>
   <line stroke-width="0.106" x1="31.39" y1="21.952" x2="31.39" y2="18.611"/>
   <line stroke-width="0.106" x1="31.053" y1="18.611" x2="31.39" y2="18.611"/>
   <polyline stroke-width="0.106" points="33.89 85.65 34.155 85.65 34.155 83.918"/>
   <path stroke-width="0.106" d="M31.39 87.379L31.126 87.379C29.66 87.379 28.193 87.379 26.728 87.379L26.679 87.379"/>
   <line stroke-width="0.106" x1="26.632" y1="87.379" x2="26.463" y2="87.379"/>
   <line stroke-width="0.106" x1="26.463" y1="18.611" x2="26.463" y2="21.952"/>
   <line stroke-width="0.106" x1="26.463" y1="23.78" x2="26.463" y2="27.434"/>
   <line stroke-width="0.106" x1="26.463" y1="29.26" x2="26.463" y2="32.914"/>
   <line stroke-width="0.106" x1="26.463" y1="34.74" x2="26.463" y2="38.393"/>
   <line stroke-width="0.106" x1="26.463" y1="40.22" x2="26.463" y2="43.875"/>
   <line stroke-width="0.106" x1="26.463" y1="45.701" x2="26.463" y2="49.354"/>
   <line stroke-width="0.106" x1="26.463" y1="51.182" x2="26.463" y2="54.835"/>
   <line stroke-width="0.106" x1="26.463" y1="56.661" x2="26.463" y2="60.29"/>
   <line stroke-width="0.106" x1="26.463" y1="62.118" x2="26.463" y2="65.772"/>
   <line stroke-width="0.106" x1="26.463" y1="67.597" x2="26.463" y2="71.251"/>
   <line stroke-width="0.106" x1="26.463" y1="73.078" x2="26.463" y2="76.731"/>
   <line stroke-width="0.106" x1="26.463" y1="78.558" x2="26.463" y2="82.212"/>
   <line stroke-width="0.106" x1="26.463" y1="84.039" x2="26.463" y2="87.379"/>
   <line stroke-width="0.106" x1="26.463" y1="18.611" x2="26.632" y2="18.611"/>
   <polyline stroke-width="0.106" points="26.679 18.611 31.053 18.611 31.053 21.952"/>
   <line stroke-width="0.106" x1="31.053" y1="23.78" x2="31.053" y2="27.434"/>
   <line stroke-width="0.106" x1="31.053" y1="29.26" x2="31.053" y2="32.914"/>
   <line stroke-width="0.106" x1="31.053" y1="34.74" x2="31.053" y2="38.393"/>
   <line stroke-width="0.106" x1="31.053" y1="40.22" x2="31.053" y2="43.875"/>
   <line stroke-width="0.106" x1="31.053" y1="45.701" x2="31.053" y2="49.354"/>
   <line stroke-width="0.106" x1="31.053" y1="51.182" x2="31.053" y2="54.835"/>
   <line stroke-width="0.106" x1="31.053" y1="56.661" x2="31.053" y2="60.29"/>
   <line stroke-width="0.106" x1="31.053" y1="62.118" x2="31.053" y2="65.772"/>
   <line stroke-width="0.106" x1="31.053" y1="67.597" x2="31.053" y2="71.251"/>
   <line stroke-width="0.106" x1="31.053" y1="73.078" x2="31.053" y2="76.731"/>
   <line stroke-width="0.106" x1="31.053" y1="78.558" x2="31.053" y2="82.212"/>
   <line stroke-width="0.106" x1="31.053" y1="84.039" x2="31.053" y2="87.379"/>
   <line stroke-width="0.106" x1="34.155" y1="83.918" x2="33.89" y2="83.918"/>
   <line stroke-width="0.106" x1="26.824" y1="87.379" x2="26.824" y2="84.039"/>
   <line stroke-width="0.106" x1="26.824" y1="82.212" x2="26.824" y2="78.558"/>
   <line stroke-width="0.106" x1="26.824" y1="76.731" x2="26.824" y2="73.078"/>
   <line stroke-width="0.106" x1="26.824" y1="71.251" x2="26.824" y2="67.597"/>
   <line stroke-width="0.106" x1="26.824" y1="65.772" x2="26.824" y2="62.118"/>
   <line stroke-width="0.106" x1="26.824" y1="60.29" x2="26.824" y2="56.661"/>
   <line stroke-width="0.106" x1="26.824" y1="54.835" x2="26.824" y2="51.182"/>
   <line stroke-width="0.106" x1="26.824" y1="49.354" x2="26.824" y2="45.701"/>
   <line stroke-width="0.106" x1="26.824" y1="43.875" x2="26.824" y2="40.22"/>
   <line stroke-width="0.106" x1="26.824" y1="38.393" x2="26.824" y2="34.74"/>
   <line stroke-width="0.106" x1="26.824" y1="32.914" x2="26.824" y2="29.26"/>
   <line stroke-width="0.106" x1="26.824" y1="27.434" x2="26.824" y2="23.78"/>
   <line stroke-width="0.106" x1="26.824" y1="21.952" x2="26.824" y2="18.611"/>
   <line stroke-width="0.106" x1="95.736" y1="18.611" x2="108.644" y2="18.611"/>
  </g>
 </g>
 <g id="120mm_x0020_hidden_x0020_Schneider_x0020_layer_x0020_for_x0020_editor">
  <polygon stroke="none" points="0 88.495 0 97.495 120 97.495 120 88.495 0 88.495"/>
 </g>
 <g id="cutout_x0020_layer">
 </g>
 <g id="outline_x0020_layer">
 </g>
 <g id="zoom_x0020_layer">
 </g>
 <g id="outline_x0020_on_x0020_zoom_x0020_layer">
 </g>
 <g id="arrow_x0020_layer">
 </g>
 <g id="_x0020_cable_x0020_layer">
 </g>
 <g id="symbol_x0020_layer">
 </g>
 <g id="text_x0020_layer">
  <text x="54.369" y="93.397" stroke="none" fill="#000000" font-family="'Arial'" font-size="3.528">Front</text>
 </g>
 <g id="text-_x0020_DO_x0020_NOT_x0020_translate">
  <text x="11.835" y="2.468" stroke="none" fill="#000000" font-family="'Arial'" font-size="3.528">ø14</text>
  <g>
   <polygon stroke="none" fill="#000000" points="95.495 4.338 97.615 4.711 97.615 3.964"/>
   <line stroke-width="0.106" x1="101.361" y1="4.338" x2="97.403" y2="4.338"/>
   <text x="101.159" y="5.713" stroke="none" fill="#000000" font-family="'Arial'" font-size="3.528">32 mm</text>
  </g>
  <g>
   <line stroke-width="0.106" x1="95.448" y1="2.071" x2="95.448" y2="18.384"/>
   <polygon stroke="none" fill="#000000" points="95.448 11.438 93.328 11.064 93.328 11.811"/>
   <line stroke-width="0.106" x1="90.483" y1="11.438" x2="93.54" y2="11.438"/>
   <polygon stroke="none" fill="#000000" points="89.153 11.438 91.274 11.811 91.274 11.064"/>
   <line stroke-width="0.106" x1="93.081" y1="11.438" x2="91.061" y2="11.438"/>
   <text x="102.62" y="13.272" stroke="none" fill="#000000" font-family="'Arial'" font-size="3.528">73 mm</text>
  </g>
  <line stroke-width="0.106" x1="101.078" y1="11.417" x2="95.612" y2="11.417"/>
  <g>
   <line stroke-width="0.106" x1="32.765" y1="78.26" x2="11.782" y2="78.26"/>
   <polygon stroke="none" fill="#000000" points="16.321 84.653 16.696 82.533 15.948 82.533"/>
   <line stroke-width="0.106" x1="16.321" y1="80.441" x2="16.321" y2="82.745"/>
   <polygon stroke="none" fill="#000000" points="16.321 78.302 15.948 80.423 16.696 80.423"/>
   <line stroke-width="0.106" x1="16.321" y1="82.546" x2="16.321" y2="80.21"/>
   <text transform="matrix(0 -1 1 0 15.788 97.459)" stroke="none" fill="#000000" font-family="'Arial'" font-size="3.528">75 mm</text>
  </g>
  <line stroke-width="0.106" x1="16.321" y1="97.322" x2="16.321" y2="84.653"/>
  <g>
   <line stroke-width="0.106" x1="92.704" y1="84.688" x2="106.683" y2="84.688"/>
   <polygon stroke="none" fill="#000000" points="104.331 87.668 103.956 89.789 104.703 89.789"/>
   <line stroke-width="0.106" x1="104.331" y1="92.605" x2="104.331" y2="89.576"/>
   <polygon stroke="none" fill="#000000" points="104.331 84.492 104.703 82.371 103.956 82.371"/>
   <line stroke-width="0.106" x1="104.331" y1="79.552" x2="104.331" y2="82.584"/>
   <text transform="matrix(0 -1 1 0 105.733 79.543)" stroke="none" fill="#000000" font-family="'Arial'" font-size="3.528">34 mm</text>
  </g>
  <g>
   <line stroke-width="0.106" x1="95.495" y1="87.418" x2="117.512" y2="87.418"/>
   <line stroke-width="0.106" x1="98.007" y1="18.611" x2="117.512" y2="18.611"/>
   <polygon stroke="none" fill="#000000" points="115.24 87.668 115.614 85.549 114.867 85.549"/>
   <line stroke-width="0.106" x1="115.24" y1="62.423" x2="115.24" y2="85.76"/>
   <polygon stroke="none" fill="#000000" points="115.24 18.611 114.867 20.731 115.614 20.731"/>
   <line stroke-width="0.106" x1="115.24" y1="43.857" x2="115.24" y2="20.519"/>
   <text transform="matrix(0 -1 1 0 115.769 59.512)" stroke="none" fill="#000000" font-family="'Arial'" font-size="3.528">797 mm</text>
  </g>
  <g>
   <line stroke-width="0.106" x1="89.112" y1="21.289" x2="89.112" y2="9.204"/>
   <line stroke-width="0.106" x1="32.698" y1="21.373" x2="32.698" y2="9.204"/>
   <polygon stroke="none" fill="#000000" points="89.112 11.474 86.992 11.101 86.992 11.849"/>
   <line stroke-width="0.106" x1="70.207" y1="11.474" x2="87.204" y2="11.474"/>
   <polygon stroke="none" fill="#000000" points="32.698 11.474 34.817 11.849 34.817 11.101"/>
   <line stroke-width="0.106" x1="51.603" y1="11.474" x2="34.606" y2="11.474"/>
   <text x="54.533" y="12.003" stroke="none" fill="#000000" font-family="'Arial'" font-size="3.528">653 mm</text>
  </g>
  <g>
   <line stroke-width="0.106" x1="92.75" y1="21.257" x2="92.75" y2="2.065"/>
   <line stroke-width="0.106" x1="29.335" y1="21.222" x2="29.335" y2="2.065"/>
   <polygon stroke="none" fill="#000000" points="92.75 4.338 90.629 3.964 90.629 4.711"/>
   <line stroke-width="0.106" x1="70.325" y1="4.338" x2="90.841" y2="4.338"/>
   <polygon stroke="none" fill="#000000" points="29.335 4.338 31.454 4.711 31.454 3.964"/>
   <line stroke-width="0.106" x1="51.759" y1="4.338" x2="31.242" y2="4.338"/>
   <text x="54.67" y="4.867" stroke="none" fill="#000000" font-family="'Arial'" font-size="3.528">735 mm</text>
  </g>
  <g>
   <line stroke-width="0.106" x1="29.187" y1="21.222" x2="1.328" y2="21.222"/>
   <line stroke-width="0.106" x1="29.333" y1="84.659" x2="1.328" y2="84.659"/>
   <polygon stroke="none" fill="#000000" points="3.599 21.222 3.225 23.343 3.972 23.343"/>
   <line stroke-width="0.106" x1="3.599" y1="43.658" x2="3.599" y2="23.131"/>
   <polygon stroke="none" fill="#000000" points="3.599 84.659 3.972 82.539 3.225 82.539"/>
   <line stroke-width="0.106" x1="3.599" y1="62.223" x2="3.599" y2="82.751"/>
   <text transform="matrix(0 -1 1 0 4.128 59.313)" stroke="none" fill="#000000" font-family="'Arial'" font-size="3.528">735 mm</text>
  </g>
  <g>
   <line stroke-width="0.106" x1="32.676" y1="27.655" x2="14.208" y2="27.655"/>
   <line stroke-width="0.106" x1="32.765" y1="52.988" x2="14.208" y2="52.988"/>
   <text transform="matrix(0 -1 1 0 17.007 46.646)" stroke="none" fill="#000000" font-family="'Arial'" font-size="3.528">293 mm</text>
  </g>
  <g>
   <line stroke-width="0.106" x1="32.676" y1="52.988" x2="14.208" y2="52.988"/>
   <polygon stroke="none" fill="#000000" points="16.321 52.988 16.696 50.868 15.948 50.868"/>
   <line stroke-width="0.106" x1="16.321" y1="47.771" x2="16.321" y2="51.081"/>
   <text transform="matrix(0 -1 1 0 17.007 72.075)" stroke="none" fill="#000000" font-family="'Arial'" font-size="3.528">293 mm</text>
  </g>
  <polygon stroke="none" fill="#000000" points="16.321 27.561 15.948 29.681 16.696 29.681"/>
  <line stroke-width="0.106" x1="16.321" y1="32.779" x2="16.321" y2="29.469"/>
  <polygon stroke="none" fill="#000000" points="16.321 78.302 16.696 76.183 15.948 76.183"/>
  <line stroke-width="0.106" x1="16.321" y1="73.084" x2="16.321" y2="76.394"/>
  <polygon stroke="none" fill="#000000" points="16.321 52.875 15.948 54.994 16.696 54.994"/>
  <line stroke-width="0.106" x1="16.321" y1="58.093" x2="16.321" y2="54.783"/>
  <polygon stroke="none" fill="#000000" points="28.986 20.775 28.074 16.736 26.176 17.734"/>
  <path stroke-width="0.2" stroke-dasharray="1 1" d="M12.887 3.391L19.846 3.391L26.846 16.704"/>
  <line stroke-width="0.2" x1="26.846" y1="16.704" x2="27.312" y2="17.588"/>
  <line stroke-width="0.106" x1="101.078" y1="11.417" x2="95.612" y2="11.417"/>
 </g>
 <g id="callout_x0020_layer">
 </g>
</svg>
