<?xml version="1.0" encoding="UTF-8"?>
<!-- Generator: PTC Arbortext IsoDraw 7.4 M001 -->
<svg xmlns="http://www.w3.org/2000/svg" xmlns:xlink="http://www.w3.org/1999/xlink" width="85mm" height="74.236mm" viewBox="0 0 85 74.236" fill-rule="evenodd" clip-rule="evenodd" stroke="#000000" stroke-linecap="round" fill="none" xml:space="preserve" preserveAspectRatio="xMidYMid meet" zoomAndPan="magnify" version="1.1" contentScriptType="text/ecmascript" contentStyleType="text/css">
 <g id="_x0020_fill_x0020_layer">
 </g>
 <g id="Standard_x0020_layer">
  <polygon stroke-width="0.353" points="26.301 7.626 26.301 25.393 40.271 25.393 40.271 7.626 26.301 7.626"/>
  <polygon stroke-width="0.353" points="0.588 7.469 0.588 53.856 18.588 53.856 18.588 7.469 0.588 7.469"/>
 </g>
 <g id="120mm_x0020_hidden_x0020_Schneider_x0020_layer_x0020_for_x0020_editor">
  <polygon stroke="none" points="0 67.537 0 73.912 85 73.912 85 67.537 0 67.537"/>
 </g>
 <g id="cutout_x0020_layer">
 </g>
 <g id="outline_x0020_layer">
 </g>
 <g id="zoom_x0020_layer">
 </g>
 <g id="outline_x0020_on_x0020_zoom_x0020_layer">
 </g>
 <g id="arrow_x0020_layer">
 </g>
 <g id="_x0020_cable_x0020_layer">
  <g>
   <line stroke="#FFFFFF" stroke-width="2" x1="3.262" y1="66.951" x2="12.497" y2="66.951"/>
   <line stroke-width="0.7" x1="1.911" y1="66.951" x2="13.848" y2="66.951"/>
  </g>
  <g>
   <line stroke="#FFFFFF" stroke-width="1" x1="2.661" y1="72.021" x2="13.098" y2="72.021"/>
   <line stroke="#01889C" stroke-width="0.5" x1="1.911" y1="72.021" x2="13.848" y2="72.021"/>
  </g>
  <g>
   <line stroke="#FFFFFF" stroke-width="2" x1="61.237" y1="48.264" x2="69.831" y2="48.264"/>
   <line stroke-width="0.7" x1="59.887" y1="48.264" x2="71.18" y2="48.264"/>
  </g>
  <polygon stroke-width="0.353" points="66.072 7.469 66.072 53.856 84.072 53.856 84.072 7.469 66.072 7.469"/>
  <polygon stroke-width="0.353" points="47.036 7.469 47.036 53.856 65.036 53.856 65.036 7.469 47.036 7.469"/>
  <g>
   <path stroke="#FFFFFF" stroke-width="0.6" d="M5.065 54.322L5.065 62.868L58.807 62.868L58.807 54.24"/>
   <polyline stroke="#01889C" stroke-width="0.5" points="5.065 54.322 5.065 62.868 58.807 62.868 58.807 54.24"/>
  </g>
  <g>
   <path stroke="#FFFFFF" stroke-width="2" d="M36.802 27.032L36.802 59.302L53.145 59.302L53.145 55.664"/>
   <polyline stroke-width="0.7" points="36.802 25.681 36.802 59.302 53.145 59.302 53.145 54.314"/>
  </g>
  <g>
   <path stroke="#FFFFFF" stroke-width="2" d="M32.857 26.925L32.857 59.302L14.708 59.302L14.708 55.545"/>
   <polyline stroke-width="0.7" points="32.857 25.574 32.857 59.302 14.708 59.302 14.708 54.195"/>
  </g>
  <g>
   <path stroke="#FFFFFF" stroke-width="0.6" d="M28.443 25.647L28.443 61.359L8.252 61.359L8.252 54.322"/>
   <polyline stroke="#01889C" stroke-width="0.5" points="28.443 25.647 28.443 61.359 8.252 61.359 8.252 54.322"/>
  </g>
 </g>
 <g id="symbol_x0020_layer">
  <g id="AUTOID_3741">
   <desc>battery</desc>
   <g id="AUTOID_3742">
    <desc>Layer 1</desc>
    <path stroke-width="0.13" fill="#000000" d="M54.439 46.935L54.168 46.935 54.168 46.625C54.168 46.561 54.122 46.509 54.066 46.509L53.859 46.509C53.804 46.509 53.758 46.561 53.758 46.625L53.758 46.935 53.485 46.935C53.429 46.935 53.383 46.987 53.383 47.051L53.383 47.286C53.383 47.35 53.429 47.402 53.485 47.402L53.758 47.402 53.758 47.713C53.758 47.777 53.804 47.829 53.859 47.829L54.066 47.829C54.122 47.829 54.168 47.777 54.168 47.713L54.168 47.402 54.439 47.402C54.496 47.402 54.542 47.35 54.542 47.286L54.542 47.051C54.542 46.987 54.496 46.935 54.439 46.935z"/>
    <path stroke="none" fill="#000000" d="M54.439 46.935L54.168 46.935 54.168 46.625C54.168 46.561 54.122 46.509 54.066 46.509L53.859 46.509C53.804 46.509 53.758 46.561 53.758 46.625L53.758 46.935 53.485 46.935C53.429 46.935 53.383 46.987 53.383 47.051L53.383 47.286C53.383 47.35 53.429 47.402 53.485 47.402L53.758 47.402 53.758 47.713C53.758 47.777 53.804 47.829 53.859 47.829L54.066 47.829C54.122 47.829 54.168 47.777 54.168 47.713L54.168 47.402 54.439 47.402C54.496 47.402 54.542 47.35 54.542 47.286L54.542 47.051C54.542 46.987 54.496 46.935 54.439 46.935z"/>
    <path stroke-width="0.13" fill="#000000" d="M59.371 45.176L59.1 45.176C59.012 44.857 58.781 44.634 58.506 44.634L57.829 44.634C57.554 44.634 57.322 44.857 57.234 45.176L54.837 45.176C54.749 44.857 54.518 44.634 54.241 44.634L53.566 44.634C53.289 44.634 53.057 44.857 52.97 45.176L52.7 45.176C52.35 45.176 52.067 45.545 52.067 45.997L52.067 50.57C52.067 51.023 52.35 51.392 52.7 51.392L53.682 51.392C53.813 51.392 53.918 51.271 53.918 51.122 53.918 50.975 53.813 50.854 53.682 50.854L52.7 50.854C52.622 50.854 52.537 50.732 52.537 50.57L52.537 45.997C52.537 45.835 52.622 45.713 52.7 45.713L53.401 45.713 53.405 45.448C53.408 45.284 53.491 45.17 53.566 45.17L54.241 45.17C54.314 45.17 54.399 45.284 54.402 45.448L54.405 45.713 57.665 45.713 57.668 45.448C57.671 45.284 57.756 45.17 57.829 45.17L58.506 45.17C58.579 45.17 58.664 45.284 58.665 45.448L58.67 45.713 59.371 45.713C59.448 45.713 59.533 45.835 59.533 45.997L59.533 50.57C59.533 50.732 59.448 50.854 59.371 50.854L55.195 50.854C55.064 50.854 54.96 50.975 54.96 51.122 54.96 51.271 55.064 51.392 55.195 51.392L59.371 51.392C59.72 51.392 60.003 51.023 60.003 50.57L60.003 45.997C60.003 45.545 59.72 45.176 59.371 45.176z"/>
    <path stroke="none" fill="#000000" d="M59.371 45.176L59.1 45.176C59.012 44.857 58.781 44.634 58.506 44.634L57.829 44.634C57.554 44.634 57.322 44.857 57.234 45.176L54.837 45.176C54.749 44.857 54.518 44.634 54.241 44.634L53.566 44.634C53.289 44.634 53.057 44.857 52.97 45.176L52.7 45.176C52.35 45.176 52.067 45.545 52.067 45.997L52.067 50.57C52.067 51.023 52.35 51.392 52.7 51.392L53.682 51.392C53.813 51.392 53.918 51.271 53.918 51.122 53.918 50.975 53.813 50.854 53.682 50.854L52.7 50.854C52.622 50.854 52.537 50.732 52.537 50.57L52.537 45.997C52.537 45.835 52.622 45.713 52.7 45.713L53.401 45.713 53.405 45.448C53.408 45.284 53.491 45.17 53.566 45.17L54.241 45.17C54.314 45.17 54.399 45.284 54.402 45.448L54.405 45.713 57.665 45.713 57.668 45.448C57.671 45.284 57.756 45.17 57.829 45.17L58.506 45.17C58.579 45.17 58.664 45.284 58.665 45.448L58.67 45.713 59.371 45.713C59.448 45.713 59.533 45.835 59.533 45.997L59.533 50.57C59.533 50.732 59.448 50.854 59.371 50.854L55.195 50.854C55.064 50.854 54.96 50.975 54.96 51.122 54.96 51.271 55.064 51.392 55.195 51.392L59.371 51.392C59.72 51.392 60.003 51.023 60.003 50.57L60.003 45.997C60.003 45.545 59.72 45.176 59.371 45.176z"/>
    <path stroke-width="0.13" fill="#000000" d="M58.591 47.402C58.648 47.402 58.694 47.35 58.694 47.286L58.694 47.051C58.694 46.987 58.648 46.935 58.591 46.935L57.637 46.935C57.581 46.935 57.534 46.987 57.534 47.051L57.534 47.286C57.534 47.35 57.581 47.402 57.637 47.402L58.591 47.402z"/>
   </g>
  </g>
  <g id="AUTOID_3734">
   <desc>battery</desc>
   <g id="AUTOID_3735">
    <desc>Layer 1</desc>
    <path stroke-width="0.13" fill="#000000" d="M73.477 46.935L73.204 46.935 73.204 46.625C73.204 46.561 73.159 46.509 73.102 46.509L72.897 46.509C72.84 46.509 72.793 46.561 72.793 46.625L72.793 46.935 72.522 46.935C72.465 46.935 72.42 46.987 72.42 47.051L72.42 47.286C72.42 47.35 72.465 47.402 72.522 47.402L72.793 47.402 72.793 47.713C72.793 47.777 72.84 47.829 72.897 47.829L73.102 47.829C73.159 47.829 73.204 47.777 73.204 47.713L73.204 47.402 73.477 47.402C73.533 47.402 73.579 47.35 73.579 47.286L73.579 47.051C73.579 46.987 73.533 46.935 73.477 46.935z"/>
    <path stroke="none" fill="#000000" d="M73.477 46.935L73.204 46.935 73.204 46.625C73.204 46.561 73.159 46.509 73.102 46.509L72.897 46.509C72.84 46.509 72.793 46.561 72.793 46.625L72.793 46.935 72.522 46.935C72.465 46.935 72.42 46.987 72.42 47.051L72.42 47.286C72.42 47.35 72.465 47.402 72.522 47.402L72.793 47.402 72.793 47.713C72.793 47.777 72.84 47.829 72.897 47.829L73.102 47.829C73.159 47.829 73.204 47.777 73.204 47.713L73.204 47.402 73.477 47.402C73.533 47.402 73.579 47.35 73.579 47.286L73.579 47.051C73.579 46.987 73.533 46.935 73.477 46.935z"/>
    <path stroke-width="0.13" fill="#000000" d="M78.408 45.176L78.137 45.176C78.049 44.857 77.817 44.634 77.542 44.634L76.865 44.634C76.59 44.634 76.358 44.857 76.271 45.176L73.873 45.176C73.786 44.857 73.554 44.634 73.278 44.634L72.602 44.634C72.325 44.634 72.093 44.857 72.007 45.176L71.736 45.176C71.387 45.176 71.102 45.545 71.102 45.997L71.102 50.57C71.102 51.023 71.387 51.392 71.736 51.392L72.718 51.392C72.849 51.392 72.954 51.271 72.954 51.122 72.954 50.975 72.849 50.854 72.718 50.854L71.736 50.854C71.659 50.854 71.575 50.732 71.575 50.57L71.575 45.997C71.575 45.835 71.659 45.713 71.736 45.713L72.438 45.713 72.441 45.448C72.444 45.284 72.528 45.17 72.602 45.17L73.278 45.17C73.352 45.17 73.436 45.284 73.438 45.448L73.441 45.713 76.701 45.713 76.706 45.448C76.707 45.284 76.792 45.17 76.865 45.17L77.542 45.17C77.615 45.17 77.7 45.284 77.703 45.448L77.706 45.713 78.408 45.713C78.483 45.713 78.569 45.835 78.569 45.997L78.569 50.57C78.569 50.732 78.483 50.854 78.408 50.854L74.231 50.854C74.102 50.854 73.995 50.975 73.995 51.122 73.995 51.271 74.102 51.392 74.231 51.392L78.408 51.392C78.757 51.392 79.04 51.023 79.04 50.57L79.04 45.997C79.04 45.545 78.757 45.176 78.408 45.176z"/>
    <path stroke="none" fill="#000000" d="M78.408 45.176L78.137 45.176C78.049 44.857 77.817 44.634 77.542 44.634L76.865 44.634C76.59 44.634 76.358 44.857 76.271 45.176L73.873 45.176C73.786 44.857 73.554 44.634 73.278 44.634L72.602 44.634C72.325 44.634 72.093 44.857 72.007 45.176L71.736 45.176C71.387 45.176 71.102 45.545 71.102 45.997L71.102 50.57C71.102 51.023 71.387 51.392 71.736 51.392L72.718 51.392C72.849 51.392 72.954 51.271 72.954 51.122 72.954 50.975 72.849 50.854 72.718 50.854L71.736 50.854C71.659 50.854 71.575 50.732 71.575 50.57L71.575 45.997C71.575 45.835 71.659 45.713 71.736 45.713L72.438 45.713 72.441 45.448C72.444 45.284 72.528 45.17 72.602 45.17L73.278 45.17C73.352 45.17 73.436 45.284 73.438 45.448L73.441 45.713 76.701 45.713 76.706 45.448C76.707 45.284 76.792 45.17 76.865 45.17L77.542 45.17C77.615 45.17 77.7 45.284 77.703 45.448L77.706 45.713 78.408 45.713C78.483 45.713 78.569 45.835 78.569 45.997L78.569 50.57C78.569 50.732 78.483 50.854 78.408 50.854L74.231 50.854C74.102 50.854 73.995 50.975 73.995 51.122 73.995 51.271 74.102 51.392 74.231 51.392L78.408 51.392C78.757 51.392 79.04 51.023 79.04 50.57L79.04 45.997C79.04 45.545 78.757 45.176 78.408 45.176z"/>
    <path stroke-width="0.13" fill="#000000" d="M77.628 47.402C77.685 47.402 77.73 47.35 77.73 47.286L77.73 47.051C77.73 46.987 77.685 46.935 77.628 46.935L76.674 46.935C76.617 46.935 76.57 46.987 76.57 47.051L76.57 47.286C76.57 47.35 76.617 47.402 76.674 47.402L77.628 47.402z"/>
   </g>
  </g>
 </g>
 <g id="text_x0020_layer">
  <g>
   <text x="27.208" y="2.468" stroke="none" fill="#000000" font-family="'Arial'" font-size="3.528">Battery </text>
   <text x="23.972" y="6.349" stroke="none" fill="#000000" font-family="'Arial'" font-size="3.528">breaker box</text>
  </g>
  <text x="53.063" y="2.468" stroke="none" fill="#000000" font-family="'Arial'" font-size="3.528">Battery cabinets</text>
  <text x="5.961" y="2.468" stroke="none" fill="#000000" font-family="'Arial'" font-size="3.528">UPS</text>
  <text x="15.861" y="68.224" stroke="none" fill="#000000" font-family="'Arial'" font-size="3.174">Power cable</text>
  <text x="15.861" y="72.825" stroke="none" fill="#000000" font-family="'Arial'" font-size="3.174">Signal cable</text>
 </g>
 <g id="text-_x0020_DO_x0020_NOT_x0020_translate">
 </g>
 <g id="callout_x0020_layer">
 </g>
</svg>
