<?xml version="1.0" encoding="UTF-8"?>
<!-- Generator: PTC Arbortext IsoDraw 7.4 M001 -->
<svg xmlns="http://www.w3.org/2000/svg" xmlns:xlink="http://www.w3.org/1999/xlink" width="120mm" height="75.003mm" viewBox="0 0 120 75.003" fill-rule="evenodd" clip-rule="evenodd" stroke="#000000" stroke-linecap="round" fill="none" xml:space="preserve" preserveAspectRatio="xMidYMid meet" zoomAndPan="magnify" version="1.1" contentScriptType="text/ecmascript" contentStyleType="text/css">
 <g id="_x0020_fill_x0020_layer">
 </g>
 <g id="Standard_x0020_layer">
  <polygon stroke-width="0.353" points="34.588 8.003 34.588 25.769 48.557 25.769 48.557 8.003 34.588 8.003"/>
  <polygon stroke-width="0.353" points="0.734 8.003 0.734 54.389 18.734 54.389 18.734 8.003 0.734 8.003"/>
  <polygon stroke-width="0.353" points="101.308 8.003 101.308 54.389 119.308 54.389 119.308 8.003 101.308 8.003"/>
  <polygon stroke-width="0.353" points="63.21 8.003 63.21 54.389 81.209 54.389 81.209 8.003 63.21 8.003"/>
  <polygon stroke-width="0.353" points="82.272 8.003 82.272 54.389 100.272 54.389 100.272 8.003 82.272 8.003"/>
 </g>
 <g id="120mm_x0020_hidden_x0020_Schneider_x0020_layer_x0020_for_x0020_editor">
  <polygon stroke="none" points="0 65.245 0 74.245 120 74.245 120 65.245 0 65.245"/>
 </g>
 <g id="cutout_x0020_layer">
 </g>
 <g id="outline_x0020_layer">
 </g>
 <g id="zoom_x0020_layer">
 </g>
 <g id="outline_x0020_on_x0020_zoom_x0020_layer">
 </g>
 <g id="arrow_x0020_layer">
 </g>
 <g id="_x0020_cable_x0020_layer">
  <g>
   <line stroke="#FFFFFF" stroke-width="2" x1="3.676" y1="67.718" x2="12.913" y2="67.718"/>
   <line stroke-width="0.7" x1="2.326" y1="67.718" x2="14.262" y2="67.718"/>
  </g>
  <g>
   <line stroke="#FFFFFF" stroke-width="1" x1="3.076" y1="72.787" x2="13.512" y2="72.787"/>
   <line stroke="#01889C" stroke-width="0.5" x1="2.326" y1="72.787" x2="14.262" y2="72.787"/>
  </g>
  <g>
   <line stroke="#FFFFFF" stroke-width="2" x1="96.737" y1="49.034" x2="105.106" y2="49.034"/>
   <line stroke-width="0.7" x1="95.388" y1="49.034" x2="106.456" y2="49.034"/>
  </g>
  <g>
   <line stroke="#FFFFFF" stroke-width="2" x1="77.509" y1="49.034" x2="85.82" y2="49.034"/>
   <line stroke-width="0.7" x1="76.159" y1="49.034" x2="87.171" y2="49.034"/>
  </g>
  <g>
   <path stroke="#FFFFFF" stroke-width="0.6" d="M4.11 54.832L4.11 62.777L75.489 62.777L75.489 54.792"/>
   <polyline stroke="#01889C" stroke-width="0.5" points="4.11 54.832 4.11 62.777 75.489 62.777 75.489 54.792"/>
  </g>
  <g>
   <path stroke="#FFFFFF" stroke-width="2" d="M69.471 56.198L69.471 58.682L45.277 58.682L45.277 27.609"/>
   <polyline stroke-width="0.7" points="69.471 54.847 69.471 58.682 45.277 58.682 45.277 26.26"/>
  </g>
  <g>
   <path stroke="#FFFFFF" stroke-width="2" d="M40.703 27.542L40.703 58.682L10 58.682L10 56.051"/>
   <polyline stroke-width="0.7" points="40.703 26.192 40.703 58.682 10 58.682 10 54.701"/>
  </g>
  <g>
   <path stroke="#FFFFFF" stroke-width="0.6" d="M37.037 26.17L37.037 60.905L6.945 60.905L6.945 54.887"/>
   <polyline stroke="#01889C" stroke-width="0.5" points="37.037 26.17 37.037 60.905 6.945 60.905 6.945 54.887"/>
  </g>
 </g>
 <g id="symbol_x0020_layer">
  <g id="AUTOID_3750">
   <desc>battery</desc>
   <g id="AUTOID_3751">
    <desc>Layer 1</desc>
    <path stroke-width="0.13" fill="#000000" d="M89.676 47.615L89.405 47.615 89.405 47.304C89.405 47.24 89.358 47.189 89.302 47.189L89.096 47.189C89.04 47.189 88.993 47.24 88.993 47.304L88.993 47.615 88.721 47.615C88.665 47.615 88.618 47.667 88.618 47.731L88.618 47.966C88.618 48.03 88.665 48.082 88.721 48.082L88.993 48.082 88.993 48.392C88.993 48.457 89.04 48.509 89.096 48.509L89.302 48.509C89.358 48.509 89.405 48.457 89.405 48.392L89.405 48.082 89.676 48.082C89.733 48.082 89.778 48.03 89.778 47.966L89.778 47.731C89.778 47.667 89.733 47.615 89.676 47.615z"/>
    <path stroke="none" fill="#000000" d="M89.676 47.615L89.405 47.615 89.405 47.304C89.405 47.24 89.358 47.189 89.302 47.189L89.096 47.189C89.04 47.189 88.993 47.24 88.993 47.304L88.993 47.615 88.721 47.615C88.665 47.615 88.618 47.667 88.618 47.731L88.618 47.966C88.618 48.03 88.665 48.082 88.721 48.082L88.993 48.082 88.993 48.392C88.993 48.457 89.04 48.509 89.096 48.509L89.302 48.509C89.358 48.509 89.405 48.457 89.405 48.392L89.405 48.082 89.676 48.082C89.733 48.082 89.778 48.03 89.778 47.966L89.778 47.731C89.778 47.667 89.733 47.615 89.676 47.615z"/>
    <path stroke-width="0.13" fill="#000000" d="M94.608 45.856L94.337 45.856C94.248 45.536 94.018 45.314 93.742 45.314L93.066 45.314C92.79 45.314 92.558 45.536 92.471 45.856L90.072 45.856C89.984 45.536 89.754 45.314 89.477 45.314L88.802 45.314C88.525 45.314 88.293 45.536 88.206 45.856L87.936 45.856C87.587 45.856 87.302 46.223 87.302 46.677L87.302 51.25C87.302 51.703 87.587 52.07 87.936 52.07L88.918 52.07C89.049 52.07 89.155 51.951 89.155 51.802 89.155 51.655 89.049 51.534 88.918 51.534L87.936 51.534C87.858 51.534 87.774 51.412 87.774 51.25L87.774 46.677C87.774 46.514 87.858 46.392 87.936 46.392L88.637 46.392 88.641 46.128C88.644 45.965 88.727 45.85 88.802 45.85L89.477 45.85C89.551 45.85 89.635 45.965 89.638 46.128L89.641 46.392 92.902 46.392 92.905 46.128C92.908 45.965 92.992 45.85 93.066 45.85L93.742 45.85C93.816 45.85 93.9 45.965 93.902 46.128L93.906 46.392 94.608 46.392C94.683 46.392 94.769 46.514 94.769 46.677L94.769 51.25C94.769 51.412 94.683 51.534 94.608 51.534L90.43 51.534C90.301 51.534 90.195 51.655 90.195 51.802 90.195 51.951 90.301 52.07 90.43 52.07L94.608 52.07C94.956 52.07 95.239 51.703 95.239 51.25L95.239 46.677C95.239 46.223 94.956 45.856 94.608 45.856z"/>
    <path stroke="none" fill="#000000" d="M94.608 45.856L94.337 45.856C94.248 45.536 94.018 45.314 93.742 45.314L93.066 45.314C92.79 45.314 92.558 45.536 92.471 45.856L90.072 45.856C89.984 45.536 89.754 45.314 89.477 45.314L88.802 45.314C88.525 45.314 88.293 45.536 88.206 45.856L87.936 45.856C87.587 45.856 87.302 46.223 87.302 46.677L87.302 51.25C87.302 51.703 87.587 52.07 87.936 52.07L88.918 52.07C89.049 52.07 89.155 51.951 89.155 51.802 89.155 51.655 89.049 51.534 88.918 51.534L87.936 51.534C87.858 51.534 87.774 51.412 87.774 51.25L87.774 46.677C87.774 46.514 87.858 46.392 87.936 46.392L88.637 46.392 88.641 46.128C88.644 45.965 88.727 45.85 88.802 45.85L89.477 45.85C89.551 45.85 89.635 45.965 89.638 46.128L89.641 46.392 92.902 46.392 92.905 46.128C92.908 45.965 92.992 45.85 93.066 45.85L93.742 45.85C93.816 45.85 93.9 45.965 93.902 46.128L93.906 46.392 94.608 46.392C94.683 46.392 94.769 46.514 94.769 46.677L94.769 51.25C94.769 51.412 94.683 51.534 94.608 51.534L90.43 51.534C90.301 51.534 90.195 51.655 90.195 51.802 90.195 51.951 90.301 52.07 90.43 52.07L94.608 52.07C94.956 52.07 95.239 51.703 95.239 51.25L95.239 46.677C95.239 46.223 94.956 45.856 94.608 45.856z"/>
    <path stroke-width="0.13" fill="#000000" d="M93.828 48.082C93.884 48.082 93.93 48.03 93.93 47.966L93.93 47.731C93.93 47.667 93.884 47.615 93.828 47.615L92.873 47.615C92.816 47.615 92.771 47.667 92.771 47.731L92.771 47.966C92.771 48.03 92.816 48.082 92.873 48.082L93.828 48.082z"/>
   </g>
  </g>
  <g id="AUTOID_3743">
   <desc>battery</desc>
   <g id="AUTOID_3744">
    <desc>Layer 1</desc>
    <path stroke-width="0.13" fill="#000000" d="M108.712 47.615L108.441 47.615 108.441 47.304C108.441 47.24 108.394 47.189 108.338 47.189L108.132 47.189C108.075 47.189 108.03 47.24 108.03 47.304L108.03 47.615 107.757 47.615C107.701 47.615 107.656 47.667 107.656 47.731L107.656 47.966C107.656 48.03 107.701 48.082 107.757 48.082L108.03 48.082 108.03 48.392C108.03 48.457 108.075 48.509 108.132 48.509L108.338 48.509C108.394 48.509 108.441 48.457 108.441 48.392L108.441 48.082 108.712 48.082C108.769 48.082 108.816 48.03 108.816 47.966L108.816 47.731C108.816 47.667 108.769 47.615 108.712 47.615z"/>
    <path stroke="none" fill="#000000" d="M108.712 47.615L108.441 47.615 108.441 47.304C108.441 47.24 108.394 47.189 108.338 47.189L108.132 47.189C108.075 47.189 108.03 47.24 108.03 47.304L108.03 47.615 107.757 47.615C107.701 47.615 107.656 47.667 107.656 47.731L107.656 47.966C107.656 48.03 107.701 48.082 107.757 48.082L108.03 48.082 108.03 48.392C108.03 48.457 108.075 48.509 108.132 48.509L108.338 48.509C108.394 48.509 108.441 48.457 108.441 48.392L108.441 48.082 108.712 48.082C108.769 48.082 108.816 48.03 108.816 47.966L108.816 47.731C108.816 47.667 108.769 47.615 108.712 47.615z"/>
    <path stroke-width="0.13" fill="#000000" d="M113.644 45.856L113.373 45.856C113.286 45.536 113.054 45.314 112.778 45.314L112.102 45.314C111.825 45.314 111.593 45.536 111.507 45.856L109.108 45.856C109.022 45.536 108.79 45.314 108.513 45.314L107.837 45.314C107.561 45.314 107.331 45.536 107.242 45.856L106.971 45.856C106.623 45.856 106.34 46.223 106.34 46.677L106.34 51.25C106.34 51.703 106.623 52.07 106.971 52.07L107.956 52.07C108.085 52.07 108.191 51.951 108.191 51.802 108.191 51.655 108.085 51.534 107.956 51.534L106.971 51.534C106.896 51.534 106.811 51.412 106.811 51.25L106.811 46.677C106.811 46.514 106.896 46.392 106.971 46.392L107.674 46.392 107.677 46.128C107.68 45.965 107.763 45.85 107.837 45.85L108.513 45.85C108.587 45.85 108.671 45.965 108.674 46.128L108.677 46.392 111.938 46.392 111.941 46.128C111.944 45.965 112.028 45.85 112.102 45.85L112.778 45.85C112.852 45.85 112.936 45.965 112.938 46.128L112.942 46.392 113.644 46.392C113.719 46.392 113.805 46.514 113.805 46.677L113.805 51.25C113.805 51.412 113.719 51.534 113.644 51.534L109.468 51.534C109.337 51.534 109.231 51.655 109.231 51.802 109.231 51.951 109.337 52.07 109.468 52.07L113.644 52.07C113.992 52.07 114.277 51.703 114.277 51.25L114.277 46.677C114.277 46.223 113.992 45.856 113.644 45.856z"/>
    <path stroke="none" fill="#000000" d="M113.644 45.856L113.373 45.856C113.286 45.536 113.054 45.314 112.778 45.314L112.102 45.314C111.825 45.314 111.593 45.536 111.507 45.856L109.108 45.856C109.022 45.536 108.79 45.314 108.513 45.314L107.837 45.314C107.561 45.314 107.331 45.536 107.242 45.856L106.971 45.856C106.623 45.856 106.34 46.223 106.34 46.677L106.34 51.25C106.34 51.703 106.623 52.07 106.971 52.07L107.956 52.07C108.085 52.07 108.191 51.951 108.191 51.802 108.191 51.655 108.085 51.534 107.956 51.534L106.971 51.534C106.896 51.534 106.811 51.412 106.811 51.25L106.811 46.677C106.811 46.514 106.896 46.392 106.971 46.392L107.674 46.392 107.677 46.128C107.68 45.965 107.763 45.85 107.837 45.85L108.513 45.85C108.587 45.85 108.671 45.965 108.674 46.128L108.677 46.392 111.938 46.392 111.941 46.128C111.944 45.965 112.028 45.85 112.102 45.85L112.778 45.85C112.852 45.85 112.936 45.965 112.938 46.128L112.942 46.392 113.644 46.392C113.719 46.392 113.805 46.514 113.805 46.677L113.805 51.25C113.805 51.412 113.719 51.534 113.644 51.534L109.468 51.534C109.337 51.534 109.231 51.655 109.231 51.802 109.231 51.951 109.337 52.07 109.468 52.07L113.644 52.07C113.992 52.07 114.277 51.703 114.277 51.25L114.277 46.677C114.277 46.223 113.992 45.856 113.644 45.856z"/>
    <path stroke-width="0.13" fill="#000000" d="M112.864 48.082C112.921 48.082 112.966 48.03 112.966 47.966L112.966 47.731C112.966 47.667 112.921 47.615 112.864 47.615L111.909 47.615C111.852 47.615 111.807 47.667 111.807 47.731L111.807 47.966C111.807 48.03 111.852 48.082 111.909 48.082L112.864 48.082z"/>
   </g>
  </g>
  <g id="AUTOID_3759">
   <desc>battery</desc>
   <g id="AUTOID_3760">
    <desc>Layer 1</desc>
    <path stroke-width="0.13" fill="#000000" d="M70.614 47.615L70.341 47.615 70.341 47.304C70.341 47.24 70.296 47.189 70.239 47.189L70.034 47.189C69.977 47.189 69.93 47.24 69.93 47.304L69.93 47.615 69.659 47.615C69.602 47.615 69.557 47.667 69.557 47.731L69.557 47.966C69.557 48.03 69.602 48.082 69.659 48.082L69.93 48.082 69.93 48.392C69.93 48.457 69.977 48.509 70.034 48.509L70.239 48.509C70.296 48.509 70.341 48.457 70.341 48.392L70.341 48.082 70.614 48.082C70.671 48.082 70.716 48.03 70.716 47.966L70.716 47.731C70.716 47.667 70.671 47.615 70.614 47.615z"/>
    <path stroke="none" fill="#000000" d="M70.614 47.615L70.341 47.615 70.341 47.304C70.341 47.24 70.296 47.189 70.239 47.189L70.034 47.189C69.977 47.189 69.93 47.24 69.93 47.304L69.93 47.615 69.659 47.615C69.602 47.615 69.557 47.667 69.557 47.731L69.557 47.966C69.557 48.03 69.602 48.082 69.659 48.082L69.93 48.082 69.93 48.392C69.93 48.457 69.977 48.509 70.034 48.509L70.239 48.509C70.296 48.509 70.341 48.457 70.341 48.392L70.341 48.082 70.614 48.082C70.671 48.082 70.716 48.03 70.716 47.966L70.716 47.731C70.716 47.667 70.671 47.615 70.614 47.615z"/>
    <path stroke-width="0.13" fill="#000000" d="M75.546 45.856L75.274 45.856C75.186 45.536 74.954 45.314 74.679 45.314L74.004 45.314C73.727 45.314 73.495 45.536 73.409 45.856L71.01 45.856C70.923 45.536 70.691 45.314 70.415 45.314L69.739 45.314C69.463 45.314 69.231 45.536 69.144 45.856L68.873 45.856C68.525 45.856 68.24 46.223 68.24 46.677L68.24 51.25C68.24 51.703 68.525 52.07 68.873 52.07L69.856 52.07C69.986 52.07 70.091 51.951 70.091 51.802 70.091 51.655 69.986 51.534 69.856 51.534L68.873 51.534C68.796 51.534 68.712 51.412 68.712 51.25L68.712 46.677C68.712 46.514 68.796 46.392 68.873 46.392L69.575 46.392 69.578 46.128C69.581 45.965 69.665 45.85 69.739 45.85L70.415 45.85C70.489 45.85 70.572 45.965 70.575 46.128L70.579 46.392 73.838 46.392 73.843 46.128C73.846 45.965 73.93 45.85 74.004 45.85L74.679 45.85C74.753 45.85 74.837 45.965 74.84 46.128L74.843 46.392 75.546 46.392C75.621 46.392 75.706 46.514 75.706 46.677L75.706 51.25C75.706 51.412 75.621 51.534 75.546 51.534L71.368 51.534C71.239 51.534 71.134 51.655 71.134 51.802 71.134 51.951 71.239 52.07 71.368 52.07L75.546 52.07C75.894 52.07 76.177 51.703 76.177 51.25L76.177 46.677C76.177 46.223 75.894 45.856 75.546 45.856z"/>
    <path stroke="none" fill="#000000" d="M75.546 45.856L75.274 45.856C75.186 45.536 74.954 45.314 74.679 45.314L74.004 45.314C73.727 45.314 73.495 45.536 73.409 45.856L71.01 45.856C70.923 45.536 70.691 45.314 70.415 45.314L69.739 45.314C69.463 45.314 69.231 45.536 69.144 45.856L68.873 45.856C68.525 45.856 68.24 46.223 68.24 46.677L68.24 51.25C68.24 51.703 68.525 52.07 68.873 52.07L69.856 52.07C69.986 52.07 70.091 51.951 70.091 51.802 70.091 51.655 69.986 51.534 69.856 51.534L68.873 51.534C68.796 51.534 68.712 51.412 68.712 51.25L68.712 46.677C68.712 46.514 68.796 46.392 68.873 46.392L69.575 46.392 69.578 46.128C69.581 45.965 69.665 45.85 69.739 45.85L70.415 45.85C70.489 45.85 70.572 45.965 70.575 46.128L70.579 46.392 73.838 46.392 73.843 46.128C73.846 45.965 73.93 45.85 74.004 45.85L74.679 45.85C74.753 45.85 74.837 45.965 74.84 46.128L74.843 46.392 75.546 46.392C75.621 46.392 75.706 46.514 75.706 46.677L75.706 51.25C75.706 51.412 75.621 51.534 75.546 51.534L71.368 51.534C71.239 51.534 71.134 51.655 71.134 51.802 71.134 51.951 71.239 52.07 71.368 52.07L75.546 52.07C75.894 52.07 76.177 51.703 76.177 51.25L76.177 46.677C76.177 46.223 75.894 45.856 75.546 45.856z"/>
    <path stroke-width="0.13" fill="#000000" d="M74.766 48.082C74.822 48.082 74.867 48.03 74.867 47.966L74.867 47.731C74.867 47.667 74.822 47.615 74.766 47.615L73.811 47.615C73.754 47.615 73.709 47.667 73.709 47.731L73.709 47.966C73.709 48.03 73.754 48.082 73.811 48.082L74.766 48.082z"/>
   </g>
  </g>
 </g>
 <g id="text_x0020_layer">
  <g>
   <text x="36.186" y="2.468" stroke="none" fill="#000000" font-family="'Arial'" font-size="3.528">Battery </text>
   <text x="32.951" y="6.349" stroke="none" fill="#000000" font-family="'Arial'" font-size="3.528">breaker box</text>
  </g>
  <text x="78.536" y="2.468" stroke="none" fill="#000000" font-family="'Arial'" font-size="3.528">Battery cabinets</text>
  <text x="5.977" y="2.468" stroke="none" fill="#000000" font-family="'Arial'" font-size="3.528">UPS</text>
  <text x="16.274" y="68.992" stroke="none" fill="#000000" font-family="'Arial'" font-size="3.174">Power cable</text>
  <text x="16.274" y="73.591" stroke="none" fill="#000000" font-family="'Arial'" font-size="3.174">Signal cable</text>
 </g>
 <g id="text-_x0020_DO_x0020_NOT_x0020_translate">
 </g>
 <g id="callout_x0020_layer">
 </g>
</svg>
