<?xml version="1.0" encoding="UTF-8"?>
<!-- Generator: PTC Arbortext IsoDraw 7.4 M001 -->
<svg xmlns="http://www.w3.org/2000/svg" xmlns:xlink="http://www.w3.org/1999/xlink" width="85mm" height="74.412mm" viewBox="0 0 85 74.412" fill-rule="evenodd" clip-rule="evenodd" stroke="#000000" stroke-linecap="round" fill="none" xml:space="preserve" preserveAspectRatio="xMidYMid meet" zoomAndPan="magnify" version="1.1" contentScriptType="text/ecmascript" contentStyleType="text/css">
 <g id="_x0020_fill_x0020_layer">
 </g>
 <g id="Standard_x0020_layer">
  <polygon stroke-width="0.353" points="39.613 7.671 39.613 25.439 53.582 25.439 53.582 7.671 39.613 7.671"/>
  <polygon stroke-width="0.353" points="2.762 7.671 2.762 54.057 20.762 54.057 20.762 7.671 2.762 7.671"/>
  <polygon stroke-width="0.353" points="66.007 7.671 66.007 54.057 84.007 54.057 84.007 7.671 66.007 7.671"/>
  <g id="AUTOID_3703">
   <desc>battery</desc>
   <g id="AUTOID_3704">
    <desc>Layer 1</desc>
    <path stroke-width="0.13" fill="#000000" d="M73.412 47.088L73.14 47.088 73.14 46.779C73.14 46.715 73.093 46.661 73.037 46.661L72.831 46.661C72.775 46.661 72.728 46.715 72.728 46.779L72.728 47.088 72.456 47.088C72.4 47.088 72.353 47.14 72.353 47.204L72.353 47.439C72.353 47.503 72.4 47.555 72.456 47.555L72.728 47.555 72.728 47.865C72.728 47.93 72.775 47.982 72.831 47.982L73.037 47.982C73.093 47.982 73.14 47.93 73.14 47.865L73.14 47.555 73.412 47.555C73.468 47.555 73.513 47.503 73.513 47.439L73.513 47.204C73.513 47.14 73.468 47.088 73.412 47.088z"/>
    <path stroke="none" fill="#000000" d="M73.412 47.088L73.14 47.088 73.14 46.779C73.14 46.715 73.093 46.661 73.037 46.661L72.831 46.661C72.775 46.661 72.728 46.715 72.728 46.779L72.728 47.088 72.456 47.088C72.4 47.088 72.353 47.14 72.353 47.204L72.353 47.439C72.353 47.503 72.4 47.555 72.456 47.555L72.728 47.555 72.728 47.865C72.728 47.93 72.775 47.982 72.831 47.982L73.037 47.982C73.093 47.982 73.14 47.93 73.14 47.865L73.14 47.555 73.412 47.555C73.468 47.555 73.513 47.503 73.513 47.439L73.513 47.204C73.513 47.14 73.468 47.088 73.412 47.088z"/>
    <path stroke-width="0.13" fill="#000000" d="M78.343 45.329L78.072 45.329C77.984 45.011 77.753 44.787 77.477 44.787L76.801 44.787C76.525 44.787 76.293 45.011 76.206 45.329L73.808 45.329C73.721 45.011 73.489 44.787 73.212 44.787L72.537 44.787C72.26 44.787 72.028 45.011 71.941 45.329L71.671 45.329C71.322 45.329 71.037 45.698 71.037 46.151L71.037 50.722C71.037 51.176 71.322 51.545 71.671 51.545L72.653 51.545C72.784 51.545 72.89 51.424 72.89 51.277 72.89 51.128 72.784 51.008 72.653 51.008L71.671 51.008C71.594 51.008 71.51 50.886 71.51 50.722L71.51 46.151C71.51 45.987 71.594 45.865 71.671 45.865L72.371 45.865 72.376 45.603C72.379 45.439 72.462 45.323 72.537 45.323L73.212 45.323C73.287 45.323 73.37 45.439 73.373 45.601L73.376 45.865 76.637 45.865 76.641 45.601C76.643 45.439 76.727 45.323 76.801 45.323L77.477 45.323C77.551 45.323 77.635 45.439 77.637 45.603L77.641 45.865 78.343 45.865C78.418 45.865 78.504 45.987 78.504 46.151L78.504 50.722C78.504 50.886 78.418 51.008 78.343 51.008L74.167 51.008C74.036 51.008 73.93 51.128 73.93 51.277 73.93 51.424 74.036 51.545 74.167 51.545L78.343 51.545C78.691 51.545 78.975 51.176 78.975 50.722L78.975 46.151C78.975 45.698 78.691 45.329 78.343 45.329z"/>
    <path stroke="none" fill="#000000" d="M78.343 45.329L78.072 45.329C77.984 45.011 77.753 44.787 77.477 44.787L76.801 44.787C76.525 44.787 76.293 45.011 76.206 45.329L73.808 45.329C73.721 45.011 73.489 44.787 73.212 44.787L72.537 44.787C72.26 44.787 72.028 45.011 71.941 45.329L71.671 45.329C71.322 45.329 71.037 45.698 71.037 46.151L71.037 50.722C71.037 51.176 71.322 51.545 71.671 51.545L72.653 51.545C72.784 51.545 72.89 51.424 72.89 51.277 72.89 51.128 72.784 51.008 72.653 51.008L71.671 51.008C71.594 51.008 71.51 50.886 71.51 50.722L71.51 46.151C71.51 45.987 71.594 45.865 71.671 45.865L72.371 45.865 72.376 45.603C72.379 45.439 72.462 45.323 72.537 45.323L73.212 45.323C73.287 45.323 73.37 45.439 73.373 45.601L73.376 45.865 76.637 45.865 76.641 45.601C76.643 45.439 76.727 45.323 76.801 45.323L77.477 45.323C77.551 45.323 77.635 45.439 77.637 45.603L77.641 45.865 78.343 45.865C78.418 45.865 78.504 45.987 78.504 46.151L78.504 50.722C78.504 50.886 78.418 51.008 78.343 51.008L74.167 51.008C74.036 51.008 73.93 51.128 73.93 51.277 73.93 51.424 74.036 51.545 74.167 51.545L78.343 51.545C78.691 51.545 78.975 51.176 78.975 50.722L78.975 46.151C78.975 45.698 78.691 45.329 78.343 45.329z"/>
    <path stroke-width="0.13" fill="#000000" d="M77.563 47.555C77.62 47.555 77.665 47.503 77.665 47.439L77.665 47.204C77.665 47.14 77.62 47.088 77.563 47.088L76.608 47.088C76.552 47.088 76.506 47.14 76.506 47.204L76.506 47.439C76.506 47.503 76.552 47.555 76.608 47.555L77.563 47.555z"/>
   </g>
  </g>
 </g>
 <g id="120mm_x0020_hidden_x0020_Schneider_x0020_layer_x0020_for_x0020_editor">
  <polygon stroke="none" points="0 67.713 0 74.088 85 74.088 85 67.713 0 67.713"/>
 </g>
 <g id="cutout_x0020_layer">
 </g>
 <g id="outline_x0020_layer">
 </g>
 <g id="zoom_x0020_layer">
 </g>
 <g id="outline_x0020_on_x0020_zoom_x0020_layer">
 </g>
 <g id="arrow_x0020_layer">
 </g>
 <g id="_x0020_cable_x0020_layer">
  <g>
   <path stroke="#FFFFFF" stroke-width="2" d="M46.347 27.16L46.423 59.311L14.032 59.311L14.032 55.921"/>
   <polyline stroke-width="0.7" points="46.344 25.809 46.423 59.311 14.032 59.311 14.032 54.572"/>
  </g>
  <g>
   <path stroke="#FFFFFF" stroke-width="2" d="M50.823 27.253L50.823 59.311L74.695 59.311L74.695 55.887"/>
   <polyline stroke-width="0.7" points="50.823 25.902 50.823 59.311 74.695 59.311 74.695 54.537"/>
  </g>
  <g>
   <line stroke="#FFFFFF" stroke-width="2" x1="3.262" y1="67.128" x2="12.497" y2="67.128"/>
   <line stroke-width="0.7" x1="1.911" y1="67.128" x2="13.848" y2="67.128"/>
  </g>
  <g>
   <line stroke="#FFFFFF" stroke-width="1" x1="2.661" y1="72.197" x2="13.098" y2="72.197"/>
   <line stroke="#01889C" stroke-width="0.5" x1="1.911" y1="72.197" x2="13.848" y2="72.197"/>
  </g>
  <g>
   <path stroke="#FFFFFF" stroke-width="0.6" d="M8.358 54.545L8.358 63.436L79.299 63.436L79.299 54.555"/>
   <polyline stroke="#01889C" stroke-width="0.5" points="8.358 54.545 8.358 63.436 79.299 63.436 79.299 54.555"/>
  </g>
  <g>
   <path stroke="#FFFFFF" stroke-width="0.6" d="M42.558 25.864L42.558 61.469L10.737 61.469L10.737 54.637"/>
   <polyline stroke="#01889C" stroke-width="0.5" points="42.558 25.864 42.558 61.469 10.737 61.469 10.737 54.637"/>
  </g>
 </g>
 <g id="symbol_x0020_layer">
 </g>
 <g id="text_x0020_layer">
  <g>
   <text x="40.52" y="2.468" stroke="none" fill="#000000" font-family="'Arial'" font-size="3.528">Battery </text>
   <text x="37.283" y="6.349" stroke="none" fill="#000000" font-family="'Arial'" font-size="3.528">breaker box</text>
  </g>
  <g>
   <text x="69.37" y="2.468" stroke="none" fill="#000000" font-family="'Arial'" font-size="3.528">Battery</text>
   <text x="69.271" y="6.349" stroke="none" fill="#000000" font-family="'Arial'" font-size="3.528">cabinet</text>
  </g>
  <text x="8.134" y="2.468" stroke="none" fill="#000000" font-family="'Arial'" font-size="3.528">UPS</text>
  <text x="15.861" y="68.402" stroke="none" fill="#000000" font-family="'Arial'" font-size="3.174">Power cable</text>
  <text x="15.861" y="73.001" stroke="none" fill="#000000" font-family="'Arial'" font-size="3.174">Signal cable</text>
 </g>
 <g id="text-_x0020_DO_x0020_NOT_x0020_translate">
 </g>
 <g id="callout_x0020_layer">
 </g>
</svg>
