<?xml version="1.0" encoding="UTF-8"?>
<!-- Generator: PTC Arbortext IsoDraw 7.4 M001 -->
<svg xmlns="http://www.w3.org/2000/svg" xmlns:xlink="http://www.w3.org/1999/xlink" width="165.899mm" height="47.676mm" viewBox="0 0 165.899 47.676" fill-rule="evenodd" clip-rule="evenodd" stroke="#000000" stroke-linecap="round" fill="none" xml:space="preserve" preserveAspectRatio="xMidYMid meet" zoomAndPan="magnify" version="1.1" contentScriptType="text/ecmascript" contentStyleType="text/css">
 <g id="Standard_x0020_layer">
  <line stroke-width="0.2" x1="49.423" y1="16.042" x2="95.444" y2="16.042"/>
  <line stroke-width="0.2" x1="87.161" y1="29.768" x2="95.444" y2="29.768"/>
  <line stroke-width="0.2" x1="74.746" y1="29.768" x2="83.031" y2="29.768"/>
  <line stroke-width="0.2" x1="20.753" y1="8.792" x2="114.371" y2="8.792"/>
  <line stroke-width="0.2" x1="95.444" y1="16.042" x2="107.882" y2="16.042"/>
  <line stroke-width="0.2" x1="130.134" y1="16.147" x2="137.282" y2="16.147"/>
  <line stroke-width="0.2" x1="140.924" y1="16.147" x2="156.58" y2="16.147"/>
  <line stroke-width="0.2" x1="130.125" y1="16.147" x2="120.861" y2="16.147"/>
  <line stroke-width="0.2" x1="95.444" y1="29.768" x2="107.787" y2="29.768"/>
  <line stroke-width="0.2" x1="74.746" y1="29.768" x2="49.78" y2="29.768"/>
  <line stroke-width="0.2" x1="43.921" y1="29.768" x2="34.926" y2="29.768"/>
  <line stroke-width="0.2" x1="29.896" y1="29.768" x2="20.574" y2="29.768"/>
  <polyline stroke-width="0.2" points="120.766 29.887 129.685 29.771 129.685 16.152"/>
  <line stroke-width="0.2" x1="77.087" y1="29.768" x2="77.087" y2="41.39"/>
  <line stroke-width="0.2" x1="144.729" y1="31.285" x2="144.729" y2="16.147"/>
  <polygon stroke-width="0.2" points="107.882 11.701 120.829 11.701 120.829 20.208 107.882 20.208 107.882 11.701"/>
  <line stroke-width="0.2" x1="114.371" y1="8.792" x2="114.371" y2="11.701"/>
  <line stroke-width="0.2" x1="107.882" y1="11.701" x2="114.355" y2="20.208"/>
  <line stroke-width="0.2" x1="120.861" y1="11.701" x2="114.355" y2="20.208"/>
  <text x="112.769" y="16.408" stroke="none" fill="#000000" font-family="'Arial'" font-size="5.016">=</text>
  <path stroke-width="0.2" d="M109.349 18.477C109.852 17.599 110.009 17.887 110.453 18.483C110.635 18.728 110.855 19.166 111.481 18.35"/>
  <path stroke-width="0.2" d="M117.313 18.477C117.814 17.599 117.971 17.887 118.415 18.483C118.597 18.728 118.817 19.166 119.444 18.35"/>
  <polygon stroke-width="0.2" points="107.787 26.214 107.787 36.185 120.766 36.185 120.766 26.214 107.787 26.214"/>
  <polygon stroke-width="0.2" points="26.756 0.1 26.756 46.6 149.716 46.6 149.716 0.1 26.756 0.1"/>
  <polyline stroke-width="0.2" points="77.087 41.39 116.685 41.39 144.824 41.39 144.824 35.466"/>
  <g>
   <path stroke-width="0.2" d="M137.223 16.74C137.486 16.74 137.7 16.527 137.7 16.263C137.7 15.997 137.486 15.784 137.223 15.784C136.957 15.784 136.743 15.997 136.743 16.263C136.743 16.527 136.957 16.74 137.223 16.74z"/>
   <path stroke-width="0.2" d="M141.187 16.74C141.451 16.74 141.667 16.527 141.667 16.263C141.667 15.997 141.451 15.784 141.187 15.784C140.924 15.784 140.71 15.997 140.71 16.263C140.71 16.527 140.924 16.74 141.187 16.74z"/>
   <path stroke-width="0.2" d="M137.282 15.384C138.109 14.464 140.085 14.451 141.127 15.384"/>
  </g>
  <g>
   <path stroke-width="0.2" d="M83.18 30.283C83.444 30.283 83.659 30.07 83.659 29.804C83.659 29.541 83.444 29.327 83.18 29.327C82.917 29.327 82.703 29.541 82.703 29.804C82.703 30.07 82.917 30.283 83.18 30.283z"/>
   <path stroke-width="0.2" d="M87.147 30.283C87.411 30.283 87.625 30.07 87.625 29.804C87.625 29.541 87.411 29.327 87.147 29.327C86.882 29.327 86.668 29.541 86.668 29.804C86.668 30.07 86.882 30.283 87.147 30.283z"/>
   <path stroke-width="0.2" d="M83.242 28.928C84.066 28.007 86.043 27.993 87.085 28.928"/>
  </g>
  <g>
   <path stroke-width="0.2" d="M144.368 31.46C144.368 31.725 144.582 31.939 144.847 31.939C145.11 31.939 145.325 31.725 145.325 31.46C145.325 31.196 145.11 30.981 144.847 30.981C144.582 30.981 144.368 31.196 144.368 31.46z"/>
   <path stroke-width="0.2" d="M144.368 35.426C144.368 35.691 144.582 35.905 144.847 35.905C145.11 35.905 145.325 35.691 145.325 35.426C145.325 35.161 145.11 34.948 144.847 34.948C144.582 34.948 144.368 35.161 144.368 35.426z"/>
   <path stroke-width="0.2" d="M145.724 31.521C146.645 32.347 146.658 34.323 145.724 35.365"/>
  </g>
  <g id="AUTOID_3766">
   <desc>Transformer symbol</desc>
   <path stroke-width="0.2" stroke-linecap="butt" d="M44.197 13.965L44.396 14.073C46.539 14.615 46.527 11.233 44.396 11.804L44.197 11.882"/>
   <path stroke-width="0.2" stroke-linecap="butt" d="M44.197 16.048L44.396 16.158C46.551 16.632 46.539 13.369 44.396 13.858L44.197 13.965"/>
   <path stroke-width="0.2" stroke-linecap="butt" d="M44.197 18.132L44.396 18.21C46.527 18.783 46.539 15.375 44.396 15.941L44.197 16.048"/>
   <path stroke-width="0.2" stroke-linecap="butt" d="M44.197 20.192L44.396 20.3C46.533 20.847 46.545 17.475 44.396 18.03L44.197 18.138"/>
   <path stroke-width="0.2" stroke-linecap="butt" d="M49.423 18.132L49.207 18.024C47.087 17.475 47.087 20.841 49.207 20.294L49.423 20.185"/>
   <path stroke-width="0.2" stroke-linecap="butt" d="M49.423 16.048L49.207 15.941C47.081 15.387 47.098 18.777 49.207 18.21L49.423 18.132"/>
   <path stroke-width="0.2" stroke-linecap="butt" d="M49.423 13.965L49.207 13.858C47.081 13.381 47.069 16.62 49.207 16.158L49.423 16.048"/>
   <path stroke-width="0.2" stroke-linecap="butt" d="M49.423 11.882L49.207 11.804C47.093 11.25 47.081 14.598 49.207 14.074L49.423 13.965"/>
   <line stroke-width="0.2" stroke-linecap="butt" x1="46.533" y1="11.72" x2="46.533" y2="20.378"/>
   <line stroke-width="0.2" stroke-linecap="butt" x1="47.045" y1="11.72" x2="47.045" y2="20.378"/>
  </g>
  <line stroke-width="0.2" x1="45.472" y1="16.042" x2="34.444" y2="16.042"/>
  <line stroke-width="0.2" x1="31.431" y1="16.042" x2="20.963" y2="16.042"/>
  <g>
   <path stroke-width="0.2" d="M30.376 30.245C30.64 30.245 30.853 30.032 30.853 29.768C30.853 29.503 30.64 29.289 30.376 29.289C30.111 29.289 29.896 29.503 29.896 29.768C29.896 30.032 30.111 30.245 30.376 30.245z"/>
   <path stroke-width="0.2" d="M34.341 30.245C34.606 30.245 34.82 30.032 34.82 29.768C34.82 29.503 34.606 29.289 34.341 29.289C34.076 29.289 33.862 29.503 33.862 29.768C33.862 30.032 34.076 30.245 34.341 30.245z"/>
   <path stroke-width="0.2" d="M30.435 28.89C31.262 27.969 33.237 27.955 34.28 28.89"/>
  </g>
  <g id="AUTOID_3803">
   <desc>Transformer symbol</desc>
   <path stroke-width="0.2" stroke-linecap="butt" d="M44.197 27.666L44.396 27.774C46.539 28.315 46.527 24.932 44.396 25.504L44.197 25.582"/>
   <path stroke-width="0.2" stroke-linecap="butt" d="M44.197 29.748L44.396 29.858C46.551 30.332 46.539 27.07 44.396 27.557L44.197 27.666"/>
   <path stroke-width="0.2" stroke-linecap="butt" d="M44.197 31.832L44.396 31.911C46.527 32.482 46.539 29.074 44.396 29.64L44.197 29.748"/>
   <path stroke-width="0.2" stroke-linecap="butt" d="M44.197 33.892L44.396 34C46.533 34.548 46.545 31.175 44.396 31.73L44.197 31.838"/>
   <path stroke-width="0.2" stroke-linecap="butt" d="M49.423 31.832L49.207 31.724C47.087 31.175 47.087 34.542 49.207 33.993L49.423 33.886"/>
   <path stroke-width="0.2" stroke-linecap="butt" d="M49.423 29.748L49.207 29.64C47.081 29.086 47.098 32.476 49.207 31.911L49.423 31.832"/>
   <path stroke-width="0.2" stroke-linecap="butt" d="M49.423 27.666L49.207 27.557C47.081 27.082 47.069 30.321 49.207 29.858L49.423 29.748"/>
   <path stroke-width="0.2" stroke-linecap="butt" d="M49.423 25.582L49.207 25.504C47.093 24.951 47.081 28.297 49.207 27.774L49.423 27.666"/>
   <line stroke-width="0.2" stroke-linecap="butt" x1="46.533" y1="25.42" x2="46.533" y2="34.078"/>
   <line stroke-width="0.2" stroke-linecap="butt" x1="47.045" y1="25.42" x2="47.045" y2="34.078"/>
  </g>
  <g>
   <path stroke-width="0.2" d="M30.954 16.481C31.219 16.481 31.434 16.265 31.434 16.001C31.434 15.737 31.219 15.522 30.954 15.522C30.69 15.522 30.477 15.737 30.477 16.001C30.477 16.265 30.69 16.481 30.954 16.481z"/>
   <path stroke-width="0.2" d="M34.92 16.481C35.185 16.481 35.399 16.265 35.399 16.001C35.399 15.737 35.185 15.522 34.92 15.522C34.656 15.522 34.442 15.737 34.442 16.001C34.442 16.265 34.656 16.481 34.92 16.481z"/>
   <path stroke-width="0.2" d="M31.015 15.125C31.841 14.204 33.817 14.191 34.859 15.125"/>
  </g>
 </g>
 <g id="120mm_x0020_hidden_x0020_Schneider_x0020_layer_x0020_for_x0020_editor">
  <polygon stroke="none" points="0 38.676 0 47.676 120 47.676 120 38.676 0 38.676"/>
 </g>
 <g id="cutout_x0020_layer">
 </g>
 <g id="outline_x0020_layer">
 </g>
 <g id="arrow_x0020_layer">
 </g>
 <g id="_x0020_cable_x0020_layer">
 </g>
 <g id="symbol_x0020_layer">
 </g>
 <g id="_x0020_text_x0020_layer_translate">
  <text x="2.507" y="10.07" stroke="none" fill="#000000" font-family="'Arial'" font-size="3.528">Batteries</text>
  <text x="9.705" y="17.248" stroke="none" fill="#000000" font-family="'Arial'" font-size="3.528">Input</text>
  <text x="5.294" y="30.887" stroke="none" fill="#000000" font-family="'Arial'" font-size="3.528">Bypass</text>
  <text x="158.05" y="17.809" stroke="none" fill="#000000" font-family="'Arial'" font-size="3.528">Load</text>
  <g>
   <text x="109.325" y="30.231" stroke="none" fill="#000000" font-family="'Arial'" font-size="3.528">Static </text>
   <text x="109.325" y="34.11" stroke="none" fill="#000000" font-family="'Arial'" font-size="3.528">switch</text>
  </g>
 </g>
 <g id="_x0020_callout_x0020_layer">
 </g>
 <g id="text_x0020_layer_do_x0020_not_x0020_translate">
  <text x="79.989" y="35.036" stroke="none" fill="#000000" font-family="'Arial'" font-size="3.528">SSIB</text>
  <text x="135.205" y="34.567" stroke="none" fill="#000000" font-family="'Arial'" font-size="3.528">MBB</text>
  <text x="134.992" y="12.48" stroke="none" fill="#000000" font-family="'Arial'" font-size="3.528">UOB</text>
  <text x="29.792" y="34.719" stroke="none" fill="#000000" font-family="'Arial'" font-size="3.528">BIB</text>
  <text x="42.142" y="24.478" stroke="none" fill="#000000" font-family="'Arial'" font-size="3.528">T001</text>
  <text x="42.142" y="38.177" stroke="none" fill="#000000" font-family="'Arial'" font-size="3.528">T003</text>
  <text x="29.896" y="20.92" stroke="none" fill="#000000" font-family="'Arial'" font-size="3.528">UIB</text>
 </g>
</svg>
