<?xml version="1.0" encoding="UTF-8"?>
<!-- Generator: PTC Arbortext IsoDraw 7.4 M001 -->
<svg xmlns="http://www.w3.org/2000/svg" xmlns:xlink="http://www.w3.org/1999/xlink" width="165.899mm" height="47.475mm" viewBox="0 0 165.899 47.475" fill-rule="evenodd" clip-rule="evenodd" stroke="#000000" stroke-linecap="round" fill="none" xml:space="preserve" preserveAspectRatio="xMidYMid meet" zoomAndPan="magnify" version="1.1" contentScriptType="text/ecmascript" contentStyleType="text/css">
 <g id="Standard_x0020_layer">
  <line stroke-width="0.2" x1="87.161" y1="16.042" x2="95.444" y2="16.042"/>
  <line stroke-width="0.2" x1="74.746" y1="16.042" x2="83.031" y2="16.042"/>
  <line stroke-width="0.2" x1="20.753" y1="8.792" x2="114.371" y2="8.792"/>
  <line stroke-width="0.2" x1="95.444" y1="16.042" x2="107.882" y2="16.042"/>
  <line stroke-width="0.2" x1="74.746" y1="16.042" x2="67.269" y2="16.042"/>
  <line stroke-width="0.2" x1="130.134" y1="16.147" x2="137.282" y2="16.147"/>
  <line stroke-width="0.2" x1="140.924" y1="16.147" x2="156.58" y2="16.147"/>
  <line stroke-width="0.2" x1="130.125" y1="16.147" x2="120.861" y2="16.147"/>
  <line stroke-width="0.2" x1="96.453" y1="29.768" x2="107.787" y2="29.768"/>
  <polyline stroke-width="0.2" points="120.766 29.887 129.685 29.771 129.685 16.152"/>
  <line stroke-width="0.2" x1="77.087" y1="16.042" x2="77.087" y2="41.39"/>
  <line stroke-width="0.2" x1="144.729" y1="31.285" x2="144.729" y2="16.147"/>
  <polygon stroke-width="0.2" points="107.882 11.701 120.829 11.701 120.829 20.208 107.882 20.208 107.882 11.701"/>
  <line stroke-width="0.2" x1="114.371" y1="8.792" x2="114.371" y2="11.701"/>
  <line stroke-width="0.2" x1="107.882" y1="11.701" x2="114.355" y2="20.208"/>
  <line stroke-width="0.2" x1="120.861" y1="11.701" x2="114.355" y2="20.208"/>
  <text x="112.769" y="16.408" stroke="none" fill="#000000" font-family="'Arial'" font-size="3.528">=</text>
  <path stroke-width="0.2" d="M109.349 18.477C109.852 17.599 110.009 17.887 110.453 18.483C110.635 18.728 110.855 19.166 111.481 18.35"/>
  <path stroke-width="0.2" d="M117.313 18.477C117.814 17.599 117.971 17.887 118.415 18.483C118.597 18.728 118.817 19.166 119.444 18.35"/>
  <polygon stroke-width="0.2" points="107.787 26.214 107.787 36.185 120.766 36.185 120.766 26.214 107.787 26.214"/>
  <polygon stroke-width="0.2" points="23.056 0.1 23.056 45.86 149.716 45.86 149.716 0.1 23.056 0.1"/>
  <polyline stroke-width="0.2" points="77.087 41.39 116.685 41.39 144.824 41.39 144.824 35.466"/>
  <g>
   <path stroke-width="0.2" d="M137.223 16.74C137.486 16.74 137.7 16.527 137.7 16.263C137.7 15.997 137.486 15.784 137.223 15.784C136.957 15.784 136.743 15.997 136.743 16.263C136.743 16.527 136.957 16.74 137.223 16.74z"/>
   <path stroke-width="0.2" d="M141.187 16.74C141.451 16.74 141.667 16.527 141.667 16.263C141.667 15.997 141.451 15.784 141.187 15.784C140.924 15.784 140.71 15.997 140.71 16.263C140.71 16.527 140.924 16.74 141.187 16.74z"/>
   <path stroke-width="0.2" d="M137.282 15.384C138.109 14.464 140.085 14.451 141.127 15.384"/>
  </g>
  <g>
   <path stroke-width="0.2" d="M83.051 16.481C83.314 16.481 83.528 16.265 83.528 16.001C83.528 15.737 83.314 15.522 83.051 15.522C82.787 15.522 82.572 15.737 82.572 16.001C82.572 16.265 82.787 16.481 83.051 16.481z"/>
   <path stroke-width="0.2" d="M87.016 16.481C87.281 16.481 87.495 16.265 87.495 16.001C87.495 15.737 87.281 15.522 87.016 15.522C86.751 15.522 86.537 15.737 86.537 16.001C86.537 16.265 86.751 16.481 87.016 16.481z"/>
   <path stroke-width="0.2" d="M83.111 15.125C83.936 14.204 85.912 14.191 86.956 15.125"/>
  </g>
  <g>
   <path stroke-width="0.2" d="M144.368 31.46C144.368 31.725 144.582 31.939 144.847 31.939C145.11 31.939 145.325 31.725 145.325 31.46C145.325 31.196 145.11 30.981 144.847 30.981C144.582 30.981 144.368 31.196 144.368 31.46z"/>
   <path stroke-width="0.2" d="M144.368 35.426C144.368 35.691 144.582 35.905 144.847 35.905C145.11 35.905 145.325 35.691 145.325 35.426C145.325 35.161 145.11 34.948 144.847 34.948C144.582 34.948 144.368 35.161 144.368 35.426z"/>
   <path stroke-width="0.2" d="M145.724 31.521C146.645 32.347 146.658 34.323 145.724 35.365"/>
  </g>
  <g id="AUTOID_3766">
   <desc>Transformer symbol</desc>
   <path stroke-width="0.2" stroke-linecap="butt" d="M61.256 13.896L61.454 14.003C63.597 14.545 63.585 11.162 61.454 11.734L61.256 11.811"/>
   <path stroke-width="0.2" stroke-linecap="butt" d="M61.256 15.978L61.454 16.086C63.609 16.562 63.597 13.3 61.454 13.787L61.256 13.896"/>
   <path stroke-width="0.2" stroke-linecap="butt" d="M61.256 18.062L61.454 18.14C63.585 18.711 63.597 15.304 61.454 15.869L61.256 15.978"/>
   <path stroke-width="0.2" stroke-linecap="butt" d="M61.256 20.12L61.454 20.228C63.591 20.777 63.603 17.405 61.454 17.96L61.256 18.068"/>
   <path stroke-width="0.2" stroke-linecap="butt" d="M66.481 18.062L66.266 17.954C64.146 17.405 64.146 20.771 66.266 20.222L66.481 20.114"/>
   <path stroke-width="0.2" stroke-linecap="butt" d="M66.481 15.978L66.266 15.869C64.14 15.316 64.158 18.705 66.266 18.14L66.481 18.062"/>
   <path stroke-width="0.2" stroke-linecap="butt" d="M66.481 13.896L66.266 13.787C64.14 13.311 64.128 16.55 66.266 16.086L66.481 15.978"/>
   <path stroke-width="0.2" stroke-linecap="butt" d="M66.481 11.811L66.266 11.734C64.152 11.179 64.14 14.528 66.266 14.003L66.481 13.896"/>
   <line stroke-width="0.2" stroke-linecap="butt" x1="63.591" y1="11.65" x2="63.591" y2="20.307"/>
   <line stroke-width="0.2" stroke-linecap="butt" x1="64.103" y1="11.65" x2="64.103" y2="20.307"/>
  </g>
  <line stroke-width="0.2" x1="60.368" y1="16.042" x2="48.777" y2="16.042"/>
  <g>
   <path stroke-width="0.2" d="M44.551 16.481C44.814 16.481 45.029 16.265 45.029 16.001C45.029 15.737 44.814 15.522 44.551 15.522C44.286 15.522 44.072 15.737 44.072 16.001C44.072 16.265 44.286 16.481 44.551 16.481z"/>
   <path stroke-width="0.2" d="M48.517 16.481C48.78 16.481 48.994 16.265 48.994 16.001C48.994 15.737 48.78 15.522 48.517 15.522C48.252 15.522 48.037 15.737 48.037 16.001C48.037 16.265 48.252 16.481 48.517 16.481z"/>
   <path stroke-width="0.2" d="M44.612 15.125C45.436 14.204 47.412 14.191 48.456 15.125"/>
  </g>
  <line stroke-width="0.2" x1="44.368" y1="16.042" x2="20.696" y2="16.042"/>
  <g>
   <path stroke-width="0.2" d="M83.051 30.481C83.314 30.481 83.528 30.265 83.528 30.001C83.528 29.737 83.314 29.522 83.051 29.522C82.787 29.522 82.572 29.737 82.572 30.001C82.572 30.265 82.787 30.481 83.051 30.481z"/>
   <path stroke-width="0.2" d="M87.016 30.481C87.281 30.481 87.495 30.265 87.495 30.001C87.495 29.737 87.281 29.522 87.016 29.522C86.751 29.522 86.537 29.737 86.537 30.001C86.537 30.265 86.751 30.481 87.016 30.481z"/>
   <path stroke-width="0.2" d="M83.111 29.125C83.936 28.204 85.912 28.19 86.956 29.125"/>
  </g>
  <line stroke-width="0.2" x1="96.453" y1="29.768" x2="87.703" y2="29.768"/>
  <line stroke-width="0.2" x1="82.453" y1="29.768" x2="77.087" y2="29.768"/>
 </g>
 <g id="120mm_x0020_hidden_x0020_Schneider_x0020_layer_x0020_for_x0020_editor">
  <polygon stroke="none" points="0 38.475 0 47.475 120 47.475 120 38.475 0 38.475"/>
 </g>
 <g id="cutout_x0020_layer">
 </g>
 <g id="outline_x0020_layer">
 </g>
 <g id="arrow_x0020_layer">
 </g>
 <g id="_x0020_cable_x0020_layer">
 </g>
 <g id="symbol_x0020_layer">
 </g>
 <g id="_x0020_text_x0020_layer_translate">
  <text x="3.631" y="10.07" stroke="none" fill="#000000" font-family="'Arial'" font-size="3.528">Batteries</text>
  <text x="9.705" y="17.248" stroke="none" fill="#000000" font-family="'Arial'" font-size="3.528">Input</text>
  <text x="158.05" y="17.809" stroke="none" fill="#000000" font-family="'Arial'" font-size="3.528">Load</text>
  <g>
   <text x="109.325" y="30.231" stroke="none" fill="#000000" font-family="'Arial'" font-size="3.528">Static </text>
   <text x="109.325" y="34.11" stroke="none" fill="#000000" font-family="'Arial'" font-size="3.528">switch</text>
  </g>
 </g>
 <g id="_x0020_callout_x0020_layer">
 </g>
 <g id="text_x0020_layer_do_x0020_not_x0020_translate">
  <text x="81.992" y="20.92" stroke="none" fill="#000000" font-family="'Arial'" font-size="3.528">UIB</text>
  <text x="133.013" y="34.686" stroke="none" fill="#000000" font-family="'Arial'" font-size="3.528">MBB</text>
  <text x="134.992" y="12.48" stroke="none" fill="#000000" font-family="'Arial'" font-size="3.528">UOB</text>
  <text x="42.993" y="20.92" stroke="none" fill="#000000" font-family="'Arial'" font-size="3.528">MIB</text>
  <text x="60.442" y="25.478" stroke="none" fill="#000000" font-family="'Arial'" font-size="3.528">T001</text>
  <text x="81.492" y="34.92" stroke="none" fill="#000000" font-family="'Arial'" font-size="3.528">SSIB</text>
 </g>
</svg>
