<?xml version="1.0" encoding="UTF-8"?>
<!-- Generator: PTC Arbortext IsoDraw 7.4 M001 -->
<svg xmlns="http://www.w3.org/2000/svg" xmlns:xlink="http://www.w3.org/1999/xlink" width="120mm" height="49.728mm" viewBox="0 0 120 49.728" fill-rule="evenodd" clip-rule="evenodd" stroke="#000000" stroke-linecap="round" fill="none" xml:space="preserve" preserveAspectRatio="xMidYMid meet" zoomAndPan="magnify" version="1.1" contentScriptType="text/ecmascript" contentStyleType="text/css">
 <g id="Standard_x0020_layer">
  <path stroke-width="0.2" fill="#E5E5E5" d="M43.481 0.1L21.556 0.1 21.403 12.884 21.403 49.628 104.248 49.628 104.328 0.1 77.647 0.1 65.445 0.1 55.664 0.1 53.829 0.1 43.481 0.1z"/>
  <line stroke-width="0.2" x1="37.661" y1="16.042" x2="45.944" y2="16.042"/>
  <line stroke-width="0.2" x1="25.246" y1="16.042" x2="33.53" y2="16.042"/>
  <line stroke-width="0.2" x1="37.661" y1="29.768" x2="45.944" y2="29.768"/>
  <line stroke-width="0.2" x1="25.246" y1="29.768" x2="33.53" y2="29.768"/>
  <line stroke-width="0.2" x1="37.409" y1="8.792" x2="64.871" y2="8.792"/>
  <line stroke-width="0.2" x1="24.995" y1="8.792" x2="33.28" y2="8.792"/>
  <line stroke-width="0.2" x1="45.944" y1="16.042" x2="58.381" y2="16.042"/>
  <line stroke-width="0.2" x1="24.995" y1="8.792" x2="18.094" y2="8.792"/>
  <line stroke-width="0.2" x1="25.246" y1="16.042" x2="18.344" y2="16.042"/>
  <line stroke-width="0.2" x1="80.635" y1="16.147" x2="99.251" y2="16.147"/>
  <line stroke-width="0.2" x1="80.625" y1="16.147" x2="71.361" y2="16.147"/>
  <line stroke-width="0.2" x1="45.944" y1="29.768" x2="49.389" y2="29.768"/>
  <line stroke-width="0.2" x1="53.284" y1="29.768" x2="58.368" y2="29.768"/>
  <line stroke-width="0.2" x1="25.246" y1="29.768" x2="18.344" y2="29.801"/>
  <polyline stroke-width="0.2" points="71.266 29.887 80.185 29.771 80.185 16.152"/>
  <g>
   <path stroke-width="0.2" d="M80.84 16.152C80.84 15.824 80.575 15.56 80.248 15.56C79.921 15.56 79.656 15.824 79.656 16.152C79.656 16.48 79.921 16.745 80.248 16.745C80.575 16.745 80.84 16.48 80.84 16.152"/>
  </g>
  <path stroke-width="0.2" fill="#000000" d="M80.84 16.157C80.84 15.878 80.528 15.564 80.248 15.564 79.968 15.564 79.656 15.878 79.656 16.157 79.656 16.435 79.968 16.75 80.248 16.75 80.528 16.75 80.84 16.435 80.84 16.157z"/>
  <g>
   <path stroke-width="0.2" d="M44.179 29.778C44.179 29.452 43.914 29.185 43.588 29.185C43.259 29.185 42.994 29.452 42.994 29.778C42.994 30.106 43.259 30.37 43.588 30.37C43.914 30.37 44.179 30.106 44.179 29.778"/>
  </g>
  <path stroke-width="0.2" fill="#000000" d="M44.179 29.778C44.179 29.638 44.121 29.475 44.006 29.359 43.89 29.243 43.726 29.185 43.588 29.185 43.448 29.185 43.283 29.243 43.168 29.359 43.052 29.475 42.994 29.638 42.994 29.778 42.994 29.919 43.052 30.082 43.168 30.198 43.283 30.312 43.448 30.37 43.588 30.37 43.726 30.37 43.89 30.312 44.006 30.198 44.121 30.082 44.179 29.919 44.179 29.778z"/>
  <line stroke-width="0.2" x1="43.587" y1="29.768" x2="43.587" y2="41.39"/>
  <g>
   <path stroke-width="0.2" d="M99.555 16.152C99.555 15.824 99.29 15.56 98.963 15.56C98.637 15.56 98.37 15.824 98.37 16.152C98.37 16.48 98.637 16.745 98.963 16.745C99.29 16.745 99.555 16.48 99.555 16.152"/>
  </g>
  <path stroke-width="0.2" fill="#000000" d="M99.555 16.152C99.555 15.872 99.242 15.56 98.963 15.56 98.685 15.56 98.37 15.872 98.37 16.152 98.37 16.431 98.685 16.745 98.963 16.745 99.242 16.745 99.555 16.431 99.555 16.152z"/>
  <polyline stroke-width="0.2" points="43.587 41.542 90.429 41.542 90.429 19.059"/>
  <polygon stroke-width="0.2" points="58.381 11.701 71.329 11.701 71.329 20.208 58.381 20.208 58.381 11.701"/>
  <line stroke-width="0.2" x1="64.871" y1="8.792" x2="64.871" y2="11.701"/>
  <line stroke-width="0.2" x1="58.381" y1="11.701" x2="64.855" y2="20.208"/>
  <line stroke-width="0.2" x1="71.361" y1="11.701" x2="64.855" y2="20.208"/>
  <text x="63.268" y="16.408" stroke="none" fill="#000000" font-family="'Arial'" font-size="5.016">=</text>
  <path stroke-width="0.2" d="M59.85 18.477C60.351 17.599 60.509 17.887 60.954 18.483C61.136 18.727 61.354 19.166 61.981 18.35"/>
  <path stroke-width="0.2" d="M67.813 18.477C68.314 17.599 68.471 17.887 68.915 18.483C69.097 18.727 69.317 19.166 69.944 18.35"/>
  <line stroke-width="0.2" x1="33.819" y1="29.323" x2="33.819" y2="30.405"/>
  <g>
   <path stroke-width="0.2" d="M34.572 29.864C34.572 29.657 34.402 29.487 34.195 29.487C33.987 29.487 33.819 29.657 33.819 29.864C33.819 30.071 33.987 30.24 34.195 30.24C34.402 30.24 34.572 30.071 34.572 29.864"/>
  </g>
  <line stroke-width="0.2" x1="33.374" y1="8.233" x2="33.374" y2="9.316"/>
  <g>
   <path stroke-width="0.2" d="M34.177 8.774C34.177 8.567 34.009 8.397 33.801 8.397C33.594 8.397 33.426 8.567 33.426 8.774C33.426 8.981 33.594 9.15 33.801 9.15C34.009 9.15 34.177 8.981 34.177 8.774"/>
  </g>
  <line stroke-width="0.2" x1="37.661" y1="16.042" x2="34.182" y2="17.361"/>
  <line stroke-width="0.2" x1="33.357" y1="10.31" x2="37.409" y2="8.792"/>
  <line stroke-width="0.2" x1="33.582" y1="15.579" x2="33.582" y2="16.661"/>
  <g>
   <path stroke-width="0.2" d="M34.335 16.12C34.335 15.913 34.165 15.743 33.957 15.743C33.75 15.743 33.582 15.913 33.582 16.12C33.582 16.327 33.75 16.495 33.957 16.495C34.165 16.495 34.335 16.327 34.335 16.12"/>
  </g>
  <line stroke-width="0.2" x1="49.222" y1="29.323" x2="49.222" y2="30.405"/>
  <g>
   <path stroke-width="0.2" d="M49.973 29.864C49.973 29.657 49.805 29.487 49.597 29.487C49.39 29.487 49.222 29.657 49.222 29.864C49.222 30.071 49.39 30.24 49.597 30.24C49.805 30.24 49.973 30.071 49.973 29.864"/>
  </g>
  <polygon stroke-width="0.2" points="58.287 26.214 58.287 36.183 71.266 36.183 71.266 26.214 58.287 26.214"/>
  <line stroke-width="0.2" x1="37.661" y1="29.768" x2="34.182" y2="31.085"/>
  <path stroke-width="0.2" fill="#000000" d="M99.555 19.152C99.555 18.873 99.242 18.559 98.963 18.559 98.685 18.559 98.37 18.873 98.37 19.152 98.37 19.431 98.685 19.745 98.963 19.745 99.242 19.745 99.555 19.431 99.555 19.152z"/>
  <line stroke-width="0.2" x1="99.463" y1="19.059" x2="90.429" y2="19.059"/>
  <polyline stroke-width="0.2" points="107.733 18.103 103.076 18.103 99.251 16.323"/>
  <g>
   <path stroke-width="0.2" d="M103.67 18.103C103.67 17.775 103.403 17.51 103.076 17.51C102.75 17.51 102.484 17.775 102.484 18.103C102.484 18.429 102.75 18.695 103.076 18.695C103.403 18.695 103.67 18.429 103.67 18.103"/>
  </g>
  <path stroke-width="0.2" fill="#000000" d="M103.67 18.103C103.67 17.824 103.355 17.51 103.076 17.51 102.798 17.51 102.484 17.824 102.484 18.103 102.484 18.382 102.798 18.695 103.076 18.695 103.355 18.695 103.67 18.382 103.67 18.103z"/>
  <path stroke-width="0.2" fill="#000000" d="M99.486 16.431L99.864 17.202 100.367 16.196 99.486 16.431z"/>
  <line stroke-width="0.2" x1="53.36" y1="29.768" x2="49.881" y2="31.085"/>
 </g>
 <g id="120mm_x0020_hidden_x0020_Schneider_x0020_layer_x0020_for_x0020_editor">
  <polygon stroke="none" points="0 40.375 0 49.375 120 49.375 120 40.375 0 40.375"/>
 </g>
 <g id="cutout_x0020_layer">
 </g>
 <g id="outline_x0020_layer">
 </g>
 <g id="arrow_x0020_layer">
 </g>
 <g id="_x0020_cable_x0020_layer">
 </g>
 <g id="symbol_x0020_layer">
 </g>
 <g id="_x0020_text_x0020_layer_translate">
  <text x="0.143" y="10.07" stroke="none" fill="#000000" font-family="'Arial'" font-size="4.179">Batteries</text>
  <text x="8.605" y="17.248" stroke="none" fill="#000000" font-family="'Arial'" font-size="4.179">Input</text>
  <text x="3.966" y="30.887" stroke="none" fill="#000000" font-family="'Arial'" font-size="4.179">Bypass</text>
  <text x="108.551" y="19.41" stroke="none" fill="#000000" font-family="'Arial'" font-size="4.179">Load</text>
  <g>
   <text x="58.918" y="30.231" stroke="none" fill="#000000" font-family="'Arial'" font-size="4.179">Static </text>
   <text x="58.57" y="34.817" stroke="none" fill="#000000" font-family="'Arial'" font-size="4.179">Switch</text>
  </g>
 </g>
 <g id="_x0020_callout_x0020_layer">
 </g>
 <g id="text_x0020_layer_do_x0020_not_x0020_translate">
  <text x="30.489" y="20.535" stroke="none" fill="#000000" font-family="'Arial'" font-size="4.179">Q001</text>
  <text x="30.489" y="35.036" stroke="none" fill="#000000" font-family="'Arial'" font-size="4.179">Q501</text>
  <text x="93.037" y="23.885" stroke="none" fill="#000000" font-family="'Arial'" font-size="4.179">Q601</text>
  <text x="30.689" y="7.057" stroke="none" fill="#000000" font-family="'Arial'" font-size="4.179">Q201</text>
  <text x="45.994" y="36.307" stroke="none" fill="#000000" font-family="'Arial'" font-size="4.179">Q528</text>
 </g>
</svg>
