<?xml version="1.0" encoding="UTF-8"?>
<!-- Generator: PTC Arbortext IsoDraw 7.4 M001 -->
<svg xmlns="http://www.w3.org/2000/svg" xmlns:xlink="http://www.w3.org/1999/xlink" width="120mm" height="90.096mm" viewBox="0 0 120 90.096" fill-rule="evenodd" clip-rule="evenodd" stroke="#000000" stroke-linecap="round" fill="none" xml:space="preserve" preserveAspectRatio="xMidYMid meet" zoomAndPan="magnify" version="1.1" contentScriptType="text/ecmascript" contentStyleType="text/css">
 <g id="Standard_x0020_layer">
  <g>
   <polygon stroke-width="0.106" stroke-linejoin="round" stroke-miterlimit="10" points="37.646 47.579 51.286 47.579 51.286 34.746 37.646 34.746 37.646 47.579"/>
   <line stroke-width="0.106" stroke-linejoin="round" stroke-miterlimit="10" x1="51.286" y1="34.746" x2="37.646" y2="47.579"/>
   <line stroke-width="0.106" x1="39.003" y1="38.844" x2="44.317" y2="38.844"/>
   <g>
    <path stroke-width="0.106" stroke-linejoin="round" stroke-miterlimit="10" d="M39.003 36.718C39.759 37.942 40.981 37.942 41.737 36.718"/>
    <path stroke-width="0.106" stroke-linejoin="round" stroke-miterlimit="10" d="M41.737 36.718C42.491 35.521 43.716 35.521 44.47 36.718"/>
   </g>
   <g>
    <path stroke-width="0.106" stroke-linejoin="round" stroke-miterlimit="10" d="M44.642 45.682C45.396 46.905 46.619 46.905 47.375 45.682"/>
    <path stroke-width="0.106" stroke-linejoin="round" stroke-miterlimit="10" d="M47.375 45.682C48.13 44.485 49.353 44.485 50.107 45.682"/>
   </g>
  </g>
  <line stroke-width="0.106" x1="93.587" y1="41.35" x2="51.286" y2="41.35"/>
  <polyline stroke-width="0.106" points="37.646 40.981 29.663 40.981 29.663 24.923"/>
  <line stroke-width="0.106" x1="13.417" y1="24.923" x2="5.285" y2="24.923"/>
  <line stroke-width="0.106" x1="0.376" y1="37.963" x2="12.419" y2="37.963"/>
  <line stroke-width="0.106" x1="17.615" y1="37.963" x2="37.646" y2="37.963"/>
  <line stroke-width="0.106" x1="76.34" y1="41.35" x2="76.34" y2="36.685"/>
  <line stroke-width="0.106" x1="76.34" y1="29.144" x2="76.34" y2="24.728"/>
  <line stroke-width="0.106" x1="74.438" y1="29.144" x2="74.438" y2="31.417"/>
  <polyline stroke-width="0.106" points="74.438 34.445 74.438 36.685 78.174 36.685 78.174 34.521"/>
  <polyline stroke-width="0.106" points="78.174 31.376 78.174 29.144 74.438 29.144"/>
  <path stroke-width="0.106" fill="#FFFFFF" d="M13.419 24.951C13.419 24.67 13.191 24.442 12.91 24.442 12.628 24.442 12.4 24.67 12.4 24.951 12.4 25.233 12.628 25.46 12.91 25.46 13.191 25.46 13.419 25.233 13.419 24.951 13.419 24.951 13.419 24.951 13.419 24.951L13.419 24.951z"/>
  <polygon stroke-width="0.106" points="76.686 31.376 79.805 31.376 78.174 34.523 76.686 31.376"/>
  <polygon stroke-width="0.106" points="75.986 34.445 72.867 34.445 74.5 31.297 75.986 34.445"/>
  <line stroke-width="0.106" x1="72.763" y1="31.402" x2="75.98" y2="31.402"/>
  <line stroke-width="0.106" x1="72.873" y1="29.856" x2="73.632" y2="31.402"/>
  <line stroke-width="0.106" x1="76.78" y1="34.521" x2="79.885" y2="34.521"/>
  <line stroke-width="0.106" x1="79.802" y1="36.204" x2="79.043" y2="34.521"/>
  <line stroke-width="0.106" x1="1.482" y1="24.062" x2="1.482" y2="25.498"/>
  <line stroke-width="0.106" x1="2.217" y1="23.076" x2="2.217" y2="26.539"/>
  <line stroke-width="0.106" x1="4.621" y1="24.045" x2="4.621" y2="25.623"/>
  <line stroke-width="0.106" x1="4.621" y1="24.835" x2="2.217" y2="24.835"/>
  <line stroke-width="0.106" x1="5.339" y1="23.129" x2="5.339" y2="26.504"/>
  <line stroke-width="0.106" x1="29.663" y1="24.923" x2="18.24" y2="24.923"/>
  <line stroke-width="0.106" x1="12.686" y1="5.352" x2="0.376" y2="5.352"/>
  <line stroke-width="0.106" x1="76.349" y1="5.352" x2="17.585" y2="5.352"/>
  <line stroke-width="0.106" x1="76.349" y1="5.392" x2="76.349" y2="22.949"/>
  <g>
   <g>
    <path stroke-width="0.106" d="M17.58 4.541C17.58 3.242 16.527 2.189 15.228 2.189C13.929 2.189 12.877 3.242 12.877 4.541C12.877 4.575 12.878 4.61 12.878 4.639"/>
    <path stroke-width="0.106" d="M17.58 4.591C17.58 4.573 17.58 4.557 17.58 4.541"/>
   </g>
   <path stroke-width="0.106" fill="#FFFFFF" d="M13.419 5.352C13.419 5.07 13.191 4.843 12.91 4.843 12.628 4.843 12.4 5.07 12.4 5.352 12.4 5.634 12.628 5.862 12.91 5.862 13.191 5.862 13.419 5.634 13.419 5.352 13.419 5.352 13.419 5.352 13.419 5.352L13.419 5.352z"/>
   <path stroke-width="0.106" fill="#FFFFFF" d="M18.094 5.352C18.094 5.07 17.867 4.843 17.585 4.843 17.303 4.843 17.076 5.07 17.076 5.352 17.076 5.634 17.303 5.862 17.585 5.862 17.867 5.862 18.094 5.634 18.094 5.352 18.094 5.352 18.094 5.352 18.094 5.352L18.094 5.352z"/>
  </g>
  <g>
   <g>
    <path stroke-width="0.106" d="M17.58 24.14C17.58 22.841 16.527 21.789 15.228 21.789C13.929 21.789 12.877 22.841 12.877 24.14C12.877 24.175 12.878 24.208 12.878 24.237"/>
    <path stroke-width="0.106" d="M17.58 24.19C17.58 24.172 17.58 24.155 17.58 24.14"/>
   </g>
   <path stroke-width="0.106" fill="#FFFFFF" d="M13.419 24.951C13.419 24.67 13.191 24.442 12.91 24.442 12.628 24.442 12.4 24.67 12.4 24.951 12.4 25.233 12.628 25.46 12.91 25.46 13.191 25.46 13.419 25.233 13.419 24.951 13.419 24.951 13.419 24.951 13.419 24.951L13.419 24.951z"/>
   <path stroke-width="0.106" fill="#FFFFFF" d="M18.094 24.951C18.094 24.67 17.867 24.442 17.585 24.442 17.303 24.442 17.076 24.67 17.076 24.951 17.076 25.233 17.303 25.46 17.585 25.46 17.867 25.46 18.094 25.233 18.094 24.951 18.094 24.951 18.094 24.951 18.094 24.951L18.094 24.951z"/>
  </g>
  <g>
   <g>
    <path stroke-width="0.106" d="M17.58 37.018C17.58 35.719 16.527 34.665 15.228 34.665C13.929 34.665 12.877 35.719 12.877 37.018C12.877 37.051 12.878 37.085 12.878 37.113"/>
    <path stroke-width="0.106" d="M17.58 37.066C17.58 37.048 17.58 37.031 17.58 37.018"/>
   </g>
   <path stroke-width="0.106" fill="#FFFFFF" d="M13.419 37.828C13.419 37.545 13.191 37.317 12.91 37.317 12.628 37.317 12.4 37.545 12.4 37.828 12.4 38.109 12.628 38.337 12.91 38.337 13.191 38.337 13.419 38.109 13.419 37.828 13.419 37.828 13.419 37.828 13.419 37.828L13.419 37.828z"/>
   <path stroke-width="0.106" fill="#FFFFFF" d="M18.094 37.828C18.094 37.545 17.867 37.317 17.585 37.317 17.303 37.317 17.076 37.545 17.076 37.828 17.076 38.109 17.303 38.337 17.585 38.337 17.867 38.337 18.094 38.109 18.094 37.828 18.094 37.828 18.094 37.828 18.094 37.828L18.094 37.828z"/>
  </g>
  <line stroke-width="0.106" x1="75.576" y1="23.175" x2="77.061" y2="23.175"/>
  <line stroke-width="0.106" x1="75.576" y1="24.576" x2="77.061" y2="24.576"/>
  <g>
   <g>
    <path stroke-width="0.106" d="M98.608 40.494C98.608 39.195 97.555 38.143 96.256 38.143C94.956 38.143 93.903 39.195 93.903 40.494C93.903 40.529 93.905 40.563 93.906 40.591"/>
    <path stroke-width="0.106" d="M98.608 40.542C98.608 40.526 98.608 40.509 98.608 40.494"/>
   </g>
   <path stroke-width="0.106" fill="#FFFFFF" d="M94.445 41.304C94.445 41.023 94.218 40.795 93.936 40.795 93.655 40.795 93.427 41.023 93.427 41.304 93.427 41.585 93.655 41.814 93.936 41.814 94.218 41.814 94.445 41.585 94.445 41.304 94.445 41.304 94.445 41.304 94.445 41.304L94.445 41.304z"/>
   <path stroke-width="0.106" fill="#FFFFFF" d="M99.121 41.304C99.121 41.023 98.894 40.795 98.612 40.795 98.331 40.795 98.102 41.023 98.102 41.304 98.102 41.585 98.331 41.814 98.612 41.814 98.894 41.814 99.121 41.585 99.121 41.304 99.121 41.304 99.121 41.304 99.121 41.304L99.121 41.304z"/>
  </g>
  <line stroke-width="0.106" x1="99.189" y1="41.35" x2="110.364" y2="41.35"/>
  <g>
   <polygon stroke-width="0.106" stroke-linejoin="round" stroke-miterlimit="10" points="37.646 61.579 51.286 61.579 51.286 48.746 37.646 48.746 37.646 61.579"/>
   <line stroke-width="0.106" stroke-linejoin="round" stroke-miterlimit="10" x1="51.286" y1="48.746" x2="37.646" y2="61.579"/>
   <line stroke-width="0.106" x1="39.003" y1="52.844" x2="44.317" y2="52.844"/>
   <g>
    <path stroke-width="0.106" stroke-linejoin="round" stroke-miterlimit="10" d="M39.003 50.718C39.759 51.942 40.981 51.942 41.737 50.718"/>
    <path stroke-width="0.106" stroke-linejoin="round" stroke-miterlimit="10" d="M41.737 50.718C42.491 49.521 43.716 49.521 44.47 50.718"/>
   </g>
   <g>
    <path stroke-width="0.106" stroke-linejoin="round" stroke-miterlimit="10" d="M44.642 59.682C45.396 60.905 46.619 60.905 47.375 59.682"/>
    <path stroke-width="0.106" stroke-linejoin="round" stroke-miterlimit="10" d="M47.375 59.682C48.13 58.484 49.353 58.484 50.107 59.682"/>
   </g>
  </g>
  <polyline stroke-width="0.106" points="29.663 40.981 29.663 53.112 37.646 53.112"/>
  <polyline stroke-width="0.106" points="34.085 38.082 34.085 51.158 37.646 51.158"/>
  <g>
   <polygon stroke-width="0.106" stroke-linejoin="round" stroke-miterlimit="10" points="37.646 75.68 51.286 75.68 51.286 62.847 37.646 62.847 37.646 75.68"/>
   <line stroke-width="0.106" stroke-linejoin="round" stroke-miterlimit="10" x1="51.286" y1="62.847" x2="37.646" y2="75.68"/>
   <line stroke-width="0.106" x1="39.003" y1="66.944" x2="44.317" y2="66.944"/>
   <g>
    <path stroke-width="0.106" stroke-linejoin="round" stroke-miterlimit="10" d="M39.003 64.817C39.759 66.04 40.981 66.04 41.737 64.817"/>
    <path stroke-width="0.106" stroke-linejoin="round" stroke-miterlimit="10" d="M41.737 64.817C42.491 63.621 43.716 63.621 44.47 64.817"/>
   </g>
   <g>
    <path stroke-width="0.106" stroke-linejoin="round" stroke-miterlimit="10" d="M44.642 73.783C45.396 75.006 46.619 75.006 47.375 73.783"/>
    <path stroke-width="0.106" stroke-linejoin="round" stroke-miterlimit="10" d="M47.375 73.783C48.13 72.584 49.353 72.584 50.107 73.783"/>
   </g>
  </g>
  <g>
   <polygon stroke-width="0.106" stroke-linejoin="round" stroke-miterlimit="10" points="37.646 89.68 51.286 89.68 51.286 76.846 37.646 76.846 37.646 89.68"/>
  </g>
  <polyline stroke-width="0.106" points="34.085 51.158 34.085 66.683 37.646 66.683"/>
  <polyline stroke-width="0.106" points="34.085 66.683 34.085 80.367 37.646 80.367"/>
  <polyline stroke-width="0.106" points="29.663 53.112 29.663 64.956 37.646 64.956"/>
  <polyline stroke-width="0.106" points="29.663 64.956 29.663 82.992 37.646 82.992"/>
  <g>
   <polygon stroke-width="0.106" stroke-linejoin="round" stroke-miterlimit="10" points="37.646 89.68 51.286 89.68 51.286 76.846 37.646 76.846 37.646 89.68"/>
   <line stroke-width="0.106" stroke-linejoin="round" stroke-miterlimit="10" x1="51.286" y1="76.846" x2="37.646" y2="89.68"/>
   <line stroke-width="0.106" x1="39.003" y1="80.944" x2="44.317" y2="80.944"/>
   <g>
    <path stroke-width="0.106" stroke-linejoin="round" stroke-miterlimit="10" d="M39.003 78.817C39.759 80.042 40.981 80.042 41.737 78.817"/>
    <path stroke-width="0.106" stroke-linejoin="round" stroke-miterlimit="10" d="M41.737 78.817C42.491 77.62 43.716 77.62 44.47 78.817"/>
   </g>
   <g>
    <path stroke-width="0.106" stroke-linejoin="round" stroke-miterlimit="10" d="M44.642 87.783C45.396 89.006 46.619 89.006 47.375 87.783"/>
    <path stroke-width="0.106" stroke-linejoin="round" stroke-miterlimit="10" d="M47.375 87.783C48.13 86.584 49.353 86.584 50.107 87.783"/>
   </g>
  </g>
 </g>
 <g id="120mm_x0020_hidden_x0020_Schneider_x0020_layer_x0020_for_x0020_editor">
  <polygon stroke="none" points="0 81.096 0 90.096 120 90.096 120 81.096 0 81.096"/>
 </g>
 <g id="cutout_x0020_layer">
 </g>
 <g id="outline_x0020_layer">
 </g>
 <g id="zoom_x0020_layer">
 </g>
 <g id="arrow_x0020_layer">
 </g>
 <g id="_x0020_cable_x0020_layer">
 </g>
 <g id="symbol_x0020_layer">
 </g>
 <g id="_x0020_text_x0020_layer">
 </g>
 <g id="text-_x0020_DO_x0020_NOT_x0020_translate">
  <text x="68.417" y="24.585" stroke="none" fill="#000000" font-family="'Arial'" font-size="2.278">K401</text>
  <text x="12.752" y="1.764" stroke="none" fill="#000000" font-family="'Arial'" font-size="2.278">SSIB</text>
  <text x="13.829" y="21.106" stroke="none" fill="#000000" font-family="'Arial'" font-size="2.278">BB</text>
  <text x="13.449" y="33.939" stroke="none" fill="#000000" font-family="'Arial'" font-size="2.278">UIB</text>
  <text x="94.072" y="37.18" stroke="none" fill="#000000" font-family="'Arial'" font-size="2.278">UOB</text>
 </g>
 <g id="_x0020_callout_x0020_layer">
 </g>
</svg>
