<?xml version="1.0" encoding="UTF-8"?>
<!-- Generator: PTC Arbortext IsoDraw 7.4 M001 -->
<svg xmlns="http://www.w3.org/2000/svg" xmlns:xlink="http://www.w3.org/1999/xlink" width="120mm" height="82.713mm" viewBox="0 0 120 82.713" fill-rule="evenodd" clip-rule="evenodd" stroke="#000000" stroke-linecap="round" fill="none" xml:space="preserve" preserveAspectRatio="xMidYMid meet" zoomAndPan="magnify" version="1.1" contentScriptType="text/ecmascript" contentStyleType="text/css">
 <g id="Standard_x0020_layer">
  <path stroke="none" fill="#FFFFFF" d="M21.843 17.283L35.152 17.283 35.152 4.761 21.843 4.761 21.843 17.283z"/>
  <polygon stroke-width="0.113" stroke-linejoin="round" stroke-miterlimit="10" points="21.843 17.283 35.152 17.283 35.152 4.761 21.843 4.761 21.843 17.283"/>
  <line stroke-width="0.113" stroke-linejoin="round" stroke-miterlimit="10" x1="35.152" y1="4.761" x2="21.843" y2="17.283"/>
  <path stroke-width="0.113" stroke-linejoin="round" stroke-miterlimit="10" d="M23.036 6.285C23.774 5.117 24.968 5.117 25.704 6.285"/>
  <path stroke-width="0.113" stroke-linejoin="round" stroke-miterlimit="10" d="M25.704 6.285C26.44 7.479 27.635 7.479 28.37 6.285"/>
  <line stroke-width="0.113" stroke-linejoin="round" stroke-miterlimit="10" x1="23.036" y1="10.958" x2="25.704" y2="10.958"/>
  <line stroke-width="0.113" stroke-linejoin="round" stroke-miterlimit="10" x1="23.036" y1="10.4" x2="25.704" y2="10.4"/>
  <line stroke-width="0.113" stroke-linejoin="round" stroke-miterlimit="10" x1="31.597" y1="14.718" x2="34.264" y2="14.718"/>
  <line stroke-width="0.113" stroke-linejoin="round" stroke-miterlimit="10" x1="31.597" y1="14.16" x2="34.264" y2="14.16"/>
  <path stroke="none" fill="#FFFFFF" d="M21.843 34.783L35.152 34.783 35.152 22.262 21.843 22.262 21.843 34.783z"/>
  <polygon stroke-width="0.113" stroke-linejoin="round" stroke-miterlimit="10" points="21.843 34.783 35.152 34.783 35.152 22.262 21.843 22.262 21.843 34.783"/>
  <line stroke-width="0.113" stroke-linejoin="round" stroke-miterlimit="10" x1="35.152" y1="22.262" x2="21.843" y2="34.783"/>
  <path stroke-width="0.113" stroke-linejoin="round" stroke-miterlimit="10" d="M23.036 23.811C23.774 22.617 24.968 22.617 25.704 23.811"/>
  <path stroke-width="0.113" stroke-linejoin="round" stroke-miterlimit="10" d="M25.704 23.811C26.44 24.98 27.635 24.98 28.37 23.811"/>
  <line stroke-width="0.113" stroke-linejoin="round" stroke-miterlimit="10" x1="23.036" y1="28.458" x2="25.704" y2="28.458"/>
  <line stroke-width="0.113" stroke-linejoin="round" stroke-miterlimit="10" x1="23.036" y1="27.9" x2="25.704" y2="27.9"/>
  <line stroke-width="0.113" stroke-linejoin="round" stroke-miterlimit="10" x1="31.597" y1="32.243" x2="34.264" y2="32.243"/>
  <line stroke-width="0.113" stroke-linejoin="round" stroke-miterlimit="10" x1="31.597" y1="31.684" x2="34.264" y2="31.684"/>
  <path stroke="none" fill="#FFFFFF" d="M21.843 52.512L35.152 52.512 35.152 39.99 21.843 39.99 21.843 52.512z"/>
  <polygon stroke-width="0.113" stroke-linejoin="round" stroke-miterlimit="10" points="21.843 52.512 35.152 52.512 35.152 39.99 21.843 39.99 21.843 52.512"/>
  <line stroke-width="0.113" stroke-linejoin="round" stroke-miterlimit="10" x1="35.152" y1="39.99" x2="21.843" y2="52.512"/>
  <path stroke-width="0.113" stroke-linejoin="round" stroke-miterlimit="10" d="M23.036 41.54C23.774 40.347 24.968 40.347 25.704 41.54"/>
  <path stroke-width="0.113" stroke-linejoin="round" stroke-miterlimit="10" d="M25.704 41.54C26.44 42.709 27.635 42.709 28.37 41.54"/>
  <line stroke-width="0.113" stroke-linejoin="round" stroke-miterlimit="10" x1="23.036" y1="46.189" x2="25.704" y2="46.189"/>
  <line stroke-width="0.113" stroke-linejoin="round" stroke-miterlimit="10" x1="23.036" y1="45.63" x2="25.704" y2="45.63"/>
  <line stroke-width="0.113" stroke-linejoin="round" stroke-miterlimit="10" x1="31.597" y1="49.972" x2="34.264" y2="49.972"/>
  <line stroke-width="0.113" stroke-linejoin="round" stroke-miterlimit="10" x1="31.597" y1="49.414" x2="34.264" y2="49.414"/>
  <path stroke="none" fill="#FFFFFF" d="M47.598 17.181L60.908 17.181 60.908 4.761 47.598 4.761 47.598 17.181z"/>
  <polygon stroke-width="0.113" stroke-linejoin="round" stroke-miterlimit="10" points="47.598 17.181 60.908 17.181 60.908 4.761 47.598 4.761 47.598 17.181"/>
  <line stroke-width="0.113" stroke-linejoin="round" stroke-miterlimit="10" x1="60.908" y1="4.761" x2="47.598" y2="17.181"/>
  <path stroke-width="0.113" stroke-linejoin="round" stroke-miterlimit="10" d="M54.253 14.515C54.99 13.346 56.183 13.346 56.92 14.515"/>
  <path stroke-width="0.113" stroke-linejoin="round" stroke-miterlimit="10" d="M56.92 14.515C57.658 15.708 58.85 15.708 59.588 14.515"/>
  <line stroke-width="0.113" stroke-linejoin="round" stroke-miterlimit="10" x1="48.487" y1="8.164" x2="51.13" y2="8.164"/>
  <line stroke-width="0.113" stroke-linejoin="round" stroke-miterlimit="10" x1="48.487" y1="7.605" x2="51.13" y2="7.605"/>
  <path stroke="none" fill="#FFFFFF" d="M47.598 34.682L60.908 34.682 60.908 22.262 47.598 22.262 47.598 34.682z"/>
  <polygon stroke-width="0.113" stroke-linejoin="round" stroke-miterlimit="10" points="47.598 34.682 60.908 34.682 60.908 22.262 47.598 22.262 47.598 34.682"/>
  <line stroke-width="0.113" stroke-linejoin="round" stroke-miterlimit="10" x1="60.908" y1="22.262" x2="47.598" y2="34.682"/>
  <path stroke-width="0.113" stroke-linejoin="round" stroke-miterlimit="10" d="M54.253 32.015C54.99 30.821 56.183 30.821 56.92 32.015"/>
  <path stroke-width="0.113" stroke-linejoin="round" stroke-miterlimit="10" d="M56.92 32.015C57.658 33.183 58.85 33.183 59.588 32.015"/>
  <line stroke-width="0.113" stroke-linejoin="round" stroke-miterlimit="10" x1="48.487" y1="25.64" x2="51.13" y2="25.64"/>
  <line stroke-width="0.113" stroke-linejoin="round" stroke-miterlimit="10" x1="48.487" y1="25.08" x2="51.13" y2="25.08"/>
  <path stroke="none" fill="#FFFFFF" d="M47.598 52.411L60.908 52.411 60.908 39.99 47.598 39.99 47.598 52.411z"/>
  <polygon stroke-width="0.113" stroke-linejoin="round" stroke-miterlimit="10" points="47.598 52.411 60.908 52.411 60.908 39.99 47.598 39.99 47.598 52.411"/>
  <line stroke-width="0.113" stroke-linejoin="round" stroke-miterlimit="10" x1="60.908" y1="39.99" x2="47.598" y2="52.411"/>
  <path stroke-width="0.113" stroke-linejoin="round" stroke-miterlimit="10" d="M54.253 49.744C54.99 48.551 56.183 48.551 56.92 49.744"/>
  <path stroke-width="0.113" stroke-linejoin="round" stroke-miterlimit="10" d="M56.92 49.744C57.658 50.938 58.85 50.938 59.588 49.744"/>
  <line stroke-width="0.113" stroke-linejoin="round" stroke-miterlimit="10" x1="48.487" y1="43.368" x2="51.13" y2="43.368"/>
  <line stroke-width="0.113" stroke-linejoin="round" stroke-miterlimit="10" x1="48.487" y1="42.811" x2="51.13" y2="42.811"/>
  <path stroke-width="0.338" stroke-linejoin="round" stroke-miterlimit="10" d="M35.152 10.628L36.576 10.628C36.576 10.426 36.728 10.247 36.93 10.247C37.134 10.247 37.311 10.426 37.311 10.628L47.598 10.628"/>
  <path stroke-width="0.338" stroke-linejoin="round" stroke-miterlimit="10" d="M35.152 28.358L36.576 28.358C36.576 28.155 36.728 27.977 36.93 27.977C37.134 27.977 37.311 28.155 37.311 28.358L38.784 28.358C38.784 28.155 38.938 27.977 39.165 27.977C39.369 27.977 39.521 28.155 39.521 28.358L47.598 28.358"/>
  <path stroke-width="0.338" stroke-linejoin="round" stroke-miterlimit="10" d="M35.152 46.087L36.576 46.087C36.576 45.884 36.728 45.706 36.93 45.706C37.134 45.706 37.311 45.884 37.311 46.087L38.784 46.087C38.784 45.884 38.938 45.706 39.165 45.706C39.369 45.706 39.521 45.884 39.521 46.087L47.598 46.087"/>
  <line stroke-width="0.338" stroke-linejoin="round" stroke-miterlimit="10" x1="21.843" y1="10.628" x2="12.522" y2="10.628"/>
  <path stroke="none" fill="#FFFFFF" d="M16.966 9.561L16.966 11.772 19.175 10.679 16.966 9.561z"/>
  <polygon stroke-width="0.117" stroke-linejoin="round" stroke-miterlimit="10" points="16.966 9.561 16.966 11.772 19.175 10.679 16.966 9.561"/>
  <line stroke-width="0.117" stroke-linejoin="round" stroke-miterlimit="10" x1="19.175" y1="9.561" x2="19.175" y2="11.772"/>
  <line stroke-width="0.117" stroke-linejoin="round" stroke-miterlimit="10" x1="19.175" y1="11.111" x2="20.294" y2="11.772"/>
  <line stroke-width="0.338" stroke-linejoin="round" stroke-miterlimit="10" x1="21.843" y1="28.358" x2="12.522" y2="28.358"/>
  <line stroke-width="0.338" stroke-linejoin="round" stroke-miterlimit="10" x1="21.843" y1="46.087" x2="12.522" y2="46.087"/>
  <path stroke="none" fill="#FFFFFF" d="M16.966 27.062L16.966 29.271 19.175 28.179 16.966 27.062z"/>
  <polygon stroke-width="0.117" stroke-linejoin="round" stroke-miterlimit="10" points="16.966 27.062 16.966 29.271 19.175 28.179 16.966 27.062"/>
  <line stroke-width="0.117" stroke-linejoin="round" stroke-miterlimit="10" x1="19.175" y1="27.062" x2="19.175" y2="29.271"/>
  <line stroke-width="0.117" stroke-linejoin="round" stroke-miterlimit="10" x1="19.175" y1="28.611" x2="20.294" y2="29.271"/>
  <path stroke="none" fill="#FFFFFF" d="M16.966 44.792L16.966 47.027 19.175 45.908 16.966 44.792z"/>
  <polygon stroke-width="0.117" stroke-linejoin="round" stroke-miterlimit="10" points="16.966 44.792 16.966 47.027 19.175 45.908 16.966 44.792"/>
  <line stroke-width="0.117" stroke-linejoin="round" stroke-miterlimit="10" x1="19.175" y1="44.792" x2="19.175" y2="47.027"/>
  <line stroke-width="0.117" stroke-linejoin="round" stroke-miterlimit="10" x1="19.175" y1="46.341" x2="20.294" y2="47.027"/>
  <path stroke="none" fill="#FFFFFF" d="M21.818 69.912L35.128 69.912 35.128 57.491 21.818 57.491 21.818 69.912z"/>
  <polygon stroke-width="0.113" stroke-linejoin="round" stroke-miterlimit="10" points="21.818 69.912 35.128 69.912 35.128 57.491 21.818 57.491 21.818 69.912"/>
  <line stroke-width="0.113" stroke-linejoin="round" stroke-miterlimit="10" x1="35.128" y1="57.491" x2="21.818" y2="69.912"/>
  <line stroke-width="0.113" stroke-linejoin="round" stroke-miterlimit="10" x1="22.936" y1="61.097" x2="25.576" y2="61.097"/>
  <line stroke-width="0.113" stroke-linejoin="round" stroke-miterlimit="10" x1="22.936" y1="60.539" x2="25.576" y2="60.539"/>
  <line stroke-width="0.113" stroke-linejoin="round" stroke-miterlimit="10" x1="31.571" y1="66.915" x2="34.238" y2="66.915"/>
  <line stroke-width="0.113" stroke-linejoin="round" stroke-miterlimit="10" x1="31.571" y1="66.355" x2="34.238" y2="66.355"/>
  <path stroke-width="0.338" stroke-linejoin="round" stroke-miterlimit="10" d="M35.128 63.816L38.784 63.816C38.784 63.612 38.938 63.46 39.165 63.46C39.369 63.46 39.521 63.612 39.521 63.816L41.375 63.816"/>
  <line stroke-width="0.338" stroke-linejoin="round" stroke-miterlimit="10" x1="21.818" y1="63.816" x2="12.522" y2="63.816"/>
  <line stroke-width="0.338" stroke-linejoin="round" stroke-miterlimit="10" x1="12.522" y1="10.628" x2="12.522" y2="74.891"/>
  <line stroke-width="0.338" stroke-linejoin="round" stroke-miterlimit="10" x1="60.908" y1="28.358" x2="74.676" y2="28.358"/>
  <line stroke-width="0.338" stroke-linejoin="round" stroke-miterlimit="10" x1="60.908" y1="46.087" x2="74.676" y2="46.087"/>
  <path stroke-width="0.338" stroke-linejoin="round" stroke-miterlimit="10" d="M21.843 41.642L12.877 41.642C12.877 41.439 12.724 41.286 12.522 41.286C12.317 41.286 12.141 41.439 12.141 41.642L1.421 41.642"/>
  <path stroke-width="0.338" stroke-linejoin="round" stroke-miterlimit="10" d="M21.843 23.913L12.877 23.913C12.877 23.71 12.724 23.556 12.522 23.556C12.317 23.556 12.141 23.71 12.141 23.913L1.421 23.913"/>
  <line stroke-width="0.338" stroke-linejoin="round" stroke-miterlimit="10" x1="21.843" y1="6.184" x2="1.421" y2="6.184"/>
  <line stroke-width="0.338" stroke-linejoin="round" stroke-miterlimit="10" x1="41.375" y1="63.816" x2="74.676" y2="63.816"/>
  <line stroke-width="0.338" stroke-linejoin="round" stroke-miterlimit="10" x1="35.152" y1="6.184" x2="47.598" y2="6.184"/>
  <path stroke-width="0.338" stroke-linejoin="round" stroke-miterlimit="10" d="M35.152 23.913L38.784 23.913C38.784 23.71 38.938 23.556 39.165 23.556C39.369 23.556 39.521 23.71 39.521 23.913L40.994 23.913C40.994 23.71 41.173 23.556 41.375 23.556C41.579 23.556 41.731 23.71 41.731 23.913L47.598 23.913"/>
  <path stroke-width="0.338" stroke-linejoin="round" stroke-miterlimit="10" d="M35.152 41.642L38.784 41.642C38.784 41.439 38.938 41.286 39.165 41.286C39.369 41.286 39.521 41.439 39.521 41.642L40.994 41.642C40.994 41.439 41.173 41.286 41.375 41.286C41.579 41.286 41.731 41.439 41.731 41.642L47.598 41.642"/>
  <path stroke-width="0.338" stroke-linejoin="round" stroke-miterlimit="10" d="M35.152 50.531L36.576 50.531C36.576 50.302 36.728 50.151 36.93 50.151C37.134 50.151 37.311 50.302 37.311 50.531L40.994 50.531C40.994 50.302 41.173 50.151 41.375 50.151C41.579 50.151 41.731 50.302 41.731 50.531L47.598 50.531"/>
  <path stroke-width="0.338" stroke-linejoin="round" stroke-miterlimit="10" d="M35.152 32.777L36.576 32.777C36.576 32.573 36.728 32.421 36.93 32.421C37.134 32.421 37.311 32.573 37.311 32.777L40.994 32.777C40.994 32.573 41.173 32.421 41.375 32.421C41.579 32.421 41.731 32.573 41.731 32.777L47.598 32.777"/>
  <path stroke-width="0.338" stroke-linejoin="round" stroke-miterlimit="10" d="M35.152 15.048L36.576 15.048C36.576 14.845 36.728 14.692 36.93 14.692C37.134 14.692 37.311 14.845 37.311 15.048L40.994 15.048C40.994 14.845 41.173 14.692 41.375 14.692C41.579 14.692 41.731 14.845 41.731 15.048L47.598 15.048"/>
  <line stroke-width="0.338" stroke-linejoin="round" stroke-miterlimit="10" x1="41.375" y1="10.628" x2="41.375" y2="28.358"/>
  <line stroke-width="0.338" stroke-linejoin="round" stroke-miterlimit="10" x1="41.375" y1="46.087" x2="41.375" y2="63.816"/>
  <line stroke-width="0.338" stroke-linejoin="round" stroke-miterlimit="10" x1="41.375" y1="28.358" x2="41.375" y2="46.087"/>
  <line stroke-width="0.338" stroke-linejoin="round" stroke-miterlimit="10" x1="35.128" y1="68.26" x2="39.165" y2="68.26"/>
  <line stroke-width="0.338" stroke-linejoin="round" stroke-miterlimit="10" x1="39.165" y1="50.531" x2="39.165" y2="68.26"/>
  <line stroke-width="0.338" stroke-linejoin="round" stroke-miterlimit="10" x1="35.128" y1="59.396" x2="36.93" y2="59.396"/>
  <line stroke-width="0.338" stroke-linejoin="round" stroke-miterlimit="10" x1="36.93" y1="41.642" x2="36.93" y2="59.396"/>
  <line stroke-width="0.338" stroke-linejoin="round" stroke-miterlimit="10" x1="36.93" y1="23.913" x2="36.93" y2="41.642"/>
  <line stroke-width="0.338" stroke-linejoin="round" stroke-miterlimit="10" x1="39.165" y1="32.777" x2="39.165" y2="50.531"/>
  <line stroke-width="0.338" stroke-linejoin="round" stroke-miterlimit="10" x1="36.93" y1="6.184" x2="36.93" y2="23.913"/>
  <line stroke-width="0.338" stroke-linejoin="round" stroke-miterlimit="10" x1="39.165" y1="15.048" x2="39.165" y2="32.777"/>
  <line stroke-width="0.338" stroke-linejoin="round" stroke-miterlimit="10" x1="10.743" y1="75.018" x2="14.3" y2="75.018"/>
  <line stroke-width="0.338" stroke-linejoin="round" stroke-miterlimit="10" x1="11.632" y1="75.906" x2="13.41" y2="75.906"/>
  <line stroke-width="0.338" stroke-linejoin="round" stroke-miterlimit="10" x1="60.908" y1="10.628" x2="74.676" y2="10.628"/>
 </g>
 <g id="120mm_x0020_hidden_x0020_Schneider_x0020_layer_x0020_for_x0020_editor">
  <polygon stroke="none" points="0 73.713 0 82.713 120 82.713 120 73.713 0 73.713"/>
 </g>
 <g id="cutout_x0020_layer">
 </g>
 <g id="outline_x0020_layer">
 </g>
 <g id="zoom_x0020_layer">
 </g>
 <g id="arrow_x0020_layer">
 </g>
 <g id="_x0020_cable_x0020_layer">
 </g>
 <g id="symbol_x0020_layer">
 </g>
 <g id="_x0020_text_x0020_layer">
  <text x="1.449" y="5.591" stroke="none" fill="#000000" font-family="'Arial'" font-size="2.468">Mains L1</text>
  <text x="1.449" y="23.251" stroke="none" fill="#000000" font-family="'Arial'" font-size="2.468">Mains L2</text>
  <text x="1.449" y="40.911" stroke="none" fill="#000000" font-family="'Arial'" font-size="2.468">Mains L3</text>
  <g>
   <text x="8.725" y="78.628" stroke="none" fill="#000000" font-family="'Arial'" font-size="2.468">Battery</text>
   <text x="5.637" y="81.45" stroke="none" fill="#000000" font-family="'Arial'" font-size="2.468">1 x 400 VDC</text>
  </g>
  <g>
   <text x="22.077" y="1.764" stroke="none" fill="#000000" font-family="'Arial'" font-size="2">PFC rectifier/</text>
   <text x="20.129" y="4.232" stroke="none" fill="#000000" font-family="'Arial'" font-size="2">step-up converter</text>
  </g>
  <g>
   <text x="22.077" y="19.259" stroke="none" fill="#000000" font-family="'Arial'" font-size="2">PFC rectifier/</text>
   <text x="20.129" y="21.728" stroke="none" fill="#000000" font-family="'Arial'" font-size="2">step-up converter</text>
  </g>
  <g>
   <text x="22.077" y="36.895" stroke="none" fill="#000000" font-family="'Arial'" font-size="2">PFC rectifier/</text>
   <text x="20.129" y="39.365" stroke="none" fill="#000000" font-family="'Arial'" font-size="2">step-up converter</text>
  </g>
  <text x="21.074" y="72.4" stroke="none" fill="#000000" font-family="'Arial'" font-size="2">Battery charger</text>
  <text x="50.697" y="4.387" stroke="none" fill="#000000" font-family="'Arial'" font-size="2">Inverter</text>
  <text x="50.697" y="21.803" stroke="none" fill="#000000" font-family="'Arial'" font-size="2">Inverter</text>
  <text x="50.697" y="39.625" stroke="none" fill="#000000" font-family="'Arial'" font-size="2">Inverter</text>
  <text x="63.36" y="9.654" stroke="none" fill="#000000" font-family="'Arial'" font-size="2.468">Output L1</text>
  <text x="63.36" y="27.222" stroke="none" fill="#000000" font-family="'Arial'" font-size="2.468">Output L2</text>
  <text x="63.36" y="45.097" stroke="none" fill="#000000" font-family="'Arial'" font-size="2.468">Output L3</text>
  <text x="66.245" y="62.869" stroke="none" fill="#000000" font-family="'Arial'" font-size="2.468">Neutral</text>
 </g>
 <g id="text-_x0020_DO_x0020_NOT_x0020_translate">
 </g>
 <g id="_x0020_callout_x0020_layer">
 </g>
</svg>
