<?xml version="1.0" encoding="UTF-8"?>
<!-- Generator: PTC Arbortext IsoDraw 7.4 M001 -->
<svg xmlns="http://www.w3.org/2000/svg" xmlns:xlink="http://www.w3.org/1999/xlink" width="120mm" height="95.417mm" viewBox="0 0 120 95.417" fill-rule="evenodd" clip-rule="evenodd" stroke="#000000" stroke-linecap="round" fill="none" xml:space="preserve" preserveAspectRatio="xMidYMid meet" zoomAndPan="magnify" version="1.1" contentScriptType="text/ecmascript" contentStyleType="text/css">
 <g id="Standard_x0020_layer">
  <g>
   <path stroke-width="0.106" d="M23.123 3.33C23.123 1.52 21.655 0.053 19.846 0.053C18.036 0.053 16.568 1.52 16.568 3.33C16.568 5.141 18.036 6.607 19.846 6.607C21.655 6.607 23.123 5.141 23.123 3.33"/>
  </g>
  <g>
   <path stroke-width="0.106" d="M23.123 3.33C23.123 1.52 21.655 0.053 19.846 0.053C18.036 0.053 16.568 1.52 16.568 3.33C16.568 5.141 18.036 6.607 19.846 6.607C21.655 6.607 23.123 5.141 23.123 3.33"/>
  </g>
  <g>
   <path stroke-width="0.106" d="M26.484 3.33C26.484 1.52 25.016 0.053 23.207 0.053C21.396 0.053 19.928 1.52 19.928 3.33C19.928 5.141 21.396 6.607 23.207 6.607C25.016 6.607 26.484 5.141 26.484 3.33"/>
  </g>
  <g>
   <g>
    <path stroke-width="0.106" d="M23.378 35.539C23.378 33.728 21.91 32.261 20.1 32.261C18.289 32.261 16.821 33.728 16.821 35.539C16.821 37.348 18.289 38.816 20.1 38.816C21.91 38.816 23.378 37.348 23.378 35.539"/>
   </g>
   <g>
    <path stroke-width="0.106" d="M23.378 35.539C23.378 33.728 21.91 32.261 20.1 32.261C18.289 32.261 16.821 33.728 16.821 35.539C16.821 37.348 18.289 38.816 20.1 38.816C21.91 38.816 23.378 37.348 23.378 35.539"/>
   </g>
   <g>
    <path stroke-width="0.106" d="M26.739 35.539C26.739 33.728 25.271 32.261 23.46 32.261C21.65 32.261 20.182 33.728 20.182 35.539C20.182 37.348 21.65 38.816 23.46 38.816C25.271 38.816 26.739 37.348 26.739 35.539"/>
   </g>
  </g>
  <g>
   <g>
    <path stroke-width="0.106" d="M64.245 38.89C64.245 37.081 62.777 35.612 60.968 35.612C59.158 35.612 57.689 37.081 57.689 38.89C57.689 40.701 59.158 42.168 60.968 42.168C62.777 42.168 64.245 40.701 64.245 38.89"/>
   </g>
   <g>
    <path stroke-width="0.106" d="M64.245 38.89C64.245 37.081 62.777 35.612 60.968 35.612C59.158 35.612 57.689 37.081 57.689 38.89C57.689 40.701 59.158 42.168 60.968 42.168C62.777 42.168 64.245 40.701 64.245 38.89"/>
   </g>
   <g>
    <path stroke-width="0.106" d="M67.606 38.89C67.606 37.081 66.138 35.612 64.328 35.612C62.518 35.612 61.051 37.081 61.051 38.89C61.051 40.701 62.518 42.168 64.328 42.168C66.138 42.168 67.606 40.701 67.606 38.89"/>
   </g>
  </g>
  <g>
   <polygon stroke-width="0.106" stroke-linejoin="round" stroke-miterlimit="10" points="37.646 45.301 51.286 45.301 51.286 32.468 37.646 32.468 37.646 45.301"/>
   <line stroke-width="0.106" stroke-linejoin="round" stroke-miterlimit="10" x1="51.286" y1="32.468" x2="37.646" y2="45.301"/>
   <line stroke-width="0.106" x1="39.003" y1="36.564" x2="44.317" y2="36.564"/>
   <g>
    <path stroke-width="0.106" stroke-linejoin="round" stroke-miterlimit="10" d="M39.003 34.439C39.759 35.662 40.981 35.662 41.737 34.439"/>
    <path stroke-width="0.106" stroke-linejoin="round" stroke-miterlimit="10" d="M41.737 34.439C42.491 33.241 43.716 33.241 44.47 34.439"/>
   </g>
   <g>
    <path stroke-width="0.106" stroke-linejoin="round" stroke-miterlimit="10" d="M44.642 43.404C45.396 44.627 46.619 44.627 47.375 43.404"/>
    <path stroke-width="0.106" stroke-linejoin="round" stroke-miterlimit="10" d="M47.375 43.404C48.13 42.206 49.353 42.206 50.107 43.404"/>
   </g>
  </g>
  <line stroke-width="0.106" x1="15.076" y1="3.072" x2="16.579" y2="3.072"/>
  <line stroke-width="0.106" x1="93.587" y1="39.07" x2="67.6" y2="39.07"/>
  <line stroke-width="0.106" x1="57.694" y1="39.07" x2="51.286" y2="39.07"/>
  <polyline stroke-width="0.106" points="37.646 39.07 34.591 39.07 34.591 22.643"/>
  <line stroke-width="0.106" x1="13.417" y1="22.643" x2="5.285" y2="22.643"/>
  <line stroke-width="0.106" x1="1.459" y1="35.685" x2="11.204" y2="35.685"/>
  <line stroke-width="0.106" x1="15.88" y1="35.685" x2="16.826" y2="35.685"/>
  <line stroke-width="0.106" x1="26.734" y1="35.685" x2="37.646" y2="35.685"/>
  <line stroke-width="0.106" x1="76.54" y1="39.07" x2="76.54" y2="34.405"/>
  <line stroke-width="0.106" x1="76.54" y1="26.864" x2="76.54" y2="22.449"/>
  <line stroke-width="0.106" x1="74.638" y1="26.864" x2="74.638" y2="29.138"/>
  <polyline stroke-width="0.106" points="74.638 32.165 74.638 34.405 78.373 34.405 78.373 32.241"/>
  <polyline stroke-width="0.106" points="78.373 29.097 78.373 26.864 74.638 26.864"/>
  <line stroke-width="0.106" x1="102.819" y1="35.616" x2="99.965" y2="35.616"/>
  <line stroke-width="0.106" x1="96.569" y1="37.384" x2="96.569" y2="41.256"/>
  <path stroke-width="0.106" fill="#FFFFFF" d="M10.4 3.072C10.4 2.791 10.173 2.562 9.891 2.562 9.609 2.562 9.381 2.791 9.381 3.072 9.381 3.354 9.609 3.583 9.891 3.583 10.173 3.583 10.4 3.354 10.4 3.072 10.4 3.072 10.4 3.072 10.4 3.072L10.4 3.072z"/>
  <path stroke-width="0.106" fill="#FFFFFF" d="M15.076 3.072C15.076 2.791 14.849 2.562 14.567 2.562 14.285 2.562 14.057 2.791 14.057 3.072 14.057 3.354 14.285 3.583 14.567 3.583 14.849 3.583 15.076 3.354 15.076 3.072 15.076 3.072 15.076 3.072 15.076 3.072L15.076 3.072z"/>
  <path stroke-width="0.106" fill="#FFFFFF" d="M93.849 35.719C93.849 35.424 93.611 35.185 93.316 35.185 93.021 35.185 92.781 35.424 92.781 35.719 92.781 36.014 93.021 36.253 93.316 36.253 93.611 36.253 93.849 36.014 93.849 35.719 93.849 35.719 93.849 35.719 93.849 35.719L93.849 35.719z"/>
  <path stroke-width="0.106" fill="#FFFFFF" d="M100.474 35.616C100.474 35.335 100.246 35.107 99.965 35.107 99.683 35.107 99.456 35.335 99.456 35.616 99.456 35.899 99.683 36.127 99.965 36.127 100.246 36.127 100.474 35.899 100.474 35.616 100.474 35.616 100.474 35.616 100.474 35.616L100.474 35.616z"/>
  <path stroke-width="0.106" fill="#FFFFFF" d="M94.096 39.07C94.096 38.789 93.867 38.561 93.587 38.561 93.305 38.561 93.076 38.789 93.076 39.07 93.076 39.351 93.305 39.579 93.587 39.579 93.867 39.579 94.096 39.351 94.096 39.07 94.096 39.07 94.096 39.07 94.096 39.07L94.096 39.07z"/>
  <path stroke-width="0.106" fill="#FFFFFF" d="M109.599 35.604C109.599 35.323 109.371 35.094 109.09 35.094 108.808 35.094 108.581 35.323 108.581 35.604 108.581 35.886 108.808 36.113 109.09 36.113 109.371 36.113 109.599 35.886 109.599 35.604 109.599 35.604 109.599 35.604 109.599 35.604L109.599 35.604z"/>
  <path stroke-width="0.106" fill="#FFFFFF" d="M76.959 17.646C76.959 17.365 76.73 17.138 76.448 17.138 76.168 17.138 75.939 17.365 75.939 17.646 75.939 17.928 76.168 18.157 76.448 18.157 76.73 18.157 76.959 17.928 76.959 17.646 76.959 17.646 76.959 17.646 76.959 17.646L76.959 17.646z"/>
  <path stroke-width="0.106" fill="#FFFFFF" d="M76.959 22.469C76.959 22.187 76.73 21.96 76.448 21.96 76.168 21.96 75.939 22.187 75.939 22.469 75.939 22.751 76.168 22.978 76.448 22.978 76.73 22.978 76.959 22.751 76.959 22.469 76.959 22.469 76.959 22.469 76.959 22.469L76.959 22.469z"/>
  <path stroke-width="0.106" fill="#FFFFFF" d="M11.205 35.698C11.205 35.417 10.975 35.189 10.695 35.189 10.413 35.189 10.185 35.417 10.185 35.698 10.185 35.979 10.413 36.209 10.695 36.209 10.975 36.209 11.205 35.979 11.205 35.698 11.205 35.698 11.205 35.698 11.205 35.698L11.205 35.698z"/>
  <path stroke-width="0.106" fill="#FFFFFF" d="M15.881 35.698C15.881 35.417 15.651 35.189 15.371 35.189 15.089 35.189 14.861 35.417 14.861 35.698 14.861 35.979 15.089 36.209 15.371 36.209 15.651 36.209 15.881 35.979 15.881 35.698 15.881 35.698 15.881 35.698 15.881 35.698L15.881 35.698z"/>
  <path stroke-width="0.106" fill="#FFFFFF" d="M18.24 22.672C18.24 22.39 18.013 22.163 17.731 22.163 17.449 22.163 17.222 22.39 17.222 22.672 17.222 22.954 17.449 23.181 17.731 23.181 18.013 23.181 18.24 22.954 18.24 22.672 18.24 22.672 18.24 22.672 18.24 22.672L18.24 22.672z"/>
  <path stroke-width="0.106" fill="#FFFFFF" d="M13.419 22.672C13.419 22.39 13.191 22.163 12.91 22.163 12.628 22.163 12.4 22.39 12.4 22.672 12.4 22.954 12.628 23.181 12.91 23.181 13.191 23.181 13.419 22.954 13.419 22.672 13.419 22.672 13.419 22.672 13.419 22.672L13.419 22.672z"/>
  <polygon stroke-width="0.106" points="76.885 29.097 80.006 29.097 78.373 32.243 76.885 29.097"/>
  <polygon stroke-width="0.106" points="76.186 32.165 73.067 32.165 74.7 29.018 76.186 32.165"/>
  <line stroke-width="0.106" x1="72.962" y1="29.123" x2="76.18" y2="29.123"/>
  <line stroke-width="0.106" x1="73.073" y1="27.576" x2="73.832" y2="29.123"/>
  <line stroke-width="0.106" x1="76.98" y1="32.241" x2="80.085" y2="32.241"/>
  <line stroke-width="0.106" x1="80.003" y1="33.926" x2="79.243" y2="32.241"/>
  <line stroke-width="0.106" x1="93.998" y1="38.768" x2="99.493" y2="35.808"/>
  <polyline stroke-width="0.106" points="95.079 42.115 95.079 41.273 98.24 41.273 98.24 40.39"/>
  <line stroke-width="0.106" x1="14.662" y1="34.158" x2="11.173" y2="35.408"/>
  <line stroke-width="0.106" x1="17.178" y1="21.077" x2="13.339" y2="22.397"/>
  <line stroke-width="0.106" x1="1.482" y1="21.783" x2="1.482" y2="23.219"/>
  <line stroke-width="0.106" x1="2.217" y1="20.797" x2="2.217" y2="24.26"/>
  <line stroke-width="0.106" x1="4.621" y1="21.765" x2="4.621" y2="23.344"/>
  <line stroke-width="0.106" x1="4.621" y1="22.556" x2="2.217" y2="22.556"/>
  <line stroke-width="0.106" x1="5.339" y1="20.85" x2="5.339" y2="24.224"/>
  <line stroke-width="0.106" x1="13.975" y1="1.694" x2="10.461" y2="2.937"/>
  <line stroke-width="0.106" x1="102.819" y1="35.616" x2="108.581" y2="35.616"/>
  <line stroke-width="0.106" x1="74.95" y1="18.361" x2="76.286" y2="21.986"/>
  <line stroke-width="0.106" x1="34.591" y1="22.643" x2="18.24" y2="22.643"/>
  <line stroke-width="0.106" x1="9.381" y1="3.072" x2="0.376" y2="3.072"/>
  <line stroke-width="0.106" x1="87.105" y1="3.072" x2="26.474" y2="3.072"/>
  <g>
   <polygon stroke-width="0.106" stroke-linejoin="round" stroke-miterlimit="10" points="37.646 61.6 51.286 61.6 51.286 48.768 37.646 48.768 37.646 61.6"/>
   <line stroke-width="0.106" stroke-linejoin="round" stroke-miterlimit="10" x1="51.286" y1="48.768" x2="37.646" y2="61.6"/>
   <line stroke-width="0.106" x1="39.003" y1="52.865" x2="44.317" y2="52.865"/>
   <g>
    <path stroke-width="0.106" stroke-linejoin="round" stroke-miterlimit="10" d="M39.003 50.738C39.759 51.962 40.981 51.962 41.737 50.738"/>
    <path stroke-width="0.106" stroke-linejoin="round" stroke-miterlimit="10" d="M41.737 50.738C42.491 49.54 43.716 49.54 44.47 50.738"/>
   </g>
   <g>
    <path stroke-width="0.106" stroke-linejoin="round" stroke-miterlimit="10" d="M44.642 59.703C45.396 60.926 46.619 60.926 47.375 59.703"/>
    <path stroke-width="0.106" stroke-linejoin="round" stroke-miterlimit="10" d="M47.375 59.703C48.13 58.506 49.353 58.506 50.107 59.703"/>
   </g>
  </g>
  <polyline stroke-width="0.106" points="29.754 35.685 29.754 51.731 37.646 51.731"/>
  <polyline stroke-width="0.106" points="34.591 39.07 34.591 56.64 37.646 56.64"/>
  <g>
   <polygon stroke-width="0.106" stroke-linejoin="round" stroke-miterlimit="10" points="37.646 77.9 51.286 77.9 51.286 65.066 37.646 65.066 37.646 77.9"/>
   <line stroke-width="0.106" stroke-linejoin="round" stroke-miterlimit="10" x1="51.286" y1="65.066" x2="37.646" y2="77.9"/>
   <line stroke-width="0.106" x1="39.003" y1="69.164" x2="44.317" y2="69.164"/>
   <g>
    <path stroke-width="0.106" stroke-linejoin="round" stroke-miterlimit="10" d="M39.003 67.039C39.759 68.262 40.981 68.262 41.737 67.039"/>
    <path stroke-width="0.106" stroke-linejoin="round" stroke-miterlimit="10" d="M41.737 67.039C42.491 65.84 43.716 65.84 44.47 67.039"/>
   </g>
   <g>
    <path stroke-width="0.106" stroke-linejoin="round" stroke-miterlimit="10" d="M44.642 76.003C45.396 77.227 46.619 77.227 47.375 76.003"/>
    <path stroke-width="0.106" stroke-linejoin="round" stroke-miterlimit="10" d="M47.375 76.003C48.13 74.805 49.353 74.805 50.107 76.003"/>
   </g>
  </g>
  <g>
   <polygon stroke-width="0.106" stroke-linejoin="round" stroke-miterlimit="10" points="37.646 94.2 51.286 94.2 51.286 81.367 37.646 81.367 37.646 94.2"/>
   <line stroke-width="0.106" stroke-linejoin="round" stroke-miterlimit="10" x1="51.286" y1="81.367" x2="37.646" y2="94.2"/>
   <line stroke-width="0.106" x1="39.003" y1="85.463" x2="44.317" y2="85.463"/>
   <g>
    <path stroke-width="0.106" stroke-linejoin="round" stroke-miterlimit="10" d="M39.003 83.338C39.759 84.561 40.981 84.561 41.737 83.338"/>
    <path stroke-width="0.106" stroke-linejoin="round" stroke-miterlimit="10" d="M41.737 83.338C42.491 82.141 43.716 82.141 44.47 83.338"/>
   </g>
   <g>
    <path stroke-width="0.106" stroke-linejoin="round" stroke-miterlimit="10" d="M44.642 92.302C45.396 93.527 46.619 93.527 47.375 92.302"/>
    <path stroke-width="0.106" stroke-linejoin="round" stroke-miterlimit="10" d="M47.375 92.302C48.13 91.105 49.353 91.105 50.107 92.302"/>
   </g>
  </g>
  <polyline stroke-width="0.106" points="34.591 56.64 34.591 72.903 37.646 72.903"/>
  <polyline stroke-width="0.106" points="34.591 72.903 34.591 89.263 37.646 89.263"/>
  <polyline stroke-width="0.106" points="29.754 51.731 29.754 68.25 37.646 68.25"/>
  <polyline stroke-width="0.106" points="29.754 68.25 29.754 83.801 37.646 83.801"/>
  <polyline stroke-width="0.106" points="51.286 88.897 55.179 88.897 55.179 39.07"/>
  <line stroke-width="0.106" x1="51.286" y1="56.058" x2="55.179" y2="56.058"/>
  <line stroke-width="0.106" x1="51.286" y1="72.37" x2="55.179" y2="72.37"/>
  <line stroke-width="0.106" x1="76.49" y1="17.103" x2="76.49" y2="3.072"/>
  <line stroke-width="0.106" x1="87.105" y1="35.719" x2="87.105" y2="3.072"/>
  <line stroke-width="0.106" x1="91.349" y1="47.756" x2="91.349" y2="33.725"/>
  <line stroke-width="0.106" x1="101.506" y1="47.756" x2="101.506" y2="33.725"/>
  <line stroke-width="0.106" x1="91.349" y1="33.725" x2="101.506" y2="33.725"/>
  <line stroke-width="0.106" x1="91.349" y1="47.756" x2="101.506" y2="47.756"/>
  <line stroke-width="0.106" x1="92.781" y1="35.719" x2="87.105" y2="35.719"/>
 </g>
 <g id="120mm_x0020_hidden_x0020_Schneider_x0020_layer_x0020_for_x0020_editor">
  <polygon stroke="none" points="0 86.417 0 95.417 120 95.417 120 86.417 0 86.417"/>
 </g>
 <g id="cutout_x0020_layer">
 </g>
 <g id="outline_x0020_layer">
 </g>
 <g id="zoom_x0020_layer">
 </g>
 <g id="arrow_x0020_layer">
 </g>
 <g id="_x0020_cable_x0020_layer">
 </g>
 <g id="symbol_x0020_layer">
 </g>
 <g id="_x0020_text_x0020_layer">
 </g>
 <g id="text-_x0020_DO_x0020_NOT_x0020_translate">
  <text x="93.772" y="45.874" stroke="none" fill="#000000" font-family="'Arial'" font-size="2.278">Q601</text>
  <text x="66.769" y="21.182" stroke="none" fill="#000000" font-family="'Arial'" font-size="2.278">Q528</text>
  <text x="9.974" y="7.035" stroke="none" fill="#000000" font-family="'Arial'" font-size="2.278">Q501</text>
  <text x="13.035" y="19.905" stroke="none" fill="#000000" font-family="'Arial'" font-size="2.278">Q201</text>
  <text x="10.742" y="32.737" stroke="none" fill="#000000" font-family="'Arial'" font-size="2.278">Q001</text>
 </g>
 <g id="_x0020_callout_x0020_layer">
 </g>
</svg>
