<?xml version="1.0" encoding="UTF-8"?>
<!-- Generator: PTC Arbortext IsoDraw 7.4 M001 -->
<svg xmlns="http://www.w3.org/2000/svg" xmlns:xlink="http://www.w3.org/1999/xlink" width="120mm" height="118.757mm" viewBox="0 0 120 118.757" fill-rule="evenodd" clip-rule="evenodd" stroke="#000000" stroke-linecap="round" fill="none" xml:space="preserve" preserveAspectRatio="xMidYMid meet" zoomAndPan="magnify" version="1.1" contentScriptType="text/ecmascript" contentStyleType="text/css">
 <g id="Standard_x0020_layer">
  <g id="AUTOID_103153">
   <desc>Set</desc>
   <g id="pxc_battery_mccb_box">
    <desc>pxc_battery_mccb_box</desc>
    <g id="870-96217.ASM">
     <desc>870-96217.ASM</desc>
     <g id="51140585-S_6X4X2_ASM01_1.PRT">
      <desc>51140585-S_6X4X2_ASM01_1.PRT</desc>
      <line stroke-width="0.106" x1="75.087" y1="116.737" x2="75.031" y2="116.566"/>
      <line stroke-width="0.106" x1="75.477" y1="5.309" x2="75.477" y2="116.79"/>
      <line stroke-width="0.106" x1="75.201" y1="5.477" x2="75.031" y2="5.533"/>
      <line stroke-width="0.106" x1="1.082" y1="5.086" x2="75.254" y2="5.086"/>
      <line stroke-width="0.106" x1="1.25" y1="5.362" x2="1.306" y2="5.533"/>
      <line stroke-width="0.106" x1="0.859" y1="116.79" x2="0.859" y2="5.309"/>
      <line stroke-width="0.106" x1="1.136" y1="116.621" x2="1.306" y2="116.566"/>
      <line stroke-width="0.106" x1="75.254" y1="117.013" x2="1.082" y2="117.013"/>
      <line stroke-width="0.106" x1="71.614" y1="8.949" x2="71.614" y2="10.108"/>
      <line stroke-width="0.106" x1="70.456" y1="8.949" x2="71.614" y2="8.949"/>
      <line stroke-width="0.106" x1="71.614" y1="111.99" x2="71.614" y2="113.15"/>
      <line stroke-width="0.106" x1="70.456" y1="113.15" x2="71.614" y2="113.15"/>
      <line stroke-width="0.106" x1="72.2" y1="8.727" x2="72.2" y2="9.65"/>
      <line stroke-width="0.106" x1="72.2" y1="112.447" x2="72.2" y2="113.371"/>
      <line stroke-width="0.106" x1="1.306" y1="5.533" x2="1.306" y2="116.566"/>
      <line stroke-width="0.106" x1="75.031" y1="116.566" x2="1.306" y2="116.566"/>
      <line stroke-width="0.106" x1="75.031" y1="5.533" x2="75.031" y2="116.566"/>
      <line stroke-width="0.106" x1="1.306" y1="5.533" x2="75.031" y2="5.533"/>
      <line stroke-width="0.106" x1="4.724" y1="111.99" x2="4.724" y2="113.15"/>
      <line stroke-width="0.106" x1="5.881" y1="113.15" x2="4.724" y2="113.15"/>
      <line stroke-width="0.106" x1="5.45" y1="113.736" x2="4.477" y2="113.736"/>
      <line stroke-width="0.106" x1="71.861" y1="113.736" x2="70.888" y2="113.736"/>
      <line stroke-width="0.106" x1="5.45" y1="8.364" x2="4.477" y2="8.364"/>
      <line stroke-width="0.106" x1="71.861" y1="8.364" x2="70.888" y2="8.364"/>
      <line stroke-width="0.106" x1="5.881" y1="8.949" x2="4.724" y2="8.949"/>
      <line stroke-width="0.106" x1="4.724" y1="10.108" x2="4.724" y2="8.949"/>
      <line stroke-width="0.106" x1="4.137" y1="112.447" x2="4.137" y2="113.371"/>
      <line stroke-width="0.106" x1="4.137" y1="8.727" x2="4.137" y2="9.65"/>
      <path stroke-width="0.106" d="M75.254 117.013L75.254 116.79C75.242 116.68 75.108 116.617 75.031 116.566"/>
      <path stroke-width="0.106" d="M75.477 116.79L75.254 116.79L75.18 116.76C75.123 116.718 75.066 116.62 75.031 116.566"/>
      <path stroke-width="0.106" d="M75.031 5.533C75.081 5.456 75.144 5.32 75.254 5.309L75.477 5.309"/>
      <path stroke-width="0.106" d="M75.254 5.086L75.254 5.309C75.242 5.418 75.108 5.482 75.031 5.533"/>
      <path stroke-width="0.106" d="M1.306 5.533C1.229 5.482 1.094 5.418 1.082 5.309L1.082 5.086"/>
      <path stroke-width="0.106" d="M0.859 5.309L1.082 5.309C1.193 5.32 1.256 5.456 1.306 5.533"/>
      <path stroke-width="0.106" d="M1.306 116.566C1.27 116.62 1.213 116.718 1.157 116.76L1.082 116.79L0.859 116.79"/>
      <path stroke-width="0.106" d="M1.082 117.013L1.082 116.79C1.094 116.68 1.229 116.617 1.306 116.566"/>
      <path stroke-width="0.106" d="M75.254 117.013L75.197 116.98C75.149 116.921 75.111 116.801 75.087 116.737"/>
      <path stroke-width="0.106" d="M1.136 116.621C1.072 116.647 0.951 116.685 0.893 116.733L0.859 116.79"/>
      <path stroke-width="0.106" d="M1.25 5.362C1.227 5.298 1.189 5.177 1.139 5.12L1.082 5.086"/>
      <path stroke-width="0.106" d="M75.477 5.309L75.444 5.365C75.385 5.415 75.265 5.453 75.201 5.477"/>
      <path stroke-width="0.106" d="M71.537 10.135L71.849 10.023L72.105 9.811L72.275 9.521L72.305 9.355L72.334 9.189L72.305 9.025L72.275 8.859L72.192 8.714C72.079 8.519 72.102 8.521 71.856 8.359L71.7 8.301L71.545 8.243L71.21 8.243L70.897 8.355L70.641 8.567L70.472 8.858L70.442 9.023L70.412 9.189L70.442 9.355L70.471 9.519L70.555 9.663C70.668 9.859 70.646 9.858 70.891 10.019L71.048 10.077L71.203 10.134L71.537 10.135z"/>
      <path stroke-width="0.106" d="M75.477 116.79L75.444 116.733C75.337 116.641 75.159 116.608 75.031 116.566"/>
      <path stroke-width="0.106" d="M4.801 8.243L5.134 8.243L5.29 8.301L5.445 8.359C5.69 8.521 5.669 8.519 5.782 8.714L5.865 8.859L5.894 9.025L5.924 9.189L5.894 9.355L5.865 9.521L5.695 9.811L5.44 10.023L5.125 10.135L4.793 10.134L4.637 10.077L4.48 10.019C4.235 9.858 4.258 9.859 4.144 9.663L4.06 9.519L4.032 9.355L4.003 9.189L4.032 9.023L4.062 8.858L4.23 8.567L4.487 8.355L4.801 8.243z"/>
      <path stroke-width="0.106" d="M4.801 111.962L5.134 111.963L5.29 112.022L5.445 112.078C5.69 112.24 5.669 112.239 5.782 112.436L5.865 112.579L5.894 112.745L5.924 112.909L5.894 113.075L5.865 113.24L5.695 113.531L5.44 113.743L5.126 113.856L4.793 113.855L4.637 113.798L4.48 113.739C4.235 113.578 4.258 113.579 4.144 113.384L4.06 113.239L4.032 113.075L4.003 112.909L4.032 112.743L4.062 112.578L4.23 112.287L4.487 112.075L4.801 111.962z"/>
      <path stroke-width="0.106" d="M71.203 113.855L71.537 113.856L71.849 113.743L72.105 113.531L72.191 113.387L72.275 113.24L72.305 113.075L72.334 112.909L72.305 112.745L72.275 112.579L72.192 112.436C72.079 112.239 72.102 112.24 71.856 112.078L71.7 112.022L71.545 111.963L71.21 111.962L70.897 112.075L70.641 112.287L70.557 112.433L70.472 112.578L70.442 112.743L70.412 112.909L70.471 113.239L70.555 113.384L70.638 113.528L70.891 113.739L71.203 113.855z"/>
      <path stroke-width="0.106" d="M75.254 5.086L75.197 5.12C75.106 5.227 75.072 5.403 75.031 5.533"/>
      <path stroke-width="0.106" d="M1.306 116.566C1.265 116.694 1.231 116.871 1.139 116.98L1.082 117.013"/>
      <path stroke-width="0.106" d="M1.306 5.533C1.177 5.49 1 5.456 0.893 5.365L0.859 5.309"/>
     </g>
    </g>
   </g>
  </g>
 </g>
 <g id="120mm_x0020_hidden_x0020_Schneider_x0020_layer_x0020_for_x0020_editor">
  <polygon stroke="none" points="0 109.757 0 118.757 120 118.757 120 109.757 0 109.757"/>
 </g>
 <g id="cutout_x0020_layer">
 </g>
 <g id="outline_x0020_layer">
  <polyline stroke-width="0.353" points="1.046 5.048 16.594 5.048 28.588 5.048 41.372 5.048 54.447 5.048 64.658 5.048 75.265 5.048 75.265 5.272 75.489 5.272 75.489 7.695 75.489 15.871 75.489 23.073 75.489 32.183 75.489 41.231 75.489 51.567 75.489 61.048 75.489 70.7 75.489 81.409 75.489 90.935 75.489 97.036 75.489 106.105 75.489 116.823"/>
  <polyline stroke-width="0.353" points="75.489 116.823 75.265 116.823 75.265 117.048 70.459 117.048 61.63 117.048 52.222 117.048 45.493 117.048 37.168 117.048 27.847 117.048 20.295 117.048 10.029 117.048 1.046 117.048 1.046 116.823 0.822 116.823 0.822 113.602 0.822 108.088 0.822 102.182 0.822 96.656 0.822 90.775 0.822 86.316 0.822 79.734 0.822 73.055 0.822 67.664 0.822 61.893 0.822 55.838 0.822 50.226 0.822 44.295 0.822 38.426 0.822 32.667 0.822 26.687 0.822 19.87 0.822 13.13 0.822 7.272 0.822 5.272 1.046 5.272 1.046 5.048"/>
 </g>
 <g id="zoom_x0020_layer">
 </g>
 <g id="arrow_x0020_layer">
  <polygon stroke="none" fill="#000000" points="70.933 9.689 72.715 8.478 72.194 7.942"/>
  <path stroke-width="0.106" d="M72.302 8.359L77.989 2.834L85.215 2.834"/>
 </g>
 <g id="_x0020_cable_x0020_layer">
 </g>
 <g id="symbol_x0020_layer">
 </g>
 <g id="_x0020_text_x0020_layer">
 </g>
 <g id="text-_x0020_DO_x0020_NOT_x0020_translate">
  <text x="77.888" y="2.468" stroke="none" fill="#000000" font-family="'Arial'" font-size="3.528">M8</text>
  <text x="77.888" y="6.078" stroke="none" fill="#000000" font-family="'Arial'" font-size="3.528">ø10</text>
  <g>
   <line stroke-width="0.106" x1="5.032" y1="1.906" x2="5.032" y2="9.631"/>
   <line stroke-width="0.106" x1="71.278" y1="1.784" x2="71.278" y2="9.438"/>
   <polygon stroke="none" fill="#000000" points="5.275 2.5 7.394 2.874 7.394 2.126"/>
   <line stroke-width="0.106" x1="30.022" y1="2.5" x2="7.182" y2="2.5"/>
   <polygon stroke="none" fill="#000000" points="71.281 2.5 69.162 2.126 69.162 2.874"/>
   <line stroke-width="0.106" x1="46.39" y1="2.5" x2="69.373" y2="2.5"/>
   <text x="31.835" y="3.029" stroke="none" fill="#000000" font-family="'Arial'" font-size="3.528">356 mm</text>
  </g>
  <g>
   <line stroke-width="0.106" x1="71.24" y1="112.817" x2="81.43" y2="112.817"/>
   <line stroke-width="0.106" x1="71.278" y1="9.438" x2="81.43" y2="9.438"/>
   <polygon stroke="none" fill="#000000" points="79.43 112.817 79.804 110.697 79.055 110.697"/>
   <line stroke-width="0.106" x1="79.43" y1="69.691" x2="79.43" y2="110.909"/>
   <polygon stroke="none" fill="#000000" points="79.43 9.707 79.055 11.827 79.804 11.827"/>
   <line stroke-width="0.106" x1="79.43" y1="53.32" x2="79.43" y2="11.615"/>
   <text transform="matrix(0 -1 1 0 79.959 67.878)" stroke="none" fill="#000000" font-family="'Arial'" font-size="3.528">556 mm</text>
  </g>
 </g>
 <g id="_x0020_callout_x0020_layer">
 </g>
</svg>
