<?xml version="1.0" encoding="UTF-8"?>
<!-- Generator: PTC Arbortext IsoDraw 7.4 M001 -->
<svg xmlns="http://www.w3.org/2000/svg" xmlns:xlink="http://www.w3.org/1999/xlink" width="120mm" height="43.476mm" viewBox="0 0 120 43.476" fill-rule="evenodd" clip-rule="evenodd" stroke="#000000" stroke-linecap="round" fill="none" xml:space="preserve" preserveAspectRatio="xMidYMid meet" zoomAndPan="magnify" version="1.1" contentScriptType="text/ecmascript" contentStyleType="text/css">
 <g id="_x0020_fill_x0020_layer">
 </g>
 <g id="Standard_x0020_layer">
  <line stroke-width="0.353" x1="4.827" y1="12.304" x2="4.827" y2="38.816"/>
  <line stroke-width="0.353" stroke-dasharray="5 1 1 1" x1="4.827" y1="12.304" x2="38.973" y2="12.304"/>
  <line stroke-width="0.353" x1="38.973" y1="12.304" x2="39.973" y2="12.304"/>
  <line stroke-width="0.353" stroke-dasharray="5 1 1 1" x1="4.827" y1="38.816" x2="38.973" y2="38.816"/>
  <line stroke-width="0.353" x1="38.973" y1="38.816" x2="39.973" y2="38.816"/>
  <g>
   <path stroke-width="0.2" d="M34.106 28.48C34.106 27.527 33.332 26.754 32.381 26.754C31.428 26.754 30.655 27.527 30.655 28.48C30.655 29.431 31.428 30.204 32.381 30.204C33.332 30.204 34.106 29.431 34.106 28.48"/>
  </g>
  <polygon stroke-width="0.2" points="30.878 21.765 30.878 24.771 33.884 24.771 33.884 21.765 30.878 21.765"/>
  <polygon stroke-width="0.2" points="25.836 19.993 25.836 32.076 36.591 32.076 36.591 19.993 25.836 19.993"/>
  <polygon stroke-width="0.2" points="1.48 5.296 1.48 42.371 44.521 42.371 44.521 5.296 1.48 5.296"/>
  <line stroke-width="0.353" x1="39.973" y1="12.304" x2="39.973" y2="38.816"/>
  <line stroke-width="0.353" x1="59.064" y1="12.308" x2="59.064" y2="38.82"/>
  <line stroke-width="0.353" stroke-dasharray="5 1 1 1" x1="59.064" y1="12.308" x2="93.21" y2="12.308"/>
  <line stroke-width="0.353" x1="93.21" y1="12.308" x2="94.21" y2="12.308"/>
  <line stroke-width="0.353" stroke-dasharray="5 1 1 1" x1="59.064" y1="38.82" x2="93.21" y2="38.82"/>
  <line stroke-width="0.353" x1="93.21" y1="38.82" x2="94.21" y2="38.82"/>
  <g>
   <path stroke-width="0.2" d="M67.606 28.48C67.606 27.527 66.834 26.754 65.882 26.754C64.93 26.754 64.158 27.527 64.158 28.48C64.158 29.431 64.93 30.204 65.882 30.204C66.834 30.204 67.606 29.431 67.606 28.48"/>
  </g>
  <polygon stroke-width="0.2" points="64.379 21.765 64.379 24.771 67.385 24.771 67.385 21.765 64.379 21.765"/>
  <polygon stroke-width="0.2" points="63.22 20.202 63.22 32.284 73.975 32.284 73.975 20.202 63.22 20.202"/>
  <polygon stroke-width="0.2" points="55.718 5.299 55.718 42.375 98.759 42.375 98.759 5.299 55.718 5.299"/>
  <line stroke-width="0.353" x1="94.21" y1="12.308" x2="94.21" y2="38.82"/>
 </g>
 <g id="120mm_x0020_hidden_x0020_Schneider_x0020_layer_x0020_for_x0020_editor">
  <polygon stroke="none" points="0 34.476 0 43.476 120 43.476 120 34.476 0 34.476"/>
 </g>
 <g id="cutout_x0020_layer">
 </g>
 <g id="outline_x0020_layer">
 </g>
 <g id="zoom_x0020_layer">
 </g>
 <g id="outline_x0020_on_x0020_zoom_x0020_layer">
 </g>
 <g id="arrow_x0020_layer">
 </g>
 <g id="_x0020_cable_x0020_layer">
  <line stroke-width="0.353" x1="32.381" y1="23.268" x2="65.882" y2="23.268"/>
  <line stroke-width="0.353" x1="32.381" y1="28.48" x2="65.882" y2="28.48"/>
 </g>
 <g id="symbol_x0020_layer">
 </g>
 <g id="text_x0020_layer">
  <text x="2.593" y="10.16" stroke="none" fill="#000000" font-family="'Arial'" font-size="4.232">Control terminal block </text>
  <text x="56.832" y="10.16" stroke="none" fill="#000000" font-family="'Arial'" font-size="4.232">Control terminal block </text>
  <text x="4.57" y="3.174" stroke="none" fill="#000000" font-family="'Arial'" font-size="4.232">Battery breaker box</text>
  <text x="72.971" y="3.174" stroke="none" fill="#000000" font-family="'Arial'" font-size="4.232">UPS</text>
 </g>
 <g id="text-_x0020_DO_x0020_NOT_x0020_translate">
  <g>
   <text x="10.07" y="25.263" stroke="none" fill="#000000" font-family="'Arial'" font-size="4.232">BBB</text>
   <text x="10.07" y="29.849" stroke="none" fill="#000000" font-family="'Arial'" font-size="4.232">AUX</text>
  </g>
  <text x="27.385" y="24.704" stroke="none" fill="#000000" font-family="'Arial'" font-size="4.232">1</text>
  <text x="27.385" y="29.873" stroke="none" fill="#000000" font-family="'Arial'" font-size="4.232">2</text>
  <text x="26.285" y="18.134" stroke="none" fill="#000000" font-family="'Arial'" font-size="4.232">X020</text>
  <g>
   <text x="81.466" y="25.263" stroke="none" fill="#000000" font-family="'Arial'" font-size="4.232">BB1</text>
   <text x="81.466" y="29.849" stroke="none" fill="#000000" font-family="'Arial'" font-size="4.232">AUX</text>
  </g>
  <text x="69.263" y="24.811" stroke="none" fill="#000000" font-family="'Arial'" font-size="4.232">1</text>
  <text x="69.263" y="29.978" stroke="none" fill="#000000" font-family="'Arial'" font-size="4.232">2</text>
  <text x="63.668" y="18.134" stroke="none" fill="#000000" font-family="'Arial'" font-size="4.232">X010</text>
 </g>
 <g id="callout_x0020_layer">
 </g>
</svg>
