<?xml version="1.0" encoding="UTF-8"?>
<!-- Generator: PTC Arbortext IsoDraw 7.4 M001 -->
<svg xmlns="http://www.w3.org/2000/svg" xmlns:xlink="http://www.w3.org/1999/xlink" width="120mm" height="72.644mm" viewBox="0 0 120 72.644" fill-rule="evenodd" clip-rule="evenodd" stroke="#000000" stroke-linecap="round" fill="none" xml:space="preserve" preserveAspectRatio="xMidYMid meet" zoomAndPan="magnify" version="1.1" contentScriptType="text/ecmascript" contentStyleType="text/css">
 <g id="_x0020_fill_x0020_layer">
 </g>
 <g id="Standard_x0020_layer">
  <polygon stroke-width="0.353" points="7.714 4.142 7.714 54.317 29.885 54.317 29.885 4.142 7.714 4.142"/>
  <polygon stroke-width="0.353" points="52.716 4.142 52.716 23.361 67.825 23.361 67.825 4.142 52.716 4.142"/>
  <polygon stroke-width="0.353" points="89.368 4.142 89.368 54.317 111.54 54.317 111.54 4.142 89.368 4.142"/>
 </g>
 <g id="120mm_x0020_hidden_x0020_Schneider_x0020_layer_x0020_for_x0020_editor">
  <polygon stroke="none" points="0 62.768 0 71.768 120 71.768 120 62.768 0 62.768"/>
 </g>
 <g id="cutout_x0020_layer">
 </g>
 <g id="outline_x0020_layer">
 </g>
 <g id="zoom_x0020_layer">
 </g>
 <g id="outline_x0020_on_x0020_zoom_x0020_layer">
 </g>
 <g id="arrow_x0020_layer">
 </g>
 <g id="_x0020_cable_x0020_layer">
  <g>
   <path stroke="#FFFFFF" stroke-width="2" d="M59.125 24.998L59.125 59.615L17.696 59.615L17.696 55.96"/>
   <polyline stroke-width="0.7" points="59.125 23.647 59.125 59.615 17.696 59.615 17.696 54.61"/>
  </g>
  <g>
   <path stroke="#FFFFFF" stroke-width="2" d="M62.503 25.001L62.503 59.615L103.932 59.615L103.932 56.012"/>
   <polyline stroke-width="0.7" points="62.503 23.652 62.503 59.615 103.932 59.615 103.932 54.661"/>
  </g>
  <g>
   <path stroke="#FFFFFF" stroke-width="0.6" d="M54.676 23.759L54.676 55.796L96.769 55.796L96.769 54.759"/>
   <polyline stroke="#01889C" stroke-width="0.5" points="54.676 23.759 54.676 55.796 96.769 55.796 96.769 54.759"/>
  </g>
  <g>
   <line stroke="#FFFFFF" stroke-width="2" x1="3.286" y1="65.194" x2="13.497" y2="65.194"/>
   <line stroke-width="0.7" x1="1.937" y1="65.194" x2="14.848" y2="65.194"/>
  </g>
  <g>
   <line stroke="#FFFFFF" stroke-width="1" x1="2.687" y1="69.894" x2="14.098" y2="69.894"/>
   <line stroke="#01889C" stroke-width="0.5" x1="1.937" y1="69.894" x2="14.848" y2="69.894"/>
  </g>
 </g>
 <g id="symbol_x0020_layer">
  <g id="AUTOID_3671">
   <desc>battery</desc>
   <g id="AUTOID_3672">
    <desc>Layer 1</desc>
    <path stroke-width="0.13" fill="#000000" d="M16.542 46.534L16.157 46.534 16.157 46.149C16.157 46.07 16.091 46.005 16.012 46.005L15.72 46.005C15.64 46.005 15.574 46.07 15.574 46.149L15.574 46.534 15.189 46.534C15.109 46.534 15.044 46.6 15.044 46.68L15.044 46.972C15.044 47.051 15.109 47.116 15.189 47.116L15.574 47.116 15.574 47.502C15.574 47.582 15.64 47.646 15.72 47.646L16.012 47.646C16.091 47.646 16.157 47.582 16.157 47.502L16.157 47.116 16.542 47.116C16.621 47.116 16.687 47.051 16.687 46.972L16.687 46.68C16.687 46.6 16.621 46.534 16.542 46.534z"/>
    <path stroke="none" fill="#000000" d="M16.542 46.534L16.157 46.534 16.157 46.149C16.157 46.07 16.091 46.005 16.012 46.005L15.72 46.005C15.64 46.005 15.574 46.07 15.574 46.149L15.574 46.534 15.189 46.534C15.109 46.534 15.044 46.6 15.044 46.68L15.044 46.972C15.044 47.051 15.109 47.116 15.189 47.116L15.574 47.116 15.574 47.502C15.574 47.582 15.64 47.646 15.72 47.646L16.012 47.646C16.091 47.646 16.157 47.582 16.157 47.502L16.157 47.116 16.542 47.116C16.621 47.116 16.687 47.051 16.687 46.972L16.687 46.68C16.687 46.6 16.621 46.534 16.542 46.534z"/>
    <path stroke-width="0.13" fill="#000000" d="M23.522 44.347L23.14 44.347C23.015 43.951 22.687 43.674 22.297 43.674L21.339 43.674C20.949 43.674 20.62 43.951 20.498 44.347L17.103 44.347C16.978 43.951 16.65 43.674 16.26 43.674L15.303 43.674C14.913 43.674 14.585 43.951 14.461 44.347L14.076 44.347C13.583 44.347 13.18 44.805 13.18 45.369L13.18 51.054C13.18 51.618 13.583 52.076 14.076 52.076L15.468 52.076C15.653 52.076 15.803 51.926 15.803 51.741 15.803 51.557 15.653 51.408 15.468 51.408L14.076 51.408C13.968 51.408 13.849 51.256 13.849 51.054L13.849 45.369C13.849 45.167 13.968 45.015 14.076 45.015L15.07 45.015 15.076 44.688C15.08 44.484 15.198 44.341 15.303 44.341L16.26 44.341C16.364 44.341 16.484 44.484 16.486 44.686L16.492 45.015 21.108 45.015 21.112 44.686C21.117 44.484 21.236 44.341 21.339 44.341L22.297 44.341C22.402 44.341 22.521 44.484 22.524 44.688L22.53 45.015 23.522 45.015C23.631 45.015 23.751 45.167 23.751 45.369L23.751 51.054C23.751 51.256 23.631 51.408 23.522 51.408L17.611 51.408C17.425 51.408 17.277 51.557 17.277 51.741 17.277 51.926 17.425 52.076 17.611 52.076L23.522 52.076C24.016 52.076 24.419 51.618 24.419 51.054L24.419 45.369C24.419 44.805 24.016 44.347 23.522 44.347z"/>
    <path stroke="none" fill="#000000" d="M23.522 44.347L23.14 44.347C23.015 43.951 22.687 43.674 22.297 43.674L21.339 43.674C20.949 43.674 20.62 43.951 20.498 44.347L17.103 44.347C16.978 43.951 16.65 43.674 16.26 43.674L15.303 43.674C14.913 43.674 14.585 43.951 14.461 44.347L14.076 44.347C13.583 44.347 13.18 44.805 13.18 45.369L13.18 51.054C13.18 51.618 13.583 52.076 14.076 52.076L15.468 52.076C15.653 52.076 15.803 51.926 15.803 51.741 15.803 51.557 15.653 51.408 15.468 51.408L14.076 51.408C13.968 51.408 13.849 51.256 13.849 51.054L13.849 45.369C13.849 45.167 13.968 45.015 14.076 45.015L15.07 45.015 15.076 44.688C15.08 44.484 15.198 44.341 15.303 44.341L16.26 44.341C16.364 44.341 16.484 44.484 16.486 44.686L16.492 45.015 21.108 45.015 21.112 44.686C21.117 44.484 21.236 44.341 21.339 44.341L22.297 44.341C22.402 44.341 22.521 44.484 22.524 44.688L22.53 45.015 23.522 45.015C23.631 45.015 23.751 45.167 23.751 45.369L23.751 51.054C23.751 51.256 23.631 51.408 23.522 51.408L17.611 51.408C17.425 51.408 17.277 51.557 17.277 51.741 17.277 51.926 17.425 52.076 17.611 52.076L23.522 52.076C24.016 52.076 24.419 51.618 24.419 51.054L24.419 45.369C24.419 44.805 24.016 44.347 23.522 44.347z"/>
    <path stroke-width="0.13" fill="#000000" d="M22.419 47.116C22.498 47.116 22.564 47.051 22.564 46.972L22.564 46.679C22.564 46.6 22.498 46.534 22.419 46.534L21.068 46.534C20.987 46.534 20.923 46.6 20.923 46.679L20.923 46.972C20.923 47.051 20.987 47.116 21.068 47.116L22.419 47.116z"/>
   </g>
  </g>
 </g>
 <g id="text_x0020_layer">
  <text x="44.801" y="2.468" stroke="none" fill="#000000" font-family="'Arial'" font-size="3.528">Battery breaker box</text>
  <text x="6.947" y="2.468" stroke="none" fill="#000000" font-family="'Arial'" font-size="3.528">Battery cabinet</text>
  <text x="95.894" y="2.468" stroke="none" fill="#000000" font-family="'Arial'" font-size="3.528">UPS</text>
  <text x="15.704" y="66.632" stroke="none" fill="#000000" font-family="'Arial'" font-size="3.174">Power cable</text>
  <text x="15.704" y="71.233" stroke="none" fill="#000000" font-family="'Arial'" font-size="3.174">Signal cable</text>
 </g>
 <g id="text-_x0020_DO_x0020_NOT_x0020_translate">
 </g>
 <g id="callout_x0020_layer">
 </g>
</svg>
