<?xml version="1.0" encoding="UTF-8"?>
<!-- Generator: PTC Arbortext IsoDraw 7.4 M001 -->
<svg xmlns="http://www.w3.org/2000/svg" xmlns:xlink="http://www.w3.org/1999/xlink" width="120mm" height="42.771mm" viewBox="0 0 120 42.771" fill-rule="evenodd" clip-rule="evenodd" stroke="#000000" stroke-linecap="round" fill="none" xml:space="preserve" preserveAspectRatio="xMidYMid meet" zoomAndPan="magnify" version="1.1" contentScriptType="text/ecmascript" contentStyleType="text/css">
 <g id="_x0020_fill_x0020_layer">
 </g>
 <g id="Standard_x0020_layer">
  <line stroke-width="0.353" x1="4.827" y1="11.599" x2="4.827" y2="38.11"/>
  <line stroke-width="0.353" stroke-dasharray="5 1 1 1" x1="4.827" y1="11.599" x2="38.973" y2="11.599"/>
  <line stroke-width="0.353" x1="38.973" y1="11.599" x2="39.973" y2="11.599"/>
  <line stroke-width="0.353" stroke-dasharray="5 1 1 1" x1="4.827" y1="38.11" x2="38.973" y2="38.11"/>
  <line stroke-width="0.353" x1="38.973" y1="38.11" x2="39.973" y2="38.11"/>
  <g>
   <path stroke-width="0.2" d="M34.106 27.774C34.106 26.821 33.332 26.05 32.381 26.05C31.428 26.05 30.655 26.821 30.655 27.774C30.655 28.727 31.428 29.498 32.381 29.498C33.332 29.498 34.106 28.727 34.106 27.774"/>
  </g>
  <polygon stroke-width="0.2" points="30.878 21.059 30.878 24.065 33.884 24.065 33.884 21.059 30.878 21.059"/>
  <polygon stroke-width="0.2" points="25.836 19.289 25.836 31.371 36.591 31.371 36.591 19.289 25.836 19.289"/>
  <polygon stroke-width="0.2" points="1.48 4.589 1.48 41.667 44.521 41.667 44.521 4.589 1.48 4.589"/>
  <line stroke-width="0.353" x1="39.973" y1="11.599" x2="39.973" y2="38.11"/>
  <line stroke-width="0.353" x1="59.064" y1="11.602" x2="59.064" y2="38.113"/>
  <line stroke-width="0.353" stroke-dasharray="5 1 1 1" x1="59.064" y1="11.602" x2="93.21" y2="11.602"/>
  <line stroke-width="0.353" x1="93.21" y1="11.602" x2="94.21" y2="11.602"/>
  <line stroke-width="0.353" stroke-dasharray="5 1 1 1" x1="59.064" y1="38.113" x2="93.21" y2="38.113"/>
  <line stroke-width="0.353" x1="93.21" y1="38.113" x2="94.21" y2="38.113"/>
  <g>
   <path stroke-width="0.2" d="M67.606 27.774C67.606 26.821 66.834 26.05 65.882 26.05C64.93 26.05 64.158 26.821 64.158 27.774C64.158 28.727 64.93 29.498 65.882 29.498C66.834 29.498 67.606 28.727 67.606 27.774"/>
  </g>
  <polygon stroke-width="0.2" points="64.379 21.059 64.379 24.065 67.385 24.065 67.385 21.059 64.379 21.059"/>
  <polygon stroke-width="0.2" points="63.22 19.495 63.22 31.579 73.975 31.579 73.975 19.495 63.22 19.495"/>
  <polygon stroke-width="0.2" points="55.718 4.594 55.718 41.67 98.759 41.67 98.759 4.594 55.718 4.594"/>
  <line stroke-width="0.353" x1="94.21" y1="11.602" x2="94.21" y2="38.113"/>
 </g>
 <g id="120mm_x0020_hidden_x0020_Schneider_x0020_layer_x0020_for_x0020_editor">
  <polygon stroke="none" points="0 33.771 0 42.771 120 42.771 120 33.771 0 33.771"/>
 </g>
 <g id="cutout_x0020_layer">
 </g>
 <g id="outline_x0020_layer">
 </g>
 <g id="zoom_x0020_layer">
 </g>
 <g id="outline_x0020_on_x0020_zoom_x0020_layer">
 </g>
 <g id="arrow_x0020_layer">
 </g>
 <g id="_x0020_cable_x0020_layer">
  <line stroke-width="0.353" x1="32.381" y1="22.562" x2="65.882" y2="22.562"/>
  <line stroke-width="0.353" x1="32.381" y1="27.774" x2="65.882" y2="27.774"/>
 </g>
 <g id="symbol_x0020_layer">
 </g>
 <g id="text_x0020_layer">
  <text x="5.594" y="9.455" stroke="none" fill="#000000" font-family="'Arial'" font-size="3.528">Control terminal block </text>
  <text x="59.832" y="9.455" stroke="none" fill="#000000" font-family="'Arial'" font-size="3.528">Control terminal block </text>
  <text x="7.258" y="2.468" stroke="none" fill="#000000" font-family="'Arial'" font-size="3.528">Main battery cabinet</text>
  <text x="67.573" y="2.468" stroke="none" fill="#000000" font-family="'Arial'" font-size="3.528">UPS cabinet</text>
 </g>
 <g id="text-_x0020_DO_x0020_NOT_x0020_translate">
  <g>
   <text x="10.07" y="24.556" stroke="none" fill="#000000" font-family="'Arial'" font-size="3.528">BBB</text>
   <text x="10.07" y="28.437" stroke="none" fill="#000000" font-family="'Arial'" font-size="3.528">AUX</text>
  </g>
  <text x="27.385" y="24" stroke="none" fill="#000000" font-family="'Arial'" font-size="3.528">1</text>
  <text x="27.385" y="29.167" stroke="none" fill="#000000" font-family="'Arial'" font-size="3.528">2</text>
  <text x="26.285" y="17.428" stroke="none" fill="#000000" font-family="'Arial'" font-size="3.528">X020</text>
  <g>
   <text x="81.466" y="24.556" stroke="none" fill="#000000" font-family="'Arial'" font-size="3.528">BB1</text>
   <text x="81.466" y="28.437" stroke="none" fill="#000000" font-family="'Arial'" font-size="3.528">AUX</text>
  </g>
  <text x="69.263" y="24.105" stroke="none" fill="#000000" font-family="'Arial'" font-size="3.528">1</text>
  <text x="69.263" y="29.274" stroke="none" fill="#000000" font-family="'Arial'" font-size="3.528">2</text>
  <text x="63.668" y="17.428" stroke="none" fill="#000000" font-family="'Arial'" font-size="3.528">X010</text>
 </g>
 <g id="callout_x0020_layer">
 </g>
</svg>
