<?xml version="1.0" encoding="UTF-8"?>
<!-- Generator: PTC Arbortext IsoDraw 7.4 M001 -->
<svg xmlns="http://www.w3.org/2000/svg" xmlns:xlink="http://www.w3.org/1999/xlink" width="120mm" height="26.881mm" viewBox="0 0 120 26.881" fill-rule="evenodd" clip-rule="evenodd" stroke="#000000" stroke-linecap="round" fill="none" xml:space="preserve" preserveAspectRatio="xMidYMid meet" zoomAndPan="magnify" version="1.1" contentScriptType="text/ecmascript" contentStyleType="text/css">
 <g id="_x0020_fill_x0020_layer">
 </g>
 <g id="Standard_x0020_layer">
  <g>
   <path stroke-width="0.2" d="M30.019 19.914C30.019 18.963 29.248 18.19 28.295 18.19C27.343 18.19 26.571 18.963 26.571 19.914C26.571 20.867 27.343 21.64 28.295 21.64C29.248 21.64 30.019 20.867 30.019 19.914"/>
  </g>
  <polygon stroke-width="0.2" points="26.792 13.199 26.792 16.205 29.798 16.205 29.798 13.199 26.792 13.199"/>
  <polygon stroke-width="0.2" points="21.751 11.429 21.751 23.512 32.506 23.512 32.506 11.429 21.751 11.429"/>
  <g>
   <path stroke-width="0.2" d="M63.521 19.914C63.521 18.963 62.75 18.19 61.796 18.19C60.844 18.19 60.073 18.963 60.073 19.914C60.073 20.867 60.844 21.64 61.796 21.64C62.75 21.64 63.521 20.867 63.521 19.914"/>
  </g>
  <polygon stroke-width="0.2" points="60.293 13.199 60.293 16.205 63.299 16.205 63.299 13.199 60.293 13.199"/>
  <polygon stroke-width="0.2" points="59.134 11.637 59.134 23.719 69.891 23.719 69.891 11.637 59.134 11.637"/>
  <polygon stroke-width="0.2" points="0.742 3.657 0.742 26.78 36.195 26.78 36.195 3.657 0.742 3.657"/>
  <polygon stroke-width="0.2" points="53.707 3.657 53.707 26.78 89.159 26.78 89.159 3.657 53.707 3.657"/>
 </g>
 <g id="120mm_x0020_hidden_x0020_Schneider_x0020_layer_x0020_for_x0020_editor">
  <polygon stroke="none" points="0 17.74 0 26.74 120 26.74 120 17.74 0 17.74"/>
 </g>
 <g id="cutout_x0020_layer">
 </g>
 <g id="outline_x0020_layer">
 </g>
 <g id="zoom_x0020_layer">
 </g>
 <g id="outline_x0020_on_x0020_zoom_x0020_layer">
 </g>
 <g id="arrow_x0020_layer">
 </g>
 <g id="_x0020_cable_x0020_layer">
  <line stroke-width="0.353" x1="28.295" y1="14.702" x2="61.796" y2="14.702"/>
  <line stroke-width="0.353" x1="28.295" y1="19.914" x2="61.796" y2="19.914"/>
 </g>
 <g id="symbol_x0020_layer">
 </g>
 <g id="text_x0020_layer">
 </g>
 <g id="text-_x0020_DO_x0020_NOT_x0020_translate">
  <text x="13.314" y="2.468" stroke="none" fill="#000000" font-family="'Arial'" font-size="3.528">AUX 1</text>
  <text x="23.3" y="16.14" stroke="none" fill="#000000" font-family="'Arial'" font-size="3.528">1</text>
  <text x="23.3" y="21.309" stroke="none" fill="#000000" font-family="'Arial'" font-size="3.528">2</text>
  <text x="22.199" y="9.568" stroke="none" fill="#000000" font-family="'Arial'" font-size="3.528">X092</text>
  <text x="66.695" y="2.572" stroke="none" fill="#000000" font-family="'Arial'" font-size="3.528">AUX 2</text>
  <text x="65.177" y="16.245" stroke="none" fill="#000000" font-family="'Arial'" font-size="3.528">1</text>
  <text x="65.177" y="21.414" stroke="none" fill="#000000" font-family="'Arial'" font-size="3.528">2</text>
  <text x="59.582" y="9.568" stroke="none" fill="#000000" font-family="'Arial'" font-size="3.528">X092</text>
 </g>
 <g id="callout_x0020_layer">
 </g>
</svg>
