<?xml version="1.0" encoding="UTF-8"?>
<!-- Generator: PTC Arbortext IsoDraw 7.4 M001 -->
<svg xmlns="http://www.w3.org/2000/svg" xmlns:xlink="http://www.w3.org/1999/xlink" width="120mm" height="26.385mm" viewBox="0 0 120 26.385" fill-rule="evenodd" clip-rule="evenodd" stroke="#000000" stroke-linecap="round" fill="none" xml:space="preserve" preserveAspectRatio="xMidYMid meet" zoomAndPan="magnify" version="1.1" contentScriptType="text/ecmascript" contentStyleType="text/css">
 <g id="_x0020_fill_x0020_layer">
 </g>
 <g id="Standard_x0020_layer">
  <g>
   <path stroke-width="0.2" d="M30.019 19.42C30.019 18.468 29.248 17.696 28.295 17.696C27.343 17.696 26.571 18.468 26.571 19.42C26.571 20.373 27.343 21.144 28.295 21.144C29.248 21.144 30.019 20.373 30.019 19.42"/>
  </g>
  <polygon stroke-width="0.2" points="26.792 12.705 26.792 15.711 29.798 15.711 29.798 12.705 26.792 12.705"/>
  <polygon stroke-width="0.2" points="21.751 10.933 21.751 23.016 32.506 23.016 32.506 10.933 21.751 10.933"/>
  <g>
   <path stroke-width="0.2" d="M63.521 19.42C63.521 18.468 62.75 17.696 61.796 17.696C60.844 17.696 60.073 18.468 60.073 19.42C60.073 20.373 60.844 21.144 61.796 21.144C62.75 21.144 63.521 20.373 63.521 19.42"/>
  </g>
  <polygon stroke-width="0.2" points="60.293 12.705 60.293 15.711 63.299 15.711 63.299 12.705 60.293 12.705"/>
  <polygon stroke-width="0.2" points="59.134 11.141 59.134 23.225 69.891 23.225 69.891 11.141 59.134 11.141"/>
  <polygon stroke-width="0.2" points="0.742 3.162 0.742 26.286 36.195 26.286 36.195 3.162 0.742 3.162"/>
  <polygon stroke-width="0.2" points="53.707 3.162 53.707 26.286 89.159 26.286 89.159 3.162 53.707 3.162"/>
 </g>
 <g id="120mm_x0020_hidden_x0020_Schneider_x0020_layer_x0020_for_x0020_editor">
  <polygon stroke="none" points="0 17.245 0 26.245 120 26.245 120 17.245 0 17.245"/>
 </g>
 <g id="cutout_x0020_layer">
 </g>
 <g id="outline_x0020_layer">
 </g>
 <g id="zoom_x0020_layer">
 </g>
 <g id="outline_x0020_on_x0020_zoom_x0020_layer">
 </g>
 <g id="arrow_x0020_layer">
 </g>
 <g id="_x0020_cable_x0020_layer">
  <line stroke-width="0.353" x1="28.295" y1="14.208" x2="61.796" y2="14.208"/>
  <line stroke-width="0.353" x1="28.295" y1="19.42" x2="61.796" y2="19.42"/>
 </g>
 <g id="symbol_x0020_layer">
 </g>
 <g id="text_x0020_layer">
  <text x="13.314" y="2.468" stroke="none" fill="#000000" font-family="'Arial'" font-size="3.528">UPS 1</text>
  <text x="66.453" y="2.468" stroke="none" fill="#000000" font-family="'Arial'" font-size="3.528">AUX 2</text>
 </g>
 <g id="text-_x0020_DO_x0020_NOT_x0020_translate">
  <text x="23.3" y="15.646" stroke="none" fill="#000000" font-family="'Arial'" font-size="3.528">1</text>
  <text x="23.3" y="20.814" stroke="none" fill="#000000" font-family="'Arial'" font-size="3.528">2</text>
  <text x="22.199" y="9.073" stroke="none" fill="#000000" font-family="'Arial'" font-size="3.528">X030</text>
  <text x="65.177" y="15.75" stroke="none" fill="#000000" font-family="'Arial'" font-size="3.528">1</text>
  <text x="65.177" y="20.919" stroke="none" fill="#000000" font-family="'Arial'" font-size="3.528">2</text>
  <text x="59.582" y="9.073" stroke="none" fill="#000000" font-family="'Arial'" font-size="3.528">X092</text>
 </g>
 <g id="callout_x0020_layer">
 </g>
</svg>
