<?xml version="1.0" encoding="UTF-8"?>
<!-- Generator: PTC Arbortext IsoDraw 7.4 M001 -->
<svg xmlns="http://www.w3.org/2000/svg" xmlns:xlink="http://www.w3.org/1999/xlink" width="120mm" height="106.498mm" viewBox="0 0 120 106.498" fill-rule="evenodd" clip-rule="evenodd" stroke="#000000" stroke-linecap="round" fill="none" xml:space="preserve" preserveAspectRatio="xMidYMid meet" zoomAndPan="magnify" version="1.1" contentScriptType="text/ecmascript" contentStyleType="text/css">
 <g id="Standard_x0020_layer">
  <polygon stroke-width="0.353" points="10.111 16.71 10.111 100.43 79.049 100.43 79.049 16.71 10.111 16.71"/>
  <g>
   <path stroke-width="0.353" d="M25.268 31.887C25.268 31.091 24.621 30.445 23.826 30.445C23.028 30.445 22.382 31.091 22.382 31.887C22.382 32.683 23.028 33.329 23.826 33.329C24.621 33.329 25.268 32.683 25.268 31.887"/>
  </g>
  <g>
   <path stroke-width="0.353" d="M66.552 31.887C66.552 31.091 65.906 30.445 65.108 30.445C64.311 30.445 63.665 31.091 63.665 31.887C63.665 32.683 64.311 33.329 65.108 33.329C65.906 33.329 66.552 32.683 66.552 31.887"/>
  </g>
  <g>
   <path stroke-width="0.353" d="M25.268 85.891C25.268 85.094 24.621 84.448 23.826 84.448C23.028 84.448 22.382 85.094 22.382 85.891C22.382 86.688 23.028 87.334 23.826 87.334C24.621 87.334 25.268 86.688 25.268 85.891"/>
  </g>
  <g>
   <path stroke-width="0.353" d="M66.552 85.891C66.552 85.094 65.906 84.448 65.108 84.448C64.311 84.448 63.665 85.094 63.665 85.891C63.665 86.688 64.311 87.334 65.108 87.334C65.906 87.334 66.552 86.688 66.552 85.891"/>
  </g>
  <polygon stroke-width="0.353" points="79.049 16.71 79.049 100.301 116.608 100.301 116.608 16.71 79.049 16.71"/>
  <g>
   <path stroke-width="0.353" d="M104.219 31.887C104.219 31.091 103.573 30.445 102.777 30.445C101.98 30.445 101.334 31.091 101.334 31.887C101.334 32.683 101.98 33.329 102.777 33.329C103.573 33.329 104.219 32.683 104.219 31.887"/>
  </g>
  <g>
   <path stroke-width="0.353" d="M104.219 85.891C104.219 85.094 103.573 84.448 102.777 84.448C101.98 84.448 101.334 85.094 101.334 85.891C101.334 86.688 101.98 87.334 102.777 87.334C103.573 87.334 104.219 86.688 104.219 85.891"/>
  </g>
 </g>
 <g id="120mm_x0020_hidden_x0020_Schneider_x0020_layer_x0020_for_x0020_editor">
  <polygon stroke="none" points="0 97.197 0 106.197 120 106.197 120 97.197 0 97.197"/>
 </g>
 <g id="cutout_x0020_layer">
 </g>
 <g id="outline_x0020_layer">
 </g>
 <g id="zoom_x0020_layer">
 </g>
 <g id="arrow_x0020_layer">
  <polygon stroke="none" fill="#000000" points="23.826 86.221 23.12 90.221 24.53 90.221"/>
  <polygon stroke="none" fill="#000000" points="23.826 100.137 24.53 96.137 23.12 96.137"/>
  <line stroke-width="0.2" x1="23.826" y1="89.822" x2="23.826" y2="96.537"/>
  <polygon stroke="none" fill="#000000" points="10.3 86.221 14.3 86.927 14.3 85.516"/>
  <polygon stroke="none" fill="#000000" points="23.826 86.221 19.826 85.516 19.826 86.927"/>
  <line stroke-width="0.2" x1="13.9" y1="86.221" x2="20.225" y2="86.221"/>
  <polygon stroke="none" fill="#000000" points="23.826 31.887 23.12 35.887 24.53 35.887"/>
  <polygon stroke="none" fill="#000000" points="23.826 86.221 24.53 82.221 23.12 82.221"/>
  <line stroke-width="0.2" x1="23.826" y1="35.487" x2="23.826" y2="82.621"/>
  <polygon stroke="none" fill="#000000" points="23.826 31.887 27.826 32.593 27.826 31.181"/>
  <polygon stroke="none" fill="#000000" points="65.486 31.887 61.487 31.181 61.487 32.593"/>
  <line stroke-width="0.2" x1="27.425" y1="31.887" x2="61.887" y2="31.887"/>
  <polygon stroke="none" fill="#000000" points="23.826 17.521 23.12 21.521 24.53 21.521"/>
  <polygon stroke="none" fill="#000000" points="23.826 31.887 24.53 27.887 23.12 27.887"/>
  <line stroke-width="0.2" x1="23.826" y1="21.12" x2="23.826" y2="28.286"/>
  <polygon stroke="none" fill="#000000" points="10.3 31.887 14.3 32.593 14.3 31.181"/>
  <polygon stroke="none" fill="#000000" points="23.826 31.887 19.826 31.181 19.826 32.593"/>
  <line stroke-width="0.2" x1="13.9" y1="31.887" x2="20.225" y2="31.887"/>
  <polygon stroke="none" fill="#000000" points="65.082 86.141 64.378 90.141 65.787 90.141"/>
  <polygon stroke="none" fill="#000000" points="65.082 100.287 65.787 96.287 64.378 96.287"/>
  <line stroke-width="0.2" x1="65.082" y1="89.74" x2="65.082" y2="96.686"/>
  <polygon stroke="none" fill="#000000" points="65.082 86.141 69.082 86.846 69.082 85.436"/>
  <polygon stroke="none" fill="#000000" points="78.885 86.141 74.885 85.436 74.885 86.846"/>
  <line stroke-width="0.2" x1="68.683" y1="86.141" x2="75.284" y2="86.141"/>
  <polygon stroke="none" fill="#000000" points="65.486 17.521 64.781 21.521 66.191 21.521"/>
  <polygon stroke="none" fill="#000000" points="65.486 31.887 66.191 27.887 64.781 27.887"/>
  <line stroke-width="0.2" x1="65.486" y1="21.12" x2="65.486" y2="28.286"/>
  <polygon stroke="none" fill="#000000" points="65.486 31.887 69.486 32.593 69.486 31.181"/>
  <polygon stroke="none" fill="#000000" points="79.012 31.887 75.012 31.181 75.012 32.593"/>
  <line stroke-width="0.2" x1="69.087" y1="31.887" x2="75.412" y2="31.887"/>
  <polygon stroke="none" fill="#000000" points="64.918 31.887 64.212 35.887 65.623 35.887"/>
  <polygon stroke="none" fill="#000000" points="64.918 86.221 65.623 82.221 64.212 82.221"/>
  <line stroke-width="0.2" x1="64.918" y1="35.487" x2="64.918" y2="82.621"/>
  <polygon stroke="none" fill="#000000" points="23.826 86.221 27.826 86.927 27.826 85.516"/>
  <polygon stroke="none" fill="#000000" points="65.486 86.221 61.487 85.516 61.487 86.927"/>
  <line stroke-width="0.2" x1="27.425" y1="86.221" x2="61.887" y2="86.221"/>
  <polygon stroke="none" fill="#000000" points="10.598 11.567 14.598 12.272 14.598 10.862"/>
  <polygon stroke="none" fill="#000000" points="79.049 11.567 75.049 10.862 75.049 12.272"/>
  <line stroke-width="0.2" x1="14.198" y1="11.567" x2="75.45" y2="11.567"/>
  <polygon stroke="none" fill="#000000" points="4.98 16.772 4.275 20.772 5.687 20.772"/>
  <polygon stroke="none" fill="#000000" points="4.98 100.727 5.687 96.727 4.275 96.727"/>
  <line stroke-width="0.2" x1="4.98" y1="20.373" x2="4.98" y2="97.126"/>
  <polygon stroke="none" fill="#000000" points="79.019 11.539 83.019 12.244 83.019 10.835"/>
  <polygon stroke="none" fill="#000000" points="116.682 11.539 112.682 10.835 112.682 12.244"/>
  <line stroke-width="0.2" x1="82.618" y1="11.539" x2="113.081" y2="11.539"/>
  <polygon stroke="none" fill="#000000" points="103.155 17.521 102.448 21.521 103.859 21.521"/>
  <polygon stroke="none" fill="#000000" points="103.155 31.887 103.859 27.887 102.448 27.887"/>
  <line stroke-width="0.2" x1="103.155" y1="21.12" x2="103.155" y2="28.286"/>
  <polygon stroke="none" fill="#000000" points="103.155 31.887 107.155 32.593 107.155 31.181"/>
  <polygon stroke="none" fill="#000000" points="116.68 31.887 112.68 31.181 112.68 32.593"/>
  <line stroke-width="0.2" x1="106.754" y1="31.887" x2="113.079" y2="31.887"/>
  <polygon stroke="none" fill="#000000" points="102.751 86.141 102.046 90.141 103.456 90.141"/>
  <polygon stroke="none" fill="#000000" points="102.751 100.287 103.456 96.287 102.046 96.287"/>
  <line stroke-width="0.2" x1="102.751" y1="89.74" x2="102.751" y2="96.686"/>
  <polygon stroke="none" fill="#000000" points="102.751 86.141 106.751 86.846 106.751 85.436"/>
  <polygon stroke="none" fill="#000000" points="116.552 86.141 112.552 85.436 112.552 86.846"/>
  <line stroke-width="0.2" x1="106.35" y1="86.141" x2="112.953" y2="86.141"/>
  <polygon stroke="none" fill="#000000" points="10.598 9.121 14.598 9.827 14.598 8.416"/>
  <polygon stroke="none" fill="#000000" points="116.585 9.121 112.585 8.416 112.585 9.827"/>
  <line stroke-width="0.2" x1="14.198" y1="9.121" x2="112.986" y2="9.121"/>
 </g>
 <g id="_x0020_cable_x0020_layer">
 </g>
 <g id="symbol_x0020_layer">
 </g>
 <g id="_x0020_text_x0020_layer">
  <line stroke="none" x1="29.359" y1="9.096" x2="50.469" y2="9.096"/>
  <g>
   <text x="42" y="51.408" stroke="none" fill="#000000" font-family="'Arial'" font-size="4.142">UPS</text>
   <text x="39.579" y="55.994" stroke="none" fill="#000000" font-family="'Arial'" font-size="4.142">cabinet</text>
  </g>
  <g>
   <text x="90.034" y="49.115" stroke="none" fill="#000000" font-family="'Arial'" font-size="4.142">Top entry</text>
   <text x="92.102" y="53.701" stroke="none" fill="#000000" font-family="'Arial'" font-size="4.142">cabinet</text>
   <text x="88.884" y="58.287" stroke="none" fill="#000000" font-family="'Arial'" font-size="4.142">(if present)</text>
  </g>
  <text x="53.613" y="3.174" stroke="none" fill="#000000" font-family="'Arial'" font-size="4.142">Rear</text>
  <text x="53.27" y="105.087" stroke="none" fill="#000000" font-family="'Arial'" font-size="4.142">Front</text>
 </g>
 <g id="text-_x0020_DO_x0020_NOT_x0020_translate">
  <text x="34.426" y="85.662" stroke="none" fill="#000000" font-family="'Arial'" font-size="3.028">535 mm (21.1 in)</text>
  <text x="34.426" y="15.134" stroke="none" fill="#000000" font-family="'Arial'" font-size="3.028">600 mm (23.6 in)</text>
  <text transform="matrix(0 1 -1 0 1.524 48.777)" stroke="none" fill="#000000" font-family="'Arial'" font-size="3.028">800 mm (31.5 in) </text>
  <g>
   <text transform="matrix(0 1 -1 0 29.161 88.171)" stroke="none" fill="#000000" font-family="'Arial'" font-size="3.028">31 mm</text>
   <text transform="matrix(0 1 -1 0 25.634 88.171)" stroke="none" fill="#000000" font-family="'Arial'" font-size="3.028">(1.22 in)</text>
  </g>
  <g>
   <text x="10.836" y="89.808" stroke="none" fill="#000000" font-family="'Arial'" font-size="3.028">32.5 mm</text>
   <text x="10.836" y="93.337" stroke="none" fill="#000000" font-family="'Arial'" font-size="3.028">(1.28 in)</text>
  </g>
  <text transform="matrix(0 1 -1 0 24.518 49.475)" stroke="none" fill="#000000" font-family="'Arial'" font-size="3.028">738 mm (29.1 in)</text>
  <text x="34.426" y="31.327" stroke="none" fill="#000000" font-family="'Arial'" font-size="3.028">535 mm (21.1 in)</text>
  <g>
   <text transform="matrix(0 1 -1 0 29.132 19.928)" stroke="none" fill="#000000" font-family="'Arial'" font-size="3.028">31 mm</text>
   <text transform="matrix(0 1 -1 0 25.603 19.928)" stroke="none" fill="#000000" font-family="'Arial'" font-size="3.028">(1.22 in)</text>
  </g>
  <g>
   <text x="10.794" y="35.409" stroke="none" fill="#000000" font-family="'Arial'" font-size="3.028">32.5 mm</text>
   <text x="10.794" y="38.938" stroke="none" fill="#000000" font-family="'Arial'" font-size="3.028">(1.28 in)</text>
  </g>
  <g>
   <text transform="matrix(0 1 -1 0 61.551 19.928)" stroke="none" fill="#000000" font-family="'Arial'" font-size="3.028">31 mm</text>
   <text transform="matrix(0 1 -1 0 58.024 19.928)" stroke="none" fill="#000000" font-family="'Arial'" font-size="3.028">(1.22 in)</text>
  </g>
  <g>
   <text x="66.923" y="35.409" stroke="none" fill="#000000" font-family="'Arial'" font-size="3.028">32.5 mm</text>
   <text x="66.923" y="38.938" stroke="none" fill="#000000" font-family="'Arial'" font-size="3.028">(1.28 in)</text>
  </g>
  <g>
   <text transform="matrix(0 1 -1 0 61.551 88.171)" stroke="none" fill="#000000" font-family="'Arial'" font-size="3.028">31 mm</text>
   <text transform="matrix(0 1 -1 0 58.024 88.171)" stroke="none" fill="#000000" font-family="'Arial'" font-size="3.028">(1.22 in)</text>
  </g>
  <g>
   <text x="66.605" y="89.808" stroke="none" fill="#000000" font-family="'Arial'" font-size="3.028">32.5 mm</text>
   <text x="66.605" y="93.337" stroke="none" fill="#000000" font-family="'Arial'" font-size="3.028">(1.28 in)</text>
  </g>
  <text transform="matrix(0 1 -1 0 65.609 49.475)" stroke="none" fill="#000000" font-family="'Arial'" font-size="3.028">738 mm (29.1 in)</text>
  <g>
   <text transform="matrix(0 1 -1 0 99.219 19.928)" stroke="none" fill="#000000" font-family="'Arial'" font-size="3.028">31 mm</text>
   <text transform="matrix(0 1 -1 0 95.692 19.928)" stroke="none" fill="#000000" font-family="'Arial'" font-size="3.028">(1.22 in)</text>
  </g>
  <g>
   <text x="104.59" y="35.409" stroke="none" fill="#000000" font-family="'Arial'" font-size="3.028">32.5 mm</text>
   <text x="104.59" y="38.938" stroke="none" fill="#000000" font-family="'Arial'" font-size="3.028">(1.28 in)</text>
  </g>
  <g>
   <text transform="matrix(0 1 -1 0 99.219 88.171)" stroke="none" fill="#000000" font-family="'Arial'" font-size="3.028">31 mm</text>
   <text transform="matrix(0 1 -1 0 95.692 88.171)" stroke="none" fill="#000000" font-family="'Arial'" font-size="3.028">(1.22 in)</text>
  </g>
  <g>
   <text x="104.274" y="89.808" stroke="none" fill="#000000" font-family="'Arial'" font-size="3.028">32.5 mm</text>
   <text x="104.274" y="93.337" stroke="none" fill="#000000" font-family="'Arial'" font-size="3.028">(1.28 in)</text>
  </g>
  <text x="87.748" y="15.134" stroke="none" fill="#000000" font-family="'Arial'" font-size="3.028">400 mm (15.6 in)</text>
  <text x="58.844" y="6.823" stroke="none" fill="#000000" font-family="'Arial'" font-size="3.028">1000 mm (39.4 in)</text>
 </g>
 <g id="_x0020_callout_x0020_layer">
 </g>
 <g id="Layer_x0020_13">
 </g>
</svg>
