<?xml version="1.0" encoding="UTF-8"?>
<!-- Generator: PTC Arbortext IsoDraw 7.4 M001 -->
<svg xmlns="http://www.w3.org/2000/svg" xmlns:xlink="http://www.w3.org/1999/xlink" width="85mm" height="123.125mm" viewBox="0 0 85 123.125" fill-rule="evenodd" clip-rule="evenodd" stroke="#000000" stroke-linecap="round" fill="none" xml:space="preserve" preserveAspectRatio="xMidYMid meet" zoomAndPan="magnify" version="1.1" contentScriptType="text/ecmascript" contentStyleType="text/css">
 <g id="_x0020_fill_x0020_layer">
 </g>
 <g id="Standard_x0020_layer">
  <polygon stroke-width="0.106" points="17.292 105.903 17.224 105.632 17.088 105.394 16.852 105.26 16.58 105.191 16.309 105.26 16.073 105.394 15.938 105.632 15.869 105.903 15.938 106.174 16.073 106.409 16.309 106.579 16.58 106.614 16.852 106.579 17.088 106.409 17.224 106.174 17.292 105.903"/>
  <path stroke-width="0.106" d="M40.512 105.912L40.445 105.641L40.31 105.403C39.893 105.061 39.348 105.191 39.125 105.641L39.091 105.912L39.125 106.183L39.295 106.418L39.531 106.588L39.802 106.621L40.073 106.588L40.31 106.418L40.445 106.183L40.512 105.912z"/>
  <path stroke-width="0.106" d="M12.925 18.138L12.858 17.867L12.721 17.631C12.307 17.288 11.76 17.417 11.538 17.867L11.503 18.138L11.538 18.408C11.76 18.858 12.307 18.989 12.721 18.646L12.858 18.408L12.925 18.138z"/>
  <path stroke-width="0.106" d="M44.777 18.126L44.743 17.855L44.573 17.617C44.137 17.286 43.682 17.375 43.423 17.855L43.356 18.126L43.423 18.396C43.682 18.876 44.137 18.964 44.573 18.632L44.743 18.396L44.777 18.126z"/>
  <line stroke-width="0.106" x1="16.58" y1="108.305" x2="16.58" y2="103.399"/>
  <line stroke-width="0.106" x1="15.194" y1="105.903" x2="18.375" y2="105.903"/>
  <line stroke-width="0.106" x1="39.802" y1="108.314" x2="39.802" y2="103.408"/>
  <line stroke-width="0.106" x1="38.414" y1="105.912" x2="41.595" y2="105.912"/>
  <line stroke-width="0.106" x1="12.214" y1="20.541" x2="12.214" y2="15.599"/>
  <line stroke-width="0.106" x1="10.827" y1="18.138" x2="14.007" y2="18.138"/>
  <line stroke-width="0.106" x1="44.067" y1="20.527" x2="44.067" y2="15.587"/>
  <line stroke-width="0.106" x1="42.679" y1="18.126" x2="45.859" y2="18.126"/>
 </g>
 <g id="85mm_x0020_hidden_x0020_Schneider_x0020_layer_x0020_for_x0020_editor">
  <polygon stroke="none" points="0 113.948 0 122.948 85 122.948 85 113.948 0 113.948"/>
 </g>
 <g id="cutout_x0020_layer">
  <path stroke-width="0.106" stroke-dasharray="1 0.5" d="M14.502 107.739L41.866 107.739L41.866 102.662L50.868 102.662L50.868 78.367L50.868 52.561L50.868 27.117L50.868 17.597"/>
  <line stroke-width="0.106" x1="50.868" y1="17.597" x2="50.868" y2="16.597"/>
  <path stroke-width="0.106" stroke-dasharray="1 0.5" d="M14.502 107.739L14.502 102.59L5.418 102.59L5.418 93.227L5.418 83.131L5.418 69.652L5.418 57.74L5.418 46.35L5.418 36.063L5.418 22.143L5.418 17.603"/>
  <line stroke-width="0.106" x1="5.418" y1="17.603" x2="5.418" y2="16.603"/>
  <path stroke-width="0.106" stroke-dasharray="1 0.5" d="M5.418 16.603L23.053 16.603L37.844 16.603L49.868 16.603"/>
  <line stroke-width="0.106" x1="49.868" y1="16.603" x2="50.868" y2="16.603"/>
 </g>
 <g id="outline_x0020_layer">
 </g>
 <g id="zoom_x0020_layer">
 </g>
 <g id="outline_x0020_on_x0020_zoom_x0020_layer">
 </g>
 <g id="arrow_x0020_layer">
  <polygon stroke="none" fill="#000000" points="12.35 11.625 14.471 12 14.471 11.253"/>
  <line stroke-width="0.106" x1="19.998" y1="11.625" x2="14.259" y2="11.625"/>
  <polygon stroke="none" fill="#000000" points="12.489 18.484 14.178 19.818 14.532 19.161"/>
  <line stroke-width="0.106" x1="21.939" y1="23.577" x2="14.167" y2="19.388"/>
  <line stroke-width="0.106" x1="21.939" y1="23.577" x2="29.75" y2="23.577"/>
  <line stroke-width="0.106" x1="44.067" y1="14.842" x2="44.067" y2="7.447"/>
  <line stroke-width="0.106" x1="50.895" y1="15.544" x2="50.895" y2="7.447"/>
  <polygon stroke="none" fill="#000000" points="55.319 16.542 55.692 14.422 54.945 14.422"/>
  <path stroke-width="0.106" d="M55.319 11.59L55.319 14.634"/>
  <line stroke-width="0.106" x1="42.784" y1="105.96" x2="61.975" y2="105.96"/>
  <polygon stroke="none" fill="#000000" points="55.319 106.004 55.692 103.885 54.945 103.885"/>
  <line stroke-width="0.106" x1="55.319" y1="66.941" x2="55.319" y2="104.096"/>
  <line stroke-width="0.106" x1="46.798" y1="18.189" x2="66.368" y2="18.189"/>
  <line stroke-width="0.106" x1="51.393" y1="16.603" x2="66.396" y2="16.603"/>
  <polygon stroke="none" fill="#000000" points="55.319 18.365 54.945 20.486 55.692 20.486"/>
  <line stroke-width="0.106" x1="55.319" y1="54.686" x2="55.319" y2="20.274"/>
  <line stroke-width="0.106" x1="16.547" y1="108.846" x2="16.547" y2="121.21"/>
  <line stroke-width="0.106" x1="39.793" y1="108.846" x2="39.793" y2="121.21"/>
  <polygon stroke="none" fill="#000000" points="16.547 113.203 18.667 113.576 18.667 112.829"/>
  <line stroke-width="0.106" x1="21.109" y1="113.203" x2="18.454" y2="113.203"/>
  <polygon stroke="none" fill="#000000" points="39.454 113.203 37.335 112.829 37.335 113.576"/>
  <line stroke-width="0.106" x1="34.639" y1="113.203" x2="37.546" y2="113.203"/>
  <line stroke-width="0.106" x1="5.285" y1="103.182" x2="5.285" y2="114.987"/>
  <polygon stroke="none" fill="#000000" points="5.309 113.203 7.429 113.576 7.429 112.829"/>
  <line stroke-width="0.106" x1="10.515" y1="113.203" x2="7.217" y2="113.203"/>
  <polygon stroke="none" fill="#000000" points="16.547 113.203 14.426 112.829 14.426 113.576"/>
  <line stroke-width="0.106" x1="7.32" y1="113.203" x2="14.638" y2="113.203"/>
  <line stroke-width="0.106" x1="50.911" y1="103.117" x2="50.911" y2="114.987"/>
  <polygon stroke="none" fill="#000000" points="39.665 113.203 41.786 113.576 41.786 112.829"/>
  <line stroke-width="0.106" x1="48.354" y1="113.203" x2="41.573" y2="113.203"/>
  <polygon stroke="none" fill="#000000" points="50.493 113.203 48.372 112.829 48.372 113.576"/>
  <line stroke-width="0.106" x1="44.762" y1="113.203" x2="48.585" y2="113.203"/>
  <line stroke-width="0.106" x1="5.413" y1="16.051" x2="5.413" y2="7.447"/>
  <polygon stroke="none" fill="#000000" points="44.067 11.625 41.947 11.253 41.947 12"/>
  <line stroke-width="0.106" x1="35.125" y1="11.625" x2="42.158" y2="11.625"/>
  <line stroke-width="0.106" x1="12.214" y1="14.868" x2="12.214" y2="7.447"/>
  <polygon stroke="none" fill="#000000" points="44.161 11.625 46.28 12 46.28 11.253"/>
  <line stroke-width="0.106" x1="49.728" y1="11.625" x2="46.069" y2="11.625"/>
  <polygon stroke="none" fill="#000000" points="50.996 11.625 48.875 11.253 48.875 12"/>
  <line stroke-width="0.106" x1="46.136" y1="11.625" x2="49.088" y2="11.625"/>
  <polygon stroke="none" fill="#000000" points="5.413 11.625 7.533 12 7.533 11.253"/>
  <line stroke-width="0.106" x1="9.108" y1="11.625" x2="7.322" y2="11.625"/>
  <polygon stroke="none" fill="#000000" points="12.214 11.625 10.095 11.253 10.095 12"/>
  <line stroke-width="0.106" x1="7.628" y1="11.625" x2="10.307" y2="11.625"/>
 </g>
 <g id="_x0020_cable_x0020_layer">
 </g>
 <g id="symbol_x0020_layer">
 </g>
 <g id="text_x0020_layer">
  <text x="14.515" y="59.478" stroke="none" fill="#000000" font-family="'Arial'" font-size="3.528">Top entry cabinet</text>
 </g>
 <g id="text-_x0020_DO_x0020_NOT_x0020_translate">
  <text x="22.204" y="23.082" stroke="none" fill="#000000" font-family="'Arial'" font-size="3.528">ø 14</text>
  <text x="20.332" y="14.708" stroke="none" fill="#000000" font-family="'Arial'" font-size="3.528">(12.36 in)</text>
  <text x="21.323" y="11.144" stroke="none" fill="#000000" font-family="'Arial'" font-size="3.528">314 mm</text>
  <g>
   <text x="1.195" y="2.468" stroke="none" fill="#000000" font-family="'Arial'" font-size="3.528">43.00 mm</text>
   <text x="2.568" y="6.349" stroke="none" fill="#000000" font-family="'Arial'" font-size="3.528">(1.69 in)</text>
  </g>
  <g>
   <text x="57.067" y="11.644" stroke="none" fill="#000000" font-family="'Arial'" font-size="3.528">15 mm</text>
   <text x="55.987" y="15.525" stroke="none" fill="#000000" font-family="'Arial'" font-size="3.528">(0.59 in)</text>
  </g>
  <g>
   <text x="53.182" y="60.259" stroke="none" fill="#000000" font-family="'Arial'" font-size="3.528">865 mm</text>
   <text x="52.101" y="64.14" stroke="none" fill="#000000" font-family="'Arial'" font-size="3.528">(34.06 in)</text>
  </g>
  <g>
   <text x="3.033" y="117.834" stroke="none" fill="#000000" font-family="'Arial'" font-size="3.528">110 mm</text>
   <text x="2.935" y="121.713" stroke="none" fill="#000000" font-family="'Arial'" font-size="3.528">(4.33 in)</text>
  </g>
  <g>
   <text x="40.493" y="117.834" stroke="none" fill="#000000" font-family="'Arial'" font-size="3.528">110 mm</text>
   <text x="40.395" y="121.713" stroke="none" fill="#000000" font-family="'Arial'" font-size="3.528">(4.33 in)</text>
  </g>
  <g>
   <text x="40.209" y="2.468" stroke="none" fill="#000000" font-family="'Arial'" font-size="3.528">43.00 mm</text>
   <text x="41.581" y="6.349" stroke="none" fill="#000000" font-family="'Arial'" font-size="3.528">(1.69 in)</text>
  </g>
  <g>
   <text x="21.663" y="112.221" stroke="none" fill="#000000" font-family="'Arial'" font-size="3.528">180 mm</text>
   <text x="21.663" y="116.1" stroke="none" fill="#000000" font-family="'Arial'" font-size="3.528">(7.09 in)</text>
  </g>
 </g>
 <g id="callout_x0020_layer">
 </g>
</svg>
