<?xml version="1.0" encoding="UTF-8"?>
<!-- Generator: PTC Arbortext IsoDraw 7.4 M001 -->
<svg xmlns="http://www.w3.org/2000/svg" xmlns:xlink="http://www.w3.org/1999/xlink" width="100%" height="100%" viewBox="0 0 170 102.376" fill-rule="evenodd" clip-rule="evenodd" stroke="#000000" stroke-linecap="round" fill="none" xml:space="preserve" preserveAspectRatio="xMidYMid meet" zoomAndPan="magnify" version="1.1" contentScriptType="text/ecmascript" contentStyleType="text/css">
 <g id="Standard_x0020_layer">
  <path stroke-width="0.2" fill="#E5E5E5" d="M107.753 101.805L145.604 101.805 145.604 0.341 107.753 0.341 107.753 101.805z"/>
  <line stroke-width="0.2" x1="37.661" y1="68.043" x2="55.039" y2="68.043"/>
  <line stroke-width="0.2" x1="25.246" y1="68.043" x2="33.53" y2="68.043"/>
  <line stroke-width="0.2" x1="37.661" y1="81.768" x2="45.944" y2="81.768"/>
  <line stroke-width="0.2" x1="37.409" y1="58.292" x2="64.871" y2="58.292"/>
  <line stroke-width="0.2" x1="24.995" y1="58.292" x2="33.28" y2="58.292"/>
  <line stroke-width="0.2" x1="53.316" y1="68.043" x2="58.381" y2="68.043"/>
  <line stroke-width="0.2" x1="24.995" y1="58.292" x2="17.129" y2="58.292"/>
  <line stroke-width="0.2" x1="25.246" y1="68.043" x2="16.855" y2="68.043"/>
  <line stroke-width="0.2" x1="85.024" y1="68.147" x2="99.251" y2="68.147"/>
  <line stroke-width="0.2" x1="85.471" y1="68.147" x2="71.361" y2="68.147"/>
  <line stroke-width="0.2" x1="45.944" y1="81.768" x2="49.389" y2="81.768"/>
  <line stroke-width="0.2" x1="53.284" y1="81.768" x2="58.368" y2="81.768"/>
  <polyline stroke-width="0.2" points="71.266 81.887 87.43 81.887 87.43 68.415"/>
  <g>
   <path stroke-width="0.2" d="M88.04 68.152C88.04 67.825 87.775 67.56 87.447 67.56C87.12 67.56 86.855 67.825 86.855 68.152C86.855 68.48 87.12 68.745 87.447 68.745C87.775 68.745 88.04 68.48 88.04 68.152"/>
  </g>
  <path stroke-width="0.2" fill="#000000" d="M88.04 68.156C88.04 67.878 87.727 67.564 87.447 67.564 87.168 67.564 86.855 67.878 86.855 68.156 86.855 68.436 87.168 68.75 87.447 68.75 87.727 68.75 88.04 68.436 88.04 68.156z"/>
  <g>
   <path stroke-width="0.2" d="M44.179 81.778C44.179 81.451 43.914 81.186 43.588 81.186C43.259 81.186 42.994 81.451 42.994 81.778C42.994 82.105 43.259 82.37 43.588 82.37C43.914 82.37 44.179 82.105 44.179 81.778"/>
  </g>
  <path stroke-width="0.2" fill="#000000" d="M44.179 81.778C44.179 81.638 44.121 81.475 44.006 81.359 43.89 81.243 43.726 81.186 43.588 81.186 43.448 81.186 43.283 81.243 43.168 81.359 43.052 81.475 42.994 81.638 42.994 81.778 42.994 81.918 43.052 82.081 43.168 82.197 43.283 82.313 43.448 82.37 43.588 82.37 43.726 82.37 43.89 82.313 44.006 82.197 44.121 82.081 44.179 81.918 44.179 81.778z"/>
  <line stroke-width="0.2" x1="43.587" y1="81.768" x2="43.587" y2="93.39"/>
  <g>
   <path stroke-width="0.2" d="M99.555 68.153C99.555 67.825 99.29 67.56 98.963 67.56C98.637 67.56 98.37 67.825 98.37 68.153C98.37 68.48 98.637 68.745 98.963 68.745C99.29 68.745 99.555 68.48 99.555 68.153"/>
  </g>
  <path stroke-width="0.2" fill="#000000" d="M99.555 68.153C99.555 67.873 99.242 67.56 98.963 67.56 98.685 67.56 98.37 67.873 98.37 68.153 98.37 68.432 98.685 68.745 98.963 68.745 99.242 68.745 99.555 68.432 99.555 68.153z"/>
  <polyline stroke-width="0.2" points="43.587 93.542 90.429 93.542 90.429 71.06"/>
  <polygon stroke-width="0.2" points="58.381 63.701 71.329 63.701 71.329 72.209 58.381 72.209 58.381 63.701"/>
  <line stroke-width="0.2" x1="64.871" y1="58.396" x2="64.871" y2="63.701"/>
  <line stroke-width="0.2" x1="58.381" y1="63.701" x2="64.855" y2="72.209"/>
  <line stroke-width="0.2" x1="71.361" y1="63.701" x2="64.855" y2="72.209"/>
  <text x="63.268" y="68.408" stroke="none" fill="#000000" font-family="'Arial'" font-size="5.016">=</text>
  <path stroke-width="0.2" d="M59.85 70.477C60.351 69.599 60.509 69.887 60.954 70.483C61.136 70.727 61.354 71.165 61.981 70.35"/>
  <path stroke-width="0.2" d="M67.813 70.477C68.314 69.599 68.471 69.887 68.915 70.483C69.097 70.727 69.317 71.165 69.944 70.35"/>
  <line stroke-width="0.2" x1="33.374" y1="57.732" x2="33.374" y2="58.816"/>
  <g>
   <path stroke-width="0.2" d="M34.177 58.274C34.177 58.067 34.009 57.898 33.801 57.898C33.594 57.898 33.426 58.067 33.426 58.274C33.426 58.481 33.594 58.651 33.801 58.651C34.009 58.651 34.177 58.481 34.177 58.274"/>
  </g>
  <line stroke-width="0.2" x1="37.661" y1="68.043" x2="34.182" y2="69.361"/>
  <line stroke-width="0.2" x1="33.357" y1="59.81" x2="37.409" y2="58.292"/>
  <line stroke-width="0.2" x1="33.582" y1="67.578" x2="33.582" y2="68.662"/>
  <g>
   <path stroke-width="0.2" d="M34.335 68.12C34.335 67.912 34.165 67.743 33.957 67.743C33.75 67.743 33.582 67.912 33.582 68.12C33.582 68.328 33.75 68.495 33.957 68.495C34.165 68.495 34.335 68.328 34.335 68.12"/>
  </g>
  <line stroke-width="0.2" x1="49.222" y1="81.322" x2="49.222" y2="82.406"/>
  <g>
   <path stroke-width="0.2" d="M49.973 81.864C49.973 81.656 49.805 81.487 49.597 81.487C49.39 81.487 49.222 81.656 49.222 81.864C49.222 82.072 49.39 82.24 49.597 82.24C49.805 82.24 49.973 82.072 49.973 81.864"/>
  </g>
  <polygon stroke-width="0.2" points="58.287 78.215 58.287 88.183 71.266 88.183 71.266 78.215 58.287 78.215"/>
  <line stroke-width="0.2" x1="37.661" y1="81.768" x2="34.182" y2="83.084"/>
  <path stroke-width="0.2" fill="#000000" d="M99.555 71.153C99.555 70.873 99.242 70.56 98.963 70.56 98.685 70.56 98.37 70.873 98.37 71.153 98.37 71.432 98.685 71.745 98.963 71.745 99.242 71.745 99.555 71.432 99.555 71.153z"/>
  <line stroke-width="0.2" x1="99.463" y1="71.06" x2="90.429" y2="71.06"/>
  <polyline stroke-width="0.2" points="107.733 70.102 103.076 70.102 99.251 68.322"/>
  <g>
   <path stroke-width="0.2" d="M103.67 70.102C103.67 69.775 103.403 69.51 103.076 69.51C102.75 69.51 102.484 69.775 102.484 70.102C102.484 70.43 102.75 70.694 103.076 70.694C103.403 70.694 103.67 70.43 103.67 70.102"/>
  </g>
  <path stroke-width="0.2" fill="#000000" d="M103.67 70.102C103.67 69.823 103.355 69.51 103.076 69.51 102.798 69.51 102.484 69.823 102.484 70.102 102.484 70.382 102.798 70.694 103.076 70.694 103.355 70.694 103.67 70.382 103.67 70.102z"/>
  <path stroke-width="0.2" fill="#000000" d="M99.486 68.432L99.864 69.203 100.367 68.197 99.486 68.432z"/>
  <line stroke-width="0.2" x1="53.36" y1="81.768" x2="49.881" y2="83.084"/>
  <polygon stroke-width="0.2" points="21.556 52.1 21.556 101.628 104.248 101.628 104.248 52.1 21.556 52.1"/>
  <line stroke-width="0.2" x1="33.914" y1="81.156" x2="33.914" y2="82.239"/>
  <g>
   <path stroke-width="0.2" d="M34.667 81.697C34.667 81.489 34.499 81.32 34.29 81.32C34.084 81.32 33.914 81.489 33.914 81.697C33.914 81.905 34.084 82.073 34.29 82.073C34.499 82.073 34.667 81.905 34.667 81.697"/>
  </g>
  <line stroke-width="0.2" x1="25.736" y1="29.594" x2="34.02" y2="29.594"/>
  <line stroke-width="0.2" x1="25.736" y1="29.594" x2="16.407" y2="29.594"/>
  <line stroke-width="0.2" x1="34.128" y1="29.048" x2="34.128" y2="30.132"/>
  <g>
   <path stroke-width="0.2" d="M34.881 29.591C34.881 29.382 34.713 29.214 34.505 29.214C34.298 29.214 34.128 29.382 34.128 29.591C34.128 29.798 34.298 29.966 34.505 29.966C34.713 29.966 34.881 29.798 34.881 29.591"/>
  </g>
  <polyline stroke-width="0.2" points="33.801 29.594 25.736 29.594 20.193 29.594 20.193 81.698 33.914 81.698"/>
  <g>
   <path stroke-width="0.2" d="M20.786 29.594C20.786 29.265 20.521 29.001 20.193 29.001C19.865 29.001 19.6 29.265 19.6 29.594C19.6 29.92 19.865 30.185 20.193 30.185C20.521 30.185 20.786 29.92 20.786 29.594"/>
  </g>
  <path stroke-width="0.2" fill="#000000" d="M20.786 29.594C20.786 29.454 20.728 29.289 20.611 29.175 20.496 29.059 20.332 29.001 20.193 29.001 20.053 29.001 19.89 29.059 19.774 29.175 19.658 29.289 19.6 29.454 19.6 29.594 19.6 29.733 19.658 29.896 19.774 30.012 19.89 30.128 20.053 30.185 20.193 30.185 20.332 30.185 20.496 30.128 20.611 30.012 20.728 29.896 20.786 29.733 20.786 29.594z"/>
  <line stroke-width="0.2" x1="106.73" y1="18.085" x2="119.308" y2="18.085"/>
  <line stroke-width="0.2" x1="119.308" y1="17.641" x2="119.308" y2="18.724"/>
  <g>
   <path stroke-width="0.2" d="M120.061 18.182C120.061 17.975 119.891 17.806 119.685 17.806C119.477 17.806 119.308 17.975 119.308 18.182C119.308 18.39 119.477 18.559 119.685 18.559C119.891 18.559 120.061 18.39 120.061 18.182"/>
  </g>
  <line stroke-width="0.2" x1="106.73" y1="70.085" x2="119.308" y2="70.085"/>
  <line stroke-width="0.2" x1="119.308" y1="69.641" x2="119.308" y2="70.724"/>
  <g>
   <path stroke-width="0.2" d="M120.061 70.183C120.061 69.974 119.891 69.807 119.685 69.807C119.477 69.807 119.308 69.974 119.308 70.183C119.308 70.391 119.477 70.558 119.685 70.558C119.891 70.558 120.061 70.391 120.061 70.183"/>
  </g>
  <line stroke-width="0.2" x1="123.218" y1="70.117" x2="128.302" y2="70.117"/>
  <line stroke-width="0.2" x1="123.293" y1="70.117" x2="119.816" y2="71.435"/>
  <line stroke-width="0.2" x1="123.218" y1="18.117" x2="128.302" y2="18.117"/>
  <line stroke-width="0.2" x1="123.293" y1="18.117" x2="119.816" y2="19.434"/>
  <path stroke-width="0.2" fill="#E5E5E5" d="M128.302 18.117L128.302 26.042 128.302 70.117 128.302 44.963 139.786 44.963"/>
  <line stroke-width="0.2" x1="139.786" y1="44.963" x2="151.003" y2="44.963"/>
 </g>
 <g id="UPS1">
  <line stroke-width="0.2" x1="37.661" y1="16.042" x2="54.195" y2="16.042"/>
  <line stroke-width="0.2" x1="25.246" y1="16.042" x2="33.53" y2="16.042"/>
  <line stroke-width="0.2" x1="37.661" y1="29.768" x2="45.944" y2="29.768"/>
  <line stroke-width="0.2" x1="37.409" y1="6.293" x2="64.871" y2="6.293"/>
  <line stroke-width="0.2" x1="24.995" y1="6.293" x2="33.28" y2="6.293"/>
  <line stroke-width="0.2" x1="53.316" y1="16.042" x2="58.381" y2="16.042"/>
  <line stroke-width="0.2" x1="24.995" y1="6.293" x2="17.269" y2="6.293"/>
  <line stroke-width="0.2" x1="25.246" y1="16.042" x2="17.094" y2="16.042"/>
  <line stroke-width="0.2" x1="85.024" y1="16.147" x2="99.251" y2="16.147"/>
  <line stroke-width="0.2" x1="85.024" y1="16.147" x2="71.361" y2="16.147"/>
  <line stroke-width="0.2" x1="45.944" y1="29.768" x2="49.389" y2="29.768"/>
  <line stroke-width="0.2" x1="53.284" y1="29.768" x2="58.368" y2="29.768"/>
  <polyline stroke-width="0.2" points="71.266 29.887 87.43 29.887 87.43 16.414"/>
  <g>
   <path stroke-width="0.2" d="M88.04 16.152C88.04 15.824 87.775 15.56 87.447 15.56C87.12 15.56 86.855 15.824 86.855 16.152C86.855 16.48 87.12 16.745 87.447 16.745C87.775 16.745 88.04 16.48 88.04 16.152"/>
  </g>
  <path stroke-width="0.2" fill="#000000" d="M88.04 16.157C88.04 15.878 87.727 15.564 87.447 15.564 87.168 15.564 86.855 15.878 86.855 16.157 86.855 16.435 87.168 16.75 87.447 16.75 87.727 16.75 88.04 16.435 88.04 16.157z"/>
  <g>
   <path stroke-width="0.2" d="M44.179 29.778C44.179 29.452 43.914 29.185 43.588 29.185C43.259 29.185 42.994 29.452 42.994 29.778C42.994 30.106 43.259 30.37 43.588 30.37C43.914 30.37 44.179 30.106 44.179 29.778"/>
  </g>
  <path stroke-width="0.2" fill="#000000" d="M44.179 29.778C44.179 29.638 44.121 29.475 44.006 29.359 43.89 29.243 43.726 29.185 43.588 29.185 43.448 29.185 43.283 29.243 43.168 29.359 43.052 29.475 42.994 29.638 42.994 29.778 42.994 29.919 43.052 30.082 43.168 30.198 43.283 30.312 43.448 30.37 43.588 30.37 43.726 30.37 43.89 30.312 44.006 30.198 44.121 30.082 44.179 29.919 44.179 29.778z"/>
  <line stroke-width="0.2" x1="43.587" y1="29.768" x2="43.587" y2="41.39"/>
  <g>
   <path stroke-width="0.2" d="M99.555 16.152C99.555 15.824 99.29 15.56 98.963 15.56C98.637 15.56 98.37 15.824 98.37 16.152C98.37 16.48 98.637 16.745 98.963 16.745C99.29 16.745 99.555 16.48 99.555 16.152"/>
  </g>
  <path stroke-width="0.2" fill="#000000" d="M99.555 16.152C99.555 15.872 99.242 15.56 98.963 15.56 98.685 15.56 98.37 15.872 98.37 16.152 98.37 16.431 98.685 16.745 98.963 16.745 99.242 16.745 99.555 16.431 99.555 16.152z"/>
  <polyline stroke-width="0.2" points="43.587 41.542 90.429 41.542 90.429 19.059"/>
  <polygon stroke-width="0.2" points="58.381 11.701 71.329 11.701 71.329 20.208 58.381 20.208 58.381 11.701"/>
  <line stroke-width="0.2" x1="64.871" y1="6.395" x2="64.871" y2="11.701"/>
  <line stroke-width="0.2" x1="58.381" y1="11.701" x2="64.855" y2="20.208"/>
  <line stroke-width="0.2" x1="71.361" y1="11.701" x2="64.855" y2="20.208"/>
  <text x="63.268" y="16.408" stroke="none" fill="#000000" font-family="'Arial'" font-size="5.016">=</text>
  <path stroke-width="0.2" d="M59.85 18.477C60.351 17.599 60.509 17.887 60.954 18.483C61.136 18.727 61.354 19.166 61.981 18.35"/>
  <path stroke-width="0.2" d="M67.813 18.477C68.314 17.599 68.471 17.887 68.915 18.483C69.097 18.727 69.317 19.166 69.944 18.35"/>
  <line stroke-width="0.2" x1="33.374" y1="5.732" x2="33.374" y2="6.815"/>
  <g>
   <path stroke-width="0.2" d="M34.177 6.274C34.177 6.067 34.009 5.897 33.801 5.897C33.594 5.897 33.426 6.067 33.426 6.274C33.426 6.482 33.594 6.65 33.801 6.65C34.009 6.65 34.177 6.482 34.177 6.274"/>
  </g>
  <line stroke-width="0.2" x1="37.661" y1="16.042" x2="34.182" y2="17.361"/>
  <line stroke-width="0.2" x1="33.357" y1="7.81" x2="37.409" y2="6.293"/>
  <line stroke-width="0.2" x1="33.582" y1="15.579" x2="33.582" y2="16.661"/>
  <g>
   <path stroke-width="0.2" d="M34.335 16.12C34.335 15.913 34.165 15.743 33.957 15.743C33.75 15.743 33.582 15.913 33.582 16.12C33.582 16.327 33.75 16.495 33.957 16.495C34.165 16.495 34.335 16.327 34.335 16.12"/>
  </g>
  <line stroke-width="0.2" x1="49.222" y1="29.323" x2="49.222" y2="30.405"/>
  <g>
   <path stroke-width="0.2" d="M49.973 29.864C49.973 29.657 49.805 29.487 49.597 29.487C49.39 29.487 49.222 29.657 49.222 29.864C49.222 30.071 49.39 30.24 49.597 30.24C49.805 30.24 49.973 30.071 49.973 29.864"/>
  </g>
  <polygon stroke-width="0.2" points="58.287 26.214 58.287 36.183 71.266 36.183 71.266 26.214 58.287 26.214"/>
  <line stroke-width="0.2" x1="37.661" y1="29.768" x2="34.182" y2="31.085"/>
  <path stroke-width="0.2" fill="#000000" d="M99.555 19.152C99.555 18.873 99.242 18.559 98.963 18.559 98.685 18.559 98.37 18.873 98.37 19.152 98.37 19.431 98.685 19.745 98.963 19.745 99.242 19.745 99.555 19.431 99.555 19.152z"/>
  <line stroke-width="0.2" x1="99.463" y1="19.059" x2="90.429" y2="19.059"/>
  <polyline stroke-width="0.2" points="107.733 18.103 103.076 18.103 99.251 16.323"/>
  <g>
   <path stroke-width="0.2" d="M103.67 18.103C103.67 17.775 103.403 17.51 103.076 17.51C102.75 17.51 102.484 17.775 102.484 18.103C102.484 18.429 102.75 18.695 103.076 18.695C103.403 18.695 103.67 18.429 103.67 18.103"/>
  </g>
  <path stroke-width="0.2" fill="#000000" d="M103.67 18.103C103.67 17.824 103.355 17.51 103.076 17.51 102.798 17.51 102.484 17.824 102.484 18.103 102.484 18.382 102.798 18.695 103.076 18.695 103.355 18.695 103.67 18.382 103.67 18.103z"/>
  <path stroke-width="0.2" fill="#000000" d="M99.486 16.431L99.864 17.202 100.367 16.196 99.486 16.431z"/>
  <line stroke-width="0.2" x1="53.36" y1="29.768" x2="49.881" y2="31.085"/>
  <polygon stroke-width="0.2" points="21.556 0.1 21.556 49.628 104.248 49.628 104.248 0.1 21.556 0.1"/>
 </g>
 <g id="170mm_x0020_hidden_x0020_Schneider_x0020_layer_x0020_for_x0020_editor">
  <polygon stroke="none" points="0 93.376 0 102.376 170 102.376 170 93.376 0 93.376"/>
 </g>
 <g id="cutout_x0020_layer">
 </g>
 <g id="outline_x0020_layer">
 </g>
 <g id="arrow_x0020_layer">
 </g>
 <g id="_x0020_cable_x0020_layer">
 </g>
 <g id="symbol_x0020_layer">
 </g>
 <g id="_x0020_text_x0020_layer_translate">
  <text x="0.143" y="59.57" stroke="none" fill="#000000" font-family="'Arial'" font-size="4.179">Batteries</text>
  <text x="7.105" y="69.248" stroke="none" fill="#000000" font-family="'Arial'" font-size="4.179">Input</text>
  <text x="1.956" y="30.713" stroke="none" fill="#000000" font-family="'Arial'" font-size="4.179">Bypass</text>
  <text x="151.747" y="46.713" stroke="none" fill="#000000" font-family="'Arial'" font-size="4.179">Load</text>
  <g>
   <text x="58.918" y="82.23" stroke="none" fill="#000000" font-family="'Arial'" font-size="4.179">Static </text>
   <text x="58.57" y="86.816" stroke="none" fill="#000000" font-family="'Arial'" font-size="4.179">Switch</text>
  </g>
  <text x="91.051" y="100.01" stroke="none" fill="#000000" font-family="'Arial'" font-size="4.179">UPS 2</text>
  <g>
   <text x="110.653" y="95.933" stroke="none" fill="#000000" font-family="'Arial'" font-size="4.179">Auxiliary</text>
   <text x="110.653" y="100.519" stroke="none" fill="#000000" font-family="'Arial'" font-size="4.179">cabinet</text>
  </g>
  <text x="0.143" y="7.57" stroke="none" fill="#000000" font-family="'Arial'" font-size="4.179">Batteries</text>
  <text x="7.105" y="17.248" stroke="none" fill="#000000" font-family="'Arial'" font-size="4.179">Input</text>
  <g>
   <text x="58.918" y="30.231" stroke="none" fill="#000000" font-family="'Arial'" font-size="4.179">Static </text>
   <text x="58.57" y="34.817" stroke="none" fill="#000000" font-family="'Arial'" font-size="4.179">Switch</text>
  </g>
  <text x="91.051" y="48.009" stroke="none" fill="#000000" font-family="'Arial'" font-size="4.179">UPS 1</text>
 </g>
 <g id="_x0020_callout_x0020_layer">
 </g>
 <g id="text_x0020_layer_do_x0020_not_x0020_translate">
  <text x="30.489" y="72.534" stroke="none" fill="#000000" font-family="'Arial'" font-size="4.179">Q001</text>
  <text x="30.489" y="87.037" stroke="none" fill="#000000" font-family="'Arial'" font-size="4.179">Q501</text>
  <text x="93.037" y="75.885" stroke="none" fill="#000000" font-family="'Arial'" font-size="4.179">Q601</text>
  <text x="30.689" y="56.557" stroke="none" fill="#000000" font-family="'Arial'" font-size="4.179">Q201</text>
  <text x="45.994" y="88.307" stroke="none" fill="#000000" font-family="'Arial'" font-size="4.179">Q528</text>
  <text x="30.489" y="20.535" stroke="none" fill="#000000" font-family="'Arial'" font-size="4.179">Q001</text>
  <text x="30.489" y="35.036" stroke="none" fill="#000000" font-family="'Arial'" font-size="4.179">Q501</text>
  <text x="93.037" y="23.885" stroke="none" fill="#000000" font-family="'Arial'" font-size="4.179">Q601</text>
  <text x="30.689" y="4.557" stroke="none" fill="#000000" font-family="'Arial'" font-size="4.179">Q201</text>
  <text x="45.994" y="36.307" stroke="none" fill="#000000" font-family="'Arial'" font-size="4.179">Q528</text>
  <text x="116.424" y="16.004" stroke="none" fill="#000000" font-family="'Arial'" font-size="4.179">Q692</text>
  <text x="116.424" y="68.004" stroke="none" fill="#000000" font-family="'Arial'" font-size="4.179">Q694</text>
 </g>
</svg>
