<?xml version="1.0" encoding="UTF-8"?>
<!-- Generator: PTC Arbortext IsoDraw 7.4 M001 -->
<svg xmlns="http://www.w3.org/2000/svg" xmlns:xlink="http://www.w3.org/1999/xlink" width="120.156mm" height="49.685mm" viewBox="0 0 120.156 49.685" fill-rule="evenodd" clip-rule="evenodd" stroke="#000000" stroke-linecap="round" fill="none" xml:space="preserve" preserveAspectRatio="xMidYMid meet" zoomAndPan="magnify" version="1.1" contentScriptType="text/ecmascript" contentStyleType="text/css">
 <g id="Standard_x0020_layer">
  <path stroke-width="0.353" fill="#B2B2B2" d="M24.681 41.691L3.459 33.732 33.524 21.353 54.747 29.31 24.681 41.691z"/>
  <path stroke-width="0.353" fill="#FFFFFF" d="M56.261 28.347L35.037 20.39 65.103 8.009 86.325 15.968 56.261 28.347z"/>
  <path stroke-width="0.353" fill="#B2B2B2" d="M88.177 15.332L66.953 7.373 80.231 1.882 101.349 9.848 88.177 15.332z"/>
  <line stroke-width="0.353" x1="2.294" y1="35.652" x2="21.036" y2="43.024"/>
  <path stroke-width="0.353" fill="#000000" d="M21.574 42.996C21.288 42.774 21.111 42.603 20.89 42.398L20.519 43.399C20.629 43.39 21.062 43.381 21.423 43.405 21.809 43.43 22.15 43.476 22.364 43.529 22.17 43.426 21.882 43.234 21.574 42.996z"/>
  <path stroke-width="0.353" fill="#000000" d="M1.757 35.679C2.044 35.902 2.221 36.073 2.44 36.277L2.812 35.276C2.702 35.286 2.267 35.293 1.907 35.271 1.522 35.244 1.181 35.198 0.968 35.146 1.161 35.25 1.449 35.442 1.757 35.679z"/>
  <line stroke-width="0.353" x1="55.226" y1="31.367" x2="28.324" y2="42.694"/>
  <path stroke-width="0.353" fill="#000000" d="M27.964 43.06C28.309 43.027 28.545 43.03 28.832 43.027L28.446 42.101C28.375 42.179 28.076 42.466 27.806 42.682 27.519 42.914 27.25 43.103 27.065 43.206 27.269 43.151 27.594 43.097 27.964 43.06z"/>
  <path stroke-width="0.353" fill="#000000" d="M55.588 31.001C55.241 31.035 55.008 31.032 54.72 31.033L55.106 31.96C55.176 31.882 55.475 31.597 55.744 31.379 56.033 31.147 56.302 30.96 56.485 30.856 56.283 30.911 55.957 30.966 55.588 31.001z"/>
  <line stroke-width="0.353" x1="86.528" y1="18.086" x2="59.627" y2="29.413"/>
  <path stroke-width="0.353" fill="#000000" d="M59.265 29.78C59.612 29.745 59.845 29.75 60.133 29.746L59.747 28.821C59.676 28.897 59.378 29.184 59.109 29.4 58.82 29.632 58.551 29.821 58.368 29.923 58.57 29.87 58.896 29.815 59.265 29.78z"/>
  <path stroke-width="0.353" fill="#000000" d="M86.888 17.719C86.543 17.753 86.308 17.75 86.022 17.753L86.406 18.678C86.477 18.602 86.778 18.315 87.046 18.099 87.334 17.867 87.603 17.678 87.787 17.576 87.584 17.629 87.257 17.684 86.888 17.719z"/>
  <line stroke-width="0.353" x1="89.37" y1="16.789" x2="102.388" y2="11.426"/>
  <path stroke-width="0.353" fill="#000000" d="M102.756 11.044C102.411 11.077 102.176 11.074 101.888 11.076L102.274 12.003C102.344 11.926 102.644 11.64 102.914 11.423 103.2 11.191 103.471 11.003 103.655 10.9 103.45 10.955 103.125 11.009 102.756 11.044z"/>
  <path stroke-width="0.353" fill="#000000" d="M89.632 16.878C89.977 16.844 90.212 16.847 90.5 16.846L90.114 15.919C90.043 15.996 89.743 16.283 89.474 16.5 89.186 16.731 88.917 16.92 88.733 17.022 88.936 16.968 89.263 16.914 89.632 16.878z"/>
  <polygon stroke="none" points="120 0 0 0 0 47.755 120 47.755 120 0"/>
 </g>
 <g id="120mm_x0020_hidden_x0020_Schneider_x0020_layer_x0020_for_x0020_editor">
  <polygon stroke="none" points="0.157 40.448 0.157 49.448 120.156 49.448 120.156 40.448 0.157 40.448"/>
 </g>
 <g id="cutout_x0020_layer">
 </g>
 <g id="outline_x0020_layer">
 </g>
 <g id="zoom_x0020_layer">
 </g>
 <g id="arrow_x0020_layer">
 </g>
 <g id="_x0020_cable_x0020_layer">
 </g>
 <g id="symbol_x0020_layer">
 </g>
 <g id="_x0020_text_x0020_layer">
  <g>
   <text x="19.024" y="31.068" stroke="none" fill="#000000" font-family="'Arial'" font-size="3.174">Minimum front </text>
   <text x="19.024" y="34.597" stroke="none" fill="#000000" font-family="'Arial'" font-size="3.174">clearance</text>
  </g>
  <g>
   <text x="74.777" y="6.66" stroke="none" fill="#000000" font-family="'Arial'" font-size="3.174">Minimum </text>
   <text x="74.777" y="10.188" stroke="none" fill="#000000" font-family="'Arial'" font-size="3.174">rear clearance</text>
  </g>
  <g>
   <text x="54.892" y="17.132" stroke="none" fill="#000000" font-family="'Arial'" font-size="3.174">UPS</text>
   <text x="54.892" y="20.658" stroke="none" fill="#000000" font-family="'Arial'" font-size="3.174">cabinet</text>
  </g>
 </g>
 <g id="text-_x0020_DO_x0020_NOT_x0020_translate">
  <g>
   <text x="38.47" y="43.456" stroke="none" fill="#000000" font-family="'Arial'" font-size="3.174">800 mm</text>
   <text x="38.47" y="46.982" stroke="none" fill="#000000" font-family="'Arial'" font-size="3.174">(31.5 in)</text>
  </g>
  <g>
   <text x="69.472" y="30.271" stroke="none" fill="#000000" font-family="'Arial'" font-size="3.174">800 mm</text>
   <text x="69.472" y="33.798" stroke="none" fill="#000000" font-family="'Arial'" font-size="3.174">(31.5 in)</text>
  </g>
  <g>
   <text x="97.525" y="16.568" stroke="none" fill="#000000" font-family="'Arial'" font-size="3.174">100 mm</text>
   <text x="97.525" y="20.094" stroke="none" fill="#000000" font-family="'Arial'" font-size="3.174">(4 in)</text>
  </g>
  <g>
   <text x="0.966" y="44.746" stroke="none" fill="#000000" font-family="'Arial'" font-size="3.174">600 mm</text>
   <text x="0.966" y="48.274" stroke="none" fill="#000000" font-family="'Arial'" font-size="3.174">(23.6 in)</text>
  </g>
 </g>
 <g id="_x0020_callout_x0020_layer">
 </g>
</svg>
