<?xml version="1.0" encoding="UTF-8"?>
<!-- Generator: PTC Arbortext IsoDraw 7.4 M001 -->
<svg xmlns="http://www.w3.org/2000/svg" xmlns:xlink="http://www.w3.org/1999/xlink" width="85mm" height="123.004mm" viewBox="0 0 85 123.004" fill-rule="evenodd" clip-rule="evenodd" stroke="#000000" stroke-linecap="round" fill="none" xml:space="preserve" preserveAspectRatio="xMidYMid meet" zoomAndPan="magnify" version="1.1" contentScriptType="text/ecmascript" contentStyleType="text/css">
 <g id="_x0020_fill_x0020_layer">
 </g>
 <g id="Standard_x0020_layer">
  <polygon stroke-width="0.106" points="17.225 105.79 17.157 105.519 17.021 105.283 16.785 105.147 16.513 105.079 16.242 105.147 16.007 105.283 15.871 105.519 15.803 105.79 15.871 106.061 16.007 106.299 16.242 106.468 16.513 106.501 16.785 106.468 17.021 106.299 17.157 106.061 17.225 105.79"/>
  <path stroke-width="0.106" d="M55.804 105.79L55.737 105.519L55.601 105.283C55.185 104.939 54.64 105.07 54.417 105.519L54.383 105.79L54.417 106.061L54.585 106.299L54.823 106.468L55.094 106.501L55.365 106.468L55.601 106.299L55.737 106.061L55.804 105.79z"/>
  <path stroke-width="0.106" d="M12.811 18.05L12.743 17.778L12.608 17.542C12.192 17.199 11.647 17.329 11.423 17.778L11.39 18.05L11.423 18.32C11.647 18.768 12.192 18.899 12.608 18.556L12.743 18.32L12.811 18.05z"/>
  <path stroke-width="0.106" d="M60.069 18.004L60.034 17.734L59.865 17.496C59.429 17.164 58.975 17.254 58.715 17.734L58.646 18.004L58.715 18.275C58.975 18.754 59.429 18.844 59.865 18.512L60.034 18.275L60.069 18.004z"/>
  <line stroke-width="0.106" x1="16.513" y1="108.194" x2="16.513" y2="103.287"/>
  <line stroke-width="0.106" x1="15.127" y1="105.79" x2="18.307" y2="105.79"/>
  <line stroke-width="0.106" x1="55.094" y1="108.194" x2="55.094" y2="103.287"/>
  <line stroke-width="0.106" x1="53.707" y1="105.79" x2="56.887" y2="105.79"/>
  <line stroke-width="0.106" x1="12.099" y1="20.452" x2="12.099" y2="15.512"/>
  <line stroke-width="0.106" x1="10.712" y1="18.05" x2="13.894" y2="18.05"/>
  <line stroke-width="0.106" x1="59.357" y1="20.408" x2="59.357" y2="15.467"/>
  <line stroke-width="0.106" x1="57.97" y1="18.004" x2="61.152" y2="18.004"/>
 </g>
 <g id="85mm_x0020_hidden_x0020_Schneider_x0020_layer_x0020_for_x0020_editor">
  <polygon stroke="none" points="0 113.355 0 122.355 85 122.355 85 113.355 0 113.355"/>
 </g>
 <g id="cutout_x0020_layer">
  <line stroke-width="0.106" stroke-dasharray="1 0.5" x1="5.278" y1="21.66" x2="5.278" y2="17.516"/>
  <line stroke-width="0.106" x1="5.278" y1="17.516" x2="5.278" y2="16.516"/>
  <path stroke-width="0.106" stroke-dasharray="1 0.5" d="M66.159 16.481L36.412 16.481L6.283 16.481"/>
  <line stroke-width="0.106" x1="6.283" y1="16.481" x2="5.283" y2="16.481"/>
  <path stroke-width="0.106" stroke-dasharray="1 0.5" d="M66.159 16.486L66.159 21.66L66.159 36.618L66.159 72.067L66.159 102.542L57.158 102.542L57.158 107.617L24.077 107.617L14.416 107.617L14.416 102.542L5.278 102.542L5.278 91.983L5.278 61.6L5.278 36.969L5.278 22.66"/>
  <line stroke-width="0.106" x1="5.278" y1="22.66" x2="5.278" y2="21.66"/>
 </g>
 <g id="outline_x0020_layer">
 </g>
 <g id="zoom_x0020_layer">
 </g>
 <g id="outline_x0020_on_x0020_zoom_x0020_layer">
 </g>
 <g id="arrow_x0020_layer">
  <polygon stroke="none" fill="#000000" points="12.58 11.208 14.699 11.582 14.699 10.833"/>
  <line stroke-width="0.106" x1="26.92" y1="11.208" x2="14.487" y2="11.208"/>
  <polygon stroke="none" fill="#000000" points="12.952 19.243 14.641 20.577 14.996 19.92"/>
  <line stroke-width="0.106" x1="22.402" y1="24.336" x2="14.632" y2="20.149"/>
  <line stroke-width="0.106" x1="22.402" y1="24.336" x2="30.213" y2="24.336"/>
  <line stroke-width="0.106" x1="59.357" y1="14.987" x2="59.357" y2="7.81"/>
  <line stroke-width="0.106" x1="66.213" y1="15.162" x2="66.213" y2="7.871"/>
  <polygon stroke="none" fill="#000000" points="70.609 16.42 70.983 14.301 70.236 14.301"/>
  <path stroke-width="0.106" d="M70.609 11.47L70.609 14.512"/>
  <line stroke-width="0.106" x1="58.076" y1="105.84" x2="77.268" y2="105.84"/>
  <polygon stroke="none" fill="#000000" points="70.609 105.884 70.983 103.763 70.236 103.763"/>
  <line stroke-width="0.106" x1="70.609" y1="66.819" x2="70.609" y2="103.977"/>
  <line stroke-width="0.106" x1="62.091" y1="18.068" x2="81.659" y2="18.068"/>
  <line stroke-width="0.106" x1="66.685" y1="16.481" x2="81.688" y2="16.481"/>
  <polygon stroke="none" fill="#000000" points="70.609 18.245 70.236 20.364 70.983 20.364"/>
  <line stroke-width="0.106" x1="70.609" y1="54.564" x2="70.609" y2="20.152"/>
  <line stroke-width="0.106" x1="16.513" y1="108.65" x2="16.513" y2="121.016"/>
  <line stroke-width="0.106" x1="55.085" y1="108.65" x2="55.085" y2="121.016"/>
  <polygon stroke="none" fill="#000000" points="16.513 113.046 18.634 113.418 18.634 112.671"/>
  <line stroke-width="0.106" x1="27.228" y1="113.046" x2="18.422" y2="113.046"/>
  <polygon stroke="none" fill="#000000" points="54.746 113.046 52.627 112.671 52.627 113.418"/>
  <line stroke-width="0.106" x1="41.226" y1="113.046" x2="52.838" y2="113.046"/>
  <line stroke-width="0.106" x1="5.253" y1="102.987" x2="5.253" y2="114.793"/>
  <polygon stroke="none" fill="#000000" points="5.277 113.046 7.397 113.418 7.397 112.671"/>
  <line stroke-width="0.106" x1="10.481" y1="113.046" x2="7.184" y2="113.046"/>
  <polygon stroke="none" fill="#000000" points="16.513 113.046 14.394 112.671 14.394 113.418"/>
  <line stroke-width="0.106" x1="7.288" y1="113.046" x2="14.605" y2="113.046"/>
  <line stroke-width="0.106" x1="66.203" y1="103.15" x2="66.203" y2="113.507"/>
  <polygon stroke="none" fill="#000000" points="54.957 113.046 57.078 113.418 57.078 112.671"/>
  <line stroke-width="0.106" x1="63.646" y1="113.046" x2="56.865" y2="113.046"/>
  <polygon stroke="none" fill="#000000" points="65.784 113.046 63.664 112.671 63.664 113.418"/>
  <line stroke-width="0.106" x1="60.052" y1="113.046" x2="63.877" y2="113.046"/>
  <line stroke-width="0.106" x1="5.278" y1="21.66" x2="5.278" y2="7.628"/>
  <polygon stroke="none" fill="#000000" points="59.284 11.208 57.164 10.833 57.164 11.582"/>
  <line stroke-width="0.106" x1="44.283" y1="11.208" x2="57.377" y2="11.208"/>
  <line stroke-width="0.106" x1="12.079" y1="14.818" x2="12.079" y2="7.871"/>
  <polygon stroke="none" fill="#000000" points="59.38 11.208 61.5 11.582 61.5 10.833"/>
  <line stroke-width="0.106" x1="64.947" y1="11.208" x2="61.287" y2="11.208"/>
  <polygon stroke="none" fill="#000000" points="66.213 11.208 64.093 10.833 64.093 11.582"/>
  <line stroke-width="0.106" x1="61.353" y1="11.208" x2="64.305" y2="11.208"/>
  <polygon stroke="none" fill="#000000" points="5.28 11.044 7.4 11.416 7.4 10.669"/>
  <line stroke-width="0.106" x1="10.848" y1="11.044" x2="7.187" y2="11.044"/>
  <polygon stroke="none" fill="#000000" points="12.115 11.044 9.994 10.669 9.994 11.416"/>
  <line stroke-width="0.106" x1="7.253" y1="11.044" x2="10.207" y2="11.044"/>
 </g>
 <g id="_x0020_cable_x0020_layer">
 </g>
 <g id="symbol_x0020_layer">
 </g>
 <g id="text_x0020_layer">
  <text x="20.027" y="59.356" stroke="none" fill="#000000" font-family="'Arial'" font-size="3.528">Transformer cabinet</text>
 </g>
 <g id="text-_x0020_DO_x0020_NOT_x0020_translate">
  <text x="22.669" y="23.841" stroke="none" fill="#000000" font-family="'Arial'" font-size="3.528">ø 14</text>
  <text x="27.721" y="14.622" stroke="none" fill="#000000" font-family="'Arial'" font-size="3.528">(20.24 in)</text>
  <text x="28.71" y="11.06" stroke="none" fill="#000000" font-family="'Arial'" font-size="3.528">514 mm</text>
  <g>
   <text x="1.56" y="2.468" stroke="none" fill="#000000" font-family="'Arial'" font-size="3.528">43.00 mm</text>
   <text x="2.931" y="6.349" stroke="none" fill="#000000" font-family="'Arial'" font-size="3.528">(1.69 in)</text>
  </g>
  <g>
   <text x="72.359" y="11.524" stroke="none" fill="#000000" font-family="'Arial'" font-size="3.528">15 mm</text>
   <text x="71.28" y="15.404" stroke="none" fill="#000000" font-family="'Arial'" font-size="3.528">(0.59 in)</text>
  </g>
  <g>
   <text x="68.472" y="60.137" stroke="none" fill="#000000" font-family="'Arial'" font-size="3.528">865 mm</text>
   <text x="67.393" y="64.019" stroke="none" fill="#000000" font-family="'Arial'" font-size="3.528">(34.06 in)</text>
  </g>
  <g>
   <text x="2.75" y="117.712" stroke="none" fill="#000000" font-family="'Arial'" font-size="3.528">110 mm</text>
   <text x="2.652" y="121.593" stroke="none" fill="#000000" font-family="'Arial'" font-size="3.528">(4.33 in)</text>
  </g>
  <g>
   <text x="27.652" y="112.409" stroke="none" fill="#000000" font-family="'Arial'" font-size="3.528">380 mm</text>
   <text x="26.573" y="116.29" stroke="none" fill="#000000" font-family="'Arial'" font-size="3.528">(14.96 in)</text>
  </g>
  <g>
   <text x="55.786" y="117.712" stroke="none" fill="#000000" font-family="'Arial'" font-size="3.528">110 mm</text>
   <text x="55.686" y="121.593" stroke="none" fill="#000000" font-family="'Arial'" font-size="3.528">(4.33 in)</text>
  </g>
  <g>
   <text x="54.956" y="2.468" stroke="none" fill="#000000" font-family="'Arial'" font-size="3.528">43.00 mm</text>
   <text x="56.328" y="6.349" stroke="none" fill="#000000" font-family="'Arial'" font-size="3.528">(1.69 in)</text>
  </g>
 </g>
 <g id="callout_x0020_layer">
 </g>
</svg>
