<?xml version="1.0" encoding="UTF-8"?>
<!-- Generator: PTC Arbortext IsoDraw 7.4 M001 -->
<svg xmlns="http://www.w3.org/2000/svg" xmlns:xlink="http://www.w3.org/1999/xlink" width="85mm" height="132.312mm" viewBox="0 0 85 132.312" fill-rule="evenodd" clip-rule="evenodd" stroke="#000000" stroke-linecap="round" fill="none" xml:space="preserve" preserveAspectRatio="xMidYMid meet" zoomAndPan="magnify" version="1.1" contentScriptType="text/ecmascript" contentStyleType="text/css">
 <g id="_x0020_fill_x0020_layer">
 </g>
 <g id="Standard_x0020_layer">
 </g>
 <g id="85mm_x0020_hidden_x0020_Schneider_x0020_layer_x0020_for_x0020_editor">
  <polygon stroke="none" points="0 123.313 0 132.312 85 132.312 85 123.313 0 123.313"/>
 </g>
 <g id="cutout_x0020_layer">
  <polygon stroke-width="0.106" points="76.269 100.795 76.269 16.487 0.864 16.487 0.864 100.795 76.269 100.795"/>
 </g>
 <g id="outline_x0020_layer">
 </g>
 <g id="zoom_x0020_layer">
 </g>
 <g id="outline_x0020_on_x0020_zoom_x0020_layer">
 </g>
 <g id="600_x0020_mm_x0020_cabinet">
  <g>
   <g id="870-17662.PRT_5">
    <desc>870-17662.PRT</desc>
    <path stroke-width="0.106" d="M69.942 100.795L69.808 100.795L68.394 100.795C68.213 100.795 68.29 100.826 68.162 100.698L67.296 99.831L67.2 99.736"/>
    <path stroke-width="0.106" stroke-dasharray="1 1" d="M68.259 16.443L68.162 16.539L67.296 17.405C67.168 17.533 67.2 17.457 67.2 17.637L67.2 98.736"/>
    <path stroke-width="0.106" d="M67.2 98.736L67.2 99.6L67.2 99.736"/>
    <path stroke-width="0.106" d="M67.2 17.501L67.296 17.405L68.162 16.539C68.29 16.411 68.213 16.443 68.394 16.443L70.134 16.443L70.269 16.443"/>
    <g>
     <path stroke="none" fill="#808080" d="M69.227 27.432L69.263 27.661 69.245 27.775 69.227 27.89 69.123 28.097 69.04 28.178 68.959 28.26 68.855 28.314 68.751 28.367 68.522 28.402 68.295 28.367 68.087 28.26 68.006 28.178 67.924 28.097 67.87 27.993 67.819 27.89 67.783 27.661 67.801 27.547 67.819 27.432 67.87 27.329 67.924 27.225 68.087 27.062 68.191 27.01 68.295 26.957 68.409 26.939 68.522 26.92 68.751 26.957 68.855 27.01 68.959 27.062 69.123 27.225 69.227 27.432 69.263 27.661"/>
     <path stroke-width="0.2" d="M69.227 27.432L69.263 27.661L69.245 27.775L69.227 27.89L69.123 28.097L69.04 28.178L68.959 28.26L68.855 28.314L68.751 28.367L68.522 28.402L68.295 28.367L68.087 28.26L68.006 28.178L67.924 28.097L67.87 27.993L67.819 27.89L67.783 27.661L67.801 27.547L67.819 27.432L67.87 27.329L67.924 27.225L68.087 27.062L68.191 27.01L68.295 26.957L68.409 26.939L68.522 26.92L68.751 26.957L68.855 27.01L68.959 27.062L69.123 27.225L69.227 27.432L69.263 27.661"/>
    </g>
    <path stroke-width="0.2" fill="#808080" d="M69.263 97.513L69.227 97.284 69.123 97.078 69.04 96.995 68.959 96.914 68.855 96.861 68.751 96.808 68.522 96.772 68.295 96.808 68.087 96.914 68.006 96.995 67.924 97.078 67.87 97.18 67.819 97.284 67.783 97.513 67.801 97.628 67.819 97.742 67.87 97.846 67.924 97.948 68.087 98.112 68.191 98.165 68.295 98.218 68.409 98.236 68.522 98.254 68.751 98.218 68.855 98.165 68.959 98.112 69.123 97.948 69.227 97.742 69.263 97.513z"/>
    <path stroke-width="0.2" fill="#808080" d="M69.227 19.952L69.263 19.724 69.245 19.609 69.227 19.495 69.174 19.391 69.123 19.289 69.04 19.207 68.959 19.125 68.751 19.019 68.522 18.983 68.295 19.019 68.087 19.125 68.006 19.207 67.924 19.289 67.819 19.495 67.801 19.609 67.783 19.724 67.801 19.838 67.819 19.952 67.87 20.056 67.924 20.16 68.087 20.324 68.191 20.376 68.295 20.428 68.522 20.464 68.638 20.446 68.751 20.428 68.959 20.324 69.123 20.16 69.227 19.952z"/>
    <path stroke-width="0.2" fill="#808080" d="M69.263 58.618L69.227 58.39 69.174 58.286 69.123 58.182 68.959 58.02 68.855 57.966 68.751 57.914 68.522 57.878 68.295 57.914 68.087 58.02 68.006 58.101 67.924 58.182 67.87 58.286 67.819 58.39 67.783 58.618 67.801 58.732 67.819 58.847 67.87 58.951 67.924 59.054 68.087 59.218 68.191 59.271 68.295 59.323 68.409 59.341 68.522 59.359 68.751 59.323 68.855 59.271 68.959 59.218 69.123 59.054 69.227 58.847 69.263 58.618z"/>
    <path stroke-width="0.2" fill="#808080" d="M69.227 89.346L69.263 89.575 69.245 89.689 69.227 89.805 69.174 89.908 69.123 90.01 69.04 90.093 68.959 90.174 68.751 90.281 68.522 90.316 68.295 90.281 68.087 90.174 68.006 90.093 67.924 90.01 67.87 89.908 67.819 89.805 67.783 89.575 67.801 89.462 67.819 89.346 67.87 89.243 67.924 89.141 68.087 88.977 68.191 88.924 68.295 88.87 68.522 88.834 68.638 88.852 68.751 88.87 68.959 88.977 69.123 89.141 69.227 89.346z"/>
   </g>
  </g>
  <g>
   <g id="870-17662.PRT_5">
    <desc>870-17662.PRT</desc>
    <path stroke-width="0.106" d="M7.214 16.443L7.349 16.443L8.762 16.443C8.943 16.443 8.867 16.411 8.993 16.539L9.861 17.405L9.957 17.501"/>
    <path stroke-width="0.106" stroke-dasharray="1 1" d="M8.897 100.795L8.993 100.698L9.861 99.831C9.989 99.703 9.957 99.781 9.957 99.6L9.957 18.501"/>
    <path stroke-width="0.106" d="M9.957 18.501L9.957 17.637L9.957 17.501"/>
    <path stroke-width="0.106" d="M9.957 99.736L9.861 99.831L8.993 100.698C8.929 100.763 8.917 100.787 8.897 100.795"/>
    <g>
     <path stroke="none" fill="#808080" d="M7.929 89.805L7.892 89.575 7.91 89.462 7.929 89.346 8.035 89.141 8.115 89.058 8.198 88.977 8.301 88.924 8.404 88.87 8.634 88.834 8.862 88.87 9.069 88.977 9.15 89.058 9.233 89.141 9.285 89.243 9.339 89.346 9.375 89.575 9.356 89.689 9.339 89.805 9.285 89.908 9.233 90.01 9.069 90.174 8.965 90.227 8.862 90.281 8.747 90.299 8.634 90.316 8.404 90.281 8.301 90.227 8.198 90.174 8.035 90.01 7.929 89.805 7.892 89.575"/>
     <path stroke-width="0.2" d="M7.929 89.805L7.892 89.575L7.91 89.462L7.929 89.346L8.035 89.141L8.115 89.058L8.198 88.977L8.301 88.924L8.404 88.87L8.634 88.834L8.862 88.87L9.069 88.977L9.15 89.058L9.233 89.141L9.285 89.243L9.339 89.346L9.375 89.575L9.356 89.689L9.339 89.805L9.285 89.908L9.233 90.01L9.069 90.174L8.965 90.227L8.862 90.281L8.747 90.299L8.634 90.316L8.404 90.281L8.301 90.227L8.198 90.174L8.035 90.01L7.929 89.805L7.892 89.575"/>
    </g>
    <path stroke-width="0.2" fill="#808080" d="M7.892 19.724L7.929 19.952 8.035 20.16 8.115 20.242 8.198 20.324 8.301 20.376 8.404 20.428 8.634 20.464 8.862 20.428 9.069 20.324 9.15 20.242 9.233 20.16 9.285 20.056 9.339 19.952 9.375 19.724 9.356 19.609 9.339 19.495 9.285 19.391 9.233 19.289 9.069 19.125 8.965 19.071 8.862 19.019 8.747 19.001 8.634 18.983 8.404 19.019 8.301 19.071 8.198 19.125 8.035 19.289 7.929 19.495 7.892 19.724z"/>
    <path stroke-width="0.2" fill="#808080" d="M7.929 97.284L7.892 97.513 7.91 97.628 7.929 97.742 7.982 97.846 8.035 97.948 8.115 98.031 8.198 98.112 8.404 98.218 8.634 98.254 8.862 98.218 9.069 98.112 9.15 98.031 9.233 97.948 9.339 97.742 9.356 97.628 9.375 97.513 9.356 97.399 9.339 97.284 9.285 97.18 9.233 97.078 9.069 96.914 8.965 96.861 8.862 96.808 8.634 96.772 8.519 96.79 8.404 96.808 8.198 96.914 8.035 97.078 7.929 97.284z"/>
    <path stroke-width="0.2" fill="#808080" d="M7.892 58.618L7.929 58.847 7.982 58.951 8.035 59.054 8.198 59.218 8.301 59.271 8.404 59.323 8.634 59.359 8.862 59.323 9.069 59.218 9.15 59.136 9.233 59.054 9.285 58.951 9.339 58.847 9.375 58.618 9.356 58.503 9.339 58.39 9.285 58.286 9.233 58.182 9.069 58.02 8.965 57.966 8.862 57.914 8.747 57.896 8.634 57.878 8.404 57.914 8.301 57.966 8.198 58.02 8.035 58.182 7.929 58.39 7.892 58.618z"/>
    <path stroke-width="0.2" fill="#808080" d="M7.929 27.89L7.892 27.661 7.91 27.547 7.929 27.432 7.982 27.329 8.035 27.225 8.115 27.143 8.198 27.062 8.404 26.957 8.634 26.92 8.862 26.957 9.069 27.062 9.15 27.143 9.233 27.225 9.285 27.329 9.339 27.432 9.375 27.661 9.356 27.775 9.339 27.89 9.285 27.993 9.233 28.097 9.069 28.26 8.965 28.314 8.862 28.367 8.634 28.402 8.519 28.385 8.404 28.367 8.198 28.26 8.035 28.097 7.929 27.89z"/>
   </g>
  </g>
 </g>
 <g id="arrow_x0020_layer">
  <g>
  </g>
  <g>
  </g>
  <polygon stroke="none" fill="#000000" points="68.378 19.783 67.825 17.702 67.147 18.016"/>
  <line stroke-width="0.106" x1="64.576" y1="11.589" x2="67.575" y2="18.051"/>
  <line stroke-width="0.106" x1="64.576" y1="11.589" x2="77.986" y2="11.589"/>
  <g>
   <line stroke-width="0.106" x1="76.302" y1="16.443" x2="83.807" y2="16.443"/>
   <polygon stroke="none" fill="#000000" points="81.644 100.703 82.018 98.584 81.269 98.584"/>
   <line stroke-width="0.106" x1="81.644" y1="68.013" x2="81.644" y2="98.796"/>
   <polygon stroke="none" fill="#000000" points="81.644 16.353 81.269 18.472 82.018 18.472"/>
   <line stroke-width="0.106" x1="81.644" y1="49.042" x2="81.644" y2="18.26"/>
   <text transform="matrix(0 -1 1 0 82.349 65.42)" stroke="none" fill="#000000" font-family="'Mangal'" font-size="3.815">797 mm</text>
  </g>
  <line stroke-width="0.106" x1="8.615" y1="27.663" x2="21.789" y2="27.663"/>
  <polygon stroke="none" fill="#000000" points="19.666 58.715 20.039 56.594 19.292 56.594"/>
  <line stroke-width="0.106" x1="19.666" y1="52.753" x2="19.666" y2="56.807"/>
  <polygon stroke="none" fill="#000000" points="19.666 27.757 19.292 29.876 20.039 29.876"/>
  <line stroke-width="0.106" x1="19.666" y1="33.716" x2="19.666" y2="29.664"/>
  <text transform="matrix(0 -1 1 0 20.371 51.369)" stroke="none" fill="#000000" font-family="'Mangal'" font-size="3.815">292,5 mm</text>
  <line stroke-width="0.106" x1="8.708" y1="89.602" x2="21.806" y2="89.602"/>
  <line stroke-width="0.106" x1="8.609" y1="58.621" x2="21.769" y2="58.621"/>
  <polygon stroke="none" fill="#000000" points="19.666 89.441 20.039 87.32 19.292 87.32"/>
  <line stroke-width="0.106" x1="19.666" y1="83.412" x2="19.666" y2="87.533"/>
  <polygon stroke="none" fill="#000000" points="19.666 58.715 19.292 60.835 20.039 60.835"/>
  <line stroke-width="0.106" x1="19.666" y1="64.709" x2="19.666" y2="60.622"/>
  <text transform="matrix(0 -1 1 0 20.371 82.361)" stroke="none" fill="#000000" font-family="'Mangal'" font-size="3.815">292,5 mm</text>
  <line stroke-width="0.106" x1="19.62" y1="19.905" x2="19.62" y2="27.602"/>
  <text transform="matrix(0 -1 1 0 18.599 114.367)" stroke="none" fill="#000000" font-family="'Mangal'" font-size="3.815">75 mm</text>
  <text transform="matrix(0 -1 1 0 12.727 114.015)" stroke="none" fill="#000000" font-family="'Mangal'" font-size="3.815">31 mm</text>
  <polygon stroke="none" fill="#000000" points="14.195 100.656 13.821 102.775 14.57 102.775"/>
  <line stroke-width="0.106" x1="14.195" y1="114.418" x2="14.195" y2="102.563"/>
  <polygon stroke="none" fill="#000000" points="19.634 97.611 19.26 99.731 20.007 99.731"/>
  <line stroke-width="0.106" x1="19.634" y1="114.165" x2="19.634" y2="99.519"/>
  <line stroke-width="0.106" x1="8.567" y1="97.596" x2="21.846" y2="97.596"/>
  <line stroke-width="0.106" x1="8.853" y1="100.811" x2="16.521" y2="100.811"/>
  <line stroke-width="0.106" x1="19.634" y1="89.677" x2="19.634" y2="97.519"/>
  <line stroke-width="0.106" x1="14.195" y1="97.596" x2="14.195" y2="100.656"/>
  <text transform="matrix(0 -1 1 0 18.949 13.589)" stroke="none" fill="#000000" font-family="'Mangal'" font-size="3.815">75 mm</text>
  <text transform="matrix(0 -1 1 0 13.589 13.196)" stroke="none" fill="#000000" font-family="'Mangal'" font-size="3.815">31 mm</text>
  <polygon stroke="none" fill="#000000" points="14.195 16.399 14.57 14.279 13.821 14.279"/>
  <line stroke-width="0.106" x1="14.195" y1="1.47" x2="14.195" y2="14.492"/>
  <polygon stroke="none" fill="#000000" points="19.62 19.789 19.992 17.669 19.245 17.669"/>
  <line stroke-width="0.106" x1="19.62" y1="0.053" x2="19.62" y2="17.881"/>
  <line stroke-width="0.106" x1="8.989" y1="16.498" x2="16.644" y2="16.498"/>
  <line stroke-width="0.106" x1="8.455" y1="19.789" x2="20.545" y2="19.789"/>
  <line stroke-width="0.106" x1="14.195" y1="16.399" x2="14.195" y2="19.75"/>
  <g>
   <polygon stroke="none" fill="#000000" points="1.028 129.536 3.148 129.909 3.148 129.162"/>
   <line stroke-width="0.106" x1="29.051" y1="129.536" x2="2.936" y2="129.536"/>
   <polygon stroke="none" fill="#000000" points="76.269 129.536 74.149 129.162 74.149 129.909"/>
   <line stroke-width="0.106" x1="48.043" y1="129.536" x2="74.361" y2="129.536"/>
   <text x="31.657" y="130.241" stroke="none" fill="#000000" font-family="'Mangal'" font-size="3.815">600 mm</text>
  </g>
  <g>
   <line stroke-width="0.106" x1="76.269" y1="131.064" x2="76.269" y2="100.795"/>
  </g>
  <text x="4.809" y="124.259" stroke="none" fill="#000000" font-family="'Mangal'" font-size="3.815">73,5 mm</text>
  <line stroke-width="0.106" x1="76.269" y1="100.795" x2="83.774" y2="100.795"/>
  <line stroke-width="0.106" x1="0.855" y1="131.173" x2="0.855" y2="100.597"/>
  <g>
   <line stroke-width="0.106" x1="8.567" y1="97.596" x2="8.567" y2="121.12"/>
   <line stroke-width="0.106" x1="68.527" y1="97.861" x2="68.527" y2="121.12"/>
   <polygon stroke="none" fill="#000000" points="8.567 118.956 10.686 119.331 10.686 118.582"/>
   <line stroke-width="0.106" x1="28.998" y1="118.956" x2="10.474" y2="118.956"/>
   <polygon stroke="none" fill="#000000" points="68.527 118.956 66.406 118.582 66.406 119.331"/>
   <line stroke-width="0.106" x1="48.095" y1="118.956" x2="66.618" y2="118.956"/>
   <text x="31.655" y="119.662" stroke="none" fill="#000000" font-family="'Mangal'" font-size="3.815">453 mm</text>
  </g>
  <text x="59.026" y="124.259" stroke="none" fill="#000000" font-family="'Mangal'" font-size="3.815">73,5 mm</text>
  <line stroke-width="0.106" x1="8.567" y1="118.956" x2="1.004" y2="118.956"/>
  <polygon stroke="none" fill="#000000" points="76.102 119.132 75.022 120.993 75.722 121.251"/>
  <line stroke-width="0.106" x1="73.837" y1="125.302" x2="75.445" y2="120.924"/>
  <line stroke-width="0.106" x1="57.658" y1="125.302" x2="73.837" y2="125.302"/>
  <polygon stroke="none" fill="#000000" points="1.004 118.956 1.3 121.09 2.011 120.859"/>
  <line stroke-width="0.106" x1="3.049" y1="125.302" x2="1.589" y2="120.772"/>
  <line stroke-width="0.106" x1="19.228" y1="125.302" x2="3.049" y2="125.302"/>
  <line stroke-width="0.106" x1="68.527" y1="118.956" x2="76.269" y2="118.956"/>
 </g>
 <g id="_x0020_cable_x0020_layer">
 </g>
 <g id="symbol_x0020_layer">
 </g>
 <g id="text_x0020_layer">
 </g>
 <g id="text-_x0020_DO_x0020_NOT_x0020_translate">
  <text x="63.801" y="10.82" stroke="none" fill="#000000" font-family="'Arial'" font-size="3.528">10 x ø14</text>
 </g>
 <g id="callout_x0020_layer">
 </g>
</svg>
