<?xml version="1.0" encoding="UTF-8"?>
<!-- Generator: PTC Arbortext IsoDraw 7.4 M001 -->
<svg xmlns="http://www.w3.org/2000/svg" xmlns:xlink="http://www.w3.org/1999/xlink" width="120mm" height="139.506mm" viewBox="0 0 120 139.506" fill-rule="evenodd" clip-rule="evenodd" stroke="#000000" stroke-linecap="round" fill="none" xml:space="preserve" preserveAspectRatio="xMidYMid meet" zoomAndPan="magnify" version="1.1" contentScriptType="text/ecmascript" contentStyleType="text/css">
 <g id="_x0020_fill_x0020_layer">
 </g>
 <g id="Standard_x0020_layer">
  <g id="0g-pxcupsn100A-DI_no doors_75 kW Dual transformer_no doors">
   <desc>0g-pxcupsn100A-DI_no doors_75 kW Dual transformer_no doors</desc>
   <g id="ASM0025.ASM">
    <desc>ASM0025.ASM</desc>
    <g id="XFMR_CABINET_DUAL_100KVA.ASM">
     <desc>XFMR_CABINET_DUAL_100KVA.ASM</desc>
     <g id="870-96281_WFILTERS.ASM">
      <desc>870-96281_WFILTERS.ASM</desc>
      <g id="NSYCAG223LPF_PSP.PRT_15">
       <desc>NSYCAG223LPF_PSP.PRT</desc>
       <line stroke-width="0.106" x1="55.112" y1="69.897" x2="55.112" y2="72.302"/>
       <line stroke-width="0.106" x1="54.396" y1="70.828" x2="54.396" y2="71.664"/>
       <line stroke-width="0.106" x1="54.043" y1="72.171" x2="54.043" y2="72.022"/>
       <line stroke-width="0.106" x1="53.521" y1="71.329" x2="53.521" y2="72.108"/>
       <line stroke-width="0.106" x1="55.02" y1="72.292" x2="55.02" y2="69.98"/>
       <line stroke-width="0.106" x1="55.24" y1="69.781" x2="55.24" y2="72.319"/>
       <line stroke-width="0.106" x1="54.417" y1="71.647" x2="54.811" y2="71.694"/>
       <line stroke-width="0.106" x1="55.524" y1="72.353" x2="55.524" y2="69.527"/>
       <line stroke-width="0.106" x1="55.334" y1="72.329" x2="55.334" y2="69.697"/>
       <line stroke-width="0.106" x1="54.332" y1="71.757" x2="54.332" y2="71.99"/>
       <line stroke-width="0.106" x1="54.046" y1="71.766" x2="53.682" y2="72.045"/>
       <line stroke-width="0.106" x1="54.234" y1="71.745" x2="54.234" y2="71.712"/>
       <line stroke-width="0.106" x1="54.234" y1="71.745" x2="53.802" y2="72.143"/>
       <line stroke-width="0.106" x1="54.234" y1="71.745" x2="54.332" y2="71.757"/>
       <line stroke-width="0.106" x1="54.689" y1="70.962" x2="54.811" y2="70.936"/>
       <line stroke-width="0.106" x1="54.689" y1="70.67" x2="54.811" y2="70.724"/>
       <line stroke-width="0.106" x1="54.689" y1="70.784" x2="54.811" y2="70.799"/>
       <line stroke-width="0.106" x1="54.689" y1="70.844" x2="54.811" y2="70.859"/>
       <line stroke-width="0.106" x1="54.399" y1="70.539" x2="54.54" y2="70.602"/>
       <line stroke-width="0.106" x1="54.195" y1="70.724" x2="54.307" y2="70.737"/>
       <line stroke-width="0.106" x1="54.232" y1="70.789" x2="54.139" y2="70.777"/>
       <line stroke-width="0.106" x1="54.954" y1="70.039" x2="54.954" y2="72.284"/>
       <line stroke-width="0.106" x1="54.328" y1="72.206" x2="54.674" y2="72.131"/>
       <line stroke-width="0.106" x1="54.061" y1="71.257" x2="54.069" y2="71.414"/>
       <line stroke-width="0.106" x1="54.332" y1="71.99" x2="54.094" y2="72.177"/>
       <line stroke-width="0.106" x1="54.234" y1="72.076" x2="54.122" y2="72.182"/>
       <line stroke-width="0.106" x1="54.234" y1="72.076" x2="54.811" y2="72.147"/>
       <line stroke-width="0.106" x1="55.384" y1="69.653" x2="55.384" y2="72.337"/>
       <line stroke-width="0.106" x1="54.811" y1="71.694" x2="54.811" y2="70.391"/>
       <line stroke-width="0.106" x1="54.593" y1="70.365" x2="54.811" y2="70.391"/>
       <line stroke-width="0.106" x1="53.682" y1="71.185" x2="53.682" y2="72.045"/>
       <line stroke-width="0.106" x1="54.811" y1="71.525" x2="54.57" y2="71.528"/>
       <line stroke-width="0.106" x1="54.689" y1="70.625" x2="54.689" y2="71.436"/>
       <line stroke-width="0.106" x1="54.811" y1="72.147" x2="54.811" y2="72.266"/>
       <line stroke-width="0.106" x1="53.686" y1="71.182" x2="53.682" y2="71.947"/>
       <line stroke-width="0.106" x1="53.61" y1="71.25" x2="53.61" y2="72.118"/>
       <line stroke-width="0.106" x1="55.648" y1="72.368" x2="55.648" y2="69.415"/>
       <path stroke-width="0.106" d="M54.332 71.757L54.043 72.022L53.854 72.149"/>
       <path stroke-width="0.106" d="M53.95 70.944L54.155 70.891L54.191 70.882L54.396 70.828L54.689 70.625"/>
       <path stroke-width="0.106" d="M54.139 70.774L54.097 70.823"/>
       <path stroke-width="0.106" d="M54.689 70.625L54.508 70.597L54.234 70.789L54.078 70.828"/>
       <path stroke-width="0.106" d="M53.682 71.947C53.686 71.825 53.887 71.813 53.954 71.793L54.192 71.724L54.396 71.664L54.689 71.436"/>
      </g>
     </g>
     <g id="21401-2448701.PRT_3">
      <desc>21401-2448701.PRT</desc>
      <path stroke-width="0.106" d="M4.33 72.034C4.33 71.856 4.339 71.671 4.33 71.495C4.328 71.468 4.304 71.45 4.286 71.435L4.174 71.334L4.142 71.313C4.049 71.26 3.93 71.26 3.826 71.26C3.734 71.266 3.617 71.269 3.544 71.331L3.414 71.447L3.39 71.477L3.384 71.507L3.384 71.718L3.384 71.832L3.384 72.045"/>
      <path stroke-width="0.106" d="M3.742 71.474L3.693 71.649L3.693 71.971"/>
      <path stroke-width="0.106" d="M4.171 71.409C4.193 71.376 4.195 71.368 4.174 71.334"/>
      <path stroke-width="0.106" d="M4.301 71.555C4.331 71.518 4.322 71.537 4.33 71.495"/>
      <path stroke-width="0.106" d="M3.742 71.474C3.878 71.486 4.009 71.483 4.137 71.43"/>
      <path stroke-width="0.106" d="M4.261 71.582C4.136 71.638 4.011 71.652 3.875 71.658L3.693 71.649"/>
      <path stroke-width="0.106" d="M3.544 71.331L3.525 71.355C3.517 71.375 3.527 71.391 3.54 71.405C3.575 71.441 3.629 71.45 3.674 71.462"/>
      <path stroke-width="0.106" d="M3.384 71.507C3.42 71.596 3.525 71.614 3.609 71.635"/>
     </g>
     <g id="21401-2448701.PRT_1">
      <desc>21401-2448701.PRT</desc>
      <path stroke-width="0.106" d="M46.289 76.945L46.289 76.611C46.286 76.584 46.264 76.567 46.246 76.552L46.134 76.451L46.101 76.43C46.008 76.376 45.889 76.376 45.784 76.376C45.692 76.382 45.578 76.385 45.503 76.448L45.372 76.563L45.348 76.593L45.344 76.623L45.344 76.835L45.344 76.95L45.344 77.162"/>
      <path stroke-width="0.106" d="M45.701 76.59L45.652 76.765L45.652 77.087"/>
      <path stroke-width="0.106" d="M46.13 76.525C46.152 76.493 46.155 76.486 46.134 76.451"/>
      <path stroke-width="0.106" d="M46.259 76.671C46.289 76.634 46.28 76.655 46.289 76.611"/>
      <path stroke-width="0.106" d="M45.701 76.59C45.837 76.602 45.968 76.599 46.095 76.548"/>
      <path stroke-width="0.106" d="M46.219 76.7C46.094 76.754 45.969 76.769 45.835 76.775L45.652 76.765"/>
      <path stroke-width="0.106" d="M45.634 76.579C45.588 76.567 45.533 76.557 45.499 76.522C45.485 76.509 45.476 76.492 45.484 76.472L45.503 76.448"/>
      <path stroke-width="0.106" d="M45.344 76.623C45.381 76.712 45.484 76.73 45.569 76.751"/>
     </g>
     <g id="21401-2448701.PRT">
      <desc>21401-2448701.PRT</desc>
      <path stroke-width="0.106" d="M61.271 62.429C61.371 62.423 61.5 62.432 61.591 62.482L61.621 62.506L61.734 62.606C61.752 62.621 61.776 62.637 61.777 62.665L61.777 63"/>
      <path stroke-width="0.106" d="M61.707 62.753C61.584 62.808 61.457 62.823 61.323 62.829L61.271 62.828"/>
      <path stroke-width="0.106" d="M61.585 62.601C61.503 62.634 61.423 62.645 61.337 62.652L61.271 62.651"/>
      <path stroke-width="0.106" d="M61.777 62.665C61.77 62.709 61.779 62.688 61.749 62.725"/>
      <path stroke-width="0.106" d="M61.621 62.506C61.643 62.539 61.642 62.548 61.618 62.579"/>
     </g>
     <g id="04-73410.PRT_3">
      <desc>04-73410.PRT</desc>
      <line stroke-width="0.106" x1="61.777" y1="62.773" x2="62.005" y2="62.801"/>
      <line stroke-width="0.106" x1="61.459" y1="64.072" x2="61.459" y2="63.292"/>
      <path stroke-width="0.106" d="M61.777 63C61.755 63.064 61.688 63.091 61.625 63.109C61.515 63.143 61.401 63.149 61.286 63.151L61.271 63.151"/>
      <path stroke-width="0.106" d="M62.005 62.801L62.158 63.098L62.158 63.31L62.158 63.667L62.158 63.88"/>
      <path stroke-width="0.106" d="M61.131 64.033L61.459 64.072L61.662 64.016L61.954 63.936L62.158 63.88"/>
      <path stroke-width="0.106" d="M62.158 63.098C61.926 63.162 61.692 63.228 61.459 63.292L61.265 63.268"/>
     </g>
     <g id="04-73410.PRT_2">
      <desc>04-73410.PRT</desc>
      <line stroke-width="0.106" x1="44.962" y1="76.834" x2="45.344" y2="76.73"/>
      <line stroke-width="0.106" x1="46.289" y1="76.718" x2="46.515" y2="76.746"/>
      <line stroke-width="0.106" x1="45.969" y1="77.237" x2="45.969" y2="78.019"/>
      <path stroke-width="0.106" d="M46.289 76.945C46.265 77.01 46.198 77.037 46.137 77.055C46.027 77.09 45.911 77.096 45.798 77.096C45.686 77.093 45.573 77.084 45.469 77.046C45.412 77.027 45.35 76.998 45.344 76.933"/>
      <path stroke-width="0.106" d="M44.962 76.834L44.962 77.046L44.962 77.403L44.962 77.615L45.115 77.914"/>
      <path stroke-width="0.106" d="M46.67 77.825C46.436 77.89 46.204 77.954 45.969 78.019L45.115 77.914"/>
      <path stroke-width="0.106" d="M46.515 76.746L46.67 77.045L46.67 77.257L46.67 77.614L46.67 77.825"/>
      <path stroke-width="0.106" d="M46.67 77.045C46.436 77.109 46.204 77.174 45.969 77.237L45.115 77.134"/>
      <path stroke-width="0.106" d="M44.962 76.834L45.115 77.134L45.115 77.346L45.115 77.701L45.115 77.914"/>
     </g>
     <g id="04-73410.PRT_1">
      <desc>04-73410.PRT</desc>
      <line stroke-width="0.106" x1="3.003" y1="71.718" x2="3.384" y2="71.612"/>
      <line stroke-width="0.106" x1="4.33" y1="71.602" x2="4.557" y2="71.629"/>
      <line stroke-width="0.106" x1="4.011" y1="72.121" x2="4.011" y2="72.902"/>
      <path stroke-width="0.106" d="M4.33 71.829C4.307 71.894 4.24 71.92 4.177 71.938C4.067 71.972 3.952 71.978 3.839 71.98C3.727 71.975 3.615 71.968 3.509 71.93C3.454 71.909 3.391 71.882 3.384 71.816"/>
      <path stroke-width="0.106" d="M3.003 71.718L3.003 71.93L3.003 72.287L3.003 72.498L3.157 72.798"/>
      <path stroke-width="0.106" d="M4.711 72.709C4.477 72.772 4.245 72.837 4.011 72.902L3.157 72.798"/>
      <path stroke-width="0.106" d="M4.557 71.629L4.711 71.927L4.711 72.14L4.711 72.496L4.711 72.709"/>
      <path stroke-width="0.106" d="M4.711 71.927C4.477 71.992 4.245 72.057 4.011 72.121L3.157 72.016"/>
      <path stroke-width="0.106" d="M3.003 71.718L3.157 72.016L3.157 72.228L3.157 72.585L3.157 72.798"/>
     </g>
     <g id="04-73330.PRT_6">
      <desc>04-73330.PRT</desc>
      <path stroke-width="0.106" d="M3.024 72.54C2.98 72.597 3.003 72.701 3.003 72.756C3.004 72.876 3.141 72.933 3.238 72.966C3.402 73.024 3.577 73.045 3.748 73.052C3.966 73.061 4.19 73.048 4.4 72.989C4.49 72.965 4.593 72.932 4.663 72.864C4.682 72.847 4.706 72.816 4.711 72.79L4.711 72.709"/>
      <path stroke-width="0.106" d="M3.891 72.888L3.863 72.888C3.649 72.884 3.444 72.862 3.238 72.801"/>
      <path stroke-width="0.106" d="M3.157 72.766C3.099 72.736 3.023 72.698 3.004 72.628L3.003 72.588"/>
      <path stroke-width="0.106" d="M4.618 72.733C4.453 72.823 4.278 72.855 4.094 72.876"/>
     </g>
     <g id="04-73330.PRT_5">
      <desc>04-73330.PRT</desc>
      <path stroke-width="0.106" d="M62.158 63.88L62.158 63.96C62.155 63.987 62.13 64.018 62.11 64.036C62.061 64.081 61.996 64.111 61.932 64.134C61.734 64.206 61.521 64.219 61.311 64.225C61.228 64.224 61.146 64.222 61.064 64.213"/>
      <path stroke-width="0.106" d="M61.338 64.058L61.311 64.058L61.195 64.057L61.124 64.052"/>
      <path stroke-width="0.106" d="M62.066 63.905C61.902 63.994 61.725 64.025 61.54 64.048"/>
     </g>
     <g id="04-73328.PRT_8">
      <desc>04-73328.PRT</desc>
      <line stroke-width="0.106" x1="5.04" y1="72.915" x2="5.04" y2="73.063"/>
      <path stroke-width="0.106" d="M3.003 72.462C2.871 72.501 2.702 72.561 2.624 72.683C2.58 72.751 2.599 72.802 2.599 72.89L2.599 72.948C2.609 72.995 2.641 73.034 2.677 73.066C2.758 73.138 2.866 73.182 2.968 73.215C3.225 73.301 3.501 73.329 3.77 73.337C4.054 73.343 4.341 73.322 4.615 73.253C4.737 73.222 4.86 73.183 4.966 73.117C5.011 73.09 5.06 73.052 5.091 73.006C5.134 72.936 5.115 72.885 5.115 72.799L5.115 72.739C5.105 72.692 5.072 72.653 5.038 72.623C4.947 72.543 4.825 72.495 4.711 72.462"/>
      <path stroke-width="0.106" d="M5.115 72.799L5.091 72.858C5.019 72.968 4.87 73.027 4.751 73.066C4.435 73.171 4.1 73.188 3.77 73.188C3.46 73.174 3.137 73.15 2.85 73.022C2.756 72.981 2.625 72.914 2.599 72.802L2.599 72.742"/>
     </g>
     <g id="04-73328.PRT_6">
      <desc>04-73328.PRT</desc>
      <line stroke-width="0.106" x1="62.487" y1="64.087" x2="62.487" y2="64.233"/>
      <path stroke-width="0.106" d="M62.158 63.634C62.289 63.67 62.457 63.731 62.536 63.85C62.57 63.901 62.563 63.912 62.563 63.969L62.563 64.117C62.554 64.191 62.47 64.253 62.414 64.289C62.307 64.353 62.185 64.393 62.064 64.424C61.786 64.492 61.503 64.507 61.219 64.507L61.04 64.498L60.939 64.489"/>
      <path stroke-width="0.106" d="M62.563 63.969L62.537 64.028C62.466 64.14 62.317 64.197 62.2 64.236C61.884 64.341 61.548 64.358 61.219 64.359L61.04 64.35L61.015 64.349"/>
     </g>
     <g id="04-73330.PRT_4">
      <desc>04-73330.PRT</desc>
      <path stroke-width="0.106" d="M44.984 77.658C44.939 77.713 44.962 77.819 44.962 77.871C44.963 77.993 45.1 78.049 45.198 78.084C45.36 78.14 45.536 78.162 45.707 78.168C45.924 78.179 46.149 78.165 46.359 78.106C46.45 78.081 46.551 78.048 46.622 77.981C46.64 77.963 46.665 77.933 46.67 77.906L46.67 77.825"/>
      <path stroke-width="0.106" d="M45.85 78.004L45.823 78.004C45.609 78.001 45.404 77.98 45.198 77.917"/>
      <path stroke-width="0.106" d="M45.115 77.884C45.057 77.852 44.981 77.816 44.963 77.745L44.962 77.706"/>
      <path stroke-width="0.106" d="M46.576 77.85C46.412 77.941 46.237 77.971 46.052 77.993"/>
     </g>
     <g id="04-73328.PRT_4">
      <desc>04-73328.PRT</desc>
      <line stroke-width="0.106" x1="47" y1="78.033" x2="47" y2="78.18"/>
      <path stroke-width="0.106" d="M44.962 77.579C44.831 77.617 44.661 77.677 44.582 77.799C44.539 77.867 44.557 77.92 44.557 78.006L44.557 78.066C44.569 78.112 44.6 78.152 44.636 78.183C44.718 78.254 44.825 78.299 44.926 78.331C45.183 78.417 45.46 78.447 45.729 78.453C46.012 78.459 46.301 78.438 46.575 78.37C46.695 78.34 46.819 78.299 46.924 78.234C46.97 78.206 47.02 78.168 47.049 78.123C47.094 78.054 47.075 78.001 47.075 77.915L47.073 77.855C47.064 77.81 47.03 77.769 46.996 77.739C46.905 77.659 46.784 77.612 46.67 77.579"/>
      <path stroke-width="0.106" d="M47.075 77.915L47.049 77.974C46.978 78.085 46.829 78.143 46.71 78.183C46.395 78.289 46.06 78.305 45.729 78.305C45.42 78.29 45.097 78.266 44.808 78.14C44.715 78.097 44.584 78.031 44.557 77.918L44.557 77.858"/>
     </g>
     <g id="MB-432-0004.ASM_1">
      <desc>MB-432-0004.ASM</desc>
      <g id="MB-432-0002_X3_LABEL.PRT_1">
       <desc>MB-432-0002_X3_LABEL.PRT</desc>
       <line stroke-width="0.106" x1="12.564" y1="61.728" x2="12.564" y2="64.069"/>
       <line stroke-width="0.106" x1="12.75" y1="64.093" x2="12.564" y2="64.069"/>
       <line stroke-width="0.106" x1="12.75" y1="61.561" x2="12.564" y2="61.728"/>
       <line stroke-width="0.106" x1="12.75" y1="61.75" x2="12.564" y2="61.728"/>
       <line stroke-width="0.106" x1="12.75" y1="61.75" x2="12.75" y2="64.093"/>
      </g>
      <g id="MB-432-0002_X2_LABEL.PRT_1">
       <desc>MB-432-0002_X2_LABEL.PRT</desc>
       <line stroke-width="0.106" x1="12.564" y1="51.97" x2="12.564" y2="54.311"/>
       <line stroke-width="0.106" x1="12.75" y1="54.335" x2="12.564" y2="54.311"/>
       <line stroke-width="0.106" x1="12.75" y1="51.802" x2="12.564" y2="51.97"/>
       <line stroke-width="0.106" x1="12.75" y1="51.993" x2="12.564" y2="51.97"/>
       <line stroke-width="0.106" x1="12.75" y1="51.993" x2="12.75" y2="54.335"/>
      </g>
      <g id="MB-432-0002_X1_LABEL.PRT_1">
       <desc>MB-432-0002_X1_LABEL.PRT</desc>
       <line stroke-width="0.106" x1="12.564" y1="33.314" x2="12.564" y2="35.655"/>
       <line stroke-width="0.106" x1="12.75" y1="35.679" x2="12.564" y2="35.655"/>
       <line stroke-width="0.106" x1="12.75" y1="33.146" x2="12.564" y2="33.314"/>
       <line stroke-width="0.106" x1="12.75" y1="33.337" x2="12.564" y2="33.314"/>
       <line stroke-width="0.106" x1="12.75" y1="33.337" x2="12.75" y2="35.679"/>
      </g>
      <g id="432-0002_X0_LABEL_.PRT_1">
       <desc>432-0002_X0_LABEL_.PRT</desc>
       <line stroke-width="0.106" x1="12.564" y1="21.763" x2="12.564" y2="24.105"/>
       <line stroke-width="0.106" x1="12.75" y1="24.128" x2="12.564" y2="24.105"/>
       <line stroke-width="0.106" x1="12.75" y1="21.596" x2="12.564" y2="21.763"/>
       <line stroke-width="0.106" x1="12.75" y1="21.786" x2="12.564" y2="21.763"/>
       <line stroke-width="0.106" x1="12.75" y1="21.786" x2="12.75" y2="24.128"/>
      </g>
      <g id="TRAFO_PROFILE_-_600_MB.PRT_3">
       <desc>TRAFO_PROFILE_-_600_MB.PRT</desc>
       <line stroke-width="0.106" x1="62.704" y1="64.066" x2="62.704" y2="64.436"/>
       <line stroke-width="0.106" x1="62.24" y1="65.722" x2="60.048" y2="65.453"/>
       <line stroke-width="0.106" x1="62.274" y1="65.597" x2="60.173" y2="65.34"/>
       <line stroke-width="0.106" x1="64.959" y1="63.182" x2="62.015" y2="62.82"/>
       <line stroke-width="0.106" x1="62.24" y1="66.471" x2="59.314" y2="66.112"/>
       <path stroke-width="0.106" d="M63.094 64.26L63.073 64.198C63.027 64.146 62.927 64.112 62.868 64.096C62.771 64.072 62.661 64.061 62.563 64.049"/>
       <path stroke-width="0.106" d="M63.094 64.26L63.057 64.322C63.002 64.371 62.898 64.403 62.829 64.418C62.686 64.45 62.624 64.444 62.475 64.45L62.292 64.438L62.094 64.415"/>
       <path stroke-width="0.106" d="M59.252 66.17L59.462 66.195L62.051 66.513L62.262 66.54L62.268 66.539L62.274 66.534L62.432 66.393L64.801 64.26C64.891 64.179 64.992 64.134 64.992 64.009L64.992 63.796L64.992 63.441L64.992 63.228C64.992 63.215 64.989 63.186 64.974 63.179L64.969 63.176L64.759 63.151L62.222 62.84L62.012 62.814"/>
       <path stroke-width="0.106" d="M62.24 66.477L62.24 66.471L62.24 66.26L62.24 65.935L62.24 65.722L62.241 65.701"/>
       <path stroke-width="0.106" d="M62.262 66.54C62.244 66.534 62.24 66.501 62.24 66.487L62.24 66.275L62.241 65.914L62.241 65.701C62.241 65.671 62.25 65.626 62.271 65.602L62.274 65.597L62.432 65.456L64.801 63.323L64.959 63.182L64.969 63.176"/>
      </g>
      <g id="TRAFO_PROFILE_-_600_MB.PRT_2">
       <desc>TRAFO_PROFILE_-_600_MB.PRT</desc>
       <line stroke-width="0.106" x1="5.291" y1="72.864" x2="5.291" y2="73.234"/>
       <line stroke-width="0.106" x1="47.216" y1="78.013" x2="47.216" y2="78.382"/>
       <line stroke-width="0.106" x1="12.75" y1="72.612" x2="4.33" y2="71.578"/>
       <line stroke-width="0.106" x1="31.849" y1="74.957" x2="17.06" y2="73.141"/>
       <line stroke-width="0.106" x1="45.344" y1="76.614" x2="36.159" y2="75.486"/>
       <line stroke-width="0.106" x1="12.75" y1="75.493" x2="0.169" y2="73.948"/>
       <line stroke-width="0.106" x1="12.75" y1="75.364" x2="0.204" y2="73.825"/>
       <line stroke-width="0.106" x1="31.849" y1="77.838" x2="14.285" y2="75.683"/>
       <line stroke-width="0.106" x1="31.849" y1="77.709" x2="14.41" y2="75.569"/>
       <line stroke-width="0.106" x1="46.752" y1="79.668" x2="33.384" y2="78.028"/>
       <line stroke-width="0.106" x1="46.786" y1="79.543" x2="33.509" y2="77.914"/>
       <line stroke-width="0.106" x1="3.395" y1="71.471" x2="2.887" y2="71.409"/>
       <line stroke-width="0.106" x1="12.75" y1="72.62" x2="4.33" y2="71.585"/>
       <line stroke-width="0.106" x1="31.849" y1="74.965" x2="17.06" y2="73.149"/>
       <line stroke-width="0.106" x1="45.344" y1="76.621" x2="36.159" y2="75.493"/>
       <line stroke-width="0.106" x1="49.469" y1="77.128" x2="46.527" y2="76.766"/>
       <line stroke-width="0.106" x1="46.752" y1="80.418" x2="0.169" y2="74.698"/>
       <path stroke-width="0.106" d="M2.766 72.561L2.687 72.555C2.539 72.561 2.476 72.557 2.331 72.588C2.264 72.603 2.161 72.634 2.104 72.685L2.068 72.745"/>
       <path stroke-width="0.106" d="M5.681 73.058L5.658 72.998C5.613 72.944 5.514 72.912 5.455 72.896C5.354 72.868 5.217 72.855 5.115 72.843"/>
       <path stroke-width="0.106" d="M44.679 77.707L44.612 77.703C44.463 77.709 44.401 77.704 44.256 77.736C44.189 77.751 44.085 77.781 44.029 77.832L43.993 77.894"/>
       <path stroke-width="0.106" d="M44.579 78.111C44.475 78.099 44.323 78.084 44.219 78.057C44.158 78.04 44.06 78.009 44.014 77.954L43.993 77.894"/>
       <path stroke-width="0.106" d="M47.606 78.206L47.584 78.144C47.539 78.091 47.439 78.058 47.378 78.043C47.283 78.018 47.173 78.007 47.075 77.995"/>
       <path stroke-width="0.106" d="M47.606 78.206L47.569 78.268C47.512 78.319 47.409 78.349 47.341 78.364C47.198 78.396 47.134 78.391 46.987 78.397L46.804 78.385L46.606 78.361"/>
       <path stroke-width="0.106" d="M3.399 71.465C3.232 71.444 3.064 71.424 2.899 71.403L2.887 71.409L2.73 71.549L0.361 73.683L0.2 73.828C0.174 73.858 0.169 73.912 0.169 73.948L0.169 74.161L0.169 74.486L0.169 74.698L0.169 74.707C0.17 74.724 0.171 74.754 0.187 74.765L0.192 74.766L0.402 74.792L46.563 80.459C46.845 80.495 46.731 80.53 46.944 80.338L49.313 78.206L49.469 78.064L49.473 78.061C49.493 78.036 49.503 77.992 49.503 77.96L49.503 77.748L49.503 77.387L49.503 77.176C49.503 77.161 49.5 77.141 49.49 77.129L49.481 77.123L49.271 77.096L46.734 76.786L46.523 76.76"/>
       <path stroke-width="0.106" d="M46.753 80.433L46.752 80.418L46.752 80.206L46.752 79.881L46.752 79.665"/>
       <path stroke-width="0.106" d="M2.907 71.408L2.899 71.403z"/>
       <path stroke-width="0.106" d="M0.2 74.763L0.192 74.766z"/>
       <path stroke-width="0.106" d="M46.774 80.486C46.756 80.48 46.753 80.447 46.753 80.433L46.753 80.221L46.753 79.865L46.753 79.653C46.753 79.62 46.761 79.575 46.783 79.549L46.786 79.543L46.944 79.403L49.313 77.269L49.469 77.128L49.481 77.123"/>
       <path stroke-width="0.106" d="M2.602 72.957C2.504 72.945 2.39 72.935 2.294 72.909C2.234 72.894 2.134 72.861 2.089 72.808L2.068 72.745"/>
       <path stroke-width="0.106" d="M5.681 73.058L5.644 73.12C5.588 73.171 5.485 73.2 5.416 73.215C5.272 73.248 5.209 73.242 5.062 73.248L4.878 73.236L4.732 73.218"/>
      </g>
      <g id="432-0292_CORE.PRT_1">
       <desc>432-0292_CORE.PRT</desc>
       <line stroke-width="0.106" x1="14.525" y1="73.593" x2="14.255" y2="73.561"/>
       <line stroke-width="0.106" x1="45.003" y1="59.134" x2="44.734" y2="59.101"/>
       <line stroke-width="0.106" x1="45.003" y1="40.402" x2="44.734" y2="40.368"/>
       <line stroke-width="0.106" x1="45.365" y1="21.344" x2="45.365" y2="29.553"/>
       <line stroke-width="0.106" x1="46.052" y1="28.932" x2="45.365" y2="29.553"/>
       <line stroke-width="0.106" x1="44.991" y1="21.298" x2="45.365" y2="21.344"/>
       <line stroke-width="0.106" x1="44.991" y1="21.298" x2="43.96" y2="22.228"/>
       <line stroke-width="0.106" x1="43.96" y1="70.558" x2="43.96" y2="22.228"/>
       <line stroke-width="0.106" x1="44.704" y1="70.65" x2="43.96" y2="70.558"/>
       <line stroke-width="0.106" x1="46.426" y1="69.1" x2="44.704" y2="70.65"/>
       <line stroke-width="0.106" x1="45.365" y1="32.743" x2="45.365" y2="48.209"/>
       <line stroke-width="0.106" x1="46.052" y1="47.59" x2="45.365" y2="48.209"/>
       <line stroke-width="0.106" x1="45.576" y1="35.557" x2="45.576" y2="32.746"/>
       <line stroke-width="0.106" x1="49.359" y1="29.339" x2="45.576" y2="32.746"/>
       <line stroke-width="0.106" x1="45.948" y1="35.603" x2="45.576" y2="35.557"/>
       <line stroke-width="0.106" x1="45.948" y1="35.603" x2="49.732" y2="32.195"/>
       <line stroke-width="0.106" x1="44.332" y1="33.292" x2="44.704" y2="33.338"/>
       <line stroke-width="0.106" x1="46.426" y1="31.789" x2="44.704" y2="33.338"/>
       <line stroke-width="0.106" x1="45.365" y1="51.399" x2="45.365" y2="66.864"/>
       <line stroke-width="0.106" x1="46.052" y1="66.245" x2="45.365" y2="66.864"/>
       <line stroke-width="0.106" x1="44.332" y1="51.948" x2="44.704" y2="51.993"/>
       <line stroke-width="0.106" x1="46.426" y1="50.445" x2="44.704" y2="51.993"/>
       <line stroke-width="0.106" x1="45.576" y1="54.213" x2="45.576" y2="51.402"/>
       <line stroke-width="0.106" x1="49.359" y1="47.996" x2="45.576" y2="51.402"/>
       <line stroke-width="0.106" x1="45.948" y1="54.259" x2="45.576" y2="54.213"/>
       <line stroke-width="0.106" x1="45.948" y1="54.259" x2="49.732" y2="50.85"/>
       <line stroke-width="0.106" x1="9.747" y1="54.78" x2="9.686" y2="54.774"/>
       <line stroke-width="0.106" x1="9.621" y1="55.847" x2="9.558" y2="55.843"/>
       <line stroke-width="0.106" x1="12.75" y1="55.289" x2="10.342" y2="54.993"/>
       <line stroke-width="0.106" x1="9.843" y1="55.14" x2="9.512" y2="55.1"/>
       <line stroke-width="0.106" x1="9.747" y1="36.046" x2="9.686" y2="36.042"/>
       <line stroke-width="0.106" x1="9.621" y1="37.115" x2="9.558" y2="37.109"/>
       <line stroke-width="0.106" x1="12.75" y1="36.633" x2="10.342" y2="36.338"/>
       <line stroke-width="0.106" x1="9.843" y1="36.408" x2="9.512" y2="36.368"/>
       <line stroke-width="0.106" x1="8.965" y1="25.643" x2="10.342" y2="24.405"/>
       <line stroke-width="0.106" x1="10.852" y1="29.103" x2="10.852" y2="24.42"/>
       <line stroke-width="0.106" x1="9.621" y1="23.721" x2="9.558" y2="23.716"/>
       <line stroke-width="0.106" x1="9.43" y1="30.384" x2="9.43" y2="25.701"/>
       <line stroke-width="0.106" x1="8.965" y1="25.643" x2="8.965" y2="20.338"/>
       <line stroke-width="0.106" x1="10.342" y1="19.099" x2="8.965" y2="20.338"/>
       <line stroke-width="0.106" x1="8.5" y1="20.28" x2="8.965" y2="20.338"/>
       <line stroke-width="0.106" x1="9.43" y1="25.701" x2="8.965" y2="25.643"/>
       <line stroke-width="0.106" x1="8.965" y1="44.299" x2="8.965" y2="30.327"/>
       <line stroke-width="0.106" x1="9.43" y1="49.039" x2="9.43" y2="44.356"/>
       <line stroke-width="0.106" x1="8.965" y1="44.299" x2="10.342" y2="43.06"/>
       <line stroke-width="0.106" x1="10.852" y1="47.759" x2="10.852" y2="43.076"/>
       <line stroke-width="0.106" x1="9.43" y1="44.356" x2="8.965" y2="44.299"/>
       <line stroke-width="0.106" x1="8.965" y1="62.956" x2="8.965" y2="48.982"/>
       <line stroke-width="0.106" x1="8.965" y1="62.956" x2="10.342" y2="61.716"/>
       <line stroke-width="0.106" x1="10.852" y1="66.415" x2="10.852" y2="61.732"/>
       <line stroke-width="0.106" x1="9.43" y1="63.012" x2="9.43" y2="67.695"/>
       <line stroke-width="0.106" x1="8.965" y1="62.956" x2="9.43" y2="63.012"/>
       <line stroke-width="0.106" x1="9.843" y1="23.013" x2="9.512" y2="22.972"/>
       <line stroke-width="0.106" x1="9.686" y1="22.647" x2="9.747" y2="22.652"/>
       <line stroke-width="0.106" x1="9.747" y1="20.312" x2="9.686" y2="20.306"/>
       <line stroke-width="0.106" x1="9.558" y1="21.373" x2="9.621" y2="21.379"/>
       <line stroke-width="0.106" x1="9.843" y1="20.673" x2="9.512" y2="20.632"/>
       <line stroke-width="0.106" x1="17.06" y1="23.307" x2="13.689" y2="26.344"/>
       <line stroke-width="0.106" x1="31.849" y1="28.573" x2="13.689" y2="26.344"/>
       <line stroke-width="0.106" x1="13.689" y1="71.302" x2="13.689" y2="26.344"/>
       <line stroke-width="0.106" x1="17.405" y1="22.998" x2="31.849" y2="24.771"/>
       <line stroke-width="0.106" x1="17.405" y1="22.998" x2="17.06" y2="23.307"/>
       <line stroke-width="0.106" x1="17.06" y1="14.175" x2="17.06" y2="23.307"/>
       <line stroke-width="0.106" x1="16.129" y1="14.06" x2="17.06" y2="14.175"/>
       <line stroke-width="0.106" x1="12.75" y1="17.103" x2="16.129" y2="14.06"/>
       <line stroke-width="0.106" x1="12.75" y1="76.111" x2="12.75" y2="17.103"/>
       <line stroke-width="0.106" x1="13.682" y1="76.225" x2="12.75" y2="76.111"/>
       <line stroke-width="0.106" x1="17.06" y1="73.183" x2="13.682" y2="76.225"/>
       <line stroke-width="0.106" x1="17.06" y1="71.715" x2="17.06" y2="73.183"/>
       <line stroke-width="0.106" x1="17.06" y1="72.364" x2="31.849" y2="74.179"/>
       <line stroke-width="0.106" x1="13.689" y1="71.302" x2="31.849" y2="73.531"/>
       <line stroke-width="0.106" x1="44.332" y1="22.274" x2="45.365" y2="21.344"/>
       <line stroke-width="0.106" x1="43.96" y1="22.228" x2="44.332" y2="22.274"/>
       <line stroke-width="0.106" x1="44.332" y1="30.481" x2="44.332" y2="22.274"/>
       <line stroke-width="0.106" x1="36.159" y1="20.852" x2="44.368" y2="21.859"/>
       <line stroke-width="0.106" x1="44.704" y1="33.338" x2="44.704" y2="30.527"/>
       <line stroke-width="0.106" x1="44.332" y1="30.481" x2="45.365" y2="29.553"/>
       <line stroke-width="0.106" x1="46.052" y1="28.932" x2="46.426" y2="28.978"/>
       <line stroke-width="0.106" x1="44.704" y1="30.527" x2="46.426" y2="28.978"/>
       <line stroke-width="0.106" x1="46.426" y1="31.789" x2="46.426" y2="28.978"/>
       <line stroke-width="0.106" x1="44.332" y1="30.481" x2="44.704" y2="30.527"/>
       <line stroke-width="0.106" x1="44.332" y1="49.137" x2="44.332" y2="33.292"/>
       <line stroke-width="0.106" x1="44.704" y1="51.993" x2="44.704" y2="49.183"/>
       <line stroke-width="0.106" x1="44.332" y1="49.137" x2="45.365" y2="48.209"/>
       <line stroke-width="0.106" x1="46.052" y1="47.59" x2="46.426" y2="47.634"/>
       <line stroke-width="0.106" x1="44.704" y1="49.183" x2="46.426" y2="47.634"/>
       <line stroke-width="0.106" x1="46.426" y1="50.445" x2="46.426" y2="47.634"/>
       <line stroke-width="0.106" x1="44.332" y1="49.137" x2="44.704" y2="49.183"/>
       <line stroke-width="0.106" x1="44.332" y1="67.793" x2="44.332" y2="51.948"/>
       <line stroke-width="0.106" x1="44.704" y1="70.65" x2="44.704" y2="67.84"/>
       <line stroke-width="0.106" x1="44.332" y1="67.793" x2="45.365" y2="66.864"/>
       <line stroke-width="0.106" x1="46.052" y1="66.245" x2="46.426" y2="66.29"/>
       <line stroke-width="0.106" x1="44.704" y1="67.84" x2="46.426" y2="66.29"/>
       <line stroke-width="0.106" x1="46.426" y1="69.1" x2="46.426" y2="66.29"/>
       <line stroke-width="0.106" x1="44.332" y1="67.793" x2="44.704" y2="67.84"/>
       <line stroke-width="0.106" x1="45.003" y1="22.792" x2="44.734" y2="22.76"/>
       <line stroke-width="0.106" x1="49.732" y1="66.697" x2="45.948" y2="70.105"/>
       <line stroke-width="0.106" x1="45.948" y1="72.915" x2="45.948" y2="70.105"/>
       <line stroke-width="0.106" x1="45.576" y1="70.058" x2="45.948" y2="70.105"/>
       <line stroke-width="0.106" x1="49.732" y1="69.507" x2="49.732" y2="66.697"/>
       <line stroke-width="0.106" x1="49.359" y1="66.652" x2="49.732" y2="66.697"/>
       <line stroke-width="0.106" x1="47.375" y1="70.224" x2="47.106" y2="70.191"/>
       <line stroke-width="0.106" x1="46.515" y1="70.998" x2="46.246" y2="70.965"/>
       <line stroke-width="0.106" x1="49.732" y1="69.507" x2="45.948" y2="72.915"/>
       <line stroke-width="0.106" x1="45.576" y1="72.868" x2="45.948" y2="72.915"/>
       <line stroke-width="0.106" x1="45.576" y1="72.868" x2="45.576" y2="70.058"/>
       <line stroke-width="0.106" x1="49.359" y1="66.652" x2="45.576" y2="70.058"/>
       <line stroke-width="0.106" x1="49.732" y1="48.04" x2="45.948" y2="51.448"/>
       <line stroke-width="0.106" x1="45.948" y1="54.259" x2="45.948" y2="51.448"/>
       <line stroke-width="0.106" x1="45.576" y1="51.402" x2="45.948" y2="51.448"/>
       <line stroke-width="0.106" x1="49.732" y1="50.85" x2="49.732" y2="48.04"/>
       <line stroke-width="0.106" x1="49.359" y1="47.996" x2="49.732" y2="48.04"/>
       <line stroke-width="0.106" x1="47.375" y1="51.567" x2="47.106" y2="51.534"/>
       <line stroke-width="0.106" x1="46.515" y1="52.343" x2="46.246" y2="52.31"/>
       <line stroke-width="0.106" x1="49.732" y1="29.385" x2="45.948" y2="32.792"/>
       <line stroke-width="0.106" x1="45.948" y1="35.603" x2="45.948" y2="32.792"/>
       <line stroke-width="0.106" x1="45.576" y1="32.746" x2="45.948" y2="32.792"/>
       <line stroke-width="0.106" x1="49.732" y1="32.195" x2="49.732" y2="29.385"/>
       <line stroke-width="0.106" x1="49.359" y1="29.339" x2="49.732" y2="29.385"/>
       <line stroke-width="0.106" x1="47.375" y1="32.911" x2="47.106" y2="32.878"/>
       <line stroke-width="0.106" x1="46.515" y1="33.686" x2="46.246" y2="33.654"/>
       <line stroke-width="0.106" x1="10.342" y1="19.099" x2="10.342" y2="24.405"/>
       <line stroke-width="0.106" x1="9.875" y1="19.042" x2="10.342" y2="19.099"/>
       <line stroke-width="0.106" x1="9.875" y1="19.042" x2="8.5" y2="20.28"/>
       <line stroke-width="0.106" x1="8.5" y1="67.581" x2="8.5" y2="20.28"/>
       <line stroke-width="0.106" x1="9.43" y1="67.695" x2="8.5" y2="67.581"/>
       <line stroke-width="0.106" x1="10.342" y1="48.219" x2="10.342" y2="61.716"/>
       <line stroke-width="0.106" x1="8.965" y1="48.982" x2="9.43" y2="49.039"/>
       <line stroke-width="0.106" x1="10.342" y1="29.564" x2="10.342" y2="43.06"/>
       <line stroke-width="0.106" x1="8.965" y1="30.327" x2="9.43" y2="30.384"/>
       <line stroke-width="0.106" x1="5.809" y1="28.483" x2="5.686" y2="28.468"/>
       <line stroke-width="0.106" x1="4.948" y1="29.257" x2="4.825" y2="29.242"/>
       <line stroke-width="0.106" x1="8.32" y1="23.364" x2="4.535" y2="26.771"/>
       <line stroke-width="0.106" x1="4.07" y1="26.714" x2="4.535" y2="26.771"/>
       <line stroke-width="0.106" x1="4.535" y1="31.455" x2="4.535" y2="26.771"/>
       <line stroke-width="0.106" x1="8.32" y1="28.047" x2="8.32" y2="23.364"/>
       <line stroke-width="0.106" x1="8.32" y1="23.364" x2="7.855" y2="23.307"/>
       <line stroke-width="0.106" x1="4.07" y1="26.714" x2="7.855" y2="23.307"/>
       <line stroke-width="0.106" x1="4.07" y1="31.397" x2="4.07" y2="26.714"/>
       <line stroke-width="0.106" x1="4.535" y1="31.455" x2="4.07" y2="31.397"/>
       <line stroke-width="0.106" x1="4.535" y1="31.455" x2="8.32" y2="28.047"/>
       <line stroke-width="0.106" x1="5.809" y1="47.139" x2="5.686" y2="47.124"/>
       <line stroke-width="0.106" x1="4.948" y1="47.912" x2="4.825" y2="47.898"/>
       <line stroke-width="0.106" x1="8.32" y1="42.021" x2="4.535" y2="45.427"/>
       <line stroke-width="0.106" x1="4.07" y1="45.371" x2="4.535" y2="45.427"/>
       <line stroke-width="0.106" x1="4.535" y1="50.112" x2="4.535" y2="45.427"/>
       <line stroke-width="0.106" x1="8.32" y1="46.704" x2="8.32" y2="42.021"/>
       <line stroke-width="0.106" x1="8.32" y1="42.021" x2="7.855" y2="41.963"/>
       <line stroke-width="0.106" x1="4.07" y1="45.371" x2="7.855" y2="41.963"/>
       <line stroke-width="0.106" x1="4.07" y1="50.054" x2="4.07" y2="45.371"/>
       <line stroke-width="0.106" x1="4.535" y1="50.112" x2="4.07" y2="50.054"/>
       <line stroke-width="0.106" x1="4.535" y1="50.112" x2="8.32" y2="46.704"/>
       <line stroke-width="0.106" x1="5.809" y1="65.795" x2="5.686" y2="65.78"/>
       <line stroke-width="0.106" x1="4.948" y1="66.569" x2="4.825" y2="66.554"/>
       <line stroke-width="0.106" x1="8.32" y1="60.676" x2="4.535" y2="64.084"/>
       <line stroke-width="0.106" x1="4.07" y1="64.027" x2="4.535" y2="64.084"/>
       <line stroke-width="0.106" x1="4.535" y1="68.768" x2="4.535" y2="64.084"/>
       <line stroke-width="0.106" x1="8.32" y1="65.359" x2="8.32" y2="60.676"/>
       <line stroke-width="0.106" x1="8.32" y1="60.676" x2="7.855" y2="60.619"/>
       <line stroke-width="0.106" x1="4.07" y1="64.027" x2="7.855" y2="60.619"/>
       <line stroke-width="0.106" x1="4.07" y1="68.71" x2="4.07" y2="64.027"/>
       <line stroke-width="0.106" x1="4.535" y1="68.768" x2="4.07" y2="68.71"/>
       <line stroke-width="0.106" x1="4.535" y1="68.768" x2="8.32" y2="65.359"/>
       <line stroke-width="0.106" x1="31.686" y1="0.053" x2="28.307" y2="3.095"/>
       <line stroke-width="0.106" x1="28.307" y1="8.13" x2="28.307" y2="3.095"/>
       <line stroke-width="0.106" x1="32.618" y1="0.167" x2="31.686" y2="0.053"/>
       <line stroke-width="0.106" x1="32.618" y1="8.659" x2="32.618" y2="0.167"/>
       <line stroke-width="0.106" x1="29.239" y1="3.209" x2="28.307" y2="3.095"/>
       <line stroke-width="0.106" x1="29.239" y1="8.244" x2="29.239" y2="3.209"/>
       <line stroke-width="0.106" x1="32.618" y1="0.167" x2="29.239" y2="3.209"/>
       <line stroke-width="0.106" x1="50.784" y1="2.398" x2="47.406" y2="5.44"/>
       <line stroke-width="0.106" x1="47.406" y1="10.474" x2="47.406" y2="5.44"/>
       <line stroke-width="0.106" x1="51.716" y1="2.512" x2="50.784" y2="2.398"/>
       <line stroke-width="0.106" x1="51.716" y1="11.005" x2="51.716" y2="2.512"/>
       <line stroke-width="0.106" x1="51.716" y1="2.512" x2="48.338" y2="5.554"/>
       <line stroke-width="0.106" x1="47.406" y1="5.44" x2="48.338" y2="5.554"/>
       <line stroke-width="0.106" x1="48.338" y1="10.589" x2="48.338" y2="5.554"/>
       <line stroke-width="0.106" x1="35.228" y1="16.405" x2="31.849" y2="19.448"/>
       <line stroke-width="0.106" x1="31.849" y1="78.456" x2="31.849" y2="19.448"/>
       <line stroke-width="0.106" x1="32.78" y1="78.57" x2="31.849" y2="78.456"/>
       <line stroke-width="0.106" x1="36.159" y1="75.528" x2="32.78" y2="78.57"/>
       <line stroke-width="0.106" x1="36.159" y1="16.519" x2="36.159" y2="75.528"/>
       <line stroke-width="0.106" x1="35.228" y1="16.405" x2="36.159" y2="16.519"/>
       <line stroke-width="0.106" x1="32.78" y1="19.562" x2="31.849" y2="19.448"/>
       <line stroke-width="0.106" x1="32.78" y1="78.57" x2="32.78" y2="19.562"/>
       <line stroke-width="0.106" x1="36.159" y1="16.519" x2="32.78" y2="19.562"/>
       <line stroke-width="0.106" x1="13.682" y1="17.216" x2="12.75" y2="17.103"/>
       <line stroke-width="0.106" x1="13.682" y1="76.225" x2="13.682" y2="17.216"/>
       <line stroke-width="0.106" x1="17.06" y1="14.175" x2="13.682" y2="17.216"/>
       <line stroke-width="0.106" x1="58.475" y1="11.833" x2="46.984" y2="22.181"/>
       <line stroke-width="0.106" x1="61.271" y1="25.911" x2="49.78" y2="36.258"/>
       <line stroke-width="0.106" x1="58.475" y1="30.489" x2="46.984" y2="40.837"/>
       <line stroke-width="0.106" x1="61.271" y1="44.567" x2="49.78" y2="54.914"/>
       <line stroke-width="0.106" x1="58.475" y1="49.146" x2="46.984" y2="59.493"/>
       <line stroke-width="0.106" x1="61.271" y1="63.225" x2="49.78" y2="73.57"/>
       <line stroke-width="0.106" x1="8.055" y1="52.6" x2="5.992" y2="54.46"/>
       <line stroke-width="0.106" x1="8.055" y1="33.945" x2="5.992" y2="35.804"/>
       <line stroke-width="0.106" x1="17.483" y1="6.801" x2="5.992" y2="17.147"/>
       <line stroke-width="0.106" x1="61.271" y1="33.643" x2="49.78" y2="43.99"/>
       <line stroke-width="0.106" x1="61.271" y1="52.299" x2="49.78" y2="62.646"/>
       <line stroke-width="0.106" x1="61.271" y1="14.987" x2="49.78" y2="25.333"/>
       <line stroke-width="0.106" x1="12.564" y1="53.155" x2="10.342" y2="52.881"/>
       <line stroke-width="0.106" x1="12.564" y1="34.497" x2="10.342" y2="34.225"/>
       <line stroke-width="0.106" x1="31.849" y1="20.321" x2="17.06" y2="18.507"/>
       <line stroke-width="0.106" x1="43.96" y1="38.353" x2="36.159" y2="37.396"/>
       <line stroke-width="0.106" x1="43.96" y1="40.466" x2="36.159" y2="39.508"/>
       <line stroke-width="0.106" x1="43.96" y1="57.009" x2="36.159" y2="56.051"/>
       <line stroke-width="0.106" x1="43.96" y1="59.121" x2="36.159" y2="58.164"/>
       <path stroke-width="0.106" d="M14.429 73.29L14.48 73.337C14.516 73.406 14.525 73.522 14.525 73.593C14.525 73.703 14.509 73.825 14.48 73.933C14.461 73.995 14.425 74.105 14.369 74.155L14.31 74.176"/>
       <path stroke-width="0.106" d="M14.429 73.29L14.369 73.311C14.314 73.361 14.278 73.471 14.26 73.534C14.23 73.64 14.214 73.762 14.214 73.873C14.214 73.944 14.223 74.061 14.26 74.129L14.31 74.176"/>
       <path stroke-width="0.106" d="M44.789 59.716L44.738 59.67C44.701 59.601 44.694 59.485 44.694 59.414C44.694 59.304 44.71 59.182 44.738 59.075C44.756 59.012 44.793 58.902 44.848 58.853L44.908 58.832"/>
       <path stroke-width="0.106" d="M44.908 58.832L44.957 58.878C44.996 58.947 45.003 59.063 45.003 59.134C45.003 59.246 44.987 59.368 44.957 59.473C44.941 59.536 44.904 59.646 44.848 59.695L44.789 59.716"/>
       <path stroke-width="0.106" d="M45.365 59.293L45.575 59.32L46.774 59.466L46.984 59.493L47.399 59.591L47.606 59.64L47.798 59.731L48.197 59.92L48.366 60.048L48.557 60.192L48.726 60.32L48.868 60.478L49.029 60.661L49.17 60.819L49.276 61.003L49.396 61.21L49.503 61.393L49.57 61.594L49.71 62.012L49.732 62.222L49.78 62.646L49.78 62.857L49.78 73.358L49.78 73.57L49.732 73.977L49.71 74.188L49.637 74.387L49.575 74.557L49.503 74.756L49.384 74.932L49.289 75.072L49.17 75.248"/>
       <path stroke-width="0.106" d="M44.789 40.984L44.738 40.938C44.701 40.868 44.694 40.753 44.694 40.68C44.694 40.57 44.71 40.448 44.738 40.341C44.756 40.28 44.793 40.17 44.848 40.119L44.908 40.098"/>
       <path stroke-width="0.106" d="M44.908 40.098L44.957 40.145C44.996 40.213 45.003 40.329 45.003 40.402C45.003 40.512 44.987 40.634 44.957 40.74C44.941 40.804 44.904 40.914 44.848 40.963L44.789 40.984"/>
       <path stroke-width="0.106" d="M45.365 40.637L45.575 40.664L46.774 40.811L46.984 40.837L47.399 40.935L47.606 40.984L47.798 41.075L48.197 41.264L48.366 41.392L48.557 41.536L48.726 41.664L48.868 41.822L49.029 42.005L49.17 42.162L49.276 42.345L49.396 42.554L49.503 42.737L49.57 42.938L49.71 43.356L49.732 43.567L49.78 43.99L49.78 44.201L49.78 54.701L49.78 54.914L49.732 55.32L49.71 55.53L49.637 55.729L49.575 55.899L49.503 56.098L49.384 56.274L49.289 56.415L49.17 56.591"/>
       <path stroke-width="0.106" d="M9.558 55.843L9.509 55.773C9.473 55.689 9.464 55.569 9.464 55.481C9.464 55.359 9.48 55.228 9.509 55.11C9.529 55.024 9.567 54.908 9.621 54.834L9.686 54.774"/>
       <path stroke-width="0.106" d="M9.621 55.847L9.686 55.789C9.74 55.713 9.778 55.597 9.798 55.512C9.827 55.393 9.843 55.262 9.843 55.14C9.843 55.054 9.833 54.932 9.798 54.85L9.747 54.78"/>
       <path stroke-width="0.106" d="M9.558 37.109L9.509 37.039C9.473 36.956 9.464 36.835 9.464 36.749C9.464 36.627 9.48 36.496 9.509 36.378C9.529 36.292 9.567 36.176 9.621 36.1L9.686 36.042"/>
       <path stroke-width="0.106" d="M9.621 37.115L9.686 37.055C9.74 36.981 9.778 36.865 9.798 36.779C9.827 36.661 9.843 36.53 9.843 36.408C9.843 36.32 9.833 36.201 9.798 36.116L9.747 36.046"/>
       <path stroke-width="0.106" d="M9.747 22.652L9.798 22.722C9.833 22.806 9.843 22.926 9.843 23.013C9.843 23.135 9.827 23.266 9.798 23.385C9.778 23.471 9.74 23.586 9.686 23.661L9.621 23.721"/>
       <path stroke-width="0.106" d="M9.43 25.701L9.589 25.559L10.695 24.562L10.852 24.42L11.064 24.423L12.538 24.449L12.75 24.452"/>
       <path stroke-width="0.106" d="M9.43 44.356L9.589 44.215L10.695 43.219L10.852 43.076L11.064 43.079L12.538 43.104L12.75 43.107"/>
       <path stroke-width="0.106" d="M9.43 63.012L9.589 62.871L10.695 61.875L10.852 61.732L11.064 61.735L12.352 61.758L12.564 61.761"/>
       <path stroke-width="0.106" d="M9.686 22.647L9.621 22.707C9.567 22.782 9.529 22.897 9.509 22.984C9.48 23.102 9.464 23.233 9.464 23.355C9.464 23.442 9.473 23.562 9.509 23.646L9.558 23.716"/>
       <path stroke-width="0.106" d="M9.558 21.373L9.509 21.304C9.473 21.221 9.464 21.1 9.464 21.013C9.464 20.891 9.48 20.76 9.509 20.641C9.529 20.556 9.567 20.44 9.621 20.364L9.686 20.306"/>
       <path stroke-width="0.106" d="M9.747 20.312L9.798 20.381C9.833 20.464 9.843 20.585 9.843 20.673C9.843 20.794 9.827 20.925 9.798 21.042C9.778 21.129 9.74 21.245 9.686 21.321L9.621 21.379"/>
       <path stroke-width="0.106" d="M44.789 23.376L44.738 23.329C44.701 23.26 44.694 23.143 44.694 23.071C44.694 22.961 44.71 22.839 44.738 22.733C44.756 22.67 44.793 22.561 44.848 22.51L44.908 22.489"/>
       <path stroke-width="0.106" d="M44.908 22.489L44.957 22.536C44.996 22.605 45.003 22.722 45.003 22.792C45.003 22.903 44.987 23.025 44.957 23.132C44.941 23.195 44.904 23.304 44.848 23.353L44.789 23.376"/>
       <path stroke-width="0.106" d="M45.365 21.981L45.575 22.007L46.774 22.155L46.984 22.181L47.399 22.278L47.606 22.327L47.798 22.417L48.197 22.608L48.366 22.736L48.557 22.879L48.726 23.007L48.868 23.166L49.029 23.349L49.17 23.507L49.276 23.69L49.396 23.897L49.503 24.08L49.57 24.282L49.71 24.699L49.732 24.911L49.78 25.333L49.78 25.545L49.78 36.045L49.78 36.258L49.732 36.664L49.71 36.875L49.637 37.073L49.575 37.243L49.503 37.442L49.384 37.618L49.289 37.759L49.17 37.935"/>
       <path stroke-width="0.106" d="M47.28 69.921L47.331 69.966C47.368 70.036 47.375 70.152 47.375 70.224C47.375 70.334 47.359 70.456 47.331 70.563C47.314 70.626 47.276 70.736 47.222 70.784L47.161 70.807"/>
       <path stroke-width="0.106" d="M46.42 70.695L46.47 70.742C46.509 70.811 46.515 70.927 46.515 70.998C46.515 71.108 46.5 71.23 46.47 71.337C46.454 71.4 46.415 71.51 46.36 71.56L46.301 71.581"/>
       <path stroke-width="0.106" d="M46.301 71.581L46.252 71.534C46.213 71.465 46.207 71.349 46.207 71.278C46.207 71.167 46.222 71.045 46.252 70.938C46.268 70.876 46.307 70.766 46.36 70.716L46.42 70.695"/>
       <path stroke-width="0.106" d="M47.161 70.807L47.112 70.76C47.073 70.691 47.067 70.575 47.067 70.503C47.067 70.393 47.082 70.271 47.112 70.164C47.128 70.1 47.167 69.992 47.222 69.941L47.28 69.921"/>
       <path stroke-width="0.106" d="M47.28 51.265L47.331 51.31C47.368 51.38 47.375 51.496 47.375 51.567C47.375 51.679 47.359 51.801 47.331 51.906C47.314 51.969 47.276 52.079 47.222 52.128L47.161 52.149"/>
       <path stroke-width="0.106" d="M46.42 52.039L46.47 52.085C46.509 52.155 46.515 52.271 46.515 52.343C46.515 52.453 46.5 52.575 46.47 52.682C46.454 52.744 46.415 52.853 46.36 52.904L46.301 52.924"/>
       <path stroke-width="0.106" d="M46.42 52.039L46.36 52.06C46.307 52.109 46.268 52.219 46.252 52.283C46.222 52.389 46.207 52.511 46.207 52.621C46.207 52.692 46.213 52.81 46.252 52.878L46.301 52.924"/>
       <path stroke-width="0.106" d="M47.28 51.265L47.222 51.286C47.167 51.335 47.13 51.445 47.112 51.508C47.082 51.615 47.067 51.737 47.067 51.847C47.067 51.918 47.073 52.034 47.112 52.103L47.161 52.149"/>
       <path stroke-width="0.106" d="M47.28 32.609L47.331 32.655C47.368 32.723 47.375 32.84 47.375 32.911C47.375 33.023 47.359 33.145 47.331 33.25C47.314 33.314 47.276 33.423 47.222 33.472L47.161 33.493"/>
       <path stroke-width="0.106" d="M46.42 33.383L46.47 33.429C46.509 33.497 46.515 33.615 46.515 33.686C46.515 33.796 46.5 33.918 46.47 34.026C46.454 34.088 46.415 34.198 46.36 34.247L46.301 34.268"/>
       <path stroke-width="0.106" d="M46.301 34.268L46.252 34.222C46.213 34.154 46.207 34.036 46.207 33.965C46.207 33.854 46.222 33.732 46.252 33.627C46.268 33.564 46.307 33.454 46.36 33.405L46.42 33.383"/>
       <path stroke-width="0.106" d="M47.161 33.493L47.112 33.448C47.073 33.378 47.067 33.262 47.067 33.191C47.067 33.081 47.082 32.959 47.112 32.851C47.128 32.789 47.167 32.679 47.222 32.63L47.28 32.609"/>
       <path stroke-width="0.106" d="M12.75 24.286C12.005 24.274 11.259 24.262 10.513 24.25L10.342 24.405"/>
       <path stroke-width="0.106" d="M12.75 66.447C12.118 66.436 11.486 66.427 10.852 66.415L9.43 67.695"/>
       <path stroke-width="0.106" d="M12.708 61.597C11.977 61.585 11.244 61.573 10.513 61.561L10.342 61.716"/>
       <path stroke-width="0.106" d="M9.43 49.039L9.589 48.898L10.695 47.902L10.852 47.759L11.064 47.762L12.538 47.787L12.75 47.792"/>
       <path stroke-width="0.106" d="M12.75 42.942C12.005 42.93 11.259 42.917 10.513 42.905L10.342 43.06"/>
       <path stroke-width="0.106" d="M9.43 30.384L9.589 30.242L10.695 29.245L10.852 29.103L11.064 29.106L12.538 29.132L12.75 29.135"/>
       <path stroke-width="0.106" d="M5.873 27.425L5.931 27.463C5.976 27.525 5.99 27.641 5.996 27.71C6.008 27.89 5.985 28.079 5.931 28.253C5.91 28.321 5.868 28.429 5.809 28.483L5.745 28.51"/>
       <path stroke-width="0.106" d="M5.014 28.199L5.07 28.237C5.115 28.3 5.131 28.416 5.136 28.484C5.147 28.666 5.125 28.855 5.07 29.027C5.049 29.094 5.008 29.204 4.948 29.257L4.884 29.285"/>
       <path stroke-width="0.106" d="M4.884 29.285L4.828 29.245C4.783 29.184 4.767 29.068 4.762 28.998C4.751 28.818 4.772 28.629 4.828 28.457C4.849 28.388 4.891 28.28 4.948 28.227L5.014 28.199"/>
       <path stroke-width="0.106" d="M5.745 28.51L5.687 28.472C5.642 28.408 5.628 28.294 5.623 28.225C5.61 28.044 5.634 27.855 5.687 27.682C5.708 27.614 5.751 27.504 5.809 27.452L5.873 27.425"/>
       <path stroke-width="0.106" d="M5.873 46.081L5.931 46.119C5.976 46.182 5.99 46.298 5.996 46.366C6.008 46.546 5.985 46.735 5.931 46.908C5.91 46.976 5.868 47.085 5.809 47.139L5.745 47.165"/>
       <path stroke-width="0.106" d="M5.014 46.856L5.07 46.893C5.115 46.957 5.131 47.072 5.136 47.14C5.147 47.322 5.125 47.511 5.07 47.682C5.049 47.75 5.008 47.86 4.948 47.912L4.884 47.941"/>
       <path stroke-width="0.106" d="M4.884 47.941L4.828 47.902C4.782 47.84 4.767 47.725 4.762 47.655C4.751 47.475 4.772 47.286 4.828 47.112C4.849 47.045 4.891 46.936 4.948 46.883L5.014 46.856"/>
       <path stroke-width="0.106" d="M5.745 47.165L5.687 47.128C5.642 47.064 5.628 46.95 5.623 46.881C5.61 46.701 5.634 46.511 5.687 46.338C5.708 46.271 5.751 46.161 5.809 46.109L5.873 46.081"/>
       <path stroke-width="0.106" d="M5.873 64.737L5.931 64.775C5.976 64.837 5.99 64.953 5.996 65.022C6.008 65.203 5.985 65.391 5.931 65.564C5.91 65.632 5.868 65.742 5.809 65.795L5.745 65.822"/>
       <path stroke-width="0.106" d="M5.014 65.512L5.07 65.549C5.115 65.612 5.131 65.727 5.136 65.796C5.147 65.977 5.125 66.167 5.07 66.34C5.049 66.408 5.008 66.516 4.948 66.569L4.884 66.596"/>
       <path stroke-width="0.106" d="M4.884 66.596L4.828 66.558C4.782 66.495 4.767 66.381 4.762 66.311C4.751 66.131 4.772 65.941 4.828 65.769C4.849 65.7 4.891 65.591 4.948 65.539L5.014 65.512"/>
       <path stroke-width="0.106" d="M5.745 65.822L5.687 65.784C5.642 65.721 5.628 65.605 5.623 65.537C5.61 65.356 5.634 65.168 5.687 64.995C5.708 64.927 5.751 64.817 5.809 64.765L5.873 64.737"/>
       <path stroke-width="0.106" d="M45.365 38.526L45.575 38.551L46.774 38.698L46.984 38.725L47.395 38.728L47.606 38.731L47.813 38.682L47.99 38.643L48.197 38.594L48.386 38.499L48.537 38.421L48.726 38.326L48.886 38.185C49.033 38.054 49.18 37.924 49.326 37.792L60.503 27.73L60.661 27.588L60.78 27.413L60.875 27.271L60.993 27.097L61.066 26.897L61.128 26.727L61.201 26.527L61.223 26.318L61.271 25.911L61.271 25.699L61.271 15.198L61.271 14.987L61.223 14.564L61.2 14.353L61.06 13.935L60.993 13.734L60.887 13.551L60.767 13.343L60.661 13.16L60.52 13.002L60.359 12.82L60.218 12.66L60.048 12.534L59.857 12.388L59.688 12.262L59.289 12.071L59.097 11.98L58.89 11.932L58.475 11.833L58.265 11.808L17.693 6.827L17.483 6.801L17.271 6.799L16.861 6.794L16.653 6.841L16.477 6.883L16.269 6.929L16.08 7.025L15.929 7.104L15.74 7.2L15.583 7.341L3.964 17.795L3.806 17.937L3.687 18.112L3.592 18.254L3.474 18.428L3.4 18.628L3.338 18.798L3.266 18.998L3.242 19.207L3.197 19.614L3.197 19.826L3.197 30.327L3.197 30.538L3.243 30.961L3.266 31.172L3.334 31.373L3.474 31.792L3.58 31.975L3.7 32.182L3.806 32.365L3.947 32.524L4.108 32.706L4.248 32.865L4.418 32.991L4.61 33.137L4.778 33.264L5.177 33.454L5.37 33.545L5.575 33.593L5.992 33.692L6.201 33.716L8.288 33.973L8.5 33.999"/>
       <path stroke-width="0.106" d="M45.365 57.182L45.575 57.207L46.774 57.354L46.984 57.381L47.395 57.384L47.606 57.387L47.813 57.338L47.99 57.298L48.197 57.25L48.386 57.155L48.537 57.078L48.726 56.981L48.886 56.841C49.033 56.71 49.18 56.581 49.326 56.448L60.503 46.386L60.661 46.244L60.78 46.069L60.875 45.927L60.993 45.753L61.066 45.554L61.128 45.383L61.2 45.183L61.223 44.973L61.271 44.567L61.271 44.356L61.271 33.854L61.271 33.643L61.223 33.219L61.2 33.009L61.06 32.591L60.993 32.39L60.887 32.207L60.767 32L60.661 31.817L60.52 31.658L60.359 31.475L60.218 31.317L60.048 31.19L59.857 31.045L59.688 30.917L59.289 30.728L59.097 30.637L58.89 30.588L58.475 30.489L58.265 30.464L57.773 30.403L57.561 30.378"/>
       <path stroke-width="0.106" d="M36.159 74.709L36.369 74.734L46.774 76.012L46.984 76.037L47.395 76.042L47.606 76.043L47.813 75.996L47.99 75.956L48.197 75.909L48.386 75.811L48.537 75.734L48.726 75.638L48.886 75.498C49.033 75.367 49.18 75.237 49.326 75.105L60.503 65.043L60.661 64.902L60.78 64.725L60.875 64.584L60.993 64.409L61.066 64.21L61.128 64.04L61.2 63.841L61.223 63.631L61.271 63.225L61.271 63.012L61.271 52.511L61.271 52.299L61.223 51.875L61.2 51.665L61.06 51.246L60.993 51.045L60.887 50.862L60.767 50.655L60.661 50.472L60.52 50.314L60.359 50.131L60.218 49.972L60.048 49.845L59.857 49.701L59.688 49.573L59.289 49.384L59.097 49.292L58.89 49.244L58.475 49.146L58.265 49.121L57.773 49.06L57.563 49.033"/>
       <path stroke-width="0.106" d="M6.905 33.804L6.746 33.945L3.964 36.451L3.806 36.593L3.687 36.768L3.592 36.909L3.474 37.085L3.4 37.283L3.338 37.454L3.266 37.654L3.242 37.863L3.197 38.27L3.197 38.481L3.197 48.982L3.197 49.194L3.243 49.618L3.266 49.828L3.334 50.029L3.474 50.448L3.58 50.631L3.7 50.838L3.806 51.021L3.947 51.179L4.108 51.362L4.248 51.521L4.418 51.648L4.61 51.792L4.778 51.92L5.177 52.109L5.37 52.201L5.575 52.249L5.992 52.347L6.201 52.372L8.288 52.63L8.5 52.655"/>
       <path stroke-width="0.106" d="M6.905 52.46L6.746 52.6L3.964 55.107L3.806 55.249L3.687 55.424L3.592 55.566L3.474 55.74L3.4 55.939L3.338 56.11L3.266 56.31L3.242 56.52L3.197 56.926L3.197 57.137L3.197 67.64L3.197 67.852L3.243 68.275L3.266 68.484L3.334 68.686L3.474 69.105L3.58 69.287L3.7 69.495L3.806 69.677L3.947 69.837L4.108 70.019L4.248 70.177L4.418 70.305L4.61 70.45L4.778 70.576L4.969 70.668L5.37 70.858L5.575 70.906L5.992 71.004L6.201 71.03L12.539 71.808L12.75 71.834"/>
       <path stroke-width="0.106" d="M12.75 17.977L12.539 17.951L6.201 17.172L5.992 17.147L5.78 17.146L5.37 17.141L5.163 17.189L4.985 17.23L4.778 17.277L4.589 17.373L4.437 17.451L4.248 17.547L4.089 17.687L3.964 17.797L3.806 17.937"/>
       <path stroke-width="0.106" d="M8.5 36.112L8.288 36.085L6.201 35.829L5.992 35.804L5.78 35.801L5.37 35.798L5.163 35.844L4.985 35.886L4.778 35.932L4.589 36.029L4.437 36.106L4.248 36.203L4.089 36.343L3.964 36.453L3.806 36.593"/>
       <path stroke-width="0.106" d="M8.5 54.768L8.288 54.741L6.201 54.485L5.992 54.46L5.78 54.457L5.37 54.454L5.163 54.5L4.985 54.542L4.778 54.588L4.589 54.685L4.437 54.762L4.248 54.859L4.089 54.999L3.964 55.109L3.806 55.249"/>
      </g>
     </g>
     <g id="MB-432-0004.ASM">
      <desc>MB-432-0004.ASM</desc>
      <g id="MB-432-0002_X3_LABEL.PRT">
       <desc>MB-432-0002_X3_LABEL.PRT</desc>
       <line stroke-width="0.106" x1="12.564" y1="122.609" x2="12.564" y2="124.951"/>
       <line stroke-width="0.106" x1="12.75" y1="124.974" x2="12.564" y2="124.951"/>
       <line stroke-width="0.106" x1="12.75" y1="122.442" x2="12.564" y2="122.609"/>
       <line stroke-width="0.106" x1="12.75" y1="122.632" x2="12.564" y2="122.609"/>
       <line stroke-width="0.106" x1="12.75" y1="122.632" x2="12.75" y2="124.974"/>
      </g>
      <g id="MB-432-0002_X2_LABEL.PRT">
       <desc>MB-432-0002_X2_LABEL.PRT</desc>
       <line stroke-width="0.106" x1="12.564" y1="112.852" x2="12.564" y2="115.194"/>
       <line stroke-width="0.106" x1="12.75" y1="115.216" x2="12.564" y2="115.194"/>
       <line stroke-width="0.106" x1="12.75" y1="112.685" x2="12.564" y2="112.852"/>
       <line stroke-width="0.106" x1="12.75" y1="112.875" x2="12.564" y2="112.852"/>
       <line stroke-width="0.106" x1="12.75" y1="112.875" x2="12.75" y2="115.216"/>
      </g>
      <g id="MB-432-0002_X1_LABEL.PRT">
       <desc>MB-432-0002_X1_LABEL.PRT</desc>
       <line stroke-width="0.106" x1="12.564" y1="94.195" x2="12.564" y2="96.537"/>
       <line stroke-width="0.106" x1="12.75" y1="96.561" x2="12.564" y2="96.537"/>
       <line stroke-width="0.106" x1="12.75" y1="94.028" x2="12.564" y2="94.195"/>
       <line stroke-width="0.106" x1="12.75" y1="94.218" x2="12.564" y2="94.195"/>
       <line stroke-width="0.106" x1="12.75" y1="94.218" x2="12.75" y2="96.561"/>
      </g>
      <g id="432-0002_X0_LABEL_.PRT">
       <desc>432-0002_X0_LABEL_.PRT</desc>
       <line stroke-width="0.106" x1="12.564" y1="82.644" x2="12.564" y2="84.986"/>
       <line stroke-width="0.106" x1="12.75" y1="85.01" x2="12.564" y2="84.986"/>
       <line stroke-width="0.106" x1="12.75" y1="82.477" x2="12.564" y2="82.644"/>
       <line stroke-width="0.106" x1="12.75" y1="82.668" x2="12.564" y2="82.644"/>
       <line stroke-width="0.106" x1="12.75" y1="82.668" x2="12.75" y2="85.01"/>
      </g>
      <g id="SEISMIC_BRACING.ASM_1">
       <desc>SEISMIC_BRACING.ASM</desc>
       <g id="WELDMENT_TRAFOL70.PRT_29">
        <desc>WELDMENT_TRAFOL70.PRT</desc>
        <line stroke-width="0.106" x1="14.505" y1="77.498" x2="14.541" y2="77.474"/>
        <line stroke-width="0.106" x1="14.513" y1="77.545" x2="14.541" y2="77.474"/>
        <line stroke-width="0.106" x1="14.583" y1="77.51" x2="14.515" y2="77.548"/>
        <line stroke-width="0.106" x1="14.573" y1="77.516" x2="14.522" y2="77.566"/>
        <line stroke-width="0.106" x1="14.576" y1="77.513" x2="14.522" y2="77.566"/>
        <line stroke-width="0.106" x1="14.58" y1="77.512" x2="14.524" y2="77.569"/>
        <path stroke-width="0.106" d="M14.515 77.546C14.506 77.519 14.503 77.489 14.502 77.459"/>
        <path stroke-width="0.106" d="M14.659 77.539L14.561 77.587L14.55 77.59L14.532 77.581"/>
        <path stroke-width="0.106" d="M14.736 77.489C14.688 77.53 14.632 77.56 14.573 77.579"/>
       </g>
      </g>
      <g id="MB-432-0004_PROFILETOP_600MM.PRT_1">
       <desc>MB-432-0004_PROFILETOP_600MM.PRT</desc>
       <line stroke-width="0.106" x1="62.24" y1="66.659" x2="59.131" y2="66.278"/>
       <line stroke-width="0.106" x1="62.24" y1="67.409" x2="58.399" y2="66.936"/>
       <path stroke-width="0.106" d="M58.337 66.993L58.546 67.019L62.051 67.45L62.262 67.475L62.274 67.471C63.188 66.688 64.082 65.879 64.959 65.055C64.989 65.027 64.992 64.968 64.992 64.93L64.992 64.718L64.992 64.393L64.992 64.18L64.99 64.147C64.986 64.129 64.983 64.114 64.963 64.112"/>
       <path stroke-width="0.106" d="M64.971 64.114L64.959 64.118L64.801 64.26L62.432 66.393L62.274 66.534C62.244 66.563 62.24 66.621 62.24 66.659L62.24 66.87L62.24 67.197L62.24 67.409C62.24 67.435 62.241 67.457 62.262 67.475"/>
      </g>
      <g id="MB-432-0004_PROFILETOP_600MM.PRT">
       <desc>MB-432-0004_PROFILETOP_600MM.PRT</desc>
       <line stroke-width="0.106" x1="46.752" y1="80.605" x2="0.169" y2="74.885"/>
       <line stroke-width="0.106" x1="46.752" y1="81.355" x2="0.169" y2="75.635"/>
       <path stroke-width="0.106" d="M0.2 74.766C0.143 74.847 0.169 75.031 0.169 75.097L0.169 75.423L0.169 75.635C0.171 75.759 0.269 75.712 0.401 75.728L46.563 81.397C46.843 81.43 46.734 81.465 46.944 81.275L49.313 79.143L49.469 79.001C49.5 78.972 49.503 78.915 49.503 78.876L49.503 78.665L49.503 78.338L49.503 78.128L49.502 78.093C49.499 78.075 49.493 78.061 49.475 78.058"/>
       <path stroke-width="0.106" d="M49.482 78.06L49.469 78.064L49.313 78.206L46.944 80.338L46.786 80.48C46.756 80.509 46.752 80.567 46.752 80.605L46.752 80.817L46.752 81.143L46.752 81.355C46.752 81.382 46.753 81.403 46.773 81.421"/>
      </g>
      <g id="432-0292_CORE.PRT">
       <desc>432-0292_CORE.PRT</desc>
       <line stroke-width="0.106" x1="14.525" y1="134.475" x2="14.255" y2="134.443"/>
       <line stroke-width="0.106" x1="45.003" y1="120.016" x2="44.734" y2="119.983"/>
       <line stroke-width="0.106" x1="45.003" y1="101.284" x2="44.734" y2="101.251"/>
       <line stroke-width="0.106" x1="45.365" y1="82.225" x2="45.365" y2="90.435"/>
       <line stroke-width="0.106" x1="46.052" y1="89.814" x2="45.365" y2="90.435"/>
       <line stroke-width="0.106" x1="44.991" y1="82.18" x2="45.365" y2="82.225"/>
       <line stroke-width="0.106" x1="44.991" y1="82.18" x2="43.96" y2="83.109"/>
       <line stroke-width="0.106" x1="43.96" y1="131.441" x2="43.96" y2="83.109"/>
       <line stroke-width="0.106" x1="44.704" y1="131.532" x2="43.96" y2="131.441"/>
       <line stroke-width="0.106" x1="46.426" y1="129.983" x2="44.704" y2="131.532"/>
       <line stroke-width="0.106" x1="45.365" y1="112.281" x2="45.365" y2="127.746"/>
       <line stroke-width="0.106" x1="46.052" y1="127.128" x2="45.365" y2="127.746"/>
       <line stroke-width="0.106" x1="44.332" y1="112.829" x2="44.704" y2="112.876"/>
       <line stroke-width="0.106" x1="46.426" y1="111.326" x2="44.704" y2="112.876"/>
       <line stroke-width="0.106" x1="45.576" y1="115.094" x2="45.576" y2="112.284"/>
       <line stroke-width="0.106" x1="49.359" y1="108.878" x2="45.576" y2="112.284"/>
       <line stroke-width="0.106" x1="45.948" y1="115.141" x2="45.576" y2="115.094"/>
       <line stroke-width="0.106" x1="45.948" y1="115.141" x2="49.732" y2="111.733"/>
       <line stroke-width="0.106" x1="45.365" y1="93.626" x2="45.365" y2="109.09"/>
       <line stroke-width="0.106" x1="46.052" y1="108.471" x2="45.365" y2="109.09"/>
       <line stroke-width="0.106" x1="45.576" y1="96.438" x2="45.576" y2="93.629"/>
       <line stroke-width="0.106" x1="49.359" y1="90.221" x2="45.576" y2="93.629"/>
       <line stroke-width="0.106" x1="45.948" y1="96.484" x2="45.576" y2="96.438"/>
       <line stroke-width="0.106" x1="45.948" y1="96.484" x2="49.732" y2="93.076"/>
       <line stroke-width="0.106" x1="44.332" y1="94.174" x2="44.704" y2="94.219"/>
       <line stroke-width="0.106" x1="46.426" y1="92.671" x2="44.704" y2="94.219"/>
       <line stroke-width="0.106" x1="9.747" y1="115.662" x2="9.686" y2="115.656"/>
       <line stroke-width="0.106" x1="9.621" y1="116.73" x2="9.558" y2="116.724"/>
       <line stroke-width="0.106" x1="12.75" y1="116.171" x2="10.342" y2="115.876"/>
       <line stroke-width="0.106" x1="9.843" y1="116.022" x2="9.512" y2="115.981"/>
       <line stroke-width="0.106" x1="9.747" y1="96.929" x2="9.686" y2="96.924"/>
       <line stroke-width="0.106" x1="9.621" y1="97.996" x2="9.558" y2="97.992"/>
       <line stroke-width="0.106" x1="12.75" y1="97.515" x2="10.342" y2="97.219"/>
       <line stroke-width="0.106" x1="9.843" y1="97.29" x2="9.512" y2="97.248"/>
       <line stroke-width="0.106" x1="8.965" y1="86.525" x2="10.342" y2="85.286"/>
       <line stroke-width="0.106" x1="10.852" y1="89.986" x2="10.852" y2="85.302"/>
       <line stroke-width="0.106" x1="9.621" y1="84.602" x2="9.558" y2="84.597"/>
       <line stroke-width="0.106" x1="9.43" y1="91.266" x2="9.43" y2="86.582"/>
       <line stroke-width="0.106" x1="8.965" y1="86.525" x2="8.965" y2="81.219"/>
       <line stroke-width="0.106" x1="10.342" y1="79.98" x2="8.965" y2="81.219"/>
       <line stroke-width="0.106" x1="8.5" y1="81.162" x2="8.965" y2="81.219"/>
       <line stroke-width="0.106" x1="9.43" y1="86.582" x2="8.965" y2="86.525"/>
       <line stroke-width="0.106" x1="8.965" y1="105.182" x2="8.965" y2="91.209"/>
       <line stroke-width="0.106" x1="9.43" y1="109.921" x2="9.43" y2="105.239"/>
       <line stroke-width="0.106" x1="8.965" y1="105.182" x2="10.342" y2="103.942"/>
       <line stroke-width="0.106" x1="10.852" y1="108.641" x2="10.852" y2="103.959"/>
       <line stroke-width="0.106" x1="9.43" y1="105.239" x2="8.965" y2="105.182"/>
       <line stroke-width="0.106" x1="8.965" y1="123.837" x2="8.965" y2="109.864"/>
       <line stroke-width="0.106" x1="8.965" y1="123.837" x2="10.342" y2="122.599"/>
       <line stroke-width="0.106" x1="10.852" y1="127.298" x2="10.852" y2="122.614"/>
       <line stroke-width="0.106" x1="9.43" y1="123.894" x2="9.43" y2="128.578"/>
       <line stroke-width="0.106" x1="8.965" y1="123.837" x2="9.43" y2="123.894"/>
       <line stroke-width="0.106" x1="9.843" y1="83.896" x2="9.512" y2="83.855"/>
       <line stroke-width="0.106" x1="9.686" y1="83.528" x2="9.747" y2="83.534"/>
       <line stroke-width="0.106" x1="9.747" y1="81.192" x2="9.686" y2="81.188"/>
       <line stroke-width="0.106" x1="9.558" y1="82.256" x2="9.621" y2="82.262"/>
       <line stroke-width="0.106" x1="9.843" y1="81.554" x2="9.512" y2="81.513"/>
       <line stroke-width="0.106" x1="17.06" y1="84.189" x2="13.689" y2="87.224"/>
       <line stroke-width="0.106" x1="31.849" y1="89.454" x2="13.689" y2="87.224"/>
       <line stroke-width="0.106" x1="13.689" y1="132.183" x2="13.689" y2="87.224"/>
       <line stroke-width="0.106" x1="17.405" y1="83.879" x2="31.849" y2="85.653"/>
       <line stroke-width="0.106" x1="17.405" y1="83.879" x2="17.06" y2="84.189"/>
       <line stroke-width="0.106" x1="17.06" y1="77.774" x2="17.06" y2="84.189"/>
       <line stroke-width="0.106" x1="31.849" y1="134.413" x2="13.689" y2="132.183"/>
       <line stroke-width="0.106" x1="17.06" y1="133.246" x2="31.849" y2="135.061"/>
       <line stroke-width="0.106" x1="17.06" y1="134.066" x2="17.06" y2="132.598"/>
       <line stroke-width="0.106" x1="13.682" y1="137.108" x2="17.06" y2="134.066"/>
       <line stroke-width="0.106" x1="12.75" y1="136.993" x2="13.682" y2="137.108"/>
       <line stroke-width="0.106" x1="12.75" y1="77.984" x2="12.75" y2="136.993"/>
       <line stroke-width="0.106" x1="13.48" y1="77.328" x2="12.75" y2="77.984"/>
       <line stroke-width="0.106" x1="44.332" y1="83.156" x2="45.365" y2="82.225"/>
       <line stroke-width="0.106" x1="43.96" y1="83.109" x2="44.332" y2="83.156"/>
       <line stroke-width="0.106" x1="44.332" y1="91.364" x2="44.332" y2="83.156"/>
       <line stroke-width="0.106" x1="36.159" y1="81.733" x2="44.368" y2="82.742"/>
       <line stroke-width="0.106" x1="44.704" y1="94.219" x2="44.704" y2="91.409"/>
       <line stroke-width="0.106" x1="44.332" y1="91.364" x2="45.365" y2="90.435"/>
       <line stroke-width="0.106" x1="46.052" y1="89.814" x2="46.426" y2="89.861"/>
       <line stroke-width="0.106" x1="44.704" y1="91.409" x2="46.426" y2="89.861"/>
       <line stroke-width="0.106" x1="46.426" y1="92.671" x2="46.426" y2="89.861"/>
       <line stroke-width="0.106" x1="44.332" y1="91.364" x2="44.704" y2="91.409"/>
       <line stroke-width="0.106" x1="44.332" y1="110.019" x2="44.332" y2="94.174"/>
       <line stroke-width="0.106" x1="44.704" y1="112.876" x2="44.704" y2="110.066"/>
       <line stroke-width="0.106" x1="44.332" y1="110.019" x2="45.365" y2="109.09"/>
       <line stroke-width="0.106" x1="46.052" y1="108.471" x2="46.426" y2="108.516"/>
       <line stroke-width="0.106" x1="44.704" y1="110.066" x2="46.426" y2="108.516"/>
       <line stroke-width="0.106" x1="46.426" y1="111.326" x2="46.426" y2="108.516"/>
       <line stroke-width="0.106" x1="44.332" y1="110.019" x2="44.704" y2="110.066"/>
       <line stroke-width="0.106" x1="44.332" y1="128.675" x2="44.332" y2="112.829"/>
       <line stroke-width="0.106" x1="44.704" y1="131.532" x2="44.704" y2="128.722"/>
       <line stroke-width="0.106" x1="44.332" y1="128.675" x2="45.365" y2="127.746"/>
       <line stroke-width="0.106" x1="46.052" y1="127.128" x2="46.426" y2="127.173"/>
       <line stroke-width="0.106" x1="44.704" y1="128.722" x2="46.426" y2="127.173"/>
       <line stroke-width="0.106" x1="46.426" y1="129.983" x2="46.426" y2="127.173"/>
       <line stroke-width="0.106" x1="44.332" y1="128.675" x2="44.704" y2="128.722"/>
       <line stroke-width="0.106" x1="45.003" y1="83.674" x2="44.734" y2="83.641"/>
       <line stroke-width="0.106" x1="49.732" y1="127.578" x2="45.948" y2="130.986"/>
       <line stroke-width="0.106" x1="45.948" y1="133.796" x2="45.948" y2="130.986"/>
       <line stroke-width="0.106" x1="45.576" y1="130.941" x2="45.948" y2="130.986"/>
       <line stroke-width="0.106" x1="49.732" y1="130.389" x2="49.732" y2="127.578"/>
       <line stroke-width="0.106" x1="49.359" y1="127.534" x2="49.732" y2="127.578"/>
       <line stroke-width="0.106" x1="47.375" y1="131.105" x2="47.106" y2="131.073"/>
       <line stroke-width="0.106" x1="46.515" y1="131.881" x2="46.246" y2="131.848"/>
       <line stroke-width="0.106" x1="49.732" y1="130.389" x2="45.948" y2="133.796"/>
       <line stroke-width="0.106" x1="45.576" y1="133.751" x2="45.948" y2="133.796"/>
       <line stroke-width="0.106" x1="45.576" y1="133.751" x2="45.576" y2="130.941"/>
       <line stroke-width="0.106" x1="49.359" y1="127.534" x2="45.576" y2="130.941"/>
       <line stroke-width="0.106" x1="49.732" y1="108.923" x2="45.948" y2="112.331"/>
       <line stroke-width="0.106" x1="45.948" y1="115.141" x2="45.948" y2="112.331"/>
       <line stroke-width="0.106" x1="45.576" y1="112.284" x2="45.948" y2="112.331"/>
       <line stroke-width="0.106" x1="49.732" y1="111.733" x2="49.732" y2="108.923"/>
       <line stroke-width="0.106" x1="49.359" y1="108.878" x2="49.732" y2="108.923"/>
       <line stroke-width="0.106" x1="47.375" y1="112.45" x2="47.106" y2="112.417"/>
       <line stroke-width="0.106" x1="46.515" y1="113.224" x2="46.246" y2="113.191"/>
       <line stroke-width="0.106" x1="49.732" y1="90.266" x2="45.948" y2="93.674"/>
       <line stroke-width="0.106" x1="45.948" y1="96.484" x2="45.948" y2="93.674"/>
       <line stroke-width="0.106" x1="45.576" y1="93.629" x2="45.948" y2="93.674"/>
       <line stroke-width="0.106" x1="49.732" y1="93.076" x2="49.732" y2="90.266"/>
       <line stroke-width="0.106" x1="49.359" y1="90.221" x2="49.732" y2="90.266"/>
       <line stroke-width="0.106" x1="47.375" y1="93.793" x2="47.106" y2="93.76"/>
       <line stroke-width="0.106" x1="46.515" y1="94.569" x2="46.246" y2="94.534"/>
       <line stroke-width="0.106" x1="10.342" y1="79.98" x2="10.342" y2="85.286"/>
       <line stroke-width="0.106" x1="9.875" y1="79.924" x2="10.342" y2="79.98"/>
       <line stroke-width="0.106" x1="9.875" y1="79.924" x2="8.5" y2="81.162"/>
       <line stroke-width="0.106" x1="8.5" y1="128.463" x2="8.5" y2="81.162"/>
       <line stroke-width="0.106" x1="9.43" y1="128.578" x2="8.5" y2="128.463"/>
       <line stroke-width="0.106" x1="10.342" y1="109.102" x2="10.342" y2="122.599"/>
       <line stroke-width="0.106" x1="8.965" y1="109.864" x2="9.43" y2="109.921"/>
       <line stroke-width="0.106" x1="10.342" y1="90.445" x2="10.342" y2="103.942"/>
       <line stroke-width="0.106" x1="8.965" y1="91.209" x2="9.43" y2="91.266"/>
       <line stroke-width="0.106" x1="5.809" y1="89.364" x2="5.686" y2="89.349"/>
       <line stroke-width="0.106" x1="4.948" y1="90.138" x2="4.825" y2="90.123"/>
       <line stroke-width="0.106" x1="8.32" y1="84.246" x2="4.535" y2="87.653"/>
       <line stroke-width="0.106" x1="4.07" y1="87.596" x2="4.535" y2="87.653"/>
       <line stroke-width="0.106" x1="4.535" y1="92.337" x2="4.535" y2="87.653"/>
       <line stroke-width="0.106" x1="8.32" y1="88.93" x2="8.32" y2="84.246"/>
       <line stroke-width="0.106" x1="8.32" y1="84.246" x2="7.855" y2="84.188"/>
       <line stroke-width="0.106" x1="4.07" y1="87.596" x2="7.855" y2="84.188"/>
       <line stroke-width="0.106" x1="4.07" y1="92.28" x2="4.07" y2="87.596"/>
       <line stroke-width="0.106" x1="4.535" y1="92.337" x2="4.07" y2="92.28"/>
       <line stroke-width="0.106" x1="4.535" y1="92.337" x2="8.32" y2="88.93"/>
       <line stroke-width="0.106" x1="5.809" y1="108.021" x2="5.686" y2="108.006"/>
       <line stroke-width="0.106" x1="4.948" y1="108.795" x2="4.825" y2="108.78"/>
       <line stroke-width="0.106" x1="8.32" y1="102.903" x2="4.535" y2="106.31"/>
       <line stroke-width="0.106" x1="4.07" y1="106.253" x2="4.535" y2="106.31"/>
       <line stroke-width="0.106" x1="4.535" y1="110.993" x2="4.535" y2="106.31"/>
       <line stroke-width="0.106" x1="8.32" y1="107.585" x2="8.32" y2="102.903"/>
       <line stroke-width="0.106" x1="8.32" y1="102.903" x2="7.855" y2="102.846"/>
       <line stroke-width="0.106" x1="4.07" y1="106.253" x2="7.855" y2="102.846"/>
       <line stroke-width="0.106" x1="4.07" y1="110.936" x2="4.07" y2="106.253"/>
       <line stroke-width="0.106" x1="4.535" y1="110.993" x2="4.07" y2="110.936"/>
       <line stroke-width="0.106" x1="4.535" y1="110.993" x2="8.32" y2="107.585"/>
       <line stroke-width="0.106" x1="5.809" y1="126.677" x2="5.686" y2="126.662"/>
       <line stroke-width="0.106" x1="4.948" y1="127.45" x2="4.825" y2="127.436"/>
       <line stroke-width="0.106" x1="8.32" y1="121.558" x2="4.535" y2="124.965"/>
       <line stroke-width="0.106" x1="4.07" y1="124.909" x2="4.535" y2="124.965"/>
       <line stroke-width="0.106" x1="4.535" y1="129.65" x2="4.535" y2="124.965"/>
       <line stroke-width="0.106" x1="8.32" y1="126.242" x2="8.32" y2="121.558"/>
       <line stroke-width="0.106" x1="8.32" y1="121.558" x2="7.855" y2="121.501"/>
       <line stroke-width="0.106" x1="4.07" y1="124.909" x2="7.855" y2="121.501"/>
       <line stroke-width="0.106" x1="4.07" y1="129.592" x2="4.07" y2="124.909"/>
       <line stroke-width="0.106" x1="4.535" y1="129.65" x2="4.07" y2="129.592"/>
       <line stroke-width="0.106" x1="4.535" y1="129.65" x2="8.32" y2="126.242"/>
       <line stroke-width="0.106" x1="32.579" y1="79.673" x2="31.849" y2="80.329"/>
       <line stroke-width="0.106" x1="31.849" y1="139.338" x2="31.849" y2="80.329"/>
       <line stroke-width="0.106" x1="32.78" y1="139.453" x2="31.849" y2="139.338"/>
       <line stroke-width="0.106" x1="36.159" y1="136.411" x2="32.78" y2="139.453"/>
       <line stroke-width="0.106" x1="36.159" y1="80.118" x2="36.159" y2="136.411"/>
       <line stroke-width="0.106" x1="32.78" y1="80.444" x2="31.849" y2="80.329"/>
       <line stroke-width="0.106" x1="32.78" y1="139.453" x2="32.78" y2="80.444"/>
       <line stroke-width="0.106" x1="33.509" y1="79.787" x2="32.78" y2="80.444"/>
       <line stroke-width="0.106" x1="13.682" y1="78.099" x2="12.75" y2="77.984"/>
       <line stroke-width="0.106" x1="13.682" y1="137.108" x2="13.682" y2="78.099"/>
       <line stroke-width="0.106" x1="14.41" y1="77.442" x2="13.682" y2="78.099"/>
       <line stroke-width="0.106" x1="58.475" y1="72.715" x2="46.984" y2="83.063"/>
       <line stroke-width="0.106" x1="61.271" y1="86.793" x2="49.78" y2="97.14"/>
       <line stroke-width="0.106" x1="11.705" y1="71.706" x2="10.945" y2="72.391"/>
       <line stroke-width="0.106" x1="58.475" y1="91.371" x2="46.984" y2="101.718"/>
       <line stroke-width="0.106" x1="61.271" y1="105.45" x2="49.78" y2="115.796"/>
       <line stroke-width="0.106" x1="58.475" y1="110.028" x2="46.984" y2="120.375"/>
       <line stroke-width="0.106" x1="61.271" y1="124.106" x2="49.78" y2="134.453"/>
       <line stroke-width="0.106" x1="8.055" y1="113.483" x2="5.992" y2="115.341"/>
       <line stroke-width="0.106" x1="8.055" y1="94.826" x2="5.992" y2="96.686"/>
       <line stroke-width="0.106" x1="7.569" y1="76.608" x2="5.992" y2="78.028"/>
       <line stroke-width="0.106" x1="12.75" y1="71.944" x2="12.096" y2="72.533"/>
       <line stroke-width="0.106" x1="61.271" y1="94.525" x2="49.78" y2="104.871"/>
       <line stroke-width="0.106" x1="61.271" y1="113.182" x2="49.78" y2="123.528"/>
       <line stroke-width="0.106" x1="61.271" y1="75.868" x2="49.78" y2="86.215"/>
       <line stroke-width="0.106" x1="12.564" y1="114.036" x2="10.342" y2="113.763"/>
       <line stroke-width="0.106" x1="12.564" y1="95.379" x2="10.342" y2="95.106"/>
       <line stroke-width="0.106" x1="31.849" y1="81.203" x2="17.06" y2="79.388"/>
       <line stroke-width="0.106" x1="43.96" y1="101.346" x2="36.159" y2="100.39"/>
       <line stroke-width="0.106" x1="43.96" y1="99.234" x2="36.159" y2="98.278"/>
       <line stroke-width="0.106" x1="43.96" y1="120.004" x2="36.159" y2="119.046"/>
       <line stroke-width="0.106" x1="43.96" y1="117.891" x2="36.159" y2="116.933"/>
       <path stroke-width="0.106" d="M14.429 134.171L14.48 134.217C14.516 134.287 14.525 134.403 14.525 134.475C14.525 134.586 14.509 134.707 14.48 134.814C14.461 134.877 14.425 134.986 14.369 135.037L14.31 135.057"/>
       <path stroke-width="0.106" d="M14.429 134.171L14.369 134.193C14.314 134.242 14.278 134.353 14.26 134.415C14.23 134.521 14.214 134.644 14.214 134.753C14.214 134.825 14.223 134.943 14.26 135.012L14.31 135.057"/>
       <path stroke-width="0.106" d="M44.789 120.599L44.738 120.552C44.701 120.483 44.694 120.367 44.694 120.296C44.694 120.186 44.71 120.063 44.738 119.956C44.756 119.894 44.793 119.784 44.848 119.734L44.908 119.713"/>
       <path stroke-width="0.106" d="M44.908 119.713L44.957 119.76C44.996 119.828 45.003 119.944 45.003 120.016C45.003 120.128 44.987 120.25 44.957 120.355C44.941 120.418 44.904 120.528 44.848 120.578L44.789 120.599"/>
       <path stroke-width="0.106" d="M45.365 120.176L45.575 120.201L46.774 120.349L46.984 120.375L47.399 120.472L47.606 120.522L47.798 120.612L48.197 120.802L48.366 120.93L48.557 121.073L48.726 121.201L48.868 121.359L49.029 121.543L49.17 121.7L49.276 121.884L49.396 122.091L49.503 122.275L49.57 122.475L49.71 122.894L49.732 123.105L49.78 123.528L49.78 123.739L49.78 134.241L49.78 134.453L49.732 134.859L49.71 135.069L49.637 135.269L49.575 135.438L49.503 135.638L49.384 135.813L49.289 135.955L49.17 136.129"/>
       <path stroke-width="0.106" d="M44.789 101.865L44.738 101.819C44.701 101.751 44.694 101.635 44.694 101.563C44.694 101.453 44.71 101.331 44.738 101.224C44.756 101.161 44.793 101.052 44.848 101.001L44.908 100.98"/>
       <path stroke-width="0.106" d="M44.908 100.98L44.957 101.027C44.996 101.096 45.003 101.212 45.003 101.284C45.003 101.394 44.987 101.516 44.957 101.623C44.941 101.686 44.904 101.796 44.848 101.844L44.789 101.865"/>
       <path stroke-width="0.106" d="M45.365 101.519L45.575 101.546L46.774 101.692L46.984 101.718L47.399 101.816L47.606 101.865L47.798 101.956L48.197 102.146L48.366 102.274L48.557 102.418L48.726 102.546L48.868 102.703L49.029 102.887L49.17 103.045L49.276 103.227L49.396 103.436L49.503 103.618L49.57 103.819L49.71 104.237L49.732 104.448L49.78 104.871L49.78 105.084L49.78 115.584L49.78 115.796L49.732 116.201L49.71 116.412L49.637 116.611L49.575 116.781L49.503 116.98L49.384 117.156L49.289 117.298L49.17 117.472"/>
       <path stroke-width="0.106" d="M9.558 116.724L9.509 116.655C9.473 116.57 9.464 116.45 9.464 116.364C9.464 116.242 9.48 116.111 9.509 115.992C9.529 115.906 9.566 115.79 9.621 115.715L9.686 115.656"/>
       <path stroke-width="0.106" d="M9.621 116.73L9.686 116.671C9.74 116.596 9.778 116.48 9.798 116.394C9.827 116.275 9.843 116.144 9.843 116.022C9.843 115.936 9.833 115.814 9.798 115.731L9.747 115.662"/>
       <path stroke-width="0.106" d="M9.558 97.992L9.509 97.921C9.473 97.837 9.464 97.718 9.464 97.631C9.464 97.509 9.48 97.378 9.509 97.26C9.529 97.174 9.567 97.058 9.621 96.983L9.686 96.924"/>
       <path stroke-width="0.106" d="M9.621 97.996L9.686 97.938C9.74 97.862 9.778 97.746 9.798 97.661C9.827 97.543 9.843 97.412 9.843 97.29C9.843 97.203 9.833 97.081 9.798 96.998L9.747 96.929"/>
       <path stroke-width="0.106" d="M9.747 83.534L9.798 83.605C9.833 83.688 9.843 83.808 9.843 83.896C9.843 84.018 9.827 84.149 9.798 84.266C9.778 84.352 9.74 84.468 9.686 84.543L9.621 84.602"/>
       <path stroke-width="0.106" d="M9.43 86.582L9.589 86.441L10.695 85.444L10.852 85.302L11.064 85.305L12.538 85.331L12.75 85.334"/>
       <path stroke-width="0.106" d="M9.43 105.239L9.589 105.096L10.695 104.099L10.852 103.959L11.064 103.962L12.538 103.986L12.75 103.989"/>
       <path stroke-width="0.106" d="M9.43 123.894L9.589 123.753L10.695 122.756L10.852 122.614L11.064 122.617L12.352 122.64L12.564 122.643"/>
       <path stroke-width="0.106" d="M9.686 83.528L9.621 83.588C9.566 83.664 9.529 83.78 9.509 83.865C9.48 83.983 9.464 84.114 9.464 84.236C9.464 84.323 9.473 84.444 9.509 84.528L9.558 84.597"/>
       <path stroke-width="0.106" d="M9.558 82.256L9.509 82.186C9.473 82.102 9.464 81.981 9.464 81.894C9.464 81.774 9.48 81.641 9.509 81.524C9.529 81.438 9.567 81.322 9.621 81.246L9.686 81.188"/>
       <path stroke-width="0.106" d="M9.747 81.192L9.798 81.263C9.833 81.346 9.843 81.468 9.843 81.554C9.843 81.676 9.827 81.807 9.798 81.924C9.778 82.012 9.74 82.128 9.686 82.203L9.621 82.262"/>
       <path stroke-width="0.106" d="M44.789 84.257L44.738 84.21C44.701 84.143 44.694 84.025 44.694 83.953C44.694 83.843 44.71 83.721 44.738 83.614C44.756 83.552 44.793 83.442 44.848 83.393L44.908 83.371"/>
       <path stroke-width="0.106" d="M44.908 83.371L44.957 83.418C44.996 83.486 45.003 83.602 45.003 83.674C45.003 83.786 44.987 83.908 44.957 84.013C44.941 84.076 44.904 84.186 44.848 84.236L44.789 84.257"/>
       <path stroke-width="0.106" d="M45.365 82.864L45.575 82.89L46.774 83.037L46.984 83.063L47.399 83.161L47.606 83.209L47.798 83.299L48.197 83.489L48.366 83.617L48.557 83.762L48.726 83.89L48.868 84.048L49.029 84.23L49.17 84.388L49.276 84.572L49.396 84.778L49.503 84.962L49.57 85.164L49.71 85.581L49.732 85.793L49.78 86.215L49.78 86.427L49.78 96.927L49.78 97.14L49.732 97.546L49.71 97.757L49.637 97.956L49.575 98.126L49.503 98.325L49.384 98.501L49.289 98.641L49.17 98.816"/>
       <path stroke-width="0.106" d="M47.28 130.802L47.331 130.848C47.368 130.918 47.375 131.033 47.375 131.105C47.375 131.217 47.359 131.338 47.331 131.444C47.314 131.508 47.276 131.617 47.222 131.667L47.161 131.687"/>
       <path stroke-width="0.106" d="M46.42 131.576L46.47 131.623C46.509 131.693 46.515 131.808 46.515 131.881C46.515 131.991 46.5 132.112 46.47 132.219C46.454 132.282 46.415 132.391 46.36 132.442L46.301 132.462"/>
       <path stroke-width="0.106" d="M46.301 132.462L46.252 132.417C46.213 132.348 46.207 132.23 46.207 132.159C46.207 132.049 46.222 131.926 46.252 131.82C46.268 131.758 46.307 131.647 46.36 131.598L46.42 131.576"/>
       <path stroke-width="0.106" d="M47.161 131.687L47.112 131.641C47.073 131.573 47.067 131.456 47.067 131.384C47.067 131.275 47.082 131.152 47.112 131.045C47.128 130.983 47.167 130.873 47.222 130.824L47.28 130.802"/>
       <path stroke-width="0.106" d="M47.28 112.147L47.331 112.192C47.368 112.262 47.375 112.378 47.375 112.45C47.375 112.561 47.359 112.683 47.331 112.789C47.314 112.852 47.276 112.962 47.222 113.01L47.161 113.031"/>
       <path stroke-width="0.106" d="M46.42 112.921L46.47 112.966C46.509 113.036 46.515 113.153 46.515 113.224C46.515 113.334 46.5 113.456 46.47 113.563C46.454 113.626 46.415 113.736 46.36 113.786L46.301 113.807"/>
       <path stroke-width="0.106" d="M46.42 112.921L46.36 112.942C46.307 112.992 46.268 113.102 46.252 113.165C46.222 113.271 46.207 113.393 46.207 113.503C46.207 113.575 46.213 113.691 46.252 113.76L46.301 113.807"/>
       <path stroke-width="0.106" d="M47.28 112.147L47.222 112.168C47.167 112.218 47.128 112.326 47.112 112.39C47.082 112.496 47.067 112.618 47.067 112.728C47.067 112.801 47.073 112.917 47.112 112.986L47.161 113.031"/>
       <path stroke-width="0.106" d="M47.28 93.49L47.331 93.537C47.368 93.605 47.375 93.721 47.375 93.793C47.375 93.905 47.359 94.025 47.331 94.132C47.314 94.195 47.276 94.305 47.222 94.355L47.161 94.376"/>
       <path stroke-width="0.106" d="M46.42 94.265L46.47 94.311C46.509 94.379 46.515 94.496 46.515 94.569C46.515 94.679 46.5 94.801 46.47 94.906C46.454 94.969 46.415 95.079 46.36 95.129L46.301 95.15"/>
       <path stroke-width="0.106" d="M46.301 95.15L46.252 95.105C46.213 95.036 46.207 94.918 46.207 94.846C46.207 94.736 46.222 94.614 46.252 94.509C46.268 94.445 46.307 94.335 46.36 94.286L46.42 94.265"/>
       <path stroke-width="0.106" d="M47.28 93.49L47.222 93.512C47.167 93.561 47.128 93.671 47.112 93.733C47.082 93.84 47.067 93.962 47.067 94.072C47.067 94.144 47.073 94.26 47.112 94.329L47.161 94.376"/>
       <path stroke-width="0.106" d="M12.75 85.168C12.005 85.156 11.259 85.144 10.513 85.132L10.342 85.286"/>
       <path stroke-width="0.106" d="M12.75 127.329C12.118 127.319 11.486 127.308 10.852 127.298L9.43 128.578"/>
       <path stroke-width="0.106" d="M12.708 122.48C11.977 122.468 11.244 122.456 10.513 122.444L10.342 122.599"/>
       <path stroke-width="0.106" d="M9.43 109.921L9.589 109.78L10.695 108.784L10.852 108.641L11.064 108.644L12.538 108.67L12.75 108.673"/>
       <path stroke-width="0.106" d="M12.75 103.825C12.005 103.811 11.259 103.799 10.513 103.787L10.342 103.942"/>
       <path stroke-width="0.106" d="M9.43 91.266L9.589 91.123L10.695 90.128L10.852 89.986L11.064 89.989L12.538 90.013L12.75 90.016"/>
       <path stroke-width="0.106" d="M5.873 88.307L5.931 88.346C5.976 88.408 5.99 88.524 5.996 88.591C6.008 88.772 5.985 88.962 5.931 89.135C5.91 89.203 5.868 89.311 5.809 89.364L5.745 89.391"/>
       <path stroke-width="0.106" d="M5.014 89.081L5.07 89.12C5.115 89.182 5.131 89.298 5.136 89.367C5.147 89.548 5.125 89.736 5.07 89.909C5.049 89.977 5.008 90.087 4.948 90.138L4.884 90.165"/>
       <path stroke-width="0.106" d="M4.884 90.165L4.828 90.128C4.782 90.066 4.767 89.95 4.762 89.881C4.751 89.7 4.772 89.512 4.828 89.338C4.849 89.271 4.891 89.162 4.948 89.108L5.014 89.081"/>
       <path stroke-width="0.106" d="M5.745 89.391L5.687 89.353C5.642 89.29 5.628 89.176 5.623 89.106C5.61 88.926 5.634 88.736 5.687 88.564C5.708 88.496 5.751 88.387 5.809 88.334L5.873 88.307"/>
       <path stroke-width="0.106" d="M5.873 106.962L5.931 107.001C5.976 107.063 5.99 107.18 5.996 107.248C6.008 107.429 5.985 107.617 5.931 107.79C5.91 107.858 5.868 107.968 5.809 108.021L5.745 108.048"/>
       <path stroke-width="0.106" d="M5.014 107.737L5.07 107.775C5.115 107.838 5.131 107.953 5.136 108.022C5.147 108.203 5.125 108.393 5.07 108.564C5.049 108.632 5.008 108.742 4.948 108.795L4.884 108.822"/>
       <path stroke-width="0.106" d="M4.884 108.822L4.828 108.784C4.782 108.721 4.767 108.605 4.762 108.537C4.751 108.356 4.772 108.168 4.828 107.995C4.849 107.927 4.891 107.817 4.948 107.765L5.014 107.737"/>
       <path stroke-width="0.106" d="M5.745 108.048L5.687 108.01C5.642 107.947 5.628 107.831 5.623 107.763C5.61 107.581 5.634 107.393 5.687 107.221C5.708 107.153 5.751 107.043 5.809 106.99L5.873 106.962"/>
       <path stroke-width="0.106" d="M5.873 125.62L5.931 125.658C5.976 125.719 5.99 125.835 5.996 125.905C6.008 126.084 5.985 126.274 5.931 126.447C5.91 126.515 5.868 126.623 5.809 126.677L5.745 126.703"/>
       <path stroke-width="0.106" d="M5.014 126.394L5.07 126.432C5.115 126.495 5.131 126.609 5.136 126.679C5.147 126.859 5.125 127.049 5.07 127.221C5.049 127.289 5.008 127.399 4.948 127.45L4.884 127.478"/>
       <path stroke-width="0.106" d="M4.884 127.478L4.828 127.439C4.782 127.378 4.767 127.262 4.762 127.194C4.751 127.013 4.772 126.823 4.828 126.65C4.849 126.582 4.891 126.474 4.948 126.421L5.014 126.394"/>
       <path stroke-width="0.106" d="M5.745 126.703L5.687 126.665C5.642 126.603 5.628 126.487 5.623 126.418C5.61 126.239 5.634 126.049 5.687 125.876C5.708 125.808 5.751 125.698 5.809 125.647L5.873 125.62"/>
       <path stroke-width="0.106" d="M45.365 99.408L45.575 99.433L46.774 99.581L46.984 99.606L47.395 99.611L47.606 99.612L47.813 99.564L47.99 99.525L48.197 99.477L48.386 99.381L48.537 99.304L48.726 99.207L48.886 99.066C49.033 98.936 49.18 98.807 49.326 98.674L60.503 88.611L60.661 88.471L60.78 88.295L60.875 88.153L60.993 87.978L61.066 87.78L61.128 87.608L61.201 87.409L61.223 87.2L61.271 86.793L61.271 86.581L61.271 76.081L61.271 75.868L61.223 75.445L61.2 75.234L61.133 75.034L60.993 74.615L60.887 74.433L60.767 74.225L60.661 74.043L60.52 73.884L60.359 73.701L60.218 73.543L60.048 73.415L59.857 73.271L59.688 73.143L59.289 72.953L59.097 72.862L58.89 72.813L58.475 72.715L58.265 72.689L52.97 72.04L52.761 72.015"/>
       <path stroke-width="0.106" d="M6.418 76.466L6.261 76.608L3.964 78.677L3.806 78.819L3.687 78.995L3.592 79.135L3.474 79.311L3.4 79.51L3.338 79.68L3.266 79.879L3.242 80.09L3.197 80.495L3.197 80.707L3.197 91.207L3.197 91.42L3.243 91.843L3.266 92.054L3.334 92.254L3.474 92.673L3.58 92.856L3.7 93.063L3.806 93.246L3.947 93.406L4.108 93.587L4.248 93.745L4.418 93.873L4.61 94.019L4.778 94.146L4.969 94.236L5.37 94.427L5.575 94.474L5.992 94.572L6.201 94.599L8.288 94.855L8.5 94.881"/>
       <path stroke-width="0.106" d="M45.365 118.063L45.575 118.09L46.774 118.236L46.984 118.263L47.395 118.266L47.606 118.269L47.813 118.221L47.99 118.18L48.197 118.132L48.386 118.037L48.537 117.959L48.726 117.864L48.886 117.724C49.033 117.593 49.18 117.462 49.326 117.331L60.503 107.268L60.661 107.126L60.78 106.95L60.875 106.81L60.993 106.635L61.066 106.436L61.128 106.265L61.2 106.066L61.223 105.855L61.271 105.45L61.271 105.237L61.271 94.736L61.271 94.525L61.223 94.102L61.2 93.891L61.06 93.472L60.993 93.272L60.887 93.088L60.767 92.882L60.661 92.698L60.52 92.54L60.359 92.358L60.218 92.198L60.048 92.072L59.857 91.927L59.688 91.799L59.289 91.609L59.097 91.519L58.89 91.469L58.475 91.371L58.265 91.346L57.773 91.286L57.561 91.26"/>
       <path stroke-width="0.106" d="M36.159 135.591L36.369 135.616L46.774 136.894L46.984 136.919L47.395 136.924L47.606 136.925L47.813 136.877L47.99 136.837L48.197 136.789L48.386 136.693L48.537 136.616L48.726 136.52L48.886 136.381C49.033 136.25 49.18 136.12 49.326 135.987L60.503 125.924L60.661 125.784L60.78 125.608L60.875 125.466L60.993 125.292L61.066 125.093L61.128 124.921L61.2 124.722L61.223 124.513L61.271 124.106L61.271 123.894L61.271 113.393L61.271 113.182L61.223 112.757L61.2 112.548L61.06 112.129L60.993 111.927L60.887 111.745L60.767 111.537L60.661 111.355L60.52 111.195L60.359 111.013L60.218 110.855L60.048 110.727L59.857 110.582L59.688 110.456L59.289 110.266L59.097 110.174L58.89 110.126L58.475 110.028L58.265 110.003L57.773 109.941L57.563 109.915"/>
       <path stroke-width="0.106" d="M6.905 94.686L6.746 94.826L3.964 97.332L3.806 97.474L3.687 97.65L3.592 97.792L3.474 97.966L3.4 98.165L3.338 98.335L3.266 98.536L3.242 98.745L3.197 99.152L3.197 99.364L3.197 109.864L3.197 110.075L3.243 110.5L3.266 110.709L3.334 110.911L3.474 111.329L3.58 111.513L3.7 111.719L3.806 111.903L3.947 112.061L4.108 112.243L4.248 112.402L4.418 112.53L4.61 112.674L4.778 112.802L5.177 112.992L5.37 113.082L5.575 113.131L5.992 113.228L6.201 113.254L8.288 113.512L8.5 113.537"/>
       <path stroke-width="0.106" d="M6.905 113.341L6.746 113.483L3.964 115.989L3.806 116.131L3.687 116.307L3.592 116.447L3.474 116.623L3.4 116.822L3.338 116.992L3.266 117.191L3.242 117.402L3.197 117.808L3.197 118.019L3.197 128.521L3.197 128.733L3.243 129.157L3.266 129.366L3.334 129.568L3.474 129.986L3.58 130.169L3.7 130.377L3.806 130.56L3.947 130.718L4.108 130.901L4.248 131.058L4.418 131.187L4.61 131.331L4.778 131.459L4.969 131.55L5.37 131.74L5.575 131.788L5.992 131.887L6.201 131.912L12.539 132.691L12.75 132.716"/>
       <path stroke-width="0.106" d="M12.75 78.858L12.539 78.832L6.201 78.055L5.992 78.028L5.78 78.027L5.37 78.024L5.163 78.07L4.985 78.111L4.778 78.159L4.589 78.254L4.437 78.331L4.248 78.429L4.089 78.569L3.964 78.679L3.806 78.819"/>
       <path stroke-width="0.106" d="M8.5 96.992L8.288 96.968L6.201 96.71L5.992 96.686L5.78 96.683L5.37 96.68L5.163 96.727L4.985 96.768L4.778 96.814L4.589 96.911L4.437 96.989L4.248 97.084L4.089 97.224L3.964 97.334L3.806 97.474"/>
       <path stroke-width="0.106" d="M8.5 115.65L8.288 115.623L6.201 115.367L5.992 115.341L5.78 115.34L5.37 115.335L5.163 115.382L4.985 115.424L4.778 115.471L4.589 115.566L4.437 115.644L4.248 115.74L4.089 115.881L3.964 115.99L3.806 116.131"/>
      </g>
     </g>
    </g>
   </g>
   <g id="Illustration">
    <desc>Illustration</desc>
    <g id="ASM0023.ASM">
     <desc>ASM0023.ASM</desc>
     <g id="0G-PXCUPSN100A.ASM">
      <desc>0G-PXCUPSN100A.ASM</desc>
      <g id="0M-PXCION100.ASM">
       <desc>0M-PXCION100.ASM</desc>
       <g id="880-90678.PRT_2">
        <desc>880-90678.PRT</desc>
        <line stroke-width="0.106" x1="5.519" y1="94.462" x2="5.519" y2="94.49"/>
        <line stroke-width="0.106" x1="5.778" y1="94.522" x2="5.519" y2="94.49"/>
       </g>
      </g>
     </g>
    </g>
   </g>
  </g>
 </g>
 <g id="120mm_x0020_hidden_x0020_Schneider_x0020_layer_x0020_for_x0020_editor">
  <polygon stroke="none" points="0 130.2 0 139.2 120 139.2 120 130.2 0 130.2"/>
 </g>
 <g id="cutout_x0020_layer">
 </g>
 <g id="Bolts">
 </g>
 <g id="outline_x0020_layer">
 </g>
 <g id="zoom_x0020_layer">
 </g>
 <g id="outline_x0020_on_x0020_zoom_x0020_layer">
 </g>
 <g id="arrow_x0020_layer">
 </g>
 <g id="_x0020_cable_x0020_layer">
 </g>
 <g id="symbol_x0020_layer">
 </g>
 <g id="text_x0020_layer">
  <g>
   <path stroke-width="0.2" fill="#FFFFFF" d="M10.634 9.912L10.634 14.801 42.826 14.801 42.826 9.912 10.634 9.912z"/>
   <text x="11.096" y="13.082" stroke="none" fill="#000000" font-family="'Arial'" font-size="3.528">Bypass transformer</text>
  </g>
  <g>
   <path stroke-width="0.2" fill="#FFFFFF" d="M10.634 127.954L10.634 132.701 39.49 132.701 39.49 127.954 10.634 127.954z"/>
   <text x="11.333" y="131.361" stroke="none" fill="#000000" font-family="'Arial'" font-size="3.528">Input transformer</text>
  </g>
 </g>
 <g id="text-_x0020_DO_x0020_NOT_x0020_translate">
  <g>
   <path stroke-width="0.2" fill="#FFFFFF" d="M9.884 76.659L9.884 80.68 15.497 80.68 15.497 76.659 9.884 76.659z"/>
   <text x="10.342" y="79.98" stroke="none" fill="#000000" font-family="'Arial'" font-size="3.528">X0</text>
  </g>
  <g>
   <path stroke-width="0.2" fill="#FFFFFF" d="M1.841 82.721L1.841 86.742 7.455 86.742 7.455 82.721 1.841 82.721z"/>
   <text x="2.298" y="86.043" stroke="none" fill="#000000" font-family="'Arial'" font-size="3.528">X1</text>
  </g>
  <g>
   <path stroke-width="0.2" fill="#FFFFFF" d="M1.841 100.45L1.841 104.471 7.455 104.471 7.455 100.45 1.841 100.45z"/>
   <text x="2.298" y="103.772" stroke="none" fill="#000000" font-family="'Arial'" font-size="3.528">X2</text>
  </g>
  <g>
   <path stroke-width="0.2" fill="#FFFFFF" d="M1.841 119.121L1.841 123.143 7.455 123.143 7.455 119.121 1.841 119.121z"/>
   <text x="2.298" y="122.442" stroke="none" fill="#000000" font-family="'Arial'" font-size="3.528">X3</text>
  </g>
  <g>
   <path stroke-width="0.2" fill="#FFFFFF" d="M44.392 106.233L44.392 110.254 50.006 110.254 50.006 106.233 44.392 106.233z"/>
   <text x="44.848" y="109.555" stroke="none" fill="#000000" font-family="'Arial'" font-size="3.528">H2</text>
  </g>
  <g>
   <path stroke-width="0.2" fill="#FFFFFF" d="M44.392 125.355L44.392 129.376 50.006 129.376 50.006 125.355 44.392 125.355z"/>
   <text x="44.848" y="128.675" stroke="none" fill="#000000" font-family="'Arial'" font-size="3.528">H3</text>
  </g>
  <g>
   <path stroke-width="0.2" fill="#FFFFFF" d="M44.392 88.043L44.392 92.063 50.006 92.063 50.006 88.043 44.392 88.043z"/>
   <text x="44.848" y="91.364" stroke="none" fill="#000000" font-family="'Arial'" font-size="3.528">H1</text>
  </g>
  <g>
   <path stroke-width="0.2" fill="#FFFFFF" d="M37.939 80.128L37.939 84.149 43.554 84.149 43.554 80.128 37.939 80.128z"/>
   <text x="38.396" y="83.448" stroke="none" fill="#000000" font-family="'Arial'" font-size="3.528">H0</text>
  </g>
  <g>
   <path stroke-width="0.2" fill="#FFFFFF" d="M9.884 16.66L9.884 20.681 15.497 20.681 15.497 16.66 9.884 16.66z"/>
   <text x="10.342" y="19.981" stroke="none" fill="#000000" font-family="'Arial'" font-size="3.528">X0</text>
  </g>
  <g>
   <path stroke-width="0.2" fill="#FFFFFF" d="M1.841 22.722L1.841 26.742 7.455 26.742 7.455 22.722 1.841 22.722z"/>
   <text x="2.298" y="26.044" stroke="none" fill="#000000" font-family="'Arial'" font-size="3.528">X1</text>
  </g>
  <g>
   <path stroke-width="0.2" fill="#FFFFFF" d="M1.841 40.45L1.841 44.472 7.455 44.472 7.455 40.45 1.841 40.45z"/>
   <text x="2.298" y="43.771" stroke="none" fill="#000000" font-family="'Arial'" font-size="3.528">X2</text>
  </g>
  <g>
   <path stroke-width="0.2" fill="#FFFFFF" d="M1.841 59.121L1.841 63.143 7.455 63.143 7.455 59.121 1.841 59.121z"/>
   <text x="2.298" y="62.442" stroke="none" fill="#000000" font-family="'Arial'" font-size="3.528">X3</text>
  </g>
  <g>
   <path stroke-width="0.2" fill="#FFFFFF" d="M44.392 46.234L44.392 50.255 50.006 50.255 50.006 46.234 44.392 46.234z"/>
   <text x="44.848" y="49.555" stroke="none" fill="#000000" font-family="'Arial'" font-size="3.528">H2</text>
  </g>
  <g>
   <path stroke-width="0.2" fill="#FFFFFF" d="M44.392 65.355L44.392 69.376 50.006 69.376 50.006 65.355 44.392 65.355z"/>
   <text x="44.848" y="68.676" stroke="none" fill="#000000" font-family="'Arial'" font-size="3.528">H3</text>
  </g>
  <g>
   <path stroke-width="0.2" fill="#FFFFFF" d="M44.392 28.042L44.392 32.064 50.006 32.064 50.006 28.042 44.392 28.042z"/>
   <text x="44.848" y="31.364" stroke="none" fill="#000000" font-family="'Arial'" font-size="3.528">H1</text>
  </g>
  <g>
   <path stroke-width="0.2" fill="#FFFFFF" d="M37.939 20.128L37.939 24.149 43.554 24.149 43.554 20.128 37.939 20.128z"/>
   <text x="38.396" y="23.449" stroke="none" fill="#000000" font-family="'Arial'" font-size="3.528">H0</text>
  </g>
 </g>
 <g id="callout_x0020_layer">
 </g>
 <g id="Two_x0020_neutral_x0020__x0020_lugs">
 </g>
</svg>
