<?xml version="1.0" encoding="UTF-8"?>
<!-- Generator: PTC Arbortext IsoDraw 7.4 M001 -->
<svg xmlns="http://www.w3.org/2000/svg" xmlns:xlink="http://www.w3.org/1999/xlink" width="169.612mm" height="119.602mm" viewBox="0 0 169.612 119.602" fill-rule="evenodd" clip-rule="evenodd" stroke="#000000" stroke-linecap="round" fill="none" xml:space="preserve" preserveAspectRatio="xMidYMid meet" zoomAndPan="magnify" version="1.1" contentScriptType="text/ecmascript" contentStyleType="text/css">
 <g id="_x0020_fill_x0020_layer">
 </g>
 <g id="Standard_x0020_layer">
  <g id="AUTOID_6483">
   <desc>Layer 1</desc>
   <polygon stroke-width="0.106" points="152.652 21.996 152.626 21.803 152.486 21.609 152.322 21.498 152.099 21.443 151.878 21.498 151.686 21.609 151.574 21.803 151.546 21.996 151.574 22.217 151.686 22.411 151.878 22.521 152.099 22.576 152.322 22.521 152.486 22.411 152.626 22.217 152.652 21.996"/>
   <path stroke-width="0.106" d="M111.403 21.996L111.376 21.803L111.266 21.609C110.909 21.338 110.537 21.411 110.325 21.803L110.299 21.996L110.325 22.217C110.539 22.609 110.909 22.682 111.266 22.411L111.376 22.217L111.403 21.996z"/>
   <line stroke-width="0.106" x1="155.639" y1="20.807" x2="155.639" y2="22.272"/>
   <line stroke-width="0.106" x1="155.693" y1="23.103" x2="155.693" y2="24.57"/>
   <line stroke-width="0.106" x1="107.754" y1="20.807" x2="110.242" y2="20.807"/>
   <line stroke-width="0.106" x1="111.322" y1="20.807" x2="113.423" y2="20.807"/>
   <line stroke-width="0.106" x1="114.501" y1="20.807" x2="116.629" y2="20.807"/>
   <line stroke-width="0.106" x1="117.68" y1="20.807" x2="119.808" y2="20.807"/>
   <line stroke-width="0.106" x1="120.859" y1="20.807" x2="122.987" y2="20.807"/>
   <line stroke-width="0.106" x1="124.039" y1="20.807" x2="126.168" y2="20.807"/>
   <line stroke-width="0.106" x1="127.218" y1="20.807" x2="129.347" y2="20.807"/>
   <line stroke-width="0.106" x1="130.425" y1="20.807" x2="132.526" y2="20.807"/>
   <line stroke-width="0.106" x1="133.604" y1="20.807" x2="135.733" y2="20.807"/>
   <line stroke-width="0.106" x1="136.783" y1="20.807" x2="138.913" y2="20.807"/>
   <line stroke-width="0.106" x1="139.962" y1="20.807" x2="142.092" y2="20.807"/>
   <line stroke-width="0.106" x1="143.143" y1="20.807" x2="145.271" y2="20.807"/>
   <line stroke-width="0.106" x1="146.349" y1="20.807" x2="148.45" y2="20.807"/>
   <line stroke-width="0.106" x1="149.528" y1="20.807" x2="151.629" y2="20.807"/>
   <line stroke-width="0.106" x1="152.709" y1="20.807" x2="155.591" y2="20.807"/>
   <line stroke-width="0.106" x1="107.754" y1="24.817" x2="107.754" y2="23.35"/>
   <line stroke-width="0.106" x1="107.754" y1="22.272" x2="107.754" y2="20.807"/>
   <line stroke-width="0.106" x1="148.479" y1="88.763" x2="148.479" y2="90.228"/>
   <line stroke-width="0.106" x1="148.479" y1="91.307" x2="148.479" y2="92.772"/>
   <line stroke-width="0.106" x1="114.694" y1="92.772" x2="114.694" y2="91.307"/>
   <line stroke-width="0.106" x1="114.694" y1="90.228" x2="114.694" y2="88.763"/>
   <polygon stroke-width="0.106" points="146.266 91.334 146.322 91.555 146.432 91.721 146.626 91.859 146.819 91.887 147.04 91.859 147.235 91.721 147.344 91.555 147.4 91.334 147.344 91.112 147.235 90.92 147.04 90.808 146.819 90.754 146.626 90.808 146.432 90.92 146.322 91.112 146.266 91.334"/>
   <polyline stroke-width="0.106" points="115.772 91.334 115.828 91.555 115.938 91.721 116.132 91.859 116.352 91.887 116.546 91.859 116.739 91.721 116.85 91.555 116.906 91.334"/>
   <line stroke-width="0.106" x1="114.694" y1="92.772" x2="116.739" y2="92.772"/>
   <line stroke-width="0.106" x1="117.79" y1="92.772" x2="119.92" y2="92.772"/>
   <line stroke-width="0.106" x1="120.969" y1="92.772" x2="123.099" y2="92.772"/>
   <line stroke-width="0.106" x1="124.15" y1="92.772" x2="126.278" y2="92.772"/>
   <line stroke-width="0.106" x1="127.328" y1="92.772" x2="129.457" y2="92.772"/>
   <line stroke-width="0.106" x1="130.536" y1="92.772" x2="132.637" y2="92.772"/>
   <line stroke-width="0.106" x1="133.715" y1="92.772" x2="135.843" y2="92.772"/>
   <line stroke-width="0.106" x1="136.895" y1="92.772" x2="139.022" y2="92.772"/>
   <line stroke-width="0.106" x1="140.074" y1="92.772" x2="142.203" y2="92.772"/>
   <line stroke-width="0.106" x1="143.252" y1="92.772" x2="145.382" y2="92.772"/>
   <line stroke-width="0.106" x1="146.46" y1="92.772" x2="148.479" y2="92.772"/>
   <polyline stroke-width="0.106" points="116.906 91.334 116.85 91.112 116.739 90.92 116.546 90.808 116.352 90.754 116.132 90.808 115.938 90.92 115.828 91.112 115.772 91.334"/>
   <line stroke-width="0.106" x1="155.693" y1="88.763" x2="154.229" y2="88.763"/>
   <line stroke-width="0.106" x1="153.151" y1="88.763" x2="151.021" y2="88.763"/>
   <line stroke-width="0.106" x1="149.972" y1="88.763" x2="148.479" y2="88.763"/>
   <line stroke-width="0.106" x1="155.693" y1="88.763" x2="155.693" y2="87.573"/>
   <line stroke-width="0.106" x1="155.693" y1="86.495" x2="155.693" y2="84.394"/>
   <line stroke-width="0.106" x1="155.693" y1="83.316" x2="155.693" y2="81.188"/>
   <line stroke-width="0.106" x1="155.693" y1="80.137" x2="155.693" y2="78.009"/>
   <line stroke-width="0.106" x1="155.693" y1="76.957" x2="155.693" y2="74.828"/>
   <line stroke-width="0.106" x1="155.693" y1="73.778" x2="155.693" y2="71.65"/>
   <line stroke-width="0.106" x1="155.693" y1="70.572" x2="155.693" y2="68.471"/>
   <line stroke-width="0.106" x1="155.693" y1="67.391" x2="155.693" y2="65.29"/>
   <line stroke-width="0.106" x1="155.693" y1="64.212" x2="155.693" y2="62.084"/>
   <line stroke-width="0.106" x1="155.693" y1="61.033" x2="155.693" y2="58.905"/>
   <line stroke-width="0.106" x1="155.693" y1="57.853" x2="155.693" y2="55.725"/>
   <line stroke-width="0.106" x1="155.693" y1="54.674" x2="155.693" y2="52.545"/>
   <line stroke-width="0.106" x1="155.693" y1="51.468" x2="155.693" y2="49.366"/>
   <line stroke-width="0.106" x1="155.693" y1="48.289" x2="155.693" y2="46.159"/>
   <line stroke-width="0.106" x1="155.693" y1="45.109" x2="155.693" y2="42.979"/>
   <line stroke-width="0.106" x1="155.693" y1="41.929" x2="155.693" y2="39.801"/>
   <line stroke-width="0.106" x1="155.693" y1="38.75" x2="155.693" y2="36.621"/>
   <line stroke-width="0.106" x1="155.693" y1="35.57" x2="155.693" y2="33.442"/>
   <line stroke-width="0.106" x1="155.693" y1="32.363" x2="155.693" y2="30.263"/>
   <line stroke-width="0.106" x1="155.693" y1="29.184" x2="155.693" y2="27.056"/>
   <line stroke-width="0.106" x1="155.693" y1="26.004" x2="155.693" y2="24.817"/>
   <line stroke-width="0.106" x1="107.561" y1="24.817" x2="107.754" y2="24.817"/>
   <line stroke-width="0.106" x1="114.694" y1="88.763" x2="113.257" y2="88.763"/>
   <line stroke-width="0.106" x1="112.206" y1="88.763" x2="110.076" y2="88.763"/>
   <line stroke-width="0.106" x1="108.998" y1="88.763" x2="107.561" y2="88.763"/>
   <polygon stroke-width="0.106" points="104.686 21.996 104.631 21.803 104.519 21.609 104.326 21.498 104.105 21.443 103.912 21.498 103.718 21.609 103.608 21.803 103.552 21.996 103.608 22.217 103.718 22.411 103.912 22.521 104.105 22.576 104.326 22.521 104.519 22.411 104.631 22.217 104.686 21.996"/>
   <path stroke-width="0.106" d="M79.472 21.996L79.444 21.803L79.307 21.609C78.989 21.317 78.578 21.44 78.394 21.803L78.367 21.996L78.394 22.217C78.578 22.58 78.989 22.702 79.307 22.411L79.444 22.217L79.472 21.996z"/>
   <line stroke-width="0.106" x1="107.201" y1="20.807" x2="107.201" y2="22.272"/>
   <line stroke-width="0.106" x1="107.201" y1="23.35" x2="107.201" y2="24.817"/>
   <line stroke-width="0.106" x1="75.822" y1="20.807" x2="78.256" y2="20.807"/>
   <line stroke-width="0.106" x1="79.307" y1="20.807" x2="81.435" y2="20.807"/>
   <line stroke-width="0.106" x1="82.486" y1="20.807" x2="84.614" y2="20.807"/>
   <line stroke-width="0.106" x1="85.692" y1="20.807" x2="87.793" y2="20.807"/>
   <line stroke-width="0.106" x1="88.871" y1="20.807" x2="91.001" y2="20.807"/>
   <line stroke-width="0.106" x1="92.052" y1="20.807" x2="94.18" y2="20.807"/>
   <line stroke-width="0.106" x1="95.23" y1="20.807" x2="97.359" y2="20.807"/>
   <line stroke-width="0.106" x1="98.409" y1="20.807" x2="100.539" y2="20.807"/>
   <line stroke-width="0.106" x1="101.59" y1="20.807" x2="103.718" y2="20.807"/>
   <line stroke-width="0.106" x1="104.796" y1="20.807" x2="107.201" y2="20.807"/>
   <polyline stroke-width="0.106" points="75.463 24.817 75.822 24.817 75.822 23.35"/>
   <line stroke-width="0.106" x1="75.822" y1="22.272" x2="75.822" y2="20.807"/>
   <line stroke-width="0.106" x1="100.373" y1="88.763" x2="100.373" y2="90.228"/>
   <line stroke-width="0.106" x1="100.373" y1="91.307" x2="100.373" y2="92.772"/>
   <line stroke-width="0.106" x1="82.652" y1="92.772" x2="82.652" y2="91.307"/>
   <line stroke-width="0.106" x1="82.652" y1="90.228" x2="82.652" y2="88.763"/>
   <polygon stroke-width="0.106" points="98.162 91.334 98.216 91.555 98.328 91.721 98.521 91.859 98.742 91.887 98.936 91.859 99.129 91.721 99.239 91.555 99.295 91.334 99.239 91.112 99.129 90.92 98.936 90.808 98.742 90.754 98.521 90.808 98.328 90.92 98.216 91.112 98.162 91.334"/>
   <polyline stroke-width="0.106" points="83.73 91.334 83.757 91.555 83.896 91.721 84.061 91.859 84.283 91.887 84.504 91.859 84.697 91.721 84.808 91.555 84.864 91.334"/>
   <line stroke-width="0.106" x1="82.652" y1="92.772" x2="84.614" y2="92.772"/>
   <line stroke-width="0.106" x1="85.665" y1="92.772" x2="87.793" y2="92.772"/>
   <line stroke-width="0.106" x1="88.844" y1="92.772" x2="90.974" y2="92.772"/>
   <line stroke-width="0.106" x1="92.052" y1="92.772" x2="94.153" y2="92.772"/>
   <line stroke-width="0.106" x1="95.23" y1="92.772" x2="97.359" y2="92.772"/>
   <line stroke-width="0.106" x1="98.409" y1="92.772" x2="100.373" y2="92.772"/>
   <polyline stroke-width="0.106" points="84.864 91.334 84.808 91.112 84.697 90.92 84.504 90.808 84.283 90.754 84.061 90.808 83.896 90.92 83.757 91.112 83.73 91.334"/>
   <polygon stroke-width="0.106" points="72.588 21.996 72.533 21.803 72.423 21.609 72.228 21.498 72.036 21.443 71.813 21.498 71.62 21.609 71.51 21.803 71.454 21.996 71.51 22.217 71.62 22.411 71.813 22.521 72.036 22.576 72.228 22.521 72.423 22.411 72.533 22.217 72.588 21.996"/>
   <polygon stroke-width="0.106" points="15.304 21.996 15.249 21.803 15.138 21.609 14.945 21.498 14.724 21.443 14.531 21.498 14.336 21.609 14.226 21.803 14.17 21.996 14.226 22.217 14.336 22.411 14.531 22.521 14.724 22.576 14.945 22.521 15.138 22.411 15.249 22.217 15.304 21.996"/>
   <line stroke-width="0.106" x1="75.103" y1="20.807" x2="75.103" y2="22.272"/>
   <line stroke-width="0.106" x1="75.103" y1="23.35" x2="75.103" y2="24.817"/>
   <line stroke-width="0.106" x1="11.31" y1="20.807" x2="14.198" y2="20.807"/>
   <line stroke-width="0.106" x1="15.249" y1="20.807" x2="17.378" y2="20.807"/>
   <line stroke-width="0.106" x1="18.428" y1="20.807" x2="20.557" y2="20.807"/>
   <line stroke-width="0.106" x1="21.608" y1="20.807" x2="23.736" y2="20.807"/>
   <line stroke-width="0.106" x1="24.815" y1="20.807" x2="26.916" y2="20.807"/>
   <line stroke-width="0.106" x1="27.993" y1="20.807" x2="30.123" y2="20.807"/>
   <line stroke-width="0.106" x1="31.173" y1="20.807" x2="33.302" y2="20.807"/>
   <line stroke-width="0.106" x1="34.353" y1="20.807" x2="36.481" y2="20.807"/>
   <line stroke-width="0.106" x1="37.533" y1="20.807" x2="39.661" y2="20.807"/>
   <line stroke-width="0.106" x1="40.712" y1="20.807" x2="42.841" y2="20.807"/>
   <line stroke-width="0.106" x1="43.918" y1="20.807" x2="46.02" y2="20.807"/>
   <line stroke-width="0.106" x1="47.097" y1="20.807" x2="49.226" y2="20.807"/>
   <line stroke-width="0.106" x1="50.277" y1="20.807" x2="52.405" y2="20.807"/>
   <line stroke-width="0.106" x1="53.457" y1="20.807" x2="55.585" y2="20.807"/>
   <line stroke-width="0.106" x1="56.636" y1="20.807" x2="58.765" y2="20.807"/>
   <line stroke-width="0.106" x1="59.843" y1="20.807" x2="61.945" y2="20.807"/>
   <line stroke-width="0.106" x1="63.023" y1="20.807" x2="65.123" y2="20.807"/>
   <line stroke-width="0.106" x1="66.201" y1="20.807" x2="68.331" y2="20.807"/>
   <line stroke-width="0.106" x1="69.382" y1="20.807" x2="71.51" y2="20.807"/>
   <line stroke-width="0.106" x1="72.561" y1="20.807" x2="75.103" y2="20.807"/>
   <line stroke-width="0.106" x1="68.275" y1="88.763" x2="68.275" y2="90.228"/>
   <line stroke-width="0.106" x1="68.275" y1="91.307" x2="68.275" y2="92.772"/>
   <line stroke-width="0.106" x1="18.455" y1="92.772" x2="18.455" y2="91.307"/>
   <line stroke-width="0.106" x1="18.455" y1="90.228" x2="18.455" y2="88.763"/>
   <path stroke-width="0.106" d="M66.063 91.334L66.118 91.555L66.23 91.721C66.522 92.009 66.947 91.939 67.17 91.555L67.197 91.334L67.17 91.112C66.957 90.721 66.585 90.647 66.23 90.92L66.118 91.112L66.063 91.334z"/>
   <polyline stroke-width="0.106" points="19.535 91.334 19.589 91.555 19.699 91.721 19.893 91.859 20.114 91.887 20.309 91.859 20.501 91.721 20.612 91.555 20.667 91.334"/>
   <line stroke-width="0.106" x1="18.455" y1="92.772" x2="20.557" y2="92.772"/>
   <line stroke-width="0.106" x1="21.608" y1="92.772" x2="23.736" y2="92.772"/>
   <line stroke-width="0.106" x1="24.786" y1="92.772" x2="26.916" y2="92.772"/>
   <line stroke-width="0.106" x1="27.966" y1="92.772" x2="30.096" y2="92.772"/>
   <line stroke-width="0.106" x1="31.173" y1="92.772" x2="33.274" y2="92.772"/>
   <line stroke-width="0.106" x1="34.353" y1="92.772" x2="36.481" y2="92.772"/>
   <line stroke-width="0.106" x1="37.533" y1="92.772" x2="39.661" y2="92.772"/>
   <line stroke-width="0.106" x1="40.712" y1="92.772" x2="42.841" y2="92.772"/>
   <line stroke-width="0.106" x1="43.89" y1="92.772" x2="46.02" y2="92.772"/>
   <line stroke-width="0.106" x1="47.097" y1="92.772" x2="49.198" y2="92.772"/>
   <line stroke-width="0.106" x1="50.277" y1="92.772" x2="52.378" y2="92.772"/>
   <line stroke-width="0.106" x1="53.457" y1="92.772" x2="55.585" y2="92.772"/>
   <line stroke-width="0.106" x1="56.636" y1="92.772" x2="58.765" y2="92.772"/>
   <line stroke-width="0.106" x1="59.816" y1="92.772" x2="61.945" y2="92.772"/>
   <line stroke-width="0.106" x1="62.994" y1="92.772" x2="65.123" y2="92.772"/>
   <line stroke-width="0.106" x1="66.201" y1="92.772" x2="68.275" y2="92.772"/>
   <polyline stroke-width="0.106" points="20.667 91.334 20.612 91.112 20.501 90.92 20.309 90.808 20.114 90.754 19.893 90.808 19.699 90.92 19.589 91.112 19.535 91.334"/>
   <line stroke-width="0.106" x1="75.463" y1="88.763" x2="73.998" y2="88.763"/>
   <line stroke-width="0.106" x1="72.947" y1="88.763" x2="70.819" y2="88.763"/>
   <line stroke-width="0.106" x1="69.74" y1="88.763" x2="68.275" y2="88.763"/>
   <line stroke-width="0.106" x1="75.103" y1="24.817" x2="75.463" y2="24.817"/>
   <line stroke-width="0.106" x1="11.295" y1="88.775" x2="11.295" y2="84.394"/>
   <line stroke-width="0.106" x1="11.295" y1="83.316" x2="11.295" y2="81.188"/>
   <line stroke-width="0.106" x1="11.295" y1="80.137" x2="11.295" y2="78.009"/>
   <line stroke-width="0.106" x1="11.295" y1="76.957" x2="11.295" y2="74.828"/>
   <line stroke-width="0.106" x1="11.295" y1="73.778" x2="11.295" y2="71.65"/>
   <line stroke-width="0.106" x1="11.295" y1="70.572" x2="11.295" y2="68.471"/>
   <line stroke-width="0.106" x1="11.295" y1="67.391" x2="11.295" y2="65.29"/>
   <line stroke-width="0.106" x1="11.295" y1="64.212" x2="11.295" y2="62.084"/>
   <line stroke-width="0.106" x1="11.295" y1="61.033" x2="11.295" y2="58.905"/>
   <line stroke-width="0.106" x1="11.295" y1="57.853" x2="11.295" y2="55.725"/>
   <line stroke-width="0.106" x1="11.295" y1="54.674" x2="11.295" y2="52.545"/>
   <line stroke-width="0.106" x1="11.295" y1="51.468" x2="11.295" y2="49.366"/>
   <line stroke-width="0.106" x1="11.295" y1="48.289" x2="11.295" y2="46.159"/>
   <line stroke-width="0.106" x1="11.295" y1="45.109" x2="11.295" y2="42.979"/>
   <line stroke-width="0.106" x1="11.295" y1="41.929" x2="11.295" y2="39.801"/>
   <line stroke-width="0.106" x1="11.295" y1="38.75" x2="11.295" y2="36.695"/>
   <line stroke-width="0.106" x1="18.455" y1="88.763" x2="16.99" y2="88.763"/>
   <line stroke-width="0.106" x1="15.941" y1="88.763" x2="13.811" y2="88.763"/>
   <line stroke-width="0.106" x1="12.76" y1="88.763" x2="11.295" y2="88.763"/>
   <line stroke-width="0.106" x1="82.652" y1="88.763" x2="81.186" y2="88.763"/>
   <line stroke-width="0.106" x1="80.108" y1="88.763" x2="78.007" y2="88.763"/>
   <line stroke-width="0.106" x1="76.929" y1="88.763" x2="75.463" y2="88.763"/>
   <line stroke-width="0.106" x1="107.561" y1="88.763" x2="107.561" y2="87.573"/>
   <line stroke-width="0.106" x1="107.561" y1="86.495" x2="107.561" y2="84.394"/>
   <line stroke-width="0.106" x1="107.561" y1="83.316" x2="107.561" y2="81.188"/>
   <line stroke-width="0.106" x1="107.561" y1="80.137" x2="107.561" y2="78.009"/>
   <line stroke-width="0.106" x1="107.561" y1="76.957" x2="107.561" y2="74.828"/>
   <line stroke-width="0.106" x1="107.561" y1="73.778" x2="107.561" y2="71.65"/>
   <line stroke-width="0.106" x1="107.561" y1="70.572" x2="107.561" y2="68.471"/>
   <line stroke-width="0.106" x1="107.561" y1="67.391" x2="107.561" y2="65.29"/>
   <line stroke-width="0.106" x1="107.561" y1="64.212" x2="107.561" y2="62.084"/>
   <line stroke-width="0.106" x1="107.561" y1="61.033" x2="107.561" y2="58.905"/>
   <line stroke-width="0.106" x1="107.561" y1="57.853" x2="107.561" y2="55.725"/>
   <line stroke-width="0.106" x1="107.561" y1="54.674" x2="107.561" y2="52.545"/>
   <line stroke-width="0.106" x1="107.561" y1="51.468" x2="107.561" y2="49.366"/>
   <line stroke-width="0.106" x1="107.561" y1="48.289" x2="107.561" y2="46.159"/>
   <line stroke-width="0.106" x1="107.561" y1="45.109" x2="107.561" y2="42.979"/>
   <line stroke-width="0.106" x1="107.561" y1="41.929" x2="107.561" y2="39.801"/>
   <line stroke-width="0.106" x1="107.561" y1="38.75" x2="107.561" y2="36.621"/>
   <line stroke-width="0.106" x1="107.561" y1="35.57" x2="107.561" y2="33.442"/>
   <line stroke-width="0.106" x1="107.561" y1="32.363" x2="107.561" y2="30.263"/>
   <line stroke-width="0.106" x1="107.561" y1="29.184" x2="107.561" y2="27.056"/>
   <line stroke-width="0.106" x1="107.561" y1="26.004" x2="107.561" y2="24.817"/>
   <line stroke-width="0.106" x1="107.561" y1="88.763" x2="106.096" y2="88.763"/>
   <line stroke-width="0.106" x1="105.046" y1="88.763" x2="102.917" y2="88.763"/>
   <line stroke-width="0.106" x1="101.838" y1="88.763" x2="100.373" y2="88.763"/>
   <line stroke-width="0.106" x1="107.201" y1="24.817" x2="107.561" y2="24.817"/>
   <line stroke-width="0.106" x1="19.147" y1="91.334" x2="21" y2="91.334"/>
   <line stroke-width="0.106" x1="20.114" y1="92.356" x2="20.114" y2="90.311"/>
   <line stroke-width="0.106" x1="65.703" y1="91.334" x2="67.528" y2="91.334"/>
   <line stroke-width="0.106" x1="66.644" y1="92.356" x2="66.644" y2="90.311"/>
   <line stroke-width="0.106" x1="83.343" y1="91.334" x2="85.194" y2="91.334"/>
   <line stroke-width="0.106" x1="84.283" y1="92.356" x2="84.283" y2="90.311"/>
   <line stroke-width="0.106" x1="97.802" y1="91.334" x2="99.626" y2="91.334"/>
   <line stroke-width="0.106" x1="98.742" y1="92.356" x2="98.742" y2="90.311"/>
   <line stroke-width="0.106" x1="115.412" y1="91.334" x2="117.237" y2="91.334"/>
   <line stroke-width="0.106" x1="116.352" y1="92.356" x2="116.352" y2="90.311"/>
   <line stroke-width="0.106" x1="145.879" y1="91.334" x2="147.731" y2="91.334"/>
   <line stroke-width="0.106" x1="146.819" y1="92.356" x2="146.819" y2="90.311"/>
   <line stroke-width="0.106" x1="151.159" y1="21.996" x2="153.013" y2="21.996"/>
   <line stroke-width="0.106" x1="152.099" y1="23.018" x2="152.099" y2="21.001"/>
   <line stroke-width="0.106" x1="109.912" y1="21.996" x2="111.763" y2="21.996"/>
   <line stroke-width="0.106" x1="110.852" y1="23.018" x2="110.852" y2="21.001"/>
   <line stroke-width="0.106" x1="103.165" y1="21.996" x2="105.018" y2="21.996"/>
   <line stroke-width="0.106" x1="104.105" y1="23.018" x2="104.105" y2="21.001"/>
   <line stroke-width="0.106" x1="77.98" y1="21.996" x2="79.831" y2="21.996"/>
   <line stroke-width="0.106" x1="78.92" y1="23.018" x2="78.92" y2="21.001"/>
   <line stroke-width="0.106" x1="71.067" y1="21.996" x2="72.92" y2="21.996"/>
   <line stroke-width="0.106" x1="72.036" y1="23.018" x2="72.036" y2="21.001"/>
   <line stroke-width="0.106" x1="13.784" y1="21.996" x2="15.635" y2="21.996"/>
   <line stroke-width="0.106" x1="14.724" y1="23.018" x2="14.724" y2="21.001"/>
  </g>
  <line stroke-width="0.106" x1="11.324" y1="35.715" x2="11.324" y2="33.661"/>
  <line stroke-width="0.106" x1="11.324" y1="32.743" x2="11.324" y2="30.69"/>
  <line stroke-width="0.106" x1="11.324" y1="29.663" x2="11.324" y2="27.609"/>
  <line stroke-width="0.106" x1="11.324" y1="26.94" x2="11.324" y2="24.885"/>
  <line stroke-width="0.106" x1="11.31" y1="24.161" x2="11.31" y2="20.878"/>
 </g>
 <g id="170mm_x0020_hidden_x0020_Schneider_x0020_layer_x0020_for_x0020_editor">
  <polygon stroke="none" points="0 110.248 0 119.248 120 119.248 120 110.248 0 110.248"/>
 </g>
 <g id="cutout_x0020_layer">
 </g>
 <g id="outline_x0020_layer">
 </g>
 <g id="zoom_x0020_layer">
 </g>
 <g id="outline_x0020_on_x0020_zoom_x0020_layer">
 </g>
 <g id="arrow_x0020_layer">
  <polygon stroke="none" fill="#000000" points="110.947 15.33 113.067 15.704 113.067 14.957"/>
  <line stroke-width="0.106" x1="123.918" y1="15.33" x2="112.855" y2="15.33"/>
  <polygon stroke="none" fill="#000000" points="151.686 22.411 149.641 23.088 149.997 23.745"/>
  <line stroke-width="0.106" x1="142.235" y1="27.504" x2="150.006" y2="23.317"/>
  <line stroke-width="0.106" x1="142.235" y1="27.504" x2="134.425" y2="27.504"/>
  <line stroke-width="0.106" x1="152.139" y1="20.466" x2="152.139" y2="7.198"/>
  <line stroke-width="0.106" x1="155.674" y1="20.466" x2="155.674" y2="7.118"/>
  <line stroke-width="0.106" x1="116.385" y1="93.933" x2="116.385" y2="103.724"/>
  <line stroke-width="0.106" x1="146.786" y1="93.873" x2="146.786" y2="103.724"/>
  <polygon stroke="none" fill="#000000" points="116.433 98.397 118.554 98.772 118.554 98.024"/>
  <line stroke-width="0.106" x1="124.569" y1="98.397" x2="118.341" y2="98.397"/>
  <polygon stroke="none" fill="#000000" points="146.662 98.397 144.542 98.024 144.542 98.772"/>
  <line stroke-width="0.106" x1="138.651" y1="98.397" x2="144.753" y2="98.397"/>
  <line stroke-width="0.106" x1="98.828" y1="93.905" x2="98.828" y2="114.34"/>
  <polygon stroke="none" fill="#000000" points="116.385 112.864 114.266 112.49 114.266 113.237"/>
  <line stroke-width="0.106" x1="112.099" y1="112.864" x2="114.477" y2="112.864"/>
  <line stroke-width="0.106" x1="155.788" y1="89.823" x2="155.788" y2="103.724"/>
  <polygon stroke="none" fill="#000000" points="146.788 98.397 148.908 98.772 148.908 98.024"/>
  <line stroke-width="0.106" x1="155.347" y1="98.397" x2="148.697" y2="98.397"/>
  <polygon stroke="none" fill="#000000" points="155.76 98.397 153.64 98.024 153.64 98.772"/>
  <line stroke-width="0.106" x1="149.616" y1="98.397" x2="153.853" y2="98.397"/>
  <line stroke-width="0.106" x1="14.753" y1="39.826" x2="14.753" y2="23.573"/>
  <polygon stroke="none" fill="#000000" points="151.953 15.33 149.832 14.957 149.832 15.704"/>
  <line stroke-width="0.106" x1="139.121" y1="15.33" x2="150.044" y2="15.33"/>
  <line stroke-width="0.106" x1="11.295" y1="39.826" x2="11.295" y2="34.688"/>
  <polygon stroke="none" fill="#000000" points="155.669 8.406 157.788 8.778 157.788 8.032"/>
  <line stroke-width="0.106" x1="169.385" y1="8.406" x2="157.576" y2="8.406"/>
  <polygon stroke="none" fill="#000000" points="152.048 8.406 149.927 8.032 149.927 8.778"/>
  <line stroke-width="0.106" x1="147.187" y1="8.406" x2="150.139" y2="8.406"/>
  <g>
   <line stroke-width="0.106" x1="148.819" y1="91.334" x2="163.61" y2="91.334"/>
   <line stroke-width="0.106" x1="153.77" y1="21.987" x2="163.694" y2="21.987"/>
   <polygon stroke="none" fill="#000000" points="161.61 91.334 161.985 89.213 161.236 89.213"/>
   <line stroke-width="0.106" x1="161.61" y1="65.058" x2="161.61" y2="89.426"/>
   <polygon stroke="none" fill="#000000" points="161.61 21.987 161.236 24.108 161.985 24.108"/>
   <line stroke-width="0.106" x1="161.61" y1="48.686" x2="161.61" y2="23.896"/>
  </g>
  <line stroke-width="0.106" x1="166.96" y1="98.397" x2="155.864" y2="98.397"/>
  <line stroke-width="0.106" x1="84.218" y1="93.933" x2="84.218" y2="103.724"/>
  <line stroke-width="0.106" x1="66.661" y1="93.905" x2="66.661" y2="103.724"/>
  <polygon stroke="none" fill="#000000" points="66.805 98.397 68.924 98.772 68.924 98.024"/>
  <line stroke-width="0.106" x1="71.183" y1="98.397" x2="68.712" y2="98.397"/>
  <polygon stroke="none" fill="#000000" points="84.266 98.397 82.147 98.024 82.147 98.772"/>
  <line stroke-width="0.106" x1="79.98" y1="98.397" x2="82.358" y2="98.397"/>
  <polygon stroke="none" fill="#000000" points="84.266 98.397 86.387 98.772 86.387 98.024"/>
  <line stroke-width="0.106" x1="89.299" y1="98.397" x2="86.174" y2="98.397"/>
  <polygon stroke="none" fill="#000000" points="98.971 98.397 96.852 98.024 96.852 98.772"/>
  <line stroke-width="0.106" x1="94.442" y1="98.397" x2="97.063" y2="98.397"/>
  <line stroke-width="0.106" x1="20.117" y1="93.933" x2="20.117" y2="103.724"/>
  <line stroke-width="0.106" x1="1.32" y1="92.697" x2="17.911" y2="92.697"/>
  <polygon stroke="none" fill="#000000" points="20.167 98.397 22.286 98.772 22.286 98.024"/>
  <line stroke-width="0.106" x1="35.436" y1="98.397" x2="22.074" y2="98.397"/>
  <polygon stroke="none" fill="#000000" points="66.805 98.397 64.685 98.024 64.685 98.772"/>
  <line stroke-width="0.106" x1="50.853" y1="98.397" x2="64.897" y2="98.397"/>
  <line stroke-width="0.106" x1="1.366" y1="91.308" x2="17.911" y2="91.308"/>
  <polygon stroke="none" fill="#000000" points="8.34 92.962 7.966 95.081 8.714 95.081"/>
  <line stroke-width="0.106" x1="8.34" y1="108.956" x2="8.34" y2="94.87"/>
  <polygon stroke="none" fill="#000000" points="8.34 91.441 8.714 89.322 7.966 89.322"/>
  <line stroke-width="0.106" x1="8.34" y1="86.653" x2="8.34" y2="89.534"/>
  <line stroke-width="0.106" x1="104.028" y1="20.466" x2="104.028" y2="7.198"/>
  <line stroke-width="0.106" x1="110.816" y1="20.466" x2="110.816" y2="7.118"/>
  <polygon stroke="none" fill="#000000" points="110.902 7.905 113.022 8.278 113.022 7.53"/>
  <line stroke-width="0.106" x1="127.126" y1="7.905" x2="112.81" y2="7.905"/>
  <polygon stroke="none" fill="#000000" points="104.028 7.905 101.908 7.53 101.908 8.278"/>
  <line stroke-width="0.106" x1="99.605" y1="7.905" x2="102.12" y2="7.905"/>
  <line stroke-width="0.106" x1="72.153" y1="20.208" x2="72.153" y2="6.939"/>
  <line stroke-width="0.106" x1="78.941" y1="20.208" x2="78.941" y2="6.86"/>
  <polygon stroke="none" fill="#000000" points="79.027 7.647 81.147 8.021 81.147 7.272"/>
  <line stroke-width="0.106" x1="95.251" y1="7.647" x2="80.935" y2="7.647"/>
  <polygon stroke="none" fill="#000000" points="72.153 7.647 70.033 7.272 70.033 8.021"/>
  <line stroke-width="0.106" x1="67.73" y1="7.647" x2="70.245" y2="7.647"/>
  <polygon stroke="none" fill="#000000" points="78.9 15.147 81.019 15.521 81.019 14.772"/>
  <line stroke-width="0.106" x1="86.1" y1="15.147" x2="80.808" y2="15.147"/>
  <polygon stroke="none" fill="#000000" points="103.911 15.147 101.79 14.772 101.79 15.521"/>
  <line stroke-width="0.106" x1="95.677" y1="15.147" x2="102.003" y2="15.147"/>
  <line stroke-width="0.106" x1="14.855" y1="20.126" x2="14.855" y2="6.78"/>
  <polygon stroke="none" fill="#000000" points="14.813 15.064 16.932 15.439 16.932 14.691"/>
  <line stroke-width="0.106" x1="35.667" y1="15.064" x2="16.721" y2="15.064"/>
  <polygon stroke="none" fill="#000000" points="72.153 15.064 70.033 14.691 70.033 15.439"/>
  <line stroke-width="0.106" x1="50.28" y1="15.064" x2="70.245" y2="15.064"/>
  <line stroke-width="0.106" x1="0.719" y1="22.182" x2="11" y2="22.182"/>
  <line stroke-width="0.106" x1="0.672" y1="20.794" x2="11" y2="20.794"/>
  <polygon stroke="none" fill="#000000" points="8.34 22.309 7.966 24.428 8.714 24.428"/>
  <line stroke-width="0.106" x1="8.34" y1="32.226" x2="8.34" y2="24.216"/>
  <polygon stroke="none" fill="#000000" points="8.34 20.789 8.714 18.669 7.966 18.669"/>
  <line stroke-width="0.106" x1="8.34" y1="0.335" x2="8.34" y2="18.881"/>
  <polygon stroke="none" fill="#000000" points="15 37.21 17.12 37.585 17.12 36.837"/>
  <line stroke-width="0.106" x1="22.652" y1="37.21" x2="16.908" y2="37.21"/>
  <polygon stroke="none" fill="#000000" points="11.076 37.21 8.957 36.837 8.957 37.585"/>
  <line stroke-width="0.106" x1="7.702" y1="37.21" x2="9.169" y2="37.21"/>
  <line stroke-width="0.106" x1="7.702" y1="37.21" x2="7.702" y2="50.832"/>
  <line stroke-width="0.106" x1="107.634" y1="114.159" x2="107.634" y2="90.18"/>
  <polygon stroke="none" fill="#000000" points="98.828 112.864 100.947 113.237 100.947 112.49"/>
  <line stroke-width="0.106" x1="102.712" y1="112.864" x2="100.736" y2="112.864"/>
  <polygon stroke="none" fill="#000000" points="107.634 112.864 105.513 112.49 105.513 113.237"/>
  <line stroke-width="0.106" x1="84.54" y1="112.864" x2="105.725" y2="112.864"/>
  <line stroke-width="0.106" x1="116.385" y1="114.099" x2="116.385" y2="93.933"/>
  <polygon stroke="none" fill="#000000" points="107.634 112.864 109.754 113.237 109.754 112.49"/>
  <line stroke-width="0.106" x1="130.682" y1="112.864" x2="109.542" y2="112.864"/>
 </g>
 <g id="_x0020_cable_x0020_layer">
 </g>
 <g id="symbol_x0020_layer">
 </g>
 <g id="text_x0020_layer">
  <text x="115.594" y="56.677" stroke="none" fill="#000000" font-family="'Arial'" font-size="3.528">Transformer cabinet</text>
  <text x="80.805" y="118.191" stroke="none" fill="#000000" font-family="'Arial'" font-size="3.528">Front</text>
  <text x="49.389" y="56.677" stroke="none" fill="#000000" font-family="'Arial'" font-size="3.528">UPS cabinet</text>
 </g>
 <g id="text-_x0020_DO_x0020_NOT_x0020_translate">
  <text x="134.935" y="27.21" stroke="none" fill="#000000" font-family="'Arial'" font-size="3.528">ø 14</text>
  <text x="123.641" y="18.745" stroke="none" fill="#000000" font-family="'Arial'" font-size="3.528">(20.24 in)</text>
  <text x="124.632" y="15.182" stroke="none" fill="#000000" font-family="'Arial'" font-size="3.528">514 mm</text>
  <g>
   <text x="79.912" y="2.468" stroke="none" fill="#000000" font-family="'Arial'" font-size="3.528">86.00 mm</text>
   <text x="81.284" y="6.349" stroke="none" fill="#000000" font-family="'Arial'" font-size="3.528">(3.39 in)</text>
  </g>
  <g>
   <text x="125.337" y="97.855" stroke="none" fill="#000000" font-family="'Arial'" font-size="3.528">380 mm</text>
   <text x="124.257" y="101.736" stroke="none" fill="#000000" font-family="'Arial'" font-size="3.528">(14.96 in)</text>
  </g>
  <g>
   <text x="156.099" y="97.855" stroke="none" fill="#000000" font-family="'Arial'" font-size="3.528">110 mm</text>
   <text x="156.001" y="101.736" stroke="none" fill="#000000" font-family="'Arial'" font-size="3.528">(4.33 in)</text>
  </g>
  <g>
   <text x="153.927" y="2.468" stroke="none" fill="#000000" font-family="'Arial'" font-size="3.528">45.00 mm</text>
   <text x="155.3" y="6.349" stroke="none" fill="#000000" font-family="'Arial'" font-size="3.528">(1.77 in)</text>
  </g>
  <g>
   <text transform="matrix(0 -1 1 0 159.986 63.292)" stroke="none" fill="#000000" font-family="'Arial'" font-size="3.528">865 mm</text>
   <text transform="matrix(0 -1 1 0 163.867 64.373)" stroke="none" fill="#000000" font-family="'Arial'" font-size="3.528">(34.06 in)</text>
  </g>
  <g>
   <text x="85.013" y="97.855" stroke="none" fill="#000000" font-family="'Arial'" font-size="3.528">180 mm</text>
   <text x="84.915" y="101.736" stroke="none" fill="#000000" font-family="'Arial'" font-size="3.528">(7.09 in)</text>
  </g>
  <g>
   <text x="68.971" y="97.855" stroke="none" fill="#000000" font-family="'Arial'" font-size="3.528">220 mm</text>
   <text x="68.871" y="101.736" stroke="none" fill="#000000" font-family="'Arial'" font-size="3.528">(8.66 in)</text>
  </g>
  <g>
   <text x="36.936" y="97.855" stroke="none" fill="#000000" font-family="'Arial'" font-size="3.528">580 mm</text>
   <text x="35.856" y="101.736" stroke="none" fill="#000000" font-family="'Arial'" font-size="3.528">(22.83 in)</text>
  </g>
  <g>
   <text transform="matrix(0 -1 1 0 2.985 107.105)" stroke="none" fill="#000000" font-family="'Arial'" font-size="3.528">18 mm</text>
   <text transform="matrix(0 -1 1 0 6.865 108.186)" stroke="none" fill="#000000" font-family="'Arial'" font-size="3.528">(0.71 in)</text>
  </g>
  <g>
   <text x="111.54" y="2.468" stroke="none" fill="#000000" font-family="'Arial'" font-size="3.528">84.00 mm</text>
   <text x="112.912" y="6.349" stroke="none" fill="#000000" font-family="'Arial'" font-size="3.528">(3.31 in)</text>
  </g>
  <text x="83.54" y="18.181" stroke="none" fill="#000000" font-family="'Arial'" font-size="3.528">(12.36 in)</text>
  <text x="84.62" y="14.618" stroke="none" fill="#000000" font-family="'Arial'" font-size="3.528">314 mm</text>
  <text x="35.6" y="18.17" stroke="none" fill="#000000" font-family="'Arial'" font-size="3.528">(28.11 in)</text>
  <text x="36.679" y="14.608" stroke="none" fill="#000000" font-family="'Arial'" font-size="3.528">714 mm</text>
  <g>
   <text transform="matrix(0 -1 1 0 2.632 49.237)" stroke="none" fill="#000000" font-family="'Arial'" font-size="3.528">43 mm</text>
   <text transform="matrix(0 -1 1 0 6.512 50.317)" stroke="none" fill="#000000" font-family="'Arial'" font-size="3.528">(1.69 in)</text>
  </g>
  <g>
   <text transform="matrix(0 -1 1 0 2.985 14.686)" stroke="none" fill="#000000" font-family="'Arial'" font-size="3.528">15 mm</text>
   <text transform="matrix(0 -1 1 0 6.865 15.766)" stroke="none" fill="#000000" font-family="'Arial'" font-size="3.528">(0.59 in)</text>
  </g>
  <g>
   <text x="85.433" y="107.668" stroke="none" fill="#000000" font-family="'Arial'" font-size="3.528">110 mm</text>
   <text x="85.334" y="111.549" stroke="none" fill="#000000" font-family="'Arial'" font-size="3.528">(4.33 in)</text>
  </g>
  <g>
   <text x="117.998" y="107.792" stroke="none" fill="#000000" font-family="'Arial'" font-size="3.528">110 mm</text>
   <text x="117.899" y="111.673" stroke="none" fill="#000000" font-family="'Arial'" font-size="3.528">(4.33 in)</text>
  </g>
 </g>
 <g id="callout_x0020_layer">
 </g>
</svg>
