<?xml version="1.0" encoding="UTF-8"?>
<!-- Generator: PTC Arbortext IsoDraw 7.4 M001 -->
<svg xmlns="http://www.w3.org/2000/svg" xmlns:xlink="http://www.w3.org/1999/xlink" width="120mm" height="157.112mm" viewBox="0 0 120 157.112" fill-rule="evenodd" clip-rule="evenodd" stroke="#000000" stroke-linecap="round" fill="none" xml:space="preserve" preserveAspectRatio="xMidYMid meet" zoomAndPan="magnify" version="1.1" contentScriptType="text/ecmascript" contentStyleType="text/css">
 <g id="Standard_x0020_layer">
  <polygon stroke-width="0.11" stroke-linejoin="round" stroke-miterlimit="10" points="1.468 132.979 109.626 132.979 109.626 23.568 1.468 23.568 1.468 132.979"/>
  <path stroke="none" fill="#FFFFFF" d="M27.17 119.158L91.055 119.158 91.055 31.603 27.17 31.603 27.17 119.158z"/>
  <polygon stroke-width="0.11" stroke-linejoin="round" stroke-miterlimit="10" points="27.17 119.158 91.055 119.158 91.055 31.603 27.17 31.603 27.17 119.158"/>
  <path stroke-width="0.037" stroke-linejoin="round" stroke-miterlimit="10" d="M44.837 119.158L50.451 119.158L44.837 119.158L44.837 119.158z"/>
  <line stroke-width="0.037" stroke-linejoin="round" stroke-miterlimit="10" x1="50.451" y1="119.158" x2="50.451" y2="118.899"/>
  <line stroke-width="0.037" stroke-linejoin="round" stroke-miterlimit="10" x1="44.837" y1="119.158" x2="44.837" y2="118.899"/>
  <path stroke-width="0.037" stroke-linejoin="round" stroke-miterlimit="10" d="M50.451 119.158L56.024 119.158L50.451 119.158L50.451 119.158z"/>
  <line stroke-width="0.037" stroke-linejoin="round" stroke-miterlimit="10" x1="56.024" y1="119.158" x2="56.024" y2="118.899"/>
  <line stroke-width="0.037" stroke-linejoin="round" stroke-miterlimit="10" x1="50.451" y1="119.158" x2="50.451" y2="118.899"/>
  <path stroke="none" fill="#FFFFFF" d="M38.918 135.572L55.634 135.572 55.634 130.431 38.918 130.431 38.918 135.572z"/>
  <polygon stroke-width="0.11" stroke-linejoin="round" stroke-miterlimit="10" points="38.918 135.572 55.634 135.572 55.634 130.431 38.918 130.431 38.918 135.572"/>
  <line stroke-width="0.183" stroke-linejoin="round" stroke-miterlimit="10" x1="47.643" y1="134.233" x2="47.643" y2="131.943"/>
  <path stroke-width="0.11" stroke-linejoin="round" stroke-miterlimit="10" d="M48.378 132.073C48.378 131.64 48.033 131.338 47.643 131.338"/>
  <path stroke-width="0.11" stroke-linejoin="round" stroke-miterlimit="10" d="M46.909 132.073C46.909 131.64 47.212 131.338 47.643 131.338"/>
  <line stroke-width="0.183" stroke-linejoin="round" stroke-miterlimit="10" x1="53.216" y1="134.318" x2="53.216" y2="132.03"/>
  <path stroke-width="0.11" stroke-linejoin="round" stroke-miterlimit="10" d="M53.951 132.116C53.951 131.728 53.604 131.382 53.216 131.382"/>
  <path stroke-width="0.11" stroke-linejoin="round" stroke-miterlimit="10" d="M52.481 132.116C52.481 131.728 52.783 131.382 53.216 131.382"/>
  <line stroke-width="0.11" stroke-linejoin="round" stroke-miterlimit="10" x1="47.643" y1="119.072" x2="47.643" y2="131.338"/>
  <line stroke-width="0.11" stroke-linejoin="round" stroke-miterlimit="10" x1="53.216" y1="119.072" x2="53.216" y2="131.382"/>
  <path stroke-width="0.037" stroke-linejoin="round" stroke-miterlimit="10" d="M63.539 119.2L69.155 119.2L63.539 119.2L63.539 119.2z"/>
  <line stroke-width="0.037" stroke-linejoin="round" stroke-miterlimit="10" x1="69.155" y1="119.2" x2="69.155" y2="118.984"/>
  <line stroke-width="0.037" stroke-linejoin="round" stroke-miterlimit="10" x1="63.539" y1="119.2" x2="63.539" y2="118.984"/>
  <path stroke-width="0.037" stroke-linejoin="round" stroke-miterlimit="10" d="M69.155 119.2L74.727 119.2L69.155 119.2L69.155 119.2z"/>
  <line stroke-width="0.037" stroke-linejoin="round" stroke-miterlimit="10" x1="74.727" y1="119.2" x2="74.727" y2="118.984"/>
  <line stroke-width="0.037" stroke-linejoin="round" stroke-miterlimit="10" x1="69.155" y1="119.2" x2="69.155" y2="118.984"/>
  <path stroke="none" fill="#FFFFFF" d="M57.277 135.615L74.337 135.615 74.337 130.518 57.277 130.518 57.277 135.615z"/>
  <polygon stroke-width="0.11" stroke-linejoin="round" stroke-miterlimit="10" points="57.277 135.615 74.337 135.615 74.337 130.518 57.277 130.518 57.277 135.615"/>
  <line stroke-width="0.183" stroke-linejoin="round" stroke-miterlimit="10" x1="66.346" y1="134.318" x2="66.346" y2="132.03"/>
  <path stroke-width="0.11" stroke-linejoin="round" stroke-miterlimit="10" d="M67.081 132.116C67.081 131.728 66.736 131.382 66.346 131.382"/>
  <path stroke-width="0.11" stroke-linejoin="round" stroke-miterlimit="10" d="M65.612 132.116C65.612 131.728 65.915 131.382 66.346 131.382"/>
  <line stroke-width="0.183" stroke-linejoin="round" stroke-miterlimit="10" x1="71.918" y1="134.405" x2="71.918" y2="132.116"/>
  <path stroke-width="0.11" stroke-linejoin="round" stroke-miterlimit="10" d="M72.653 132.203C72.653 131.813 72.308 131.468 71.918 131.468"/>
  <path stroke-width="0.11" stroke-linejoin="round" stroke-miterlimit="10" d="M71.185 132.203C71.185 131.813 71.487 131.468 71.918 131.468"/>
  <line stroke-width="0.11" stroke-linejoin="round" stroke-miterlimit="10" x1="50.279" y1="35.058" x2="50.279" y2="31.733"/>
  <path stroke="none" fill="#000000" d="M50.279 34.411C50.625 34.411 50.926 34.713 50.926 35.058 50.926 35.404 50.625 35.662 50.279 35.662 49.933 35.662 49.673 35.404 49.673 35.058 49.673 34.713 49.933 34.411 50.279 34.411z"/>
  <path stroke-width="0.037" stroke-linejoin="round" stroke-miterlimit="10" d="M46.607 31.646L53.951 31.646L46.607 31.646L46.607 31.646z"/>
  <line stroke-width="0.037" stroke-linejoin="round" stroke-miterlimit="10" x1="53.951" y1="31.646" x2="53.951" y2="31.905"/>
  <line stroke-width="0.037" stroke-linejoin="round" stroke-miterlimit="10" x1="46.607" y1="31.646" x2="46.607" y2="31.905"/>
  <line stroke-width="0.11" stroke-linejoin="round" stroke-miterlimit="10" x1="57.621" y1="35.058" x2="57.621" y2="31.733"/>
  <path stroke="none" fill="#000000" d="M57.621 34.411C57.968 34.411 58.27 34.713 58.27 35.058 58.27 35.404 57.968 35.662 57.621 35.662 57.277 35.662 57.017 35.404 57.017 35.058 57.017 34.713 57.277 34.411 57.621 34.411z"/>
  <path stroke-width="0.037" stroke-linejoin="round" stroke-miterlimit="10" d="M53.951 31.646L61.293 31.646L53.951 31.646L53.951 31.646z"/>
  <line stroke-width="0.037" stroke-linejoin="round" stroke-miterlimit="10" x1="61.293" y1="31.646" x2="61.293" y2="31.905"/>
  <line stroke-width="0.037" stroke-linejoin="round" stroke-miterlimit="10" x1="53.951" y1="31.646" x2="53.951" y2="31.905"/>
  <line stroke-width="0.11" stroke-linejoin="round" stroke-miterlimit="10" x1="65.007" y1="35.058" x2="65.007" y2="31.733"/>
  <path stroke="none" fill="#000000" d="M65.007 34.411C65.353 34.411 65.612 34.713 65.612 35.058 65.612 35.404 65.353 35.662 65.007 35.662 64.662 35.662 64.359 35.404 64.359 35.058 64.359 34.713 64.662 34.411 65.007 34.411z"/>
  <path stroke-width="0.037" stroke-linejoin="round" stroke-miterlimit="10" d="M61.337 31.646L68.68 31.646L61.337 31.646L61.337 31.646z"/>
  <line stroke-width="0.037" stroke-linejoin="round" stroke-miterlimit="10" x1="68.68" y1="31.646" x2="68.68" y2="31.905"/>
  <line stroke-width="0.037" stroke-linejoin="round" stroke-miterlimit="10" x1="61.337" y1="31.646" x2="61.337" y2="31.905"/>
  <line stroke-width="0.11" stroke-linejoin="round" stroke-miterlimit="10" x1="50.322" y1="32.164" x2="50.322" y2="9.358"/>
  <line stroke-width="0.11" stroke-linejoin="round" stroke-miterlimit="10" x1="48.465" y1="9.185" x2="52.136" y2="9.185"/>
  <line stroke-width="0.11" stroke-linejoin="round" stroke-miterlimit="10" x1="65.007" y1="31.992" x2="65.007" y2="9.185"/>
  <line stroke-width="0.11" stroke-linejoin="round" stroke-miterlimit="10" x1="63.151" y1="9.012" x2="66.822" y2="9.012"/>
  <line stroke-width="0.11" stroke-linejoin="round" stroke-miterlimit="10" x1="87.641" y1="46.462" x2="91.01" y2="46.462"/>
  <path stroke="none" fill="#000000" d="M88.29 46.462C88.29 46.807 88.031 47.067 87.641 47.067 87.296 47.067 87.037 46.807 87.037 46.462 87.037 46.115 87.296 45.814 87.641 45.814 88.031 45.814 88.29 46.115 88.29 46.462z"/>
  <path stroke-width="0.037" stroke-linejoin="round" stroke-miterlimit="10" d="M91.055 43.698L91.055 49.225L91.055 43.698L91.055 43.698z"/>
  <line stroke-width="0.037" stroke-linejoin="round" stroke-miterlimit="10" x1="91.055" y1="49.225" x2="90.838" y2="49.225"/>
  <line stroke-width="0.037" stroke-linejoin="round" stroke-miterlimit="10" x1="91.055" y1="43.698" x2="90.838" y2="43.698"/>
  <line stroke-width="0.11" stroke-linejoin="round" stroke-miterlimit="10" x1="87.641" y1="51.99" x2="91.01" y2="51.99"/>
  <path stroke="none" fill="#000000" d="M88.29 51.99C88.29 52.335 88.031 52.595 87.641 52.595 87.296 52.595 87.037 52.335 87.037 51.99 87.037 51.645 87.296 51.386 87.641 51.386 88.031 51.386 88.29 51.645 88.29 51.99z"/>
  <path stroke-width="0.037" stroke-linejoin="round" stroke-miterlimit="10" d="M91.055 49.225L91.055 54.755L91.055 49.225L91.055 49.225z"/>
  <line stroke-width="0.037" stroke-linejoin="round" stroke-miterlimit="10" x1="91.055" y1="54.755" x2="90.838" y2="54.755"/>
  <line stroke-width="0.037" stroke-linejoin="round" stroke-miterlimit="10" x1="91.055" y1="49.225" x2="90.838" y2="49.225"/>
  <line stroke-width="0.11" stroke-linejoin="round" stroke-miterlimit="10" x1="30.582" y1="47.066" x2="27.213" y2="47.066"/>
  <path stroke="none" fill="#000000" d="M29.934 47.066C29.934 47.411 30.236 47.713 30.582 47.713 30.928 47.713 31.187 47.411 31.187 47.066 31.187 46.72 30.928 46.462 30.582 46.462 30.236 46.462 29.934 46.72 29.934 47.066z"/>
  <path stroke-width="0.037" stroke-linejoin="round" stroke-miterlimit="10" d="M27.17 44.301L27.17 49.831L27.17 44.301L27.17 44.301z"/>
  <line stroke-width="0.037" stroke-linejoin="round" stroke-miterlimit="10" x1="27.17" y1="49.831" x2="27.385" y2="49.831"/>
  <line stroke-width="0.037" stroke-linejoin="round" stroke-miterlimit="10" x1="27.17" y1="44.301" x2="27.385" y2="44.301"/>
  <line stroke-width="0.11" stroke-linejoin="round" stroke-miterlimit="10" x1="30.582" y1="52.595" x2="27.213" y2="52.595"/>
  <path stroke="none" fill="#000000" d="M29.934 52.595C29.934 52.941 30.236 53.243 30.582 53.243 30.928 53.243 31.187 52.941 31.187 52.595 31.187 52.25 30.928 51.99 30.582 51.99 30.236 51.99 29.934 52.25 29.934 52.595z"/>
  <path stroke-width="0.037" stroke-linejoin="round" stroke-miterlimit="10" d="M27.17 49.831L27.17 55.402L27.17 49.831L27.17 49.831z"/>
  <line stroke-width="0.037" stroke-linejoin="round" stroke-miterlimit="10" x1="27.17" y1="55.402" x2="27.385" y2="55.402"/>
  <line stroke-width="0.037" stroke-linejoin="round" stroke-miterlimit="10" x1="27.17" y1="49.831" x2="27.385" y2="49.831"/>
  <line stroke-width="0.11" stroke-linejoin="round" stroke-miterlimit="10" x1="12.095" y1="32.164" x2="12.095" y2="9.358"/>
  <line stroke-width="0.11" stroke-linejoin="round" stroke-miterlimit="10" x1="10.281" y1="9.185" x2="13.952" y2="9.185"/>
  <line stroke-width="0.11" stroke-linejoin="round" stroke-miterlimit="10" x1="19.437" y1="31.992" x2="19.437" y2="9.185"/>
  <line stroke-width="0.11" stroke-linejoin="round" stroke-miterlimit="10" x1="17.623" y1="9.012" x2="21.295" y2="9.012"/>
  <polyline stroke-width="0.11" stroke-linejoin="round" stroke-miterlimit="10" points="12.095 31.992 12.095 46.936 30.452 47.066"/>
  <polyline stroke-width="0.11" stroke-linejoin="round" stroke-miterlimit="10" points="19.437 31.992 19.437 52.768 28.466 52.595"/>
  <line stroke-width="0.11" stroke-linejoin="round" stroke-miterlimit="10" x1="87.772" y1="58.21" x2="91.097" y2="58.21"/>
  <path stroke="none" fill="#000000" d="M88.376 58.21C88.376 58.555 88.117 58.814 87.772 58.814 87.426 58.814 87.123 58.555 87.123 58.21 87.123 57.865 87.426 57.563 87.772 57.563 88.117 57.563 88.376 57.865 88.376 58.21z"/>
  <path stroke-width="0.037" stroke-linejoin="round" stroke-miterlimit="10" d="M91.183 55.445L91.183 60.975L91.183 55.445L91.183 55.445z"/>
  <line stroke-width="0.037" stroke-linejoin="round" stroke-miterlimit="10" x1="91.183" y1="60.975" x2="90.924" y2="60.975"/>
  <line stroke-width="0.037" stroke-linejoin="round" stroke-miterlimit="10" x1="91.183" y1="55.445" x2="90.924" y2="55.445"/>
  <line stroke-width="0.11" stroke-linejoin="round" stroke-miterlimit="10" x1="87.772" y1="63.74" x2="91.097" y2="63.74"/>
  <path stroke="none" fill="#000000" d="M88.376 63.74C88.376 64.084 88.117 64.343 87.772 64.343 87.426 64.343 87.123 64.084 87.123 63.74 87.123 63.393 87.426 63.134 87.772 63.134 88.117 63.134 88.376 63.393 88.376 63.74z"/>
  <path stroke-width="0.037" stroke-linejoin="round" stroke-miterlimit="10" d="M91.183 60.975L91.183 66.504L91.183 60.975L91.183 60.975z"/>
  <line stroke-width="0.037" stroke-linejoin="round" stroke-miterlimit="10" x1="91.183" y1="66.504" x2="90.924" y2="66.504"/>
  <line stroke-width="0.037" stroke-linejoin="round" stroke-miterlimit="10" x1="91.183" y1="60.975" x2="90.924" y2="60.975"/>
  <line stroke-width="0.11" stroke-linejoin="round" stroke-miterlimit="10" x1="87.772" y1="69.269" x2="91.097" y2="69.269"/>
  <path stroke="none" fill="#000000" d="M88.376 69.269C88.376 69.614 88.117 69.915 87.772 69.915 87.426 69.915 87.123 69.614 87.123 69.269 87.123 68.923 87.426 68.664 87.772 68.664 88.117 68.664 88.376 68.923 88.376 69.269z"/>
  <path stroke-width="0.037" stroke-linejoin="round" stroke-miterlimit="10" d="M91.183 66.504L91.183 72.033L91.183 66.504L91.183 66.504z"/>
  <line stroke-width="0.037" stroke-linejoin="round" stroke-miterlimit="10" x1="91.183" y1="72.033" x2="90.924" y2="72.033"/>
  <line stroke-width="0.037" stroke-linejoin="round" stroke-miterlimit="10" x1="91.183" y1="66.504" x2="90.924" y2="66.504"/>
  <line stroke-width="0.11" stroke-linejoin="round" stroke-miterlimit="10" x1="87.772" y1="74.84" x2="91.097" y2="74.84"/>
  <path stroke="none" fill="#000000" d="M88.376 74.84C88.376 75.186 88.117 75.444 87.772 75.444 87.426 75.444 87.123 75.186 87.123 74.84 87.123 74.495 87.426 74.192 87.772 74.192 88.117 74.192 88.376 74.495 88.376 74.84z"/>
  <path stroke-width="0.037" stroke-linejoin="round" stroke-miterlimit="10" d="M91.183 72.033L91.183 77.605L91.183 72.033L91.183 72.033z"/>
  <line stroke-width="0.037" stroke-linejoin="round" stroke-miterlimit="10" x1="91.183" y1="77.605" x2="90.924" y2="77.605"/>
  <line stroke-width="0.037" stroke-linejoin="round" stroke-miterlimit="10" x1="91.183" y1="72.033" x2="90.924" y2="72.033"/>
  <line stroke-width="0.11" stroke-linejoin="round" stroke-miterlimit="10" x1="87.772" y1="80.37" x2="91.097" y2="80.37"/>
  <path stroke="none" fill="#000000" d="M88.376 80.37C88.376 80.715 88.117 80.974 87.772 80.974 87.426 80.974 87.123 80.715 87.123 80.37 87.123 80.024 87.426 79.721 87.772 79.721 88.117 79.721 88.376 80.024 88.376 80.37z"/>
  <path stroke-width="0.037" stroke-linejoin="round" stroke-miterlimit="10" d="M91.183 77.605L91.183 83.134L91.183 77.605L91.183 77.605z"/>
  <line stroke-width="0.037" stroke-linejoin="round" stroke-miterlimit="10" x1="91.183" y1="83.134" x2="90.924" y2="83.134"/>
  <line stroke-width="0.037" stroke-linejoin="round" stroke-miterlimit="10" x1="91.183" y1="77.605" x2="90.924" y2="77.605"/>
  <line stroke-width="0.11" stroke-linejoin="round" stroke-miterlimit="10" x1="87.772" y1="85.897" x2="91.097" y2="85.897"/>
  <path stroke="none" fill="#000000" d="M88.376 85.897C88.376 86.243 88.117 86.546 87.772 86.546 87.426 86.546 87.123 86.243 87.123 85.897 87.123 85.552 87.426 85.293 87.772 85.293 88.117 85.293 88.376 85.552 88.376 85.897z"/>
  <path stroke-width="0.037" stroke-linejoin="round" stroke-miterlimit="10" d="M91.183 83.134L91.183 88.662L91.183 83.134L91.183 83.134z"/>
  <line stroke-width="0.037" stroke-linejoin="round" stroke-miterlimit="10" x1="91.183" y1="88.662" x2="90.924" y2="88.662"/>
  <line stroke-width="0.037" stroke-linejoin="round" stroke-miterlimit="10" x1="91.183" y1="83.134" x2="90.924" y2="83.134"/>
  <line stroke-width="0.11" stroke-linejoin="round" stroke-miterlimit="10" x1="87.772" y1="91.427" x2="91.097" y2="91.427"/>
  <path stroke="none" fill="#000000" d="M88.376 91.427C88.376 91.772 88.117 92.075 87.772 92.075 87.426 92.075 87.123 91.772 87.123 91.427 87.123 91.081 87.426 90.822 87.772 90.822 88.117 90.822 88.376 91.081 88.376 91.427z"/>
  <path stroke-width="0.037" stroke-linejoin="round" stroke-miterlimit="10" d="M91.183 88.662L91.183 94.191L91.183 88.662L91.183 88.662z"/>
  <line stroke-width="0.037" stroke-linejoin="round" stroke-miterlimit="10" x1="91.183" y1="94.191" x2="90.924" y2="94.191"/>
  <line stroke-width="0.037" stroke-linejoin="round" stroke-miterlimit="10" x1="91.183" y1="88.662" x2="90.924" y2="88.662"/>
  <line stroke-width="0.11" stroke-linejoin="round" stroke-miterlimit="10" x1="87.772" y1="96.998" x2="91.097" y2="96.998"/>
  <path stroke="none" fill="#000000" d="M88.376 96.998C88.376 97.344 88.117 97.603 87.772 97.603 87.426 97.603 87.123 97.344 87.123 96.998 87.123 96.653 87.426 96.35 87.772 96.35 88.117 96.35 88.376 96.653 88.376 96.998z"/>
  <path stroke-width="0.037" stroke-linejoin="round" stroke-miterlimit="10" d="M91.183 94.191L91.183 99.763L91.183 94.191L91.183 94.191z"/>
  <line stroke-width="0.037" stroke-linejoin="round" stroke-miterlimit="10" x1="91.183" y1="99.763" x2="90.924" y2="99.763"/>
  <line stroke-width="0.037" stroke-linejoin="round" stroke-miterlimit="10" x1="91.183" y1="94.191" x2="90.924" y2="94.191"/>
  <line stroke-width="0.11" stroke-linejoin="round" stroke-miterlimit="10" x1="87.772" y1="102.528" x2="91.097" y2="102.528"/>
  <path stroke="none" fill="#000000" d="M88.376 102.528C88.376 102.873 88.117 103.132 87.772 103.132 87.426 103.132 87.123 102.873 87.123 102.528 87.123 102.183 87.426 101.879 87.772 101.879 88.117 101.879 88.376 102.183 88.376 102.528z"/>
  <path stroke-width="0.037" stroke-linejoin="round" stroke-miterlimit="10" d="M91.183 99.763L91.183 105.292L91.183 99.763L91.183 99.763z"/>
  <line stroke-width="0.037" stroke-linejoin="round" stroke-miterlimit="10" x1="91.183" y1="105.292" x2="90.924" y2="105.292"/>
  <line stroke-width="0.037" stroke-linejoin="round" stroke-miterlimit="10" x1="91.183" y1="99.763" x2="90.924" y2="99.763"/>
  <line stroke-width="0.11" stroke-linejoin="round" stroke-miterlimit="10" x1="30.582" y1="102.528" x2="27.213" y2="102.528"/>
  <path stroke="none" fill="#000000" d="M29.934 102.528C29.934 102.183 30.236 101.879 30.582 101.879 30.928 101.879 31.187 102.183 31.187 102.528 31.187 102.873 30.928 103.132 30.582 103.132 30.236 103.132 29.934 102.873 29.934 102.528z"/>
  <path stroke-width="0.037" stroke-linejoin="round" stroke-miterlimit="10" d="M27.17 105.292L27.17 99.763L27.17 105.292L27.17 105.292z"/>
  <line stroke-width="0.037" stroke-linejoin="round" stroke-miterlimit="10" x1="27.17" y1="99.763" x2="27.385" y2="99.763"/>
  <line stroke-width="0.037" stroke-linejoin="round" stroke-miterlimit="10" x1="27.17" y1="105.292" x2="27.385" y2="105.292"/>
  <line stroke-width="0.11" stroke-linejoin="round" stroke-miterlimit="10" x1="30.582" y1="96.998" x2="27.213" y2="96.998"/>
  <path stroke="none" fill="#000000" d="M29.934 96.998C29.934 96.653 30.236 96.35 30.582 96.35 30.928 96.35 31.187 96.653 31.187 96.998 31.187 97.344 30.928 97.603 30.582 97.603 30.236 97.603 29.934 97.344 29.934 96.998z"/>
  <path stroke-width="0.037" stroke-linejoin="round" stroke-miterlimit="10" d="M27.17 99.763L27.17 94.191L27.17 99.763L27.17 99.763z"/>
  <line stroke-width="0.037" stroke-linejoin="round" stroke-miterlimit="10" x1="27.17" y1="94.191" x2="27.385" y2="94.191"/>
  <line stroke-width="0.037" stroke-linejoin="round" stroke-miterlimit="10" x1="27.17" y1="99.763" x2="27.385" y2="99.763"/>
  <line stroke-width="0.11" stroke-linejoin="round" stroke-miterlimit="10" x1="30.582" y1="91.427" x2="27.213" y2="91.427"/>
  <path stroke="none" fill="#000000" d="M29.934 91.427C29.934 91.081 30.236 90.822 30.582 90.822 30.928 90.822 31.187 91.081 31.187 91.427 31.187 91.772 30.928 92.075 30.582 92.075 30.236 92.075 29.934 91.772 29.934 91.427z"/>
  <path stroke-width="0.037" stroke-linejoin="round" stroke-miterlimit="10" d="M27.17 94.191L27.17 88.662L27.17 94.191L27.17 94.191z"/>
  <line stroke-width="0.037" stroke-linejoin="round" stroke-miterlimit="10" x1="27.17" y1="88.662" x2="27.385" y2="88.662"/>
  <line stroke-width="0.037" stroke-linejoin="round" stroke-miterlimit="10" x1="27.17" y1="94.191" x2="27.385" y2="94.191"/>
  <path stroke="none" fill="#FFFFFF" d="M12.137 93.328C14.169 93.328 15.81 94.968 15.81 96.998 15.81 98.986 14.169 100.626 12.137 100.626 10.108 100.626 8.467 98.986 8.467 96.998 8.467 94.968 10.108 93.328 12.137 93.328z"/>
  <line stroke-width="0.11" stroke-linejoin="round" stroke-miterlimit="10" x1="30.582" y1="85.897" x2="27.213" y2="85.897"/>
  <path stroke="none" fill="#000000" d="M29.934 85.897C29.934 85.552 30.236 85.293 30.582 85.293 30.928 85.293 31.187 85.552 31.187 85.897 31.187 86.243 30.928 86.546 30.582 86.546 30.236 86.546 29.934 86.243 29.934 85.897z"/>
  <path stroke-width="0.037" stroke-linejoin="round" stroke-miterlimit="10" d="M27.17 88.662L27.17 83.134L27.17 88.662L27.17 88.662z"/>
  <line stroke-width="0.037" stroke-linejoin="round" stroke-miterlimit="10" x1="27.17" y1="83.134" x2="27.385" y2="83.134"/>
  <line stroke-width="0.037" stroke-linejoin="round" stroke-miterlimit="10" x1="27.17" y1="88.662" x2="27.385" y2="88.662"/>
  <line stroke-width="0.11" stroke-linejoin="round" stroke-miterlimit="10" x1="30.582" y1="80.37" x2="27.213" y2="80.37"/>
  <path stroke="none" fill="#000000" d="M29.934 80.37C29.934 80.024 30.236 79.721 30.582 79.721 30.928 79.721 31.187 80.024 31.187 80.37 31.187 80.715 30.928 80.974 30.582 80.974 30.236 80.974 29.934 80.715 29.934 80.37z"/>
  <path stroke-width="0.037" stroke-linejoin="round" stroke-miterlimit="10" d="M27.17 83.134L27.17 77.605L27.17 83.134L27.17 83.134z"/>
  <line stroke-width="0.037" stroke-linejoin="round" stroke-miterlimit="10" x1="27.17" y1="77.605" x2="27.385" y2="77.605"/>
  <line stroke-width="0.037" stroke-linejoin="round" stroke-miterlimit="10" x1="27.17" y1="83.134" x2="27.385" y2="83.134"/>
  <line stroke-width="0.11" stroke-linejoin="round" stroke-miterlimit="10" x1="30.582" y1="74.84" x2="27.213" y2="74.84"/>
  <path stroke="none" fill="#000000" d="M29.934 74.84C29.934 74.495 30.236 74.192 30.582 74.192 30.928 74.192 31.187 74.495 31.187 74.84 31.187 75.186 30.928 75.444 30.582 75.444 30.236 75.444 29.934 75.186 29.934 74.84z"/>
  <path stroke-width="0.037" stroke-linejoin="round" stroke-miterlimit="10" d="M27.17 77.605L27.17 72.033L27.17 77.605L27.17 77.605z"/>
  <line stroke-width="0.037" stroke-linejoin="round" stroke-miterlimit="10" x1="27.17" y1="72.033" x2="27.385" y2="72.033"/>
  <line stroke-width="0.037" stroke-linejoin="round" stroke-miterlimit="10" x1="27.17" y1="77.605" x2="27.385" y2="77.605"/>
  <path stroke="none" fill="#FFFFFF" d="M12.224 76.697C14.255 76.697 15.896 78.338 15.896 80.37 15.896 82.356 14.255 83.998 12.224 83.998 10.237 83.998 8.553 82.356 8.553 80.37 8.553 78.338 10.237 76.697 12.224 76.697z"/>
  <line stroke-width="0.11" stroke-linejoin="round" stroke-miterlimit="10" x1="30.582" y1="69.269" x2="27.213" y2="69.269"/>
  <path stroke="none" fill="#000000" d="M29.934 69.269C29.934 68.923 30.236 68.664 30.582 68.664 30.928 68.664 31.187 68.923 31.187 69.269 31.187 69.614 30.928 69.915 30.582 69.915 30.236 69.915 29.934 69.614 29.934 69.269z"/>
  <path stroke-width="0.037" stroke-linejoin="round" stroke-miterlimit="10" d="M27.17 72.033L27.17 66.504L27.17 72.033L27.17 72.033z"/>
  <line stroke-width="0.037" stroke-linejoin="round" stroke-miterlimit="10" x1="27.17" y1="66.504" x2="27.385" y2="66.504"/>
  <line stroke-width="0.037" stroke-linejoin="round" stroke-miterlimit="10" x1="27.17" y1="72.033" x2="27.385" y2="72.033"/>
  <line stroke-width="0.11" stroke-linejoin="round" stroke-miterlimit="10" x1="30.582" y1="63.74" x2="27.213" y2="63.74"/>
  <path stroke="none" fill="#000000" d="M29.934 63.74C29.934 63.393 30.236 63.134 30.582 63.134 30.928 63.134 31.187 63.393 31.187 63.74 31.187 64.084 30.928 64.343 30.582 64.343 30.236 64.343 29.934 64.084 29.934 63.74z"/>
  <path stroke-width="0.037" stroke-linejoin="round" stroke-miterlimit="10" d="M27.17 66.504L27.17 60.975L27.17 66.504L27.17 66.504z"/>
  <line stroke-width="0.037" stroke-linejoin="round" stroke-miterlimit="10" x1="27.17" y1="60.975" x2="27.385" y2="60.975"/>
  <line stroke-width="0.037" stroke-linejoin="round" stroke-miterlimit="10" x1="27.17" y1="66.504" x2="27.385" y2="66.504"/>
  <line stroke-width="0.11" stroke-linejoin="round" stroke-miterlimit="10" x1="30.582" y1="58.21" x2="27.213" y2="58.21"/>
  <path stroke="none" fill="#000000" d="M29.934 58.21C29.934 57.865 30.236 57.563 30.582 57.563 30.928 57.563 31.187 57.865 31.187 58.21 31.187 58.555 30.928 58.814 30.582 58.814 30.236 58.814 29.934 58.555 29.934 58.21z"/>
  <path stroke-width="0.037" stroke-linejoin="round" stroke-miterlimit="10" d="M27.17 60.975L27.17 55.445L27.17 60.975L27.17 60.975z"/>
  <line stroke-width="0.037" stroke-linejoin="round" stroke-miterlimit="10" x1="27.17" y1="55.445" x2="27.385" y2="55.445"/>
  <line stroke-width="0.037" stroke-linejoin="round" stroke-miterlimit="10" x1="27.17" y1="60.975" x2="27.385" y2="60.975"/>
  <path stroke="none" fill="#FFFFFF" d="M12.095 60.11C14.125 60.11 15.766 61.71 15.766 63.74 15.766 65.769 14.125 67.367 12.095 67.367 10.064 67.367 8.423 65.769 8.423 63.74 8.423 61.71 10.064 60.11 12.095 60.11z"/>
  <line stroke-width="0.11" stroke-linejoin="round" stroke-miterlimit="10" x1="71.962" y1="134.145" x2="71.962" y2="147.795"/>
  <path stroke="none" fill="#000000" d="M72.826 147.58L71.962 150.085 71.141 147.58 72.826 147.58z"/>
  <line stroke-width="0.11" stroke-linejoin="round" stroke-miterlimit="10" x1="66.477" y1="134.103" x2="66.477" y2="147.71"/>
  <path stroke="none" fill="#000000" d="M67.298 147.492L66.477 149.998 65.612 147.492 67.298 147.492z"/>
  <line stroke-width="0.11" stroke-linejoin="round" stroke-miterlimit="10" x1="53.216" y1="134.145" x2="53.216" y2="147.795"/>
  <path stroke="none" fill="#000000" d="M54.036 147.58L53.216 150.085 52.351 147.58 54.036 147.58z"/>
  <line stroke-width="0.11" stroke-linejoin="round" stroke-miterlimit="10" x1="47.6" y1="134.145" x2="47.6" y2="147.795"/>
  <path stroke="none" fill="#000000" d="M48.465 147.58L47.6 150.085 46.78 147.58 48.465 147.58z"/>
  <polyline stroke-width="0.11" stroke-linejoin="round" stroke-miterlimit="10" points="66.346 131.382 66.346 126.89 49.371 126.89 47.731 128.358"/>
  <polyline stroke-width="0.11" stroke-linejoin="round" stroke-miterlimit="10" points="71.918 131.468 71.918 123.26 54.642 123.26 53.216 124.644"/>
  <line stroke="#FF0000" stroke-width="0.183" stroke-linejoin="round" stroke-miterlimit="10" x1="50.279" y1="11.993" x2="50.279" y2="35.058"/>
  <path stroke="none" fill="#FF0000" d="M49.329 12.252L50.322 9.358 51.273 12.252 49.329 12.252z"/>
  <line stroke="#FF0000" stroke-width="0.183" stroke-linejoin="round" stroke-miterlimit="10" x1="65.007" y1="11.82" x2="65.007" y2="35.058"/>
  <path stroke="none" fill="#FF0000" d="M64.015 12.035L65.007 9.185 65.959 12.035 64.015 12.035z"/>
  <line stroke-width="0.11" stroke-linejoin="round" stroke-miterlimit="10" x1="12.095" y1="9.358" x2="12.095" y2="46.936"/>
  <line stroke-width="0.11" stroke-linejoin="round" stroke-miterlimit="10" x1="12.095" y1="41.149" x2="12.095" y2="43.351"/>
  <line stroke="#00B0F0" stroke-width="0.183" stroke-linejoin="round" stroke-miterlimit="10" x1="12.095" y1="9.358" x2="12.095" y2="46.936"/>
  <line stroke="#00B0F0" stroke-width="0.183" stroke-linejoin="round" stroke-miterlimit="10" x1="19.437" y1="9.185" x2="19.437" y2="52.768"/>
  <line stroke="#00B0F0" stroke-width="0.183" stroke-linejoin="round" stroke-miterlimit="10" x1="27.213" y1="47.066" x2="12.095" y2="46.936"/>
  <path stroke="none" fill="#00B0F0" d="M26.996 46.073L29.89 47.066 26.996 48.017 26.996 46.073z"/>
  <line stroke="#00B0F0" stroke-width="0.183" stroke-linejoin="round" stroke-miterlimit="10" x1="19.437" y1="52.768" x2="27.17" y2="52.637"/>
  <path stroke="none" fill="#00B0F0" d="M26.911 51.688L29.804 52.595 26.911 53.631 26.911 51.688z"/>
  <g>
   <line stroke-width="0.106" x1="47.643" y1="119.072" x2="47.643" y2="114.462"/>
   <path stroke="none" fill="#000000" d="M47.031 114.272C47.031 113.927 47.334 113.625 47.679 113.625 48.024 113.625 48.284 113.927 48.284 114.272 48.284 114.617 48.024 114.876 47.679 114.876 47.334 114.876 47.031 114.617 47.031 114.272z"/>
  </g>
  <line stroke-width="0.106" x1="53.216" y1="119.072" x2="53.216" y2="114.462"/>
  <path stroke="none" fill="#000000" d="M52.603 114.272C52.603 113.927 52.905 113.625 53.252 113.625 53.597 113.625 53.856 113.927 53.856 114.272 53.856 114.617 53.597 114.876 53.252 114.876 52.905 114.876 52.603 114.617 52.603 114.272z"/>
  <line stroke-width="0.106" x1="72.061" y1="119.102" x2="72.061" y2="114.492"/>
  <path stroke="none" fill="#000000" d="M71.447 114.302C71.447 113.957 71.751 113.655 72.096 113.655 72.441 113.655 72.7 113.957 72.7 114.302 72.7 114.649 72.441 114.908 72.096 114.908 71.751 114.908 71.447 114.649 71.447 114.302z"/>
  <line stroke-width="0.106" x1="66.287" y1="119.102" x2="66.287" y2="114.492"/>
  <path stroke="none" fill="#000000" d="M65.674 114.302C65.674 113.957 65.977 113.655 66.322 113.655 66.668 113.655 66.927 113.957 66.927 114.302 66.927 114.649 66.668 114.908 66.322 114.908 65.977 114.908 65.674 114.649 65.674 114.302z"/>
  <g>
   <polyline stroke-width="0.11" stroke-linejoin="round" stroke-miterlimit="10" points="27.213 69.269 13.217 69.269 13.217 65.121"/>
   <polyline stroke-width="0.11" stroke-linejoin="round" stroke-miterlimit="10" points="27.213 58.21 13.217 58.21 13.217 62.142"/>
   <line stroke-width="0.11" stroke-linejoin="round" stroke-miterlimit="10" x1="27.213" y1="63.74" x2="14.082" y2="63.74"/>
   <path stroke-width="0.11" stroke-linejoin="round" stroke-miterlimit="10" fill="#FFFFFF" d="M12.095 60.11C14.125 60.11 15.766 61.71 15.766 63.74 15.766 65.769 14.125 67.367 12.095 67.367 10.064 67.367 8.423 65.769 8.423 63.74 8.423 61.71 10.064 60.11 12.095 60.11L12.095 60.11z"/>
  </g>
  <g>
   <polyline stroke-width="0.11" stroke-linejoin="round" stroke-miterlimit="10" points="27.343 85.897 13.348 85.897 13.348 81.751"/>
   <polyline stroke-width="0.11" stroke-linejoin="round" stroke-miterlimit="10" points="27.343 74.84 13.348 74.84 13.348 78.771"/>
   <line stroke-width="0.11" stroke-linejoin="round" stroke-miterlimit="10" x1="27.343" y1="80.37" x2="14.211" y2="80.37"/>
   <path stroke-width="0.11" stroke-linejoin="round" stroke-miterlimit="10" fill="#FFFFFF" d="M12.224 76.697C14.255 76.697 15.896 78.338 15.896 80.37 15.896 82.356 14.255 83.998 12.224 83.998 10.237 83.998 8.553 82.356 8.553 80.37 8.553 78.338 10.237 76.697 12.224 76.697L12.224 76.697z"/>
  </g>
  <g>
   <polyline stroke-width="0.11" stroke-linejoin="round" stroke-miterlimit="10" points="27.213 102.528 13.262 102.528 13.262 98.382"/>
   <polyline stroke-width="0.11" stroke-linejoin="round" stroke-miterlimit="10" points="27.213 91.427 13.262 91.427 13.262 95.4"/>
   <line stroke-width="0.11" stroke-linejoin="round" stroke-miterlimit="10" x1="27.213" y1="96.998" x2="14.082" y2="96.998"/>
   <path stroke-width="0.11" stroke-linejoin="round" stroke-miterlimit="10" fill="#FFFFFF" d="M12.137 93.328C14.169 93.328 15.81 94.968 15.81 96.998 15.81 98.986 14.169 100.626 12.137 100.626 10.108 100.626 8.467 98.986 8.467 96.998 8.467 94.968 10.108 93.328 12.137 93.328L12.137 93.328z"/>
  </g>
  <g>
   <polyline stroke-width="0.11" stroke-linejoin="round" stroke-miterlimit="10" points="91.097 91.469 105.093 91.469 105.093 95.617"/>
   <polyline stroke-width="0.11" stroke-linejoin="round" stroke-miterlimit="10" points="91.097 102.528 105.093 102.528 105.093 98.596"/>
   <line stroke-width="0.11" stroke-linejoin="round" stroke-miterlimit="10" x1="91.097" y1="96.998" x2="104.228" y2="96.998"/>
   <path stroke-width="0.11" stroke-linejoin="round" stroke-miterlimit="10" fill="#FFFFFF" d="M106.215 100.626C104.186 100.626 102.543 99.028 102.543 96.998 102.543 94.968 104.186 93.37 106.215 93.37 108.245 93.37 109.887 94.968 109.887 96.998 109.887 99.028 108.245 100.626 106.215 100.626L106.215 100.626z"/>
  </g>
  <g>
   <polyline stroke-width="0.11" stroke-linejoin="round" stroke-miterlimit="10" points="90.968 74.84 104.962 74.84 104.962 78.986"/>
   <polyline stroke-width="0.11" stroke-linejoin="round" stroke-miterlimit="10" points="90.968 85.897 104.962 85.897 104.962 81.966"/>
   <line stroke-width="0.11" stroke-linejoin="round" stroke-miterlimit="10" x1="90.968" y1="80.368" x2="104.099" y2="80.368"/>
   <path stroke-width="0.11" stroke-linejoin="round" stroke-miterlimit="10" fill="#FFFFFF" d="M106.085 84.04C104.055 84.04 102.415 82.399 102.415 80.368 102.415 78.382 104.055 76.74 106.085 76.74 108.072 76.74 109.757 78.382 109.757 80.368 109.757 82.399 108.072 84.04 106.085 84.04L106.085 84.04z"/>
  </g>
  <g>
   <polyline stroke-width="0.11" stroke-linejoin="round" stroke-miterlimit="10" points="91.097 58.21 105.049 58.21 105.049 62.356"/>
   <polyline stroke-width="0.11" stroke-linejoin="round" stroke-miterlimit="10" points="91.097 69.311 105.049 69.311 105.049 65.337"/>
   <line stroke-width="0.11" stroke-linejoin="round" stroke-miterlimit="10" x1="91.097" y1="63.74" x2="104.228" y2="63.74"/>
   <path stroke-width="0.11" stroke-linejoin="round" stroke-miterlimit="10" fill="#FFFFFF" d="M106.173 67.411C104.141 67.411 102.501 65.769 102.501 63.74 102.501 61.752 104.141 60.11 106.173 60.11 108.203 60.11 109.843 61.753 109.843 63.74 109.843 65.769 108.203 67.411 106.173 67.411L106.173 67.411z"/>
  </g>
 </g>
 <g id="120mm_x0020_hidden_x0020_Schneider_x0020_layer_x0020_for_x0020_editor">
  <polygon stroke="none" points="0 148.112 0 157.112 120 157.112 120 148.112 0 148.112"/>
 </g>
 <g id="cutout_x0020_layer">
 </g>
 <g id="outline_x0020_layer">
 </g>
 <g id="zoom_x0020_layer">
 </g>
 <g id="arrow_x0020_layer">
 </g>
 <g id="_x0020_cable_x0020_layer">
 </g>
 <g id="symbol_x0020_layer">
 </g>
 <g id="_x0020_text_x0020_layer">
  <g>
   <text x="1.358" y="2.117" stroke="none" fill="#000000" font-family="'Arial'" font-size="3.314">Fan supply (ELV 15/24V) </text>
   <text x="1.358" y="5.644" stroke="none" fill="#000000" font-family="'Arial'" font-size="3.314">from the power supply unit</text>
   <text x="1.358" y="9.172" stroke="none" fill="#000000" font-family="'Arial'" font-size="3.314">of the power module</text>
  </g>
  <text x="45.146" y="7.102" stroke="none" fill="#000000" font-family="'Arial'" font-size="3.314">Fan speed control to controller box</text>
  <g>
   <text x="10.896" y="122.614" stroke="none" fill="#000000" font-family="'Arial'" font-size="3.314">Fan module for </text>
   <text x="10.896" y="126.143" stroke="none" fill="#000000" font-family="'Arial'" font-size="3.314">one power block</text>
   <text x="10.896" y="129.67" stroke="none" fill="#000000" font-family="'Arial'" font-size="3.314">E101 </text>
  </g>
  <text transform="matrix(0 -1 1 0 4.698 76.221)" stroke="none" fill="#000000" font-family="'Arial'" font-size="3.314">Power module 1</text>
  <text transform="matrix(0 -1 1 0 13.106 65.947)" stroke="none" fill="#000000" font-family="'Arial'" font-size="3.314">M1</text>
  <text transform="matrix(0 -1 1 0 13.106 82.442)" stroke="none" fill="#000000" font-family="'Arial'" font-size="3.314">M2</text>
  <text transform="matrix(0 -1 1 0 13.106 99.108)" stroke="none" fill="#000000" font-family="'Arial'" font-size="3.314">M3</text>
  <text transform="matrix(0 -1 1 0 47.176 125.944)" stroke="none" fill="#000000" font-family="'Arial'" font-size="2.146">RED</text>
  <text transform="matrix(0 -1 1 0 52.668 126.631)" stroke="none" fill="#000000" font-family="'Arial'" font-size="2.146">BLACK</text>
  <text transform="matrix(0 -1 1 0 59.079 90.45)" stroke="none" fill="#000000" font-family="'Arial'" font-size="3.314">Fan monitoring board</text>
  <text x="58.165" y="126.515" stroke="none" fill="#000000" font-family="'Arial'" font-size="2.146">RED</text>
  <text x="57.798" y="122.805" stroke="none" fill="#000000" font-family="'Arial'" font-size="2.146">BLACK</text>
  <text x="18.911" y="90.841" stroke="none" fill="#000000" font-family="'Arial'" font-size="2.146">RED</text>
  <text x="18.911" y="96.295" stroke="none" fill="#000000" font-family="'Arial'" font-size="2.146">WHITE</text>
  <text x="18.911" y="101.831" stroke="none" fill="#000000" font-family="'Arial'" font-size="2.146">BLUE</text>
  <g>
   <text x="18.911" y="74.26" stroke="none" fill="#000000" font-family="'Arial'" font-size="2.146">RED</text>
   <text x="18.911" y="79.713" stroke="none" fill="#000000" font-family="'Arial'" font-size="2.146">WHITE</text>
   <text x="18.911" y="85.25" stroke="none" fill="#000000" font-family="'Arial'" font-size="2.146">BLUE</text>
  </g>
  <g>
   <text x="18.911" y="57.579" stroke="none" fill="#000000" font-family="'Arial'" font-size="2.146">RED</text>
   <text x="18.911" y="63.033" stroke="none" fill="#000000" font-family="'Arial'" font-size="2.146">WHITE</text>
   <text x="18.911" y="68.569" stroke="none" fill="#000000" font-family="'Arial'" font-size="2.146">BLUE</text>
  </g>
  <text x="19.719" y="46.365" stroke="none" fill="#000000" font-family="'Arial'" font-size="2.146">RED</text>
  <text x="19.719" y="51.984" stroke="none" fill="#000000" font-family="'Arial'" font-size="2.146">BLACK</text>
  <text transform="matrix(0 -1 1 0 49.676 30.545)" stroke="none" fill="#000000" font-family="'Arial'" font-size="2.146">RED</text>
  <text transform="matrix(0 -1 1 0 64.236 31.123)" stroke="none" fill="#000000" font-family="'Arial'" font-size="2.146">BLACK</text>
  <text transform="matrix(0 -1 1 0 49.337 21.565)" stroke="none" fill="#000000" font-family="'Arial'" font-size="2.146">(red)</text>
  <text transform="matrix(0 -1 1 0 63.896 22.143)" stroke="none" fill="#000000" font-family="'Arial'" font-size="2.146">(black)</text>
  <text transform="matrix(0 -1 1 0 11.103 20.001)" stroke="none" fill="#000000" font-family="'Arial'" font-size="2.146">(red)</text>
  <text transform="matrix(0 -1 1 0 18.856 20.001)" stroke="none" fill="#000000" font-family="'Arial'" font-size="2.146">(black)</text>
  <text x="53.179" y="48.088" stroke="none" fill="#000000" font-family="'Arial'" font-size="2.65">SENSE</text>
  <text x="29.437" y="153.418" stroke="none" fill="#000000" font-family="'Arial'" font-size="3.314">To fan supply E701 T001/T4001</text>
  <text transform="matrix(0 -1 1 0 107.106 65.947)" stroke="none" fill="#000000" font-family="'Arial'" font-size="3.314">M4</text>
  <text transform="matrix(0 -1 1 0 107.106 82.442)" stroke="none" fill="#000000" font-family="'Arial'" font-size="3.314">M5</text>
  <text transform="matrix(0 -1 1 0 107.106 99.108)" stroke="none" fill="#000000" font-family="'Arial'" font-size="3.314">M6</text>
  <text x="93.412" y="90.841" stroke="none" fill="#000000" font-family="'Arial'" font-size="2.146">RED</text>
  <text x="93.412" y="96.295" stroke="none" fill="#000000" font-family="'Arial'" font-size="2.146">WHITE</text>
  <text x="93.412" y="101.831" stroke="none" fill="#000000" font-family="'Arial'" font-size="2.146">BLUE</text>
  <g>
   <text x="93.412" y="74.26" stroke="none" fill="#000000" font-family="'Arial'" font-size="2.146">RED</text>
   <text x="93.412" y="79.713" stroke="none" fill="#000000" font-family="'Arial'" font-size="2.146">WHITE</text>
   <text x="93.412" y="85.25" stroke="none" fill="#000000" font-family="'Arial'" font-size="2.146">BLUE</text>
  </g>
  <g>
   <text x="93.412" y="57.579" stroke="none" fill="#000000" font-family="'Arial'" font-size="2.146">RED</text>
   <text x="93.412" y="63.033" stroke="none" fill="#000000" font-family="'Arial'" font-size="2.146">WHITE</text>
   <text x="93.412" y="68.569" stroke="none" fill="#000000" font-family="'Arial'" font-size="2.146">BLUE</text>
  </g>
 </g>
 <g id="text-_x0020_DO_x0020_NOT_x0020_translate">
  <text transform="matrix(0 -1 1 0 51.262 45.243)" stroke="none" fill="#000000" font-family="'Arial'" font-size="2.65">J1000:1</text>
  <text transform="matrix(0 -1 1 0 58.533 45.243)" stroke="none" fill="#000000" font-family="'Arial'" font-size="2.65">J1000:2</text>
  <text transform="matrix(0 -1 1 0 65.879 45.243)" stroke="none" fill="#000000" font-family="'Arial'" font-size="2.65">J1000:3</text>
  <text transform="matrix(0 -1 1 0 67.234 113.486)" stroke="none" fill="#000000" font-family="'Arial'" font-size="2.65">J1004:1  +15/24</text>
  <text transform="matrix(0 -1 1 0 73.382 113.486)" stroke="none" fill="#000000" font-family="'Arial'" font-size="2.65">J1004:2  -15/24</text>
  <text transform="matrix(0 -1 1 0 54.305 113.486)" stroke="none" fill="#000000" font-family="'Arial'" font-size="2.65">J1002:2  -15/24</text>
  <text transform="matrix(0 -1 1 0 49.012 113.486)" stroke="none" fill="#000000" font-family="'Arial'" font-size="2.65">J1002:1  +15/24</text>
  <text x="39.084" y="134.04" stroke="none" fill="#000000" font-family="'Arial'" font-size="2.222">J2.1</text>
  <text x="57.789" y="134.04" stroke="none" fill="#000000" font-family="'Arial'" font-size="2.222">J2.2</text>
  <text x="45.445" y="132.34" stroke="none" fill="#000000" font-family="'Arial'" font-size="2.222">1</text>
  <text x="45.445" y="135.366" stroke="none" fill="#000000" font-family="'Arial'" font-size="2.222">1</text>
  <text x="50.875" y="132.34" stroke="none" fill="#000000" font-family="'Arial'" font-size="2.222">2</text>
  <text x="50.875" y="135.366" stroke="none" fill="#000000" font-family="'Arial'" font-size="2.222">2</text>
  <text x="64.224" y="132.34" stroke="none" fill="#000000" font-family="'Arial'" font-size="2.222">1</text>
  <text x="64.224" y="135.366" stroke="none" fill="#000000" font-family="'Arial'" font-size="2.222">1</text>
  <text x="69.668" y="132.34" stroke="none" fill="#000000" font-family="'Arial'" font-size="2.222">2</text>
  <text x="69.668" y="135.366" stroke="none" fill="#000000" font-family="'Arial'" font-size="2.222">2</text>
  <text x="31.242" y="48.088" stroke="none" fill="#000000" font-family="'Arial'" font-size="2.65">J1001:1  +15/24</text>
  <text x="68.141" y="47.607" stroke="none" fill="#000000" font-family="'Arial'" font-size="2.65">+15/24 J1003:1</text>
  <text x="31.242" y="53.703" stroke="none" fill="#000000" font-family="'Arial'" font-size="2.65">J1001:2  -15/24</text>
  <text x="68.807" y="52.901" stroke="none" fill="#000000" font-family="'Arial'" font-size="2.65">-15/24 J1003:2</text>
  <text x="31.242" y="59.317" stroke="none" fill="#000000" font-family="'Arial'" font-size="2.65">J1005:+</text>
  <text x="76.986" y="58.996" stroke="none" fill="#000000" font-family="'Arial'" font-size="2.65">J1010:+</text>
  <text x="31.242" y="64.93" stroke="none" fill="#000000" font-family="'Arial'" font-size="2.65">J1007:3</text>
  <text x="77.061" y="64.769" stroke="none" fill="#000000" font-family="'Arial'" font-size="2.65">J1009:3</text>
  <text x="31.242" y="70.382" stroke="none" fill="#000000" font-family="'Arial'" font-size="2.65">J1006:-</text>
  <text x="77.652" y="70.222" stroke="none" fill="#000000" font-family="'Arial'" font-size="2.65">J1008:-</text>
  <text x="31.242" y="75.996" stroke="none" fill="#000000" font-family="'Arial'" font-size="2.65">J1005:+</text>
  <text x="76.986" y="75.835" stroke="none" fill="#000000" font-family="'Arial'" font-size="2.65">J1010:+</text>
  <text x="31.242" y="81.45" stroke="none" fill="#000000" font-family="'Arial'" font-size="2.65">J1007:2</text>
  <text x="77.061" y="81.29" stroke="none" fill="#000000" font-family="'Arial'" font-size="2.65">J1009:2</text>
  <text x="31.242" y="86.903" stroke="none" fill="#000000" font-family="'Arial'" font-size="2.65">J1006:-</text>
  <text x="77.652" y="86.742" stroke="none" fill="#000000" font-family="'Arial'" font-size="2.65">J1008:-</text>
  <text x="31.242" y="92.516" stroke="none" fill="#000000" font-family="'Arial'" font-size="2.65">J1005:+</text>
  <text x="76.986" y="92.355" stroke="none" fill="#000000" font-family="'Arial'" font-size="2.65">J1010:+</text>
  <text x="31.242" y="98.29" stroke="none" fill="#000000" font-family="'Arial'" font-size="2.65">J1007:1</text>
  <text x="77.061" y="97.81" stroke="none" fill="#000000" font-family="'Arial'" font-size="2.65">J1009:1</text>
  <text x="31.242" y="103.584" stroke="none" fill="#000000" font-family="'Arial'" font-size="2.65">J1006:-</text>
  <text x="77.652" y="103.423" stroke="none" fill="#000000" font-family="'Arial'" font-size="2.65">J1008:-</text>
 </g>
 <g id="_x0020_callout_x0020_layer">
 </g>
</svg>
