<?xml version="1.0" encoding="UTF-8"?>
<!-- Generator: PTC Arbortext IsoDraw 7.4 M001 -->
<svg xmlns="http://www.w3.org/2000/svg" xmlns:xlink="http://www.w3.org/1999/xlink" width="120mm" height="16.763mm" viewBox="0 0 120 16.763" fill-rule="evenodd" clip-rule="evenodd" stroke="#000000" stroke-linecap="round" fill="none" xml:space="preserve" preserveAspectRatio="xMidYMid meet" zoomAndPan="magnify" version="1.1" contentScriptType="text/ecmascript" contentStyleType="text/css">
 <g id="_x0020_fill_x0020_layer">
 </g>
 <g id="Standard_x0020_layer">
  <g>
   <g>
    <path stroke-width="0.106" d="M56.201 10.102C56.201 7.878 54.396 6.075 52.171 6.075C49.948 6.075 48.143 7.878 48.143 10.102C48.143 12.327 49.948 14.131 52.171 14.131C54.396 14.131 56.201 12.327 56.201 10.102"/>
   </g>
   <path stroke-width="0.106" fill="#00FF00" d="M54.39 10.102C54.39 8.878 53.396 7.884 52.171 7.884 50.948 7.884 49.954 8.878 49.954 10.102 49.954 11.327 50.948 12.32 52.171 12.32 53.396 12.32 54.39 11.327 54.39 10.102 54.39 10.102 54.39 10.102 54.39 10.102L54.39 10.102z"/>
  </g>
  <g>
   <g>
    <path stroke-width="0.106" d="M41.597 10.102C41.597 7.878 39.793 6.075 37.569 6.075C35.344 6.075 33.54 7.878 33.54 10.102C33.54 12.327 35.344 14.131 37.569 14.131C39.793 14.131 41.597 12.327 41.597 10.102"/>
   </g>
   <path stroke-width="0.106" fill="#FFE500" d="M39.786 10.102C39.786 8.878 38.793 7.884 37.569 7.884 36.344 7.884 35.351 8.878 35.351 10.102 35.351 11.327 36.344 12.32 37.569 12.32 38.793 12.32 39.786 11.327 39.786 10.102 39.786 10.102 39.786 10.102 39.786 10.102L39.786 10.102z"/>
  </g>
  <g>
   <g>
    <path stroke-width="0.106" d="M26.955 10.102C26.955 7.878 25.152 6.075 22.926 6.075C20.702 6.075 18.899 7.878 18.899 10.102C18.899 12.327 20.702 14.131 22.926 14.131C25.152 14.131 26.955 12.327 26.955 10.102"/>
   </g>
   <path stroke-width="0.106" fill="#FFE500" d="M25.144 10.102C25.144 8.878 24.152 7.884 22.926 7.884 21.702 7.884 20.71 8.878 20.71 10.102 20.71 11.327 21.702 12.32 22.926 12.32 24.152 12.32 25.144 11.327 25.144 10.102 25.144 10.102 25.144 10.102 25.144 10.102L25.144 10.102z"/>
  </g>
  <g>
   <g>
    <path stroke-width="0.106" d="M12.403 10.102C12.403 7.878 10.599 6.075 8.375 6.075C6.15 6.075 4.346 7.878 4.346 10.102C4.346 12.327 6.15 14.131 8.375 14.131C10.599 14.131 12.403 12.327 12.403 10.102"/>
   </g>
   <path stroke-width="0.106" fill="#FFE500" d="M10.593 10.102C10.593 8.878 9.599 7.884 8.375 7.884 7.15 7.884 6.158 8.878 6.158 10.102 6.158 11.327 7.15 12.32 8.375 12.32 9.599 12.32 10.593 11.327 10.593 10.102 10.593 10.102 10.593 10.102 10.593 10.102L10.593 10.102z"/>
  </g>
  <line stroke-width="0.106" x1="59.304" y1="15.82" x2="59.304" y2="4.15"/>
  <line stroke-width="0.106" x1="0.967" y1="4.15" x2="59.304" y2="4.15"/>
  <line stroke-width="0.106" x1="0.967" y1="16.55" x2="0.967" y2="4.15"/>
  <path stroke-width="0.106" d="M59.304 15.82L58.573 16.55L0.967 16.55"/>
 </g>
 <g id="120mm_x0020_hidden_x0020_Schneider_x0020_layer_x0020_for_x0020_editor">
  <polygon stroke="none" points="0 7.764 0 16.763 120 16.763 120 7.764 0 7.764"/>
 </g>
 <g id="cutout_x0020_layer">
 </g>
 <g id="outline_x0020_layer">
 </g>
 <g id="zoom_x0020_layer">
 </g>
 <g id="outline_x0020_on_x0020_zoom_x0020_layer">
 </g>
 <g id="arrow_x0020_layer">
 </g>
 <g id="_x0020_cable_x0020_layer">
 </g>
 <g id="symbol_x0020_layer">
 </g>
 <g id="text_x0020_layer">
 </g>
 <g id="text-_x0020_DO_x0020_NOT_x0020_translate">
  <text x="6.982" y="3.174" stroke="none" fill="#000000" font-family="'Arial'" font-size="4.232">4</text>
  <text x="21.864" y="3.174" stroke="none" fill="#000000" font-family="'Arial'" font-size="4.232">3</text>
  <text x="36.25" y="3.174" stroke="none" fill="#000000" font-family="'Arial'" font-size="4.232">2</text>
  <text x="50.923" y="3.174" stroke="none" fill="#000000" font-family="'Arial'" font-size="4.232">1</text>
 </g>
 <g id="callout_x0020_layer">
 </g>
</svg>
