<?xml version="1.0" encoding="UTF-8"?>
<!-- Generator: PTC Arbortext IsoDraw 7.4 M001 -->
<svg xmlns="http://www.w3.org/2000/svg" xmlns:xlink="http://www.w3.org/1999/xlink" width="120mm" height="61.087mm" viewBox="0 0 120 61.087" fill-rule="evenodd" clip-rule="evenodd" stroke="#000000" stroke-linecap="round" fill="none" xml:space="preserve" preserveAspectRatio="xMidYMid meet" zoomAndPan="magnify" version="1.1" contentScriptType="text/ecmascript" contentStyleType="text/css">
 <g id="Standard_x0020_layer">
  <line stroke-width="0.106" x1="12.118" y1="6.485" x2="12.118" y2="6.485"/>
  <line stroke-width="0.106" x1="19.263" y1="0.053" x2="19.263" y2="0.053"/>
  <polygon stroke-width="0.2" points="37.74 23.51 81.605 23.51 81.605 33.576 37.74 33.576 37.74 23.51"/>
  <g>
   <g>
    <path stroke-width="0.134" stroke-linejoin="round" stroke-miterlimit="10" d="M41.159 37.246C41.159 36.613 40.667 36.156 40.07 36.156C39.472 36.156 38.981 36.613 38.981 37.246C38.981 37.844 39.472 38.335 40.07 38.335C40.667 38.335 41.159 37.844 41.159 37.246L41.159 37.246z"/>
    <path stroke-width="0.134" stroke-linejoin="round" stroke-miterlimit="10" d="M54.307 37.246C54.307 36.613 53.816 36.156 53.218 36.156C52.621 36.156 52.128 36.613 52.128 37.246C52.128 37.844 52.621 38.335 53.218 38.335C53.816 38.335 54.307 37.844 54.307 37.246L54.307 37.246z"/>
   </g>
   <g>
    <path stroke-width="0.134" stroke-linejoin="round" stroke-miterlimit="10" d="M67.046 37.246C67.046 36.613 66.554 36.156 65.956 36.156C65.358 36.156 64.867 36.613 64.867 37.246C64.867 37.844 65.358 38.335 65.956 38.335C66.554 38.335 67.046 37.844 67.046 37.246L67.046 37.246z"/>
    <path stroke-width="0.134" stroke-linejoin="round" stroke-miterlimit="10" d="M80.194 37.246C80.194 36.613 79.701 36.156 79.103 36.156C78.507 36.156 78.015 36.613 78.015 37.246C78.015 37.844 78.507 38.335 79.103 38.335C79.701 38.335 80.194 37.844 80.194 37.246L80.194 37.246z"/>
   </g>
  </g>
  <g>
   <g>
    <path stroke-width="0.134" stroke-linejoin="round" stroke-miterlimit="10" d="M41.159 20.047C41.159 19.414 40.667 18.957 40.07 18.957C39.472 18.957 38.981 19.414 38.981 20.047C38.981 20.644 39.472 21.137 40.07 21.137C40.667 21.137 41.159 20.644 41.159 20.047L41.159 20.047z"/>
    <path stroke-width="0.134" stroke-linejoin="round" stroke-miterlimit="10" d="M54.307 20.047C54.307 19.414 53.816 18.957 53.218 18.957C52.621 18.957 52.128 19.414 52.128 20.047C52.128 20.644 52.621 21.137 53.218 21.137C53.816 21.137 54.307 20.644 54.307 20.047L54.307 20.047z"/>
   </g>
   <g>
    <path stroke-width="0.134" stroke-linejoin="round" stroke-miterlimit="10" d="M67.046 20.047C67.046 19.414 66.554 18.957 65.956 18.957C65.358 18.957 64.867 19.414 64.867 20.047C64.867 20.644 65.358 21.137 65.956 21.137C66.554 21.137 67.046 20.644 67.046 20.047L67.046 20.047z"/>
    <path stroke-width="0.134" stroke-linejoin="round" stroke-miterlimit="10" d="M80.194 20.047C80.194 19.414 79.701 18.957 79.103 18.957C78.507 18.957 78.015 19.414 78.015 20.047C78.015 20.644 78.507 21.137 79.103 21.137C79.701 21.137 80.194 20.644 80.194 20.047L80.194 20.047z"/>
   </g>
  </g>
  <g>
   <line stroke-width="0.2" x1="17.065" y1="50.645" x2="101.936" y2="50.645"/>
   <polyline stroke-width="0.2" points="17.065 50.645 17.065 7.081 21.109 3.266 63.838 3.266"/>
   <polyline stroke-width="0.2" points="101.936 50.645 101.936 7.081 97.891 3.266 63.456 3.266"/>
  </g>
 </g>
 <g id="120mm_x0020_hidden_x0020_Schneider_x0020_layer_x0020_for_x0020_editor">
  <polygon stroke="none" points="0 52.087 0 61.087 120 61.087 120 52.087 0 52.087"/>
 </g>
 <g id="cutout_x0020_layer">
 </g>
 <g id="outline_x0020_layer">
 </g>
 <g id="zoom_x0020_layer">
 </g>
 <g id="arrow_x0020_layer">
 </g>
 <g id="_x0020_cable_x0020_layer">
 </g>
 <g id="symbol_x0020_layer">
 </g>
 <g id="_x0020_text_x0020_layer">
 </g>
 <g id="text-_x0020_DO_x0020_NOT_x0020_translate">
  <text x="83.766" y="29.954" stroke="none" fill="#000000" font-family="'Arial'" font-size="4.232">E401</text>
  <g>
   <text x="55.979" y="26.74" stroke="none" fill="#000000" font-family="'Arial'" font-size="2.468">FAN 1</text>
   <text x="54.265" y="29.562" stroke="none" fill="#000000" font-family="'Arial'" font-size="2.468">FAILURE</text>
   <text x="55.979" y="32.384" stroke="none" fill="#000000" font-family="'Arial'" font-size="2.468">FAN 4</text>
  </g>
  <g>
   <text x="69.2" y="26.74" stroke="none" fill="#000000" font-family="'Arial'" font-size="2.468">FAN 2</text>
   <text x="67.484" y="29.562" stroke="none" fill="#000000" font-family="'Arial'" font-size="2.468">FAILURE</text>
   <text x="69.2" y="32.384" stroke="none" fill="#000000" font-family="'Arial'" font-size="2.468">FAN 5</text>
  </g>
  <g>
   <text x="43.984" y="26.74" stroke="none" fill="#000000" font-family="'Arial'" font-size="2.468">OK</text>
   <text x="40.895" y="29.562" stroke="none" fill="#000000" font-family="'Arial'" font-size="2.468">SUPPLY</text>
   <text x="43.984" y="32.384" stroke="none" fill="#000000" font-family="'Arial'" font-size="2.468">OK</text>
  </g>
 </g>
 <g id="_x0020_callout_x0020_layer">
  <g>
   <g class="callout callout_1">
    <path stroke-width="0.106" fill="#000000" d="M37.395 14.442C37.395 15.823 38.515 16.943 39.895 16.943 41.276 16.943 42.395 15.823 42.395 14.442 42.395 13.063 41.276 11.942 39.895 11.942 38.515 11.942 37.395 13.063 37.395 14.442 37.395 14.442 37.395 14.442 37.395 14.442L37.395 14.442z"/>
    <text x="38.718" y="15.964" stroke="none" fill="#FFFFFF" font-family="'Arial'" font-size="4.232">1</text>
<desc>1</desc>   </g>
   <g class="callout callout_2">
    <path stroke-width="0.106" fill="#000000" d="M50.615 14.442C50.615 15.823 51.734 16.943 53.115 16.943 54.496 16.943 55.615 15.823 55.615 14.442 55.615 13.063 54.496 11.942 53.115 11.942 51.734 11.942 50.615 13.063 50.615 14.442 50.615 14.442 50.615 14.442 50.615 14.442L50.615 14.442z"/>
    <text x="51.938" y="15.964" stroke="none" fill="#FFFFFF" font-family="'Arial'" font-size="4.232">2</text>
<desc>2</desc>   </g>
   <g class="callout callout_3">
    <path stroke-width="0.106" fill="#000000" d="M63.459 14.416C63.459 15.797 64.578 16.917 65.959 16.917 67.34 16.917 68.459 15.797 68.459 14.416 68.459 13.035 67.34 11.916 65.959 11.916 64.578 11.916 63.459 13.035 63.459 14.416 63.459 14.416 63.459 14.416 63.459 14.416L63.459 14.416z"/>
    <text x="64.781" y="15.964" stroke="none" fill="#FFFFFF" font-family="'Arial'" font-size="4.232">3</text>
<desc>3</desc>   </g>
   <g class="callout callout_4">
    <path stroke-width="0.106" fill="#000000" d="M76.528 14.449C76.528 15.83 77.647 16.949 79.028 16.949 80.409 16.949 81.528 15.83 81.528 14.449 81.528 13.069 80.409 11.949 79.028 11.949 77.647 11.949 76.528 13.069 76.528 14.449 76.528 14.449 76.528 14.449 76.528 14.449L76.528 14.449z"/>
    <text x="77.85" y="15.964" stroke="none" fill="#FFFFFF" font-family="'Arial'" font-size="4.232">4</text>
<desc>4</desc>   </g>
   <g class="callout callout_5">
    <path stroke-width="0.106" fill="#000000" d="M37.395 42.058C37.395 43.439 38.515 44.558 39.895 44.558 41.276 44.558 42.395 43.439 42.395 42.058 42.395 40.677 41.276 39.558 39.895 39.558 38.515 39.558 37.395 40.677 37.395 42.058 37.395 42.058 37.395 42.058 37.395 42.058L37.395 42.058z"/>
    <text x="38.718" y="43.579" stroke="none" fill="#FFFFFF" font-family="'Arial'" font-size="4.232">5</text>
<desc>5</desc>   </g>
   <g class="callout callout_6">
    <path stroke-width="0.106" fill="#000000" d="M50.615 42.058C50.615 43.439 51.734 44.558 53.115 44.558 54.496 44.558 55.615 43.439 55.615 42.058 55.615 40.677 54.496 39.558 53.115 39.558 51.734 39.558 50.615 40.677 50.615 42.058 50.615 42.058 50.615 42.058 50.615 42.058L50.615 42.058z"/>
    <text x="51.938" y="43.606" stroke="none" fill="#FFFFFF" font-family="'Arial'" font-size="4.232">6</text>
<desc>6</desc>   </g>
   <g class="callout callout_7">
    <path stroke-width="0.106" fill="#000000" d="M63.459 42.058C63.459 43.439 64.578 44.558 65.959 44.558 67.34 44.558 68.459 43.439 68.459 42.058 68.459 40.677 67.34 39.558 65.959 39.558 64.578 39.558 63.459 40.677 63.459 42.058 63.459 42.058 63.459 42.058 63.459 42.058L63.459 42.058z"/>
    <text x="64.781" y="43.554" stroke="none" fill="#FFFFFF" font-family="'Arial'" font-size="4.232">7</text>
<desc>7</desc>   </g>
   <g class="callout callout_8">
    <path stroke-width="0.106" fill="#000000" d="M76.528 42.058C76.528 43.439 77.647 44.558 79.028 44.558 80.409 44.558 81.528 43.439 81.528 42.058 81.528 40.677 80.409 39.558 79.028 39.558 77.647 39.558 76.528 40.677 76.528 42.058 76.528 42.058 76.528 42.058 76.528 42.058L76.528 42.058z"/>
    <text x="77.85" y="43.606" stroke="none" fill="#FFFFFF" font-family="'Arial'" font-size="4.232">8</text>
<desc>8</desc>   </g>
  </g>
 </g>
  <path id="AUTOID_7054" class="hotspot hotspot_6" fill="black" stroke="black" visibility="hidden" pointer-events="all" d="M50.615 42.058C50.615 43.439 51.734 44.558 53.115 44.558C54.496 44.558 55.615 43.439 55.615 42.058C55.615 40.677 54.496 39.558 53.115 39.558C51.734 39.558 50.615 40.677 50.615 42.058"/>
  <path id="AUTOID_7055" class="hotspot hotspot_1" fill="black" stroke="black" visibility="hidden" pointer-events="all" d="M37.395 14.442C37.395 15.823 38.515 16.943 39.895 16.943C41.276 16.943 42.395 15.823 42.395 14.442C42.395 13.063 41.276 11.942 39.895 11.942C38.515 11.942 37.395 13.063 37.395 14.442"/>
  <path id="AUTOID_7056" class="hotspot hotspot_8" fill="black" stroke="black" visibility="hidden" pointer-events="all" d="M76.528 42.058C76.528 43.439 77.647 44.558 79.028 44.558C80.409 44.558 81.528 43.439 81.528 42.058C81.528 40.677 80.409 39.558 79.028 39.558C77.647 39.558 76.528 40.677 76.528 42.058"/>
  <path id="AUTOID_7057" class="hotspot hotspot_7" fill="black" stroke="black" visibility="hidden" pointer-events="all" d="M63.459 42.058C63.459 43.439 64.578 44.558 65.959 44.558C67.34 44.558 68.459 43.439 68.459 42.058C68.459 40.677 67.34 39.558 65.959 39.558C64.578 39.558 63.459 40.677 63.459 42.058"/>
  <path id="AUTOID_7058" class="hotspot hotspot_2" fill="black" stroke="black" visibility="hidden" pointer-events="all" d="M50.615 14.442C50.615 15.823 51.734 16.943 53.115 16.943C54.496 16.943 55.615 15.823 55.615 14.442C55.615 13.063 54.496 11.942 53.115 11.942C51.734 11.942 50.615 13.063 50.615 14.442"/>
  <path id="AUTOID_7059" class="hotspot hotspot_5" fill="black" stroke="black" visibility="hidden" pointer-events="all" d="M37.395 42.058C37.395 43.439 38.515 44.558 39.895 44.558C41.276 44.558 42.395 43.439 42.395 42.058C42.395 40.677 41.276 39.558 39.895 39.558C38.515 39.558 37.395 40.677 37.395 42.058"/>
  <path id="AUTOID_7060" class="hotspot hotspot_4" fill="black" stroke="black" visibility="hidden" pointer-events="all" d="M76.528 14.449C76.528 15.83 77.647 16.949 79.028 16.949C80.409 16.949 81.528 15.83 81.528 14.449C81.528 13.069 80.409 11.949 79.028 11.949C77.647 11.949 76.528 13.069 76.528 14.449"/>
  <path id="AUTOID_7061" class="hotspot hotspot_3" fill="black" stroke="black" visibility="hidden" pointer-events="all" d="M63.459 14.416C63.459 15.797 64.578 16.917 65.959 16.917C67.34 16.917 68.459 15.797 68.459 14.416C68.459 13.035 67.34 11.916 65.959 11.916C64.578 11.916 63.459 13.035 63.459 14.416"/>
</svg>
