<?xml version="1.0" encoding="UTF-8"?>
<!-- Generator: PTC Arbortext IsoDraw 7.4 M001 -->
<svg xmlns="http://www.w3.org/2000/svg" xmlns:xlink="http://www.w3.org/1999/xlink" width="120mm" height="159.832mm" viewBox="0 0 120 159.832" fill-rule="evenodd" clip-rule="evenodd" stroke="#000000" stroke-linecap="round" fill="none" xml:space="preserve" preserveAspectRatio="xMidYMid meet" zoomAndPan="magnify" version="1.1" contentScriptType="text/ecmascript" contentStyleType="text/css">
 <g id="Standard_x0020_layer">
  <polygon stroke-width="0.11" stroke-linejoin="round" stroke-miterlimit="10" points="1.468 135.699 118.483 135.699 118.483 26.121 1.468 26.121 1.468 135.699"/>
  <path stroke="none" fill="#FFFFFF" d="M27.17 121.878L91.055 121.878 91.055 34.323 27.17 34.323 27.17 121.878z"/>
  <polygon stroke-width="0.11" stroke-linejoin="round" stroke-miterlimit="10" points="27.17 121.878 91.055 121.878 91.055 34.323 27.17 34.323 27.17 121.878"/>
  <line stroke-width="0.037" stroke-linejoin="round" stroke-miterlimit="10" x1="50.451" y1="121.878" x2="50.451" y2="121.618"/>
  <line stroke-width="0.037" stroke-linejoin="round" stroke-miterlimit="10" x1="44.837" y1="121.878" x2="44.837" y2="121.618"/>
  <line stroke-width="0.037" stroke-linejoin="round" stroke-miterlimit="10" x1="56.024" y1="121.878" x2="56.024" y2="121.618"/>
  <line stroke-width="0.037" stroke-linejoin="round" stroke-miterlimit="10" x1="50.451" y1="121.878" x2="50.451" y2="121.618"/>
  <line stroke-width="0.11" stroke-linejoin="round" stroke-miterlimit="10" x1="50.279" y1="37.777" x2="50.279" y2="34.451"/>
  <path stroke="none" fill="#000000" d="M50.279 37.13C50.625 37.13 50.926 37.432 50.926 37.777 50.926 38.124 50.625 38.383 50.279 38.383 49.933 38.383 49.673 38.124 49.673 37.777 49.673 37.432 49.933 37.13 50.279 37.13z"/>
  <path stroke-width="0.037" stroke-linejoin="round" stroke-miterlimit="10" d="M46.607 34.365L53.951 34.365L46.607 34.365L46.607 34.365z"/>
  <line stroke-width="0.037" stroke-linejoin="round" stroke-miterlimit="10" x1="53.951" y1="34.365" x2="53.951" y2="34.625"/>
  <line stroke-width="0.037" stroke-linejoin="round" stroke-miterlimit="10" x1="46.607" y1="34.365" x2="46.607" y2="34.625"/>
  <line stroke-width="0.11" stroke-linejoin="round" stroke-miterlimit="10" x1="57.621" y1="37.777" x2="57.621" y2="34.451"/>
  <path stroke="none" fill="#000000" d="M57.621 37.13C57.968 37.13 58.27 37.432 58.27 37.777 58.27 38.124 57.968 38.383 57.621 38.383 57.277 38.383 57.017 38.124 57.017 37.777 57.017 37.432 57.277 37.13 57.621 37.13z"/>
  <path stroke-width="0.037" stroke-linejoin="round" stroke-miterlimit="10" d="M53.951 34.365L61.293 34.365L53.951 34.365L53.951 34.365z"/>
  <line stroke-width="0.037" stroke-linejoin="round" stroke-miterlimit="10" x1="61.293" y1="34.365" x2="61.293" y2="34.625"/>
  <line stroke-width="0.037" stroke-linejoin="round" stroke-miterlimit="10" x1="53.951" y1="34.365" x2="53.951" y2="34.625"/>
  <line stroke-width="0.11" stroke-linejoin="round" stroke-miterlimit="10" x1="65.007" y1="37.777" x2="65.007" y2="34.451"/>
  <path stroke="none" fill="#000000" d="M65.007 37.13C65.353 37.13 65.612 37.432 65.612 37.777 65.612 38.124 65.353 38.383 65.007 38.383 64.662 38.383 64.359 38.124 64.359 37.777 64.359 37.432 64.662 37.13 65.007 37.13z"/>
  <path stroke-width="0.037" stroke-linejoin="round" stroke-miterlimit="10" d="M61.337 34.365L68.68 34.365L61.337 34.365L61.337 34.365z"/>
  <line stroke-width="0.037" stroke-linejoin="round" stroke-miterlimit="10" x1="68.68" y1="34.365" x2="68.68" y2="34.625"/>
  <line stroke-width="0.037" stroke-linejoin="round" stroke-miterlimit="10" x1="61.337" y1="34.365" x2="61.337" y2="34.625"/>
  <line stroke-width="0.11" stroke-linejoin="round" stroke-miterlimit="10" x1="50.322" y1="34.884" x2="50.322" y2="12.077"/>
  <line stroke-width="0.11" stroke-linejoin="round" stroke-miterlimit="10" x1="48.465" y1="11.904" x2="52.136" y2="11.904"/>
  <line stroke-width="0.11" stroke-linejoin="round" stroke-miterlimit="10" x1="65.007" y1="34.71" x2="65.007" y2="11.904"/>
  <line stroke-width="0.11" stroke-linejoin="round" stroke-miterlimit="10" x1="63.151" y1="11.731" x2="66.822" y2="11.731"/>
  <line stroke-width="0.11" stroke-linejoin="round" stroke-miterlimit="10" x1="87.641" y1="49.182" x2="91.01" y2="49.182"/>
  <path stroke="none" fill="#000000" d="M88.29 49.182C88.29 49.527 88.031 49.786 87.641 49.786 87.296 49.786 87.037 49.527 87.037 49.182 87.037 48.835 87.296 48.533 87.641 48.533 88.031 48.533 88.29 48.835 88.29 49.182z"/>
  <path stroke-width="0.037" stroke-linejoin="round" stroke-miterlimit="10" d="M91.055 46.417L91.055 51.945L91.055 46.417L91.055 46.417z"/>
  <line stroke-width="0.037" stroke-linejoin="round" stroke-miterlimit="10" x1="91.055" y1="51.945" x2="90.838" y2="51.945"/>
  <line stroke-width="0.037" stroke-linejoin="round" stroke-miterlimit="10" x1="91.055" y1="46.417" x2="90.838" y2="46.417"/>
  <line stroke-width="0.11" stroke-linejoin="round" stroke-miterlimit="10" x1="87.641" y1="54.71" x2="91.01" y2="54.71"/>
  <path stroke="none" fill="#000000" d="M88.29 54.71C88.29 55.055 88.031 55.314 87.641 55.314 87.296 55.314 87.037 55.055 87.037 54.71 87.037 54.365 87.296 54.106 87.641 54.106 88.031 54.104 88.29 54.365 88.29 54.71z"/>
  <path stroke-width="0.037" stroke-linejoin="round" stroke-miterlimit="10" d="M91.055 51.945L91.055 57.475L91.055 51.945L91.055 51.945z"/>
  <line stroke-width="0.037" stroke-linejoin="round" stroke-miterlimit="10" x1="91.055" y1="57.475" x2="90.838" y2="57.475"/>
  <line stroke-width="0.037" stroke-linejoin="round" stroke-miterlimit="10" x1="91.055" y1="51.945" x2="90.838" y2="51.945"/>
  <line stroke-width="0.11" stroke-linejoin="round" stroke-miterlimit="10" x1="30.582" y1="49.786" x2="27.213" y2="49.786"/>
  <path stroke="none" fill="#000000" d="M29.934 49.786C29.934 50.131 30.236 50.433 30.582 50.433 30.928 50.433 31.187 50.131 31.187 49.786 31.187 49.439 30.928 49.18 30.582 49.18 30.236 49.18 29.934 49.441 29.934 49.786z"/>
  <path stroke-width="0.037" stroke-linejoin="round" stroke-miterlimit="10" d="M27.17 47.021L27.17 52.551L27.17 47.021L27.17 47.021z"/>
  <line stroke-width="0.037" stroke-linejoin="round" stroke-miterlimit="10" x1="27.17" y1="52.551" x2="27.385" y2="52.551"/>
  <line stroke-width="0.037" stroke-linejoin="round" stroke-miterlimit="10" x1="27.17" y1="47.021" x2="27.385" y2="47.021"/>
  <line stroke-width="0.11" stroke-linejoin="round" stroke-miterlimit="10" x1="30.582" y1="55.314" x2="27.213" y2="55.314"/>
  <path stroke="none" fill="#000000" d="M29.934 55.314C29.934 55.661 30.236 55.963 30.582 55.963 30.928 55.963 31.187 55.661 31.187 55.314 31.187 54.969 30.928 54.71 30.582 54.71 30.236 54.71 29.934 54.969 29.934 55.314z"/>
  <path stroke-width="0.037" stroke-linejoin="round" stroke-miterlimit="10" d="M27.17 52.551L27.17 58.122L27.17 52.551L27.17 52.551z"/>
  <line stroke-width="0.037" stroke-linejoin="round" stroke-miterlimit="10" x1="27.17" y1="58.122" x2="27.385" y2="58.122"/>
  <line stroke-width="0.037" stroke-linejoin="round" stroke-miterlimit="10" x1="27.17" y1="52.551" x2="27.385" y2="52.551"/>
  <line stroke-width="0.11" stroke-linejoin="round" stroke-miterlimit="10" x1="12.095" y1="34.884" x2="12.095" y2="12.077"/>
  <line stroke-width="0.11" stroke-linejoin="round" stroke-miterlimit="10" x1="10.281" y1="11.904" x2="13.952" y2="11.904"/>
  <line stroke-width="0.11" stroke-linejoin="round" stroke-miterlimit="10" x1="19.437" y1="34.71" x2="19.437" y2="11.904"/>
  <line stroke-width="0.11" stroke-linejoin="round" stroke-miterlimit="10" x1="17.623" y1="11.731" x2="21.295" y2="11.731"/>
  <polyline stroke-width="0.11" stroke-linejoin="round" stroke-miterlimit="10" points="12.095 34.71 12.095 49.656 30.452 49.786"/>
  <polyline stroke-width="0.11" stroke-linejoin="round" stroke-miterlimit="10" points="19.437 34.71 19.437 55.487 28.466 55.314"/>
  <line stroke-width="0.11" stroke-linejoin="round" stroke-miterlimit="10" x1="87.772" y1="60.929" x2="91.097" y2="60.929"/>
  <path stroke="none" fill="#000000" d="M88.376 60.929C88.376 61.276 88.117 61.534 87.772 61.534 87.426 61.534 87.123 61.276 87.123 60.929 87.123 60.585 87.426 60.281 87.772 60.281 88.117 60.281 88.376 60.585 88.376 60.929z"/>
  <path stroke-width="0.037" stroke-linejoin="round" stroke-miterlimit="10" d="M91.183 58.165L91.183 63.695L91.183 58.165L91.183 58.165z"/>
  <line stroke-width="0.037" stroke-linejoin="round" stroke-miterlimit="10" x1="91.183" y1="63.695" x2="90.924" y2="63.695"/>
  <line stroke-width="0.037" stroke-linejoin="round" stroke-miterlimit="10" x1="91.183" y1="58.165" x2="90.924" y2="58.165"/>
  <line stroke-width="0.11" stroke-linejoin="round" stroke-miterlimit="10" x1="87.772" y1="66.459" x2="91.097" y2="66.459"/>
  <path stroke="none" fill="#000000" d="M88.376 66.459C88.376 66.805 88.117 67.063 87.772 67.063 87.426 67.063 87.123 66.805 87.123 66.459 87.123 66.114 87.426 65.855 87.772 65.855 88.117 65.855 88.376 66.114 88.376 66.459z"/>
  <path stroke-width="0.037" stroke-linejoin="round" stroke-miterlimit="10" d="M91.183 63.695L91.183 69.224L91.183 63.695L91.183 63.695z"/>
  <line stroke-width="0.037" stroke-linejoin="round" stroke-miterlimit="10" x1="91.183" y1="69.222" x2="90.924" y2="69.222"/>
  <line stroke-width="0.037" stroke-linejoin="round" stroke-miterlimit="10" x1="91.183" y1="63.695" x2="90.924" y2="63.695"/>
  <line stroke-width="0.11" stroke-linejoin="round" stroke-miterlimit="10" x1="87.772" y1="71.987" x2="91.097" y2="71.987"/>
  <path stroke="none" fill="#000000" d="M88.376 71.987C88.376 72.334 88.117 72.635 87.772 72.635 87.426 72.635 87.123 72.334 87.123 71.987 87.123 71.643 87.426 71.382 87.772 71.382 88.117 71.382 88.376 71.643 88.376 71.987z"/>
  <path stroke-width="0.037" stroke-linejoin="round" stroke-miterlimit="10" d="M91.183 69.222L91.183 74.751L91.183 69.222L91.183 69.222z"/>
  <line stroke-width="0.037" stroke-linejoin="round" stroke-miterlimit="10" x1="91.183" y1="74.753" x2="90.924" y2="74.753"/>
  <line stroke-width="0.037" stroke-linejoin="round" stroke-miterlimit="10" x1="91.183" y1="69.222" x2="90.924" y2="69.222"/>
  <line stroke-width="0.11" stroke-linejoin="round" stroke-miterlimit="10" x1="87.772" y1="77.56" x2="91.097" y2="77.56"/>
  <path stroke="none" fill="#000000" d="M88.376 77.56C88.376 77.906 88.117 78.165 87.772 78.165 87.426 78.165 87.123 77.906 87.123 77.56 87.123 77.215 87.426 76.912 87.772 76.912 88.117 76.912 88.376 77.215 88.376 77.56z"/>
  <path stroke-width="0.037" stroke-linejoin="round" stroke-miterlimit="10" d="M91.183 74.753L91.183 80.325L91.183 74.753L91.183 74.753z"/>
  <line stroke-width="0.037" stroke-linejoin="round" stroke-miterlimit="10" x1="91.183" y1="80.325" x2="90.924" y2="80.325"/>
  <line stroke-width="0.037" stroke-linejoin="round" stroke-miterlimit="10" x1="91.183" y1="74.753" x2="90.924" y2="74.753"/>
  <line stroke-width="0.11" stroke-linejoin="round" stroke-miterlimit="10" x1="87.772" y1="83.088" x2="91.097" y2="83.088"/>
  <path stroke="none" fill="#000000" d="M88.376 83.088C88.376 83.435 88.117 83.694 87.772 83.694 87.426 83.694 87.123 83.435 87.123 83.088 87.123 82.743 87.426 82.441 87.772 82.441 88.117 82.441 88.376 82.743 88.376 83.088z"/>
  <path stroke-width="0.037" stroke-linejoin="round" stroke-miterlimit="10" d="M91.183 80.325L91.183 85.853L91.183 80.325L91.183 80.325z"/>
  <line stroke-width="0.037" stroke-linejoin="round" stroke-miterlimit="10" x1="91.183" y1="85.853" x2="90.924" y2="85.853"/>
  <line stroke-width="0.037" stroke-linejoin="round" stroke-miterlimit="10" x1="91.183" y1="80.325" x2="90.924" y2="80.325"/>
  <line stroke-width="0.11" stroke-linejoin="round" stroke-miterlimit="10" x1="87.772" y1="88.617" x2="91.097" y2="88.617"/>
  <path stroke="none" fill="#000000" d="M88.376 88.617C88.376 88.963 88.117 89.266 87.772 89.266 87.426 89.266 87.123 88.963 87.123 88.617 87.123 88.272 87.426 88.013 87.772 88.013 88.117 88.013 88.376 88.272 88.376 88.617z"/>
  <path stroke-width="0.037" stroke-linejoin="round" stroke-miterlimit="10" d="M91.183 85.853L91.183 91.382L91.183 85.853L91.183 85.853z"/>
  <line stroke-width="0.037" stroke-linejoin="round" stroke-miterlimit="10" x1="91.183" y1="91.382" x2="90.924" y2="91.382"/>
  <line stroke-width="0.037" stroke-linejoin="round" stroke-miterlimit="10" x1="91.183" y1="85.853" x2="90.924" y2="85.853"/>
  <line stroke-width="0.11" stroke-linejoin="round" stroke-miterlimit="10" x1="87.772" y1="94.147" x2="91.097" y2="94.147"/>
  <path stroke="none" fill="#000000" d="M88.376 94.147C88.376 94.492 88.117 94.795 87.772 94.795 87.426 94.795 87.123 94.492 87.123 94.147 87.123 93.801 87.426 93.542 87.772 93.542 88.117 93.542 88.376 93.801 88.376 94.147z"/>
  <path stroke-width="0.037" stroke-linejoin="round" stroke-miterlimit="10" d="M91.183 91.382L91.183 96.911L91.183 91.382L91.183 91.382z"/>
  <line stroke-width="0.037" stroke-linejoin="round" stroke-miterlimit="10" x1="91.183" y1="96.911" x2="90.924" y2="96.911"/>
  <line stroke-width="0.037" stroke-linejoin="round" stroke-miterlimit="10" x1="91.183" y1="91.382" x2="90.924" y2="91.382"/>
  <line stroke-width="0.11" stroke-linejoin="round" stroke-miterlimit="10" x1="87.772" y1="99.718" x2="91.097" y2="99.718"/>
  <path stroke="none" fill="#000000" d="M88.376 99.718C88.376 100.063 88.117 100.323 87.772 100.323 87.426 100.323 87.123 100.063 87.123 99.718 87.123 99.373 87.426 99.07 87.772 99.07 88.117 99.07 88.376 99.373 88.376 99.718z"/>
  <path stroke-width="0.037" stroke-linejoin="round" stroke-miterlimit="10" d="M91.183 96.911L91.183 102.483L91.183 96.911L91.183 96.911z"/>
  <line stroke-width="0.037" stroke-linejoin="round" stroke-miterlimit="10" x1="91.183" y1="102.483" x2="90.924" y2="102.483"/>
  <line stroke-width="0.037" stroke-linejoin="round" stroke-miterlimit="10" x1="91.183" y1="96.911" x2="90.924" y2="96.911"/>
  <line stroke-width="0.11" stroke-linejoin="round" stroke-miterlimit="10" x1="87.772" y1="105.248" x2="91.097" y2="105.248"/>
  <path stroke="none" fill="#000000" d="M88.376 105.248C88.376 105.593 88.117 105.852 87.772 105.852 87.426 105.852 87.123 105.593 87.123 105.248 87.123 104.902 87.426 104.599 87.772 104.599 88.117 104.599 88.376 104.902 88.376 105.248z"/>
  <path stroke-width="0.037" stroke-linejoin="round" stroke-miterlimit="10" d="M91.183 102.483L91.183 108.012L91.183 102.483L91.183 102.483z"/>
  <line stroke-width="0.037" stroke-linejoin="round" stroke-miterlimit="10" x1="91.183" y1="108.012" x2="90.924" y2="108.012"/>
  <line stroke-width="0.037" stroke-linejoin="round" stroke-miterlimit="10" x1="91.183" y1="102.483" x2="90.924" y2="102.483"/>
  <line stroke-width="0.11" stroke-linejoin="round" stroke-miterlimit="10" x1="30.582" y1="105.248" x2="27.213" y2="105.248"/>
  <path stroke="none" fill="#000000" d="M29.934 105.248C29.934 104.902 30.236 104.599 30.582 104.599 30.928 104.599 31.187 104.902 31.187 105.248 31.187 105.593 30.928 105.852 30.582 105.852 30.236 105.852 29.934 105.593 29.934 105.248z"/>
  <path stroke-width="0.037" stroke-linejoin="round" stroke-miterlimit="10" d="M27.17 108.012L27.17 102.483L27.17 108.012L27.17 108.012z"/>
  <line stroke-width="0.037" stroke-linejoin="round" stroke-miterlimit="10" x1="27.17" y1="102.483" x2="27.385" y2="102.483"/>
  <line stroke-width="0.037" stroke-linejoin="round" stroke-miterlimit="10" x1="27.17" y1="108.012" x2="27.385" y2="108.012"/>
  <line stroke-width="0.11" stroke-linejoin="round" stroke-miterlimit="10" x1="30.582" y1="99.718" x2="27.213" y2="99.718"/>
  <path stroke="none" fill="#000000" d="M29.934 99.718C29.934 99.373 30.236 99.07 30.582 99.07 30.928 99.07 31.187 99.373 31.187 99.718 31.187 100.063 30.928 100.323 30.582 100.323 30.236 100.323 29.934 100.063 29.934 99.718z"/>
  <path stroke-width="0.037" stroke-linejoin="round" stroke-miterlimit="10" d="M27.17 102.483L27.17 96.911L27.17 102.483L27.17 102.483z"/>
  <line stroke-width="0.037" stroke-linejoin="round" stroke-miterlimit="10" x1="27.17" y1="96.911" x2="27.385" y2="96.911"/>
  <line stroke-width="0.037" stroke-linejoin="round" stroke-miterlimit="10" x1="27.17" y1="102.483" x2="27.385" y2="102.483"/>
  <line stroke-width="0.11" stroke-linejoin="round" stroke-miterlimit="10" x1="30.582" y1="94.147" x2="27.213" y2="94.147"/>
  <path stroke="none" fill="#000000" d="M29.934 94.147C29.934 93.801 30.236 93.542 30.582 93.542 30.928 93.542 31.187 93.801 31.187 94.147 31.187 94.492 30.928 94.795 30.582 94.795 30.236 94.795 29.934 94.492 29.934 94.147z"/>
  <path stroke-width="0.037" stroke-linejoin="round" stroke-miterlimit="10" d="M27.17 96.911L27.17 91.382L27.17 96.911L27.17 96.911z"/>
  <line stroke-width="0.037" stroke-linejoin="round" stroke-miterlimit="10" x1="27.17" y1="91.382" x2="27.385" y2="91.382"/>
  <line stroke-width="0.037" stroke-linejoin="round" stroke-miterlimit="10" x1="27.17" y1="96.911" x2="27.385" y2="96.911"/>
  <line stroke-width="0.11" stroke-linejoin="round" stroke-miterlimit="10" x1="30.582" y1="88.617" x2="27.213" y2="88.617"/>
  <path stroke="none" fill="#000000" d="M29.934 88.617C29.934 88.272 30.236 88.013 30.582 88.013 30.928 88.013 31.187 88.272 31.187 88.617 31.187 88.963 30.928 89.266 30.582 89.266 30.236 89.266 29.934 88.963 29.934 88.617z"/>
  <path stroke-width="0.037" stroke-linejoin="round" stroke-miterlimit="10" d="M27.17 91.382L27.17 85.853L27.17 91.382L27.17 91.382z"/>
  <line stroke-width="0.037" stroke-linejoin="round" stroke-miterlimit="10" x1="27.17" y1="85.853" x2="27.385" y2="85.853"/>
  <line stroke-width="0.037" stroke-linejoin="round" stroke-miterlimit="10" x1="27.17" y1="91.382" x2="27.385" y2="91.382"/>
  <line stroke-width="0.11" stroke-linejoin="round" stroke-miterlimit="10" x1="30.582" y1="83.088" x2="27.213" y2="83.088"/>
  <path stroke="none" fill="#000000" d="M29.934 83.088C29.934 82.743 30.236 82.441 30.582 82.441 30.928 82.441 31.187 82.743 31.187 83.088 31.187 83.435 30.928 83.694 30.582 83.694 30.236 83.694 29.934 83.433 29.934 83.088z"/>
  <path stroke-width="0.037" stroke-linejoin="round" stroke-miterlimit="10" d="M27.17 85.853L27.17 80.325L27.17 85.853L27.17 85.853z"/>
  <line stroke-width="0.037" stroke-linejoin="round" stroke-miterlimit="10" x1="27.17" y1="80.325" x2="27.385" y2="80.325"/>
  <line stroke-width="0.037" stroke-linejoin="round" stroke-miterlimit="10" x1="27.17" y1="85.853" x2="27.385" y2="85.853"/>
  <line stroke-width="0.11" stroke-linejoin="round" stroke-miterlimit="10" x1="30.582" y1="77.56" x2="27.213" y2="77.56"/>
  <path stroke="none" fill="#000000" d="M29.934 77.56C29.934 77.215 30.236 76.912 30.582 76.912 30.928 76.912 31.187 77.215 31.187 77.56 31.187 77.906 30.928 78.165 30.582 78.165 30.236 78.165 29.934 77.906 29.934 77.56z"/>
  <path stroke-width="0.037" stroke-linejoin="round" stroke-miterlimit="10" d="M27.17 80.325L27.17 74.753L27.17 80.325L27.17 80.325z"/>
  <line stroke-width="0.037" stroke-linejoin="round" stroke-miterlimit="10" x1="27.17" y1="74.753" x2="27.385" y2="74.753"/>
  <line stroke-width="0.037" stroke-linejoin="round" stroke-miterlimit="10" x1="27.17" y1="80.325" x2="27.385" y2="80.325"/>
  <polyline stroke-width="0.11" stroke-linejoin="round" stroke-miterlimit="10" points="27.343 88.617 13.348 88.617 13.348 84.471"/>
  <polyline stroke-width="0.11" stroke-linejoin="round" stroke-miterlimit="10" points="27.343 77.56 13.348 77.56 13.348 81.49"/>
  <line stroke-width="0.11" stroke-linejoin="round" stroke-miterlimit="10" x1="27.343" y1="83.088" x2="14.211" y2="83.088"/>
  <path stroke="none" fill="#FFFFFF" d="M12.224 79.418C14.255 79.418 15.896 81.058 15.896 83.088 15.896 85.075 14.255 86.716 12.224 86.716 10.237 86.716 8.553 85.075 8.553 83.088 8.553 81.058 10.237 79.418 12.224 79.418z"/>
  <path stroke-width="0.11" stroke-linejoin="round" stroke-miterlimit="10" d="M12.224 79.418C14.255 79.418 15.896 81.058 15.896 83.088C15.896 85.075 14.255 86.716 12.224 86.716C10.237 86.716 8.553 85.075 8.553 83.088C8.553 81.058 10.237 79.418 12.224 79.418L12.224 79.418z"/>
  <line stroke-width="0.11" stroke-linejoin="round" stroke-miterlimit="10" x1="30.582" y1="71.987" x2="27.213" y2="71.987"/>
  <path stroke="none" fill="#000000" d="M29.934 71.987C29.934 71.643 30.236 71.382 30.582 71.382 30.928 71.382 31.187 71.643 31.187 71.987 31.187 72.334 30.928 72.635 30.582 72.635 30.236 72.635 29.934 72.334 29.934 71.987z"/>
  <path stroke-width="0.037" stroke-linejoin="round" stroke-miterlimit="10" d="M27.17 74.753L27.17 69.224L27.17 74.753L27.17 74.753z"/>
  <line stroke-width="0.037" stroke-linejoin="round" stroke-miterlimit="10" x1="27.17" y1="69.222" x2="27.385" y2="69.222"/>
  <line stroke-width="0.037" stroke-linejoin="round" stroke-miterlimit="10" x1="27.17" y1="74.753" x2="27.385" y2="74.753"/>
  <line stroke-width="0.11" stroke-linejoin="round" stroke-miterlimit="10" x1="30.582" y1="66.459" x2="27.213" y2="66.459"/>
  <path stroke="none" fill="#000000" d="M29.934 66.459C29.934 66.114 30.236 65.855 30.582 65.855 30.928 65.855 31.187 66.114 31.187 66.459 31.187 66.805 30.928 67.063 30.582 67.063 30.236 67.063 29.934 66.805 29.934 66.459z"/>
  <path stroke-width="0.037" stroke-linejoin="round" stroke-miterlimit="10" d="M27.17 69.222L27.17 63.695L27.17 69.222L27.17 69.222z"/>
  <line stroke-width="0.037" stroke-linejoin="round" stroke-miterlimit="10" x1="27.17" y1="63.695" x2="27.385" y2="63.695"/>
  <line stroke-width="0.037" stroke-linejoin="round" stroke-miterlimit="10" x1="27.17" y1="69.222" x2="27.385" y2="69.222"/>
  <line stroke-width="0.11" stroke-linejoin="round" stroke-miterlimit="10" x1="30.582" y1="60.929" x2="27.213" y2="60.929"/>
  <path stroke="none" fill="#000000" d="M29.934 60.929C29.934 60.585 30.236 60.281 30.582 60.281 30.928 60.281 31.187 60.585 31.187 60.929 31.187 61.276 30.928 61.534 30.582 61.534 30.236 61.534 29.934 61.276 29.934 60.929z"/>
  <path stroke-width="0.037" stroke-linejoin="round" stroke-miterlimit="10" d="M27.17 63.695L27.17 58.165L27.17 63.695L27.17 63.695z"/>
  <line stroke-width="0.037" stroke-linejoin="round" stroke-miterlimit="10" x1="27.17" y1="58.165" x2="27.385" y2="58.165"/>
  <line stroke-width="0.037" stroke-linejoin="round" stroke-miterlimit="10" x1="27.17" y1="63.695" x2="27.385" y2="63.695"/>
  <polyline stroke-width="0.11" stroke-linejoin="round" stroke-miterlimit="10" points="27.213 71.987 13.217 71.987 13.217 67.841"/>
  <polyline stroke-width="0.11" stroke-linejoin="round" stroke-miterlimit="10" points="27.213 60.929 13.217 60.929 13.217 64.861"/>
  <line stroke-width="0.11" stroke-linejoin="round" stroke-miterlimit="10" x1="27.213" y1="66.459" x2="14.082" y2="66.459"/>
  <path stroke="none" fill="#FFFFFF" d="M12.095 62.831C14.125 62.831 15.766 64.429 15.766 66.459 15.766 68.489 14.125 70.087 12.095 70.087 10.064 70.087 8.423 68.489 8.423 66.459 8.423 64.429 10.064 62.831 12.095 62.831z"/>
  <path stroke-width="0.11" stroke-linejoin="round" stroke-miterlimit="10" d="M12.095 62.831C14.125 62.831 15.766 64.429 15.766 66.459C15.766 68.489 14.125 70.087 12.095 70.087C10.064 70.087 8.423 68.489 8.423 66.459C8.423 64.429 10.064 62.831 12.095 62.831L12.095 62.831z"/>
  <line stroke="#00B000" stroke-width="0.183" stroke-linejoin="round" stroke-miterlimit="10" x1="50.279" y1="14.712" x2="50.279" y2="37.777"/>
  <path stroke="none" fill="#007D00" d="M49.329 14.971L50.322 12.077 51.273 14.971 49.329 14.971z"/>
  <line stroke="#00B000" stroke-width="0.183" stroke-linejoin="round" stroke-miterlimit="10" x1="65.007" y1="14.539" x2="65.007" y2="37.777"/>
  <path stroke="none" fill="#008A00" d="M64.015 14.756L65.007 11.904 65.959 14.756 64.015 14.756z"/>
  <line stroke-width="0.11" stroke-linejoin="round" stroke-miterlimit="10" x1="12.095" y1="12.077" x2="12.095" y2="49.656"/>
  <line stroke-width="0.11" stroke-linejoin="round" stroke-miterlimit="10" x1="12.095" y1="43.868" x2="12.095" y2="46.072"/>
  <line stroke="#00B0F0" stroke-width="0.183" stroke-linejoin="round" stroke-miterlimit="10" x1="12.095" y1="12.077" x2="12.095" y2="49.656"/>
  <line stroke="#00B0F0" stroke-width="0.183" stroke-linejoin="round" stroke-miterlimit="10" x1="19.437" y1="11.904" x2="19.437" y2="55.487"/>
  <line stroke="#00B0F0" stroke-width="0.183" stroke-linejoin="round" stroke-miterlimit="10" x1="27.213" y1="49.786" x2="12.095" y2="49.656"/>
  <path stroke="none" fill="#00B0F0" d="M26.996 48.792L29.89 49.786 26.996 50.737 26.996 48.792z"/>
  <line stroke="#00B0F0" stroke-width="0.183" stroke-linejoin="round" stroke-miterlimit="10" x1="19.437" y1="55.487" x2="27.17" y2="55.357"/>
  <path stroke="none" fill="#00B0F0" d="M26.911 54.408L29.804 55.314 26.911 56.351 26.911 54.408z"/>
  <g>
   <line stroke-width="0.106" x1="47.643" y1="121.79" x2="47.643" y2="117.18"/>
   <path stroke="none" fill="#000000" d="M47.031 116.992C47.031 116.647 47.334 116.343 47.679 116.343 48.024 116.343 48.284 116.647 48.284 116.992 48.284 117.337 48.024 117.596 47.679 117.596 47.334 117.596 47.031 117.337 47.031 116.992z"/>
  </g>
  <line stroke-width="0.106" x1="53.216" y1="121.79" x2="53.216" y2="117.18"/>
  <path stroke="none" fill="#000000" d="M52.603 116.992C52.603 116.647 52.905 116.343 53.252 116.343 53.597 116.343 53.856 116.647 53.856 116.992 53.856 117.337 53.597 117.596 53.252 117.596 52.905 117.596 52.603 117.337 52.603 116.992z"/>
  <line stroke-width="0.106" x1="72.061" y1="121.822" x2="72.061" y2="117.212"/>
  <path stroke="none" fill="#000000" d="M71.447 117.022C71.447 116.677 71.751 116.375 72.096 116.375 72.441 116.375 72.7 116.677 72.7 117.022 72.7 117.368 72.441 117.628 72.096 117.628 71.751 117.628 71.447 117.368 71.447 117.022z"/>
  <line stroke-width="0.106" x1="66.287" y1="121.822" x2="66.287" y2="117.212"/>
  <path stroke="none" fill="#000000" d="M65.674 117.022C65.674 116.677 65.977 116.375 66.322 116.375 66.668 116.375 66.927 116.677 66.927 117.022 66.927 117.368 66.668 117.628 66.322 117.628 65.977 117.628 65.674 117.368 65.674 117.022z"/>
  <polyline stroke-width="0.11" stroke-linejoin="round" stroke-miterlimit="10" points="91.097 60.929 105.093 60.929 105.093 65.076"/>
  <polyline stroke-width="0.11" stroke-linejoin="round" stroke-miterlimit="10" points="91.097 71.987 105.093 71.987 105.093 68.057"/>
  <line stroke-width="0.11" stroke-linejoin="round" stroke-miterlimit="10" x1="91.097" y1="66.459" x2="104.228" y2="66.459"/>
  <path stroke-width="0.11" stroke-linejoin="round" stroke-miterlimit="10" fill="#FFFFFF" d="M106.215 70.131C104.186 70.131 102.543 68.489 102.543 66.459 102.543 64.471 104.186 62.831 106.215 62.831 108.203 62.831 109.887 64.471 109.887 66.459 109.887 68.489 108.203 70.131 106.215 70.131L106.215 70.131z"/>
  <polyline stroke-width="0.11" stroke-linejoin="round" stroke-miterlimit="10" points="91.227 77.56 105.221 77.56 105.221 81.706"/>
  <polyline stroke-width="0.11" stroke-linejoin="round" stroke-miterlimit="10" points="91.227 88.617 105.221 88.617 105.221 84.686"/>
  <line stroke-width="0.11" stroke-linejoin="round" stroke-miterlimit="10" x1="91.227" y1="83.088" x2="104.358" y2="83.088"/>
  <path stroke-width="0.11" stroke-linejoin="round" stroke-miterlimit="10" fill="#FFFFFF" d="M106.344 86.716C104.314 86.716 102.674 85.118 102.674 83.088 102.674 81.058 104.314 79.459 106.344 79.459 108.376 79.459 110.016 81.058 110.016 83.088 110.016 85.118 108.376 86.716 106.344 86.716L106.344 86.716z"/>
  <line stroke-width="0.11" stroke-linejoin="round" stroke-miterlimit="10" x1="102.281" y1="11.904" x2="105.953" y2="11.904"/>
  <line stroke-width="0.11" stroke-linejoin="round" stroke-miterlimit="10" x1="109.623" y1="11.731" x2="113.296" y2="11.731"/>
  <polyline stroke="#00B0F0" stroke-width="0.183" points="104.117 11.904 104.117 49.201 88.29 49.201"/>
  <polyline stroke="#00B0F0" stroke-width="0.183" points="111.459 11.731 111.459 33.165 111.459 54.737 88.29 54.737"/>
 </g>
 <g id="120mm_x0020_hidden_x0020_Schneider_x0020_layer_x0020_for_x0020_editor">
  <polygon stroke="none" points="0 150.832 0 159.832 120 159.832 120 150.832 0 150.832"/>
 </g>
 <g id="cutout_x0020_layer">
 </g>
 <g id="outline_x0020_layer">
 </g>
 <g id="zoom_x0020_layer">
 </g>
 <g id="arrow_x0020_layer">
 </g>
 <g id="_x0020_cable_x0020_layer">
 </g>
 <g id="symbol_x0020_layer">
 </g>
 <g id="_x0020_text_x0020_layer">
  <g>
   <text x="0.701" y="4.381" stroke="none" fill="#000000" font-family="'Arial'" font-size="2.692">From power supply unit A401 </text>
   <text x="9.901" y="7.556" stroke="none" fill="#000000" font-family="'Arial'" font-size="2.692">supply of fans </text>
   <text x="14.092" y="10.73" stroke="none" fill="#000000" font-family="'Arial'" font-size="2.692">M1, M2</text>
  </g>
  <g>
   <text x="47.341" y="2.117" stroke="none" fill="#000000" font-family="'Arial'" font-size="2.692">Fan speed control to </text>
   <text x="47.341" y="5.291" stroke="none" fill="#000000" font-family="'Arial'" font-size="2.692">interface board (A801) </text>
   <text x="47.341" y="8.467" stroke="none" fill="#000000" font-family="'Arial'" font-size="2.692">via static bypass switch </text>
   <text x="47.341" y="11.641" stroke="none" fill="#000000" font-family="'Arial'" font-size="2.692">controller (A401)</text>
  </g>
  <g>
   <text x="2.955" y="126.888" stroke="none" fill="#000000" font-family="'Arial'" font-size="3.314">Fan module for </text>
   <text x="2.955" y="130.415" stroke="none" fill="#000000" font-family="'Arial'" font-size="3.314">static bypass switch </text>
   <text x="2.955" y="133.943" stroke="none" fill="#000000" font-family="'Arial'" font-size="3.314">E401 (10-40 kVA)</text>
  </g>
  <text transform="matrix(0 -1 1 0 13.106 68.667)" stroke="none" fill="#000000" font-family="'Arial'" font-size="3.314">M1</text>
  <text transform="matrix(0 -1 1 0 13.106 85.162)" stroke="none" fill="#000000" font-family="'Arial'" font-size="3.314">M2</text>
  <text transform="matrix(0 -1 1 0 59.079 93.17)" stroke="none" fill="#000000" font-family="'Arial'" font-size="3.314">Fan monitoring board</text>
  <g>
   <text x="18.911" y="76.98" stroke="none" fill="#000000" font-family="'Arial'" font-size="2.146">RED</text>
   <text x="18.911" y="82.433" stroke="none" fill="#000000" font-family="'Arial'" font-size="2.146">WHITE</text>
   <text x="18.911" y="87.969" stroke="none" fill="#000000" font-family="'Arial'" font-size="2.146">BLUE</text>
  </g>
  <g>
   <text x="18.911" y="60.299" stroke="none" fill="#000000" font-family="'Arial'" font-size="2.146">RED</text>
   <text x="18.911" y="65.753" stroke="none" fill="#000000" font-family="'Arial'" font-size="2.146">WHITE</text>
   <text x="18.911" y="71.289" stroke="none" fill="#000000" font-family="'Arial'" font-size="2.146">BLUE</text>
  </g>
  <text x="19.719" y="49.084" stroke="none" fill="#000000" font-family="'Arial'" font-size="2.146">RED</text>
  <text x="19.719" y="54.703" stroke="none" fill="#000000" font-family="'Arial'" font-size="2.146">BLACK</text>
  <text transform="matrix(0 -1 1 0 49.676 33.265)" stroke="none" fill="#000000" font-family="'Arial'" font-size="2.146">RED</text>
  <text transform="matrix(0 -1 1 0 64.236 33.844)" stroke="none" fill="#000000" font-family="'Arial'" font-size="2.146">BLACK</text>
  <text transform="matrix(0 -1 1 0 11.103 22.721)" stroke="none" fill="#000000" font-family="'Arial'" font-size="2.146">K37</text>
  <text transform="matrix(0 -1 1 0 18.856 22.721)" stroke="none" fill="#000000" font-family="'Arial'" font-size="2.146">K38</text>
  <text x="53.179" y="50.808" stroke="none" fill="#000000" font-family="'Arial'" font-size="2.65">SENSE</text>
  <text transform="matrix(0 -1 1 0 107.206 68.667)" stroke="none" fill="#000000" font-family="'Arial'" font-size="3.314">M3</text>
  <text transform="matrix(0 -1 1 0 107.206 85.162)" stroke="none" fill="#000000" font-family="'Arial'" font-size="3.314">M4</text>
  <g>
   <text x="84.17" y="4.381" stroke="none" fill="#000000" font-family="'Arial'" font-size="2.692">From power supply unit A401</text>
   <text x="93.37" y="7.556" stroke="none" fill="#000000" font-family="'Arial'" font-size="2.692">supply of fans</text>
   <text x="97.188" y="10.73" stroke="none" fill="#000000" font-family="'Arial'" font-size="2.692">M3, M4</text>
  </g>
  <text transform="matrix(0 -1 1 0 103.805 22.721)" stroke="none" fill="#000000" font-family="'Arial'" font-size="2.146">K44</text>
  <text transform="matrix(0 -1 1 0 111.156 22.721)" stroke="none" fill="#000000" font-family="'Arial'" font-size="2.146">K45</text>
  <path stroke="none" fill="#00B0F0" d="M91.183 55.729L88.29 54.737 91.183 53.786 91.183 55.729z"/>
  <path stroke="none" fill="#00B0F0" d="M91.271 50.115L88.376 49.207 91.271 48.17 91.271 50.115z"/>
  <g>
   <text x="92.712" y="76.98" stroke="none" fill="#000000" font-family="'Arial'" font-size="2.146">RED</text>
   <text x="92.712" y="82.433" stroke="none" fill="#000000" font-family="'Arial'" font-size="2.146">WHITE</text>
   <text x="92.712" y="87.969" stroke="none" fill="#000000" font-family="'Arial'" font-size="2.146">BLUE</text>
  </g>
  <g>
   <text x="92.712" y="60.299" stroke="none" fill="#000000" font-family="'Arial'" font-size="2.146">RED</text>
   <text x="92.712" y="65.753" stroke="none" fill="#000000" font-family="'Arial'" font-size="2.146">WHITE</text>
   <text x="92.712" y="71.289" stroke="none" fill="#000000" font-family="'Arial'" font-size="2.146">BLUE</text>
  </g>
  <text x="92.712" y="48.683" stroke="none" fill="#000000" font-family="'Arial'" font-size="2.146">RED</text>
  <text x="92.712" y="54.304" stroke="none" fill="#000000" font-family="'Arial'" font-size="2.146">BLACK</text>
 </g>
 <g id="text-_x0020_DO_x0020_NOT_x0020_translate">
  <text transform="matrix(0 -1 1 0 51.262 47.962)" stroke="none" fill="#000000" font-family="'Arial'" font-size="2.65">J1000:1</text>
  <text transform="matrix(0 -1 1 0 58.533 47.962)" stroke="none" fill="#000000" font-family="'Arial'" font-size="2.65">J1000:2</text>
  <text transform="matrix(0 -1 1 0 65.879 47.962)" stroke="none" fill="#000000" font-family="'Arial'" font-size="2.65">J1000:3</text>
  <text transform="matrix(0 -1 1 0 67.234 116.206)" stroke="none" fill="#000000" font-family="'Arial'" font-size="2.65">J1004:1  +15/24</text>
  <text transform="matrix(0 -1 1 0 73.382 116.206)" stroke="none" fill="#000000" font-family="'Arial'" font-size="2.65">J1004:2  -15/24</text>
  <text transform="matrix(0 -1 1 0 54.305 116.206)" stroke="none" fill="#000000" font-family="'Arial'" font-size="2.65">J1002:2  -15/24</text>
  <text transform="matrix(0 -1 1 0 49.012 116.206)" stroke="none" fill="#000000" font-family="'Arial'" font-size="2.65">J1002:1  +15/24</text>
  <text x="31.242" y="50.808" stroke="none" fill="#000000" font-family="'Arial'" font-size="2.65">J1001:1  +15/24</text>
  <text x="68.141" y="50.328" stroke="none" fill="#000000" font-family="'Arial'" font-size="2.65">+15/24 J1003:1</text>
  <text x="31.242" y="56.423" stroke="none" fill="#000000" font-family="'Arial'" font-size="2.65">J1001:2  -15/24</text>
  <text x="68.807" y="55.621" stroke="none" fill="#000000" font-family="'Arial'" font-size="2.65">-15/24 J1003:2</text>
  <text x="31.242" y="62.036" stroke="none" fill="#000000" font-family="'Arial'" font-size="2.65">J1005:+</text>
  <text x="76.986" y="61.715" stroke="none" fill="#000000" font-family="'Arial'" font-size="2.65">J1010:+</text>
  <text x="31.242" y="67.65" stroke="none" fill="#000000" font-family="'Arial'" font-size="2.65">J1007:1</text>
  <text x="77.061" y="67.489" stroke="none" fill="#000000" font-family="'Arial'" font-size="2.65">J1009:3</text>
  <text x="31.242" y="73.102" stroke="none" fill="#000000" font-family="'Arial'" font-size="2.65">J1006:-</text>
  <text x="77.652" y="72.942" stroke="none" fill="#000000" font-family="'Arial'" font-size="2.65">J1008:-</text>
  <text x="31.242" y="78.715" stroke="none" fill="#000000" font-family="'Arial'" font-size="2.65">J1005:+</text>
  <text x="76.986" y="78.555" stroke="none" fill="#000000" font-family="'Arial'" font-size="2.65">J1010:+</text>
  <text x="31.242" y="84.17" stroke="none" fill="#000000" font-family="'Arial'" font-size="2.65">J1007:2</text>
  <text x="77.061" y="84.009" stroke="none" fill="#000000" font-family="'Arial'" font-size="2.65">J1009:2</text>
  <text x="31.242" y="89.623" stroke="none" fill="#000000" font-family="'Arial'" font-size="2.65">J1006:-</text>
  <text x="77.652" y="89.462" stroke="none" fill="#000000" font-family="'Arial'" font-size="2.65">J1008:-</text>
  <text x="31.242" y="95.236" stroke="none" fill="#000000" font-family="'Arial'" font-size="2.65">J1005:+</text>
  <text x="76.986" y="95.075" stroke="none" fill="#000000" font-family="'Arial'" font-size="2.65">J1010:+</text>
  <text x="31.242" y="101.01" stroke="none" fill="#000000" font-family="'Arial'" font-size="2.65">J1007:3</text>
  <text x="77.061" y="100.528" stroke="none" fill="#000000" font-family="'Arial'" font-size="2.65">J1009:1</text>
  <text x="31.242" y="106.302" stroke="none" fill="#000000" font-family="'Arial'" font-size="2.65">J1006:-</text>
  <text x="77.652" y="106.143" stroke="none" fill="#000000" font-family="'Arial'" font-size="2.65">J1008:-</text>
 </g>
 <g id="_x0020_callout_x0020_layer">
 </g>
</svg>
