<?xml version="1.0" encoding="UTF-8"?>
<!-- Generator: PTC Arbortext IsoDraw 7.4 M001 -->
<svg xmlns="http://www.w3.org/2000/svg" xmlns:xlink="http://www.w3.org/1999/xlink" width="100%" height="100%" viewBox="0 0 170 131.376" fill-rule="evenodd" clip-rule="evenodd" stroke="#000000" stroke-linecap="round" fill="none" xml:space="preserve" preserveAspectRatio="xMidYMid meet" zoomAndPan="magnify" version="1.1" contentScriptType="text/ecmascript" contentStyleType="text/css">
 <g id="Standard_x0020_layer">
  <path stroke-width="0.2" fill="#E5E5E5" d="M107.753 101.704L107.753 57.399 107.753 0.241 145.604 0.241 145.604 130.968 21.464 130.968 21.464 103.4 107.753 103.4 107.753 101.704z"/>
  <line stroke-width="0.2" x1="37.661" y1="67.942" x2="55.039" y2="67.942"/>
  <line stroke-width="0.2" x1="25.246" y1="67.942" x2="33.53" y2="67.942"/>
  <line stroke-width="0.2" x1="37.661" y1="81.668" x2="45.944" y2="81.668"/>
  <line stroke-width="0.2" x1="37.409" y1="58.192" x2="64.871" y2="58.192"/>
  <line stroke-width="0.2" x1="24.995" y1="58.192" x2="33.28" y2="58.192"/>
  <line stroke-width="0.2" x1="53.316" y1="67.942" x2="58.381" y2="67.942"/>
  <line stroke-width="0.2" x1="24.995" y1="58.192" x2="17.129" y2="58.192"/>
  <line stroke-width="0.2" x1="25.246" y1="67.942" x2="16.855" y2="67.942"/>
  <line stroke-width="0.2" x1="85.024" y1="68.048" x2="99.251" y2="68.048"/>
  <line stroke-width="0.2" x1="85.471" y1="68.048" x2="71.361" y2="68.048"/>
  <line stroke-width="0.2" x1="45.944" y1="81.668" x2="49.389" y2="81.668"/>
  <line stroke-width="0.2" x1="53.284" y1="81.668" x2="58.368" y2="81.668"/>
  <polyline stroke-width="0.2" points="71.266 81.787 87.43 81.787 87.43 68.314"/>
  <g>
   <path stroke-width="0.2" d="M88.04 68.052C88.04 67.724 87.775 67.459 87.447 67.459C87.12 67.459 86.855 67.724 86.855 68.052C86.855 68.379 87.12 68.644 87.447 68.644C87.775 68.644 88.04 68.379 88.04 68.052"/>
  </g>
  <path stroke-width="0.2" fill="#000000" d="M88.04 68.057C88.04 67.778 87.727 67.465 87.447 67.465 87.168 67.465 86.855 67.778 86.855 68.057 86.855 68.335 87.168 68.65 87.447 68.65 87.727 68.65 88.04 68.335 88.04 68.057z"/>
  <g>
   <path stroke-width="0.2" d="M44.179 81.679C44.179 81.352 43.914 81.085 43.588 81.085C43.259 81.085 42.994 81.352 42.994 81.679C42.994 82.006 43.259 82.271 43.588 82.271C43.914 82.271 44.179 82.006 44.179 81.679"/>
  </g>
  <path stroke-width="0.2" fill="#000000" d="M44.179 81.679C44.179 81.539 44.121 81.376 44.006 81.26 43.89 81.144 43.726 81.085 43.588 81.085 43.448 81.085 43.283 81.144 43.168 81.26 43.052 81.376 42.994 81.539 42.994 81.679 42.994 81.819 43.052 81.981 43.168 82.097 43.283 82.212 43.448 82.271 43.588 82.271 43.726 82.271 43.89 82.212 44.006 82.097 44.121 81.981 44.179 81.819 44.179 81.679z"/>
  <line stroke-width="0.2" x1="43.587" y1="81.668" x2="43.587" y2="93.29"/>
  <g>
   <path stroke-width="0.2" d="M99.555 68.052C99.555 67.724 99.29 67.459 98.963 67.459C98.637 67.459 98.37 67.724 98.37 68.052C98.37 68.379 98.637 68.644 98.963 68.644C99.29 68.644 99.555 68.379 99.555 68.052"/>
  </g>
  <path stroke-width="0.2" fill="#000000" d="M99.555 68.052C99.555 67.772 99.242 67.459 98.963 67.459 98.685 67.459 98.37 67.772 98.37 68.052 98.37 68.331 98.685 68.644 98.963 68.644 99.242 68.644 99.555 68.331 99.555 68.052z"/>
  <polyline stroke-width="0.2" points="43.587 93.441 90.429 93.441 90.429 70.959"/>
  <polygon stroke-width="0.2" points="58.381 63.6 71.329 63.6 71.329 72.108 58.381 72.108 58.381 63.6"/>
  <line stroke-width="0.2" x1="64.871" y1="58.295" x2="64.871" y2="63.6"/>
  <line stroke-width="0.2" x1="58.381" y1="63.6" x2="64.855" y2="72.108"/>
  <line stroke-width="0.2" x1="71.361" y1="63.6" x2="64.855" y2="72.108"/>
  <text x="63.268" y="68.308" stroke="none" fill="#000000" font-family="'Arial'" font-size="5.016">=</text>
  <path stroke-width="0.2" d="M59.85 70.376C60.351 69.498 60.509 69.787 60.954 70.382C61.136 70.628 61.354 71.066 61.981 70.251"/>
  <path stroke-width="0.2" d="M67.813 70.376C68.314 69.498 68.471 69.787 68.915 70.382C69.097 70.628 69.317 71.066 69.944 70.251"/>
  <line stroke-width="0.2" x1="33.374" y1="57.633" x2="33.374" y2="58.716"/>
  <g>
   <path stroke-width="0.2" d="M34.177 58.173C34.177 57.966 34.009 57.798 33.801 57.798C33.594 57.798 33.426 57.966 33.426 58.173C33.426 58.381 33.594 58.551 33.801 58.551C34.009 58.551 34.177 58.381 34.177 58.173"/>
  </g>
  <line stroke-width="0.2" x1="37.661" y1="67.942" x2="34.182" y2="69.26"/>
  <line stroke-width="0.2" x1="33.357" y1="59.71" x2="37.409" y2="58.192"/>
  <line stroke-width="0.2" x1="33.582" y1="67.478" x2="33.582" y2="68.561"/>
  <g>
   <path stroke-width="0.2" d="M34.335 68.019C34.335 67.813 34.165 67.644 33.957 67.644C33.75 67.644 33.582 67.813 33.582 68.019C33.582 68.227 33.75 68.396 33.957 68.396C34.165 68.396 34.335 68.227 34.335 68.019"/>
  </g>
  <line stroke-width="0.2" x1="49.222" y1="81.222" x2="49.222" y2="82.305"/>
  <g>
   <path stroke-width="0.2" d="M49.973 81.765C49.973 81.557 49.805 81.388 49.597 81.388C49.39 81.388 49.222 81.557 49.222 81.765C49.222 81.971 49.39 82.141 49.597 82.141C49.805 82.141 49.973 81.971 49.973 81.765"/>
  </g>
  <polygon stroke-width="0.2" points="58.287 78.114 58.287 88.084 71.266 88.084 71.266 78.114 58.287 78.114"/>
  <line stroke-width="0.2" x1="37.661" y1="81.668" x2="34.182" y2="82.984"/>
  <path stroke-width="0.2" fill="#000000" d="M99.555 71.052C99.555 70.772 99.242 70.459 98.963 70.459 98.685 70.459 98.37 70.772 98.37 71.052 98.37 71.331 98.685 71.644 98.963 71.644 99.242 71.644 99.555 71.331 99.555 71.052z"/>
  <line stroke-width="0.2" x1="99.463" y1="70.959" x2="90.429" y2="70.959"/>
  <polyline stroke-width="0.2" points="107.733 70.003 103.076 70.003 99.251 68.222"/>
  <g>
   <path stroke-width="0.2" d="M103.67 70.003C103.67 69.676 103.403 69.409 103.076 69.409C102.75 69.409 102.484 69.676 102.484 70.003C102.484 70.329 102.75 70.594 103.076 70.594C103.403 70.594 103.67 70.329 103.67 70.003"/>
  </g>
  <path stroke-width="0.2" fill="#000000" d="M103.67 70.003C103.67 69.724 103.355 69.409 103.076 69.409 102.798 69.409 102.484 69.724 102.484 70.003 102.484 70.281 102.798 70.594 103.076 70.594 103.355 70.594 103.67 70.281 103.67 70.003z"/>
  <path stroke-width="0.2" fill="#000000" d="M99.486 68.331L99.864 69.102 100.367 68.096 99.486 68.331z"/>
  <line stroke-width="0.2" x1="53.36" y1="81.668" x2="49.881" y2="82.984"/>
  <polygon stroke-width="0.2" points="21.556 52 21.556 101.528 104.248 101.528 104.248 52 21.556 52"/>
  <line stroke-width="0.2" x1="33.914" y1="81.055" x2="33.914" y2="82.138"/>
  <g>
   <path stroke-width="0.2" d="M34.667 81.596C34.667 81.39 34.499 81.221 34.29 81.221C34.084 81.221 33.914 81.39 33.914 81.596C33.914 81.805 34.084 81.974 34.29 81.974C34.499 81.974 34.667 81.805 34.667 81.596"/>
  </g>
  <line stroke-width="0.2" x1="25.736" y1="124.493" x2="34.02" y2="124.493"/>
  <line stroke-width="0.2" x1="25.736" y1="124.493" x2="16.407" y2="124.493"/>
  <line stroke-width="0.2" x1="34.128" y1="123.948" x2="34.128" y2="125.031"/>
  <g>
   <path stroke-width="0.2" d="M34.881 124.49C34.881 124.283 34.713 124.114 34.505 124.114C34.298 124.114 34.128 124.283 34.128 124.49C34.128 124.697 34.298 124.867 34.505 124.867C34.713 124.867 34.881 124.697 34.881 124.49"/>
  </g>
  <polyline stroke-width="0.2" points="33.801 29.493 25.736 29.493 20.193 29.493 20.193 81.599 33.914 81.599"/>
  <line stroke-width="0.2" x1="106.73" y1="17.986" x2="119.308" y2="17.986"/>
  <line stroke-width="0.2" x1="119.308" y1="17.542" x2="119.308" y2="18.623"/>
  <g>
   <path stroke-width="0.2" d="M120.061 18.082C120.061 17.875 119.891 17.707 119.685 17.707C119.477 17.707 119.308 17.875 119.308 18.082C119.308 18.291 119.477 18.458 119.685 18.458C119.891 18.458 120.061 18.291 120.061 18.082"/>
  </g>
  <line stroke-width="0.2" x1="106.73" y1="69.986" x2="119.308" y2="69.986"/>
  <line stroke-width="0.2" x1="119.308" y1="69.542" x2="119.308" y2="70.623"/>
  <g>
   <path stroke-width="0.2" d="M120.061 70.082C120.061 69.875 119.891 69.706 119.685 69.706C119.477 69.706 119.308 69.875 119.308 70.082C119.308 70.29 119.477 70.459 119.685 70.459C119.891 70.459 120.061 70.29 120.061 70.082"/>
  </g>
  <line stroke-width="0.2" x1="123.218" y1="70.016" x2="128.302" y2="70.016"/>
  <line stroke-width="0.2" x1="123.293" y1="70.016" x2="119.816" y2="71.334"/>
  <line stroke-width="0.2" x1="123.218" y1="18.016" x2="128.302" y2="18.016"/>
  <line stroke-width="0.2" x1="123.293" y1="18.016" x2="119.816" y2="19.335"/>
  <polyline stroke-width="0.2" points="128.302 18.016 128.302 25.943 128.302 70.016 128.302 44.863 139.786 44.863"/>
  <line stroke-width="0.2" x1="139.786" y1="44.863" x2="151.003" y2="44.863"/>
  <line stroke-width="0.2" x1="38.505" y1="124.49" x2="44.36" y2="124.49"/>
  <line stroke-width="0.2" x1="38.505" y1="124.49" x2="35.027" y2="125.808"/>
  <polyline stroke-width="0.2" points="55.545 124.49 60.145 124.49 60.145 108.762 26.426 108.762 26.426 81.599"/>
  <path stroke-width="0.2" fill="#000000" d="M27.018 81.554C27.018 81.414 26.96 81.251 26.844 81.135 26.728 81.019 26.565 80.962 26.425 80.962 26.286 80.962 26.123 81.019 26.007 81.135 25.891 81.251 25.833 81.414 25.833 81.554 25.833 81.694 25.891 81.856 26.007 81.972 26.123 82.088 26.286 82.146 26.425 82.146 26.565 82.146 26.728 82.088 26.844 81.972 26.96 81.856 27.018 81.694 27.018 81.554z"/>
  <g>
   <g>
    <path stroke-width="0.2" stroke-dasharray="0.01 0.4" d="M51.046 124.498C51.046 123.575 50.673 122.739 50.067 122.134C48.762 120.828 46.646 120.828 45.341 122.134C44.688 122.787 44.36 123.641 44.36 124.498C44.36 125.421 44.735 126.257 45.341 126.861C46.646 128.167 48.762 128.167 50.067 126.861C50.72 126.209 51.046 125.352 51.046 124.498"/>
   </g>
   <g>
    <path stroke-width="0.2" stroke-dasharray="0.01 0.4" d="M55.546 124.498C55.546 123.575 55.173 122.739 54.567 122.134C53.262 120.828 51.146 120.828 49.841 122.134C49.188 122.787 48.86 123.641 48.86 124.498C48.86 125.421 49.235 126.257 49.841 126.861C51.146 128.167 53.262 128.167 54.567 126.861C55.22 126.209 55.546 125.352 55.546 124.498"/>
   </g>
  </g>
 </g>
 <g id="UPS1">
  <line stroke-width="0.2" x1="37.661" y1="16.042" x2="54.195" y2="16.042"/>
  <line stroke-width="0.2" x1="25.246" y1="16.042" x2="33.53" y2="16.042"/>
  <line stroke-width="0.2" x1="37.661" y1="29.768" x2="45.944" y2="29.768"/>
  <line stroke-width="0.2" x1="37.409" y1="6.293" x2="64.871" y2="6.293"/>
  <line stroke-width="0.2" x1="24.995" y1="6.293" x2="33.28" y2="6.293"/>
  <line stroke-width="0.2" x1="53.316" y1="16.042" x2="58.381" y2="16.042"/>
  <line stroke-width="0.2" x1="24.995" y1="6.293" x2="17.269" y2="6.293"/>
  <line stroke-width="0.2" x1="25.246" y1="16.042" x2="17.094" y2="16.042"/>
  <line stroke-width="0.2" x1="85.024" y1="16.147" x2="99.251" y2="16.147"/>
  <line stroke-width="0.2" x1="85.024" y1="16.147" x2="71.361" y2="16.147"/>
  <line stroke-width="0.2" x1="45.944" y1="29.768" x2="49.389" y2="29.768"/>
  <line stroke-width="0.2" x1="53.284" y1="29.768" x2="58.368" y2="29.768"/>
  <polyline stroke-width="0.2" points="71.266 29.887 87.43 29.887 87.43 16.414"/>
  <g>
   <path stroke-width="0.2" d="M88.04 16.152C88.04 15.824 87.775 15.56 87.447 15.56C87.12 15.56 86.855 15.824 86.855 16.152C86.855 16.48 87.12 16.745 87.447 16.745C87.775 16.745 88.04 16.48 88.04 16.152"/>
  </g>
  <path stroke-width="0.2" fill="#000000" d="M88.04 16.157C88.04 15.878 87.727 15.564 87.447 15.564 87.168 15.564 86.855 15.878 86.855 16.157 86.855 16.435 87.168 16.75 87.447 16.75 87.727 16.75 88.04 16.435 88.04 16.157z"/>
  <g>
   <path stroke-width="0.2" d="M44.179 29.778C44.179 29.452 43.914 29.185 43.588 29.185C43.259 29.185 42.994 29.452 42.994 29.778C42.994 30.106 43.259 30.37 43.588 30.37C43.914 30.37 44.179 30.106 44.179 29.778"/>
  </g>
  <path stroke-width="0.2" fill="#000000" d="M44.179 29.778C44.179 29.638 44.121 29.475 44.006 29.359 43.89 29.243 43.726 29.185 43.588 29.185 43.448 29.185 43.283 29.243 43.168 29.359 43.052 29.475 42.994 29.638 42.994 29.778 42.994 29.919 43.052 30.082 43.168 30.198 43.283 30.312 43.448 30.37 43.588 30.37 43.726 30.37 43.89 30.312 44.006 30.198 44.121 30.082 44.179 29.919 44.179 29.778z"/>
  <line stroke-width="0.2" x1="43.587" y1="29.768" x2="43.587" y2="41.39"/>
  <g>
   <path stroke-width="0.2" d="M99.555 16.152C99.555 15.824 99.29 15.56 98.963 15.56C98.637 15.56 98.37 15.824 98.37 16.152C98.37 16.48 98.637 16.745 98.963 16.745C99.29 16.745 99.555 16.48 99.555 16.152"/>
  </g>
  <path stroke-width="0.2" fill="#000000" d="M99.555 16.152C99.555 15.872 99.242 15.56 98.963 15.56 98.685 15.56 98.37 15.872 98.37 16.152 98.37 16.431 98.685 16.745 98.963 16.745 99.242 16.745 99.555 16.431 99.555 16.152z"/>
  <polyline stroke-width="0.2" points="43.587 41.542 90.429 41.542 90.429 19.059"/>
  <polygon stroke-width="0.2" points="58.381 11.701 71.329 11.701 71.329 20.208 58.381 20.208 58.381 11.701"/>
  <line stroke-width="0.2" x1="64.871" y1="6.395" x2="64.871" y2="11.701"/>
  <line stroke-width="0.2" x1="58.381" y1="11.701" x2="64.855" y2="20.208"/>
  <line stroke-width="0.2" x1="71.361" y1="11.701" x2="64.855" y2="20.208"/>
  <text x="63.268" y="16.408" stroke="none" fill="#000000" font-family="'Arial'" font-size="5.016">=</text>
  <path stroke-width="0.2" d="M59.85 18.477C60.351 17.599 60.509 17.887 60.954 18.483C61.136 18.727 61.354 19.166 61.981 18.35"/>
  <path stroke-width="0.2" d="M67.813 18.477C68.314 17.599 68.471 17.887 68.915 18.483C69.097 18.727 69.317 19.166 69.944 18.35"/>
  <line stroke-width="0.2" x1="33.374" y1="5.732" x2="33.374" y2="6.815"/>
  <g>
   <path stroke-width="0.2" d="M34.177 6.274C34.177 6.067 34.009 5.897 33.801 5.897C33.594 5.897 33.426 6.067 33.426 6.274C33.426 6.482 33.594 6.65 33.801 6.65C34.009 6.65 34.177 6.482 34.177 6.274"/>
  </g>
  <line stroke-width="0.2" x1="37.661" y1="16.042" x2="34.182" y2="17.361"/>
  <line stroke-width="0.2" x1="33.357" y1="7.81" x2="37.409" y2="6.293"/>
  <line stroke-width="0.2" x1="33.582" y1="15.579" x2="33.582" y2="16.661"/>
  <g>
   <path stroke-width="0.2" d="M34.335 16.12C34.335 15.913 34.165 15.743 33.957 15.743C33.75 15.743 33.582 15.913 33.582 16.12C33.582 16.327 33.75 16.495 33.957 16.495C34.165 16.495 34.335 16.327 34.335 16.12"/>
  </g>
  <line stroke-width="0.2" x1="49.222" y1="29.323" x2="49.222" y2="30.405"/>
  <g>
   <path stroke-width="0.2" d="M49.973 29.864C49.973 29.657 49.805 29.487 49.597 29.487C49.39 29.487 49.222 29.657 49.222 29.864C49.222 30.071 49.39 30.24 49.597 30.24C49.805 30.24 49.973 30.071 49.973 29.864"/>
  </g>
  <polygon stroke-width="0.2" points="58.287 26.214 58.287 36.183 71.266 36.183 71.266 26.214 58.287 26.214"/>
  <line stroke-width="0.2" x1="37.661" y1="29.768" x2="34.182" y2="31.085"/>
  <path stroke-width="0.2" fill="#000000" d="M99.555 19.152C99.555 18.873 99.242 18.559 98.963 18.559 98.685 18.559 98.37 18.873 98.37 19.152 98.37 19.431 98.685 19.745 98.963 19.745 99.242 19.745 99.555 19.431 99.555 19.152z"/>
  <line stroke-width="0.2" x1="99.463" y1="19.059" x2="90.429" y2="19.059"/>
  <polyline stroke-width="0.2" points="107.733 18.103 103.076 18.103 99.251 16.323"/>
  <g>
   <path stroke-width="0.2" d="M103.67 18.103C103.67 17.775 103.403 17.51 103.076 17.51C102.75 17.51 102.484 17.775 102.484 18.103C102.484 18.429 102.75 18.695 103.076 18.695C103.403 18.695 103.67 18.429 103.67 18.103"/>
  </g>
  <path stroke-width="0.2" fill="#000000" d="M103.67 18.103C103.67 17.824 103.355 17.51 103.076 17.51 102.798 17.51 102.484 17.824 102.484 18.103 102.484 18.382 102.798 18.695 103.076 18.695 103.355 18.695 103.67 18.382 103.67 18.103z"/>
  <path stroke-width="0.2" fill="#000000" d="M99.486 16.431L99.864 17.202 100.367 16.196 99.486 16.431z"/>
  <line stroke-width="0.2" x1="53.36" y1="29.768" x2="49.881" y2="31.085"/>
  <polygon stroke-width="0.2" points="21.556 0.1 21.556 49.628 104.248 49.628 104.248 0.1 21.556 0.1"/>
 </g>
 <g id="170mm_x0020_hidden_x0020_Schneider_x0020_layer_x0020_for_x0020_editor">
  <polygon stroke="none" points="0 122.376 0 131.376 170 131.376 170 122.376 0 122.376"/>
 </g>
 <g id="cutout_x0020_layer">
 </g>
 <g id="outline_x0020_layer">
 </g>
 <g id="arrow_x0020_layer">
 </g>
 <g id="_x0020_cable_x0020_layer">
 </g>
 <g id="symbol_x0020_layer">
 </g>
 <g id="_x0020_text_x0020_layer_translate">
  <text x="0.143" y="59.469" stroke="none" fill="#000000" font-family="'Arial'" font-size="4.179">Batteries</text>
  <text x="7.105" y="69.147" stroke="none" fill="#000000" font-family="'Arial'" font-size="4.179">Input</text>
  <text x="1.956" y="125.612" stroke="none" fill="#000000" font-family="'Arial'" font-size="4.179">Bypass</text>
  <text x="151.747" y="46.613" stroke="none" fill="#000000" font-family="'Arial'" font-size="4.179">Load</text>
  <g>
   <text x="58.918" y="82.131" stroke="none" fill="#000000" font-family="'Arial'" font-size="4.179">Static </text>
   <text x="58.57" y="86.716" stroke="none" fill="#000000" font-family="'Arial'" font-size="4.179">Switch</text>
  </g>
  <text x="91.051" y="99.909" stroke="none" fill="#000000" font-family="'Arial'" font-size="4.179">UPS 2</text>
  <g>
   <text x="127.375" y="124.408" stroke="none" fill="#000000" font-family="'Arial'" font-size="4.179">Auxiliary</text>
   <text x="127.375" y="128.993" stroke="none" fill="#000000" font-family="'Arial'" font-size="4.179">cabinet</text>
  </g>
  <text x="0.143" y="7.469" stroke="none" fill="#000000" font-family="'Arial'" font-size="4.179">Batteries</text>
  <text x="7.105" y="17.147" stroke="none" fill="#000000" font-family="'Arial'" font-size="4.179">Input</text>
  <g>
   <text x="58.918" y="30.131" stroke="none" fill="#000000" font-family="'Arial'" font-size="4.179">Static </text>
   <text x="58.57" y="34.716" stroke="none" fill="#000000" font-family="'Arial'" font-size="4.179">Switch</text>
  </g>
  <text x="91.051" y="47.909" stroke="none" fill="#000000" font-family="'Arial'" font-size="4.179">UPS 1</text>
 </g>
 <g id="_x0020_callout_x0020_layer">
 </g>
 <g id="text_x0020_layer_do_x0020_not_x0020_translate">
  <text x="30.489" y="72.435" stroke="none" fill="#000000" font-family="'Arial'" font-size="4.179">Q001</text>
  <text x="30.489" y="86.936" stroke="none" fill="#000000" font-family="'Arial'" font-size="4.179">Q501</text>
  <text x="93.037" y="75.786" stroke="none" fill="#000000" font-family="'Arial'" font-size="4.179">Q601</text>
  <text x="30.689" y="56.457" stroke="none" fill="#000000" font-family="'Arial'" font-size="4.179">Q201</text>
  <text x="45.994" y="88.206" stroke="none" fill="#000000" font-family="'Arial'" font-size="4.179">Q528</text>
  <text x="30.489" y="20.434" stroke="none" fill="#000000" font-family="'Arial'" font-size="4.179">Q001</text>
  <text x="30.489" y="34.936" stroke="none" fill="#000000" font-family="'Arial'" font-size="4.179">Q501</text>
  <text x="93.037" y="23.786" stroke="none" fill="#000000" font-family="'Arial'" font-size="4.179">Q601</text>
  <text x="30.689" y="4.458" stroke="none" fill="#000000" font-family="'Arial'" font-size="4.179">Q201</text>
  <text x="45.994" y="36.207" stroke="none" fill="#000000" font-family="'Arial'" font-size="4.179">Q528</text>
  <text x="116.424" y="15.904" stroke="none" fill="#000000" font-family="'Arial'" font-size="4.179">Q692</text>
  <text x="116.424" y="67.905" stroke="none" fill="#000000" font-family="'Arial'" font-size="4.179">Q694</text>
  <text x="45.155" y="119.92" stroke="none" fill="#000000" font-family="'Arial'" font-size="4.179">T501</text>
  <text x="32.14" y="129.308" stroke="none" fill="#000000" font-family="'Arial'" font-size="4.179">Q301</text>
 </g>
</svg>
